<?xml version="1.0" encoding="UTF-8"?>
<svg
  xmlns="http://www.w3.org/2000/svg"
  width="848"
  height="600"
  style="background-color:white"
>
  <polygon fill="lightblue" points="380.4228166739123,587.5255766616417 261.3677377762973,484.4208538867465 467.5771833260877,424.89331443793907 586.6322622237027,527.9980372128342" />
  <polygon fill="steelblue" points="261.3677377762973,484.4208538867465 261.3677377762973,72.00196278716575 467.5771833260877,12.474423338358292 467.5771833260877,424.89331443793907" />
  <polygon fill="lightskyblue" points="586.6322622237027,527.9980372128342 586.6322622237027,115.57914611325347 467.5771833260877,12.474423338358292 467.5771833260877,424.89331443793907" />
  <polygon fill="white" points="539.0102306646568,486.7561481028762 539.0102306646567,349.28318440301587 515.1992148851338,328.66223984803685 515.1992148851338,466.1352035478971" />
  <polygon fill="white" points="278.5518582387799,424.47104011940183 278.5518582387799,369.4818546394577 312.9200991637449,359.56059806465646 312.9200991637449,414.5497835446006" />
  <polygon fill="white" points="312.9200991637449,414.5497835446006 312.9200991637449,359.56059806465646 347.28834008871,349.6393414898552 347.28834008871,404.6285269697993" />
  <polygon fill="white" points="347.28834008871,404.6285269697993 347.28834008871,349.6393414898552 381.65658101367507,339.71808491505396 381.65658101367507,394.7072703949981" />
  <polygon fill="white" points="381.65658101367507,394.7072703949981 381.65658101367507,339.71808491505396 416.0248219386401,329.7968283402527 416.0248219386401,384.7860138201968" />
  <polygon fill="white" points="416.0248219386401,384.7860138201968 416.0248219386401,329.7968283402527 450.39306286360517,319.87557176545147 450.39306286360517,374.86475724539554" />
  <polygon fill="hsl(288.0,50.0%,54.496445229397835%)" points="432.23981257592465,514.3801841260544 432.23981257592465,467.17196839152234 440.48819039791624,464.79086681357 440.48819039791624,511.999082548102" />
  <polygon fill="hsl(288.0,50.0%,54.496445229397835%)" points="452.86075713090366,508.4274301811736 452.86075713090366,461.21921444664156 444.61237930891207,463.60031602459384 444.61237930891207,510.8085317591259" />
  <polygon fill="hsl(288.0,50.0%,54.496445229397835%)" points="423.99143475393305,470.0204780460541 423.99143475393305,423.2796703881016 431.2087653481757,421.19620650739336 431.2087653481757,467.93701416534583" />
  <polygon fill="hsl(288.0,50.0%,54.496445229397835%)" points="453.8918043586526,461.388984825977 453.8918043586526,414.6481771680245 461.10913495289526,412.5647132873163 461.10913495289526,459.30552094526877" />
  <polygon fill="hsl(288.0,50.0%,54.496445229397835%)" points="431.2087653481757,428.413537101636 431.2087653481757,421.19620650739336 453.8918043586526,414.6481771680245 453.8918043586526,421.86550776226716" />
  <polygon fill="hsl(288.0,50.0%,54.496445229397835%)" points="432.23981257592465,467.63937646810183 432.23981257592465,420.8985688101493 452.86075713090366,414.9458148652685 452.86075713090366,461.6866225232211" />
  <polygon fill="hsl(288.0,50.0%,54.496445229397835%)" points="437.39504871466943,417.0733399410315 437.39504871466943,396.0399764949529 447.70552099215894,393.0635995225125 447.70552099215894,414.09696296859113" />
  <polygon fill="hsl(288.0,50.0%,54.496445229397835%)" points="439.45714317016734,418.815104929441 439.45714317016734,395.44470110046484 445.643426536661,393.6588749170006 445.643426536661,417.0292787459768" />
  <polygon fill="hsl(288.0,50.0%,53.12512859546308%)" points="413.6963423072863,523.5036021384669 413.6963423072863,476.2953864039349 421.9447201292779,473.91428482598263 421.9447201292779,521.1225005605146" />
  <polygon fill="hsl(288.0,50.0%,53.12512859546308%)" points="434.3172868622653,517.5508481935861 434.3172868622653,470.3426324590542 426.0689090402737,472.72373403700647 426.0689090402737,519.9319497715385" />
  <polygon fill="hsl(288.0,50.0%,53.12512859546308%)" points="405.4479644852947,479.14389605846674 405.4479644852947,432.4030884005142 412.6652950795373,430.319624519806 412.6652950795373,477.06043217775846" />
  <polygon fill="hsl(288.0,50.0%,53.12512859546308%)" points="435.34833409001425,470.5124028383897 435.34833409001425,423.7715951804372 442.56566468425694,421.6881312997289 442.56566468425694,468.4289389576814" />
  <polygon fill="hsl(288.0,50.0%,53.12512859546308%)" points="412.6652950795373,437.5369551140486 412.6652950795373,430.319624519806 435.34833409001425,423.7715951804372 435.34833409001425,430.98892577467984" />
  <polygon fill="hsl(288.0,50.0%,53.12512859546308%)" points="413.6963423072863,476.76279448051446 413.6963423072863,430.021986822562 434.3172868622653,424.0692328776812 434.3172868622653,470.8100405356337" />
  <polygon fill="hsl(288.0,50.0%,53.12512859546308%)" points="418.85157844603106,426.19675795344415 418.85157844603106,405.1633945073655 429.16205072352057,402.1870175349252 429.16205072352057,423.22038098100376" />
  <polygon fill="hsl(288.0,50.0%,53.12512859546308%)" points="420.91367290152897,427.9385229418537 420.91367290152897,404.56811911287747 427.09995626802265,402.78229292941325 427.09995626802265,426.1526967583895" />
</svg>
