<?xml version="1.0" encoding="UTF-8"?>
<svg
  xmlns="http://www.w3.org/2000/svg"
  width="848"
  height="600"
  style="background-color:white"
>
  <polygon fill="lightblue" points="374.1165775962698,550.4509929463176 237.83253313385936,432.42554831138216 473.8834224037302,364.2835260801769 610.1674668661407,482.30897071511225" />
  <polygon fill="steelblue" points="237.83253313385936,432.42554831138216 237.83253313385936,117.69102928488775 473.8834224037302,49.54900705368246 473.8834224037302,364.2835260801769" />
  <polygon fill="lightskyblue" points="610.1674668661407,482.30897071511225 610.1674668661407,167.57445168861787 473.8834224037302,49.54900705368246 473.8834224037302,364.2835260801769" />
  <polygon fill="white" points="555.6538490811764,435.0987928611381 555.6538490811764,277.7315333478909 528.3970401886944,254.12644442090382 528.3970401886944,411.49370393415103" />
  <polygon fill="white" points="296.84525545132703,352.4431389482819 296.84525545132703,289.49623514298304 336.18707032963886,278.13923143778214 336.18707032963886,341.08613524308106" />
  <polygon fill="white" points="375.5288852079507,329.72913153788016 375.5288852079507,266.7822277325813 414.8707000862625,255.4252240273804 414.8707000862625,318.3721278326793" />
  <polygon fill="antiquewhite" points="478.74971893460236,469.129617670984 478.74971893460236,335.36744708472384 510.2231708372518,326.28184412056316 510.2231708372518,460.0440147068233" />
  <polygon fill="beige" points="478.74971893460236,469.129617670984 478.74971893460236,335.36744708472384 460.57851300628096,319.63072113339916 460.57851300628096,453.39289171965925" />
  <polygon fill="bisque" points="478.74971893460236,335.36744708472384 460.57851300628096,319.63072113339916 492.0519649089304,310.54511816923844 510.2231708372518,326.28184412056316" />
</svg>
