<?xml version="1.0" encoding="UTF-8"?>
<svg
  xmlns="http://www.w3.org/2000/svg"
  width="848"
  height="600"
  style="background-color:white"
>
  <polygon fill="lightblue" points="376.4519052838329,538.7259526419164 246.5480947161671,426.2259526419164 471.5480947161671,361.2740473580835 601.451905283833,473.7740473580835" />
  <polygon fill="steelblue" points="246.5480947161671,426.2259526419164 246.5480947161671,126.2259526419165 471.5480947161671,61.27404735808358 471.5480947161671,361.2740473580835" />
  <polygon fill="lightskyblue" points="601.451905283833,473.7740473580835 601.451905283833,173.77404735808358 471.5480947161671,61.27404735808358 471.5480947161671,361.2740473580835" />
  <polygon fill="white" points="549.4903810567665,428.7740473580835 549.4903810567665,278.7740473580835 523.5096189432335,256.2740473580835 523.5096189432335,406.2740473580835" />
  <polygon fill="white" points="265.29809471616716,360.8132938682637 265.29809471616716,300.8132938682637 302.7980947161671,289.98797632095824 302.7980947161671,349.9879763209582" />
  <polygon fill="white" points="302.7980947161671,349.9879763209582 302.7980947161671,289.98797632095824 340.2980947161671,279.1626587736527 340.2980947161671,339.1626587736527" />
  <polygon fill="white" points="340.2980947161671,339.1626587736527 340.2980947161671,279.1626587736527 377.7980947161671,268.33734122634723 377.7980947161671,328.33734122634723" />
  <polygon fill="white" points="377.7980947161671,328.33734122634723 377.7980947161671,268.33734122634723 415.2980947161671,257.51202367904176 415.2980947161671,317.51202367904176" />
  <polygon fill="white" points="415.2980947161671,317.51202367904176 415.2980947161671,257.51202367904176 452.7980947161671,246.6867061317363 452.7980947161671,306.6867061317363" />
</svg>
