<?xml version="1.0" encoding="UTF-8"?>
<svg
  xmlns="http://www.w3.org/2000/svg"
  width="848"
  height="600"
  style="background-color:white"
>
  <polygon fill="lightblue" points="374.1165775962698,550.4509929463176 237.83253313385936,432.42554831138216 473.8834224037302,364.2835260801769 610.1674668661407,482.30897071511225" />
  <polygon fill="steelblue" points="237.83253313385936,432.42554831138216 237.83253313385936,117.69102928488775 473.8834224037302,49.54900705368246 473.8834224037302,364.2835260801769" />
  <polygon fill="lightskyblue" points="610.1674668661407,482.30897071511225 610.1674668661407,167.57445168861787 473.8834224037302,49.54900705368246 473.8834224037302,364.2835260801769" />
  <polygon fill="white" points="532.9398416707747,415.4278854219822 532.9398416707747,258.060625908735 505.6830327782926,234.4555369817479 505.6830327782926,391.82279649499515" />
  <polygon fill="white" points="578.3678564915782,454.76970030029406 578.3678564915782,297.4024407870468 551.1110475990961,273.79735186005973 551.1110475990961,431.1646113733069" />
  <polygon fill="hsl(360.0,50.0%,65.63175181059981%)" points="368.8698003479427,450.31133502707826 368.8698003479427,396.2714181102292 378.31183591873753,393.545737220981 378.31183591873753,447.5856541378301" />
  <polygon fill="hsl(360.0,50.0%,65.63175181059981%)" points="392.47488927492975,443.4971328039578 392.47488927492975,389.45721588710865 383.03285370413494,392.18289677635687 383.03285370413494,446.222813693206" />
  <polygon fill="hsl(360.0,50.0%,65.63175181059981%)" points="359.4277647771479,399.53214768182244 359.4277647771479,346.0272794473184 367.68954590159336,343.64230866922617 367.68954590159336,397.14717690373027" />
  <polygon fill="hsl(360.0,50.0%,65.63175181059981%)" points="393.6551437212791,389.65155445829765 393.6551437212791,336.1466862237936 401.91692484572457,333.76171544570144 401.9169248457246,387.2665836802055" />
  <polygon fill="hsl(360.0,50.0%,65.63175181059981%)" points="367.68954590159336,351.9040897936717 367.68954590159336,343.64230866922617 393.6551437212791,336.1466862237936 393.6551437212791,344.4084673482391" />
  <polygon fill="hsl(360.0,50.0%,65.63175181059981%)" points="368.8698003479427,396.8064667925742 368.8698003479427,343.30159855807017 392.47488927492975,336.48739633494966 392.47488927492975,389.9922645694537" />
  <polygon fill="hsl(360.0,50.0%,65.63175181059981%)" points="374.7710725796895,338.92280459056485 374.7710725796895,314.845613885038 386.573617043183,311.4385127734778 386.573617043183,335.51570347900457" />
  <polygon fill="hsl(360.0,50.0%,65.63175181059981%)" points="377.1315814723882,340.916627779978 377.1315814723882,314.16419366272595 384.2131081504843,312.11993299578984 384.2131081504843,338.87236711304183" />
  <polygon fill="hsl(360.0,50.0%,62.01942976861403%)" points="363.29453335775634,463.29000038040436 363.29453335775634,409.25008346355526 372.73656892855115,406.52440257430703 372.73656892855115,460.5643194911562" />
  <polygon fill="hsl(360.0,50.0%,62.01942976861403%)" points="386.8996222847434,456.47579815728386 386.8996222847434,402.43588124043475 377.45758671394856,405.161562129683 377.45758671394856,459.2014790465321" />
  <polygon fill="hsl(360.0,50.0%,62.01942976861403%)" points="353.85249778696146,412.51081303514854 353.85249778696146,359.0059448006445 362.1142789114069,356.6209740225523 362.1142789114069,410.1258422570563" />
  <polygon fill="hsl(360.0,50.0%,62.01942976861403%)" points="388.0798767310927,402.63021981162376 388.0798767310927,349.1253515771197 396.3416578555382,346.74038079902755 396.3416578555382,400.24524903353154" />
  <polygon fill="hsl(360.0,50.0%,62.01942976861403%)" points="362.1142789114069,364.8827551469978 362.1142789114069,356.6209740225523 388.0798767310927,349.1253515771197 388.0798767310927,357.3871327015652" />
  <polygon fill="hsl(360.0,50.0%,62.01942976861403%)" points="363.29453335775634,409.7851321459003 363.2945333577563,356.2802639113963 386.8996222847434,349.4660616882757 386.8996222847434,402.97092992277976" />
  <polygon fill="hsl(360.0,50.0%,62.01942976861403%)" points="369.1958055895031,351.9014699438909 369.1958055895031,327.8242792383641 380.9983500529966,324.41717812680383 380.9983500529966,348.4943688323307" />
  <polygon fill="hsl(360.0,50.0%,62.01942976861403%)" points="371.5563144822018,353.8952931333041 371.5563144822018,327.14285901605206 378.6378411602979,325.0985983491159 378.6378411602979,351.85103246636794" />
  <polygon fill="hsl(360.0,50.0%,54.496445229397835%)" points="433.43223081163103,466.72042033367643 433.43223081163103,412.6805034168274 442.87426638242584,409.95482252757915 442.87426638242584,463.9947394444282" />
  <polygon fill="hsl(360.0,50.0%,54.496445229397835%)" points="457.03731973861807,459.9062181105559 457.03731973861807,405.8663011937068 447.59528416782325,408.59198208295504 447.59528416782325,462.6318989998041" />
  <polygon fill="hsl(360.0,50.0%,54.496445229397835%)" points="423.99019524083616,415.94123298842055 423.99019524083616,362.43636475391656 432.2519763652817,360.0513939758244 432.2519763652817,413.5562622103284" />
  <polygon fill="hsl(360.0,50.0%,54.496445229397835%)" points="458.2175741849674,406.0606397648958 458.2175741849674,352.5557715303918 466.4793553094129,350.1708007522996 466.4793553094129,403.67566898680366" />
  <polygon fill="hsl(360.0,50.0%,54.496445229397835%)" points="432.2519763652817,368.31317510026986 432.2519763652817,360.0513939758244 458.2175741849674,352.5557715303918 458.2175741849674,360.8175526548373" />
  <polygon fill="hsl(360.0,50.0%,54.496445229397835%)" points="433.43223081163103,413.2155520991724 433.43223081163103,359.71068386466834 457.03731973861807,352.89648164154784 457.03731973861807,406.4013498760519" />
  <polygon fill="hsl(360.0,50.0%,54.496445229397835%)" points="439.3335030433778,355.331889897163 439.3335030433778,331.2546991916362 451.1360475068713,327.84759808007595 451.1360475068713,351.92478878560274" />
  <polygon fill="hsl(360.0,50.0%,54.496445229397835%)" points="441.6940119360765,357.3257130865762 441.6940119360765,330.5732789693241 448.7755386141726,328.529018302388 448.7755386141726,355.28145241964" />
  <polygon fill="hsl(360.0,50.0%,53.12512859546308%)" points="412.2052562887564,477.1641268732528 412.2052562887564,423.1242099564037 421.6472918595512,420.39852906715555 421.6472918595512,474.4384459840046" />
  <polygon fill="hsl(360.0,50.0%,53.12512859546308%)" points="435.8103452157435,470.3499246501323 435.8103452157435,416.3100077332832 426.3683096449487,419.03568862253144 426.3683096449487,473.0756055393805" />
  <polygon fill="hsl(360.0,50.0%,53.12512859546308%)" points="402.7632207179616,426.38493952799695 402.7632207179616,372.8800712934929 411.02500184240705,370.49510051540074 411.02500184240705,423.9999687499048" />
  <polygon fill="hsl(360.0,50.0%,53.12512859546308%)" points="436.99059966209285,416.5043463044722 436.9905996620928,362.9994780699682 445.2523807865383,360.61450729187595 445.2523807865383,414.11937552638005" />
  <polygon fill="hsl(360.0,50.0%,53.12512859546308%)" points="411.02500184240705,378.7568816398462 411.02500184240705,370.49510051540074 436.9905996620928,362.9994780699682 436.99059966209285,371.26125919441364" />
  <polygon fill="hsl(360.0,50.0%,53.12512859546308%)" points="412.2052562887564,423.6592586387488 412.2052562887564,370.15439040424474 435.8103452157435,363.3401881811242 435.8103452157435,416.8450564156283" />
  <polygon fill="hsl(360.0,50.0%,53.12512859546308%)" points="418.10652852050316,365.77559643673936 418.10652852050316,341.6984057312126 429.9090729839967,338.2913046196523 429.9090729839967,362.3684953251791" />
  <polygon fill="hsl(360.0,50.0%,53.12512859546308%)" points="420.46703741320187,367.7694196261525 420.46703741320187,341.0169855089005 427.548564091298,338.97272484196435 427.548564091298,365.72515895921634" />
</svg>
