<?xml version="1.0" encoding="UTF-8"?>
<svg
  xmlns="http://www.w3.org/2000/svg"
  width="848"
  height="600"
  style="background-color:white"
>
  <polygon fill="lightblue" points="380.4228166739123,587.5255766616417 261.3677377762973,484.4208538867465 467.5771833260877,424.89331443793907 586.6322622237027,527.9980372128342" />
  <polygon fill="steelblue" points="261.3677377762973,484.4208538867465 261.3677377762973,72.00196278716575 467.5771833260877,12.474423338358292 467.5771833260877,424.89331443793907" />
  <polygon fill="lightskyblue" points="586.6322622237027,527.9980372128342 586.6322622237027,115.57914611325347 467.5771833260877,12.474423338358292 467.5771833260877,424.89331443793907" />
  <polygon fill="white" points="312.9200991637449,414.5497835446006 312.9200991637449,359.56059806465646 347.28834008871,349.6393414898552 347.28834008871,404.6285269697993" />
  <polygon fill="white" points="381.65658101367507,394.7072703949981 381.65658101367507,339.71808491505396 416.0248219386401,329.7968283402527 416.0248219386401,384.7860138201968" />
  <polygon fill="grey" points="453.0514555507251,87.69533767059318 453.0514555507251,53.327096745628126 487.4196964756902,43.40584017082688 487.4196964756902,77.77408109579193" />
  <polygon fill="lightgrey" points="453.0514555507251,87.69533767059318 453.0514555507251,53.327096745628126 433.2089424011226,36.14297628314557 433.2089424011226,70.51121720811062" />
  <polygon fill="darkgrey" points="453.0514555507251,53.327096745628126 433.2089424011226,36.14297628314557 467.5771833260877,26.221719708344324 487.4196964756902,43.40584017082688" />
  <polygon fill="hsl(324.0,50.0%,54.496445229397835%)" points="432.23981257592465,514.3801841260544 432.23981257592465,467.17196839152234 440.48819039791624,464.79086681357 440.48819039791624,511.999082548102" />
  <polygon fill="hsl(324.0,50.0%,54.496445229397835%)" points="452.86075713090366,508.4274301811736 452.86075713090366,461.21921444664156 444.61237930891207,463.60031602459384 444.61237930891207,510.8085317591259" />
  <polygon fill="hsl(324.0,50.0%,54.496445229397835%)" points="423.99143475393305,470.0204780460541 423.99143475393305,423.2796703881016 431.2087653481757,421.19620650739336 431.2087653481757,467.93701416534583" />
  <polygon fill="hsl(324.0,50.0%,54.496445229397835%)" points="453.8918043586526,461.388984825977 453.8918043586526,414.6481771680245 461.10913495289526,412.5647132873163 461.10913495289526,459.30552094526877" />
  <polygon fill="hsl(324.0,50.0%,54.496445229397835%)" points="431.2087653481757,428.413537101636 431.2087653481757,421.19620650739336 453.8918043586526,414.6481771680245 453.8918043586526,421.86550776226716" />
  <polygon fill="hsl(324.0,50.0%,54.496445229397835%)" points="432.23981257592465,467.63937646810183 432.23981257592465,420.8985688101493 452.86075713090366,414.9458148652685 452.86075713090366,461.6866225232211" />
  <polygon fill="hsl(324.0,50.0%,54.496445229397835%)" points="437.39504871466943,417.0733399410315 437.39504871466943,396.0399764949529 447.70552099215894,393.0635995225125 447.70552099215894,414.09696296859113" />
  <polygon fill="hsl(324.0,50.0%,54.496445229397835%)" points="439.45714317016734,418.815104929441 439.45714317016734,395.44470110046484 445.643426536661,393.6588749170006 445.643426536661,417.0292787459768" />
</svg>
