<?xml version="1.0" encoding="UTF-8"?>
<svg
  xmlns="http://www.w3.org/2000/svg"
  width="848"
  height="600"
  style="background-color:white"
>
  <polygon fill="lightblue" points="374.1165775962698,550.4509929463176 237.83253313385936,432.42554831138216 473.8834224037302,364.2835260801769 610.1674668661407,482.30897071511225" />
  <polygon fill="steelblue" points="237.83253313385936,432.42554831138216 237.83253313385936,117.69102928488775 473.8834224037302,49.54900705368246 473.8834224037302,364.2835260801769" />
  <polygon fill="lightskyblue" points="610.1674668661407,482.30897071511225 610.1674668661407,167.57445168861787 473.8834224037302,49.54900705368246 473.8834224037302,364.2835260801769" />
  <polygon fill="white" points="555.6538490811764,435.0987928611381 555.6538490811764,277.7315333478909 528.3970401886944,254.12644442090382 528.3970401886944,411.49370393415103" />
  <polygon fill="white" points="265.37180354867763,361.5287419124426 265.37180354867763,298.58183810714377 304.7136184269894,287.22483440194287 304.71361842698946,350.1717382072418" />
  <polygon fill="white" points="312.58198140265176,347.90033746620156 312.58198140265176,284.9534336609027 351.9237962809636,273.5964299557018 351.9237962809636,336.54333376100067" />
  <polygon fill="white" points="359.79215925662595,334.27193301996056 359.79215925662595,271.32502921466164 399.1339741349377,259.96802550946074 399.1339741349377,322.91492931475966" />
  <polygon fill="white" points="407.00233711060014,320.6435285737195 407.0023371106001,257.6966247684206 446.3441519889119,246.3396210632197 446.3441519889119,309.2865248685186" />
</svg>
