<?xml version="1.0" encoding="UTF-8"?>
<svg
  xmlns="http://www.w3.org/2000/svg"
  width="848"
  height="600"
  style="background-color:white"
>
  <polygon fill="lightblue" points="374.1165775962698,550.4509929463176 237.83253313385936,432.42554831138216 473.8834224037302,364.2835260801769 610.1674668661407,482.30897071511225" />
  <polygon fill="steelblue" points="237.83253313385936,432.42554831138216 237.83253313385936,117.69102928488775 473.8834224037302,49.54900705368246 473.8834224037302,364.2835260801769" />
  <polygon fill="lightskyblue" points="610.1674668661407,482.30897071511225 610.1674668661407,167.57445168861787 473.8834224037302,49.54900705368246 473.8834224037302,364.2835260801769" />
  <polygon fill="white" points="555.6538490811764,435.0987928611381 555.6538490811764,277.7315333478909 528.3970401886944,254.12644442090382 528.3970401886944,411.49370393415103" />
  <polygon fill="hsl(324.0,50.0%,54.496445229397835%)" points="433.43223081163103,466.72042033367643 433.43223081163103,412.6805034168274 442.87426638242584,409.95482252757915 442.87426638242584,463.9947394444282" />
  <polygon fill="hsl(324.0,50.0%,54.496445229397835%)" points="457.03731973861807,459.9062181105559 457.03731973861807,405.8663011937068 447.59528416782325,408.59198208295504 447.59528416782325,462.6318989998041" />
  <polygon fill="hsl(324.0,50.0%,54.496445229397835%)" points="423.99019524083616,415.94123298842055 423.99019524083616,362.43636475391656 432.2519763652817,360.0513939758244 432.2519763652817,413.5562622103284" />
  <polygon fill="hsl(324.0,50.0%,54.496445229397835%)" points="458.2175741849674,406.0606397648958 458.2175741849674,352.5557715303918 466.4793553094129,350.1708007522996 466.4793553094129,403.67566898680366" />
  <polygon fill="hsl(324.0,50.0%,54.496445229397835%)" points="432.2519763652817,368.31317510026986 432.2519763652817,360.0513939758244 458.2175741849674,352.5557715303918 458.2175741849674,360.8175526548373" />
  <polygon fill="hsl(324.0,50.0%,54.496445229397835%)" points="433.43223081163103,413.2155520991724 433.43223081163103,359.71068386466834 457.03731973861807,352.89648164154784 457.03731973861807,406.4013498760519" />
  <polygon fill="hsl(324.0,50.0%,54.496445229397835%)" points="439.3335030433778,355.331889897163 439.3335030433778,331.2546991916362 451.1360475068713,327.84759808007595 451.1360475068713,351.92478878560274" />
  <polygon fill="hsl(324.0,50.0%,54.496445229397835%)" points="441.6940119360765,357.3257130865762 441.6940119360765,330.5732789693241 448.7755386141726,328.529018302388 448.7755386141726,355.28145241964" />
  <polygon fill="hsl(324.0,50.0%,53.12512859546308%)" points="412.2052562887564,477.1641268732528 412.2052562887564,423.1242099564037 421.6472918595512,420.39852906715555 421.6472918595512,474.4384459840046" />
  <polygon fill="hsl(324.0,50.0%,53.12512859546308%)" points="435.8103452157435,470.3499246501323 435.8103452157435,416.3100077332832 426.3683096449487,419.03568862253144 426.3683096449487,473.0756055393805" />
  <polygon fill="hsl(324.0,50.0%,53.12512859546308%)" points="402.7632207179616,426.38493952799695 402.7632207179616,372.8800712934929 411.02500184240705,370.49510051540074 411.02500184240705,423.9999687499048" />
  <polygon fill="hsl(324.0,50.0%,53.12512859546308%)" points="436.99059966209285,416.5043463044722 436.9905996620928,362.9994780699682 445.2523807865383,360.61450729187595 445.2523807865383,414.11937552638005" />
  <polygon fill="hsl(324.0,50.0%,53.12512859546308%)" points="411.02500184240705,378.7568816398462 411.02500184240705,370.49510051540074 436.9905996620928,362.9994780699682 436.99059966209285,371.26125919441364" />
  <polygon fill="hsl(324.0,50.0%,53.12512859546308%)" points="412.2052562887564,423.6592586387488 412.2052562887564,370.15439040424474 435.8103452157435,363.3401881811242 435.8103452157435,416.8450564156283" />
  <polygon fill="hsl(324.0,50.0%,53.12512859546308%)" points="418.10652852050316,365.77559643673936 418.10652852050316,341.6984057312126 429.9090729839967,338.2913046196523 429.9090729839967,362.3684953251791" />
  <polygon fill="hsl(324.0,50.0%,53.12512859546308%)" points="420.46703741320187,367.7694196261525 420.46703741320187,341.0169855089005 427.548564091298,338.97272484196435 427.548564091298,365.72515895921634" />
</svg>
