<?xml version="1.0" encoding="UTF-8"?>
<svg
  xmlns="http://www.w3.org/2000/svg"
  width="848"
  height="600"
  style="background-color:white"
>
  <polygon fill="lightblue" points="377.69233271769133,569.0198121720186 251.1774329224289,459.45469499207877 470.3076672823087,396.19724509444757 596.8225670775711,505.76236227438756" />
  <polygon fill="steelblue" points="251.1774329224289,459.45469499207877 251.1774329224289,94.23763772561247 470.30766728230867,30.980187827981297 470.3076672823087,396.19724509444757" />
  <polygon fill="lightskyblue" points="596.8225670775711,505.76236227438756 596.8225670775711,140.5453050079212 470.30766728230867,30.980187827981297 470.3076672823087,396.19724509444757" />
  <polygon fill="white" points="546.2166071594662,461.93631540241154 546.2166071594661,315.849492495825 520.9136272004137,293.936469059837 520.9136272004137,440.0232919664236" />
  <polygon fill="white" points="287.69913864907556,390.4770575131723 287.6991386490755,332.04232835053773 324.2208443757222,321.4994200342659 324.2208443757222,379.9341491969005" />
  <polygon fill="white" points="342.4816972390455,374.6626950387645 342.4816972390455,316.22796587612993 379.00340296569215,305.685057559858 379.00340296569215,364.1197867224927" />
  <polygon fill="white" points="397.26425582901544,358.8483325643567 397.26425582901544,300.4136034017221 433.7859615556621,289.8706950854502 433.7859615556621,348.3054242480849" />
  <polygon fill="antiquewhite" points="474.8251368100577,493.52773468961425 474.8251368100577,369.3539352190156 504.042501391375,360.91960856599815 504.042501391375,485.0934080365967" />
  <polygon fill="beige" points="474.8251368100577,493.52773468961425 474.8251368100577,369.3539352190156 457.9564835040227,354.745252928357 457.9564835040227,478.91905239895556" />
  <polygon fill="bisque" points="474.8251368100577,369.3539352190156 457.9564835040227,354.745252928357 487.17384808534,346.3109262753395 504.042501391375,360.91960856599815" />
</svg>
