<?xml version="1.0" encoding="UTF-8"?>
<svg
  xmlns="http://www.w3.org/2000/svg"
  width="848"
  height="600"
  style="background-color:white"
>
  <polygon fill="lightblue" points="374.1165775962698,550.4509929463176 237.83253313385936,432.42554831138216 473.8834224037302,364.2835260801769 610.1674668661407,482.30897071511225" />
  <polygon fill="steelblue" points="237.83253313385936,432.42554831138216 237.83253313385936,117.69102928488775 473.8834224037302,49.54900705368246 473.8834224037302,364.2835260801769" />
  <polygon fill="lightskyblue" points="610.1674668661407,482.30897071511225 610.1674668661407,167.57445168861787 473.8834224037302,49.54900705368246 473.8834224037302,364.2835260801769" />
  <polygon fill="white" points="555.6538490811764,435.0987928611381 555.6538490811764,277.7315333478909 528.3970401886944,254.12644442090382 528.3970401886944,411.49370393415103" />
  <polygon fill="white" points="251.883181304685,365.42257175422577 251.883181304685,302.4756679489269 291.22499618299685,291.118664243726 291.22499618299685,354.06556804902493" />
  <polygon fill="white" points="285.60473691466655,355.6879971497679 285.60473691466655,292.741093344469 324.94655179297837,281.38408963926815 324.94655179297837,344.330993444567" />
  <polygon fill="white" points="319.32629252464807,345.95342254531 319.32629252464807,283.00651874001113 358.6681074029599,271.64951503481024 358.6681074029599,334.5964188401091" />
  <polygon fill="white" points="353.04784813462965,336.21884794085213 353.04784813462965,273.2719441355532 392.3896630129414,261.9149404303523 392.3896630129414,324.86184423565123" />
  <polygon fill="white" points="386.76940374461117,326.4842733363942 386.76940374461117,263.53736953109535 426.111218622923,252.18036582589446 426.111218622923,315.1272696311933" />
  <polygon fill="white" points="420.49095935459275,316.7496987319363 420.4909593545927,253.80279492663743 459.8327742329045,242.44579122143654 459.8327742329045,305.39269502673545" />
  <polygon fill="antiquewhite" points="478.74971893460236,469.129617670984 478.74971893460236,335.36744708472384 510.2231708372518,326.28184412056316 510.2231708372518,460.0440147068233" />
  <polygon fill="beige" points="478.74971893460236,469.129617670984 478.74971893460236,335.36744708472384 460.57851300628096,319.63072113339916 460.57851300628096,453.39289171965925" />
  <polygon fill="bisque" points="478.74971893460236,335.36744708472384 460.57851300628096,319.63072113339916 492.0519649089304,310.54511816923844 510.2231708372518,326.28184412056316" />
</svg>
