<?xml version="1.0" encoding="UTF-8"?>
<svg
  xmlns="http://www.w3.org/2000/svg"
  width="848"
  height="600"
  style="background-color:white"
>
  <polygon fill="lightblue" points="369.0961894323342,532.3557158514986 219.0961894323342,402.45190528383296 478.9038105676658,327.4519052838329 628.9038105676658,457.35571585149864" />
  <polygon fill="steelblue" points="219.0961894323342,402.45190528383296 219.0961894323342,142.64428414850133 478.9038105676658,67.6442841485013 478.9038105676658,327.4519052838329" />
  <polygon fill="lightskyblue" points="628.9038105676658,457.35571585149864 628.9038105676658,197.54809471616707 478.9038105676658,67.6442841485013 478.9038105676658,327.4519052838329" />
  <polygon fill="white" points="568.9038105676658,405.3941916244323 568.9038105676658,232.18911086754463 538.9038105676658,206.20834875401147 538.9038105676658,379.4134295108992" />
  <polygon fill="white" points="240.74682452694518,326.9198729810778 240.74682452694518,257.63784067832273 284.0480947161671,245.13784067832273 284.0480947161671,314.4198729810778" />
  <polygon fill="white" points="284.0480947161671,314.4198729810778 284.0480947161671,245.13784067832273 327.34936490538905,232.6378406783227 327.34936490538905,301.9198729810778" />
  <polygon fill="white" points="327.34936490538905,301.9198729810778 327.34936490538905,232.6378406783227 370.65063509461095,220.1378406783227 370.65063509461095,289.4198729810778" />
  <polygon fill="white" points="370.65063509461095,289.4198729810778 370.65063509461095,220.1378406783227 413.9519052838329,207.63784067832268 413.9519052838329,276.9198729810778" />
  <polygon fill="white" points="413.9519052838329,276.9198729810778 413.9519052838329,207.63784067832268 457.2531754730548,195.13784067832268 457.2531754730548,264.4198729810778" />
  <polygon fill="antiquewhite" points="484.25986293982857,442.84996087176216 484.2598629398285,295.62564222840757 518.9008790912061,285.62564222840757 518.9008790912061,432.84996087176216" />
  <polygon fill="beige" points="484.25986293982857,442.84996087176216 484.2598629398285,295.62564222840757 464.2598629398285,278.30513415271884 464.25986293982857,425.52945279607343" />
  <polygon fill="bisque" points="484.2598629398285,295.62564222840757 464.2598629398285,278.30513415271884 498.9008790912061,268.3051341527188 518.9008790912061,285.62564222840757" />
</svg>
