<?xml version="1.0" encoding="UTF-8"?>
<svg
  xmlns="http://www.w3.org/2000/svg"
  width="848"
  height="600"
  style="background-color:white"
>
  <polygon fill="lightblue" points="377.69233271769133,569.0198121720186 251.1774329224289,459.45469499207877 470.3076672823087,396.19724509444757 596.8225670775711,505.76236227438756" />
  <polygon fill="steelblue" points="251.1774329224289,459.45469499207877 251.1774329224289,94.23763772561247 470.30766728230867,30.980187827981297 470.3076672823087,396.19724509444757" />
  <polygon fill="lightskyblue" points="596.8225670775711,505.76236227438756 596.8225670775711,140.5453050079212 470.30766728230867,30.980187827981297 470.3076672823087,396.19724509444757" />
  <polygon fill="white" points="276.74262693108153,393.6399300080539 276.74262693108153,335.20520084541926 313.2643326577282,324.6622925291474 313.2643326577282,383.09702169178206" />
  <polygon fill="white" points="320.56867380305755,380.9884400285277 320.5686738030575,322.55371086589304 357.09037952970414,312.0108025496212 357.09037952970414,370.4455317122558" />
  <polygon fill="white" points="364.39472067503345,368.3369500490014 364.39472067503345,309.9022208863668 400.9164264016801,299.3593125700949 400.9164264016801,357.79404173272957" />
  <polygon fill="white" points="408.2207675470094,355.6854600694752 408.2207675470094,297.25073090684054 444.74247327365606,286.7078225905687 444.74247327365606,345.1425517532033" />
  <polygon fill="grey" points="454.8717781882058,110.91433702488175 454.8717781882058,74.39263129823513 491.3934839148524,63.849722981963254 491.3934839148525,100.3714287086099" />
  <polygon fill="lightgrey" points="454.8717781882058,110.91433702488175 454.8717781882058,74.39263129823513 433.7859615556621,56.13177843491181 433.7859615556621,92.65348416155842" />
  <polygon fill="darkgrey" points="454.8717781882058,74.39263129823513 433.7859615556621,56.13177843491181 470.30766728230867,45.58887011863993 491.3934839148524,63.849722981963254" />
  <polygon fill="hsl(288.0,50.0%,54.496445229397835%)" points="432.756107442265,491.29123399785095 432.756107442265,441.12501901172914 441.52131681666015,438.5947210158239 441.52131681666015,488.7609360019457" />
  <polygon fill="hsl(288.0,50.0%,54.496445229397835%)" points="454.66913087825293,484.96548900808784 454.66913087825293,434.79927402196597 445.90392150385776,437.3295720178712 445.90392150385776,487.4957870039931" />
  <polygon fill="hsl(288.0,50.0%,54.496445229397835%)" points="423.9908980678698,444.15201220551677 423.9908980678698,394.48249241727734 431.6604562704656,392.26848167086024 431.6604562704656,441.93800145909967" />
  <polygon fill="hsl(288.0,50.0%,54.496445229397835%)" points="455.76478205005236,434.9796819703603 455.76478205005236,385.31016218212085 463.4343402526481,383.09615143570375 463.43434025264816,432.7656712239432" />
  <polygon fill="hsl(288.0,50.0%,54.496445229397835%)" points="431.6604562704656,399.93803987345603 431.6604562704656,392.26848167086024 455.76478205005236,385.31016218212085 455.76478205005236,392.97972038471664" />
  <polygon fill="hsl(288.0,50.0%,54.496445229397835%)" points="432.756107442265,441.6217142096115 432.756107442265,391.9521944213721 454.66913087825293,385.626449431609 454.66913087825293,435.2959692198484" />
  <polygon fill="hsl(288.0,50.0%,54.496445229397835%)" points="438.23436330126196,387.88728218451934 438.23436330126196,365.5359982798116 449.19087501925594,362.37312578493004 449.19087501925594,384.7244096896378" />
  <polygon fill="hsl(288.0,50.0%,54.496445229397835%)" points="440.42566564486077,389.738183674955 440.42566564486077,364.9034237808353 446.99957267565713,363.0057002839064 446.99957267565713,387.8404601780261" />
</svg>
