<?xml version="1.0" encoding="UTF-8"?>
<svg
  xmlns="http://www.w3.org/2000/svg"
  width="848"
  height="600"
  style="background-color:white"
>
  <polygon fill="lightblue" points="385.1771432346219,556.1561676804184 279.1111260566398,464.3003023260493 462.8228567653781,411.26729373705825 568.8888739433602,503.1231590914274" />
  <polygon fill="steelblue" points="279.1111260566398,464.3003023260493 279.1111260566398,96.8768409085726 462.8228567653781,43.843832319581566 462.8228567653781,411.26729373705825" />
  <polygon fill="lightskyblue" points="568.8888739433602,503.1231590914274 568.8888739433602,135.6996976739507 462.8228567653781,43.843832319581566 462.8228567653781,411.26729373705825" />
  <polygon fill="white" points="526.4624670721674,466.3808129496797 526.4624670721673,343.9063258105208 505.24926363657096,325.535152739647 505.24926363657096,448.00963987880584" />
  <polygon fill="white" points="300.5441613059926,409.12332313500343 300.5441613059926,360.1335282793399 331.16278309078234,351.294693514508 331.16278309078234,400.2844883701716" />
  <polygon fill="white" points="337.2865074477403,398.5167214172052 337.28650744774023,349.52692656154164 367.90512923253,340.6880917967098 367.90512923253,389.6778866523734" />
  <polygon fill="white" points="374.02885358948794,387.910119699407 374.0288535894879,338.92032484374346 404.64747537427763,330.0814900789116 404.64747537427763,379.07128493457515" />
  <polygon fill="white" points="410.7711997312356,377.3035179816088 410.7711997312356,328.3137231259452 441.3898215160253,319.47488836111336 441.3898215160253,368.46468321677696" />
</svg>
