<?xml version="1.0" encoding="UTF-8"?>
<svg
  xmlns="http://www.w3.org/2000/svg"
  width="848"
  height="600"
  style="background-color:white"
>
  <polygon fill="lightblue" points="369.0961894323342,532.3557158514986 219.0961894323342,402.45190528383296 478.9038105676658,327.4519052838329 628.9038105676658,457.35571585149864" />
  <polygon fill="steelblue" points="219.0961894323342,402.45190528383296 219.0961894323342,142.64428414850133 478.9038105676658,67.6442841485013 478.9038105676658,327.4519052838329" />
  <polygon fill="lightskyblue" points="628.9038105676658,457.35571585149864 628.9038105676658,197.54809471616707 478.9038105676658,67.6442841485013 478.9038105676658,327.4519052838329" />
  <polygon fill="white" points="568.9038105676658,405.3941916244323 568.9038105676658,232.18911086754463 538.9038105676658,206.20834875401147 538.9038105676658,379.4134295108992" />
  <polygon fill="white" points="262.39745962155615,320.6698729810778 262.39745962155615,251.38784067832273 305.6987298107781,238.88784067832273 305.6987298107781,308.1698729810778" />
  <polygon fill="white" points="327.34936490538905,301.9198729810778 327.34936490538905,232.6378406783227 370.65063509461095,220.1378406783227 370.65063509461095,289.4198729810778" />
  <polygon fill="white" points="392.30127018922195,283.1698729810778 392.30127018922195,213.88784067832268 435.60254037844385,201.38784067832268 435.60254037844385,270.6698729810778" />
  <polygon fill="antiquewhite" points="484.25986293982857,442.84996087176216 484.2598629398285,295.62564222840757 518.9008790912061,285.62564222840757 518.9008790912061,432.84996087176216" />
  <polygon fill="beige" points="484.25986293982857,442.84996087176216 484.2598629398285,295.62564222840757 464.2598629398285,278.30513415271884 464.25986293982857,425.52945279607343" />
  <polygon fill="bisque" points="484.2598629398285,295.62564222840757 464.2598629398285,278.30513415271884 498.9008790912061,268.3051341527188 518.9008790912061,285.62564222840757" />
  <polygon fill="antiquewhite" points="386.88202525762983,507.51532051969536 386.88202525762983,360.29100187634083 421.52304140900736,350.29100187634083 421.52304140900736,497.5153205196954" />
  <polygon fill="beige" points="386.88202525762983,507.51532051969536 386.88202525762983,360.29100187634083 366.88202525762983,342.9704938006521 366.88202525762983,490.19481244400663" />
  <polygon fill="bisque" points="386.88202525762983,360.29100187634083 366.88202525762983,342.9704938006521 401.52304140900736,332.9704938006521 421.52304140900736,350.29100187634083" />
  <polygon fill="antiquewhite" points="442.06067620847284,362.2272551736604 442.06067620847284,215.00293653030587 476.7016923598504,205.00293653030585 476.7016923598504,352.2272551736604" />
  <polygon fill="beige" points="442.06067620847284,362.2272551736604 442.06067620847284,215.00293653030587 422.06067620847284,197.68242845461708 422.06067620847284,344.9067470979717" />
  <polygon fill="bisque" points="442.06067620847284,215.00293653030587 422.06067620847284,197.68242845461708 456.7016923598504,187.68242845461708 476.7016923598504,205.00293653030585" />
</svg>
