<?xml version="1.0" encoding="UTF-8"?>
<svg
  xmlns="http://www.w3.org/2000/svg"
  width="848"
  height="600"
  style="background-color:white"
>
  <polygon fill="lightblue" points="369.0961894323342,532.3557158514986 219.0961894323342,402.45190528383296 478.9038105676658,327.4519052838329 628.9038105676658,457.35571585149864" />
  <polygon fill="steelblue" points="219.0961894323342,402.45190528383296 219.0961894323342,142.64428414850133 478.9038105676658,67.6442841485013 478.9038105676658,327.4519052838329" />
  <polygon fill="lightskyblue" points="628.9038105676658,457.35571585149864 628.9038105676658,197.54809471616707 478.9038105676658,67.6442841485013 478.9038105676658,327.4519052838329" />
  <polygon fill="hsl(324.0,50.0%,54.496445229397835%)" points="434.381513311596,440.19829609308874 434.381513311596,380.7196713611735 444.7738181570092,377.7196713611735 444.7738181570092,437.19829609308874" />
  <polygon fill="hsl(324.0,50.0%,54.496445229397835%)" points="460.3622754251291,432.69829609308874 460.3622754251291,373.21967136117354 449.96997057971583,376.2196713611735 449.9699705797159,435.69829609308874" />
  <polygon fill="hsl(324.0,50.0%,54.496445229397835%)" points="423.98920846618273,384.30856863574695 423.98920846618273,325.4188411784051 433.0824752059193,322.7938411784051 433.0824752059193,381.68356863574695" />
  <polygon fill="hsl(324.0,50.0%,54.496445229397835%)" points="461.6613135308058,373.43356863574695 461.6613135308057,314.5438411784051 470.75458027054236,311.9188411784051 470.75458027054236,370.80856863574695" />
  <polygon fill="hsl(324.0,50.0%,54.496445229397835%)" points="433.0824752059193,331.88710791814174 433.0824752059193,322.7938411784051 461.6613135308057,314.5438411784051 461.6613135308057,323.63710791814174" />
  <polygon fill="hsl(324.0,50.0%,54.496445229397835%)" points="434.381513311596,381.30856863574695 434.38151331159594,322.4188411784051 460.3622754251291,314.9188411784051 460.3622754251291,373.80856863574695" />
  <polygon fill="hsl(324.0,50.0%,54.496445229397835%)" points="440.87670383997926,317.59935480553804 440.87670383997926,291.0989774497342 453.86708489674584,287.3489774497342 453.86708489674584,313.84935480553804" />
  <polygon fill="hsl(324.0,50.0%,54.496445229397835%)" points="443.4747800513326,319.7938411784051 443.4747800513326,290.3489774497342 451.2690086853925,288.0989774497342 451.2690086853925,317.5438411784051" />
  <polygon fill="hsl(324.0,50.0%,53.12512859546308%)" points="411.01820478203877,451.69308249391753 411.01820478203877,392.2144577620022 421.41050962745203,389.21445776200227 421.41050962745203,448.69308249391753" />
  <polygon fill="hsl(324.0,50.0%,53.12512859546308%)" points="436.99896689557187,444.19308249391753 436.99896689557187,384.71445776200227 426.60666205015866,387.71445776200227 426.60666205015866,447.19308249391753" />
  <polygon fill="hsl(324.0,50.0%,53.12512859546308%)" points="400.6258999366255,395.8033550365757 400.6258999366255,336.91362757923383 409.7191666763621,334.28862757923383 409.7191666763621,393.1783550365757" />
  <polygon fill="hsl(324.0,50.0%,53.12512859546308%)" points="438.29800500124855,384.9283550365757 438.29800500124855,326.03862757923383 447.39127174098513,323.41362757923383 447.39127174098513,382.3033550365757" />
  <polygon fill="hsl(324.0,50.0%,53.12512859546308%)" points="409.7191666763621,343.38189431897047 409.7191666763621,334.28862757923383 438.29800500124855,326.03862757923383 438.29800500124855,335.13189431897047" />
  <polygon fill="hsl(324.0,50.0%,53.12512859546308%)" points="411.01820478203877,392.8033550365757 411.01820478203877,333.91362757923383 436.99896689557187,326.41362757923383 436.99896689557187,385.3033550365757" />
  <polygon fill="hsl(324.0,50.0%,53.12512859546308%)" points="417.513395310422,329.09414120636677 417.513395310422,302.59376385056294 430.5037763671886,298.84376385056294 430.5037763671886,325.34414120636677" />
  <polygon fill="hsl(324.0,50.0%,53.12512859546308%)" points="420.11147152177534,331.28862757923383 420.11147152177534,301.84376385056294 427.9057001558353,299.59376385056294 427.9057001558353,329.03862757923383" />
</svg>
