<?xml version="1.0" encoding="UTF-8"?>
<svg
  xmlns="http://www.w3.org/2000/svg"
  width="848"
  height="600"
  style="background-color:white"
>
  <polygon fill="lightblue" points="377.69233271769133,569.0198121720186 251.1774329224289,459.45469499207877 470.3076672823087,396.19724509444757 596.8225670775711,505.76236227438756" />
  <polygon fill="steelblue" points="251.1774329224289,459.45469499207877 251.1774329224289,94.23763772561247 470.30766728230867,30.980187827981297 470.3076672823087,396.19724509444757" />
  <polygon fill="lightskyblue" points="596.8225670775711,505.76236227438756 596.8225670775711,140.5453050079212 470.30766728230867,30.980187827981297 470.3076672823087,396.19724509444757" />
  <polygon fill="white" points="546.2166071594662,461.93631540241154 546.2166071594661,315.849492495825 520.9136272004137,293.936469059837 520.9136272004137,440.0232919664236" />
  <polygon fill="white" points="269.4382857857522,395.7485116713083 269.4382857857522,337.3137825086736 305.95999151239886,326.7708741924018 305.95999151239886,385.2056033550364" />
  <polygon fill="white" points="305.95999151239886,385.2056033550364 305.95999151239886,326.7708741924018 342.4816972390455,316.22796587612993 342.4816972390455,374.6626950387645" />
  <polygon fill="white" points="342.4816972390455,374.6626950387645 342.4816972390455,316.22796587612993 379.00340296569215,305.685057559858 379.00340296569215,364.1197867224927" />
  <polygon fill="white" points="379.00340296569215,364.1197867224927 379.00340296569215,305.685057559858 415.52510869233873,295.1421492435862 415.5251086923388,353.5768784062208" />
  <polygon fill="white" points="415.5251086923388,353.5768784062208 415.52510869233873,295.1421492435862 452.0468144189854,284.5992409273143 452.0468144189854,343.0339700899489" />
  <polygon fill="antiquewhite" points="474.8251368100577,493.52773468961425 474.8251368100577,369.3539352190156 504.042501391375,360.91960856599815 504.042501391375,485.0934080365967" />
  <polygon fill="beige" points="474.8251368100577,493.52773468961425 474.8251368100577,369.3539352190156 457.9564835040227,354.745252928357 457.9564835040227,478.91905239895556" />
  <polygon fill="bisque" points="474.8251368100577,369.3539352190156 457.9564835040227,354.745252928357 487.17384808534,346.3109262753395 504.042501391375,360.91960856599815" />
</svg>
