<?xml version="1.0" encoding="UTF-8"?>
<svg
  xmlns="http://www.w3.org/2000/svg"
  width="848"
  height="600"
  style="background-color:white"
>
  <polygon fill="lightblue" points="381.47169120562074,547.0640029027851 265.28219081939824,446.44094391529455 466.5283087943793,388.34619372218333 582.7178091806018,488.9692527096738" />
  <polygon fill="steelblue" points="265.28219081939824,446.44094391529455 265.28219081939824,111.03074729032616 466.52830879437926,52.93599709721491 466.5283087943793,388.34619372218333" />
  <polygon fill="lightskyblue" points="582.7178091806018,488.9692527096738 582.7178091806018,153.55905608470545 466.52830879437926,52.93599709721491 466.5283087943793,388.34619372218333" />
  <polygon fill="white" points="536.2420090261128,448.7200291146776 536.2420090261128,314.5559504646903 513.0041089488683,294.43133866719216 513.0041089488683,428.5954173171795" />
  <polygon fill="white" points="288.76090458314604,385.99759159943665 288.76090458314604,332.33196013944166 322.30192424564285,322.64950177392313 322.30192424564285,376.3151332339181" />
  <polygon fill="white" points="329.0101281781422,374.3786415608144 329.0101281781422,320.7130101008194 362.55114784063903,311.0305517353009 362.55114784063903,364.6961831952959" />
  <polygon fill="white" points="369.2593517731384,362.75969152219216 369.2593517731384,309.0940600621972 402.80037143563527,299.41160169667864 402.80037143563527,353.0772331566736" />
  <polygon fill="white" points="409.50857536813464,351.1407414835699 409.50857536813464,297.4751100235749 443.0495950306315,287.7926516580564 443.0495950306315,341.4582831180513" />
</svg>
