<?xml version="1.0" encoding="UTF-8"?>
<svg
  xmlns="http://www.w3.org/2000/svg"
  width="848"
  height="600"
  style="background-color:white"
>
  <polygon fill="lightblue" points="369.0961894323342,532.3557158514986 219.0961894323342,402.45190528383296 478.9038105676658,327.4519052838329 628.9038105676658,457.35571585149864" />
  <polygon fill="steelblue" points="219.0961894323342,402.45190528383296 219.0961894323342,142.64428414850133 478.9038105676658,67.6442841485013 478.9038105676658,327.4519052838329" />
  <polygon fill="lightskyblue" points="628.9038105676658,457.35571585149864 628.9038105676658,197.54809471616707 478.9038105676658,67.6442841485013 478.9038105676658,327.4519052838329" />
  <polygon fill="white" points="249.40707856478957,324.4198729810778 249.40707856478957,255.1378406783227 292.70834875401147,242.6378406783227 292.70834875401147,311.9198729810778" />
  <polygon fill="white" points="301.3686027918559,309.4198729810778 301.3686027918559,240.1378406783227 344.6698729810778,227.63784067832273 344.6698729810778,296.9198729810778" />
  <polygon fill="white" points="353.3301270189222,294.4198729810778 353.3301270189222,225.1378406783227 396.6313972081441,212.6378406783227 396.6313972081441,281.9198729810778" />
  <polygon fill="white" points="405.29165124598853,279.4198729810778 405.29165124598853,210.1378406783227 448.5929214352104,197.6378406783227 448.5929214352104,266.9198729810778" />
  <polygon fill="hsl(360.0,50.0%,54.496445229397835%)" points="434.381513311596,440.19829609308874 434.381513311596,380.7196713611735 444.7738181570092,377.7196713611735 444.7738181570092,437.19829609308874" />
  <polygon fill="hsl(360.0,50.0%,54.496445229397835%)" points="460.3622754251291,432.69829609308874 460.3622754251291,373.21967136117354 449.96997057971583,376.2196713611735 449.9699705797159,435.69829609308874" />
  <polygon fill="hsl(360.0,50.0%,54.496445229397835%)" points="423.98920846618273,384.30856863574695 423.98920846618273,325.4188411784051 433.0824752059193,322.7938411784051 433.0824752059193,381.68356863574695" />
  <polygon fill="hsl(360.0,50.0%,54.496445229397835%)" points="461.6613135308058,373.43356863574695 461.6613135308057,314.5438411784051 470.75458027054236,311.9188411784051 470.75458027054236,370.80856863574695" />
  <polygon fill="hsl(360.0,50.0%,54.496445229397835%)" points="433.0824752059193,331.88710791814174 433.0824752059193,322.7938411784051 461.6613135308057,314.5438411784051 461.6613135308057,323.63710791814174" />
  <polygon fill="hsl(360.0,50.0%,54.496445229397835%)" points="434.381513311596,381.30856863574695 434.38151331159594,322.4188411784051 460.3622754251291,314.9188411784051 460.3622754251291,373.80856863574695" />
  <polygon fill="hsl(360.0,50.0%,54.496445229397835%)" points="440.87670383997926,317.59935480553804 440.87670383997926,291.0989774497342 453.86708489674584,287.3489774497342 453.86708489674584,313.84935480553804" />
  <polygon fill="hsl(360.0,50.0%,54.496445229397835%)" points="443.4747800513326,319.7938411784051 443.4747800513326,290.3489774497342 451.2690086853925,288.0989774497342 451.2690086853925,317.5438411784051" />
</svg>
