<?xml version="1.0" encoding="UTF-8"?>
<svg
  xmlns="http://www.w3.org/2000/svg"
  width="848"
  height="600"
  style="background-color:white"
>
  <polygon fill="lightblue" points="377.69233271769133,569.0198121720186 251.1774329224289,459.45469499207877 470.3076672823087,396.19724509444757 596.8225670775711,505.76236227438756" />
  <polygon fill="steelblue" points="251.1774329224289,459.45469499207877 251.1774329224289,94.23763772561247 470.30766728230867,30.980187827981297 470.3076672823087,396.19724509444757" />
  <polygon fill="lightskyblue" points="596.8225670775711,505.76236227438756 596.8225670775711,140.5453050079212 470.30766728230867,30.980187827981297 470.3076672823087,396.19724509444757" />
  <polygon fill="white" points="287.69913864907556,390.4770575131723 287.6991386490755,332.04232835053773 324.2208443757222,321.4994200342659 324.2208443757222,379.9341491969005" />
  <polygon fill="white" points="342.4816972390455,374.6626950387645 342.4816972390455,316.22796587612993 379.00340296569215,305.685057559858 379.00340296569215,364.1197867224927" />
  <polygon fill="white" points="397.26425582901544,358.8483325643567 397.26425582901544,300.4136034017221 433.7859615556621,289.8706950854502 433.7859615556621,348.3054242480849" />
  <polygon fill="hsl(360.0,50.0%,65.63175181059981%)" points="372.82165618003353,476.0583885720698 372.82165618003353,425.89217358594806 381.58686555442875,423.3618755900428 381.58686555442875,473.5280905761646" />
  <polygon fill="hsl(360.0,50.0%,65.63175181059981%)" points="394.73467961602154,469.7326435823067 394.73467961602154,419.5664285961849 385.9694702416263,422.09672659209014 385.9694702416263,472.26294157821195" />
  <polygon fill="hsl(360.0,50.0%,65.63175181059981%)" points="364.05644680563836,428.91916677973563 364.05644680563836,379.2496469914962 371.72600500823415,377.0356362450791 371.72600500823415,426.70515603331853" />
  <polygon fill="hsl(360.0,50.0%,65.63175181059981%)" points="395.8303307878209,419.74683654457914 395.8303307878209,370.0773167563397 403.4998889904167,367.8633060099226 403.4998889904167,417.53282579816204" />
  <polygon fill="hsl(360.0,50.0%,65.63175181059981%)" points="371.72600500823415,384.70519444767496 371.72600500823415,377.0356362450791 395.8303307878209,370.0773167563397 395.8303307878209,377.7468749589355" />
  <polygon fill="hsl(360.0,50.0%,65.63175181059981%)" points="372.82165618003353,426.3888687838304 372.82165618003353,376.71934899559096 394.7346796160215,370.39360400582785 394.73467961602154,420.0631237940673" />
  <polygon fill="hsl(360.0,50.0%,65.63175181059981%)" points="378.2999120390305,372.6544367587382 378.2999120390305,350.3031528540305 389.25642375702455,347.14028035914896 389.25642375702455,369.4915642638567" />
  <polygon fill="hsl(360.0,50.0%,65.63175181059981%)" points="380.4912143826293,374.50533824917386 380.4912143826293,349.6705783550542 387.0651214134257,347.77285485812524 387.0651214134257,372.60761475224496" />
  <polygon fill="hsl(360.0,50.0%,62.01942976861403%)" points="367.6460367788217,488.1067142079089 367.6460367788217,437.9404992217871 376.4112461532169,435.4102012258819 376.4112461532169,485.57641621200366" />
  <polygon fill="hsl(360.0,50.0%,62.01942976861403%)" points="389.5590602148097,481.78096921814586 389.5590602148097,431.614754232024 380.7938508404145,434.1450522279292 380.7938508404145,484.3112672140511" />
  <polygon fill="hsl(360.0,50.0%,62.01942976861403%)" points="358.88082740442655,440.9674924155747 358.88082740442655,391.2979726273353 366.55038560702235,389.08396188091825 366.55038560702235,438.7534816691576" />
  <polygon fill="hsl(360.0,50.0%,62.01942976861403%)" points="390.6547113866091,431.79516218041823 390.6547113866091,382.1256423921788 398.3242695892049,379.9116316457617 398.3242695892049,429.58115143400113" />
  <polygon fill="hsl(360.0,50.0%,62.01942976861403%)" points="366.55038560702235,396.75352008351405 366.55038560702235,389.08396188091825 390.6547113866091,382.1256423921788 390.6547113866091,389.7952005947746" />
  <polygon fill="hsl(360.0,50.0%,62.01942976861403%)" points="367.6460367788217,438.4371944196695 367.6460367788217,388.76767463143005 389.5590602148097,382.44192964166695 389.5590602148097,432.1114494299064" />
  <polygon fill="hsl(360.0,50.0%,62.01942976861403%)" points="373.1242926378187,384.70276239457735 373.1242926378187,362.3514784898696 384.0808043558127,359.18860599498805 384.0808043558127,381.53988989969577" />
  <polygon fill="hsl(360.0,50.0%,62.01942976861403%)" points="375.3155949814175,386.55366388501295 375.3155949814175,361.7189039908933 381.8895020122139,359.82118049396433 381.8895020122139,384.65594038808405" />
  <polygon fill="hsl(360.0,50.0%,60.348481640332515%)" points="434.12590152320377,473.7977003710265 434.12590152320377,423.63148538490475 442.89111089759894,421.1011873889995 442.89111089759894,471.26740237512126" />
  <polygon fill="hsl(360.0,50.0%,60.348481640332515%)" points="456.0389249591917,467.47195538126346 456.0389249591917,417.3057403951416 447.27371558479655,419.8360383910468 447.27371558479655,470.0022533771687" />
  <polygon fill="hsl(360.0,50.0%,60.348481640332515%)" points="425.36069214880854,426.6584785786924 425.36069214880854,376.9889587904529 433.03025035140433,374.77494804403585 433.03025035140433,424.4444678322753" />
  <polygon fill="hsl(360.0,50.0%,60.348481640332515%)" points="457.13457613099115,417.48614834353583 457.13457613099115,367.8166285552964 464.8041343335869,365.6026178088793 464.8041343335869,415.27213759711873" />
  <polygon fill="hsl(360.0,50.0%,60.348481640332515%)" points="433.03025035140433,382.44450624663165 433.03025035140433,374.77494804403585 457.13457613099115,367.8166285552964 457.13457613099115,375.4861867578922" />
  <polygon fill="hsl(360.0,50.0%,60.348481640332515%)" points="434.12590152320377,424.1281805827871 434.12590152320377,374.4586607945477 456.0389249591917,368.1329158047846 456.0389249591917,417.80243559302403" />
  <polygon fill="hsl(360.0,50.0%,60.348481640332515%)" points="439.60415738220075,370.39374855769495 439.60415738220075,348.0424646529872 450.56066910019473,344.87959215810565 450.56066910019473,367.23087606281337" />
  <polygon fill="hsl(360.0,50.0%,60.348481640332515%)" points="441.79545972579956,372.2446500481306 441.79545972579956,347.4098901540109 448.3693667565959,345.512166657082 448.3693667565959,370.34692655120165" />
  <polygon fill="hsl(360.0,50.0%,54.496445229397835%)" points="432.756107442265,491.29123399785095 432.756107442265,441.12501901172914 441.52131681666015,438.5947210158239 441.52131681666015,488.7609360019457" />
  <polygon fill="hsl(360.0,50.0%,54.496445229397835%)" points="454.66913087825293,484.96548900808784 454.66913087825293,434.79927402196597 445.90392150385776,437.3295720178712 445.90392150385776,487.4957870039931" />
  <polygon fill="hsl(360.0,50.0%,54.496445229397835%)" points="423.9908980678698,444.15201220551677 423.9908980678698,394.48249241727734 431.6604562704656,392.26848167086024 431.6604562704656,441.93800145909967" />
  <polygon fill="hsl(360.0,50.0%,54.496445229397835%)" points="455.76478205005236,434.9796819703603 455.76478205005236,385.31016218212085 463.4343402526481,383.09615143570375 463.43434025264816,432.7656712239432" />
  <polygon fill="hsl(360.0,50.0%,54.496445229397835%)" points="431.6604562704656,399.93803987345603 431.6604562704656,392.26848167086024 455.76478205005236,385.31016218212085 455.76478205005236,392.97972038471664" />
  <polygon fill="hsl(360.0,50.0%,54.496445229397835%)" points="432.756107442265,441.6217142096115 432.756107442265,391.9521944213721 454.66913087825293,385.626449431609 454.66913087825293,435.2959692198484" />
  <polygon fill="hsl(360.0,50.0%,54.496445229397835%)" points="438.23436330126196,387.88728218451934 438.23436330126196,365.5359982798116 449.19087501925594,362.37312578493004 449.19087501925594,384.7244096896378" />
  <polygon fill="hsl(360.0,50.0%,54.496445229397835%)" points="440.42566564486077,389.738183674955 440.42566564486077,364.9034237808353 446.99957267565713,363.0057002839064 446.99957267565713,387.8404601780261" />
  <polygon fill="hsl(360.0,50.0%,53.12512859546308%)" points="413.0507298589134,500.9863123289762 413.0507298589134,450.8200973428544 421.81593923330865,448.28979934694917 421.81593923330865,498.4560143330709" />
  <polygon fill="hsl(360.0,50.0%,53.12512859546308%)" points="434.96375329490144,494.6605673392131 434.9637532949014,444.49435235309136 426.1985439205062,447.02465034899654 426.1985439205062,497.19086533511836" />
  <polygon fill="hsl(360.0,50.0%,53.12512859546308%)" points="404.28552048451826,453.8470905366421 404.28552048451826,404.1775707484026 411.95507868711405,401.96356000198557 411.95507868711405,451.633079790225" />
  <polygon fill="hsl(360.0,50.0%,53.12512859546308%)" points="436.0594044667008,444.67476030148555 436.0594044667008,395.0052405132461 443.7289626692966,392.791229766829 443.7289626692966,442.46074955506845" />
  <polygon fill="hsl(360.0,50.0%,53.12512859546308%)" points="411.95507868711405,409.63311820458136 411.95507868711405,401.96356000198557 436.0594044667008,395.0052405132461 436.0594044667008,402.6747987158419" />
  <polygon fill="hsl(360.0,50.0%,53.12512859546308%)" points="413.0507298589134,451.31679254073686 413.0507298589134,401.64727275249743 434.9637532949014,395.32152776273426 434.9637532949014,444.9910475509737" />
  <polygon fill="hsl(360.0,50.0%,53.12512859546308%)" points="418.5289857179104,397.5823605156446 418.5289857179104,375.2310766109369 429.4854974359044,372.0682041160553 429.4854974359044,394.4194880207631" />
  <polygon fill="hsl(360.0,50.0%,53.12512859546308%)" points="420.7202880615092,399.4332620060803 420.7202880615092,374.59850211196056 427.2941950923056,372.70077861503165 427.29419509230564,397.53553850915137" />
</svg>
