<?xml version="1.0" encoding="UTF-8"?>
<svg
  xmlns="http://www.w3.org/2000/svg"
  width="848"
  height="600"
  style="background-color:white"
>
  <polygon fill="lightblue" points="377.69233271769133,569.0198121720186 251.1774329224289,459.45469499207877 470.3076672823087,396.19724509444757 596.8225670775711,505.76236227438756" />
  <polygon fill="steelblue" points="251.1774329224289,459.45469499207877 251.1774329224289,94.23763772561247 470.30766728230867,30.980187827981297 470.3076672823087,396.19724509444757" />
  <polygon fill="lightskyblue" points="596.8225670775711,505.76236227438756 596.8225670775711,140.5453050079212 470.30766728230867,30.980187827981297 470.3076672823087,396.19724509444757" />
  <polygon fill="white" points="525.1307905269225,443.67546253908824 525.1307905269224,297.58863963250167 499.82781056786996,275.6756161965137 499.82781056786996,421.76243910310023" />
  <polygon fill="white" points="567.3024237920099,480.19716826573483 567.3024237920099,334.1103453591483 541.9994438329575,312.19732192316036 541.9994438329575,458.2841448297469" />
  <polygon fill="white" points="276.74262693108153,393.6399300080539 276.74262693108153,335.20520084541926 313.2643326577282,324.6622925291474 313.2643326577282,383.09702169178206" />
  <polygon fill="white" points="320.56867380305755,380.9884400285277 320.5686738030575,322.55371086589304 357.09037952970414,312.0108025496212 357.09037952970414,370.4455317122558" />
  <polygon fill="white" points="364.39472067503345,368.3369500490014 364.39472067503345,309.9022208863668 400.9164264016801,299.3593125700949 400.9164264016801,357.79404173272957" />
  <polygon fill="white" points="408.2207675470094,355.6854600694752 408.2207675470094,297.25073090684054 444.74247327365606,286.7078225905687 444.74247327365606,345.1425517532033" />
  <polygon fill="hsl(324.0,50.0%,54.496445229397835%)" points="432.756107442265,491.29123399785095 432.756107442265,441.12501901172914 441.52131681666015,438.5947210158239 441.52131681666015,488.7609360019457" />
  <polygon fill="hsl(324.0,50.0%,54.496445229397835%)" points="454.66913087825293,484.96548900808784 454.66913087825293,434.79927402196597 445.90392150385776,437.3295720178712 445.90392150385776,487.4957870039931" />
  <polygon fill="hsl(324.0,50.0%,54.496445229397835%)" points="423.9908980678698,444.15201220551677 423.9908980678698,394.48249241727734 431.6604562704656,392.26848167086024 431.6604562704656,441.93800145909967" />
  <polygon fill="hsl(324.0,50.0%,54.496445229397835%)" points="455.76478205005236,434.9796819703603 455.76478205005236,385.31016218212085 463.4343402526481,383.09615143570375 463.43434025264816,432.7656712239432" />
  <polygon fill="hsl(324.0,50.0%,54.496445229397835%)" points="431.6604562704656,399.93803987345603 431.6604562704656,392.26848167086024 455.76478205005236,385.31016218212085 455.76478205005236,392.97972038471664" />
  <polygon fill="hsl(324.0,50.0%,54.496445229397835%)" points="432.756107442265,441.6217142096115 432.756107442265,391.9521944213721 454.66913087825293,385.626449431609 454.66913087825293,435.2959692198484" />
  <polygon fill="hsl(324.0,50.0%,54.496445229397835%)" points="438.23436330126196,387.88728218451934 438.23436330126196,365.5359982798116 449.19087501925594,362.37312578493004 449.19087501925594,384.7244096896378" />
  <polygon fill="hsl(324.0,50.0%,54.496445229397835%)" points="440.42566564486077,389.738183674955 440.42566564486077,364.9034237808353 446.99957267565713,363.0057002839064 446.99957267565713,387.8404601780261" />
  <polygon fill="hsl(324.0,50.0%,53.12512859546308%)" points="413.0507298589134,500.9863123289762 413.0507298589134,450.8200973428544 421.81593923330865,448.28979934694917 421.81593923330865,498.4560143330709" />
  <polygon fill="hsl(324.0,50.0%,53.12512859546308%)" points="434.96375329490144,494.6605673392131 434.9637532949014,444.49435235309136 426.1985439205062,447.02465034899654 426.1985439205062,497.19086533511836" />
  <polygon fill="hsl(324.0,50.0%,53.12512859546308%)" points="404.28552048451826,453.8470905366421 404.28552048451826,404.1775707484026 411.95507868711405,401.96356000198557 411.95507868711405,451.633079790225" />
  <polygon fill="hsl(324.0,50.0%,53.12512859546308%)" points="436.0594044667008,444.67476030148555 436.0594044667008,395.0052405132461 443.7289626692966,392.791229766829 443.7289626692966,442.46074955506845" />
  <polygon fill="hsl(324.0,50.0%,53.12512859546308%)" points="411.95507868711405,409.63311820458136 411.95507868711405,401.96356000198557 436.0594044667008,395.0052405132461 436.0594044667008,402.6747987158419" />
  <polygon fill="hsl(324.0,50.0%,53.12512859546308%)" points="413.0507298589134,451.31679254073686 413.0507298589134,401.64727275249743 434.9637532949014,395.32152776273426 434.9637532949014,444.9910475509737" />
  <polygon fill="hsl(324.0,50.0%,53.12512859546308%)" points="418.5289857179104,397.5823605156446 418.5289857179104,375.2310766109369 429.4854974359044,372.0682041160553 429.4854974359044,394.4194880207631" />
  <polygon fill="hsl(324.0,50.0%,53.12512859546308%)" points="420.7202880615092,399.4332620060803 420.7202880615092,374.59850211196056 427.2941950923056,372.70077861503165 427.29419509230564,397.53553850915137" />
</svg>
