<?xml version="1.0" encoding="UTF-8"?>
<svg
  xmlns="http://www.w3.org/2000/svg"
  width="848"
  height="600"
  style="background-color:white"
>
  <polygon fill="lightblue" points="369.0961894323342,532.3557158514986 219.0961894323342,402.45190528383296 478.9038105676658,327.4519052838329 628.9038105676658,457.35571585149864" />
  <polygon fill="steelblue" points="219.0961894323342,402.45190528383296 219.0961894323342,142.64428414850133 478.9038105676658,67.6442841485013 478.9038105676658,327.4519052838329" />
  <polygon fill="lightskyblue" points="628.9038105676658,457.35571585149864 628.9038105676658,197.54809471616707 478.9038105676658,67.6442841485013 478.9038105676658,327.4519052838329" />
  <polygon fill="white" points="568.9038105676658,405.3941916244323 568.9038105676658,232.18911086754463 538.9038105676658,206.20834875401147 538.9038105676658,379.4134295108992" />
  <polygon fill="white" points="327.34936490538905,301.9198729810778 327.34936490538905,232.6378406783227 370.65063509461095,220.1378406783227 370.65063509461095,289.4198729810778" />
  <polygon fill="grey" points="460.60254037844385,162.416697508023 460.60254037844385,119.11542731880104 503.9038105676658,106.61542731880104 503.9038105676658,149.91669750802296" />
  <polygon fill="lightgrey" points="460.60254037844385,162.416697508023 460.60254037844385,119.11542731880104 435.60254037844385,97.46479222419006 435.60254037844385,140.76606241341204" />
  <polygon fill="darkgrey" points="460.60254037844385,119.11542731880104 435.60254037844385,97.46479222419006 478.9038105676658,84.96479222419006 503.9038105676658,106.61542731880104" />
  <polygon fill="hsl(288.0,50.0%,65.63175181059981%)" points="363.321363843957,422.1377607919911 363.321363843957,362.65913606007587 373.71366868937025,359.65913606007587 373.71366868937025,419.1377607919911" />
  <polygon fill="hsl(288.0,50.0%,65.63175181059981%)" points="389.30212595749015,414.6377607919911 389.30212595749015,355.15913606007587 378.9098211120769,358.15913606007587 378.9098211120769,417.6377607919911" />
  <polygon fill="hsl(288.0,50.0%,65.63175181059981%)" points="352.9290589985437,366.2480333346493 352.9290589985437,307.3583058773075 362.0223257382803,304.7333058773075 362.0223257382803,363.6230333346493" />
  <polygon fill="hsl(288.0,50.0%,65.63175181059981%)" points="390.6011640631668,355.3730333346493 390.6011640631668,296.4833058773075 399.69443080290336,293.8583058773075 399.69443080290336,352.7480333346493" />
  <polygon fill="hsl(288.0,50.0%,65.63175181059981%)" points="362.0223257382803,313.82657261704406 362.0223257382803,304.7333058773075 390.6011640631668,296.4833058773075 390.6011640631668,305.57657261704406" />
  <polygon fill="hsl(288.0,50.0%,65.63175181059981%)" points="363.321363843957,363.2480333346493 363.321363843957,304.3583058773075 389.30212595749015,296.8583058773075 389.30212595749015,355.7480333346493" />
  <polygon fill="hsl(288.0,50.0%,65.63175181059981%)" points="369.81655437234025,299.53881950444037 369.81655437234025,273.0384421486366 382.80693542910683,269.2884421486366 382.80693542910683,295.78881950444037" />
  <polygon fill="hsl(288.0,50.0%,65.63175181059981%)" points="372.41463058369357,301.7333058773075 372.41463058369357,272.2884421486366 380.2088592177535,270.0384421486366 380.2088592177535,299.4833058773075" />
  <polygon fill="hsl(288.0,50.0%,62.01942976861403%)" points="357.1849885123706,436.4226303868018 357.1849885123706,376.94400565488655 367.57729335778384,373.94400565488655 367.57729335778384,433.4226303868018" />
  <polygon fill="hsl(288.0,50.0%,62.01942976861403%)" points="383.16575062590374,428.9226303868018 383.16575062590374,369.44400565488655 372.7734457804905,372.44400565488655 372.7734457804905,431.9226303868018" />
  <polygon fill="hsl(288.0,50.0%,62.01942976861403%)" points="346.7926836669573,380.53290292945996 346.7926836669573,321.6431754721182 355.8859504066939,319.0181754721182 355.8859504066939,377.90790292945996" />
  <polygon fill="hsl(288.0,50.0%,62.01942976861403%)" points="384.46478873158037,369.65790292945996 384.46478873158037,310.7681754721182 393.55805547131695,308.1431754721182 393.558055471317,367.03290292945996" />
  <polygon fill="hsl(288.0,50.0%,62.01942976861403%)" points="355.8859504066939,328.11144221185475 355.8859504066939,319.0181754721182 384.46478873158037,310.7681754721182 384.46478873158037,319.86144221185475" />
  <polygon fill="hsl(288.0,50.0%,62.01942976861403%)" points="357.1849885123706,377.53290292945996 357.1849885123706,318.6431754721182 383.16575062590374,311.1431754721182 383.16575062590374,370.03290292945996" />
  <polygon fill="hsl(288.0,50.0%,62.01942976861403%)" points="363.68017904075384,313.82368909925106 363.68017904075384,287.3233117434472 376.6705600975204,283.5733117434472 376.6705600975204,310.07368909925106" />
  <polygon fill="hsl(288.0,50.0%,62.01942976861403%)" points="366.27825525210716,316.0181754721182 366.27825525210716,286.5733117434472 374.0724838861671,284.3233117434472 374.0724838861671,313.7681754721182" />
  <polygon fill="hsl(288.0,50.0%,54.496445229397835%)" points="434.381513311596,440.19829609308874 434.381513311596,380.7196713611735 444.7738181570092,377.7196713611735 444.7738181570092,437.19829609308874" />
  <polygon fill="hsl(288.0,50.0%,54.496445229397835%)" points="460.3622754251291,432.69829609308874 460.3622754251291,373.21967136117354 449.96997057971583,376.2196713611735 449.9699705797159,435.69829609308874" />
  <polygon fill="hsl(288.0,50.0%,54.496445229397835%)" points="423.98920846618273,384.30856863574695 423.98920846618273,325.4188411784051 433.0824752059193,322.7938411784051 433.0824752059193,381.68356863574695" />
  <polygon fill="hsl(288.0,50.0%,54.496445229397835%)" points="461.6613135308058,373.43356863574695 461.6613135308057,314.5438411784051 470.75458027054236,311.9188411784051 470.75458027054236,370.80856863574695" />
  <polygon fill="hsl(288.0,50.0%,54.496445229397835%)" points="433.0824752059193,331.88710791814174 433.0824752059193,322.7938411784051 461.6613135308057,314.5438411784051 461.6613135308057,323.63710791814174" />
  <polygon fill="hsl(288.0,50.0%,54.496445229397835%)" points="434.381513311596,381.30856863574695 434.38151331159594,322.4188411784051 460.3622754251291,314.9188411784051 460.3622754251291,373.80856863574695" />
  <polygon fill="hsl(288.0,50.0%,54.496445229397835%)" points="440.87670383997926,317.59935480553804 440.87670383997926,291.0989774497342 453.86708489674584,287.3489774497342 453.86708489674584,313.84935480553804" />
  <polygon fill="hsl(288.0,50.0%,54.496445229397835%)" points="443.4747800513326,319.7938411784051 443.4747800513326,290.3489774497342 451.2690086853925,288.0989774497342 451.2690086853925,317.5438411784051" />
  <polygon fill="hsl(288.0,50.0%,53.12512859546308%)" points="411.01820478203877,451.69308249391753 411.01820478203877,392.2144577620022 421.41050962745203,389.21445776200227 421.41050962745203,448.69308249391753" />
  <polygon fill="hsl(288.0,50.0%,53.12512859546308%)" points="436.99896689557187,444.19308249391753 436.99896689557187,384.71445776200227 426.60666205015866,387.71445776200227 426.60666205015866,447.19308249391753" />
  <polygon fill="hsl(288.0,50.0%,53.12512859546308%)" points="400.6258999366255,395.8033550365757 400.6258999366255,336.91362757923383 409.7191666763621,334.28862757923383 409.7191666763621,393.1783550365757" />
  <polygon fill="hsl(288.0,50.0%,53.12512859546308%)" points="438.29800500124855,384.9283550365757 438.29800500124855,326.03862757923383 447.39127174098513,323.41362757923383 447.39127174098513,382.3033550365757" />
  <polygon fill="hsl(288.0,50.0%,53.12512859546308%)" points="409.7191666763621,343.38189431897047 409.7191666763621,334.28862757923383 438.29800500124855,326.03862757923383 438.29800500124855,335.13189431897047" />
  <polygon fill="hsl(288.0,50.0%,53.12512859546308%)" points="411.01820478203877,392.8033550365757 411.01820478203877,333.91362757923383 436.99896689557187,326.41362757923383 436.99896689557187,385.3033550365757" />
  <polygon fill="hsl(288.0,50.0%,53.12512859546308%)" points="417.513395310422,329.09414120636677 417.513395310422,302.59376385056294 430.5037763671886,298.84376385056294 430.5037763671886,325.34414120636677" />
  <polygon fill="hsl(288.0,50.0%,53.12512859546308%)" points="420.11147152177534,331.28862757923383 420.11147152177534,301.84376385056294 427.9057001558353,299.59376385056294 427.9057001558353,329.03862757923383" />
</svg>
