<?xml version="1.0" encoding="UTF-8"?>
<svg
  xmlns="http://www.w3.org/2000/svg"
  width="848"
  height="600"
  style="background-color:white"
>
  <polygon fill="lightblue" points="377.69233271769133,569.0198121720186 251.1774329224289,459.45469499207877 470.3076672823087,396.19724509444757 596.8225670775711,505.76236227438756" />
  <polygon fill="steelblue" points="251.1774329224289,459.45469499207877 251.1774329224289,94.23763772561247 470.30766728230867,30.980187827981297 470.3076672823087,396.19724509444757" />
  <polygon fill="lightskyblue" points="596.8225670775711,505.76236227438756 596.8225670775711,140.5453050079212 470.30766728230867,30.980187827981297 470.3076672823087,396.19724509444757" />
  <polygon fill="white" points="546.2166071594662,461.93631540241154 546.2166071594661,315.849492495825 520.9136272004137,293.936469059837 520.9136272004137,440.0232919664236" />
  <polygon fill="white" points="305.95999151239886,385.2056033550364 305.95999151239886,326.7708741924018 342.4816972390455,316.22796587612993 342.4816972390455,374.6626950387645" />
  <polygon fill="white" points="379.00340296569215,364.1197867224927 379.00340296569215,305.685057559858 415.52510869233873,295.1421492435862 415.5251086923388,353.5768784062208" />
  <polygon fill="antiquewhite" points="474.8251368100577,493.52773468961425 474.8251368100577,369.3539352190156 504.042501391375,360.91960856599815 504.042501391375,485.0934080365967" />
  <polygon fill="beige" points="474.8251368100577,493.52773468961425 474.8251368100577,369.3539352190156 457.9564835040227,354.745252928357 457.9564835040227,478.91905239895556" />
  <polygon fill="bisque" points="474.8251368100577,369.3539352190156 457.9564835040227,354.745252928357 487.17384808534,346.3109262753395 504.042501391375,360.91960856599815" />
  <polygon fill="antiquewhite" points="392.6934876324397,548.0686113301667 392.6934876324397,423.8948118595682 421.91085221375704,415.4604852065507 421.91085221375704,539.6342846771493" />
  <polygon fill="beige" points="392.6934876324397,548.0686113301667 392.6934876324397,423.8948118595682 375.8248343264047,409.28612956890953 375.82483432640475,533.4599290395081" />
  <polygon fill="bisque" points="392.6934876324397,423.8948118595682 375.8248343264047,409.28612956890953 405.042198907722,400.85180291589205 421.91085221375704,415.4604852065507" />
  <polygon fill="antiquewhite" points="439.2329642716642,425.52791113882574 439.2329642716642,301.3541116682272 468.4503288529815,292.9197850152097 468.4503288529815,417.09358448580826" />
  <polygon fill="beige" points="439.2329642716642,425.52791113882574 439.2329642716642,301.3541116682272 422.36431096562916,286.74542937756854 422.36431096562916,410.91922884816705" />
  <polygon fill="bisque" points="439.2329642716642,301.3541116682272 422.36431096562916,286.74542937756854 451.5816755469465,278.311102724551 468.4503288529815,292.9197850152097" />
  <polygon fill="antiquewhite" points="420.8205790083785,453.1528818156966 420.8205790083785,328.97908234509805 450.03794358969583,320.54475569208057 450.03794358969583,444.71855516267914" />
  <polygon fill="beige" points="420.8205790083785,453.1528818156966 420.8205790083785,328.97908234509805 403.9519257023435,314.3704000544394 403.9519257023435,438.5441995250379" />
  <polygon fill="bisque" points="420.8205790083785,328.97908234509805 403.9519257023435,314.3704000544394 433.1692902836608,305.9360734014219 450.03794358969583,320.54475569208057" />
  <polygon fill="antiquewhite" points="387.64059766322237,437.70451351029374 387.64059766322237,313.5307140396952 416.85796224453964,305.0963873866777 416.85796224453964,429.27018685727626" />
  <polygon fill="beige" points="387.64059766322237,437.70451351029374 387.64059766322237,313.5307140396952 370.77194435718735,298.92203174903653 370.77194435718735,423.0958312196351" />
  <polygon fill="bisque" points="387.64059766322237,313.5307140396952 370.77194435718735,298.92203174903653 399.9893089385046,290.48770509601906 416.85796224453964,305.0963873866777" />
</svg>
