<?xml version="1.0" encoding="UTF-8"?>
<svg
  xmlns="http://www.w3.org/2000/svg"
  width="848"
  height="600"
  style="background-color:white"
>
  <polygon fill="lightblue" points="369.0961894323342,532.3557158514986 219.0961894323342,402.45190528383296 478.9038105676658,327.4519052838329 628.9038105676658,457.35571585149864" />
  <polygon fill="steelblue" points="219.0961894323342,402.45190528383296 219.0961894323342,142.64428414850133 478.9038105676658,67.6442841485013 478.9038105676658,327.4519052838329" />
  <polygon fill="lightskyblue" points="628.9038105676658,457.35571585149864 628.9038105676658,197.54809471616707 478.9038105676658,67.6442841485013 478.9038105676658,327.4519052838329" />
  <polygon fill="white" points="568.9038105676658,405.3941916244323 568.9038105676658,232.18911086754463 538.9038105676658,206.20834875401147 538.9038105676658,379.4134295108992" />
  <polygon fill="white" points="249.40707856478957,324.4198729810778 249.40707856478957,255.1378406783227 292.70834875401147,242.6378406783227 292.70834875401147,311.9198729810778" />
  <polygon fill="white" points="301.3686027918559,309.4198729810778 301.3686027918559,240.1378406783227 344.6698729810778,227.63784067832273 344.6698729810778,296.9198729810778" />
  <polygon fill="white" points="353.3301270189222,294.4198729810778 353.3301270189222,225.1378406783227 396.6313972081441,212.6378406783227 396.6313972081441,281.9198729810778" />
  <polygon fill="white" points="405.29165124598853,279.4198729810778 405.29165124598853,210.1378406783227 448.5929214352104,197.6378406783227 448.5929214352104,266.9198729810778" />
</svg>
