<?xml version="1.0" encoding="UTF-8"?>
<svg
  xmlns="http://www.w3.org/2000/svg"
  width="848"
  height="600"
  style="background-color:white"
>
  <polygon fill="lightblue" points="381.47169120562074,547.0640029027851 265.28219081939824,446.44094391529455 466.5283087943793,388.34619372218333 582.7178091806018,488.9692527096738" />
  <polygon fill="steelblue" points="265.28219081939824,446.44094391529455 265.28219081939824,111.03074729032616 466.52830879437926,52.93599709721491 466.5283087943793,388.34619372218333" />
  <polygon fill="lightskyblue" points="582.7178091806018,488.9692527096738 582.7178091806018,153.55905608470545 466.52830879437926,52.93599709721491 466.5283087943793,388.34619372218333" />
  <polygon fill="white" points="536.2420090261128,448.7200291146776 536.2420090261128,314.5559504646903 513.0041089488683,294.43133866719216 513.0041089488683,428.5954173171795" />
  <polygon fill="white" points="282.05270065064667,387.93408327254036 282.05270065064667,334.26845181254544 315.5937203131435,324.58599344702685 315.5937203131435,378.25162490702184" />
  <polygon fill="white" points="315.5937203131435,378.25162490702184 315.5937203131435,324.58599344702685 349.13473997564034,314.9035350815083 349.13473997564034,368.56916654150325" />
  <polygon fill="white" points="349.13473997564034,368.56916654150325 349.13473997564034,314.9035350815083 382.67575963813715,305.2210767159898 382.67575963813715,358.8867081759847" />
  <polygon fill="white" points="382.67575963813715,358.8867081759847 382.67575963813715,305.2210767159898 416.216779300634,295.5386183504712 416.216779300634,349.2042498104662" />
  <polygon fill="white" points="416.216779300634,349.2042498104662 416.216779300634,295.5386183504712 449.7577989631309,285.8561599849527 449.7577989631309,339.52179144494767" />
</svg>
