<?xml version="1.0" encoding="UTF-8"?>
<svg
  xmlns="http://www.w3.org/2000/svg"
  width="848"
  height="600"
  style="background-color:white"
>
  <polygon fill="lightblue" points="385.1771432346219,556.1561676804184 279.1111260566398,464.3003023260493 462.8228567653781,411.26729373705825 568.8888739433602,503.1231590914274" />
  <polygon fill="steelblue" points="279.1111260566398,464.3003023260493 279.1111260566398,96.8768409085726 462.8228567653781,43.843832319581566 462.8228567653781,411.26729373705825" />
  <polygon fill="lightskyblue" points="568.8888739433602,503.1231590914274 568.8888739433602,135.6996976739507 462.8228567653781,43.843832319581566 462.8228567653781,411.26729373705825" />
  <polygon fill="white" points="526.4624670721674,466.3808129496797 526.4624670721673,343.9063258105208 505.24926363657096,325.535152739647 505.24926363657096,448.00963987880584" />
  <polygon fill="white" points="294.42043694903464,410.8910900879698 294.42043694903464,361.90129523230627 325.0390587338244,353.0624604674744 325.0390587338244,402.05225532313796" />
  <polygon fill="white" points="325.0390587338244,402.05225532313796 325.0390587338244,353.0624604674744 355.6576805186141,344.22362570264255 355.6576805186141,393.2134205583061" />
  <polygon fill="white" points="355.6576805186141,393.2134205583061 355.6576805186141,344.22362570264255 386.2763023034038,335.3847909378107 386.27630230340384,384.37458579347424" />
  <polygon fill="white" points="386.27630230340384,384.37458579347424 386.2763023034038,335.3847909378107 416.89492408819353,326.5459561729789 416.89492408819353,375.53575102864244" />
  <polygon fill="white" points="416.89492408819353,375.53575102864244 416.89492408819353,326.5459561729789 447.51354587298323,317.70712140814703 447.51354587298323,366.6969162638106" />
</svg>
