<?xml version="1.0" encoding="UTF-8"?>
<svg
  xmlns="http://www.w3.org/2000/svg"
  width="848"
  height="600"
  style="background-color:white"
>
  <polygon fill="lightblue" points="369.0961894323342,575.6569860407205 219.0961894323342,445.75317547305485 478.9038105676658,370.7531754730548 628.9038105676658,500.65698604072054" />
  <polygon fill="steelblue" points="219.0961894323342,445.75317547305485 219.0961894323342,99.34301395927943 478.9038105676658,24.343013959279403 478.9038105676658,370.7531754730548" />
  <polygon fill="lightskyblue" points="628.9038105676658,500.65698604072054 628.9038105676658,154.24682452694518 478.9038105676658,24.343013959279403 478.9038105676658,370.7531754730548" />
  <polygon fill="white" points="568.9038105676658,448.6954618136543 568.9038105676658,275.4903810567666 538.9038105676658,249.50961894323342 538.9038105676658,422.7146997001211" />
  <polygon fill="white" points="249.40707856478957,367.72114317029974 249.40707856478957,298.4391108675446 292.70834875401147,285.9391108675446 292.70834875401147,355.22114317029974" />
  <polygon fill="white" points="301.3686027918559,352.72114317029974 301.3686027918559,283.4391108675446 344.6698729810778,270.9391108675446 344.6698729810778,340.22114317029974" />
  <polygon fill="white" points="353.3301270189222,337.72114317029974 353.3301270189222,268.4391108675446 396.6313972081441,255.93911086754463 396.6313972081441,325.22114317029974" />
  <polygon fill="white" points="405.29165124598853,322.72114317029974 405.29165124598853,253.43911086754463 448.5929214352104,240.93911086754463 448.5929214352104,310.22114317029974" />
</svg>
