<?xml version="1.0" encoding="UTF-8"?>
<svg
  xmlns="http://www.w3.org/2000/svg"
  width="848"
  height="600"
  style="background-color:white"
>
  <polygon fill="lightblue" points="374.1165775962698,550.4509929463176 237.83253313385936,432.42554831138216 473.8834224037302,364.2835260801769 610.1674668661407,482.30897071511225" />
  <polygon fill="steelblue" points="237.83253313385936,432.42554831138216 237.83253313385936,117.69102928488775 473.8834224037302,49.54900705368246 473.8834224037302,364.2835260801769" />
  <polygon fill="lightskyblue" points="610.1674668661407,482.30897071511225 610.1674668661407,167.57445168861787 473.8834224037302,49.54900705368246 473.8834224037302,364.2835260801769" />
  <polygon fill="white" points="555.6538490811764,435.0987928611381 555.6538490811764,277.7315333478909 528.3970401886944,254.12644442090382 528.3970401886944,411.49370393415103" />
  <polygon fill="white" points="265.37180354867763,361.5287419124426 265.37180354867763,298.58183810714377 304.7136184269894,287.22483440194287 304.71361842698946,350.1717382072418" />
  <polygon fill="white" points="312.58198140265176,347.90033746620156 312.58198140265176,284.9534336609027 351.9237962809636,273.5964299557018 351.9237962809636,336.54333376100067" />
  <polygon fill="white" points="359.79215925662595,334.27193301996056 359.79215925662595,271.32502921466164 399.1339741349377,259.96802550946074 399.1339741349377,322.91492931475966" />
  <polygon fill="white" points="407.00233711060014,320.6435285737195 407.0023371106001,257.6966247684206 446.3441519889119,246.3396210632197 446.3441519889119,309.2865248685186" />
  <polygon fill="hsl(324.0,50.0%,65.63175181059981%)" points="368.8698003479427,450.31133502707826 368.8698003479427,396.2714181102292 378.31183591873753,393.545737220981 378.31183591873753,447.5856541378301" />
  <polygon fill="hsl(324.0,50.0%,65.63175181059981%)" points="392.47488927492975,443.4971328039578 392.47488927492975,389.45721588710865 383.03285370413494,392.18289677635687 383.03285370413494,446.222813693206" />
  <polygon fill="hsl(324.0,50.0%,65.63175181059981%)" points="359.4277647771479,399.53214768182244 359.4277647771479,346.0272794473184 367.68954590159336,343.64230866922617 367.68954590159336,397.14717690373027" />
  <polygon fill="hsl(324.0,50.0%,65.63175181059981%)" points="393.6551437212791,389.65155445829765 393.6551437212791,336.1466862237936 401.91692484572457,333.76171544570144 401.9169248457246,387.2665836802055" />
  <polygon fill="hsl(324.0,50.0%,65.63175181059981%)" points="367.68954590159336,351.9040897936717 367.68954590159336,343.64230866922617 393.6551437212791,336.1466862237936 393.6551437212791,344.4084673482391" />
  <polygon fill="hsl(324.0,50.0%,65.63175181059981%)" points="368.8698003479427,396.8064667925742 368.8698003479427,343.30159855807017 392.47488927492975,336.48739633494966 392.47488927492975,389.9922645694537" />
  <polygon fill="hsl(324.0,50.0%,65.63175181059981%)" points="374.7710725796895,338.92280459056485 374.7710725796895,314.845613885038 386.573617043183,311.4385127734778 386.573617043183,335.51570347900457" />
  <polygon fill="hsl(324.0,50.0%,65.63175181059981%)" points="377.1315814723882,340.916627779978 377.1315814723882,314.16419366272595 384.2131081504843,312.11993299578984 384.2131081504843,338.87236711304183" />
  <polygon fill="hsl(324.0,50.0%,62.01942976861403%)" points="363.29453335775634,463.29000038040436 363.29453335775634,409.25008346355526 372.73656892855115,406.52440257430703 372.73656892855115,460.5643194911562" />
  <polygon fill="hsl(324.0,50.0%,62.01942976861403%)" points="386.8996222847434,456.47579815728386 386.8996222847434,402.43588124043475 377.45758671394856,405.161562129683 377.45758671394856,459.2014790465321" />
  <polygon fill="hsl(324.0,50.0%,62.01942976861403%)" points="353.85249778696146,412.51081303514854 353.85249778696146,359.0059448006445 362.1142789114069,356.6209740225523 362.1142789114069,410.1258422570563" />
  <polygon fill="hsl(324.0,50.0%,62.01942976861403%)" points="388.0798767310927,402.63021981162376 388.0798767310927,349.1253515771197 396.3416578555382,346.74038079902755 396.3416578555382,400.24524903353154" />
  <polygon fill="hsl(324.0,50.0%,62.01942976861403%)" points="362.1142789114069,364.8827551469978 362.1142789114069,356.6209740225523 388.0798767310927,349.1253515771197 388.0798767310927,357.3871327015652" />
  <polygon fill="hsl(324.0,50.0%,62.01942976861403%)" points="363.29453335775634,409.7851321459003 363.2945333577563,356.2802639113963 386.8996222847434,349.4660616882757 386.8996222847434,402.97092992277976" />
  <polygon fill="hsl(324.0,50.0%,62.01942976861403%)" points="369.1958055895031,351.9014699438909 369.1958055895031,327.8242792383641 380.9983500529966,324.41717812680383 380.9983500529966,348.4943688323307" />
  <polygon fill="hsl(324.0,50.0%,62.01942976861403%)" points="371.5563144822018,353.8952931333041 371.5563144822018,327.14285901605206 378.6378411602979,325.0985983491159 378.6378411602979,351.85103246636794" />
  <polygon fill="hsl(324.0,50.0%,60.348481640332515%)" points="434.90779675471845,447.87608248524157 434.9077967547184,393.83616556839246 444.34983232551326,391.1104846791443 444.34983232551326,445.15040159599334" />
  <polygon fill="hsl(324.0,50.0%,60.348481640332515%)" points="458.5128856817055,441.061880262121 458.5128856817055,387.02196334527196 449.07085011091067,389.7476442345202 449.07085011091067,443.78756115136923" />
  <polygon fill="hsl(324.0,50.0%,60.348481640332515%)" points="425.4657611839236,397.0968951399857 425.4657611839236,343.59202690548165 433.72754230836904,341.2070561273895 433.7275423083691,394.7119243618935" />
  <polygon fill="hsl(324.0,50.0%,60.348481640332515%)" points="459.69314012805484,387.21630191646096 459.69314012805484,333.7114336819569 467.9549212525003,331.3264629038647 467.9549212525003,384.83133113836874" />
  <polygon fill="hsl(324.0,50.0%,60.348481640332515%)" points="433.72754230836904,349.46883725183494 433.72754230836904,341.2070561273895 459.69314012805484,333.7114336819569 459.69314012805484,341.9732148064024" />
  <polygon fill="hsl(324.0,50.0%,60.348481640332515%)" points="434.9077967547184,394.37121425073747 434.9077967547184,340.8663460162335 458.5128856817055,334.0521437931129 458.5128856817055,387.55701202761696" />
  <polygon fill="hsl(324.0,50.0%,60.348481640332515%)" points="440.80906898646515,336.4875520487281 440.80906898646515,312.4103613432013 452.6116134499587,309.00326023164104 452.6116134499587,333.0804509371679" />
  <polygon fill="hsl(324.0,50.0%,60.348481640332515%)" points="443.1695778791639,338.48137523814125 443.1695778791639,311.72894112088926 450.25110455726,309.6846804539531 450.25110455726,336.43711457120514" />
  <polygon fill="hsl(324.0,50.0%,54.496445229397835%)" points="433.43223081163103,466.72042033367643 433.43223081163103,412.6805034168274 442.87426638242584,409.95482252757915 442.87426638242584,463.9947394444282" />
  <polygon fill="hsl(324.0,50.0%,54.496445229397835%)" points="457.03731973861807,459.9062181105559 457.03731973861807,405.8663011937068 447.59528416782325,408.59198208295504 447.59528416782325,462.6318989998041" />
  <polygon fill="hsl(324.0,50.0%,54.496445229397835%)" points="423.99019524083616,415.94123298842055 423.99019524083616,362.43636475391656 432.2519763652817,360.0513939758244 432.2519763652817,413.5562622103284" />
  <polygon fill="hsl(324.0,50.0%,54.496445229397835%)" points="458.2175741849674,406.0606397648958 458.2175741849674,352.5557715303918 466.4793553094129,350.1708007522996 466.4793553094129,403.67566898680366" />
  <polygon fill="hsl(324.0,50.0%,54.496445229397835%)" points="432.2519763652817,368.31317510026986 432.2519763652817,360.0513939758244 458.2175741849674,352.5557715303918 458.2175741849674,360.8175526548373" />
  <polygon fill="hsl(324.0,50.0%,54.496445229397835%)" points="433.43223081163103,413.2155520991724 433.43223081163103,359.71068386466834 457.03731973861807,352.89648164154784 457.03731973861807,406.4013498760519" />
  <polygon fill="hsl(324.0,50.0%,54.496445229397835%)" points="439.3335030433778,355.331889897163 439.3335030433778,331.2546991916362 451.1360475068713,327.84759808007595 451.1360475068713,351.92478878560274" />
  <polygon fill="hsl(324.0,50.0%,54.496445229397835%)" points="441.6940119360765,357.3257130865762 441.6940119360765,330.5732789693241 448.7755386141726,328.529018302388 448.7755386141726,355.28145241964" />
  <polygon fill="hsl(324.0,50.0%,53.12512859546308%)" points="412.2052562887564,477.1641268732528 412.2052562887564,423.1242099564037 421.6472918595512,420.39852906715555 421.6472918595512,474.4384459840046" />
  <polygon fill="hsl(324.0,50.0%,53.12512859546308%)" points="435.8103452157435,470.3499246501323 435.8103452157435,416.3100077332832 426.3683096449487,419.03568862253144 426.3683096449487,473.0756055393805" />
  <polygon fill="hsl(324.0,50.0%,53.12512859546308%)" points="402.7632207179616,426.38493952799695 402.7632207179616,372.8800712934929 411.02500184240705,370.49510051540074 411.02500184240705,423.9999687499048" />
  <polygon fill="hsl(324.0,50.0%,53.12512859546308%)" points="436.99059966209285,416.5043463044722 436.9905996620928,362.9994780699682 445.2523807865383,360.61450729187595 445.2523807865383,414.11937552638005" />
  <polygon fill="hsl(324.0,50.0%,53.12512859546308%)" points="411.02500184240705,378.7568816398462 411.02500184240705,370.49510051540074 436.9905996620928,362.9994780699682 436.99059966209285,371.26125919441364" />
  <polygon fill="hsl(324.0,50.0%,53.12512859546308%)" points="412.2052562887564,423.6592586387488 412.2052562887564,370.15439040424474 435.8103452157435,363.3401881811242 435.8103452157435,416.8450564156283" />
  <polygon fill="hsl(324.0,50.0%,53.12512859546308%)" points="418.10652852050316,365.77559643673936 418.10652852050316,341.6984057312126 429.9090729839967,338.2913046196523 429.9090729839967,362.3684953251791" />
  <polygon fill="hsl(324.0,50.0%,53.12512859546308%)" points="420.46703741320187,367.7694196261525 420.46703741320187,341.0169855089005 427.548564091298,338.97272484196435 427.548564091298,365.72515895921634" />
</svg>
