<?xml version="1.0" encoding="UTF-8"?>
<svg
  xmlns="http://www.w3.org/2000/svg"
  width="848"
  height="600"
  style="background-color:white"
>
  <polygon fill="lightblue" points="377.69233271769133,569.0198121720186 251.1774329224289,459.45469499207877 470.3076672823087,396.19724509444757 596.8225670775711,505.76236227438756" />
  <polygon fill="steelblue" points="251.1774329224289,459.45469499207877 251.1774329224289,94.23763772561247 470.30766728230867,30.980187827981297 470.3076672823087,396.19724509444757" />
  <polygon fill="lightskyblue" points="596.8225670775711,505.76236227438756 596.8225670775711,140.5453050079212 470.30766728230867,30.980187827981297 470.3076672823087,396.19724509444757" />
  <polygon fill="white" points="546.2166071594662,461.93631540241154 546.2166071594661,315.849492495825 520.9136272004137,293.936469059837 520.9136272004137,440.0232919664236" />
  <polygon fill="white" points="264.2208992533741,397.2546414307757 264.2208992533741,338.8199122681411 300.74260498002076,328.2770039518692 300.74260498002076,386.71173311450383" />
  <polygon fill="white" points="295.5252184476427,388.2178628739712 295.52521844764266,329.78313371133663 332.0469241742893,319.2402253950647 332.0469241742893,377.6749545576994" />
  <polygon fill="white" points="326.8295376419112,379.1810843171668 326.8295376419112,320.7463551545321 363.35124336855785,310.2034468382603 363.35124336855785,368.6381760008949" />
  <polygon fill="white" points="358.13385683617975,370.14430576036233 358.13385683617975,311.7095765977277 394.6555625628264,301.1666682814558 394.6555625628264,359.6013974440904" />
  <polygon fill="white" points="389.4381760304483,361.1075272035578 389.4381760304483,302.6727980409232 425.95988175709493,292.1298897246514 425.95988175709493,350.564618887286" />
  <polygon fill="white" points="420.74249522471683,352.0707486467534 420.74249522471683,293.6360194841188 457.2642009513635,283.09311116784687 457.2642009513635,341.5278403304815" />
</svg>
