<?xml version="1.0" encoding="UTF-8"?>
<svg
  xmlns="http://www.w3.org/2000/svg"
  width="848"
  height="600"
  style="background-color:white"
>
  <polygon fill="lightblue" points="374.1165775962698,550.4509929463176 237.83253313385936,432.42554831138216 473.8834224037302,364.2835260801769 610.1674668661407,482.30897071511225" />
  <polygon fill="steelblue" points="237.83253313385936,432.42554831138216 237.83253313385936,117.69102928488775 473.8834224037302,49.54900705368246 473.8834224037302,364.2835260801769" />
  <polygon fill="lightskyblue" points="610.1674668661407,482.30897071511225 610.1674668661407,167.57445168861787 473.8834224037302,49.54900705368246 473.8834224037302,364.2835260801769" />
  <polygon fill="white" points="257.50344057301527,363.8001426534828 257.50344057301527,300.85323884818393 296.84525545132703,289.49623514298304 296.84525545132703,352.4431389482819" />
  <polygon fill="white" points="296.84525545132703,352.4431389482819 296.84525545132703,289.49623514298304 336.18707032963886,278.13923143778214 336.18707032963886,341.08613524308106" />
  <polygon fill="white" points="336.18707032963886,341.08613524308106 336.18707032963886,278.13923143778214 375.5288852079507,266.7822277325813 375.5288852079507,329.72913153788016" />
  <polygon fill="white" points="375.5288852079507,329.72913153788016 375.5288852079507,266.7822277325813 414.8707000862625,255.4252240273804 414.8707000862625,318.3721278326793" />
  <polygon fill="white" points="414.8707000862625,318.3721278326793 414.8707000862625,255.4252240273804 454.21251496457427,244.06822032217954 454.21251496457427,307.01512412747843" />
  <polygon fill="grey" points="457.2556149358201,135.65545902767573 457.2556149358201,96.31364414936397 496.59742981413194,84.9566404441631 496.59742981413194,124.29845532247487" />
  <polygon fill="lightgrey" points="457.2556149358201,135.65545902767573 457.2556149358201,96.31364414936397 434.5416075254184,76.64273671020806 434.5416075254184,115.98455158851985" />
  <polygon fill="darkgrey" points="457.2556149358201,96.31364414936397 434.5416075254184,76.64273671020806 473.8834224037302,65.28573300500719 496.59742981413194,84.9566404441631" />
  <polygon fill="hsl(324.0,50.0%,65.63175181059981%)" points="368.8698003479427,450.31133502707826 368.8698003479427,396.2714181102292 378.31183591873753,393.545737220981 378.31183591873753,447.5856541378301" />
  <polygon fill="hsl(324.0,50.0%,65.63175181059981%)" points="392.47488927492975,443.4971328039578 392.47488927492975,389.45721588710865 383.03285370413494,392.18289677635687 383.03285370413494,446.222813693206" />
  <polygon fill="hsl(324.0,50.0%,65.63175181059981%)" points="359.4277647771479,399.53214768182244 359.4277647771479,346.0272794473184 367.68954590159336,343.64230866922617 367.68954590159336,397.14717690373027" />
  <polygon fill="hsl(324.0,50.0%,65.63175181059981%)" points="393.6551437212791,389.65155445829765 393.6551437212791,336.1466862237936 401.91692484572457,333.76171544570144 401.9169248457246,387.2665836802055" />
  <polygon fill="hsl(324.0,50.0%,65.63175181059981%)" points="367.68954590159336,351.9040897936717 367.68954590159336,343.64230866922617 393.6551437212791,336.1466862237936 393.6551437212791,344.4084673482391" />
  <polygon fill="hsl(324.0,50.0%,65.63175181059981%)" points="368.8698003479427,396.8064667925742 368.8698003479427,343.30159855807017 392.47488927492975,336.48739633494966 392.47488927492975,389.9922645694537" />
  <polygon fill="hsl(324.0,50.0%,65.63175181059981%)" points="374.7710725796895,338.92280459056485 374.7710725796895,314.845613885038 386.573617043183,311.4385127734778 386.573617043183,335.51570347900457" />
  <polygon fill="hsl(324.0,50.0%,65.63175181059981%)" points="377.1315814723882,340.916627779978 377.1315814723882,314.16419366272595 384.2131081504843,312.11993299578984 384.2131081504843,338.87236711304183" />
  <polygon fill="hsl(324.0,50.0%,54.496445229397835%)" points="433.43223081163103,466.72042033367643 433.43223081163103,412.6805034168274 442.87426638242584,409.95482252757915 442.87426638242584,463.9947394444282" />
  <polygon fill="hsl(324.0,50.0%,54.496445229397835%)" points="457.03731973861807,459.9062181105559 457.03731973861807,405.8663011937068 447.59528416782325,408.59198208295504 447.59528416782325,462.6318989998041" />
  <polygon fill="hsl(324.0,50.0%,54.496445229397835%)" points="423.99019524083616,415.94123298842055 423.99019524083616,362.43636475391656 432.2519763652817,360.0513939758244 432.2519763652817,413.5562622103284" />
  <polygon fill="hsl(324.0,50.0%,54.496445229397835%)" points="458.2175741849674,406.0606397648958 458.2175741849674,352.5557715303918 466.4793553094129,350.1708007522996 466.4793553094129,403.67566898680366" />
  <polygon fill="hsl(324.0,50.0%,54.496445229397835%)" points="432.2519763652817,368.31317510026986 432.2519763652817,360.0513939758244 458.2175741849674,352.5557715303918 458.2175741849674,360.8175526548373" />
  <polygon fill="hsl(324.0,50.0%,54.496445229397835%)" points="433.43223081163103,413.2155520991724 433.43223081163103,359.71068386466834 457.03731973861807,352.89648164154784 457.03731973861807,406.4013498760519" />
  <polygon fill="hsl(324.0,50.0%,54.496445229397835%)" points="439.3335030433778,355.331889897163 439.3335030433778,331.2546991916362 451.1360475068713,327.84759808007595 451.1360475068713,351.92478878560274" />
  <polygon fill="hsl(324.0,50.0%,54.496445229397835%)" points="441.6940119360765,357.3257130865762 441.6940119360765,330.5732789693241 448.7755386141726,328.529018302388 448.7755386141726,355.28145241964" />
  <polygon fill="hsl(324.0,50.0%,53.12512859546308%)" points="412.2052562887564,477.1641268732528 412.2052562887564,423.1242099564037 421.6472918595512,420.39852906715555 421.6472918595512,474.4384459840046" />
  <polygon fill="hsl(324.0,50.0%,53.12512859546308%)" points="435.8103452157435,470.3499246501323 435.8103452157435,416.3100077332832 426.3683096449487,419.03568862253144 426.3683096449487,473.0756055393805" />
  <polygon fill="hsl(324.0,50.0%,53.12512859546308%)" points="402.7632207179616,426.38493952799695 402.7632207179616,372.8800712934929 411.02500184240705,370.49510051540074 411.02500184240705,423.9999687499048" />
  <polygon fill="hsl(324.0,50.0%,53.12512859546308%)" points="436.99059966209285,416.5043463044722 436.9905996620928,362.9994780699682 445.2523807865383,360.61450729187595 445.2523807865383,414.11937552638005" />
  <polygon fill="hsl(324.0,50.0%,53.12512859546308%)" points="411.02500184240705,378.7568816398462 411.02500184240705,370.49510051540074 436.9905996620928,362.9994780699682 436.99059966209285,371.26125919441364" />
  <polygon fill="hsl(324.0,50.0%,53.12512859546308%)" points="412.2052562887564,423.6592586387488 412.2052562887564,370.15439040424474 435.8103452157435,363.3401881811242 435.8103452157435,416.8450564156283" />
  <polygon fill="hsl(324.0,50.0%,53.12512859546308%)" points="418.10652852050316,365.77559643673936 418.10652852050316,341.6984057312126 429.9090729839967,338.2913046196523 429.9090729839967,362.3684953251791" />
  <polygon fill="hsl(324.0,50.0%,53.12512859546308%)" points="420.46703741320187,367.7694196261525 420.46703741320187,341.0169855089005 427.548564091298,338.97272484196435 427.548564091298,365.72515895921634" />
</svg>
