<?xml version="1.0" encoding="UTF-8"?>
<svg
  xmlns="http://www.w3.org/2000/svg"
  width="848"
  height="600"
  style="background-color:white"
>
  <polygon fill="lightblue" points="380.4228166739123,587.5255766616417 261.3677377762973,484.4208538867465 467.5771833260877,424.89331443793907 586.6322622237027,527.9980372128342" />
  <polygon fill="steelblue" points="261.3677377762973,484.4208538867465 261.3677377762973,72.00196278716575 467.5771833260877,12.474423338358292 467.5771833260877,424.89331443793907" />
  <polygon fill="lightskyblue" points="586.6322622237027,527.9980372128342 586.6322622237027,115.57914611325347 467.5771833260877,12.474423338358292 467.5771833260877,424.89331443793907" />
  <polygon fill="white" points="519.1677175150542,469.5720276403936 519.1677175150542,332.09906394053337 495.3567017355312,311.47811938555435 495.35670173553126,448.9510830854146" />
  <polygon fill="white" points="558.8527438142592,503.9402685653587 558.8527438142592,366.4673048654984 535.0417280347363,345.8463603105194 535.0417280347363,483.31932401037966" />
  <polygon fill="white" points="285.42550642377284,422.4867888044415 285.42550642377284,367.49760332449745 319.79374734873795,357.5763467496962 319.79374734873795,412.5655322296403" />
  <polygon fill="white" points="326.667395533731,410.58128091468006 326.66739553373094,355.59209543473594 361.035636458696,345.6708388599347 361.03563645869605,400.6600243398788" />
  <polygon fill="white" points="367.90928464368903,398.67577302491856 367.90928464368903,343.68658754497443 402.2775255686541,333.7653309701732 402.2775255686541,388.7545164501173" />
  <polygon fill="white" points="409.15117375364713,386.77026513515705 409.15117375364713,331.7810796552129 443.5194146786122,321.8598230804117 443.5194146786122,376.8490085603558" />
  <polygon fill="hsl(324.0,50.0%,54.496445229397835%)" points="432.23981257592465,514.3801841260544 432.23981257592465,467.17196839152234 440.48819039791624,464.79086681357 440.48819039791624,511.999082548102" />
  <polygon fill="hsl(324.0,50.0%,54.496445229397835%)" points="452.86075713090366,508.4274301811736 452.86075713090366,461.21921444664156 444.61237930891207,463.60031602459384 444.61237930891207,510.8085317591259" />
  <polygon fill="hsl(324.0,50.0%,54.496445229397835%)" points="423.99143475393305,470.0204780460541 423.99143475393305,423.2796703881016 431.2087653481757,421.19620650739336 431.2087653481757,467.93701416534583" />
  <polygon fill="hsl(324.0,50.0%,54.496445229397835%)" points="453.8918043586526,461.388984825977 453.8918043586526,414.6481771680245 461.10913495289526,412.5647132873163 461.10913495289526,459.30552094526877" />
  <polygon fill="hsl(324.0,50.0%,54.496445229397835%)" points="431.2087653481757,428.413537101636 431.2087653481757,421.19620650739336 453.8918043586526,414.6481771680245 453.8918043586526,421.86550776226716" />
  <polygon fill="hsl(324.0,50.0%,54.496445229397835%)" points="432.23981257592465,467.63937646810183 432.23981257592465,420.8985688101493 452.86075713090366,414.9458148652685 452.86075713090366,461.6866225232211" />
  <polygon fill="hsl(324.0,50.0%,54.496445229397835%)" points="437.39504871466943,417.0733399410315 437.39504871466943,396.0399764949529 447.70552099215894,393.0635995225125 447.70552099215894,414.09696296859113" />
  <polygon fill="hsl(324.0,50.0%,54.496445229397835%)" points="439.45714317016734,418.815104929441 439.45714317016734,395.44470110046484 445.643426536661,393.6588749170006 445.643426536661,417.0292787459768" />
</svg>
