<?xml version="1.0" encoding="UTF-8"?>
<svg
  xmlns="http://www.w3.org/2000/svg"
  width="848"
  height="600"
  style="background-color:white"
>
  <polygon fill="lightblue" points="381.47169120562074,547.0640029027851 265.28219081939824,446.44094391529455 466.5283087943793,388.34619372218333 582.7178091806018,488.9692527096738" />
  <polygon fill="steelblue" points="265.28219081939824,446.44094391529455 265.28219081939824,111.03074729032616 466.52830879437926,52.93599709721491 466.5283087943793,388.34619372218333" />
  <polygon fill="lightskyblue" points="582.7178091806018,488.9692527096738 582.7178091806018,153.55905608470545 466.52830879437926,52.93599709721491 466.5283087943793,388.34619372218333" />
  <polygon fill="white" points="536.2420090261128,448.7200291146776 536.2420090261128,314.5559504646903 513.0041089488683,294.43133866719216 513.0041089488683,428.5954173171795" />
  <polygon fill="white" points="277.26112641314705,389.31729161047156 277.26112641314705,335.65166015047663 310.8021460756439,325.9692017849581 310.8021460756439,379.63483324495303" />
  <polygon fill="white" points="306.0105718381444,381.0180415828843 306.0105718381444,327.3524101228893 339.5515915006412,317.66995175737077 339.5515915006412,371.33558321736575" />
  <polygon fill="white" points="334.76001726314166,372.71879155529695 334.76001726314166,319.05316009530196 368.3010369256385,309.37070172978343 368.3010369256385,363.0363331897784" />
  <polygon fill="white" points="363.50946268813897,364.4195415277096 363.50946268813897,310.7539100677147 397.05048235063583,301.0714517021961 397.05048235063583,354.7370831621911" />
  <polygon fill="white" points="392.2589081131363,356.1202915001223 392.2589081131363,302.45466004012735 425.79992777563314,292.77220167460877 425.79992777563314,346.43783313460375" />
  <polygon fill="white" points="421.0083535381336,347.82104147253494 421.0083535381335,294.15541001254 454.5493732006304,284.47295164702143 454.5493732006304,338.1385831070164" />
</svg>
