<?xml version="1.0" encoding="UTF-8"?>
<svg
  xmlns="http://www.w3.org/2000/svg"
  width="848"
  height="600"
  style="background-color:white"
>
  <polygon fill="lightblue" points="369.0961894323342,532.3557158514986 219.0961894323342,402.45190528383296 478.9038105676658,327.4519052838329 628.9038105676658,457.35571585149864" />
  <polygon fill="steelblue" points="219.0961894323342,402.45190528383296 219.0961894323342,142.64428414850133 478.9038105676658,67.6442841485013 478.9038105676658,327.4519052838329" />
  <polygon fill="lightskyblue" points="628.9038105676658,457.35571585149864 628.9038105676658,197.54809471616707 478.9038105676658,67.6442841485013 478.9038105676658,327.4519052838329" />
  <polygon fill="white" points="568.9038105676658,405.3941916244323 568.9038105676658,232.18911086754463 538.9038105676658,206.20834875401147 538.9038105676658,379.4134295108992" />
  <polygon fill="white" points="262.39745962155615,320.6698729810778 262.39745962155615,251.38784067832273 305.6987298107781,238.88784067832273 305.6987298107781,308.1698729810778" />
  <polygon fill="white" points="327.34936490538905,301.9198729810778 327.34936490538905,232.6378406783227 370.65063509461095,220.1378406783227 370.65063509461095,289.4198729810778" />
  <polygon fill="white" points="392.30127018922195,283.1698729810778 392.30127018922195,213.88784067832268 435.60254037844385,201.38784067832268 435.60254037844385,270.6698729810778" />
  <polygon fill="grey" points="460.60254037844385,162.416697508023 460.60254037844385,119.11542731880104 503.9038105676658,106.61542731880104 503.9038105676658,149.91669750802296" />
  <polygon fill="lightgrey" points="460.60254037844385,162.416697508023 460.60254037844385,119.11542731880104 435.60254037844385,97.46479222419006 435.60254037844385,140.76606241341204" />
  <polygon fill="darkgrey" points="460.60254037844385,119.11542731880104 435.60254037844385,97.46479222419006 478.9038105676658,84.96479222419006 503.9038105676658,106.61542731880104" />
  <polygon fill="hsl(360.0,50.0%,54.496445229397835%)" points="434.381513311596,440.19829609308874 434.381513311596,380.7196713611735 444.7738181570092,377.7196713611735 444.7738181570092,437.19829609308874" />
  <polygon fill="hsl(360.0,50.0%,54.496445229397835%)" points="460.3622754251291,432.69829609308874 460.3622754251291,373.21967136117354 449.96997057971583,376.2196713611735 449.9699705797159,435.69829609308874" />
  <polygon fill="hsl(360.0,50.0%,54.496445229397835%)" points="423.98920846618273,384.30856863574695 423.98920846618273,325.4188411784051 433.0824752059193,322.7938411784051 433.0824752059193,381.68356863574695" />
  <polygon fill="hsl(360.0,50.0%,54.496445229397835%)" points="461.6613135308058,373.43356863574695 461.6613135308057,314.5438411784051 470.75458027054236,311.9188411784051 470.75458027054236,370.80856863574695" />
  <polygon fill="hsl(360.0,50.0%,54.496445229397835%)" points="433.0824752059193,331.88710791814174 433.0824752059193,322.7938411784051 461.6613135308057,314.5438411784051 461.6613135308057,323.63710791814174" />
  <polygon fill="hsl(360.0,50.0%,54.496445229397835%)" points="434.381513311596,381.30856863574695 434.38151331159594,322.4188411784051 460.3622754251291,314.9188411784051 460.3622754251291,373.80856863574695" />
  <polygon fill="hsl(360.0,50.0%,54.496445229397835%)" points="440.87670383997926,317.59935480553804 440.87670383997926,291.0989774497342 453.86708489674584,287.3489774497342 453.86708489674584,313.84935480553804" />
  <polygon fill="hsl(360.0,50.0%,54.496445229397835%)" points="443.4747800513326,319.7938411784051 443.4747800513326,290.3489774497342 451.2690086853925,288.0989774497342 451.2690086853925,317.5438411784051" />
</svg>
