<?xml version="1.0" encoding="UTF-8"?>
<svg
  xmlns="http://www.w3.org/2000/svg"
  width="848"
  height="600"
  style="background-color:white"
>
  <polygon fill="lightblue" points="377.69233271769133,569.0198121720186 251.1774329224289,459.45469499207877 470.3076672823087,396.19724509444757 596.8225670775711,505.76236227438756" />
  <polygon fill="steelblue" points="251.1774329224289,459.45469499207877 251.1774329224289,94.23763772561247 470.30766728230867,30.980187827981297 470.3076672823087,396.19724509444757" />
  <polygon fill="lightskyblue" points="596.8225670775711,505.76236227438756 596.8225670775711,140.5453050079212 470.30766728230867,30.980187827981297 470.3076672823087,396.19724509444757" />
  <polygon fill="white" points="546.2166071594662,461.93631540241154 546.2166071594661,315.849492495825 520.9136272004137,293.936469059837 520.9136272004137,440.0232919664236" />
  <polygon fill="white" points="276.74262693108153,393.6399300080539 276.74262693108153,335.20520084541926 313.2643326577282,324.6622925291474 313.2643326577282,383.09702169178206" />
  <polygon fill="white" points="320.56867380305755,380.9884400285277 320.5686738030575,322.55371086589304 357.09037952970414,312.0108025496212 357.09037952970414,370.4455317122558" />
  <polygon fill="white" points="364.39472067503345,368.3369500490014 364.39472067503345,309.9022208863668 400.9164264016801,299.3593125700949 400.9164264016801,357.79404173272957" />
  <polygon fill="white" points="408.2207675470094,355.6854600694752 408.2207675470094,297.25073090684054 444.74247327365606,286.7078225905687 444.74247327365606,345.1425517532033" />
  <polygon fill="antiquewhite" points="474.8251368100577,493.52773468961425 474.8251368100577,369.3539352190156 504.042501391375,360.91960856599815 504.042501391375,485.0934080365967" />
  <polygon fill="beige" points="474.8251368100577,493.52773468961425 474.8251368100577,369.3539352190156 457.9564835040227,354.745252928357 457.9564835040227,478.91905239895556" />
  <polygon fill="bisque" points="474.8251368100577,369.3539352190156 457.9564835040227,354.745252928357 487.17384808534,346.3109262753395 504.042501391375,360.91960856599815" />
</svg>
