<?xml version="1.0" encoding="UTF-8"?>
<svg
  xmlns="http://www.w3.org/2000/svg"
  width="848"
  height="600"
  style="background-color:white"
>
  <polygon fill="lightblue" points="369.0961894323342,662.2595264191646 219.0961894323342,532.3557158514986 478.9038105676658,457.3557158514987 628.9038105676658,587.2595264191646" />
  <polygon fill="steelblue" points="219.0961894323342,532.3557158514986 219.0961894323342,12.740473580835499 478.9038105676658,-62.2595264191645 478.9038105676658,457.3557158514987" />
  <polygon fill="lightskyblue" points="628.9038105676658,587.2595264191646 628.9038105676658,67.6442841485013 478.9038105676658,-62.2595264191645 478.9038105676658,457.3557158514987" />
  <polygon fill="white" points="568.9038105676658,535.2980021920982 568.9038105676658,362.0929214352104 538.9038105676658,336.11215932167727 538.9038105676658,509.31724007856496" />
  <polygon fill="white" points="234.56092878562777,458.6093978344579 234.56092878562777,389.3273655317028 277.86219897484966,376.8273655317028 277.86219897484966,446.1093978344579" />
  <polygon fill="white" points="271.6763032335323,447.8951121201722 271.6763032335323,378.6130798174171 314.9775734227542,366.1130798174171 314.9775734227542,435.3951121201722" />
  <polygon fill="white" points="308.7916776814368,437.1808264058865 308.7916776814368,367.89879410313137 352.0929478706587,355.39879410313137 352.0929478706587,424.6808264058865" />
  <polygon fill="white" points="345.9070521293413,426.46654069160076 345.9070521293413,357.18450838884564 389.2083223185632,344.68450838884564 389.2083223185632,413.96654069160076" />
  <polygon fill="white" points="383.0224265772458,415.75225497731503 383.0224265772458,346.4702226745599 426.3236967664677,333.9702226745599 426.3236967664677,403.25225497731503" />
  <polygon fill="white" points="420.1378010251503,405.0379692630293 420.1378010251503,335.7559369602742 463.43907121437223,323.2559369602742 463.43907121437223,392.5379692630293" />
</svg>
