<?xml version="1.0" encoding="UTF-8"?>
<svg
  xmlns="http://www.w3.org/2000/svg"
  width="848"
  height="600"
  style="background-color:white"
>
  <polygon fill="lightblue" points="376.4519052838329,538.7259526419164 246.5480947161671,426.2259526419164 471.5480947161671,361.2740473580835 601.451905283833,473.7740473580835" />
  <polygon fill="steelblue" points="246.5480947161671,426.2259526419164 246.5480947161671,126.2259526419165 471.5480947161671,61.27404735808358 471.5480947161671,361.2740473580835" />
  <polygon fill="lightskyblue" points="601.451905283833,473.7740473580835 601.451905283833,173.77404735808358 471.5480947161671,61.27404735808358 471.5480947161671,361.2740473580835" />
  <polygon fill="white" points="549.4903810567665,428.7740473580835 549.4903810567665,278.7740473580835 523.5096189432335,256.2740473580835 523.5096189432335,406.2740473580835" />
  <polygon fill="white" points="272.7980947161671,358.6482303588026 272.7980947161671,298.6482303588026 310.2980947161671,287.82291281149713 310.2980947161671,347.82291281149713" />
  <polygon fill="white" points="317.7980947161671,345.657849302036 317.7980947161671,285.657849302036 355.2980947161671,274.83253175473055 355.2980947161671,334.83253175473055" />
  <polygon fill="white" points="362.7980947161671,332.66746824526945 362.7980947161671,272.66746824526945 400.2980947161671,261.842150697964 400.2980947161671,321.842150697964" />
  <polygon fill="white" points="407.7980947161671,319.67708718850287 407.7980947161671,259.67708718850287 445.2980947161671,248.85176964119736 445.2980947161671,308.8517696411974" />
</svg>
