<?xml version="1.0" encoding="UTF-8"?>
<svg
  xmlns="http://www.w3.org/2000/svg"
  width="848"
  height="600"
  style="background-color:white"
>
  <polygon fill="lightblue" points="380.4228166739123,587.5255766616417 261.3677377762973,484.4208538867465 467.5771833260877,424.89331443793907 586.6322622237027,527.9980372128342" />
  <polygon fill="steelblue" points="261.3677377762973,484.4208538867465 261.3677377762973,72.00196278716575 467.5771833260877,12.474423338358292 467.5771833260877,424.89331443793907" />
  <polygon fill="lightskyblue" points="586.6322622237027,527.9980372128342 586.6322622237027,115.57914611325347 467.5771833260877,12.474423338358292 467.5771833260877,424.89331443793907" />
  <polygon fill="white" points="539.0102306646568,486.7561481028762 539.0102306646567,349.28318440301587 515.1992148851338,328.66223984803685 515.1992148851338,466.1352035478971" />
  <polygon fill="white" points="295.7359787012624,419.5104118320012 295.7359787012624,364.52122635205706 330.10421962622746,354.5999697772558 330.10421962622746,409.58915525719993" />
  <polygon fill="white" points="347.28834008871,404.6285269697993 347.28834008871,349.6393414898552 381.65658101367507,339.71808491505396 381.65658101367507,394.7072703949981" />
  <polygon fill="white" points="398.8407014761576,389.74664210759744 398.84070147615756,334.7574566276533 433.20894240112267,324.83620005285206 433.20894240112267,379.8253855327962" />
  <polygon fill="grey" points="453.0514555507251,87.69533767059318 453.0514555507251,53.327096745628126 487.4196964756902,43.40584017082688 487.4196964756902,77.77408109579193" />
  <polygon fill="lightgrey" points="453.0514555507251,87.69533767059318 453.0514555507251,53.327096745628126 433.2089424011226,36.14297628314557 433.2089424011226,70.51121720811062" />
  <polygon fill="darkgrey" points="453.0514555507251,53.327096745628126 433.2089424011226,36.14297628314557 467.5771833260877,26.221719708344324 487.4196964756902,43.40584017082688" />
  <polygon fill="hsl(288.0,50.0%,65.63175181059981%)" points="375.83933456695087,500.0455277580187 375.83933456695087,452.8373120234867 384.08771238894246,450.45621044553445 384.08771238894246,497.6644261800664" />
  <polygon fill="hsl(288.0,50.0%,65.63175181059981%)" points="396.4602791219299,494.09277381313797 396.4602791219299,446.884558078606 388.2119012999383,449.2656596565582 388.2119012999383,496.47387539109025" />
  <polygon fill="hsl(288.0,50.0%,65.63175181059981%)" points="367.59095674495927,455.68582167801856 367.59095674495927,408.945014020066 374.8082873392019,406.86155013935775 374.8082873392019,453.6023577973102" />
  <polygon fill="hsl(288.0,50.0%,65.63175181059981%)" points="397.49132634967884,447.05432845794144 397.49132634967884,400.3135207999889 404.7086569439215,398.2300569192807 404.7086569439215,444.97086457723316" />
  <polygon fill="hsl(288.0,50.0%,65.63175181059981%)" points="374.8082873392019,414.0788807336004 374.8082873392019,406.86155013935775 397.49132634967884,400.3135207999889 397.49132634967884,407.5308513942316" />
  <polygon fill="hsl(288.0,50.0%,65.63175181059981%)" points="375.83933456695087,453.3047201000662 375.83933456695087,406.56391244211375 396.4602791219299,400.61115849723296 396.4602791219299,447.35196615518544" />
  <polygon fill="hsl(288.0,50.0%,65.63175181059981%)" points="380.9945707056956,402.7386835729959 380.9945707056956,381.7053201269173 391.3050429831851,378.7289431544769 391.3050429831851,399.7623066005555" />
  <polygon fill="hsl(288.0,50.0%,65.63175181059981%)" points="383.0566651611935,404.4804485614054 383.0566651611935,381.11004473242923 389.2429485276872,379.32421854896495 389.2429485276872,402.69462237794124" />
  <polygon fill="hsl(288.0,50.0%,62.01942976861403%)" points="370.96889023863486,511.38343626903423 370.96889023863486,464.1752205345022 379.21726806062645,461.79411895654994 379.21726806062645,509.00233469108196" />
  <polygon fill="hsl(288.0,50.0%,62.01942976861403%)" points="391.58983479361393,505.4306823241535 391.58983479361393,458.2224665896215 383.3414569716223,460.60356816757377 383.3414569716223,507.8117839021058" />
  <polygon fill="hsl(288.0,50.0%,62.01942976861403%)" points="362.72051241664326,467.02373018903404 362.72051241664326,420.2829225310815 369.9378430108859,418.19945865037323 369.9378430108859,464.94026630832576" />
  <polygon fill="hsl(288.0,50.0%,62.01942976861403%)" points="392.62088202136283,458.3922369689569 392.62088202136283,411.65142931100445 399.8382126156055,409.56796543029617 399.8382126156055,456.3087730882487" />
  <polygon fill="hsl(288.0,50.0%,62.01942976861403%)" points="369.9378430108859,425.4167892446159 369.9378430108859,418.19945865037323 392.62088202136283,411.65142931100445 392.62088202136283,418.8687599052471" />
  <polygon fill="hsl(288.0,50.0%,62.01942976861403%)" points="370.96889023863486,464.6426286110817 370.96889023863486,417.90182095312923 391.58983479361393,411.94906700824845 391.58983479361393,458.689874666201" />
  <polygon fill="hsl(288.0,50.0%,62.01942976861403%)" points="376.12412637737964,414.0765920840114 376.12412637737964,393.04322863793277 386.43459865486915,390.06685166549244 386.43459865486915,411.10021511157106" />
  <polygon fill="hsl(288.0,50.0%,62.01942976861403%)" points="378.18622083287755,415.81835707242095 378.18622083287755,392.4479532434447 384.37250419937124,390.6621270599805 384.37250419937124,414.0325308889567" />
  <polygon fill="hsl(288.0,50.0%,60.348481640332515%)" points="433.528838158236,497.91813871077073 433.528838158236,450.7099229762388 441.7772159802276,448.32882139828644 441.7772159802276,495.53703713281845" />
  <polygon fill="hsl(288.0,50.0%,60.348481640332515%)" points="454.149782713215,491.96538476589 454.149782713215,444.757169031358 445.9014048912234,447.1382706093103 445.9014048912234,494.3464863438423" />
  <polygon fill="hsl(288.0,50.0%,60.348481640332515%)" points="425.2804603362444,453.55843263077054 425.2804603362444,406.81762497281807 432.49779093048704,404.7341610921098 432.49779093048704,451.4749687500623" />
  <polygon fill="hsl(288.0,50.0%,60.348481640332515%)" points="455.180829940964,444.9269394106934 455.180829940964,398.18613175274095 462.39816053520667,396.10266787203267 462.39816053520667,442.8434755299852" />
  <polygon fill="hsl(288.0,50.0%,60.348481640332515%)" points="432.49779093048704,411.9514916863524 432.49779093048704,404.7341610921098 455.180829940964,398.18613175274095 455.180829940964,405.4034623469836" />
  <polygon fill="hsl(288.0,50.0%,60.348481640332515%)" points="433.528838158236,451.1773310528182 433.528838158236,404.43652339486573 454.149782713215,398.483769449985 454.149782713215,445.2245771079375" />
  <polygon fill="hsl(288.0,50.0%,60.348481640332515%)" points="438.6840742969808,400.61129452574795 438.6840742969808,379.5779310796693 448.9945465744703,376.60155410722894 448.9945465744703,397.63491755330756" />
  <polygon fill="hsl(288.0,50.0%,60.348481640332515%)" points="440.7461687524787,402.3530595141575 440.74616875247864,378.98265568518127 446.9324521189724,377.19682950171705 446.9324521189724,400.5672333306933" />
  <polygon fill="hsl(288.0,50.0%,54.496445229397835%)" points="432.23981257592465,514.3801841260544 432.23981257592465,467.17196839152234 440.48819039791624,464.79086681357 440.48819039791624,511.999082548102" />
  <polygon fill="hsl(288.0,50.0%,54.496445229397835%)" points="452.86075713090366,508.4274301811736 452.86075713090366,461.21921444664156 444.61237930891207,463.60031602459384 444.61237930891207,510.8085317591259" />
  <polygon fill="hsl(288.0,50.0%,54.496445229397835%)" points="423.99143475393305,470.0204780460541 423.99143475393305,423.2796703881016 431.2087653481757,421.19620650739336 431.2087653481757,467.93701416534583" />
  <polygon fill="hsl(288.0,50.0%,54.496445229397835%)" points="453.8918043586526,461.388984825977 453.8918043586526,414.6481771680245 461.10913495289526,412.5647132873163 461.10913495289526,459.30552094526877" />
  <polygon fill="hsl(288.0,50.0%,54.496445229397835%)" points="431.2087653481757,428.413537101636 431.2087653481757,421.19620650739336 453.8918043586526,414.6481771680245 453.8918043586526,421.86550776226716" />
  <polygon fill="hsl(288.0,50.0%,54.496445229397835%)" points="432.23981257592465,467.63937646810183 432.23981257592465,420.8985688101493 452.86075713090366,414.9458148652685 452.86075713090366,461.6866225232211" />
  <polygon fill="hsl(288.0,50.0%,54.496445229397835%)" points="437.39504871466943,417.0733399410315 437.39504871466943,396.0399764949529 447.70552099215894,393.0635995225125 447.70552099215894,414.09696296859113" />
  <polygon fill="hsl(288.0,50.0%,54.496445229397835%)" points="439.45714317016734,418.815104929441 439.45714317016734,395.44470110046484 445.643426536661,393.6588749170006 445.643426536661,417.0292787459768" />
  <polygon fill="hsl(288.0,50.0%,53.12512859546308%)" points="413.6963423072863,523.5036021384669 413.6963423072863,476.2953864039349 421.9447201292779,473.91428482598263 421.9447201292779,521.1225005605146" />
  <polygon fill="hsl(288.0,50.0%,53.12512859546308%)" points="434.3172868622653,517.5508481935861 434.3172868622653,470.3426324590542 426.0689090402737,472.72373403700647 426.0689090402737,519.9319497715385" />
  <polygon fill="hsl(288.0,50.0%,53.12512859546308%)" points="405.4479644852947,479.14389605846674 405.4479644852947,432.4030884005142 412.6652950795373,430.319624519806 412.6652950795373,477.06043217775846" />
  <polygon fill="hsl(288.0,50.0%,53.12512859546308%)" points="435.34833409001425,470.5124028383897 435.34833409001425,423.7715951804372 442.56566468425694,421.6881312997289 442.56566468425694,468.4289389576814" />
  <polygon fill="hsl(288.0,50.0%,53.12512859546308%)" points="412.6652950795373,437.5369551140486 412.6652950795373,430.319624519806 435.34833409001425,423.7715951804372 435.34833409001425,430.98892577467984" />
  <polygon fill="hsl(288.0,50.0%,53.12512859546308%)" points="413.6963423072863,476.76279448051446 413.6963423072863,430.021986822562 434.3172868622653,424.0692328776812 434.3172868622653,470.8100405356337" />
  <polygon fill="hsl(288.0,50.0%,53.12512859546308%)" points="418.85157844603106,426.19675795344415 418.85157844603106,405.1633945073655 429.16205072352057,402.1870175349252 429.16205072352057,423.22038098100376" />
  <polygon fill="hsl(288.0,50.0%,53.12512859546308%)" points="420.91367290152897,427.9385229418537 420.91367290152897,404.56811911287747 427.09995626802265,402.78229292941325 427.09995626802265,426.1526967583895" />
</svg>
