<?xml version="1.0" encoding="UTF-8"?>
<svg
  xmlns="http://www.w3.org/2000/svg"
  width="848"
  height="600"
  style="background-color:white"
>
  <polygon fill="lightblue" points="369.0961894323342,618.9582562299425 219.0961894323342,489.05444566227675 478.9038105676658,414.05444566227675 628.9038105676658,543.9582562299425" />
  <polygon fill="steelblue" points="219.0961894323342,489.05444566227675 219.0961894323342,56.04174377005745 478.9038105676658,-18.95825622994255 478.9038105676658,414.05444566227675" />
  <polygon fill="lightskyblue" points="628.9038105676658,543.9582562299425 628.9038105676658,110.94555433772325 478.9038105676658,-18.95825622994255 478.9038105676658,414.05444566227675" />
  <polygon fill="white" points="568.9038105676658,491.99673200287623 568.9038105676658,318.7916512459885 538.9038105676658,292.8108891324553 538.9038105676658,466.01596988934307" />
  <polygon fill="white" points="249.40707856478957,411.0224133595217 249.40707856478957,341.7403810567666 292.70834875401147,329.2403810567666 292.70834875401147,398.5224133595217" />
  <polygon fill="white" points="301.3686027918559,396.0224133595217 301.3686027918559,326.7403810567666 344.6698729810778,314.2403810567666 344.6698729810778,383.5224133595217" />
  <polygon fill="white" points="353.3301270189222,381.0224133595217 353.3301270189222,311.7403810567666 396.6313972081441,299.2403810567666 396.6313972081441,368.5224133595217" />
  <polygon fill="white" points="405.29165124598853,366.0224133595217 405.29165124598853,296.7403810567666 448.5929214352104,284.2403810567666 448.5929214352104,353.52241335952164" />
</svg>
