<?xml version="1.0" encoding="UTF-8"?>
<svg
  xmlns="http://www.w3.org/2000/svg"
  width="848"
  height="600"
  style="background-color:white"
>
  <polygon fill="lightblue" points="369.0961894323342,618.9582562299425 219.0961894323342,489.05444566227675 478.9038105676658,414.05444566227675 628.9038105676658,543.9582562299425" />
  <polygon fill="steelblue" points="219.0961894323342,489.05444566227675 219.0961894323342,56.04174377005745 478.9038105676658,-18.95825622994255 478.9038105676658,414.05444566227675" />
  <polygon fill="lightskyblue" points="628.9038105676658,543.9582562299425 628.9038105676658,110.94555433772325 478.9038105676658,-18.95825622994255 478.9038105676658,414.05444566227675" />
  <polygon fill="white" points="568.9038105676658,491.99673200287623 568.9038105676658,318.7916512459885 538.9038105676658,292.8108891324553 538.9038105676658,466.01596988934307" />
  <polygon fill="white" points="240.74682452694518,413.5224133595217 240.74682452694518,344.2403810567666 284.0480947161671,331.7403810567666 284.0480947161671,401.0224133595217" />
  <polygon fill="white" points="284.0480947161671,401.0224133595217 284.0480947161671,331.7403810567666 327.34936490538905,319.2403810567666 327.34936490538905,388.5224133595217" />
  <polygon fill="white" points="327.34936490538905,388.5224133595217 327.34936490538905,319.2403810567666 370.65063509461095,306.7403810567666 370.65063509461095,376.0224133595217" />
  <polygon fill="white" points="370.65063509461095,376.0224133595217 370.65063509461095,306.7403810567666 413.9519052838329,294.2403810567666 413.9519052838329,363.5224133595217" />
  <polygon fill="white" points="413.9519052838329,363.5224133595217 413.9519052838329,294.2403810567666 457.2531754730548,281.7403810567665 457.2531754730548,351.0224133595217" />
</svg>
