<?xml version="1.0" encoding="UTF-8"?>
<svg
  xmlns="http://www.w3.org/2000/svg"
  width="848"
  height="600"
  style="background-color:white"
>
  <polygon fill="lightblue" points="374.1165775962698,550.4509929463176 237.83253313385936,432.42554831138216 473.8834224037302,364.2835260801769 610.1674668661407,482.30897071511225" />
  <polygon fill="steelblue" points="237.83253313385936,432.42554831138216 237.83253313385936,117.69102928488775 473.8834224037302,49.54900705368246 473.8834224037302,364.2835260801769" />
  <polygon fill="lightskyblue" points="610.1674668661407,482.30897071511225 610.1674668661407,167.57445168861787 473.8834224037302,49.54900705368246 473.8834224037302,364.2835260801769" />
  <polygon fill="white" points="555.6538490811764,435.0987928611381 555.6538490811764,277.7315333478909 528.3970401886944,254.12644442090382 528.3970401886944,411.49370393415103" />
  <polygon fill="white" points="265.37180354867763,361.5287419124426 265.37180354867763,298.58183810714377 304.7136184269894,287.22483440194287 304.71361842698946,350.1717382072418" />
  <polygon fill="white" points="312.58198140265176,347.90033746620156 312.58198140265176,284.9534336609027 351.9237962809636,273.5964299557018 351.9237962809636,336.54333376100067" />
  <polygon fill="white" points="359.79215925662595,334.27193301996056 359.79215925662595,271.32502921466164 399.1339741349377,259.96802550946074 399.1339741349377,322.91492931475966" />
  <polygon fill="white" points="407.00233711060014,320.6435285737195 407.0023371106001,257.6966247684206 446.3441519889119,246.3396210632197 446.3441519889119,309.2865248685186" />
  <polygon fill="antiquewhite" points="478.74971893460236,469.129617670984 478.74971893460236,335.36744708472384 510.2231708372518,326.28184412056316 510.2231708372518,460.0440147068233" />
  <polygon fill="beige" points="478.74971893460236,469.129617670984 478.74971893460236,335.36744708472384 460.57851300628096,319.63072113339916 460.57851300628096,453.39289171965925" />
  <polygon fill="bisque" points="478.74971893460236,335.36744708472384 460.57851300628096,319.63072113339916 492.0519649089304,310.54511816923844 510.2231708372518,326.28184412056316" />
  <polygon fill="antiquewhite" points="390.27608186570797,527.881996000562 390.27608186570797,394.1198254143019 421.7495337683574,385.03422245014116 421.7495337683574,518.7963930364012" />
  <polygon fill="beige" points="390.27608186570797,527.881996000562 390.27608186570797,394.1198254143019 372.10487593738657,378.38309946297716 372.10487593738657,512.1452700492373" />
  <polygon fill="bisque" points="390.27608186570797,394.1198254143019 372.10487593738657,378.38309946297716 403.57832784003597,369.29749649881643 421.7495337683574,385.03422245014116" />
  <polygon fill="antiquewhite" points="440.40921332944475,395.8790282840511 440.40921332944475,262.116857697791 471.8826652320942,253.03125473363028 471.88266523209427,386.79342531989045" />
  <polygon fill="beige" points="440.40921332944475,395.8790282840511 440.40921332944475,262.116857697791 422.23800740112335,246.38013174646625 422.23800740112335,380.1423023327264" />
  <polygon fill="bisque" points="440.40921332944475,262.116857697791 422.23800740112335,246.38013174646625 453.7114593037728,237.29452878230555 471.8826652320942,253.03125473363028" />
  <polygon fill="antiquewhite" points="420.57507256071756,425.6371258527332 420.57507256071756,291.8749552664731 452.04852446336696,282.7893523023124 452.048524463367,416.55152288857255" />
  <polygon fill="beige" points="420.57507256071756,425.6371258527332 420.57507256071756,291.8749552664731 402.4038666323961,276.13822931514835 402.4038666323961,409.9003999014085" />
  <polygon fill="bisque" points="420.57507256071756,291.8749552664731 402.4038666323961,276.13822931514835 433.87731853504556,267.0526263509877 452.04852446336696,282.7893523023124" />
</svg>
