<?xml version="1.0" encoding="UTF-8"?>
<svg
  xmlns="http://www.w3.org/2000/svg"
  width="848"
  height="600"
  style="background-color:white"
>
  <polygon fill="lightblue" points="369.0961894323342,618.9582562299425 219.0961894323342,489.05444566227675 478.9038105676658,414.05444566227675 628.9038105676658,543.9582562299425" />
  <polygon fill="steelblue" points="219.0961894323342,489.05444566227675 219.0961894323342,56.04174377005745 478.9038105676658,-18.95825622994255 478.9038105676658,414.05444566227675" />
  <polygon fill="lightskyblue" points="628.9038105676658,543.9582562299425 628.9038105676658,110.94555433772325 478.9038105676658,-18.95825622994255 478.9038105676658,414.05444566227675" />
  <polygon fill="white" points="568.9038105676658,491.99673200287623 568.9038105676658,318.7916512459885 538.9038105676658,292.8108891324553 538.9038105676658,466.01596988934307" />
  <polygon fill="white" points="234.56092878562777,415.30812764523597 234.56092878562777,346.02609534248086 277.86219897484966,333.52609534248086 277.86219897484966,402.80812764523597" />
  <polygon fill="white" points="271.6763032335323,404.59384193095025 271.6763032335323,335.31180962819514 314.9775734227542,322.81180962819514 314.9775734227542,392.09384193095025" />
  <polygon fill="white" points="308.7916776814368,393.8795562166645 308.7916776814368,324.5975239139094 352.0929478706587,312.0975239139094 352.0929478706587,381.3795562166645" />
  <polygon fill="white" points="345.9070521293413,383.1652705023788 345.9070521293413,313.8832381996237 389.2083223185632,301.3832381996237 389.2083223185632,370.6652705023788" />
  <polygon fill="white" points="383.0224265772458,372.4509847880931 383.0224265772458,303.16895248533797 426.3236967664677,290.66895248533797 426.3236967664677,359.9509847880931" />
  <polygon fill="white" points="420.1378010251503,361.73669907380736 420.1378010251503,292.4546667710523 463.43907121437223,279.95466677105225 463.43907121437223,349.23669907380736" />
</svg>
