<?xml version="1.0" encoding="UTF-8"?>
<svg
  xmlns="http://www.w3.org/2000/svg"
  width="848"
  height="600"
  style="background-color:white"
>
  <polygon fill="lightblue" points="377.69233271769133,569.0198121720186 251.1774329224289,459.45469499207877 470.3076672823087,396.19724509444757 596.8225670775711,505.76236227438756" />
  <polygon fill="steelblue" points="251.1774329224289,459.45469499207877 251.1774329224289,94.23763772561247 470.30766728230867,30.980187827981297 470.3076672823087,396.19724509444757" />
  <polygon fill="lightskyblue" points="596.8225670775711,505.76236227438756 596.8225670775711,140.5453050079212 470.30766728230867,30.980187827981297 470.3076672823087,396.19724509444757" />
  <polygon fill="white" points="525.1307905269225,443.67546253908824 525.1307905269224,297.58863963250167 499.82781056786996,275.6756161965137 499.82781056786996,421.76243910310023" />
  <polygon fill="white" points="567.3024237920099,480.19716826573483 567.3024237920099,334.1103453591483 541.9994438329575,312.19732192316036 541.9994438329575,458.2841448297469" />
  <polygon fill="white" points="269.4382857857522,395.7485116713083 269.4382857857522,337.3137825086736 305.95999151239886,326.7708741924018 305.95999151239886,385.2056033550364" />
  <polygon fill="white" points="305.95999151239886,385.2056033550364 305.95999151239886,326.7708741924018 342.4816972390455,316.22796587612993 342.4816972390455,374.6626950387645" />
  <polygon fill="white" points="342.4816972390455,374.6626950387645 342.4816972390455,316.22796587612993 379.00340296569215,305.685057559858 379.00340296569215,364.1197867224927" />
  <polygon fill="white" points="379.00340296569215,364.1197867224927 379.00340296569215,305.685057559858 415.52510869233873,295.1421492435862 415.5251086923388,353.5768784062208" />
  <polygon fill="white" points="415.5251086923388,353.5768784062208 415.52510869233873,295.1421492435862 452.0468144189854,284.5992409273143 452.0468144189854,343.0339700899489" />
  <polygon fill="grey" points="454.8717781882058,110.91433702488175 454.8717781882058,74.39263129823513 491.3934839148524,63.849722981963254 491.3934839148525,100.3714287086099" />
  <polygon fill="lightgrey" points="454.8717781882058,110.91433702488175 454.8717781882058,74.39263129823513 433.7859615556621,56.13177843491181 433.7859615556621,92.65348416155842" />
  <polygon fill="darkgrey" points="454.8717781882058,74.39263129823513 433.7859615556621,56.13177843491181 470.30766728230867,45.58887011863993 491.3934839148524,63.849722981963254" />
  <polygon fill="hsl(288.0,50.0%,54.496445229397835%)" points="432.756107442265,491.29123399785095 432.756107442265,441.12501901172914 441.52131681666015,438.5947210158239 441.52131681666015,488.7609360019457" />
  <polygon fill="hsl(288.0,50.0%,54.496445229397835%)" points="454.66913087825293,484.96548900808784 454.66913087825293,434.79927402196597 445.90392150385776,437.3295720178712 445.90392150385776,487.4957870039931" />
  <polygon fill="hsl(288.0,50.0%,54.496445229397835%)" points="423.9908980678698,444.15201220551677 423.9908980678698,394.48249241727734 431.6604562704656,392.26848167086024 431.6604562704656,441.93800145909967" />
  <polygon fill="hsl(288.0,50.0%,54.496445229397835%)" points="455.76478205005236,434.9796819703603 455.76478205005236,385.31016218212085 463.4343402526481,383.09615143570375 463.43434025264816,432.7656712239432" />
  <polygon fill="hsl(288.0,50.0%,54.496445229397835%)" points="431.6604562704656,399.93803987345603 431.6604562704656,392.26848167086024 455.76478205005236,385.31016218212085 455.76478205005236,392.97972038471664" />
  <polygon fill="hsl(288.0,50.0%,54.496445229397835%)" points="432.756107442265,441.6217142096115 432.756107442265,391.9521944213721 454.66913087825293,385.626449431609 454.66913087825293,435.2959692198484" />
  <polygon fill="hsl(288.0,50.0%,54.496445229397835%)" points="438.23436330126196,387.88728218451934 438.23436330126196,365.5359982798116 449.19087501925594,362.37312578493004 449.19087501925594,384.7244096896378" />
  <polygon fill="hsl(288.0,50.0%,54.496445229397835%)" points="440.42566564486077,389.738183674955 440.42566564486077,364.9034237808353 446.99957267565713,363.0057002839064 446.99957267565713,387.8404601780261" />
</svg>
