<?xml version="1.0" encoding="UTF-8"?>
<svg
  xmlns="http://www.w3.org/2000/svg"
  width="848"
  height="600"
  style="background-color:white"
>
  <polygon fill="lightblue" points="369.0961894323342,662.2595264191646 219.0961894323342,532.3557158514986 478.9038105676658,457.3557158514987 628.9038105676658,587.2595264191646" />
  <polygon fill="steelblue" points="219.0961894323342,532.3557158514986 219.0961894323342,12.740473580835499 478.9038105676658,-62.2595264191645 478.9038105676658,457.3557158514987" />
  <polygon fill="lightskyblue" points="628.9038105676658,587.2595264191646 628.9038105676658,67.6442841485013 478.9038105676658,-62.2595264191645 478.9038105676658,457.3557158514987" />
  <polygon fill="white" points="568.9038105676658,535.2980021920982 568.9038105676658,362.0929214352104 538.9038105676658,336.11215932167727 538.9038105676658,509.31724007856496" />
  <polygon fill="white" points="249.40707856478957,454.3236835487436 249.40707856478957,385.04165124598853 292.70834875401147,372.54165124598853 292.70834875401147,441.8236835487436" />
  <polygon fill="white" points="301.3686027918559,439.3236835487436 301.3686027918559,370.0416512459885 344.6698729810778,357.5416512459885 344.6698729810778,426.8236835487436" />
  <polygon fill="white" points="353.3301270189222,424.3236835487436 353.3301270189222,355.0416512459885 396.6313972081441,342.5416512459885 396.6313972081441,411.8236835487436" />
  <polygon fill="white" points="405.29165124598853,409.3236835487436 405.29165124598853,340.0416512459885 448.5929214352104,327.5416512459885 448.5929214352104,396.8236835487436" />
</svg>
