<?xml version="1.0" encoding="UTF-8"?>
<svg
  xmlns="http://www.w3.org/2000/svg"
  width="848"
  height="600"
  style="background-color:white"
>
  <polygon fill="lightblue" points="374.1165775962698,550.4509929463176 237.83253313385936,432.42554831138216 473.8834224037302,364.2835260801769 610.1674668661407,482.30897071511225" />
  <polygon fill="steelblue" points="237.83253313385936,432.42554831138216 237.83253313385936,117.69102928488775 473.8834224037302,49.54900705368246 473.8834224037302,364.2835260801769" />
  <polygon fill="lightskyblue" points="610.1674668661407,482.30897071511225 610.1674668661407,167.57445168861787 473.8834224037302,49.54900705368246 473.8834224037302,364.2835260801769" />
  <polygon fill="white" points="336.18707032963886,341.08613524308106 336.18707032963886,278.13923143778214 375.5288852079507,266.7822277325813 375.5288852079507,329.72913153788016" />
  <polygon fill="hsl(324.0,50.0%,54.496445229397835%)" points="433.43223081163103,466.72042033367643 433.43223081163103,412.6805034168274 442.87426638242584,409.95482252757915 442.87426638242584,463.9947394444282" />
  <polygon fill="hsl(324.0,50.0%,54.496445229397835%)" points="457.03731973861807,459.9062181105559 457.03731973861807,405.8663011937068 447.59528416782325,408.59198208295504 447.59528416782325,462.6318989998041" />
  <polygon fill="hsl(324.0,50.0%,54.496445229397835%)" points="423.99019524083616,415.94123298842055 423.99019524083616,362.43636475391656 432.2519763652817,360.0513939758244 432.2519763652817,413.5562622103284" />
  <polygon fill="hsl(324.0,50.0%,54.496445229397835%)" points="458.2175741849674,406.0606397648958 458.2175741849674,352.5557715303918 466.4793553094129,350.1708007522996 466.4793553094129,403.67566898680366" />
  <polygon fill="hsl(324.0,50.0%,54.496445229397835%)" points="432.2519763652817,368.31317510026986 432.2519763652817,360.0513939758244 458.2175741849674,352.5557715303918 458.2175741849674,360.8175526548373" />
  <polygon fill="hsl(324.0,50.0%,54.496445229397835%)" points="433.43223081163103,413.2155520991724 433.43223081163103,359.71068386466834 457.03731973861807,352.89648164154784 457.03731973861807,406.4013498760519" />
  <polygon fill="hsl(324.0,50.0%,54.496445229397835%)" points="439.3335030433778,355.331889897163 439.3335030433778,331.2546991916362 451.1360475068713,327.84759808007595 451.1360475068713,351.92478878560274" />
  <polygon fill="hsl(324.0,50.0%,54.496445229397835%)" points="441.6940119360765,357.3257130865762 441.6940119360765,330.5732789693241 448.7755386141726,328.529018302388 448.7755386141726,355.28145241964" />
</svg>
