<?xml version="1.0" encoding="UTF-8"?>
<svg
  xmlns="http://www.w3.org/2000/svg"
  width="848"
  height="600"
  style="background-color:white"
>
  <polygon fill="lightblue" points="385.1771432346219,556.1561676804184 279.1111260566398,464.3003023260493 462.8228567653781,411.26729373705825 568.8888739433602,503.1231590914274" />
  <polygon fill="steelblue" points="279.1111260566398,464.3003023260493 279.1111260566398,96.8768409085726 462.8228567653781,43.843832319581566 462.8228567653781,411.26729373705825" />
  <polygon fill="lightskyblue" points="568.8888739433602,503.1231590914274 568.8888739433602,135.6996976739507 462.8228567653781,43.843832319581566 462.8228567653781,411.26729373705825" />
  <polygon fill="white" points="526.4624670721674,466.3808129496797 526.4624670721673,343.9063258105208 505.24926363657096,325.535152739647 505.24926363657096,448.00963987880584" />
  <polygon fill="white" points="290.0463481226361,412.15378076866006 290.0463481226361,363.1639859129965 320.66496990742587,354.32515114816465 320.66496990742587,403.31494600382825" />
  <polygon fill="white" points="316.29088108102735,404.5776366845185 316.29088108102735,355.58784182885495 346.90950286581705,346.7490070640231 346.90950286581705,395.73880191968664" />
  <polygon fill="white" points="342.53541403941847,397.0014926003769 342.53541403941847,348.01169774471333 373.1540358242082,339.1728629798815 373.1540358242082,388.1626578355451" />
  <polygon fill="white" points="368.7799469978097,389.4253485162353 368.7799469978097,340.43555366057177 399.3985687825994,331.5967188957399 399.3985687825994,380.58651375140346" />
  <polygon fill="white" points="395.0244799562009,381.84920443209376 395.0244799562009,332.85940957643015 425.6431017409906,324.02057481159835 425.6431017409906,373.0103696672619" />
  <polygon fill="white" points="421.26901291459205,374.2730603479522 421.26901291459205,325.2832654922886 451.88763469938175,316.44443072745673 451.8876346993818,365.43422558312034" />
</svg>
