<?xml version="1.0" encoding="UTF-8"?>
<svg
  xmlns="http://www.w3.org/2000/svg"
  width="848"
  height="600"
  style="background-color:white"
>
  <polygon fill="lightblue" points="374.1165775962698,550.4509929463176 237.83253313385936,432.42554831138216 473.8834224037302,364.2835260801769 610.1674668661407,482.30897071511225" />
  <polygon fill="steelblue" points="237.83253313385936,432.42554831138216 237.83253313385936,117.69102928488775 473.8834224037302,49.54900705368246 473.8834224037302,364.2835260801769" />
  <polygon fill="lightskyblue" points="610.1674668661407,482.30897071511225 610.1674668661407,167.57445168861787 473.8834224037302,49.54900705368246 473.8834224037302,364.2835260801769" />
  <polygon fill="white" points="555.6538490811764,435.0987928611381 555.6538490811764,277.7315333478909 528.3970401886944,254.12644442090382 528.3970401886944,411.49370393415103" />
  <polygon fill="white" points="265.37180354867763,361.5287419124426 265.37180354867763,298.58183810714377 304.7136184269894,287.22483440194287 304.71361842698946,350.1717382072418" />
  <polygon fill="white" points="312.58198140265176,347.90033746620156 312.58198140265176,284.9534336609027 351.9237962809636,273.5964299557018 351.9237962809636,336.54333376100067" />
  <polygon fill="white" points="359.79215925662595,334.27193301996056 359.79215925662595,271.32502921466164 399.1339741349377,259.96802550946074 399.1339741349377,322.91492931475966" />
  <polygon fill="white" points="407.00233711060014,320.6435285737195 407.0023371106001,257.6966247684206 446.3441519889119,246.3396210632197 446.3441519889119,309.2865248685186" />
  <polygon fill="hsl(324.0,50.0%,54.496445229397835%)" points="433.43223081163103,466.72042033367643 433.43223081163103,412.6805034168274 442.87426638242584,409.95482252757915 442.87426638242584,463.9947394444282" />
  <polygon fill="hsl(324.0,50.0%,54.496445229397835%)" points="457.03731973861807,459.9062181105559 457.03731973861807,405.8663011937068 447.59528416782325,408.59198208295504 447.59528416782325,462.6318989998041" />
  <polygon fill="hsl(324.0,50.0%,54.496445229397835%)" points="423.99019524083616,415.94123298842055 423.99019524083616,362.43636475391656 432.2519763652817,360.0513939758244 432.2519763652817,413.5562622103284" />
  <polygon fill="hsl(324.0,50.0%,54.496445229397835%)" points="458.2175741849674,406.0606397648958 458.2175741849674,352.5557715303918 466.4793553094129,350.1708007522996 466.4793553094129,403.67566898680366" />
  <polygon fill="hsl(324.0,50.0%,54.496445229397835%)" points="432.2519763652817,368.31317510026986 432.2519763652817,360.0513939758244 458.2175741849674,352.5557715303918 458.2175741849674,360.8175526548373" />
  <polygon fill="hsl(324.0,50.0%,54.496445229397835%)" points="433.43223081163103,413.2155520991724 433.43223081163103,359.71068386466834 457.03731973861807,352.89648164154784 457.03731973861807,406.4013498760519" />
  <polygon fill="hsl(324.0,50.0%,54.496445229397835%)" points="439.3335030433778,355.331889897163 439.3335030433778,331.2546991916362 451.1360475068713,327.84759808007595 451.1360475068713,351.92478878560274" />
  <polygon fill="hsl(324.0,50.0%,54.496445229397835%)" points="441.6940119360765,357.3257130865762 441.6940119360765,330.5732789693241 448.7755386141726,328.529018302388 448.7755386141726,355.28145241964" />
</svg>
