<?xml version="1.0" encoding="UTF-8"?>
<svg
  xmlns="http://www.w3.org/2000/svg"
  width="848"
  height="600"
  style="background-color:white"
>
  <polygon fill="lightblue" points="369.0961894323342,575.6569860407205 219.0961894323342,445.75317547305485 478.9038105676658,370.7531754730548 628.9038105676658,500.65698604072054" />
  <polygon fill="steelblue" points="219.0961894323342,445.75317547305485 219.0961894323342,99.34301395927943 478.9038105676658,24.343013959279403 478.9038105676658,370.7531754730548" />
  <polygon fill="lightskyblue" points="628.9038105676658,500.65698604072054 628.9038105676658,154.24682452694518 478.9038105676658,24.343013959279403 478.9038105676658,370.7531754730548" />
  <polygon fill="white" points="568.9038105676658,448.6954618136543 568.9038105676658,275.4903810567666 538.9038105676658,249.50961894323342 538.9038105676658,422.7146997001211" />
  <polygon fill="white" points="234.56092878562777,372.006857456014 234.56092878562777,302.72482515325896 277.86219897484966,290.2248251532589 277.86219897484966,359.506857456014" />
  <polygon fill="white" points="271.6763032335323,361.2925717417283 271.6763032335323,292.01053943897324 314.9775734227542,279.5105394389732 314.9775734227542,348.7925717417283" />
  <polygon fill="white" points="308.7916776814368,350.5782860274426 308.7916776814368,281.2962537246875 352.0929478706587,268.7962537246875 352.0929478706587,338.0782860274426" />
  <polygon fill="white" points="345.9070521293413,339.86400031315685 345.9070521293413,270.5819680104018 389.2083223185632,258.0819680104018 389.2083223185632,327.36400031315685" />
  <polygon fill="white" points="383.0224265772458,329.1497145988711 383.0224265772458,259.8676822961161 426.3236967664677,247.36768229611604 426.3236967664677,316.6497145988711" />
  <polygon fill="white" points="420.1378010251503,318.43542888458546 420.1378010251503,249.15339658183035 463.43907121437223,236.65339658183035 463.43907121437223,305.9354288845854" />
</svg>
