<?xml version="1.0" encoding="UTF-8"?>
<svg
  xmlns="http://www.w3.org/2000/svg"
  width="848"
  height="600"
  style="background-color:white"
>
  <polygon fill="lightblue" points="376.4519052838329,538.7259526419164 246.5480947161671,426.2259526419164 471.5480947161671,361.2740473580835 601.451905283833,473.7740473580835" />
  <polygon fill="steelblue" points="246.5480947161671,426.2259526419164 246.5480947161671,126.2259526419165 471.5480947161671,61.27404735808358 471.5480947161671,361.2740473580835" />
  <polygon fill="lightskyblue" points="601.451905283833,473.7740473580835 601.451905283833,173.77404735808358 471.5480947161671,61.27404735808358 471.5480947161671,361.2740473580835" />
  <polygon fill="white" points="549.4903810567665,428.7740473580835 549.4903810567665,278.7740473580835 523.5096189432335,256.2740473580835 523.5096189432335,406.2740473580835" />
  <polygon fill="white" points="259.94095185902427,362.35976780359306 259.94095185902427,302.35976780359306 297.44095185902427,291.5344502562876 297.44095185902427,351.5344502562876" />
  <polygon fill="white" points="292.0838090018814,353.08092419161693 292.0838090018814,293.08092419161693 329.5838090018814,282.25560664431146 329.5838090018814,342.25560664431146" />
  <polygon fill="white" points="324.2266661447385,343.8020805796408 324.2266661447385,283.8020805796408 361.72666614473854,272.9767630323353 361.72666614473854,332.9767630323353" />
  <polygon fill="white" points="356.36952328759565,334.5232369676647 356.36952328759565,274.5232369676647 393.86952328759565,263.6979194203592 393.86952328759565,323.6979194203592" />
  <polygon fill="white" points="388.5123804304528,325.24439335568854 388.5123804304528,265.24439335568854 426.0123804304528,254.41907580838304 426.0123804304528,314.41907580838307" />
  <polygon fill="white" points="420.65523757330993,315.9655497437124 420.65523757330993,255.96554974371242 458.15523757330993,245.1402321964069 458.15523757330993,305.14023219640694" />
</svg>
