<?xml version="1.0" encoding="UTF-8"?>
<svg
  xmlns="http://www.w3.org/2000/svg"
  width="848"
  height="600"
  style="background-color:white"
>
  <polygon fill="lightblue" points="369.0961894323342,532.3557158514986 219.0961894323342,402.45190528383296 478.9038105676658,327.4519052838329 628.9038105676658,457.35571585149864" />
  <polygon fill="steelblue" points="219.0961894323342,402.45190528383296 219.0961894323342,142.64428414850133 478.9038105676658,67.6442841485013 478.9038105676658,327.4519052838329" />
  <polygon fill="lightskyblue" points="628.9038105676658,457.35571585149864 628.9038105676658,197.54809471616707 478.9038105676658,67.6442841485013 478.9038105676658,327.4519052838329" />
  <polygon fill="white" points="568.9038105676658,405.3941916244323 568.9038105676658,232.18911086754463 538.9038105676658,206.20834875401147 538.9038105676658,379.4134295108992" />
  <polygon fill="white" points="234.56092878562777,328.7055872667921 234.56092878562777,259.423554964037 277.86219897484966,246.923554964037 277.86219897484966,316.20558726679207" />
  <polygon fill="white" points="271.6763032335323,317.9913015525064 271.6763032335323,248.7092692497513 314.9775734227542,236.2092692497513 314.9775734227542,305.49130155250634" />
  <polygon fill="white" points="308.7916776814368,307.2770158382207 308.7916776814368,237.99498353546556 352.0929478706587,225.49498353546556 352.0929478706587,294.7770158382207" />
  <polygon fill="white" points="345.9070521293413,296.56273012393495 345.9070521293413,227.28069782117984 389.2083223185632,214.78069782117984 389.2083223185632,284.06273012393495" />
  <polygon fill="white" points="383.0224265772458,285.84844440964923 383.0224265772458,216.56641210689412 426.3236967664677,204.06641210689412 426.3236967664677,273.34844440964923" />
  <polygon fill="white" points="420.1378010251503,275.1341586953635 420.1378010251503,205.8521263926084 463.43907121437223,193.3521263926084 463.43907121437223,262.6341586953635" />
  <polygon fill="antiquewhite" points="484.25986293982857,442.84996087176216 484.2598629398285,295.62564222840757 518.9008790912061,285.62564222840757 518.9008790912061,432.84996087176216" />
  <polygon fill="beige" points="484.25986293982857,442.84996087176216 484.2598629398285,295.62564222840757 464.2598629398285,278.30513415271884 464.25986293982857,425.52945279607343" />
  <polygon fill="bisque" points="484.2598629398285,295.62564222840757 464.2598629398285,278.30513415271884 498.9008790912061,268.3051341527188 518.9008790912061,285.62564222840757" />
</svg>
