<?xml version="1.0" encoding="UTF-8"?>
<svg
  xmlns="http://www.w3.org/2000/svg"
  width="848"
  height="600"
  style="background-color:white"
>
  <polygon fill="lightblue" points="380.4228166739123,587.5255766616417 261.3677377762973,484.4208538867465 467.5771833260877,424.89331443793907 586.6322622237027,527.9980372128342" />
  <polygon fill="steelblue" points="261.3677377762973,484.4208538867465 261.3677377762973,72.00196278716575 467.5771833260877,12.474423338358292 467.5771833260877,424.89331443793907" />
  <polygon fill="lightskyblue" points="586.6322622237027,527.9980372128342 586.6322622237027,115.57914611325347 467.5771833260877,12.474423338358292 467.5771833260877,424.89331443793907" />
  <polygon fill="white" points="539.0102306646568,486.7561481028762 539.0102306646567,349.28318440301587 515.1992148851338,328.66223984803685 515.1992148851338,466.1352035478971" />
  <polygon fill="white" points="285.42550642377284,422.4867888044415 285.42550642377284,367.49760332449745 319.79374734873795,357.5763467496962 319.79374734873795,412.5655322296403" />
  <polygon fill="white" points="326.667395533731,410.58128091468006 326.66739553373094,355.59209543473594 361.035636458696,345.6708388599347 361.03563645869605,400.6600243398788" />
  <polygon fill="white" points="367.90928464368903,398.67577302491856 367.90928464368903,343.68658754497443 402.2775255686541,333.7653309701732 402.2775255686541,388.7545164501173" />
  <polygon fill="white" points="409.15117375364713,386.77026513515705 409.15117375364713,331.7810796552129 443.5194146786122,321.8598230804117 443.5194146786122,376.8490085603558" />
  <polygon fill="antiquewhite" points="471.82828491107165,516.4848118556208 471.82828491107165,399.63279271073964 499.32287765104377,391.69578745089865 499.32287765104377,508.5478065957799" />
  <polygon fill="beige" points="471.82828491107165,516.4848118556208 471.82828491107165,399.63279271073964 455.9542743913897,385.88549634075366 455.9542743913897,502.73751548563484" />
  <polygon fill="bisque" points="471.82828491107165,399.63279271073964 455.9542743913897,385.88549634075366 483.44886713136174,377.9484910809126 499.32287765104377,391.69578745089865" />
  <polygon fill="antiquewhite" points="394.5394439235163,567.8097418211364 394.5394439235163,450.95772267625523 422.03403666348834,443.0207174164143 422.03403666348834,559.8727365612955" />
  <polygon fill="beige" points="394.5394439235163,567.8097418211364 394.5394439235163,450.95772267625523 378.6654334038343,437.2104263062692 378.6654334038343,554.0624454511504" />
  <polygon fill="bisque" points="394.5394439235163,450.95772267625523 378.6654334038343,437.2104263062692 406.1600261438063,429.2734210464282 422.03403666348834,443.0207174164143" />
</svg>
