<?xml version="1.0" encoding="UTF-8"?>
<svg
  xmlns="http://www.w3.org/2000/svg"
  width="848"
  height="600"
  style="background-color:white"
>
  <polygon fill="lightblue" points="380.4228166739123,587.5255766616417 261.3677377762973,484.4208538867465 467.5771833260877,424.89331443793907 586.6322622237027,527.9980372128342" />
  <polygon fill="steelblue" points="261.3677377762973,484.4208538867465 261.3677377762973,72.00196278716575 467.5771833260877,12.474423338358292 467.5771833260877,424.89331443793907" />
  <polygon fill="lightskyblue" points="586.6322622237027,527.9980372128342 586.6322622237027,115.57914611325347 467.5771833260877,12.474423338358292 467.5771833260877,424.89331443793907" />
  <polygon fill="white" points="539.0102306646568,486.7561481028762 539.0102306646567,349.28318440301587 515.1992148851338,328.66223984803685 515.1992148851338,466.1352035478971" />
  <polygon fill="white" points="273.6421095352134,425.88836248723055 273.6421095352134,370.8991770072864 308.01035046017853,360.9779204324852 308.01035046017853,415.9671059124293" />
  <polygon fill="white" points="303.1006017566121,417.3844282802581 303.1006017566121,362.39524280031395 337.46884268157714,352.4739862255127 337.46884268157714,407.46317170545683" />
  <polygon fill="white" points="332.55909397801065,408.88049407328555 332.55909397801065,353.8913085933414 366.92733490297576,343.9700520185402 366.92733490297576,398.9592374984843" />
  <polygon fill="white" points="362.0175861994093,400.3765598663131 362.0175861994093,345.38737438636895 396.3858271243744,335.4661178115677 396.3858271243744,390.4553032915118" />
  <polygon fill="white" points="391.47607842080794,391.87262565934054 391.47607842080794,336.8834401793964 425.844319345773,326.96218360459517 425.844319345773,381.9513690845393" />
  <polygon fill="white" points="420.93457064220655,383.36869145236807 420.93457064220655,328.37950597242394 455.3028115671716,318.4582493976227 455.3028115671716,373.4474348775668" />
  <polygon fill="antiquewhite" points="471.82828491107165,516.4848118556208 471.82828491107165,399.63279271073964 499.32287765104377,391.69578745089865 499.32287765104377,508.5478065957799" />
  <polygon fill="beige" points="471.82828491107165,516.4848118556208 471.82828491107165,399.63279271073964 455.9542743913897,385.88549634075366 455.9542743913897,502.73751548563484" />
  <polygon fill="bisque" points="471.82828491107165,399.63279271073964 455.9542743913897,385.88549634075366 483.44886713136174,377.9484910809126 499.32287765104377,391.69578745089865" />
  <polygon fill="antiquewhite" points="394.5394439235163,567.8097418211364 394.5394439235163,450.95772267625523 422.03403666348834,443.0207174164143 422.03403666348834,559.8727365612955" />
  <polygon fill="beige" points="394.5394439235163,567.8097418211364 394.5394439235163,450.95772267625523 378.6654334038343,437.2104263062692 378.6654334038343,554.0624454511504" />
  <polygon fill="bisque" points="394.5394439235163,450.95772267625523 378.6654334038343,437.2104263062692 406.1600261438063,429.2734210464282 422.03403666348834,443.0207174164143" />
</svg>
