<?xml version="1.0" encoding="UTF-8"?>
<svg
  xmlns="http://www.w3.org/2000/svg"
  width="848"
  height="600"
  style="background-color:white"
>
  <polygon fill="lightblue" points="380.4228166739123,587.5255766616417 261.3677377762973,484.4208538867465 467.5771833260877,424.89331443793907 586.6322622237027,527.9980372128342" />
  <polygon fill="steelblue" points="261.3677377762973,484.4208538867465 261.3677377762973,72.00196278716575 467.5771833260877,12.474423338358292 467.5771833260877,424.89331443793907" />
  <polygon fill="lightskyblue" points="586.6322622237027,527.9980372128342 586.6322622237027,115.57914611325347 467.5771833260877,12.474423338358292 467.5771833260877,424.89331443793907" />
  <polygon fill="white" points="539.0102306646568,486.7561481028762 539.0102306646567,349.28318440301587 515.1992148851338,328.66223984803685 515.1992148851338,466.1352035478971" />
  <polygon fill="white" points="278.5518582387799,424.47104011940183 278.5518582387799,369.4818546394577 312.9200991637449,359.56059806465646 312.9200991637449,414.5497835446006" />
  <polygon fill="white" points="312.9200991637449,414.5497835446006 312.9200991637449,359.56059806465646 347.28834008871,349.6393414898552 347.28834008871,404.6285269697993" />
  <polygon fill="white" points="347.28834008871,404.6285269697993 347.28834008871,349.6393414898552 381.65658101367507,339.71808491505396 381.65658101367507,394.7072703949981" />
  <polygon fill="white" points="381.65658101367507,394.7072703949981 381.65658101367507,339.71808491505396 416.0248219386401,329.7968283402527 416.0248219386401,384.7860138201968" />
  <polygon fill="white" points="416.0248219386401,384.7860138201968 416.0248219386401,329.7968283402527 450.39306286360517,319.87557176545147 450.39306286360517,374.86475724539554" />
  <polygon fill="antiquewhite" points="471.82828491107165,516.4848118556208 471.82828491107165,399.63279271073964 499.32287765104377,391.69578745089865 499.32287765104377,508.5478065957799" />
  <polygon fill="beige" points="471.82828491107165,516.4848118556208 471.82828491107165,399.63279271073964 455.9542743913897,385.88549634075366 455.9542743913897,502.73751548563484" />
  <polygon fill="bisque" points="471.82828491107165,399.63279271073964 455.9542743913897,385.88549634075366 483.44886713136174,377.9484910809126 499.32287765104377,391.69578745089865" />
  <polygon fill="antiquewhite" points="394.5394439235163,567.8097418211364 394.5394439235163,450.95772267625523 422.03403666348834,443.0207174164143 422.03403666348834,559.8727365612955" />
  <polygon fill="beige" points="394.5394439235163,567.8097418211364 394.5394439235163,450.95772267625523 378.6654334038343,437.2104263062692 378.6654334038343,554.0624454511504" />
  <polygon fill="bisque" points="394.5394439235163,450.95772267625523 378.6654334038343,437.2104263062692 406.1600261438063,429.2734210464282 422.03403666348834,443.0207174164143" />
  <polygon fill="antiquewhite" points="438.33476820629346,452.4945279367763 438.33476820629346,335.642508791895 465.8293609462655,327.705503532054 465.8293609462655,444.55752267693526" />
  <polygon fill="beige" points="438.33476820629346,452.4945279367763 438.33476820629346,335.642508791895 422.46075768661143,321.895212421909 422.46075768661143,438.7472315667902" />
  <polygon fill="bisque" points="438.33476820629346,335.642508791895 422.46075768661143,321.895212421909 449.9553504265835,313.958207162068 465.8293609462655,327.705503532054" />
  <polygon fill="antiquewhite" points="421.00805029590356,478.4906206404937 421.0080502959035,361.6386014956125 448.50264303587556,353.70159623577143 448.50264303587556,470.5536153806527" />
  <polygon fill="beige" points="421.00805029590356,478.4906206404937 421.0080502959035,361.6386014956125 405.1340397762215,347.89130512562645 405.1340397762215,464.7433242705076" />
  <polygon fill="bisque" points="421.0080502959035,361.6386014956125 405.1340397762215,347.89130512562645 432.6286325161936,339.9542998657854 448.50264303587556,353.70159623577143" />
</svg>
