<?xml version="1.0" encoding="UTF-8"?>
<svg
  xmlns="http://www.w3.org/2000/svg"
  width="848"
  height="600"
  style="background-color:white"
>
  <polygon fill="lightblue" points="396.8305850066716,530.7800855071616 215.1185257234576,373.41282599391445 451.1694149933284,305.2708037627092 632.8814742765423,462.63806327595637" />
  <polygon fill="steelblue" points="215.1185257234576,373.41282599391445 215.1185257234576,137.3619367240436 451.1694149933284,69.21991449283834 451.1694149933284,305.2708037627092" />
  <polygon fill="lightskyblue" points="632.8814742765423,462.63806327595637 632.8814742765423,226.58717400608555 451.1694149933284,69.21991449283834 451.1694149933284,305.2708037627092" />
  <polygon fill="white" points="254.46034060176942,299.10891848341464 254.46034060176942,236.16201467811578 293.80215548008124,224.80501097291489 293.80215548008124,287.7519147782138" />
  <polygon fill="white" points="313.4730629192371,282.07341292561335 313.4730629192371,219.12650912031444 352.8148777975489,207.76950541511357 352.81487779754895,270.71640922041246" />
  <polygon fill="white" points="372.4857852367048,265.037907367812 372.4857852367048,202.09100356251315 411.82760011501665,190.73399985731226 411.82760011501665,253.68090366261114" />
  <polygon fill="grey" points="434.5416075254184,155.32636646683167 434.5416075254184,115.98455158851985 473.8834224037302,104.62754788331898 473.8834224037302,143.96936276163078" />
  <polygon fill="lightgrey" points="434.5416075254184,155.32636646683167 434.5416075254184,115.98455158851985 411.8276001150166,96.31364414936394 411.82760011501665,135.65545902767576" />
  <polygon fill="darkgrey" points="434.5416075254184,115.98455158851985 411.8276001150166,96.31364414936394 451.1694149933284,84.95664044416304 473.8834224037302,104.62754788331898" />
  <polygon fill="hsl(324.0,50.0%,68.65222276527638%)" points="399.3453620876263,381.83981618934064 399.3453620876263,327.79989927249153 408.7873976584211,325.0742183832433 408.7873976584211,379.11413530009247" />
  <polygon fill="hsl(324.0,50.0%,68.65222276527638%)" points="422.9504510146134,375.02561396622013 422.9504510146134,320.985697049371 413.5084154438186,323.71137793861925 413.5084154438186,377.75129485546836" />
  <polygon fill="hsl(324.0,50.0%,68.65222276527638%)" points="389.9033265168315,331.06062884408476 389.9033265168315,277.5557606095807 398.16510764127696,275.17078983148855 398.16510764127696,328.6756580659926" />
  <polygon fill="hsl(324.0,50.0%,68.65222276527638%)" points="424.13070546096276,321.18003562056003 424.13070546096276,267.675167386056 432.3924865854082,265.2901966079638 432.3924865854082,318.79506484246787" />
  <polygon fill="hsl(324.0,50.0%,68.65222276527638%)" points="398.16510764127696,283.432570955934 398.16510764127696,275.17078983148855 424.13070546096276,267.675167386056 424.13070546096276,275.93694851050145" />
  <polygon fill="hsl(324.0,50.0%,68.65222276527638%)" points="399.3453620876263,328.3349479548366 399.3453620876263,274.83007972033255 422.9504510146134,268.015877497212 422.9504510146134,321.52074573171603" />
  <polygon fill="hsl(324.0,50.0%,68.65222276527638%)" points="405.2466343193731,270.4512857528272 405.2466343193731,246.3740950473004 417.04917878286665,242.9669939357401 417.04917878286665,267.04418464126695" />
  <polygon fill="hsl(324.0,50.0%,68.65222276527638%)" points="407.6071432120718,272.4451089422403 407.6071432120718,245.69267482498833 414.6886698901679,243.64841415805216 414.6886698901679,270.4008482753042" />
  <polygon fill="hsl(324.0,50.0%,60.889312742823975%)" points="409.02117526827334,411.6233928792699 409.02117526827334,357.58347596242083 418.46321083906815,354.8577950731726 418.46321083906815,408.8977119900217" />
  <polygon fill="hsl(324.0,50.0%,60.889312742823975%)" points="432.6262641952604,404.8091906561494 432.6262641952604,350.7692737393003 423.18422862446556,353.4949546285485 423.18422862446556,407.5348715453976" />
  <polygon fill="hsl(324.0,50.0%,60.889312742823975%)" points="399.57913969747847,360.84420553401407 399.57913969747847,307.33933729951 407.840920821924,304.9543665214178 407.840920821924,358.4592347559219" />
  <polygon fill="hsl(324.0,50.0%,60.889312742823975%)" points="433.8065186416097,350.9636123104893 433.8065186416097,297.45874407598524 442.0682997660552,295.07377329789307 442.0682997660552,348.5786415323971" />
  <polygon fill="hsl(324.0,50.0%,60.889312742823975%)" points="407.840920821924,313.2161476458633 407.840920821924,304.9543665214178 433.8065186416097,297.45874407598524 433.8065186416097,305.7205252004307" />
  <polygon fill="hsl(324.0,50.0%,60.889312742823975%)" points="409.02117526827334,358.11852464476584 409.0211752682733,304.6136564102618 432.6262641952604,297.7994541871413 432.6262641952604,351.30432242164534" />
  <polygon fill="hsl(324.0,50.0%,60.889312742823975%)" points="414.9224475000201,300.2348624427565 414.9224475000201,276.15767173722963 426.7249919635136,272.7505706256694 426.7249919635136,296.8277613311962" />
  <polygon fill="hsl(324.0,50.0%,60.889312742823975%)" points="417.2829563927188,302.22868563216963 417.2829563927188,275.4762515149176 424.3644830708149,273.43199084798147 424.3644830708149,300.18442496523346" />
  <polygon fill="hsl(324.0,50.0%,52.57800117743009%)" points="443.8903633907118,436.4356139449943 443.8903633907118,382.39569702814515 453.3323989615066,379.670016138897 453.3323989615066,433.7099330557461" />
  <polygon fill="hsl(324.0,50.0%,52.57800117743009%)" points="467.49545231769883,429.62141172187376 467.49545231769883,375.58149480502465 458.053416746904,378.30717569427287 458.053416746904,432.347092611122" />
  <polygon fill="hsl(324.0,50.0%,52.57800117743009%)" points="434.448327819917,385.65642659973844 434.4483278199169,332.15155836523434 442.71010894436245,329.76658758714217 442.71010894436245,383.2714558216462" />
  <polygon fill="hsl(324.0,50.0%,52.57800117743009%)" points="468.6757067640482,375.77583337621365 468.6757067640482,322.2709651417096 476.93748788849365,319.88599436361744 476.9374878884937,373.3908625981215" />
  <polygon fill="hsl(324.0,50.0%,52.57800117743009%)" points="442.71010894436245,338.02836871158763 442.71010894436245,329.76658758714217 468.6757067640482,322.2709651417096 468.6757067640482,330.5327462661551" />
  <polygon fill="hsl(324.0,50.0%,52.57800117743009%)" points="443.8903633907118,382.9307457104902 443.8903633907118,329.42587747598617 467.49545231769883,322.61167525286567 467.49545231769883,376.1165434873697" />
  <polygon fill="hsl(324.0,50.0%,52.57800117743009%)" points="449.79163562245856,325.0470835084808 449.79163562245856,300.969892802954 461.5941800859521,297.5627916913937 461.5941800859521,321.6399823969206" />
  <polygon fill="hsl(324.0,50.0%,52.57800117743009%)" points="452.15214451515726,327.040906697894 452.15214451515726,300.28847258064195 459.2336711932534,298.2442119137058 459.2336711932534,324.99664603095783" />
</svg>
