<?xml version="1.0" encoding="UTF-8"?>
<svg
  xmlns="http://www.w3.org/2000/svg"
  width="848"
  height="600"
  style="background-color:white"
>
  <polygon fill="lightblue" points="401.5721420742507,522.9807158514986 251.57214207425068,393.07690528383284 446.4278579257493,336.82690528383284 596.4278579257493,466.73071585149864" />
  <polygon fill="steelblue" points="251.57214207425068,393.07690528383284 251.57214207425068,133.26928414850136 446.4278579257493,77.01928414850133 446.4278579257493,336.82690528383284" />
  <polygon fill="lightskyblue" points="596.4278579257493,466.73071585149864 596.4278579257493,206.92309471616716 446.4278579257493,77.01928414850133 446.4278579257493,336.82690528383284" />
  <polygon fill="white" points="532.6778579257493,411.52159636024066 532.6778579257493,281.6177857925749 510.1778579257493,262.1322142074251 510.1778579257493,392.0360247750908" />
  <polygon fill="white" points="274.3053089235922,334.5528810567666 274.3053089235922,282.59135682970026 306.78126156550866,273.21635682970026 306.78126156550866,325.1778810567666" />
  <polygon fill="white" points="313.2764520938919,323.3028810567666 313.2764520938919,271.34135682970026 345.75240473580834,261.96635682970026 345.75240473580834,313.9278810567666" />
  <polygon fill="white" points="352.24759526419166,312.0528810567666 352.24759526419166,260.09135682970026 384.7235479061081,250.71635682970026 384.7235479061081,302.6778810567666" />
  <polygon fill="white" points="391.2187384344914,300.8028810567666 391.2187384344914,248.84135682970026 423.6946910764078,239.46635682970026 423.6946910764078,291.4278810567666" />
</svg>
