<?xml version="1.0" encoding="UTF-8"?>
<svg
  xmlns="http://www.w3.org/2000/svg"
  width="848"
  height="600"
  style="background-color:white"
>
  <polygon fill="lightblue" points="401.0844278974877,561.011806179116 247.8225414187771,428.2831190566258 446.91557210251233,370.80991162710933 600.1774585812229,503.5385987495995" />
  <polygon fill="steelblue" points="247.8225414187771,428.2831190566258 247.8225414187771,96.46140125040051 446.9155721025123,38.98819382088402 446.91557210251233,370.80991162710933" />
  <polygon fill="lightskyblue" points="600.1774585812229,503.5385987495995 600.1774585812229,171.71688094337418 446.9155721025123,38.98819382088402 446.91557210251233,370.80991162710933" />
  <polygon fill="white" points="535.0411568277709,447.12890672254116 535.0411568277709,314.40021960005106 512.0518738559643,294.49091653167756 512.0518738559643,427.21960365416766" />
  <polygon fill="white" points="271.05006166521287,368.4864366741862 271.05006166521287,315.39496182519014 304.2322334458354,305.8160939202707 304.2322334458354,358.9075687692668" />
  <polygon fill="white" points="310.86866780195993,356.99179518828294 310.8686678019599,303.90032033928685 344.05083958258246,294.3214524343674 344.05083958258246,347.4129272833635" />
  <polygon fill="white" points="350.68727393870694,345.4971537023796 350.68727393870694,292.40567885338356 383.86944571932946,282.82681094846413 383.86944571932946,335.9182857974602" />
  <polygon fill="white" points="390.505880075454,334.0025122164763 390.505880075454,280.9110373674802 423.6880518560765,271.33216946256084 423.6880518560765,324.42364431155687" />
  <polygon fill="antiquewhite" points="478.99843200078647,483.47059280439527 478.99843200078647,370.65120875027867 505.5441694252845,362.9881144263431 505.5441694252845,475.80749848045974" />
  <polygon fill="beige" points="478.99843200078647,483.47059280439527 478.99843200078647,370.65120875027867 463.6722433529154,357.3783400380296 463.6722433529154,470.19772409214625" />
  <polygon fill="bisque" points="478.99843200078647,370.65120875027867 463.6722433529154,357.3783400380296 490.21798077741346,349.71524571409407 505.5441694252845,362.9881144263431" />
  <polygon fill="antiquewhite" points="414.0806175033812,541.4279540907352 414.0806175033812,428.6085700366186 440.62635492787916,420.945475712683 440.6263549278792,533.7648597667996" />
  <polygon fill="beige" points="414.0806175033812,541.4279540907352 414.0806175033812,428.6085700366186 398.7544288555101,415.33570132436955 398.7544288555101,528.1550853784861" />
  <polygon fill="bisque" points="414.0806175033812,428.6085700366186 398.7544288555101,415.33570132436955 425.3001662800081,407.672607000434 440.62635492787916,420.945475712683" />
  <polygon fill="antiquewhite" points="422.02514192691035,400.3535496841422 422.02514192691035,287.53416563002554 448.5708793514084,279.87107130609 448.57087935140845,392.69045536020667" />
  <polygon fill="beige" points="422.02514192691035,400.3535496841422 422.02514192691035,287.53416563002554 406.6989532790393,274.2612969177765 406.6989532790393,387.0806809718932" />
  <polygon fill="bisque" points="422.02514192691035,287.53416563002554 406.6989532790393,274.2612969177765 433.24469070353734,266.598202593841 448.5708793514084,279.87107130609" />
  <polygon fill="antiquewhite" points="412.3180353522249,431.5334333898115 412.3180353522249,318.7140493356948 438.8637727767229,311.0509550117593 438.8637727767229,423.8703390658759" />
  <polygon fill="beige" points="412.3180353522249,431.5334333898115 412.3180353522249,318.7140493356948 396.9918467043538,305.4411806234458 396.9918467043538,418.26056467756246" />
  <polygon fill="bisque" points="412.3180353522249,318.7140493356948 396.9918467043538,305.4411806234458 423.53758412885185,297.7780862995103 438.8637727767229,311.0509550117593" />
  <polygon fill="antiquewhite" points="374.29528552924154,410.6762057096056 374.29528552924154,297.856821655489 400.8410229537396,290.1937273315535 400.8410229537396,403.0131113856701" />
  <polygon fill="beige" points="374.29528552924154,410.6762057096056 374.29528552924154,297.856821655489 358.9690968813705,284.58395294324 358.9690968813705,397.40333699735663" />
  <polygon fill="bisque" points="374.29528552924154,297.856821655489 358.9690968813705,284.58395294324 385.5148343058685,276.92085861930445 400.8410229537396,290.1937273315535" />
</svg>
