<?xml version="1.0" encoding="UTF-8"?>
<svg
  xmlns="http://www.w3.org/2000/svg"
  width="848"
  height="600"
  style="background-color:white"
>
  <polygon fill="lightblue" points="405.6877306860929,535.0960006945566 283.213243546934,429.0299835165744 442.31226931390717,383.1020508393898 564.786756453066,489.168068017372" />
  <polygon fill="steelblue" points="283.213243546934,429.0299835165744 283.213243546934,110.83193198262805 442.3122693139071,64.90399930544345 442.31226931390717,383.1020508393898" />
  <polygon fill="lightskyblue" points="564.786756453066,489.168068017372 564.786756453066,170.97001648342558 442.3122693139071,64.90399930544345 442.31226931390717,383.1020508393898" />
  <polygon fill="white" points="512.7350994189235,444.0900107167296 512.7350994189235,338.0239935387474 494.3639263480497,322.1140909620501 494.3639263480497,428.18010814003225" />
  <polygon fill="white" points="292.68342365211095,383.86977112888246 292.68342365211095,341.4433642576896 319.19992794660646,333.7887088114922 319.19992794660646,376.21511568268505" />
  <polygon fill="white" points="315.4118559045357,377.3086378892847 315.4118559045357,334.88223101809183 341.9283601990312,327.2275755718944 341.9283601990312,369.6539824430873" />
  <polygon fill="white" points="338.1402881569604,370.7475046496869 338.1402881569604,328.32109777849405 364.65679245145594,320.6664423322966 364.65679245145594,363.09284920348944" />
  <polygon fill="white" points="360.86872040938516,364.18637141008907 360.86872040938516,321.7599645388962 387.3852247038807,314.1053090926988 387.3852247038807,356.53171596389166" />
  <polygon fill="white" points="383.5971526618099,357.6252381704913 383.5971526618099,315.19883129929843 410.1136569563054,307.54417585310097 410.1136569563054,349.9705827242939" />
  <polygon fill="white" points="406.32558491423464,351.0641049308935 406.32558491423464,308.63769805970065 432.84208920873016,300.9830426135032 432.84208920873016,343.40944948469604" />
</svg>
