<?xml version="1.0" encoding="UTF-8"?>
<svg
  xmlns="http://www.w3.org/2000/svg"
  width="848"
  height="600"
  style="background-color:white"
>
  <polygon fill="lightblue" points="394.0961894323342,597.3076211353316 194.0961894323342,424.10254037844385 453.9038105676658,349.10254037844385 653.9038105676658,522.3076211353316" />
  <polygon fill="steelblue" points="194.0961894323342,424.10254037844385 194.0961894323342,77.69237886466846 453.9038105676658,2.692378864668399 453.9038105676658,349.10254037844385" />
  <polygon fill="lightskyblue" points="653.9038105676658,522.3076211353316 653.9038105676658,175.89745962155615 453.9038105676658,2.692378864668399 453.9038105676658,349.10254037844385" />
  <polygon fill="white" points="568.9038105676658,448.6954618136543 568.9038105676658,275.4903810567666 538.9038105676658,249.50961894323342 538.9038105676658,422.7146997001211" />
  <polygon fill="white" points="224.40707856478957,346.07050807568874 224.40707856478957,276.7884757729337 267.70834875401147,264.2884757729337 267.70834875401147,333.57050807568874" />
  <polygon fill="white" points="276.3686027918559,331.07050807568874 276.3686027918559,261.7884757729337 319.6698729810778,249.28847577293368 319.6698729810778,318.57050807568874" />
  <polygon fill="white" points="328.3301270189222,316.07050807568874 328.3301270189222,246.78847577293368 371.6313972081441,234.28847577293365 371.6313972081441,303.57050807568874" />
  <polygon fill="white" points="380.29165124598853,301.07050807568874 380.29165124598853,231.78847577293365 423.5929214352104,219.28847577293365 423.5929214352104,288.57050807568874" />
</svg>
