<?xml version="1.0" encoding="UTF-8"?>
<svg
  xmlns="http://www.w3.org/2000/svg"
  width="848"
  height="600"
  style="background-color:white"
>
  <polygon fill="lightblue" points="396.8305850066716,530.7800855071616 215.1185257234576,373.41282599391445 451.1694149933284,305.2708037627092 632.8814742765423,462.63806327595637" />
  <polygon fill="steelblue" points="215.1185257234576,373.41282599391445 215.1185257234576,137.3619367240436 451.1694149933284,69.21991449283834 451.1694149933284,305.2708037627092" />
  <polygon fill="lightskyblue" points="632.8814742765423,462.63806327595637 632.8814742765423,226.58717400608555 451.1694149933284,69.21991449283834 451.1694149933284,305.2708037627092" />
  <polygon fill="white" points="555.6538490811764,395.75697798282636 555.6538490811764,238.38971846957912 528.3970401886944,214.78462954259203 528.3970401886944,372.15188905583926" />
  <polygon fill="white" points="234.7894331626135,304.7874203360151 234.7894331626135,241.8405165307162 274.1312480409253,230.48351282551533 274.1312480409253,293.43041663081425" />
  <polygon fill="white" points="274.1312480409253,293.43041663081425 274.1312480409253,230.48351282551533 313.4730629192371,219.12650912031444 313.4730629192371,282.07341292561335" />
  <polygon fill="white" points="313.4730629192371,282.07341292561335 313.4730629192371,219.12650912031444 352.8148777975489,207.76950541511357 352.81487779754895,270.71640922041246" />
  <polygon fill="white" points="352.81487779754895,270.71640922041246 352.8148777975489,207.76950541511357 392.1566926758607,196.4125017099127 392.1566926758607,259.35940551521156" />
  <polygon fill="white" points="392.1566926758607,259.35940551521156 392.1566926758607,196.4125017099127 431.49850755417253,185.05549800471184 431.49850755417253,248.00240181001072" />
</svg>
