<?xml version="1.0" encoding="UTF-8"?>
<svg
  xmlns="http://www.w3.org/2000/svg"
  width="848"
  height="600"
  style="background-color:white"
>
  <polygon fill="lightblue" points="396.8305850066716,530.7800855071616 215.1185257234576,373.41282599391445 451.1694149933284,305.2708037627092 632.8814742765423,462.63806327595637" />
  <polygon fill="steelblue" points="215.1185257234576,373.41282599391445 215.1185257234576,137.3619367240436 451.1694149933284,69.21991449283834 451.1694149933284,305.2708037627092" />
  <polygon fill="lightskyblue" points="632.8814742765423,462.63806327595637 632.8814742765423,226.58717400608555 451.1694149933284,69.21991449283834 451.1694149933284,305.2708037627092" />
  <polygon fill="white" points="525.3685058673075,369.5291013972851 525.3685058673075,212.16184188403787 498.11169697482535,188.5567529570508 498.11169697482535,345.924012470298" />
  <polygon fill="white" points="585.9391922950455,421.9848545683675 585.9391922950455,264.6175950551203 558.6823834025633,241.01250612813323 558.6823834025633,398.37976564138046" />
  <polygon fill="white" points="313.4730629192371,282.07341292561335 313.4730629192371,219.12650912031444 352.8148777975489,207.76950541511357 352.81487779754895,270.71640922041246" />
  <polygon fill="hsl(324.0,50.0%,52.57800117743009%)" points="443.8903633907118,436.4356139449943 443.8903633907118,382.39569702814515 453.3323989615066,379.670016138897 453.3323989615066,433.7099330557461" />
  <polygon fill="hsl(324.0,50.0%,52.57800117743009%)" points="467.49545231769883,429.62141172187376 467.49545231769883,375.58149480502465 458.053416746904,378.30717569427287 458.053416746904,432.347092611122" />
  <polygon fill="hsl(324.0,50.0%,52.57800117743009%)" points="434.448327819917,385.65642659973844 434.4483278199169,332.15155836523434 442.71010894436245,329.76658758714217 442.71010894436245,383.2714558216462" />
  <polygon fill="hsl(324.0,50.0%,52.57800117743009%)" points="468.6757067640482,375.77583337621365 468.6757067640482,322.2709651417096 476.93748788849365,319.88599436361744 476.9374878884937,373.3908625981215" />
  <polygon fill="hsl(324.0,50.0%,52.57800117743009%)" points="442.71010894436245,338.02836871158763 442.71010894436245,329.76658758714217 468.6757067640482,322.2709651417096 468.6757067640482,330.5327462661551" />
  <polygon fill="hsl(324.0,50.0%,52.57800117743009%)" points="443.8903633907118,382.9307457104902 443.8903633907118,329.42587747598617 467.49545231769883,322.61167525286567 467.49545231769883,376.1165434873697" />
  <polygon fill="hsl(324.0,50.0%,52.57800117743009%)" points="449.79163562245856,325.0470835084808 449.79163562245856,300.969892802954 461.5941800859521,297.5627916913937 461.5941800859521,321.6399823969206" />
  <polygon fill="hsl(324.0,50.0%,52.57800117743009%)" points="452.15214451515726,327.040906697894 452.15214451515726,300.28847258064195 459.2336711932534,298.2442119137058 459.2336711932534,324.99664603095783" />
</svg>
