<?xml version="1.0" encoding="UTF-8"?>
<svg
  xmlns="http://www.w3.org/2000/svg"
  width="848"
  height="600"
  style="background-color:white"
>
  <polygon fill="lightblue" points="402.43562102911494,576.8471327399452 258.2106639983741,451.94465609160454 445.56437897088506,397.86029720507673 589.7893360016259,522.7627738534173" />
  <polygon fill="steelblue" points="258.2106639983741,451.94465609160454 258.2106639983741,77.23722614658263 445.56437897088506,23.15286726005479 445.56437897088506,397.86029720507673" />
  <polygon fill="lightskyblue" points="589.7893360016259,522.7627738534173 589.7893360016259,148.05534390839546 445.56437897088506,23.15286726005479 445.56437897088506,397.86029720507673" />
  <polygon fill="white" points="528.493729263561,469.6792212778726 528.493729263561,344.77674462953195 506.8599857089499,326.04137313228085 506.8599857089499,450.9438497806215" />
  <polygon fill="white" points="273.8234735794167,397.47663552505765 273.8234735794167,347.51564486572136 305.04909274150185,338.5015850513001 305.04909274150185,388.4625757106363" />
  <polygon fill="white" points="305.04909274150185,388.4625757106363 305.04909274150185,338.5015850513001 336.274711903587,329.48752523687875 336.274711903587,379.44851589621504" />
  <polygon fill="white" points="336.274711903587,379.44851589621504 336.274711903587,329.48752523687875 367.5003310656722,320.4734654224575 367.5003310656722,370.4344560817937" />
  <polygon fill="white" points="367.5003310656722,370.4344560817937 367.5003310656722,320.4734654224575 398.7259502277573,311.45940560803615 398.7259502277573,361.42039626737244" />
  <polygon fill="white" points="398.7259502277573,361.42039626737244 398.7259502277573,311.45940560803615 429.95156938984246,302.4453457936149 429.9515693898425,352.4063364529511" />
</svg>
