<?xml version="1.0" encoding="UTF-8"?>
<svg
  xmlns="http://www.w3.org/2000/svg"
  width="848"
  height="600"
  style="background-color:white"
>
  <polygon fill="lightblue" points="401.0844278974877,561.011806179116 247.8225414187771,428.2831190566258 446.91557210251233,370.80991162710933 600.1774585812229,503.5385987495995" />
  <polygon fill="steelblue" points="247.8225414187771,428.2831190566258 247.8225414187771,96.46140125040051 446.9155721025123,38.98819382088402 446.91557210251233,370.80991162710933" />
  <polygon fill="lightskyblue" points="600.1774585812229,503.5385987495995 600.1774585812229,171.71688094337418 446.9155721025123,38.98819382088402 446.91557210251233,370.80991162710933" />
  <polygon fill="white" points="535.0411568277709,447.12890672254116 535.0411568277709,314.40021960005106 512.0518738559643,294.49091653167756 512.0518738559643,427.21960365416766" />
  <polygon fill="white" points="264.4136273090884,370.4022102551701 264.4136273090884,317.310735406174 297.5957990897109,307.7318675012546 297.5957990897109,360.82334235025064" />
  <polygon fill="white" points="297.5957990897109,360.82334235025064 297.5957990897109,307.7318675012546 330.77797087033343,298.1529995963352 330.77797087033343,351.24447444533126" />
  <polygon fill="white" points="330.77797087033343,351.24447444533126 330.77797087033343,298.1529995963352 363.96014265095596,288.57413169141574 363.96014265095596,341.66560654041183" />
  <polygon fill="white" points="363.96014265095596,341.66560654041183 363.96014265095596,288.57413169141574 397.1423144315785,278.99526378649637 397.1423144315785,332.08673863549245" />
  <polygon fill="white" points="397.1423144315785,332.08673863549245 397.1423144315785,278.99526378649637 430.324486212201,269.41639588157693 430.324486212201,322.507870730573" />
  <polygon fill="antiquewhite" points="478.99843200078647,483.47059280439527 478.99843200078647,370.65120875027867 505.5441694252845,362.9881144263431 505.5441694252845,475.80749848045974" />
  <polygon fill="beige" points="478.99843200078647,483.47059280439527 478.99843200078647,370.65120875027867 463.6722433529154,357.3783400380296 463.6722433529154,470.19772409214625" />
  <polygon fill="bisque" points="478.99843200078647,370.65120875027867 463.6722433529154,357.3783400380296 490.21798077741346,349.71524571409407 505.5441694252845,362.9881144263431" />
</svg>
