<?xml version="1.0" encoding="UTF-8"?>
<svg
  xmlns="http://www.w3.org/2000/svg"
  width="848"
  height="600"
  style="background-color:white"
>
  <polygon fill="lightblue" points="402.43562102911494,576.8471327399452 258.2106639983741,451.94465609160454 445.56437897088506,397.86029720507673 589.7893360016259,522.7627738534173" />
  <polygon fill="steelblue" points="258.2106639983741,451.94465609160454 258.2106639983741,77.23722614658263 445.56437897088506,23.15286726005479 445.56437897088506,397.86029720507673" />
  <polygon fill="lightskyblue" points="589.7893360016259,522.7627738534173 589.7893360016259,148.05534390839546 445.56437897088506,23.15286726005479 445.56437897088506,397.86029720507673" />
  <polygon fill="white" points="528.493729263561,469.6792212778726 528.493729263561,344.77674462953195 506.8599857089499,326.04137313228085 506.8599857089499,450.9438497806215" />
  <polygon fill="white" points="269.36267084197596,398.76435835568924 269.36267084197596,348.803367696353 300.58829000406115,339.7893078819317 300.58829000406115,389.75029854126797" />
  <polygon fill="white" points="296.1274872666204,391.03802137189956 296.1274872666204,341.0770307125633 327.35310642870553,332.062970898142 327.35310642870553,382.0239615574783" />
  <polygon fill="white" points="322.89230369126483,383.3116843881099 322.8923036912648,333.3506937287736 354.11792285334997,324.3366339143523 354.11792285334997,374.29762457368855" />
  <polygon fill="white" points="349.6571201159092,375.58534740432015 349.6571201159092,325.6243567449839 380.88273927799435,316.61029693056264 380.88273927799435,366.5712875898989" />
  <polygon fill="white" points="376.42193654055365,367.85901042053047 376.42193654055365,317.89801976119423 407.6475557026388,308.8839599467729 407.6475557026388,358.8449506061092" />
  <polygon fill="white" points="403.186752965198,360.13267343674084 403.186752965198,310.17168277740456 434.4123721272832,301.1576229629832 434.4123721272832,351.1186136223195" />
  <polygon fill="antiquewhite" points="475.75550604470334,503.8780572311815 475.75550604470334,397.71095208009194 500.73600137437154,390.4997042285549 500.73600137437154,496.66680937964446" />
  <polygon fill="beige" points="475.75550604470334,503.8780572311815 475.75550604470334,397.71095208009194 461.3330103416293,385.22070441525784 461.3330103416293,491.3878095663474" />
  <polygon fill="bisque" points="475.75550604470334,397.71095208009194 461.3330103416293,385.22070441525784 486.31350567129743,378.00945656372085 500.73600137437154,390.4997042285549" />
  <polygon fill="antiquewhite" points="414.6655036864299,558.4180223405019 414.6655036864298,452.25091718941235 439.64599901609796,445.03966933787524 439.64599901609796,551.2067744889648" />
  <polygon fill="beige" points="414.6655036864299,558.4180223405019 414.6655036864298,452.25091718941235 400.24300798335577,439.76066952457825 400.24300798335577,545.9277746756678" />
  <polygon fill="bisque" points="414.6655036864298,452.25091718941235 400.24300798335577,439.76066952457825 425.22350331302385,432.5494216730412 439.64599901609796,445.03966933787524" />
  <polygon fill="antiquewhite" points="422.1415874012961,425.66192504096534 422.1415874012961,319.49481988987577 447.1220827309642,312.2835720383387 447.1220827309643,418.4506771894283" />
  <polygon fill="beige" points="422.1415874012961,425.66192504096534 422.1415874012961,319.49481988987577 407.71909169822203,307.00457222504167 407.71909169822203,413.17167737613124" />
  <polygon fill="bisque" points="422.1415874012961,319.49481988987577 407.71909169822203,307.00457222504167 432.6995870278901,299.7933243735046 447.1220827309642,312.2835720383387" />
  <polygon fill="antiquewhite" points="413.00685037832915,455.0033189843207 413.00685037832915,348.8362138332311 437.9873457079973,341.624965981694 437.9873457079973,447.7920711327836" />
  <polygon fill="beige" points="413.00685037832915,455.0033189843207 413.00685037832915,348.8362138332311 398.58435467525504,336.345966168397 398.58435467525504,442.5130713194866" />
  <polygon fill="bisque" points="413.00685037832915,348.8362138332311 398.58435467525504,336.345966168397 423.5648500049232,329.13471831685996 437.9873457079973,341.624965981694" />
  <polygon fill="antiquewhite" points="377.2260728777721,435.37591627467225 377.2260728777721,329.20881112358273 402.2065682074402,321.9975632720457 402.2065682074402,428.16466842313525" />
  <polygon fill="beige" points="377.2260728777721,435.37591627467225 377.2260728777721,329.20881112358273 362.803577174698,316.71856345874863 362.803577174698,422.8856686098382" />
  <polygon fill="bisque" points="377.2260728777721,329.20881112358273 362.803577174698,316.71856345874863 387.7840725043661,309.5073156072116 402.2065682074402,321.9975632720457" />
</svg>
