<?xml version="1.0" encoding="UTF-8"?>
<svg
  xmlns="http://www.w3.org/2000/svg"
  width="848"
  height="600"
  style="background-color:white"
>
  <polygon fill="lightblue" points="396.8305850066716,530.7800855071616 215.1185257234576,373.41282599391445 451.1694149933284,305.2708037627092 632.8814742765423,462.63806327595637" />
  <polygon fill="steelblue" points="215.1185257234576,373.41282599391445 215.1185257234576,137.3619367240436 451.1694149933284,69.21991449283834 451.1694149933284,305.2708037627092" />
  <polygon fill="lightskyblue" points="632.8814742765423,462.63806327595637 632.8814742765423,226.58717400608555 451.1694149933284,69.21991449283834 451.1694149933284,305.2708037627092" />
  <polygon fill="white" points="555.6538490811764,395.75697798282636 555.6538490811764,238.38971846957912 528.3970401886944,214.78462954259203 528.3970401886944,372.15188905583926" />
  <polygon fill="white" points="242.65779613827587,302.5160195949749 242.65779613827587,239.56911578967603 281.99961101658766,228.21211208447517 281.99961101658766,291.159015889774" />
  <polygon fill="white" points="289.86797399225003,288.88761514873386 289.86797399225003,225.940711343435 329.20978887056185,214.5837076382341 329.20978887056185,277.530611443533" />
  <polygon fill="white" points="337.07815184622416,275.2592107024928 337.07815184622416,212.31230689719393 376.419966724536,200.95530319199304 376.419966724536,263.90220699729196" />
  <polygon fill="white" points="384.28832970019835,261.63080625625173 384.28832970019835,198.68390245095287 423.63014457851017,187.326898745752 423.63014457851017,250.2738025510509" />
  <polygon fill="antiquewhite" points="489.2078515136831,438.8448112823018 489.2078515136831,305.08264069604166 520.6813034163326,295.997037731881 520.6813034163326,429.7592083181411" />
  <polygon fill="beige" points="489.2078515136831,438.8448112823018 489.2078515136831,305.08264069604166 471.0366455853617,289.34591474471694 471.0366455853617,423.10808533097713" />
  <polygon fill="bisque" points="489.2078515136831,305.08264069604166 471.0366455853617,289.34591474471694 502.5100974880112,280.26031178055626 520.6813034163326,295.997037731881" />
  <polygon fill="antiquewhite" points="412.2392716043669,507.5608613840665 412.2392716043669,373.79869079780633 443.7127235070163,364.71308783364566 443.7127235070163,498.4752584199058" />
  <polygon fill="beige" points="412.2392716043669,507.5608613840665 412.2392716043669,373.79869079780633 394.0680656760454,358.06196484648166 394.0680656760455,491.82413543274174" />
  <polygon fill="bisque" points="412.2392716043669,373.79869079780633 394.0680656760454,358.06196484648166 425.5415175786949,348.97636188232093 443.7127235070163,364.71308783364566" />
  <polygon fill="antiquewhite" points="421.65854684750315,340.2986598944885 421.6585468475031,206.53648930822834 453.1319987501526,197.4508863440676 453.1319987501526,331.21305693032775" />
  <polygon fill="beige" points="421.65854684750315,340.2986598944885 421.6585468475031,206.53648930822834 403.4873409191817,190.7997633569036 403.4873409191817,324.56193394316375" />
  <polygon fill="bisque" points="421.6585468475031,206.53648930822834 403.4873409191817,190.7997633569036 434.96079282183115,181.71416039274288 453.1319987501526,197.4508863440676" />
  <polygon fill="antiquewhite" points="410.149499387013,377.2664997569798 410.149499387013,243.50432917071961 441.62295128966247,234.41872620655892 441.62295128966247,368.18089679281906" />
  <polygon fill="beige" points="410.149499387013,377.2664997569798 410.149499387013,243.50432917071961 391.9782934586916,227.76760321939489 391.9782934586916,361.52977380565505" />
  <polygon fill="bisque" points="410.149499387013,243.50432917071961 391.9782934586916,227.76760321939489 423.45174536134107,218.6820002552342 441.62295128966247,234.41872620655892" />
</svg>
