<?xml version="1.0" encoding="UTF-8"?>
<svg
  xmlns="http://www.w3.org/2000/svg"
  width="848"
  height="600"
  style="background-color:white"
>
  <polygon fill="lightblue" points="402.43562102911494,576.8471327399452 258.2106639983741,451.94465609160454 445.56437897088506,397.86029720507673 589.7893360016259,522.7627738534173" />
  <polygon fill="steelblue" points="258.2106639983741,451.94465609160454 258.2106639983741,77.23722614658263 445.56437897088506,23.15286726005479 445.56437897088506,397.86029720507673" />
  <polygon fill="lightskyblue" points="589.7893360016259,522.7627738534173 589.7893360016259,148.05534390839546 445.56437897088506,23.15286726005479 445.56437897088506,397.86029720507673" />
  <polygon fill="white" points="504.45623642510424,448.86214183648246 504.45623642510424,323.9596651881418 482.8224928704931,305.22429369089076 482.82249287049314,430.12677033923137" />
  <polygon fill="white" points="552.5312221020179,490.4963007192627 552.5312221020179,365.59382407092204 530.8974785474068,346.85845257367095 530.8974785474068,471.7609292220116" />
  <polygon fill="white" points="289.4362831604593,392.969605617847 289.4362831604593,343.00861495851075 320.66190232254445,333.9945551440894 320.66190232254445,383.9555458034257" />
  <polygon fill="white" points="336.274711903587,379.44851589621504 336.274711903587,329.48752523687875 367.5003310656722,320.4734654224575 367.5003310656722,370.4344560817937" />
  <polygon fill="white" points="383.1131406467148,365.92742617458305 383.1131406467148,315.9664355152468 414.3387598087999,306.9523757008255 414.3387598087999,356.9133663601618" />
  <polygon fill="hsl(360.0,50.0%,68.65222276527638%)" points="404.4316009210015,458.6331626421772 404.4316009210015,415.74165216113704 411.9257495199019,413.5782778056759 411.92574951990196,456.4697882867161" />
  <polygon fill="hsl(360.0,50.0%,68.65222276527638%)" points="423.16697241825256,453.2247267535244 423.16697241825256,410.33321627248426 415.6728238193521,412.49659062794535 415.6728238193522,455.38810110898555" />
  <polygon fill="hsl(360.0,50.0%,68.65222276527638%)" points="396.9374523221011,418.3296949372025 396.9374523221011,375.8628528767666 403.49483234613894,373.9699003157382 403.49483234613894,416.436742376174" />
  <polygon fill="hsl(360.0,50.0%,68.65222276527638%)" points="424.10374099311514,410.48746289865596 424.10374099311514,368.0206208382201 430.661121017153,366.1276682771917 430.661121017153,408.59451033762747" />
  <polygon fill="hsl(360.0,50.0%,68.65222276527638%)" points="403.49483234613894,380.52728033977604 403.49483234613894,373.9699003157382 424.10374099311514,368.0206208382201 424.10374099311514,374.578000862258" />
  <polygon fill="hsl(360.0,50.0%,68.65222276527638%)" points="404.4316009210015,416.1663205817414 404.4316009210015,373.69947852130554 423.16697241825256,368.29104263265276 423.16697241825256,410.7578846930886" />
  <polygon fill="hsl(360.0,50.0%,68.65222276527638%)" points="409.11544379531426,370.22402744612054 409.11544379531426,351.1139485189244 418.4831295439398,348.40973057459803 418.4831295439398,367.51980950179416" />
  <polygon fill="hsl(360.0,50.0%,68.65222276527638%)" points="410.9889809450394,371.8065259602771 410.9889809450394,350.5731049300592 416.6095923942147,348.95057416346333 416.6095923942147,370.18399519368126" />
  <polygon fill="hsl(360.0,50.0%,60.889312742823975%)" points="412.11129893180487,482.27240312666186 412.11129893180487,439.38089264562166 419.6054475307053,437.21751829016057 419.6054475307053,480.1090287712007" />
  <polygon fill="hsl(360.0,50.0%,60.889312742823975%)" points="430.84667042905596,476.863967238009 430.84667042905596,433.9724567569689 423.3525218301555,436.13583111242997 423.3525218301555,479.02734159347017" />
  <polygon fill="hsl(360.0,50.0%,60.889312742823975%)" points="404.6171503329045,441.9689354216871 404.6171503329045,399.5020933612513 411.17453035694234,397.6091408002228 411.17453035694234,440.07598286065866" />
  <polygon fill="hsl(360.0,50.0%,60.889312742823975%)" points="431.78343900391855,434.1267033831406 431.78343900391855,391.6598613227047 438.3408190279564,389.7669087616763 438.3408190279564,432.23375082211214" />
  <polygon fill="hsl(360.0,50.0%,60.889312742823975%)" points="411.17453035694234,404.1665208242607 411.17453035694234,397.6091408002228 431.78343900391855,391.6598613227047 431.78343900391855,398.21724134674264" />
  <polygon fill="hsl(360.0,50.0%,60.889312742823975%)" points="412.11129893180487,439.805561066226 412.11129893180487,397.33871900579015 430.84667042905596,391.9302831171374 430.84667042905596,434.39712517757323" />
  <polygon fill="hsl(360.0,50.0%,60.889312742823975%)" points="416.79514180611767,393.86326793060516 416.79514180611767,374.75318900340903 426.1628275547432,372.0489710590827 426.1628275547432,391.1590499862788" />
  <polygon fill="hsl(360.0,50.0%,60.889312742823975%)" points="418.6686789558428,395.4457664447617 418.6686789558428,374.2123454145438 424.2892904050181,372.58981464794795 424.2892904050181,393.8232356781659" />
  <polygon fill="hsl(360.0,50.0%,52.57800117743009%)" points="439.78699188522285,501.965876037361 439.78699188522285,459.0743655563208 447.2811404841233,456.9109912008597 447.2811404841233,499.8025016818999" />
  <polygon fill="hsl(360.0,50.0%,52.57800117743009%)" points="458.52236338247394,496.5574401487082 458.52236338247394,453.665929667668 451.0282147835735,455.82930402312917 451.0282147835735,498.7208145041693" />
  <polygon fill="hsl(360.0,50.0%,52.57800117743009%)" points="432.2928432863224,461.66240833238624 432.2928432863224,419.19556627195044 438.85022331036026,417.302613710922 438.85022331036026,459.7694557713578" />
  <polygon fill="hsl(360.0,50.0%,52.57800117743009%)" points="459.45913195733647,453.8201762938397 459.45913195733647,411.3533342334039 466.0165119813743,409.4603816723755 466.0165119813743,451.9272237328113" />
  <polygon fill="hsl(360.0,50.0%,52.57800117743009%)" points="438.85022331036026,423.85999373495986 438.85022331036026,417.302613710922 459.45913195733647,411.3533342334039 459.45913195733647,417.91071425744184" />
  <polygon fill="hsl(360.0,50.0%,52.57800117743009%)" points="439.78699188522285,459.49903397692515 439.78699188522285,417.03219191648935 458.5223633824739,411.6237560278366 458.52236338247394,454.0905980882724" />
  <polygon fill="hsl(360.0,50.0%,52.57800117743009%)" points="444.4708347595356,413.55674084130436 444.4708347595356,394.4466619141083 453.83852050816114,391.7424439697819 453.83852050816114,410.852522896978" />
  <polygon fill="hsl(360.0,50.0%,52.57800117743009%)" points="446.3443719092607,415.13923935546086 446.3443719092607,393.905818325243 451.96498335843603,392.28328755864715 451.96498335843603,413.5167085888651" />
</svg>
