<?xml version="1.0" encoding="UTF-8"?>
<svg
  xmlns="http://www.w3.org/2000/svg"
  width="848"
  height="600"
  style="background-color:white"
>
  <polygon fill="lightblue" points="401.5721420742507,522.9807158514986 251.57214207425068,393.07690528383284 446.4278579257493,336.82690528383284 596.4278579257493,466.73071585149864" />
  <polygon fill="steelblue" points="251.57214207425068,393.07690528383284 251.57214207425068,133.26928414850136 446.4278579257493,77.01928414850133 446.4278579257493,336.82690528383284" />
  <polygon fill="lightskyblue" points="596.4278579257493,466.73071585149864 596.4278579257493,206.92309471616716 446.4278579257493,77.01928414850133 446.4278579257493,336.82690528383284" />
  <polygon fill="white" points="532.6778579257493,411.52159636024066 532.6778579257493,281.6177857925749 510.1778579257493,262.1322142074251 510.1778579257493,392.0360247750908" />
  <polygon fill="white" points="263.1706965892208,337.7671667710523 263.1706965892208,285.805642543986 295.6466492311373,276.430642543986 295.6466492311373,328.3921667710523" />
  <polygon fill="white" points="291.00722742514927,329.73145248533797 291.00722742514927,277.7699282582717 323.4831800670657,268.3949282582717 323.4831800670657,320.356452485338" />
  <polygon fill="white" points="318.8437582610776,321.6957381996237 318.8437582610776,269.7342139725574 351.3197109029941,260.3592139725574 351.3197109029941,312.3207381996237" />
  <polygon fill="white" points="346.680289097006,313.6600239139094 346.680289097006,261.6984996868431 379.1562417389224,252.32349968684312 379.1562417389224,304.2850239139094" />
  <polygon fill="white" points="374.51681993293437,305.62430962819514 374.51681993293437,253.66278540112882 406.9927725748508,244.28778540112882 406.9927725748508,296.24930962819514" />
  <polygon fill="white" points="402.35335076886275,297.58859534248086 402.3533507688627,245.62707111541454 434.8293034107792,236.25207111541454 434.8293034107792,288.21359534248086" />
</svg>
