<?xml version="1.0" encoding="UTF-8"?>
<svg
  xmlns="http://www.w3.org/2000/svg"
  width="848"
  height="600"
  style="background-color:white"
>
  <polygon fill="lightblue" points="399.3149482602103,545.4220338826979 234.218585815479,402.44438993315737 448.6850517397897,340.53325401638307 613.781414184521,483.51089796592356" />
  <polygon fill="steelblue" points="234.218585815479,402.44438993315737 234.218585815479,116.48910203407644 448.6850517397897,54.57796611730217 448.6850517397897,340.53325401638307" />
  <polygon fill="lightskyblue" points="613.781414184521,483.51089796592356 613.781414184521,197.55561006684266 448.6850517397897,54.57796611730217 448.6850517397897,340.53325401638307" />
  <polygon fill="white" points="543.6154601455102,422.74539928736885 543.6154601455102,279.7677553378284 518.8510057788005,258.32110874539734 518.8510057788005,401.2987526949378" />
  <polygon fill="white" points="269.96299680286415,334.9348097005455 269.96299680286415,277.74375212072925 305.70740779024925,267.42522946793355 305.70740779024925,324.6162870477497" />
  <polygon fill="white" points="323.5796132839418,319.4570257213519 323.5796132839418,262.2659681415357 359.3240242713269,251.94744548874 359.3240242713269,309.1385030685562" />
  <polygon fill="white" points="377.19622976501944,303.9792417421583 377.19622976501944,246.78818416234213 412.9406407524046,236.46966150954643 412.9406407524046,293.6607190893626" />
  <polygon fill="antiquewhite" points="483.245264899927,461.8932938818665 483.245264899927,340.3622965247571 511.8407936898351,332.10747840252054 511.8407936898351,453.63847575962996" />
  <polygon fill="beige" points="483.245264899927,461.8932938818665 483.245264899927,340.3622965247571 466.73562865545387,326.06453212980307 466.73562865545387,447.5955294869125" />
  <polygon fill="bisque" points="483.245264899927,340.3622965247571 466.73562865545387,326.06453212980307 495.33115744536195,317.8097140075665 511.8407936898351,332.10747840252054" />
  <polygon fill="antiquewhite" points="413.31466912279467,524.3259687308673 413.31466912279467,402.79497137375796 441.91019791270276,394.54015325152136 441.91019791270276,516.0711506086308" />
  <polygon fill="beige" points="413.31466912279467,524.3259687308673 413.31466912279467,402.79497137375796 396.8050328783215,388.4972069788039 396.8050328783215,510.0282043359133" />
  <polygon fill="bisque" points="413.31466912279467,402.79497137375796 396.8050328783215,388.4972069788039 425.4005616682296,380.24238885656735 441.91019791270276,394.54015325152136" />
</svg>
