<?xml version="1.0" encoding="UTF-8"?>
<svg
  xmlns="http://www.w3.org/2000/svg"
  width="848"
  height="600"
  style="background-color:white"
>
  <polygon fill="lightblue" points="405.6877306860929,535.0960006945566 283.213243546934,429.0299835165744 442.31226931390717,383.1020508393898 564.786756453066,489.168068017372" />
  <polygon fill="steelblue" points="283.213243546934,429.0299835165744 283.213243546934,110.83193198262805 442.3122693139071,64.90399930544345 442.31226931390717,383.1020508393898" />
  <polygon fill="lightskyblue" points="564.786756453066,489.168068017372 564.786756453066,170.97001648342558 442.3122693139071,64.90399930544345 442.31226931390717,383.1020508393898" />
  <polygon fill="white" points="512.7350994189235,444.0900107167296 512.7350994189235,338.0239935387474 494.3639263480497,322.1140909620501 494.3639263480497,428.18010814003225" />
  <polygon fill="white" points="296.4714956941817,382.7762489222829 296.4714956941817,340.34984205109 322.98799998867725,332.69518660489257 322.98799998867725,375.1215934760854" />
  <polygon fill="white" points="322.98799998867725,375.1215934760854 322.98799998867725,332.69518660489257 349.50450428317276,325.0405311586951 349.50450428317276,367.466938029888" />
  <polygon fill="white" points="349.50450428317276,367.466938029888 349.50450428317276,325.0405311586951 376.02100857766834,317.3858757124977 376.02100857766834,359.81228258369055" />
  <polygon fill="white" points="376.02100857766834,359.81228258369055 376.02100857766834,317.3858757124977 402.53751287216386,309.7312202663003 402.53751287216386,352.15762713749314" />
  <polygon fill="white" points="402.53751287216386,352.15762713749314 402.53751287216386,309.7312202663003 429.0540171666594,302.0765648201028 429.0540171666594,344.50297169129567" />
</svg>
