<?xml version="1.0" encoding="UTF-8"?>
<svg
  xmlns="http://www.w3.org/2000/svg"
  width="848"
  height="600"
  style="background-color:white"
>
  <polygon fill="lightblue" points="401.0844278974877,561.011806179116 247.8225414187771,428.2831190566258 446.91557210251233,370.80991162710933 600.1774585812229,503.5385987495995" />
  <polygon fill="steelblue" points="247.8225414187771,428.2831190566258 247.8225414187771,96.46140125040051 446.9155721025123,38.98819382088402 446.91557210251233,370.80991162710933" />
  <polygon fill="lightskyblue" points="600.1774585812229,503.5385987495995 600.1774585812229,171.71688094337418 446.9155721025123,38.98819382088402 446.91557210251233,370.80991162710933" />
  <polygon fill="white" points="535.0411568277709,447.12890672254116 535.0411568277709,314.40021960005106 512.0518738559643,294.49091653167756 512.0518738559643,427.21960365416766" />
  <polygon fill="antiquewhite" points="478.99843200078647,483.47059280439527 478.99843200078647,370.65120875027867 505.5441694252845,362.9881144263431 505.5441694252845,475.80749848045974" />
  <polygon fill="beige" points="478.99843200078647,483.47059280439527 478.99843200078647,370.65120875027867 463.6722433529154,357.3783400380296 463.6722433529154,470.19772409214625" />
  <polygon fill="bisque" points="478.99843200078647,370.65120875027867 463.6722433529154,357.3783400380296 490.21798077741346,349.71524571409407 505.5441694252845,362.9881144263431" />
  <polygon fill="antiquewhite" points="414.0806175033812,541.4279540907352 414.0806175033812,428.6085700366186 440.62635492787916,420.945475712683 440.6263549278792,533.7648597667996" />
  <polygon fill="beige" points="414.0806175033812,541.4279540907352 414.0806175033812,428.6085700366186 398.7544288555101,415.33570132436955 398.7544288555101,528.1550853784861" />
  <polygon fill="bisque" points="414.0806175033812,428.6085700366186 398.7544288555101,415.33570132436955 425.3001662800081,407.672607000434 440.62635492787916,420.945475712683" />
</svg>
