<?xml version="1.0" encoding="UTF-8"?>
<svg
  xmlns="http://www.w3.org/2000/svg"
  width="848"
  height="600"
  style="background-color:white"
>
  <polygon fill="lightblue" points="405.6877306860929,535.0960006945566 283.213243546934,429.0299835165744 442.31226931390717,383.1020508393898 564.786756453066,489.168068017372" />
  <polygon fill="steelblue" points="283.213243546934,429.0299835165744 283.213243546934,110.83193198262805 442.3122693139071,64.90399930544345 442.31226931390717,383.1020508393898" />
  <polygon fill="lightskyblue" points="564.786756453066,489.168068017372 564.786756453066,170.97001648342558 442.3122693139071,64.90399930544345 442.31226931390717,383.1020508393898" />
  <polygon fill="white" points="512.7350994189235,444.0900107167296 512.7350994189235,338.0239935387474 494.3639263480497,322.1140909620501 494.3639263480497,428.18010814003225" />
  <polygon fill="white" points="301.7747965530808,381.2453178330434 301.7747965530808,338.8189109618505 328.2913008475764,331.16425551565305 328.2913008475764,373.5906623868459" />
  <polygon fill="white" points="333.5946017064755,372.05973129760645 333.5946017064755,329.6333244264136 360.111106000971,321.9786689802161 360.111106000971,364.40507585140904" />
  <polygon fill="white" points="365.4144068598701,362.8741447621695 365.4144068598701,320.44773789097667 391.9309111543656,312.79308244477926 391.9309111543656,355.2194893159721" />
  <polygon fill="white" points="397.23421201326477,353.6885582267326 397.23421201326477,311.26215135553974 423.7507163077603,303.60749590934233 423.7507163077603,346.0339027805352" />
</svg>
