<?xml version="1.0" encoding="UTF-8"?>
<svg
  xmlns="http://www.w3.org/2000/svg"
  width="848"
  height="600"
  style="background-color:white"
>
  <polygon fill="lightblue" points="403.9399140353268,528.487390422762 269.7758353853394,412.29789003653946 444.0600859646732,361.9863605427942 578.2241646146606,478.1758609290167" />
  <polygon fill="steelblue" points="269.7758353853394,412.29789003653946 269.7758353853394,121.82413907098328 444.0600859646732,71.51260957723801 444.0600859646732,361.9863605427942" />
  <polygon fill="lightskyblue" points="578.2241646146606,478.1758609290167 578.2241646146606,187.70210996346052 444.0600859646732,71.51260957723801 444.0600859646732,361.9863605427942" />
  <polygon fill="white" points="521.2044311884159,428.79532326487214 521.2044311884159,312.6058228786497 501.0798193909178,295.1773978207163 501.07981939091786,411.3668982069388" />
  <polygon fill="white" points="284.29952293361725,361.6294624242384 284.29952293361725,315.1536622697494 313.3468980301729,306.7684073541252 313.3468980301729,353.2442075086142" />
  <polygon fill="white" points="313.3468980301729,353.2442075086142 313.3468980301729,306.7684073541252 342.39427312672854,298.383152438501 342.39427312672854,344.85895259298997" />
  <polygon fill="white" points="342.39427312672854,344.85895259298997 342.39427312672854,298.383152438501 371.4416482232841,289.99789752287677 371.4416482232841,336.47369767736575" />
  <polygon fill="white" points="371.4416482232841,336.47369767736575 371.4416482232841,289.99789752287677 400.48902331983976,281.61264260725255 400.48902331983976,328.08844276174153" />
  <polygon fill="white" points="400.48902331983976,328.08844276174153 400.48902331983976,281.61264260725255 429.53639841639534,273.22738769162834 429.53639841639534,319.7031878461173" />
</svg>
