<?xml version="1.0" encoding="UTF-8"?>
<svg
  xmlns="http://www.w3.org/2000/svg"
  width="848"
  height="600"
  style="background-color:white"
>
  <polygon fill="lightblue" points="399.3149482602103,545.4220338826979 234.218585815479,402.44438993315737 448.6850517397897,340.53325401638307 613.781414184521,483.51089796592356" />
  <polygon fill="steelblue" points="234.218585815479,402.44438993315737 234.218585815479,116.48910203407644 448.6850517397897,54.57796611730217 448.6850517397897,340.53325401638307" />
  <polygon fill="lightskyblue" points="613.781414184521,483.51089796592356 613.781414184521,197.55561006684266 448.6850517397897,54.57796611730217 448.6850517397897,340.53325401638307" />
  <polygon fill="white" points="516.099399738055,398.91579196244544 516.099399738055,255.93814801290497 491.33494537134527,234.49150142047392 491.33494537134527,377.46914537001436" />
  <polygon fill="white" points="571.1315205529654,446.57500661229227 571.1315205529654,303.59736266275183 546.3670661862557,282.15071607032075 546.3670661862557,425.1283600198612" />
  <polygon fill="white" points="323.5796132839418,319.4570257213519 323.5796132839418,262.2659681415357 359.3240242713269,251.94744548874 359.3240242713269,309.1385030685562" />
  <polygon fill="grey" points="433.577686057996,132.8108696461296 433.577686057996,97.0664586587445 469.3220970453811,86.74793600594879 469.3220970453811,122.49234699333388" />
  <polygon fill="lightgrey" points="433.577686057996,132.8108696461296 433.577686057996,97.0664586587445 412.9406407524046,79.19425316505192 412.9406407524046,114.93866415243701" />
  <polygon fill="darkgrey" points="433.577686057996,97.0664586587445 412.9406407524046,79.19425316505192 448.6850517397897,68.87573051225621 469.3220970453811,86.74793600594879" />
  <polygon fill="hsl(360.0,50.0%,70.60195128936388%)" points="360.1074096261881,414.64483034543787 360.1074096261881,365.54630741316566 368.6860682631605,363.0698619764947 368.6860682631605,412.1683849087669" />
  <polygon fill="hsl(360.0,50.0%,70.60195128936388%)" points="381.55405621861917,408.45371675376043 381.55405621861917,359.35519382148823 372.9753975816467,361.8316392581592 372.97539758164675,410.9301621904314" />
  <polygon fill="hsl(360.0,50.0%,70.60195128936388%)" points="351.52875098921567,368.5088768392651 351.52875098921567,319.89647789642135 359.03507729656656,317.7295881393342 359.03507729656656,366.341987082178" />
  <polygon fill="hsl(360.0,50.0%,70.60195128936388%)" points="382.6263885482407,359.5317621313328 382.6263885482407,310.91936318848906 390.13271485559153,308.75247343140194 390.13271485559153,357.3648723742457" />
  <polygon fill="hsl(360.0,50.0%,70.60195128936388%)" points="359.03507729656656,325.2359144466851 359.03507729656656,317.7295881393342 382.6263885482407,310.91936318848906 382.6263885482407,318.42568949583995" />
  <polygon fill="hsl(360.0,50.0%,70.60195128936388%)" points="360.1074096261881,366.0324314025941 360.1074096261881,317.42003245975036 381.5540562186191,311.2289188680729 381.55405621861917,359.8413178109167" />
  <polygon fill="hsl(360.0,50.0%,70.60195128936388%)" points="365.46907127429586,313.44163411468884 365.46907127429586,291.5660545904091 376.1923945705114,288.4704977945704 376.1923945705114,310.3460773188501" />
  <polygon fill="hsl(360.0,50.0%,70.60195128936388%)" points="367.613735933539,315.25314270266324 367.613735933539,290.9469432312414 374.0477299112683,289.08960915373814 374.0477299112683,313.39580862516004" />
  <polygon fill="hsl(360.0,50.0%,68.65222276527638%)" points="401.5997748703029,410.1008186430091 401.5997748703029,361.0022957107369 410.1784335072753,358.52585027406593 410.1784335072753,407.62437320633813" />
  <polygon fill="hsl(360.0,50.0%,68.65222276527638%)" points="423.046421462734,403.9097050513317 423.046421462734,354.8111821190595 414.46776282576155,357.28762755573047 414.46776282576155,406.38615048800267" />
  <polygon fill="hsl(360.0,50.0%,68.65222276527638%)" points="393.0211162333305,363.9648651368363 393.0211162333305,315.35246619399254 400.52744254068136,313.1855764369055 400.52744254068136,361.79797537974923" />
  <polygon fill="hsl(360.0,50.0%,68.65222276527638%)" points="424.1187537923555,354.98775042890406 424.1187537923555,306.3753514860603 431.6250800997064,304.2084617289732 431.6250800997064,352.82086067181694" />
  <polygon fill="hsl(360.0,50.0%,68.65222276527638%)" points="400.52744254068136,320.6919027442563 400.52744254068136,313.1855764369055 424.1187537923555,306.3753514860603 424.1187537923555,313.88167779341114" />
  <polygon fill="hsl(360.0,50.0%,68.65222276527638%)" points="401.5997748703029,361.4884197001653 401.5997748703029,312.8760207573216 423.046421462734,306.6849071656442 423.046421462734,355.29730610848793" />
  <polygon fill="hsl(360.0,50.0%,68.65222276527638%)" points="406.96143651841066,308.89762241226003 406.96143651841066,287.0220428879804 417.6847598146262,283.92648609214166 417.6847598146262,305.8020656164213" />
  <polygon fill="hsl(360.0,50.0%,68.65222276527638%)" points="409.1061011776538,310.7091310002345 409.1061011776538,286.40293152881264 415.5400951553831,284.5455974513094 415.5400951553831,308.85179692273124" />
  <polygon fill="hsl(360.0,50.0%,60.889312742823975%)" points="410.39083456177804,437.160993908742 410.39083456177804,388.0624709764698 418.96949319875046,385.5860255397988 418.96949319875046,434.684548472071" />
  <polygon fill="hsl(360.0,50.0%,60.889312742823975%)" points="431.8374811542091,430.96988031706456 431.8374811542091,381.87135738479236 423.2588225172367,384.34780282146335 423.2588225172367,433.44632575373555" />
  <polygon fill="hsl(360.0,50.0%,60.889312742823975%)" points="401.8121759248056,391.0250404025692 401.8121759248056,342.4126414597254 409.3185022321565,340.24575170263836 409.3185022321565,388.85815064548206" />
  <polygon fill="hsl(360.0,50.0%,60.889312742823975%)" points="432.90981348383065,382.04792569463694 432.90981348383065,333.4355267517932 440.41613979118154,331.26863699470607 440.41613979118154,379.8810359375498" />
  <polygon fill="hsl(360.0,50.0%,60.889312742823975%)" points="409.3185022321565,347.7520780099892 409.3185022321565,340.24575170263836 432.90981348383065,333.4355267517932 432.90981348383065,340.941853059144" />
  <polygon fill="hsl(360.0,50.0%,60.889312742823975%)" points="410.39083456177804,388.54859496589825 410.39083456177804,339.9361960230545 431.8374811542091,333.74508243137706 431.8374811542091,382.3574813742208" />
  <polygon fill="hsl(360.0,50.0%,60.889312742823975%)" points="415.7524962098858,335.9577976779929 415.7524962098858,314.08221815371326 426.47581950610135,310.98666135787454 426.47581950610135,332.8622408821542" />
  <polygon fill="hsl(360.0,50.0%,60.889312742823975%)" points="417.8971608691289,337.7693062659674 417.8971608691289,313.4631067945455 424.3311548468582,311.60577271704227 424.3311548468582,335.9119721884641" />
  <polygon fill="hsl(360.0,50.0%,60.48993860879541%)" points="419.5538007154049,436.0385820273972 419.5538007154049,386.940059095125 428.13245935237734,384.46361365845405 428.13245935237734,433.56213659072625" />
  <polygon fill="hsl(360.0,50.0%,60.48993860879541%)" points="441.00044730783594,429.84746843571975 441.00044730783594,380.74894550344754 432.4217886708635,383.22539094011853 432.4217886708635,432.32391387239073" />
  <polygon fill="hsl(360.0,50.0%,60.48993860879541%)" points="410.9751420784325,389.9026285212244 410.9751420784325,341.2902295783806 418.48146838578333,339.12333982129354 418.48146838578333,387.7357387641373" />
  <polygon fill="hsl(360.0,50.0%,60.48993860879541%)" points="442.07277963745753,380.9255138132921 442.07277963745753,332.3131148704484 449.57910594480836,330.14622511336125 449.57910594480836,378.758624056205" />
  <polygon fill="hsl(360.0,50.0%,60.48993860879541%)" points="418.48146838578333,346.62966612864443 418.48146838578333,339.12333982129354 442.07277963745753,332.3131148704484 442.07277963745753,339.81944117779926" />
  <polygon fill="hsl(360.0,50.0%,60.48993860879541%)" points="419.5538007154049,387.42618308455343 419.5538007154049,338.8137841417097 441.00044730783594,332.62267055003224 441.00044730783594,381.235069492876" />
  <polygon fill="hsl(360.0,50.0%,60.48993860879541%)" points="424.9154623635127,334.8353857966481 424.91546236351263,312.95980627236844 435.63878565972817,309.8642494765297 435.63878565972817,331.7398290008094" />
  <polygon fill="hsl(360.0,50.0%,60.48993860879541%)" points="427.06012702275575,336.64689438462256 427.06012702275575,312.3406949132007 433.49412100048505,310.48336083569745 433.49412100048505,334.78956030711936" />
  <polygon fill="hsl(360.0,50.0%,52.57800117743009%)" points="442.07159445808844,459.7043928349576 442.07159445808844,410.6058699026854 450.65025309506086,408.1294244660144 450.65025309506086,457.2279473982866" />
  <polygon fill="hsl(360.0,50.0%,52.57800117743009%)" points="463.5182410505195,453.5132792432802 463.51824105051946,404.4147563110079 454.9395824135471,406.8912017476789 454.9395824135471,455.9897246799511" />
  <polygon fill="hsl(360.0,50.0%,52.57800117743009%)" points="433.492935821116,413.56843932878473 433.492935821116,364.95604038594104 440.9992621284669,362.7891506288539 440.9992621284669,411.4015495716977" />
  <polygon fill="hsl(360.0,50.0%,52.57800117743009%)" points="464.59057338014105,404.5913246208525 464.59057338014105,355.97892567800875 472.09689968749194,353.81203592092163 472.09689968749194,402.42443486376544" />
  <polygon fill="hsl(360.0,50.0%,52.57800117743009%)" points="440.9992621284669,370.2954769362048 440.9992621284669,362.7891506288539 464.59057338014105,355.97892567800875 464.59057338014105,363.48525198535964" />
  <polygon fill="hsl(360.0,50.0%,52.57800117743009%)" points="442.07159445808844,411.0919938921138 442.07159445808844,362.47959494927005 463.51824105051946,356.2884813575926 463.51824105051946,404.90088030043637" />
  <polygon fill="hsl(360.0,50.0%,52.57800117743009%)" points="447.4332561061962,358.50119660420853 447.4332561061962,336.6256170799288 458.15657940241175,333.5300602840901 458.15657940241175,355.4056398083698" />
  <polygon fill="hsl(360.0,50.0%,52.57800117743009%)" points="449.57792076543933,360.31270519218293 449.57792076543933,336.0065057207611 456.01191474316863,334.1491716432579 456.01191474316863,358.45537111467974" />
</svg>
