<?xml version="1.0" encoding="UTF-8"?>
<svg
  xmlns="http://www.w3.org/2000/svg"
  width="848"
  height="600"
  style="background-color:white"
>
  <polygon fill="lightblue" points="399.3149482602103,545.4220338826979 234.218585815479,402.44438993315737 448.6850517397897,340.53325401638307 613.781414184521,483.51089796592356" />
  <polygon fill="steelblue" points="234.218585815479,402.44438993315737 234.218585815479,116.48910203407644 448.6850517397897,54.57796611730217 448.6850517397897,340.53325401638307" />
  <polygon fill="lightskyblue" points="613.781414184521,483.51089796592356 613.781414184521,197.55561006684266 448.6850517397897,54.57796611730217 448.6850517397897,340.53325401638307" />
  <polygon fill="white" points="543.6154601455102,422.74539928736885 543.6154601455102,279.7677553378284 518.8510057788005,258.32110874539734 518.8510057788005,401.2987526949378" />
  <polygon fill="white" points="252.09079130917155,340.0940710269433 252.09079130917155,282.90301344712714 287.83520229655664,272.58449079433143 287.83520229655664,329.7755483741476" />
  <polygon fill="white" points="287.83520229655664,329.7755483741476 287.83520229655664,272.58449079433143 323.5796132839418,262.2659681415357 323.5796132839418,319.4570257213519" />
  <polygon fill="white" points="323.5796132839418,319.4570257213519 323.5796132839418,262.2659681415357 359.3240242713269,251.94744548874 359.3240242713269,309.1385030685562" />
  <polygon fill="white" points="359.3240242713269,309.1385030685562 359.3240242713269,251.94744548874 395.06843525871204,241.62892283594428 395.06843525871204,298.8199804157605" />
  <polygon fill="white" points="395.06843525871204,298.8199804157605 395.06843525871204,241.62892283594428 430.81284624609714,231.31040018314857 430.81284624609714,288.5014577629648" />
</svg>
