<?xml version="1.0" encoding="UTF-8"?>
<svg
  xmlns="http://www.w3.org/2000/svg"
  width="848"
  height="600"
  style="background-color:white"
>
  <polygon fill="lightblue" points="402.43562102911494,576.8471327399452 258.2106639983741,451.94465609160454 445.56437897088506,397.86029720507673 589.7893360016259,522.7627738534173" />
  <polygon fill="steelblue" points="258.2106639983741,451.94465609160454 258.2106639983741,77.23722614658263 445.56437897088506,23.15286726005479 445.56437897088506,397.86029720507673" />
  <polygon fill="lightskyblue" points="589.7893360016259,522.7627738534173 589.7893360016259,148.05534390839546 445.56437897088506,23.15286726005479 445.56437897088506,397.86029720507673" />
  <polygon fill="white" points="528.493729263561,469.6792212778726 528.493729263561,344.77674462953195 506.8599857089499,326.04137313228085 506.8599857089499,450.9438497806215" />
  <polygon fill="white" points="280.0685974118337,395.67382356217337 280.0685974118337,345.71283290283714 311.2942165739189,336.6987730884158 311.2942165739189,386.65976374775204" />
  <polygon fill="white" points="317.5393404063359,384.8569517848678 317.5393404063359,334.8959611255315 348.7649595684211,325.88190131111025 348.7649595684211,375.8428919704465" />
  <polygon fill="white" points="355.0100834008381,374.04008000756227 355.0100834008381,324.079089348226 386.2357025629233,315.0650295338047 386.2357025629233,365.02602019314094" />
  <polygon fill="white" points="392.4808263953403,363.22320823025666 392.4808263953403,313.2622175709204 423.70644555742547,304.2481577564991 423.70644555742547,354.2091484158354" />
  <polygon fill="antiquewhite" points="475.75550604470334,503.8780572311815 475.75550604470334,397.71095208009194 500.73600137437154,390.4997042285549 500.73600137437154,496.66680937964446" />
  <polygon fill="beige" points="475.75550604470334,503.8780572311815 475.75550604470334,397.71095208009194 461.3330103416293,385.22070441525784 461.3330103416293,491.3878095663474" />
  <polygon fill="bisque" points="475.75550604470334,397.71095208009194 461.3330103416293,385.22070441525784 486.31350567129743,378.00945656372085 500.73600137437154,390.4997042285549" />
  <polygon fill="antiquewhite" points="414.6655036864299,558.4180223405019 414.6655036864298,452.25091718941235 439.64599901609796,445.03966933787524 439.64599901609796,551.2067744889648" />
  <polygon fill="beige" points="414.6655036864299,558.4180223405019 414.6655036864298,452.25091718941235 400.24300798335577,439.76066952457825 400.24300798335577,545.9277746756678" />
  <polygon fill="bisque" points="414.6655036864298,452.25091718941235 400.24300798335577,439.76066952457825 425.22350331302385,432.5494216730412 439.64599901609796,445.03966933787524" />
  <polygon fill="antiquewhite" points="422.1415874012961,425.66192504096534 422.1415874012961,319.49481988987577 447.1220827309642,312.2835720383387 447.1220827309643,418.4506771894283" />
  <polygon fill="beige" points="422.1415874012961,425.66192504096534 422.1415874012961,319.49481988987577 407.71909169822203,307.00457222504167 407.71909169822203,413.17167737613124" />
  <polygon fill="bisque" points="422.1415874012961,319.49481988987577 407.71909169822203,307.00457222504167 432.6995870278901,299.7933243735046 447.1220827309642,312.2835720383387" />
  <polygon fill="antiquewhite" points="413.00685037832915,455.0033189843207 413.00685037832915,348.8362138332311 437.9873457079973,341.624965981694 437.9873457079973,447.7920711327836" />
  <polygon fill="beige" points="413.00685037832915,455.0033189843207 413.00685037832915,348.8362138332311 398.58435467525504,336.345966168397 398.58435467525504,442.5130713194866" />
  <polygon fill="bisque" points="413.00685037832915,348.8362138332311 398.58435467525504,336.345966168397 423.5648500049232,329.13471831685996 437.9873457079973,341.624965981694" />
</svg>
