<?xml version="1.0" encoding="UTF-8"?>
<svg
  xmlns="http://www.w3.org/2000/svg"
  width="848"
  height="600"
  style="background-color:white"
>
  <polygon fill="lightblue" points="401.0844278974877,561.011806179116 247.8225414187771,428.2831190566258 446.91557210251233,370.80991162710933 600.1774585812229,503.5385987495995" />
  <polygon fill="steelblue" points="247.8225414187771,428.2831190566258 247.8225414187771,96.46140125040051 446.9155721025123,38.98819382088402 446.91557210251233,370.80991162710933" />
  <polygon fill="lightskyblue" points="600.1774585812229,503.5385987495995 600.1774585812229,171.71688094337418 446.9155721025123,38.98819382088402 446.91557210251233,370.80991162710933" />
  <polygon fill="white" points="281.00471319939965,365.61277630271036 281.0047131993996,312.52130145371433 314.18688498002217,302.9424335487949 314.18688498002217,356.033908397791" />
  <polygon fill="white" points="330.77797087033343,351.24447444533126 330.77797087033343,298.1529995963352 363.96014265095596,288.57413169141574 363.96014265095596,341.66560654041183" />
  <polygon fill="white" points="380.5512285412672,336.8761725879521 380.5512285412672,283.7846977389561 413.73340032188975,274.20582983403665 413.7334003218898,327.29730468303273" />
  <polygon fill="hsl(324.0,50.0%,70.60195128936388%)" points="364.68737319406387,439.6090046531857 364.68737319406387,394.02997349532257 372.65109442141323,391.73104519814194 372.6510944214133,437.3100763560051" />
  <polygon fill="hsl(324.0,50.0%,70.60195128936388%)" points="384.59667626243737,433.8616839102341 384.59667626243737,388.28265275237095 376.63295503508795,390.58158104955163 376.63295503508795,436.1606122074147" />
  <polygon fill="hsl(324.0,50.0%,70.60195128936388%)" points="356.72365196671444,396.7801793287197 356.72365196671444,351.65242570707306 363.69190804064516,349.64086344704 363.6919080406452,394.76861706868664" />
  <polygon fill="hsl(324.0,50.0%,70.60195128936388%)" points="385.592141415856,388.44656425143984 385.592141415856,343.3188106297932 392.56039748978674,341.3072483697601 392.56039748978674,386.43500199140675" />
  <polygon fill="hsl(324.0,50.0%,70.60195128936388%)" points="363.69190804064516,356.6091195209707 363.69190804064516,349.64086344704 385.592141415856,343.3188106297932 385.592141415856,350.2870667037239" />
  <polygon fill="hsl(324.0,50.0%,70.60195128936388%)" points="364.68737319406387,394.48125103153905 364.68737319406387,349.3534974098924 384.59667626243737,343.60617666694077 384.59667626243737,388.73393028858743" />
  <polygon fill="hsl(324.0,50.0%,70.60195128936388%)" points="369.6646989611572,345.6602795430722 369.6646989611572,325.3527904133312 379.619350495344,322.47913004185534 379.619350495344,342.7866191715964" />
  <polygon fill="hsl(324.0,50.0%,70.60195128936388%)" points="371.6556292679946,347.34193514985935 371.6556292679946,324.778058339036 377.62842018850665,323.0538621161505 377.62842018850665,345.61773892697386" />
  <polygon fill="hsl(324.0,50.0%,68.65222276527638%)" points="403.20547303351714,435.3907178576259 403.20547303351714,389.8116866997628 411.1691942608665,387.5127584025821 411.1691942608665,433.09178956044525" />
  <polygon fill="hsl(324.0,50.0%,68.65222276527638%)" points="423.11477610189064,429.64339711467426 423.11477610189064,384.0643659568111 415.1510548745412,386.3632942539918 415.1510548745412,431.9423254118549" />
  <polygon fill="hsl(324.0,50.0%,68.65222276527638%)" points="395.2417518061677,392.5618925331599 395.2417518061677,347.43413891151323 402.21000788009843,345.42257665148014 402.21000788009843,390.5503302731268" />
  <polygon fill="hsl(324.0,50.0%,68.65222276527638%)" points="424.1102412553093,384.22827745588 424.1102412553093,339.1005238342334 431.07849732924,337.08896157420025 431.07849732924,382.2167151958469" />
  <polygon fill="hsl(324.0,50.0%,68.65222276527638%)" points="402.21000788009843,352.3908327254109 402.21000788009843,345.42257665148014 424.1102412553093,339.1005238342334 424.1102412553093,346.0687799081641" />
  <polygon fill="hsl(324.0,50.0%,68.65222276527638%)" points="403.20547303351714,390.2629642359792 403.20547303351714,345.1352106143326 423.11477610189064,339.38788987138093 423.11477610189064,384.5156434930276" />
  <polygon fill="hsl(324.0,50.0%,68.65222276527638%)" points="408.1827988006105,341.44199274751236 408.1827988006105,321.1345036177714 418.1374503347973,318.26084324629556 418.1374503347973,338.5683323760365" />
  <polygon fill="hsl(324.0,50.0%,68.65222276527638%)" points="410.17372910744785,343.1236483542995 410.17372910744785,320.5597715434762 416.1465200279599,318.8355753205907 416.1465200279599,341.399452131414" />
  <polygon fill="hsl(324.0,50.0%,60.889312742823975%)" points="411.366369933432,460.511159327432 411.366369933432,414.93212816956884 419.3300911607814,412.6331998723882 419.3300911607814,458.21223103025136" />
  <polygon fill="hsl(324.0,50.0%,60.889312742823975%)" points="431.2756730018055,454.7638385844803 431.2756730018055,409.1848074266172 423.31195177445613,411.48373572379785 423.31195177445613,457.062766881661" />
  <polygon fill="hsl(324.0,50.0%,60.889312742823975%)" points="403.40264870608263,417.682334002966 403.4026487060826,372.55458038131934 410.37090478001335,370.54301812128625 410.37090478001335,415.6707717429329" />
  <polygon fill="hsl(324.0,50.0%,60.889312742823975%)" points="432.2711381552242,409.3487189256861 432.2711381552242,364.22096530403945 439.2393942291549,362.20940304400636 439.2393942291549,407.337156665653" />
  <polygon fill="hsl(324.0,50.0%,60.889312742823975%)" points="410.37090478001335,377.51127419521697 410.37090478001335,370.54301812128625 432.2711381552242,364.22096530403945 432.2711381552242,371.18922137797017" />
  <polygon fill="hsl(324.0,50.0%,60.889312742823975%)" points="411.366369933432,415.3834057057853 411.366369933432,370.25565208413866 431.2756730018055,364.50833134118704 431.2756730018055,409.6360849628337" />
  <polygon fill="hsl(324.0,50.0%,60.889312742823975%)" points="416.34369570052536,366.5624342173184 416.34369570052536,346.2549450875774 426.29834723471214,343.3812847161016 426.29834723471214,363.6887738458426" />
  <polygon fill="hsl(324.0,50.0%,60.889312742823975%)" points="418.3346260073627,368.2440898241056 418.3346260073627,345.6802130132823 424.3074169278748,343.9560167903968 424.3074169278748,366.51989360122013" />
  <polygon fill="hsl(324.0,50.0%,52.57800117743009%)" points="440.7761822084484,481.4385970729521 440.7761822084484,435.859565915089 448.73990343579777,433.56063761790836 448.73990343579777,479.1396687757714" />
  <polygon fill="hsl(324.0,50.0%,52.57800117743009%)" points="460.6854852768219,475.6912763300004 460.6854852768219,430.11224517213736 452.7217640494725,432.411173469318 452.7217640494725,477.99020462718113" />
  <polygon fill="hsl(324.0,50.0%,52.57800117743009%)" points="432.812460981099,438.6097717484861 432.812460981099,393.4820181268394 439.7807170550297,391.4704558668064 439.7807170550297,436.598209488453" />
  <polygon fill="hsl(324.0,50.0%,52.57800117743009%)" points="461.68095043024056,430.2761566712062 461.68095043024056,385.14840304955953 468.6492065041713,383.13684078952645 468.6492065041713,428.2645944111731" />
  <polygon fill="hsl(324.0,50.0%,52.57800117743009%)" points="439.7807170550297,398.4387119407371 439.7807170550297,391.4704558668064 461.68095043024056,385.14840304955953 461.68095043024056,392.1166591234903" />
  <polygon fill="hsl(324.0,50.0%,52.57800117743009%)" points="440.7761822084484,436.31084345130546 440.7761822084484,391.1830898296588 460.6854852768219,385.4357690867071 460.6854852768219,430.5635227083538" />
  <polygon fill="hsl(324.0,50.0%,52.57800117743009%)" points="445.75350797554177,387.48987196283855 445.75350797554177,367.18238283309756 455.7081595097285,364.30872246162176 455.7081595097285,384.6162115913627" />
  <polygon fill="hsl(324.0,50.0%,52.57800117743009%)" points="447.7444382823791,389.1715275696257 447.7444382823791,366.6076507588024 453.71722920289113,364.88345453591694 453.71722920289113,387.4473313467402" />
</svg>
