<?xml version="1.0" encoding="UTF-8"?>
<svg
  xmlns="http://www.w3.org/2000/svg"
  width="848"
  height="600"
  style="background-color:white"
>
  <polygon fill="lightblue" points="396.8305850066716,530.7800855071616 215.1185257234576,373.41282599391445 451.1694149933284,305.2708037627092 632.8814742765423,462.63806327595637" />
  <polygon fill="steelblue" points="215.1185257234576,373.41282599391445 215.1185257234576,137.3619367240436 451.1694149933284,69.21991449283834 451.1694149933284,305.2708037627092" />
  <polygon fill="lightskyblue" points="632.8814742765423,462.63806327595637 632.8814742765423,226.58717400608555 451.1694149933284,69.21991449283834 451.1694149933284,305.2708037627092" />
  <polygon fill="white" points="555.6538490811764,395.75697798282636 555.6538490811764,238.38971846957912 528.3970401886944,214.78462954259203 528.3970401886944,372.15188905583926" />
  <polygon fill="white" points="242.65779613827587,302.5160195949749 242.65779613827587,239.56911578967603 281.99961101658766,228.21211208447517 281.99961101658766,291.159015889774" />
  <polygon fill="white" points="289.86797399225003,288.88761514873386 289.86797399225003,225.940711343435 329.20978887056185,214.5837076382341 329.20978887056185,277.530611443533" />
  <polygon fill="white" points="337.07815184622416,275.2592107024928 337.07815184622416,212.31230689719393 376.419966724536,200.95530319199304 376.419966724536,263.90220699729196" />
  <polygon fill="white" points="384.28832970019835,261.63080625625173 384.28832970019835,198.68390245095287 423.63014457851017,187.326898745752 423.63014457851017,250.2738025510509" />
  <polygon fill="antiquewhite" points="489.2078515136831,438.8448112823018 489.2078515136831,305.08264069604166 520.6813034163326,295.997037731881 520.6813034163326,429.7592083181411" />
  <polygon fill="beige" points="489.2078515136831,438.8448112823018 489.2078515136831,305.08264069604166 471.0366455853617,289.34591474471694 471.0366455853617,423.10808533097713" />
  <polygon fill="bisque" points="489.2078515136831,305.08264069604166 471.0366455853617,289.34591474471694 502.5100974880112,280.26031178055626 520.6813034163326,295.997037731881" />
</svg>
