<?xml version="1.0" encoding="UTF-8"?>
<svg
  xmlns="http://www.w3.org/2000/svg"
  width="848"
  height="600"
  style="background-color:white"
>
  <polygon fill="lightblue" points="402.43562102911494,576.8471327399452 258.2106639983741,451.94465609160454 445.56437897088506,397.86029720507673 589.7893360016259,522.7627738534173" />
  <polygon fill="steelblue" points="258.2106639983741,451.94465609160454 258.2106639983741,77.23722614658263 445.56437897088506,23.15286726005479 445.56437897088506,397.86029720507673" />
  <polygon fill="lightskyblue" points="589.7893360016259,522.7627738534173 589.7893360016259,148.05534390839546 445.56437897088506,23.15286726005479 445.56437897088506,397.86029720507673" />
  <polygon fill="white" points="528.493729263561,469.6792212778726 528.493729263561,344.77674462953195 506.8599857089499,326.04137313228085 506.8599857089499,450.9438497806215" />
  <polygon fill="white" points="305.04909274150185,388.4625757106363 305.04909274150185,338.5015850513001 336.274711903587,329.48752523687875 336.274711903587,379.44851589621504" />
  <polygon fill="white" points="367.5003310656722,370.4344560817937 367.5003310656722,320.4734654224575 398.7259502277573,311.45940560803615 398.7259502277573,361.42039626737244" />
  <polygon fill="antiquewhite" points="475.75550604470334,503.8780572311815 475.75550604470334,397.71095208009194 500.73600137437154,390.4997042285549 500.73600137437154,496.66680937964446" />
  <polygon fill="beige" points="475.75550604470334,503.8780572311815 475.75550604470334,397.71095208009194 461.3330103416293,385.22070441525784 461.3330103416293,491.3878095663474" />
  <polygon fill="bisque" points="475.75550604470334,397.71095208009194 461.3330103416293,385.22070441525784 486.31350567129743,378.00945656372085 500.73600137437154,390.4997042285549" />
</svg>
