<?xml version="1.0" encoding="UTF-8"?>
<svg
  xmlns="http://www.w3.org/2000/svg"
  width="848"
  height="600"
  style="background-color:white"
>
  <polygon fill="lightblue" points="396.8305850066716,530.7800855071616 215.1185257234576,373.41282599391445 451.1694149933284,305.2708037627092 632.8814742765423,462.63806327595637" />
  <polygon fill="steelblue" points="215.1185257234576,373.41282599391445 215.1185257234576,137.3619367240436 451.1694149933284,69.21991449283834 451.1694149933284,305.2708037627092" />
  <polygon fill="lightskyblue" points="632.8814742765423,462.63806327595637 632.8814742765423,226.58717400608555 451.1694149933284,69.21991449283834 451.1694149933284,305.2708037627092" />
  <polygon fill="white" points="555.6538490811764,395.75697798282636 555.6538490811764,238.38971846957912 528.3970401886944,214.78462954259203 528.3970401886944,372.15188905583926" />
  <polygon fill="white" points="313.4730629192371,282.07341292561335 313.4730629192371,219.12650912031444 352.8148777975489,207.76950541511357 352.81487779754895,270.71640922041246" />
  <polygon fill="antiquewhite" points="489.2078515136831,438.8448112823018 489.2078515136831,305.08264069604166 520.6813034163326,295.997037731881 520.6813034163326,429.7592083181411" />
  <polygon fill="beige" points="489.2078515136831,438.8448112823018 489.2078515136831,305.08264069604166 471.0366455853617,289.34591474471694 471.0366455853617,423.10808533097713" />
  <polygon fill="bisque" points="489.2078515136831,305.08264069604166 471.0366455853617,289.34591474471694 502.5100974880112,280.26031178055626 520.6813034163326,295.997037731881" />
  <polygon fill="antiquewhite" points="412.2392716043669,507.5608613840665 412.2392716043669,373.79869079780633 443.7127235070163,364.71308783364566 443.7127235070163,498.4752584199058" />
  <polygon fill="beige" points="412.2392716043669,507.5608613840665 412.2392716043669,373.79869079780633 394.0680656760454,358.06196484648166 394.0680656760455,491.82413543274174" />
  <polygon fill="bisque" points="412.2392716043669,373.79869079780633 394.0680656760454,358.06196484648166 425.5415175786949,348.97636188232093 443.7127235070163,364.71308783364566" />
</svg>
