<?xml version="1.0" encoding="UTF-8"?>
<svg
  xmlns="http://www.w3.org/2000/svg"
  width="848"
  height="600"
  style="background-color:white"
>
  <polygon fill="lightblue" points="401.0844278974877,561.011806179116 247.8225414187771,428.2831190566258 446.91557210251233,370.80991162710933 600.1774585812229,503.5385987495995" />
  <polygon fill="steelblue" points="247.8225414187771,428.2831190566258 247.8225414187771,96.46140125040051 446.9155721025123,38.98819382088402 446.91557210251233,370.80991162710933" />
  <polygon fill="lightskyblue" points="600.1774585812229,503.5385987495995 600.1774585812229,171.71688094337418 446.9155721025123,38.98819382088402 446.91557210251233,370.80991162710933" />
  <polygon fill="white" points="535.0411568277709,447.12890672254116 535.0411568277709,314.40021960005106 512.0518738559643,294.49091653167756 512.0518738559643,427.21960365416766" />
  <polygon fill="white" points="281.00471319939965,365.61277630271036 281.0047131993996,312.52130145371433 314.18688498002217,302.9424335487949 314.18688498002217,356.033908397791" />
  <polygon fill="white" points="330.77797087033343,351.24447444533126 330.77797087033343,298.1529995963352 363.96014265095596,288.57413169141574 363.96014265095596,341.66560654041183" />
  <polygon fill="white" points="380.5512285412672,336.8761725879521 380.5512285412672,283.7846977389561 413.73340032188975,274.20582983403665 413.7334003218898,327.29730468303273" />
  <polygon fill="antiquewhite" points="478.99843200078647,483.47059280439527 478.99843200078647,370.65120875027867 505.5441694252845,362.9881144263431 505.5441694252845,475.80749848045974" />
  <polygon fill="beige" points="478.99843200078647,483.47059280439527 478.99843200078647,370.65120875027867 463.6722433529154,357.3783400380296 463.6722433529154,470.19772409214625" />
  <polygon fill="bisque" points="478.99843200078647,370.65120875027867 463.6722433529154,357.3783400380296 490.21798077741346,349.71524571409407 505.5441694252845,362.9881144263431" />
  <polygon fill="antiquewhite" points="414.0806175033812,541.4279540907352 414.0806175033812,428.6085700366186 440.62635492787916,420.945475712683 440.6263549278792,533.7648597667996" />
  <polygon fill="beige" points="414.0806175033812,541.4279540907352 414.0806175033812,428.6085700366186 398.7544288555101,415.33570132436955 398.7544288555101,528.1550853784861" />
  <polygon fill="bisque" points="414.0806175033812,428.6085700366186 398.7544288555101,415.33570132436955 425.3001662800081,407.672607000434 440.62635492787916,420.945475712683" />
  <polygon fill="antiquewhite" points="422.02514192691035,400.3535496841422 422.02514192691035,287.53416563002554 448.5708793514084,279.87107130609 448.57087935140845,392.69045536020667" />
  <polygon fill="beige" points="422.02514192691035,400.3535496841422 422.02514192691035,287.53416563002554 406.6989532790393,274.2612969177765 406.6989532790393,387.0806809718932" />
  <polygon fill="bisque" points="422.02514192691035,287.53416563002554 406.6989532790393,274.2612969177765 433.24469070353734,266.598202593841 448.5708793514084,279.87107130609" />
  <polygon fill="antiquewhite" points="412.3180353522249,431.5334333898115 412.3180353522249,318.7140493356948 438.8637727767229,311.0509550117593 438.8637727767229,423.8703390658759" />
  <polygon fill="beige" points="412.3180353522249,431.5334333898115 412.3180353522249,318.7140493356948 396.9918467043538,305.4411806234458 396.9918467043538,418.26056467756246" />
  <polygon fill="bisque" points="412.3180353522249,318.7140493356948 396.9918467043538,305.4411806234458 423.53758412885185,297.7780862995103 438.8637727767229,311.0509550117593" />
  <polygon fill="antiquewhite" points="374.29528552924154,410.6762057096056 374.29528552924154,297.856821655489 400.8410229537396,290.1937273315535 400.8410229537396,403.0131113856701" />
  <polygon fill="beige" points="374.29528552924154,410.6762057096056 374.29528552924154,297.856821655489 358.9690968813705,284.58395294324 358.9690968813705,397.40333699735663" />
  <polygon fill="bisque" points="374.29528552924154,297.856821655489 358.9690968813705,284.58395294324 385.5148343058685,276.92085861930445 400.8410229537396,290.1937273315535" />
</svg>
