<?xml version="1.0" encoding="UTF-8"?>
<svg
  xmlns="http://www.w3.org/2000/svg"
  width="848"
  height="600"
  style="background-color:white"
>
  <polygon fill="lightblue" points="394.0961894323342,683.9101615137755 194.0961894323342,510.7050807568877 453.9038105676658,435.7050807568877 653.9038105676658,608.9101615137755" />
  <polygon fill="steelblue" points="194.0961894323342,510.7050807568877 194.0961894323342,-8.910161513775506 453.9038105676658,-83.9101615137755 453.9038105676658,435.7050807568877" />
  <polygon fill="lightskyblue" points="653.9038105676658,608.9101615137755 653.9038105676658,89.29491924311228 453.9038105676658,-83.9101615137755 453.9038105676658,435.7050807568877" />
  <polygon fill="white" points="568.9038105676658,535.2980021920982 568.9038105676658,362.0929214352104 538.9038105676658,336.11215932167727 538.9038105676658,509.3172400785651" />
  <polygon fill="white" points="224.40707856478957,432.67304845413264 224.40707856478957,363.3910161513775 267.70834875401147,350.8910161513775 267.70834875401147,420.17304845413264" />
  <polygon fill="white" points="276.3686027918559,417.67304845413264 276.3686027918559,348.3910161513775 319.6698729810778,335.8910161513775 319.6698729810778,405.17304845413264" />
  <polygon fill="white" points="328.3301270189222,402.67304845413264 328.3301270189222,333.3910161513775 371.6313972081441,320.8910161513775 371.6313972081441,390.17304845413264" />
  <polygon fill="white" points="380.29165124598853,387.67304845413264 380.29165124598853,318.3910161513775 423.5929214352104,305.8910161513775 423.5929214352104,375.17304845413264" />
</svg>
