<?xml version="1.0" encoding="UTF-8"?>
<svg
  xmlns="http://www.w3.org/2000/svg"
  width="848"
  height="600"
  style="background-color:white"
>
  <polygon fill="lightblue" points="398.10254037844385,519.9759526419165 224.89745962155612,369.9759526419165 449.89745962155615,305.0240473580835 623.1025403784439,455.0240473580835" />
  <polygon fill="steelblue" points="224.89745962155612,369.9759526419165 224.89745962155612,144.97595264191648 449.89745962155615,80.02404735808355 449.89745962155615,305.0240473580835" />
  <polygon fill="lightskyblue" points="623.1025403784439,455.0240473580835 623.1025403784439,230.02404735808352 449.89745962155615,80.02404735808355 449.89745962155615,305.0240473580835" />
  <polygon fill="white" points="549.4903810567665,391.2740473580835 549.4903810567665,241.27404735808355 523.5096189432335,218.77404735808355 523.5096189432335,368.7740473580835" />
  <polygon fill="white" points="251.14745962155615,302.3982303588026 251.14745962155615,242.3982303588026 288.6474596215561,231.57291281149713 288.6474596215561,291.57291281149713" />
  <polygon fill="white" points="296.14745962155615,289.407849302036 296.14745962155615,229.40784930203603 333.64745962155615,218.58253175473055 333.64745962155615,278.58253175473055" />
  <polygon fill="white" points="341.1474596215561,276.41746824526945 341.1474596215561,216.41746824526945 378.6474596215561,205.59215069796397 378.6474596215561,265.592150697964" />
  <polygon fill="white" points="386.14745962155615,263.42708718850287 386.14745962155615,203.42708718850287 423.64745962155615,192.60176964119736 423.64745962155615,252.60176964119736" />
</svg>
