<?xml version="1.0" encoding="UTF-8"?>
<svg
  xmlns="http://www.w3.org/2000/svg"
  width="848"
  height="600"
  style="background-color:white"
>
  <polygon fill="lightblue" points="403.9399140353268,528.487390422762 269.7758353853394,412.29789003653946 444.0600859646732,361.9863605427942 578.2241646146606,478.1758609290167" />
  <polygon fill="steelblue" points="269.7758353853394,412.29789003653946 269.7758353853394,121.82413907098328 444.0600859646732,71.51260957723801 444.0600859646732,361.9863605427942" />
  <polygon fill="lightskyblue" points="578.2241646146606,478.1758609290167 578.2241646146606,187.70210996346052 444.0600859646732,71.51260957723801 444.0600859646732,361.9863605427942" />
  <polygon fill="white" points="521.2044311884159,428.79532326487214 521.2044311884159,312.6058228786497 501.0798193909178,295.1773978207163 501.07981939091786,411.3668982069388" />
  <polygon fill="white" points="280.1498979198236,362.8273559836133 280.1498979198236,316.3515558291243 309.1972730163792,307.96630091350005 309.1972730163792,354.4421010679891" />
  <polygon fill="white" points="305.04764800258556,355.639994627364 305.04764800258556,309.16419447287495 334.0950230991412,300.77893955725074 334.0950230991412,347.2547397117398" />
  <polygon fill="white" points="329.9453980853475,348.4526332711146 329.9453980853475,301.97683311662564 358.99277318190315,293.5915782010014 358.99277318190315,340.0673783554904" />
  <polygon fill="white" points="354.8431481681095,341.2652719148653 354.8431481681095,294.78947176037633 383.8905232646651,286.4042168447521 383.8905232646651,332.8800169992411" />
  <polygon fill="white" points="379.74089825087145,334.077910558616 379.74089825087145,287.60211040412696 408.7882733474271,279.21685548850274 408.7882733474271,325.6926556429918" />
  <polygon fill="white" points="404.6386483336334,326.8905492023667 404.6386483336334,280.41474904787765 433.68602343018904,272.02949413225343 433.68602343018904,318.50529428674247" />
</svg>
