<?xml version="1.0" encoding="UTF-8"?>
<svg
  xmlns="http://www.w3.org/2000/svg"
  width="848"
  height="600"
  style="background-color:white"
>
  <polygon fill="lightblue" points="399.3149482602103,545.4220338826979 234.218585815479,402.44438993315737 448.6850517397897,340.53325401638307 613.781414184521,483.51089796592356" />
  <polygon fill="steelblue" points="234.218585815479,402.44438993315737 234.218585815479,116.48910203407644 448.6850517397897,54.57796611730217 448.6850517397897,340.53325401638307" />
  <polygon fill="lightskyblue" points="613.781414184521,483.51089796592356 613.781414184521,197.55561006684266 448.6850517397897,54.57796611730217 448.6850517397897,340.53325401638307" />
  <polygon fill="white" points="543.6154601455102,422.74539928736885 543.6154601455102,279.7677553378284 518.8510057788005,258.32110874539734 518.8510057788005,401.2987526949378" />
  <polygon fill="white" points="259.2396735066486,338.03036649638415 259.2396735066486,280.839308916568 294.9840844940337,270.52078626377227 294.9840844940337,327.71184384358844" />
  <polygon fill="white" points="302.1329666915107,325.64813931302933 302.1329666915107,268.45708173321316 337.87737767889587,258.1385590804174 337.87737767889587,315.3296166602336" />
  <polygon fill="white" points="345.0262598763728,313.26591212967446 345.0262598763728,256.0748545498583 380.77067086375797,245.75633189706258 380.77067086375797,302.94738947687875" />
  <polygon fill="white" points="387.919553061235,300.8836849463196 387.919553061235,243.69262736650342 423.66396404862013,233.3741047137077 423.66396404862013,290.5651622935239" />
  <polygon fill="antiquewhite" points="483.245264899927,461.8932938818665 483.245264899927,340.3622965247571 511.8407936898351,332.10747840252054 511.8407936898351,453.63847575962996" />
  <polygon fill="beige" points="483.245264899927,461.8932938818665 483.245264899927,340.3622965247571 466.73562865545387,326.06453212980307 466.73562865545387,447.5955294869125" />
  <polygon fill="bisque" points="483.245264899927,340.3622965247571 466.73562865545387,326.06453212980307 495.33115744536195,317.8097140075665 511.8407936898351,332.10747840252054" />
</svg>
