<?xml version="1.0" encoding="UTF-8"?>
<svg
  xmlns="http://www.w3.org/2000/svg"
  width="848"
  height="600"
  style="background-color:white"
>
  <polygon fill="lightblue" points="399.3149482602103,545.4220338826979 234.218585815479,402.44438993315737 448.6850517397897,340.53325401638307 613.781414184521,483.51089796592356" />
  <polygon fill="steelblue" points="234.218585815479,402.44438993315737 234.218585815479,116.48910203407644 448.6850517397897,54.57796611730217 448.6850517397897,340.53325401638307" />
  <polygon fill="lightskyblue" points="613.781414184521,483.51089796592356 613.781414184521,197.55561006684266 448.6850517397897,54.57796611730217 448.6850517397897,340.53325401638307" />
  <polygon fill="white" points="543.6154601455102,422.74539928736885 543.6154601455102,279.7677553378284 518.8510057788005,258.32110874539734 518.8510057788005,401.2987526949378" />
  <polygon fill="grey" points="433.577686057996,132.8108696461296 433.577686057996,97.0664586587445 469.3220970453811,86.74793600594879 469.3220970453811,122.49234699333388" />
  <polygon fill="lightgrey" points="433.577686057996,132.8108696461296 433.577686057996,97.0664586587445 412.9406407524046,79.19425316505192 412.9406407524046,114.93866415243701" />
  <polygon fill="darkgrey" points="433.577686057996,97.0664586587445 412.9406407524046,79.19425316505192 448.6850517397897,68.87573051225621 469.3220970453811,86.74793600594879" />
  <polygon fill="hsl(288.0,50.0%,52.57800117743009%)" points="442.07159445808844,459.7043928349576 442.07159445808844,410.6058699026854 450.65025309506086,408.1294244660144 450.65025309506086,457.2279473982866" />
  <polygon fill="hsl(288.0,50.0%,52.57800117743009%)" points="463.5182410505195,453.5132792432802 463.51824105051946,404.4147563110079 454.9395824135471,406.8912017476789 454.9395824135471,455.9897246799511" />
  <polygon fill="hsl(288.0,50.0%,52.57800117743009%)" points="433.492935821116,413.56843932878473 433.492935821116,364.95604038594104 440.9992621284669,362.7891506288539 440.9992621284669,411.4015495716977" />
  <polygon fill="hsl(288.0,50.0%,52.57800117743009%)" points="464.59057338014105,404.5913246208525 464.59057338014105,355.97892567800875 472.09689968749194,353.81203592092163 472.09689968749194,402.42443486376544" />
  <polygon fill="hsl(288.0,50.0%,52.57800117743009%)" points="440.9992621284669,370.2954769362048 440.9992621284669,362.7891506288539 464.59057338014105,355.97892567800875 464.59057338014105,363.48525198535964" />
  <polygon fill="hsl(288.0,50.0%,52.57800117743009%)" points="442.07159445808844,411.0919938921138 442.07159445808844,362.47959494927005 463.51824105051946,356.2884813575926 463.51824105051946,404.90088030043637" />
  <polygon fill="hsl(288.0,50.0%,52.57800117743009%)" points="447.4332561061962,358.50119660420853 447.4332561061962,336.6256170799288 458.15657940241175,333.5300602840901 458.15657940241175,355.4056398083698" />
  <polygon fill="hsl(288.0,50.0%,52.57800117743009%)" points="449.57792076543933,360.31270519218293 449.57792076543933,336.0065057207611 456.01191474316863,334.1491716432579 456.01191474316863,358.45537111467974" />
</svg>
