<?xml version="1.0" encoding="UTF-8"?>
<svg
  xmlns="http://www.w3.org/2000/svg"
  width="848"
  height="600"
  style="background-color:white"
>
  <polygon fill="lightblue" points="401.0844278974877,561.011806179116 247.8225414187771,428.2831190566258 446.91557210251233,370.80991162710933 600.1774585812229,503.5385987495995" />
  <polygon fill="steelblue" points="247.8225414187771,428.2831190566258 247.8225414187771,96.46140125040051 446.9155721025123,38.98819382088402 446.91557210251233,370.80991162710933" />
  <polygon fill="lightskyblue" points="600.1774585812229,503.5385987495995 600.1774585812229,171.71688094337418 446.9155721025123,38.98819382088402 446.91557210251233,370.80991162710933" />
  <polygon fill="white" points="535.0411568277709,447.12890672254116 535.0411568277709,314.40021960005106 512.0518738559643,294.49091653167756 512.0518738559643,427.21960365416766" />
  <polygon fill="white" points="259.6733170547137,371.77061995587286 259.6733170547137,318.67914510687683 292.85548883533625,309.1002772019574 292.85548883533625,362.1917520509535" />
  <polygon fill="white" points="288.1151785809616,363.5601617516562 288.1151785809616,310.4686869026602 321.2973503615841,300.88981899774075 321.2973503615841,353.9812938467368" />
  <polygon fill="white" points="316.5570401072095,355.34970354743956 316.55704010720945,302.25822869844353 349.739211887832,292.6793607935241 349.739211887832,345.7708356425202" />
  <polygon fill="white" points="344.99890163345736,347.1392453432229 344.99890163345736,294.0477704942269 378.1810734140799,284.46890258930745 378.1810734140799,337.56037743830353" />
  <polygon fill="white" points="373.4407631597053,338.9287871390063 373.4407631597053,285.83731229001023 406.6229349403278,276.2584443850908 406.6229349403278,329.3499192340869" />
  <polygon fill="white" points="401.88262468595315,330.71832893478967 401.88262468595315,277.6268540857936 435.0647964665757,268.04798618087415 435.0647964665757,321.13946102987023" />
  <polygon fill="antiquewhite" points="478.99843200078647,483.47059280439527 478.99843200078647,370.65120875027867 505.5441694252845,362.9881144263431 505.5441694252845,475.80749848045974" />
  <polygon fill="beige" points="478.99843200078647,483.47059280439527 478.99843200078647,370.65120875027867 463.6722433529154,357.3783400380296 463.6722433529154,470.19772409214625" />
  <polygon fill="bisque" points="478.99843200078647,370.65120875027867 463.6722433529154,357.3783400380296 490.21798077741346,349.71524571409407 505.5441694252845,362.9881144263431" />
  <polygon fill="antiquewhite" points="414.0806175033812,541.4279540907352 414.0806175033812,428.6085700366186 440.62635492787916,420.945475712683 440.6263549278792,533.7648597667996" />
  <polygon fill="beige" points="414.0806175033812,541.4279540907352 414.0806175033812,428.6085700366186 398.7544288555101,415.33570132436955 398.7544288555101,528.1550853784861" />
  <polygon fill="bisque" points="414.0806175033812,428.6085700366186 398.7544288555101,415.33570132436955 425.3001662800081,407.672607000434 440.62635492787916,420.945475712683" />
  <polygon fill="antiquewhite" points="422.02514192691035,400.3535496841422 422.02514192691035,287.53416563002554 448.5708793514084,279.87107130609 448.57087935140845,392.69045536020667" />
  <polygon fill="beige" points="422.02514192691035,400.3535496841422 422.02514192691035,287.53416563002554 406.6989532790393,274.2612969177765 406.6989532790393,387.0806809718932" />
  <polygon fill="bisque" points="422.02514192691035,287.53416563002554 406.6989532790393,274.2612969177765 433.24469070353734,266.598202593841 448.5708793514084,279.87107130609" />
  <polygon fill="antiquewhite" points="412.3180353522249,431.5334333898115 412.3180353522249,318.7140493356948 438.8637727767229,311.0509550117593 438.8637727767229,423.8703390658759" />
  <polygon fill="beige" points="412.3180353522249,431.5334333898115 412.3180353522249,318.7140493356948 396.9918467043538,305.4411806234458 396.9918467043538,418.26056467756246" />
  <polygon fill="bisque" points="412.3180353522249,318.7140493356948 396.9918467043538,305.4411806234458 423.53758412885185,297.7780862995103 438.8637727767229,311.0509550117593" />
</svg>
