<?xml version="1.0" encoding="UTF-8"?>
<svg
  xmlns="http://www.w3.org/2000/svg"
  width="848"
  height="600"
  style="background-color:white"
>
  <polygon fill="lightblue" points="394.0961894323342,597.3076211353316 194.0961894323342,424.10254037844385 453.9038105676658,349.10254037844385 653.9038105676658,522.3076211353316" />
  <polygon fill="steelblue" points="194.0961894323342,424.10254037844385 194.0961894323342,77.69237886466846 453.9038105676658,2.692378864668399 453.9038105676658,349.10254037844385" />
  <polygon fill="lightskyblue" points="653.9038105676658,522.3076211353316 653.9038105676658,175.89745962155615 453.9038105676658,2.692378864668399 453.9038105676658,349.10254037844385" />
  <polygon fill="white" points="568.9038105676658,448.6954618136543 568.9038105676658,275.4903810567666 538.9038105676658,249.50961894323342 538.9038105676658,422.7146997001211" />
  <polygon fill="white" points="209.56092878562777,350.35622236140307 209.56092878562777,281.07419005864796 252.8621989748497,268.57419005864796 252.8621989748497,337.85622236140307" />
  <polygon fill="white" points="246.67630323353228,339.64193664711735 246.67630323353228,270.35990434436223 289.9775734227542,257.85990434436223 289.9775734227542,327.14193664711735" />
  <polygon fill="white" points="283.7916776814368,328.9276509328316 283.7916776814368,259.6456186300765 327.0929478706587,247.1456186300765 327.0929478706587,316.4276509328316" />
  <polygon fill="white" points="320.9070521293413,318.2133652185459 320.9070521293413,248.93133291579082 364.2083223185632,236.4313329157908 364.2083223185632,305.7133652185459" />
  <polygon fill="white" points="358.0224265772458,307.4990795042602 358.0224265772458,238.2170472015051 401.3236967664677,225.71704720150507 401.3236967664677,294.9990795042602" />
  <polygon fill="white" points="395.1378010251503,296.78479378997446 395.1378010251503,227.50276148721937 438.43907121437223,215.00276148721937 438.43907121437223,284.28479378997446" />
</svg>
