<?xml version="1.0" encoding="UTF-8"?>
<svg
  xmlns="http://www.w3.org/2000/svg"
  width="848"
  height="600"
  style="background-color:white"
>
  <polygon fill="lightblue" points="394.0961894323342,597.3076211353316 194.0961894323342,424.10254037844385 453.9038105676658,349.10254037844385 653.9038105676658,522.3076211353316" />
  <polygon fill="steelblue" points="194.0961894323342,424.10254037844385 194.0961894323342,77.69237886466846 453.9038105676658,2.692378864668399 453.9038105676658,349.10254037844385" />
  <polygon fill="lightskyblue" points="653.9038105676658,522.3076211353316 653.9038105676658,175.89745962155615 453.9038105676658,2.692378864668399 453.9038105676658,349.10254037844385" />
  <polygon fill="white" points="568.9038105676658,448.6954618136543 568.9038105676658,275.4903810567666 538.9038105676658,249.50961894323342 538.9038105676658,422.7146997001211" />
  <polygon fill="white" points="215.74682452694518,348.5705080756888 215.74682452694518,279.2884757729337 259.0480947161671,266.7884757729337 259.0480947161671,336.07050807568874" />
  <polygon fill="white" points="259.0480947161671,336.07050807568874 259.0480947161671,266.7884757729337 302.34936490538905,254.28847577293368 302.34936490538905,323.57050807568874" />
  <polygon fill="white" points="302.34936490538905,323.57050807568874 302.34936490538905,254.28847577293368 345.65063509461095,241.78847577293368 345.65063509461095,311.07050807568874" />
  <polygon fill="white" points="345.65063509461095,311.07050807568874 345.65063509461095,241.78847577293368 388.9519052838329,229.28847577293365 388.9519052838329,298.57050807568874" />
  <polygon fill="white" points="388.9519052838329,298.57050807568874 388.9519052838329,229.28847577293365 432.2531754730548,216.78847577293365 432.2531754730548,286.07050807568874" />
</svg>
