<?xml version="1.0" encoding="UTF-8"?>
<svg
  xmlns="http://www.w3.org/2000/svg"
  width="848"
  height="600"
  style="background-color:white"
>
  <polygon fill="lightblue" points="394.0961894323342,683.9101615137755 194.0961894323342,510.7050807568877 453.9038105676658,435.7050807568877 653.9038105676658,608.9101615137755" />
  <polygon fill="steelblue" points="194.0961894323342,510.7050807568877 194.0961894323342,-8.910161513775506 453.9038105676658,-83.9101615137755 453.9038105676658,435.7050807568877" />
  <polygon fill="lightskyblue" points="653.9038105676658,608.9101615137755 653.9038105676658,89.29491924311228 453.9038105676658,-83.9101615137755 453.9038105676658,435.7050807568877" />
  <polygon fill="white" points="568.9038105676658,535.2980021920982 568.9038105676658,362.0929214352104 538.9038105676658,336.11215932167727 538.9038105676658,509.3172400785651" />
  <polygon fill="white" points="209.56092878562777,436.9587627398469 209.56092878562777,367.6767304370918 252.8621989748497,355.1767304370918 252.8621989748497,424.4587627398469" />
  <polygon fill="white" points="246.67630323353228,426.2444770255612 246.67630323353228,356.9624447228061 289.9775734227542,344.4624447228061 289.9775734227542,413.7444770255612" />
  <polygon fill="white" points="283.7916776814368,415.5301913112755 283.7916776814368,346.24815900852036 327.0929478706587,333.74815900852036 327.0929478706587,403.0301913112755" />
  <polygon fill="white" points="320.9070521293413,404.81590559698975 320.9070521293413,335.5338732942347 364.2083223185632,323.03387329423464 364.2083223185632,392.31590559698975" />
  <polygon fill="white" points="358.0224265772458,394.1016198827041 358.0224265772458,324.8195875799489 401.3236967664677,312.3195875799489 401.3236967664677,381.6016198827041" />
  <polygon fill="white" points="395.1378010251503,383.38733416841836 395.1378010251503,314.10530186566325 438.43907121437223,301.60530186566325 438.43907121437223,370.8873341684183" />
</svg>
