<?xml version="1.0" encoding="UTF-8"?>
<svg
  xmlns="http://www.w3.org/2000/svg"
  width="848"
  height="600"
  style="background-color:white"
>
  <polygon fill="lightblue" points="401.0844278974877,561.011806179116 247.8225414187771,428.2831190566258 446.91557210251233,370.80991162710933 600.1774585812229,503.5385987495995" />
  <polygon fill="steelblue" points="247.8225414187771,428.2831190566258 247.8225414187771,96.46140125040051 446.9155721025123,38.98819382088402 446.91557210251233,370.80991162710933" />
  <polygon fill="lightskyblue" points="600.1774585812229,503.5385987495995 600.1774585812229,171.71688094337418 446.9155721025123,38.98819382088402 446.91557210251233,370.80991162710933" />
  <polygon fill="white" points="330.77797087033343,351.24447444533126 330.77797087033343,298.1529995963352 363.96014265095596,288.57413169141574 363.96014265095596,341.66560654041183" />
  <polygon fill="grey" points="432.89113613172856,111.61318810898624 432.89113613172856,78.43101632836371 466.07330791235114,68.8521484234443 466.07330791235114,102.03432020406683" />
  <polygon fill="lightgrey" points="432.89113613172856,111.61318810898624 432.89113613172856,78.43101632836371 413.73340032188975,61.83993043805242 413.73340032188975,95.02210221867495" />
  <polygon fill="darkgrey" points="432.89113613172856,78.43101632836371 413.73340032188975,61.83993043805242 446.9155721025123,52.261062533133014 466.07330791235114,68.8521484234443" />
  <polygon fill="hsl(324.0,50.0%,68.65222276527638%)" points="403.20547303351714,435.3907178576259 403.20547303351714,389.8116866997628 411.1691942608665,387.5127584025821 411.1691942608665,433.09178956044525" />
  <polygon fill="hsl(324.0,50.0%,68.65222276527638%)" points="423.11477610189064,429.64339711467426 423.11477610189064,384.0643659568111 415.1510548745412,386.3632942539918 415.1510548745412,431.9423254118549" />
  <polygon fill="hsl(324.0,50.0%,68.65222276527638%)" points="395.2417518061677,392.5618925331599 395.2417518061677,347.43413891151323 402.21000788009843,345.42257665148014 402.21000788009843,390.5503302731268" />
  <polygon fill="hsl(324.0,50.0%,68.65222276527638%)" points="424.1102412553093,384.22827745588 424.1102412553093,339.1005238342334 431.07849732924,337.08896157420025 431.07849732924,382.2167151958469" />
  <polygon fill="hsl(324.0,50.0%,68.65222276527638%)" points="402.21000788009843,352.3908327254109 402.21000788009843,345.42257665148014 424.1102412553093,339.1005238342334 424.1102412553093,346.0687799081641" />
  <polygon fill="hsl(324.0,50.0%,68.65222276527638%)" points="403.20547303351714,390.2629642359792 403.20547303351714,345.1352106143326 423.11477610189064,339.38788987138093 423.11477610189064,384.5156434930276" />
  <polygon fill="hsl(324.0,50.0%,68.65222276527638%)" points="408.1827988006105,341.44199274751236 408.1827988006105,321.1345036177714 418.1374503347973,318.26084324629556 418.1374503347973,338.5683323760365" />
  <polygon fill="hsl(324.0,50.0%,68.65222276527638%)" points="410.17372910744785,343.1236483542995 410.17372910744785,320.5597715434762 416.1465200279599,318.8355753205907 416.1465200279599,341.399452131414" />
  <polygon fill="hsl(324.0,50.0%,52.57800117743009%)" points="440.7761822084484,481.4385970729521 440.7761822084484,435.859565915089 448.73990343579777,433.56063761790836 448.73990343579777,479.1396687757714" />
  <polygon fill="hsl(324.0,50.0%,52.57800117743009%)" points="460.6854852768219,475.6912763300004 460.6854852768219,430.11224517213736 452.7217640494725,432.411173469318 452.7217640494725,477.99020462718113" />
  <polygon fill="hsl(324.0,50.0%,52.57800117743009%)" points="432.812460981099,438.6097717484861 432.812460981099,393.4820181268394 439.7807170550297,391.4704558668064 439.7807170550297,436.598209488453" />
  <polygon fill="hsl(324.0,50.0%,52.57800117743009%)" points="461.68095043024056,430.2761566712062 461.68095043024056,385.14840304955953 468.6492065041713,383.13684078952645 468.6492065041713,428.2645944111731" />
  <polygon fill="hsl(324.0,50.0%,52.57800117743009%)" points="439.7807170550297,398.4387119407371 439.7807170550297,391.4704558668064 461.68095043024056,385.14840304955953 461.68095043024056,392.1166591234903" />
  <polygon fill="hsl(324.0,50.0%,52.57800117743009%)" points="440.7761822084484,436.31084345130546 440.7761822084484,391.1830898296588 460.6854852768219,385.4357690867071 460.6854852768219,430.5635227083538" />
  <polygon fill="hsl(324.0,50.0%,52.57800117743009%)" points="445.75350797554177,387.48987196283855 445.75350797554177,367.18238283309756 455.7081595097285,364.30872246162176 455.7081595097285,384.6162115913627" />
  <polygon fill="hsl(324.0,50.0%,52.57800117743009%)" points="447.7444382823791,389.1715275696257 447.7444382823791,366.6076507588024 453.71722920289113,364.88345453591694 453.71722920289113,387.4473313467402" />
</svg>
