<?xml version="1.0" encoding="UTF-8"?>
<svg
  xmlns="http://www.w3.org/2000/svg"
  width="848"
  height="600"
  style="background-color:white"
>
  <polygon fill="lightblue" points="402.43562102911494,576.8471327399452 258.2106639983741,451.94465609160454 445.56437897088506,397.86029720507673 589.7893360016259,522.7627738534173" />
  <polygon fill="steelblue" points="258.2106639983741,451.94465609160454 258.2106639983741,77.23722614658263 445.56437897088506,23.15286726005479 445.56437897088506,397.86029720507673" />
  <polygon fill="lightskyblue" points="589.7893360016259,522.7627738534173 589.7893360016259,148.05534390839546 445.56437897088506,23.15286726005479 445.56437897088506,397.86029720507673" />
  <polygon fill="white" points="528.493729263561,469.6792212778726 528.493729263561,344.77674462953195 506.8599857089499,326.04137313228085 506.8599857089499,450.9438497806215" />
  <polygon fill="white" points="269.36267084197596,398.76435835568924 269.36267084197596,348.803367696353 300.58829000406115,339.7893078819317 300.58829000406115,389.75029854126797" />
  <polygon fill="white" points="296.1274872666204,391.03802137189956 296.1274872666204,341.0770307125633 327.35310642870553,332.062970898142 327.35310642870553,382.0239615574783" />
  <polygon fill="white" points="322.89230369126483,383.3116843881099 322.8923036912648,333.3506937287736 354.11792285334997,324.3366339143523 354.11792285334997,374.29762457368855" />
  <polygon fill="white" points="349.6571201159092,375.58534740432015 349.6571201159092,325.6243567449839 380.88273927799435,316.61029693056264 380.88273927799435,366.5712875898989" />
  <polygon fill="white" points="376.42193654055365,367.85901042053047 376.42193654055365,317.89801976119423 407.6475557026388,308.8839599467729 407.6475557026388,358.8449506061092" />
  <polygon fill="white" points="403.186752965198,360.13267343674084 403.186752965198,310.17168277740456 434.4123721272832,301.1576229629832 434.4123721272832,351.1186136223195" />
</svg>
