<?xml version="1.0" encoding="UTF-8"?>
<svg
  xmlns="http://www.w3.org/2000/svg"
  width="848"
  height="600"
  style="background-color:white"
>
  <polygon fill="lightblue" points="394.0961894323342,554.0063509461097 194.0961894323342,380.80127018922195 453.9038105676658,305.8012701892219 653.9038105676658,479.00635094610965" />
  <polygon fill="steelblue" points="194.0961894323342,380.80127018922195 194.0961894323342,120.99364905389035 453.9038105676658,45.99364905389032 453.9038105676658,305.8012701892219" />
  <polygon fill="lightskyblue" points="653.9038105676658,479.00635094610965 653.9038105676658,219.19872981077805 453.9038105676658,45.99364905389032 453.9038105676658,305.8012701892219" />
  <polygon fill="white" points="568.9038105676658,405.3941916244323 568.9038105676658,232.18911086754463 538.9038105676658,206.20834875401147 538.9038105676658,379.4134295108992" />
  <polygon fill="white" points="224.40707856478957,302.76923788646684 224.40707856478957,233.48720558371173 267.70834875401147,220.98720558371173 267.70834875401147,290.26923788646684" />
  <polygon fill="white" points="276.3686027918559,287.76923788646684 276.3686027918559,218.48720558371173 319.6698729810778,205.98720558371173 319.6698729810778,275.26923788646684" />
  <polygon fill="white" points="328.3301270189222,272.76923788646684 328.3301270189222,203.48720558371173 371.6313972081441,190.98720558371173 371.6313972081441,260.26923788646684" />
  <polygon fill="white" points="380.29165124598853,257.76923788646684 380.29165124598853,188.48720558371173 423.5929214352104,175.98720558371173 423.5929214352104,245.2692378864668" />
</svg>
