<?xml version="1.0" encoding="UTF-8"?>
<svg
  xmlns="http://www.w3.org/2000/svg"
  width="848"
  height="600"
  style="background-color:white"
>
  <polygon fill="lightblue" points="394.0961894323342,640.6088913245535 194.0961894323342,467.40381056766574 453.9038105676658,392.40381056766574 653.9038105676658,565.6088913245535" />
  <polygon fill="steelblue" points="194.0961894323342,467.40381056766574 194.0961894323342,34.3911086754465 453.9038105676658,-40.6088913245535 453.9038105676658,392.40381056766574" />
  <polygon fill="lightskyblue" points="653.9038105676658,565.6088913245535 653.9038105676658,132.59618943233426 453.9038105676658,-40.6088913245535 453.9038105676658,392.40381056766574" />
  <polygon fill="white" points="568.9038105676658,491.99673200287623 568.9038105676658,318.7916512459885 538.9038105676658,292.8108891324553 538.9038105676658,466.01596988934307" />
  <polygon fill="white" points="209.56092878562777,393.65749255062497 209.56092878562777,324.3754602478699 252.8621989748497,311.8754602478699 252.8621989748497,381.15749255062497" />
  <polygon fill="white" points="246.67630323353228,382.9432068363393 246.67630323353228,313.6611745335842 289.9775734227542,301.1611745335842 289.9775734227542,370.4432068363393" />
  <polygon fill="white" points="283.7916776814368,372.2289211220536 283.7916776814368,302.94688881929847 327.0929478706587,290.44688881929847 327.0929478706587,359.7289211220536" />
  <polygon fill="white" points="320.9070521293413,361.51463540776786 320.9070521293413,292.23260310501274 364.2083223185632,279.73260310501274 364.2083223185632,349.01463540776786" />
  <polygon fill="white" points="358.0224265772458,350.80034969348213 358.0224265772458,281.518317390727 401.3236967664677,269.018317390727 401.3236967664677,338.30034969348213" />
  <polygon fill="white" points="395.1378010251503,340.0860639791964 395.1378010251503,270.8040316764413 438.43907121437223,258.3040316764413 438.43907121437223,327.5860639791964" />
</svg>
