<?xml version="1.0" encoding="UTF-8"?>
<svg
  xmlns="http://www.w3.org/2000/svg"
  width="848"
  height="600"
  style="background-color:white"
>
  <polygon fill="lightblue" points="399.3149482602103,545.4220338826979 234.218585815479,402.44438993315737 448.6850517397897,340.53325401638307 613.781414184521,483.51089796592356" />
  <polygon fill="steelblue" points="234.218585815479,402.44438993315737 234.218585815479,116.48910203407644 448.6850517397897,54.57796611730217 448.6850517397897,340.53325401638307" />
  <polygon fill="lightskyblue" points="613.781414184521,483.51089796592356 613.781414184521,197.55561006684266 448.6850517397897,54.57796611730217 448.6850517397897,340.53325401638307" />
  <polygon fill="white" points="287.83520229655664,329.7755483741476 287.83520229655664,272.58449079433143 323.5796132839418,262.2659681415357 323.5796132839418,319.4570257213519" />
  <polygon fill="white" points="359.3240242713269,309.1385030685562 359.3240242713269,251.94744548874 395.06843525871204,241.62892283594428 395.06843525871204,298.8199804157605" />
  <polygon fill="hsl(324.0,50.0%,68.65222276527638%)" points="401.5997748703029,410.1008186430091 401.5997748703029,361.0022957107369 410.1784335072753,358.52585027406593 410.1784335072753,407.62437320633813" />
  <polygon fill="hsl(324.0,50.0%,68.65222276527638%)" points="423.046421462734,403.9097050513317 423.046421462734,354.8111821190595 414.46776282576155,357.28762755573047 414.46776282576155,406.38615048800267" />
  <polygon fill="hsl(324.0,50.0%,68.65222276527638%)" points="393.0211162333305,363.9648651368363 393.0211162333305,315.35246619399254 400.52744254068136,313.1855764369055 400.52744254068136,361.79797537974923" />
  <polygon fill="hsl(324.0,50.0%,68.65222276527638%)" points="424.1187537923555,354.98775042890406 424.1187537923555,306.3753514860603 431.6250800997064,304.2084617289732 431.6250800997064,352.82086067181694" />
  <polygon fill="hsl(324.0,50.0%,68.65222276527638%)" points="400.52744254068136,320.6919027442563 400.52744254068136,313.1855764369055 424.1187537923555,306.3753514860603 424.1187537923555,313.88167779341114" />
  <polygon fill="hsl(324.0,50.0%,68.65222276527638%)" points="401.5997748703029,361.4884197001653 401.5997748703029,312.8760207573216 423.046421462734,306.6849071656442 423.046421462734,355.29730610848793" />
  <polygon fill="hsl(324.0,50.0%,68.65222276527638%)" points="406.96143651841066,308.89762241226003 406.96143651841066,287.0220428879804 417.6847598146262,283.92648609214166 417.6847598146262,305.8020656164213" />
  <polygon fill="hsl(324.0,50.0%,68.65222276527638%)" points="409.1061011776538,310.7091310002345 409.1061011776538,286.40293152881264 415.5400951553831,284.5455974513094 415.5400951553831,308.85179692273124" />
  <polygon fill="hsl(324.0,50.0%,52.57800117743009%)" points="442.07159445808844,459.7043928349576 442.07159445808844,410.6058699026854 450.65025309506086,408.1294244660144 450.65025309506086,457.2279473982866" />
  <polygon fill="hsl(324.0,50.0%,52.57800117743009%)" points="463.5182410505195,453.5132792432802 463.51824105051946,404.4147563110079 454.9395824135471,406.8912017476789 454.9395824135471,455.9897246799511" />
  <polygon fill="hsl(324.0,50.0%,52.57800117743009%)" points="433.492935821116,413.56843932878473 433.492935821116,364.95604038594104 440.9992621284669,362.7891506288539 440.9992621284669,411.4015495716977" />
  <polygon fill="hsl(324.0,50.0%,52.57800117743009%)" points="464.59057338014105,404.5913246208525 464.59057338014105,355.97892567800875 472.09689968749194,353.81203592092163 472.09689968749194,402.42443486376544" />
  <polygon fill="hsl(324.0,50.0%,52.57800117743009%)" points="440.9992621284669,370.2954769362048 440.9992621284669,362.7891506288539 464.59057338014105,355.97892567800875 464.59057338014105,363.48525198535964" />
  <polygon fill="hsl(324.0,50.0%,52.57800117743009%)" points="442.07159445808844,411.0919938921138 442.07159445808844,362.47959494927005 463.51824105051946,356.2884813575926 463.51824105051946,404.90088030043637" />
  <polygon fill="hsl(324.0,50.0%,52.57800117743009%)" points="447.4332561061962,358.50119660420853 447.4332561061962,336.6256170799288 458.15657940241175,333.5300602840901 458.15657940241175,355.4056398083698" />
  <polygon fill="hsl(324.0,50.0%,52.57800117743009%)" points="449.57792076543933,360.31270519218293 449.57792076543933,336.0065057207611 456.01191474316863,334.1491716432579 456.01191474316863,358.45537111467974" />
</svg>
