<?xml version="1.0" encoding="UTF-8"?>
<svg
  xmlns="http://www.w3.org/2000/svg"
  width="848"
  height="600"
  style="background-color:white"
>
  <polygon fill="lightblue" points="396.8305850066716,530.7800855071616 215.1185257234576,373.41282599391445 451.1694149933284,305.2708037627092 632.8814742765423,462.63806327595637" />
  <polygon fill="steelblue" points="215.1185257234576,373.41282599391445 215.1185257234576,137.3619367240436 451.1694149933284,69.21991449283834 451.1694149933284,305.2708037627092" />
  <polygon fill="lightskyblue" points="632.8814742765423,462.63806327595637 632.8814742765423,226.58717400608555 451.1694149933284,69.21991449283834 451.1694149933284,305.2708037627092" />
  <polygon fill="white" points="242.65779613827587,302.5160195949749 242.65779613827587,239.56911578967603 281.99961101658766,228.21211208447517 281.99961101658766,291.159015889774" />
  <polygon fill="white" points="289.86797399225003,288.88761514873386 289.86797399225003,225.940711343435 329.20978887056185,214.5837076382341 329.20978887056185,277.530611443533" />
  <polygon fill="white" points="337.07815184622416,275.2592107024928 337.07815184622416,212.31230689719393 376.419966724536,200.95530319199304 376.419966724536,263.90220699729196" />
  <polygon fill="white" points="384.28832970019835,261.63080625625173 384.28832970019835,198.68390245095287 423.63014457851017,187.326898745752 423.63014457851017,250.2738025510509" />
  <polygon fill="grey" points="434.5416075254184,155.32636646683167 434.5416075254184,115.98455158851985 473.8834224037302,104.62754788331898 473.8834224037302,143.96936276163078" />
  <polygon fill="lightgrey" points="434.5416075254184,155.32636646683167 434.5416075254184,115.98455158851985 411.8276001150166,96.31364414936394 411.82760011501665,135.65545902767576" />
  <polygon fill="darkgrey" points="434.5416075254184,115.98455158851985 411.8276001150166,96.31364414936394 451.1694149933284,84.95664044416304 473.8834224037302,104.62754788331898" />
  <polygon fill="hsl(324.0,50.0%,52.57800117743009%)" points="443.8903633907118,436.4356139449943 443.8903633907118,382.39569702814515 453.3323989615066,379.670016138897 453.3323989615066,433.7099330557461" />
  <polygon fill="hsl(324.0,50.0%,52.57800117743009%)" points="467.49545231769883,429.62141172187376 467.49545231769883,375.58149480502465 458.053416746904,378.30717569427287 458.053416746904,432.347092611122" />
  <polygon fill="hsl(324.0,50.0%,52.57800117743009%)" points="434.448327819917,385.65642659973844 434.4483278199169,332.15155836523434 442.71010894436245,329.76658758714217 442.71010894436245,383.2714558216462" />
  <polygon fill="hsl(324.0,50.0%,52.57800117743009%)" points="468.6757067640482,375.77583337621365 468.6757067640482,322.2709651417096 476.93748788849365,319.88599436361744 476.9374878884937,373.3908625981215" />
  <polygon fill="hsl(324.0,50.0%,52.57800117743009%)" points="442.71010894436245,338.02836871158763 442.71010894436245,329.76658758714217 468.6757067640482,322.2709651417096 468.6757067640482,330.5327462661551" />
  <polygon fill="hsl(324.0,50.0%,52.57800117743009%)" points="443.8903633907118,382.9307457104902 443.8903633907118,329.42587747598617 467.49545231769883,322.61167525286567 467.49545231769883,376.1165434873697" />
  <polygon fill="hsl(324.0,50.0%,52.57800117743009%)" points="449.79163562245856,325.0470835084808 449.79163562245856,300.969892802954 461.5941800859521,297.5627916913937 461.5941800859521,321.6399823969206" />
  <polygon fill="hsl(324.0,50.0%,52.57800117743009%)" points="452.15214451515726,327.040906697894 452.15214451515726,300.28847258064195 459.2336711932534,298.2442119137058 459.2336711932534,324.99664603095783" />
</svg>
