<?xml version="1.0" encoding="UTF-8"?>
<svg
  xmlns="http://www.w3.org/2000/svg"
  width="848"
  height="600"
  style="background-color:white"
>
  <polygon fill="lightblue" points="398.10254037844385,519.9759526419165 224.89745962155612,369.9759526419165 449.89745962155615,305.0240473580835 623.1025403784439,455.0240473580835" />
  <polygon fill="steelblue" points="224.89745962155612,369.9759526419165 224.89745962155612,144.97595264191648 449.89745962155615,80.02404735808355 449.89745962155615,305.0240473580835" />
  <polygon fill="lightskyblue" points="623.1025403784439,455.0240473580835 623.1025403784439,230.02404735808352 449.89745962155615,80.02404735808355 449.89745962155615,305.0240473580835" />
  <polygon fill="white" points="549.4903810567665,391.2740473580835 549.4903810567665,241.27404735808355 523.5096189432335,218.77404735808355 523.5096189432335,368.7740473580835" />
  <polygon fill="white" points="238.29031676441332,306.10976780359306 238.29031676441332,246.10976780359306 275.7903167644133,235.28445025628758 275.7903167644133,295.2844502562876" />
  <polygon fill="white" points="270.43317390727043,296.83092419161693 270.43317390727043,236.83092419161693 307.93317390727043,226.00560664431146 307.93317390727043,286.00560664431146" />
  <polygon fill="white" points="302.57603105012754,287.5520805796408 302.57603105012754,227.5520805796408 340.07603105012754,216.72676303233533 340.07603105012754,276.7267630323353" />
  <polygon fill="white" points="334.7188881929847,278.2732369676647 334.7188881929847,218.27323696766467 372.2188881929847,207.4479194203592 372.2188881929847,267.4479194203592" />
  <polygon fill="white" points="366.8617453358419,268.99439335568854 366.8617453358418,208.99439335568854 404.3617453358419,198.16907580838304 404.3617453358419,258.16907580838307" />
  <polygon fill="white" points="399.004602478699,259.7155497437124 399.004602478699,199.71554974371242 436.504602478699,188.8902321964069 436.504602478699,248.8902321964069" />
</svg>
