<?xml version="1.0" encoding="UTF-8"?>
<svg
  xmlns="http://www.w3.org/2000/svg"
  width="848"
  height="600"
  style="background-color:white"
>
  <polygon fill="lightblue" points="396.8305850066716,530.7800855071616 215.1185257234576,373.41282599391445 451.1694149933284,305.2708037627092 632.8814742765423,462.63806327595637" />
  <polygon fill="steelblue" points="215.1185257234576,373.41282599391445 215.1185257234576,137.3619367240436 451.1694149933284,69.21991449283834 451.1694149933284,305.2708037627092" />
  <polygon fill="lightskyblue" points="632.8814742765423,462.63806327595637 632.8814742765423,226.58717400608555 451.1694149933284,69.21991449283834 451.1694149933284,305.2708037627092" />
  <polygon fill="white" points="555.6538490811764,395.75697798282636 555.6538490811764,238.38971846957912 528.3970401886944,214.78462954259203 528.3970401886944,372.15188905583926" />
  <polygon fill="white" points="229.16917389428326,306.40984943675807 229.16917389428326,243.4629456314592 268.51098877259506,232.1059419262583 268.51098877259506,295.0528457315572" />
  <polygon fill="white" points="262.8907295042648,296.6752748323002 262.8907295042648,233.7283710270013 302.23254438257663,222.37136732180042 302.23254438257663,285.3182711270993" />
  <polygon fill="white" points="296.61228511424633,286.9407002278423 296.61228511424633,223.99379642254343 335.95409999255816,212.63679271734253 335.95409999255816,275.5836965226414" />
  <polygon fill="white" points="330.3338407242279,277.2061256233844 330.3338407242279,214.2592218180855 369.6756556025397,202.9022181128846 369.6756556025397,265.8491219181835" />
  <polygon fill="white" points="364.05539633420943,267.4715510189265 364.05539633420943,204.5246472136276 403.39721121252126,193.16764350842675 403.39721121252126,256.1145473137256" />
  <polygon fill="white" points="397.77695194419096,257.7369764144686 397.77695194419096,194.79007260916973 437.1187668225028,183.43306890396883 437.1187668225028,246.37997270926772" />
  <polygon fill="antiquewhite" points="489.2078515136831,438.8448112823018 489.2078515136831,305.08264069604166 520.6813034163326,295.997037731881 520.6813034163326,429.7592083181411" />
  <polygon fill="beige" points="489.2078515136831,438.8448112823018 489.2078515136831,305.08264069604166 471.0366455853617,289.34591474471694 471.0366455853617,423.10808533097713" />
  <polygon fill="bisque" points="489.2078515136831,305.08264069604166 471.0366455853617,289.34591474471694 502.5100974880112,280.26031178055626 520.6813034163326,295.997037731881" />
</svg>
