<?xml version="1.0" encoding="UTF-8"?>
<svg
  xmlns="http://www.w3.org/2000/svg"
  width="848"
  height="600"
  style="background-color:white"
>
  <polygon fill="lightblue" points="402.43562102911494,576.8471327399452 258.2106639983741,451.94465609160454 445.56437897088506,397.86029720507673 589.7893360016259,522.7627738534173" />
  <polygon fill="steelblue" points="258.2106639983741,451.94465609160454 258.2106639983741,77.23722614658263 445.56437897088506,23.15286726005479 445.56437897088506,397.86029720507673" />
  <polygon fill="lightskyblue" points="589.7893360016259,522.7627738534173 589.7893360016259,148.05534390839546 445.56437897088506,23.15286726005479 445.56437897088506,397.86029720507673" />
  <polygon fill="white" points="504.45623642510424,448.86214183648246 504.45623642510424,323.9596651881418 482.8224928704931,305.22429369089076 482.82249287049314,430.12677033923137" />
  <polygon fill="white" points="552.5312221020179,490.4963007192627 552.5312221020179,365.59382407092204 530.8974785474068,346.85845257367095 530.8974785474068,471.7609292220116" />
  <polygon fill="white" points="305.04909274150185,388.4625757106363 305.04909274150185,338.5015850513001 336.274711903587,329.48752523687875 336.274711903587,379.44851589621504" />
  <polygon fill="white" points="367.5003310656722,370.4344560817937 367.5003310656722,320.4734654224575 398.7259502277573,311.45940560803615 398.7259502277573,361.42039626737244" />
  <polygon fill="grey" points="432.3668794376425,91.49560348243793 432.3668794376425,60.26998432035279 463.59249859972766,51.25592450593149 463.59249859972766,82.48154366801663" />
  <polygon fill="lightgrey" points="432.3668794376425,91.49560348243793 432.3668794376425,60.26998432035279 414.3387598087999,44.65717473931019 414.3387598087999,75.88279390139536" />
  <polygon fill="darkgrey" points="432.3668794376425,60.26998432035279 414.3387598087999,44.65717473931019 445.56437897088506,35.64311492488889 463.59249859972766,51.25592450593149" />
  <polygon fill="hsl(324.0,50.0%,52.57800117743009%)" points="439.78699188522285,501.965876037361 439.78699188522285,459.0743655563208 447.2811404841233,456.9109912008597 447.2811404841233,499.8025016818999" />
  <polygon fill="hsl(324.0,50.0%,52.57800117743009%)" points="458.52236338247394,496.5574401487082 458.52236338247394,453.665929667668 451.0282147835735,455.82930402312917 451.0282147835735,498.7208145041693" />
  <polygon fill="hsl(324.0,50.0%,52.57800117743009%)" points="432.2928432863224,461.66240833238624 432.2928432863224,419.19556627195044 438.85022331036026,417.302613710922 438.85022331036026,459.7694557713578" />
  <polygon fill="hsl(324.0,50.0%,52.57800117743009%)" points="459.45913195733647,453.8201762938397 459.45913195733647,411.3533342334039 466.0165119813743,409.4603816723755 466.0165119813743,451.9272237328113" />
  <polygon fill="hsl(324.0,50.0%,52.57800117743009%)" points="438.85022331036026,423.85999373495986 438.85022331036026,417.302613710922 459.45913195733647,411.3533342334039 459.45913195733647,417.91071425744184" />
  <polygon fill="hsl(324.0,50.0%,52.57800117743009%)" points="439.78699188522285,459.49903397692515 439.78699188522285,417.03219191648935 458.5223633824739,411.6237560278366 458.52236338247394,454.0905980882724" />
  <polygon fill="hsl(324.0,50.0%,52.57800117743009%)" points="444.4708347595356,413.55674084130436 444.4708347595356,394.4466619141083 453.83852050816114,391.7424439697819 453.83852050816114,410.852522896978" />
  <polygon fill="hsl(324.0,50.0%,52.57800117743009%)" points="446.3443719092607,415.13923935546086 446.3443719092607,393.905818325243 451.96498335843603,392.28328755864715 451.96498335843603,413.5167085888651" />
</svg>
