<?xml version="1.0" encoding="UTF-8"?>
<svg
  xmlns="http://www.w3.org/2000/svg"
  width="848"
  height="600"
  style="background-color:white"
>
  <polygon fill="lightblue" points="394.0961894323342,554.0063509461097 194.0961894323342,380.80127018922195 453.9038105676658,305.8012701892219 653.9038105676658,479.00635094610965" />
  <polygon fill="steelblue" points="194.0961894323342,380.80127018922195 194.0961894323342,120.99364905389035 453.9038105676658,45.99364905389032 453.9038105676658,305.8012701892219" />
  <polygon fill="lightskyblue" points="653.9038105676658,479.00635094610965 653.9038105676658,219.19872981077805 453.9038105676658,45.99364905389032 453.9038105676658,305.8012701892219" />
  <polygon fill="white" points="568.9038105676658,405.3941916244323 568.9038105676658,232.18911086754463 538.9038105676658,206.20834875401147 538.9038105676658,379.4134295108992" />
  <polygon fill="white" points="209.56092878562777,307.0549521721811 209.56092878562777,237.77291986942603 252.8621989748497,225.272919869426 252.8621989748497,294.5549521721811" />
  <polygon fill="white" points="246.67630323353228,296.3406664578954 246.67630323353228,227.0586341551403 289.9775734227542,214.5586341551403 289.9775734227542,283.8406664578954" />
  <polygon fill="white" points="283.7916776814368,285.6263807436097 283.7916776814368,216.34434844085462 327.0929478706587,203.8443484408546 327.0929478706587,273.1263807436097" />
  <polygon fill="white" points="320.9070521293413,274.91209502932395 320.9070521293413,205.6300627265689 364.2083223185632,193.1300627265689 364.2083223185632,262.41209502932395" />
  <polygon fill="white" points="358.0224265772458,264.1978093150383 358.0224265772458,194.91577701228317 401.3236967664677,182.41577701228317 401.3236967664677,251.69780931503823" />
  <polygon fill="white" points="395.1378010251503,253.48352360075253 395.1378010251503,184.20149129799745 438.43907121437223,171.70149129799742 438.43907121437223,240.98352360075253" />
</svg>
