<?xml version="1.0" encoding="UTF-8"?>
<svg
  xmlns="http://www.w3.org/2000/svg"
  width="848"
  height="600"
  style="background-color:white"
>
  <polygon fill="lightblue" points="399.3149482602103,545.4220338826979 234.218585815479,402.44438993315737 448.6850517397897,340.53325401638307 613.781414184521,483.51089796592356" />
  <polygon fill="steelblue" points="234.218585815479,402.44438993315737 234.218585815479,116.48910203407644 448.6850517397897,54.57796611730217 448.6850517397897,340.53325401638307" />
  <polygon fill="lightskyblue" points="613.781414184521,483.51089796592356 613.781414184521,197.55561006684266 448.6850517397897,54.57796611730217 448.6850517397897,340.53325401638307" />
  <polygon fill="white" points="543.6154601455102,422.74539928736885 543.6154601455102,279.7677553378284 518.8510057788005,258.32110874539734 518.8510057788005,401.2987526949378" />
  <polygon fill="white" points="246.98444688240227,341.5681456916284 246.98444688240227,284.3770881118122 282.72885786978736,274.0585654590165 282.72885786978736,331.24962303883274" />
  <polygon fill="white" points="277.6225134430181,332.7236977035178 277.6225134430181,275.53264012370164 313.3669244304032,265.2141174709059 313.3669244304032,322.4051750507221" />
  <polygon fill="white" points="308.2605800036339,323.8792497154072 308.2605800036339,266.688192135591 344.004990991019,256.3696694827953 344.004990991019,313.5607270626115" />
  <polygon fill="white" points="338.8986465642497,315.03480172729655 338.8986465642497,257.8437441474804 374.6430575516348,247.52522149468467 374.6430575516348,304.71627907450085" />
  <polygon fill="white" points="369.5367131248655,306.190353739186 369.5367131248655,248.9992961593698 405.2811241122506,238.68077350657407 405.2811241122506,295.8718310863903" />
  <polygon fill="white" points="400.1747796854813,297.34590575107535 400.1747796854813,240.15484817125918 435.9191906728664,229.83632551846347 435.9191906728664,287.02738309827964" />
  <polygon fill="antiquewhite" points="483.245264899927,461.8932938818665 483.245264899927,340.3622965247571 511.8407936898351,332.10747840252054 511.8407936898351,453.63847575962996" />
  <polygon fill="beige" points="483.245264899927,461.8932938818665 483.245264899927,340.3622965247571 466.73562865545387,326.06453212980307 466.73562865545387,447.5955294869125" />
  <polygon fill="bisque" points="483.245264899927,340.3622965247571 466.73562865545387,326.06453212980307 495.33115744536195,317.8097140075665 511.8407936898351,332.10747840252054" />
  <polygon fill="antiquewhite" points="413.31466912279467,524.3259687308673 413.31466912279467,402.79497137375796 441.91019791270276,394.54015325152136 441.91019791270276,516.0711506086308" />
  <polygon fill="beige" points="413.31466912279467,524.3259687308673 413.31466912279467,402.79497137375796 396.8050328783215,388.4972069788039 396.8050328783215,510.0282043359133" />
  <polygon fill="bisque" points="413.31466912279467,402.79497137375796 396.8050328783215,388.4972069788039 425.4005616682296,380.24238885656735 441.91019791270276,394.54015325152136" />
  <polygon fill="antiquewhite" points="421.8726486297231,372.3581733662919 421.8726486297231,250.82717600918255 450.4681774196312,242.57235788694598 450.4681774196312,364.10335524405536" />
  <polygon fill="beige" points="421.8726486297231,372.3581733662919 421.8726486297231,250.82717600918255 405.36301238524993,236.52941161422848 405.36301238524993,358.0604089713379" />
  <polygon fill="bisque" points="421.8726486297231,250.82717600918255 405.36301238524993,236.52941161422848 433.9585411751581,228.2745934919919 450.4681774196312,242.57235788694598" />
  <polygon fill="antiquewhite" points="411.4159850575536,405.9456849096188 411.4159850575536,284.41468755250946 440.0115138474617,276.15986943027286 440.0115138474617,397.6908667873823" />
  <polygon fill="beige" points="411.4159850575536,405.9456849096188 411.4159850575536,284.41468755250946 394.90634881308046,270.1169231575554 394.90634881308046,391.64792051466475" />
  <polygon fill="bisque" points="411.4159850575536,284.41468755250946 394.90634881308046,270.1169231575554 423.50187760298854,261.8621050353188 440.0115138474617,276.15986943027286" />
  <polygon fill="antiquewhite" points="370.45721944303415,383.4779174835545 370.4572194430341,261.9469201264451 399.0527482329422,253.69210200420855 399.05274823294224,375.2230993613179" />
  <polygon fill="beige" points="370.45721944303415,383.4779174835545 370.4572194430341,261.9469201264451 353.947583198561,247.64915573149105 353.947583198561,369.18015308860043" />
  <polygon fill="bisque" points="370.4572194430341,261.9469201264451 353.947583198561,247.64915573149105 382.54311198846904,239.39433760925448 399.0527482329422,253.69210200420855" />
</svg>
