<?xml version="1.0" encoding="UTF-8"?>
<svg
  xmlns="http://www.w3.org/2000/svg"
  width="848"
  height="600"
  style="background-color:white"
>
  <polygon fill="lightblue" points="402.43562102911494,576.8471327399452 258.2106639983741,451.94465609160454 445.56437897088506,397.86029720507673 589.7893360016259,522.7627738534173" />
  <polygon fill="steelblue" points="258.2106639983741,451.94465609160454 258.2106639983741,77.23722614658263 445.56437897088506,23.15286726005479 445.56437897088506,397.86029720507673" />
  <polygon fill="lightskyblue" points="589.7893360016259,522.7627738534173 589.7893360016259,148.05534390839546 445.56437897088506,23.15286726005479 445.56437897088506,397.86029720507673" />
  <polygon fill="white" points="528.493729263561,469.6792212778726 528.493729263561,344.77674462953195 506.8599857089499,326.04137313228085 506.8599857089499,450.9438497806215" />
  <polygon fill="white" points="273.8234735794167,397.47663552505765 273.8234735794167,347.51564486572136 305.04909274150185,338.5015850513001 305.04909274150185,388.4625757106363" />
  <polygon fill="white" points="305.04909274150185,388.4625757106363 305.04909274150185,338.5015850513001 336.274711903587,329.48752523687875 336.274711903587,379.44851589621504" />
  <polygon fill="white" points="336.274711903587,379.44851589621504 336.274711903587,329.48752523687875 367.5003310656722,320.4734654224575 367.5003310656722,370.4344560817937" />
  <polygon fill="white" points="367.5003310656722,370.4344560817937 367.5003310656722,320.4734654224575 398.7259502277573,311.45940560803615 398.7259502277573,361.42039626737244" />
  <polygon fill="white" points="398.7259502277573,361.42039626737244 398.7259502277573,311.45940560803615 429.95156938984246,302.4453457936149 429.9515693898425,352.4063364529511" />
  <polygon fill="hsl(360.0,50.0%,70.60195128936388%)" points="368.1846812080394,462.6027224969521 368.1846812080394,419.71121201591194 375.67882980693986,417.5478376604508 375.67882980693986,460.439348141491" />
  <polygon fill="hsl(360.0,50.0%,70.60195128936388%)" points="386.9200527052905,457.1942866082993 386.9200527052905,414.30277612725916 379.4259041063901,416.46615048272025 379.4259041063901,459.3576609637604" />
  <polygon fill="hsl(360.0,50.0%,70.60195128936388%)" points="360.690532609139,422.2992547919774 360.690532609139,379.8324127315415 367.24791263317684,377.93946017051303 367.24791263317684,420.4063022309489" />
  <polygon fill="hsl(360.0,50.0%,70.60195128936388%)" points="387.85682128015304,414.4570227534308 387.85682128015304,371.990180692995 394.4142013041909,370.0972281319665 394.4142013041909,412.56407019240237" />
  <polygon fill="hsl(360.0,50.0%,70.60195128936388%)" points="367.24791263317684,384.49684019455094 367.24791263317684,377.93946017051303 387.85682128015304,371.990180692995 387.85682128015304,378.54756071703287" />
  <polygon fill="hsl(360.0,50.0%,70.60195128936388%)" points="368.1846812080394,420.1358804365163 368.1846812080394,377.66903837608044 386.9200527052905,372.26060248742766 386.9200527052905,414.72744454786346" />
  <polygon fill="hsl(360.0,50.0%,70.60195128936388%)" points="372.86852408235217,374.19358730089544 372.86852408235217,355.0835083736993 382.2362098309777,352.37929042937293 382.2362098309777,371.48936935656906" />
  <polygon fill="hsl(360.0,50.0%,70.60195128936388%)" points="374.7420612320773,375.77608581505194 374.7420612320773,354.5426647848341 380.3626726812526,352.92013401823823 380.3626726812526,374.15355504845616" />
  <polygon fill="hsl(360.0,50.0%,68.65222276527638%)" points="404.4316009210015,458.6331626421772 404.4316009210015,415.74165216113704 411.9257495199019,413.5782778056759 411.92574951990196,456.4697882867161" />
  <polygon fill="hsl(360.0,50.0%,68.65222276527638%)" points="423.16697241825256,453.2247267535244 423.16697241825256,410.33321627248426 415.6728238193521,412.49659062794535 415.6728238193522,455.38810110898555" />
  <polygon fill="hsl(360.0,50.0%,68.65222276527638%)" points="396.9374523221011,418.3296949372025 396.9374523221011,375.8628528767666 403.49483234613894,373.9699003157382 403.49483234613894,416.436742376174" />
  <polygon fill="hsl(360.0,50.0%,68.65222276527638%)" points="424.10374099311514,410.48746289865596 424.10374099311514,368.0206208382201 430.661121017153,366.1276682771917 430.661121017153,408.59451033762747" />
  <polygon fill="hsl(360.0,50.0%,68.65222276527638%)" points="403.49483234613894,380.52728033977604 403.49483234613894,373.9699003157382 424.10374099311514,368.0206208382201 424.10374099311514,374.578000862258" />
  <polygon fill="hsl(360.0,50.0%,68.65222276527638%)" points="404.4316009210015,416.1663205817414 404.4316009210015,373.69947852130554 423.16697241825256,368.29104263265276 423.16697241825256,410.7578846930886" />
  <polygon fill="hsl(360.0,50.0%,68.65222276527638%)" points="409.11544379531426,370.22402744612054 409.11544379531426,351.1139485189244 418.4831295439398,348.40973057459803 418.4831295439398,367.51980950179416" />
  <polygon fill="hsl(360.0,50.0%,68.65222276527638%)" points="410.9889809450394,371.8065259602771 410.9889809450394,350.5731049300592 416.6095923942147,348.95057416346333 416.6095923942147,370.18399519368126" />
  <polygon fill="hsl(360.0,50.0%,60.889312742823975%)" points="412.11129893180487,482.27240312666186 412.11129893180487,439.38089264562166 419.6054475307053,437.21751829016057 419.6054475307053,480.1090287712007" />
  <polygon fill="hsl(360.0,50.0%,60.889312742823975%)" points="430.84667042905596,476.863967238009 430.84667042905596,433.9724567569689 423.3525218301555,436.13583111242997 423.3525218301555,479.02734159347017" />
  <polygon fill="hsl(360.0,50.0%,60.889312742823975%)" points="404.6171503329045,441.9689354216871 404.6171503329045,399.5020933612513 411.17453035694234,397.6091408002228 411.17453035694234,440.07598286065866" />
  <polygon fill="hsl(360.0,50.0%,60.889312742823975%)" points="431.78343900391855,434.1267033831406 431.78343900391855,391.6598613227047 438.3408190279564,389.7669087616763 438.3408190279564,432.23375082211214" />
  <polygon fill="hsl(360.0,50.0%,60.889312742823975%)" points="411.17453035694234,404.1665208242607 411.17453035694234,397.6091408002228 431.78343900391855,391.6598613227047 431.78343900391855,398.21724134674264" />
  <polygon fill="hsl(360.0,50.0%,60.889312742823975%)" points="412.11129893180487,439.805561066226 412.11129893180487,397.33871900579015 430.84667042905596,391.9302831171374 430.84667042905596,434.39712517757323" />
  <polygon fill="hsl(360.0,50.0%,60.889312742823975%)" points="416.79514180611767,393.86326793060516 416.79514180611767,374.75318900340903 426.1628275547432,372.0489710590827 426.1628275547432,391.1590499862788" />
  <polygon fill="hsl(360.0,50.0%,60.889312742823975%)" points="418.6686789558428,395.4457664447617 418.6686789558428,374.2123454145438 424.2892904050181,372.58981464794795 424.2892904050181,393.8232356781659" />
  <polygon fill="hsl(360.0,50.0%,60.48993860879541%)" points="420.1158871626532,481.2918860337311 420.1158871626532,438.4003755526909 427.61003576155366,436.2370011972298 427.61003576155366,479.12851167826994" />
  <polygon fill="hsl(360.0,50.0%,60.48993860879541%)" points="438.8512586599043,475.8834501450783 438.8512586599043,432.9919396640381 431.3571100610039,435.15531401949926 431.3571100610039,478.0468245005394" />
  <polygon fill="hsl(360.0,50.0%,60.48993860879541%)" points="412.6217385637528,440.9884183287564 412.6217385637528,398.52157626832053 419.17911858779064,396.62862370729204 419.17911858779064,439.0954657677279" />
  <polygon fill="hsl(360.0,50.0%,60.48993860879541%)" points="439.78802723476684,433.1461862902098 439.78802723476684,390.679344229774 446.34540725880476,388.7863916687455 446.34540725880476,431.2532337291814" />
  <polygon fill="hsl(360.0,50.0%,60.48993860879541%)" points="419.17911858779064,403.18600373132995 419.17911858779064,396.62862370729204 439.78802723476684,390.679344229774 439.78802723476684,397.2367242538119" />
  <polygon fill="hsl(360.0,50.0%,60.48993860879541%)" points="420.1158871626532,438.82504397329524 420.1158871626532,396.35820191285944 438.8512586599043,390.94976602420667 438.8512586599043,433.41660808464246" />
  <polygon fill="hsl(360.0,50.0%,60.48993860879541%)" points="424.79973003696597,392.88275083767445 424.79973003696597,373.7726719104783 434.1674157855915,371.06845396615194 434.1674157855915,390.17853289334806" />
  <polygon fill="hsl(360.0,50.0%,60.48993860879541%)" points="426.6732671866911,394.46524935183095 426.6732671866911,373.2318283216131 432.2938786358664,371.6092975550172 432.2938786358664,392.8427185852351" />
  <polygon fill="hsl(360.0,50.0%,52.57800117743009%)" points="439.78699188522285,501.965876037361 439.78699188522285,459.0743655563208 447.2811404841233,456.9109912008597 447.2811404841233,499.8025016818999" />
  <polygon fill="hsl(360.0,50.0%,52.57800117743009%)" points="458.52236338247394,496.5574401487082 458.52236338247394,453.665929667668 451.0282147835735,455.82930402312917 451.0282147835735,498.7208145041693" />
  <polygon fill="hsl(360.0,50.0%,52.57800117743009%)" points="432.2928432863224,461.66240833238624 432.2928432863224,419.19556627195044 438.85022331036026,417.302613710922 438.85022331036026,459.7694557713578" />
  <polygon fill="hsl(360.0,50.0%,52.57800117743009%)" points="459.45913195733647,453.8201762938397 459.45913195733647,411.3533342334039 466.0165119813743,409.4603816723755 466.0165119813743,451.9272237328113" />
  <polygon fill="hsl(360.0,50.0%,52.57800117743009%)" points="438.85022331036026,423.85999373495986 438.85022331036026,417.302613710922 459.45913195733647,411.3533342334039 459.45913195733647,417.91071425744184" />
  <polygon fill="hsl(360.0,50.0%,52.57800117743009%)" points="439.78699188522285,459.49903397692515 439.78699188522285,417.03219191648935 458.5223633824739,411.6237560278366 458.52236338247394,454.0905980882724" />
  <polygon fill="hsl(360.0,50.0%,52.57800117743009%)" points="444.4708347595356,413.55674084130436 444.4708347595356,394.4466619141083 453.83852050816114,391.7424439697819 453.83852050816114,410.852522896978" />
  <polygon fill="hsl(360.0,50.0%,52.57800117743009%)" points="446.3443719092607,415.13923935546086 446.3443719092607,393.905818325243 451.96498335843603,392.28328755864715 451.96498335843603,413.5167085888651" />
</svg>
