<?xml version="1.0" encoding="UTF-8"?>
<svg
  xmlns="http://www.w3.org/2000/svg"
  width="848"
  height="600"
  style="background-color:white"
>
  <polygon fill="lightblue" points="403.9399140353268,528.487390422762 269.7758353853394,412.29789003653946 444.0600859646732,361.9863605427942 578.2241646146606,478.1758609290167" />
  <polygon fill="steelblue" points="269.7758353853394,412.29789003653946 269.7758353853394,121.82413907098328 444.0600859646732,71.51260957723801 444.0600859646732,361.9863605427942" />
  <polygon fill="lightskyblue" points="578.2241646146606,478.1758609290167 578.2241646146606,187.70210996346052 444.0600859646732,71.51260957723801 444.0600859646732,361.9863605427942" />
  <polygon fill="white" points="521.2044311884159,428.79532326487214 521.2044311884159,312.6058228786497 501.0798193909178,295.1773978207163 501.07981939091786,411.3668982069388" />
  <polygon fill="white" points="290.10899795292835,359.95241144111355 290.10899795292835,313.4766112866245 319.156373049484,305.09135637100036 319.15637304948405,351.56715652548934" />
  <polygon fill="white" points="324.96584806879514,349.8901055423645 324.96584806879514,303.4143053878755 354.0132231653507,295.0290504722513 354.0132231653507,341.5048506267403" />
  <polygon fill="white" points="359.8226981846619,339.82779964361544 359.8226981846619,293.35199948912646 388.8700732812175,284.96674457350224 388.8700732812175,331.4425447279912" />
  <polygon fill="white" points="394.6795483005286,329.7654937448664 394.6795483005286,283.2896935903774 423.72692339708425,274.9044386747532 423.72692339708425,321.38023882924216" />
</svg>
