<?xml version="1.0" encoding="UTF-8"?>
<svg
  xmlns="http://www.w3.org/2000/svg"
  width="848"
  height="600"
  style="background-color:white"
>
  <polygon fill="lightblue" points="402.43562102911494,576.8471327399452 258.2106639983741,451.94465609160454 445.56437897088506,397.86029720507673 589.7893360016259,522.7627738534173" />
  <polygon fill="steelblue" points="258.2106639983741,451.94465609160454 258.2106639983741,77.23722614658263 445.56437897088506,23.15286726005479 445.56437897088506,397.86029720507673" />
  <polygon fill="lightskyblue" points="589.7893360016259,522.7627738534173 589.7893360016259,148.05534390839546 445.56437897088506,23.15286726005479 445.56437897088506,397.86029720507673" />
  <polygon fill="white" points="528.493729263561,469.6792212778726 528.493729263561,344.77674462953195 506.8599857089499,326.04137313228085 506.8599857089499,450.9438497806215" />
  <polygon fill="white" points="280.0685974118337,395.67382356217337 280.0685974118337,345.71283290283714 311.2942165739189,336.6987730884158 311.2942165739189,386.65976374775204" />
  <polygon fill="white" points="317.5393404063359,384.8569517848678 317.5393404063359,334.8959611255315 348.7649595684211,325.88190131111025 348.7649595684211,375.8428919704465" />
  <polygon fill="white" points="355.0100834008381,374.04008000756227 355.0100834008381,324.079089348226 386.2357025629233,315.0650295338047 386.2357025629233,365.02602019314094" />
  <polygon fill="white" points="392.4808263953403,363.22320823025666 392.4808263953403,313.2622175709204 423.70644555742547,304.2481577564991 423.70644555742547,354.2091484158354" />
</svg>
