<?xml version="1.0" encoding="UTF-8"?>
<svg
  xmlns="http://www.w3.org/2000/svg"
  width="848"
  height="600"
  style="background-color:white"
>
  <polygon fill="lightblue" points="420.5115338050764,557.7036968016134 242.6668685805732,403.6856987896548 427.48846619492366,350.33229922230385 605.3331314194268,504.3502972342625" />
  <polygon fill="steelblue" points="242.6668685805732,403.6856987896548 242.6668685805732,95.64970276573752 427.4884661949236,42.29630319838651 427.48846619492366,350.33229922230385" />
  <polygon fill="lightskyblue" points="605.3331314194268,504.3502972342625 605.3331314194268,196.3143012103452 427.4884661949236,42.29630319838651 427.48846619492366,350.33229922230385" />
  <polygon fill="white" points="527.0814787206454,436.5823781090007 527.0814787206454,313.36797969943376 505.740118893705,294.88581993799875 505.740118893705,418.10021834756566" />
  <polygon fill="white" points="264.22938830224746,348.17537614297044 264.22938830224746,298.88961677914364 295.0329879046392,289.9973835179185 295.0329879046392,339.2831428817453" />
  <polygon fill="white" points="301.19370782511754,337.50469622950027 301.1937078251175,288.21893686567347 331.9973074275092,279.3267036044483 331.9973074275092,328.61246296827505" />
  <polygon fill="white" points="338.1580273479876,326.83401631603004 338.1580273479876,277.54825695220325 368.9616269503793,268.6560236909781 368.9616269503793,317.9417830548049" />
  <polygon fill="white" points="375.12234687085765,316.1633364025598 375.12234687085765,266.8775770387331 405.9259464732494,257.9853437775079 405.9259464732494,307.27110314133466" />
  <polygon fill="hsl(324.0,50.0%,51.426934746249444%)" points="447.7620689660569,475.5240711244051 447.7620689660569,433.21224671055984 455.15493287063094,431.0781107278658 455.15493287063094,473.389935141711" />
  <polygon fill="hsl(324.0,50.0%,51.426934746249444%)" points="466.24422872749193,470.18873116766997 466.24422872749193,427.87690675382476 458.85136482291796,430.0110427365188 458.85136482291796,472.32286715036406" />
  <polygon fill="hsl(324.0,50.0%,51.426934746249444%)" points="440.3692050614829,435.7653116478464 440.3692050614829,393.8724161885936 446.8379609779852,392.00504720373635 446.8379609779852,433.89794266298907" />
  <polygon fill="hsl(324.0,50.0%,51.426934746249444%)" points="467.16833671556367,428.02906871058053 467.16833671556367,386.1361732513277 473.63709263206596,384.26880426647045 473.63709263206596,426.1616997257232" />
  <polygon fill="hsl(324.0,50.0%,51.426934746249444%)" points="446.8379609779852,398.4738031202386 446.8379609779852,392.00504720373635 467.16833671556367,386.1361732513277 467.16833671556367,392.60492916783" />
  <polygon fill="hsl(324.0,50.0%,51.426934746249444%)" points="447.7620689660569,433.63117566515234 447.7620689660569,391.7382802058996 466.24422872749193,386.4029402491645 466.24422872749193,428.29583570841726" />
  <polygon fill="hsl(324.0,50.0%,51.426934746249444%)" points="452.38260890641567,388.30980044375315 452.38260890641567,369.4579974870894 461.6236887871332,366.79032750872193 461.6236887871332,385.64213046538566" />
  <polygon fill="hsl(324.0,50.0%,51.426934746249444%)" points="454.2308248825592,389.8709112210423 454.2308248825592,368.92446349141596 459.7754728109897,367.3238615043954 459.7754728109897,388.2703092340218" />
</svg>
