<?xml version="1.0" encoding="UTF-8"?>
<svg
  xmlns="http://www.w3.org/2000/svg"
  width="848"
  height="600"
  style="background-color:white"
>
  <polygon fill="lightblue" points="420.24216370732654,544.4207202888047 228.66480560893825,378.50986138569203 427.75783629267346,321.03665395617554 619.3351943910618,486.9475128592883" />
  <polygon fill="steelblue" points="228.66480560893825,378.50986138569203 228.66480560893825,113.05248714071175 427.75783629267346,55.579279711195284 427.75783629267346,321.03665395617554" />
  <polygon fill="lightskyblue" points="619.3351943910618,486.9475128592883 619.3351943910618,221.49013861430797 427.75783629267346,55.579279711195284 427.75783629267346,321.03665395617554" />
  <polygon fill="white" points="535.0411568277709,413.94673494191863 535.0411568277709,281.21804781942853 512.0518738559643,261.308744751055 512.0518738559643,394.03743187354513" />
  <polygon fill="white" points="278.43806327987204,311.05008467931685 278.43806327987204,257.9586098303208 311.6202350604946,248.3797419254014 311.6202350604946,301.4712167743974" />
  <polygon fill="white" points="344.80240684111715,291.89234886947804 344.80240684111715,238.80087402048196 377.9845786217397,229.22200611556252 377.9845786217397,282.3134809645586" />
  <polygon fill="antiquewhite" points="487.8191626360396,457.9273978338416 487.8191626360396,345.108013779725 514.3649000605377,337.44491945578943 514.3649000605377,450.2643035099061" />
  <polygon fill="beige" points="487.8191626360396,457.9273978338416 487.8191626360396,345.108013779725 472.49297398816856,331.835145067476 472.49297398816856,444.65452912159265" />
  <polygon fill="bisque" points="487.8191626360396,345.108013779725 472.49297398816856,331.835145067476 499.0387114126666,324.17205074354047 514.3649000605377,337.44491945578943" />
</svg>
