<?xml version="1.0" encoding="UTF-8"?>
<svg
  xmlns="http://www.w3.org/2000/svg"
  width="848"
  height="600"
  style="background-color:white"
>
  <polygon fill="lightblue" points="419.8639659827787,532.4981064453721 209.0057996573414,349.88957781213895 428.1360340172213,286.6321279145077 638.9942003426586,469.24065654774085" />
  <polygon fill="steelblue" points="209.0057996573414,349.88957781213895 209.0057996573414,130.75934345225912 428.1360340172213,67.50189355462788 428.1360340172213,286.6321279145077" />
  <polygon fill="lightskyblue" points="638.9942003426586,469.24065654774085 638.9942003426586,250.11042218786108 428.1360340172213,67.50189355462788 428.1360340172213,286.6321279145077" />
  <polygon fill="white" points="300.310063973958,265.0975778588246 300.310063973958,206.66284869619 336.83176970060464,196.11994037991812 336.83176970060464,254.55466954255274" />
  <polygon fill="grey" points="412.70014492311833,147.4360427515284 412.70014492311833,110.91433702488172 449.221850649765,100.37142870860984 449.221850649765,136.8931344352565" />
  <polygon fill="lightgrey" points="412.70014492311833,147.4360427515284 412.70014492311833,110.91433702488172 391.6143282905746,92.6534841615584 391.6143282905746,129.17518988820504" />
  <polygon fill="darkgrey" points="412.70014492311833,110.91433702488172 391.6143282905746,92.6534841615584 428.1360340172213,82.11057584528652 449.221850649765,100.37142870860984" />
  <polygon fill="hsl(288.0,50.0%,73.05567488056998%)" points="338.022500830873,362.69334657866494 338.022500830873,312.5271315925431 346.7877102052682,309.9968335966379 346.7877102052682,360.1630485827597" />
  <polygon fill="hsl(288.0,50.0%,73.05567488056998%)" points="359.93552426686097,356.36760158890183 359.93552426686097,306.20138660277996 351.1703148924658,308.73168459868526 351.1703148924658,358.8978995848071" />
  <polygon fill="hsl(288.0,50.0%,73.05567488056998%)" points="329.25729145647784,315.55412478633076 329.2572914564778,265.88460499809133 336.9268496590736,263.67059425167423 336.9268496590736,313.34011403991366" />
  <polygon fill="hsl(288.0,50.0%,73.05567488056998%)" points="361.03117543866034,306.3817945511742 361.03117543866034,256.7122747629348 368.70073364125614,254.4982640165177 368.70073364125614,304.1677838047571" />
  <polygon fill="hsl(288.0,50.0%,73.05567488056998%)" points="336.9268496590736,271.34015245427 336.9268496590736,263.67059425167423 361.03117543866034,256.7122747629348 361.03117543866034,264.3818329655306" />
  <polygon fill="hsl(288.0,50.0%,73.05567488056998%)" points="338.022500830873,313.0238267904255 338.022500830873,263.3543070021861 359.93552426686097,257.028562012423 359.93552426686097,306.6980818006624" />
  <polygon fill="hsl(288.0,50.0%,73.05567488056998%)" points="343.50075668987,259.2893947653333 343.50075668987,236.9381108606256 354.457268407864,233.77523836574403 354.457268407864,256.1265222704518" />
  <polygon fill="hsl(288.0,50.0%,73.05567488056998%)" points="345.6920590334688,261.140296255769 345.6920590334688,236.30553636164927 352.26596606426517,234.40781286472037 352.26596606426517,259.2425727588401" />
  <polygon fill="hsl(288.0,50.0%,70.71600065166498%)" points="383.7060847607565,360.8988176635041 383.7060847607565,310.73260267738226 392.47129413515165,308.202304681477 392.47129413515165,358.36851966759883" />
  <polygon fill="hsl(288.0,50.0%,70.71600065166498%)" points="405.61910819674443,354.57307267374097 405.61910819674443,304.40685768761915 396.85389882234927,306.9371556835244 396.85389882234927,357.1033706696462" />
  <polygon fill="hsl(288.0,50.0%,70.71600065166498%)" points="374.9408753863613,313.7595958711699 374.9408753863613,264.09007608293047 382.6104335889571,261.87606533651336 382.6104335889571,311.5455851247528" />
  <polygon fill="hsl(288.0,50.0%,70.71600065166498%)" points="406.7147593685438,304.5872656360134 406.7147593685438,254.91774584777394 414.3843175711396,252.70373510135687 414.3843175711396,302.3732548895963" />
  <polygon fill="hsl(288.0,50.0%,70.71600065166498%)" points="382.6104335889571,269.54562353910916 382.6104335889571,261.87606533651336 406.7147593685438,254.91774584777394 406.7147593685438,262.58730405036977" />
  <polygon fill="hsl(288.0,50.0%,70.71600065166498%)" points="383.7060847607565,311.22929787526465 383.7060847607565,261.5597780870252 405.61910819674443,255.2340330972621 405.61910819674443,304.90355288550154" />
  <polygon fill="hsl(288.0,50.0%,70.71600065166498%)" points="389.18434061975347,257.49486585017246 389.18434061975347,235.14358194546475 400.14085233774745,231.98070945058316 400.14085233774745,254.33199335529093" />
  <polygon fill="hsl(288.0,50.0%,70.71600065166498%)" points="391.3756429633523,259.3457673406081 391.3756429633523,234.51100744648843 397.94954999414864,232.6132839495595 397.94954999414864,257.4480438436792" />
  <polygon fill="hsl(288.0,50.0%,61.40050862472211%)" points="405.7832978253087,399.88802967820686 405.7832978253087,349.72181469208505 414.5485071997039,347.1915166961798 414.5485071997039,397.3577316823016" />
  <polygon fill="hsl(288.0,50.0%,61.40050862472211%)" points="427.6963212612967,393.56228468844375 427.6963212612967,343.39606970232194 418.9311118869015,345.9263676982272 418.9311118869015,396.092582684349" />
  <polygon fill="hsl(288.0,50.0%,61.40050862472211%)" points="397.0180884509135,352.7488078858727 397.0180884509135,303.07928809763325 404.6876466535093,300.86527735121615 404.6876466535093,350.5347971394556" />
  <polygon fill="hsl(288.0,50.0%,61.40050862472211%)" points="428.7919724330961,343.57647765071613 428.7919724330961,293.90695786247676 436.4615306356919,291.69294711605966 436.4615306356919,341.3624669042991" />
  <polygon fill="hsl(288.0,50.0%,61.40050862472211%)" points="404.6876466535093,308.53483555381194 404.6876466535093,300.86527735121615 428.7919724330961,293.90695786247676 428.7919724330961,301.57651606507255" />
  <polygon fill="hsl(288.0,50.0%,61.40050862472211%)" points="405.7832978253087,350.21850988996744 405.7832978253087,300.548990101728 427.6963212612967,294.2232451119649 427.6963212612967,343.8927649002043" />
  <polygon fill="hsl(288.0,50.0%,61.40050862472211%)" points="411.2615536843057,296.48407786487525 411.2615536843057,274.13279396016753 422.2180654022997,270.969921465286 422.2180654022997,293.3212053699937" />
  <polygon fill="hsl(288.0,50.0%,61.40050862472211%)" points="413.4528560279045,298.3349793553109 413.4528560279045,273.5002194611912 420.0267630587009,271.6024959642623 420.0267630587009,296.437255858382" />
  <polygon fill="hsl(288.0,50.0%,60.92125966388783%)" points="415.8192113955775,399.32464291317973 415.8192113955775,349.1584279270579 424.58442076997267,346.62812993115267 424.58442076997267,396.7943449172745" />
  <polygon fill="hsl(288.0,50.0%,60.92125966388783%)" points="437.73223483156545,392.9988979234166 437.73223483156545,342.8326829372948 428.9670254571703,345.3629809332 428.9670254571703,395.52919591932186" />
  <polygon fill="hsl(288.0,50.0%,60.92125966388783%)" points="407.05400202118227,352.18542112084555 407.05400202118227,302.5159013326061 414.72356022377807,300.301890586189 414.72356022377807,349.97141037442844" />
  <polygon fill="hsl(288.0,50.0%,60.92125966388783%)" points="438.8278860033648,343.013090885689 438.8278860033648,293.3435710974496 446.4974442059606,291.1295603510325 446.4974442059606,340.79908013927195" />
  <polygon fill="hsl(288.0,50.0%,60.92125966388783%)" points="414.72356022377807,307.9714487887848 414.72356022377807,300.301890586189 438.8278860033648,293.3435710974496 438.8278860033648,301.01312930004536" />
  <polygon fill="hsl(288.0,50.0%,60.92125966388783%)" points="415.8192113955775,349.6551231249403 415.81921139557744,299.9856033367009 437.73223483156545,293.65985834693777 437.73223483156545,343.3293781351772" />
  <polygon fill="hsl(288.0,50.0%,60.92125966388783%)" points="421.2974672545745,295.9206910998481 421.2974672545745,273.5694071951404 432.25397897256846,270.4065347002588 432.25397897256846,292.7578186049666" />
  <polygon fill="hsl(288.0,50.0%,60.92125966388783%)" points="423.48876959817323,297.7715925902838 423.48876959817323,272.93683269616406 430.06267662896965,271.03910919923516 430.06267662896965,295.87386909335487" />
  <polygon fill="hsl(288.0,50.0%,51.426934746249444%)" points="452.1730480020663,435.0633863331181 452.1730480020663,384.8971713469963 460.9382573764615,382.366873351091 460.9382573764615,432.53308833721286" />
  <polygon fill="hsl(288.0,50.0%,51.426934746249444%)" points="474.08607143805426,428.737641343355 474.08607143805426,378.5714263572331 465.3208620636591,381.10172435313837 465.3208620636591,431.26793933926024" />
  <polygon fill="hsl(288.0,50.0%,51.426934746249444%)" points="443.40783862767114,387.9241645407839 443.40783862767114,338.2546447525445 451.07739683026693,336.0406340061274 451.07739683026693,385.7101537943668" />
  <polygon fill="hsl(288.0,50.0%,51.426934746249444%)" points="475.1817226098537,378.75183430562737 475.18172260985364,329.08231451738794 482.85128081244943,326.86830377097084 482.85128081244943,376.5378235592103" />
  <polygon fill="hsl(288.0,50.0%,51.426934746249444%)" points="451.07739683026693,343.7101922087232 451.07739683026693,336.0406340061274 475.18172260985364,329.08231451738794 475.18172260985364,336.75187271998374" />
  <polygon fill="hsl(288.0,50.0%,51.426934746249444%)" points="452.1730480020663,385.3938665448787 452.1730480020663,335.72434675663925 474.08607143805426,329.39860176687614 474.08607143805426,379.06812155511557" />
  <polygon fill="hsl(288.0,50.0%,51.426934746249444%)" points="457.6513038610633,331.6594345197865 457.6513038610633,309.3081506150788 468.6078155790573,306.1452781201972 468.6078155790573,328.4965620249049" />
  <polygon fill="hsl(288.0,50.0%,51.426934746249444%)" points="459.8426062046621,333.51033601022215 459.8426062046621,308.67557611610243 466.41651323545847,306.77785261917353 466.41651323545847,331.6126125132932" />
</svg>
