<?xml version="1.0" encoding="UTF-8"?>
<svg
  xmlns="http://www.w3.org/2000/svg"
  width="848"
  height="600"
  style="background-color:white"
>
  <polygon fill="lightblue" points="420.20152466769485,513.5229832402883 226.55235735732404,345.8178849278041 427.79847533230515,287.7231347346928 621.447642642676,455.428233047177" />
  <polygon fill="steelblue" points="226.55235735732404,345.8178849278041 226.55235735732404,144.571766952823 427.79847533230515,86.47701675971169 427.79847533230515,287.7231347346928" />
  <polygon fill="lightskyblue" points="621.447642642676,455.428233047177 621.447642642676,254.18211507219593 427.79847533230515,86.47701675971169 427.79847533230515,287.7231347346928" />
  <polygon fill="white" points="536.2420090261128,381.63798978968396 536.2420090261128,247.47391113969658 513.0041089488683,227.3492993421985 513.0041089488683,361.51337799218584" />
  <polygon fill="white" points="250.03107112107185,285.3745326119461 250.03107112107185,231.70890115195115 283.5720907835687,222.02644278643263 283.5720907835687,275.6920742464276" />
  <polygon fill="white" points="290.28029471606806,273.75558257332386 290.28029471606806,220.0899511133289 323.8213143785649,210.40749274781035 323.8213143785649,264.07312420780534" />
  <polygon fill="white" points="330.5295183110643,262.1366325347016 330.52951831106424,208.47100107470666 364.0705379735611,198.7885427091881 364.0705379735611,252.45417416918306" />
  <polygon fill="white" points="370.7787419060605,250.51768249607935 370.7787419060605,196.8520510360844 404.31976156855734,187.16959267056586 404.31976156855734,240.8352241305608" />
</svg>
