<?xml version="1.0" encoding="UTF-8"?>
<svg
  xmlns="http://www.w3.org/2000/svg"
  width="848"
  height="600"
  style="background-color:white"
>
  <polygon fill="lightblue" points="419.0961894323342,618.9582562299425 169.0961894323342,402.45190528383284 428.9038105676658,327.45190528383284 678.9038105676658,543.9582562299425" />
  <polygon fill="steelblue" points="169.0961894323342,402.45190528383284 169.0961894323342,56.04174377005745 428.9038105676658,-18.95825622994255 428.9038105676658,327.45190528383284" />
  <polygon fill="lightskyblue" points="678.9038105676658,543.9582562299425 678.9038105676658,197.54809471616713 428.9038105676658,-18.95825622994255 428.9038105676658,327.45190528383284" />
  <polygon fill="white" points="568.9038105676658,448.6954618136543 568.9038105676658,275.4903810567666 538.9038105676658,249.50961894323342 538.9038105676658,422.7146997001211" />
  <polygon fill="white" points="199.40707856478957,324.4198729810778 199.40707856478957,255.1378406783227 242.7083487540115,242.6378406783227 242.7083487540115,311.9198729810778" />
  <polygon fill="white" points="251.36860279185586,309.4198729810778 251.36860279185586,240.1378406783227 294.6698729810778,227.63784067832268 294.6698729810778,296.9198729810778" />
  <polygon fill="white" points="303.3301270189222,294.4198729810778 303.33012701892216,225.1378406783227 346.6313972081441,212.6378406783227 346.6313972081441,281.9198729810778" />
  <polygon fill="white" points="355.29165124598853,279.4198729810778 355.29165124598853,210.13784067832268 398.5929214352104,197.63784067832268 398.5929214352104,266.9198729810778" />
</svg>
