<?xml version="1.0" encoding="UTF-8"?>
<svg
  xmlns="http://www.w3.org/2000/svg"
  width="848"
  height="600"
  style="background-color:white"
>
  <polygon fill="lightblue" points="420.7172276250434,571.4957605112269 253.358990104501,426.55927528584715 427.28277237495666,376.35180402968444 594.641009895499,521.2882892550642" />
  <polygon fill="steelblue" points="253.358990104501,426.55927528584715 253.358990104501,78.71171074493583 427.2827723749566,28.504239488773123 427.28277237495666,376.35180402968444" />
  <polygon fill="lightskyblue" points="594.641009895499,521.2882892550642 594.641009895499,173.44072471415285 427.2827723749566,28.504239488773123 427.28277237495666,376.35180402968444" />
  <polygon fill="white" points="521.0033853864604,457.516235755897 521.0033853864604,341.5670475755933 500.9203968839953,324.17466934854775 500.9203968839953,440.12385752885154" />
  <polygon fill="white" points="325.82723271719084,359.25982032365783 325.82723271719084,312.8801450515363 354.8145297622668,304.5122331755092 354.8145297622668,350.8919084476307" />
  <polygon fill="antiquewhite" points="479.75117375467295,495.9368836844336 479.75117375467295,397.3800737311754 502.9410113907337,390.6857442303537 502.9410113907337,489.2425541836119" />
  <polygon fill="beige" points="479.75117375467295,495.9368836844336 479.75117375467295,397.3800737311754 466.36251475302953,385.78515491314505 466.36251475302953,484.34196486640326" />
  <polygon fill="bisque" points="479.75117375467295,397.3800737311754 466.36251475302953,385.78515491314505 489.5523523890903,379.09082541232334 502.9410113907337,390.6857442303537" />
  <polygon fill="antiquewhite" points="431.51723779027355,553.9085984220139 431.51723779027355,455.3517884687558 454.7070754263343,448.6574589679341 454.7070754263343,547.2142689211923" />
  <polygon fill="beige" points="431.51723779027355,553.9085984220139 431.51723779027355,455.3517884687558 418.12857878863014,443.75686965072543 418.12857878863014,542.3136796039836" />
  <polygon fill="bisque" points="431.51723779027355,455.3517884687558 418.12857878863014,443.75686965072543 441.3184164246909,437.0625401499037 454.7070754263343,448.6574589679341" />
</svg>
