<?xml version="1.0" encoding="UTF-8"?>
<svg
  xmlns="http://www.w3.org/2000/svg"
  width="848"
  height="600"
  style="background-color:white"
>
  <polygon fill="lightblue" points="420.71042386657524,513.9637028744842 253.005325554091,368.726827391706 427.28957613342476,318.4152978979608 594.994674445909,463.6521733807389" />
  <polygon fill="steelblue" points="253.005325554091,368.726827391706 253.005325554091,136.3478266192611 427.28957613342476,86.03629712551583 427.28957613342476,318.4152978979608" />
  <polygon fill="lightskyblue" points="594.994674445909,463.6521733807389 594.994674445909,231.27317260829395 427.28957613342476,86.03629712551583 427.28957613342476,318.4152978979608" />
  <polygon fill="white" points="521.2044311884159,399.7479481683165 521.2044311884159,283.55844778209405 501.0798193909178,266.13002272416065 501.0798193909178,382.31952311038316" />
  <polygon fill="white" points="273.33848812168,316.3813487962801 273.33848812168,269.90554864179114 302.38586321823556,261.5202937261669 302.3858632182356,307.9960938806559" />
  <polygon fill="white" points="308.1953382375467,306.31904289753106 308.1953382375467,259.8432427430421 337.24271333410235,251.45798782741784 337.24271333410235,297.93378798190685" />
  <polygon fill="white" points="343.05218835341344,296.256736998782 343.05218835341344,249.780936844293 372.0995634499691,241.3956819286688 372.0995634499691,287.8714820831578" />
  <polygon fill="white" points="377.9090384692802,286.19443110003294 377.9090384692802,239.71863094554394 406.9564135658358,231.33337602991975 406.9564135658358,277.8091761844087" />
</svg>
