<?xml version="1.0" encoding="UTF-8"?>
<svg
  xmlns="http://www.w3.org/2000/svg"
  width="848"
  height="600"
  style="background-color:white"
>
  <polygon fill="lightblue" points="421.31407233435726,522.134796742178 284.38343295806567,403.5493844858637 426.6859276656428,362.4701926729762 563.6165670419343,481.05560492929044" />
  <polygon fill="steelblue" points="284.38343295806567,403.5493844858637 284.38343295806567,118.94439507070953 426.68592766564274,77.86520325782209 426.6859276656428,362.4701926729762" />
  <polygon fill="lightskyblue" points="563.6165670419343,481.05560492929044 563.6165670419343,196.45061551413633 426.68592766564274,77.86520325782209 426.6859276656428,362.4701926729762" />
  <polygon fill="white" points="503.36708571636603,428.87802353651216 503.36708571636603,334.0096937314608 486.93540899121103,319.7794442607031 486.93540899121103,414.6477740657545" />
  <polygon fill="white" points="292.85381954780246,363.1568625749808 292.85381954780246,325.2095306529602 316.5709019990653,318.3629986841456 316.5709019990653,356.3103306061662" />
  <polygon fill="white" points="313.1827473631706,357.28840660171113 313.1827473631706,319.34107467969056 336.8998298144335,312.49454271087603 336.8998298144335,350.44187463289654" />
  <polygon fill="white" points="333.5116751785388,351.4199506284415 333.5116751785387,313.4726187064209 357.2287576298016,306.6260867376064 357.2287576298016,344.57341865962695" />
  <polygon fill="white" points="353.8406029939069,345.55149465517184 353.8406029939069,307.6041627331513 377.55768544516974,300.75763076433674 377.55768544516974,338.7049626863573" />
  <polygon fill="white" points="374.16953080927505,339.68303868190225 374.16953080927505,301.7357067598817 397.8866132605379,294.8891747910671 397.8866132605379,332.83650671308766" />
  <polygon fill="white" points="394.4984586246432,333.8145827086326 394.4984586246432,295.86725078661203 418.215541075906,289.02071881779744 418.21554107590606,326.968050739818" />
</svg>
