<?xml version="1.0" encoding="UTF-8"?>
<svg
  xmlns="http://www.w3.org/2000/svg"
  width="848"
  height="600"
  style="background-color:white"
>
  <polygon fill="lightblue" points="420.24216370732654,544.4207202888047 228.66480560893825,378.50986138569203 427.75783629267346,321.03665395617554 619.3351943910618,486.9475128592883" />
  <polygon fill="steelblue" points="228.66480560893825,378.50986138569203 228.66480560893825,113.05248714071175 427.75783629267346,55.579279711195284 427.75783629267346,321.03665395617554" />
  <polygon fill="lightskyblue" points="619.3351943910618,486.9475128592883 619.3351943910618,221.49013861430797 427.75783629267346,55.579279711195284 427.75783629267346,321.03665395617554" />
  <polygon fill="white" points="535.0411568277709,413.94673494191863 535.0411568277709,281.21804781942853 512.0518738559643,261.308744751055 512.0518738559643,394.03743187354513" />
  <polygon fill="white" points="245.25589149924954,320.6289525842363 245.25589149924954,267.5374777352402 278.43806327987204,257.9586098303208 278.43806327987204,311.05008467931685" />
  <polygon fill="white" points="278.43806327987204,311.05008467931685 278.43806327987204,257.9586098303208 311.6202350604946,248.3797419254014 311.6202350604946,301.4712167743974" />
  <polygon fill="white" points="311.6202350604946,301.4712167743974 311.6202350604946,248.3797419254014 344.80240684111715,238.80087402048196 344.80240684111715,291.89234886947804" />
  <polygon fill="white" points="344.80240684111715,291.89234886947804 344.80240684111715,238.80087402048196 377.9845786217397,229.22200611556252 377.9845786217397,282.3134809645586" />
  <polygon fill="white" points="377.9845786217397,282.3134809645586 377.9845786217397,229.22200611556252 411.1667504023622,219.64313821064312 411.1667504023622,272.7346130596392" />
  <polygon fill="hsl(360.0,50.0%,73.05567488056998%)" points="345.8842578697856,390.1428573314497 345.8842578697856,344.5638261735866 353.847979097135,342.26489787640594 353.847979097135,387.8439290342691" />
  <polygon fill="hsl(360.0,50.0%,73.05567488056998%)" points="365.7935609381591,384.3955365884981 365.7935609381591,338.81650543063495 357.82983971080967,341.1154337278156 357.8298397108097,386.69446488567877" />
  <polygon fill="hsl(360.0,50.0%,73.05567488056998%)" points="337.9205366424362,347.3140320069837 337.9205366424362,302.1862783853371 344.88879271636694,300.17471612530403 344.88879271636694,345.30246974695063" />
  <polygon fill="hsl(360.0,50.0%,73.05567488056998%)" points="366.7890260915778,338.98041692970384 366.78902609157774,293.85266330805723 373.7572821655085,291.84110104802414 373.7572821655085,336.96885466967075" />
  <polygon fill="hsl(360.0,50.0%,73.05567488056998%)" points="344.88879271636694,307.14297219923475 344.88879271636694,300.17471612530403 366.78902609157774,293.85266330805723 366.78902609157774,300.82091938198795" />
  <polygon fill="hsl(360.0,50.0%,73.05567488056998%)" points="345.8842578697856,345.01510370980304 345.8842578697856,299.88735008815644 365.7935609381591,294.14002934520477 365.7935609381591,339.2677829668514" />
  <polygon fill="hsl(360.0,50.0%,73.05567488056998%)" points="350.86158363687895,296.1941322213362 350.86158363687895,275.8866430915952 360.8162351710657,273.0129827201194 360.8162351710657,293.3204718498604" />
  <polygon fill="hsl(360.0,50.0%,73.05567488056998%)" points="352.8525139437163,297.87578782812335 352.8525139437163,275.3119110173 358.82530486422837,273.5877147944145 358.82530486422837,296.15159160523785" />
  <polygon fill="hsl(360.0,50.0%,70.71600065166498%)" points="387.3905484264689,388.512419608364 387.3905484264689,342.93338845050084 395.35426965381833,340.6344601533202 395.35426965381833,386.21349131118336" />
  <polygon fill="hsl(360.0,50.0%,70.71600065166498%)" points="407.2998514948424,382.76509886541237 407.2998514948424,337.1860677075492 399.33613026749305,339.48499600472985 399.33613026749305,385.064027162593" />
  <polygon fill="hsl(360.0,50.0%,70.71600065166498%)" points="379.42682719911954,345.68359428389795 379.42682719911954,300.55584066225134 386.39508327305026,298.54427840221825 386.39508327305026,343.6720320238649" />
  <polygon fill="hsl(360.0,50.0%,70.71600065166498%)" points="408.2953166482611,337.3499792066181 408.2953166482611,292.22222558497145 415.26357272219184,290.21066332493837 415.26357272219184,335.338416946585" />
  <polygon fill="hsl(360.0,50.0%,70.71600065166498%)" points="386.39508327305026,305.51253447614897 386.39508327305026,298.54427840221825 408.2953166482611,292.22222558497145 408.2953166482611,299.1904816589022" />
  <polygon fill="hsl(360.0,50.0%,70.71600065166498%)" points="387.3905484264689,343.3846659867173 387.3905484264689,298.25691236507066 407.2998514948424,292.50959162211905 407.2998514948424,337.63734524376565" />
  <polygon fill="hsl(360.0,50.0%,70.71600065166498%)" points="392.3678741935623,294.5636944982504 392.3678741935623,274.2562053685094 402.32252572774905,271.3825449970336 402.32252572774905,291.6900341267746" />
  <polygon fill="hsl(360.0,50.0%,70.71600065166498%)" points="394.35880450039963,296.2453501050376 394.35880450039963,273.6814732942143 400.3315954209117,271.9572770713288 400.3315954209117,294.52115388215213" />
  <polygon fill="hsl(360.0,50.0%,61.40050862472211%)" points="407.44902767243923,423.93646963347135 407.44902767243923,378.3574384756082 415.41274889978865,376.0585101784275 415.41274889978865,421.63754133629067" />
  <polygon fill="hsl(360.0,50.0%,61.40050862472211%)" points="427.35833074081273,418.1891488905197 427.35833074081273,372.6101177326566 419.3946095134633,374.9090460298372 419.39460951346337,420.48807718770036" />
  <polygon fill="hsl(360.0,50.0%,61.40050862472211%)" points="399.4853064450898,381.1076443090053 399.4853064450898,335.9798906873587 406.4535625190206,333.9683284273256 406.4535625190206,379.0960820489722" />
  <polygon fill="hsl(360.0,50.0%,61.40050862472211%)" points="428.3537958942314,372.7740292317254 428.3537958942314,327.6462756100788 435.32205196816216,325.63471335004573 435.32205196816216,370.76246697169233" />
  <polygon fill="hsl(360.0,50.0%,61.40050862472211%)" points="406.4535625190206,340.93658450125633 406.4535625190206,333.9683284273256 428.3537958942314,327.6462756100788 428.3537958942314,334.61453168400953" />
  <polygon fill="hsl(360.0,50.0%,61.40050862472211%)" points="407.44902767243923,378.8087160118247 407.44902767243923,333.680962390178 427.35833074081273,327.9336416472264 427.35833074081273,373.061395268873" />
  <polygon fill="hsl(360.0,50.0%,61.40050862472211%)" points="412.4263534395326,329.9877445233578 412.4263534395326,309.6802553936168 422.38100497371937,306.806595022141 422.38100497371937,327.11408415188197" />
  <polygon fill="hsl(360.0,50.0%,61.40050862472211%)" points="414.41728374636995,331.66940013014494 414.41728374636995,309.10552331932166 420.390074666882,307.38132709643617 420.390074666882,329.94520390725944" />
  <polygon fill="hsl(360.0,50.0%,51.426934746249444%)" points="449.59691284370155,455.8954021023984 449.59691284370155,410.3163709445353 457.5606340710509,408.01744264735464 457.5606340710509,453.5964738052178" />
  <polygon fill="hsl(360.0,50.0%,51.426934746249444%)" points="469.50621591207505,450.1480813594468 469.50621591207505,404.56905020158365 461.5424946847256,406.86797849876433 461.5424946847256,452.4470096566274" />
  <polygon fill="hsl(360.0,50.0%,51.426934746249444%)" points="441.6331916163521,413.0665767779324 441.6331916163521,367.9388231562858 448.60144769028284,365.92726089625273 448.60144769028284,411.05501451789934" />
  <polygon fill="hsl(360.0,50.0%,51.426934746249444%)" points="470.5016810654937,404.73296170065254 470.5016810654937,359.60520807900593 477.4699371394244,357.59364581897285 477.4699371394244,402.7213994406195" />
  <polygon fill="hsl(360.0,50.0%,51.426934746249444%)" points="448.60144769028284,372.89551697018345 448.60144769028284,365.92726089625273 470.5016810654937,359.60520807900593 470.5016810654937,366.57346415293665" />
  <polygon fill="hsl(360.0,50.0%,51.426934746249444%)" points="449.59691284370155,410.76764848075175 449.59691284370155,365.63989485910514 469.50621591207505,359.89257411615347 469.50621591207505,405.02032773780013" />
  <polygon fill="hsl(360.0,50.0%,51.426934746249444%)" points="454.5742386107949,361.9466769922849 454.5742386107949,341.6391878625439 464.5288901449817,338.7655274910681 464.5288901449817,359.0730166208091" />
  <polygon fill="hsl(360.0,50.0%,51.426934746249444%)" points="456.56516891763226,363.62833259907205 456.56516891763226,341.0644557882487 462.53795983814433,339.3402595653632 462.53795983814433,361.90413637618656" />
</svg>
