<?xml version="1.0" encoding="UTF-8"?>
<svg
  xmlns="http://www.w3.org/2000/svg"
  width="848"
  height="600"
  style="background-color:white"
>
  <polygon fill="lightblue" points="419.0961894323342,705.5607966083865 169.0961894323342,489.05444566227675 428.9038105676658,414.05444566227675 678.9038105676658,630.5607966083865" />
  <polygon fill="steelblue" points="169.0961894323342,489.05444566227675 169.0961894323342,-30.560796608386454 428.9038105676658,-105.56079660838645 428.9038105676658,414.05444566227675" />
  <polygon fill="lightskyblue" points="678.9038105676658,630.5607966083865 678.9038105676658,110.94555433772325 428.9038105676658,-105.56079660838645 428.9038105676658,414.05444566227675" />
  <polygon fill="white" points="568.9038105676658,535.2980021920981 568.9038105676658,362.0929214352104 538.9038105676658,336.11215932167727 538.9038105676658,509.3172400785651" />
  <polygon fill="white" points="184.56092878562777,415.30812764523597 184.56092878562777,346.02609534248086 227.8621989748497,333.52609534248086 227.8621989748497,402.80812764523597" />
  <polygon fill="white" points="221.67630323353228,404.59384193095025 221.67630323353228,335.31180962819514 264.9775734227542,322.81180962819514 264.9775734227542,392.09384193095025" />
  <polygon fill="white" points="258.7916776814368,393.8795562166645 258.7916776814368,324.5975239139094 302.0929478706587,312.0975239139094 302.0929478706587,381.3795562166645" />
  <polygon fill="white" points="295.9070521293413,383.1652705023788 295.9070521293413,313.8832381996237 339.2083223185632,301.3832381996237 339.2083223185632,370.6652705023788" />
  <polygon fill="white" points="333.0224265772458,372.4509847880931 333.0224265772458,303.16895248533797 376.3236967664677,290.66895248533797 376.3236967664677,359.9509847880931" />
  <polygon fill="white" points="370.1378010251503,361.73669907380736 370.1378010251503,292.4546667710523 413.43907121437223,279.95466677105225 413.43907121437223,349.23669907380736" />
</svg>
