<?xml version="1.0" encoding="UTF-8"?>
<svg
  xmlns="http://www.w3.org/2000/svg"
  width="848"
  height="600"
  style="background-color:white"
>
  <polygon fill="lightblue" points="420.7172276250434,571.4957605112269 253.358990104501,426.55927528584715 427.28277237495666,376.35180402968444 594.641009895499,521.2882892550642" />
  <polygon fill="steelblue" points="253.358990104501,426.55927528584715 253.358990104501,78.71171074493583 427.2827723749566,28.504239488773123 427.28277237495666,376.35180402968444" />
  <polygon fill="lightskyblue" points="594.641009895499,521.2882892550642 594.641009895499,173.44072471415285 427.2827723749566,28.504239488773123 427.28277237495666,376.35180402968444" />
  <polygon fill="white" points="521.0033853864604,457.516235755897 521.0033853864604,341.5670475755933 500.9203968839953,324.17466934854775 500.9203968839953,440.12385752885154" />
  <polygon fill="white" points="325.82723271719084,359.25982032365783 325.82723271719084,312.8801450515363 354.8145297622668,304.5122331755092 354.8145297622668,350.8919084476307" />
  <polygon fill="hsl(324.0,50.0%,70.71600065166498%)" points="392.01869828065367,435.2973147465608 392.01869828065367,395.4803635254445 398.97564957147193,393.472064675198 398.97564957147193,433.28901589631425" />
  <polygon fill="hsl(324.0,50.0%,70.71600065166498%)" points="409.41107650769925,430.2765676209445 409.41107650769925,390.45961639982823 402.45412521688104,392.4679152500747 402.45412521688104,432.28486647119104" />
  <polygon fill="hsl(324.0,50.0%,70.71600065166498%)" points="385.06174698983546,397.88288961550404 385.06174698983546,358.46016563420073 391.14907936930143,356.70290414023503 391.14907936930143,396.1256281215383" />
  <polygon fill="hsl(324.0,50.0%,70.71600065166498%)" points="410.28069541905154,390.60280628336045 410.28069541905154,351.18008230205714 416.36802779851746,349.42282080809144 416.36802779851746,388.8455447893947" />
  <polygon fill="hsl(324.0,50.0%,70.71600065166498%)" points="391.14907936930143,362.79023651970095 391.14907936930143,356.70290414023503 410.28069541905154,351.18008230205714 410.28069541905154,357.26741468152306" />
  <polygon fill="hsl(324.0,50.0%,70.71600065166498%)" points="392.01869828065367,395.8745907652575 392.01869828065367,356.4518667839542 409.41107650769925,351.43111965833793 409.41107650769925,390.85384363964124" />
  <polygon fill="hsl(324.0,50.0%,70.71600065166498%)" points="396.36679283741506,353.225543803485 396.36679283741506,335.4853180118985 405.06298195093785,332.9749444490904 405.06298195093785,350.71517024067685" />
  <polygon fill="hsl(324.0,50.0%,70.71600065166498%)" points="398.10603066011964,354.69460528998854 398.10603066011964,334.9832432993369 403.3237441282333,333.47701916165204 403.32374412823333,353.18838115230363" />
  <polygon fill="hsl(324.0,50.0%,51.426934746249444%)" points="446.3609630178153,494.1617719090173 446.3609630178153,454.344820687901 453.31791430863353,452.3365218376545 453.31791430863353,492.1534730587708" />
  <polygon fill="hsl(324.0,50.0%,51.426934746249444%)" points="463.7533412448609,489.141024783401 463.7533412448609,449.32407356228475 456.79638995404264,451.33237241253124 456.79638995404264,491.14932363364755" />
  <polygon fill="hsl(324.0,50.0%,51.426934746249444%)" points="439.4040117269971,456.7473467779605 439.4040117269971,417.3246227966572 445.49134410646303,415.56736130269155 445.49134410646303,454.99008528399486" />
  <polygon fill="hsl(324.0,50.0%,51.426934746249444%)" points="464.62296015621314,449.4672634458169 464.62296015621314,410.04453946451366 470.7102925356791,408.28727797054796 470.7102925356791,447.71000195185127" />
  <polygon fill="hsl(324.0,50.0%,51.426934746249444%)" points="445.49134410646303,421.6546936821575 445.49134410646303,415.56736130269155 464.62296015621314,410.04453946451366 464.62296015621314,416.1318718439796" />
  <polygon fill="hsl(324.0,50.0%,51.426934746249444%)" points="446.3609630178153,454.739047927714 446.3609630178153,415.31632394641076 463.75334124486085,410.29557682079445 463.7533412448609,449.7183008020977" />
  <polygon fill="hsl(324.0,50.0%,51.426934746249444%)" points="450.7090575745767,412.0900009659415 450.7090575745767,394.34977517435505 459.4052466880995,391.8394016115469 459.4052466880995,409.5796274031334" />
  <polygon fill="hsl(324.0,50.0%,51.426934746249444%)" points="452.4482953972813,413.559062452445 452.4482953972813,393.8477004617934 457.66600886539493,392.3414763241085 457.66600886539493,412.05283831476015" />
</svg>
