<?xml version="1.0" encoding="UTF-8"?>
<svg
  xmlns="http://www.w3.org/2000/svg"
  width="848"
  height="600"
  style="background-color:white"
>
  <polygon fill="lightblue" points="420.7172276250434,571.4957605112269 253.358990104501,426.55927528584715 427.28277237495666,376.35180402968444 594.641009895499,521.2882892550642" />
  <polygon fill="steelblue" points="253.358990104501,426.55927528584715 253.358990104501,78.71171074493583 427.2827723749566,28.504239488773123 427.28277237495666,376.35180402968444" />
  <polygon fill="lightskyblue" points="594.641009895499,521.2882892550642 594.641009895499,173.44072471415285 427.2827723749566,28.504239488773123 427.28277237495666,376.35180402968444" />
  <polygon fill="white" points="521.0033853864604,457.516235755897 521.0033853864604,341.5670475755933 500.9203968839953,324.17466934854775 500.9203968839953,440.12385752885154" />
  <polygon fill="white" points="273.65009803605415,374.32206170050665 273.65009803605415,327.94238642838513 302.6373950811301,319.574474552358 302.6373950811301,365.95414982447954" />
  <polygon fill="white" points="308.4348544901453,364.28056744927414 308.43485449014526,317.90089217715257 337.42215153522125,309.53298030112546 337.42215153522125,355.912655573247" />
  <polygon fill="white" points="343.2196109442364,354.2390731980416 343.2196109442364,307.85939792592006 372.20690798931236,299.49148604989296 372.20690798931236,345.8711613220145" />
  <polygon fill="white" points="378.00436739832753,344.197578946809 378.00436739832753,297.8179036746875 406.99166444340347,289.4499917986604 406.99166444340347,335.8296670707819" />
  <polygon fill="antiquewhite" points="479.75117375467295,495.9368836844336 479.75117375467295,397.3800737311754 502.9410113907337,390.6857442303537 502.9410113907337,489.2425541836119" />
  <polygon fill="beige" points="479.75117375467295,495.9368836844336 479.75117375467295,397.3800737311754 466.36251475302953,385.78515491314505 466.36251475302953,484.34196486640326" />
  <polygon fill="bisque" points="479.75117375467295,397.3800737311754 466.36251475302953,385.78515491314505 489.5523523890903,379.09082541232334 502.9410113907337,390.6857442303537" />
</svg>
