<?xml version="1.0" encoding="UTF-8"?>
<svg
  xmlns="http://www.w3.org/2000/svg"
  width="848"
  height="600"
  style="background-color:white"
>
  <polygon fill="lightblue" points="419.0961894323342,575.6569860407207 169.0961894323342,359.150635094611 428.9038105676658,284.15063509461095 678.9038105676658,500.65698604072065" />
  <polygon fill="steelblue" points="169.0961894323342,359.150635094611 169.0961894323342,99.34301395927938 428.9038105676658,24.343013959279347 428.9038105676658,284.15063509461095" />
  <polygon fill="lightskyblue" points="678.9038105676658,500.65698604072065 678.9038105676658,240.84936490538902 428.9038105676658,24.343013959279347 428.9038105676658,284.15063509461095" />
  <polygon fill="white" points="568.9038105676658,405.3941916244323 568.9038105676658,232.18911086754463 538.9038105676658,206.20834875401147 538.9038105676658,379.4134295108992" />
  <polygon fill="white" points="199.40707856478957,281.1186027918559 199.40707856478957,211.83657048910078 242.7083487540115,199.33657048910078 242.7083487540115,268.6186027918559" />
  <polygon fill="white" points="251.36860279185586,266.1186027918559 251.36860279185586,196.83657048910078 294.6698729810778,184.33657048910078 294.6698729810778,253.61860279185586" />
  <polygon fill="white" points="303.3301270189222,251.11860279185586 303.33012701892216,181.83657048910078 346.6313972081441,169.33657048910075 346.6313972081441,238.61860279185584" />
  <polygon fill="white" points="355.29165124598853,236.11860279185584 355.29165124598853,166.83657048910078 398.5929214352104,154.33657048910075 398.5929214352104,223.61860279185584" />
</svg>
