<?xml version="1.0" encoding="UTF-8"?>
<svg
  xmlns="http://www.w3.org/2000/svg"
  width="848"
  height="600"
  style="background-color:white"
>
  <polygon fill="lightblue" points="420.5115338050764,557.7036968016134 242.6668685805732,403.6856987896548 427.48846619492366,350.33229922230385 605.3331314194268,504.3502972342625" />
  <polygon fill="steelblue" points="242.6668685805732,403.6856987896548 242.6668685805732,95.64970276573752 427.4884661949236,42.29630319838651 427.48846619492366,350.33229922230385" />
  <polygon fill="lightskyblue" points="605.3331314194268,504.3502972342625 605.3331314194268,196.3143012103452 427.4884661949236,42.29630319838651 427.48846619492366,350.33229922230385" />
  <polygon fill="white" points="527.0814787206454,436.5823781090007 527.0814787206454,313.36797969943376 505.740118893705,294.88581993799875 505.740118893705,418.10021834756566" />
  <polygon fill="white" points="273.47046818296496,345.50770616460284 273.47046818296496,296.2219468007761 304.2740677853567,287.32971353955094 304.2740677853567,336.61547290337774" />
  <polygon fill="white" points="319.67586758655256,332.1693562727651 319.67586758655256,282.88359690893833 350.4794671889443,273.9913636477132 350.4794671889443,323.27712301153997" />
  <polygon fill="white" points="365.88126699014015,318.8310063809274 365.88126699014015,269.5452470171006 396.6848665925319,260.65301375587546 396.6848665925319,309.93877311970226" />
  <polygon fill="grey" points="414.4693331149822,109.71537570415597 414.4693331149822,78.91177610176425 445.2729327173739,70.01954284053909 445.2729327173739,100.82314244293082" />
  <polygon fill="lightgrey" points="414.4693331149822,109.71537570415597 414.4693331149822,78.91177610176425 396.6848665925319,63.50997630056838 396.6848665925319,94.31357590296014" />
  <polygon fill="darkgrey" points="414.4693331149822,78.91177610176425 396.6848665925319,63.50997630056838 427.4884661949236,54.617743039343225 445.2729327173739,70.01954284053909" />
  <polygon fill="hsl(324.0,50.0%,51.426934746249444%)" points="447.7620689660569,475.5240711244051 447.7620689660569,433.21224671055984 455.15493287063094,431.0781107278658 455.15493287063094,473.389935141711" />
  <polygon fill="hsl(324.0,50.0%,51.426934746249444%)" points="466.24422872749193,470.18873116766997 466.24422872749193,427.87690675382476 458.85136482291796,430.0110427365188 458.85136482291796,472.32286715036406" />
  <polygon fill="hsl(324.0,50.0%,51.426934746249444%)" points="440.3692050614829,435.7653116478464 440.3692050614829,393.8724161885936 446.8379609779852,392.00504720373635 446.8379609779852,433.89794266298907" />
  <polygon fill="hsl(324.0,50.0%,51.426934746249444%)" points="467.16833671556367,428.02906871058053 467.16833671556367,386.1361732513277 473.63709263206596,384.26880426647045 473.63709263206596,426.1616997257232" />
  <polygon fill="hsl(324.0,50.0%,51.426934746249444%)" points="446.8379609779852,398.4738031202386 446.8379609779852,392.00504720373635 467.16833671556367,386.1361732513277 467.16833671556367,392.60492916783" />
  <polygon fill="hsl(324.0,50.0%,51.426934746249444%)" points="447.7620689660569,433.63117566515234 447.7620689660569,391.7382802058996 466.24422872749193,386.4029402491645 466.24422872749193,428.29583570841726" />
  <polygon fill="hsl(324.0,50.0%,51.426934746249444%)" points="452.38260890641567,388.30980044375315 452.38260890641567,369.4579974870894 461.6236887871332,366.79032750872193 461.6236887871332,385.64213046538566" />
  <polygon fill="hsl(324.0,50.0%,51.426934746249444%)" points="454.2308248825592,389.8709112210423 454.2308248825592,368.92446349141596 459.7754728109897,367.3238615043954 459.7754728109897,388.2703092340218" />
</svg>
