<?xml version="1.0" encoding="UTF-8"?>
<svg
  xmlns="http://www.w3.org/2000/svg"
  width="848"
  height="600"
  style="background-color:white"
>
  <polygon fill="lightblue" points="420.7172276250434,571.4957605112269 253.358990104501,426.55927528584715 427.28277237495666,376.35180402968444 594.641009895499,521.2882892550642" />
  <polygon fill="steelblue" points="253.358990104501,426.55927528584715 253.358990104501,78.71171074493583 427.2827723749566,28.504239488773123 427.28277237495666,376.35180402968444" />
  <polygon fill="lightskyblue" points="594.641009895499,521.2882892550642 594.641009895499,173.44072471415285 427.2827723749566,28.504239488773123 427.28277237495666,376.35180402968444" />
  <polygon fill="white" points="521.0033853864604,457.516235755897 521.0033853864604,341.5670475755933 500.9203968839953,324.17466934854775 500.9203968839953,440.12385752885154" />
  <polygon fill="white" points="325.82723271719084,359.25982032365783 325.82723271719084,312.8801450515363 354.8145297622668,304.5122331755092 354.8145297622668,350.8919084476307" />
  <polygon fill="grey" points="415.03129908193495,91.94801575044457 415.03129908193495,62.960718705368635 444.0185961270109,54.5928068293415 444.0185961270109,83.58010387441743" />
  <polygon fill="lightgrey" points="415.03129908193495,91.94801575044457 415.03129908193495,62.960718705368635 398.2954753298807,48.46707018283067 398.2954753298807,77.45436722790657" />
  <polygon fill="darkgrey" points="415.03129908193495,62.960718705368635 398.2954753298807,48.46707018283067 427.2827723749566,40.09915830680353 444.0185961270109,54.5928068293415" />
  <polygon fill="hsl(288.0,50.0%,51.426934746249444%)" points="446.3609630178153,494.1617719090173 446.3609630178153,454.344820687901 453.31791430863353,452.3365218376545 453.31791430863353,492.1534730587708" />
  <polygon fill="hsl(288.0,50.0%,51.426934746249444%)" points="463.7533412448609,489.141024783401 463.7533412448609,449.32407356228475 456.79638995404264,451.33237241253124 456.79638995404264,491.14932363364755" />
  <polygon fill="hsl(288.0,50.0%,51.426934746249444%)" points="439.4040117269971,456.7473467779605 439.4040117269971,417.3246227966572 445.49134410646303,415.56736130269155 445.49134410646303,454.99008528399486" />
  <polygon fill="hsl(288.0,50.0%,51.426934746249444%)" points="464.62296015621314,449.4672634458169 464.62296015621314,410.04453946451366 470.7102925356791,408.28727797054796 470.7102925356791,447.71000195185127" />
  <polygon fill="hsl(288.0,50.0%,51.426934746249444%)" points="445.49134410646303,421.6546936821575 445.49134410646303,415.56736130269155 464.62296015621314,410.04453946451366 464.62296015621314,416.1318718439796" />
  <polygon fill="hsl(288.0,50.0%,51.426934746249444%)" points="446.3609630178153,454.739047927714 446.3609630178153,415.31632394641076 463.75334124486085,410.29557682079445 463.7533412448609,449.7183008020977" />
  <polygon fill="hsl(288.0,50.0%,51.426934746249444%)" points="450.7090575745767,412.0900009659415 450.7090575745767,394.34977517435505 459.4052466880995,391.8394016115469 459.4052466880995,409.5796274031334" />
  <polygon fill="hsl(288.0,50.0%,51.426934746249444%)" points="452.4482953972813,413.559062452445 452.4482953972813,393.8477004617934 457.66600886539493,392.3414763241085 457.66600886539493,412.05283831476015" />
</svg>
