<?xml version="1.0" encoding="UTF-8"?>
<svg
  xmlns="http://www.w3.org/2000/svg"
  width="848"
  height="600"
  style="background-color:white"
>
  <polygon fill="lightblue" points="419.0961894323342,705.5607966083865 169.0961894323342,489.05444566227675 428.9038105676658,414.05444566227675 678.9038105676658,630.5607966083865" />
  <polygon fill="steelblue" points="169.0961894323342,489.05444566227675 169.0961894323342,-30.560796608386454 428.9038105676658,-105.56079660838645 428.9038105676658,414.05444566227675" />
  <polygon fill="lightskyblue" points="678.9038105676658,630.5607966083865 678.9038105676658,110.94555433772325 428.9038105676658,-105.56079660838645 428.9038105676658,414.05444566227675" />
  <polygon fill="white" points="568.9038105676658,535.2980021920981 568.9038105676658,362.0929214352104 538.9038105676658,336.11215932167727 538.9038105676658,509.3172400785651" />
  <polygon fill="white" points="199.40707856478957,411.02241335952164 199.40707856478957,341.7403810567666 242.7083487540115,329.2403810567666 242.7083487540115,398.52241335952164" />
  <polygon fill="white" points="251.3686027918559,396.0224133595217 251.36860279185586,326.7403810567665 294.6698729810778,314.2403810567665 294.6698729810778,383.5224133595217" />
  <polygon fill="white" points="303.3301270189222,381.0224133595217 303.3301270189222,311.7403810567666 346.6313972081441,299.2403810567666 346.6313972081441,368.5224133595217" />
  <polygon fill="white" points="355.29165124598853,366.0224133595217 355.29165124598853,296.7403810567665 398.5929214352104,284.2403810567665 398.5929214352104,353.52241335952164" />
</svg>
