<?xml version="1.0" encoding="UTF-8"?>
<svg
  xmlns="http://www.w3.org/2000/svg"
  width="848"
  height="600"
  style="background-color:white"
>
  <polygon fill="lightblue" points="420.5115338050764,557.7036968016134 242.6668685805732,403.6856987896548 427.48846619492366,350.33229922230385 605.3331314194268,504.3502972342625" />
  <polygon fill="steelblue" points="242.6668685805732,403.6856987896548 242.6668685805732,95.64970276573752 427.4884661949236,42.29630319838651 427.48846619492366,350.33229922230385" />
  <polygon fill="lightskyblue" points="605.3331314194268,504.3502972342625 605.3331314194268,196.3143012103452 427.4884661949236,42.29630319838651 427.48846619492366,350.33229922230385" />
  <polygon fill="white" points="497.4407011832282,410.91271177367423 497.4407011832282,287.6983133641073 476.0993413562878,269.2161536026723 476.0993413562878,392.4305520122392" />
  <polygon fill="white" points="556.7222562580625,462.2520444443271 556.7222562580625,339.0376460347602 535.3808964311222,320.5554862733252 535.3808964311222,443.7698846828921" />
  <polygon fill="white" points="264.22938830224746,348.17537614297044 264.22938830224746,298.88961677914364 295.0329879046392,289.9973835179185 295.0329879046392,339.2831428817453" />
  <polygon fill="white" points="301.19370782511754,337.50469622950027 301.1937078251175,288.21893686567347 331.9973074275092,279.3267036044483 331.9973074275092,328.61246296827505" />
  <polygon fill="white" points="338.1580273479876,326.83401631603004 338.1580273479876,277.54825695220325 368.9616269503793,268.6560236909781 368.9616269503793,317.9417830548049" />
  <polygon fill="white" points="375.12234687085765,316.1633364025598 375.12234687085765,266.8775770387331 405.9259464732494,257.9853437775079 405.9259464732494,307.27110314133466" />
  <polygon fill="hsl(324.0,50.0%,73.05567488056998%)" points="351.4837687198043,414.48481560631313 351.4837687198043,372.17299119246786 358.8766326243783,370.0388552097738 358.8766326243783,412.3506796236191" />
  <polygon fill="hsl(324.0,50.0%,73.05567488056998%)" points="369.9659284812393,409.149475649578 369.9659284812393,366.8376512357328 362.57306457666533,368.9717872184268 362.57306457666533,411.283611632272" />
  <polygon fill="hsl(324.0,50.0%,73.05567488056998%)" points="344.09090481523026,374.7260561297544 344.09090481523026,332.8331606705017 350.55966073173255,330.9657916856444 350.55966073173255,372.8586871448971" />
  <polygon fill="hsl(324.0,50.0%,73.05567488056998%)" points="370.89003646931104,366.98981319248855 370.89003646931104,325.0969177332358 377.35879238581333,323.2295487483785 377.35879238581333,365.12244420763125" />
  <polygon fill="hsl(324.0,50.0%,73.05567488056998%)" points="350.55966073173255,337.4345476021466 350.55966073173255,330.9657916856444 370.89003646931104,325.0969177332358 370.89003646931104,331.565673649738" />
  <polygon fill="hsl(324.0,50.0%,73.05567488056998%)" points="351.4837687198043,372.59192014706036 351.4837687198043,330.6990246878076 369.9659284812393,325.3636847310725 369.9659284812393,367.2565801903253" />
  <polygon fill="hsl(324.0,50.0%,73.05567488056998%)" points="356.10430866016304,327.2705449256612 356.10430866016304,308.4187419689975 365.34538854088055,305.75107199062995 365.34538854088055,324.6028749472937" />
  <polygon fill="hsl(324.0,50.0%,73.05567488056998%)" points="357.9525246363065,328.83165570295034 357.9525246363065,307.885207973324 363.49717256473707,306.28460598630346 363.49717256473707,327.2310537159298" />
  <polygon fill="hsl(324.0,50.0%,70.71600065166498%)" points="390.01479567432204,412.9712513004379 390.01479567432204,370.65942688659266 397.4076595788961,368.5252909038986 397.4076595788961,410.8371153177439" />
  <polygon fill="hsl(324.0,50.0%,70.71600065166498%)" points="408.4969554357571,407.63591134370284 408.4969554357571,365.3240869298576 401.1040915311831,367.4582229125516 401.1040915311831,409.7700473263969" />
  <polygon fill="hsl(324.0,50.0%,70.71600065166498%)" points="382.6219317697481,373.2124918238792 382.6219317697481,331.3195963646265 389.0906876862503,329.45222737976917 389.0906876862503,371.34512283902194" />
  <polygon fill="hsl(324.0,50.0%,70.71600065166498%)" points="409.42106342382885,365.47624888661335 409.42106342382885,323.5833534273606 415.8898193403311,321.7159844425033 415.8898193403311,363.60887990175604" />
  <polygon fill="hsl(324.0,50.0%,70.71600065166498%)" points="389.0906876862503,335.92098329627146 389.0906876862503,329.45222737976917 409.42106342382885,323.5833534273606 409.42106342382885,330.05210934386287" />
  <polygon fill="hsl(324.0,50.0%,70.71600065166498%)" points="390.01479567432204,371.07835584118516 390.01479567432204,329.18546038193244 408.4969554357571,323.85012042519736 408.4969554357571,365.7430158844501" />
  <polygon fill="hsl(324.0,50.0%,70.71600065166498%)" points="394.6353356146808,325.756980619786 394.6353356146808,306.9051776631223 403.87641549539836,304.23750768475475 403.87641549539836,323.0893106414185" />
  <polygon fill="hsl(324.0,50.0%,70.71600065166498%)" points="396.48355159082433,327.31809139707514 396.48355159082433,306.3716436674488 402.0281995192548,304.77104168042825 402.0281995192548,325.7174894100546" />
  <polygon fill="hsl(324.0,50.0%,61.40050862472211%)" points="408.635438331792,445.8560263080137 408.635438331792,403.54420189416845 416.02830223636596,401.41006591147436 416.02830223636596,443.7218903253197" />
  <polygon fill="hsl(324.0,50.0%,61.40050862472211%)" points="427.117598093227,440.52068635127864 427.117598093227,398.2088619374333 419.724734188653,400.3429979201274 419.724734188653,442.6548223339727" />
  <polygon fill="hsl(324.0,50.0%,61.40050862472211%)" points="401.24257442721796,406.097266831455 401.24257442721796,364.2043713722022 407.7113303437202,362.33700238734497 407.7113303437202,404.22989784659774" />
  <polygon fill="hsl(324.0,50.0%,61.40050862472211%)" points="428.04170608129874,398.3610238941891 428.04170608129874,356.4681284349364 434.510461997801,354.60075945007907 434.510461997801,396.49365490933184" />
  <polygon fill="hsl(324.0,50.0%,61.40050862472211%)" points="407.7113303437202,368.8057583038472 407.7113303437202,362.33700238734497 428.04170608129874,356.4681284349364 428.04170608129874,362.9368843514386" />
  <polygon fill="hsl(324.0,50.0%,61.40050862472211%)" points="408.635438331792,403.96313084876095 408.63543833179193,362.0702353895082 427.117598093227,356.7348954327731 427.117598093227,398.62779089202587" />
  <polygon fill="hsl(324.0,50.0%,61.40050862472211%)" points="413.25597827215074,358.64175562736176 413.25597827215074,339.789952670698 422.49705815286825,337.1222826923305 422.49705815286825,355.9740856489942" />
  <polygon fill="hsl(324.0,50.0%,61.40050862472211%)" points="415.1041942482942,360.20286640465093 415.1041942482942,339.2564186750245 420.6488421767247,337.655816688004 420.6488421767247,358.6022644176304" />
  <polygon fill="hsl(324.0,50.0%,60.92125966388783%)" points="417.1000556631017,445.3808475071911 417.1000556631017,403.0690230933459 424.49291956767576,400.9348871106518 424.49291956767576,443.2467115244971" />
  <polygon fill="hsl(324.0,50.0%,60.92125966388783%)" points="435.58221542453674,440.045507550456 435.58221542453674,397.73368313661075 428.18935151996277,399.86781911930484 428.18935151996277,442.17964353315006" />
  <polygon fill="hsl(324.0,50.0%,60.92125966388783%)" points="409.7071917585277,405.6220880306324 409.7071917585277,363.72919257137966 416.17594767503,361.8618235865224 416.17594767503,403.7547190457751" />
  <polygon fill="hsl(324.0,50.0%,60.92125966388783%)" points="436.5063234126085,397.8858450933665 436.5063234126085,355.99294963411376 442.97507932911077,354.1255806492565 442.97507932911077,396.0184761085093" />
  <polygon fill="hsl(324.0,50.0%,60.92125966388783%)" points="416.17594767503,368.33057950302464 416.17594767503,361.8618235865224 436.5063234126085,355.99294963411376 436.5063234126085,362.46170555061605" />
  <polygon fill="hsl(324.0,50.0%,60.92125966388783%)" points="417.1000556631017,403.4879520479384 417.1000556631017,361.5950565886856 435.58221542453674,356.25971663195054 435.58221542453674,398.1526120912033" />
  <polygon fill="hsl(324.0,50.0%,60.92125966388783%)" points="421.7205956034605,358.1665768265392 421.7205956034605,339.31477386987547 430.961675484178,336.6471038915079 430.961675484178,355.49890684817166" />
  <polygon fill="hsl(324.0,50.0%,60.92125966388783%)" points="423.568811579604,359.7276876038284 423.568811579604,338.78123987420196 429.1134595080345,337.18063788718143 429.1134595080345,358.1270856168078" />
  <polygon fill="hsl(324.0,50.0%,51.426934746249444%)" points="447.7620689660569,475.5240711244051 447.7620689660569,433.21224671055984 455.15493287063094,431.0781107278658 455.15493287063094,473.389935141711" />
  <polygon fill="hsl(324.0,50.0%,51.426934746249444%)" points="466.24422872749193,470.18873116766997 466.24422872749193,427.87690675382476 458.85136482291796,430.0110427365188 458.85136482291796,472.32286715036406" />
  <polygon fill="hsl(324.0,50.0%,51.426934746249444%)" points="440.3692050614829,435.7653116478464 440.3692050614829,393.8724161885936 446.8379609779852,392.00504720373635 446.8379609779852,433.89794266298907" />
  <polygon fill="hsl(324.0,50.0%,51.426934746249444%)" points="467.16833671556367,428.02906871058053 467.16833671556367,386.1361732513277 473.63709263206596,384.26880426647045 473.63709263206596,426.1616997257232" />
  <polygon fill="hsl(324.0,50.0%,51.426934746249444%)" points="446.8379609779852,398.4738031202386 446.8379609779852,392.00504720373635 467.16833671556367,386.1361732513277 467.16833671556367,392.60492916783" />
  <polygon fill="hsl(324.0,50.0%,51.426934746249444%)" points="447.7620689660569,433.63117566515234 447.7620689660569,391.7382802058996 466.24422872749193,386.4029402491645 466.24422872749193,428.29583570841726" />
  <polygon fill="hsl(324.0,50.0%,51.426934746249444%)" points="452.38260890641567,388.30980044375315 452.38260890641567,369.4579974870894 461.6236887871332,366.79032750872193 461.6236887871332,385.64213046538566" />
  <polygon fill="hsl(324.0,50.0%,51.426934746249444%)" points="454.2308248825592,389.8709112210423 454.2308248825592,368.92446349141596 459.7754728109897,367.3238615043954 459.7754728109897,388.2703092340218" />
</svg>
