<?xml version="1.0" encoding="UTF-8"?>
<svg
  xmlns="http://www.w3.org/2000/svg"
  width="848"
  height="600"
  style="background-color:white"
>
  <polygon fill="lightblue" points="419.8639659827787,532.4981064453721 209.0057996573414,349.88957781213895 428.1360340172213,286.6321279145077 638.9942003426586,469.24065654774085" />
  <polygon fill="steelblue" points="209.0057996573414,349.88957781213895 209.0057996573414,130.75934345225912 428.1360340172213,67.50189355462788 428.1360340172213,286.6321279145077" />
  <polygon fill="lightskyblue" points="638.9942003426586,469.24065654774085 638.9942003426586,250.11042218786108 428.1360340172213,67.50189355462788 428.1360340172213,286.6321279145077" />
  <polygon fill="white" points="546.2166071594661,388.89290394911825 546.2166071594661,242.80608104253173 520.9136272004137,220.89305760654378 520.9136272004137,366.9798805131303" />
  <polygon fill="white" points="222.0492659882867,287.68952425083575 222.0492659882867,229.25479508820115 258.5709717149333,218.71188677192927 258.5709717149333,277.1466159345639" />
  <polygon fill="white" points="253.35358518255524,278.6527456940313 253.35358518255524,220.2180165313967 289.87529090920185,209.67510821512482 289.87529090920185,268.10983737775945" />
  <polygon fill="white" points="284.6579043768237,269.61596713722685 284.6579043768237,211.18123797459225 321.1796101034704,200.63832965832037 321.1796101034704,259.073058820955" />
  <polygon fill="white" points="315.9622235710923,260.5791885804224 315.9622235710923,202.14445941778777 352.48392929773894,191.6015511015159 352.48392929773894,250.03628026415052" />
  <polygon fill="white" points="347.26654276536084,251.54241002361795 347.26654276536084,193.1076808609833 383.7882484920075,182.56477254471145 383.7882484920075,240.99950170734604" />
  <polygon fill="white" points="378.5708619596294,242.50563146681347 378.5708619596294,184.07090230417884 415.09256768627597,173.527993987907 415.09256768627597,231.9627231505416" />
</svg>
