<?xml version="1.0" encoding="UTF-8"?>
<svg
  xmlns="http://www.w3.org/2000/svg"
  width="848"
  height="600"
  style="background-color:white"
>
  <polygon fill="lightblue" points="419.8639659827787,532.4981064453721 209.0057996573414,349.88957781213895 428.1360340172213,286.6321279145077 638.9942003426586,469.24065654774085" />
  <polygon fill="steelblue" points="209.0057996573414,349.88957781213895 209.0057996573414,130.75934345225912 428.1360340172213,67.50189355462788 428.1360340172213,286.6321279145077" />
  <polygon fill="lightskyblue" points="638.9942003426586,469.24065654774085 638.9942003426586,250.11042218786108 428.1360340172213,67.50189355462788 428.1360340172213,286.6321279145077" />
  <polygon fill="white" points="546.2166071594661,388.89290394911825 546.2166071594661,242.80608104253173 520.9136272004137,220.89305760654378 520.9136272004137,366.9798805131303" />
  <polygon fill="white" points="222.0492659882867,287.68952425083575 222.0492659882867,229.25479508820115 258.5709717149333,218.71188677192927 258.5709717149333,277.1466159345639" />
  <polygon fill="white" points="253.35358518255524,278.6527456940313 253.35358518255524,220.2180165313967 289.87529090920185,209.67510821512482 289.87529090920185,268.10983737775945" />
  <polygon fill="white" points="284.6579043768237,269.61596713722685 284.6579043768237,211.18123797459225 321.1796101034704,200.63832965832037 321.1796101034704,259.073058820955" />
  <polygon fill="white" points="315.9622235710923,260.5791885804224 315.9622235710923,202.14445941778777 352.48392929773894,191.6015511015159 352.48392929773894,250.03628026415052" />
  <polygon fill="white" points="347.26654276536084,251.54241002361795 347.26654276536084,193.1076808609833 383.7882484920075,182.56477254471145 383.7882484920075,240.99950170734604" />
  <polygon fill="white" points="378.5708619596294,242.50563146681347 378.5708619596294,184.07090230417884 415.09256768627597,173.527993987907 415.09256768627597,231.9627231505416" />
  <polygon fill="antiquewhite" points="494.24207736985903,437.2998870248814 494.24207736985903,313.1260875542828 523.4594419511764,304.6917609012653 523.4594419511764,428.86556037186386" />
  <polygon fill="beige" points="494.24207736985903,437.2998870248814 494.24207736985903,313.1260875542828 477.373424063824,298.51740526362414 477.3734240638241,422.6912047342227" />
  <polygon fill="bisque" points="494.24207736985903,313.1260875542828 477.373424063824,298.51740526362414 506.59078864514134,290.08307861060666 523.4594419511764,304.6917609012653" />
  <polygon fill="antiquewhite" points="433.4711261290309,510.3396707212597 433.47112612903084,386.16587125066116 462.68849071034816,377.7315445976436 462.68849071034816,501.90534406824224" />
  <polygon fill="beige" points="433.4711261290309,510.3396707212597 433.47112612903084,386.16587125066116 416.6024728229959,371.55718896000246 416.6024728229959,495.73098843060103" />
  <polygon fill="bisque" points="433.47112612903084,386.16587125066116 416.6024728229959,371.55718896000246 445.81983740431315,363.122862306985 462.68849071034816,377.7315445976436" />
  <polygon fill="antiquewhite" points="404.4198106055131,322.3354242247943 404.419810605513,198.16162475419569 433.6371751868304,189.72729810117818 433.6371751868304,313.90109757177675" />
  <polygon fill="beige" points="404.4198106055131,322.3354242247943 404.419810605513,198.16162475419569 387.55115729947806,183.55294246353702 387.55115729947806,307.7267419341356" />
  <polygon fill="bisque" points="404.419810605513,198.16162475419569 387.55115729947806,183.55294246353702 416.7685218807954,175.11861581051954 433.6371751868304,189.72729810117818" />
  <polygon fill="antiquewhite" points="401.4640893975466,363.3462586313334 401.46408939754656,239.1724591607348 430.6814539788639,230.7381325077173 430.6814539788639,354.91193197831586" />
  <polygon fill="beige" points="401.4640893975466,363.3462586313334 401.46408939754656,239.1724591607348 384.5954360915116,224.56377687007614 384.5954360915116,348.7375763406747" />
  <polygon fill="bisque" points="401.46408939754656,239.1724591607348 384.5954360915116,224.56377687007614 413.8128006728289,216.12945021705863 430.6814539788639,230.7381325077173" />
  <polygon fill="antiquewhite" points="350.9451682637614,332.88192799428896 350.9451682637614,208.7081285236904 380.16253284507866,200.2738018706729 380.16253284507866,324.4476013412715" />
  <polygon fill="beige" points="350.9451682637614,332.88192799428896 350.9451682637614,208.7081285236904 334.0765149577264,194.09944623303173 334.0765149577264,318.27324570363027" />
  <polygon fill="bisque" points="350.9451682637614,208.7081285236904 334.0765149577264,194.09944623303173 363.2938795390437,185.66511958001422 380.16253284507866,200.2738018706729" />
</svg>
