<?xml version="1.0" encoding="UTF-8"?>
<svg
  xmlns="http://www.w3.org/2000/svg"
  width="848"
  height="600"
  style="background-color:white"
>
  <polygon fill="lightblue" points="420.24216370732654,544.4207202888047 228.66480560893825,378.50986138569203 427.75783629267346,321.03665395617554 619.3351943910618,486.9475128592883" />
  <polygon fill="steelblue" points="228.66480560893825,378.50986138569203 228.66480560893825,113.05248714071175 427.75783629267346,55.579279711195284 427.75783629267346,321.03665395617554" />
  <polygon fill="lightskyblue" points="619.3351943910618,486.9475128592883 619.3351943910618,221.49013861430797 427.75783629267346,55.579279711195284 427.75783629267346,321.03665395617554" />
  <polygon fill="white" points="535.0411568277709,413.94673494191863 535.0411568277709,281.21804781942853 512.0518738559643,261.308744751055 512.0518738559643,394.03743187354513" />
  <polygon fill="white" points="240.5155812448749,321.9973622849391 240.5155812448749,268.905887435943 273.69775302549743,259.32701953102355 273.69775302549743,312.41849438001964" />
  <polygon fill="white" points="268.9574427711228,313.7869040807224 268.9574427711228,260.69542923172634 302.1396145517453,251.11656132680693 302.1396145517453,304.208036175803" />
  <polygon fill="white" points="297.39930429737063,305.5764458765058 297.39930429737063,252.4849710275097 330.5814760779932,242.90610312259028 330.5814760779932,295.99757797158634" />
  <polygon fill="white" points="325.84116582361855,297.3659876722891 325.84116582361855,244.27451282329304 359.0233376042411,234.69564491837366 359.0233376042411,287.7871197673697" />
  <polygon fill="white" points="354.2830273498664,289.1555294680725 354.2830273498664,236.06405461907642 387.46519913048894,226.485186714157 387.465199130489,279.57666156315304" />
  <polygon fill="white" points="382.72488887611433,280.9450712638558 382.7248888761143,227.8535964148598 415.90706065673686,218.27472850994036 415.90706065673686,271.3662033589364" />
  <polygon fill="antiquewhite" points="487.8191626360396,457.9273978338416 487.8191626360396,345.108013779725 514.3649000605377,337.44491945578943 514.3649000605377,450.2643035099061" />
  <polygon fill="beige" points="487.8191626360396,457.9273978338416 487.8191626360396,345.108013779725 472.49297398816856,331.835145067476 472.49297398816856,444.65452912159265" />
  <polygon fill="bisque" points="487.8191626360396,345.108013779725 472.49297398816856,331.835145067476 499.0387114126666,324.17205074354047 514.3649000605377,337.44491945578943" />
</svg>
