<?xml version="1.0" encoding="UTF-8"?>
<svg
  xmlns="http://www.w3.org/2000/svg"
  width="848"
  height="600"
  style="background-color:white"
>
  <polygon fill="lightblue" points="419.8639659827787,532.4981064453721 209.0057996573414,349.88957781213895 428.1360340172213,286.6321279145077 638.9942003426586,469.24065654774085" />
  <polygon fill="steelblue" points="209.0057996573414,349.88957781213895 209.0057996573414,130.75934345225912 428.1360340172213,67.50189355462788 428.1360340172213,286.6321279145077" />
  <polygon fill="lightskyblue" points="638.9942003426586,469.24065654774085 638.9942003426586,250.11042218786108 428.1360340172213,67.50189355462788 428.1360340172213,286.6321279145077" />
  <polygon fill="white" points="234.57099366599408,284.074812828114 234.57099366599408,225.64008366547938 271.0926993926407,215.0971753492075 271.0926993926407,273.53190451184213" />
  <polygon fill="white" points="278.39704053797004,271.42332284858776 278.39704053797004,212.9885936859531 314.9187462646167,202.44568536968126 314.9187462646167,260.88041453231585" />
  <polygon fill="white" points="322.223087409946,258.7718328690615 322.22308740994595,200.3371037064269 358.74479313659265,189.794195390155 358.74479313659265,248.22892455278964" />
  <polygon fill="white" points="366.04913428192197,246.12034288953527 366.04913428192197,187.68561372690064 402.5708400085686,177.14270541062876 402.5708400085686,235.5774345732634" />
  <polygon fill="hsl(324.0,50.0%,70.71600065166498%)" points="383.7060847607565,360.8988176635041 383.7060847607565,310.73260267738226 392.47129413515165,308.202304681477 392.47129413515165,358.36851966759883" />
  <polygon fill="hsl(324.0,50.0%,70.71600065166498%)" points="405.61910819674443,354.57307267374097 405.61910819674443,304.40685768761915 396.85389882234927,306.9371556835244 396.85389882234927,357.1033706696462" />
  <polygon fill="hsl(324.0,50.0%,70.71600065166498%)" points="374.9408753863613,313.7595958711699 374.9408753863613,264.09007608293047 382.6104335889571,261.87606533651336 382.6104335889571,311.5455851247528" />
  <polygon fill="hsl(324.0,50.0%,70.71600065166498%)" points="406.7147593685438,304.5872656360134 406.7147593685438,254.91774584777394 414.3843175711396,252.70373510135687 414.3843175711396,302.3732548895963" />
  <polygon fill="hsl(324.0,50.0%,70.71600065166498%)" points="382.6104335889571,269.54562353910916 382.6104335889571,261.87606533651336 406.7147593685438,254.91774584777394 406.7147593685438,262.58730405036977" />
  <polygon fill="hsl(324.0,50.0%,70.71600065166498%)" points="383.7060847607565,311.22929787526465 383.7060847607565,261.5597780870252 405.61910819674443,255.2340330972621 405.61910819674443,304.90355288550154" />
  <polygon fill="hsl(324.0,50.0%,70.71600065166498%)" points="389.18434061975347,257.49486585017246 389.18434061975347,235.14358194546475 400.14085233774745,231.98070945058316 400.14085233774745,254.33199335529093" />
  <polygon fill="hsl(324.0,50.0%,70.71600065166498%)" points="391.3756429633523,259.3457673406081 391.3756429633523,234.51100744648843 397.94954999414864,232.6132839495595 397.94954999414864,257.4480438436792" />
  <polygon fill="hsl(324.0,50.0%,61.40050862472211%)" points="405.7832978253087,399.88802967820686 405.7832978253087,349.72181469208505 414.5485071997039,347.1915166961798 414.5485071997039,397.3577316823016" />
  <polygon fill="hsl(324.0,50.0%,61.40050862472211%)" points="427.6963212612967,393.56228468844375 427.6963212612967,343.39606970232194 418.9311118869015,345.9263676982272 418.9311118869015,396.092582684349" />
  <polygon fill="hsl(324.0,50.0%,61.40050862472211%)" points="397.0180884509135,352.7488078858727 397.0180884509135,303.07928809763325 404.6876466535093,300.86527735121615 404.6876466535093,350.5347971394556" />
  <polygon fill="hsl(324.0,50.0%,61.40050862472211%)" points="428.7919724330961,343.57647765071613 428.7919724330961,293.90695786247676 436.4615306356919,291.69294711605966 436.4615306356919,341.3624669042991" />
  <polygon fill="hsl(324.0,50.0%,61.40050862472211%)" points="404.6876466535093,308.53483555381194 404.6876466535093,300.86527735121615 428.7919724330961,293.90695786247676 428.7919724330961,301.57651606507255" />
  <polygon fill="hsl(324.0,50.0%,61.40050862472211%)" points="405.7832978253087,350.21850988996744 405.7832978253087,300.548990101728 427.6963212612967,294.2232451119649 427.6963212612967,343.8927649002043" />
  <polygon fill="hsl(324.0,50.0%,61.40050862472211%)" points="411.2615536843057,296.48407786487525 411.2615536843057,274.13279396016753 422.2180654022997,270.969921465286 422.2180654022997,293.3212053699937" />
  <polygon fill="hsl(324.0,50.0%,61.40050862472211%)" points="413.4528560279045,298.3349793553109 413.4528560279045,273.5002194611912 420.0267630587009,271.6024959642623 420.0267630587009,296.437255858382" />
  <polygon fill="hsl(324.0,50.0%,51.426934746249444%)" points="452.1730480020663,435.0633863331181 452.1730480020663,384.8971713469963 460.9382573764615,382.366873351091 460.9382573764615,432.53308833721286" />
  <polygon fill="hsl(324.0,50.0%,51.426934746249444%)" points="474.08607143805426,428.737641343355 474.08607143805426,378.5714263572331 465.3208620636591,381.10172435313837 465.3208620636591,431.26793933926024" />
  <polygon fill="hsl(324.0,50.0%,51.426934746249444%)" points="443.40783862767114,387.9241645407839 443.40783862767114,338.2546447525445 451.07739683026693,336.0406340061274 451.07739683026693,385.7101537943668" />
  <polygon fill="hsl(324.0,50.0%,51.426934746249444%)" points="475.1817226098537,378.75183430562737 475.18172260985364,329.08231451738794 482.85128081244943,326.86830377097084 482.85128081244943,376.5378235592103" />
  <polygon fill="hsl(324.0,50.0%,51.426934746249444%)" points="451.07739683026693,343.7101922087232 451.07739683026693,336.0406340061274 475.18172260985364,329.08231451738794 475.18172260985364,336.75187271998374" />
  <polygon fill="hsl(324.0,50.0%,51.426934746249444%)" points="452.1730480020663,385.3938665448787 452.1730480020663,335.72434675663925 474.08607143805426,329.39860176687614 474.08607143805426,379.06812155511557" />
  <polygon fill="hsl(324.0,50.0%,51.426934746249444%)" points="457.6513038610633,331.6594345197865 457.6513038610633,309.3081506150788 468.6078155790573,306.1452781201972 468.6078155790573,328.4965620249049" />
  <polygon fill="hsl(324.0,50.0%,51.426934746249444%)" points="459.8426062046621,333.51033601022215 459.8426062046621,308.67557611610243 466.41651323545847,306.77785261917353 466.41651323545847,331.6126125132932" />
</svg>
