<?xml version="1.0" encoding="UTF-8"?>
<svg
  xmlns="http://www.w3.org/2000/svg"
  width="848"
  height="600"
  style="background-color:white"
>
  <polygon fill="lightblue" points="420.71042386657524,513.9637028744842 253.005325554091,368.726827391706 427.28957613342476,318.4152978979608 594.994674445909,463.6521733807389" />
  <polygon fill="steelblue" points="253.005325554091,368.726827391706 253.005325554091,136.3478266192611 427.28957613342476,86.03629712551583 427.28957613342476,318.4152978979608" />
  <polygon fill="lightskyblue" points="594.994674445909,463.6521733807389 594.994674445909,231.27317260829395 427.28957613342476,86.03629712551583 427.28957613342476,318.4152978979608" />
  <polygon fill="white" points="521.2044311884159,399.7479481683165 521.2044311884159,283.55844778209405 501.0798193909178,266.13002272416065 501.0798193909178,382.31952311038316" />
  <polygon fill="white" points="267.5290131023688,318.05839977940497 267.5290131023688,271.58259962491593 296.57638819892446,263.19734470929177 296.57638819892446,309.67314486378075" />
  <polygon fill="white" points="296.57638819892446,309.67314486378075 296.57638819892446,263.19734470929177 325.6237632954801,254.81208979366752 325.6237632954801,301.28788994815653" />
  <polygon fill="white" points="325.6237632954801,301.28788994815653 325.6237632954801,254.81208979366752 354.6711383920357,246.4268348780433 354.6711383920357,292.9026350325323" />
  <polygon fill="white" points="354.6711383920357,292.9026350325323 354.6711383920357,246.4268348780433 383.7185134885913,238.0415799624191 383.7185134885913,284.5173801169081" />
  <polygon fill="white" points="383.7185134885913,284.5173801169081 383.7185134885913,238.0415799624191 412.76588858514697,229.65632504679488 412.76588858514697,276.1321252012839" />
</svg>
