<?xml version="1.0" encoding="UTF-8"?>
<svg
  xmlns="http://www.w3.org/2000/svg"
  width="848"
  height="600"
  style="background-color:white"
>
  <polygon fill="lightblue" points="421.31407233435726,522.134796742178 284.38343295806567,403.5493844858637 426.6859276656428,362.4701926729762 563.6165670419343,481.05560492929044" />
  <polygon fill="steelblue" points="284.38343295806567,403.5493844858637 284.38343295806567,118.94439507070953 426.68592766564274,77.86520325782209 426.6859276656428,362.4701926729762" />
  <polygon fill="lightskyblue" points="563.6165670419343,481.05560492929044 563.6165670419343,196.45061551413633 426.68592766564274,77.86520325782209 426.6859276656428,362.4701926729762" />
  <polygon fill="white" points="503.36708571636603,428.87802353651216 503.36708571636603,334.0096937314608 486.93540899121103,319.7794442607031 486.93540899121103,414.6477740657545" />
  <polygon fill="white" points="300.9853906739497,360.8094801856729 300.9853906739497,322.8621482636524 324.7024731252126,316.0156162948378 324.7024731252126,353.96294821685836" />
  <polygon fill="white" points="329.44588961546515,352.5936418230954 329.4458896154651,314.64630990107486 353.16297206672795,307.79977793226027 353.16297206672795,345.74710985428084" />
  <polygon fill="white" points="357.9063885569805,344.37780346051795 357.9063885569805,306.4304715384974 381.62347100824337,299.5839395696828 381.62347100824337,337.53127149170336" />
  <polygon fill="white" points="386.36688749849594,336.1619650979404 386.36688749849594,298.21463317591986 410.0839699497588,291.3681012071053 410.0839699497588,329.3154331291259" />
</svg>
