<?xml version="1.0" encoding="UTF-8"?>
<svg
  xmlns="http://www.w3.org/2000/svg"
  width="848"
  height="600"
  style="background-color:white"
>
  <polygon fill="lightblue" points="419.0961894323342,662.2595264191646 169.0961894323342,445.7531754730548 428.9038105676658,370.75317547305474 678.9038105676658,587.2595264191644" />
  <polygon fill="steelblue" points="169.0961894323342,445.7531754730548 169.0961894323342,12.740473580835555 428.9038105676658,-62.2595264191645 428.9038105676658,370.75317547305474" />
  <polygon fill="lightskyblue" points="678.9038105676658,587.2595264191644 678.9038105676658,154.2468245269452 428.9038105676658,-62.2595264191645 428.9038105676658,370.75317547305474" />
  <polygon fill="white" points="568.9038105676658,491.99673200287623 568.9038105676658,318.7916512459885 538.9038105676658,292.8108891324553 538.9038105676658,466.01596988934307" />
  <polygon fill="white" points="184.56092878562777,372.006857456014 184.56092878562777,302.72482515325896 227.8621989748497,290.2248251532589 227.8621989748497,359.506857456014" />
  <polygon fill="white" points="221.67630323353228,361.2925717417283 221.67630323353228,292.01053943897324 264.9775734227542,279.5105394389732 264.9775734227542,348.7925717417283" />
  <polygon fill="white" points="258.7916776814368,350.5782860274426 258.7916776814368,281.2962537246875 302.0929478706587,268.79625372468746 302.0929478706587,338.0782860274426" />
  <polygon fill="white" points="295.9070521293413,339.86400031315685 295.9070521293413,270.5819680104018 339.2083223185632,258.08196801040174 339.2083223185632,327.36400031315685" />
  <polygon fill="white" points="333.0224265772458,329.1497145988711 333.0224265772458,259.8676822961161 376.3236967664677,247.36768229611604 376.3236967664677,316.6497145988711" />
  <polygon fill="white" points="370.1378010251503,318.43542888458546 370.1378010251503,249.15339658183035 413.43907121437223,236.65339658183035 413.43907121437223,305.9354288845854" />
</svg>
