<?xml version="1.0" encoding="UTF-8"?>
<svg
  xmlns="http://www.w3.org/2000/svg"
  width="848"
  height="600"
  style="background-color:white"
>
  <polygon fill="lightblue" points="419.8639659827787,532.4981064453721 209.0057996573414,349.88957781213895 428.1360340172213,286.6321279145077 638.9942003426586,469.24065654774085" />
  <polygon fill="steelblue" points="209.0057996573414,349.88957781213895 209.0057996573414,130.75934345225912 428.1360340172213,67.50189355462788 428.1360340172213,286.6321279145077" />
  <polygon fill="lightskyblue" points="638.9942003426586,469.24065654774085 638.9942003426586,250.11042218786108 428.1360340172213,67.50189355462788 428.1360340172213,286.6321279145077" />
  <polygon fill="white" points="546.2166071594661,388.89290394911825 546.2166071594661,242.80608104253173 520.9136272004137,220.89305760654378 520.9136272004137,366.9798805131303" />
  <polygon fill="white" points="245.52750538398809,280.91194033323245 245.52750538398809,222.4772111705978 282.0492111106347,211.93430285432595 282.0492111106347,270.36903201696055" />
  <polygon fill="white" points="300.310063973958,265.0975778588246 300.310063973958,206.66284869619 336.83176970060464,196.11994037991812 336.83176970060464,254.55466954255274" />
  <polygon fill="white" points="355.092622563928,249.2832153844168 355.092622563928,190.8484862217822 391.6143282905746,180.30557790551032 391.6143282905746,238.74030706814494" />
  <polygon fill="antiquewhite" points="494.24207736985903,437.2998870248814 494.24207736985903,313.1260875542828 523.4594419511764,304.6917609012653 523.4594419511764,428.86556037186386" />
  <polygon fill="beige" points="494.24207736985903,437.2998870248814 494.24207736985903,313.1260875542828 477.373424063824,298.51740526362414 477.3734240638241,422.6912047342227" />
  <polygon fill="bisque" points="494.24207736985903,313.1260875542828 477.373424063824,298.51740526362414 506.59078864514134,290.08307861060666 523.4594419511764,304.6917609012653" />
</svg>
