<?xml version="1.0" encoding="UTF-8"?>
<svg
  xmlns="http://www.w3.org/2000/svg"
  width="848"
  height="600"
  style="background-color:white"
>
  <polygon fill="lightblue" points="419.8639659827787,532.4981064453721 209.0057996573414,349.88957781213895 428.1360340172213,286.6321279145077 638.9942003426586,469.24065654774085" />
  <polygon fill="steelblue" points="209.0057996573414,349.88957781213895 209.0057996573414,130.75934345225912 428.1360340172213,67.50189355462788 428.1360340172213,286.6321279145077" />
  <polygon fill="lightskyblue" points="638.9942003426586,469.24065654774085 638.9942003426586,250.11042218786108 428.1360340172213,67.50189355462788 428.1360340172213,286.6321279145077" />
  <polygon fill="white" points="511.07357943855993,358.45814917691274 511.07357943855993,212.37132627032622 485.7705994795075,190.45830283433827 485.7705994795075,336.5451257409248" />
  <polygon fill="white" points="581.3596348803724,419.3276587213238 581.3596348803724,273.2408358147373 556.0566549213199,251.3278123787493 556.0566549213199,397.41463528533586" />
  <polygon fill="white" points="227.26665252066476,286.18339449136835 227.26665252066476,227.74866532873375 263.7883582473114,217.20575701246187 263.7883582473114,275.6404861750965" />
  <polygon fill="white" points="263.7883582473114,275.6404861750965 263.7883582473114,217.20575701246187 300.310063973958,206.66284869619 300.310063973958,265.0975778588246" />
  <polygon fill="white" points="300.310063973958,265.0975778588246 300.310063973958,206.66284869619 336.83176970060464,196.11994037991812 336.83176970060464,254.55466954255274" />
  <polygon fill="white" points="336.83176970060464,254.55466954255274 336.83176970060464,196.11994037991812 373.3534754272513,185.57703206364624 373.3534754272513,244.01176122628087" />
  <polygon fill="white" points="373.3534754272513,244.01176122628087 373.3534754272513,185.57703206364624 409.8751811538979,175.0341237473744 409.8751811538979,233.468852910009" />
  <polygon fill="grey" points="412.70014492311833,147.4360427515284 412.70014492311833,110.91433702488172 449.221850649765,100.37142870860984 449.221850649765,136.8931344352565" />
  <polygon fill="lightgrey" points="412.70014492311833,147.4360427515284 412.70014492311833,110.91433702488172 391.6143282905746,92.6534841615584 391.6143282905746,129.17518988820504" />
  <polygon fill="darkgrey" points="412.70014492311833,110.91433702488172 391.6143282905746,92.6534841615584 428.1360340172213,82.11057584528652 449.221850649765,100.37142870860984" />
  <polygon fill="hsl(288.0,50.0%,51.426934746249444%)" points="452.1730480020663,435.0633863331181 452.1730480020663,384.8971713469963 460.9382573764615,382.366873351091 460.9382573764615,432.53308833721286" />
  <polygon fill="hsl(288.0,50.0%,51.426934746249444%)" points="474.08607143805426,428.737641343355 474.08607143805426,378.5714263572331 465.3208620636591,381.10172435313837 465.3208620636591,431.26793933926024" />
  <polygon fill="hsl(288.0,50.0%,51.426934746249444%)" points="443.40783862767114,387.9241645407839 443.40783862767114,338.2546447525445 451.07739683026693,336.0406340061274 451.07739683026693,385.7101537943668" />
  <polygon fill="hsl(288.0,50.0%,51.426934746249444%)" points="475.1817226098537,378.75183430562737 475.18172260985364,329.08231451738794 482.85128081244943,326.86830377097084 482.85128081244943,376.5378235592103" />
  <polygon fill="hsl(288.0,50.0%,51.426934746249444%)" points="451.07739683026693,343.7101922087232 451.07739683026693,336.0406340061274 475.18172260985364,329.08231451738794 475.18172260985364,336.75187271998374" />
  <polygon fill="hsl(288.0,50.0%,51.426934746249444%)" points="452.1730480020663,385.3938665448787 452.1730480020663,335.72434675663925 474.08607143805426,329.39860176687614 474.08607143805426,379.06812155511557" />
  <polygon fill="hsl(288.0,50.0%,51.426934746249444%)" points="457.6513038610633,331.6594345197865 457.6513038610633,309.3081506150788 468.6078155790573,306.1452781201972 468.6078155790573,328.4965620249049" />
  <polygon fill="hsl(288.0,50.0%,51.426934746249444%)" points="459.8426062046621,333.51033601022215 459.8426062046621,308.67557611610243 466.41651323545847,306.77785261917353 466.41651323545847,331.6126125132932" />
</svg>
