<?xml version="1.0" encoding="UTF-8"?>
<svg
  xmlns="http://www.w3.org/2000/svg"
  width="848"
  height="600"
  style="background-color:white"
>
  <polygon fill="lightblue" points="421.0577136594005,517.3557158514986 271.0577136594005,387.45190528383284 426.9422863405995,342.45190528383284 576.9422863405995,472.35571585149864" />
  <polygon fill="steelblue" points="271.0577136594005,387.45190528383284 271.0577136594005,127.64428414850133 426.9422863405995,82.6442841485013 426.9422863405995,342.45190528383284" />
  <polygon fill="lightskyblue" points="576.9422863405995,472.35571585149864 576.9422863405995,212.54809471616713 426.9422863405995,82.6442841485013 426.9422863405995,342.45190528383284" />
  <polygon fill="white" points="510.9422863405995,415.1980392017257 510.9422863405995,311.2749907475931 492.9422863405995,295.6865334794732 492.9422863405995,399.6095819336058" />
  <polygon fill="white" points="280.3365572713767,343.2041144736084 280.3365572713767,301.63489509195534 306.3173193849098,294.13489509195534 306.3173193849098,335.7041144736084" />
  <polygon fill="white" points="302.60578194011936,336.775543045037 302.60578194011936,295.20632366338396 328.5865440536525,287.7063236633839 328.5865440536525,329.275543045037" />
  <polygon fill="white" points="324.87500660886207,330.34697161646557 324.87500660886207,288.7777522348125 350.8557687223952,281.2777522348125 350.8557687223952,322.84697161646557" />
  <polygon fill="white" points="347.1442312776048,323.9184001878941 347.1442312776048,282.34918080624107 373.12499339113793,274.84918080624107 373.12499339113793,316.4184001878941" />
  <polygon fill="white" points="369.4134559463475,317.4898287593227 369.4134559463475,275.9206093776696 395.39421805988064,268.4206093776696 395.39421805988064,309.9898287593227" />
  <polygon fill="white" points="391.6826806150902,311.0612573307513 391.6826806150902,269.4920379490982 417.66344272862335,261.9920379490982 417.66344272862335,303.56125733075123" />
</svg>
