<?xml version="1.0" encoding="UTF-8"?>
<svg
  xmlns="http://www.w3.org/2000/svg"
  width="848"
  height="600"
  style="background-color:white"
>
  <polygon fill="lightblue" points="420.24216370732654,544.4207202888047 228.66480560893825,378.50986138569203 427.75783629267346,321.03665395617554 619.3351943910618,486.9475128592883" />
  <polygon fill="steelblue" points="228.66480560893825,378.50986138569203 228.66480560893825,113.05248714071175 427.75783629267346,55.579279711195284 427.75783629267346,321.03665395617554" />
  <polygon fill="lightskyblue" points="619.3351943910618,486.9475128592883 619.3351943910618,221.49013861430797 427.75783629267346,55.579279711195284 427.75783629267346,321.03665395617554" />
  <polygon fill="white" points="535.0411568277709,413.94673494191863 535.0411568277709,281.21804781942853 512.0518738559643,261.308744751055 512.0518738559643,394.03743187354513" />
  <polygon fill="white" points="261.84697738956083,315.83951863177657 261.84697738956083,262.7480437827805 295.02914917018336,253.16917587786108 295.02914917018336,306.26065072685714" />
  <polygon fill="white" points="311.6202350604946,301.4712167743974 311.6202350604946,248.3797419254014 344.80240684111715,238.80087402048196 344.80240684111715,291.89234886947804" />
  <polygon fill="white" points="361.3934927314284,287.1029149170183 361.3934927314284,234.01144006802224 394.57566451205093,224.43257216310283 394.57566451205093,277.5240470120989" />
  <polygon fill="antiquewhite" points="487.8191626360396,457.9273978338416 487.8191626360396,345.108013779725 514.3649000605377,337.44491945578943 514.3649000605377,450.2643035099061" />
  <polygon fill="beige" points="487.8191626360396,457.9273978338416 487.8191626360396,345.108013779725 472.49297398816856,331.835145067476 472.49297398816856,444.65452912159265" />
  <polygon fill="bisque" points="487.8191626360396,345.108013779725 472.49297398816856,331.835145067476 499.0387114126666,324.17205074354047 514.3649000605377,337.44491945578943" />
  <polygon fill="antiquewhite" points="432.6050891631863,524.2884453591887 432.6050891631863,411.46906130507216 459.15082658768426,403.8059669811366 459.15082658768426,516.6253510352533" />
  <polygon fill="beige" points="432.6050891631863,524.2884453591887 432.6050891631863,411.46906130507216 417.2789005153152,398.19619259282314 417.27890051531523,511.01557664693973" />
  <polygon fill="bisque" points="432.6050891631863,411.46906130507216 417.2789005153152,398.19619259282314 443.8246379398132,390.53309826888756 459.15082658768426,403.8059669811366" />
  <polygon fill="antiquewhite" points="406.2102173198622,353.47525143488025 406.2102173198621,240.65586738076365 432.7559547443602,232.9927730568281 432.7559547443602,345.8121571109447" />
  <polygon fill="beige" points="406.2102173198622,353.47525143488025 406.2102173198621,240.65586738076365 390.8840286719911,227.38299866851463 390.8840286719911,340.2023827226312" />
  <polygon fill="bisque" points="406.2102173198621,240.65586738076365 390.8840286719911,227.38299866851463 417.4297660964891,219.71990434457908 432.7559547443602,232.9927730568281" />
</svg>
