<?xml version="1.0" encoding="UTF-8"?>
<svg
  xmlns="http://www.w3.org/2000/svg"
  width="848"
  height="600"
  style="background-color:white"
>
  <polygon fill="lightblue" points="420.20152466769485,513.5229832402883 226.55235735732404,345.8178849278041 427.79847533230515,287.7231347346928 621.447642642676,455.428233047177" />
  <polygon fill="steelblue" points="226.55235735732404,345.8178849278041 226.55235735732404,144.571766952823 427.79847533230515,86.47701675971169 427.79847533230515,287.7231347346928" />
  <polygon fill="lightskyblue" points="621.447642642676,455.428233047177 621.447642642676,254.18211507219593 427.79847533230515,86.47701675971169 427.79847533230515,287.7231347346928" />
  <polygon fill="white" points="536.2420090261128,381.63798978968396 536.2420090261128,247.47391113969658 513.0041089488683,227.3492993421985 513.0041089488683,361.51337799218584" />
  <polygon fill="white" points="238.53129295107294,288.694232622981 238.53129295107294,235.0286011629861 272.0723126135698,225.34614279746754 272.0723126135698,279.0117742574625" />
  <polygon fill="white" points="267.28073837607025,280.39498259539374 267.28073837607025,226.72935113539876 300.82175803856705,217.04689276988023 300.82175803856705,270.71252422987516" />
  <polygon fill="white" points="296.0301838010675,272.0957325678064 296.0301838010675,218.43010110781145 329.57120346356436,208.7476427422929 329.57120346356436,262.4132742022879" />
  <polygon fill="white" points="324.7796292260648,263.7964825402191 324.7796292260648,210.13085108022412 358.32064888856166,200.44839271470556 358.32064888856166,254.11402417470052" />
  <polygon fill="white" points="353.5290746510621,255.49723251263174 353.5290746510621,201.8316010526368 387.0700943135589,192.14914268711826 387.0700943135589,245.8147741471132" />
  <polygon fill="white" points="382.2785200760594,247.1979824850444 382.2785200760594,193.53235102504948 415.8195397385562,183.84989265953092 415.8195397385562,237.51552411952588" />
</svg>
