<?xml version="1.0" encoding="UTF-8"?>
<svg
  xmlns="http://www.w3.org/2000/svg"
  width="848"
  height="600"
  style="background-color:white"
>
  <polygon fill="lightblue" points="420.5115338050764,557.7036968016134 242.6668685805732,403.6856987896548 427.48846619492366,350.33229922230385 605.3331314194268,504.3502972342625" />
  <polygon fill="steelblue" points="242.6668685805732,403.6856987896548 242.6668685805732,95.64970276573752 427.4884661949236,42.29630319838651 427.48846619492366,350.33229922230385" />
  <polygon fill="lightskyblue" points="605.3331314194268,504.3502972342625 605.3331314194268,196.3143012103452 427.4884661949236,42.29630319838651 427.48846619492366,350.33229922230385" />
  <polygon fill="white" points="527.0814787206454,436.5823781090007 527.0814787206454,313.36797969943376 505.740118893705,294.88581993799875 505.740118893705,418.10021834756566" />
  <polygon fill="white" points="264.22938830224746,348.17537614297044 264.22938830224746,298.88961677914364 295.0329879046392,289.9973835179185 295.0329879046392,339.2831428817453" />
  <polygon fill="white" points="301.19370782511754,337.50469622950027 301.1937078251175,288.21893686567347 331.9973074275092,279.3267036044483 331.9973074275092,328.61246296827505" />
  <polygon fill="white" points="338.1580273479876,326.83401631603004 338.1580273479876,277.54825695220325 368.9616269503793,268.6560236909781 368.9616269503793,317.9417830548049" />
  <polygon fill="white" points="375.12234687085765,316.1633364025598 375.12234687085765,266.8775770387331 405.9259464732494,257.9853437775079 405.9259464732494,307.27110314133466" />
  <polygon fill="antiquewhite" points="483.2444625323919,477.41040886380824 483.2444625323919,372.67817021567635 507.8873422143053,365.5643836066962 507.8873422143053,470.29662225482804" />
  <polygon fill="beige" points="483.2444625323919,477.41040886380824 483.2444625323919,372.67817021567635 469.01688931443164,360.35673037471963 469.01688931443164,465.08896902285153" />
  <polygon fill="bisque" points="483.2444625323919,372.67817021567635 469.01688931443164,360.35673037471963 493.659768996345,353.2429437657395 507.8873422143053,365.5643836066962" />
  <polygon fill="antiquewhite" points="431.98825715441757,539.0145482999078 431.9882571544175,434.28230965177596 456.63113683633094,427.1685230427958 456.63113683633094,531.9007616909278" />
  <polygon fill="beige" points="431.98825715441757,539.0145482999078 431.9882571544175,434.28230965177596 417.76068393645727,421.9608698108193 417.76068393645727,526.6931084589512" />
  <polygon fill="bisque" points="431.9882571544175,434.28230965177596 417.76068393645727,421.9608698108193 442.40356361837064,414.84708320183915 456.63113683633094,427.1685230427958" />
  <polygon fill="antiquewhite" points="407.48542867189485,380.44562558934695 407.48542867189485,275.71338694121505 432.1283083538082,268.5996003322349 432.1283083538082,373.3318389803668" />
  <polygon fill="beige" points="407.48542867189485,380.44562558934695 407.48542867189485,275.71338694121505 393.25785545393455,263.39194710025834 393.25785545393455,368.12418574839023" />
  <polygon fill="bisque" points="407.48542867189485,275.71338694121505 393.25785545393455,263.39194710025834 417.900735135848,256.2781604912782 432.1283083538082,268.5996003322349" />
  <polygon fill="antiquewhite" points="404.99247685557077,415.03550295910287 404.99247685557077,310.30326431097103 429.63535653748414,303.1894777019909 429.63535653748414,407.9217163501228" />
  <polygon fill="beige" points="404.99247685557077,415.03550295910287 404.99247685557077,310.30326431097103 390.76490363761053,297.9818244700143 390.76490363761053,402.7140631181462" />
  <polygon fill="bisque" points="404.99247685557077,310.30326431097103 390.76490363761053,297.9818244700143 415.4077833195239,290.86803786103417 429.63535653748414,303.1894777019909" />
</svg>
