<?xml version="1.0" encoding="UTF-8"?>
<svg
  xmlns="http://www.w3.org/2000/svg"
  width="848"
  height="600"
  style="background-color:white"
>
  <polygon fill="lightblue" points="420.7172276250434,571.4957605112269 253.358990104501,426.55927528584715 427.28277237495666,376.35180402968444 594.641009895499,521.2882892550642" />
  <polygon fill="steelblue" points="253.358990104501,426.55927528584715 253.358990104501,78.71171074493583 427.2827723749566,28.504239488773123 427.28277237495666,376.35180402968444" />
  <polygon fill="lightskyblue" points="594.641009895499,521.2882892550642 594.641009895499,173.44072471415285 427.2827723749566,28.504239488773123 427.28277237495666,376.35180402968444" />
  <polygon fill="white" points="521.0033853864604,457.516235755897 521.0033853864604,341.5670475755933 500.9203968839953,324.17466934854775 500.9203968839953,440.12385752885154" />
  <polygon fill="white" points="273.65009803605415,374.32206170050665 273.65009803605415,327.94238642838513 302.6373950811301,319.574474552358 302.6373950811301,365.95414982447954" />
  <polygon fill="white" points="308.4348544901453,364.28056744927414 308.43485449014526,317.90089217715257 337.42215153522125,309.53298030112546 337.42215153522125,355.912655573247" />
  <polygon fill="white" points="343.2196109442364,354.2390731980416 343.2196109442364,307.85939792592006 372.20690798931236,299.49148604989296 372.20690798931236,345.8711613220145" />
  <polygon fill="white" points="378.00436739832753,344.197578946809 378.00436739832753,297.8179036746875 406.99166444340347,289.4499917986604 406.99166444340347,335.8296670707819" />
  <polygon fill="hsl(288.0,50.0%,73.05567488056998%)" points="355.7596136866664,436.7216332904176 355.7596136866664,396.9046820693014 362.7165649774846,394.8963832190548 362.7165649774846,434.71333444017114" />
  <polygon fill="hsl(288.0,50.0%,73.05567488056998%)" points="373.151991913712,431.7008861648014 373.151991913712,391.88393494368506 366.19504062289377,393.89223379393155 366.19504062289377,433.70918501504786" />
  <polygon fill="hsl(288.0,50.0%,73.05567488056998%)" points="348.8026623958482,399.30720815936087 348.8026623958482,359.88448417805756 354.88999477531416,358.12722268409186 354.88999477531416,397.54994666539517" />
  <polygon fill="hsl(288.0,50.0%,73.05567488056998%)" points="374.0216108250643,392.0271248272173 374.0216108250643,352.604400845914 380.1089432045302,350.8471393519483 380.1089432045302,390.2698633332516" />
  <polygon fill="hsl(288.0,50.0%,73.05567488056998%)" points="354.88999477531416,364.2145550635578 354.88999477531416,358.12722268409186 374.0216108250643,352.604400845914 374.0216108250643,358.69173322537995" />
  <polygon fill="hsl(288.0,50.0%,73.05567488056998%)" points="355.7596136866664,397.2989093091144 355.7596136866664,357.8761853278111 373.151991913712,352.8554382021948 373.151991913712,392.27816218349807" />
  <polygon fill="hsl(288.0,50.0%,73.05567488056998%)" points="360.1077082434278,354.6498623473418 360.1077082434278,336.90963655575536 368.8038973569506,334.39926299294723 368.8038973569506,352.1394887845337" />
  <polygon fill="hsl(288.0,50.0%,73.05567488056998%)" points="361.8469460661324,356.1189238338454 361.8469460661324,336.4075618431937 367.064659534246,334.90133770550887 367.064659534246,354.61269969616046" />
  <polygon fill="hsl(288.0,50.0%,70.71600065166498%)" points="392.01869828065367,435.2973147465608 392.01869828065367,395.4803635254445 398.97564957147193,393.472064675198 398.97564957147193,433.28901589631425" />
  <polygon fill="hsl(288.0,50.0%,70.71600065166498%)" points="409.41107650769925,430.2765676209445 409.41107650769925,390.45961639982823 402.45412521688104,392.4679152500747 402.45412521688104,432.28486647119104" />
  <polygon fill="hsl(288.0,50.0%,70.71600065166498%)" points="385.06174698983546,397.88288961550404 385.06174698983546,358.46016563420073 391.14907936930143,356.70290414023503 391.14907936930143,396.1256281215383" />
  <polygon fill="hsl(288.0,50.0%,70.71600065166498%)" points="410.28069541905154,390.60280628336045 410.28069541905154,351.18008230205714 416.36802779851746,349.42282080809144 416.36802779851746,388.8455447893947" />
  <polygon fill="hsl(288.0,50.0%,70.71600065166498%)" points="391.14907936930143,362.79023651970095 391.14907936930143,356.70290414023503 410.28069541905154,351.18008230205714 410.28069541905154,357.26741468152306" />
  <polygon fill="hsl(288.0,50.0%,70.71600065166498%)" points="392.01869828065367,395.8745907652575 392.01869828065367,356.4518667839542 409.41107650769925,351.43111965833793 409.41107650769925,390.85384363964124" />
  <polygon fill="hsl(288.0,50.0%,70.71600065166498%)" points="396.36679283741506,353.225543803485 396.36679283741506,335.4853180118985 405.06298195093785,332.9749444490904 405.06298195093785,350.71517024067685" />
  <polygon fill="hsl(288.0,50.0%,70.71600065166498%)" points="398.10603066011964,354.69460528998854 398.10603066011964,334.9832432993369 403.3237441282333,333.47701916165204 403.32374412823333,353.18838115230363" />
  <polygon fill="hsl(288.0,50.0%,61.40050862472211%)" points="409.54139390225185,466.24307283033596 409.54139390225185,426.42612160921965 416.49834519307007,424.41782275897316 416.49834519307007,464.23477398008947" />
  <polygon fill="hsl(288.0,50.0%,61.40050862472211%)" points="426.9337721292974,461.22232570471965 426.9337721292974,421.4053744836034 419.97682083847917,423.41367333384994 419.97682083847917,463.2306245549662" />
  <polygon fill="hsl(288.0,50.0%,61.40050862472211%)" points="402.58444261143364,428.82864769927914 402.58444261143364,389.4059237179759 408.67177499089956,387.6486622240102 408.67177499089956,427.0713862053135" />
  <polygon fill="hsl(288.0,50.0%,61.40050862472211%)" points="427.8033910406497,421.5485643671356 427.8033910406497,382.1258403858323 433.8907234201156,380.3685788918666 433.8907234201156,419.7913028731699" />
  <polygon fill="hsl(288.0,50.0%,61.40050862472211%)" points="408.67177499089956,393.7359946034762 408.67177499089956,387.6486622240102 427.8033910406497,382.1258403858323 427.8033910406497,388.2131727652983" />
  <polygon fill="hsl(288.0,50.0%,61.40050862472211%)" points="409.54139390225185,426.8203488490327 409.54139390225185,387.3976248677294 426.9337721292974,382.37687774211315 426.9337721292974,421.7996017234164" />
  <polygon fill="hsl(288.0,50.0%,61.40050862472211%)" points="413.88948845901325,384.17130188726014 413.88948845901325,366.4310760956737 422.585677572536,363.92070253286556 422.585677572536,381.660928324452" />
  <polygon fill="hsl(288.0,50.0%,61.40050862472211%)" points="415.6287262817178,385.6403633737637 415.6287262817178,365.92900138311205 420.84643974983146,364.4227772454272 420.84643974983146,384.1341392360788" />
  <polygon fill="hsl(288.0,50.0%,60.92125966388783%)" points="417.5069037817051,465.79591245860144 417.5069037817051,425.9789612374851 424.46385507252336,423.97066238723863 424.46385507252336,463.78761360835495" />
  <polygon fill="hsl(288.0,50.0%,60.92125966388783%)" points="434.8992820087507,460.7751653329852 434.8992820087507,420.95821411186887 427.94233071793246,422.9665129621154 427.94233071793246,462.7834641832317" />
  <polygon fill="hsl(288.0,50.0%,60.92125966388783%)" points="410.5499524908869,428.3814873275447 410.5499524908869,388.95876334624137 416.63728487035286,387.20150185227567 416.63728487035286,426.624225833579" />
  <polygon fill="hsl(288.0,50.0%,60.92125966388783%)" points="435.76890092010296,421.1014039954011 435.76890092010296,381.6786800140978 441.8562332995689,379.9214185201321 441.8562332995689,419.3441425014354" />
  <polygon fill="hsl(288.0,50.0%,60.92125966388783%)" points="416.63728487035286,393.28883423174165 416.63728487035286,387.20150185227567 435.76890092010296,381.6786800140978 435.76890092010296,387.76601239356376" />
  <polygon fill="hsl(288.0,50.0%,60.92125966388783%)" points="417.5069037817051,426.3731884772982 417.5069037817051,386.9504644959949 434.8992820087507,381.9297173703786 434.8992820087507,421.3524413516819" />
  <polygon fill="hsl(288.0,50.0%,60.92125966388783%)" points="421.8549983384665,383.7241415155256 421.8549983384665,365.98391572393916 430.5511874519893,363.47354216113104 430.5511874519893,381.2137679527175" />
  <polygon fill="hsl(288.0,50.0%,60.92125966388783%)" points="423.59423616117107,385.1932030020292 423.59423616117107,365.4818410113775 428.8119496292847,363.9756168736927 428.8119496292847,383.68697886434427" />
  <polygon fill="hsl(288.0,50.0%,51.426934746249444%)" points="446.3609630178153,494.1617719090173 446.3609630178153,454.344820687901 453.31791430863353,452.3365218376545 453.31791430863353,492.1534730587708" />
  <polygon fill="hsl(288.0,50.0%,51.426934746249444%)" points="463.7533412448609,489.141024783401 463.7533412448609,449.32407356228475 456.79638995404264,451.33237241253124 456.79638995404264,491.14932363364755" />
  <polygon fill="hsl(288.0,50.0%,51.426934746249444%)" points="439.4040117269971,456.7473467779605 439.4040117269971,417.3246227966572 445.49134410646303,415.56736130269155 445.49134410646303,454.99008528399486" />
  <polygon fill="hsl(288.0,50.0%,51.426934746249444%)" points="464.62296015621314,449.4672634458169 464.62296015621314,410.04453946451366 470.7102925356791,408.28727797054796 470.7102925356791,447.71000195185127" />
  <polygon fill="hsl(288.0,50.0%,51.426934746249444%)" points="445.49134410646303,421.6546936821575 445.49134410646303,415.56736130269155 464.62296015621314,410.04453946451366 464.62296015621314,416.1318718439796" />
  <polygon fill="hsl(288.0,50.0%,51.426934746249444%)" points="446.3609630178153,454.739047927714 446.3609630178153,415.31632394641076 463.75334124486085,410.29557682079445 463.7533412448609,449.7183008020977" />
  <polygon fill="hsl(288.0,50.0%,51.426934746249444%)" points="450.7090575745767,412.0900009659415 450.7090575745767,394.34977517435505 459.4052466880995,391.8394016115469 459.4052466880995,409.5796274031334" />
  <polygon fill="hsl(288.0,50.0%,51.426934746249444%)" points="452.4482953972813,413.559062452445 452.4482953972813,393.8477004617934 457.66600886539493,392.3414763241085 457.66600886539493,412.05283831476015" />
</svg>
