<?xml version="1.0" encoding="UTF-8"?>
<svg
  xmlns="http://www.w3.org/2000/svg"
  width="848"
  height="600"
  style="background-color:white"
>
  <polygon fill="lightblue" points="420.5115338050764,557.7036968016134 242.6668685805732,403.6856987896548 427.48846619492366,350.33229922230385 605.3331314194268,504.3502972342625" />
  <polygon fill="steelblue" points="242.6668685805732,403.6856987896548 242.6668685805732,95.64970276573752 427.4884661949236,42.29630319838651 427.48846619492366,350.33229922230385" />
  <polygon fill="lightskyblue" points="605.3331314194268,504.3502972342625 605.3331314194268,196.3143012103452 427.4884661949236,42.29630319838651 427.48846619492366,350.33229922230385" />
  <polygon fill="white" points="527.0814787206454,436.5823781090007 527.0814787206454,313.36797969943376 505.740118893705,294.88581993799875 505.740118893705,418.10021834756566" />
  <polygon fill="white" points="319.67586758655256,332.1693562727651 319.67586758655256,282.88359690893833 350.4794671889443,273.9913636477132 350.4794671889443,323.27712301153997" />
  <polygon fill="antiquewhite" points="483.2444625323919,477.41040886380824 483.2444625323919,372.67817021567635 507.8873422143053,365.5643836066962 507.8873422143053,470.29662225482804" />
  <polygon fill="beige" points="483.2444625323919,477.41040886380824 483.2444625323919,372.67817021567635 469.01688931443164,360.35673037471963 469.01688931443164,465.08896902285153" />
  <polygon fill="bisque" points="483.2444625323919,372.67817021567635 469.01688931443164,360.35673037471963 493.659768996345,353.2429437657395 507.8873422143053,365.5643836066962" />
  <polygon fill="antiquewhite" points="431.98825715441757,539.0145482999078 431.9882571544175,434.28230965177596 456.63113683633094,427.1685230427958 456.63113683633094,531.9007616909278" />
  <polygon fill="beige" points="431.98825715441757,539.0145482999078 431.9882571544175,434.28230965177596 417.76068393645727,421.9608698108193 417.76068393645727,526.6931084589512" />
  <polygon fill="bisque" points="431.9882571544175,434.28230965177596 417.76068393645727,421.9608698108193 442.40356361837064,414.84708320183915 456.63113683633094,427.1685230427958" />
</svg>
