<?xml version="1.0" encoding="UTF-8"?>
<svg
  xmlns="http://www.w3.org/2000/svg"
  width="848"
  height="600"
  style="background-color:white"
>
  <polygon fill="lightblue" points="419.8639659827787,532.4981064453721 209.0057996573414,349.88957781213895 428.1360340172213,286.6321279145077 638.9942003426586,469.24065654774085" />
  <polygon fill="steelblue" points="209.0057996573414,349.88957781213895 209.0057996573414,130.75934345225912 428.1360340172213,67.50189355462788 428.1360340172213,286.6321279145077" />
  <polygon fill="lightskyblue" points="638.9942003426586,469.24065654774085 638.9942003426586,250.11042218786108 428.1360340172213,67.50189355462788 428.1360340172213,286.6321279145077" />
  <polygon fill="white" points="546.2166071594661,388.89290394911825 546.2166071594661,242.80608104253173 520.9136272004137,220.89305760654378 520.9136272004137,366.9798805131303" />
  <polygon fill="white" points="234.57099366599408,284.074812828114 234.57099366599408,225.64008366547938 271.0926993926407,215.0971753492075 271.0926993926407,273.53190451184213" />
  <polygon fill="white" points="278.39704053797004,271.42332284858776 278.39704053797004,212.9885936859531 314.9187462646167,202.44568536968126 314.9187462646167,260.88041453231585" />
  <polygon fill="white" points="322.223087409946,258.7718328690615 322.22308740994595,200.3371037064269 358.74479313659265,189.794195390155 358.74479313659265,248.22892455278964" />
  <polygon fill="white" points="366.04913428192197,246.12034288953527 366.04913428192197,187.68561372690064 402.5708400085686,177.14270541062876 402.5708400085686,235.5774345732634" />
  <polygon fill="antiquewhite" points="494.24207736985903,437.2998870248814 494.24207736985903,313.1260875542828 523.4594419511764,304.6917609012653 523.4594419511764,428.86556037186386" />
  <polygon fill="beige" points="494.24207736985903,437.2998870248814 494.24207736985903,313.1260875542828 477.373424063824,298.51740526362414 477.3734240638241,422.6912047342227" />
  <polygon fill="bisque" points="494.24207736985903,313.1260875542828 477.373424063824,298.51740526362414 506.59078864514134,290.08307861060666 523.4594419511764,304.6917609012653" />
  <polygon fill="antiquewhite" points="433.4711261290309,510.3396707212597 433.47112612903084,386.16587125066116 462.68849071034816,377.7315445976436 462.68849071034816,501.90534406824224" />
  <polygon fill="beige" points="433.4711261290309,510.3396707212597 433.47112612903084,386.16587125066116 416.6024728229959,371.55718896000246 416.6024728229959,495.73098843060103" />
  <polygon fill="bisque" points="433.47112612903084,386.16587125066116 416.6024728229959,371.55718896000246 445.81983740431315,363.122862306985 462.68849071034816,377.7315445976436" />
  <polygon fill="antiquewhite" points="404.4198106055131,322.3354242247943 404.419810605513,198.16162475419569 433.6371751868304,189.72729810117818 433.6371751868304,313.90109757177675" />
  <polygon fill="beige" points="404.4198106055131,322.3354242247943 404.419810605513,198.16162475419569 387.55115729947806,183.55294246353702 387.55115729947806,307.7267419341356" />
  <polygon fill="bisque" points="404.419810605513,198.16162475419569 387.55115729947806,183.55294246353702 416.7685218807954,175.11861581051954 433.6371751868304,189.72729810117818" />
</svg>
