<?xml version="1.0" encoding="UTF-8"?>
<svg
  xmlns="http://www.w3.org/2000/svg"
  width="848"
  height="600"
  style="background-color:white"
>
  <polygon fill="lightblue" points="420.7172276250434,571.4957605112269 253.358990104501,426.55927528584715 427.28277237495666,376.35180402968444 594.641009895499,521.2882892550642" />
  <polygon fill="steelblue" points="253.358990104501,426.55927528584715 253.358990104501,78.71171074493583 427.2827723749566,28.504239488773123 427.28277237495666,376.35180402968444" />
  <polygon fill="lightskyblue" points="594.641009895499,521.2882892550642 594.641009895499,173.44072471415285 427.2827723749566,28.504239488773123 427.28277237495666,376.35180402968444" />
  <polygon fill="white" points="521.0033853864604,457.516235755897 521.0033853864604,341.5670475755933 500.9203968839953,324.17466934854775 500.9203968839953,440.12385752885154" />
  <polygon fill="white" points="267.852638627039,375.9956440757121 267.85263862703897,329.6159688035906 296.8399356721149,321.2480569275634 296.8399356721149,367.62773219968494" />
  <polygon fill="white" points="296.8399356721149,367.62773219968494 296.8399356721149,321.2480569275634 325.82723271719084,312.8801450515363 325.82723271719084,359.25982032365783" />
  <polygon fill="white" points="325.82723271719084,359.25982032365783 325.82723271719084,312.8801450515363 354.8145297622668,304.5122331755092 354.8145297622668,350.8919084476307" />
  <polygon fill="white" points="354.8145297622668,350.8919084476307 354.8145297622668,304.5122331755092 383.8018268073427,296.1443212994821 383.8018268073427,342.5239965716036" />
  <polygon fill="white" points="383.8018268073427,342.5239965716036 383.8018268073427,296.1443212994821 412.78912385241864,287.77640942345494 412.7891238524187,334.15608469557645" />
  <polygon fill="hsl(288.0,50.0%,70.71600065166498%)" points="392.01869828065367,435.2973147465608 392.01869828065367,395.4803635254445 398.97564957147193,393.472064675198 398.97564957147193,433.28901589631425" />
  <polygon fill="hsl(288.0,50.0%,70.71600065166498%)" points="409.41107650769925,430.2765676209445 409.41107650769925,390.45961639982823 402.45412521688104,392.4679152500747 402.45412521688104,432.28486647119104" />
  <polygon fill="hsl(288.0,50.0%,70.71600065166498%)" points="385.06174698983546,397.88288961550404 385.06174698983546,358.46016563420073 391.14907936930143,356.70290414023503 391.14907936930143,396.1256281215383" />
  <polygon fill="hsl(288.0,50.0%,70.71600065166498%)" points="410.28069541905154,390.60280628336045 410.28069541905154,351.18008230205714 416.36802779851746,349.42282080809144 416.36802779851746,388.8455447893947" />
  <polygon fill="hsl(288.0,50.0%,70.71600065166498%)" points="391.14907936930143,362.79023651970095 391.14907936930143,356.70290414023503 410.28069541905154,351.18008230205714 410.28069541905154,357.26741468152306" />
  <polygon fill="hsl(288.0,50.0%,70.71600065166498%)" points="392.01869828065367,395.8745907652575 392.01869828065367,356.4518667839542 409.41107650769925,351.43111965833793 409.41107650769925,390.85384363964124" />
  <polygon fill="hsl(288.0,50.0%,70.71600065166498%)" points="396.36679283741506,353.225543803485 396.36679283741506,335.4853180118985 405.06298195093785,332.9749444490904 405.06298195093785,350.71517024067685" />
  <polygon fill="hsl(288.0,50.0%,70.71600065166498%)" points="398.10603066011964,354.69460528998854 398.10603066011964,334.9832432993369 403.3237441282333,333.47701916165204 403.32374412823333,353.18838115230363" />
  <polygon fill="hsl(288.0,50.0%,61.40050862472211%)" points="409.54139390225185,466.24307283033596 409.54139390225185,426.42612160921965 416.49834519307007,424.41782275897316 416.49834519307007,464.23477398008947" />
  <polygon fill="hsl(288.0,50.0%,61.40050862472211%)" points="426.9337721292974,461.22232570471965 426.9337721292974,421.4053744836034 419.97682083847917,423.41367333384994 419.97682083847917,463.2306245549662" />
  <polygon fill="hsl(288.0,50.0%,61.40050862472211%)" points="402.58444261143364,428.82864769927914 402.58444261143364,389.4059237179759 408.67177499089956,387.6486622240102 408.67177499089956,427.0713862053135" />
  <polygon fill="hsl(288.0,50.0%,61.40050862472211%)" points="427.8033910406497,421.5485643671356 427.8033910406497,382.1258403858323 433.8907234201156,380.3685788918666 433.8907234201156,419.7913028731699" />
  <polygon fill="hsl(288.0,50.0%,61.40050862472211%)" points="408.67177499089956,393.7359946034762 408.67177499089956,387.6486622240102 427.8033910406497,382.1258403858323 427.8033910406497,388.2131727652983" />
  <polygon fill="hsl(288.0,50.0%,61.40050862472211%)" points="409.54139390225185,426.8203488490327 409.54139390225185,387.3976248677294 426.9337721292974,382.37687774211315 426.9337721292974,421.7996017234164" />
  <polygon fill="hsl(288.0,50.0%,61.40050862472211%)" points="413.88948845901325,384.17130188726014 413.88948845901325,366.4310760956737 422.585677572536,363.92070253286556 422.585677572536,381.660928324452" />
  <polygon fill="hsl(288.0,50.0%,61.40050862472211%)" points="415.6287262817178,385.6403633737637 415.6287262817178,365.92900138311205 420.84643974983146,364.4227772454272 420.84643974983146,384.1341392360788" />
  <polygon fill="hsl(288.0,50.0%,51.426934746249444%)" points="446.3609630178153,494.1617719090173 446.3609630178153,454.344820687901 453.31791430863353,452.3365218376545 453.31791430863353,492.1534730587708" />
  <polygon fill="hsl(288.0,50.0%,51.426934746249444%)" points="463.7533412448609,489.141024783401 463.7533412448609,449.32407356228475 456.79638995404264,451.33237241253124 456.79638995404264,491.14932363364755" />
  <polygon fill="hsl(288.0,50.0%,51.426934746249444%)" points="439.4040117269971,456.7473467779605 439.4040117269971,417.3246227966572 445.49134410646303,415.56736130269155 445.49134410646303,454.99008528399486" />
  <polygon fill="hsl(288.0,50.0%,51.426934746249444%)" points="464.62296015621314,449.4672634458169 464.62296015621314,410.04453946451366 470.7102925356791,408.28727797054796 470.7102925356791,447.71000195185127" />
  <polygon fill="hsl(288.0,50.0%,51.426934746249444%)" points="445.49134410646303,421.6546936821575 445.49134410646303,415.56736130269155 464.62296015621314,410.04453946451366 464.62296015621314,416.1318718439796" />
  <polygon fill="hsl(288.0,50.0%,51.426934746249444%)" points="446.3609630178153,454.739047927714 446.3609630178153,415.31632394641076 463.75334124486085,410.29557682079445 463.7533412448609,449.7183008020977" />
  <polygon fill="hsl(288.0,50.0%,51.426934746249444%)" points="450.7090575745767,412.0900009659415 450.7090575745767,394.34977517435505 459.4052466880995,391.8394016115469 459.4052466880995,409.5796274031334" />
  <polygon fill="hsl(288.0,50.0%,51.426934746249444%)" points="452.4482953972813,413.559062452445 452.4482953972813,393.8477004617934 457.66600886539493,392.3414763241085 457.66600886539493,412.05283831476015" />
</svg>
