<?xml version="1.0" encoding="UTF-8"?>
<svg
  xmlns="http://www.w3.org/2000/svg"
  width="848"
  height="600"
  style="background-color:white"
>
  <polygon fill="lightblue" points="419.0961894323342,575.6569860407207 169.0961894323342,359.150635094611 428.9038105676658,284.15063509461095 678.9038105676658,500.65698604072065" />
  <polygon fill="steelblue" points="169.0961894323342,359.150635094611 169.0961894323342,99.34301395927938 428.9038105676658,24.343013959279347 428.9038105676658,284.15063509461095" />
  <polygon fill="lightskyblue" points="678.9038105676658,500.65698604072065 678.9038105676658,240.84936490538902 428.9038105676658,24.343013959279347 428.9038105676658,284.15063509461095" />
  <polygon fill="white" points="568.9038105676658,405.3941916244323 568.9038105676658,232.18911086754463 538.9038105676658,206.20834875401147 538.9038105676658,379.4134295108992" />
  <polygon fill="white" points="184.56092878562777,285.40431707757017 184.56092878562777,216.12228477481506 227.8621989748497,203.62228477481506 227.8621989748497,272.90431707757017" />
  <polygon fill="white" points="221.67630323353228,274.69003136328445 221.67630323353228,205.40799906052936 264.9775734227542,192.90799906052933 264.9775734227542,262.19003136328445" />
  <polygon fill="white" points="258.7916776814368,263.9757456489987 258.7916776814368,194.69371334624364 302.0929478706587,182.19371334624364 302.0929478706587,251.47574564899872" />
  <polygon fill="white" points="295.9070521293413,253.261459934713 295.9070521293413,183.97942763195792 339.2083223185632,171.47942763195792 339.2083223185632,240.761459934713" />
  <polygon fill="white" points="333.0224265772458,242.54717422042728 333.0224265772458,173.2651419176722 376.3236967664677,160.7651419176722 376.3236967664677,230.04717422042728" />
  <polygon fill="white" points="370.1378010251503,231.83288850614156 370.1378010251503,162.55085620338647 413.43907121437223,150.05085620338647 413.43907121437223,219.33288850614156" />
</svg>
