<?xml version="1.0" encoding="UTF-8"?>
<svg
  xmlns="http://www.w3.org/2000/svg"
  width="848"
  height="600"
  style="background-color:white"
>
  <polygon fill="lightblue" points="421.0577136594005,517.3557158514986 271.0577136594005,387.45190528383284 426.9422863405995,342.45190528383284 576.9422863405995,472.35571585149864" />
  <polygon fill="steelblue" points="271.0577136594005,387.45190528383284 271.0577136594005,127.64428414850133 426.9422863405995,82.6442841485013 426.9422863405995,342.45190528383284" />
  <polygon fill="lightskyblue" points="576.9422863405995,472.35571585149864 576.9422863405995,212.54809471616713 426.9422863405995,82.6442841485013 426.9422863405995,342.45190528383284" />
  <polygon fill="white" points="510.9422863405995,415.1980392017257 510.9422863405995,311.2749907475931 492.9422863405995,295.6865334794732 492.9422863405995,399.6095819336058" />
  <polygon fill="white" points="289.24424713887373,340.63268590217984 289.24424713887373,299.0634665205268 315.2250092524069,291.5634665205268 315.2250092524069,333.13268590217984" />
  <polygon fill="white" points="320.4211616751135,331.63268590217984 320.4211616751135,290.0634665205268 346.4019237886467,282.5634665205268 346.4019237886467,324.13268590217984" />
  <polygon fill="white" points="351.5980762113533,322.63268590217984 351.5980762113533,281.0634665205268 377.5788383248865,273.5634665205268 377.5788383248865,315.13268590217984" />
  <polygon fill="white" points="382.7749907475931,313.63268590217984 382.7749907475931,272.0634665205268 408.75575286112627,264.5634665205268 408.75575286112627,306.13268590217984" />
</svg>
