<?xml version="1.0" encoding="UTF-8"?>
<svg
  xmlns="http://www.w3.org/2000/svg"
  width="848"
  height="600"
  style="background-color:white"
>
  <polygon fill="lightblue" points="419.0961894323342,618.9582562299425 169.0961894323342,402.45190528383284 428.9038105676658,327.45190528383284 678.9038105676658,543.9582562299425" />
  <polygon fill="steelblue" points="169.0961894323342,402.45190528383284 169.0961894323342,56.04174377005745 428.9038105676658,-18.95825622994255 428.9038105676658,327.45190528383284" />
  <polygon fill="lightskyblue" points="678.9038105676658,543.9582562299425 678.9038105676658,197.54809471616713 428.9038105676658,-18.95825622994255 428.9038105676658,327.45190528383284" />
  <polygon fill="white" points="568.9038105676658,448.6954618136543 568.9038105676658,275.4903810567666 538.9038105676658,249.50961894323342 538.9038105676658,422.7146997001211" />
  <polygon fill="white" points="190.74682452694518,326.9198729810778 190.74682452694518,257.63784067832273 234.0480947161671,245.1378406783227 234.0480947161671,314.4198729810778" />
  <polygon fill="white" points="234.0480947161671,314.4198729810778 234.0480947161671,245.1378406783227 277.34936490538905,232.63784067832268 277.34936490538905,301.9198729810778" />
  <polygon fill="white" points="277.34936490538905,301.9198729810778 277.34936490538905,232.63784067832268 320.65063509461095,220.13784067832268 320.65063509461095,289.4198729810778" />
  <polygon fill="white" points="320.65063509461095,289.4198729810778 320.65063509461095,220.13784067832268 363.9519052838329,207.63784067832268 363.9519052838329,276.9198729810778" />
  <polygon fill="white" points="363.9519052838329,276.9198729810778 363.9519052838329,207.63784067832268 407.2531754730548,195.13784067832268 407.2531754730548,264.4198729810778" />
</svg>
