<?xml version="1.0" encoding="UTF-8"?>
<svg
  xmlns="http://www.w3.org/2000/svg"
  width="848"
  height="600"
  style="background-color:white"
>
  <polygon fill="lightblue" points="420.7172276250434,571.4957605112269 253.358990104501,426.55927528584715 427.28277237495666,376.35180402968444 594.641009895499,521.2882892550642" />
  <polygon fill="steelblue" points="253.358990104501,426.55927528584715 253.358990104501,78.71171074493583 427.2827723749566,28.504239488773123 427.28277237495666,376.35180402968444" />
  <polygon fill="lightskyblue" points="594.641009895499,521.2882892550642 594.641009895499,173.44072471415285 427.2827723749566,28.504239488773123 427.28277237495666,376.35180402968444" />
  <polygon fill="white" points="521.0033853864604,457.516235755897 521.0033853864604,341.5670475755933 500.9203968839953,324.17466934854775 500.9203968839953,440.12385752885154" />
  <polygon fill="white" points="267.852638627039,375.9956440757121 267.85263862703897,329.6159688035906 296.8399356721149,321.2480569275634 296.8399356721149,367.62773219968494" />
  <polygon fill="white" points="296.8399356721149,367.62773219968494 296.8399356721149,321.2480569275634 325.82723271719084,312.8801450515363 325.82723271719084,359.25982032365783" />
  <polygon fill="white" points="325.82723271719084,359.25982032365783 325.82723271719084,312.8801450515363 354.8145297622668,304.5122331755092 354.8145297622668,350.8919084476307" />
  <polygon fill="white" points="354.8145297622668,350.8919084476307 354.8145297622668,304.5122331755092 383.8018268073427,296.1443212994821 383.8018268073427,342.5239965716036" />
  <polygon fill="white" points="383.8018268073427,342.5239965716036 383.8018268073427,296.1443212994821 412.78912385241864,287.77640942345494 412.7891238524187,334.15608469557645" />
</svg>
