<?xml version="1.0" encoding="UTF-8"?>
<svg
  xmlns="http://www.w3.org/2000/svg"
  width="848"
  height="600"
  style="background-color:white"
>
  <polygon fill="lightblue" points="420.5115338050764,557.7036968016134 242.6668685805732,403.6856987896548 427.48846619492366,350.33229922230385 605.3331314194268,504.3502972342625" />
  <polygon fill="steelblue" points="242.6668685805732,403.6856987896548 242.6668685805732,95.64970276573752 427.4884661949236,42.29630319838651 427.48846619492366,350.33229922230385" />
  <polygon fill="lightskyblue" points="605.3331314194268,504.3502972342625 605.3331314194268,196.3143012103452 427.4884661949236,42.29630319838651 427.48846619492366,350.33229922230385" />
  <polygon fill="white" points="527.0814787206454,436.5823781090007 527.0814787206454,313.36797969943376 505.740118893705,294.88581993799875 505.740118893705,418.10021834756566" />
  <polygon fill="hsl(324.0,50.0%,70.71600065166498%)" points="390.01479567432204,412.9712513004379 390.01479567432204,370.65942688659266 397.4076595788961,368.5252909038986 397.4076595788961,410.8371153177439" />
  <polygon fill="hsl(324.0,50.0%,70.71600065166498%)" points="408.4969554357571,407.63591134370284 408.4969554357571,365.3240869298576 401.1040915311831,367.4582229125516 401.1040915311831,409.7700473263969" />
  <polygon fill="hsl(324.0,50.0%,70.71600065166498%)" points="382.6219317697481,373.2124918238792 382.6219317697481,331.3195963646265 389.0906876862503,329.45222737976917 389.0906876862503,371.34512283902194" />
  <polygon fill="hsl(324.0,50.0%,70.71600065166498%)" points="409.42106342382885,365.47624888661335 409.42106342382885,323.5833534273606 415.8898193403311,321.7159844425033 415.8898193403311,363.60887990175604" />
  <polygon fill="hsl(324.0,50.0%,70.71600065166498%)" points="389.0906876862503,335.92098329627146 389.0906876862503,329.45222737976917 409.42106342382885,323.5833534273606 409.42106342382885,330.05210934386287" />
  <polygon fill="hsl(324.0,50.0%,70.71600065166498%)" points="390.01479567432204,371.07835584118516 390.01479567432204,329.18546038193244 408.4969554357571,323.85012042519736 408.4969554357571,365.7430158844501" />
  <polygon fill="hsl(324.0,50.0%,70.71600065166498%)" points="394.6353356146808,325.756980619786 394.6353356146808,306.9051776631223 403.87641549539836,304.23750768475475 403.87641549539836,323.0893106414185" />
  <polygon fill="hsl(324.0,50.0%,70.71600065166498%)" points="396.48355159082433,327.31809139707514 396.48355159082433,306.3716436674488 402.0281995192548,304.77104168042825 402.0281995192548,325.7174894100546" />
  <polygon fill="hsl(324.0,50.0%,51.426934746249444%)" points="447.7620689660569,475.5240711244051 447.7620689660569,433.21224671055984 455.15493287063094,431.0781107278658 455.15493287063094,473.389935141711" />
  <polygon fill="hsl(324.0,50.0%,51.426934746249444%)" points="466.24422872749193,470.18873116766997 466.24422872749193,427.87690675382476 458.85136482291796,430.0110427365188 458.85136482291796,472.32286715036406" />
  <polygon fill="hsl(324.0,50.0%,51.426934746249444%)" points="440.3692050614829,435.7653116478464 440.3692050614829,393.8724161885936 446.8379609779852,392.00504720373635 446.8379609779852,433.89794266298907" />
  <polygon fill="hsl(324.0,50.0%,51.426934746249444%)" points="467.16833671556367,428.02906871058053 467.16833671556367,386.1361732513277 473.63709263206596,384.26880426647045 473.63709263206596,426.1616997257232" />
  <polygon fill="hsl(324.0,50.0%,51.426934746249444%)" points="446.8379609779852,398.4738031202386 446.8379609779852,392.00504720373635 467.16833671556367,386.1361732513277 467.16833671556367,392.60492916783" />
  <polygon fill="hsl(324.0,50.0%,51.426934746249444%)" points="447.7620689660569,433.63117566515234 447.7620689660569,391.7382802058996 466.24422872749193,386.4029402491645 466.24422872749193,428.29583570841726" />
  <polygon fill="hsl(324.0,50.0%,51.426934746249444%)" points="452.38260890641567,388.30980044375315 452.38260890641567,369.4579974870894 461.6236887871332,366.79032750872193 461.6236887871332,385.64213046538566" />
  <polygon fill="hsl(324.0,50.0%,51.426934746249444%)" points="454.2308248825592,389.8709112210423 454.2308248825592,368.92446349141596 459.7754728109897,367.3238615043954 459.7754728109897,388.2703092340218" />
</svg>
