<?xml version="1.0" encoding="UTF-8"?>
<svg
  xmlns="http://www.w3.org/2000/svg"
  width="848"
  height="600"
  style="background-color:white"
>
  <polygon fill="lightblue" points="419.0961894323342,662.2595264191646 169.0961894323342,445.7531754730548 428.9038105676658,370.75317547305474 678.9038105676658,587.2595264191644" />
  <polygon fill="steelblue" points="169.0961894323342,445.7531754730548 169.0961894323342,12.740473580835555 428.9038105676658,-62.2595264191645 428.9038105676658,370.75317547305474" />
  <polygon fill="lightskyblue" points="678.9038105676658,587.2595264191644 678.9038105676658,154.2468245269452 428.9038105676658,-62.2595264191645 428.9038105676658,370.75317547305474" />
  <polygon fill="white" points="568.9038105676658,491.99673200287623 568.9038105676658,318.7916512459885 538.9038105676658,292.8108891324553 538.9038105676658,466.01596988934307" />
  <polygon fill="white" points="190.74682452694518,370.22114317029974 190.74682452694518,300.9391108675446 234.0480947161671,288.4391108675446 234.0480947161671,357.72114317029974" />
  <polygon fill="white" points="234.0480947161671,357.72114317029974 234.0480947161671,288.4391108675446 277.34936490538905,275.9391108675446 277.34936490538905,345.22114317029974" />
  <polygon fill="white" points="277.34936490538905,345.22114317029974 277.34936490538905,275.9391108675446 320.65063509461095,263.4391108675446 320.65063509461095,332.72114317029974" />
  <polygon fill="white" points="320.65063509461095,332.72114317029974 320.65063509461095,263.4391108675446 363.9519052838329,250.93911086754463 363.9519052838329,320.22114317029974" />
  <polygon fill="white" points="363.9519052838329,320.22114317029974 363.9519052838329,250.93911086754463 407.2531754730548,238.43911086754463 407.2531754730548,307.72114317029974" />
</svg>
