<?xml version="1.0" encoding="UTF-8"?>
<svg
  xmlns="http://www.w3.org/2000/svg"
  width="848"
  height="600"
  style="background-color:white"
>
  <polygon fill="lightblue" points="420.5115338050764,557.7036968016134 242.6668685805732,403.6856987896548 427.48846619492366,350.33229922230385 605.3331314194268,504.3502972342625" />
  <polygon fill="steelblue" points="242.6668685805732,403.6856987896548 242.6668685805732,95.64970276573752 427.4884661949236,42.29630319838651 427.48846619492366,350.33229922230385" />
  <polygon fill="lightskyblue" points="605.3331314194268,504.3502972342625 605.3331314194268,196.3143012103452 427.4884661949236,42.29630319838651 427.48846619492366,350.33229922230385" />
  <polygon fill="white" points="527.0814787206454,436.5823781090007 527.0814787206454,313.36797969943376 505.740118893705,294.88581993799875 505.740118893705,418.10021834756566" />
  <polygon fill="white" points="253.668154152856,351.22414183253335 253.668154152856,301.93838246870655 284.47175375524773,293.0461492074814 284.47175375524773,342.3319085713082" />
  <polygon fill="white" points="280.07123952633464,343.60222760862604 280.07123952633464,294.3164682447993 310.87483912872636,285.4242349835741 310.87483912872636,334.7099943474009" />
  <polygon fill="white" points="306.47432489981327,335.9803133847188 306.4743248998132,286.694554020892 337.277924502205,277.8023207596668 337.277924502205,327.0880801234936" />
  <polygon fill="white" points="332.87741027329184,328.3583991608115 332.87741027329184,279.07263979698473 363.68100987568357,270.1804065357596 363.68100987568357,319.4661658995863" />
  <polygon fill="white" points="359.28049564677053,320.7364849369042 359.2804956467705,271.4507255730774 390.0840952491622,262.55849231185226 390.08409524916226,311.84425167567906" />
  <polygon fill="white" points="385.6835810202491,313.11457071299697 385.6835810202491,263.82881134917017 416.48718062264084,254.936578087945 416.48718062264084,304.22233745177175" />
</svg>
