<?xml version="1.0" encoding="UTF-8"?>
<svg
  xmlns="http://www.w3.org/2000/svg"
  width="848"
  height="600"
  style="background-color:white"
>
  <polygon fill="lightblue" points="420.24216370732654,544.4207202888047 228.66480560893825,378.50986138569203 427.75783629267346,321.03665395617554 619.3351943910618,486.9475128592883" />
  <polygon fill="steelblue" points="228.66480560893825,378.50986138569203 228.66480560893825,113.05248714071175 427.75783629267346,55.579279711195284 427.75783629267346,321.03665395617554" />
  <polygon fill="lightskyblue" points="619.3351943910618,486.9475128592883 619.3351943910618,221.49013861430797 427.75783629267346,55.579279711195284 427.75783629267346,321.03665395617554" />
  <polygon fill="white" points="535.0411568277709,413.94673494191863 535.0411568277709,281.21804781942853 512.0518738559643,261.308744751055 512.0518738559643,394.03743187354513" />
  <polygon fill="white" points="251.89232585537405,318.7131790032524 251.89232585537405,265.62170415425635 285.0744976359966,256.0428362493369 285.0744976359966,309.134311098333" />
  <polygon fill="white" points="291.71093199212106,307.2185375173491 291.71093199212106,254.12706266835303 324.89310377274364,244.5481947634336 324.89310377274364,297.63966961242966" />
  <polygon fill="white" points="331.5295381288681,295.7238960314458 331.5295381288681,242.63242118244972 364.71170990949065,233.0535532775303 364.71170990949065,286.14502812652637" />
  <polygon fill="white" points="371.3481442656152,284.22925454554246 371.34814426561513,231.13777969654643 404.5303160462377,221.558911791627 404.5303160462377,274.6503866406231" />
  <polygon fill="antiquewhite" points="487.8191626360396,457.9273978338416 487.8191626360396,345.108013779725 514.3649000605377,337.44491945578943 514.3649000605377,450.2643035099061" />
  <polygon fill="beige" points="487.8191626360396,457.9273978338416 487.8191626360396,345.108013779725 472.49297398816856,331.835145067476 472.49297398816856,444.65452912159265" />
  <polygon fill="bisque" points="487.8191626360396,345.108013779725 472.49297398816856,331.835145067476 499.0387114126666,324.17205074354047 514.3649000605377,337.44491945578943" />
  <polygon fill="antiquewhite" points="432.6050891631863,524.2884453591887 432.6050891631863,411.46906130507216 459.15082658768426,403.8059669811366 459.15082658768426,516.6253510352533" />
  <polygon fill="beige" points="432.6050891631863,524.2884453591887 432.6050891631863,411.46906130507216 417.2789005153152,398.19619259282314 417.27890051531523,511.01557664693973" />
  <polygon fill="bisque" points="432.6050891631863,411.46906130507216 417.2789005153152,398.19619259282314 443.8246379398132,390.53309826888756 459.15082658768426,403.8059669811366" />
  <polygon fill="antiquewhite" points="406.2102173198622,353.47525143488025 406.2102173198621,240.65586738076365 432.7559547443602,232.9927730568281 432.7559547443602,345.8121571109447" />
  <polygon fill="beige" points="406.2102173198622,353.47525143488025 406.2102173198621,240.65586738076365 390.8840286719911,227.38299866851463 390.8840286719911,340.2023827226312" />
  <polygon fill="bisque" points="406.2102173198621,240.65586738076365 390.8840286719911,227.38299866851463 417.4297660964891,219.71990434457908 432.7559547443602,232.9927730568281" />
  <polygon fill="antiquewhite" points="403.52476638302886,390.73606729955577 403.52476638302886,277.9166832454392 430.0705038075269,270.25358892150365 430.0705038075269,383.07297297562025" />
  <polygon fill="beige" points="403.52476638302886,390.73606729955577 403.52476638302886,277.9166832454392 388.1985777351578,264.64381453319015 388.1985777351578,377.4631985873068" />
  <polygon fill="bisque" points="403.52476638302886,277.9166832454392 388.1985777351578,264.64381453319015 414.74431515965586,256.9807202092546 430.0705038075269,270.25358892150365" />
  <polygon fill="antiquewhite" points="357.62528042309697,363.0573860258456 357.6252804230969,250.23800197172895 384.17101784759495,242.5749076477934 384.17101784759495,355.39429170191005" />
  <polygon fill="beige" points="357.62528042309697,363.0573860258456 357.6252804230969,250.23800197172895 342.29909177522586,236.9651332594799 342.29909177522586,349.78451731359655" />
  <polygon fill="bisque" points="357.6252804230969,250.23800197172895 342.29909177522586,236.9651332594799 368.8448291997239,229.30203893554437 384.17101784759495,242.5749076477934" />
</svg>
