<?xml version="1.0" encoding="UTF-8"?>
<svg
  xmlns="http://www.w3.org/2000/svg"
  width="848"
  height="600"
  style="background-color:white"
>
  <polygon fill="lightblue" points="420.24216370732654,544.4207202888047 228.66480560893825,378.50986138569203 427.75783629267346,321.03665395617554 619.3351943910618,486.9475128592883" />
  <polygon fill="steelblue" points="228.66480560893825,378.50986138569203 228.66480560893825,113.05248714071175 427.75783629267346,55.579279711195284 427.75783629267346,321.03665395617554" />
  <polygon fill="lightskyblue" points="619.3351943910618,486.9475128592883 619.3351943910618,221.49013861430797 427.75783629267346,55.579279711195284 427.75783629267346,321.03665395617554" />
  <polygon fill="white" points="535.0411568277709,413.94673494191863 535.0411568277709,281.21804781942853 512.0518738559643,261.308744751055 512.0518738559643,394.03743187354513" />
  <polygon fill="white" points="261.84697738956083,315.83951863177657 261.84697738956083,262.7480437827805 295.02914917018336,253.16917587786108 295.02914917018336,306.26065072685714" />
  <polygon fill="white" points="311.6202350604946,301.4712167743974 311.6202350604946,248.3797419254014 344.80240684111715,238.80087402048196 344.80240684111715,291.89234886947804" />
  <polygon fill="white" points="361.3934927314284,287.1029149170183 361.3934927314284,234.01144006802224 394.57566451205093,224.43257216310283 394.57566451205093,277.5240470120989" />
  <polygon fill="grey" points="413.73340032188975,128.20427399929747 413.73340032188975,95.02210221867495 446.91557210251233,85.44323431375554 446.91557210251233,118.62540609437806" />
  <polygon fill="lightgrey" points="413.73340032188975,128.20427399929747 413.73340032188975,95.02210221867495 394.57566451205093,78.43101632836371 394.57566451205093,111.61318810898621" />
  <polygon fill="darkgrey" points="413.73340032188975,95.02210221867495 394.57566451205093,78.43101632836371 427.75783629267346,68.8521484234443 446.91557210251233,85.44323431375554" />
  <polygon fill="hsl(324.0,50.0%,70.71600065166498%)" points="387.3905484264689,388.512419608364 387.3905484264689,342.93338845050084 395.35426965381833,340.6344601533202 395.35426965381833,386.21349131118336" />
  <polygon fill="hsl(324.0,50.0%,70.71600065166498%)" points="407.2998514948424,382.76509886541237 407.2998514948424,337.1860677075492 399.33613026749305,339.48499600472985 399.33613026749305,385.064027162593" />
  <polygon fill="hsl(324.0,50.0%,70.71600065166498%)" points="379.42682719911954,345.68359428389795 379.42682719911954,300.55584066225134 386.39508327305026,298.54427840221825 386.39508327305026,343.6720320238649" />
  <polygon fill="hsl(324.0,50.0%,70.71600065166498%)" points="408.2953166482611,337.3499792066181 408.2953166482611,292.22222558497145 415.26357272219184,290.21066332493837 415.26357272219184,335.338416946585" />
  <polygon fill="hsl(324.0,50.0%,70.71600065166498%)" points="386.39508327305026,305.51253447614897 386.39508327305026,298.54427840221825 408.2953166482611,292.22222558497145 408.2953166482611,299.1904816589022" />
  <polygon fill="hsl(324.0,50.0%,70.71600065166498%)" points="387.3905484264689,343.3846659867173 387.3905484264689,298.25691236507066 407.2998514948424,292.50959162211905 407.2998514948424,337.63734524376565" />
  <polygon fill="hsl(324.0,50.0%,70.71600065166498%)" points="392.3678741935623,294.5636944982504 392.3678741935623,274.2562053685094 402.32252572774905,271.3825449970336 402.32252572774905,291.6900341267746" />
  <polygon fill="hsl(324.0,50.0%,70.71600065166498%)" points="394.35880450039963,296.2453501050376 394.35880450039963,273.6814732942143 400.3315954209117,271.9572770713288 400.3315954209117,294.52115388215213" />
  <polygon fill="hsl(324.0,50.0%,51.426934746249444%)" points="449.59691284370155,455.8954021023984 449.59691284370155,410.3163709445353 457.5606340710509,408.01744264735464 457.5606340710509,453.5964738052178" />
  <polygon fill="hsl(324.0,50.0%,51.426934746249444%)" points="469.50621591207505,450.1480813594468 469.50621591207505,404.56905020158365 461.5424946847256,406.86797849876433 461.5424946847256,452.4470096566274" />
  <polygon fill="hsl(324.0,50.0%,51.426934746249444%)" points="441.6331916163521,413.0665767779324 441.6331916163521,367.9388231562858 448.60144769028284,365.92726089625273 448.60144769028284,411.05501451789934" />
  <polygon fill="hsl(324.0,50.0%,51.426934746249444%)" points="470.5016810654937,404.73296170065254 470.5016810654937,359.60520807900593 477.4699371394244,357.59364581897285 477.4699371394244,402.7213994406195" />
  <polygon fill="hsl(324.0,50.0%,51.426934746249444%)" points="448.60144769028284,372.89551697018345 448.60144769028284,365.92726089625273 470.5016810654937,359.60520807900593 470.5016810654937,366.57346415293665" />
  <polygon fill="hsl(324.0,50.0%,51.426934746249444%)" points="449.59691284370155,410.76764848075175 449.59691284370155,365.63989485910514 469.50621591207505,359.89257411615347 469.50621591207505,405.02032773780013" />
  <polygon fill="hsl(324.0,50.0%,51.426934746249444%)" points="454.5742386107949,361.9466769922849 454.5742386107949,341.6391878625439 464.5288901449817,338.7655274910681 464.5288901449817,359.0730166208091" />
  <polygon fill="hsl(324.0,50.0%,51.426934746249444%)" points="456.56516891763226,363.62833259907205 456.56516891763226,341.0644557882487 462.53795983814433,339.3402595653632 462.53795983814433,361.90413637618656" />
</svg>
