<?xml version="1.0" encoding="UTF-8"?>
<svg
  xmlns="http://www.w3.org/2000/svg"
  width="848"
  height="600"
  style="background-color:white"
>
  <polygon fill="lightblue" points="419.0961894323342,662.2595264191646 169.0961894323342,445.7531754730548 428.9038105676658,370.75317547305474 678.9038105676658,587.2595264191644" />
  <polygon fill="steelblue" points="169.0961894323342,445.7531754730548 169.0961894323342,12.740473580835555 428.9038105676658,-62.2595264191645 428.9038105676658,370.75317547305474" />
  <polygon fill="lightskyblue" points="678.9038105676658,587.2595264191644 678.9038105676658,154.2468245269452 428.9038105676658,-62.2595264191645 428.9038105676658,370.75317547305474" />
  <polygon fill="white" points="568.9038105676658,491.99673200287623 568.9038105676658,318.7916512459885 538.9038105676658,292.8108891324553 538.9038105676658,466.01596988934307" />
  <polygon fill="white" points="199.40707856478957,367.72114317029974 199.40707856478957,298.4391108675446 242.7083487540115,285.9391108675446 242.7083487540115,355.22114317029974" />
  <polygon fill="white" points="251.3686027918559,352.72114317029974 251.36860279185586,283.4391108675446 294.6698729810778,270.9391108675446 294.6698729810778,340.22114317029974" />
  <polygon fill="white" points="303.3301270189222,337.72114317029974 303.3301270189222,268.4391108675446 346.6313972081441,255.93911086754463 346.6313972081441,325.22114317029974" />
  <polygon fill="white" points="355.29165124598853,322.72114317029974 355.29165124598853,253.43911086754463 398.5929214352104,240.93911086754463 398.5929214352104,310.22114317029974" />
</svg>
