<?xml version="1.0" encoding="UTF-8"?>
<svg
  xmlns="http://www.w3.org/2000/svg"
  width="848"
  height="600"
  style="background-color:white"
>
  <polygon fill="lightblue" points="419.0961894323342,618.9582562299425 169.0961894323342,402.45190528383284 428.9038105676658,327.45190528383284 678.9038105676658,543.9582562299425" />
  <polygon fill="steelblue" points="169.0961894323342,402.45190528383284 169.0961894323342,56.04174377005745 428.9038105676658,-18.95825622994255 428.9038105676658,327.45190528383284" />
  <polygon fill="lightskyblue" points="678.9038105676658,543.9582562299425 678.9038105676658,197.54809471616713 428.9038105676658,-18.95825622994255 428.9038105676658,327.45190528383284" />
  <polygon fill="white" points="568.9038105676658,448.6954618136543 568.9038105676658,275.4903810567666 538.9038105676658,249.50961894323342 538.9038105676658,422.7146997001211" />
  <polygon fill="white" points="184.56092878562777,328.70558726679207 184.56092878562777,259.423554964037 227.8621989748497,246.92355496403698 227.8621989748497,316.20558726679207" />
  <polygon fill="white" points="221.67630323353228,317.99130155250634 221.67630323353228,248.7092692497513 264.9775734227542,236.2092692497513 264.9775734227542,305.49130155250634" />
  <polygon fill="white" points="258.7916776814368,307.2770158382206 258.7916776814368,237.99498353546556 302.0929478706587,225.49498353546556 302.0929478706587,294.7770158382206" />
  <polygon fill="white" points="295.9070521293413,296.5627301239349 295.9070521293413,227.28069782117984 339.2083223185632,214.78069782117984 339.2083223185632,284.0627301239349" />
  <polygon fill="white" points="333.0224265772458,285.84844440964923 333.0224265772458,216.56641210689412 376.3236967664677,204.06641210689412 376.3236967664677,273.34844440964923" />
  <polygon fill="white" points="370.1378010251503,275.1341586953635 370.1378010251503,205.8521263926084 413.43907121437223,193.3521263926084 413.43907121437223,262.63415869536345" />
</svg>
