<?xml version="1.0" encoding="UTF-8"?>
<svg
  xmlns="http://www.w3.org/2000/svg"
  width="848"
  height="600"
  style="background-color:white"
>
  <polygon fill="lightblue" points="419.8639659827787,532.4981064453721 209.0057996573414,349.88957781213895 428.1360340172213,286.6321279145077 638.9942003426586,469.24065654774085" />
  <polygon fill="steelblue" points="209.0057996573414,349.88957781213895 209.0057996573414,130.75934345225912 428.1360340172213,67.50189355462788 428.1360340172213,286.6321279145077" />
  <polygon fill="lightskyblue" points="638.9942003426586,469.24065654774085 638.9942003426586,250.11042218786108 428.1360340172213,67.50189355462788 428.1360340172213,286.6321279145077" />
  <polygon fill="white" points="546.2166071594661,388.89290394911825 546.2166071594661,242.80608104253173 520.9136272004137,220.89305760654378 520.9136272004137,366.9798805131303" />
  <polygon fill="white" points="234.57099366599408,284.074812828114 234.57099366599408,225.64008366547938 271.0926993926407,215.0971753492075 271.0926993926407,273.53190451184213" />
  <polygon fill="white" points="278.39704053797004,271.42332284858776 278.39704053797004,212.9885936859531 314.9187462646167,202.44568536968126 314.9187462646167,260.88041453231585" />
  <polygon fill="white" points="322.223087409946,258.7718328690615 322.22308740994595,200.3371037064269 358.74479313659265,189.794195390155 358.74479313659265,248.22892455278964" />
  <polygon fill="white" points="366.04913428192197,246.12034288953527 366.04913428192197,187.68561372690064 402.5708400085686,177.14270541062876 402.5708400085686,235.5774345732634" />
</svg>
