<?xml version="1.0" encoding="UTF-8"?>
<svg
  xmlns="http://www.w3.org/2000/svg"
  width="848"
  height="600"
  style="background-color:white"
>
  <polygon fill="lightblue" points="420.71042386657524,513.9637028744842 253.005325554091,368.726827391706 427.28957613342476,318.4152978979608 594.994674445909,463.6521733807389" />
  <polygon fill="steelblue" points="253.005325554091,368.726827391706 253.005325554091,136.3478266192611 427.28957613342476,86.03629712551583 427.28957613342476,318.4152978979608" />
  <polygon fill="lightskyblue" points="594.994674445909,463.6521733807389 594.994674445909,231.27317260829395 427.28957613342476,86.03629712551583 427.28957613342476,318.4152978979608" />
  <polygon fill="white" points="521.2044311884159,399.7479481683165 521.2044311884159,283.55844778209405 501.0798193909178,266.13002272416065 501.0798193909178,382.31952311038316" />
  <polygon fill="white" points="263.3793880885752,319.25629333877987 263.3793880885752,272.78049318429083 292.42676318513077,264.3952382686666 292.42676318513077,310.87103842315565" />
  <polygon fill="white" points="288.2771381713371,312.0689319825305 288.2771381713371,265.5931318280415 317.32451326789277,257.2078769124173 317.32451326789277,303.6836770669063" />
  <polygon fill="white" points="313.1748882540991,304.8815706262812 313.1748882540991,258.4057704717922 342.2222633506547,250.020515556168 342.2222633506547,296.496315710657" />
  <polygon fill="white" points="338.0726383368611,297.6942092700319 338.072638336861,251.21840911554287 367.12001343341666,242.83315419991865 367.12001343341666,289.30895435440766" />
  <polygon fill="white" points="362.970388419623,290.50684791378256 362.970388419623,244.03104775929353 392.01776351617866,235.6457928436693 392.01776351617866,282.12159299815835" />
  <polygon fill="white" points="387.86813850238497,283.3194865575332 387.86813850238497,236.84368640304422 416.9155135989406,228.45843148742 416.9155135989406,274.934231641909" />
</svg>
