<?xml version="1.0" encoding="UTF-8"?>
<svg
  xmlns="http://www.w3.org/2000/svg"
  width="848"
  height="600"
  style="background-color:white"
>
  <polygon fill="lightblue" points="437.4530513770976,557.0021119886889 236.62316635244676,383.07832971823325 410.5469486229024,332.8708584620705 611.3768336475532,506.79464073252615" />
  <polygon fill="steelblue" points="236.62316635244676,383.07832971823325 236.62316635244676,93.20535926747385 410.5469486229024,42.99788801131115 410.5469486229024,332.8708584620705" />
  <polygon fill="lightskyblue" points="611.3768336475532,506.79464073252615 611.3768336475532,216.92167028176678 410.5469486229024,42.99788801131115 410.5469486229024,332.8708584620705" />
  <polygon fill="white" points="521.0033853864604,428.5289387108211 521.0033853864604,312.57975053051734 500.9203968839953,295.1873723034718 500.9203968839953,411.13656048377555" />
  <polygon fill="white" points="256.91427428399993,330.84111613289275 256.91427428399993,284.46144086077123 285.90157132907586,276.0935289847441 285.90157132907586,322.47320425686564" />
  <polygon fill="white" points="291.69903073809104,320.7996218816602 291.69903073809104,274.41994660953867 320.686327783167,266.05203473351156 320.686327783167,312.4317100056331" />
  <polygon fill="white" points="326.48378719218215,310.7581276304277 326.48378719218215,264.37845235830616 355.4710842372581,256.010540482279 355.4710842372581,302.3902157544006" />
  <polygon fill="white" points="361.2685436462733,300.7166333791951 361.2685436462733,254.3369581070736 390.25584069134925,245.9690462310465 390.25584069134925,292.348721503168" />
  <polygon fill="antiquewhite" points="487.4567917223311,473.6228475512074 487.4567917223311,375.0660375979492 510.6466293583918,368.37170809712757 510.64662935839186,466.9285180503857" />
  <polygon fill="beige" points="487.4567917223311,473.6228475512074 487.4567917223311,375.0660375979492 474.0681327206877,363.47111877991887 474.0681327206877,462.0279287331771" />
  <polygon fill="bisque" points="487.4567917223311,375.0660375979492 474.0681327206877,363.47111877991887 497.25797035674844,356.77678927909716 510.6466293583918,368.37170809712757" />
  <polygon fill="antiquewhite" points="447.6998543518405,538.9358584189578 447.6998543518405,440.3790484656996 470.8896919879012,433.6847189648779 470.88969198790124,532.241528918136" />
  <polygon fill="beige" points="447.6998543518405,538.9358584189578 447.6998543518405,440.3790484656996 434.31119535019707,428.7841296476692 434.31119535019707,527.3409396009274" />
  <polygon fill="bisque" points="447.6998543518405,440.3790484656996 434.31119535019707,428.7841296476692 457.5010329862578,422.0898001468475 470.8896919879012,433.6847189648779" />
  <polygon fill="antiquewhite" points="394.6435841907327,363.737563519888 394.6435841907327,265.1807535666298 417.8334218267935,258.4864240658081 417.8334218267935,357.0432340190663" />
  <polygon fill="beige" points="394.6435841907327,363.737563519888 394.6435841907327,265.1807535666298 381.2549251890893,253.58583474859938 381.2549251890893,352.1426447018576" />
  <polygon fill="bisque" points="394.6435841907327,265.1807535666298 381.2549251890893,253.58583474859938 404.44476282515006,246.8915052477777 417.8334218267935,258.4864240658081" />
  <polygon fill="antiquewhite" points="398.43160790864056,401.60006790089943 398.43160790864056,303.0432579476412 421.6214455447013,296.3489284468195 421.6214455447013,394.9057384000777" />
  <polygon fill="beige" points="398.43160790864056,401.60006790089943 398.43160790864056,303.0432579476412 385.04294890699714,291.4483391296109 385.04294890699714,390.005149082869" />
  <polygon fill="bisque" points="398.43160790864056,303.0432579476412 385.04294890699714,291.4483391296109 408.2327865430579,284.75400962878916 421.6214455447013,296.3489284468195" />
</svg>
