<?xml version="1.0" encoding="UTF-8"?>
<svg
  xmlns="http://www.w3.org/2000/svg"
  width="848"
  height="600"
  style="background-color:white"
>
  <polygon fill="lightblue" points="438.21015182361293,510.22823500323386 226.07811746764872,326.5165042944955 409.78984817638707,273.4834957055045 621.9218825323512,457.1952264142428" />
  <polygon fill="steelblue" points="226.07811746764872,326.5165042944955 226.07811746764872,142.8047735857572 409.78984817638707,89.77176499676614 409.78984817638707,273.4834957055045" />
  <polygon fill="lightskyblue" points="621.9218825323512,457.1952264142428 621.9218825323512,273.4834957055045 409.78984817638707,89.77176499676614 409.78984817638707,273.4834957055045" />
  <polygon fill="white" points="526.4624670721673,374.52494759531055 526.4624670721673,252.05046045615165 505.24926363657096,233.67928738527783 505.24926363657096,356.1537745244367" />
  <polygon fill="white" points="247.51115271700152,271.33952510344966 247.51115271700152,222.34973024778614 278.12977450179125,213.5108954829543 278.12977450179125,262.50069033861786" />
  <polygon fill="white" points="284.2534988587492,260.7329233856515 284.2534988587492,211.74312852998793 314.8721206435389,202.90429376515607 314.8721206435389,251.89408862081962" />
  <polygon fill="white" points="320.99584500049684,250.12632166785326 320.99584500049684,201.13652681218971 351.6144667852866,192.29769204735786 351.6144667852866,241.2874869030214" />
  <polygon fill="white" points="357.73819114224455,239.51971995005505 357.73819114224455,190.5299250943915 388.35681292703424,181.69109032955964 388.35681292703424,230.6808851852232" />
</svg>
