<?xml version="1.0" encoding="UTF-8"?>
<svg
  xmlns="http://www.w3.org/2000/svg"
  width="848"
  height="600"
  style="background-color:white"
>
  <polygon fill="lightblue" points="437.4530513770976,557.0021119886889 236.62316635244676,383.07832971823325 410.5469486229024,332.8708584620705 611.3768336475532,506.79464073252615" />
  <polygon fill="steelblue" points="236.62316635244676,383.07832971823325 236.62316635244676,93.20535926747385 410.5469486229024,42.99788801131115 410.5469486229024,332.8708584620705" />
  <polygon fill="lightskyblue" points="611.3768336475532,506.79464073252615 611.3768336475532,216.92167028176678 410.5469486229024,42.99788801131115 410.5469486229024,332.8708584620705" />
  <polygon fill="white" points="487.5317378823519,399.54164166574515 487.5317378823519,283.5924534854414 467.4487493798868,266.2000752583958 467.4487493798868,382.1492634386996" />
  <polygon fill="white" points="554.4750328905689,457.516235755897 554.4750328905689,341.5670475755933 534.3920443881037,324.17466934854775 534.3920443881037,440.12385752885143" />
  <polygon fill="white" points="280.10411192006063,324.14678663207104 280.10411192006063,277.7671113599495 309.0914089651366,269.3991994839224 309.0914089651366,315.77887475604393" />
  <polygon fill="white" points="338.07870601021256,307.4109628800168 338.07870601021256,261.0312876078953 367.0660030552885,252.66337573186817 367.0660030552885,299.0430510039897" />
  <polygon fill="hsl(288.0,50.0%,72.09185257592405%)" points="378.20308909265896,394.34534917592373 378.20308909265896,354.5283979548074 385.16004038347717,352.52009910456087 385.16004038347717,392.3370503256772" />
  <polygon fill="hsl(288.0,50.0%,72.09185257592405%)" points="395.59546731970454,389.3246020503074 395.59546731970454,349.5076508291911 388.63851602888633,351.51594967943765 388.63851602888633,391.33290090055397" />
  <polygon fill="hsl(288.0,50.0%,72.09185257592405%)" points="371.24613780184075,356.9309240448669 371.24613780184075,317.50820006356366 377.33347018130667,315.75093856959796 377.33347018130667,355.1736625509012" />
  <polygon fill="hsl(288.0,50.0%,72.09185257592405%)" points="396.4650862310568,349.6508407127233 396.4650862310568,310.2281167314201 402.55241861052275,308.4708552374544 402.55241861052275,347.8935792187576" />
  <polygon fill="hsl(288.0,50.0%,72.09185257592405%)" points="377.33347018130667,321.8382709490639 377.33347018130667,315.75093856959796 396.4650862310568,310.2281167314201 396.4650862310568,316.315449110886" />
  <polygon fill="hsl(288.0,50.0%,72.09185257592405%)" points="378.20308909265896,354.9226251946204 378.20308909265896,315.4999012133172 395.59546731970454,310.47915408770086 395.59546731970454,349.90187806900417" />
  <polygon fill="hsl(288.0,50.0%,72.09185257592405%)" points="382.55118364942035,312.2735782328479 382.55118364942035,294.53335244126146 391.24737276294314,292.02297887845333 391.24737276294314,309.7632046700398" />
  <polygon fill="hsl(288.0,50.0%,72.09185257592405%)" points="384.29042147212493,313.7426397193515 384.29042147212493,294.0312777286998 389.50813494023856,292.52505359101497 389.50813494023856,312.23641558166656" />
  <polygon fill="hsl(288.0,50.0%,59.71537400830306%)" points="430.8078600947395,436.5613655244322 430.8078600947395,396.74441430331586 437.7648113855577,394.7361154530694 437.7648113855577,434.55306667418563" />
  <polygon fill="hsl(288.0,50.0%,59.71537400830306%)" points="448.20023832178504,431.5406183988159 448.20023832178504,391.7236671776996 441.2432870309668,393.7319660279461 441.2432870309668,433.5489172490624" />
  <polygon fill="hsl(288.0,50.0%,59.71537400830306%)" points="423.85090880392124,399.1469403933754 423.85090880392124,359.7242164120721 429.9382411833872,357.9669549181064 429.9382411833872,397.3896788994097" />
  <polygon fill="hsl(288.0,50.0%,59.71537400830306%)" points="449.0698572331373,391.8668570612318 449.0698572331373,352.4441330799285 455.15718961260325,350.6868715859628 455.15718961260325,390.1095955672661" />
  <polygon fill="hsl(288.0,50.0%,59.71537400830306%)" points="429.9382411833872,364.0542872975724 429.9382411833872,357.9669549181064 449.0698572331373,352.4441330799285 449.0698572331373,358.5314654593945" />
  <polygon fill="hsl(288.0,50.0%,59.71537400830306%)" points="430.8078600947395,397.13864154312887 430.8078600947395,357.7159175618256 448.20023832178504,352.6951704362093 448.20023832178504,392.1178944175126" />
  <polygon fill="hsl(288.0,50.0%,59.71537400830306%)" points="435.15595465150085,354.48959458135636 435.15595465150085,336.7493687897699 443.85214376502364,334.2389952269618 443.85214376502364,351.97922101854823" />
  <polygon fill="hsl(288.0,50.0%,59.71537400830306%)" points="436.89519247420543,355.9586560678599 436.89519247420543,336.24729407720827 442.1129059423191,334.7410699395234 442.1129059423191,354.45243193017507" />
  <polygon fill="hsl(288.0,50.0%,57.41001122500038%)" points="440.6672472663317,444.40740333305166 440.6672472663317,404.59045211193535 447.6241985571499,402.58215326168886 447.6241985571499,442.3991044828051" />
  <polygon fill="hsl(288.0,50.0%,57.41001122500038%)" points="458.05962549337727,439.38665620743535 458.05962549337727,399.56970498631904 451.102674202559,401.5780038365656 451.10267420255906,441.39495505768184" />
  <polygon fill="hsl(288.0,50.0%,57.41001122500038%)" points="433.7102959755135,406.9929782019949 433.7102959755135,367.5702542206916 439.7976283549794,365.8129927267259 439.79762835497945,405.2357167080292" />
  <polygon fill="hsl(288.0,50.0%,57.41001122500038%)" points="458.9292444047295,399.7128948698513 458.9292444047295,360.290170888548 465.0165767841955,358.5329093945823 465.0165767841955,397.95563337588555" />
  <polygon fill="hsl(288.0,50.0%,57.41001122500038%)" points="439.7976283549794,371.9003251061919 439.7976283549794,365.8129927267259 458.9292444047295,360.290170888548 458.9292444047295,366.3775032680139" />
  <polygon fill="hsl(288.0,50.0%,57.41001122500038%)" points="440.6672472663317,404.98467935174835 440.6672472663317,365.5619553704451 458.0596254933772,360.5412082448288 458.05962549337727,399.9639322261321" />
  <polygon fill="hsl(288.0,50.0%,57.41001122500038%)" points="445.0153418230931,362.33563238997584 445.0153418230931,344.5954065983894 453.7115309366159,342.08503303558126 453.7115309366159,359.8252588271677" />
  <polygon fill="hsl(288.0,50.0%,57.41001122500038%)" points="446.75457964579766,363.8046938764794 446.75457964579766,344.09333188582775 451.9722931139113,342.5871077481429 451.9722931139113,362.29846973879455" />
  <polygon fill="hsl(288.0,50.0%,50.65955712546234%)" points="454.0665809854735,471.84773577579114 454.0665809854735,432.0307845546748 461.0235322762917,430.02248570442833 461.0235322762917,469.83943692554465" />
  <polygon fill="hsl(288.0,50.0%,50.65955712546234%)" points="471.45895921251906,466.8269886501748 471.45895921251906,427.01003742905857 464.50200792170085,429.01833627930506 464.50200792170085,468.8352875004214" />
  <polygon fill="hsl(288.0,50.0%,50.65955712546234%)" points="447.10962969465527,434.4333106447343 447.10962969465527,395.01058666343107 453.1969620741212,393.25332516946537 453.1969620741212,432.6760491507687" />
  <polygon fill="hsl(288.0,50.0%,50.65955712546234%)" points="472.3285781238713,427.1532273125908 472.3285781238713,387.73050333128754 478.4159105033373,385.9732418373218 478.4159105033373,425.3959658186251" />
  <polygon fill="hsl(288.0,50.0%,50.65955712546234%)" points="453.1969620741212,399.34065754893135 453.1969620741212,393.25332516946537 472.3285781238713,387.73050333128754 472.3285781238713,393.81783571075346" />
  <polygon fill="hsl(288.0,50.0%,50.65955712546234%)" points="454.0665809854735,432.4250117944879 454.0665809854735,393.0022878131846 471.45895921251906,387.9815406875683 471.45895921251906,427.4042646688716" />
  <polygon fill="hsl(288.0,50.0%,50.65955712546234%)" points="458.4146755422349,389.7759648327153 458.4146755422349,372.03573904112886 467.11086465575767,369.52536547832074 467.11086465575767,387.2655912699072" />
  <polygon fill="hsl(288.0,50.0%,50.65955712546234%)" points="460.1539133649394,391.2450263192189 460.1539133649394,371.5336643285673 465.3716268330531,370.0274401908824 465.3716268330531,389.738802181534" />
  <polygon fill="hsl(288.0,50.0%,42.21758785095096%)" points="453.422403506313,511.1872731571972 453.422403506313,471.3703219360809 460.3793547971312,469.3620230858344 460.37935479713127,509.1789743069507" />
  <polygon fill="hsl(288.0,50.0%,42.21758785095096%)" points="470.8147817333586,506.16652603158093 470.8147817333586,466.3495748104647 463.8578304425404,468.3578736607111 463.8578304425404,508.1748248818275" />
  <polygon fill="hsl(288.0,50.0%,42.21758785095096%)" points="446.4654522154948,473.7728480261404 446.4654522154948,434.3501240448372 452.5527845949607,432.5928625508715 452.5527845949607,472.0155865321748" />
  <polygon fill="hsl(288.0,50.0%,42.21758785095096%)" points="471.6844006447109,466.49276469399683 471.6844006447108,427.0700407126936 477.7717330241768,425.3127792187279 477.7717330241768,464.7355032000312" />
  <polygon fill="hsl(288.0,50.0%,42.21758785095096%)" points="452.5527845949607,438.6801949303374 452.5527845949607,432.5928625508715 471.6844006447108,427.0700407126936 471.6844006447108,433.15737309215956" />
  <polygon fill="hsl(288.0,50.0%,42.21758785095096%)" points="453.422403506313,471.76454917589393 453.422403506313,432.3418251945907 470.8147817333586,427.3210780689744 470.8147817333586,466.7438020502776" />
  <polygon fill="hsl(288.0,50.0%,42.21758785095096%)" points="457.7704980630744,429.1155022141214 457.7704980630744,411.37527642253497 466.4666871765972,408.86490285972684 466.4666871765972,426.6051286513133" />
  <polygon fill="hsl(288.0,50.0%,42.21758785095096%)" points="459.509735885779,430.584563700625 459.509735885779,410.87320170997333 464.7274493538926,409.3669775722884 464.7274493538926,429.0783395629401" />
</svg>
