<?xml version="1.0" encoding="UTF-8"?>
<svg
  xmlns="http://www.w3.org/2000/svg"
  width="848"
  height="600"
  style="background-color:white"
>
  <polygon fill="lightblue" points="439.95035612271977,535.9732152741941 201.84019832748984,329.76376972440374 408.04964387728023,270.23623027559626 646.1598016725102,476.4456758253866" />
  <polygon fill="steelblue" points="201.84019832748984,329.76376972440374 201.84019832748984,123.55432417461336 408.04964387728023,64.02678472580587 408.04964387728023,270.23623027559626" />
  <polygon fill="lightskyblue" points="646.1598016725102,476.4456758253866 646.1598016725102,270.23623027559626 408.04964387728023,64.02678472580587 408.04964387728023,270.23623027559626" />
  <polygon fill="white" points="539.0102306646567,383.651425327981 539.0102306646567,246.17846162812071 515.1992148851338,225.55751707314167 515.1992148851338,363.0304807730019" />
  <polygon fill="antiquewhite" points="499.2363458671933,437.11616613719946 499.2363458671933,320.2641469923182 526.7309386071654,312.32714173247723 526.7309386071654,429.1791608773584" />
  <polygon fill="beige" points="499.2363458671933,437.11616613719946 499.2363458671933,320.2641469923182 483.3623353475113,306.5168506223322 483.3623353475113,423.3688697672134" />
  <polygon fill="bisque" points="499.2363458671933,320.2641469923182 483.3623353475113,306.5168506223322 510.85692808748337,298.5798453624912 526.7309386071654,312.32714173247723" />
  <polygon fill="antiquewhite" points="452.0992844204837,514.5533031543954 452.0992844204837,397.70128400951415 479.5938771604557,389.76427874967317 479.59387716045575,506.6162978945544" />
  <polygon fill="beige" points="452.0992844204837,514.5533031543954 452.0992844204837,397.70128400951415 436.2252739008017,383.9539876395281 436.2252739008017,500.8060067844093" />
  <polygon fill="bisque" points="452.0992844204837,397.70128400951415 436.2252739008017,383.9539876395281 463.7198666407737,376.01698237968714 479.5938771604557,389.76427874967317" />
</svg>
