<?xml version="1.0" encoding="UTF-8"?>
<svg
  xmlns="http://www.w3.org/2000/svg"
  width="848"
  height="600"
  style="background-color:white"
>
  <polygon fill="lightblue" points="436.6598060442364,569.1263377791662 247.6716485600054,405.457792383408 411.34019395576365,358.2107530123502 600.3283514399945,521.8792984081084" />
  <polygon fill="steelblue" points="247.6716485600054,405.457792383408 247.6716485600054,78.12070159189156 411.3401939557636,30.873662220833808 411.34019395576365,358.2107530123502" />
  <polygon fill="lightskyblue" points="600.3283514399945,521.8792984081084 600.3283514399945,194.542207616592 411.3401939557636,30.873662220833808 411.34019395576365,358.2107530123502" />
  <polygon fill="white" points="515.2836805720907,448.2284529800172 515.2836805720906,339.1160893828451 496.38486482366756,322.7492348432693 496.3848648236676,431.8615984404414" />
  <polygon fill="white" points="315.866875808238,342.12658053993175 315.866875808238,298.48163510106286 343.144966707531,290.6071285392199 343.144966707531,334.2520739780888" />
  <polygon fill="antiquewhite" points="483.715127287913,490.6634458818975 483.715127287913,397.9179368243012 505.5376000073474,391.6183315748268 505.5376000073474,484.36384063242315" />
  <polygon fill="beige" points="483.715127287913,490.6634458818975 483.715127287913,397.9179368243012 471.1159167889642,387.00670046458396 471.1159167889642,479.7522095221803" />
  <polygon fill="bisque" points="483.715127287913,397.9179368243012 471.1159167889642,387.00670046458396 492.9383895083987,380.7070952151096 505.5376000073474,391.6183315748268" />
  <polygon fill="antiquewhite" points="446.3024168243147,552.1253422631487 446.3024168243147,459.3798332055524 468.12488954374913,453.08022795607803 468.12488954374913,545.8257370136744" />
  <polygon fill="beige" points="446.3024168243147,552.1253422631487 446.3024168243147,459.3798332055524 433.703206325366,448.4685968458352 433.703206325366,541.2141059034316" />
  <polygon fill="bisque" points="446.3024168243147,459.3798332055524 433.703206325366,448.4685968458352 455.5256790448004,442.1689915963608 468.12488954374913,453.08022795607803" />
</svg>
