<?xml version="1.0" encoding="UTF-8"?>
<svg
  xmlns="http://www.w3.org/2000/svg"
  width="848"
  height="600"
  style="background-color:white"
>
  <polygon fill="lightblue" points="444.0961894323342,640.6088913245535 144.0961894323342,380.8012701892219 403.9038105676658,305.8012701892219 703.9038105676658,565.6088913245535" />
  <polygon fill="steelblue" points="144.0961894323342,380.8012701892219 144.0961894323342,34.3911086754465 403.9038105676658,-40.6088913245535 403.9038105676658,305.8012701892219" />
  <polygon fill="lightskyblue" points="703.9038105676658,565.6088913245535 703.9038105676658,219.19872981077808 403.9038105676658,-40.6088913245535 403.9038105676658,305.8012701892219" />
  <polygon fill="white" points="568.9038105676658,448.6954618136543 568.9038105676658,275.4903810567666 538.9038105676658,249.50961894323342 538.9038105676658,422.7146997001211" />
  <polygon fill="white" points="174.40707856478957,302.76923788646684 174.40707856478957,233.48720558371173 217.7083487540115,220.98720558371173 217.70834875401152,290.26923788646684" />
  <polygon fill="white" points="226.36860279185586,287.76923788646684 226.36860279185586,218.48720558371173 269.6698729810778,205.98720558371173 269.6698729810778,275.26923788646684" />
  <polygon fill="white" points="278.3301270189222,272.76923788646684 278.33012701892216,203.48720558371173 321.6313972081441,190.98720558371173 321.6313972081441,260.26923788646684" />
  <polygon fill="white" points="330.29165124598853,257.76923788646684 330.29165124598853,188.48720558371173 373.5929214352104,175.98720558371173 373.5929214352104,245.2692378864668" />
</svg>
