<?xml version="1.0" encoding="UTF-8"?>
<svg
  xmlns="http://www.w3.org/2000/svg"
  width="848"
  height="600"
  style="background-color:white"
>
  <polygon fill="lightblue" points="437.4530513770976,557.0021119886889 236.62316635244676,383.07832971823325 410.5469486229024,332.8708584620705 611.3768336475532,506.79464073252615" />
  <polygon fill="steelblue" points="236.62316635244676,383.07832971823325 236.62316635244676,93.20535926747385 410.5469486229024,42.99788801131115 410.5469486229024,332.8708584620705" />
  <polygon fill="lightskyblue" points="611.3768336475532,506.79464073252615 611.3768336475532,216.92167028176678 410.5469486229024,42.99788801131115 410.5469486229024,332.8708584620705" />
  <polygon fill="white" points="487.5317378823519,399.54164166574515 487.5317378823519,283.5924534854414 467.4487493798868,266.2000752583958 467.4487493798868,382.1492634386996" />
  <polygon fill="white" points="554.4750328905689,457.516235755897 554.4750328905689,341.5670475755933 534.3920443881037,324.17466934854775 534.3920443881037,440.12385752885143" />
  <polygon fill="white" points="265.6104633975227,328.3307425700846 265.6104633975227,281.9510672979631 294.59776044259866,273.583155421936 294.59776044259866,319.9628306940575" />
  <polygon fill="white" points="309.0914089651366,315.77887475604393 309.0914089651366,269.3991994839224 338.07870601021256,261.0312876078953 338.07870601021256,307.4109628800168" />
  <polygon fill="white" points="352.5723545327505,303.22700694200324 352.5723545327505,256.8473316698817 381.55965157782646,248.47941979385462 381.55965157782646,294.85909506597613" />
  <polygon fill="grey" points="398.2954753298807,106.44166427298254 398.2954753298807,77.45436722790657 427.2827723749566,69.08645535187947 427.2827723749566,98.07375239695543" />
  <polygon fill="lightgrey" points="398.2954753298807,106.44166427298254 398.2954753298807,77.45436722790657 381.55965157782646,62.960718705368635 381.55965157782646,91.94801575044457" />
  <polygon fill="darkgrey" points="398.2954753298807,77.45436722790657 381.55965157782646,62.960718705368635 410.5469486229024,54.5928068293415 427.2827723749566,69.08645535187947" />
  <polygon fill="hsl(288.0,50.0%,50.65955712546234%)" points="454.0665809854735,471.84773577579114 454.0665809854735,432.0307845546748 461.0235322762917,430.02248570442833 461.0235322762917,469.83943692554465" />
  <polygon fill="hsl(288.0,50.0%,50.65955712546234%)" points="471.45895921251906,466.8269886501748 471.45895921251906,427.01003742905857 464.50200792170085,429.01833627930506 464.50200792170085,468.8352875004214" />
  <polygon fill="hsl(288.0,50.0%,50.65955712546234%)" points="447.10962969465527,434.4333106447343 447.10962969465527,395.01058666343107 453.1969620741212,393.25332516946537 453.1969620741212,432.6760491507687" />
  <polygon fill="hsl(288.0,50.0%,50.65955712546234%)" points="472.3285781238713,427.1532273125908 472.3285781238713,387.73050333128754 478.4159105033373,385.9732418373218 478.4159105033373,425.3959658186251" />
  <polygon fill="hsl(288.0,50.0%,50.65955712546234%)" points="453.1969620741212,399.34065754893135 453.1969620741212,393.25332516946537 472.3285781238713,387.73050333128754 472.3285781238713,393.81783571075346" />
  <polygon fill="hsl(288.0,50.0%,50.65955712546234%)" points="454.0665809854735,432.4250117944879 454.0665809854735,393.0022878131846 471.45895921251906,387.9815406875683 471.45895921251906,427.4042646688716" />
  <polygon fill="hsl(288.0,50.0%,50.65955712546234%)" points="458.4146755422349,389.7759648327153 458.4146755422349,372.03573904112886 467.11086465575767,369.52536547832074 467.11086465575767,387.2655912699072" />
  <polygon fill="hsl(288.0,50.0%,50.65955712546234%)" points="460.1539133649394,391.2450263192189 460.1539133649394,371.5336643285673 465.3716268330531,370.0274401908824 465.3716268330531,389.738802181534" />
</svg>
