<?xml version="1.0" encoding="UTF-8"?>
<svg
  xmlns="http://www.w3.org/2000/svg"
  width="848"
  height="600"
  style="background-color:white"
>
  <polygon fill="lightblue" points="444.0961894323342,640.6088913245535 144.0961894323342,380.8012701892219 403.9038105676658,305.8012701892219 703.9038105676658,565.6088913245535" />
  <polygon fill="steelblue" points="144.0961894323342,380.8012701892219 144.0961894323342,34.3911086754465 403.9038105676658,-40.6088913245535 403.9038105676658,305.8012701892219" />
  <polygon fill="lightskyblue" points="703.9038105676658,565.6088913245535 703.9038105676658,219.19872981077808 403.9038105676658,-40.6088913245535 403.9038105676658,305.8012701892219" />
  <polygon fill="white" points="568.9038105676658,448.6954618136543 568.9038105676658,275.4903810567666 538.9038105676658,249.50961894323342 538.9038105676658,422.7146997001211" />
  <polygon fill="white" points="159.56092878562777,307.0549521721811 159.56092878562777,237.77291986942603 202.8621989748497,225.272919869426 202.8621989748497,294.5549521721811" />
  <polygon fill="white" points="196.67630323353228,296.3406664578954 196.67630323353228,227.0586341551403 239.9775734227542,214.5586341551403 239.9775734227542,283.8406664578954" />
  <polygon fill="white" points="233.79167768143677,285.6263807436097 233.79167768143677,216.3443484408546 277.0929478706587,203.8443484408546 277.0929478706587,273.1263807436097" />
  <polygon fill="white" points="270.9070521293413,274.91209502932395 270.9070521293413,205.6300627265689 314.2083223185632,193.1300627265689 314.2083223185632,262.41209502932395" />
  <polygon fill="white" points="308.0224265772458,264.1978093150383 308.0224265772458,194.91577701228317 351.3236967664677,182.41577701228317 351.3236967664677,251.69780931503823" />
  <polygon fill="white" points="345.13780102515034,253.48352360075253 345.1378010251503,184.20149129799745 388.43907121437223,171.70149129799742 388.43907121437223,240.98352360075253" />
</svg>
