<?xml version="1.0" encoding="UTF-8"?>
<svg
  xmlns="http://www.w3.org/2000/svg"
  width="848"
  height="600"
  style="background-color:white"
>
  <polygon fill="lightblue" points="438.49186028680015,545.62151357786 222.1544247406889,358.26779860534907 409.50813971319985,304.1834397188212 625.8455752593111,491.53715469133215" />
  <polygon fill="steelblue" points="222.1544247406889,358.26779860534907 222.1544247406889,108.46284530866782 409.50813971319985,54.378486422139986 409.50813971319985,304.1834397188212" />
  <polygon fill="lightskyblue" points="625.8455752593111,491.53715469133215 625.8455752593111,241.73220139465093 409.50813971319985,54.378486422139986 409.50813971319985,304.1834397188212" />
  <polygon fill="white" points="528.493729263561,407.2279829537023 528.493729263561,282.3255063053616 506.8599857089499,263.5901348081105 506.8599857089499,388.4926114564512" />
  <polygon fill="white" points="233.30643158429078,305.08750086943377 233.30643158429078,255.12651021009754 264.53205074637594,246.1124503956762 264.53205074637594,296.0734410550125" />
  <polygon fill="white" points="260.0712480089352,297.3611638856441 260.0712480089352,247.40017322630783 291.2968671710203,238.38611341188653 291.2968671710203,288.34710407122276" />
  <polygon fill="white" points="286.83606443357957,289.6348269018544 286.83606443357957,239.67383624251812 318.06168359566476,230.65977642809685 318.06168359566476,280.6207670874331" />
  <polygon fill="white" points="313.600880858224,281.9084899180647 313.600880858224,231.94749925872844 344.82650002030914,222.93343944430714 344.82650002030914,272.8944301036434" />
  <polygon fill="white" points="340.36569728286844,274.182152934275 340.36569728286844,224.22116227493876 371.5913164449536,215.20710246051743 371.5913164449536,265.1680931198537" />
  <polygon fill="white" points="367.1305137075128,266.4558159504853 367.1305137075128,216.49482529114908 398.356132869598,207.48076547672775 398.356132869598,257.441756136064" />
</svg>
