<?xml version="1.0" encoding="UTF-8"?>
<svg
  xmlns="http://www.w3.org/2000/svg"
  width="848"
  height="600"
  style="background-color:white"
>
  <polygon fill="lightblue" points="439.95035612271977,535.9732152741941 201.84019832748984,329.76376972440374 408.04964387728023,270.23623027559626 646.1598016725102,476.4456758253866" />
  <polygon fill="steelblue" points="201.84019832748984,329.76376972440374 201.84019832748984,123.55432417461336 408.04964387728023,64.02678472580587 408.04964387728023,270.23623027559626" />
  <polygon fill="lightskyblue" points="646.1598016725102,476.4456758253866 646.1598016725102,270.23623027559626 408.04964387728023,64.02678472580587 408.04964387728023,270.23623027559626" />
  <polygon fill="white" points="236.20843925245495,264.85332766965837 236.20843925245495,209.8641421897143 270.57668017742003,199.94288561491305 270.57668017742003,254.93207109485715" />
  <polygon fill="white" points="287.7608006399025,249.97144280745653 287.7608006399025,194.9822573275124 322.1290415648676,185.06100075271115 322.1290415648676,240.05018623265528" />
  <polygon fill="white" points="339.31316202735013,235.08955794525463 339.31316202735013,180.10037246531053 373.6814029523152,170.17911589050928 373.6814029523152,225.16830137045338" />
  <polygon fill="grey" points="393.5239161019177,139.24769905804072 393.5239161019177,104.87945813307564 427.8921570268827,94.9582015582744 427.8921570268827,129.3264424832395" />
  <polygon fill="lightgrey" points="393.5239161019177,139.24769905804072 393.5239161019177,104.87945813307564 373.6814029523152,87.69533767059315 373.6814029523152,122.06357859555823" />
  <polygon fill="darkgrey" points="393.5239161019177,104.87945813307564 373.6814029523152,87.69533767059315 408.04964387728023,77.7740810957919 427.8921570268827,94.9582015582744" />
  <polygon fill="hsl(324.0,50.0%,50.65955712546234%)" points="459.6478735320463,435.0115384076329 459.6478735320463,387.80332267310087 467.8962513540379,385.42222109514853 467.8962513540379,432.63043682968055" />
  <polygon fill="hsl(324.0,50.0%,50.65955712546234%)" points="480.2688180870253,429.0587844627521 480.2688180870253,381.8505687282201 472.0204402650337,384.23167030617236 472.0204402650337,431.43988604070444" />
  <polygon fill="hsl(324.0,50.0%,50.65955712546234%)" points="451.3994957100547,390.65183232763263 451.3994957100547,343.91102466968016 458.6168263042973,341.82756078897194 458.6168263042973,388.5683684469244" />
  <polygon fill="hsl(324.0,50.0%,50.65955712546234%)" points="481.29986531477425,382.02033910755557 481.29986531477425,335.2795314496031 488.5171959090169,333.1960675688948 488.5171959090169,379.9368752268473" />
  <polygon fill="hsl(324.0,50.0%,50.65955712546234%)" points="458.6168263042973,349.0448913832146 458.6168263042973,341.82756078897194 481.29986531477425,335.2795314496031 481.29986531477425,342.49686204384574" />
  <polygon fill="hsl(324.0,50.0%,50.65955712546234%)" points="459.6478735320463,388.27073074968035 459.6478735320463,341.5299230917279 480.2688180870253,335.57716914684715 480.2688180870253,382.3179768047996" />
  <polygon fill="hsl(324.0,50.0%,50.65955712546234%)" points="464.80310967079106,337.70469422261004 464.80310967079106,316.6713307765315 475.11358194828057,313.6949538040911 475.11358194828057,334.7283172501697" />
  <polygon fill="hsl(324.0,50.0%,50.65955712546234%)" points="466.865204126289,339.4464592110196 466.865204126289,316.07605538204336 473.05148749278266,314.29022919857914 473.05148749278266,337.6606330275554" />
</svg>
