<?xml version="1.0" encoding="UTF-8"?>
<svg
  xmlns="http://www.w3.org/2000/svg"
  width="848"
  height="600"
  style="background-color:white"
>
  <polygon fill="lightblue" points="438.49186028680015,545.62151357786 222.1544247406889,358.26779860534907 409.50813971319985,304.1834397188212 625.8455752593111,491.53715469133215" />
  <polygon fill="steelblue" points="222.1544247406889,358.26779860534907 222.1544247406889,108.46284530866782 409.50813971319985,54.378486422139986 409.50813971319985,304.1834397188212" />
  <polygon fill="lightskyblue" points="625.8455752593111,491.53715469133215 625.8455752593111,241.73220139465093 409.50813971319985,54.378486422139986 409.50813971319985,304.1834397188212" />
  <polygon fill="white" points="492.4374900058758,376.0023637916171 492.4374900058758,251.09988714327648 470.8037464512647,232.36451564602538 470.8037464512647,357.266992294366" />
  <polygon fill="white" points="564.5499685212462,438.4536021157874 564.5499685212462,313.5511254674468 542.9162249666351,294.8157539701957 542.9162249666351,419.7182306185363" />
  <polygon fill="white" points="300.2184726459018,285.77165840995957 300.2184726459018,235.81066775062328 331.444091807987,226.796607936202 331.444091807987,276.75759859553824" />
  <polygon fill="hsl(324.0,50.0%,50.65955712546234%)" points="456.3882425428786,453.8917425173137 456.3882425428785,411.0002320362735 463.88239114177895,408.8368576808124 463.88239114177895,451.72836816185253" />
  <polygon fill="hsl(324.0,50.0%,50.65955712546234%)" points="475.1236140401296,448.4833066286609 475.1236140401296,405.5917961476207 467.6294654412292,407.7551705030818 467.6294654412292,450.646680984122" />
  <polygon fill="hsl(324.0,50.0%,50.65955712546234%)" points="448.89409394397813,413.5882748123389 448.89409394397813,371.12143275190317 455.451473968016,369.2284801908747 455.451473968016,411.6953222513105" />
  <polygon fill="hsl(324.0,50.0%,50.65955712546234%)" points="476.0603826149922,405.7460427737924 476.0603826149922,363.2792007133566 482.61776263903005,361.3862481523281 482.61776263903005,403.85309021276396" />
  <polygon fill="hsl(324.0,50.0%,50.65955712546234%)" points="455.451473968016,375.78586021491253 455.451473968016,369.2284801908747 476.0603826149922,363.2792007133566 476.0603826149922,369.83658073739446" />
  <polygon fill="hsl(324.0,50.0%,50.65955712546234%)" points="456.3882425428785,411.4249004568778 456.3882425428785,368.958058396442 475.1236140401296,363.54962250778925 475.1236140401296,406.01646456822505" />
  <polygon fill="hsl(324.0,50.0%,50.65955712546234%)" points="461.0720854171913,365.48260732125703 461.0720854171913,346.3725283940609 470.43977116581686,343.6683104497345 470.43977116581686,362.77838937693065" />
  <polygon fill="hsl(324.0,50.0%,50.65955712546234%)" points="462.9456225669164,367.06510583541353 462.9456225669164,345.83168480519566 468.56623401609176,344.2091540385998 468.56623401609176,365.44257506881775" />
</svg>
