<?xml version="1.0" encoding="UTF-8"?>
<svg
  xmlns="http://www.w3.org/2000/svg"
  width="848"
  height="600"
  style="background-color:white"
>
  <polygon fill="lightblue" points="444.0961894323342,597.3076211353316 144.0961894323342,337.5 403.9038105676658,262.5 703.9038105676658,522.3076211353316" />
  <polygon fill="steelblue" points="144.0961894323342,337.5 144.0961894323342,77.6923788646684 403.9038105676658,2.692378864668399 403.9038105676658,262.5" />
  <polygon fill="lightskyblue" points="703.9038105676658,522.3076211353316 703.9038105676658,262.5 403.9038105676658,2.692378864668399 403.9038105676658,262.5" />
  <polygon fill="white" points="568.9038105676658,405.3941916244323 568.9038105676658,232.18911086754463 538.9038105676658,206.20834875401147 538.9038105676658,379.4134295108992" />
  <polygon fill="white" points="174.40707856478957,259.4679676972449 174.40707856478957,190.18593539448983 217.7083487540115,177.68593539448983 217.7083487540115,246.96796769724492" />
  <polygon fill="white" points="226.36860279185586,244.4679676972449 226.36860279185586,175.18593539448983 269.6698729810778,162.6859353944898 269.6698729810778,231.9679676972449" />
  <polygon fill="white" points="278.3301270189222,229.4679676972449 278.33012701892216,160.18593539448983 321.6313972081441,147.6859353944898 321.6313972081441,216.9679676972449" />
  <polygon fill="white" points="330.29165124598853,214.4679676972449 330.29165124598853,145.1859353944898 373.5929214352104,132.6859353944898 373.5929214352104,201.9679676972449" />
</svg>
