<?xml version="1.0" encoding="UTF-8"?>
<svg
  xmlns="http://www.w3.org/2000/svg"
  width="848"
  height="600"
  style="background-color:white"
>
  <polygon fill="lightblue" points="436.6598060442364,569.1263377791662 247.6716485600054,405.457792383408 411.34019395576365,358.2107530123502 600.3283514399945,521.8792984081084" />
  <polygon fill="steelblue" points="247.6716485600054,405.457792383408 247.6716485600054,78.12070159189156 411.3401939557636,30.873662220833808 411.34019395576365,358.2107530123502" />
  <polygon fill="lightskyblue" points="600.3283514399945,521.8792984081084 600.3283514399945,194.542207616592 411.3401939557636,30.873662220833808 411.34019395576365,358.2107530123502" />
  <polygon fill="white" points="515.2836805720907,448.2284529800172 515.2836805720906,339.1160893828451 496.38486482366756,322.7492348432693 496.3848648236676,431.8615984404414" />
  <polygon fill="white" points="266.76631218951053,356.30069235124904 266.76631218951053,312.6557469123802 294.0444030888036,304.78124035053725 294.0444030888036,348.4261857894061" />
  <polygon fill="white" points="299.5000212686622,346.8512844770375 299.5000212686622,303.2063390381686 326.7781121679552,295.3318324763257 326.7781121679552,338.97677791519453" />
  <polygon fill="white" points="332.23373034781383,337.40187660282595 332.23373034781383,293.75693116395706 359.5118212471068,285.88242460211416 359.5118212471068,329.527370040983" />
  <polygon fill="white" points="364.9674394269655,327.9524687286144 364.9674394269655,284.3075232897455 392.2455303262585,276.43301672790255 392.2455303262585,320.07796216677144" />
  <polygon fill="grey" points="399.8111161801565,90.57654149133353 399.8111161801565,63.298450592040524 427.0892070794495,55.42394403019756 427.0892070794495,82.70203492949057" />
  <polygon fill="lightgrey" points="399.8111161801565,90.57654149133353 399.8111161801565,63.298450592040524 384.06210305647056,49.65940514239401 384.06210305647056,76.93749604168704" />
  <polygon fill="darkgrey" points="399.8111161801565,63.298450592040524 384.06210305647056,49.65940514239401 411.3401939557636,41.7848985805511 427.0892070794495,55.42394403019756" />
  <polygon fill="hsl(360.0,50.0%,50.65955712546234%)" points="452.2937359725998,488.9930017459398 452.2937359725998,451.5238160866709 458.8404777884301,449.63393451182856 458.8404777884301,487.1031201710975" />
  <polygon fill="hsl(360.0,50.0%,50.65955712546234%)" points="468.66059051217565,484.26829780883406 468.66059051217565,446.79911214956513 462.1138486963453,448.6889937244074 462.1138486963453,486.1581793836764" />
  <polygon fill="hsl(360.0,50.0%,50.65955712546234%)" points="445.74699415676946,453.78467969774357 445.74699415676946,416.686476074705 451.47539324562104,415.032829696718 451.47539324562104,452.1310333197565" />
  <polygon fill="hsl(360.0,50.0%,50.65955712546234%)" points="469.4789332391544,446.9338589889402 469.4789332391544,409.83565536590163 475.2073323280059,408.1820089879146 475.2073323280059,445.2802126109532" />
  <polygon fill="hsl(360.0,50.0%,50.65955712546234%)" points="451.47539324562104,420.76122878556953 451.47539324562104,415.032829696718 469.4789332391544,409.83565536590163 469.4789332391544,415.5640544547532" />
  <polygon fill="hsl(360.0,50.0%,50.65955712546234%)" points="452.2937359725998,451.8947981229013 452.2937359725998,414.79659449986275 468.66059051217565,410.07189056275695 468.66059051217565,447.1700941857955" />
  <polygon fill="hsl(360.0,50.0%,50.65955712546234%)" points="456.38544960749374,411.76050833443435 456.38544960749374,395.06631670406705 464.56887687728164,392.70396473551415 464.56887687728164,409.3981563658815" />
  <polygon fill="hsl(360.0,50.0%,50.65955712546234%)" points="458.02213506145137,413.1429481218757 458.02213506145137,394.59384631035647 462.93219142332407,393.1764351292247 462.93219142332407,411.72553694074395" />
</svg>
