<?xml version="1.0" encoding="UTF-8"?>
<svg
  xmlns="http://www.w3.org/2000/svg"
  width="848"
  height="600"
  style="background-color:white"
>
  <polygon fill="lightblue" points="436.3063524708826,508.579496400061 252.59462176214424,349.4804706330878 411.6936475291174,303.55253795590323 595.4053782378558,462.6515637228764" />
  <polygon fill="steelblue" points="252.59462176214424,349.4804706330878 252.59462176214424,137.34843627712362 411.6936475291174,91.420503599939 411.6936475291174,303.55253795590323" />
  <polygon fill="lightskyblue" points="595.4053782378558,462.6515637228764 595.4053782378558,250.5195293669122 411.6936475291174,91.420503599939 411.6936475291174,303.55253795590323" />
  <polygon fill="white" points="512.7350994189235,391.0570021277385 512.7350994189235,284.99098494975635 494.3639263480497,269.081082373059 494.3639263480497,375.14709955104115" />
  <polygon fill="white" points="271.1561747682911,301.69580494955676 271.1561747682911,259.2693980783639 297.67267906278664,251.6147426321665 297.67267906278664,294.04114950335935" />
  <polygon fill="white" points="302.97597992168573,292.51021841411983 302.97597992168573,250.083811542927 329.4924842161813,242.42915609672957 329.4924842161813,284.8555629679224" />
  <polygon fill="white" points="334.7957850750804,283.3246318786829 334.79578507508035,240.89822500749008 361.3122893695759,233.24356956129265 361.3122893695759,275.6699764324855" />
  <polygon fill="white" points="366.615590228475,274.139045343246 366.615590228475,231.71263847205316 393.13209452297053,224.05798302585572 393.13209452297053,266.4843898970486" />
</svg>
