<?xml version="1.0" encoding="UTF-8"?>
<svg
  xmlns="http://www.w3.org/2000/svg"
  width="848"
  height="600"
  style="background-color:white"
>
  <polygon fill="lightblue" points="444.0961894323342,727.2114317029974 144.0961894323342,467.4038105676658 403.9038105676658,392.4038105676658 703.9038105676658,652.2114317029974" />
  <polygon fill="steelblue" points="144.0961894323342,467.4038105676658 144.0961894323342,-52.2114317029974 403.9038105676658,-127.2114317029974 403.9038105676658,392.4038105676658" />
  <polygon fill="lightskyblue" points="703.9038105676658,652.2114317029974 703.9038105676658,132.5961894323342 403.9038105676658,-127.2114317029974 403.9038105676658,392.4038105676658" />
  <polygon fill="white" points="568.9038105676658,535.2980021920981 568.9038105676658,362.0929214352104 538.9038105676658,336.11215932167727 538.9038105676658,509.3172400785651" />
  <polygon fill="white" points="165.7468245269452,391.87177826491074 165.7468245269452,322.58974596215563 209.0480947161671,310.0897459621556 209.0480947161671,379.37177826491074" />
  <polygon fill="white" points="209.0480947161671,379.37177826491074 209.0480947161671,310.0897459621556 252.34936490538905,297.5897459621556 252.34936490538905,366.8717782649107" />
  <polygon fill="white" points="252.34936490538905,366.8717782649107 252.34936490538905,297.5897459621556 295.65063509461095,285.0897459621556 295.65063509461095,354.3717782649107" />
  <polygon fill="white" points="295.65063509461095,354.3717782649107 295.65063509461095,285.0897459621556 338.9519052838329,272.5897459621556 338.9519052838329,341.8717782649107" />
  <polygon fill="white" points="338.9519052838329,341.8717782649107 338.9519052838329,272.5897459621556 382.2531754730548,260.0897459621556 382.25317547305485,329.3717782649107" />
</svg>
