<?xml version="1.0" encoding="UTF-8"?>
<svg
  xmlns="http://www.w3.org/2000/svg"
  width="848"
  height="600"
  style="background-color:white"
>
  <polygon fill="lightblue" points="435.0071362719864,510.2762555165465 270.69036902043655,367.9737608089694 412.9928637280136,326.89456899608194 577.3096309795635,469.197063703659" />
  <polygon fill="steelblue" points="270.69036902043655,367.9737608089694 270.69036902043655,130.802936296341 412.9928637280136,89.72374448345354 412.9928637280136,326.89456899608194" />
  <polygon fill="lightskyblue" points="577.3096309795635,469.197063703659 577.3096309795635,232.02623919103058 412.9928637280136,89.72374448345354 412.9928637280136,326.89456899608194" />
  <polygon fill="white" points="503.36708571636603,405.1609410852493 503.36708571636603,310.29261128019795 486.93540899121103,296.06236180944023 486.93540899121103,390.9306916144916" />
  <polygon fill="white" points="279.1607556101733,327.5812388980865 279.1607556101733,289.633906976066 302.87783806143614,282.7873750072514 302.87783806143614,320.73470692927197" />
  <polygon fill="white" points="299.48968342554144,321.7127829248169 299.48968342554144,283.76545100279634 323.2067658768043,276.91891903398175 323.2067658768043,314.8662509560023" />
  <polygon fill="white" points="319.8186112409096,315.84432695154726 319.8186112409096,277.8969950295267 343.53569369217246,271.0504630607121 343.53569369217246,308.99779498273267" />
  <polygon fill="white" points="340.14753905627776,309.9758709782776 340.14753905627776,272.02853905625705 363.86462150754056,265.18200708744246 363.86462150754056,303.129339009463" />
  <polygon fill="white" points="360.4764668716459,304.10741500500797 360.47646687164587,266.1600830829874 384.1935493229087,259.3135511141728 384.1935493229087,297.2608830361934" />
  <polygon fill="white" points="380.80539468701403,298.2389590317383 380.80539468701403,260.29162710971775 404.5224771382769,253.4450951409032 404.5224771382769,291.39242706292373" />
</svg>
