<?xml version="1.0" encoding="UTF-8"?>
<svg
  xmlns="http://www.w3.org/2000/svg"
  width="848"
  height="600"
  style="background-color:white"
>
  <polygon fill="lightblue" points="438.49186028680015,545.62151357786 222.1544247406889,358.26779860534907 409.50813971319985,304.1834397188212 625.8455752593111,491.53715469133215" />
  <polygon fill="steelblue" points="222.1544247406889,358.26779860534907 222.1544247406889,108.46284530866782 409.50813971319985,54.378486422139986 409.50813971319985,304.1834397188212" />
  <polygon fill="lightskyblue" points="625.8455752593111,491.53715469133215 625.8455752593111,241.73220139465093 409.50813971319985,54.378486422139986 409.50813971319985,304.1834397188212" />
  <polygon fill="white" points="528.493729263561,407.2279829537023 528.493729263561,282.3255063053616 506.8599857089499,263.5901348081105 506.8599857089499,388.4926114564512" />
  <polygon fill="white" points="244.01235815414853,301.9969660759179 244.01235815414853,252.03597541658164 275.2379773162337,243.02191560216033 275.2379773162337,292.98290626149657" />
  <polygon fill="white" points="281.4831011486507,291.18009429861235 281.4831011486507,241.21910363927609 312.7087203107359,232.20504382485478 312.7087203107359,282.166034484191" />
  <polygon fill="white" points="318.9538441431529,280.36322252130674 318.9538441431529,230.4022318619705 350.1794633052381,221.3881720475492 350.1794633052381,271.34916270688547" />
  <polygon fill="white" points="356.42458713765507,269.5463507440012 356.42458713765507,219.58536008466496 387.65020629974026,210.57130027024363 387.65020629974026,260.5322909295799" />
  <polygon fill="antiquewhite" points="492.3567567023591,455.80392371113413 492.35675670235906,349.6368185600446 517.3372520320272,342.42557070850756 517.3372520320272,448.5926758595971" />
  <polygon fill="beige" points="492.3567567023591,455.80392371113413 492.35675670235906,349.6368185600446 477.934260999285,337.1465708952105 477.934260999285,443.3136760463001" />
  <polygon fill="bisque" points="492.35675670235906,349.6368185600446 477.934260999285,337.1465708952105 502.9147563289531,329.93532304367346 517.3372520320272,342.42557070850756" />
</svg>
