<?xml version="1.0" encoding="UTF-8"?>
<svg
  xmlns="http://www.w3.org/2000/svg"
  width="848"
  height="600"
  style="background-color:white"
>
  <polygon fill="lightblue" points="437.4530513770976,557.0021119886889 236.62316635244676,383.07832971823325 410.5469486229024,332.8708584620705 611.3768336475532,506.79464073252615" />
  <polygon fill="steelblue" points="236.62316635244676,383.07832971823325 236.62316635244676,93.20535926747385 410.5469486229024,42.99788801131115 410.5469486229024,332.8708584620705" />
  <polygon fill="lightskyblue" points="611.3768336475532,506.79464073252615 611.3768336475532,216.92167028176678 410.5469486229024,42.99788801131115 410.5469486229024,332.8708584620705" />
  <polygon fill="white" points="521.0033853864604,428.5289387108211 521.0033853864604,312.57975053051734 500.9203968839953,295.1873723034718 500.9203968839953,411.13656048377555" />
  <polygon fill="white" points="251.11681487498473,332.51469850809815 251.11681487498473,286.1350232359767 280.10411192006063,277.7671113599495 280.10411192006063,324.14678663207104" />
  <polygon fill="white" points="280.10411192006063,324.14678663207104 280.10411192006063,277.7671113599495 309.0914089651366,269.3991994839224 309.0914089651366,315.77887475604393" />
  <polygon fill="white" points="309.0914089651366,315.77887475604393 309.0914089651366,269.3991994839224 338.07870601021256,261.0312876078953 338.07870601021256,307.4109628800168" />
  <polygon fill="white" points="338.07870601021256,307.4109628800168 338.07870601021256,261.0312876078953 367.0660030552885,252.66337573186817 367.0660030552885,299.0430510039897" />
  <polygon fill="white" points="367.0660030552885,299.0430510039897 367.0660030552885,252.66337573186817 396.0533001003644,244.29546385584106 396.0533001003644,290.67513912796255" />
</svg>
