<?xml version="1.0" encoding="UTF-8"?>
<svg
  xmlns="http://www.w3.org/2000/svg"
  width="848"
  height="600"
  style="background-color:white"
>
  <polygon fill="lightblue" points="444.0961894323342,683.9101615137754 144.0961894323342,424.10254037844385 403.9038105676658,349.1025403784438 703.9038105676658,608.9101615137754" />
  <polygon fill="steelblue" points="144.0961894323342,424.10254037844385 144.0961894323342,-8.91016151377545 403.9038105676658,-83.91016151377545 403.9038105676658,349.1025403784438" />
  <polygon fill="lightskyblue" points="703.9038105676658,608.9101615137754 703.9038105676658,175.89745962155615 403.9038105676658,-83.91016151377545 403.9038105676658,349.1025403784438" />
  <polygon fill="white" points="568.9038105676658,491.99673200287623 568.9038105676658,318.7916512459885 538.9038105676658,292.8108891324553 538.9038105676658,466.01596988934307" />
  <polygon fill="white" points="174.40707856478957,346.0705080756888 174.40707856478957,276.7884757729337 217.7083487540115,264.2884757729337 217.70834875401152,333.5705080756888" />
  <polygon fill="white" points="226.3686027918559,331.0705080756888 226.36860279185586,261.7884757729337 269.6698729810778,249.28847577293368 269.6698729810778,318.57050807568874" />
  <polygon fill="white" points="278.3301270189222,316.0705080756888 278.3301270189222,246.78847577293368 321.6313972081441,234.28847577293365 321.6313972081441,303.5705080756888" />
  <polygon fill="white" points="330.29165124598853,301.07050807568874 330.29165124598853,231.78847577293365 373.5929214352104,219.28847577293365 373.5929214352104,288.57050807568874" />
</svg>
