<?xml version="1.0" encoding="UTF-8"?>
<svg
  xmlns="http://www.w3.org/2000/svg"
  width="848"
  height="600"
  style="background-color:white"
>
  <polygon fill="lightblue" points="437.4530513770976,557.0021119886889 236.62316635244676,383.07832971823325 410.5469486229024,332.8708584620705 611.3768336475532,506.79464073252615" />
  <polygon fill="steelblue" points="236.62316635244676,383.07832971823325 236.62316635244676,93.20535926747385 410.5469486229024,42.99788801131115 410.5469486229024,332.8708584620705" />
  <polygon fill="lightskyblue" points="611.3768336475532,506.79464073252615 611.3768336475532,216.92167028176678 410.5469486229024,42.99788801131115 410.5469486229024,332.8708584620705" />
  <polygon fill="white" points="521.0033853864604,428.5289387108211 521.0033853864604,312.57975053051734 500.9203968839953,295.1873723034718 500.9203968839953,411.13656048377555" />
  <polygon fill="white" points="246.9757724399739,333.71011449038775 246.9757724399739,287.3304392182663 275.9630694850498,278.9625273422391 275.9630694850498,325.34220261436064" />
  <polygon fill="white" points="271.82202705003897,326.53761859665025 271.82202705003897,280.15794332452873 300.8093240951149,271.7900314485016 300.8093240951149,318.16970672062314" />
  <polygon fill="white" points="296.66828166010407,319.3651227029127 296.66828166010407,272.98544743079117 325.65557870518,264.61753555476406 325.65557870518,310.9972108268856" />
  <polygon fill="white" points="321.5145362701692,312.1926268091752 321.5145362701692,265.81295153705366 350.5018333152451,257.44503966102656 350.5018333152451,303.8247149331481" />
  <polygon fill="white" points="346.3607908802343,305.0201309154376 346.3607908802342,258.6404556433161 375.3480879253102,250.272543767289 375.3480879253102,296.6522190394105" />
  <polygon fill="white" points="371.2070454902993,297.8476350217001 371.2070454902993,251.4679597495786 400.19434253537526,243.1000478735515 400.19434253537526,289.47972314567295" />
  <polygon fill="antiquewhite" points="487.4567917223311,473.6228475512074 487.4567917223311,375.0660375979492 510.6466293583918,368.37170809712757 510.64662935839186,466.9285180503857" />
  <polygon fill="beige" points="487.4567917223311,473.6228475512074 487.4567917223311,375.0660375979492 474.0681327206877,363.47111877991887 474.0681327206877,462.0279287331771" />
  <polygon fill="bisque" points="487.4567917223311,375.0660375979492 474.0681327206877,363.47111877991887 497.25797035674844,356.77678927909716 510.6466293583918,368.37170809712757" />
  <polygon fill="antiquewhite" points="447.6998543518405,538.9358584189578 447.6998543518405,440.3790484656996 470.8896919879012,433.6847189648779 470.88969198790124,532.241528918136" />
  <polygon fill="beige" points="447.6998543518405,538.9358584189578 447.6998543518405,440.3790484656996 434.31119535019707,428.7841296476692 434.31119535019707,527.3409396009274" />
  <polygon fill="bisque" points="447.6998543518405,440.3790484656996 434.31119535019707,428.7841296476692 457.5010329862578,422.0898001468475 470.8896919879012,433.6847189648779" />
  <polygon fill="antiquewhite" points="394.6435841907327,363.737563519888 394.6435841907327,265.1807535666298 417.8334218267935,258.4864240658081 417.8334218267935,357.0432340190663" />
  <polygon fill="beige" points="394.6435841907327,363.737563519888 394.6435841907327,265.1807535666298 381.2549251890893,253.58583474859938 381.2549251890893,352.1426447018576" />
  <polygon fill="bisque" points="394.6435841907327,265.1807535666298 381.2549251890893,253.58583474859938 404.44476282515006,246.8915052477777 417.8334218267935,258.4864240658081" />
  <polygon fill="antiquewhite" points="398.43160790864056,401.60006790089943 398.43160790864056,303.0432579476412 421.6214455447013,296.3489284468195 421.6214455447013,394.9057384000777" />
  <polygon fill="beige" points="398.43160790864056,401.60006790089943 398.43160790864056,303.0432579476412 385.04294890699714,291.4483391296109 385.04294890699714,390.005149082869" />
  <polygon fill="bisque" points="398.43160790864056,303.0432579476412 385.04294890699714,291.4483391296109 408.2327865430579,284.75400962878916 421.6214455447013,296.3489284468195" />
</svg>
