<?xml version="1.0" encoding="UTF-8"?>
<svg
  xmlns="http://www.w3.org/2000/svg"
  width="848"
  height="600"
  style="background-color:white"
>
  <polygon fill="lightblue" points="436.6598060442364,569.1263377791662 247.6716485600054,405.457792383408 411.34019395576365,358.2107530123502 600.3283514399945,521.8792984081084" />
  <polygon fill="steelblue" points="247.6716485600054,405.457792383408 247.6716485600054,78.12070159189156 411.3401939557636,30.873662220833808 411.34019395576365,358.2107530123502" />
  <polygon fill="lightskyblue" points="600.3283514399945,521.8792984081084 600.3283514399945,194.542207616592 411.3401939557636,30.873662220833808 411.34019395576365,358.2107530123502" />
  <polygon fill="white" points="515.2836805720907,448.2284529800172 515.2836805720906,339.1160893828451 496.38486482366756,322.7492348432693 496.3848648236676,431.8615984404414" />
  <polygon fill="white" points="274.9497394592985,353.9383403826962 274.9497394592985,310.2933949438273 302.2278303585915,302.41888838198435 302.2278303585915,346.06383382085323" />
  <polygon fill="white" points="315.866875808238,342.12658053993175 315.866875808238,298.48163510106286 343.144966707531,290.6071285392199 343.144966707531,334.2520739780888" />
  <polygon fill="white" points="356.7840121571776,330.3148206971673 356.7840121571776,286.6698752582984 384.06210305647056,278.79536869645545 384.06210305647056,322.44031413532434" />
  <polygon fill="hsl(324.0,50.0%,50.65955712546234%)" points="452.2937359725998,488.9930017459398 452.2937359725998,451.5238160866709 458.8404777884301,449.63393451182856 458.8404777884301,487.1031201710975" />
  <polygon fill="hsl(324.0,50.0%,50.65955712546234%)" points="468.66059051217565,484.26829780883406 468.66059051217565,446.79911214956513 462.1138486963453,448.6889937244074 462.1138486963453,486.1581793836764" />
  <polygon fill="hsl(324.0,50.0%,50.65955712546234%)" points="445.74699415676946,453.78467969774357 445.74699415676946,416.686476074705 451.47539324562104,415.032829696718 451.47539324562104,452.1310333197565" />
  <polygon fill="hsl(324.0,50.0%,50.65955712546234%)" points="469.4789332391544,446.9338589889402 469.4789332391544,409.83565536590163 475.2073323280059,408.1820089879146 475.2073323280059,445.2802126109532" />
  <polygon fill="hsl(324.0,50.0%,50.65955712546234%)" points="451.47539324562104,420.76122878556953 451.47539324562104,415.032829696718 469.4789332391544,409.83565536590163 469.4789332391544,415.5640544547532" />
  <polygon fill="hsl(324.0,50.0%,50.65955712546234%)" points="452.2937359725998,451.8947981229013 452.2937359725998,414.79659449986275 468.66059051217565,410.07189056275695 468.66059051217565,447.1700941857955" />
  <polygon fill="hsl(324.0,50.0%,50.65955712546234%)" points="456.38544960749374,411.76050833443435 456.38544960749374,395.06631670406705 464.56887687728164,392.70396473551415 464.56887687728164,409.3981563658815" />
  <polygon fill="hsl(324.0,50.0%,50.65955712546234%)" points="458.02213506145137,413.1429481218757 458.02213506145137,394.59384631035647 462.93219142332407,393.1764351292247 462.93219142332407,411.72553694074395" />
</svg>
