<?xml version="1.0" encoding="UTF-8"?>
<svg
  xmlns="http://www.w3.org/2000/svg"
  width="848"
  height="600"
  style="background-color:white"
>
  <polygon fill="lightblue" points="439.95035612271977,535.9732152741941 201.84019832748984,329.76376972440374 408.04964387728023,270.23623027559626 646.1598016725102,476.4456758253866" />
  <polygon fill="steelblue" points="201.84019832748984,329.76376972440374 201.84019832748984,123.55432417461336 408.04964387728023,64.02678472580587 408.04964387728023,270.23623027559626" />
  <polygon fill="lightskyblue" points="646.1598016725102,476.4456758253866 646.1598016725102,270.23623027559626 408.04964387728023,64.02678472580587 408.04964387728023,270.23623027559626" />
  <polygon fill="grey" points="393.5239161019177,139.24769905804072 393.5239161019177,104.87945813307564 427.8921570268827,94.9582015582744 427.8921570268827,129.3264424832395" />
  <polygon fill="lightgrey" points="393.5239161019177,139.24769905804072 393.5239161019177,104.87945813307564 373.6814029523152,87.69533767059315 373.6814029523152,122.06357859555823" />
  <polygon fill="darkgrey" points="393.5239161019177,104.87945813307564 373.6814029523152,87.69533767059315 408.04964387728023,77.7740810957919 427.8921570268827,94.9582015582744" />
  <polygon fill="hsl(360.0,50.0%,50.65955712546234%)" points="459.6478735320463,435.0115384076329 459.6478735320463,387.80332267310087 467.8962513540379,385.42222109514853 467.8962513540379,432.63043682968055" />
  <polygon fill="hsl(360.0,50.0%,50.65955712546234%)" points="480.2688180870253,429.0587844627521 480.2688180870253,381.8505687282201 472.0204402650337,384.23167030617236 472.0204402650337,431.43988604070444" />
  <polygon fill="hsl(360.0,50.0%,50.65955712546234%)" points="451.3994957100547,390.65183232763263 451.3994957100547,343.91102466968016 458.6168263042973,341.82756078897194 458.6168263042973,388.5683684469244" />
  <polygon fill="hsl(360.0,50.0%,50.65955712546234%)" points="481.29986531477425,382.02033910755557 481.29986531477425,335.2795314496031 488.5171959090169,333.1960675688948 488.5171959090169,379.9368752268473" />
  <polygon fill="hsl(360.0,50.0%,50.65955712546234%)" points="458.6168263042973,349.0448913832146 458.6168263042973,341.82756078897194 481.29986531477425,335.2795314496031 481.29986531477425,342.49686204384574" />
  <polygon fill="hsl(360.0,50.0%,50.65955712546234%)" points="459.6478735320463,388.27073074968035 459.6478735320463,341.5299230917279 480.2688180870253,335.57716914684715 480.2688180870253,382.3179768047996" />
  <polygon fill="hsl(360.0,50.0%,50.65955712546234%)" points="464.80310967079106,337.70469422261004 464.80310967079106,316.6713307765315 475.11358194828057,313.6949538040911 475.11358194828057,334.7283172501697" />
  <polygon fill="hsl(360.0,50.0%,50.65955712546234%)" points="466.865204126289,339.4464592110196 466.865204126289,316.07605538204336 473.05148749278266,314.29022919857914 473.05148749278266,337.6606330275554" />
  <polygon fill="hsl(360.0,50.0%,42.21758785095096%)" points="458.8841166778699,481.6537174455194 458.8841166778699,434.44550171098746 467.13249449986154,432.0644001330351 467.13249449986154,479.2726158675672" />
  <polygon fill="hsl(360.0,50.0%,42.21758785095096%)" points="479.50506123284896,475.70096350063875 479.5050612328489,428.4927477661067 471.2566834108573,430.87384934405895 471.2566834108573,478.082065078591" />
  <polygon fill="hsl(360.0,50.0%,42.21758785095096%)" points="450.6357388558783,437.2940113655193 450.6357388558783,390.5532037075668 457.8530694501209,388.46973982685853 457.8530694501209,435.210547484811" />
  <polygon fill="hsl(360.0,50.0%,42.21758785095096%)" points="480.53610846059786,428.66251814544216 480.53610846059786,381.9217104874897 487.75343905484056,379.83824660678147 487.75343905484056,426.57905426473394" />
  <polygon fill="hsl(360.0,50.0%,42.21758785095096%)" points="457.8530694501209,395.68707042110117 457.8530694501209,388.46973982685853 480.53610846059786,381.9217104874897 480.53610846059786,389.13904108173233" />
  <polygon fill="hsl(360.0,50.0%,42.21758785095096%)" points="458.8841166778699,434.91290978756695 458.8841166778699,388.1721021296145 479.5050612328489,382.2193481847337 479.5050612328489,428.9601558426862" />
  <polygon fill="hsl(360.0,50.0%,42.21758785095096%)" points="464.03935281661467,384.34687326049664 464.03935281661467,363.31350981441807 474.3498250941042,360.3371328419777 474.3498250941042,381.3704962880563" />
  <polygon fill="hsl(360.0,50.0%,42.21758785095096%)" points="466.1014472721126,386.0886382489062 466.1014472721126,362.71823441993 472.28773063860626,360.93240823646573 472.28773063860626,384.30281206544197" />
</svg>
