<?xml version="1.0" encoding="UTF-8"?>
<svg
  xmlns="http://www.w3.org/2000/svg"
  width="848"
  height="600"
  style="background-color:white"
>
  <polygon fill="lightblue" points="439.95035612271977,535.9732152741941 201.84019832748984,329.76376972440374 408.04964387728023,270.23623027559626 646.1598016725102,476.4456758253866" />
  <polygon fill="steelblue" points="201.84019832748984,329.76376972440374 201.84019832748984,123.55432417461336 408.04964387728023,64.02678472580587 408.04964387728023,270.23623027559626" />
  <polygon fill="lightskyblue" points="646.1598016725102,476.4456758253866 646.1598016725102,270.23623027559626 408.04964387728023,64.02678472580587 408.04964387728023,270.23623027559626" />
  <polygon fill="white" points="287.7608006399025,249.97144280745653 287.7608006399025,194.9822573275124 322.1290415648676,185.06100075271115 322.1290415648676,240.05018623265528" />
  <polygon fill="grey" points="393.5239161019177,139.24769905804072 393.5239161019177,104.87945813307564 427.8921570268827,94.9582015582744 427.8921570268827,129.3264424832395" />
  <polygon fill="lightgrey" points="393.5239161019177,139.24769905804072 393.5239161019177,104.87945813307564 373.6814029523152,87.69533767059315 373.6814029523152,122.06357859555823" />
  <polygon fill="darkgrey" points="393.5239161019177,104.87945813307564 373.6814029523152,87.69533767059315 408.04964387728023,77.7740810957919 427.8921570268827,94.9582015582744" />
  <polygon fill="hsl(288.0,50.0%,72.09185257592405%)" points="369.7017580757836,343.12229841460993 369.7017580757836,295.9140826800779 377.95013589777517,293.5329811021256 377.95013589777517,340.7411968366576" />
  <polygon fill="hsl(288.0,50.0%,72.09185257592405%)" points="390.3227026307626,337.16954446972915 390.3227026307626,289.9613287351971 382.074324808771,292.34243031314946 382.074324808771,339.5506460476815" />
  <polygon fill="hsl(288.0,50.0%,72.09185257592405%)" points="361.453380253792,298.76259233460974 361.453380253792,252.02178467665723 368.6707108480346,249.93832079594898 368.6707108480346,296.67912845390146" />
  <polygon fill="hsl(288.0,50.0%,72.09185257592405%)" points="391.35374985851155,290.1310991145326 391.35374985851155,243.39029145658014 398.5710804527542,241.3068275758719 398.5710804527542,288.0476352338244" />
  <polygon fill="hsl(288.0,50.0%,72.09185257592405%)" points="368.6707108480346,257.1556513901916 368.6707108480346,249.93832079594898 391.35374985851155,243.39029145658014 391.35374985851155,250.6076220508228" />
  <polygon fill="hsl(288.0,50.0%,72.09185257592405%)" points="369.7017580757836,296.3814907566574 369.7017580757836,249.64068309870493 390.3227026307626,243.6879291538242 390.3227026307626,290.4287368117767" />
  <polygon fill="hsl(288.0,50.0%,72.09185257592405%)" points="374.8569942145283,245.81545422958712 374.8569942145283,224.78209078350852 385.16746649201787,221.80571381106813 385.16746649201787,242.83907725714676" />
  <polygon fill="hsl(288.0,50.0%,72.09185257592405%)" points="376.9190886700262,247.55721921799667 376.9190886700262,224.18681538902044 383.10537203651995,222.40098920555621 383.10537203651995,245.77139303453245" />
  <polygon fill="hsl(288.0,50.0%,59.71537400830306%)" points="432.07161066296135,393.1749203786942 432.07161066296135,345.9667046441622 440.31998848495294,343.58560306620984 440.31998848495294,390.79381880074186" />
  <polygon fill="hsl(288.0,50.0%,59.71537400830306%)" points="452.69255521794037,387.2221664338134 452.69255521794037,340.0139506992814 444.4441773959487,342.39505227723373 444.44417739594877,389.60326801176575" />
  <polygon fill="hsl(288.0,50.0%,59.71537400830306%)" points="423.8232328409697,348.81521429869395 423.8232328409697,302.0744066407415 431.0405634352124,299.99094276003325 431.0405634352124,346.7317504179857" />
  <polygon fill="hsl(288.0,50.0%,59.71537400830306%)" points="453.7236024456893,340.1837210786169 453.7236024456893,293.4429134206644 460.94093303993196,291.35944953995613 460.94093303993196,338.1002571979086" />
  <polygon fill="hsl(288.0,50.0%,59.71537400830306%)" points="431.0405634352124,307.2082733542759 431.0405634352124,299.99094276003325 453.7236024456893,293.4429134206644 453.7236024456893,300.66024401490705" />
  <polygon fill="hsl(288.0,50.0%,59.71537400830306%)" points="432.07161066296135,346.43411272074167 432.0716106629613,299.6933050627892 452.69255521794037,293.74055111790847 452.69255521794037,340.48135877586094" />
  <polygon fill="hsl(288.0,50.0%,59.71537400830306%)" points="437.2268468017061,295.86807619367136 437.2268468017061,274.8347127475928 447.5373190791956,271.8583357751524 447.5373190791956,292.891699221231" />
  <polygon fill="hsl(288.0,50.0%,59.71537400830306%)" points="439.288941257204,297.6098411820809 439.288941257204,274.2394373531047 445.47522462369767,272.45361116964045 445.47522462369767,295.8240149986167" />
  <polygon fill="hsl(288.0,50.0%,50.65955712546234%)" points="459.6478735320463,435.0115384076329 459.6478735320463,387.80332267310087 467.8962513540379,385.42222109514853 467.8962513540379,432.63043682968055" />
  <polygon fill="hsl(288.0,50.0%,50.65955712546234%)" points="480.2688180870253,429.0587844627521 480.2688180870253,381.8505687282201 472.0204402650337,384.23167030617236 472.0204402650337,431.43988604070444" />
  <polygon fill="hsl(288.0,50.0%,50.65955712546234%)" points="451.3994957100547,390.65183232763263 451.3994957100547,343.91102466968016 458.6168263042973,341.82756078897194 458.6168263042973,388.5683684469244" />
  <polygon fill="hsl(288.0,50.0%,50.65955712546234%)" points="481.29986531477425,382.02033910755557 481.29986531477425,335.2795314496031 488.5171959090169,333.1960675688948 488.5171959090169,379.9368752268473" />
  <polygon fill="hsl(288.0,50.0%,50.65955712546234%)" points="458.6168263042973,349.0448913832146 458.6168263042973,341.82756078897194 481.29986531477425,335.2795314496031 481.29986531477425,342.49686204384574" />
  <polygon fill="hsl(288.0,50.0%,50.65955712546234%)" points="459.6478735320463,388.27073074968035 459.6478735320463,341.5299230917279 480.2688180870253,335.57716914684715 480.2688180870253,382.3179768047996" />
  <polygon fill="hsl(288.0,50.0%,50.65955712546234%)" points="464.80310967079106,337.70469422261004 464.80310967079106,316.6713307765315 475.11358194828057,313.6949538040911 475.11358194828057,334.7283172501697" />
  <polygon fill="hsl(288.0,50.0%,50.65955712546234%)" points="466.865204126289,339.4464592110196 466.865204126289,316.07605538204336 473.05148749278266,314.29022919857914 473.05148749278266,337.6606330275554" />
  <polygon fill="hsl(288.0,50.0%,42.21758785095096%)" points="458.8841166778699,481.6537174455194 458.8841166778699,434.44550171098746 467.13249449986154,432.0644001330351 467.13249449986154,479.2726158675672" />
  <polygon fill="hsl(288.0,50.0%,42.21758785095096%)" points="479.50506123284896,475.70096350063875 479.5050612328489,428.4927477661067 471.2566834108573,430.87384934405895 471.2566834108573,478.082065078591" />
  <polygon fill="hsl(288.0,50.0%,42.21758785095096%)" points="450.6357388558783,437.2940113655193 450.6357388558783,390.5532037075668 457.8530694501209,388.46973982685853 457.8530694501209,435.210547484811" />
  <polygon fill="hsl(288.0,50.0%,42.21758785095096%)" points="480.53610846059786,428.66251814544216 480.53610846059786,381.9217104874897 487.75343905484056,379.83824660678147 487.75343905484056,426.57905426473394" />
  <polygon fill="hsl(288.0,50.0%,42.21758785095096%)" points="457.8530694501209,395.68707042110117 457.8530694501209,388.46973982685853 480.53610846059786,381.9217104874897 480.53610846059786,389.13904108173233" />
  <polygon fill="hsl(288.0,50.0%,42.21758785095096%)" points="458.8841166778699,434.91290978756695 458.8841166778699,388.1721021296145 479.5050612328489,382.2193481847337 479.5050612328489,428.9601558426862" />
  <polygon fill="hsl(288.0,50.0%,42.21758785095096%)" points="464.03935281661467,384.34687326049664 464.03935281661467,363.31350981441807 474.3498250941042,360.3371328419777 474.3498250941042,381.3704962880563" />
  <polygon fill="hsl(288.0,50.0%,42.21758785095096%)" points="466.1014472721126,386.0886382489062 466.1014472721126,362.71823441993 472.28773063860626,360.93240823646573 472.28773063860626,384.30281206544197" />
</svg>
