<?xml version="1.0" encoding="UTF-8"?>
<svg
  xmlns="http://www.w3.org/2000/svg"
  width="848"
  height="600"
  style="background-color:white"
>
  <polygon fill="lightblue" points="439.95035612271977,535.9732152741941 201.84019832748984,329.76376972440374 408.04964387728023,270.23623027559626 646.1598016725102,476.4456758253866" />
  <polygon fill="steelblue" points="201.84019832748984,329.76376972440374 201.84019832748984,123.55432417461336 408.04964387728023,64.02678472580587 408.04964387728023,270.23623027559626" />
  <polygon fill="lightskyblue" points="646.1598016725102,476.4456758253866 646.1598016725102,270.23623027559626 408.04964387728023,64.02678472580587 408.04964387728023,270.23623027559626" />
  <polygon fill="white" points="539.0102306646567,383.651425327981 539.0102306646567,246.17846162812071 515.1992148851338,225.55751707314167 515.1992148851338,363.0304807730019" />
  <polygon fill="white" points="219.0243187899724,269.813955957059 219.0243187899724,214.8247704771149 253.39255971493745,204.90351390231365 253.39255971493745,259.8926993822578" />
  <polygon fill="white" points="253.39255971493745,259.8926993822578 253.39255971493745,204.90351390231365 287.7608006399025,194.9822573275124 287.7608006399025,249.97144280745653" />
  <polygon fill="white" points="287.7608006399025,249.97144280745653 287.7608006399025,194.9822573275124 322.1290415648676,185.06100075271115 322.1290415648676,240.05018623265528" />
  <polygon fill="white" points="322.1290415648676,240.05018623265528 322.1290415648676,185.06100075271115 356.4972824898326,175.1397441779099 356.4972824898326,230.12892965785403" />
  <polygon fill="white" points="356.4972824898326,230.12892965785403 356.4972824898326,175.1397441779099 390.8655234147977,165.21848760310866 390.8655234147977,220.20767308305278" />
</svg>
