<?xml version="1.0" encoding="UTF-8"?>
<svg
  xmlns="http://www.w3.org/2000/svg"
  width="848"
  height="600"
  style="background-color:white"
>
  <polygon fill="lightblue" points="434.0480947161671,513.6057158514986 284.0480947161671,383.7019052838329 413.9519052838329,346.2019052838329 563.951905283833,476.1057158514987" />
  <polygon fill="steelblue" points="284.0480947161671,383.7019052838329 284.0480947161671,123.8942841485013 413.9519052838329,86.3942841485013 413.9519052838329,346.2019052838329" />
  <polygon fill="lightskyblue" points="563.951905283833,476.1057158514987 563.951905283833,216.2980947161671 413.9519052838329,86.3942841485013 413.9519052838329,346.2019052838329" />
  <polygon fill="white" points="496.4519052838329,417.64900109604906 496.4519052838329,331.0464607176052 481.4519052838329,318.05607966083863 481.4519052838329,404.65862003928254" />
  <polygon fill="white" points="299.2035392823948,344.6858891324554 299.2035392823948,310.0448729810778 320.85417437700573,303.7948729810778 320.85417437700573,338.4358891324554" />
  <polygon fill="white" points="325.18430139592795,337.1858891324554 325.18430139592795,302.5448729810778 346.8349364905389,296.2948729810778 346.8349364905389,330.9358891324554" />
  <polygon fill="white" points="351.1650635094611,329.6858891324554 351.1650635094611,295.0448729810778 372.81569860407205,288.7948729810778 372.81569860407205,323.4358891324554" />
  <polygon fill="white" points="377.14582562299427,322.1858891324554 377.14582562299427,287.5448729810778 398.7964607176052,281.2948729810778 398.7964607176052,315.9358891324554" />
</svg>
