<?xml version="1.0" encoding="UTF-8"?>
<svg
  xmlns="http://www.w3.org/2000/svg"
  width="848"
  height="600"
  style="background-color:white"
>
  <polygon fill="lightblue" points="439.95035612271977,535.9732152741941 201.84019832748984,329.76376972440374 408.04964387728023,270.23623027559626 646.1598016725102,476.4456758253866" />
  <polygon fill="steelblue" points="201.84019832748984,329.76376972440374 201.84019832748984,123.55432417461336 408.04964387728023,64.02678472580587 408.04964387728023,270.23623027559626" />
  <polygon fill="lightskyblue" points="646.1598016725102,476.4456758253866 646.1598016725102,270.23623027559626 408.04964387728023,64.02678472580587 408.04964387728023,270.23623027559626" />
  <polygon fill="white" points="539.0102306646567,383.651425327981 539.0102306646567,246.17846162812071 515.1992148851338,225.55751707314167 515.1992148851338,363.0304807730019" />
  <polygon fill="white" points="214.11457008640596,271.23127832488774 214.11457008640596,216.24209284494367 248.482811011371,206.32083627014242 248.482811011371,261.3100217500865" />
  <polygon fill="white" points="243.5730623078046,262.72734411791527 243.5730623078046,207.73815863797117 277.94130323276966,197.8169020631699 277.94130323276966,252.80608754311402" />
  <polygon fill="white" points="273.03155452920316,254.22340991094276 273.03155452920316,199.23422443099867 307.39979545416827,189.31296785619742 307.39979545416827,244.30215333614152" />
  <polygon fill="white" points="302.49004675060183,245.71947570397026 302.49004675060183,190.73029022402616 336.8582876755669,180.8090336492249 336.8582876755669,235.798219129169" />
  <polygon fill="white" points="331.94853897200045,237.21554149699776 331.94853897200045,182.22635601705366 366.3167798969655,172.3050994422524 366.3167798969655,227.2942849221965" />
  <polygon fill="white" points="361.40703119339906,228.71160729002526 361.40703119339906,173.72242181008116 395.7752721183641,163.8011652352799 395.7752721183641,218.790350715224" />
</svg>
