<?xml version="1.0" encoding="UTF-8"?>
<svg
  xmlns="http://www.w3.org/2000/svg"
  width="848"
  height="600"
  style="background-color:white"
>
  <polygon fill="lightblue" points="444.0961894323342,597.3076211353316 144.0961894323342,337.5 403.9038105676658,262.5 703.9038105676658,522.3076211353316" />
  <polygon fill="steelblue" points="144.0961894323342,337.5 144.0961894323342,77.6923788646684 403.9038105676658,2.692378864668399 403.9038105676658,262.5" />
  <polygon fill="lightskyblue" points="703.9038105676658,522.3076211353316 703.9038105676658,262.5 403.9038105676658,2.692378864668399 403.9038105676658,262.5" />
  <polygon fill="white" points="568.9038105676658,405.3941916244323 568.9038105676658,232.18911086754463 538.9038105676658,206.20834875401147 538.9038105676658,379.4134295108992" />
  <polygon fill="white" points="159.56092878562777,263.7536819829592 159.56092878562777,194.4716496802041 202.8621989748497,181.9716496802041 202.8621989748497,251.2536819829592" />
  <polygon fill="white" points="196.67630323353228,253.03939626867347 196.67630323353228,183.7573639659184 239.9775734227542,171.2573639659184 239.9775734227542,240.53939626867347" />
  <polygon fill="white" points="233.79167768143677,242.32511055438778 233.79167768143677,173.04307825163266 277.0929478706587,160.54307825163266 277.0929478706587,229.82511055438778" />
  <polygon fill="white" points="270.9070521293413,231.61082484010205 270.9070521293413,162.32879253734694 314.2083223185632,149.82879253734694 314.2083223185632,219.11082484010205" />
  <polygon fill="white" points="308.0224265772458,220.89653912581633 308.0224265772458,151.61450682306125 351.3236967664677,139.11450682306122 351.3236967664677,208.39653912581633" />
  <polygon fill="white" points="345.1378010251503,210.1822534115306 345.1378010251503,140.90022110877553 388.43907121437223,128.40022110877553 388.43907121437223,197.6822534115306" />
</svg>
