<?xml version="1.0" encoding="UTF-8"?>
<svg
  xmlns="http://www.w3.org/2000/svg"
  width="848"
  height="600"
  style="background-color:white"
>
  <polygon fill="lightblue" points="438.49186028680015,545.62151357786 222.1544247406889,358.26779860534907 409.50813971319985,304.1834397188212 625.8455752593111,491.53715469133215" />
  <polygon fill="steelblue" points="222.1544247406889,358.26779860534907 222.1544247406889,108.46284530866782 409.50813971319985,54.378486422139986 409.50813971319985,304.1834397188212" />
  <polygon fill="lightskyblue" points="625.8455752593111,491.53715469133215 625.8455752593111,241.73220139465093 409.50813971319985,54.378486422139986 409.50813971319985,304.1834397188212" />
  <polygon fill="white" points="244.01235815414853,301.9969660759179 244.01235815414853,252.03597541658164 275.2379773162337,243.02191560216033 275.2379773162337,292.98290626149657" />
  <polygon fill="white" points="281.4831011486507,291.18009429861235 281.4831011486507,241.21910363927609 312.7087203107359,232.20504382485478 312.7087203107359,282.166034484191" />
  <polygon fill="white" points="318.9538441431529,280.36322252130674 318.9538441431529,230.4022318619705 350.1794633052381,221.3881720475492 350.1794633052381,271.34916270688547" />
  <polygon fill="white" points="356.42458713765507,269.5463507440012 356.42458713765507,219.58536008466496 387.65020629974026,210.57130027024363 387.65020629974026,260.5322909295799" />
  <polygon fill="hsl(288.0,50.0%,50.65955712546234%)" points="456.3882425428786,453.8917425173137 456.3882425428785,411.0002320362735 463.88239114177895,408.8368576808124 463.88239114177895,451.72836816185253" />
  <polygon fill="hsl(288.0,50.0%,50.65955712546234%)" points="475.1236140401296,448.4833066286609 475.1236140401296,405.5917961476207 467.6294654412292,407.7551705030818 467.6294654412292,450.646680984122" />
  <polygon fill="hsl(288.0,50.0%,50.65955712546234%)" points="448.89409394397813,413.5882748123389 448.89409394397813,371.12143275190317 455.451473968016,369.2284801908747 455.451473968016,411.6953222513105" />
  <polygon fill="hsl(288.0,50.0%,50.65955712546234%)" points="476.0603826149922,405.7460427737924 476.0603826149922,363.2792007133566 482.61776263903005,361.3862481523281 482.61776263903005,403.85309021276396" />
  <polygon fill="hsl(288.0,50.0%,50.65955712546234%)" points="455.451473968016,375.78586021491253 455.451473968016,369.2284801908747 476.0603826149922,363.2792007133566 476.0603826149922,369.83658073739446" />
  <polygon fill="hsl(288.0,50.0%,50.65955712546234%)" points="456.3882425428785,411.4249004568778 456.3882425428785,368.958058396442 475.1236140401296,363.54962250778925 475.1236140401296,406.01646456822505" />
  <polygon fill="hsl(288.0,50.0%,50.65955712546234%)" points="461.0720854171913,365.48260732125703 461.0720854171913,346.3725283940609 470.43977116581686,343.6683104497345 470.43977116581686,362.77838937693065" />
  <polygon fill="hsl(288.0,50.0%,50.65955712546234%)" points="462.9456225669164,367.06510583541353 462.9456225669164,345.83168480519566 468.56623401609176,344.2091540385998 468.56623401609176,365.44257506881775" />
  <polygon fill="hsl(288.0,50.0%,42.21758785095096%)" points="455.69432338905824,496.2689745294673 455.69432338905824,453.3774640484271 463.1884719879587,451.214089692966 463.1884719879587,494.1056001740062" />
  <polygon fill="hsl(288.0,50.0%,42.21758785095096%)" points="474.42969488630933,490.8605386408145 474.42969488630933,447.9690281597743 466.9355462874089,450.13240251523547 466.9355462874089,493.0239129962756" />
  <polygon fill="hsl(288.0,50.0%,42.21758785095096%)" points="448.2001747901578,455.9655068244926 448.2001747901578,413.4986647640568 454.75755481419566,411.6057122030283 454.7575548141957,454.0725542634641" />
  <polygon fill="hsl(288.0,50.0%,42.21758785095096%)" points="475.36646346117186,448.123274785946 475.36646346117186,405.65643272551023 481.9238434852098,403.76348016448173 481.9238434852098,446.2303222249176" />
  <polygon fill="hsl(288.0,50.0%,42.21758785095096%)" points="454.75755481419566,418.16309222706616 454.75755481419566,411.6057122030283 475.36646346117186,405.65643272551023 475.36646346117186,412.21381274954814" />
  <polygon fill="hsl(288.0,50.0%,42.21758785095096%)" points="455.69432338905824,453.80213246903145 455.69432338905824,411.33529040859565 474.42969488630933,405.9268545199429 474.42969488630933,448.3936965803787" />
  <polygon fill="hsl(288.0,50.0%,42.21758785095096%)" points="460.37816626337104,407.85983933341066 460.37816626337104,388.7497604062146 469.74585201199653,386.0455424618882 469.7458520119966,405.1556213890843" />
  <polygon fill="hsl(288.0,50.0%,42.21758785095096%)" points="462.25170341309615,409.44233784756716 462.25170341309615,388.2089168173493 467.8723148622714,386.58638605075345 467.8723148622714,407.8198070809714" />
</svg>
