<?xml version="1.0" encoding="UTF-8"?>
<svg
  xmlns="http://www.w3.org/2000/svg"
  width="848"
  height="600"
  style="background-color:white"
>
  <polygon fill="lightblue" points="444.0961894323342,727.2114317029974 144.0961894323342,467.4038105676658 403.9038105676658,392.4038105676658 703.9038105676658,652.2114317029974" />
  <polygon fill="steelblue" points="144.0961894323342,467.4038105676658 144.0961894323342,-52.2114317029974 403.9038105676658,-127.2114317029974 403.9038105676658,392.4038105676658" />
  <polygon fill="lightskyblue" points="703.9038105676658,652.2114317029974 703.9038105676658,132.5961894323342 403.9038105676658,-127.2114317029974 403.9038105676658,392.4038105676658" />
  <polygon fill="white" points="568.9038105676658,535.2980021920981 568.9038105676658,362.0929214352104 538.9038105676658,336.11215932167727 538.9038105676658,509.3172400785651" />
  <polygon fill="white" points="174.40707856478957,389.3717782649107 174.40707856478957,320.0897459621556 217.70834875401152,307.5897459621556 217.70834875401152,376.8717782649107" />
  <polygon fill="white" points="226.3686027918559,374.3717782649107 226.36860279185586,305.0897459621556 269.6698729810778,292.5897459621556 269.6698729810778,361.8717782649107" />
  <polygon fill="white" points="278.3301270189222,359.37177826491074 278.3301270189222,290.0897459621556 321.6313972081441,277.5897459621556 321.6313972081441,346.87177826491074" />
  <polygon fill="white" points="330.29165124598853,344.3717782649107 330.29165124598853,275.0897459621556 373.5929214352104,262.5897459621556 373.5929214352104,331.8717782649107" />
</svg>
