<?xml version="1.0" encoding="UTF-8"?>
<svg
  xmlns="http://www.w3.org/2000/svg"
  width="848"
  height="600"
  style="background-color:white"
>
  <polygon fill="lightblue" points="434.0480947161671,513.6057158514986 284.0480947161671,383.7019052838329 413.9519052838329,346.2019052838329 563.951905283833,476.1057158514987" />
  <polygon fill="steelblue" points="284.0480947161671,383.7019052838329 284.0480947161671,123.8942841485013 413.9519052838329,86.3942841485013 413.9519052838329,346.2019052838329" />
  <polygon fill="lightskyblue" points="563.951905283833,476.1057158514987 563.951905283833,216.2980947161671 413.9519052838329,86.3942841485013 413.9519052838329,346.2019052838329" />
  <polygon fill="white" points="496.4519052838329,417.64900109604906 496.4519052838329,331.0464607176052 481.4519052838329,318.05607966083863 481.4519052838329,404.65862003928254" />
  <polygon fill="white" points="291.7804643928139,346.8287462753125 291.7804643928139,312.18773012393495 313.43109948742483,305.93773012393495 313.43109948742483,340.5787462753125" />
  <polygon fill="white" points="310.33815161676614,341.47160341816965 310.33815161676614,306.83058726679207 331.9887867113771,300.58058726679207 331.9887867113771,335.22160341816965" />
  <polygon fill="white" points="328.8958388407184,336.11446056102676 328.8958388407184,301.47344440964923 350.54647393532935,295.22344440964923 350.54647393532935,329.86446056102676" />
  <polygon fill="white" points="347.45352606467065,330.7573177038839 347.45352606467065,296.11630155250634 369.1041611592816,289.86630155250634 369.1041611592816,324.5073177038839" />
  <polygon fill="white" points="366.0112132886229,325.40017484674104 366.0112132886229,290.7591586953635 387.66184838323386,284.5091586953635 387.66184838323386,319.15017484674104" />
  <polygon fill="white" points="384.56890051257517,320.0430319895982 384.56890051257517,285.4020158382207 406.2195356071861,279.1520158382206 406.2195356071861,313.7930319895982" />
</svg>
