<?xml version="1.0" encoding="UTF-8"?>
<svg
  xmlns="http://www.w3.org/2000/svg"
  width="848"
  height="600"
  style="background-color:white"
>
  <polygon fill="lightblue" points="444.0961894323342,683.9101615137754 144.0961894323342,424.10254037844385 403.9038105676658,349.1025403784438 703.9038105676658,608.9101615137754" />
  <polygon fill="steelblue" points="144.0961894323342,424.10254037844385 144.0961894323342,-8.91016151377545 403.9038105676658,-83.91016151377545 403.9038105676658,349.1025403784438" />
  <polygon fill="lightskyblue" points="703.9038105676658,608.9101615137754 703.9038105676658,175.89745962155615 403.9038105676658,-83.91016151377545 403.9038105676658,349.1025403784438" />
  <polygon fill="white" points="568.9038105676658,491.99673200287623 568.9038105676658,318.7916512459885 538.9038105676658,292.8108891324553 538.9038105676658,466.01596988934307" />
  <polygon fill="white" points="159.56092878562777,350.35622236140307 159.56092878562777,281.07419005864796 202.8621989748497,268.57419005864796 202.8621989748497,337.85622236140307" />
  <polygon fill="white" points="196.67630323353228,339.64193664711735 196.67630323353228,270.35990434436223 239.9775734227542,257.85990434436223 239.9775734227542,327.14193664711735" />
  <polygon fill="white" points="233.7916776814368,328.9276509328316 233.79167768143677,259.6456186300765 277.0929478706587,247.1456186300765 277.0929478706587,316.4276509328316" />
  <polygon fill="white" points="270.9070521293413,318.2133652185459 270.9070521293413,248.93133291579082 314.2083223185632,236.4313329157908 314.2083223185632,305.7133652185459" />
  <polygon fill="white" points="308.0224265772458,307.4990795042602 308.0224265772458,238.2170472015051 351.3236967664677,225.71704720150507 351.3236967664677,294.9990795042602" />
  <polygon fill="white" points="345.13780102515034,296.7847937899745 345.1378010251503,227.50276148721937 388.43907121437223,215.00276148721937 388.43907121437223,284.28479378997446" />
</svg>
