<?xml version="1.0" encoding="UTF-8"?>
<svg
  xmlns="http://www.w3.org/2000/svg"
  width="848"
  height="600"
  style="background-color:white"
>
  <polygon fill="lightblue" points="438.49186028680015,545.62151357786 222.1544247406889,358.26779860534907 409.50813971319985,304.1834397188212 625.8455752593111,491.53715469133215" />
  <polygon fill="steelblue" points="222.1544247406889,358.26779860534907 222.1544247406889,108.46284530866782 409.50813971319985,54.378486422139986 409.50813971319985,304.1834397188212" />
  <polygon fill="lightskyblue" points="625.8455752593111,491.53715469133215 625.8455752593111,241.73220139465093 409.50813971319985,54.378486422139986 409.50813971319985,304.1834397188212" />
  <polygon fill="white" points="528.493729263561,407.2279829537023 528.493729263561,282.3255063053616 506.8599857089499,263.5901348081105 506.8599857089499,388.4926114564512" />
  <polygon fill="antiquewhite" points="492.3567567023591,455.80392371113413 492.35675670235906,349.6368185600446 517.3372520320272,342.42557070850756 517.3372520320272,448.5926758595971" />
  <polygon fill="beige" points="492.3567567023591,455.80392371113413 492.35675670235906,349.6368185600446 477.934260999285,337.1465708952105 477.934260999285,443.3136760463001" />
  <polygon fill="bisque" points="492.35675670235906,349.6368185600446 477.934260999285,337.1465708952105 502.9147563289531,329.93532304367346 517.3372520320272,342.42557070850756" />
  <polygon fill="antiquewhite" points="449.5298941821541,526.1602318730895 449.5298941821541,419.99312672199994 474.5103895118222,412.78187887046295 474.5103895118222,518.9489840215524" />
  <polygon fill="beige" points="449.5298941821541,526.1602318730895 449.5298941821541,419.99312672199994 435.10739847908,407.5028790571659 435.10739847908,513.6699842082554" />
  <polygon fill="bisque" points="449.5298941821541,419.99312672199994 435.10739847908,407.5028790571659 460.08789380874816,400.29163120562885 474.5103895118222,412.78187887046295" />
</svg>
