<?xml version="1.0" encoding="UTF-8"?>
<svg
  xmlns="http://www.w3.org/2000/svg"
  width="848"
  height="600"
  style="background-color:white"
>
  <polygon fill="lightblue" points="439.95035612271977,535.9732152741941 201.84019832748984,329.76376972440374 408.04964387728023,270.23623027559626 646.1598016725102,476.4456758253866" />
  <polygon fill="steelblue" points="201.84019832748984,329.76376972440374 201.84019832748984,123.55432417461336 408.04964387728023,64.02678472580587 408.04964387728023,270.23623027559626" />
  <polygon fill="lightskyblue" points="646.1598016725102,476.4456758253866 646.1598016725102,270.23623027559626 408.04964387728023,64.02678472580587 408.04964387728023,270.23623027559626" />
  <polygon fill="white" points="539.0102306646567,383.651425327981 539.0102306646567,246.17846162812071 515.1992148851338,225.55751707314167 515.1992148851338,363.0304807730019" />
  <polygon fill="white" points="225.8979669749654,267.82970464209876 225.8979669749654,212.84051916215466 260.26620789993046,202.91926258735342 260.26620789993046,257.9084480672975" />
  <polygon fill="white" points="267.1398560849235,255.92419675233725 267.1398560849235,200.93501127239318 301.50809700988856,191.01375469759193 301.50809700988856,246.002940177536" />
  <polygon fill="white" points="308.38174519488155,244.01868886257577 308.38174519488155,189.02950338263167 342.7499861198466,179.10824680783043 342.7499861198466,234.0974322877745" />
  <polygon fill="white" points="349.62363430483964,232.11318097281426 349.62363430483964,177.12399549287016 383.9918752298047,167.20273891806892 383.9918752298047,222.19192439801301" />
</svg>
