<?xml version="1.0" encoding="UTF-8"?>
<svg
  xmlns="http://www.w3.org/2000/svg"
  width="848"
  height="600"
  style="background-color:white"
>
  <polygon fill="lightblue" points="436.6598060442364,569.1263377791662 247.6716485600054,405.457792383408 411.34019395576365,358.2107530123502 600.3283514399945,521.8792984081084" />
  <polygon fill="steelblue" points="247.6716485600054,405.457792383408 247.6716485600054,78.12070159189156 411.3401939557636,30.873662220833808 411.34019395576365,358.2107530123502" />
  <polygon fill="lightskyblue" points="600.3283514399945,521.8792984081084 600.3283514399945,194.542207616592 411.3401939557636,30.873662220833808 411.34019395576365,358.2107530123502" />
  <polygon fill="white" points="315.866875808238,342.12658053993175 315.866875808238,298.48163510106286 343.144966707531,290.6071285392199 343.144966707531,334.2520739780888" />
  <polygon fill="grey" points="399.8111161801565,90.57654149133353 399.8111161801565,63.298450592040524 427.0892070794495,55.42394403019756 427.0892070794495,82.70203492949057" />
  <polygon fill="lightgrey" points="399.8111161801565,90.57654149133353 399.8111161801565,63.298450592040524 384.06210305647056,49.65940514239401 384.06210305647056,76.93749604168704" />
  <polygon fill="darkgrey" points="399.8111161801565,63.298450592040524 384.06210305647056,49.65940514239401 411.3401939557636,41.7848985805511 427.0892070794495,55.42394403019756" />
  <polygon fill="hsl(288.0,50.0%,50.65955712546234%)" points="452.2937359725998,488.9930017459398 452.2937359725998,451.5238160866709 458.8404777884301,449.63393451182856 458.8404777884301,487.1031201710975" />
  <polygon fill="hsl(288.0,50.0%,50.65955712546234%)" points="468.66059051217565,484.26829780883406 468.66059051217565,446.79911214956513 462.1138486963453,448.6889937244074 462.1138486963453,486.1581793836764" />
  <polygon fill="hsl(288.0,50.0%,50.65955712546234%)" points="445.74699415676946,453.78467969774357 445.74699415676946,416.686476074705 451.47539324562104,415.032829696718 451.47539324562104,452.1310333197565" />
  <polygon fill="hsl(288.0,50.0%,50.65955712546234%)" points="469.4789332391544,446.9338589889402 469.4789332391544,409.83565536590163 475.2073323280059,408.1820089879146 475.2073323280059,445.2802126109532" />
  <polygon fill="hsl(288.0,50.0%,50.65955712546234%)" points="451.47539324562104,420.76122878556953 451.47539324562104,415.032829696718 469.4789332391544,409.83565536590163 469.4789332391544,415.5640544547532" />
  <polygon fill="hsl(288.0,50.0%,50.65955712546234%)" points="452.2937359725998,451.8947981229013 452.2937359725998,414.79659449986275 468.66059051217565,410.07189056275695 468.66059051217565,447.1700941857955" />
  <polygon fill="hsl(288.0,50.0%,50.65955712546234%)" points="456.38544960749374,411.76050833443435 456.38544960749374,395.06631670406705 464.56887687728164,392.70396473551415 464.56887687728164,409.3981563658815" />
  <polygon fill="hsl(288.0,50.0%,50.65955712546234%)" points="458.02213506145137,413.1429481218757 458.02213506145137,394.59384631035647 462.93219142332407,393.1764351292247 462.93219142332407,411.72553694074395" />
</svg>
