<?xml version="1.0" encoding="UTF-8"?>
<svg
  xmlns="http://www.w3.org/2000/svg"
  width="848"
  height="600"
  style="background-color:white"
>
  <polygon fill="lightblue" points="436.6598060442364,569.1263377791662 247.6716485600054,405.457792383408 411.34019395576365,358.2107530123502 600.3283514399945,521.8792984081084" />
  <polygon fill="steelblue" points="247.6716485600054,405.457792383408 247.6716485600054,78.12070159189156 411.3401939557636,30.873662220833808 411.34019395576365,358.2107530123502" />
  <polygon fill="lightskyblue" points="600.3283514399945,521.8792984081084 600.3283514399945,194.542207616592 411.3401939557636,30.873662220833808 411.34019395576365,358.2107530123502" />
  <polygon fill="white" points="515.2836805720907,448.2284529800172 515.2836805720906,339.1160893828451 496.38486482366756,322.7492348432693 496.3848648236676,431.8615984404414" />
  <polygon fill="white" points="257.41382388118154,359.00052317245235 257.41382388118154,315.3555777335835 284.6919147804746,307.48107117174055 284.6919147804746,351.1260166106094" />
  <polygon fill="white" points="280.7950446520041,352.2509461194441 280.7950446520041,308.6060006805752 308.0731355512971,300.73149411873226 308.0731355512971,344.37643955760115" />
  <polygon fill="white" points="304.1762654228267,345.50136906643587 304.1762654228267,301.856423627567 331.45435632211974,293.981917065724 331.45435632211974,337.6268625045929" />
  <polygon fill="white" points="327.5574861936493,338.7517920134276 327.5574861936493,295.10684657455874 354.83557709294234,287.2323400127158 354.83557709294234,330.87728545158467" />
  <polygon fill="white" points="350.9387069644719,332.00221496041934 350.93870696447186,288.3572695215505 378.21679786376495,280.48276295970754 378.21679786376495,324.1277083985764" />
  <polygon fill="white" points="374.31992773529447,325.2526379074111 374.31992773529447,281.60769246854227 401.5980186345875,273.73318590669925 401.59801863458756,317.37813134556814" />
  <polygon fill="antiquewhite" points="483.715127287913,490.6634458818975 483.715127287913,397.9179368243012 505.5376000073474,391.6183315748268 505.5376000073474,484.36384063242315" />
  <polygon fill="beige" points="483.715127287913,490.6634458818975 483.715127287913,397.9179368243012 471.1159167889642,387.00670046458396 471.1159167889642,479.7522095221803" />
  <polygon fill="bisque" points="483.715127287913,397.9179368243012 471.1159167889642,387.00670046458396 492.9383895083987,380.7070952151096 505.5376000073474,391.6183315748268" />
  <polygon fill="antiquewhite" points="446.3024168243147,552.1253422631487 446.3024168243147,459.3798332055524 468.12488954374913,453.08022795607803 468.12488954374913,545.8257370136744" />
  <polygon fill="beige" points="446.3024168243147,552.1253422631487 446.3024168243147,459.3798332055524 433.703206325366,448.4685968458352 433.703206325366,541.2141059034316" />
  <polygon fill="bisque" points="446.3024168243147,459.3798332055524 433.703206325366,448.4685968458352 455.5256790448004,442.1689915963608 468.12488954374913,453.08022795607803" />
  <polygon fill="antiquewhite" points="396.37455504466686,387.25743456460077 396.37455504466686,294.5119255070044 418.19702776410134,288.21232025753005 418.19702776410134,380.95782931512633" />
  <polygon fill="beige" points="396.37455504466686,387.25743456460077 396.37455504466686,294.5119255070044 383.77534454571816,283.6006891472872 383.77534454571816,376.34619820488354" />
  <polygon fill="bisque" points="396.37455504466686,294.5119255070044 383.77534454571816,283.6006891472872 405.59781726515257,277.3010838978128 418.19702776410134,288.21232025753005" />
</svg>
