<?xml version="1.0" encoding="UTF-8"?>
<svg
  xmlns="http://www.w3.org/2000/svg"
  width="848"
  height="600"
  style="background-color:white"
>
  <polygon fill="lightblue" points="437.4530513770976,557.0021119886889 236.62316635244676,383.07832971823325 410.5469486229024,332.8708584620705 611.3768336475532,506.79464073252615" />
  <polygon fill="steelblue" points="236.62316635244676,383.07832971823325 236.62316635244676,93.20535926747385 410.5469486229024,42.99788801131115 410.5469486229024,332.8708584620705" />
  <polygon fill="lightskyblue" points="611.3768336475532,506.79464073252615 611.3768336475532,216.92167028176678 410.5469486229024,42.99788801131115 410.5469486229024,332.8708584620705" />
  <polygon fill="white" points="521.0033853864604,428.5289387108211 521.0033853864604,312.57975053051734 500.9203968839953,295.1873723034718 500.9203968839953,411.13656048377555" />
  <polygon fill="white" points="309.0914089651366,315.77887475604393 309.0914089651366,269.3991994839224 338.07870601021256,261.0312876078953 338.07870601021256,307.4109628800168" />
  <polygon fill="hsl(324.0,50.0%,50.65955712546234%)" points="454.0665809854735,471.84773577579114 454.0665809854735,432.0307845546748 461.0235322762917,430.02248570442833 461.0235322762917,469.83943692554465" />
  <polygon fill="hsl(324.0,50.0%,50.65955712546234%)" points="471.45895921251906,466.8269886501748 471.45895921251906,427.01003742905857 464.50200792170085,429.01833627930506 464.50200792170085,468.8352875004214" />
  <polygon fill="hsl(324.0,50.0%,50.65955712546234%)" points="447.10962969465527,434.4333106447343 447.10962969465527,395.01058666343107 453.1969620741212,393.25332516946537 453.1969620741212,432.6760491507687" />
  <polygon fill="hsl(324.0,50.0%,50.65955712546234%)" points="472.3285781238713,427.1532273125908 472.3285781238713,387.73050333128754 478.4159105033373,385.9732418373218 478.4159105033373,425.3959658186251" />
  <polygon fill="hsl(324.0,50.0%,50.65955712546234%)" points="453.1969620741212,399.34065754893135 453.1969620741212,393.25332516946537 472.3285781238713,387.73050333128754 472.3285781238713,393.81783571075346" />
  <polygon fill="hsl(324.0,50.0%,50.65955712546234%)" points="454.0665809854735,432.4250117944879 454.0665809854735,393.0022878131846 471.45895921251906,387.9815406875683 471.45895921251906,427.4042646688716" />
  <polygon fill="hsl(324.0,50.0%,50.65955712546234%)" points="458.4146755422349,389.7759648327153 458.4146755422349,372.03573904112886 467.11086465575767,369.52536547832074 467.11086465575767,387.2655912699072" />
  <polygon fill="hsl(324.0,50.0%,50.65955712546234%)" points="460.1539133649394,391.2450263192189 460.1539133649394,371.5336643285673 465.3716268330531,370.0274401908824 465.3716268330531,389.738802181534" />
  <polygon fill="hsl(324.0,50.0%,42.21758785095096%)" points="453.422403506313,511.1872731571972 453.422403506313,471.3703219360809 460.3793547971312,469.3620230858344 460.37935479713127,509.1789743069507" />
  <polygon fill="hsl(324.0,50.0%,42.21758785095096%)" points="470.8147817333586,506.16652603158093 470.8147817333586,466.3495748104647 463.8578304425404,468.3578736607111 463.8578304425404,508.1748248818275" />
  <polygon fill="hsl(324.0,50.0%,42.21758785095096%)" points="446.4654522154948,473.7728480261404 446.4654522154948,434.3501240448372 452.5527845949607,432.5928625508715 452.5527845949607,472.0155865321748" />
  <polygon fill="hsl(324.0,50.0%,42.21758785095096%)" points="471.6844006447109,466.49276469399683 471.6844006447108,427.0700407126936 477.7717330241768,425.3127792187279 477.7717330241768,464.7355032000312" />
  <polygon fill="hsl(324.0,50.0%,42.21758785095096%)" points="452.5527845949607,438.6801949303374 452.5527845949607,432.5928625508715 471.6844006447108,427.0700407126936 471.6844006447108,433.15737309215956" />
  <polygon fill="hsl(324.0,50.0%,42.21758785095096%)" points="453.422403506313,471.76454917589393 453.422403506313,432.3418251945907 470.8147817333586,427.3210780689744 470.8147817333586,466.7438020502776" />
  <polygon fill="hsl(324.0,50.0%,42.21758785095096%)" points="457.7704980630744,429.1155022141214 457.7704980630744,411.37527642253497 466.4666871765972,408.86490285972684 466.4666871765972,426.6051286513133" />
  <polygon fill="hsl(324.0,50.0%,42.21758785095096%)" points="459.509735885779,430.584563700625 459.509735885779,410.87320170997333 464.7274493538926,409.3669775722884 464.7274493538926,429.0783395629401" />
</svg>
