<?xml version="1.0" encoding="UTF-8"?>
<svg
  xmlns="http://www.w3.org/2000/svg"
  width="848"
  height="600"
  style="background-color:white"
>
  <polygon fill="lightblue" points="437.4530513770976,557.0021119886889 236.62316635244676,383.07832971823325 410.5469486229024,332.8708584620705 611.3768336475532,506.79464073252615" />
  <polygon fill="steelblue" points="236.62316635244676,383.07832971823325 236.62316635244676,93.20535926747385 410.5469486229024,42.99788801131115 410.5469486229024,332.8708584620705" />
  <polygon fill="lightskyblue" points="611.3768336475532,506.79464073252615 611.3768336475532,216.92167028176678 410.5469486229024,42.99788801131115 410.5469486229024,332.8708584620705" />
  <polygon fill="white" points="521.0033853864604,428.5289387108211 521.0033853864604,312.57975053051734 500.9203968839953,295.1873723034718 500.9203968839953,411.13656048377555" />
  <polygon fill="white" points="265.6104633975227,328.3307425700846 265.6104633975227,281.9510672979631 294.59776044259866,273.583155421936 294.59776044259866,319.9628306940575" />
  <polygon fill="white" points="309.0914089651366,315.77887475604393 309.0914089651366,269.3991994839224 338.07870601021256,261.0312876078953 338.07870601021256,307.4109628800168" />
  <polygon fill="white" points="352.5723545327505,303.22700694200324 352.5723545327505,256.8473316698817 381.55965157782646,248.47941979385462 381.55965157782646,294.85909506597613" />
  <polygon fill="antiquewhite" points="487.4567917223311,473.6228475512074 487.4567917223311,375.0660375979492 510.6466293583918,368.37170809712757 510.64662935839186,466.9285180503857" />
  <polygon fill="beige" points="487.4567917223311,473.6228475512074 487.4567917223311,375.0660375979492 474.0681327206877,363.47111877991887 474.0681327206877,462.0279287331771" />
  <polygon fill="bisque" points="487.4567917223311,375.0660375979492 474.0681327206877,363.47111877991887 497.25797035674844,356.77678927909716 510.6466293583918,368.37170809712757" />
  <polygon fill="antiquewhite" points="447.6998543518405,538.9358584189578 447.6998543518405,440.3790484656996 470.8896919879012,433.6847189648779 470.88969198790124,532.241528918136" />
  <polygon fill="beige" points="447.6998543518405,538.9358584189578 447.6998543518405,440.3790484656996 434.31119535019707,428.7841296476692 434.31119535019707,527.3409396009274" />
  <polygon fill="bisque" points="447.6998543518405,440.3790484656996 434.31119535019707,428.7841296476692 457.5010329862578,422.0898001468475 470.8896919879012,433.6847189648779" />
</svg>
