<?xml version="1.0" encoding="UTF-8"?>
<svg
  xmlns="http://www.w3.org/2000/svg"
  width="848"
  height="600"
  style="background-color:white"
>
  <polygon fill="lightblue" points="436.6598060442364,569.1263377791662 247.6716485600054,405.457792383408 411.34019395576365,358.2107530123502 600.3283514399945,521.8792984081084" />
  <polygon fill="steelblue" points="247.6716485600054,405.457792383408 247.6716485600054,78.12070159189156 411.3401939557636,30.873662220833808 411.34019395576365,358.2107530123502" />
  <polygon fill="lightskyblue" points="600.3283514399945,521.8792984081084 600.3283514399945,194.542207616592 411.3401939557636,30.873662220833808 411.34019395576365,358.2107530123502" />
  <polygon fill="white" points="483.78565432471885,420.9503620807242 483.78565432471885,311.83799848355204 464.88683857629576,295.47114394397624 464.88683857629576,404.5835075411484" />
  <polygon fill="white" points="546.7817068194626,475.5065438793103 546.7817068194624,366.3941802821381 527.8828910710394,350.0273257425623 527.8828910710395,459.13968933973445" />
  <polygon fill="white" points="274.9497394592985,353.9383403826962 274.9497394592985,310.2933949438273 302.2278303585915,302.41888838198435 302.2278303585915,346.06383382085323" />
  <polygon fill="white" points="315.866875808238,342.12658053993175 315.866875808238,298.48163510106286 343.144966707531,290.6071285392199 343.144966707531,334.2520739780888" />
  <polygon fill="white" points="356.7840121571776,330.3148206971673 356.7840121571776,286.6698752582984 384.06210305647056,278.79536869645545 384.06210305647056,322.44031413532434" />
  <polygon fill="grey" points="399.8111161801565,90.57654149133353 399.8111161801565,63.298450592040524 427.0892070794495,55.42394403019756 427.0892070794495,82.70203492949057" />
  <polygon fill="lightgrey" points="399.8111161801565,90.57654149133353 399.8111161801565,63.298450592040524 384.06210305647056,49.65940514239401 384.06210305647056,76.93749604168704" />
  <polygon fill="darkgrey" points="399.8111161801565,63.298450592040524 384.06210305647056,49.65940514239401 411.3401939557636,41.7848985805511 427.0892070794495,55.42394403019756" />
  <polygon fill="hsl(288.0,50.0%,72.09185257592405%)" points="380.90345682473753,416.06046363119833 380.90345682473753,378.5912779719294 387.45019864056786,376.7013963970871 387.45019864056786,414.170582056356" />
  <polygon fill="hsl(288.0,50.0%,72.09185257592405%)" points="397.27031136431333,411.33575969409253 397.27031136431333,373.86657403482366 390.723569548483,375.756455609666 390.72356954848306,413.22564126893485" />
  <polygon fill="hsl(288.0,50.0%,72.09185257592405%)" points="374.3567150089072,380.8521415830021 374.3567150089072,343.75393795996354 380.0851140977587,342.10029158197653 380.0851140977587,379.19849520501504" />
  <polygon fill="hsl(288.0,50.0%,72.09185257592405%)" points="398.08865409129214,374.0013208741987 398.08865409129214,336.90311725116015 403.81705318014366,335.24947087317315 403.81705318014366,372.3476744962117" />
  <polygon fill="hsl(288.0,50.0%,72.09185257592405%)" points="380.0851140977587,347.82869067082805 380.0851140977587,342.10029158197653 398.08865409129214,336.90311725116015 398.08865409129214,342.63151634001173" />
  <polygon fill="hsl(288.0,50.0%,72.09185257592405%)" points="380.90345682473753,378.9622600081598 380.90345682473753,341.8640563851212 397.27031136431333,337.1393524480155 397.27031136431333,374.237556071054" />
  <polygon fill="hsl(288.0,50.0%,72.09185257592405%)" points="384.9951704596315,338.8279702196929 384.9951704596315,322.1337785893255 393.1785977294194,319.7714266207727 393.1785977294194,336.46561825114" />
  <polygon fill="hsl(288.0,50.0%,72.09185257592405%)" points="386.63185591358905,340.2104100071342 386.63185591358905,321.661308195615 391.5419122754618,320.24389701448325 391.5419122754618,338.7929988260025" />
  <polygon fill="hsl(288.0,50.0%,59.71537400830306%)" points="430.4064416287313,455.7872560109753 430.4064416287313,418.3180703517064 436.9531834445616,416.4281887768641 436.9531834445616,453.89737443613296" />
  <polygon fill="hsl(288.0,50.0%,59.71537400830306%)" points="446.77329616830707,451.0625520738695 446.77329616830707,413.5933664146006 440.22655435247674,415.48324798944293 440.22655435247674,452.9524336487118" />
  <polygon fill="hsl(288.0,50.0%,59.71537400830306%)" points="423.85969981290094,420.57893396277905 423.85969981290094,383.48073033974055 429.58809890175246,381.8270839617535 429.5880989017525,418.92528758479204" />
  <polygon fill="hsl(288.0,50.0%,59.71537400830306%)" points="447.5916388952859,413.7281132539757 447.5916388952859,376.62990963093716 453.3200379841374,374.97626325295016 453.3200379841374,412.07446687598866" />
  <polygon fill="hsl(288.0,50.0%,59.71537400830306%)" points="429.58809890175246,387.55548305060506 429.58809890175246,381.8270839617535 447.5916388952859,376.62990963093716 447.5916388952859,382.3583087197887" />
  <polygon fill="hsl(288.0,50.0%,59.71537400830306%)" points="430.4064416287313,418.6890523879367 430.4064416287313,381.5908487648982 446.77329616830707,376.8661448277924 446.77329616830707,413.964348450831" />
  <polygon fill="hsl(288.0,50.0%,59.71537400830306%)" points="434.4981552636252,378.5547625994699 434.4981552636252,361.8605709691025 442.6815825334131,359.4982190005496 442.6815825334131,376.192410630917" />
  <polygon fill="hsl(288.0,50.0%,59.71537400830306%)" points="436.1348407175828,379.9372023869112 436.1348407175828,361.38810057539195 441.04489707945555,359.9706893942602 441.04489707945555,378.5197912057795" />
  <polygon fill="hsl(288.0,50.0%,57.41001122500038%)" points="439.684480179887,463.170660272849 439.684480179887,425.70147461358005 446.2312219957173,423.8115930387378 446.2312219957173,461.28077869800666" />
  <polygon fill="hsl(288.0,50.0%,57.41001122500038%)" points="456.0513347194628,458.4459563357432 456.0513347194628,420.9767706764743 449.50459290363244,422.8666522513166 449.50459290363244,460.3358379105855" />
  <polygon fill="hsl(288.0,50.0%,57.41001122500038%)" points="433.13773836405664,427.96233822465274 433.13773836405664,390.8641346016142 438.86613745290816,389.2104882236272 438.86613745290816,426.30869184666574" />
  <polygon fill="hsl(288.0,50.0%,57.41001122500038%)" points="456.8696774464416,421.11151751584936 456.8696774464416,384.01331389281086 462.5980765352931,382.3596675148238 462.5980765352931,419.45787113786236" />
  <polygon fill="hsl(288.0,50.0%,57.41001122500038%)" points="438.86613745290816,394.93888731247876 438.86613745290816,389.2104882236272 456.8696774464416,384.01331389281086 456.8696774464416,389.7417129816624" />
  <polygon fill="hsl(288.0,50.0%,57.41001122500038%)" points="439.684480179887,426.0724566498104 439.684480179887,388.97425302677186 456.0513347194628,384.2495490896661 456.0513347194628,421.3477527127047" />
  <polygon fill="hsl(288.0,50.0%,57.41001122500038%)" points="443.7761938147809,385.9381668613435 443.7761938147809,369.2439752309762 451.9596210845688,366.8816232624233 451.9596210845688,383.5758148927906" />
  <polygon fill="hsl(288.0,50.0%,57.41001122500038%)" points="445.4128792687385,387.32060664878486 445.4128792687385,368.77150483726564 450.32293563061125,367.3540936561339 450.32293563061125,385.9031954676532" />
  <polygon fill="hsl(288.0,50.0%,50.65955712546234%)" points="452.2937359725998,488.9930017459398 452.2937359725998,451.5238160866709 458.8404777884301,449.63393451182856 458.8404777884301,487.1031201710975" />
  <polygon fill="hsl(288.0,50.0%,50.65955712546234%)" points="468.66059051217565,484.26829780883406 468.66059051217565,446.79911214956513 462.1138486963453,448.6889937244074 462.1138486963453,486.1581793836764" />
  <polygon fill="hsl(288.0,50.0%,50.65955712546234%)" points="445.74699415676946,453.78467969774357 445.74699415676946,416.686476074705 451.47539324562104,415.032829696718 451.47539324562104,452.1310333197565" />
  <polygon fill="hsl(288.0,50.0%,50.65955712546234%)" points="469.4789332391544,446.9338589889402 469.4789332391544,409.83565536590163 475.2073323280059,408.1820089879146 475.2073323280059,445.2802126109532" />
  <polygon fill="hsl(288.0,50.0%,50.65955712546234%)" points="451.47539324562104,420.76122878556953 451.47539324562104,415.032829696718 469.4789332391544,409.83565536590163 469.4789332391544,415.5640544547532" />
  <polygon fill="hsl(288.0,50.0%,50.65955712546234%)" points="452.2937359725998,451.8947981229013 452.2937359725998,414.79659449986275 468.66059051217565,410.07189056275695 468.66059051217565,447.1700941857955" />
  <polygon fill="hsl(288.0,50.0%,50.65955712546234%)" points="456.38544960749374,411.76050833443435 456.38544960749374,395.06631670406705 464.56887687728164,392.70396473551415 464.56887687728164,409.3981563658815" />
  <polygon fill="hsl(288.0,50.0%,50.65955712546234%)" points="458.02213506145137,413.1429481218757 458.02213506145137,394.59384631035647 462.93219142332407,393.1764351292247 462.93219142332407,411.72553694074395" />
  <polygon fill="hsl(288.0,50.0%,42.21758785095096%)" points="451.68754175571604,526.012923781355 451.68754175571604,488.54373812208604 458.23428357154637,486.6538565472437 458.23428357154637,524.1230422065127" />
  <polygon fill="hsl(288.0,50.0%,42.21758785095096%)" points="468.0543962952919,521.2882198442492 468.0543962952919,483.8190341849803 461.50765447946156,485.70891575982256 461.50765447946156,523.1781014190915" />
  <polygon fill="hsl(288.0,50.0%,42.21758785095096%)" points="445.1407999398857,490.80460173315873 445.1407999398857,453.7063981101202 450.8691990287373,452.0527517321332 450.8691990287373,489.15095535517173" />
  <polygon fill="hsl(288.0,50.0%,42.21758785095096%)" points="468.87273902227065,483.95378102435535 468.87273902227065,446.8555774013168 474.60113811112217,445.20193102332973 474.60113811112217,482.3001346463683" />
  <polygon fill="hsl(288.0,50.0%,42.21758785095096%)" points="450.8691990287373,457.7811508209847 450.8691990287373,452.0527517321332 468.87273902227065,446.8555774013168 468.87273902227065,452.5839764901683" />
  <polygon fill="hsl(288.0,50.0%,42.21758785095096%)" points="451.68754175571604,488.9147201583164 451.68754175571604,451.81651653527786 468.0543962952919,447.0918125981721 468.0543962952919,484.1900162212106" />
  <polygon fill="hsl(288.0,50.0%,42.21758785095096%)" points="455.77925539061,448.78043036984946 455.77925539061,432.08623873948216 463.96268266039795,429.7238867709293 463.96268266039795,446.4180784012966" />
  <polygon fill="hsl(288.0,50.0%,42.21758785095096%)" points="457.41594084456756,450.16287015729085 457.41594084456756,431.6137683457716 462.3259972064403,430.19635716463983 462.3259972064403,448.7454589761591" />
</svg>
