<?xml version="1.0" encoding="UTF-8"?>
<svg
  xmlns="http://www.w3.org/2000/svg"
  width="848"
  height="600"
  style="background-color:white"
>
  <polygon fill="lightblue" points="439.95035612271977,535.9732152741941 201.84019832748984,329.76376972440374 408.04964387728023,270.23623027559626 646.1598016725102,476.4456758253866" />
  <polygon fill="steelblue" points="201.84019832748984,329.76376972440374 201.84019832748984,123.55432417461336 408.04964387728023,64.02678472580587 408.04964387728023,270.23623027559626" />
  <polygon fill="lightskyblue" points="646.1598016725102,476.4456758253866 646.1598016725102,270.23623027559626 408.04964387728023,64.02678472580587 408.04964387728023,270.23623027559626" />
  <polygon fill="white" points="499.32520436545167,349.28318440301587 499.32520436545167,211.81022070315564 475.5141885859287,191.18927614817662 475.5141885859287,328.66223984803685" />
  <polygon fill="white" points="578.6952569638617,418.019666252946 578.6952569638617,280.54670255308577 554.8842411843386,259.92575799810675 554.8842411843386,397.398721697967" />
  <polygon fill="white" points="253.39255971493745,259.8926993822578 253.39255971493745,204.90351390231365 287.7608006399025,194.9822573275124 287.7608006399025,249.97144280745653" />
  <polygon fill="white" points="322.1290415648676,240.05018623265528 322.1290415648676,185.06100075271115 356.4972824898326,175.1397441779099 356.4972824898326,230.12892965785403" />
  <polygon fill="hsl(324.0,50.0%,50.65955712546234%)" points="459.6478735320463,435.0115384076329 459.6478735320463,387.80332267310087 467.8962513540379,385.42222109514853 467.8962513540379,432.63043682968055" />
  <polygon fill="hsl(324.0,50.0%,50.65955712546234%)" points="480.2688180870253,429.0587844627521 480.2688180870253,381.8505687282201 472.0204402650337,384.23167030617236 472.0204402650337,431.43988604070444" />
  <polygon fill="hsl(324.0,50.0%,50.65955712546234%)" points="451.3994957100547,390.65183232763263 451.3994957100547,343.91102466968016 458.6168263042973,341.82756078897194 458.6168263042973,388.5683684469244" />
  <polygon fill="hsl(324.0,50.0%,50.65955712546234%)" points="481.29986531477425,382.02033910755557 481.29986531477425,335.2795314496031 488.5171959090169,333.1960675688948 488.5171959090169,379.9368752268473" />
  <polygon fill="hsl(324.0,50.0%,50.65955712546234%)" points="458.6168263042973,349.0448913832146 458.6168263042973,341.82756078897194 481.29986531477425,335.2795314496031 481.29986531477425,342.49686204384574" />
  <polygon fill="hsl(324.0,50.0%,50.65955712546234%)" points="459.6478735320463,388.27073074968035 459.6478735320463,341.5299230917279 480.2688180870253,335.57716914684715 480.2688180870253,382.3179768047996" />
  <polygon fill="hsl(324.0,50.0%,50.65955712546234%)" points="464.80310967079106,337.70469422261004 464.80310967079106,316.6713307765315 475.11358194828057,313.6949538040911 475.11358194828057,334.7283172501697" />
  <polygon fill="hsl(324.0,50.0%,50.65955712546234%)" points="466.865204126289,339.4464592110196 466.865204126289,316.07605538204336 473.05148749278266,314.29022919857914 473.05148749278266,337.6606330275554" />
</svg>
