<?xml version="1.0" encoding="UTF-8"?>
<svg
  xmlns="http://www.w3.org/2000/svg"
  width="848"
  height="600"
  style="background-color:white"
>
  <polygon fill="lightblue" points="438.21015182361293,510.22823500323386 226.07811746764872,326.5165042944955 409.78984817638707,273.4834957055045 621.9218825323512,457.1952264142428" />
  <polygon fill="steelblue" points="226.07811746764872,326.5165042944955 226.07811746764872,142.8047735857572 409.78984817638707,89.77176499676614 409.78984817638707,273.4834957055045" />
  <polygon fill="lightskyblue" points="621.9218825323512,457.1952264142428 621.9218825323512,273.4834957055045 409.78984817638707,89.77176499676614 409.78984817638707,273.4834957055045" />
  <polygon fill="white" points="526.4624670721673,374.52494759531055 526.4624670721673,252.05046045615165 505.24926363657096,233.67928738527783 505.24926363657096,356.1537745244367" />
  <polygon fill="white" points="237.01333953364508,274.36998273710634 237.01333953364508,225.38018788144274 267.6319613184348,216.54135311661094 267.6319613184348,265.5311479722745" />
  <polygon fill="white" points="263.25787249203626,266.7938386529647 263.25787249203626,217.80404379730118 293.87649427682595,208.96520903246932 293.87649427682595,257.95500388813286" />
  <polygon fill="white" points="289.50240545042743,259.21769456882316 289.50240545042743,210.22789971315962 320.1210272352172,201.38906494832776 320.1210272352172,250.3788598039913" />
  <polygon fill="white" points="315.7469384088186,251.64155048468157 315.7469384088186,202.65175562901803 346.36556019360836,193.81292086418617 346.36556019360836,242.80271571984972" />
  <polygon fill="white" points="341.9914713672098,244.06540640053998 341.9914713672098,195.07561154487644 372.61009315199954,186.23677678004458 372.61009315199954,235.22657163570813" />
  <polygon fill="white" points="368.236004325601,236.48926231639842 368.236004325601,187.49946746073485 398.8546261103907,178.66063269590302 398.8546261103907,227.65042755156657" />
</svg>
