<?xml version="1.0" encoding="UTF-8"?>
<svg
  xmlns="http://www.w3.org/2000/svg"
  width="848"
  height="600"
  style="background-color:white"
>
  <polygon fill="lightblue" points="439.95035612271977,535.9732152741941 201.84019832748984,329.76376972440374 408.04964387728023,270.23623027559626 646.1598016725102,476.4456758253866" />
  <polygon fill="steelblue" points="201.84019832748984,329.76376972440374 201.84019832748984,123.55432417461336 408.04964387728023,64.02678472580587 408.04964387728023,270.23623027559626" />
  <polygon fill="lightskyblue" points="646.1598016725102,476.4456758253866 646.1598016725102,270.23623027559626 408.04964387728023,64.02678472580587 408.04964387728023,270.23623027559626" />
  <polygon fill="white" points="539.0102306646567,383.651425327981 539.0102306646567,246.17846162812071 515.1992148851338,225.55751707314167 515.1992148851338,363.0304807730019" />
  <polygon fill="white" points="225.8979669749654,267.82970464209876 225.8979669749654,212.84051916215466 260.26620789993046,202.91926258735342 260.26620789993046,257.9084480672975" />
  <polygon fill="white" points="267.1398560849235,255.92419675233725 267.1398560849235,200.93501127239318 301.50809700988856,191.01375469759193 301.50809700988856,246.002940177536" />
  <polygon fill="white" points="308.38174519488155,244.01868886257577 308.38174519488155,189.02950338263167 342.7499861198466,179.10824680783043 342.7499861198466,234.0974322877745" />
  <polygon fill="white" points="349.62363430483964,232.11318097281426 349.62363430483964,177.12399549287016 383.9918752298047,167.20273891806892 383.9918752298047,222.19192439801301" />
  <polygon fill="hsl(324.0,50.0%,50.65955712546234%)" points="459.6478735320463,435.0115384076329 459.6478735320463,387.80332267310087 467.8962513540379,385.42222109514853 467.8962513540379,432.63043682968055" />
  <polygon fill="hsl(324.0,50.0%,50.65955712546234%)" points="480.2688180870253,429.0587844627521 480.2688180870253,381.8505687282201 472.0204402650337,384.23167030617236 472.0204402650337,431.43988604070444" />
  <polygon fill="hsl(324.0,50.0%,50.65955712546234%)" points="451.3994957100547,390.65183232763263 451.3994957100547,343.91102466968016 458.6168263042973,341.82756078897194 458.6168263042973,388.5683684469244" />
  <polygon fill="hsl(324.0,50.0%,50.65955712546234%)" points="481.29986531477425,382.02033910755557 481.29986531477425,335.2795314496031 488.5171959090169,333.1960675688948 488.5171959090169,379.9368752268473" />
  <polygon fill="hsl(324.0,50.0%,50.65955712546234%)" points="458.6168263042973,349.0448913832146 458.6168263042973,341.82756078897194 481.29986531477425,335.2795314496031 481.29986531477425,342.49686204384574" />
  <polygon fill="hsl(324.0,50.0%,50.65955712546234%)" points="459.6478735320463,388.27073074968035 459.6478735320463,341.5299230917279 480.2688180870253,335.57716914684715 480.2688180870253,382.3179768047996" />
  <polygon fill="hsl(324.0,50.0%,50.65955712546234%)" points="464.80310967079106,337.70469422261004 464.80310967079106,316.6713307765315 475.11358194828057,313.6949538040911 475.11358194828057,334.7283172501697" />
  <polygon fill="hsl(324.0,50.0%,50.65955712546234%)" points="466.865204126289,339.4464592110196 466.865204126289,316.07605538204336 473.05148749278266,314.29022919857914 473.05148749278266,337.6606330275554" />
</svg>
