<?xml version="1.0" encoding="UTF-8"?>
<svg
  xmlns="http://www.w3.org/2000/svg"
  width="848"
  height="600"
  style="background-color:white"
>
  <polygon fill="lightblue" points="444.0961894323342,597.3076211353316 144.0961894323342,337.5 403.9038105676658,262.5 703.9038105676658,522.3076211353316" />
  <polygon fill="steelblue" points="144.0961894323342,337.5 144.0961894323342,77.6923788646684 403.9038105676658,2.692378864668399 403.9038105676658,262.5" />
  <polygon fill="lightskyblue" points="703.9038105676658,522.3076211353316 703.9038105676658,262.5 403.9038105676658,2.692378864668399 403.9038105676658,262.5" />
  <polygon fill="white" points="568.9038105676658,405.3941916244323 568.9038105676658,232.18911086754463 538.9038105676658,206.20834875401147 538.9038105676658,379.4134295108992" />
  <polygon fill="white" points="165.7468245269452,261.9679676972449 165.7468245269452,192.68593539448983 209.0480947161671,180.18593539448983 209.0480947161671,249.46796769724492" />
  <polygon fill="white" points="209.0480947161671,249.46796769724492 209.0480947161671,180.18593539448983 252.34936490538905,167.6859353944898 252.34936490538905,236.9679676972449" />
  <polygon fill="white" points="252.34936490538905,236.9679676972449 252.34936490538905,167.6859353944898 295.65063509461095,155.1859353944898 295.65063509461095,224.4679676972449" />
  <polygon fill="white" points="295.65063509461095,224.4679676972449 295.65063509461095,155.1859353944898 338.9519052838329,142.6859353944898 338.9519052838329,211.9679676972449" />
  <polygon fill="white" points="338.9519052838329,211.9679676972449 338.9519052838329,142.6859353944898 382.2531754730548,130.1859353944898 382.2531754730548,199.4679676972449" />
</svg>
