<?xml version="1.0" encoding="UTF-8"?>
<svg
  xmlns="http://www.w3.org/2000/svg"
  width="848"
  height="600"
  style="background-color:white"
>
  <polygon fill="lightblue" points="436.3063524708826,508.579496400061 252.59462176214424,349.4804706330878 411.6936475291174,303.55253795590323 595.4053782378558,462.6515637228764" />
  <polygon fill="steelblue" points="252.59462176214424,349.4804706330878 252.59462176214424,137.34843627712362 411.6936475291174,91.420503599939 411.6936475291174,303.55253795590323" />
  <polygon fill="lightskyblue" points="595.4053782378558,462.6515637228764 595.4053782378558,250.5195293669122 411.6936475291174,91.420503599939 411.6936475291174,303.55253795590323" />
  <polygon fill="white" points="512.7350994189235,391.0570021277385 512.7350994189235,284.99098494975635 494.3639263480497,269.081082373059 494.3639263480497,375.14709955104115" />
  <polygon fill="white" points="262.0648018673212,304.3202582453959 262.0648018673212,261.89385137420305 288.58130616181677,254.2391959280056 288.58130616181677,296.66560279919844" />
  <polygon fill="white" points="284.793234119746,297.75912500579807 284.793234119746,255.33271813460524 311.3097384142415,247.6780626884078 311.3097384142415,290.10446955960066" />
  <polygon fill="white" points="307.52166637217067,291.1979917662003 307.52166637217067,248.77158489500744 334.03817066666625,241.11692944881003 334.03817066666625,283.5433363200029" />
  <polygon fill="white" points="330.25009862459547,284.6368585266025 330.2500986245954,242.21045165540966 356.76660291909093,234.5557962092122 356.76660291909093,276.98220308040504" />
  <polygon fill="white" points="352.97853087702015,278.0757252870047 352.97853087702015,235.64931841581182 379.4950351715157,227.9946629696144 379.4950351715157,270.42106984080726" />
  <polygon fill="white" points="375.7069631294449,271.5145920474069 375.7069631294449,229.08818517621404 402.2234674239404,221.4335297300166 402.2234674239404,263.8599366012095" />
</svg>
