<?xml version="1.0" encoding="UTF-8"?>
<svg
  xmlns="http://www.w3.org/2000/svg"
  width="848"
  height="600"
  style="background-color:white"
>
  <polygon fill="lightblue" points="435.0071362719864,510.2762555165465 270.69036902043655,367.9737608089694 412.9928637280136,326.89456899608194 577.3096309795635,469.197063703659" />
  <polygon fill="steelblue" points="270.69036902043655,367.9737608089694 270.69036902043655,130.802936296341 412.9928637280136,89.72374448345354 412.9928637280136,326.89456899608194" />
  <polygon fill="lightskyblue" points="577.3096309795635,469.197063703659 577.3096309795635,232.02623919103058 412.9928637280136,89.72374448345354 412.9928637280136,326.89456899608194" />
  <polygon fill="white" points="503.36708571636603,405.1609410852493 503.36708571636603,310.29261128019795 486.93540899121103,296.06236180944023 486.93540899121103,390.9306916144916" />
  <polygon fill="white" points="287.29232673632055,325.2338565087787 287.29232673632055,287.2865245867581 311.0094091875834,280.4399926179435 311.0094091875834,318.3873245399641" />
  <polygon fill="white" points="315.752825677836,317.0180181462012 315.752825677836,279.07068622418063 339.4699081290988,272.22415425536605 339.4699081290988,310.1714861773866" />
  <polygon fill="white" points="344.2133246193514,308.80217978362367 344.2133246193514,270.8548478616031 367.9304070706142,264.0083158927886 367.9304070706142,301.9556478148091" />
  <polygon fill="white" points="372.67382356086677,300.5863414210462 372.67382356086677,262.63900949902563 396.3909060121296,255.79247753021104 396.3909060121296,293.7398094522316" />
</svg>
