<?xml version="1.0" encoding="UTF-8"?>
<svg
  xmlns="http://www.w3.org/2000/svg"
  width="848"
  height="600"
  style="background-color:white"
>
  <polygon fill="lightblue" points="438.49186028680015,545.62151357786 222.1544247406889,358.26779860534907 409.50813971319985,304.1834397188212 625.8455752593111,491.53715469133215" />
  <polygon fill="steelblue" points="222.1544247406889,358.26779860534907 222.1544247406889,108.46284530866782 409.50813971319985,54.378486422139986 409.50813971319985,304.1834397188212" />
  <polygon fill="lightskyblue" points="625.8455752593111,491.53715469133215 625.8455752593111,241.73220139465093 409.50813971319985,54.378486422139986 409.50813971319985,304.1834397188212" />
  <polygon fill="white" points="300.2184726459018,285.77165840995957 300.2184726459018,235.81066775062328 331.444091807987,226.796607936202 331.444091807987,276.75759859553824" />
  <polygon fill="hsl(324.0,50.0%,72.09185257592405%)" points="374.66677322246244,370.4048273918054 374.66677322246244,327.5133169107652 382.1609218213629,325.34994255530404 382.1609218213629,368.24145303634424" />
  <polygon fill="hsl(324.0,50.0%,72.09185257592405%)" points="393.40214471971353,364.99639150315255 393.40214471971353,322.1048810221124 385.9079961208131,324.2682553775735 385.9079961208131,367.1597658586137" />
  <polygon fill="hsl(324.0,50.0%,72.09185257592405%)" points="367.17262462356206,330.1013596868306 367.172624623562,287.6345176263948 373.7300046475999,285.74156506536633 373.7300046475999,328.2084071258022" />
  <polygon fill="hsl(324.0,50.0%,72.09185257592405%)" points="394.3389132945761,322.2591276482841 394.3389132945761,279.7922855878483 400.89629331861397,277.8993330268198 400.89629331861397,320.3661750872556" />
  <polygon fill="hsl(324.0,50.0%,72.09185257592405%)" points="373.7300046475999,292.29894508940424 373.7300046475999,285.74156506536633 394.3389132945761,279.7922855878483 394.3389132945761,286.34966561188617" />
  <polygon fill="hsl(324.0,50.0%,72.09185257592405%)" points="374.66677322246244,327.93798533136953 374.66677322246244,285.47114327093374 393.40214471971353,280.06270738228096 393.40214471971353,322.52954944271676" />
  <polygon fill="hsl(324.0,50.0%,72.09185257592405%)" points="379.35061609677524,281.99569219574875 379.35061609677524,262.8856132685526 388.7183018454008,260.18139532422623 388.7183018454008,279.29147425142236" />
  <polygon fill="hsl(324.0,50.0%,72.09185257592405%)" points="381.22415324650035,283.57819070990524 381.22415324650035,262.3447696796874 386.8447646956757,260.72223891309153 386.8447646956757,281.9556599433094" />
  <polygon fill="hsl(324.0,50.0%,59.71537400830306%)" points="431.33354497649526,415.88065243989524 431.33354497649526,372.98914195885504 438.8276935753957,370.82576760339396 438.8276935753957,413.71727808443416" />
  <polygon fill="hsl(324.0,50.0%,59.71537400830306%)" points="450.06891647374636,410.47221655124247 450.06891647374636,367.58070607020227 442.5747678748459,369.74408042566336 442.5747678748459,412.63559090670356" />
  <polygon fill="hsl(324.0,50.0%,59.71537400830306%)" points="423.8393963775948,375.57718473492054 423.8393963775948,333.1103426744847 430.3967764016327,331.21739011345625 430.3967764016327,373.68423217389204" />
  <polygon fill="hsl(324.0,50.0%,59.71537400830306%)" points="451.0056850486089,367.73495269637397 451.0056850486089,325.26811063593817 457.5630650726468,323.3751580749097 457.5630650726468,365.84200013534553" />
  <polygon fill="hsl(324.0,50.0%,59.71537400830306%)" points="430.3967764016327,337.7747701374941 430.3967764016327,331.21739011345625 451.0056850486089,325.26811063593817 451.0056850486089,331.8254906599761" />
  <polygon fill="hsl(324.0,50.0%,59.71537400830306%)" points="431.33354497649526,373.4138103794594 431.33354497649526,330.9469683190236 450.06891647374636,325.5385324303708 450.06891647374636,368.0053744908066" />
  <polygon fill="hsl(324.0,50.0%,59.71537400830306%)" points="436.017387850808,327.4715172438386 436.017387850808,308.36143831664253 445.38507359943355,305.6572203723161 445.38507359943355,324.7672992995122" />
  <polygon fill="hsl(324.0,50.0%,59.71537400830306%)" points="437.8909250005331,329.0540157579951 437.8909250005331,307.82059472777723 443.51153644970844,306.1980639611814 443.51153644970844,327.4314849913993" />
  <polygon fill="hsl(324.0,50.0%,57.41001122500038%)" points="441.95424784896204,424.332540456991 441.95424784896204,381.4410299759508 449.4483964478625,379.2776556204897 449.4483964478625,422.16916610152987" />
  <polygon fill="hsl(324.0,50.0%,57.41001122500038%)" points="460.68961934621314,418.92410456833824 460.68961934621314,376.03259408729804 453.1954707473127,378.1959684427592 453.1954707473127,421.0874789237993" />
  <polygon fill="hsl(324.0,50.0%,57.41001122500038%)" points="434.4600992500616,384.0290727520163 434.4600992500616,341.56223069158045 441.0174792740995,339.669278130552 441.0174792740995,382.1361201909878" />
  <polygon fill="hsl(324.0,50.0%,57.41001122500038%)" points="461.62638792107566,376.1868407134698 461.62638792107566,333.71999865303394 468.1837679451136,331.82704609200545 468.1837679451136,374.2938881524413" />
  <polygon fill="hsl(324.0,50.0%,57.41001122500038%)" points="441.0174792740995,346.22665815458987 441.0174792740995,339.669278130552 461.62638792107566,333.71999865303394 461.62638792107566,340.27737867707185" />
  <polygon fill="hsl(324.0,50.0%,57.41001122500038%)" points="441.95424784896204,381.86569839655516 441.95424784896204,339.39885633611937 460.68961934621314,333.9904204474666 460.68961934621314,376.4572625079024" />
  <polygon fill="hsl(324.0,50.0%,57.41001122500038%)" points="446.6380907232748,335.9234052609344 446.6380907232748,316.8133263337383 456.00577647190033,314.10910838941186 456.00577647190033,333.219187316608" />
  <polygon fill="hsl(324.0,50.0%,57.41001122500038%)" points="448.5116278729999,337.50590377509087 448.5116278729999,316.272482744873 454.1322393221752,314.64995197827716 454.1322393221752,335.8833730084951" />
  <polygon fill="hsl(324.0,50.0%,50.65955712546234%)" points="456.3882425428786,453.8917425173137 456.3882425428785,411.0002320362735 463.88239114177895,408.8368576808124 463.88239114177895,451.72836816185253" />
  <polygon fill="hsl(324.0,50.0%,50.65955712546234%)" points="475.1236140401296,448.4833066286609 475.1236140401296,405.5917961476207 467.6294654412292,407.7551705030818 467.6294654412292,450.646680984122" />
  <polygon fill="hsl(324.0,50.0%,50.65955712546234%)" points="448.89409394397813,413.5882748123389 448.89409394397813,371.12143275190317 455.451473968016,369.2284801908747 455.451473968016,411.6953222513105" />
  <polygon fill="hsl(324.0,50.0%,50.65955712546234%)" points="476.0603826149922,405.7460427737924 476.0603826149922,363.2792007133566 482.61776263903005,361.3862481523281 482.61776263903005,403.85309021276396" />
  <polygon fill="hsl(324.0,50.0%,50.65955712546234%)" points="455.451473968016,375.78586021491253 455.451473968016,369.2284801908747 476.0603826149922,363.2792007133566 476.0603826149922,369.83658073739446" />
  <polygon fill="hsl(324.0,50.0%,50.65955712546234%)" points="456.3882425428785,411.4249004568778 456.3882425428785,368.958058396442 475.1236140401296,363.54962250778925 475.1236140401296,406.01646456822505" />
  <polygon fill="hsl(324.0,50.0%,50.65955712546234%)" points="461.0720854171913,365.48260732125703 461.0720854171913,346.3725283940609 470.43977116581686,343.6683104497345 470.43977116581686,362.77838937693065" />
  <polygon fill="hsl(324.0,50.0%,50.65955712546234%)" points="462.9456225669164,367.06510583541353 462.9456225669164,345.83168480519566 468.56623401609176,344.2091540385998 468.56623401609176,365.44257506881775" />
  <polygon fill="hsl(324.0,50.0%,42.21758785095096%)" points="455.69432338905824,496.2689745294673 455.69432338905824,453.3774640484271 463.1884719879587,451.214089692966 463.1884719879587,494.1056001740062" />
  <polygon fill="hsl(324.0,50.0%,42.21758785095096%)" points="474.42969488630933,490.8605386408145 474.42969488630933,447.9690281597743 466.9355462874089,450.13240251523547 466.9355462874089,493.0239129962756" />
  <polygon fill="hsl(324.0,50.0%,42.21758785095096%)" points="448.2001747901578,455.9655068244926 448.2001747901578,413.4986647640568 454.75755481419566,411.6057122030283 454.7575548141957,454.0725542634641" />
  <polygon fill="hsl(324.0,50.0%,42.21758785095096%)" points="475.36646346117186,448.123274785946 475.36646346117186,405.65643272551023 481.9238434852098,403.76348016448173 481.9238434852098,446.2303222249176" />
  <polygon fill="hsl(324.0,50.0%,42.21758785095096%)" points="454.75755481419566,418.16309222706616 454.75755481419566,411.6057122030283 475.36646346117186,405.65643272551023 475.36646346117186,412.21381274954814" />
  <polygon fill="hsl(324.0,50.0%,42.21758785095096%)" points="455.69432338905824,453.80213246903145 455.69432338905824,411.33529040859565 474.42969488630933,405.9268545199429 474.42969488630933,448.3936965803787" />
  <polygon fill="hsl(324.0,50.0%,42.21758785095096%)" points="460.37816626337104,407.85983933341066 460.37816626337104,388.7497604062146 469.74585201199653,386.0455424618882 469.7458520119966,405.1556213890843" />
  <polygon fill="hsl(324.0,50.0%,42.21758785095096%)" points="462.25170341309615,409.44233784756716 462.25170341309615,388.2089168173493 467.8723148622714,386.58638605075345 467.8723148622714,407.8198070809714" />
</svg>
