<?xml version="1.0" encoding="UTF-8"?>
<svg
  xmlns="http://www.w3.org/2000/svg"
  width="848"
  height="600"
  style="background-color:white"
>
  <polygon fill="lightblue" points="439.95035612271977,535.9732152741941 201.84019832748984,329.76376972440374 408.04964387728023,270.23623027559626 646.1598016725102,476.4456758253866" />
  <polygon fill="steelblue" points="201.84019832748984,329.76376972440374 201.84019832748984,123.55432417461336 408.04964387728023,64.02678472580587 408.04964387728023,270.23623027559626" />
  <polygon fill="lightskyblue" points="646.1598016725102,476.4456758253866 646.1598016725102,270.23623027559626 408.04964387728023,64.02678472580587 408.04964387728023,270.23623027559626" />
  <polygon fill="white" points="539.0102306646567,383.651425327981 539.0102306646567,246.17846162812071 515.1992148851338,225.55751707314167 515.1992148851338,363.0304807730019" />
  <polygon fill="white" points="236.20843925245495,264.85332766965837 236.20843925245495,209.8641421897143 270.57668017742003,199.94288561491305 270.57668017742003,254.93207109485715" />
  <polygon fill="white" points="287.7608006399025,249.97144280745653 287.7608006399025,194.9822573275124 322.1290415648676,185.06100075271115 322.1290415648676,240.05018623265528" />
  <polygon fill="white" points="339.31316202735013,235.08955794525463 339.31316202735013,180.10037246531053 373.6814029523152,170.17911589050928 373.6814029523152,225.16830137045338" />
  <polygon fill="antiquewhite" points="499.2363458671933,437.11616613719946 499.2363458671933,320.2641469923182 526.7309386071654,312.32714173247723 526.7309386071654,429.1791608773584" />
  <polygon fill="beige" points="499.2363458671933,437.11616613719946 499.2363458671933,320.2641469923182 483.3623353475113,306.5168506223322 483.3623353475113,423.3688697672134" />
  <polygon fill="bisque" points="499.2363458671933,320.2641469923182 483.3623353475113,306.5168506223322 510.85692808748337,298.5798453624912 526.7309386071654,312.32714173247723" />
  <polygon fill="antiquewhite" points="452.0992844204837,514.5533031543954 452.0992844204837,397.70128400951415 479.5938771604557,389.76427874967317 479.59387716045575,506.6162978945544" />
  <polygon fill="beige" points="452.0992844204837,514.5533031543954 452.0992844204837,397.70128400951415 436.2252739008017,383.9539876395281 436.2252739008017,500.8060067844093" />
  <polygon fill="bisque" points="452.0992844204837,397.70128400951415 436.2252739008017,383.9539876395281 463.7198666407737,376.01698237968714 479.5938771604557,389.76427874967317" />
  <polygon fill="antiquewhite" points="389.19412038806365,306.83275579286976 389.19412038806365,189.98073664798852 416.6887131280357,182.04373138814753 416.6887131280357,298.8957505330287" />
  <polygon fill="beige" points="389.19412038806365,306.83275579286976 389.19412038806365,189.98073664798852 373.3201098683817,176.2334402780025 373.3201098683817,293.08545942288373" />
  <polygon fill="bisque" points="389.19412038806365,189.98073664798852 373.3201098683817,176.2334402780025 400.81470260835374,168.29643501816147 416.6887131280357,182.04373138814753" />
  <polygon fill="antiquewhite" points="393.6853191212223,351.72371856755154 393.6853191212223,234.8716994226703 421.17991186119434,226.93469416282932 421.17991186119434,343.78671330771056" />
  <polygon fill="beige" points="393.6853191212223,351.72371856755154 393.6853191212223,234.8716994226703 377.8113086015403,221.12440305268427 377.8113086015403,337.9764221975655" />
  <polygon fill="bisque" points="393.6853191212223,234.8716994226703 377.8113086015403,221.12440305268427 405.30590134151237,213.18739779284326 421.17991186119434,226.93469416282932" />
</svg>
