<?xml version="1.0" encoding="UTF-8"?>
<svg
  xmlns="http://www.w3.org/2000/svg"
  width="848"
  height="600"
  style="background-color:white"
>
  <polygon fill="lightblue" points="348.74452030702633,553.9995881937241 233.7981054479934,454.4530728518565 499.25547969297367,377.8221296125012 614.2018945520067,477.36864495436885" />
  <polygon fill="steelblue" points="233.7981054479934,454.4530728518565 233.79810544799335,122.63135504563118 499.25547969297367,46.00041180627588 499.25547969297367,377.8221296125012" />
  <polygon fill="lightskyblue" points="614.2018945520067,477.36864495436885 614.2018945520066,145.54692714814348 499.25547969297367,46.00041180627588 499.25547969297367,377.8221296125012" />
  <polygon fill="white" points="549.0655927985547,420.9589529273105 549.0655927985546,288.23026580482036 526.076309826748,268.32096273644686 526.076309826748,401.04964985893696" />
  <polygon fill="white" points="587.3810644182323,454.14112470793305 587.3810644182322,321.4124375854429 564.3917814464257,301.5031345170694 564.3917814464257,434.2318216395595" />
  <polygon fill="hsl(360.0,50.0%,54.496445229397835%)" points="441.04482404532405,471.17574444110903 441.04482404532405,425.5967132832459 449.0085452726735,423.29778498606527 449.0085452726735,468.8768161439284" />
  <polygon fill="hsl(360.0,50.0%,54.496445229397835%)" points="460.95412711369755,465.4284236981574 460.95412711369755,419.8493925402943 452.9904058863481,422.1483208374749 452.9904058863481,467.72735199533804" />
  <polygon fill="hsl(360.0,50.0%,54.496445229397835%)" points="433.0811028179746,428.346919116643 433.0811028179746,383.2191654949964 440.04935889190534,381.2076032349633 440.04935889190534,426.33535685660996" />
  <polygon fill="hsl(360.0,50.0%,54.496445229397835%)" points="461.94959226711626,420.01330403936316 461.94959226711626,374.8855504177165 468.917848341047,372.8739881576834 468.917848341047,418.0017417793301" />
  <polygon fill="hsl(360.0,50.0%,54.496445229397835%)" points="440.04935889190534,388.175859308894 440.04935889190534,381.2076032349633 461.94959226711626,374.8855504177165 461.94959226711626,381.8538064916472" />
  <polygon fill="hsl(360.0,50.0%,54.496445229397835%)" points="441.04482404532405,426.04799081946237 441.04482404532405,380.9202371978157 460.95412711369755,375.1729164548641 460.95412711369755,420.30067007651076" />
  <polygon fill="hsl(360.0,50.0%,54.496445229397835%)" points="446.0221498124174,377.2270193309955 446.0221498124174,356.91953020125453 455.9768013466042,354.04586982977867 455.9768013466042,374.35335895951965" />
  <polygon fill="hsl(360.0,50.0%,54.496445229397835%)" points="448.01308011925477,378.9086749377826 448.01308011925477,356.34479812695935 453.98587103976683,354.62060190407385 453.98587103976683,377.1844787148972" />
  <polygon fill="hsl(360.0,50.0%,50.27546059214215%)" points="371.6438386032063,502.414998239968 371.6438386032063,456.8359670821049 379.6075598305557,454.5370387849242 379.6075598305557,500.1160699427873" />
  <polygon fill="hsl(360.0,50.0%,50.27546059214215%)" points="391.55314167157985,496.66767749701637 391.55314167157985,451.08864633915323 383.5894204442304,453.38757463633385 383.5894204442304,498.966605794197" />
  <polygon fill="hsl(360.0,50.0%,50.27546059214215%)" points="363.68011737585687,459.586172915502 363.68011737585687,414.45841929385534 370.64837344978764,412.44685703382225 370.64837344978764,457.5746106554689" />
  <polygon fill="hsl(360.0,50.0%,50.27546059214215%)" points="392.5486068249985,451.25255783822206 392.5486068249985,406.12480421657546 399.5168628989292,404.11324195654237 399.5168628989292,449.24099557818903" />
  <polygon fill="hsl(360.0,50.0%,50.27546059214215%)" points="370.64837344978764,419.415113107753 370.64837344978764,412.44685703382225 392.5486068249985,406.12480421657546 392.5486068249985,413.0930602905062" />
  <polygon fill="hsl(360.0,50.0%,50.27546059214215%)" points="371.6438386032063,457.2872446183213 371.6438386032063,412.15949099667466 391.55314167157985,406.41217025372305 391.55314167157985,451.5399238753697" />
  <polygon fill="hsl(360.0,50.0%,50.27546059214215%)" points="376.6211643702997,408.4662731298544 376.6211643702997,388.1587840001134 386.57581590448643,385.2851236286376 386.57581590448643,405.5926127583786" />
  <polygon fill="hsl(360.0,50.0%,50.27546059214215%)" points="378.61209467713707,410.1479287366416 378.61209467713707,387.5840519258183 384.5848855976491,385.8598557029328 384.5848855976491,408.42373251375614" />
</svg>
