<?xml version="1.0" encoding="UTF-8"?>
<svg
  xmlns="http://www.w3.org/2000/svg"
  width="848"
  height="600"
  style="background-color:white"
>
  <polygon fill="lightblue" points="338.9519052838329,512.0512701892219 209.04809471616713,399.55127018922195 509.0480947161671,312.94872981077805 638.9519052838328,425.44872981077805" />
  <polygon fill="steelblue" points="209.04809471616713,399.55127018922195 209.04809471616713,174.55127018922195 509.0480947161671,87.94872981077808 509.0480947161671,312.94872981077805" />
  <polygon fill="lightskyblue" points="638.9519052838328,425.44872981077805 638.9519052838328,200.44872981077805 509.0480947161671,87.94872981077808 509.0480947161671,312.94872981077805" />
  <polygon fill="white" points="586.9903810567665,380.44872981077805 586.9903810567665,230.44872981077805 561.0096189432334,207.94872981077805 561.0096189432334,357.94872981077805" />
  <polygon fill="white" points="240.2980947161671,330.53017223313407 240.2980947161671,270.53017223313407 277.7980947161671,259.70485468582854 277.7980947161671,319.70485468582854" />
  <polygon fill="white" points="290.2980947161671,316.0964155033934 290.2980947161671,256.0964155033934 327.7980947161671,245.27109795608789 327.7980947161671,305.2710979560879" />
  <polygon fill="white" points="340.2980947161671,301.6626587736527 340.2980947161671,241.66265877365274 377.7980947161671,230.83734122634723 377.7980947161671,290.83734122634723" />
  <polygon fill="white" points="390.2980947161671,287.2289020439121 390.2980947161671,227.22890204391211 427.7980947161671,216.40358449660658 427.7980947161671,276.4035844966066" />
  <polygon fill="white" points="440.29809471616704,272.79514531417146 440.29809471616704,212.79514531417146 477.79809471616704,201.96982776686596 477.79809471616704,261.96982776686593" />
</svg>
