<?xml version="1.0" encoding="UTF-8"?>
<svg
  xmlns="http://www.w3.org/2000/svg"
  width="848"
  height="600"
  style="background-color:white"
>
  <polygon fill="lightblue" points="363.8619154992025,529.4924039935062 272.00605014483335,449.9428911100196 484.13808450079756,388.70564754044017 575.9939498551668,468.2551604239268" />
  <polygon fill="steelblue" points="272.00605014483335,449.9428911100196 272.00605014483324,131.74483957607325 484.1380845007975,70.5075960064938 484.13808450079756,388.70564754044017" />
  <polygon fill="lightskyblue" points="575.9939498551668,468.2551604239268 575.9939498551666,150.05710888998038 484.1380845007975,70.5075960064938 484.13808450079756,388.70564754044017" />
  <polygon fill="white" points="539.2516037134191,436.4353552705321 539.2516037134191,330.36933809255 520.8804306425452,314.45943551585265 520.8804306425452,420.52545269383484" />
  <polygon fill="white" points="301.1742048687784,399.0963632480096 301.17420486877836,356.66995637681674 327.69070916327394,349.0153009306193 327.69070916327394,391.4417078018122" />
  <polygon fill="white" points="343.6006117399712,386.8489145340937 343.6006117399712,344.42250766290084 370.1171160344668,336.76785221670343 370.1171160344668,379.1942590878963" />
  <polygon fill="white" points="386.02701861116407,374.6014658201778 386.02701861116407,332.17505894898494 412.54352290565964,324.52040350278753 412.54352290565964,366.9468103739804" />
  <polygon fill="white" points="428.4534254823569,362.35401710626195 428.4534254823569,319.92761023506904 454.96992977685244,312.27295478887163 454.9699297768525,354.6993616600645" />
</svg>
