<?xml version="1.0" encoding="UTF-8"?>
<svg
  xmlns="http://www.w3.org/2000/svg"
  width="848"
  height="600"
  style="background-color:white"
>
  <polygon fill="lightblue" points="348.74452030702633,553.9995881937241 233.7981054479934,454.4530728518565 499.25547969297367,377.8221296125012 614.2018945520067,477.36864495436885" />
  <polygon fill="steelblue" points="233.7981054479934,454.4530728518565 233.79810544799335,122.63135504563118 499.25547969297367,46.00041180627588 499.25547969297367,377.8221296125012" />
  <polygon fill="lightskyblue" points="614.2018945520067,477.36864495436885 614.2018945520066,145.54692714814348 499.25547969297367,46.00041180627588 499.25547969297367,377.8221296125012" />
  <polygon fill="white" points="568.2233286083934,437.5500388176217 568.2233286083934,304.8213516951316 545.2340456365869,284.9120486267581 545.2340456365869,417.6407357492483" />
  <polygon fill="white" points="349.93570668017225,367.8355603356425 349.93570668017225,314.74408548664644 383.11787846079477,305.16521758172706 383.11787846079477,358.2566924307231" />
  <polygon fill="antiquewhite" points="479.2670738376621,473.20774017255223 479.2670738376621,360.3883561184356 505.81281126216015,352.72526179450006 505.81281126216015,465.54464584861665" />
  <polygon fill="beige" points="479.2670738376621,473.20774017255223 479.2670738376621,360.3883561184356 463.94088518979106,347.11548740618656 463.94088518979106,459.93487146030316" />
  <polygon fill="bisque" points="479.2670738376621,360.3883561184356 463.94088518979106,347.11548740618656 490.4866226142891,339.45239308225104 505.81281126216015,352.72526179450006" />
  <polygon fill="antiquewhite" points="365.09315508237006,534.1791989998108 365.09315508237006,421.35981494569415 391.6388925068681,413.69672062175863 391.6388925068681,526.5161046758752" />
  <polygon fill="beige" points="365.09315508237006,534.1791989998108 365.09315508237006,421.35981494569415 349.766966434499,408.08694623344513 349.766966434499,520.9063302875618" />
  <polygon fill="bisque" points="365.09315508237006,421.35981494569415 349.766966434499,408.08694623344513 376.312703858997,400.4238519095096 391.6388925068681,413.69672062175863" />
</svg>
