<?xml version="1.0" encoding="UTF-8"?>
<svg
  xmlns="http://www.w3.org/2000/svg"
  width="848"
  height="600"
  style="background-color:white"
>
  <polygon fill="lightblue" points="350.3461894323342,516.1177395305405 237.84618943233426,418.68988160479114 497.6538105676658,343.6898816047911 610.1538105676657,441.11773953054046" />
  <polygon fill="steelblue" points="237.84618943233426,418.68988160479114 237.84618943233426,158.88226046945957 497.6538105676658,83.88226046945954 497.6538105676658,343.6898816047911" />
  <polygon fill="lightskyblue" points="610.1538105676657,441.11773953054046 610.1538105676657,181.31011839520886 497.6538105676658,83.88226046945954 497.6538105676658,343.6898816047911" />
  <polygon fill="white" points="565.1538105676657,402.14659636024066 565.1538105676657,272.2427857925749 542.6538105676658,252.75721420742505 542.6538105676658,382.6610247750908" />
  <polygon fill="white" points="273.56973733844234,356.4158573777248 273.56973733844234,304.4543331506585 306.04568998035876,295.0793331506585 306.04568998035876,347.0408573777248" />
  <polygon fill="white" points="325.53126156550866,341.4158573777248 325.53126156550866,289.4543331506585 358.0072142074251,280.0793331506585 358.0072142074251,332.0408573777248" />
  <polygon fill="white" points="377.492785792575,326.41585737772476 377.492785792575,274.4543331506585 409.9687384344914,265.0793331506585 409.9687384344914,317.04085737772476" />
  <polygon fill="white" points="429.45431001964124,311.41585737772476 429.45431001964124,259.4543331506585 461.9302626615577,250.07933315065847 461.9302626615577,302.04085737772476" />
</svg>
