<?xml version="1.0" encoding="UTF-8"?>
<svg
  xmlns="http://www.w3.org/2000/svg"
  width="848"
  height="600"
  style="background-color:white"
>
  <polygon fill="lightblue" points="334.774762717958,522.4661817732066 198.49071825554756,404.44073713827123 513.2252372820419,313.5847074966642 649.5092817444524,431.61015213159965" />
  <polygon fill="steelblue" points="198.49071825554756,404.44073713827123 198.49071825554756,168.38984786840038 513.2252372820419,77.53381822679339 513.2252372820419,313.5847074966642" />
  <polygon fill="lightskyblue" points="649.5092817444524,431.61015213159965 649.5092817444524,195.55926286172877 513.2252372820419,77.53381822679339 513.2252372820419,313.5847074966642" />
  <polygon fill="white" points="594.9956639594882,384.39997427762546 594.9956639594882,227.03271476437823 567.7388550670062,203.42762583739113 567.7388550670062,360.79488535063837" />
  <polygon fill="white" points="241.76671462169054,329.00112925725136 241.76671462169054,266.05422545195245 281.1085295000023,254.69722174675158 281.1085295000023,317.64412555205047" />
  <polygon fill="white" points="304.7136184269894,310.82992332892997 304.7136184269894,247.88301952363105 344.0554333053012,236.52601581843018 344.0554333053012,299.47291962372907" />
  <polygon fill="white" points="367.6605222322883,292.65871740060857 367.6605222322883,229.71181359530965 407.00233711060014,218.35480989010875 407.00233711060014,281.30171369540767" />
  <polygon fill="white" points="430.6074260375872,274.4875114722871 430.6074260375872,211.54060766698825 469.949240915899,200.18360396178736 469.949240915899,263.13050776708627" />
  <polygon fill="hsl(288.0,50.0%,54.496445229397835%)" points="444.20887350767475,424.267656674604 444.20887350767475,370.22773975775493 453.6509090784696,367.5020588685067 453.6509090784696,421.5419757853558" />
  <polygon fill="hsl(288.0,50.0%,54.496445229397835%)" points="467.81396243466185,417.4534544514835 467.81396243466185,363.4135375346344 458.371926863867,366.1392184238826 458.371926863867,420.1791353407317" />
  <polygon fill="hsl(288.0,50.0%,54.496445229397835%)" points="434.76683793687994,373.48846932934816 434.76683793687994,319.9836010948441 443.0286190613254,317.59863031675195 443.0286190613254,371.103498551256" />
  <polygon fill="hsl(288.0,50.0%,54.496445229397835%)" points="468.9942168810112,363.6078761058234 468.9942168810112,310.10300787131933 477.25599800545666,307.71803709322717 477.25599800545666,361.2229053277312" />
  <polygon fill="hsl(288.0,50.0%,54.496445229397835%)" points="443.0286190613254,325.8604114411974 443.0286190613254,317.59863031675195 468.9942168810112,310.10300787131933 468.9942168810112,318.3647889957648" />
  <polygon fill="hsl(288.0,50.0%,54.496445229397835%)" points="444.20887350767475,370.76278844009994 444.20887350767475,317.2579202055959 467.81396243466185,310.4437179824754 467.81396243466185,363.94858621697944" />
  <polygon fill="hsl(288.0,50.0%,54.496445229397835%)" points="450.1101457394215,312.8791262380906 450.1101457394215,288.80193553256373 461.9126902029151,285.3948344210035 461.9126902029151,309.4720251265303" />
  <polygon fill="hsl(288.0,50.0%,54.496445229397835%)" points="452.4706546321202,314.8729494275037 452.4706546321202,288.1205153102517 459.5521813102163,286.07625464331556 459.5521813102163,312.82868876056756" />
  <polygon fill="hsl(288.0,50.0%,50.27546059214215%)" points="361.92490669298115,461.3058875660797 361.92490669298115,407.26597064923067 371.36694226377597,404.54028975998244 371.36694226377597,458.5802066768315" />
  <polygon fill="hsl(288.0,50.0%,50.27546059214215%)" points="385.5299956199682,454.4916853429592 385.5299956199682,400.4517684261101 376.0879600491734,403.17744931535833 376.0879600491734,457.2173662322074" />
  <polygon fill="hsl(288.0,50.0%,50.27546059214215%)" points="352.4828711221863,410.5267002208239 352.4828711221863,357.02183198631985 360.74465224663174,354.63686120822763 360.74465224663174,408.1417294427317" />
  <polygon fill="hsl(288.0,50.0%,50.27546059214215%)" points="386.71025006631754,400.6461069972991 386.71025006631754,347.14123876279507 394.97203119076306,344.7562679847029 394.97203119076306,398.26113621920695" />
  <polygon fill="hsl(288.0,50.0%,50.27546059214215%)" points="360.74465224663174,362.89864233267315 360.74465224663174,354.63686120822763 386.71025006631754,347.14123876279507 386.71025006631754,355.40301988724053" />
  <polygon fill="hsl(288.0,50.0%,50.27546059214215%)" points="361.92490669298115,407.8010193315757 361.92490669298115,354.29615109707163 385.5299956199682,347.48194887395107 385.5299956199682,400.98681710845517" />
  <polygon fill="hsl(288.0,50.0%,50.27546059214215%)" points="367.8261789247279,349.91735712956626 367.8261789247279,325.84016642403947 379.62872338822143,322.4330653124792 379.62872338822143,346.51025601800603" />
  <polygon fill="hsl(288.0,50.0%,50.27546059214215%)" points="370.1866878174266,351.91118031897946 370.1866878174266,325.1587462017274 377.2682144955227,323.11448553479124 377.2682144955227,349.8669196520433" />
</svg>
