<?xml version="1.0" encoding="UTF-8"?>
<svg
  xmlns="http://www.w3.org/2000/svg"
  width="848"
  height="600"
  style="background-color:white"
>
  <polygon fill="lightblue" points="325.7949192431123,674.7595264191646 175.79491924311233,544.8557158514986 522.2050807568877,444.8557158514987 672.2050807568878,574.7595264191646" />
  <polygon fill="steelblue" points="175.79491924311233,544.8557158514986 175.79491924311225,25.2404735808355 522.2050807568877,-74.7595264191645 522.2050807568877,444.8557158514987" />
  <polygon fill="lightskyblue" points="672.2050807568878,574.7595264191646 672.2050807568877,55.1442841485013 522.2050807568877,-74.7595264191645 522.2050807568877,444.8557158514987" />
  <polygon fill="white" points="612.2050807568878,522.7980021920982 612.2050807568877,349.5929214352104 582.2050807568877,323.61215932167727 582.2050807568877,496.817240078565" />
  <polygon fill="white" points="223.42631645125647,461.8236835487436 223.4263164512564,392.54165124598853 266.7275866404783,380.04165124598853 266.7275866404783,449.3236835487436" />
  <polygon fill="white" points="292.70834875401147,441.8236835487436 292.70834875401147,372.54165124598853 336.0096189432334,360.04165124598853 336.0096189432335,429.3236835487436" />
  <polygon fill="white" points="361.99038105676664,421.8236835487436 361.99038105676664,352.5416512459885 405.29165124598853,340.0416512459885 405.29165124598853,409.3236835487436" />
  <polygon fill="white" points="431.2724133595217,401.8236835487436 431.2724133595217,332.5416512459885 474.5736835487436,320.0416512459885 474.57368354874365,389.3236835487436" />
</svg>
