<?xml version="1.0" encoding="UTF-8"?>
<svg
  xmlns="http://www.w3.org/2000/svg"
  width="848"
  height="600"
  style="background-color:white"
>
  <polygon fill="lightblue" points="350.3461894323342,516.1177395305405 237.84618943233426,418.68988160479114 497.6538105676658,343.6898816047911 610.1538105676657,441.11773953054046" />
  <polygon fill="steelblue" points="237.84618943233426,418.68988160479114 237.84618943233426,158.88226046945957 497.6538105676658,83.88226046945954 497.6538105676658,343.6898816047911" />
  <polygon fill="lightskyblue" points="610.1538105676657,441.11773953054046 610.1538105676657,181.31011839520886 497.6538105676658,83.88226046945954 497.6538105676658,343.6898816047911" />
  <polygon fill="white" points="565.1538105676657,402.14659636024066 565.1538105676657,272.2427857925749 542.6538105676658,252.75721420742505 542.6538105676658,382.6610247750908" />
  <polygon fill="white" points="264.9094833005979,358.9158573777248 264.9094833005979,306.9543331506585 297.3854359425144,297.5793331506585 297.3854359425144,349.5408573777248" />
  <polygon fill="white" points="308.21075348981987,346.4158573777248 308.21075348981987,294.4543331506585 340.6867061317363,285.0793331506585 340.6867061317363,337.0408573777248" />
  <polygon fill="white" points="351.5120236790418,333.9158573777248 351.5120236790418,281.9543331506585 383.98797632095824,272.5793331506585 383.98797632095824,324.5408573777248" />
  <polygon fill="white" points="394.8132938682637,321.4158573777248 394.8132938682637,269.4543331506585 427.28924651018013,260.0793331506585 427.28924651018013,312.04085737772476" />
  <polygon fill="white" points="438.1145640574856,308.9158573777248 438.1145640574856,256.9543331506585 470.59051669940203,247.57933315065847 470.59051669940203,299.54085737772476" />
</svg>
