<?xml version="1.0" encoding="UTF-8"?>
<svg
  xmlns="http://www.w3.org/2000/svg"
  width="848"
  height="600"
  style="background-color:white"
>
  <polygon fill="lightblue" points="342.93349196723375,537.868351041801 219.1112201336853,430.6351180796456 505.06650803276625,348.08693685727997 628.8887798663147,455.32016981943525" />
  <polygon fill="steelblue" points="219.1112201336853,430.6351180796456 219.1112201336853,144.67983018056472 505.06650803276625,62.13164895819901 505.06650803276625,348.08693685727997" />
  <polygon fill="lightskyblue" points="628.8887798663147,455.32016981943525 628.8887798663147,169.36488192035435 505.06650803276625,62.13164895819901 505.06650803276625,348.08693685727997" />
  <polygon fill="white" points="579.3598711328953,412.42687663457315 579.3598711328953,269.4492326850327 554.5954167661856,248.00258609260163 554.5954167661856,390.98023004214207" />
  <polygon fill="white" points="258.43007221980895,362.09368558175413 258.43007221980895,304.90262800193796 294.17448320719404,294.58410534914225 294.17448320719404,351.7751629289584" />
  <polygon fill="white" points="315.6211297996251,345.58404933728104 315.6211297996251,288.3929917574648 351.3655407870102,278.0744691046691 351.3655407870102,335.26552668448534" />
  <polygon fill="white" points="372.8121873794413,329.0744130928079 372.8121873794413,271.88335551299167 408.55659836682645,261.56483286019596 408.55659836682645,318.75589044001214" />
  <polygon fill="white" points="430.0032449592575,312.56477684833476 430.0032449592575,255.37371926851856 465.7476559466426,245.05519661572282 465.7476559466426,302.246254195539" />
</svg>
