<?xml version="1.0" encoding="UTF-8"?>
<svg
  xmlns="http://www.w3.org/2000/svg"
  width="848"
  height="600"
  style="background-color:white"
>
  <polygon fill="lightblue" points="363.8619154992025,529.4924039935062 272.00605014483335,449.9428911100196 484.13808450079756,388.70564754044017 575.9939498551668,468.2551604239268" />
  <polygon fill="steelblue" points="272.00605014483335,449.9428911100196 272.00605014483324,131.74483957607325 484.1380845007975,70.5075960064938 484.13808450079756,388.70564754044017" />
  <polygon fill="lightskyblue" points="575.9939498551668,468.2551604239268 575.9939498551666,150.05710888998038 484.1380845007975,70.5075960064938 484.13808450079756,388.70564754044017" />
  <polygon fill="white" points="539.2516037134191,436.4353552705321 539.2516037134191,330.36933809255 520.8804306425452,314.45943551585265 520.8804306425452,420.52545269383484" />
  <polygon fill="white" points="289.05237433415186,402.5956343091284 289.05237433415186,360.16922743793555 315.5688786286474,352.51457199173814 315.5688786286474,394.940978862931" />
  <polygon fill="white" points="319.3569506707182,393.84745665633136 319.3569506707182,351.4210497851385 345.8734549652137,343.76639433894104 345.8734549652137,386.1928012101339" />
  <polygon fill="white" points="349.66152700728446,385.0992790035343 349.66152700728446,342.6728721323414 376.17803130178004,335.018216686144 376.17803130178004,377.44462355733685" />
  <polygon fill="white" points="379.9661033438508,376.3511013507372 379.9661033438508,333.92469447954437 406.48260763834634,326.27003903334696 406.48260763834634,368.6964459045398" />
  <polygon fill="white" points="410.2706796804171,367.6029236979402 410.2706796804171,325.1765168267473 436.78718397491264,317.52186138054986 436.78718397491264,359.9482682517427" />
  <polygon fill="white" points="440.5752560169835,358.8547460451431 440.5752560169834,316.42833917395023 467.09176031147894,308.7736837277528 467.091760311479,351.2000905989457" />
</svg>
