<?xml version="1.0" encoding="UTF-8"?>
<svg
  xmlns="http://www.w3.org/2000/svg"
  width="848"
  height="600"
  style="background-color:white"
>
  <polygon fill="lightblue" points="358.1220291075228,522.3489577901084 257.49897012003225,435.2068325004415 489.87797089247726,368.1247931754478 590.5010298799677,455.2669184651147" />
  <polygon fill="steelblue" points="257.49897012003225,435.2068325004415 257.49897012003225,144.7330815348853 489.8779708924772,77.65104220989161 489.87797089247726,368.1247931754478" />
  <polygon fill="lightskyblue" points="590.5010298799677,455.2669184651147 590.5010298799677,164.79316749955848 489.8779708924772,77.65104220989161 489.87797089247726,368.1247931754478" />
  <polygon fill="white" points="550.2518062849715,420.4100683492479 550.2518062849715,304.2205679630255 530.1271944874734,286.7921429050921 530.1271944874734,402.9816432913146" />
  <polygon fill="white" points="276.17228268210374,383.34051132876556 276.17228268210374,336.8647111742765 305.2196577786593,328.4794562586523 305.2196577786593,374.95525641314134" />
  <polygon fill="white" points="309.369282792453,373.75736285376644 309.36928279245296,327.2815626992774 338.41665788900866,318.89630778365324 338.41665788900866,365.3721079381422" />
  <polygon fill="white" points="342.5662829028023,364.1742143787674 342.5662829028023,317.69841422427834 371.6136579993579,309.3131593086541 371.6136579993579,355.7889594631431" />
  <polygon fill="white" points="375.7632830131516,354.59106590376825 375.7632830131516,308.1152657492792 404.81065810970716,299.730010833655 404.81065810970716,346.20581098814404" />
  <polygon fill="white" points="408.96028312350086,345.00791742876913 408.9602831235008,298.53211727428015 438.00765822005644,290.14686235865594 438.00765822005644,336.6226625131449" />
  <polygon fill="white" points="442.15728323385014,335.42476895377 442.15728323385014,288.94896879928103 471.2046583304057,280.5637138836568 471.2046583304057,327.03951403814585" />
</svg>
