<?xml version="1.0" encoding="UTF-8"?>
<svg
  xmlns="http://www.w3.org/2000/svg"
  width="848"
  height="600"
  style="background-color:white"
>
  <polygon fill="lightblue" points="334.774762717958,522.4661817732066 198.49071825554756,404.44073713827123 513.2252372820419,313.5847074966642 649.5092817444524,431.61015213159965" />
  <polygon fill="steelblue" points="198.49071825554756,404.44073713827123 198.49071825554756,168.38984786840038 513.2252372820419,77.53381822679339 513.2252372820419,313.5847074966642" />
  <polygon fill="lightskyblue" points="649.5092817444524,431.61015213159965 649.5092817444524,195.55926286172877 513.2252372820419,77.53381822679339 513.2252372820419,313.5847074966642" />
  <polygon fill="white" points="594.9956639594882,384.39997427762546 594.9956639594882,227.03271476437823 567.7388550670062,203.42762583739113 567.7388550670062,360.79488535063837" />
  <polygon fill="white" points="223.78188496303372,334.1929023796289 223.78188496303372,271.24599857433003 263.1236998413455,259.88899486912914 263.1236998413455,322.83589867442805" />
  <polygon fill="white" points="268.74395910967576,321.213469573685 268.74395910967576,258.26656576838616 308.0857739879876,246.90956206318526 308.0857739879876,309.8564658684842" />
  <polygon fill="white" points="313.7060332563178,308.2340367677412 313.7060332563178,245.28713296244229 353.04784813462965,233.93012925724142 353.04784813462965,296.8770330625403" />
  <polygon fill="white" points="358.6681074029599,295.25460396179733 358.6681074029599,232.3077001564984 398.00992228127166,220.95069645129755 398.0099222812717,283.89760025659643" />
  <polygon fill="white" points="403.6301815496019,282.27517115585346 403.6301815496019,219.32826735055457 442.9719964279137,207.9712636453537 442.9719964279137,270.9181674506526" />
  <polygon fill="white" points="448.592255696244,269.2957383499096 448.592255696244,206.34883454461072 487.9340705745558,194.99183083940986 487.9340705745558,257.93873464470875" />
</svg>
