<?xml version="1.0" encoding="UTF-8"?>
<svg
  xmlns="http://www.w3.org/2000/svg"
  width="848"
  height="600"
  style="background-color:white"
>
  <polygon fill="lightblue" points="325.7949192431123,544.8557158514986 175.79491924311228,414.95190528383296 522.2050807568877,314.9519052838329 672.2050807568877,444.85571585149864" />
  <polygon fill="steelblue" points="175.79491924311228,414.95190528383296 175.79491924311228,155.14428414850133 522.2050807568877,55.1442841485013 522.2050807568877,314.9519052838329" />
  <polygon fill="lightskyblue" points="672.2050807568877,444.85571585149864 672.2050807568877,185.04809471616707 522.2050807568877,55.1442841485013 522.2050807568877,314.9519052838329" />
  <polygon fill="white" points="612.2050807568877,392.8941916244323 612.2050807568877,219.68911086754463 582.2050807568877,193.70834875401147 582.2050807568877,366.9134295108992" />
  <polygon fill="white" points="223.4263164512564,331.9198729810778 223.4263164512564,262.63784067832273 266.7275866404783,250.13784067832273 266.7275866404783,319.4198729810778" />
  <polygon fill="white" points="292.70834875401147,311.9198729810778 292.70834875401147,242.6378406783227 336.0096189432334,230.1378406783227 336.0096189432334,299.4198729810778" />
  <polygon fill="white" points="361.99038105676664,291.9198729810778 361.99038105676664,222.63784067832268 405.29165124598853,210.13784067832268 405.29165124598853,279.4198729810778" />
  <polygon fill="white" points="431.2724133595217,271.9198729810778 431.2724133595217,202.63784067832268 474.5736835487436,190.13784067832268 474.5736835487436,259.4198729810778" />
</svg>
