<?xml version="1.0" encoding="UTF-8"?>
<svg
  xmlns="http://www.w3.org/2000/svg"
  width="848"
  height="600"
  style="background-color:white"
>
  <polygon fill="lightblue" points="325.7949192431123,588.1569860407207 175.79491924311228,458.25317547305485 522.2050807568877,358.2531754730548 672.2050807568877,488.1569860407206" />
  <polygon fill="steelblue" points="175.79491924311228,458.25317547305485 175.79491924311228,111.8430139592794 522.2050807568877,11.843013959279347 522.2050807568877,358.2531754730548" />
  <polygon fill="lightskyblue" points="672.2050807568877,488.1569860407206 672.2050807568877,141.74682452694515 522.2050807568877,11.843013959279347 522.2050807568877,358.2531754730548" />
  <polygon fill="white" points="612.2050807568877,436.1954618136543 612.2050807568877,262.9903810567666 582.2050807568877,237.00961894323342 582.2050807568877,410.2146997001211" />
  <polygon fill="white" points="211.87931106746387,378.55447650363305 211.87931106746387,309.272444200878 255.1805812566858,296.772444200878 255.18058125668583,366.05447650363305" />
  <polygon fill="white" points="269.61433798642645,361.8878098369664 269.61433798642645,292.6057775342113 312.9156081756484,280.1057775342113 312.9156081756484,349.3878098369664" />
  <polygon fill="white" points="327.34936490538905,345.22114317029974 327.34936490538905,275.9391108675446 370.65063509461095,263.4391108675446 370.65063509461095,332.72114317029974" />
  <polygon fill="white" points="385.0843918243516,328.55447650363305 385.0843918243516,259.27244420087794 428.3856620135735,246.77244420087797 428.38566201357355,316.05447650363305" />
  <polygon fill="white" points="442.81941874331415,311.88780983696637 442.81941874331415,242.6057775342113 486.1206889325361,230.10577753421128 486.1206889325361,299.38780983696637" />
</svg>
