<?xml version="1.0" encoding="UTF-8"?>
<svg
  xmlns="http://www.w3.org/2000/svg"
  width="848"
  height="600"
  style="background-color:white"
>
  <polygon fill="lightblue" points="350.3461894323342,516.1177395305405 237.84618943233426,418.68988160479114 497.6538105676658,343.6898816047911 610.1538105676657,441.11773953054046" />
  <polygon fill="steelblue" points="237.84618943233426,418.68988160479114 237.84618943233426,158.88226046945957 497.6538105676658,83.88226046945954 497.6538105676658,343.6898816047911" />
  <polygon fill="lightskyblue" points="610.1538105676657,441.11773953054046 610.1538105676657,181.31011839520886 497.6538105676658,83.88226046945954 497.6538105676658,343.6898816047911" />
  <polygon fill="white" points="565.1538105676657,402.14659636024066 565.1538105676657,272.2427857925749 542.6538105676658,252.75721420742505 542.6538105676658,382.6610247750908" />
  <polygon fill="white" points="258.72358755928053,360.7015716634391 258.72358755928053,308.7400474363728 291.19954020119695,299.3650474363728 291.19954020119695,351.3265716634391" />
  <polygon fill="white" points="295.83896200718505,349.9872859491534 295.83896200718505,298.02576172208705 328.31491464910147,288.65076172208705 328.31491464910147,340.6122859491534" />
  <polygon fill="white" points="332.95433645508956,339.27300023486765 332.95433645508956,287.31147600780133 365.430289097006,277.93647600780133 365.430289097006,329.89800023486765" />
  <polygon fill="white" points="370.069710902994,328.55871452058193 370.069710902994,276.5971902935156 402.5456635449105,267.2221902935156 402.5456635449105,319.18371452058193" />
  <polygon fill="white" points="407.18508535089853,317.8444288062962 407.18508535089853,265.88290457922994 439.66103799281495,256.5079045792299 439.66103799281495,308.4694288062962" />
  <polygon fill="white" points="444.30045979880305,307.1301430920105 444.30045979880305,255.1686188649442 476.77641244071947,245.7936188649442 476.77641244071947,297.7551430920105" />
</svg>
