<?xml version="1.0" encoding="UTF-8"?>
<svg
  xmlns="http://www.w3.org/2000/svg"
  width="848"
  height="600"
  style="background-color:white"
>
  <polygon fill="lightblue" points="353.1818822381872,570.2483829733239 245.01316446513158,476.5715254870684 494.8181177618128,404.459046971698 602.9868355348685,498.13590445795353" />
  <polygon fill="steelblue" points="245.01316446513158,476.5715254870684 245.01316446513152,101.8640955420465 494.8181177618128,29.751617026676115 494.8181177618128,404.459046971698" />
  <polygon fill="lightskyblue" points="602.9868355348685,498.13590445795353 602.9868355348684,123.42847451293159 494.8181177618128,29.751617026676115 494.8181177618128,404.459046971698" />
  <polygon fill="white" points="559.7193484256462,460.66516146345134 559.7193484256462,335.7626848151106 538.0856048710351,317.0273133178595 538.0856048710351,441.92978996620025" />
  <polygon fill="white" points="354.30283153242965,395.0613254772576 354.30283153242965,345.10033481792135 385.5284506945148,336.0862750035 385.5284506945148,386.0472656628363" />
  <polygon fill="antiquewhite" points="476.0083076920682,494.2203431455207 476.0083076920681,388.05323799443113 500.9888030217363,380.8419901428941 500.9888030217363,487.00909529398365" />
  <polygon fill="beige" points="476.0083076920682,494.2203431455207 476.0083076920681,388.05323799443113 461.58581198899407,375.5629903295971 461.58581198899407,481.7300954806866" />
  <polygon fill="bisque" points="476.0083076920681,388.05323799443113 461.58581198899407,375.5629903295971 486.5663073186622,368.35174247806003 500.9888030217363,380.8419901428941" />
  <polygon fill="antiquewhite" points="368.566536584803,551.5966826354072 368.5665365848029,445.42957748431763 393.54703191447106,438.21832963278064 393.54703191447106,544.3854347838702" />
  <polygon fill="beige" points="368.566536584803,551.5966826354072 368.5665365848029,445.42957748431763 354.14404088172887,432.9393298194836 354.14404088172887,539.1064349705731" />
  <polygon fill="bisque" points="368.5665365848029,445.42957748431763 354.14404088172887,432.9393298194836 379.12453621139696,425.72808196794654 393.54703191447106,438.21832963278064" />
  <polygon fill="antiquewhite" points="456.58811561873165,432.90280015560745 456.58811561873165,326.7356950045179 481.56861094839985,319.5244471529808 481.56861094839985,425.69155230407034" />
  <polygon fill="beige" points="456.58811561873165,432.90280015560745 456.58811561873165,326.7356950045179 442.1656199156576,314.2454473396838 442.1656199156576,420.41255249077335" />
  <polygon fill="bisque" points="456.58811561873165,326.7356950045179 442.1656199156576,314.2454473396838 467.14611524532575,307.0341994881467 481.56861094839985,319.5244471529808" />
</svg>
