<?xml version="1.0" encoding="UTF-8"?>
<svg
  xmlns="http://www.w3.org/2000/svg"
  width="848"
  height="600"
  style="background-color:white"
>
  <polygon fill="lightblue" points="358.1220291075228,522.3489577901084 257.49897012003225,435.2068325004415 489.87797089247726,368.1247931754478 590.5010298799677,455.2669184651147" />
  <polygon fill="steelblue" points="257.49897012003225,435.2068325004415 257.49897012003225,144.7330815348853 489.8779708924772,77.65104220989161 489.87797089247726,368.1247931754478" />
  <polygon fill="lightskyblue" points="590.5010298799677,455.2669184651147 590.5010298799677,164.79316749955848 489.8779708924772,77.65104220989161 489.87797089247726,368.1247931754478" />
  <polygon fill="white" points="550.2518062849715,420.4100683492479 550.2518062849715,304.2205679630255 530.1271944874734,286.7921429050921 530.1271944874734,402.9816432913146" />
  <polygon fill="white" points="289.45108272624344,379.50725193876593 289.45108272624344,333.0314517842769 318.4984578227991,324.6461968686527 318.4984578227991,371.1219970231417" />
  <polygon fill="white" points="335.9268828807324,366.09084407376713 335.9268828807324,319.61504391927815 364.97425797728806,311.22978900365393 364.97425797728806,357.70558915814297" />
  <polygon fill="white" points="382.40268303522146,352.6744362087684 382.40268303522146,306.1986360542794 411.45005813177704,297.8133811386552 411.4500581317771,344.2891812931442" />
  <polygon fill="white" points="428.87848318971044,339.25802834376964 428.87848318971044,292.78222818928066 457.925858286266,284.39697327365644 457.925858286266,330.8727734281455" />
</svg>
