<?xml version="1.0" encoding="UTF-8"?>
<svg
  xmlns="http://www.w3.org/2000/svg"
  width="848"
  height="600"
  style="background-color:white"
>
  <polygon fill="lightblue" points="334.774762717958,522.4661817732066 198.49071825554756,404.44073713827123 513.2252372820419,313.5847074966642 649.5092817444524,431.61015213159965" />
  <polygon fill="steelblue" points="198.49071825554756,404.44073713827123 198.49071825554756,168.38984786840038 513.2252372820419,77.53381822679339 513.2252372820419,313.5847074966642" />
  <polygon fill="lightskyblue" points="649.5092817444524,431.61015213159965 649.5092817444524,195.55926286172877 513.2252372820419,77.53381822679339 513.2252372820419,313.5847074966642" />
  <polygon fill="white" points="594.9956639594882,384.39997427762546 594.9956639594882,227.03271476437823 567.7388550670062,203.42762583739113 567.7388550670062,360.79488535063837" />
  <polygon fill="white" points="257.50344057301527,324.458327775171 257.50344057301527,261.5114239698721 296.84525545132703,250.15442026467124 296.84525545132703,313.10132406997013" />
  <polygon fill="white" points="336.18707032963886,301.74432036476924 336.18707032963886,238.79741655947035 375.5288852079507,227.44041285426948 375.5288852079507,290.3873166595684" />
  <polygon fill="white" points="414.8707000862625,279.0303129543675 414.8707000862625,216.0834091490686 454.21251496457427,204.72640544386775 454.21251496457427,267.6733092491666" />
  <polygon fill="antiquewhite" points="489.5263616306461,426.6768540119116 489.5263616306461,292.91468342565145 520.9998135332955,283.8290804614907 520.9998135332955,417.59125104775086" />
  <polygon fill="beige" points="489.5263616306461,426.6768540119116 489.5263616306461,292.91468342565145 471.3551557023247,277.1779574743267 471.35515570232474,410.94012806058686" />
  <polygon fill="bisque" points="489.5263616306461,292.91468342565145 471.3551557023247,277.1779574743267 502.8286076049742,268.092354510166 520.9998135332955,283.8290804614907" />
</svg>
