<?xml version="1.0" encoding="UTF-8"?>
<svg
  xmlns="http://www.w3.org/2000/svg"
  width="848"
  height="600"
  style="background-color:white"
>
  <polygon fill="lightblue" points="334.774762717958,522.4661817732066 198.49071825554756,404.44073713827123 513.2252372820419,313.5847074966642 649.5092817444524,431.61015213159965" />
  <polygon fill="steelblue" points="198.49071825554756,404.44073713827123 198.49071825554756,168.38984786840038 513.2252372820419,77.53381822679339 513.2252372820419,313.5847074966642" />
  <polygon fill="lightskyblue" points="649.5092817444524,431.61015213159965 649.5092817444524,195.55926286172877 513.2252372820419,77.53381822679339 513.2252372820419,313.5847074966642" />
  <polygon fill="white" points="594.9956639594882,384.39997427762546 594.9956639594882,227.03271476437823 567.7388550670062,203.42762583739113 567.7388550670062,360.79488535063837" />
  <polygon fill="white" points="241.76671462169054,329.00112925725136 241.76671462169054,266.05422545195245 281.1085295000023,254.69722174675158 281.1085295000023,317.64412555205047" />
  <polygon fill="white" points="304.7136184269894,310.82992332892997 304.7136184269894,247.88301952363105 344.0554333053012,236.52601581843018 344.0554333053012,299.47291962372907" />
  <polygon fill="white" points="367.6605222322883,292.65871740060857 367.6605222322883,229.71181359530965 407.00233711060014,218.35480989010875 407.00233711060014,281.30171369540767" />
  <polygon fill="white" points="430.6074260375872,274.4875114722871 430.6074260375872,211.54060766698825 469.949240915899,200.18360396178736 469.949240915899,263.13050776708627" />
  <polygon fill="antiquewhite" points="489.5263616306461,426.6768540119116 489.5263616306461,292.91468342565145 520.9998135332955,283.8290804614907 520.9998135332955,417.59125104775086" />
  <polygon fill="beige" points="489.5263616306461,426.6768540119116 489.5263616306461,292.91468342565145 471.3551557023247,277.1779574743267 471.35515570232474,410.94012806058686" />
  <polygon fill="bisque" points="489.5263616306461,292.91468342565145 471.3551557023247,277.1779574743267 502.8286076049742,268.092354510166 520.9998135332955,283.8290804614907" />
  <polygon fill="antiquewhite" points="354.15821257461585,498.9665119011341 354.15821257461585,365.20434131487394 385.6316644772653,356.1187383507132 385.6316644772653,489.88090893697336" />
  <polygon fill="beige" points="354.15821257461585,498.9665119011341 354.15821257461585,365.20434131487394 335.98700664629445,349.4676153635492 335.98700664629445,483.22978594980935" />
  <polygon fill="bisque" points="354.15821257461585,365.20434131487394 335.98700664629445,349.4676153635492 367.4604585489439,340.3820123993885 385.6316644772653,356.1187383507132" />
</svg>
