<?xml version="1.0" encoding="UTF-8"?>
<svg
  xmlns="http://www.w3.org/2000/svg"
  width="848"
  height="600"
  style="background-color:white"
>
  <polygon fill="lightblue" points="353.1818822381872,570.2483829733239 245.01316446513158,476.5715254870684 494.8181177618128,404.459046971698 602.9868355348685,498.13590445795353" />
  <polygon fill="steelblue" points="245.01316446513158,476.5715254870684 245.01316446513152,101.8640955420465 494.8181177618128,29.751617026676115 494.8181177618128,404.459046971698" />
  <polygon fill="lightskyblue" points="602.9868355348685,498.13590445795353 602.9868355348684,123.42847451293159 494.8181177618128,29.751617026676115 494.8181177618128,404.459046971698" />
  <polygon fill="white" points="271.0345137668692,419.0988183157144 271.03451376686917,369.13782765637814 302.26013292895436,360.12376784195686 302.26013292895436,410.0847585012931" />
  <polygon fill="white" points="312.6686726496494,407.080071896486 312.6686726496494,357.11908123714977 343.89429181173455,348.10502142272844 343.89429181173455,398.06601208206473" />
  <polygon fill="white" points="354.30283153242965,395.0613254772576 354.30283153242965,345.10033481792135 385.5284506945148,336.0862750035 385.5284506945148,386.0472656628363" />
  <polygon fill="white" points="395.93699041520983,383.0425790580292 395.93699041520983,333.08158839869293 427.162609577295,324.06752858427166 427.162609577295,374.0285192436079" />
  <polygon fill="white" points="437.57114929799,371.0238326388008 437.57114929799,321.06284197946457 468.79676846007516,312.04878216504324 468.7967684600752,362.0097728243795" />
  <polygon fill="grey" points="481.62061822857027,98.09435324905922 481.62061822857027,66.86873408697409 512.8462373906555,57.85467427255276 512.8462373906555,89.08029343463792" />
  <polygon fill="lightgrey" points="481.62061822857027,98.09435324905922 481.62061822857027,66.86873408697409 463.59249859972766,51.25592450593149 463.59249859972766,82.48154366801663" />
  <polygon fill="darkgrey" points="481.62061822857027,66.86873408697409 463.59249859972766,51.25592450593149 494.8181177618128,42.24186469151016 512.8462373906555,57.85467427255276" />
  <polygon fill="hsl(288.0,50.0%,54.496445229397835%)" points="440.0397935325876,492.3081619517002 440.0397935325876,449.41665147066004 447.53394213148806,447.2532771151989 447.53394213148806,490.1447875962391" />
  <polygon fill="hsl(288.0,50.0%,54.496445229397835%)" points="458.7751650298387,486.8997260630474 458.7751650298387,444.00821558200727 451.2810164309382,446.17158993746835 451.2810164309382,489.06310041850855" />
  <polygon fill="hsl(288.0,50.0%,54.496445229397835%)" points="432.5456449336872,452.00469424672553 432.5456449336872,409.5378521862897 439.10302495772504,407.6448996252612 439.10302495772504,450.111741685697" />
  <polygon fill="hsl(288.0,50.0%,54.496445229397835%)" points="459.71193360470124,444.16246220817897 459.71193360470124,401.6956201477431 466.26931362873916,399.8026675867146 466.26931362873916,442.26950964715047" />
  <polygon fill="hsl(288.0,50.0%,54.496445229397835%)" points="439.10302495772504,414.20227964929904 439.10302495772504,407.6448996252612 459.71193360470124,401.6956201477431 459.71193360470124,408.253000171781" />
  <polygon fill="hsl(288.0,50.0%,54.496445229397835%)" points="440.0397935325876,449.84131989126433 440.0397935325876,407.37447783082854 458.7751650298387,401.96604194217576 458.7751650298387,444.4328840026116" />
  <polygon fill="hsl(288.0,50.0%,54.496445229397835%)" points="444.72363640690037,403.8990267556436 444.72363640690037,384.7889478284475 454.0913221555259,382.0847298841211 454.0913221555259,401.19480881131716" />
  <polygon fill="hsl(288.0,50.0%,54.496445229397835%)" points="446.5971735566255,405.48152526980004 446.5971735566255,384.2481042395822 452.2177850058008,382.62557347298633 452.2177850058008,403.85899450320426" />
</svg>
