<?xml version="1.0" encoding="UTF-8"?>
<svg
  xmlns="http://www.w3.org/2000/svg"
  width="848"
  height="600"
  style="background-color:white"
>
  <polygon fill="lightblue" points="342.93349196723375,537.868351041801 219.1112201336853,430.6351180796456 505.06650803276625,348.08693685727997 628.8887798663147,455.32016981943525" />
  <polygon fill="steelblue" points="219.1112201336853,430.6351180796456 219.1112201336853,144.67983018056472 505.06650803276625,62.13164895819901 505.06650803276625,348.08693685727997" />
  <polygon fill="lightskyblue" points="628.8887798663147,455.32016981943525 628.8887798663147,169.36488192035435 505.06650803276625,62.13164895819901 505.06650803276625,348.08693685727997" />
  <polygon fill="white" points="558.722825827304,394.5546711408806 558.722825827304,251.57702719134014 533.9583714605942,230.13038059890908 533.9583714605942,373.1080245484495" />
  <polygon fill="white" points="599.9969164384868,430.2990821282657 599.9969164384868,287.32143817872526 575.232462071777,265.8747915862942 575.232462071777,408.8524355358346" />
  <polygon fill="white" points="344.2166585895332,337.32923121504444 344.2166585895332,280.13817363522827 379.9610695769183,269.81965098243256 379.9610695769183,327.01070856224874" />
  <polygon fill="grey" points="489.9591423509725,140.36455248702646 489.9591423509725,104.62014149964136 525.7035533383577,94.30161884684566 525.7035533383577,130.04602983423075" />
  <polygon fill="lightgrey" points="489.9591423509725,140.36455248702646 489.9591423509725,104.62014149964136 469.3220970453811,86.74793600594879 469.3220970453811,122.49234699333388" />
  <polygon fill="darkgrey" points="489.9591423509725,104.62014149964136 469.3220970453811,86.74793600594879 505.06650803276625,76.42941335315308 525.7035533383577,94.30161884684566" />
  <polygon fill="hsl(288.0,50.0%,54.496445229397835%)" points="442.36098010436785,448.6490699705937 442.36098010436785,399.5505470383215 450.9396387413403,397.0741016016505 450.9396387413403,446.1726245339228" />
  <polygon fill="hsl(288.0,50.0%,54.496445229397835%)" points="463.80762669679893,442.45795637891626 463.8076266967989,393.35943344664406 455.22896805982646,395.83587888331505 455.22896805982646,444.93440181558725" />
  <polygon fill="hsl(288.0,50.0%,54.496445229397835%)" points="433.78232146739543,402.51311646442093 433.78232146739543,353.9007175215772 441.28864777474627,351.73382776449006 441.28864777474627,400.3462267073338" />
  <polygon fill="hsl(288.0,50.0%,54.496445229397835%)" points="464.87995902642047,393.53600175648864 464.87995902642047,344.9236028136449 472.38628533377135,342.7567130565578 472.38628533377135,391.3691119994015" />
  <polygon fill="hsl(288.0,50.0%,54.496445229397835%)" points="441.28864777474627,359.24015407184095 441.28864777474627,351.73382776449006 464.87995902642047,344.9236028136449 464.87995902642047,352.4299291209958" />
  <polygon fill="hsl(288.0,50.0%,54.496445229397835%)" points="442.36098010436785,400.03667102774995 442.36098010436785,351.4242720849062 463.8076266967989,345.23315849322876 463.8076266967989,393.8455574360725" />
  <polygon fill="hsl(288.0,50.0%,54.496445229397835%)" points="447.72264175247557,347.44587373984467 447.72264175247557,325.57029421556496 458.44596504869116,322.47473741972624 458.44596504869116,344.35031694400595" />
  <polygon fill="hsl(288.0,50.0%,54.496445229397835%)" points="449.8673064117187,349.25738232781913 449.8673064117187,324.9511828563972 456.30130038944804,323.093848778894 456.30130038944804,347.4000482503159" />
  <polygon fill="hsl(288.0,50.0%,53.251789974280086%)" points="450.5282932025364,449.85052728082496 450.5282932025364,400.75200434855276 459.10695183950884,398.2755589118818 459.10695183950884,447.374081844154" />
  <polygon fill="hsl(288.0,50.0%,53.251789974280086%)" points="471.97493979496744,443.6594136891475 471.97493979496744,394.5608907568753 463.396281157995,397.03733619354625 463.396281157995,446.13585912581846" />
  <polygon fill="hsl(288.0,50.0%,53.251789974280086%)" points="441.94963456556394,403.71457377465214 441.94963456556394,355.1021748318084 449.45596087291483,352.9352850747213 449.45596087291483,401.5476840175651" />
  <polygon fill="hsl(288.0,50.0%,53.251789974280086%)" points="473.047272124589,394.7374590667199 473.047272124589,346.12506012387615 480.5535984319399,343.95817036678903 480.5535984319399,392.5705693096328" />
  <polygon fill="hsl(288.0,50.0%,53.251789974280086%)" points="449.45596087291483,360.4416113820722 449.45596087291483,352.9352850747213 473.047272124589,346.12506012387615 473.047272124589,353.631386431227" />
  <polygon fill="hsl(288.0,50.0%,53.251789974280086%)" points="450.5282932025364,401.23812833798115 450.5282932025364,352.62572939513745 471.97493979496744,346.43461580346 471.97493979496744,395.0470147463037" />
  <polygon fill="hsl(288.0,50.0%,53.251789974280086%)" points="455.88995485064413,348.6473310500759 455.88995485064413,326.7717515257962 466.6132781468597,323.6761947299575 466.6132781468597,345.55177425423716" />
  <polygon fill="hsl(288.0,50.0%,53.251789974280086%)" points="458.03461950988725,350.45883963805034 458.03461950988725,326.1526401666285 464.4686134876166,324.29530608912523 464.4686134876166,348.6015055605471" />
  <polygon fill="hsl(288.0,50.0%,50.27546059214215%)" points="367.60103482491974,482.30053600807975 367.60103482491974,433.20201307580754 376.17969346189216,430.72556763913656 376.17969346189216,479.82409057140876" />
  <polygon fill="hsl(288.0,50.0%,50.27546059214215%)" points="389.0476814173508,476.1094224164023 389.0476814173508,427.0108994841301 380.4690227803784,429.4873449208011 380.4690227803784,478.5858678530733" />
  <polygon fill="hsl(288.0,50.0%,50.27546059214215%)" points="359.0223761879473,436.1645825019069 359.0223761879473,387.55218355906317 366.5287024952982,385.3852938019761 366.5287024952982,433.9976927448198" />
  <polygon fill="hsl(288.0,50.0%,50.27546059214215%)" points="390.1200137469724,427.18746779397463 390.12001374697235,378.57506885113094 397.62634005432324,376.4081790940438 397.62634005432324,425.02057803688757" />
  <polygon fill="hsl(288.0,50.0%,50.27546059214215%)" points="366.5287024952982,392.89162010932694 366.5287024952982,385.3852938019761 390.12001374697235,378.57506885113094 390.12001374697235,386.08139515848177" />
  <polygon fill="hsl(288.0,50.0%,50.27546059214215%)" points="367.60103482491974,433.688137065236 367.60103482491974,385.07573812239224 389.0476814173508,378.8846245307148 389.0476814173508,427.49702347355856" />
  <polygon fill="hsl(288.0,50.0%,50.27546059214215%)" points="372.9626964730275,381.09733977733066 372.9626964730275,359.221760253051 383.68601976924305,356.1262034572123 383.68601976924305,378.00178298149194" />
  <polygon fill="hsl(288.0,50.0%,50.27546059214215%)" points="375.1073611322706,382.9088483653051 375.1073611322706,358.60264889388327 381.5413551099999,356.74531481638 381.5413551099999,381.05151428780187" />
  <polygon fill="hsl(288.0,50.0%,50.081656916476256%)" points="375.77362730986846,480.495503631208 375.77362730986846,431.3969806989358 384.3522859468409,428.9205352622648 384.3522859468409,478.019058194537" />
  <polygon fill="hsl(288.0,50.0%,50.081656916476256%)" points="397.22027390229954,474.3043900395306 397.22027390229954,425.20586710725837 388.6416152653271,427.68231254392936 388.6416152653271,476.78083547620156" />
  <polygon fill="hsl(288.0,50.0%,50.081656916476256%)" points="367.19496867289604,434.3595501250352 367.19496867289604,385.7471511821915 374.7012949802469,383.58026142510437 374.7012949802469,432.1926603679481" />
  <polygon fill="hsl(288.0,50.0%,50.081656916476256%)" points="398.29260623192107,425.38243541710295 398.29260623192107,376.7700364742592 405.79893253927196,374.6031467171721 405.79893253927196,423.2155456600159" />
  <polygon fill="hsl(288.0,50.0%,50.081656916476256%)" points="374.7012949802469,391.08658773245526 374.7012949802469,383.58026142510437 398.29260623192107,376.7700364742592 398.29260623192107,384.2763627816101" />
  <polygon fill="hsl(288.0,50.0%,50.081656916476256%)" points="375.77362730986846,431.88310468836426 375.77362730986846,383.2707057455205 397.2202739022995,377.07959215384307 397.22027390229954,425.6919910966868" />
  <polygon fill="hsl(288.0,50.0%,50.081656916476256%)" points="381.13528895797623,379.292307400459 381.13528895797623,357.41672787617927 391.85861225419177,354.32117108034055 391.85861225419177,376.1967506046202" />
  <polygon fill="hsl(288.0,50.0%,50.081656916476256%)" points="383.27995361721935,381.1038159884334 383.27995361721935,356.79761651701153 389.71394759494865,354.94028243950834 389.71394759494865,379.2464819109302" />
</svg>
