<?xml version="1.0" encoding="UTF-8"?>
<svg
  xmlns="http://www.w3.org/2000/svg"
  width="848"
  height="600"
  style="background-color:white"
>
  <polygon fill="lightblue" points="338.9519052838329,512.0512701892219 209.04809471616713,399.55127018922195 509.0480947161671,312.94872981077805 638.9519052838328,425.44872981077805" />
  <polygon fill="steelblue" points="209.04809471616713,399.55127018922195 209.04809471616713,174.55127018922195 509.0480947161671,87.94872981077808 509.0480947161671,312.94872981077805" />
  <polygon fill="lightskyblue" points="638.9519052838328,425.44872981077805 638.9519052838328,200.44872981077805 509.0480947161671,87.94872981077808 509.0480947161671,312.94872981077805" />
  <polygon fill="white" points="586.9903810567665,380.44872981077805 586.9903810567665,230.44872981077805 561.0096189432334,207.94872981077805 561.0096189432334,357.94872981077805" />
  <polygon fill="white" points="250.29809471616713,327.6434208871859 250.29809471616713,267.6434208871859 287.7980947161671,256.8181033398804 287.7980947161671,316.8181033398804" />
  <polygon fill="white" points="310.2980947161671,310.32291281149713 310.2980947161671,250.32291281149713 347.7980947161671,239.49759526419163 347.7980947161671,299.49759526419166" />
  <polygon fill="white" points="370.29809471616716,293.00240473580834 370.29809471616716,233.00240473580834 407.7980947161671,222.17708718850287 407.7980947161671,282.17708718850287" />
  <polygon fill="white" points="430.2980947161671,275.68189666011955 430.2980947161671,215.68189666011955 467.7980947161671,204.85657911281407 467.7980947161671,264.8565791128141" />
</svg>
