<?xml version="1.0" encoding="UTF-8"?>
<svg
  xmlns="http://www.w3.org/2000/svg"
  width="848"
  height="600"
  style="background-color:white"
>
  <polygon fill="lightblue" points="342.93349196723375,537.868351041801 219.1112201336853,430.6351180796456 505.06650803276625,348.08693685727997 628.8887798663147,455.32016981943525" />
  <polygon fill="steelblue" points="219.1112201336853,430.6351180796456 219.1112201336853,144.67983018056472 505.06650803276625,62.13164895819901 505.06650803276625,348.08693685727997" />
  <polygon fill="lightskyblue" points="628.8887798663147,455.32016981943525 628.8887798663147,169.36488192035435 505.06650803276625,62.13164895819901 505.06650803276625,348.08693685727997" />
  <polygon fill="white" points="558.722825827304,394.5546711408806 558.722825827304,251.57702719134014 533.9583714605942,230.13038059890908 533.9583714605942,373.1080245484495" />
  <polygon fill="white" points="599.9969164384868,430.2990821282657 599.9969164384868,287.32143817872526 575.232462071777,265.8747915862942 575.232462071777,408.8524355358346" />
  <polygon fill="white" points="248.89822928983955,364.84529162249964 248.89822928983955,307.65423404268347 284.64264027722464,297.33571138988776 284.6426402772247,354.526768969704" />
  <polygon fill="white" points="296.5574439396864,351.0872614187721 296.5574439396864,293.8962038389559 332.3018549270715,283.5776811861602 332.3018549270715,340.76873876597637" />
  <polygon fill="white" points="344.2166585895332,337.32923121504444 344.2166585895332,280.13817363522827 379.9610695769183,269.81965098243256 379.9610695769183,327.01070856224874" />
  <polygon fill="white" points="391.87587323938,323.5712010113168 391.87587323938,266.38014343150064 427.62028422676514,256.06162077870493 427.62028422676514,313.2526783585211" />
  <polygon fill="white" points="439.5350878892268,309.81317080758924 439.5350878892268,252.62211322777304 475.2794988766119,242.3035905749773 475.2794988766119,299.49464815479354" />
  <polygon fill="hsl(324.0,50.0%,54.496445229397835%)" points="442.36098010436785,448.6490699705937 442.36098010436785,399.5505470383215 450.9396387413403,397.0741016016505 450.9396387413403,446.1726245339228" />
  <polygon fill="hsl(324.0,50.0%,54.496445229397835%)" points="463.80762669679893,442.45795637891626 463.8076266967989,393.35943344664406 455.22896805982646,395.83587888331505 455.22896805982646,444.93440181558725" />
  <polygon fill="hsl(324.0,50.0%,54.496445229397835%)" points="433.78232146739543,402.51311646442093 433.78232146739543,353.9007175215772 441.28864777474627,351.73382776449006 441.28864777474627,400.3462267073338" />
  <polygon fill="hsl(324.0,50.0%,54.496445229397835%)" points="464.87995902642047,393.53600175648864 464.87995902642047,344.9236028136449 472.38628533377135,342.7567130565578 472.38628533377135,391.3691119994015" />
  <polygon fill="hsl(324.0,50.0%,54.496445229397835%)" points="441.28864777474627,359.24015407184095 441.28864777474627,351.73382776449006 464.87995902642047,344.9236028136449 464.87995902642047,352.4299291209958" />
  <polygon fill="hsl(324.0,50.0%,54.496445229397835%)" points="442.36098010436785,400.03667102774995 442.36098010436785,351.4242720849062 463.8076266967989,345.23315849322876 463.8076266967989,393.8455574360725" />
  <polygon fill="hsl(324.0,50.0%,54.496445229397835%)" points="447.72264175247557,347.44587373984467 447.72264175247557,325.57029421556496 458.44596504869116,322.47473741972624 458.44596504869116,344.35031694400595" />
  <polygon fill="hsl(324.0,50.0%,54.496445229397835%)" points="449.8673064117187,349.25738232781913 449.8673064117187,324.9511828563972 456.30130038944804,323.093848778894 456.30130038944804,347.4000482503159" />
</svg>
