<?xml version="1.0" encoding="UTF-8"?>
<svg
  xmlns="http://www.w3.org/2000/svg"
  width="848"
  height="600"
  style="background-color:white"
>
  <polygon fill="lightblue" points="334.774762717958,522.4661817732066 198.49071825554756,404.44073713827123 513.2252372820419,313.5847074966642 649.5092817444524,431.61015213159965" />
  <polygon fill="steelblue" points="198.49071825554756,404.44073713827123 198.49071825554756,168.38984786840038 513.2252372820419,77.53381822679339 513.2252372820419,313.5847074966642" />
  <polygon fill="lightskyblue" points="649.5092817444524,431.61015213159965 649.5092817444524,195.55926286172877 513.2252372820419,77.53381822679339 513.2252372820419,313.5847074966642" />
  <polygon fill="white" points="572.2816565490865,364.7290668384695 572.2816565490865,207.36180732522232 545.0248476566044,183.75671839823525 545.0248476566044,341.1239779114825" />
  <polygon fill="white" points="617.70967136989,404.0708817167814 617.70967136989,246.70362220353414 590.452862477408,223.09853327654704 590.452862477408,380.46579278979425" />
  <polygon fill="grey" points="496.59742981413194,163.6402702007867 496.59742981413194,124.29845532247487 535.9392446924437,112.94145161727403 535.9392446924437,152.28326649558582" />
  <polygon fill="lightgrey" points="496.59742981413194,163.6402702007867 496.59742981413194,124.29845532247487 473.8834224037302,104.62754788331898 473.8834224037302,143.96936276163078" />
  <polygon fill="darkgrey" points="496.59742981413194,124.29845532247487 473.8834224037302,104.62754788331898 513.2252372820419,93.27054417811809 535.9392446924437,112.94145161727403" />
  <polygon fill="hsl(324.0,50.0%,54.496445229397835%)" points="444.20887350767475,424.267656674604 444.20887350767475,370.22773975775493 453.6509090784696,367.5020588685067 453.6509090784696,421.5419757853558" />
  <polygon fill="hsl(324.0,50.0%,54.496445229397835%)" points="467.81396243466185,417.4534544514835 467.81396243466185,363.4135375346344 458.371926863867,366.1392184238826 458.371926863867,420.1791353407317" />
  <polygon fill="hsl(324.0,50.0%,54.496445229397835%)" points="434.76683793687994,373.48846932934816 434.76683793687994,319.9836010948441 443.0286190613254,317.59863031675195 443.0286190613254,371.103498551256" />
  <polygon fill="hsl(324.0,50.0%,54.496445229397835%)" points="468.9942168810112,363.6078761058234 468.9942168810112,310.10300787131933 477.25599800545666,307.71803709322717 477.25599800545666,361.2229053277312" />
  <polygon fill="hsl(324.0,50.0%,54.496445229397835%)" points="443.0286190613254,325.8604114411974 443.0286190613254,317.59863031675195 468.9942168810112,310.10300787131933 468.9942168810112,318.3647889957648" />
  <polygon fill="hsl(324.0,50.0%,54.496445229397835%)" points="444.20887350767475,370.76278844009994 444.20887350767475,317.2579202055959 467.81396243466185,310.4437179824754 467.81396243466185,363.94858621697944" />
  <polygon fill="hsl(324.0,50.0%,54.496445229397835%)" points="450.1101457394215,312.8791262380906 450.1101457394215,288.80193553256373 461.9126902029151,285.3948344210035 461.9126902029151,309.4720251265303" />
  <polygon fill="hsl(324.0,50.0%,54.496445229397835%)" points="452.4706546321202,314.8729494275037 452.4706546321202,288.1205153102517 459.5521813102163,286.07625464331556 459.5521813102163,312.82868876056756" />
</svg>
