<?xml version="1.0" encoding="UTF-8"?>
<svg
  xmlns="http://www.w3.org/2000/svg"
  width="848"
  height="600"
  style="background-color:white"
>
  <polygon fill="lightblue" points="325.7949192431123,588.1569860407207 175.79491924311228,458.25317547305485 522.2050807568877,358.2531754730548 672.2050807568877,488.1569860407206" />
  <polygon fill="steelblue" points="175.79491924311228,458.25317547305485 175.79491924311228,111.8430139592794 522.2050807568877,11.843013959279347 522.2050807568877,358.2531754730548" />
  <polygon fill="lightskyblue" points="672.2050807568877,488.1569860407206 672.2050807568877,141.74682452694515 522.2050807568877,11.843013959279347 522.2050807568877,358.2531754730548" />
  <polygon fill="white" points="612.2050807568877,436.1954618136543 612.2050807568877,262.9903810567666 582.2050807568877,237.00961894323342 582.2050807568877,410.2146997001211" />
  <polygon fill="white" points="223.4263164512564,375.22114317029974 223.4263164512564,305.9391108675446 266.7275866404783,293.4391108675446 266.7275866404783,362.72114317029974" />
  <polygon fill="white" points="292.70834875401147,355.22114317029974 292.70834875401147,285.9391108675446 336.0096189432334,273.4391108675446 336.0096189432334,342.72114317029974" />
  <polygon fill="white" points="361.99038105676664,335.22114317029974 361.99038105676664,265.9391108675446 405.29165124598853,253.43911086754463 405.29165124598853,322.7211431702997" />
  <polygon fill="white" points="431.2724133595217,315.2211431702997 431.2724133595217,245.93911086754463 474.5736835487436,233.43911086754463 474.5736835487436,302.7211431702997" />
</svg>
