<?xml version="1.0" encoding="UTF-8"?>
<svg
  xmlns="http://www.w3.org/2000/svg"
  width="848"
  height="600"
  style="background-color:white"
>
  <polygon fill="lightblue" points="334.774762717958,522.4661817732066 198.49071825554756,404.44073713827123 513.2252372820419,313.5847074966642 649.5092817444524,431.61015213159965" />
  <polygon fill="steelblue" points="198.49071825554756,404.44073713827123 198.49071825554756,168.38984786840038 513.2252372820419,77.53381822679339 513.2252372820419,313.5847074966642" />
  <polygon fill="lightskyblue" points="649.5092817444524,431.61015213159965 649.5092817444524,195.55926286172877 513.2252372820419,77.53381822679339 513.2252372820419,313.5847074966642" />
  <polygon fill="white" points="594.9956639594882,384.39997427762546 594.9956639594882,227.03271476437823 567.7388550670062,203.42762583739113 567.7388550670062,360.79488535063837" />
  <polygon fill="white" points="257.50344057301527,324.458327775171 257.50344057301527,261.5114239698721 296.84525545132703,250.15442026467124 296.84525545132703,313.10132406997013" />
  <polygon fill="white" points="336.18707032963886,301.74432036476924 336.18707032963886,238.79741655947035 375.5288852079507,227.44041285426948 375.5288852079507,290.3873166595684" />
  <polygon fill="white" points="414.8707000862625,279.0303129543675 414.8707000862625,216.0834091490686 454.21251496457427,204.72640544386775 454.21251496457427,267.6733092491666" />
  <polygon fill="antiquewhite" points="489.5263616306461,426.6768540119116 489.5263616306461,292.91468342565145 520.9998135332955,283.8290804614907 520.9998135332955,417.59125104775086" />
  <polygon fill="beige" points="489.5263616306461,426.6768540119116 489.5263616306461,292.91468342565145 471.3551557023247,277.1779574743267 471.35515570232474,410.94012806058686" />
  <polygon fill="bisque" points="489.5263616306461,292.91468342565145 471.3551557023247,277.1779574743267 502.8286076049742,268.092354510166 520.9998135332955,283.8290804614907" />
  <polygon fill="antiquewhite" points="354.15821257461585,498.9665119011341 354.15821257461585,365.20434131487394 385.6316644772653,356.1187383507132 385.6316644772653,489.88090893697336" />
  <polygon fill="beige" points="354.15821257461585,498.9665119011341 354.15821257461585,365.20434131487394 335.98700664629445,349.4676153635492 335.98700664629445,483.22978594980935" />
  <polygon fill="bisque" points="354.15821257461585,365.20434131487394 335.98700664629445,349.4676153635492 367.4604585489439,340.3820123993885 385.6316644772653,356.1187383507132" />
  <polygon fill="antiquewhite" points="465.0584528444479,349.421590871086 465.0584528444479,215.65942028482587 496.5319047470974,206.57381732066517 496.5319047470974,340.3359879069253" />
  <polygon fill="beige" points="465.0584528444479,349.421590871086 465.0584528444479,215.65942028482587 446.8872469161265,199.9226943335011 446.8872469161265,333.68486491976125" />
  <polygon fill="bisque" points="465.0584528444479,215.65942028482587 446.8872469161265,199.9226943335011 478.360698818776,190.83709136934044 496.5319047470974,206.57381732066517" />
  <polygon fill="antiquewhite" points="428.9655624599926,383.8731851734318 428.9655624599926,250.11101458717164 460.43901436264207,241.02541162301094 460.43901436264207,374.7875822092711" />
  <polygon fill="beige" points="428.9655624599926,383.8731851734318 428.9655624599926,250.11101458717164 410.7943565316712,234.37428863584688 410.7943565316712,368.136459222107" />
  <polygon fill="bisque" points="428.9655624599926,250.11101458717164 410.7943565316712,234.37428863584688 442.26780843432067,225.2886856716862 460.43901436264207,241.02541162301094" />
  <polygon fill="antiquewhite" points="388.26559382501114,368.6631623042226 388.26559382501114,234.90099171796248 419.7390457276606,225.81538875380176 419.7390457276606,359.5775593400619" />
  <polygon fill="beige" points="388.26559382501114,368.6631623042226 388.26559382501114,234.90099171796248 370.0943878966897,219.16426576663775 370.09438789668974,352.9264363528979" />
  <polygon fill="bisque" points="388.26559382501114,234.90099171796248 370.0943878966897,219.16426576663775 401.5678397993392,210.07866280247703 419.7390457276606,225.81538875380176" />
</svg>
