<?xml version="1.0" encoding="UTF-8"?>
<svg
  xmlns="http://www.w3.org/2000/svg"
  width="848"
  height="600"
  style="background-color:white"
>
  <polygon fill="lightblue" points="342.93349196723375,537.868351041801 219.1112201336853,430.6351180796456 505.06650803276625,348.08693685727997 628.8887798663147,455.32016981943525" />
  <polygon fill="steelblue" points="219.1112201336853,430.6351180796456 219.1112201336853,144.67983018056472 505.06650803276625,62.13164895819901 505.06650803276625,348.08693685727997" />
  <polygon fill="lightskyblue" points="628.8887798663147,455.32016981943525 628.8887798663147,169.36488192035435 505.06650803276625,62.13164895819901 505.06650803276625,348.08693685727997" />
  <polygon fill="white" points="579.3598711328953,412.42687663457315 579.3598711328953,269.4492326850327 554.5954167661856,248.00258609260163 554.5954167661856,390.98023004214207" />
  <polygon fill="white" points="242.08977005414715,366.8107245087465 242.08977005414715,309.6196669289303 277.83418104153225,299.3011442761346 277.83418104153225,356.4922018559508" />
  <polygon fill="white" points="282.9405254683016,355.01812719126565 282.9405254683016,297.8270696114495 318.6849364556867,287.50854695865377 318.6849364556867,344.69960453846994" />
  <polygon fill="white" points="323.791280882456,343.22552987378486 323.791280882456,286.0344722939687 359.5356918698411,275.715949641173 359.5356918698411,332.90700722098916" />
  <polygon fill="white" points="364.6420362966104,331.432932556304 364.6420362966104,274.24187497648785 400.3864472839955,263.92335232369214 400.3864472839955,321.1144099035083" />
  <polygon fill="white" points="405.49279171076483,319.64033523882324 405.4927917107648,262.44927765900707 441.23720269814993,252.13075500621133 441.23720269814993,309.32181258602753" />
  <polygon fill="white" points="446.3435471249192,307.8477379213424 446.3435471249192,250.65668034152623 482.08795811230436,240.33815768873052 482.08795811230436,297.5292152685467" />
  <polygon fill="antiquewhite" points="483.5346505462064,450.8379710175027 483.5346505462064,329.3069736603933 512.1301793361145,321.0521555381567 512.1301793361145,442.5831528952661" />
  <polygon fill="beige" points="483.5346505462064,450.8379710175027 483.5346505462064,329.3069736603933 467.0250143017333,315.0092092654392 467.0250143017333,436.5402066225486" />
  <polygon fill="bisque" points="483.5346505462064,329.3069736603933 467.0250143017333,315.0092092654392 495.62054309164137,306.75439114320267 512.1301793361145,321.0521555381567" />
  <polygon fill="antiquewhite" points="360.5445249145649,516.517484017151 360.5445249145649,394.9864866600416 389.14005370447296,386.731668537805 389.14005370447296,508.26266589491445" />
  <polygon fill="beige" points="360.5445249145649,516.517484017151 360.5445249145649,394.9864866600416 344.03488867009173,380.6887222650875 344.03488867009173,502.21971962219686" />
  <polygon fill="bisque" points="360.5445249145649,394.9864866600416 344.03488867009173,380.6887222650875 372.6304174599998,372.43390414285096 389.14005370447296,386.731668537805" />
  <polygon fill="antiquewhite" points="461.3040800867368,380.64690623857274 461.3040800867368,259.1159088814633 489.89960887664495,250.86109075922676 489.89960887664495,372.39208811633614" />
  <polygon fill="beige" points="461.3040800867368,380.64690623857274 461.3040800867368,259.1159088814633 444.79444384226366,244.81814448650928 444.79444384226366,366.34914184361867" />
  <polygon fill="bisque" points="461.3040800867368,259.1159088814633 444.79444384226366,244.81814448650928 473.3899726321718,236.5633263642727 489.89960887664495,250.86109075922676" />
  <polygon fill="antiquewhite" points="428.5115129005234,411.9482569699182 428.5115129005234,290.4172596128088 457.1070416904315,282.16244149057223 457.1070416904315,403.6934388476816" />
  <polygon fill="beige" points="428.5115129005234,411.9482569699182 428.5115129005234,290.4172596128088 412.0018766560503,276.11949521785476 412.0018766560503,397.6504925749641" />
  <polygon fill="bisque" points="428.5115129005234,290.4172596128088 412.0018766560503,276.11949521785476 440.5974054459584,267.86467709561816 457.1070416904315,282.16244149057223" />
  <polygon fill="antiquewhite" points="391.53313733339985,398.1290340833743 391.53313733339985,276.5980367262649 420.128666123308,268.3432186040283 420.128666123308,389.87421596113774" />
  <polygon fill="beige" points="391.53313733339985,398.1290340833743 391.53313733339985,276.5980367262649 375.0235010889267,262.30027233131085 375.0235010889267,383.83126968842026" />
  <polygon fill="bisque" points="391.53313733339985,276.5980367262649 375.0235010889267,262.30027233131085 403.61902987883485,254.04545420907428 420.128666123308,268.3432186040283" />
</svg>
