<?xml version="1.0" encoding="UTF-8"?>
<svg
  xmlns="http://www.w3.org/2000/svg"
  width="848"
  height="600"
  style="background-color:white"
>
  <polygon fill="lightblue" points="363.8619154992025,529.4924039935062 272.00605014483335,449.9428911100196 484.13808450079756,388.70564754044017 575.9939498551668,468.2551604239268" />
  <polygon fill="steelblue" points="272.00605014483335,449.9428911100196 272.00605014483324,131.74483957607325 484.1380845007975,70.5075960064938 484.13808450079756,388.70564754044017" />
  <polygon fill="lightskyblue" points="575.9939498551668,468.2551604239268 575.9939498551666,150.05710888998038 484.1380845007975,70.5075960064938 484.13808450079756,388.70564754044017" />
  <polygon fill="white" points="539.2516037134191,436.4353552705321 539.2516037134191,330.36933809255 520.8804306425452,314.45943551585265 520.8804306425452,420.52545269383484" />
  <polygon fill="white" points="294.10313705691294,401.1376047003289 294.1031370569129,358.71119782913604 320.6196413514084,351.05654238293863 320.6196413514084,393.4829492541315" />
  <polygon fill="white" points="329.45847611624026,390.93139743873235 329.45847611624026,348.5049905675395 355.97498041073584,340.850335121342 355.97498041073584,383.2767419925349" />
  <polygon fill="white" points="364.81381517556764,380.72519017713574 364.81381517556764,338.2987833059429 391.33031947006316,330.6441278597455 391.33031947006316,373.07053473093833" />
  <polygon fill="white" points="400.169154234895,370.5189829155392 400.169154234895,328.0925760443463 426.68565852939054,320.4379205981489 426.68565852939054,362.86432746934173" />
  <polygon fill="white" points="435.5244932942224,360.3127756539426 435.5244932942224,317.88636878274974 462.0409975887179,310.23171333655233 462.0409975887179,352.6581202077452" />
</svg>
