<?xml version="1.0" encoding="UTF-8"?>
<svg
  xmlns="http://www.w3.org/2000/svg"
  width="848"
  height="600"
  style="background-color:white"
>
  <polygon fill="lightblue" points="353.1818822381872,570.2483829733239 245.01316446513158,476.5715254870684 494.8181177618128,404.459046971698 602.9868355348685,498.13590445795353" />
  <polygon fill="steelblue" points="245.01316446513158,476.5715254870684 245.01316446513152,101.8640955420465 494.8181177618128,29.751617026676115 494.8181177618128,404.459046971698" />
  <polygon fill="lightskyblue" points="602.9868355348685,498.13590445795353 602.9868355348684,123.42847451293159 494.8181177618128,29.751617026676115 494.8181177618128,404.459046971698" />
  <polygon fill="white" points="559.7193484256462,460.66516146345134 559.7193484256462,335.7626848151106 538.0856048710351,317.0273133178595 538.0856048710351,441.92978996620025" />
  <polygon fill="white" points="279.3613455434253,416.69506903186874 279.3613455434253,366.73407837253245 310.5869647055104,357.7200185581112 310.5869647055104,407.68100921744747" />
  <polygon fill="white" points="329.3223362027615,402.27257332879464 329.3223362027615,352.3115826694584 360.54795536484664,343.2975228550371 360.54795536484664,393.25851351437336" />
  <polygon fill="white" points="379.28332686209774,387.8500776257206 379.28332686209774,337.8890869663843 410.50894602418293,328.87502715196297 410.50894602418293,378.83601781129926" />
  <polygon fill="white" points="429.244317521434,373.4275819226465 429.244317521434,323.4665912633102 460.46993668351917,314.4525314488889 460.46993668351917,364.41352210822515" />
  <polygon fill="antiquewhite" points="476.0083076920682,494.2203431455207 476.0083076920681,388.05323799443113 500.9888030217363,380.8419901428941 500.9888030217363,487.00909529398365" />
  <polygon fill="beige" points="476.0083076920682,494.2203431455207 476.0083076920681,388.05323799443113 461.58581198899407,375.5629903295971 461.58581198899407,481.7300954806866" />
  <polygon fill="bisque" points="476.0083076920681,388.05323799443113 461.58581198899407,375.5629903295971 486.5663073186622,368.35174247806003 500.9888030217363,380.8419901428941" />
  <polygon fill="antiquewhite" points="368.566536584803,551.5966826354072 368.5665365848029,445.42957748431763 393.54703191447106,438.21832963278064 393.54703191447106,544.3854347838702" />
  <polygon fill="beige" points="368.566536584803,551.5966826354072 368.5665365848029,445.42957748431763 354.14404088172887,432.9393298194836 354.14404088172887,539.1064349705731" />
  <polygon fill="bisque" points="368.5665365848029,445.42957748431763 354.14404088172887,432.9393298194836 379.12453621139696,425.72808196794654 393.54703191447106,438.21832963278064" />
</svg>
