<?xml version="1.0" encoding="UTF-8"?>
<svg
  xmlns="http://www.w3.org/2000/svg"
  width="848"
  height="600"
  style="background-color:white"
>
  <polygon fill="lightblue" points="353.1818822381872,570.2483829733239 245.01316446513158,476.5715254870684 494.8181177618128,404.459046971698 602.9868355348685,498.13590445795353" />
  <polygon fill="steelblue" points="245.01316446513158,476.5715254870684 245.01316446513152,101.8640955420465 494.8181177618128,29.751617026676115 494.8181177618128,404.459046971698" />
  <polygon fill="lightskyblue" points="602.9868355348685,498.13590445795353 602.9868355348684,123.42847451293159 494.8181177618128,29.751617026676115 494.8181177618128,404.459046971698" />
  <polygon fill="white" points="559.7193484256462,460.66516146345134 559.7193484256462,335.7626848151106 538.0856048710351,317.0273133178595 538.0856048710351,441.92978996620025" />
  <polygon fill="white" points="265.08677678361494,420.8157820898899 265.0867767836149,370.85479143055363 296.3123959457,361.84073161613236 296.3123959457,411.8017222754686" />
  <polygon fill="white" points="300.7731986831408,410.513999444837 300.7731986831408,360.5530087855007 331.9988178452259,351.53894897107944 331.9988178452259,401.49993963041567" />
  <polygon fill="white" points="336.4596205826667,400.2122167997841 336.4596205826667,350.2512261404478 367.6852397447518,341.2371663260265 367.6852397447518,391.19815698536274" />
  <polygon fill="white" points="372.14604248219257,389.91043415473115 372.14604248219257,339.9494434953949 403.3716616442777,330.9353836809736 403.3716616442777,380.8963743403099" />
  <polygon fill="white" points="407.8324643817184,379.6086515096782 407.8324643817184,329.647660850342 439.0580835438036,320.63360103592066 439.0580835438036,370.59459169525695" />
  <polygon fill="white" points="443.51888628124436,369.3068688646253 443.51888628124436,319.34587820528907 474.7445054433295,310.33181839086774 474.7445054433295,360.292809050204" />
  <polygon fill="antiquewhite" points="476.0083076920682,494.2203431455207 476.0083076920681,388.05323799443113 500.9888030217363,380.8419901428941 500.9888030217363,487.00909529398365" />
  <polygon fill="beige" points="476.0083076920682,494.2203431455207 476.0083076920681,388.05323799443113 461.58581198899407,375.5629903295971 461.58581198899407,481.7300954806866" />
  <polygon fill="bisque" points="476.0083076920681,388.05323799443113 461.58581198899407,375.5629903295971 486.5663073186622,368.35174247806003 500.9888030217363,380.8419901428941" />
  <polygon fill="antiquewhite" points="368.566536584803,551.5966826354072 368.5665365848029,445.42957748431763 393.54703191447106,438.21832963278064 393.54703191447106,544.3854347838702" />
  <polygon fill="beige" points="368.566536584803,551.5966826354072 368.5665365848029,445.42957748431763 354.14404088172887,432.9393298194836 354.14404088172887,539.1064349705731" />
  <polygon fill="bisque" points="368.5665365848029,445.42957748431763 354.14404088172887,432.9393298194836 379.12453621139696,425.72808196794654 393.54703191447106,438.21832963278064" />
</svg>
