<?xml version="1.0" encoding="UTF-8"?>
<svg
  xmlns="http://www.w3.org/2000/svg"
  width="848"
  height="600"
  style="background-color:white"
>
  <polygon fill="lightblue" points="353.1818822381872,570.2483829733239 245.01316446513158,476.5715254870684 494.8181177618128,404.459046971698 602.9868355348685,498.13590445795353" />
  <polygon fill="steelblue" points="245.01316446513158,476.5715254870684 245.01316446513152,101.8640955420465 494.8181177618128,29.751617026676115 494.8181177618128,404.459046971698" />
  <polygon fill="lightskyblue" points="602.9868355348685,498.13590445795353 602.9868355348684,123.42847451293159 494.8181177618128,29.751617026676115 494.8181177618128,404.459046971698" />
  <polygon fill="white" points="279.3613455434253,416.69506903186874 279.3613455434253,366.73407837253245 310.5869647055104,357.7200185581112 310.5869647055104,407.68100921744747" />
  <polygon fill="white" points="329.3223362027615,402.27257332879464 329.3223362027615,352.3115826694584 360.54795536484664,343.2975228550371 360.54795536484664,393.25851351437336" />
  <polygon fill="white" points="379.28332686209774,387.8500776257206 379.28332686209774,337.8890869663843 410.50894602418293,328.87502715196297 410.50894602418293,378.83601781129926" />
  <polygon fill="white" points="429.244317521434,373.4275819226465 429.244317521434,323.4665912633102 460.46993668351917,314.4525314488889 460.46993668351917,364.41352210822515" />
  <polygon fill="hsl(324.0,50.0%,54.496445229397835%)" points="440.0397935325876,492.3081619517002 440.0397935325876,449.41665147066004 447.53394213148806,447.2532771151989 447.53394213148806,490.1447875962391" />
  <polygon fill="hsl(324.0,50.0%,54.496445229397835%)" points="458.7751650298387,486.8997260630474 458.7751650298387,444.00821558200727 451.2810164309382,446.17158993746835 451.2810164309382,489.06310041850855" />
  <polygon fill="hsl(324.0,50.0%,54.496445229397835%)" points="432.5456449336872,452.00469424672553 432.5456449336872,409.5378521862897 439.10302495772504,407.6448996252612 439.10302495772504,450.111741685697" />
  <polygon fill="hsl(324.0,50.0%,54.496445229397835%)" points="459.71193360470124,444.16246220817897 459.71193360470124,401.6956201477431 466.26931362873916,399.8026675867146 466.26931362873916,442.26950964715047" />
  <polygon fill="hsl(324.0,50.0%,54.496445229397835%)" points="439.10302495772504,414.20227964929904 439.10302495772504,407.6448996252612 459.71193360470124,401.6956201477431 459.71193360470124,408.253000171781" />
  <polygon fill="hsl(324.0,50.0%,54.496445229397835%)" points="440.0397935325876,449.84131989126433 440.0397935325876,407.37447783082854 458.7751650298387,401.96604194217576 458.7751650298387,444.4328840026116" />
  <polygon fill="hsl(324.0,50.0%,54.496445229397835%)" points="444.72363640690037,403.8990267556436 444.72363640690037,384.7889478284475 454.0913221555259,382.0847298841211 454.0913221555259,401.19480881131716" />
  <polygon fill="hsl(324.0,50.0%,54.496445229397835%)" points="446.5971735566255,405.48152526980004 446.5971735566255,384.2481042395822 452.2177850058008,382.62557347298633 452.2177850058008,403.85899450320426" />
</svg>
