<?xml version="1.0" encoding="UTF-8"?>
<svg
  xmlns="http://www.w3.org/2000/svg"
  width="848"
  height="600"
  style="background-color:white"
>
  <polygon fill="lightblue" points="334.774762717958,522.4661817732066 198.49071825554756,404.44073713827123 513.2252372820419,313.5847074966642 649.5092817444524,431.61015213159965" />
  <polygon fill="steelblue" points="198.49071825554756,404.44073713827123 198.49071825554756,168.38984786840038 513.2252372820419,77.53381822679339 513.2252372820419,313.5847074966642" />
  <polygon fill="lightskyblue" points="649.5092817444524,431.61015213159965 649.5092817444524,195.55926286172877 513.2252372820419,77.53381822679339 513.2252372820419,313.5847074966642" />
  <polygon fill="white" points="594.9956639594882,384.39997427762546 594.9956639594882,227.03271476437823 567.7388550670062,203.42762583739113 567.7388550670062,360.79488535063837" />
  <polygon fill="white" points="257.50344057301527,324.458327775171 257.50344057301527,261.5114239698721 296.84525545132703,250.15442026467124 296.84525545132703,313.10132406997013" />
  <polygon fill="white" points="336.18707032963886,301.74432036476924 336.18707032963886,238.79741655947035 375.5288852079507,227.44041285426948 375.5288852079507,290.3873166595684" />
  <polygon fill="white" points="414.8707000862625,279.0303129543675 414.8707000862625,216.0834091490686 454.21251496457427,204.72640544386775 454.21251496457427,267.6733092491666" />
  <polygon fill="hsl(288.0,50.0%,54.496445229397835%)" points="444.20887350767475,424.267656674604 444.20887350767475,370.22773975775493 453.6509090784696,367.5020588685067 453.6509090784696,421.5419757853558" />
  <polygon fill="hsl(288.0,50.0%,54.496445229397835%)" points="467.81396243466185,417.4534544514835 467.81396243466185,363.4135375346344 458.371926863867,366.1392184238826 458.371926863867,420.1791353407317" />
  <polygon fill="hsl(288.0,50.0%,54.496445229397835%)" points="434.76683793687994,373.48846932934816 434.76683793687994,319.9836010948441 443.0286190613254,317.59863031675195 443.0286190613254,371.103498551256" />
  <polygon fill="hsl(288.0,50.0%,54.496445229397835%)" points="468.9942168810112,363.6078761058234 468.9942168810112,310.10300787131933 477.25599800545666,307.71803709322717 477.25599800545666,361.2229053277312" />
  <polygon fill="hsl(288.0,50.0%,54.496445229397835%)" points="443.0286190613254,325.8604114411974 443.0286190613254,317.59863031675195 468.9942168810112,310.10300787131933 468.9942168810112,318.3647889957648" />
  <polygon fill="hsl(288.0,50.0%,54.496445229397835%)" points="444.20887350767475,370.76278844009994 444.20887350767475,317.2579202055959 467.81396243466185,310.4437179824754 467.81396243466185,363.94858621697944" />
  <polygon fill="hsl(288.0,50.0%,54.496445229397835%)" points="450.1101457394215,312.8791262380906 450.1101457394215,288.80193553256373 461.9126902029151,285.3948344210035 461.9126902029151,309.4720251265303" />
  <polygon fill="hsl(288.0,50.0%,54.496445229397835%)" points="452.4706546321202,314.8729494275037 452.4706546321202,288.1205153102517 459.5521813102163,286.07625464331556 459.5521813102163,312.82868876056756" />
</svg>
