<?xml version="1.0" encoding="UTF-8"?>
<svg
  xmlns="http://www.w3.org/2000/svg"
  width="848"
  height="600"
  style="background-color:white"
>
  <polygon fill="lightblue" points="348.74452030702633,553.9995881937241 233.7981054479934,454.4530728518565 499.25547969297367,377.8221296125012 614.2018945520067,477.36864495436885" />
  <polygon fill="steelblue" points="233.7981054479934,454.4530728518565 233.79810544799335,122.63135504563118 499.25547969297367,46.00041180627588 499.25547969297367,377.8221296125012" />
  <polygon fill="lightskyblue" points="614.2018945520067,477.36864495436885 614.2018945520066,145.54692714814348 499.25547969297367,46.00041180627588 499.25547969297367,377.8221296125012" />
  <polygon fill="white" points="261.4499152651788,393.3792080820943 261.4499152651788,340.28773323309827 294.6320870458013,330.70886532817883 294.63208704580137,383.8003401771749" />
  <polygon fill="white" points="305.69281097267555,380.60738420886844 305.69281097267555,327.51590935987235 338.87498275329807,317.9370414549529 338.87498275329807,371.028516303949" />
  <polygon fill="white" points="349.93570668017225,367.8355603356425 349.93570668017225,314.74408548664644 383.11787846079477,305.16521758172706 383.11787846079477,358.2566924307231" />
  <polygon fill="white" points="394.17860238766895,355.0637364624166 394.17860238766895,301.9722616134206 427.36077416829147,292.39339370850115 427.3607741682915,345.48486855749724" />
  <polygon fill="white" points="438.42149809516565,342.29191258919076 438.42149809516565,289.2004377401947 471.6036698757882,279.6215698352753 471.6036698757882,332.7130446842713" />
  <polygon fill="hsl(360.0,50.0%,54.496445229397835%)" points="441.04482404532405,471.17574444110903 441.04482404532405,425.5967132832459 449.0085452726735,423.29778498606527 449.0085452726735,468.8768161439284" />
  <polygon fill="hsl(360.0,50.0%,54.496445229397835%)" points="460.95412711369755,465.4284236981574 460.95412711369755,419.8493925402943 452.9904058863481,422.1483208374749 452.9904058863481,467.72735199533804" />
  <polygon fill="hsl(360.0,50.0%,54.496445229397835%)" points="433.0811028179746,428.346919116643 433.0811028179746,383.2191654949964 440.04935889190534,381.2076032349633 440.04935889190534,426.33535685660996" />
  <polygon fill="hsl(360.0,50.0%,54.496445229397835%)" points="461.94959226711626,420.01330403936316 461.94959226711626,374.8855504177165 468.917848341047,372.8739881576834 468.917848341047,418.0017417793301" />
  <polygon fill="hsl(360.0,50.0%,54.496445229397835%)" points="440.04935889190534,388.175859308894 440.04935889190534,381.2076032349633 461.94959226711626,374.8855504177165 461.94959226711626,381.8538064916472" />
  <polygon fill="hsl(360.0,50.0%,54.496445229397835%)" points="441.04482404532405,426.04799081946237 441.04482404532405,380.9202371978157 460.95412711369755,375.1729164548641 460.95412711369755,420.30067007651076" />
  <polygon fill="hsl(360.0,50.0%,54.496445229397835%)" points="446.0221498124174,377.2270193309955 446.0221498124174,356.91953020125453 455.9768013466042,354.04586982977867 455.9768013466042,374.35335895951965" />
  <polygon fill="hsl(360.0,50.0%,54.496445229397835%)" points="448.01308011925477,378.9086749377826 448.01308011925477,356.34479812695935 453.98587103976683,354.62060190407385 453.98587103976683,377.1844787148972" />
</svg>
