<?xml version="1.0" encoding="UTF-8"?>
<svg
  xmlns="http://www.w3.org/2000/svg"
  width="848"
  height="600"
  style="background-color:white"
>
  <polygon fill="lightblue" points="342.93349196723375,537.868351041801 219.1112201336853,430.6351180796456 505.06650803276625,348.08693685727997 628.8887798663147,455.32016981943525" />
  <polygon fill="steelblue" points="219.1112201336853,430.6351180796456 219.1112201336853,144.67983018056472 505.06650803276625,62.13164895819901 505.06650803276625,348.08693685727997" />
  <polygon fill="lightskyblue" points="628.8887798663147,455.32016981943525 628.8887798663147,169.36488192035435 505.06650803276625,62.13164895819901 505.06650803276625,348.08693685727997" />
  <polygon fill="white" points="579.3598711328953,412.42687663457315 579.3598711328953,269.4492326850327 554.5954167661856,248.00258609260163 554.5954167661856,390.98023004214207" />
  <polygon fill="white" points="248.89822928983955,364.84529162249964 248.89822928983955,307.65423404268347 284.64264027722464,297.33571138988776 284.6426402772247,354.526768969704" />
  <polygon fill="white" points="296.5574439396864,351.0872614187721 296.5574439396864,293.8962038389559 332.3018549270715,283.5776811861602 332.3018549270715,340.76873876597637" />
  <polygon fill="white" points="344.2166585895332,337.32923121504444 344.2166585895332,280.13817363522827 379.9610695769183,269.81965098243256 379.9610695769183,327.01070856224874" />
  <polygon fill="white" points="391.87587323938,323.5712010113168 391.87587323938,266.38014343150064 427.62028422676514,256.06162077870493 427.62028422676514,313.2526783585211" />
  <polygon fill="white" points="439.5350878892268,309.81317080758924 439.5350878892268,252.62211322777304 475.2794988766119,242.3035905749773 475.2794988766119,299.49464815479354" />
</svg>
