<?xml version="1.0" encoding="UTF-8"?>
<svg
  xmlns="http://www.w3.org/2000/svg"
  width="848"
  height="600"
  style="background-color:white"
>
  <polygon fill="lightblue" points="325.7949192431123,631.4582562299425 175.79491924311233,501.55444566227675 522.2050807568877,401.55444566227675 672.2050807568878,531.4582562299425" />
  <polygon fill="steelblue" points="175.79491924311233,501.55444566227675 175.79491924311225,68.54174377005745 522.2050807568877,-31.45825622994255 522.2050807568877,401.55444566227675" />
  <polygon fill="lightskyblue" points="672.2050807568878,531.4582562299425 672.2050807568877,98.44555433772325 522.2050807568877,-31.45825622994255 522.2050807568877,401.55444566227675" />
  <polygon fill="white" points="612.2050807568878,479.49673200287623 612.2050807568877,306.2916512459885 582.2050807568877,280.3108891324553 582.2050807568877,453.51596988934307" />
  <polygon fill="white" points="203.63145007904066,424.23669907380736 203.63145007904066,354.9546667710523 246.93272026826259,342.4546667710523 246.93272026826259,411.73669907380736" />
  <polygon fill="white" points="253.11861600958002,409.95098478809314 253.11861600958002,340.66895248533797 296.4198861988019,328.16895248533797 296.4198861988019,397.45098478809314" />
  <polygon fill="white" points="302.60578194011936,395.6652705023788 302.60578194011936,326.3832381996237 345.9070521293413,313.8832381996237 345.9070521293413,383.1652705023788" />
  <polygon fill="white" points="352.0929478706587,381.3795562166645 352.0929478706587,312.0975239139094 395.39421805988064,299.5975239139094 395.39421805988064,368.8795562166645" />
  <polygon fill="white" points="401.580113801198,367.09384193095025 401.580113801198,297.81180962819514 444.88138399042,285.31180962819514 444.88138399042,354.59384193095025" />
  <polygon fill="white" points="451.0672797317374,352.80812764523597 451.0672797317374,283.52609534248086 494.3685499209593,271.02609534248086 494.3685499209593,340.30812764523597" />
</svg>
