<?xml version="1.0" encoding="UTF-8"?>
<svg
  xmlns="http://www.w3.org/2000/svg"
  width="848"
  height="600"
  style="background-color:white"
>
  <polygon fill="lightblue" points="348.74452030702633,553.9995881937241 233.7981054479934,454.4530728518565 499.25547969297367,377.8221296125012 614.2018945520067,477.36864495436885" />
  <polygon fill="steelblue" points="233.7981054479934,454.4530728518565 233.79810544799335,122.63135504563118 499.25547969297367,46.00041180627588 499.25547969297367,377.8221296125012" />
  <polygon fill="lightskyblue" points="614.2018945520067,477.36864495436885 614.2018945520066,145.54692714814348 499.25547969297367,46.00041180627588 499.25547969297367,377.8221296125012" />
  <polygon fill="white" points="549.0655927985547,420.9589529273105 549.0655927985546,288.23026580482036 526.076309826748,268.32096273644686 526.076309826748,401.04964985893696" />
  <polygon fill="white" points="587.3810644182323,454.14112470793305 587.3810644182322,321.4124375854429 564.3917814464257,301.5031345170694 564.3917814464257,434.2318216395595" />
  <polygon fill="white" points="270.2984944066782,390.82484330744916 270.2984944066782,337.73336845845307 303.4806661873007,328.15450055353364 303.4806661873007,381.2459754025297" />
  <polygon fill="white" points="323.38996925567426,375.49865465957805 323.3899692556742,322.40717981058197 356.5721410362968,312.8283119056626 356.5721410362968,365.9197867546586" />
  <polygon fill="white" points="376.48144410467035,360.172466011707 376.48144410467035,307.0809911627109 409.66361588529287,297.5021232577915 409.66361588529287,350.59359810678757" />
  <polygon fill="white" points="429.5729189536664,344.8462773638359 429.5729189536664,291.75480251483987 462.7550907342889,282.17593460992043 462.7550907342889,335.2674094589165" />
  <polygon fill="hsl(324.0,50.0%,54.496445229397835%)" points="441.04482404532405,471.17574444110903 441.04482404532405,425.5967132832459 449.0085452726735,423.29778498606527 449.0085452726735,468.8768161439284" />
  <polygon fill="hsl(324.0,50.0%,54.496445229397835%)" points="460.95412711369755,465.4284236981574 460.95412711369755,419.8493925402943 452.9904058863481,422.1483208374749 452.9904058863481,467.72735199533804" />
  <polygon fill="hsl(324.0,50.0%,54.496445229397835%)" points="433.0811028179746,428.346919116643 433.0811028179746,383.2191654949964 440.04935889190534,381.2076032349633 440.04935889190534,426.33535685660996" />
  <polygon fill="hsl(324.0,50.0%,54.496445229397835%)" points="461.94959226711626,420.01330403936316 461.94959226711626,374.8855504177165 468.917848341047,372.8739881576834 468.917848341047,418.0017417793301" />
  <polygon fill="hsl(324.0,50.0%,54.496445229397835%)" points="440.04935889190534,388.175859308894 440.04935889190534,381.2076032349633 461.94959226711626,374.8855504177165 461.94959226711626,381.8538064916472" />
  <polygon fill="hsl(324.0,50.0%,54.496445229397835%)" points="441.04482404532405,426.04799081946237 441.04482404532405,380.9202371978157 460.95412711369755,375.1729164548641 460.95412711369755,420.30067007651076" />
  <polygon fill="hsl(324.0,50.0%,54.496445229397835%)" points="446.0221498124174,377.2270193309955 446.0221498124174,356.91953020125453 455.9768013466042,354.04586982977867 455.9768013466042,374.35335895951965" />
  <polygon fill="hsl(324.0,50.0%,54.496445229397835%)" points="448.01308011925477,378.9086749377826 448.01308011925477,356.34479812695935 453.98587103976683,354.62060190407385 453.98587103976683,377.1844787148972" />
</svg>
