<?xml version="1.0" encoding="UTF-8"?>
<svg
  xmlns="http://www.w3.org/2000/svg"
  width="848"
  height="600"
  style="background-color:white"
>
  <polygon fill="lightblue" points="325.7949192431123,544.8557158514986 175.79491924311228,414.95190528383296 522.2050807568877,314.9519052838329 672.2050807568877,444.85571585149864" />
  <polygon fill="steelblue" points="175.79491924311228,414.95190528383296 175.79491924311228,155.14428414850133 522.2050807568877,55.1442841485013 522.2050807568877,314.9519052838329" />
  <polygon fill="lightskyblue" points="672.2050807568877,444.85571585149864 672.2050807568877,185.04809471616707 522.2050807568877,55.1442841485013 522.2050807568877,314.9519052838329" />
  <polygon fill="white" points="612.2050807568877,392.8941916244323 612.2050807568877,219.68911086754463 582.2050807568877,193.70834875401147 582.2050807568877,366.9134295108992" />
  <polygon fill="white" points="211.87931106746387,335.25320631441116 211.87931106746387,265.97117401165605 255.1805812566858,253.47117401165605 255.1805812566858,322.75320631441116" />
  <polygon fill="white" points="269.61433798642645,318.5865396477445 269.61433798642645,249.3045073449894 312.9156081756484,236.8045073449894 312.9156081756484,306.0865396477445" />
  <polygon fill="white" points="327.34936490538905,301.9198729810778 327.34936490538905,232.6378406783227 370.65063509461095,220.1378406783227 370.65063509461095,289.4198729810778" />
  <polygon fill="white" points="385.0843918243516,285.25320631441116 385.0843918243516,215.97117401165605 428.3856620135735,203.47117401165605 428.3856620135735,272.7532063144111" />
  <polygon fill="white" points="442.81941874331415,268.5865396477445 442.81941874331415,199.30450734498936 486.1206889325361,186.80450734498936 486.1206889325361,256.0865396477445" />
</svg>
