<?xml version="1.0" encoding="UTF-8"?>
<svg
  xmlns="http://www.w3.org/2000/svg"
  width="848"
  height="600"
  style="background-color:white"
>
  <polygon fill="lightblue" points="353.1818822381872,570.2483829733239 245.01316446513158,476.5715254870684 494.8181177618128,404.459046971698 602.9868355348685,498.13590445795353" />
  <polygon fill="steelblue" points="245.01316446513158,476.5715254870684 245.01316446513152,101.8640955420465 494.8181177618128,29.751617026676115 494.8181177618128,404.459046971698" />
  <polygon fill="lightskyblue" points="602.9868355348685,498.13590445795353 602.9868355348684,123.42847451293159 494.8181177618128,29.751617026676115 494.8181177618128,404.459046971698" />
  <polygon fill="white" points="541.6912287968037,445.05235188240874 541.6912287968036,320.1498752340681 520.0574852421925,301.414503736817 520.0574852421925,426.31698038515765" />
  <polygon fill="white" points="577.7474680544888,476.2779710444939 577.7474680544888,351.3754943961532 556.1137244998777,332.6401228989021 556.1137244998777,457.5425995472428" />
  <polygon fill="white" points="291.8515932082593,413.08944510610024 291.85159320825926,363.12845444676395 323.07721237034445,354.1143946323426 323.07721237034445,404.0753852916789" />
  <polygon fill="white" points="354.30283153242965,395.0613254772576 354.30283153242965,345.10033481792135 385.5284506945148,336.0862750035 385.5284506945148,386.0472656628363" />
  <polygon fill="white" points="416.7540698565999,377.03320584841504 416.7540698565999,327.07221518907875 447.97968901868506,318.0581553746574 447.9796890186851,368.0191460339937" />
  <polygon fill="grey" points="481.62061822857027,98.09435324905922 481.62061822857027,66.86873408697409 512.8462373906555,57.85467427255276 512.8462373906555,89.08029343463792" />
  <polygon fill="lightgrey" points="481.62061822857027,98.09435324905922 481.62061822857027,66.86873408697409 463.59249859972766,51.25592450593149 463.59249859972766,82.48154366801663" />
  <polygon fill="darkgrey" points="481.62061822857027,66.86873408697409 463.59249859972766,51.25592450593149 494.8181177618128,42.24186469151016 512.8462373906555,57.85467427255276" />
  <polygon fill="hsl(360.0,50.0%,54.496445229397835%)" points="440.0397935325876,492.3081619517002 440.0397935325876,449.41665147066004 447.53394213148806,447.2532771151989 447.53394213148806,490.1447875962391" />
  <polygon fill="hsl(360.0,50.0%,54.496445229397835%)" points="458.7751650298387,486.8997260630474 458.7751650298387,444.00821558200727 451.2810164309382,446.17158993746835 451.2810164309382,489.06310041850855" />
  <polygon fill="hsl(360.0,50.0%,54.496445229397835%)" points="432.5456449336872,452.00469424672553 432.5456449336872,409.5378521862897 439.10302495772504,407.6448996252612 439.10302495772504,450.111741685697" />
  <polygon fill="hsl(360.0,50.0%,54.496445229397835%)" points="459.71193360470124,444.16246220817897 459.71193360470124,401.6956201477431 466.26931362873916,399.8026675867146 466.26931362873916,442.26950964715047" />
  <polygon fill="hsl(360.0,50.0%,54.496445229397835%)" points="439.10302495772504,414.20227964929904 439.10302495772504,407.6448996252612 459.71193360470124,401.6956201477431 459.71193360470124,408.253000171781" />
  <polygon fill="hsl(360.0,50.0%,54.496445229397835%)" points="440.0397935325876,449.84131989126433 440.0397935325876,407.37447783082854 458.7751650298387,401.96604194217576 458.7751650298387,444.4328840026116" />
  <polygon fill="hsl(360.0,50.0%,54.496445229397835%)" points="444.72363640690037,403.8990267556436 444.72363640690037,384.7889478284475 454.0913221555259,382.0847298841211 454.0913221555259,401.19480881131716" />
  <polygon fill="hsl(360.0,50.0%,54.496445229397835%)" points="446.5971735566255,405.48152526980004 446.5971735566255,384.2481042395822 452.2177850058008,382.62557347298633 452.2177850058008,403.85899450320426" />
</svg>
