<?xml version="1.0" encoding="UTF-8"?>
<svg
  xmlns="http://www.w3.org/2000/svg"
  width="848"
  height="600"
  style="background-color:white"
>
  <polygon fill="lightblue" points="358.1220291075228,522.3489577901084 257.49897012003225,435.2068325004415 489.87797089247726,368.1247931754478 590.5010298799677,455.2669184651147" />
  <polygon fill="steelblue" points="257.49897012003225,435.2068325004415 257.49897012003225,144.7330815348853 489.8779708924772,77.65104220989161 489.87797089247726,368.1247931754478" />
  <polygon fill="lightskyblue" points="590.5010298799677,455.2669184651147 590.5010298799677,164.79316749955848 489.8779708924772,77.65104220989161 489.87797089247726,368.1247931754478" />
  <polygon fill="white" points="550.2518062849715,420.4100683492479 550.2518062849715,304.2205679630255 530.1271944874734,286.7921429050921 530.1271944874734,402.9816432913146" />
  <polygon fill="white" points="281.7051160338286,381.7433199162657 281.7051160338286,335.2675197617767 310.7524911303842,326.88226484615245 310.7524911303842,373.3580650006415" />
  <polygon fill="white" points="320.43494949590274,370.56298002876673 320.43494949590274,324.08717987427775 349.4823245924584,315.70192495865354 349.4823245924584,362.1777251131425" />
  <polygon fill="white" points="359.1647829579769,359.3826401412678 359.1647829579769,312.9068399867788 388.21215805453255,304.52158507115456 388.21215805453255,350.9973852256436" />
  <polygon fill="white" points="397.8946164200511,348.20230025376884 397.8946164200511,301.72650009927986 426.9419915166067,293.34124518365564 426.9419915166067,339.8170453381446" />
  <polygon fill="white" points="436.62444988212525,337.02196036626987 436.62444988212525,290.5461602117809 465.6718249786809,282.16090529615667 465.6718249786809,328.63670545064565" />
</svg>
