<?xml version="1.0" encoding="UTF-8"?>
<svg
  xmlns="http://www.w3.org/2000/svg"
  width="848"
  height="600"
  style="background-color:white"
>
  <polygon fill="lightblue" points="342.93349196723375,537.868351041801 219.1112201336853,430.6351180796456 505.06650803276625,348.08693685727997 628.8887798663147,455.32016981943525" />
  <polygon fill="steelblue" points="219.1112201336853,430.6351180796456 219.1112201336853,144.67983018056472 505.06650803276625,62.13164895819901 505.06650803276625,348.08693685727997" />
  <polygon fill="lightskyblue" points="628.8887798663147,455.32016981943525 628.8887798663147,169.36488192035435 505.06650803276625,62.13164895819901 505.06650803276625,348.08693685727997" />
  <polygon fill="white" points="579.3598711328953,412.42687663457315 579.3598711328953,269.4492326850327 554.5954167661856,248.00258609260163 554.5954167661856,390.98023004214207" />
  <polygon fill="white" points="344.2166585895332,337.32923121504444 344.2166585895332,280.13817363522827 379.9610695769183,269.81965098243256 379.9610695769183,327.01070856224874" />
  <polygon fill="antiquewhite" points="483.5346505462064,450.8379710175027 483.5346505462064,329.3069736603933 512.1301793361145,321.0521555381567 512.1301793361145,442.5831528952661" />
  <polygon fill="beige" points="483.5346505462064,450.8379710175027 483.5346505462064,329.3069736603933 467.0250143017333,315.0092092654392 467.0250143017333,436.5402066225486" />
  <polygon fill="bisque" points="483.5346505462064,329.3069736603933 467.0250143017333,315.0092092654392 495.62054309164137,306.75439114320267 512.1301793361145,321.0521555381567" />
  <polygon fill="antiquewhite" points="360.5445249145649,516.517484017151 360.5445249145649,394.9864866600416 389.14005370447296,386.731668537805 389.14005370447296,508.26266589491445" />
  <polygon fill="beige" points="360.5445249145649,516.517484017151 360.5445249145649,394.9864866600416 344.03488867009173,380.6887222650875 344.03488867009173,502.21971962219686" />
  <polygon fill="bisque" points="360.5445249145649,394.9864866600416 344.03488867009173,380.6887222650875 372.6304174599998,372.43390414285096 389.14005370447296,386.731668537805" />
  <polygon fill="antiquewhite" points="461.3040800867368,380.64690623857274 461.3040800867368,259.1159088814633 489.89960887664495,250.86109075922676 489.89960887664495,372.39208811633614" />
  <polygon fill="beige" points="461.3040800867368,380.64690623857274 461.3040800867368,259.1159088814633 444.79444384226366,244.81814448650928 444.79444384226366,366.34914184361867" />
  <polygon fill="bisque" points="461.3040800867368,259.1159088814633 444.79444384226366,244.81814448650928 473.3899726321718,236.5633263642727 489.89960887664495,250.86109075922676" />
  <polygon fill="antiquewhite" points="428.5115129005234,411.9482569699182 428.5115129005234,290.4172596128088 457.1070416904315,282.16244149057223 457.1070416904315,403.6934388476816" />
  <polygon fill="beige" points="428.5115129005234,411.9482569699182 428.5115129005234,290.4172596128088 412.0018766560503,276.11949521785476 412.0018766560503,397.6504925749641" />
  <polygon fill="bisque" points="428.5115129005234,290.4172596128088 412.0018766560503,276.11949521785476 440.5974054459584,267.86467709561816 457.1070416904315,282.16244149057223" />
</svg>
