<?xml version="1.0" encoding="UTF-8"?>
<svg
  xmlns="http://www.w3.org/2000/svg"
  width="848"
  height="600"
  style="background-color:white"
>
  <polygon fill="lightblue" points="334.774762717958,522.4661817732066 198.49071825554756,404.44073713827123 513.2252372820419,313.5847074966642 649.5092817444524,431.61015213159965" />
  <polygon fill="steelblue" points="198.49071825554756,404.44073713827123 198.49071825554756,168.38984786840038 513.2252372820419,77.53381822679339 513.2252372820419,313.5847074966642" />
  <polygon fill="lightskyblue" points="649.5092817444524,431.61015213159965 649.5092817444524,195.55926286172877 513.2252372820419,77.53381822679339 513.2252372820419,313.5847074966642" />
  <polygon fill="white" points="594.9956639594882,384.39997427762546 594.9956639594882,227.03271476437823 567.7388550670062,203.42762583739113 567.7388550670062,360.79488535063837" />
  <polygon fill="white" points="241.76671462169054,329.00112925725136 241.76671462169054,266.05422545195245 281.1085295000023,254.69722174675158 281.1085295000023,317.64412555205047" />
  <polygon fill="white" points="304.7136184269894,310.82992332892997 304.7136184269894,247.88301952363105 344.0554333053012,236.52601581843018 344.0554333053012,299.47291962372907" />
  <polygon fill="white" points="367.6605222322883,292.65871740060857 367.6605222322883,229.71181359530965 407.00233711060014,218.35480989010875 407.00233711060014,281.30171369540767" />
  <polygon fill="white" points="430.6074260375872,274.4875114722871 430.6074260375872,211.54060766698825 469.949240915899,200.18360396178736 469.949240915899,263.13050776708627" />
  <polygon fill="hsl(288.0,50.0%,60.94835749876128%)" points="432.86149454248476,407.2369677756862 432.86149454248476,353.1970508588371 442.3035301132796,350.47136996958886 442.3035301132796,404.511286886438" />
  <polygon fill="hsl(288.0,50.0%,60.94835749876128%)" points="456.4665834694718,400.4227655525657 456.4665834694718,346.3828486357165 447.024547898677,349.10852952496475 447.024547898677,403.14844644181386" />
  <polygon fill="hsl(288.0,50.0%,60.94835749876128%)" points="423.4194589716899,356.4577804304303 423.4194589716899,302.9529121959263 431.68124009613535,300.5679414178341 431.68124009613535,354.07280965233815" />
  <polygon fill="hsl(288.0,50.0%,60.94835749876128%)" points="457.64683791582115,346.57718720690553 457.64683791582115,293.0723189724015 465.9086190402667,290.6873481943093 465.9086190402667,344.19221642881337" />
  <polygon fill="hsl(288.0,50.0%,60.94835749876128%)" points="431.68124009613535,308.82972254227957 431.68124009613535,300.5679414178341 457.64683791582115,293.0723189724015 457.64683791582115,301.33410009684695" />
  <polygon fill="hsl(288.0,50.0%,60.94835749876128%)" points="432.86149454248476,353.7320995411821 432.8614945424847,300.22723130667805 456.4665834694718,293.41302908355755 456.4665834694718,346.9178973180616" />
  <polygon fill="hsl(288.0,50.0%,60.94835749876128%)" points="438.76276677423147,295.84843733917273 438.76276677423147,271.7712466336459 450.56531123772504,268.36414552208566 450.56531123772504,292.44133622761245" />
  <polygon fill="hsl(288.0,50.0%,60.94835749876128%)" points="441.1232756669302,297.8422605285859 441.1232756669302,271.08982641133383 448.20480234502634,269.0455657443977 448.20480234502634,295.7979998616497" />
  <polygon fill="hsl(288.0,50.0%,54.496445229397835%)" points="444.20887350767475,424.267656674604 444.20887350767475,370.22773975775493 453.6509090784696,367.5020588685067 453.6509090784696,421.5419757853558" />
  <polygon fill="hsl(288.0,50.0%,54.496445229397835%)" points="467.81396243466185,417.4534544514835 467.81396243466185,363.4135375346344 458.371926863867,366.1392184238826 458.371926863867,420.1791353407317" />
  <polygon fill="hsl(288.0,50.0%,54.496445229397835%)" points="434.76683793687994,373.48846932934816 434.76683793687994,319.9836010948441 443.0286190613254,317.59863031675195 443.0286190613254,371.103498551256" />
  <polygon fill="hsl(288.0,50.0%,54.496445229397835%)" points="468.9942168810112,363.6078761058234 468.9942168810112,310.10300787131933 477.25599800545666,307.71803709322717 477.25599800545666,361.2229053277312" />
  <polygon fill="hsl(288.0,50.0%,54.496445229397835%)" points="443.0286190613254,325.8604114411974 443.0286190613254,317.59863031675195 468.9942168810112,310.10300787131933 468.9942168810112,318.3647889957648" />
  <polygon fill="hsl(288.0,50.0%,54.496445229397835%)" points="444.20887350767475,370.76278844009994 444.20887350767475,317.2579202055959 467.81396243466185,310.4437179824754 467.81396243466185,363.94858621697944" />
  <polygon fill="hsl(288.0,50.0%,54.496445229397835%)" points="450.1101457394215,312.8791262380906 450.1101457394215,288.80193553256373 461.9126902029151,285.3948344210035 461.9126902029151,309.4720251265303" />
  <polygon fill="hsl(288.0,50.0%,54.496445229397835%)" points="452.4706546321202,314.8729494275037 452.4706546321202,288.1205153102517 459.5521813102163,286.07625464331556 459.5521813102163,312.82868876056756" />
  <polygon fill="hsl(288.0,50.0%,53.251789974280086%)" points="453.198164730707,425.59003155161605 453.198164730707,371.55011463476694 462.64020030150186,368.8244337455187 462.64020030150186,422.8643506623678" />
  <polygon fill="hsl(288.0,50.0%,53.251789974280086%)" points="476.8032536576941,418.77582932849555 476.8032536576941,364.73591241164644 467.36121808689927,367.46159330089466 467.36121808689927,421.50151021774377" />
  <polygon fill="hsl(288.0,50.0%,53.251789974280086%)" points="443.7561291599122,374.81084420636023 443.7561291599122,321.3059759718561 452.01791028435764,318.92100519376396 452.01791028435764,372.425873428268" />
  <polygon fill="hsl(288.0,50.0%,53.251789974280086%)" points="477.98350810404344,364.93025098283545 477.98350810404344,311.4253827483314 486.2452892284889,309.04041197023923 486.2452892284889,362.5452802047433" />
  <polygon fill="hsl(288.0,50.0%,53.251789974280086%)" points="452.01791028435764,327.1827863182094 452.01791028435764,318.92100519376396 477.98350810404344,311.4253827483314 477.98350810404344,319.68716387277686" />
  <polygon fill="hsl(288.0,50.0%,53.251789974280086%)" points="453.198164730707,372.085163317112 453.198164730707,318.58029508260796 476.8032536576941,311.7660928594874 476.8032536576941,365.27096109399145" />
  <polygon fill="hsl(288.0,50.0%,53.251789974280086%)" points="459.09943696245375,314.2015011151026 459.09943696245375,290.1243104095758 470.9019814259473,286.7172092980155 470.9019814259473,310.79440000354236" />
  <polygon fill="hsl(288.0,50.0%,53.251789974280086%)" points="461.45994585515245,316.19532430451574 461.45994585515245,289.44289018726374 468.5414725332486,287.3986295203276 468.5414725332486,314.1510636375796" />
  <polygon fill="hsl(288.0,50.0%,50.27546059214215%)" points="361.92490669298115,461.3058875660797 361.92490669298115,407.26597064923067 371.36694226377597,404.54028975998244 371.36694226377597,458.5802066768315" />
  <polygon fill="hsl(288.0,50.0%,50.27546059214215%)" points="385.5299956199682,454.4916853429592 385.5299956199682,400.4517684261101 376.0879600491734,403.17744931535833 376.0879600491734,457.2173662322074" />
  <polygon fill="hsl(288.0,50.0%,50.27546059214215%)" points="352.4828711221863,410.5267002208239 352.4828711221863,357.02183198631985 360.74465224663174,354.63686120822763 360.74465224663174,408.1417294427317" />
  <polygon fill="hsl(288.0,50.0%,50.27546059214215%)" points="386.71025006631754,400.6461069972991 386.71025006631754,347.14123876279507 394.97203119076306,344.7562679847029 394.97203119076306,398.26113621920695" />
  <polygon fill="hsl(288.0,50.0%,50.27546059214215%)" points="360.74465224663174,362.89864233267315 360.74465224663174,354.63686120822763 386.71025006631754,347.14123876279507 386.71025006631754,355.40301988724053" />
  <polygon fill="hsl(288.0,50.0%,50.27546059214215%)" points="361.92490669298115,407.8010193315757 361.92490669298115,354.29615109707163 385.5299956199682,347.48194887395107 385.5299956199682,400.98681710845517" />
  <polygon fill="hsl(288.0,50.0%,50.27546059214215%)" points="367.8261789247279,349.91735712956626 367.8261789247279,325.84016642403947 379.62872338822143,322.4330653124792 379.62872338822143,346.51025601800603" />
  <polygon fill="hsl(288.0,50.0%,50.27546059214215%)" points="370.1866878174266,351.91118031897946 370.1866878174266,325.1587462017274 377.2682144955227,323.11448553479124 377.2682144955227,349.8669196520433" />
  <polygon fill="hsl(288.0,50.0%,50.081656916476256%)" points="370.92000863303565,459.3191923693032 370.92000863303565,405.27927545245404 380.36204420383046,402.5535945632058 380.36204420383046,456.593511480055" />
  <polygon fill="hsl(288.0,50.0%,50.081656916476256%)" points="394.52509756002274,452.50499014618265 394.52509756002274,398.46507322933354 385.0830619892279,401.1907541185817 385.08306198922793,455.2306710354309" />
  <polygon fill="hsl(288.0,50.0%,50.081656916476256%)" points="361.47797306224084,408.5400050240473 361.47797306224084,355.03513678954323 369.7397541866863,352.65016601145106 369.7397541866863,406.1550342459551" />
  <polygon fill="hsl(288.0,50.0%,50.081656916476256%)" points="395.7053520063721,398.65941180052255 395.7053520063721,345.1545435660185 403.96713313081756,342.76957278792634 403.96713313081756,396.2744410224303" />
  <polygon fill="hsl(288.0,50.0%,50.081656916476256%)" points="369.7397541866863,360.9119471358965 369.7397541866863,352.65016601145106 395.7053520063721,345.1545435660185 395.7053520063721,353.41632469046397" />
  <polygon fill="hsl(288.0,50.0%,50.081656916476256%)" points="370.92000863303565,405.8143241347991 370.92000863303565,352.309455900295 394.52509756002274,345.4952536771745 394.52509756002274,399.00012191167855" />
  <polygon fill="hsl(288.0,50.0%,50.081656916476256%)" points="376.8212808647824,347.9306619327897 376.8212808647824,323.8534712272629 388.623825328276,320.4463701157026 388.623825328276,344.52356082122947" />
  <polygon fill="hsl(288.0,50.0%,50.081656916476256%)" points="379.1817897574811,349.92448512220284 379.1817897574811,323.17205100495084 386.2633164355773,321.1277903380147 386.2633164355773,347.88022445526667" />
</svg>
