<?xml version="1.0" encoding="UTF-8"?>
<svg
  xmlns="http://www.w3.org/2000/svg"
  width="848"
  height="600"
  style="background-color:white"
>
  <polygon fill="lightblue" points="348.74452030702633,553.9995881937241 233.7981054479934,454.4530728518565 499.25547969297367,377.8221296125012 614.2018945520067,477.36864495436885" />
  <polygon fill="steelblue" points="233.7981054479934,454.4530728518565 233.79810544799335,122.63135504563118 499.25547969297367,46.00041180627588 499.25547969297367,377.8221296125012" />
  <polygon fill="lightskyblue" points="614.2018945520067,477.36864495436885 614.2018945520066,145.54692714814348 499.25547969297367,46.00041180627588 499.25547969297367,377.8221296125012" />
  <polygon fill="white" points="568.2233286083934,437.5500388176217 568.2233286083934,304.8213516951316 545.2340456365869,284.9120486267581 545.2340456365869,417.6407357492483" />
  <polygon fill="white" points="270.2984944066782,390.82484330744916 270.2984944066782,337.73336845845307 303.4806661873007,328.15450055353364 303.4806661873007,381.2459754025297" />
  <polygon fill="white" points="323.38996925567426,375.49865465957805 323.3899692556742,322.40717981058197 356.5721410362968,312.8283119056626 356.5721410362968,365.9197867546586" />
  <polygon fill="white" points="376.48144410467035,360.172466011707 376.48144410467035,307.0809911627109 409.66361588529287,297.5021232577915 409.66361588529287,350.59359810678757" />
  <polygon fill="white" points="429.5729189536664,344.8462773638359 429.5729189536664,291.75480251483987 462.7550907342889,282.17593460992043 462.7550907342889,335.2674094589165" />
</svg>
