<?xml version="1.0" encoding="UTF-8"?>
<svg
  xmlns="http://www.w3.org/2000/svg"
  width="848"
  height="600"
  style="background-color:white"
>
  <polygon fill="lightblue" points="342.93349196723375,537.868351041801 219.1112201336853,430.6351180796456 505.06650803276625,348.08693685727997 628.8887798663147,455.32016981943525" />
  <polygon fill="steelblue" points="219.1112201336853,430.6351180796456 219.1112201336853,144.67983018056472 505.06650803276625,62.13164895819901 505.06650803276625,348.08693685727997" />
  <polygon fill="lightskyblue" points="628.8887798663147,455.32016981943525 628.8887798663147,169.36488192035435 505.06650803276625,62.13164895819901 505.06650803276625,348.08693685727997" />
  <polygon fill="white" points="296.5574439396864,351.0872614187721 296.5574439396864,293.8962038389559 332.3018549270715,283.5776811861602 332.3018549270715,340.76873876597637" />
  <polygon fill="white" points="391.87587323938,323.5712010113168 391.87587323938,266.38014343150064 427.62028422676514,256.06162077870493 427.62028422676514,313.2526783585211" />
  <polygon fill="grey" points="489.9591423509725,140.36455248702646 489.9591423509725,104.62014149964136 525.7035533383577,94.30161884684566 525.7035533383577,130.04602983423075" />
  <polygon fill="lightgrey" points="489.9591423509725,140.36455248702646 489.9591423509725,104.62014149964136 469.3220970453811,86.74793600594879 469.3220970453811,122.49234699333388" />
  <polygon fill="darkgrey" points="489.9591423509725,104.62014149964136 469.3220970453811,86.74793600594879 505.06650803276625,76.42941335315308 525.7035533383577,94.30161884684566" />
  <polygon fill="hsl(324.0,50.0%,54.496445229397835%)" points="442.36098010436785,448.6490699705937 442.36098010436785,399.5505470383215 450.9396387413403,397.0741016016505 450.9396387413403,446.1726245339228" />
  <polygon fill="hsl(324.0,50.0%,54.496445229397835%)" points="463.80762669679893,442.45795637891626 463.8076266967989,393.35943344664406 455.22896805982646,395.83587888331505 455.22896805982646,444.93440181558725" />
  <polygon fill="hsl(324.0,50.0%,54.496445229397835%)" points="433.78232146739543,402.51311646442093 433.78232146739543,353.9007175215772 441.28864777474627,351.73382776449006 441.28864777474627,400.3462267073338" />
  <polygon fill="hsl(324.0,50.0%,54.496445229397835%)" points="464.87995902642047,393.53600175648864 464.87995902642047,344.9236028136449 472.38628533377135,342.7567130565578 472.38628533377135,391.3691119994015" />
  <polygon fill="hsl(324.0,50.0%,54.496445229397835%)" points="441.28864777474627,359.24015407184095 441.28864777474627,351.73382776449006 464.87995902642047,344.9236028136449 464.87995902642047,352.4299291209958" />
  <polygon fill="hsl(324.0,50.0%,54.496445229397835%)" points="442.36098010436785,400.03667102774995 442.36098010436785,351.4242720849062 463.8076266967989,345.23315849322876 463.8076266967989,393.8455574360725" />
  <polygon fill="hsl(324.0,50.0%,54.496445229397835%)" points="447.72264175247557,347.44587373984467 447.72264175247557,325.57029421556496 458.44596504869116,322.47473741972624 458.44596504869116,344.35031694400595" />
  <polygon fill="hsl(324.0,50.0%,54.496445229397835%)" points="449.8673064117187,349.25738232781913 449.8673064117187,324.9511828563972 456.30130038944804,323.093848778894 456.30130038944804,347.4000482503159" />
  <polygon fill="hsl(324.0,50.0%,50.27546059214215%)" points="367.60103482491974,482.30053600807975 367.60103482491974,433.20201307580754 376.17969346189216,430.72556763913656 376.17969346189216,479.82409057140876" />
  <polygon fill="hsl(324.0,50.0%,50.27546059214215%)" points="389.0476814173508,476.1094224164023 389.0476814173508,427.0108994841301 380.4690227803784,429.4873449208011 380.4690227803784,478.5858678530733" />
  <polygon fill="hsl(324.0,50.0%,50.27546059214215%)" points="359.0223761879473,436.1645825019069 359.0223761879473,387.55218355906317 366.5287024952982,385.3852938019761 366.5287024952982,433.9976927448198" />
  <polygon fill="hsl(324.0,50.0%,50.27546059214215%)" points="390.1200137469724,427.18746779397463 390.12001374697235,378.57506885113094 397.62634005432324,376.4081790940438 397.62634005432324,425.02057803688757" />
  <polygon fill="hsl(324.0,50.0%,50.27546059214215%)" points="366.5287024952982,392.89162010932694 366.5287024952982,385.3852938019761 390.12001374697235,378.57506885113094 390.12001374697235,386.08139515848177" />
  <polygon fill="hsl(324.0,50.0%,50.27546059214215%)" points="367.60103482491974,433.688137065236 367.60103482491974,385.07573812239224 389.0476814173508,378.8846245307148 389.0476814173508,427.49702347355856" />
  <polygon fill="hsl(324.0,50.0%,50.27546059214215%)" points="372.9626964730275,381.09733977733066 372.9626964730275,359.221760253051 383.68601976924305,356.1262034572123 383.68601976924305,378.00178298149194" />
  <polygon fill="hsl(324.0,50.0%,50.27546059214215%)" points="375.1073611322706,382.9088483653051 375.1073611322706,358.60264889388327 381.5413551099999,356.74531481638 381.5413551099999,381.05151428780187" />
</svg>
