<?xml version="1.0" encoding="UTF-8"?>
<svg
  xmlns="http://www.w3.org/2000/svg"
  width="848"
  height="600"
  style="background-color:white"
>
  <polygon fill="lightblue" points="338.9519052838329,512.0512701892219 209.04809471616713,399.55127018922195 509.0480947161671,312.94872981077805 638.9519052838328,425.44872981077805" />
  <polygon fill="steelblue" points="209.04809471616713,399.55127018922195 209.04809471616713,174.55127018922195 509.0480947161671,87.94872981077808 509.0480947161671,312.94872981077805" />
  <polygon fill="lightskyblue" points="638.9519052838328,425.44872981077805 638.9519052838328,200.44872981077805 509.0480947161671,87.94872981077808 509.0480947161671,312.94872981077805" />
  <polygon fill="white" points="586.9903810567665,380.44872981077805 586.9903810567665,230.44872981077805 561.0096189432334,207.94872981077805 561.0096189432334,357.94872981077805" />
  <polygon fill="white" points="233.15523757330996,332.59213748023984 233.15523757330996,272.59213748023984 270.65523757330993,261.76681993293437 270.65523757330993,321.76681993293437" />
  <polygon fill="white" points="276.0123804304528,320.220345997605 276.0123804304528,260.220345997605 313.5123804304528,249.39502845029952 313.5123804304528,309.3950284502995" />
  <polygon fill="white" points="318.86952328759565,307.84855451497015 318.86952328759565,247.84855451497015 356.36952328759565,237.02323696766467 356.36952328759565,297.0232369676647" />
  <polygon fill="white" points="361.72666614473854,295.4767630323353 361.72666614473854,235.47676303233533 399.2266661447385,224.65144548502983 399.22666614473854,284.65144548502985" />
  <polygon fill="white" points="404.5838090018814,283.1049715497005 404.5838090018814,223.10497154970048 442.0838090018814,212.27965400239498 442.0838090018814,272.279654002395" />
  <polygon fill="white" points="447.4409518590242,270.73318006706563 447.4409518590242,210.73318006706563 484.9409518590242,199.90786251976016 484.9409518590242,259.90786251976016" />
</svg>
