<?xml version="1.0" encoding="UTF-8"?>
<svg
  xmlns="http://www.w3.org/2000/svg"
  width="848"
  height="600"
  style="background-color:white"
>
  <polygon fill="lightblue" points="348.74452030702633,553.9995881937241 233.7981054479934,454.4530728518565 499.25547969297367,377.8221296125012 614.2018945520067,477.36864495436885" />
  <polygon fill="steelblue" points="233.7981054479934,454.4530728518565 233.79810544799335,122.63135504563118 499.25547969297367,46.00041180627588 499.25547969297367,377.8221296125012" />
  <polygon fill="lightskyblue" points="614.2018945520067,477.36864495436885 614.2018945520066,145.54692714814348 499.25547969297367,46.00041180627588 499.25547969297367,377.8221296125012" />
  <polygon fill="white" points="270.2984944066782,390.82484330744916 270.2984944066782,337.73336845845307 303.4806661873007,328.15450055353364 303.4806661873007,381.2459754025297" />
  <polygon fill="white" points="323.38996925567426,375.49865465957805 323.3899692556742,322.40717981058197 356.5721410362968,312.8283119056626 356.5721410362968,365.9197867546586" />
  <polygon fill="white" points="376.48144410467035,360.172466011707 376.48144410467035,307.0809911627109 409.66361588529287,297.5021232577915 409.66361588529287,350.59359810678757" />
  <polygon fill="white" points="429.5729189536664,344.8462773638359 429.5729189536664,291.75480251483987 462.7550907342889,282.17593460992043 462.7550907342889,335.2674094589165" />
  <polygon fill="hsl(288.0,50.0%,60.94835749876128%)" points="431.47407396052483,456.8115051111698 431.47407396052483,411.23247395330674 439.4377951878742,408.93354565612606 439.43779518787426,454.5125768139892" />
  <polygon fill="hsl(288.0,50.0%,60.94835749876128%)" points="451.38337702889834,451.0641843682182 451.38337702889834,405.48515321035507 443.4196558015489,407.78408150753575 443.4196558015489,453.36311266539883" />
  <polygon fill="hsl(288.0,50.0%,60.94835749876128%)" points="423.5103527331754,413.98267978670384 423.5103527331754,368.85492616505724 430.4786088071061,366.84336390502415 430.4786088071061,411.97111752667075" />
  <polygon fill="hsl(288.0,50.0%,60.94835749876128%)" points="452.378842182317,405.64906470942395 452.378842182317,360.5213110877773 459.34709825624776,358.50974882774426 459.34709825624776,403.63750244939087" />
  <polygon fill="hsl(288.0,50.0%,60.94835749876128%)" points="430.4786088071061,373.81161997895487 430.4786088071061,366.84336390502415 452.378842182317,360.5213110877773 452.378842182317,367.489567161708" />
  <polygon fill="hsl(288.0,50.0%,60.94835749876128%)" points="431.47407396052483,411.68375148952316 431.47407396052483,366.55599786787656 451.38337702889834,360.8086771249249 451.38337702889834,405.93643074657155" />
  <polygon fill="hsl(288.0,50.0%,60.94835749876128%)" points="436.4513997276182,362.8627800010563 436.4513997276182,342.5552908713153 446.406051261805,339.6816304998395 446.406051261805,359.9891196295805" />
  <polygon fill="hsl(288.0,50.0%,60.94835749876128%)" points="438.44233003445555,364.54443560784347 438.44233003445555,341.98055879702014 444.41512095496756,340.25636257413464 444.41512095496756,362.820239384958" />
  <polygon fill="hsl(288.0,50.0%,54.496445229397835%)" points="441.04482404532405,471.17574444110903 441.04482404532405,425.5967132832459 449.0085452726735,423.29778498606527 449.0085452726735,468.8768161439284" />
  <polygon fill="hsl(288.0,50.0%,54.496445229397835%)" points="460.95412711369755,465.4284236981574 460.95412711369755,419.8493925402943 452.9904058863481,422.1483208374749 452.9904058863481,467.72735199533804" />
  <polygon fill="hsl(288.0,50.0%,54.496445229397835%)" points="433.0811028179746,428.346919116643 433.0811028179746,383.2191654949964 440.04935889190534,381.2076032349633 440.04935889190534,426.33535685660996" />
  <polygon fill="hsl(288.0,50.0%,54.496445229397835%)" points="461.94959226711626,420.01330403936316 461.94959226711626,374.8855504177165 468.917848341047,372.8739881576834 468.917848341047,418.0017417793301" />
  <polygon fill="hsl(288.0,50.0%,54.496445229397835%)" points="440.04935889190534,388.175859308894 440.04935889190534,381.2076032349633 461.94959226711626,374.8855504177165 461.94959226711626,381.8538064916472" />
  <polygon fill="hsl(288.0,50.0%,54.496445229397835%)" points="441.04482404532405,426.04799081946237 441.04482404532405,380.9202371978157 460.95412711369755,375.1729164548641 460.95412711369755,420.30067007651076" />
  <polygon fill="hsl(288.0,50.0%,54.496445229397835%)" points="446.0221498124174,377.2270193309955 446.0221498124174,356.91953020125453 455.9768013466042,354.04586982977867 455.9768013466042,374.35335895951965" />
  <polygon fill="hsl(288.0,50.0%,54.496445229397835%)" points="448.01308011925477,378.9086749377826 448.01308011925477,356.34479812695935 453.98587103976683,354.62060190407385 453.98587103976683,377.1844787148972" />
  <polygon fill="hsl(288.0,50.0%,53.251789974280086%)" points="448.62668590073974,472.2910786081553 448.62668590073974,426.71204745029223 456.59040712808917,424.4131191531116 456.59040712808917,469.9921503109747" />
  <polygon fill="hsl(288.0,50.0%,53.251789974280086%)" points="468.53598896911325,466.5437578652037 468.53598896911325,420.9647267073406 460.5722677417638,423.2636550045213 460.5722677417639,468.8426861623844" />
  <polygon fill="hsl(288.0,50.0%,53.251789974280086%)" points="440.6629646733903,429.4622532836894 440.6629646733903,384.33449966204273 447.63122074732104,382.32293740200964 447.6312207473211,427.4506910236563" />
  <polygon fill="hsl(288.0,50.0%,53.251789974280086%)" points="469.53145412253195,421.1286382064095 469.53145412253195,376.00088458476284 476.4997101964627,373.98932232472976 476.4997101964627,419.1170759463764" />
  <polygon fill="hsl(288.0,50.0%,53.251789974280086%)" points="447.63122074732104,389.2911934759404 447.63122074732104,382.32293740200964 469.53145412253195,376.00088458476284 469.53145412253195,382.96914065869356" />
  <polygon fill="hsl(288.0,50.0%,53.251789974280086%)" points="448.62668590073974,427.1633249865087 448.62668590073974,382.0355713648621 468.53598896911325,376.28825062191044 468.53598896911325,421.41600424355704" />
  <polygon fill="hsl(288.0,50.0%,53.251789974280086%)" points="453.6040116678331,378.3423534980418 453.6040116678331,358.0348643683009 463.5586632020199,355.161203996825 463.5586632020199,375.468693126566" />
  <polygon fill="hsl(288.0,50.0%,53.251789974280086%)" points="455.59494197467046,380.024009104829 455.59494197467046,357.4601322940057 461.56773289518253,355.7359360711202 461.56773289518253,378.2998128819435" />
  <polygon fill="hsl(288.0,50.0%,50.27546059214215%)" points="371.6438386032063,502.414998239968 371.6438386032063,456.8359670821049 379.6075598305557,454.5370387849242 379.6075598305557,500.1160699427873" />
  <polygon fill="hsl(288.0,50.0%,50.27546059214215%)" points="391.55314167157985,496.66767749701637 391.55314167157985,451.08864633915323 383.5894204442304,453.38757463633385 383.5894204442304,498.966605794197" />
  <polygon fill="hsl(288.0,50.0%,50.27546059214215%)" points="363.68011737585687,459.586172915502 363.68011737585687,414.45841929385534 370.64837344978764,412.44685703382225 370.64837344978764,457.5746106554689" />
  <polygon fill="hsl(288.0,50.0%,50.27546059214215%)" points="392.5486068249985,451.25255783822206 392.5486068249985,406.12480421657546 399.5168628989292,404.11324195654237 399.5168628989292,449.24099557818903" />
  <polygon fill="hsl(288.0,50.0%,50.27546059214215%)" points="370.64837344978764,419.415113107753 370.64837344978764,412.44685703382225 392.5486068249985,406.12480421657546 392.5486068249985,413.0930602905062" />
  <polygon fill="hsl(288.0,50.0%,50.27546059214215%)" points="371.6438386032063,457.2872446183213 371.6438386032063,412.15949099667466 391.55314167157985,406.41217025372305 391.55314167157985,451.5399238753697" />
  <polygon fill="hsl(288.0,50.0%,50.27546059214215%)" points="376.6211643702997,408.4662731298544 376.6211643702997,388.1587840001134 386.57581590448643,385.2851236286376 386.57581590448643,405.5926127583786" />
  <polygon fill="hsl(288.0,50.0%,50.27546059214215%)" points="378.61209467713707,410.1479287366416 378.61209467713707,387.5840519258183 384.5848855976491,385.8598557029328 384.5848855976491,408.42373251375614" />
  <polygon fill="hsl(288.0,50.0%,50.081656916476256%)" points="379.23060140716746,500.73935461500855 379.23060140716746,455.1603234571454 387.1943226345168,452.8613951599648 387.1943226345168,498.44042631782787" />
  <polygon fill="hsl(288.0,50.0%,50.081656916476256%)" points="399.13990447554096,494.9920338720569 399.13990447554096,449.4130027141938 391.17618324819153,451.7119310113744 391.17618324819153,497.29096216923756" />
  <polygon fill="hsl(288.0,50.0%,50.081656916476256%)" points="371.26688017981803,457.9105292905425 371.26688017981803,412.78277566889585 378.23513625374875,410.7712134088628 378.23513625374875,455.8989670305095" />
  <polygon fill="hsl(288.0,50.0%,50.081656916476256%)" points="400.1353696289596,449.5769142132626 400.1353696289596,404.44916059161596 407.1036257028903,402.43759833158293 407.1036257028903,447.56535195322954" />
  <polygon fill="hsl(288.0,50.0%,50.081656916476256%)" points="378.23513625374875,417.73946948279354 378.23513625374875,410.7712134088628 400.1353696289596,404.44916059161596 400.1353696289596,411.41741666554674" />
  <polygon fill="hsl(288.0,50.0%,50.081656916476256%)" points="379.23060140716746,455.6116009933619 379.23060140716746,410.4838473717152 399.13990447554096,404.73652662876356 399.13990447554096,449.8642802504102" />
  <polygon fill="hsl(288.0,50.0%,50.081656916476256%)" points="384.2079271742608,406.790629504895 384.2079271742608,386.483140375154 394.16257870844754,383.6094800036782 394.16257870844754,403.9169691334192" />
  <polygon fill="hsl(288.0,50.0%,50.081656916476256%)" points="386.1988574810982,408.47228511168214 386.1988574810982,385.9084083008588 392.1716484016102,384.18421207797337 392.17164840161024,406.74808888879664" />
</svg>
