<?xml version="1.0" encoding="UTF-8"?>
<svg
  xmlns="http://www.w3.org/2000/svg"
  width="848"
  height="600"
  style="background-color:white"
>
  <polygon fill="lightblue" points="325.7949192431123,544.8557158514986 175.79491924311228,414.95190528383296 522.2050807568877,314.9519052838329 672.2050807568877,444.85571585149864" />
  <polygon fill="steelblue" points="175.79491924311228,414.95190528383296 175.79491924311228,155.14428414850133 522.2050807568877,55.1442841485013 522.2050807568877,314.9519052838329" />
  <polygon fill="lightskyblue" points="672.2050807568877,444.85571585149864 672.2050807568877,185.04809471616707 522.2050807568877,55.1442841485013 522.2050807568877,314.9519052838329" />
  <polygon fill="white" points="612.2050807568877,392.8941916244323 612.2050807568877,219.68911086754463 582.2050807568877,193.70834875401147 582.2050807568877,366.9134295108992" />
  <polygon fill="white" points="203.63145007904066,337.6341586953635 203.63145007904066,268.35212639260845 246.93272026826259,255.85212639260843 246.93272026826259,325.1341586953635" />
  <polygon fill="white" points="253.11861600958002,323.34844440964923 253.11861600958002,254.06641210689415 296.4198861988019,241.56641210689415 296.4198861988019,310.84844440964923" />
  <polygon fill="white" points="302.60578194011936,309.06273012393495 302.60578194011936,239.78069782117984 345.9070521293413,227.28069782117984 345.9070521293413,296.56273012393495" />
  <polygon fill="white" points="352.0929478706587,294.7770158382207 352.0929478706587,225.49498353546556 395.39421805988064,212.99498353546556 395.39421805988064,282.2770158382207" />
  <polygon fill="white" points="401.580113801198,280.49130155250634 401.580113801198,211.2092692497513 444.88138399042,198.7092692497513 444.88138399042,267.99130155250634" />
  <polygon fill="white" points="451.0672797317374,266.20558726679207 451.0672797317374,196.923554964037 494.3685499209593,184.423554964037 494.3685499209593,253.70558726679207" />
</svg>
