<?xml version="1.0" encoding="UTF-8"?>
<svg
  xmlns="http://www.w3.org/2000/svg"
  width="848"
  height="600"
  style="background-color:white"
>
  <polygon fill="lightblue" points="325.7949192431123,631.4582562299425 175.79491924311233,501.55444566227675 522.2050807568877,401.55444566227675 672.2050807568878,531.4582562299425" />
  <polygon fill="steelblue" points="175.79491924311233,501.55444566227675 175.79491924311225,68.54174377005745 522.2050807568877,-31.45825622994255 522.2050807568877,401.55444566227675" />
  <polygon fill="lightskyblue" points="672.2050807568878,531.4582562299425 672.2050807568877,98.44555433772325 522.2050807568877,-31.45825622994255 522.2050807568877,401.55444566227675" />
  <polygon fill="white" points="612.2050807568878,479.49673200287623 612.2050807568877,306.2916512459885 582.2050807568877,280.3108891324553 582.2050807568877,453.51596988934307" />
  <polygon fill="white" points="223.4263164512564,418.5224133595217 223.4263164512564,349.2403810567666 266.7275866404783,336.7403810567666 266.7275866404783,406.0224133595217" />
  <polygon fill="white" points="292.70834875401147,398.5224133595217 292.70834875401147,329.2403810567666 336.0096189432334,316.7403810567666 336.0096189432334,386.0224133595217" />
  <polygon fill="white" points="361.99038105676664,378.5224133595217 361.99038105676664,309.2403810567666 405.29165124598853,296.7403810567665 405.29165124598853,366.0224133595217" />
  <polygon fill="white" points="431.2724133595217,358.52241335952164 431.2724133595217,289.2403810567665 474.5736835487436,276.7403810567665 474.5736835487436,346.02241335952164" />
</svg>
