<?xml version="1.0" encoding="UTF-8"?>
<svg
  xmlns="http://www.w3.org/2000/svg"
  width="848"
  height="600"
  style="background-color:white"
>
  <polygon fill="lightblue" points="353.1818822381872,570.2483829733239 245.01316446513158,476.5715254870684 494.8181177618128,404.459046971698 602.9868355348685,498.13590445795353" />
  <polygon fill="steelblue" points="245.01316446513158,476.5715254870684 245.01316446513152,101.8640955420465 494.8181177618128,29.751617026676115 494.8181177618128,404.459046971698" />
  <polygon fill="lightskyblue" points="602.9868355348685,498.13590445795353 602.9868355348684,123.42847451293159 494.8181177618128,29.751617026676115 494.8181177618128,404.459046971698" />
  <polygon fill="white" points="541.6912287968037,445.05235188240874 541.6912287968036,320.1498752340681 520.0574852421925,301.414503736817 520.0574852421925,426.31698038515765" />
  <polygon fill="white" points="577.7474680544888,476.2779710444939 577.7474680544888,351.3754943961532 556.1137244998777,332.6401228989021 556.1137244998777,457.5425995472428" />
  <polygon fill="white" points="271.0345137668692,419.0988183157144 271.03451376686917,369.13782765637814 302.26013292895436,360.12376784195686 302.26013292895436,410.0847585012931" />
  <polygon fill="white" points="312.6686726496494,407.080071896486 312.6686726496494,357.11908123714977 343.89429181173455,348.10502142272844 343.89429181173455,398.06601208206473" />
  <polygon fill="white" points="354.30283153242965,395.0613254772576 354.30283153242965,345.10033481792135 385.5284506945148,336.0862750035 385.5284506945148,386.0472656628363" />
  <polygon fill="white" points="395.93699041520983,383.0425790580292 395.93699041520983,333.08158839869293 427.162609577295,324.06752858427166 427.162609577295,374.0285192436079" />
  <polygon fill="white" points="437.57114929799,371.0238326388008 437.57114929799,321.06284197946457 468.79676846007516,312.04878216504324 468.7967684600752,362.0097728243795" />
  <polygon fill="hsl(360.0,50.0%,54.496445229397835%)" points="440.0397935325876,492.3081619517002 440.0397935325876,449.41665147066004 447.53394213148806,447.2532771151989 447.53394213148806,490.1447875962391" />
  <polygon fill="hsl(360.0,50.0%,54.496445229397835%)" points="458.7751650298387,486.8997260630474 458.7751650298387,444.00821558200727 451.2810164309382,446.17158993746835 451.2810164309382,489.06310041850855" />
  <polygon fill="hsl(360.0,50.0%,54.496445229397835%)" points="432.5456449336872,452.00469424672553 432.5456449336872,409.5378521862897 439.10302495772504,407.6448996252612 439.10302495772504,450.111741685697" />
  <polygon fill="hsl(360.0,50.0%,54.496445229397835%)" points="459.71193360470124,444.16246220817897 459.71193360470124,401.6956201477431 466.26931362873916,399.8026675867146 466.26931362873916,442.26950964715047" />
  <polygon fill="hsl(360.0,50.0%,54.496445229397835%)" points="439.10302495772504,414.20227964929904 439.10302495772504,407.6448996252612 459.71193360470124,401.6956201477431 459.71193360470124,408.253000171781" />
  <polygon fill="hsl(360.0,50.0%,54.496445229397835%)" points="440.0397935325876,449.84131989126433 440.0397935325876,407.37447783082854 458.7751650298387,401.96604194217576 458.7751650298387,444.4328840026116" />
  <polygon fill="hsl(360.0,50.0%,54.496445229397835%)" points="444.72363640690037,403.8990267556436 444.72363640690037,384.7889478284475 454.0913221555259,382.0847298841211 454.0913221555259,401.19480881131716" />
  <polygon fill="hsl(360.0,50.0%,54.496445229397835%)" points="446.5971735566255,405.48152526980004 446.5971735566255,384.2481042395822 452.2177850058008,382.62557347298633 452.2177850058008,403.85899450320426" />
  <polygon fill="hsl(360.0,50.0%,53.251789974280086%)" points="447.17459870453257,493.3577315871328 447.17459870453257,450.4662211060927 454.668747303433,448.30284675063155 454.668747303433,491.1943572316717" />
  <polygon fill="hsl(360.0,50.0%,53.251789974280086%)" points="465.9099702017836,487.94929569848006 465.9099702017836,445.0577852174399 458.41582160288317,447.221159572901 458.41582160288317,490.11267005394114" />
  <polygon fill="hsl(360.0,50.0%,53.251789974280086%)" points="439.68045010563213,453.0542638821581 439.68045010563213,410.5874218217223 446.23783012967,408.69446926069384 446.23783012967,451.16131132112963" />
  <polygon fill="hsl(360.0,50.0%,53.251789974280086%)" points="466.8467387766462,445.2120318436116 466.8467387766462,402.74518978317576 473.4041188006841,400.85223722214727 473.4041188006841,443.31907928258306" />
  <polygon fill="hsl(360.0,50.0%,53.251789974280086%)" points="446.23783012967,415.2518492847317 446.23783012967,408.69446926069384 466.8467387766462,402.74518978317576 466.8467387766462,409.3025698072136" />
  <polygon fill="hsl(360.0,50.0%,53.251789974280086%)" points="447.17459870453257,450.890889526697 447.17459870453257,408.4240474662612 465.9099702017836,403.0156115776084 465.9099702017836,445.48245363804426" />
  <polygon fill="hsl(360.0,50.0%,53.251789974280086%)" points="451.8584415788453,404.9485963910762 451.8584415788453,385.83851746388007 461.22612732747086,383.1342995195537 461.22612732747086,402.2443784467498" />
  <polygon fill="hsl(360.0,50.0%,53.251789974280086%)" points="453.7319787285704,406.5310949052327 453.7319787285704,385.29767387501477 459.35259017774575,383.675143108419 459.35259017774575,404.90856413863685" />
  <polygon fill="hsl(360.0,50.0%,50.27546059214215%)" points="374.73096579170704,521.7054252917851 374.73096579170704,478.81391481074485 382.2251143906075,476.6505404552837 382.2251143906075,519.5420509363239" />
  <polygon fill="hsl(360.0,50.0%,50.27546059214215%)" points="393.4663372889582,516.2969894031322 393.46633728895813,473.4054789220921 385.9721886900577,475.5688532775532 385.9721886900577,518.4603637585933" />
  <polygon fill="hsl(360.0,50.0%,50.27546059214215%)" points="367.23681719280665,481.40195758681034 367.2368171928066,438.9351155263745 373.7941972168445,437.042162965346 373.7941972168445,479.5090050257818" />
  <polygon fill="hsl(360.0,50.0%,50.27546059214215%)" points="394.4031058638207,473.55972554826377 394.4031058638207,431.092883487828 400.96048588785857,429.1999309267995 400.96048588785857,471.6667729872353" />
  <polygon fill="hsl(360.0,50.0%,50.27546059214215%)" points="373.7941972168445,443.59954298938385 373.7941972168445,437.042162965346 394.4031058638207,431.092883487828 394.4031058638207,437.65026351186583" />
  <polygon fill="hsl(360.0,50.0%,50.27546059214215%)" points="374.73096579170704,479.2385832313492 374.73096579170704,436.7717411709134 393.46633728895813,431.36330528226057 393.46633728895813,473.8301473426964" />
  <polygon fill="hsl(360.0,50.0%,50.27546059214215%)" points="379.41480866601984,433.2962900957284 379.41480866601984,414.1862111685323 388.7824944146454,411.4819932242059 388.7824944146454,430.592072151402" />
  <polygon fill="hsl(360.0,50.0%,50.27546059214215%)" points="381.28834581574495,434.87878860988485 381.28834581574495,413.645367579667 386.9089572649203,412.02283681307114 386.9089572649203,433.25625784328906" />
  <polygon fill="hsl(360.0,50.0%,50.081656916476256%)" points="381.8703829328089,520.1285842691334 381.8703829328089,477.2370737880932 389.36453153170936,475.07369943263205 389.36453153170936,517.9652099136722" />
  <polygon fill="hsl(360.0,50.0%,50.081656916476256%)" points="400.60575443006,514.7201483804806 400.60575443006,471.8286378994404 393.1116058311596,473.9920122549015 393.1116058311596,516.8835227359417" />
  <polygon fill="hsl(360.0,50.0%,50.081656916476256%)" points="374.3762343339085,479.82511656415863 374.3762343339085,437.3582745037228 380.9336143579464,435.46532194269435 380.9336143579464,477.93216400313014" />
  <polygon fill="hsl(360.0,50.0%,50.081656916476256%)" points="401.54252300492254,471.9828845256121 401.54252300492254,429.51604246517627 408.09990302896045,427.62308990414783 408.09990302896045,470.0899319645836" />
  <polygon fill="hsl(360.0,50.0%,50.081656916476256%)" points="380.9336143579464,442.02270196673226 380.9336143579464,435.46532194269435 401.54252300492254,429.51604246517627 401.54252300492254,436.0734224892142" />
  <polygon fill="hsl(360.0,50.0%,50.081656916476256%)" points="381.8703829328089,477.66174220869755 381.8703829328089,435.1949001482617 400.60575443006,429.7864642596089 400.60575443006,472.25330632004477" />
  <polygon fill="hsl(360.0,50.0%,50.081656916476256%)" points="386.5542258071217,431.7194490730767 386.5542258071217,412.60937014588063 395.9219115557473,409.9051522015542 395.9219115557473,429.0152311287503" />
  <polygon fill="hsl(360.0,50.0%,50.081656916476256%)" points="388.42776295684683,433.30194758723326 388.42776295684683,412.06852655701533 394.04837440602216,410.4459957904195 394.04837440602216,431.67941682063736" />
</svg>
