<?xml version="1.0" encoding="UTF-8"?>
<svg
  xmlns="http://www.w3.org/2000/svg"
  width="848"
  height="600"
  style="background-color:white"
>
  <polygon fill="lightblue" points="348.74452030702633,553.9995881937241 233.7981054479934,454.4530728518565 499.25547969297367,377.8221296125012 614.2018945520067,477.36864495436885" />
  <polygon fill="steelblue" points="233.7981054479934,454.4530728518565 233.79810544799335,122.63135504563118 499.25547969297367,46.00041180627588 499.25547969297367,377.8221296125012" />
  <polygon fill="lightskyblue" points="614.2018945520067,477.36864495436885 614.2018945520066,145.54692714814348 499.25547969297367,46.00041180627588 499.25547969297367,377.8221296125012" />
  <polygon fill="white" points="568.2233286083934,437.5500388176217 568.2233286083934,304.8213516951316 545.2340456365869,284.9120486267581 545.2340456365869,417.6407357492483" />
  <polygon fill="white" points="255.1295015926793,395.203754349698 255.1295015926793,342.11227950070196 288.3116733733018,332.5334115957825 288.3116733733018,385.62488644477855" />
  <polygon fill="white" points="293.05198362767646,384.2564767440758 293.05198362767646,331.16500189507974 326.234155408299,321.5861339901603 326.234155408299,374.6776088391564" />
  <polygon fill="white" points="330.97446566267365,373.30919913845366 330.97446566267365,320.2177242894576 364.1566374432962,310.63885638453814 364.1566374432962,363.73033123353423" />
  <polygon fill="white" points="368.89694769767084,362.36192153283145 368.89694769767084,309.27044668383536 402.07911947829336,299.6915787789159 402.07911947829336,352.783053627912" />
  <polygon fill="white" points="406.819429732668,351.4146439272092 406.819429732668,298.3231690782132 440.00160151329055,288.74430117329376 440.00160151329055,341.8357760222898" />
  <polygon fill="white" points="444.7419117676652,340.46736632158706 444.7419117676652,287.375891472591 477.92408354828774,277.79702356767154 477.92408354828774,330.88849841666763" />
  <polygon fill="antiquewhite" points="479.2670738376621,473.20774017255223 479.2670738376621,360.3883561184356 505.81281126216015,352.72526179450006 505.81281126216015,465.54464584861665" />
  <polygon fill="beige" points="479.2670738376621,473.20774017255223 479.2670738376621,360.3883561184356 463.94088518979106,347.11548740618656 463.94088518979106,459.93487146030316" />
  <polygon fill="bisque" points="479.2670738376621,360.3883561184356 463.94088518979106,347.11548740618656 490.4866226142891,339.45239308225104 505.81281126216015,352.72526179450006" />
  <polygon fill="antiquewhite" points="365.09315508237006,534.1791989998108 365.09315508237006,421.35981494569415 391.6388925068681,413.69672062175863 391.6388925068681,526.5161046758752" />
  <polygon fill="beige" points="365.09315508237006,534.1791989998108 365.09315508237006,421.35981494569415 349.766966434499,408.08694623344513 349.766966434499,520.9063302875618" />
  <polygon fill="bisque" points="365.09315508237006,421.35981494569415 349.766966434499,408.08694623344513 376.312703858997,400.4238519095096 391.6388925068681,413.69672062175863" />
  <polygon fill="antiquewhite" points="458.6300403157589,408.0481276730977 458.6300403157589,295.2287436189811 485.175777740257,287.56564929504555 485.175777740257,400.3850333491622" />
  <polygon fill="beige" points="458.6300403157589,408.0481276730977 458.6300403157589,295.2287436189811 443.30385166788784,281.9558749067321 443.30385166788784,394.7752589608487" />
  <polygon fill="bisque" points="458.6300403157589,295.2287436189811 443.30385166788784,281.9558749067321 469.8495890923859,274.2927805827965 485.175777740257,287.56564929504555" />
  <polygon fill="antiquewhite" points="428.1881175803539,437.10572767941983 428.1881175803539,324.2863436253032 454.73385500485193,316.6232493013676 454.73385500485193,429.44263335548425" />
  <polygon fill="beige" points="428.1881175803539,437.10572767941983 428.1881175803539,324.2863436253032 412.86192893248284,311.01347491305415 412.86192893248284,423.83285896717075" />
  <polygon fill="bisque" points="428.1881175803539,324.2863436253032 412.86192893248284,311.01347491305415 439.4076663569809,303.3503805891186 454.73385500485193,316.6232493013676" />
  <polygon fill="antiquewhite" points="393.8604345568539,424.2770975515421 393.8604345568538,311.4577134974255 420.4061719813519,303.79461917349 420.4061719813519,416.6140032276066" />
  <polygon fill="beige" points="393.8604345568539,424.2770975515421 393.8604345568538,311.4577134974255 378.53424590898277,298.1848447851765 378.53424590898277,411.0042288392931" />
  <polygon fill="bisque" points="393.8604345568538,311.4577134974255 378.53424590898277,298.1848447851765 405.0799833334808,290.52175046124097 420.4061719813519,303.79461917349" />
</svg>
