<?xml version="1.0" encoding="UTF-8"?>
<svg
  xmlns="http://www.w3.org/2000/svg"
  width="848"
  height="600"
  style="background-color:white"
>
  <polygon fill="lightblue" points="325.7949192431123,674.7595264191646 175.79491924311233,544.8557158514986 522.2050807568877,444.8557158514987 672.2050807568878,574.7595264191646" />
  <polygon fill="steelblue" points="175.79491924311233,544.8557158514986 175.79491924311225,25.2404735808355 522.2050807568877,-74.7595264191645 522.2050807568877,444.8557158514987" />
  <polygon fill="lightskyblue" points="672.2050807568878,574.7595264191646 672.2050807568877,55.1442841485013 522.2050807568877,-74.7595264191645 522.2050807568877,444.8557158514987" />
  <polygon fill="white" points="612.2050807568878,522.7980021920982 612.2050807568877,349.5929214352104 582.2050807568877,323.61215932167727 582.2050807568877,496.817240078565" />
  <polygon fill="white" points="211.8793110674639,465.15701688207696 211.87931106746387,395.87498457932185 255.18058125668583,383.37498457932185 255.18058125668583,452.65701688207696" />
  <polygon fill="white" points="269.61433798642645,448.4903502154103 269.61433798642645,379.20831791265516 312.9156081756484,366.70831791265516 312.9156081756484,435.9903502154103" />
  <polygon fill="white" points="327.34936490538905,431.8236835487436 327.34936490538905,362.5416512459885 370.65063509461095,350.0416512459885 370.650635094611,419.3236835487436" />
  <polygon fill="white" points="385.0843918243516,415.15701688207696 385.0843918243516,345.8749845793218 428.38566201357355,333.3749845793218 428.38566201357355,402.65701688207696" />
  <polygon fill="white" points="442.81941874331415,398.4903502154103 442.81941874331415,329.20831791265516 486.1206889325361,316.70831791265516 486.1206889325361,385.9903502154103" />
</svg>
