<?xml version="1.0" encoding="UTF-8"?>
<svg
  xmlns="http://www.w3.org/2000/svg"
  width="848"
  height="600"
  style="background-color:white"
>
  <polygon fill="lightblue" points="325.7949192431123,674.7595264191646 175.79491924311233,544.8557158514986 522.2050807568877,444.8557158514987 672.2050807568878,574.7595264191646" />
  <polygon fill="steelblue" points="175.79491924311233,544.8557158514986 175.79491924311225,25.2404735808355 522.2050807568877,-74.7595264191645 522.2050807568877,444.8557158514987" />
  <polygon fill="lightskyblue" points="672.2050807568878,574.7595264191646 672.2050807568877,55.1442841485013 522.2050807568877,-74.7595264191645 522.2050807568877,444.8557158514987" />
  <polygon fill="white" points="612.2050807568878,522.7980021920982 612.2050807568877,349.5929214352104 582.2050807568877,323.61215932167727 582.2050807568877,496.817240078565" />
  <polygon fill="white" points="203.63145007904072,467.53796926302937 203.63145007904066,398.25593696027425 246.93272026826259,385.7559369602742 246.9327202682626,455.03796926302937" />
  <polygon fill="white" points="253.11861600958002,453.25225497731503 253.11861600958002,383.9702226745599 296.4198861988019,371.4702226745599 296.4198861988019,440.75225497731503" />
  <polygon fill="white" points="302.60578194011936,438.96654069160076 302.60578194011936,369.68450838884564 345.9070521293413,357.18450838884564 345.9070521293413,426.46654069160076" />
  <polygon fill="white" points="352.0929478706587,424.6808264058865 352.0929478706587,355.39879410313137 395.39421805988064,342.89879410313137 395.39421805988064,412.1808264058865" />
  <polygon fill="white" points="401.580113801198,410.3951121201722 401.580113801198,341.1130798174171 444.88138399042,328.6130798174171 444.88138399042,397.8951121201722" />
  <polygon fill="white" points="451.0672797317374,396.1093978344579 451.0672797317374,326.82736553170275 494.3685499209593,314.32736553170275 494.36854992095937,383.6093978344579" />
</svg>
