<?xml version="1.0" encoding="UTF-8"?>
<svg
  xmlns="http://www.w3.org/2000/svg"
  width="848"
  height="600"
  style="background-color:white"
>
  <polygon fill="lightblue" points="334.774762717958,522.4661817732066 198.49071825554756,404.44073713827123 513.2252372820419,313.5847074966642 649.5092817444524,431.61015213159965" />
  <polygon fill="steelblue" points="198.49071825554756,404.44073713827123 198.49071825554756,168.38984786840038 513.2252372820419,77.53381822679339 513.2252372820419,313.5847074966642" />
  <polygon fill="lightskyblue" points="649.5092817444524,431.61015213159965 649.5092817444524,195.55926286172877 513.2252372820419,77.53381822679339 513.2252372820419,313.5847074966642" />
  <polygon fill="white" points="594.9956639594882,384.39997427762546 594.9956639594882,227.03271476437823 567.7388550670062,203.42762583739113 567.7388550670062,360.79488535063837" />
  <polygon fill="white" points="223.78188496303372,334.1929023796289 223.78188496303372,271.24599857433003 263.1236998413455,259.88899486912914 263.1236998413455,322.83589867442805" />
  <polygon fill="white" points="268.74395910967576,321.213469573685 268.74395910967576,258.26656576838616 308.0857739879876,246.90956206318526 308.0857739879876,309.8564658684842" />
  <polygon fill="white" points="313.7060332563178,308.2340367677412 313.7060332563178,245.28713296244229 353.04784813462965,233.93012925724142 353.04784813462965,296.8770330625403" />
  <polygon fill="white" points="358.6681074029599,295.25460396179733 358.6681074029599,232.3077001564984 398.00992228127166,220.95069645129755 398.0099222812717,283.89760025659643" />
  <polygon fill="white" points="403.6301815496019,282.27517115585346 403.6301815496019,219.32826735055457 442.9719964279137,207.9712636453537 442.9719964279137,270.9181674506526" />
  <polygon fill="white" points="448.592255696244,269.2957383499096 448.592255696244,206.34883454461072 487.9340705745558,194.99183083940986 487.9340705745558,257.93873464470875" />
  <polygon fill="antiquewhite" points="489.5263616306461,426.6768540119116 489.5263616306461,292.91468342565145 520.9998135332955,283.8290804614907 520.9998135332955,417.59125104775086" />
  <polygon fill="beige" points="489.5263616306461,426.6768540119116 489.5263616306461,292.91468342565145 471.3551557023247,277.1779574743267 471.35515570232474,410.94012806058686" />
  <polygon fill="bisque" points="489.5263616306461,292.91468342565145 471.3551557023247,277.1779574743267 502.8286076049742,268.092354510166 520.9998135332955,283.8290804614907" />
  <polygon fill="antiquewhite" points="354.15821257461585,498.9665119011341 354.15821257461585,365.20434131487394 385.6316644772653,356.1187383507132 385.6316644772653,489.88090893697336" />
  <polygon fill="beige" points="354.15821257461585,498.9665119011341 354.15821257461585,365.20434131487394 335.98700664629445,349.4676153635492 335.98700664629445,483.22978594980935" />
  <polygon fill="bisque" points="354.15821257461585,365.20434131487394 335.98700664629445,349.4676153635492 367.4604585489439,340.3820123993885 385.6316644772653,356.1187383507132" />
  <polygon fill="antiquewhite" points="465.0584528444479,349.421590871086 465.0584528444479,215.65942028482587 496.5319047470974,206.57381732066517 496.5319047470974,340.3359879069253" />
  <polygon fill="beige" points="465.0584528444479,349.421590871086 465.0584528444479,215.65942028482587 446.8872469161265,199.9226943335011 446.8872469161265,333.68486491976125" />
  <polygon fill="bisque" points="465.0584528444479,215.65942028482587 446.8872469161265,199.9226943335011 478.360698818776,190.83709136934044 496.5319047470974,206.57381732066517" />
</svg>
