<?xml version="1.0" encoding="UTF-8"?>
<svg
  xmlns="http://www.w3.org/2000/svg"
  width="848"
  height="600"
  style="background-color:white"
>
  <polygon fill="lightblue" points="350.7949192431123,523.2050807568878 150.7949192431123,350.0 497.2050807568877,249.99999999999997 697.2050807568877,423.2050807568877" />
  <polygon fill="steelblue" points="150.7949192431123,350.0 150.7949192431123,176.79491924311228 497.2050807568877,76.79491924311225 497.2050807568877,249.99999999999997" />
  <polygon fill="lightskyblue" points="697.2050807568877,423.2050807568877 697.2050807568877,250.0 497.2050807568877,76.79491924311225 497.2050807568877,249.99999999999997" />
  <polygon fill="white" points="612.2050807568877,349.5929214352104 612.2050807568877,176.38784067832268 582.2050807568877,150.40707856478954 582.2050807568877,323.61215932167727" />
  <polygon fill="hsl(360.0,50.0%,68.65222276527638%)" points="423.994058294874,338.9433468708084 423.994058294874,279.4647221388932 434.38636314028724,276.4647221388932 434.38636314028724,335.9433468708084" />
  <polygon fill="hsl(360.0,50.0%,68.65222276527638%)" points="449.9748204084071,331.4433468708084 449.9748204084071,271.9647221388932 439.5825155629938,274.9647221388932 439.5825155629938,334.4433468708084" />
  <polygon fill="hsl(360.0,50.0%,68.65222276527638%)" points="413.6017534494607,283.0536194134666 413.6017534494607,224.16389195612476 422.6950201891973,221.53889195612476 422.6950201891973,280.4286194134666" />
  <polygon fill="hsl(360.0,50.0%,68.65222276527638%)" points="451.27385851408377,272.1786194134666 451.27385851408377,213.28889195612476 460.3671252538204,210.66389195612476 460.3671252538204,269.5536194134666" />
  <polygon fill="hsl(360.0,50.0%,68.65222276527638%)" points="422.6950201891973,230.63215869586134 422.6950201891973,221.53889195612476 451.27385851408377,213.28889195612476 451.27385851408377,222.38215869586134" />
  <polygon fill="hsl(360.0,50.0%,68.65222276527638%)" points="423.994058294874,280.0536194134666 423.994058294874,221.16389195612476 449.9748204084071,213.66389195612476 449.9748204084071,272.5536194134666" />
  <polygon fill="hsl(360.0,50.0%,68.65222276527638%)" points="430.48924882325724,216.34440558325767 430.48924882325724,189.84402822745386 443.4796298800238,186.09402822745386 443.4796298800238,212.59440558325767" />
  <polygon fill="hsl(360.0,50.0%,68.65222276527638%)" points="433.08732503461056,218.53889195612476 433.08732503461056,189.09402822745386 440.8815536686705,186.84402822745386 440.8815536686705,216.28889195612476" />
  <polygon fill="hsl(360.0,50.0%,65.5749766448301%)" points="383.3368634961039,364.89325905961005 383.3368634961039,305.4146343276948 393.72916834151715,302.41463432769484 393.72916834151715,361.89325905961005" />
  <polygon fill="hsl(360.0,50.0%,65.5749766448301%)" points="409.31762560963705,357.39325905961005 409.31762560963705,297.91463432769484 398.9253207642238,300.91463432769484 398.9253207642238,360.39325905961005" />
  <polygon fill="hsl(360.0,50.0%,65.5749766448301%)" points="372.9445586506906,309.00353160226825 372.9445586506906,250.1138041449264 382.03782539042726,247.4888041449264 382.03782539042726,306.37853160226825" />
  <polygon fill="hsl(360.0,50.0%,65.5749766448301%)" points="410.61666371531373,298.12853160226825 410.61666371531373,239.2388041449264 419.7099304550503,236.6138041449264 419.7099304550503,295.50353160226825" />
  <polygon fill="hsl(360.0,50.0%,65.5749766448301%)" points="382.03782539042726,256.582070884663 382.03782539042726,247.4888041449264 410.61666371531373,239.2388041449264 410.61666371531373,248.332070884663" />
  <polygon fill="hsl(360.0,50.0%,65.5749766448301%)" points="383.3368634961039,306.00353160226825 383.3368634961039,247.1138041449264 409.31762560963705,239.6138041449264 409.31762560963705,298.50353160226825" />
  <polygon fill="hsl(360.0,50.0%,65.5749766448301%)" points="389.8320540244872,242.29431777205932 389.8320540244872,215.7939404162555 402.8224350812538,212.0439404162555 402.8224350812538,238.54431777205932" />
  <polygon fill="hsl(360.0,50.0%,65.5749766448301%)" points="392.4301302358405,244.4888041449264 392.4301302358405,215.0439404162555 400.2243588699004,212.7939404162555 400.22435886990047,242.2388041449264" />
  <polygon fill="hsl(360.0,50.0%,63.87054183818537%)" points="325.6576456077614,389.4162622023108 325.6576456077614,329.9376374703956 336.0499504531747,326.9376374703956 336.0499504531747,386.4162622023108" />
  <polygon fill="hsl(360.0,50.0%,63.87054183818537%)" points="351.6384077212946,381.9162622023108 351.6384077212946,322.4376374703956 341.2461028758813,325.4376374703956 341.2461028758813,384.9162622023108" />
  <polygon fill="hsl(360.0,50.0%,63.87054183818537%)" points="315.26534076234816,333.526534744969 315.26534076234816,274.63680728762716 324.3586075020848,272.01180728762716 324.3586075020848,330.901534744969" />
  <polygon fill="hsl(360.0,50.0%,63.87054183818537%)" points="352.9374458269712,322.651534744969 352.9374458269712,263.76180728762716 362.03071256670785,261.13680728762716 362.03071256670785,320.026534744969" />
  <polygon fill="hsl(360.0,50.0%,63.87054183818537%)" points="324.3586075020848,281.1050740273638 324.3586075020848,272.01180728762716 352.9374458269712,263.76180728762716 352.9374458269712,272.8550740273638" />
  <polygon fill="hsl(360.0,50.0%,63.87054183818537%)" points="325.6576456077614,330.526534744969 325.6576456077614,271.63680728762716 351.6384077212946,264.13680728762716 351.6384077212946,323.026534744969" />
  <polygon fill="hsl(360.0,50.0%,63.87054183818537%)" points="332.1528361361447,266.8173209147601 332.1528361361447,240.31694355895627 345.14321719291127,236.56694355895627 345.14321719291127,263.0673209147601" />
  <polygon fill="hsl(360.0,50.0%,63.87054183818537%)" points="334.750912347498,269.01180728762716 334.750912347498,239.56694355895627 342.54514098155795,237.31694355895627 342.54514098155795,266.76180728762716" />
  <polygon fill="hsl(360.0,50.0%,52.57800117743009%)" points="457.7534076799585,403.4415114292898 457.7534076799585,343.9628866973746 468.1457125253718,340.9628866973746 468.1457125253718,400.4415114292898" />
  <polygon fill="hsl(360.0,50.0%,52.57800117743009%)" points="483.7341697934917,395.94151142928985 483.7341697934917,336.4628866973746 473.34186494807835,339.4628866973746 473.34186494807835,398.94151142928985" />
  <polygon fill="hsl(360.0,50.0%,52.57800117743009%)" points="447.36110283454525,347.551783971948 447.36110283454525,288.66205651460615 456.4543695742818,286.03705651460615 456.4543695742818,344.926783971948" />
  <polygon fill="hsl(360.0,50.0%,52.57800117743009%)" points="485.0332078991683,336.676783971948 485.0332078991683,277.78705651460615 494.12647463890494,275.16205651460615 494.12647463890494,334.051783971948" />
  <polygon fill="hsl(360.0,50.0%,52.57800117743009%)" points="456.4543695742818,295.1303232543428 456.4543695742818,286.03705651460615 485.0332078991683,277.78705651460615 485.0332078991683,286.8803232543428" />
  <polygon fill="hsl(360.0,50.0%,52.57800117743009%)" points="457.7534076799585,344.551783971948 457.7534076799585,285.66205651460615 483.7341697934917,278.16205651460615 483.7341697934917,337.051783971948" />
  <polygon fill="hsl(360.0,50.0%,52.57800117743009%)" points="464.2485982083418,280.8425701417391 464.2485982083418,254.34219278593528 477.23897926510836,250.59219278593525 477.23897926510836,277.0925701417391" />
  <polygon fill="hsl(360.0,50.0%,52.57800117743009%)" points="466.8466744196951,283.03705651460615 466.8466744196951,253.59219278593525 474.64090305375504,251.34219278593525 474.64090305375504,280.78705651460615" />
  <polygon fill="hsl(360.0,50.0%,46.24652422154656%)" points="379.85113753419955,455.17379914763643 379.8511375341995,395.69517441572117 390.24344237961276,392.69517441572117 390.2434423796128,452.17379914763643" />
  <polygon fill="hsl(360.0,50.0%,46.24652422154656%)" points="405.83189964773266,447.67379914763643 405.83189964773266,388.19517441572117 395.4395948023194,391.19517441572117 395.43959480231945,450.67379914763643" />
  <polygon fill="hsl(360.0,50.0%,46.24652422154656%)" points="369.45883268878623,399.2840716902946 369.45883268878623,340.3943442329528 378.55209942852287,337.7693442329528 378.55209942852287,396.6590716902946" />
  <polygon fill="hsl(360.0,50.0%,46.24652422154656%)" points="407.13093775340934,388.4090716902946 407.13093775340934,329.5193442329528 416.2242044931459,326.8943442329528 416.2242044931459,385.7840716902946" />
  <polygon fill="hsl(360.0,50.0%,46.24652422154656%)" points="378.55209942852287,346.86261097268937 378.55209942852287,337.7693442329528 407.13093775340934,329.5193442329528 407.13093775340934,338.61261097268937" />
  <polygon fill="hsl(360.0,50.0%,46.24652422154656%)" points="379.8511375341995,396.2840716902946 379.8511375341995,337.3943442329528 405.83189964773266,329.8943442329528 405.83189964773266,388.7840716902946" />
  <polygon fill="hsl(360.0,50.0%,46.24652422154656%)" points="386.3463280625828,332.5748578600857 386.3463280625828,306.0744805042819 399.3367091193494,302.3244805042819 399.3367091193494,328.8248578600857" />
  <polygon fill="hsl(360.0,50.0%,46.24652422154656%)" points="388.94440427393613,334.7693442329528 388.94440427393613,305.3244805042819 396.7386329079961,303.0744805042819 396.7386329079961,332.5193442329528" />
</svg>
