<?xml version="1.0" encoding="UTF-8"?>
<svg
  xmlns="http://www.w3.org/2000/svg"
  width="848"
  height="600"
  style="background-color:white"
>
  <polygon fill="lightblue" points="360.04947153133975,532.8147419146777 185.33337858407992,381.5061669723875 487.95052846866025,294.1481204987576 662.6666214159201,445.4566954410477" />
  <polygon fill="steelblue" points="185.33337858407992,381.5061669723875 185.33337858407992,154.54330455895226 487.95052846866025,67.18525808532232 487.95052846866025,294.1481204987576" />
  <polygon fill="lightskyblue" points="662.6666214159201,445.4566954410477 662.6666214159201,218.49383302761248 487.95052846866025,67.18525808532232 487.95052846866025,294.1481204987576" />
  <polygon fill="white" points="559.2929330887913,355.9324552668594 559.2929330887913,204.6238803245692 533.0855191467024,181.9275940832257 533.0855191467024,333.2361690255159" />
  <polygon fill="white" points="617.531630737878,406.36864691428946 617.531630737878,255.0600719719993 591.324216795789,232.36378573065576 591.324216795789,383.67236067294596" />
  <polygon fill="white" points="226.94323669320974,308.97100560534733 226.94323669320974,248.44757562843125 264.77038042878223,237.5278198192275 264.77038042878223,298.05124979614357" />
  <polygon fill="white" points="287.4666666701258,291.4993963106213 287.4666666701258,230.97596633370526 325.2938104056983,220.05621052450152 325.2938104056983,280.5796405014176" />
  <polygon fill="white" points="347.9900966470419,274.02778701589534 347.9900966470419,213.50435703897926 385.81724038261444,202.58460122977553 385.81724038261444,263.1080312066916" />
  <polygon fill="white" points="408.51352662395794,256.5561777211693 408.51352662395794,196.03274774425327 446.34067035953046,185.11299193504954 446.34067035953046,245.6364219119656" />
  <polygon fill="hsl(324.0,50.0%,68.65222276527638%)" points="423.99480944247466,371.8472907933603 423.99480944247466,319.8879261581778 433.0733239390121,317.2671847639689 433.0733239390121,369.2265493991514" />
  <polygon fill="hsl(324.0,50.0%,68.65222276527638%)" points="446.6910956838182,365.29543730783803 446.69109568381816,313.3360726726556 437.61258118728074,315.95681406686447 437.6125811872808,367.9161787020469" />
  <polygon fill="hsl(324.0,50.0%,68.65222276527638%)" points="414.91629494593724,323.02311670719047 414.91629494593724,271.5782012268118 422.85999513040747,269.285052506879 422.85999513040747,320.7299679872577" />
  <polygon fill="hsl(324.0,50.0%,68.65222276527638%)" points="447.82590999588535,313.5229291531832 447.82590999588535,262.07801367280456 455.7696101803556,259.78486495287177 455.7696101803556,311.2297804332504" />
  <polygon fill="hsl(324.0,50.0%,68.65222276527638%)" points="422.85999513040747,277.22875269134926 422.85999513040747,269.285052506879 447.82590999588535,262.07801367280456 447.82590999588535,270.0217138572748" />
  <polygon fill="hsl(324.0,50.0%,68.65222276527638%)" points="423.99480944247466,320.4023753129816 423.99480944247466,268.9574598326029 446.69109568381816,262.40560634708066 446.69109568381816,313.8505218274593" />
  <polygon fill="hsl(324.0,50.0%,68.65222276527638%)" points="429.6688810028105,264.74725068720346 429.6688810028105,241.59703872103307 441.0170241234823,238.32111197827192 441.0170241234823,261.4713239444423" />
  <polygon fill="hsl(324.0,50.0%,68.65222276527638%)" points="431.9385096269449,266.66431111267013 431.9385096269449,240.94185337248084 438.74739549934793,238.97629732682415 438.74739549934793,264.69875506701345" />
  <polygon fill="hsl(324.0,50.0%,65.5749766448301%)" points="388.4774783152909,394.51662714311976 388.4774783152909,342.5572625079373 397.5559928118283,339.9365211137284 397.5559928118283,391.89588574891087" />
  <polygon fill="hsl(324.0,50.0%,65.5749766448301%)" points="411.1737645566344,387.9647736575975 411.1737645566344,336.00540902241505 402.095250060097,338.62615041662394 402.095250060097,390.5855150518064" />
  <polygon fill="hsl(324.0,50.0%,65.5749766448301%)" points="379.3989638187535,345.69245305694994 379.3989638187535,294.2475375765713 387.3426640032237,291.9543888566385 387.3426640032237,343.3993043370172" />
  <polygon fill="hsl(324.0,50.0%,65.5749766448301%)" points="412.3085788687016,336.19226550294275 412.3085788687016,284.7473500225641 420.25227905317183,282.4542013026313 420.25227905317183,333.89911678300996" />
  <polygon fill="hsl(324.0,50.0%,65.5749766448301%)" points="387.3426640032237,299.8980890411088 387.3426640032237,291.9543888566385 412.3085788687016,284.7473500225641 412.3085788687016,292.6910502070343" />
  <polygon fill="hsl(324.0,50.0%,65.5749766448301%)" points="388.4774783152909,343.07171166274105 388.4774783152909,291.6267961823624 411.1737645566344,285.0749426968402 411.1737645566344,336.51985817721885" />
  <polygon fill="hsl(324.0,50.0%,65.5749766448301%)" points="394.15154987562676,287.41658703696294 394.15154987562676,264.26637507079255 405.49969299629856,260.99044832803145 405.49969299629856,284.1406602942018" />
  <polygon fill="hsl(324.0,50.0%,65.5749766448301%)" points="396.42117849976114,289.3336474624296 396.42117849976114,263.61118972224034 403.2300643721642,261.64563367658366 403.2300643721642,287.368091416773" />
  <polygon fill="hsl(324.0,50.0%,63.87054183818537%)" points="338.09004034676644,415.93944362525 338.0900403467664,363.98007899006757 347.1685548433038,361.3593375958587 347.1685548433038,413.31870223104113" />
  <polygon fill="hsl(324.0,50.0%,63.87054183818537%)" points="360.78632658810994,409.38759013972776 360.78632658810994,357.4282255045453 351.7078120915725,360.0489668987542 351.7078120915725,412.00833153393665" />
  <polygon fill="hsl(324.0,50.0%,63.87054183818537%)" points="329.011525850229,367.11526953908026 329.011525850229,315.6703540587016 336.95522603469925,313.3772053387688 336.95522603469925,364.8221208191475" />
  <polygon fill="hsl(324.0,50.0%,63.87054183818537%)" points="361.9211409001771,357.615081985073 361.9211409001771,306.17016650469435 369.8648410846473,303.87701778476156 369.8648410846473,355.3219332651402" />
  <polygon fill="hsl(324.0,50.0%,63.87054183818537%)" points="336.95522603469925,321.32090552323905 336.95522603469925,313.3772053387688 361.9211409001771,306.17016650469435 361.9211409001771,314.1138666891646" />
  <polygon fill="hsl(324.0,50.0%,63.87054183818537%)" points="338.0900403467664,364.4945281448713 338.0900403467664,313.04961266449266 360.78632658810994,306.49775917897045 360.78632658810994,357.9426746593491" />
  <polygon fill="hsl(324.0,50.0%,63.87054183818537%)" points="343.7641119071023,308.8394035190932 343.7641119071023,285.6891915529228 355.11225502777404,282.4132648101617 355.11225502777404,305.5634767763321" />
  <polygon fill="hsl(324.0,50.0%,63.87054183818537%)" points="346.0337405312366,310.75646394455987 346.0337405312366,285.0340062043706 352.84262640363966,283.0684501587139 352.84262640363966,308.79090789890324" />
  <polygon fill="hsl(324.0,50.0%,52.57800117743009%)" points="453.48631756749194,428.19162736299677 453.48631756749194,376.23226272781426 462.5648320640293,373.61152133360537 462.56483206402936,425.5708859687878" />
  <polygon fill="hsl(324.0,50.0%,52.57800117743009%)" points="476.18260380883544,421.6397738774745 476.18260380883544,369.68040924229206 467.104089312298,372.30115063650095 467.104089312298,424.2605152716834" />
  <polygon fill="hsl(324.0,50.0%,52.57800117743009%)" points="444.4078030709545,379.36745327682695 444.4078030709545,327.9225377964483 452.35150325542475,325.6293890765155 452.35150325542475,377.07430455689416" />
  <polygon fill="hsl(324.0,50.0%,52.57800117743009%)" points="477.31741812090263,369.8672657228197 477.31741812090263,318.42235024244104 485.26111830537286,316.12920152250825 485.26111830537286,367.5741170028869" />
  <polygon fill="hsl(324.0,50.0%,52.57800117743009%)" points="452.35150325542475,333.57308926098574 452.35150325542475,325.6293890765155 477.31741812090263,318.42235024244104 477.31741812090263,326.3660504269113" />
  <polygon fill="hsl(324.0,50.0%,52.57800117743009%)" points="453.48631756749194,376.74671188261806 453.4863175674919,325.3017964022394 476.18260380883544,318.74994291671715 476.18260380883544,370.1948583970958" />
  <polygon fill="hsl(324.0,50.0%,52.57800117743009%)" points="459.1603891278278,321.0915872568399 459.1603891278278,297.94137529066955 470.50853224849953,294.6654485479084 470.50853224849953,317.8156605140788" />
  <polygon fill="hsl(324.0,50.0%,52.57800117743009%)" points="461.4300177519621,323.0086476823066 461.4300177519621,297.2861899421173 468.2389036243652,295.3206338964606 468.2389036243652,321.04309163664993" />
  <polygon fill="hsl(324.0,50.0%,46.24652422154656%)" points="385.43241620954706,473.38394330986193 385.43241620954706,421.4245786746794 394.5109307060845,418.80383728047053 394.5109307060845,470.763201915653" />
  <polygon fill="hsl(324.0,50.0%,46.24652422154656%)" points="408.1287024508906,466.8320898243396 408.1287024508906,414.87272518915717 399.0501879543532,417.49346658336606 399.0501879543532,469.45283121854857" />
  <polygon fill="hsl(324.0,50.0%,46.24652422154656%)" points="376.35390171300963,424.5597692236921 376.35390171300963,373.11485374331346 384.2976018974799,370.8217050233807 384.2976018974799,422.2666205037593" />
  <polygon fill="hsl(324.0,50.0%,46.24652422154656%)" points="409.26351676295775,415.05958166968486 409.26351676295775,363.6146661893062 417.207216947428,361.3215174693734 417.207216947428,412.7664329497521" />
  <polygon fill="hsl(324.0,50.0%,46.24652422154656%)" points="384.2976018974799,378.7654052078509 384.2976018974799,370.8217050233807 409.26351676295775,363.6146661893062 409.26351676295775,371.55836637377644" />
  <polygon fill="hsl(324.0,50.0%,46.24652422154656%)" points="385.43241620954706,421.9390278294832 385.43241620954706,370.49411234910457 408.1287024508906,363.9422588635823 408.1287024508906,415.38717434396096" />
  <polygon fill="hsl(324.0,50.0%,46.24652422154656%)" points="391.10648776988296,366.2839032037051 391.10648776988296,343.13369123753466 402.4546308905547,339.85776449477356 402.4546308905547,363.00797646094395" />
  <polygon fill="hsl(324.0,50.0%,46.24652422154656%)" points="393.37611639401734,368.2009636291718 393.37611639401734,342.47850588898245 400.1850022664204,340.51294984332577 400.1850022664204,366.2354075835151" />
</svg>
