<?xml version="1.0" encoding="UTF-8"?>
<svg
  xmlns="http://www.w3.org/2000/svg"
  width="848"
  height="600"
  style="background-color:white"
>
  <polygon fill="lightblue" points="373.03181718926623,545.8479430532154 233.7841521808829,425.25592773828987 474.96818281073377,355.6320952340982 614.2158478191171,476.22411054902364" />
  <polygon fill="steelblue" points="233.7841521808829,425.25592773828987 233.78415218088284,123.77588945097634 474.96818281073377,54.152056946784626 474.96818281073377,355.6320952340982" />
  <polygon fill="lightskyblue" points="614.2158478191171,476.22411054902364 614.2158478191171,174.7440722617101 474.96818281073377,54.152056946784626 474.96818281073377,355.6320952340982" />
  <polygon fill="white" points="555.0355901905542,424.97250404018035 555.0355901905542,304.3804887252549 534.1484404392967,286.2916864280161 534.1484404392967,406.8837017429415" />
  <polygon fill="white" points="279.0061579239799,363.9646530177838 279.0061579239799,315.7278468918136 309.1541617527113,307.02486782878964 309.1541617527113,355.26167395475983" />
  <polygon fill="white" points="339.30216558144264,346.55869489173585 339.30216558144264,298.3218887657657 369.450169410174,289.61890970274175 369.450169410174,337.85571582871194" />
  <polygon fill="white" points="399.59817323890536,329.15273676568796 399.59817323890536,280.91593063971777 429.7461770676367,272.2129515766938 429.7461770676367,320.449757702664" />
  <polygon fill="antiquewhite" points="482.227634628567,464.31014678760334 482.227634628567,361.80693376991667 506.3460376915521,354.8445505194975 506.34603769155217,457.34776353718416" />
  <polygon fill="beige" points="482.227634628567,464.31014678760334 482.227634628567,361.80693376991667 468.3028681277287,349.74773223842413 468.3028681277287,452.25094525611075" />
  <polygon fill="bisque" points="482.227634628567,361.80693376991667 468.3028681277287,349.74773223842413 492.4212711907138,342.78534898800496 506.3460376915521,354.8445505194975" />
  <polygon fill="antiquewhite" points="387.3101789828863,527.3416491529176 387.31017898288627,424.838436135231 411.4285820458714,417.8760528848118 411.4285820458714,520.3792659024984" />
  <polygon fill="beige" points="387.3101789828863,527.3416491529176 387.31017898288627,424.838436135231 373.38541248204797,412.7792346037384 373.38541248204797,515.282447621425" />
  <polygon fill="bisque" points="387.31017898288627,424.838436135231 373.38541248204797,412.7792346037384 397.50381554503304,405.81685135331924 411.4285820458714,417.8760528848118" />
  <polygon fill="antiquewhite" points="441.09466710540886,385.72448218177203 441.0946671054088,283.2212691640854 465.2130701683939,276.25888591366623 465.213070168394,378.76209893135285" />
  <polygon fill="beige" points="441.09466710540886,385.72448218177203 441.0946671054088,283.2212691640854 427.1699006045705,271.1620676325929 427.1699006045705,373.6652806502795" />
  <polygon fill="bisque" points="441.0946671054088,283.2212691640854 427.1699006045705,271.1620676325929 451.2883036675556,264.1996843821737 465.2130701683939,276.25888591366623" />
  <polygon fill="antiquewhite" points="419.81594228911274,417.64995738152834 419.81594228911274,315.1467443638417 443.9343453520978,308.18436111342254 443.9343453520978,410.68757413110916" />
  <polygon fill="beige" points="419.81594228911274,417.64995738152834 419.81594228911274,315.1467443638417 405.8911757882744,303.08754283234913 405.8911757882744,405.59075585003575" />
  <polygon fill="bisque" points="419.81594228911274,315.1467443638417 405.8911757882744,303.08754283234913 430.0095788512595,296.12515958192995 443.9343453520978,308.18436111342254" />
  <polygon fill="antiquewhite" points="381.4706827066275,399.79667149102886 381.47068270662743,297.29345847334224 405.58908576961255,290.33107522292306 405.58908576961255,392.8342882406097" />
  <polygon fill="beige" points="381.4706827066275,399.79667149102886 381.47068270662743,297.29345847334224 367.5459162057891,285.2342569418497 367.5459162057891,387.7374699595363" />
  <polygon fill="bisque" points="381.47068270662743,297.29345847334224 367.5459162057891,285.2342569418497 391.6643192687742,278.2718736914305 405.58908576961255,290.33107522292306" />
</svg>
