<?xml version="1.0" encoding="UTF-8"?>
<svg
  xmlns="http://www.w3.org/2000/svg"
  width="848"
  height="600"
  style="background-color:white"
>
  <polygon fill="lightblue" points="376.4519052838329,501.2259526419165 246.5480947161671,388.7259526419165 471.5480947161671,323.7740473580835 601.451905283833,436.2740473580835" />
  <polygon fill="steelblue" points="246.5480947161671,388.7259526419165 246.5480947161671,163.72595264191648 471.5480947161671,98.77404735808352 471.5480947161671,323.7740473580835" />
  <polygon fill="lightskyblue" points="601.451905283833,436.2740473580835 601.451905283833,211.27404735808352 471.5480947161671,98.77404735808352 471.5480947161671,323.7740473580835" />
  <polygon fill="white" points="546.242785792575,388.4615473580835 546.242785792575,275.9615473580835 526.757214207425,259.0865473580835 526.757214207425,371.5865473580835" />
  <polygon fill="white" points="269.9855947161671,336.9601291748505 269.9855947161671,291.9601291748505 298.1105947161671,283.84114101437143 298.1105947161671,328.84114101437143" />
  <polygon fill="white" points="307.4855947161671,326.13481162754505 307.4855947161671,281.13481162754505 335.6105947161671,273.0158234670659 335.6105947161671,318.0158234670659" />
  <polygon fill="white" points="344.9855947161671,315.3094940802396 344.9855947161671,270.3094940802396 373.1105947161671,262.1905059197604 373.1105947161671,307.1905059197604" />
  <polygon fill="white" points="382.4855947161671,304.48417653293404 382.4855947161671,259.48417653293404 410.6105947161671,251.36518837245495 410.6105947161671,296.36518837245495" />
  <polygon fill="white" points="419.9855947161671,293.65885898562857 419.9855947161671,248.65885898562857 448.1105947161671,240.53987082514948 448.1105947161671,285.5398708251495" />
</svg>
