<?xml version="1.0" encoding="UTF-8"?>
<svg
  xmlns="http://www.w3.org/2000/svg"
  width="848"
  height="600"
  style="background-color:white"
>
  <polygon fill="lightblue" points="376.0371036485048,559.7221298410465 245.00003393806,446.24069863432885 471.9628963514952,380.7221637791064 602.9999660619401,494.203594985824" />
  <polygon fill="steelblue" points="245.00003393806,446.24069863432885 245.00003393805994,105.79640501417597 471.9628963514952,40.27787015895353 471.9628963514952,380.7221637791064" />
  <polygon fill="lightskyblue" points="602.9999660619401,494.203594985824 602.99996606194,153.75930136567118 471.9628963514952,40.27787015895353 471.9628963514952,380.7221637791064" />
  <polygon fill="white" points="547.309211435001,445.973986722969 547.309211435001,332.4925555162514 527.6536509784343,315.47034083524375 527.6536509784343,428.95177204196136" />
  <polygon fill="white" points="287.5555706405791,388.56340086628757 287.55557064057905,343.1708283836005 315.9259284422585,334.9810115266977 315.9259284422585,380.3735840093848" />
  <polygon fill="white" points="344.29628624393786,372.183767152482 344.29628624393786,326.7911946697949 372.6666440456173,318.6013778128921 372.6666440456173,363.99395029557917" />
  <polygon fill="white" points="401.0370018472967,355.8041334386764 401.0370018472967,310.41156095598933 429.40735964897607,302.2217440990865 429.4073596489761,347.61431658177355" />
  <polygon fill="antiquewhite" points="478.7943020620022,482.99212583954454 478.79430206200215,386.5329093138345 501.4905883033457,379.98105582831226 501.4905883033457,476.4402723540223" />
  <polygon fill="beige" points="478.7943020620022,482.99212583954454 478.79430206200215,386.5329093138345 465.6905950909577,375.1847661931628 465.6905950909577,471.64398271887273" />
  <polygon fill="bisque" points="478.79430206200215,386.5329093138345 465.6905950909577,375.1847661931628 488.38688133230124,368.6329127076405 501.4905883033457,379.98105582831226" />
  <polygon fill="antiquewhite" points="389.47355652969964,542.307040519805 389.47355652969964,445.84782399409505 412.16984277104314,439.2959705085728 412.16984277104314,535.7551870342827" />
  <polygon fill="beige" points="389.47355652969964,542.307040519805 389.47355652969964,445.84782399409505 376.3698495586551,434.49968087342324 376.3698495586551,530.9588973991333" />
  <polygon fill="bisque" points="389.47355652969964,445.84782399409505 376.3698495586551,434.49968087342324 399.0661357999986,427.94782738790104 412.16984277104314,439.2959705085728" />
  <polygon fill="antiquewhite" points="440.08669764791705,409.04018409189666 440.08669764791705,312.5809675661867 462.7829838892606,306.02911408066444 462.78298388926066,402.48833060637446" />
  <polygon fill="beige" points="440.08669764791705,409.04018409189666 440.08669764791705,312.5809675661867 426.9829906768726,301.2328244455149 426.9829906768726,397.6920409712249" />
  <polygon fill="bisque" points="440.08669764791705,312.5809675661867 426.9829906768726,301.2328244455149 449.67927691821615,294.6809709599927 462.7829838892606,306.02911408066444" />
  <polygon fill="antiquewhite" points="420.06265094713757,439.0832064940151 420.06265094713757,342.62398996830507 442.7589371884811,336.07213648278287 442.7589371884811,432.53135300849283" />
  <polygon fill="beige" points="420.06265094713757,439.0832064940151 420.06265094713757,342.62398996830507 406.9589439760931,331.2758468476333 406.9589439760931,427.73506337334334" />
  <polygon fill="bisque" points="420.06265094713757,342.62398996830507 406.9589439760931,331.2758468476333 429.65523021743667,324.72399336211106 442.7589371884811,336.07213648278287" />
</svg>
