<?xml version="1.0" encoding="UTF-8"?>
<svg
  xmlns="http://www.w3.org/2000/svg"
  width="848"
  height="600"
  style="background-color:white"
>
  <polygon fill="lightblue" points="369.0961894323342,499.8797632095822 219.09618943233426,369.9759526419165 478.9038105676658,294.9759526419164 628.9038105676657,424.8797632095822" />
  <polygon fill="steelblue" points="219.09618943233426,369.9759526419165 219.09618943233426,175.12023679041778 478.9038105676658,100.12023679041778 478.9038105676658,294.9759526419164" />
  <polygon fill="lightskyblue" points="628.9038105676657,424.8797632095822 628.9038105676657,230.02404735808355 478.9038105676658,100.12023679041778 478.9038105676658,294.9759526419164" />
  <polygon fill="white" points="565.1538105676657,369.67064371832424 565.1538105676657,239.7668331506585 542.6538105676658,220.28126156550863 542.6538105676658,350.1850721331744" />
  <polygon fill="white" points="254.81973733844234,307.70192841485016 254.81973733844234,255.74040418778384 287.2956899803588,246.3654041877838 287.2956899803588,298.32692841485016" />
  <polygon fill="white" points="306.78126156550866,292.7019284148501 306.78126156550866,240.7404041877838 339.2572142074251,231.3654041877838 339.2572142074251,283.3269284148501" />
  <polygon fill="white" points="358.742785792575,277.7019284148501 358.742785792575,225.7404041877838 391.2187384344914,216.3654041877838 391.2187384344914,268.3269284148501" />
  <polygon fill="white" points="410.70431001964124,262.7019284148501 410.70431001964124,210.74040418778378 443.1802626615577,201.36540418778378 443.1802626615577,253.3269284148501" />
</svg>
