<?xml version="1.0" encoding="UTF-8"?>
<svg
  xmlns="http://www.w3.org/2000/svg"
  width="848"
  height="600"
  style="background-color:white"
>
  <polygon fill="lightblue" points="376.0371036485048,559.7221298410465 245.00003393806,446.24069863432885 471.9628963514952,380.7221637791064 602.9999660619401,494.203594985824" />
  <polygon fill="steelblue" points="245.00003393806,446.24069863432885 245.00003393805994,105.79640501417597 471.9628963514952,40.27787015895353 471.9628963514952,380.7221637791064" />
  <polygon fill="lightskyblue" points="602.9999660619401,494.203594985824 602.99996606194,153.75930136567118 471.9628963514952,40.27787015895353 471.9628963514952,380.7221637791064" />
  <polygon fill="white" points="547.309211435001,445.973986722969 547.309211435001,332.4925555162514 527.6536509784343,315.47034083524375 527.6536509784343,428.95177204196136" />
  <polygon fill="white" points="263.2381210962825,395.58324388649 263.23812109628244,350.1906714038029 291.60847889796185,342.0008545469001 291.60847889796185,387.3934270295872" />
  <polygon fill="white" points="295.66138715534464,386.2234531928868 295.66138715534464,340.8308807101997 324.03174495702405,332.64106385329694 324.03174495702405,378.03363633598394" />
  <polygon fill="white" points="328.0846532144068,376.8636624992836 328.0846532144068,331.4710900165965 356.4550110160862,323.2812731596937 356.4550110160862,368.67384564238074" />
  <polygon fill="white" points="360.507919273469,367.5038718056804 360.507919273469,322.1112993229933 388.8782770751484,313.92148246609054 388.8782770751484,359.31405494877754" />
  <polygon fill="white" points="392.93118533253113,358.1440811120772 392.93118533253113,312.7515086293901 421.30154313421053,304.5616917724873 421.30154313421053,349.9542642551744" />
  <polygon fill="white" points="425.35445139159333,348.784290418474 425.35445139159333,303.3917179357869 453.7248091932727,295.2019010788841 453.72480919327273,340.59447356157114" />
</svg>
