<?xml version="1.0" encoding="UTF-8"?>
<svg
  xmlns="http://www.w3.org/2000/svg"
  width="848"
  height="600"
  style="background-color:white"
>
  <polygon fill="lightblue" points="381.47169120562074,505.13772832466407 265.28219081939824,404.5146693371735 466.5283087943793,346.41991914406225 582.7178091806018,447.0429781315528" />
  <polygon fill="steelblue" points="265.28219081939824,404.5146693371735 265.28219081939824,152.95702186844724 466.52830879437926,94.86227167533596 466.5283087943793,346.41991914406225" />
  <polygon fill="lightskyblue" points="582.7178091806018,447.0429781315528 582.7178091806018,195.48533066282653 466.52830879437926,94.86227167533596 466.5283087943793,346.41991914406225" />
  <polygon fill="white" points="533.3372715164572,404.2781780618693 533.3372715164572,303.6551190743788 515.9088464585238,288.5616602262552 515.9088464585238,389.1847192137457" />
  <polygon fill="white" points="281.4537538709592,359.5971176016594 281.4537538709592,319.34789400666324 306.60951861783184,312.0860502325243 306.60951861783184,352.33527382752055" />
  <polygon fill="white" points="310.20319929595655,351.29786757407214 310.2031992959565,311.0486439790759 335.35896404282914,303.786800204937 335.35896404282914,344.0360237999332" />
  <polygon fill="white" points="338.9526447209538,342.9986175464848 338.9526447209538,302.74939395148857 364.10840946782645,295.4875501773497 364.10840946782645,335.7367737723459" />
  <polygon fill="white" points="367.7020901459511,334.6993675188975 367.7020901459511,294.45014392390124 392.8578548928237,287.18830014976237 392.8578548928237,327.43752374475855" />
  <polygon fill="white" points="396.45153557094835,326.40011749131014 396.45153557094835,286.15089389631396 421.607300317821,278.88905012217504 421.607300317821,319.1382737171712" />
  <polygon fill="white" points="425.20098099594566,318.1008674637228 425.20098099594566,277.8516438687266 450.3567457428183,270.5898000945877 450.3567457428183,310.83902368958394" />
</svg>
