<?xml version="1.0" encoding="UTF-8"?>
<svg
  xmlns="http://www.w3.org/2000/svg"
  width="848"
  height="600"
  style="background-color:white"
>
  <polygon fill="lightblue" points="381.47169120562074,505.13772832466407 265.28219081939824,404.5146693371735 466.5283087943793,346.41991914406225 582.7178091806018,447.0429781315528" />
  <polygon fill="steelblue" points="265.28219081939824,404.5146693371735 265.28219081939824,152.95702186844724 466.52830879437926,94.86227167533596 466.5283087943793,346.41991914406225" />
  <polygon fill="lightskyblue" points="582.7178091806018,447.0429781315528 582.7178091806018,195.48533066282653 466.52830879437926,94.86227167533596 466.5283087943793,346.41991914406225" />
  <polygon fill="white" points="533.3372715164572,404.2781780618693 533.3372715164572,303.6551190743788 515.9088464585238,288.5616602262552 515.9088464585238,389.1847192137457" />
  <polygon fill="white" points="292.9535320409581,356.2774175906245 292.9535320409581,316.02819399562827 318.1092967878308,308.7663502214894 318.1092967878308,349.0155738164856" />
  <polygon fill="white" points="333.20275563595436,344.65846755200226 333.2027556359543,304.409243957006 358.358520382827,297.14740018286716 358.358520382827,337.39662377786334" />
  <polygon fill="white" points="373.45197923095054,333.03951751338 373.45197923095054,292.7902939183838 398.6077439778232,285.52845014424486 398.6077439778232,325.7776737392411" />
  <polygon fill="white" points="413.7012028259468,321.4205674747577 413.7012028259468,281.17134387976154 438.85696757281937,273.9095001056226 438.85696757281937,314.15872370061885" />
</svg>
