<?xml version="1.0" encoding="UTF-8"?>
<svg
  xmlns="http://www.w3.org/2000/svg"
  width="848"
  height="600"
  style="background-color:white"
>
  <polygon fill="lightblue" points="350.7949192431123,566.5063509461097 150.7949192431123,393.30127018922195 497.2050807568877,293.3012701892219 697.2050807568877,466.50635094610965" />
  <polygon fill="steelblue" points="150.7949192431123,393.30127018922195 150.7949192431123,133.49364905389035 497.2050807568877,33.493649053890294 497.2050807568877,293.3012701892219" />
  <polygon fill="lightskyblue" points="697.2050807568877,466.50635094610965 697.2050807568877,206.69872981077805 497.2050807568877,33.493649053890294 497.2050807568877,293.3012701892219" />
  <polygon fill="white" points="612.2050807568877,392.8941916244323 612.2050807568877,219.68911086754463 582.2050807568877,193.70834875401147 582.2050807568877,366.9134295108992" />
  <polygon fill="white" points="186.87931106746387,313.6025712198002 186.87931106746387,244.3205389170451 230.1805812566858,231.8205389170451 230.1805812566858,301.10257121980015" />
  <polygon fill="white" points="244.61433798642645,296.9359045531335 244.61433798642645,227.6538722503784 287.91560817564834,215.1538722503784 287.91560817564834,284.4359045531335" />
  <polygon fill="white" points="302.34936490538905,280.26923788646684 302.34936490538905,210.98720558371173 345.65063509461095,198.48720558371173 345.65063509461095,267.76923788646684" />
  <polygon fill="white" points="360.0843918243516,263.60257121980015 360.0843918243516,194.32053891704504 403.38566201357355,181.82053891704504 403.38566201357355,251.10257121980015" />
  <polygon fill="white" points="417.81941874331415,246.9359045531335 417.81941874331415,177.65387225037838 461.1206889325361,165.15387225037838 461.1206889325361,234.43590455313347" />
</svg>
