<?xml version="1.0" encoding="UTF-8"?>
<svg
  xmlns="http://www.w3.org/2000/svg"
  width="848"
  height="600"
  style="background-color:white"
>
  <polygon fill="lightblue" points="373.03181718926623,545.8479430532154 233.7841521808829,425.25592773828987 474.96818281073377,355.6320952340982 614.2158478191171,476.22411054902364" />
  <polygon fill="steelblue" points="233.7841521808829,425.25592773828987 233.78415218088284,123.77588945097634 474.96818281073377,54.152056946784626 474.96818281073377,355.6320952340982" />
  <polygon fill="lightskyblue" points="614.2158478191171,476.22411054902364 614.2158478191171,174.7440722617101 474.96818281073377,54.152056946784626 474.96818281073377,355.6320952340982" />
  <polygon fill="white" points="531.8276460224903,404.8738348210261 531.8276460224903,284.28181950610065 510.9404962712328,266.1930172088619 510.9404962712328,386.78503252378727" />
  <polygon fill="white" points="578.243534358618,445.0711732593346 578.243534358618,324.47915794440917 557.3563846073606,306.39035564717034 557.3563846073606,426.9823709620958" />
  <polygon fill="grey" points="462.22613710805035,120.13624328439818 462.2261371080503,89.98823945566681 492.37414093678166,81.28526039264287 492.3741409367817,111.4332642213742" />
  <polygon fill="lightgrey" points="462.22613710805035,120.13624328439818 462.2261371080503,89.98823945566681 444.8201789820024,74.91423754130113 444.8201789820024,105.06224137003247" />
  <polygon fill="darkgrey" points="462.2261371080503,89.98823945566681 444.8201789820024,74.91423754130113 474.96818281073377,66.21125847827716 492.37414093678166,81.28526039264287" />
  <polygon fill="hsl(288.0,50.0%,52.57800117743009%)" points="447.5004160275513,462.46395614352707 447.5004160275513,421.05265808438173 454.7359369464468,418.963943109256 454.7359369464468,460.3752411684013" />
  <polygon fill="hsl(288.0,50.0%,52.57800117743009%)" points="465.58921832479007,457.24216870571274 465.58921832479007,415.83087064656735 458.35369740589454,417.9195856216931 458.35369740589454,459.3308836808385" />
  <polygon fill="hsl(288.0,50.0%,52.57800117743009%)" points="440.26489510865576,423.5513859115782 440.26489510865576,382.55010070450356 446.5959759126893,380.7224751012685 446.5959759126893,421.7237603083432" />
  <polygon fill="hsl(288.0,50.0%,52.57800117743009%)" points="466.49365843965205,415.9797941267474 466.49365843965205,374.9785089196727 472.8247392436856,373.15088331643767 472.8247392436856,414.15216852351233" />
  <polygon fill="hsl(288.0,50.0%,52.57800117743009%)" points="446.5959759126893,387.0535559053021 446.5959759126893,380.7224751012685 466.49365843965205,374.9785089196727 466.49365843965205,381.3095897237063" />
  <polygon fill="hsl(288.0,50.0%,52.57800117743009%)" points="447.5004160275513,421.46267093645247 447.5004160275513,380.4613857293778 465.58921832479007,375.2395982915634 465.58921832479007,416.2408834986381" />
  <polygon fill="hsl(288.0,50.0%,52.57800117743009%)" points="452.022616601861,377.1058746095705 452.022616601861,358.6552962663869 461.0670177504804,356.0444025474797 461.0670177504804,374.49498089066327" />
  <polygon fill="hsl(288.0,50.0%,52.57800117743009%)" points="453.83149683158484,378.63376012614276 453.83149683158484,358.13311752260546 459.2581375207565,356.5665812912612 459.2581375207565,377.0672238947985" />
  <polygon fill="hsl(288.0,50.0%,46.24652422154656%)" points="393.26186994430515,498.4819574951353 393.26186994430515,457.0706594359899 400.4973908632007,454.98194446086416 400.4973908632007,496.3932425200095" />
  <polygon fill="hsl(288.0,50.0%,46.24652422154656%)" points="411.350672241544,493.2601700573209 411.350672241544,451.8488719981755 404.11515132264844,453.9375869733012 404.11515132264844,495.3488850324467" />
  <polygon fill="hsl(288.0,50.0%,46.24652422154656%)" points="386.0263490254096,459.5693872631864 386.0263490254096,418.56810205611174 392.35742982944316,416.7404764528767 392.35742982944316,457.74176165995135" />
  <polygon fill="hsl(288.0,50.0%,46.24652422154656%)" points="412.2551123564059,451.99779547835556 412.2551123564059,410.9965102712809 418.58619316043945,409.16888466804585 418.58619316043945,450.1701698751205" />
  <polygon fill="hsl(288.0,50.0%,46.24652422154656%)" points="392.35742982944316,423.0715572569103 392.35742982944316,416.7404764528767 412.2551123564059,410.9965102712809 412.2551123564059,417.32759107531444" />
  <polygon fill="hsl(288.0,50.0%,46.24652422154656%)" points="393.26186994430515,457.48067228806065 393.26186994430515,416.479387080986 411.350672241544,411.2575996431716 411.350672241544,452.25888485024626" />
  <polygon fill="hsl(288.0,50.0%,46.24652422154656%)" points="397.78407051861484,413.12387596117867 397.78407051861484,394.67329761799505 406.8284716672342,392.0624038990879 406.8284716672342,410.51298224227145" />
  <polygon fill="hsl(288.0,50.0%,46.24652422154656%)" points="399.59295074833875,414.65176147775094 399.5929507483387,394.15111887421364 405.01959143751037,392.58458264286935 405.01959143751037,413.08522524640665" />
</svg>
