<?xml version="1.0" encoding="UTF-8"?>
<svg
  xmlns="http://www.w3.org/2000/svg"
  width="848"
  height="600"
  style="background-color:white"
>
  <polygon fill="lightblue" points="363.5705372728252,519.9961455481084 198.47417482809388,377.018501598568 484.4294627271748,294.47032037620227 649.5258251719061,437.44796432574276" />
  <polygon fill="steelblue" points="198.47417482809388,377.018501598568 198.47417482809388,162.55203567425727 484.4294627271748,80.00385445189158 484.4294627271748,294.47032037620227" />
  <polygon fill="lightskyblue" points="649.5258251719061,437.44796432574276 649.5258251719061,222.98149840143202 484.4294627271748,80.00385445189158 484.4294627271748,294.47032037620227" />
  <polygon fill="white" points="579.3598711328953,376.68246564718805 579.3598711328953,233.70482169764756 554.5954167661856,212.25817510521654 554.5954167661856,355.235819054757" />
  <polygon fill="white" points="221.45272474855574,313.1941080276688 221.45272474855574,256.0030504478526 257.19713573594083,245.6845277950569 257.19713573594083,302.8755853748731" />
  <polygon fill="white" points="262.3034801627102,301.401510710188 262.3034801627102,244.2104531303718 298.04789115009527,233.8919304775761 298.04789115009527,291.0829880573923" />
  <polygon fill="white" points="303.1542355768646,289.60891339270717 303.1542355768646,232.417855812891 338.8986465642497,222.09933316009528 338.8986465642497,279.29039073991146" />
  <polygon fill="white" points="344.004990991019,277.8163160752264 344.004990991019,220.62525849541018 379.7494019784041,210.30673584261447 379.7494019784041,267.4977934224307" />
  <polygon fill="white" points="384.85574640517336,266.02371875774554 384.85574640517336,208.83266117792937 420.6001573925585,198.51413852513366 420.6001573925585,255.70519610494983" />
  <polygon fill="white" points="425.7065018193278,254.23112144026476 425.7065018193278,197.04006386044856 461.45091280671295,186.72154120765285 461.45091280671295,243.91259878746905" />
</svg>
