<?xml version="1.0" encoding="UTF-8"?>
<svg
  xmlns="http://www.w3.org/2000/svg"
  width="848"
  height="600"
  style="background-color:white"
>
  <polygon fill="lightblue" points="350.7949192431123,609.8076211353316 150.7949192431123,436.6025403784439 497.2050807568877,336.60254037844385 697.2050807568877,509.80762113533154" />
  <polygon fill="steelblue" points="150.7949192431123,436.6025403784439 150.7949192431123,90.19237886466846 497.2050807568877,-9.807621135331658 497.2050807568877,336.60254037844385" />
  <polygon fill="lightskyblue" points="697.2050807568877,509.80762113533154 697.2050807568877,163.39745962155612 497.2050807568877,-9.807621135331658 497.2050807568877,336.60254037844385" />
  <polygon fill="white" points="612.2050807568877,436.1954618136543 612.2050807568877,262.9903810567666 582.2050807568877,237.00961894323342 582.2050807568877,410.2146997001211" />
  <polygon fill="white" points="198.4263164512564,353.57050807568874 198.4263164512564,284.2884757729337 241.72758664047834,271.7884757729337 241.72758664047834,341.07050807568874" />
  <polygon fill="white" points="267.70834875401147,333.57050807568874 267.70834875401147,264.2884757729337 311.0096189432334,251.78847577293368 311.0096189432335,321.07050807568874" />
  <polygon fill="white" points="336.99038105676664,313.57050807568874 336.99038105676664,244.28847577293365 380.29165124598853,231.78847577293365 380.29165124598853,301.07050807568874" />
  <polygon fill="white" points="406.2724133595217,293.57050807568874 406.2724133595217,224.28847577293365 449.5736835487436,211.78847577293365 449.5736835487436,281.07050807568874" />
</svg>
