<?xml version="1.0" encoding="UTF-8"?>
<svg
  xmlns="http://www.w3.org/2000/svg"
  width="848"
  height="600"
  style="background-color:white"
>
  <polygon fill="lightblue" points="373.03181718926623,545.8479430532154 233.7841521808829,425.25592773828987 474.96818281073377,355.6320952340982 614.2158478191171,476.22411054902364" />
  <polygon fill="steelblue" points="233.7841521808829,425.25592773828987 233.78415218088284,123.77588945097634 474.96818281073377,54.152056946784626 474.96818281073377,355.6320952340982" />
  <polygon fill="lightskyblue" points="614.2158478191171,476.22411054902364 614.2158478191171,174.7440722617101 474.96818281073377,54.152056946784626 474.96818281073377,355.6320952340982" />
  <polygon fill="white" points="555.0355901905542,424.97250404018035 555.0355901905542,304.3804887252549 534.1484404392967,286.2916864280161 534.1484404392967,406.8837017429415" />
  <polygon fill="white" points="253.16501178506732,371.4243493575186 253.16501178506732,323.18754323154843 283.3130156137987,314.4845641685245 283.3130156137987,362.72137029449465" />
  <polygon fill="white" points="287.61987330361745,361.47808757120555 287.61987330361745,313.24128144523536 317.7678771323488,304.5383023822114 317.7678771323488,352.7751085081816" />
  <polygon fill="white" points="322.07473482216756,351.5318257848925 322.07473482216756,303.29501965892223 352.2227386508989,294.5920405958983 352.2227386508989,342.82884672186844" />
  <polygon fill="white" points="356.5295963407177,341.58556399857935 356.5295963407177,293.34875787260916 386.6776001694491,284.6457788095852 386.6776001694491,332.88258493555537" />
  <polygon fill="white" points="390.9844578592678,331.6393022122662 390.9844578592678,283.402496086296 421.1324616879992,274.6995170232721 421.1324616879992,322.93632314924224" />
  <polygon fill="white" points="425.4393193778179,321.69304042595314 425.4393193778179,273.45623429998295 455.5873232065493,264.753255236959 455.5873232065493,312.99006136292917" />
</svg>
