<?xml version="1.0" encoding="UTF-8"?>
<svg
  xmlns="http://www.w3.org/2000/svg"
  width="848"
  height="600"
  style="background-color:white"
>
  <polygon fill="lightblue" points="369.0961894323342,532.3557158514986 219.09618943233426,402.4519052838329 478.9038105676658,327.45190528383284 628.9038105676657,457.35571585149864" />
  <polygon fill="steelblue" points="219.09618943233426,402.4519052838329 219.09618943233426,142.64428414850136 478.9038105676658,67.6442841485013 478.9038105676658,327.45190528383284" />
  <polygon fill="lightskyblue" points="628.9038105676657,457.35571585149864 628.9038105676657,197.5480947161671 478.9038105676658,67.6442841485013 478.9038105676658,327.45190528383284" />
  <polygon fill="white" points="565.1538105676657,402.14659636024066 565.1538105676657,272.2427857925749 542.6538105676658,252.75721420742505 542.6538105676658,382.6610247750908" />
  <polygon fill="white" points="246.15948330059794,342.6778810567666 246.15948330059794,290.71635682970026 278.6354359425144,281.34135682970026 278.6354359425144,333.3028810567666" />
  <polygon fill="white" points="289.46075348981987,330.1778810567666 289.46075348981987,278.21635682970026 321.9367061317363,268.84135682970026 321.9367061317363,320.8028810567666" />
  <polygon fill="white" points="332.7620236790418,317.6778810567666 332.7620236790418,265.71635682970026 365.23797632095824,256.34135682970026 365.23797632095824,308.3028810567666" />
  <polygon fill="white" points="376.0632938682637,305.1778810567666 376.0632938682637,253.21635682970026 408.53924651018013,243.84135682970026 408.53924651018013,295.8028810567666" />
  <polygon fill="white" points="419.3645640574856,292.6778810567666 419.3645640574856,240.71635682970026 451.8405166994021,231.34135682970026 451.8405166994021,283.3028810567666" />
  <polygon fill="antiquewhite" points="486.72381798114327,444.5217874398053 486.72381798114327,334.1035484572894 512.7045800946764,326.6035484572894 512.7045800946764,437.0217874398053" />
  <polygon fill="beige" points="486.72381798114327,444.5217874398053 486.72381798114327,334.1035484572894 471.72381798114327,321.1131674005228 471.72381798114327,431.5314063830387" />
  <polygon fill="bisque" points="486.72381798114327,334.1035484572894 471.72381798114327,321.1131674005228 497.70458009467643,313.6131674005228 512.7045800946764,326.6035484572894" />
  <polygon fill="antiquewhite" points="384.47708841483467,512.4204150701352 384.47708841483467,402.00217608761926 410.4578505283678,394.50217608761926 410.4578505283678,504.92041507013516" />
  <polygon fill="beige" points="384.47708841483467,512.4204150701352 384.47708841483467,402.00217608761926 369.47708841483467,389.0117950308527 369.47708841483467,499.4300340133685" />
  <polygon fill="bisque" points="384.47708841483467,402.00217608761926 369.47708841483467,389.0117950308527 395.4578505283678,381.5117950308527 410.4578505283678,394.50217608761926" />
  <polygon fill="antiquewhite" points="442.4146719132199,359.86794645679845 442.4146719132199,249.44970747428255 468.39543402675304,241.94970747428255 468.39543402675304,352.36794645679845" />
  <polygon fill="beige" points="442.4146719132199,359.86794645679845 442.4146719132199,249.44970747428255 427.4146719132198,236.45932641751597 427.4146719132198,346.87756540003187" />
  <polygon fill="bisque" points="442.4146719132199,249.44970747428255 427.4146719132198,236.45932641751597 453.39543402675304,228.95932641751597 468.39543402675304,241.94970747428255" />
  <polygon fill="antiquewhite" points="419.4928604612845,394.2586220898522 419.4928604612845,283.8403831073363 445.4736225748177,276.34038310733627 445.4736225748177,386.7586220898522" />
  <polygon fill="beige" points="419.4928604612845,394.2586220898522 419.4928604612845,283.8403831073363 404.4928604612845,270.8500020505697 404.4928604612845,381.2682410330856" />
  <polygon fill="bisque" points="419.4928604612845,283.8403831073363 404.4928604612845,270.8500020505697 430.4736225748177,263.3500020505697 445.4736225748177,276.34038310733627" />
</svg>
