<?xml version="1.0" encoding="UTF-8"?>
<svg
  xmlns="http://www.w3.org/2000/svg"
  width="848"
  height="600"
  style="background-color:white"
>
  <polygon fill="lightblue" points="369.0961894323342,532.3557158514986 219.09618943233426,402.4519052838329 478.9038105676658,327.45190528383284 628.9038105676657,457.35571585149864" />
  <polygon fill="steelblue" points="219.09618943233426,402.4519052838329 219.09618943233426,142.64428414850136 478.9038105676658,67.6442841485013 478.9038105676658,327.45190528383284" />
  <polygon fill="lightskyblue" points="628.9038105676657,457.35571585149864 628.9038105676657,197.5480947161671 478.9038105676658,67.6442841485013 478.9038105676658,327.45190528383284" />
  <polygon fill="white" points="540.1538105676657,380.4959612656297 540.1538105676657,250.59215069796394 517.6538105676658,231.10657911281407 517.6538105676658,361.0103896804799" />
  <polygon fill="white" points="590.1538105676658,423.7972314548516 590.1538105676658,293.89342088718587 567.6538105676657,274.407849302036 567.6538105676657,404.31165986970177" />
  <polygon fill="white" points="267.8101183952089,336.4278810567666 267.8101183952089,284.46635682970026 300.28607103712534,275.09135682970026 300.28607103712534,327.0528810567666" />
  <polygon fill="white" points="332.7620236790418,317.6778810567666 332.7620236790418,265.71635682970026 365.23797632095824,256.34135682970026 365.23797632095824,308.3028810567666" />
  <polygon fill="white" points="397.71392896287466,298.9278810567666 397.71392896287466,246.96635682970026 430.18988160479114,237.59135682970026 430.18988160479114,289.5528810567666" />
  <polygon fill="hsl(360.0,50.0%,52.57800117743009%)" points="449.31505575996886,442.5330388558002 449.31505575996886,397.92407030686377 457.1092843940288,395.67407030686377 457.1092843940288,440.2830388558002" />
  <polygon fill="hsl(360.0,50.0%,52.57800117743009%)" points="468.80062734511876,436.9080388558002 468.80062734511876,392.29907030686377 461.00639871105875,394.54907030686377 461.00639871105875,439.1580388558002" />
  <polygon fill="hsl(360.0,50.0%,52.57800117743009%)" points="441.5208271259089,400.61574326279384 441.5208271259089,356.4484476697875 448.34077718071137,354.4796976697875 448.34077718071137,398.64699326279384" />
  <polygon fill="hsl(360.0,50.0%,52.57800117743009%)" points="469.77490592437624,392.45949326279384 469.77490592437624,348.2921976697875 476.59485597917865,346.3234476697875 476.59485597917865,390.49074326279384" />
  <polygon fill="hsl(360.0,50.0%,52.57800117743009%)" points="448.34077718071137,361.29964772459 448.34077718071137,354.4796976697875 469.77490592437624,348.2921976697875 469.77490592437624,355.11214772458993" />
  <polygon fill="hsl(360.0,50.0%,52.57800117743009%)" points="449.31505575996886,398.36574326279384 449.31505575996886,354.1984476697875 468.80062734511876,348.5734476697875 468.80062734511876,392.74074326279384" />
  <polygon fill="hsl(360.0,50.0%,52.57800117743009%)" points="454.18644865625635,350.5838328901372 454.18644865625635,330.70854987328437 463.92923444883127,327.8960498732843 463.92923444883127,347.77133289013716" />
  <polygon fill="hsl(360.0,50.0%,52.57800117743009%)" points="456.1350058147713,352.2296976697875 456.1350058147713,330.1460498732843 461.9806772903163,328.4585498732843 461.9806772903163,350.5421976697875" />
</svg>
