<?xml version="1.0" encoding="UTF-8"?>
<svg
  xmlns="http://www.w3.org/2000/svg"
  width="848"
  height="600"
  style="background-color:white"
>
  <polygon fill="lightblue" points="350.7949192431123,696.4101615137755 150.7949192431123,523.2050807568877 497.20508075688775,423.2050807568877 697.2050807568878,596.4101615137755" />
  <polygon fill="steelblue" points="150.7949192431123,523.2050807568877 150.79491924311225,3.589838486224494 497.2050807568877,-96.4101615137755 497.20508075688775,423.2050807568877" />
  <polygon fill="lightskyblue" points="697.2050807568878,596.4101615137755 697.2050807568877,76.79491924311228 497.2050807568877,-96.4101615137755 497.20508075688775,423.2050807568877" />
  <polygon fill="white" points="612.2050807568878,522.7980021920982 612.2050807568877,349.5929214352104 582.2050807568877,323.61215932167727 582.2050807568878,496.817240078565" />
  <polygon fill="white" points="186.8793110674639,443.506381787466 186.87931106746387,374.22434948471084 230.18058125668583,361.72434948471084 230.18058125668583,431.00638178746595" />
  <polygon fill="white" points="244.61433798642648,426.83971512079927 244.61433798642648,357.5576828180442 287.91560817564834,345.0576828180442 287.9156081756484,414.33971512079927" />
  <polygon fill="white" points="302.34936490538905,410.17304845413264 302.34936490538905,340.8910161513775 345.65063509461095,328.3910161513775 345.65063509461095,397.67304845413264" />
  <polygon fill="white" points="360.0843918243516,393.50638178746595 360.0843918243516,324.22434948471084 403.38566201357355,311.72434948471084 403.38566201357355,381.00638178746595" />
  <polygon fill="white" points="417.81941874331415,376.8397151207993 417.81941874331415,307.5576828180442 461.1206889325361,295.05768281804416 461.1206889325361,364.33971512079927" />
</svg>
