<?xml version="1.0" encoding="UTF-8"?>
<svg
  xmlns="http://www.w3.org/2000/svg"
  width="848"
  height="600"
  style="background-color:white"
>
  <polygon fill="lightblue" points="369.0961894323342,499.8797632095822 219.09618943233426,369.9759526419165 478.9038105676658,294.9759526419164 628.9038105676657,424.8797632095822" />
  <polygon fill="steelblue" points="219.09618943233426,369.9759526419165 219.09618943233426,175.12023679041778 478.9038105676658,100.12023679041778 478.9038105676658,294.9759526419164" />
  <polygon fill="lightskyblue" points="628.9038105676657,424.8797632095822 628.9038105676657,230.02404735808355 478.9038105676658,100.12023679041778 478.9038105676658,294.9759526419164" />
  <polygon fill="white" points="565.1538105676657,369.67064371832424 565.1538105676657,239.7668331506585 542.6538105676658,220.28126156550863 542.6538105676658,350.1850721331744" />
  <polygon fill="white" points="239.97358755928053,311.98764270056444 239.97358755928053,260.0261184734981 272.449540201197,250.65111847349812 272.449540201197,302.61264270056444" />
  <polygon fill="white" points="277.08896200718505,301.2733569862787 277.08896200718505,249.3118327592124 309.56491464910147,239.9368327592124 309.56491464910147,291.8983569862787" />
  <polygon fill="white" points="314.20433645508956,290.559071271993 314.20433645508956,238.59754704492667 346.680289097006,229.22254704492667 346.680289097006,281.184071271993" />
  <polygon fill="white" points="351.3197109029941,279.84478555770727 351.3197109029941,227.88326133064095 383.7956635449105,218.50826133064095 383.7956635449105,270.46978555770727" />
  <polygon fill="white" points="388.43508535089853,269.13049984342155 388.43508535089853,217.16897561635525 420.91103799281495,207.79397561635523 420.91103799281495,259.75549984342155" />
  <polygon fill="white" points="425.55045979880305,258.4162141291358 425.55045979880305,206.45468990206953 458.02641244071947,197.07968990206953 458.02641244071947,249.04121412913582" />
</svg>
