<?xml version="1.0" encoding="UTF-8"?>
<svg
  xmlns="http://www.w3.org/2000/svg"
  width="848"
  height="600"
  style="background-color:white"
>
  <polygon fill="lightblue" points="363.5705372728252,519.9961455481084 198.47417482809388,377.018501598568 484.4294627271748,294.47032037620227 649.5258251719061,437.44796432574276" />
  <polygon fill="steelblue" points="198.47417482809388,377.018501598568 198.47417482809388,162.55203567425727 484.4294627271748,80.00385445189158 484.4294627271748,294.47032037620227" />
  <polygon fill="lightskyblue" points="649.5258251719061,437.44796432574276 649.5258251719061,222.98149840143202 484.4294627271748,80.00385445189158 484.4294627271748,294.47032037620227" />
  <polygon fill="white" points="579.3598711328953,376.68246564718805 579.3598711328953,233.70482169764756 554.5954167661856,212.25817510521654 554.5954167661856,355.235819054757" />
  <polygon fill="white" points="237.7930269142175,308.4770691006765 237.7930269142175,251.28601152086028 273.53743790160263,240.96748886806458 273.53743790160263,298.1585464478808" />
  <polygon fill="white" points="294.9840844940337,291.96743285620335 294.9840844940337,234.77637527638717 330.7284954814188,224.45785262359144 330.7284954814188,281.64891020340764" />
  <polygon fill="white" points="352.1751420738499,275.4577966117302 352.1751420738499,218.26673903191403 387.91955306123504,207.94821637911832 387.91955306123504,265.1392739589345" />
  <polygon fill="white" points="409.36619965366606,258.94816036725706 409.36619965366606,201.75710278744089 445.1106106410512,191.43858013464518 445.1106106410512,248.62963771446135" />
  <polygon fill="antiquewhite" points="493.0364945822146,423.3223983480983 493.0364945822146,301.7914009909889 521.6320233721227,293.5365828687523 521.6320233721227,415.0675802258617" />
  <polygon fill="beige" points="493.0364945822146,423.3223983480983 493.0364945822146,301.7914009909889 476.52685833774143,287.4936365960349 476.52685833774143,409.02463395314425" />
  <polygon fill="bisque" points="493.0364945822146,301.7914009909889 476.52685833774143,287.4936365960349 505.1223871276496,279.2388184737983 521.6320233721227,293.5365828687523" />
  <polygon fill="antiquewhite" points="380.4994070937632,498.05450792647696 380.4994070937632,376.52351056936755 409.09493588367127,368.268692447131 409.09493588367127,489.7996898042404" />
  <polygon fill="beige" points="380.4994070937632,498.05450792647696 380.4994070937632,376.52351056936755 363.98977084929004,362.2257461744135 363.98977084929004,483.75674353152294" />
  <polygon fill="bisque" points="380.4994070937632,376.52351056936755 363.98977084929004,362.2257461744135 392.5852996391981,353.97092805217693 409.09493588367127,368.268692447131" />
</svg>
