<?xml version="1.0" encoding="UTF-8"?>
<svg
  xmlns="http://www.w3.org/2000/svg"
  width="848"
  height="600"
  style="background-color:white"
>
  <polygon fill="lightblue" points="373.03181718926623,545.8479430532154 233.7841521808829,425.25592773828987 474.96818281073377,355.6320952340982 614.2158478191171,476.22411054902364" />
  <polygon fill="steelblue" points="233.7841521808829,425.25592773828987 233.78415218088284,123.77588945097634 474.96818281073377,54.152056946784626 474.96818281073377,355.6320952340982" />
  <polygon fill="lightskyblue" points="614.2158478191171,476.22411054902364 614.2158478191171,174.7440722617101 474.96818281073377,54.152056946784626 474.96818281073377,355.6320952340982" />
  <polygon fill="white" points="531.8276460224903,404.8738348210261 531.8276460224903,284.28181950610065 510.9404962712328,266.1930172088619 510.9404962712328,386.78503252378727" />
  <polygon fill="white" points="578.243534358618,445.0711732593346 578.243534358618,324.47915794440917 557.3563846073606,306.39035564717034 557.3563846073606,426.9823709620958" />
  <polygon fill="white" points="299.1048271431342,358.1626669757678 299.1048271431341,309.92586084979763 329.2528309718655,301.2228817867737 329.25283097186554,349.4596879127439" />
  <polygon fill="white" points="379.4995040197511,334.95472280770394 379.4995040197511,286.71791668173375 409.64750784848246,278.0149376187098 409.64750784848246,326.25174374467997" />
  <polygon fill="hsl(288.0,50.0%,52.57800117743009%)" points="447.5004160275513,462.46395614352707 447.5004160275513,421.05265808438173 454.7359369464468,418.963943109256 454.7359369464468,460.3752411684013" />
  <polygon fill="hsl(288.0,50.0%,52.57800117743009%)" points="465.58921832479007,457.24216870571274 465.58921832479007,415.83087064656735 458.35369740589454,417.9195856216931 458.35369740589454,459.3308836808385" />
  <polygon fill="hsl(288.0,50.0%,52.57800117743009%)" points="440.26489510865576,423.5513859115782 440.26489510865576,382.55010070450356 446.5959759126893,380.7224751012685 446.5959759126893,421.7237603083432" />
  <polygon fill="hsl(288.0,50.0%,52.57800117743009%)" points="466.49365843965205,415.9797941267474 466.49365843965205,374.9785089196727 472.8247392436856,373.15088331643767 472.8247392436856,414.15216852351233" />
  <polygon fill="hsl(288.0,50.0%,52.57800117743009%)" points="446.5959759126893,387.0535559053021 446.5959759126893,380.7224751012685 466.49365843965205,374.9785089196727 466.49365843965205,381.3095897237063" />
  <polygon fill="hsl(288.0,50.0%,52.57800117743009%)" points="447.5004160275513,421.46267093645247 447.5004160275513,380.4613857293778 465.58921832479007,375.2395982915634 465.58921832479007,416.2408834986381" />
  <polygon fill="hsl(288.0,50.0%,52.57800117743009%)" points="452.022616601861,377.1058746095705 452.022616601861,358.6552962663869 461.0670177504804,356.0444025474797 461.0670177504804,374.49498089066327" />
  <polygon fill="hsl(288.0,50.0%,52.57800117743009%)" points="453.83149683158484,378.63376012614276 453.83149683158484,358.13311752260546 459.2581375207565,356.5665812912612 459.2581375207565,377.0672238947985" />
</svg>
