<?xml version="1.0" encoding="UTF-8"?>
<svg
  xmlns="http://www.w3.org/2000/svg"
  width="848"
  height="600"
  style="background-color:white"
>
  <polygon fill="lightblue" points="376.4519052838329,501.2259526419165 246.5480947161671,388.7259526419165 471.5480947161671,323.7740473580835 601.451905283833,436.2740473580835" />
  <polygon fill="steelblue" points="246.5480947161671,388.7259526419165 246.5480947161671,163.72595264191648 471.5480947161671,98.77404735808352 471.5480947161671,323.7740473580835" />
  <polygon fill="lightskyblue" points="601.451905283833,436.2740473580835 601.451905283833,211.27404735808352 471.5480947161671,98.77404735808352 471.5480947161671,323.7740473580835" />
  <polygon fill="white" points="546.242785792575,388.4615473580835 546.242785792575,275.9615473580835 526.757214207425,259.0865473580835 526.757214207425,371.5865473580835" />
  <polygon fill="white" points="277.4855947161671,334.7950656653894 277.4855947161671,289.7950656653894 305.6105947161671,281.6760775049103 305.6105947161671,326.6760775049103" />
  <polygon fill="white" points="322.4855947161671,321.80468460862284 322.4855947161671,276.80468460862284 350.6105947161671,268.68569644814374 350.6105947161671,313.68569644814374" />
  <polygon fill="white" points="367.48559471616716,308.81430355185626 367.4855947161671,263.81430355185626 395.6105947161671,255.69531539137714 395.6105947161671,300.6953153913771" />
  <polygon fill="white" points="412.4855947161671,295.8239224950897 412.4855947161671,250.82392249508968 440.6105947161671,242.70493433461056 440.6105947161671,287.7049343346105" />
</svg>
