<?xml version="1.0" encoding="UTF-8"?>
<svg
  xmlns="http://www.w3.org/2000/svg"
  width="848"
  height="600"
  style="background-color:white"
>
  <polygon fill="lightblue" points="376.0371036485048,559.7221298410465 245.00003393806,446.24069863432885 471.9628963514952,380.7221637791064 602.9999660619401,494.203594985824" />
  <polygon fill="steelblue" points="245.00003393806,446.24069863432885 245.00003393805994,105.79640501417597 471.9628963514952,40.27787015895353 471.9628963514952,380.7221637791064" />
  <polygon fill="lightskyblue" points="602.9999660619401,494.203594985824 602.99996606194,153.75930136567118 471.9628963514952,40.27787015895353 471.9628963514952,380.7221637791064" />
  <polygon fill="white" points="547.309211435001,445.973986722969 547.309211435001,332.4925555162514 527.6536509784343,315.47034083524375 527.6536509784343,428.95177204196136" />
  <polygon fill="white" points="268.6419987727928,394.0232787708895 268.6419987727928,348.6307062882024 297.0123565744722,340.4408894312996 297.0123565744722,385.83346191398664" />
  <polygon fill="white" points="306.46914250836534,383.1035229616857 306.46914250836534,337.71095047899865 334.83950031004474,329.5211336220959 334.83950031004474,374.91370610478293" />
  <polygon fill="white" points="344.29628624393786,372.183767152482 344.29628624393786,326.7911946697949 372.6666440456173,318.6013778128921 372.6666440456173,363.99395029557917" />
  <polygon fill="white" points="382.12342997951043,361.26401134327824 382.12342997951043,315.8714388605912 410.49378778118984,307.68162200368835 410.49378778118984,353.0741944863754" />
  <polygon fill="white" points="419.95057371508295,350.3442555340745 419.95057371508295,304.9516830513874 448.32093151676236,296.76186619448464 448.32093151676236,342.1544386771717" />
</svg>
