<?xml version="1.0" encoding="UTF-8"?>
<svg
  xmlns="http://www.w3.org/2000/svg"
  width="848"
  height="600"
  style="background-color:white"
>
  <polygon fill="lightblue" points="373.03181718926623,545.8479430532154 233.7841521808829,425.25592773828987 474.96818281073377,355.6320952340982 614.2158478191171,476.22411054902364" />
  <polygon fill="steelblue" points="233.7841521808829,425.25592773828987 233.78415218088284,123.77588945097634 474.96818281073377,54.152056946784626 474.96818281073377,355.6320952340982" />
  <polygon fill="lightskyblue" points="614.2158478191171,476.22411054902364 614.2158478191171,174.7440722617101 474.96818281073377,54.152056946784626 474.96818281073377,355.6320952340982" />
  <polygon fill="white" points="555.0355901905542,424.97250404018035 555.0355901905542,304.3804887252549 534.1484404392967,286.2916864280161 534.1484404392967,406.8837017429415" />
  <polygon fill="antiquewhite" points="482.227634628567,464.31014678760334 482.227634628567,361.80693376991667 506.3460376915521,354.8445505194975 506.34603769155217,457.34776353718416" />
  <polygon fill="beige" points="482.227634628567,464.31014678760334 482.227634628567,361.80693376991667 468.3028681277287,349.74773223842413 468.3028681277287,452.25094525611075" />
  <polygon fill="bisque" points="482.227634628567,361.80693376991667 468.3028681277287,349.74773223842413 492.4212711907138,342.78534898800496 506.3460376915521,354.8445505194975" />
  <polygon fill="antiquewhite" points="387.3101789828863,527.3416491529176 387.31017898288627,424.838436135231 411.4285820458714,417.8760528848118 411.4285820458714,520.3792659024984" />
  <polygon fill="beige" points="387.3101789828863,527.3416491529176 387.31017898288627,424.838436135231 373.38541248204797,412.7792346037384 373.38541248204797,515.282447621425" />
  <polygon fill="bisque" points="387.31017898288627,424.838436135231 373.38541248204797,412.7792346037384 397.50381554503304,405.81685135331924 411.4285820458714,417.8760528848118" />
</svg>
