<?xml version="1.0" encoding="UTF-8"?>
<svg
  xmlns="http://www.w3.org/2000/svg"
  width="848"
  height="600"
  style="background-color:white"
>
  <polygon fill="lightblue" points="365.8970888985497,545.8944718489954 207.15698370172979,408.4215081491351 482.1029111014503,329.0514555507251 640.8430162982702,466.52441925058537" />
  <polygon fill="steelblue" points="207.15698370172979,408.4215081491351 207.15698370172979,133.47558074941463 482.1029111014503,54.10552815100459 482.1029111014503,329.0514555507251" />
  <polygon fill="lightskyblue" points="640.8430162982702,466.52441925058537 640.8430162982702,191.57849185086488 482.1029111014503,54.10552815100459 482.1029111014503,329.0514555507251" />
  <polygon fill="white" points="258.7093450891774,338.5504378069891 258.7093450891774,283.56125232704505 293.0775860141424,273.6399957522438 293.0775860141424,328.6291812321879" />
  <polygon fill="white" points="327.4458269391075,318.7079246573866 327.4458269391075,263.71873917744256 361.81406786407257,253.79748260264128 361.81406786407257,308.7866680825854" />
  <polygon fill="white" points="396.1823087890376,298.86541150778413 396.1823087890376,243.87622602784003 430.55054971400267,233.95496945303879 430.55054971400267,288.9441549329829" />
  <polygon fill="hsl(288.0,50.0%,52.57800117743009%)" points="450.7900974293388,450.8380638799477 450.7900974293388,403.6298481454157 459.03847525133045,401.2487465674634 459.03847525133045,448.4569623019954" />
  <polygon fill="hsl(288.0,50.0%,52.57800117743009%)" points="471.4110419843178,444.88530993506697 471.4110419843178,397.67709420053495 463.1626641623262,400.05819577848723 463.1626641623262,447.2664115130193" />
  <polygon fill="hsl(288.0,50.0%,52.57800117743009%)" points="442.5417196073472,406.4783577999475 442.5417196073472,359.73755014199503 449.75905020158984,357.6540862612868 449.75905020158984,404.3948939192393" />
  <polygon fill="hsl(288.0,50.0%,52.57800117743009%)" points="472.4420892120668,397.84686457987044 472.4420892120668,351.10605692191797 479.6594198063095,349.0225930412097 479.6594198063095,395.76340069916216" />
  <polygon fill="hsl(288.0,50.0%,52.57800117743009%)" points="449.75905020158984,364.87141685552945 449.75905020158984,357.6540862612868 472.4420892120668,351.10605692191797 472.4420892120668,358.3233875161606" />
  <polygon fill="hsl(288.0,50.0%,52.57800117743009%)" points="450.7900974293388,404.0972562219952 450.7900974293388,357.35644856404275 471.4110419843178,351.40369461916197 471.4110419843178,398.1445022771145" />
  <polygon fill="hsl(288.0,50.0%,52.57800117743009%)" points="455.9453335680836,353.5312196949249 455.9453335680836,332.49785624884635 466.2558058455731,329.52147927640596 466.2558058455731,350.5548427224845" />
  <polygon fill="hsl(288.0,50.0%,52.57800117743009%)" points="458.0074280235815,355.27298468333447 458.0074280235815,331.90258085435823 464.1937113900752,330.116754670894 464.1937113900752,353.48715849987025" />
</svg>
