<?xml version="1.0" encoding="UTF-8"?>
<svg
  xmlns="http://www.w3.org/2000/svg"
  width="848"
  height="600"
  style="background-color:white"
>
  <polygon fill="lightblue" points="385.1771432346219,510.22823500323386 279.1111260566398,418.3723696488647 462.8228567653781,365.3393610598736 568.8888739433603,457.1952264142428" />
  <polygon fill="steelblue" points="279.1111260566398,418.3723696488647 279.11112605663976,142.80477358575718 462.8228567653781,89.77176499676611 462.8228567653781,365.3393610598736" />
  <polygon fill="lightskyblue" points="568.8888739433603,457.1952264142428 568.8888739433602,181.6276303511353 462.8228567653781,89.77176499676611 462.8228567653781,365.3393610598736" />
  <polygon fill="white" points="523.8108166427178,418.1564836386359 523.8108166427178,326.3006182842667 507.9009140660205,312.52223848111134 507.9009140660205,404.37810383548054" />
  <polygon fill="white" points="293.87367584573485,377.3684424597874 293.87367584573485,340.62609631803974 316.83764218432714,333.9969702444158 316.83764218432714,370.7393163861635" />
  <polygon fill="white" points="320.118208804126,369.7922983756458 320.118208804126,333.0499522338981 343.0821751427183,326.42082616027426 343.0821751427183,363.1631723020219" />
  <polygon fill="white" points="346.3627417625172,362.2161542915042 346.3627417625172,325.47380814975656 369.3267081011095,318.8446820761327 369.3267081011095,355.58702821788034" />
  <polygon fill="white" points="372.6072747209084,354.64001020736265 372.6072747209084,317.897664065615 395.57124105950066,311.2685379919911 395.57124105950066,348.0108841337388" />
  <polygon fill="white" points="398.85180767929955,347.0638661232211 398.85180767929955,310.3215199814734 421.81577401789184,303.6923939078495 421.81577401789184,340.43474004959717" />
  <polygon fill="white" points="425.0963406376908,339.4877220390795 425.0963406376908,302.7453758973318 448.0603069762831,296.1162498237079 448.0603069762831,332.8585959654556" />
</svg>
