<?xml version="1.0" encoding="UTF-8"?>
<svg
  xmlns="http://www.w3.org/2000/svg"
  width="848"
  height="600"
  style="background-color:white"
>
  <polygon fill="lightblue" points="376.0371036485048,559.7221298410465 245.00003393806,446.24069863432885 471.9628963514952,380.7221637791064 602.9999660619401,494.203594985824" />
  <polygon fill="steelblue" points="245.00003393806,446.24069863432885 245.00003393805994,105.79640501417597 471.9628963514952,40.27787015895353 471.9628963514952,380.7221637791064" />
  <polygon fill="lightskyblue" points="602.9999660619401,494.203594985824 602.99996606194,153.75930136567118 471.9628963514952,40.27787015895353 471.9628963514952,380.7221637791064" />
  <polygon fill="white" points="547.309211435001,445.973986722969 547.309211435001,332.4925555162514 527.6536509784343,315.47034083524375 527.6536509784343,428.95177204196136" />
  <polygon fill="antiquewhite" points="478.7943020620022,482.99212583954454 478.79430206200215,386.5329093138345 501.4905883033457,379.98105582831226 501.4905883033457,476.4402723540223" />
  <polygon fill="beige" points="478.7943020620022,482.99212583954454 478.79430206200215,386.5329093138345 465.6905950909577,375.1847661931628 465.6905950909577,471.64398271887273" />
  <polygon fill="bisque" points="478.79430206200215,386.5329093138345 465.6905950909577,375.1847661931628 488.38688133230124,368.6329127076405 501.4905883033457,379.98105582831226" />
  <polygon fill="antiquewhite" points="389.47355652969964,542.307040519805 389.47355652969964,445.84782399409505 412.16984277104314,439.2959705085728 412.16984277104314,535.7551870342827" />
  <polygon fill="beige" points="389.47355652969964,542.307040519805 389.47355652969964,445.84782399409505 376.3698495586551,434.49968087342324 376.3698495586551,530.9588973991333" />
  <polygon fill="bisque" points="389.47355652969964,445.84782399409505 376.3698495586551,434.49968087342324 399.0661357999986,427.94782738790104 412.16984277104314,439.2959705085728" />
</svg>
