<?xml version="1.0" encoding="UTF-8"?>
<svg
  xmlns="http://www.w3.org/2000/svg"
  width="848"
  height="600"
  style="background-color:white"
>
  <polygon fill="lightblue" points="360.04947153133975,532.8147419146777 185.33337858407992,381.5061669723875 487.95052846866025,294.1481204987576 662.6666214159201,445.4566954410477" />
  <polygon fill="steelblue" points="185.33337858407992,381.5061669723875 185.33337858407992,154.54330455895226 487.95052846866025,67.18525808532232 487.95052846866025,294.1481204987576" />
  <polygon fill="lightskyblue" points="662.6666214159201,445.4566954410477 662.6666214159201,218.49383302761248 487.95052846866025,67.18525808532232 487.95052846866025,294.1481204987576" />
  <polygon fill="white" points="559.2929330887913,355.9324552668594 559.2929330887913,212.18930907168374 533.0855191467024,189.49302283034018 533.0855191467024,333.2361690255159" />
  <polygon fill="white" points="617.531630737878,406.36864691428946 617.531630737878,262.6255007191138 591.324216795789,239.92921447777027 591.324216795789,383.67236067294596" />
  <polygon fill="white" points="242.07409418743876,304.6031032816658 242.07409418743876,244.07967330474975 279.9012379230113,233.159917495546 279.9012379230113,293.68334747246206" />
  <polygon fill="white" points="317.7283816585838,282.76359166325835 317.7283816585838,222.24016168634228 355.55552539415635,211.3204058771385 355.55552539415635,271.8438358540546" />
  <polygon fill="white" points="393.3826691297289,260.9240800448508 393.3826691297289,200.40065006793478 431.20981286530144,189.48089425873104 431.20981286530144,250.00432423564712" />
  <polygon fill="hsl(360.0,50.0%,52.57800117743009%)" points="453.48631756749194,428.19162736299677 453.48631756749194,376.23226272781426 462.5648320640293,373.61152133360537 462.56483206402936,425.5708859687878" />
  <polygon fill="hsl(360.0,50.0%,52.57800117743009%)" points="476.18260380883544,421.6397738774745 476.18260380883544,369.68040924229206 467.104089312298,372.30115063650095 467.104089312298,424.2605152716834" />
  <polygon fill="hsl(360.0,50.0%,52.57800117743009%)" points="444.4078030709545,379.36745327682695 444.4078030709545,327.9225377964483 452.35150325542475,325.6293890765155 452.35150325542475,377.07430455689416" />
  <polygon fill="hsl(360.0,50.0%,52.57800117743009%)" points="477.31741812090263,369.8672657228197 477.31741812090263,318.42235024244104 485.26111830537286,316.12920152250825 485.26111830537286,367.5741170028869" />
  <polygon fill="hsl(360.0,50.0%,52.57800117743009%)" points="452.35150325542475,333.57308926098574 452.35150325542475,325.6293890765155 477.31741812090263,318.42235024244104 477.31741812090263,326.3660504269113" />
  <polygon fill="hsl(360.0,50.0%,52.57800117743009%)" points="453.48631756749194,376.74671188261806 453.4863175674919,325.3017964022394 476.18260380883544,318.74994291671715 476.18260380883544,370.1948583970958" />
  <polygon fill="hsl(360.0,50.0%,52.57800117743009%)" points="459.1603891278278,321.0915872568399 459.1603891278278,297.94137529066955 470.50853224849953,294.6654485479084 470.50853224849953,317.8156605140788" />
  <polygon fill="hsl(360.0,50.0%,52.57800117743009%)" points="461.4300177519621,323.0086476823066 461.4300177519621,297.2861899421173 468.2389036243652,295.3206338964606 468.2389036243652,321.04309163664993" />
</svg>
