<?xml version="1.0" encoding="UTF-8"?>
<svg
  xmlns="http://www.w3.org/2000/svg"
  width="848"
  height="600"
  style="background-color:white"
>
  <polygon fill="lightblue" points="369.0961894323342,532.3557158514986 219.09618943233426,402.4519052838329 478.9038105676658,327.45190528383284 628.9038105676657,457.35571585149864" />
  <polygon fill="steelblue" points="219.09618943233426,402.4519052838329 219.09618943233426,142.64428414850136 478.9038105676658,67.6442841485013 478.9038105676658,327.45190528383284" />
  <polygon fill="lightskyblue" points="628.9038105676657,457.35571585149864 628.9038105676657,197.5480947161671 478.9038105676658,67.6442841485013 478.9038105676658,327.45190528383284" />
  <polygon fill="white" points="540.1538105676657,380.4959612656297 540.1538105676657,250.59215069796394 517.6538105676658,231.10657911281407 517.6538105676658,361.0103896804799" />
  <polygon fill="white" points="590.1538105676658,423.7972314548516 590.1538105676658,293.89342088718587 567.6538105676657,274.407849302036 567.6538105676657,404.31165986970177" />
  <polygon fill="white" points="332.7620236790418,317.6778810567666 332.7620236790418,265.71635682970026 365.23797632095824,256.34135682970026 365.23797632095824,308.3028810567666" />
  <polygon fill="hsl(324.0,50.0%,68.65222276527638%)" points="423.99554372115546,394.1594154369392 423.99554372115546,349.55044688800274 431.78977235521546,347.30044688800274 431.78977235521546,391.9094154369392" />
  <polygon fill="hsl(324.0,50.0%,68.65222276527638%)" points="443.48111530630536,388.5344154369392 443.48111530630536,343.92544688800274 435.6868866722454,346.17544688800274 435.6868866722454,390.7844154369392" />
  <polygon fill="hsl(324.0,50.0%,68.65222276527638%)" points="416.2013150870955,352.2421198439328 416.2013150870955,308.07482425092644 423.02126514189797,306.10607425092644 423.02126514189797,350.2733698439328" />
  <polygon fill="hsl(324.0,50.0%,68.65222276527638%)" points="444.45539388556284,344.0858698439328 444.45539388556284,299.91857425092644 451.2753439403653,297.94982425092644 451.2753439403653,342.1171198439328" />
  <polygon fill="hsl(324.0,50.0%,68.65222276527638%)" points="423.02126514189797,312.9260243057289 423.02126514189797,306.10607425092644 444.45539388556284,299.91857425092644 444.45539388556284,306.7385243057289" />
  <polygon fill="hsl(324.0,50.0%,68.65222276527638%)" points="423.99554372115546,349.9921198439328 423.99554372115546,305.82482425092644 443.48111530630536,300.19982425092644 443.48111530630536,344.3671198439328" />
  <polygon fill="hsl(324.0,50.0%,68.65222276527638%)" points="428.86693661744295,302.21020947127613 428.86693661744295,282.3349264544233 438.60972241001787,279.5224264544233 438.60972241001787,299.39770947127613" />
  <polygon fill="hsl(324.0,50.0%,68.65222276527638%)" points="430.8154937759579,303.85607425092644 430.8154937759579,281.7724264544233 436.6611652515029,280.0849264544233 436.6611652515029,302.16857425092644" />
  <polygon fill="hsl(324.0,50.0%,65.5749766448301%)" points="393.5026476220779,413.62184957854043 393.5026476220779,369.012881029604 401.29687625613786,366.762881029604 401.29687625613786,411.37184957854043" />
  <polygon fill="hsl(324.0,50.0%,65.5749766448301%)" points="412.9882192072278,407.99684957854043 412.9882192072278,363.387881029604 405.19399057316787,365.637881029604 405.19399057316787,410.24684957854043" />
  <polygon fill="hsl(324.0,50.0%,65.5749766448301%)" points="385.708418988018,371.70455398553406 385.708418988018,327.5372583925277 392.52836904282043,325.5685083925277 392.52836904282043,369.73580398553406" />
  <polygon fill="hsl(324.0,50.0%,65.5749766448301%)" points="413.9624977864853,363.54830398553406 413.9624977864853,319.3810083925277 420.78244784128776,317.4122583925277 420.78244784128776,361.57955398553406" />
  <polygon fill="hsl(324.0,50.0%,65.5749766448301%)" points="392.52836904282043,332.38845844733015 392.52836904282043,325.5685083925277 413.9624977864853,319.3810083925277 413.9624977864853,326.20095844733015" />
  <polygon fill="hsl(324.0,50.0%,65.5749766448301%)" points="393.5026476220779,369.45455398553406 393.5026476220779,325.2872583925277 412.9882192072278,319.6622583925277 412.9882192072278,363.82955398553406" />
  <polygon fill="hsl(324.0,50.0%,65.5749766448301%)" points="398.3740405183654,321.6726436128774 398.3740405183654,301.79736059602453 408.1168263109403,298.98486059602453 408.1168263109403,318.8601436128774" />
  <polygon fill="hsl(324.0,50.0%,65.5749766448301%)" points="400.3225976768804,323.3185083925277 400.3225976768804,301.23486059602453 406.16826915242535,299.54736059602453 406.16826915242535,321.6310083925277" />
  <polygon fill="hsl(324.0,50.0%,63.87054183818537%)" points="350.24323420582107,432.014101935566 350.24323420582107,387.4051333866296 358.037462839881,385.1551333866296 358.037462839881,429.764101935566" />
  <polygon fill="hsl(324.0,50.0%,63.87054183818537%)" points="369.72880579097097,426.389101935566 369.72880579097097,381.7801333866296 361.934577156911,384.0301333866296 361.934577156911,428.63910193556603" />
  <polygon fill="hsl(324.0,50.0%,63.87054183818537%)" points="342.4490055717612,390.0968063425596 342.4490055717612,345.9295107495533 349.2689556265636,343.9607607495533 349.2689556265636,388.1280563425596" />
  <polygon fill="hsl(324.0,50.0%,63.87054183818537%)" points="370.70308437022845,381.9405563425596 370.70308437022845,337.7732607495533 377.52303442503086,335.8045107495533 377.52303442503086,379.9718063425596" />
  <polygon fill="hsl(324.0,50.0%,63.87054183818537%)" points="349.2689556265636,350.78071080435575 349.2689556265636,343.9607607495533 370.70308437022845,337.7732607495533 370.70308437022845,344.59321080435575" />
  <polygon fill="hsl(324.0,50.0%,63.87054183818537%)" points="350.24323420582107,387.8468063425596 350.24323420582107,343.6795107495533 369.7288057909709,338.0545107495533 369.72880579097097,382.2218063425596" />
  <polygon fill="hsl(324.0,50.0%,63.87054183818537%)" points="355.11462710210856,340.064895969903 355.11462710210856,320.1896129530501 364.8574128946835,317.3771129530501 364.8574128946835,337.252395969903" />
  <polygon fill="hsl(324.0,50.0%,63.87054183818537%)" points="357.06318426062353,341.7107607495533 357.06318426062353,319.6271129530501 362.9088557361685,317.9396129530501 362.9088557361685,340.0232607495533" />
  <polygon fill="hsl(324.0,50.0%,52.57800117743009%)" points="449.31505575996886,442.5330388558002 449.31505575996886,397.92407030686377 457.1092843940288,395.67407030686377 457.1092843940288,440.2830388558002" />
  <polygon fill="hsl(324.0,50.0%,52.57800117743009%)" points="468.80062734511876,436.9080388558002 468.80062734511876,392.29907030686377 461.00639871105875,394.54907030686377 461.00639871105875,439.1580388558002" />
  <polygon fill="hsl(324.0,50.0%,52.57800117743009%)" points="441.5208271259089,400.61574326279384 441.5208271259089,356.4484476697875 448.34077718071137,354.4796976697875 448.34077718071137,398.64699326279384" />
  <polygon fill="hsl(324.0,50.0%,52.57800117743009%)" points="469.77490592437624,392.45949326279384 469.77490592437624,348.2921976697875 476.59485597917865,346.3234476697875 476.59485597917865,390.49074326279384" />
  <polygon fill="hsl(324.0,50.0%,52.57800117743009%)" points="448.34077718071137,361.29964772459 448.34077718071137,354.4796976697875 469.77490592437624,348.2921976697875 469.77490592437624,355.11214772458993" />
  <polygon fill="hsl(324.0,50.0%,52.57800117743009%)" points="449.31505575996886,398.36574326279384 449.31505575996886,354.1984476697875 468.80062734511876,348.5734476697875 468.80062734511876,392.74074326279384" />
  <polygon fill="hsl(324.0,50.0%,52.57800117743009%)" points="454.18644865625635,350.5838328901372 454.18644865625635,330.70854987328437 463.92923444883127,327.8960498732843 463.92923444883127,347.77133289013716" />
  <polygon fill="hsl(324.0,50.0%,52.57800117743009%)" points="456.1350058147713,352.2296976697875 456.1350058147713,330.1460498732843 461.9806772903163,328.4585498732843 461.9806772903163,350.5421976697875" />
  <polygon fill="hsl(324.0,50.0%,46.24652422154656%)" points="390.88835315064966,481.3322546445602 390.88835315064966,436.72328609562373 398.6825817847096,434.47328609562373 398.6825817847096,479.0822546445602" />
  <polygon fill="hsl(324.0,50.0%,46.24652422154656%)" points="410.3739247357995,475.7072546445602 410.3739247357995,431.09828609562373 402.57969610173956,433.34828609562373 402.57969610173956,477.9572546445602" />
  <polygon fill="hsl(324.0,50.0%,46.24652422154656%)" points="383.0941245165897,439.4149590515538 383.0941245165897,395.24766345854744 389.9140745713921,393.27891345854744 389.9140745713922,437.4462090515538" />
  <polygon fill="hsl(324.0,50.0%,46.24652422154656%)" points="411.348203315057,431.2587090515538 411.348203315057,387.09141345854744 418.16815336985945,385.12266345854744 418.16815336985945,429.2899590515538" />
  <polygon fill="hsl(324.0,50.0%,46.24652422154656%)" points="389.9140745713921,400.0988635133499 389.9140745713921,393.27891345854744 411.348203315057,387.09141345854744 411.348203315057,393.9113635133499" />
  <polygon fill="hsl(324.0,50.0%,46.24652422154656%)" points="390.88835315064966,437.1649590515538 390.88835315064966,392.99766345854744 410.3739247357995,387.37266345854744 410.3739247357995,431.5399590515538" />
  <polygon fill="hsl(324.0,50.0%,46.24652422154656%)" points="395.75974604693715,389.3830486788971 395.75974604693715,369.5077656620443 405.502531839512,366.6952656620443 405.502531839512,386.5705486788971" />
  <polygon fill="hsl(324.0,50.0%,46.24652422154656%)" points="397.7083032054521,391.02891345854744 397.7083032054521,368.9452656620443 403.55397468099704,367.2577656620443 403.55397468099704,389.34141345854744" />
</svg>
