<?xml version="1.0" encoding="UTF-8"?>
<svg
  xmlns="http://www.w3.org/2000/svg"
  width="848"
  height="600"
  style="background-color:white"
>
  <polygon fill="lightblue" points="350.7949192431123,653.1088913245535 150.7949192431123,479.90381056766574 497.20508075688775,379.90381056766574 697.2050807568878,553.1088913245535" />
  <polygon fill="steelblue" points="150.7949192431123,479.90381056766574 150.79491924311225,46.89110867544653 497.2050807568877,-53.1088913245535 497.20508075688775,379.90381056766574" />
  <polygon fill="lightskyblue" points="697.2050807568878,553.1088913245535 697.2050807568877,120.09618943233426 497.2050807568877,-53.1088913245535 497.20508075688775,379.90381056766574" />
  <polygon fill="white" points="612.2050807568878,479.49673200287623 612.2050807568877,306.2916512459885 582.2050807568877,280.3108891324553 582.2050807568878,453.51596988934307" />
  <polygon fill="white" points="178.63145007904066,402.5860639791964 178.63145007904066,333.30403167644135 221.93272026826259,320.80403167644135 221.93272026826259,390.0860639791964" />
  <polygon fill="white" points="228.11861600958002,388.30034969348213 228.11861600958002,319.018317390727 271.4198861988019,306.518317390727 271.4198861988019,375.80034969348213" />
  <polygon fill="white" points="277.60578194011936,374.01463540776786 277.60578194011936,304.73260310501274 320.9070521293413,292.23260310501274 320.9070521293413,361.51463540776786" />
  <polygon fill="white" points="327.0929478706587,359.7289211220536 327.0929478706587,290.44688881929847 370.39421805988064,277.94688881929847 370.39421805988064,347.2289211220536" />
  <polygon fill="white" points="376.580113801198,345.4432068363393 376.580113801198,276.1611745335842 419.88138399042,263.6611745335842 419.88138399042,332.94320683633924" />
  <polygon fill="white" points="426.0672797317374,331.15749255062497 426.0672797317374,261.87546024786985 469.3685499209593,249.37546024786988 469.3685499209593,318.65749255062497" />
</svg>
