<?xml version="1.0" encoding="UTF-8"?>
<svg
  xmlns="http://www.w3.org/2000/svg"
  width="848"
  height="600"
  style="background-color:white"
>
  <polygon fill="lightblue" points="376.0371036485048,559.7221298410465 245.00003393806,446.24069863432885 471.9628963514952,380.7221637791064 602.9999660619401,494.203594985824" />
  <polygon fill="steelblue" points="245.00003393806,446.24069863432885 245.00003393805994,105.79640501417597 471.9628963514952,40.27787015895353 471.9628963514952,380.7221637791064" />
  <polygon fill="lightskyblue" points="602.9999660619401,494.203594985824 602.99996606194,153.75930136567118 471.9628963514952,40.27787015895353 471.9628963514952,380.7221637791064" />
  <polygon fill="white" points="547.309211435001,445.973986722969 547.309211435001,332.4925555162514 527.6536509784343,315.47034083524375 527.6536509784343,428.95177204196136" />
  <polygon fill="grey" points="459.97217226362136,102.37136683904725 459.97217226362136,74.00100903736785 488.34253006530076,65.81119218046501 488.34253006530076,94.18154998214445" />
  <polygon fill="lightgrey" points="459.97217226362136,102.37136683904725 459.97217226362136,74.00100903736785 443.5925385498158,59.81583013652815 443.5925385498158,88.18618793820752" />
  <polygon fill="darkgrey" points="459.97217226362136,74.00100903736785 443.5925385498158,59.81583013652815 471.9628963514952,51.62601327962531 488.34253006530076,65.81119218046501" />
  <polygon fill="hsl(360.0,50.0%,68.65222276527638%)" points="423.996107081856,438.99654150005836 423.996107081856,400.0270180236716 430.8049929542591,398.0614619780149 430.8049929542591,437.03098545440173" />
  <polygon fill="hsl(360.0,50.0%,68.65222276527638%)" points="441.01832176286365,434.08265138591673 441.01832176286365,395.1131279095299 434.20943589046055,397.0786839551866 434.2094358904606,436.04820743157336" />
  <polygon fill="hsl(360.0,50.0%,68.65222276527638%)" points="417.18722120945296,402.3784109354311 417.18722120945296,363.79472432514706 423.1449963478056,362.07486278519747 423.1449963478056,400.6585493954815" />
  <polygon fill="hsl(360.0,50.0%,68.65222276527638%)" points="441.86943249691404,395.2532702699256 441.86943249691404,356.66958365964166 447.8272076352667,354.94972211969207 447.8272076352667,393.53340872997603" />
  <polygon fill="hsl(360.0,50.0%,68.65222276527638%)" points="423.1449963478056,368.03263792355017 423.1449963478056,362.07486278519747 441.86943249691404,356.66958365964166 441.86943249691404,362.6273587979943" />
  <polygon fill="hsl(360.0,50.0%,68.65222276527638%)" points="423.996107081856,400.4128548897744 423.996107081856,361.82916827949043 441.01832176286365,356.91527816534875 441.01832176286365,395.4989647756327" />
  <polygon fill="hsl(360.0,50.0%,68.65222276527638%)" points="428.2516607521079,358.67151142044077 428.2516607521079,341.308852445813 436.76276809261174,338.8519073887422 436.76276809261174,356.21456636336995" />
  <polygon fill="hsl(360.0,50.0%,68.65222276527638%)" points="429.9538822202087,360.1093067395408 429.9538822202087,340.8174634343988 435.06054662451095,339.3432964001563 435.06054662451095,358.6351397052983" />
  <polygon fill="hsl(360.0,50.0%,52.57800117743009%)" points="446.1147381756189,481.25479392728573 446.1147381756189,442.2852704508989 452.923624048022,440.3197144052422 452.923624048022,479.28923788162905" />
  <polygon fill="hsl(360.0,50.0%,52.57800117743009%)" points="463.1369528566266,476.34090381314405 463.1369528566266,437.3713803367572 456.3280669842235,439.3369363824139 456.3280669842235,478.30645985880074" />
  <polygon fill="hsl(360.0,50.0%,52.57800117743009%)" points="439.3058523032159,444.6366633626584 439.3058523032159,406.05297675237443 445.26362744156853,404.33311521242484 445.26362744156853,442.91680182270886" />
  <polygon fill="hsl(360.0,50.0%,52.57800117743009%)" points="463.988063590677,437.511522697153 463.988063590677,398.927836086869 469.9458387290296,397.2079745469194 469.9458387290296,435.7916611572034" />
  <polygon fill="hsl(360.0,50.0%,52.57800117743009%)" points="445.26362744156853,410.29089035077754 445.26362744156853,404.33311521242484 463.988063590677,398.927836086869 463.988063590677,404.8856112252217" />
  <polygon fill="hsl(360.0,50.0%,52.57800117743009%)" points="446.1147381756189,442.67110731700177 446.1147381756189,404.08742070671775 463.1369528566266,399.17353059257607 463.1369528566266,437.75721720286003" />
  <polygon fill="hsl(360.0,50.0%,52.57800117743009%)" points="450.37029184587084,400.92976384766814 450.37029184587084,383.56710487304036 458.88139918637467,381.1101598159695 458.88139918637467,398.47281879059733" />
  <polygon fill="hsl(360.0,50.0%,52.57800117743009%)" points="452.0725133139716,402.36755916676816 452.0725133139716,383.0757158616262 457.1791777182739,381.6015488273837 457.1791777182739,400.89339213252566" />
  <polygon fill="hsl(360.0,50.0%,46.24652422154656%)" points="395.0743121571603,515.1490308874346 395.0743121571603,476.1795074110478 401.88319802956335,474.21395136539115 401.88319802956335,513.183474841778" />
  <polygon fill="hsl(360.0,50.0%,46.24652422154656%)" points="412.09652683816796,510.2351407732929 412.09652683816796,471.26561729690616 405.2876409657649,473.2311733425628 405.2876409657649,512.2006968189496" />
  <polygon fill="hsl(360.0,50.0%,46.24652422154656%)" points="388.26542628475727,478.53090032280727 388.26542628475727,439.9472137125233 394.2232014231099,438.22735217257366 394.2232014231099,476.8110387828577" />
  <polygon fill="hsl(360.0,50.0%,46.24652422154656%)" points="412.94763757221835,471.4057596573018 412.94763757221835,432.82207304701785 418.905412710571,431.1022115070683 418.905412710571,469.6858981173523" />
  <polygon fill="hsl(360.0,50.0%,46.24652422154656%)" points="394.2232014231099,444.1851273109264 394.2232014231099,438.22735217257366 412.94763757221835,432.82207304701785 412.94763757221835,438.7798481853705" />
  <polygon fill="hsl(360.0,50.0%,46.24652422154656%)" points="395.0743121571603,476.56534427715064 395.0743121571603,437.9816576668666 412.09652683816796,433.06776755272494 412.09652683816796,471.6514541630089" />
  <polygon fill="hsl(360.0,50.0%,46.24652422154656%)" points="399.3298658274122,434.824000807817 399.3298658274122,417.4613418331892 407.84097316791605,415.00439677611837 407.84097316791605,432.3670557507462" />
  <polygon fill="hsl(360.0,50.0%,46.24652422154656%)" points="401.032087295513,436.26179612691703 401.032087295513,416.96995282177505 406.13875169981526,415.49578578753255 406.13875169981526,434.78762909267454" />
</svg>
