<?xml version="1.0" encoding="UTF-8"?>
<svg
  xmlns="http://www.w3.org/2000/svg"
  width="848"
  height="600"
  style="background-color:white"
>
  <polygon fill="lightblue" points="350.7949192431123,566.5063509461097 150.7949192431123,393.30127018922195 497.2050807568877,293.3012701892219 697.2050807568877,466.50635094610965" />
  <polygon fill="steelblue" points="150.7949192431123,393.30127018922195 150.7949192431123,133.49364905389035 497.2050807568877,33.493649053890294 497.2050807568877,293.3012701892219" />
  <polygon fill="lightskyblue" points="697.2050807568877,466.50635094610965 697.2050807568877,206.69872981077805 497.2050807568877,33.493649053890294 497.2050807568877,293.3012701892219" />
  <polygon fill="white" points="612.2050807568877,392.8941916244323 612.2050807568877,219.68911086754463 582.2050807568877,193.70834875401147 582.2050807568877,366.9134295108992" />
  <polygon fill="white" points="178.63145007904066,315.98352360075256 178.63145007904066,246.70149129799745 221.93272026826259,234.20149129799745 221.93272026826259,303.48352360075256" />
  <polygon fill="white" points="228.11861600958002,301.6978093150383 228.11861600958002,232.41577701228317 271.4198861988019,219.91577701228317 271.4198861988019,289.1978093150383" />
  <polygon fill="white" points="277.60578194011936,287.41209502932395 277.60578194011936,218.1300627265689 320.9070521293413,205.6300627265689 320.9070521293413,274.91209502932395" />
  <polygon fill="white" points="327.0929478706587,273.1263807436097 327.0929478706587,203.8443484408546 370.39421805988064,191.3443484408546 370.39421805988064,260.6263807436097" />
  <polygon fill="white" points="376.580113801198,258.8406664578954 376.580113801198,189.5586341551403 419.88138399042,177.05863415514028 419.88138399042,246.3406664578954" />
  <polygon fill="white" points="426.0672797317374,244.55495217218112 426.0672797317374,175.272919869426 469.3685499209593,162.772919869426 469.3685499209593,232.05495217218112" />
</svg>
