<?xml version="1.0" encoding="UTF-8"?>
<svg
  xmlns="http://www.w3.org/2000/svg"
  width="848"
  height="600"
  style="background-color:white"
>
  <polygon fill="lightblue" points="363.5705372728252,519.9961455481084 198.47417482809388,377.018501598568 484.4294627271748,294.47032037620227 649.5258251719061,437.44796432574276" />
  <polygon fill="steelblue" points="198.47417482809388,377.018501598568 198.47417482809388,162.55203567425727 484.4294627271748,80.00385445189158 484.4294627271748,294.47032037620227" />
  <polygon fill="lightskyblue" points="649.5258251719061,437.44796432574276 649.5258251719061,222.98149840143202 484.4294627271748,80.00385445189158 484.4294627271748,294.47032037620227" />
  <polygon fill="white" points="579.3598711328953,376.68246564718805 579.3598711328953,233.70482169764756 554.5954167661856,212.25817510521654 554.5954167661856,355.235819054757" />
  <polygon fill="white" points="228.26118398424813,311.228675141422 228.26118398424813,254.03761756160583 264.00559497163323,243.71909490881012 264.00559497163323,300.9101524886263" />
  <polygon fill="white" points="275.92039863409497,297.4706449376944 275.92039863409497,240.2795873578782 311.66480962148006,229.9610647050825 311.66480962148006,287.15212228489867" />
  <polygon fill="white" points="323.5796132839418,283.71261473396675 323.5796132839418,226.52155715415057 359.3240242713269,216.20303450135486 359.3240242713269,273.39409208117104" />
  <polygon fill="white" points="371.23882793378857,269.9545845302392 371.23882793378857,212.76352695042297 406.9832389211737,202.44500429762726 406.9832389211737,259.63606187744347" />
  <polygon fill="white" points="418.8980425836354,256.19655432651155 418.8980425836354,199.00549674669537 454.6424535710205,188.68697409389966 454.6424535710205,245.87803167371584" />
  <polygon fill="hsl(360.0,50.0%,68.65222276527638%)" points="423.9950952304849,367.89143553635455 423.9950952304849,318.7929126040823 432.5737538674573,316.31646716741136 432.5737538674573,365.41499009968356" />
  <polygon fill="hsl(360.0,50.0%,68.65222276527638%)" points="445.4417418229159,361.7003219446771 445.4417418229159,312.6017990124049 436.8630831859435,315.07824444907584 436.8630831859435,364.1767673813481" />
  <polygon fill="hsl(360.0,50.0%,68.65222276527638%)" points="415.41643659351246,321.7554820301817 415.4164365935124,273.14308308733797 422.9227629008633,270.97619333025085 422.9227629008633,319.5885922730946" />
  <polygon fill="hsl(360.0,50.0%,68.65222276527638%)" points="446.5140741525375,312.77836732224944 446.5140741525375,264.1659683794057 454.0204004598884,261.9990786223186 454.0204004598884,310.6114775651624" />
  <polygon fill="hsl(360.0,50.0%,68.65222276527638%)" points="422.9227629008633,278.48251963760174 422.9227629008633,270.97619333025085 446.5140741525375,264.1659683794057 446.5140741525375,271.6722946867566" />
  <polygon fill="hsl(360.0,50.0%,68.65222276527638%)" points="423.9950952304849,319.27903659351074 423.9950952304849,270.666637650667 445.4417418229159,264.47552405898955 445.4417418229159,313.0879230018333" />
  <polygon fill="hsl(360.0,50.0%,68.65222276527638%)" points="429.3567568785926,266.68823930560546 429.3567568785926,244.81265978132578 440.0800801748082,241.71710298548706 440.0800801748082,263.59268250976675" />
  <polygon fill="hsl(360.0,50.0%,68.65222276527638%)" points="431.5014215378357,268.49974789357987 431.5014215378357,244.19354842215802 437.93541551556507,242.3362143446548 437.93541551556507,266.64241381607667" />
  <polygon fill="hsl(360.0,50.0%,65.5749766448301%)" points="390.4333203880659,389.3126160770113 390.4333203880659,340.214093144739 399.01197902503833,337.7376477080681 399.0119790250384,386.8361706403403" />
  <polygon fill="hsl(360.0,50.0%,65.5749766448301%)" points="411.879966980497,383.12150248533385 411.879966980497,334.02297955306165 403.30130834352457,336.4994249897326 403.30130834352457,385.5979479220048" />
  <polygon fill="hsl(360.0,50.0%,65.5749766448301%)" points="381.8546617510935,343.17666257083846 381.8546617510935,294.5642636279947 389.3609880584444,292.3973738709076 389.3609880584444,341.00977281375134" />
  <polygon fill="hsl(360.0,50.0%,65.5749766448301%)" points="412.9522993101186,334.1995478629062 412.9522993101185,285.5871489200624 420.4586256174694,283.42025916297536 420.4586256174694,332.0326581058191" />
  <polygon fill="hsl(360.0,50.0%,65.5749766448301%)" points="389.3609880584444,299.9037001782585 389.3609880584444,292.3973738709076 412.9522993101185,285.5871489200624 412.9522993101185,293.0934752274133" />
  <polygon fill="hsl(360.0,50.0%,65.5749766448301%)" points="390.4333203880659,340.7002171341675 390.4333203880659,292.0878181913237 411.879966980497,285.8967045996463 411.879966980497,334.50910354249004" />
  <polygon fill="hsl(360.0,50.0%,65.5749766448301%)" points="395.7949820361737,288.1094198462622 395.7949820361737,266.2338403219825 406.5183053323892,263.13828352614377 406.5183053323892,285.0138630504235" />
  <polygon fill="hsl(360.0,50.0%,65.5749766448301%)" points="397.9396466954168,289.92092843423666 397.9396466954168,265.61472896281475 404.3736406731461,263.75739488531156 404.3736406731461,288.0635943567334" />
  <polygon fill="hsl(360.0,50.0%,63.87054183818537%)" points="342.8201750779538,409.5559091524143 342.8201750779538,360.4573862201421 351.39883371492624,357.9809407834711 351.39883371492624,407.0794637157433" />
  <polygon fill="hsl(360.0,50.0%,63.87054183818537%)" points="364.2668216703849,403.36479556073687 364.2668216703849,354.26627262846466 355.6881630334125,356.74271806513565 355.6881630334125,405.84124099740785" />
  <polygon fill="hsl(360.0,50.0%,63.87054183818537%)" points="334.2415164409814,363.41995564624153 334.2415164409814,314.8075567033978 341.7478427483323,312.64066694631066 341.7478427483323,361.2530658891544" />
  <polygon fill="hsl(360.0,50.0%,63.87054183818537%)" points="365.33915400000643,354.44284093830925 365.33915400000643,305.8304419954655 372.8454803073573,303.6635522383784 372.8454803073573,352.2759511812221" />
  <polygon fill="hsl(360.0,50.0%,63.87054183818537%)" points="341.7478427483323,320.14699325366155 341.7478427483323,312.64066694631066 365.33915400000643,305.8304419954655 365.33915400000643,313.3367683028164" />
  <polygon fill="hsl(360.0,50.0%,63.87054183818537%)" points="342.8201750779538,360.94351020957055 342.8201750779538,312.3311112667268 364.2668216703849,306.13999767504936 364.2668216703849,354.7523966178931" />
  <polygon fill="hsl(360.0,50.0%,63.87054183818537%)" points="348.1818367260616,308.3527129216652 348.1818367260616,286.47713339738556 358.90516002227713,283.38157660154684 358.90516002227713,305.25715612582655" />
  <polygon fill="hsl(360.0,50.0%,63.87054183818537%)" points="350.3265013853047,310.1642215096397 350.3265013853047,285.8580220382178 356.760495363034,284.0006879607146 356.760495363034,308.3068874321365" />
  <polygon fill="hsl(360.0,50.0%,52.57800117743009%)" points="451.862824140376,421.1334973011894 451.862824140376,372.0349743689172 460.4414827773485,369.5585289322462 460.4414827773485,418.6570518645184" />
  <polygon fill="hsl(360.0,50.0%,52.57800117743009%)" points="473.3094707328071,414.94238370951194 473.3094707328071,365.84386077723974 464.73081209583466,368.3203062139107 464.73081209583466,417.41882914618293" />
  <polygon fill="hsl(360.0,50.0%,52.57800117743009%)" points="443.2841655034036,374.99754379501655 443.2841655034036,326.3851448521728 450.7904918107545,324.21825509508574 450.7904918107545,372.8306540379295" />
  <polygon fill="hsl(360.0,50.0%,52.57800117743009%)" points="474.3818030624286,366.02042908708427 474.3818030624286,317.4080301442405 481.8881293697795,315.24114038715345 481.8881293697795,363.8535393299972" />
  <polygon fill="hsl(360.0,50.0%,52.57800117743009%)" points="450.7904918107545,331.72458140243657 450.7904918107545,324.21825509508574 474.3818030624286,317.4080301442405 474.3818030624286,324.9143564515914" />
  <polygon fill="hsl(360.0,50.0%,52.57800117743009%)" points="451.862824140376,372.5210983583456 451.862824140376,323.9086994155018 473.3094707328071,317.71758582382444 473.3094707328071,366.3299847666682" />
  <polygon fill="hsl(360.0,50.0%,52.57800117743009%)" points="457.2244857884838,319.9303010704403 457.2244857884838,298.05472154616064 467.9478090846993,294.9591647503219 467.9478090846993,316.8347442746016" />
  <polygon fill="hsl(360.0,50.0%,52.57800117743009%)" points="459.3691504477269,321.74180965841475 459.3691504477269,297.43561018699285 465.8031444254562,295.57827610948965 465.8031444254562,319.8844755809115" />
  <polygon fill="hsl(360.0,50.0%,46.24652422154656%)" points="387.55591700411804,463.83755991740577 387.55591700411804,414.73903698513357 396.13457564109046,412.2625915484626 396.13457564109046,461.3611144807347" />
  <polygon fill="hsl(360.0,50.0%,46.24652422154656%)" points="409.0025635965491,457.64644632572833 409.0025635965491,408.5479233934561 400.4239049595767,411.02436883012706 400.4239049595767,460.12289176239926" />
  <polygon fill="hsl(360.0,50.0%,46.24652422154656%)" points="378.9772583671456,417.70160641123294 378.9772583671456,369.0892074683892 386.4835846744965,366.92231771130207 386.4835846744965,415.5347166541458" />
  <polygon fill="hsl(360.0,50.0%,46.24652422154656%)" points="410.07489592617065,408.72449170330066 410.07489592617065,360.1120927604569 417.58122223352154,357.9452030033698 417.58122223352154,406.5576019462136" />
  <polygon fill="hsl(360.0,50.0%,46.24652422154656%)" points="386.4835846744965,374.42864401865296 386.4835846744965,366.92231771130207 410.07489592617065,360.1120927604569 410.07489592617065,367.6184190678078" />
  <polygon fill="hsl(360.0,50.0%,46.24652422154656%)" points="387.55591700411804,415.22516097456196 387.55591700411804,366.6127620317182 409.0025635965491,360.42164844004077 409.0025635965491,409.0340473828845" />
  <polygon fill="hsl(360.0,50.0%,46.24652422154656%)" points="392.9175786522258,362.6343636866567 392.9175786522258,340.75878416237697 403.64090194844135,337.66322736653825 403.64090194844135,359.53880689081797" />
  <polygon fill="hsl(360.0,50.0%,46.24652422154656%)" points="395.06224331146893,364.44587227463114 395.06224331146893,340.13967280320924 401.49623728919823,338.28233872570604 401.49623728919823,362.5885381971279" />
</svg>
