<?xml version="1.0" encoding="UTF-8"?>
<svg
  xmlns="http://www.w3.org/2000/svg"
  width="848"
  height="600"
  style="background-color:white"
>
  <polygon fill="lightblue" points="350.7949192431123,566.5063509461097 150.7949192431123,393.30127018922195 497.2050807568877,293.3012701892219 697.2050807568877,466.50635094610965" />
  <polygon fill="steelblue" points="150.7949192431123,393.30127018922195 150.7949192431123,133.49364905389035 497.2050807568877,33.493649053890294 497.2050807568877,293.3012701892219" />
  <polygon fill="lightskyblue" points="697.2050807568877,466.50635094610965 697.2050807568877,206.69872981077805 497.2050807568877,33.493649053890294 497.2050807568877,293.3012701892219" />
  <polygon fill="white" points="612.2050807568877,392.8941916244323 612.2050807568877,219.68911086754463 582.2050807568877,193.70834875401147 582.2050807568877,366.9134295108992" />
  <polygon fill="white" points="198.4263164512564,310.26923788646684 198.4263164512564,240.98720558371176 241.72758664047834,228.48720558371173 241.72758664047834,297.76923788646684" />
  <polygon fill="white" points="267.70834875401147,290.26923788646684 267.70834875401147,220.98720558371173 311.0096189432334,208.48720558371173 311.0096189432334,277.76923788646684" />
  <polygon fill="white" points="336.99038105676664,270.26923788646684 336.99038105676664,200.98720558371173 380.29165124598853,188.48720558371173 380.29165124598853,257.7692378864668" />
  <polygon fill="white" points="406.2724133595217,250.2692378864668 406.2724133595217,180.98720558371173 449.5736835487436,168.4872055837117 449.5736835487436,237.76923788646678" />
</svg>
