<?xml version="1.0" encoding="UTF-8"?>
<svg
  xmlns="http://www.w3.org/2000/svg"
  width="848"
  height="600"
  style="background-color:white"
>
  <polygon fill="lightblue" points="350.7949192431123,696.4101615137755 150.7949192431123,523.2050807568877 497.20508075688775,423.2050807568877 697.2050807568878,596.4101615137755" />
  <polygon fill="steelblue" points="150.7949192431123,523.2050807568877 150.79491924311225,3.589838486224494 497.2050807568877,-96.4101615137755 497.20508075688775,423.2050807568877" />
  <polygon fill="lightskyblue" points="697.2050807568878,596.4101615137755 697.2050807568877,76.79491924311228 497.2050807568877,-96.4101615137755 497.20508075688775,423.2050807568877" />
  <polygon fill="white" points="612.2050807568878,522.7980021920982 612.2050807568877,349.5929214352104 582.2050807568877,323.61215932167727 582.2050807568878,496.817240078565" />
  <polygon fill="white" points="178.63145007904072,445.88733416841836 178.63145007904066,376.60530186566325 221.93272026826259,364.10530186566325 221.93272026826259,433.38733416841836" />
  <polygon fill="white" points="228.11861600958002,431.6016198827041 228.11861600958002,362.319587579949 271.4198861988019,349.819587579949 271.4198861988019,419.10161988270403" />
  <polygon fill="white" points="277.60578194011936,417.31590559698975 277.60578194011936,348.0338732942347 320.9070521293413,335.5338732942347 320.9070521293413,404.81590559698975" />
  <polygon fill="white" points="327.0929478706587,403.0301913112755 327.0929478706587,333.74815900852036 370.39421805988064,321.24815900852036 370.39421805988064,390.53019131127553" />
  <polygon fill="white" points="376.580113801198,388.7444770255612 376.580113801198,319.4624447228061 419.88138399042,306.9624447228061 419.88138399042,376.2444770255612" />
  <polygon fill="white" points="426.0672797317374,374.4587627398469 426.0672797317374,305.1767304370918 469.3685499209593,292.6767304370918 469.3685499209593,361.9587627398469" />
</svg>
