<?xml version="1.0" encoding="UTF-8"?>
<svg
  xmlns="http://www.w3.org/2000/svg"
  width="848"
  height="600"
  style="background-color:white"
>
  <polygon fill="lightblue" points="369.0961894323342,532.3557158514986 219.09618943233426,402.4519052838329 478.9038105676658,327.45190528383284 628.9038105676657,457.35571585149864" />
  <polygon fill="steelblue" points="219.09618943233426,402.4519052838329 219.09618943233426,142.64428414850136 478.9038105676658,67.6442841485013 478.9038105676658,327.45190528383284" />
  <polygon fill="lightskyblue" points="628.9038105676657,457.35571585149864 628.9038105676657,197.5480947161671 478.9038105676658,67.6442841485013 478.9038105676658,327.45190528383284" />
  <polygon fill="white" points="565.1538105676657,402.14659636024066 565.1538105676657,272.2427857925749 542.6538105676658,252.75721420742505 542.6538105676658,382.6610247750908" />
  <polygon fill="white" points="254.81973733844234,340.1778810567666 254.81973733844234,288.21635682970026 287.2956899803588,278.84135682970026 287.2956899803588,330.8028810567666" />
  <polygon fill="white" points="306.78126156550866,325.1778810567666 306.78126156550866,273.21635682970026 339.2572142074251,263.84135682970026 339.25721420742514,315.8028810567666" />
  <polygon fill="white" points="358.742785792575,310.1778810567666 358.742785792575,258.21635682970026 391.2187384344914,248.84135682970026 391.2187384344914,300.8028810567666" />
  <polygon fill="white" points="410.7043100196413,295.1778810567666 410.70431001964124,243.21635682970026 443.1802626615577,233.84135682970026 443.1802626615577,285.8028810567665" />
</svg>
