<?xml version="1.0" encoding="UTF-8"?>
<svg
  xmlns="http://www.w3.org/2000/svg"
  width="848"
  height="600"
  style="background-color:white"
>
  <polygon fill="lightblue" points="376.0371036485048,559.7221298410465 245.00003393806,446.24069863432885 471.9628963514952,380.7221637791064 602.9999660619401,494.203594985824" />
  <polygon fill="steelblue" points="245.00003393806,446.24069863432885 245.00003393805994,105.79640501417597 471.9628963514952,40.27787015895353 471.9628963514952,380.7221637791064" />
  <polygon fill="lightskyblue" points="602.9999660619401,494.203594985824 602.99996606194,153.75930136567118 471.9628963514952,40.27787015895353 471.9628963514952,380.7221637791064" />
  <polygon fill="white" points="547.309211435001,445.973986722969 547.309211435001,332.4925555162514 527.6536509784343,315.47034083524375 527.6536509784343,428.95177204196136" />
  <polygon fill="white" points="268.6419987727928,394.0232787708895 268.6419987727928,348.6307062882024 297.0123565744722,340.4408894312996 297.0123565744722,385.83346191398664" />
  <polygon fill="white" points="306.46914250836534,383.1035229616857 306.46914250836534,337.71095047899865 334.83950031004474,329.5211336220959 334.83950031004474,374.91370610478293" />
  <polygon fill="white" points="344.29628624393786,372.183767152482 344.29628624393786,326.7911946697949 372.6666440456173,318.6013778128921 372.6666440456173,363.99395029557917" />
  <polygon fill="white" points="382.12342997951043,361.26401134327824 382.12342997951043,315.8714388605912 410.49378778118984,307.68162200368835 410.49378778118984,353.0741944863754" />
  <polygon fill="white" points="419.95057371508295,350.3442555340745 419.95057371508295,304.9516830513874 448.32093151676236,296.76186619448464 448.32093151676236,342.1544386771717" />
  <polygon fill="hsl(324.0,50.0%,68.65222276527638%)" points="423.996107081856,438.99654150005836 423.996107081856,400.0270180236716 430.8049929542591,398.0614619780149 430.8049929542591,437.03098545440173" />
  <polygon fill="hsl(324.0,50.0%,68.65222276527638%)" points="441.01832176286365,434.08265138591673 441.01832176286365,395.1131279095299 434.20943589046055,397.0786839551866 434.2094358904606,436.04820743157336" />
  <polygon fill="hsl(324.0,50.0%,68.65222276527638%)" points="417.18722120945296,402.3784109354311 417.18722120945296,363.79472432514706 423.1449963478056,362.07486278519747 423.1449963478056,400.6585493954815" />
  <polygon fill="hsl(324.0,50.0%,68.65222276527638%)" points="441.86943249691404,395.2532702699256 441.86943249691404,356.66958365964166 447.8272076352667,354.94972211969207 447.8272076352667,393.53340872997603" />
  <polygon fill="hsl(324.0,50.0%,68.65222276527638%)" points="423.1449963478056,368.03263792355017 423.1449963478056,362.07486278519747 441.86943249691404,356.66958365964166 441.86943249691404,362.6273587979943" />
  <polygon fill="hsl(324.0,50.0%,68.65222276527638%)" points="423.996107081856,400.4128548897744 423.996107081856,361.82916827949043 441.01832176286365,356.91527816534875 441.01832176286365,395.4989647756327" />
  <polygon fill="hsl(324.0,50.0%,68.65222276527638%)" points="428.2516607521079,358.67151142044077 428.2516607521079,341.308852445813 436.76276809261174,338.8519073887422 436.76276809261174,356.21456636336995" />
  <polygon fill="hsl(324.0,50.0%,68.65222276527638%)" points="429.9538822202087,360.1093067395408 429.9538822202087,340.8174634343988 435.06054662451095,339.3432964001563 435.06054662451095,358.6351397052983" />
  <polygon fill="hsl(324.0,50.0%,63.87054183818537%)" points="359.5675302600748,472.0656561239757 359.5675302600748,433.0961326475889 366.37641613247786,431.13057660193226 366.37641613247786,470.1001000783191" />
  <polygon fill="hsl(324.0,50.0%,63.87054183818537%)" points="376.5897449410825,467.15176600983403 376.5897449410825,428.1822425334472 369.78085906867943,430.1477985791039 369.78085906867943,469.1173220554907" />
  <polygon fill="hsl(324.0,50.0%,63.87054183818537%)" points="352.7586443876718,435.4475255593484 352.7586443876718,396.86383894906436 358.7164195260244,395.14397740911477 358.7164195260244,433.72766401939884" />
  <polygon fill="hsl(324.0,50.0%,63.87054183818537%)" points="377.4408556751328,428.3223848938429 377.4408556751328,389.73869828355896 383.3986308134855,388.01883674360937 383.3986308134855,426.60252335389333" />
  <polygon fill="hsl(324.0,50.0%,63.87054183818537%)" points="358.7164195260244,401.10175254746747 358.7164195260244,395.14397740911477 377.4408556751328,389.73869828355896 377.4408556751328,395.6964734219116" />
  <polygon fill="hsl(324.0,50.0%,63.87054183818537%)" points="359.5675302600748,433.48196951369175 359.5675302600748,394.8982829034077 376.5897449410825,389.98439278926605 376.5897449410825,428.56807939955" />
  <polygon fill="hsl(324.0,50.0%,63.87054183818537%)" points="363.82308393032673,391.74062604435807 363.82308393032673,374.3779670697303 372.33419127083056,371.9210220126595 372.33419127083056,389.28368098728725" />
  <polygon fill="hsl(324.0,50.0%,63.87054183818537%)" points="365.5253053984275,393.17842136345814 365.5253053984275,373.8865780583161 370.63196980272977,372.41241102407366 370.63196980272977,391.7042543292156" />
  <polygon fill="hsl(324.0,50.0%,52.57800117743009%)" points="446.1147381756189,481.25479392728573 446.1147381756189,442.2852704508989 452.923624048022,440.3197144052422 452.923624048022,479.28923788162905" />
  <polygon fill="hsl(324.0,50.0%,52.57800117743009%)" points="463.1369528566266,476.34090381314405 463.1369528566266,437.3713803367572 456.3280669842235,439.3369363824139 456.3280669842235,478.30645985880074" />
  <polygon fill="hsl(324.0,50.0%,52.57800117743009%)" points="439.3058523032159,444.6366633626584 439.3058523032159,406.05297675237443 445.26362744156853,404.33311521242484 445.26362744156853,442.91680182270886" />
  <polygon fill="hsl(324.0,50.0%,52.57800117743009%)" points="463.988063590677,437.511522697153 463.988063590677,398.927836086869 469.9458387290296,397.2079745469194 469.9458387290296,435.7916611572034" />
  <polygon fill="hsl(324.0,50.0%,52.57800117743009%)" points="445.26362744156853,410.29089035077754 445.26362744156853,404.33311521242484 463.988063590677,398.927836086869 463.988063590677,404.8856112252217" />
  <polygon fill="hsl(324.0,50.0%,52.57800117743009%)" points="446.1147381756189,442.67110731700177 446.1147381756189,404.08742070671775 463.1369528566266,399.17353059257607 463.1369528566266,437.75721720286003" />
  <polygon fill="hsl(324.0,50.0%,52.57800117743009%)" points="450.37029184587084,400.92976384766814 450.37029184587084,383.56710487304036 458.88139918637467,381.1101598159695 458.88139918637467,398.47281879059733" />
  <polygon fill="hsl(324.0,50.0%,52.57800117743009%)" points="452.0725133139716,402.36755916676816 452.0725133139716,383.0757158616262 457.1791777182739,381.6015488273837 457.1791777182739,400.89339213252566" />
  <polygon fill="hsl(324.0,50.0%,46.24652422154656%)" points="395.0743121571603,515.1490308874346 395.0743121571603,476.1795074110478 401.88319802956335,474.21395136539115 401.88319802956335,513.183474841778" />
  <polygon fill="hsl(324.0,50.0%,46.24652422154656%)" points="412.09652683816796,510.2351407732929 412.09652683816796,471.26561729690616 405.2876409657649,473.2311733425628 405.2876409657649,512.2006968189496" />
  <polygon fill="hsl(324.0,50.0%,46.24652422154656%)" points="388.26542628475727,478.53090032280727 388.26542628475727,439.9472137125233 394.2232014231099,438.22735217257366 394.2232014231099,476.8110387828577" />
  <polygon fill="hsl(324.0,50.0%,46.24652422154656%)" points="412.94763757221835,471.4057596573018 412.94763757221835,432.82207304701785 418.905412710571,431.1022115070683 418.905412710571,469.6858981173523" />
  <polygon fill="hsl(324.0,50.0%,46.24652422154656%)" points="394.2232014231099,444.1851273109264 394.2232014231099,438.22735217257366 412.94763757221835,432.82207304701785 412.94763757221835,438.7798481853705" />
  <polygon fill="hsl(324.0,50.0%,46.24652422154656%)" points="395.0743121571603,476.56534427715064 395.0743121571603,437.9816576668666 412.09652683816796,433.06776755272494 412.09652683816796,471.6514541630089" />
  <polygon fill="hsl(324.0,50.0%,46.24652422154656%)" points="399.3298658274122,434.824000807817 399.3298658274122,417.4613418331892 407.84097316791605,415.00439677611837 407.84097316791605,432.3670557507462" />
  <polygon fill="hsl(324.0,50.0%,46.24652422154656%)" points="401.032087295513,436.26179612691703 401.032087295513,416.96995282177505 406.13875169981526,415.49578578753255 406.13875169981526,434.78762909267454" />
</svg>
