<?xml version="1.0" encoding="UTF-8"?>
<svg
  xmlns="http://www.w3.org/2000/svg"
  width="848"
  height="600"
  style="background-color:white"
>
  <polygon fill="lightblue" points="365.8970888985497,545.8944718489954 207.15698370172979,408.4215081491351 482.1029111014503,329.0514555507251 640.8430162982702,466.52441925058537" />
  <polygon fill="steelblue" points="207.15698370172979,408.4215081491351 207.15698370172979,133.47558074941463 482.1029111014503,54.10552815100459 482.1029111014503,329.0514555507251" />
  <polygon fill="lightskyblue" points="640.8430162982702,466.52441925058537 640.8430162982702,191.57849185086488 482.1029111014503,54.10552815100459 482.1029111014503,329.0514555507251" />
  <polygon fill="white" points="573.3784715896218,408.0984096781448 573.3784715896218,277.49909416327756 549.5674558100987,256.8781496082985 549.5674558100987,387.47746512316576" />
  <polygon fill="white" points="281.62150570582077,331.93626675712164 281.6215057058207,276.9470812771775 315.9897466307858,267.02582470237627 315.9897466307858,322.0150101823204" />
  <polygon fill="white" points="373.2701481723942,305.47958255765167 373.2701481723942,250.49039707770754 407.6383890973593,240.5691405029063 407.6383890973593,295.55832598285036" />
  <polygon fill="hsl(360.0,50.0%,52.57800117743009%)" points="450.7900974293388,450.8380638799477 450.7900974293388,403.6298481454157 459.03847525133045,401.2487465674634 459.03847525133045,448.4569623019954" />
  <polygon fill="hsl(360.0,50.0%,52.57800117743009%)" points="471.4110419843178,444.88530993506697 471.4110419843178,397.67709420053495 463.1626641623262,400.05819577848723 463.1626641623262,447.2664115130193" />
  <polygon fill="hsl(360.0,50.0%,52.57800117743009%)" points="442.5417196073472,406.4783577999475 442.5417196073472,359.73755014199503 449.75905020158984,357.6540862612868 449.75905020158984,404.3948939192393" />
  <polygon fill="hsl(360.0,50.0%,52.57800117743009%)" points="472.4420892120668,397.84686457987044 472.4420892120668,351.10605692191797 479.6594198063095,349.0225930412097 479.6594198063095,395.76340069916216" />
  <polygon fill="hsl(360.0,50.0%,52.57800117743009%)" points="449.75905020158984,364.87141685552945 449.75905020158984,357.6540862612868 472.4420892120668,351.10605692191797 472.4420892120668,358.3233875161606" />
  <polygon fill="hsl(360.0,50.0%,52.57800117743009%)" points="450.7900974293388,404.0972562219952 450.7900974293388,357.35644856404275 471.4110419843178,351.40369461916197 471.4110419843178,398.1445022771145" />
  <polygon fill="hsl(360.0,50.0%,52.57800117743009%)" points="455.9453335680836,353.5312196949249 455.9453335680836,332.49785624884635 466.2558058455731,329.52147927640596 466.2558058455731,350.5548427224845" />
  <polygon fill="hsl(360.0,50.0%,52.57800117743009%)" points="458.0074280235815,355.27298468333447 458.0074280235815,331.90258085435823 464.1937113900752,330.116754670894 464.1937113900752,353.48715849987025" />
  <polygon fill="hsl(360.0,50.0%,46.24652422154656%)" points="388.9590246392945,491.89800785236025 388.9590246392945,444.6897921178282 397.2074024612861,442.3086905398759 397.2074024612861,489.5169062744079" />
  <polygon fill="hsl(360.0,50.0%,46.24652422154656%)" points="409.57996919427353,485.94525390747947 409.57996919427353,438.73703817294745 401.33159137228193,441.11813975089973 401.33159137228193,488.32635548543175" />
  <polygon fill="hsl(360.0,50.0%,46.24652422154656%)" points="380.71064681730286,447.53830177236 380.71064681730286,400.7974941144075 387.9279774115455,398.71403023369925 387.92797741154556,445.4548378916517" />
  <polygon fill="hsl(360.0,50.0%,46.24652422154656%)" points="410.6110164220225,438.9068085522829 410.6110164220225,392.1660008943304 417.8283470162651,390.0825370136222 417.8283470162651,436.82334467157466" />
  <polygon fill="hsl(360.0,50.0%,46.24652422154656%)" points="387.9279774115455,405.93136082794194 387.9279774115455,398.71403023369925 410.6110164220225,392.1660008943304 410.6110164220225,399.3833314885731" />
  <polygon fill="hsl(360.0,50.0%,46.24652422154656%)" points="388.9590246392945,445.15720019440766 388.95902463929446,398.41639253645525 409.57996919427353,392.46363859157447 409.57996919427353,439.20444624952694" />
  <polygon fill="hsl(360.0,50.0%,46.24652422154656%)" points="394.11426077803924,394.5911636673374 394.11426077803924,373.5578002212588 404.42473305552875,370.5814232488184 404.42473305552875,391.614786694897" />
  <polygon fill="hsl(360.0,50.0%,46.24652422154656%)" points="396.17635523353715,396.33292865574697 396.17635523353715,372.96252482677073 402.36263860003083,371.1766986433065 402.36263860003083,394.54710247228275" />
</svg>
