<?xml version="1.0" encoding="UTF-8"?>
<svg
  xmlns="http://www.w3.org/2000/svg"
  width="848"
  height="600"
  style="background-color:white"
>
  <polygon fill="lightblue" points="350.7949192431123,696.4101615137755 150.7949192431123,523.2050807568877 497.20508075688775,423.2050807568877 697.2050807568878,596.4101615137755" />
  <polygon fill="steelblue" points="150.7949192431123,523.2050807568877 150.79491924311225,3.589838486224494 497.2050807568877,-96.4101615137755 497.20508075688775,423.2050807568877" />
  <polygon fill="lightskyblue" points="697.2050807568878,596.4101615137755 697.2050807568877,76.79491924311228 497.2050807568877,-96.4101615137755 497.20508075688775,423.2050807568877" />
  <polygon fill="white" points="612.2050807568878,522.7980021920982 612.2050807568877,349.5929214352104 582.2050807568877,323.61215932167727 582.2050807568878,496.817240078565" />
  <polygon fill="white" points="198.42631645125647,440.17304845413264 198.4263164512564,370.8910161513775 241.72758664047834,358.3910161513775 241.72758664047834,427.67304845413264" />
  <polygon fill="white" points="267.70834875401147,420.17304845413264 267.70834875401147,350.8910161513775 311.0096189432335,338.3910161513775 311.0096189432335,407.67304845413264" />
  <polygon fill="white" points="336.99038105676664,400.17304845413264 336.99038105676664,330.8910161513775 380.29165124598853,318.3910161513775 380.29165124598853,387.67304845413264" />
  <polygon fill="white" points="406.2724133595217,380.17304845413264 406.2724133595217,310.8910161513775 449.5736835487436,298.39101615137747 449.57368354874365,367.67304845413264" />
</svg>
