<?xml version="1.0" encoding="UTF-8"?>
<svg
  xmlns="http://www.w3.org/2000/svg"
  width="848"
  height="600"
  style="background-color:white"
>
  <polygon fill="lightblue" points="363.5705372728252,519.9961455481084 198.47417482809388,377.018501598568 484.4294627271748,294.47032037620227 649.5258251719061,437.44796432574276" />
  <polygon fill="steelblue" points="198.47417482809388,377.018501598568 198.47417482809388,162.55203567425727 484.4294627271748,80.00385445189158 484.4294627271748,294.47032037620227" />
  <polygon fill="lightskyblue" points="649.5258251719061,437.44796432574276 649.5258251719061,222.98149840143202 484.4294627271748,80.00385445189158 484.4294627271748,294.47032037620227" />
  <polygon fill="white" points="579.3598711328953,376.68246564718805 579.3598711328953,233.70482169764756 554.5954167661856,212.25817510521654 554.5954167661856,355.235819054757" />
  <polygon fill="white" points="275.92039863409497,297.4706449376944 275.92039863409497,240.2795873578782 311.66480962148006,229.9610647050825 311.66480962148006,287.15212228489867" />
  <polygon fill="white" points="371.23882793378857,269.9545845302392 371.23882793378857,212.76352695042297 406.9832389211737,202.44500429762726 406.9832389211737,259.63606187744347" />
  <polygon fill="hsl(360.0,50.0%,52.57800117743009%)" points="451.862824140376,421.1334973011894 451.862824140376,372.0349743689172 460.4414827773485,369.5585289322462 460.4414827773485,418.6570518645184" />
  <polygon fill="hsl(360.0,50.0%,52.57800117743009%)" points="473.3094707328071,414.94238370951194 473.3094707328071,365.84386077723974 464.73081209583466,368.3203062139107 464.73081209583466,417.41882914618293" />
  <polygon fill="hsl(360.0,50.0%,52.57800117743009%)" points="443.2841655034036,374.99754379501655 443.2841655034036,326.3851448521728 450.7904918107545,324.21825509508574 450.7904918107545,372.8306540379295" />
  <polygon fill="hsl(360.0,50.0%,52.57800117743009%)" points="474.3818030624286,366.02042908708427 474.3818030624286,317.4080301442405 481.8881293697795,315.24114038715345 481.8881293697795,363.8535393299972" />
  <polygon fill="hsl(360.0,50.0%,52.57800117743009%)" points="450.7904918107545,331.72458140243657 450.7904918107545,324.21825509508574 474.3818030624286,317.4080301442405 474.3818030624286,324.9143564515914" />
  <polygon fill="hsl(360.0,50.0%,52.57800117743009%)" points="451.862824140376,372.5210983583456 451.862824140376,323.9086994155018 473.3094707328071,317.71758582382444 473.3094707328071,366.3299847666682" />
  <polygon fill="hsl(360.0,50.0%,52.57800117743009%)" points="457.2244857884838,319.9303010704403 457.2244857884838,298.05472154616064 467.9478090846993,294.9591647503219 467.9478090846993,316.8347442746016" />
  <polygon fill="hsl(360.0,50.0%,52.57800117743009%)" points="459.3691504477269,321.74180965841475 459.3691504477269,297.43561018699285 465.8031444254562,295.57827610948965 465.8031444254562,319.8844755809115" />
  <polygon fill="hsl(360.0,50.0%,46.24652422154656%)" points="387.55591700411804,463.83755991740577 387.55591700411804,414.73903698513357 396.13457564109046,412.2625915484626 396.13457564109046,461.3611144807347" />
  <polygon fill="hsl(360.0,50.0%,46.24652422154656%)" points="409.0025635965491,457.64644632572833 409.0025635965491,408.5479233934561 400.4239049595767,411.02436883012706 400.4239049595767,460.12289176239926" />
  <polygon fill="hsl(360.0,50.0%,46.24652422154656%)" points="378.9772583671456,417.70160641123294 378.9772583671456,369.0892074683892 386.4835846744965,366.92231771130207 386.4835846744965,415.5347166541458" />
  <polygon fill="hsl(360.0,50.0%,46.24652422154656%)" points="410.07489592617065,408.72449170330066 410.07489592617065,360.1120927604569 417.58122223352154,357.9452030033698 417.58122223352154,406.5576019462136" />
  <polygon fill="hsl(360.0,50.0%,46.24652422154656%)" points="386.4835846744965,374.42864401865296 386.4835846744965,366.92231771130207 410.07489592617065,360.1120927604569 410.07489592617065,367.6184190678078" />
  <polygon fill="hsl(360.0,50.0%,46.24652422154656%)" points="387.55591700411804,415.22516097456196 387.55591700411804,366.6127620317182 409.0025635965491,360.42164844004077 409.0025635965491,409.0340473828845" />
  <polygon fill="hsl(360.0,50.0%,46.24652422154656%)" points="392.9175786522258,362.6343636866567 392.9175786522258,340.75878416237697 403.64090194844135,337.66322736653825 403.64090194844135,359.53880689081797" />
  <polygon fill="hsl(360.0,50.0%,46.24652422154656%)" points="395.06224331146893,364.44587227463114 395.06224331146893,340.13967280320924 401.49623728919823,338.28233872570604 401.49623728919823,362.5885381971279" />
</svg>
