<?xml version="1.0" encoding="UTF-8"?>
<svg
  xmlns="http://www.w3.org/2000/svg"
  width="848"
  height="600"
  style="background-color:white"
>
  <polygon fill="lightblue" points="369.0961894323342,532.3557158514986 219.09618943233426,402.4519052838329 478.9038105676658,327.45190528383284 628.9038105676657,457.35571585149864" />
  <polygon fill="steelblue" points="219.09618943233426,402.4519052838329 219.09618943233426,142.64428414850136 478.9038105676658,67.6442841485013 478.9038105676658,327.45190528383284" />
  <polygon fill="lightskyblue" points="628.9038105676657,457.35571585149864 628.9038105676657,197.5480947161671 478.9038105676658,67.6442841485013 478.9038105676658,327.45190528383284" />
  <polygon fill="white" points="565.1538105676657,402.14659636024066 565.1538105676657,272.2427857925749 542.6538105676658,252.75721420742505 542.6538105676658,382.6610247750908" />
  <polygon fill="white" points="239.97358755928053,344.46359534248086 239.97358755928053,292.50207111541454 272.449540201197,283.12707111541454 272.449540201197,335.08859534248086" />
  <polygon fill="white" points="277.08896200718505,333.74930962819514 277.08896200718505,281.7877854011288 309.56491464910147,272.4127854011288 309.56491464910147,324.37430962819514" />
  <polygon fill="white" points="314.20433645508956,323.0350239139094 314.20433645508956,271.0734996868431 346.680289097006,261.6984996868431 346.680289097006,313.6600239139094" />
  <polygon fill="white" points="351.3197109029941,312.3207381996237 351.3197109029941,260.3592139725574 383.7956635449105,250.9842139725574 383.7956635449105,302.9457381996237" />
  <polygon fill="white" points="388.43508535089853,301.606452485338 388.43508535089853,249.64492825827168 420.91103799281495,240.26992825827168 420.91103799281495,292.23145248533797" />
  <polygon fill="white" points="425.55045979880305,290.8921667710523 425.55045979880305,238.93064254398598 458.02641244071947,229.55564254398598 458.02641244071947,281.5171667710523" />
  <polygon fill="antiquewhite" points="486.72381798114327,444.5217874398053 486.72381798114327,334.1035484572894 512.7045800946764,326.6035484572894 512.7045800946764,437.0217874398053" />
  <polygon fill="beige" points="486.72381798114327,444.5217874398053 486.72381798114327,334.1035484572894 471.72381798114327,321.1131674005228 471.72381798114327,431.5314063830387" />
  <polygon fill="bisque" points="486.72381798114327,334.1035484572894 471.72381798114327,321.1131674005228 497.70458009467643,313.6131674005228 512.7045800946764,326.6035484572894" />
  <polygon fill="antiquewhite" points="384.47708841483467,512.4204150701352 384.47708841483467,402.00217608761926 410.4578505283678,394.50217608761926 410.4578505283678,504.92041507013516" />
  <polygon fill="beige" points="384.47708841483467,512.4204150701352 384.47708841483467,402.00217608761926 369.47708841483467,389.0117950308527 369.47708841483467,499.4300340133685" />
  <polygon fill="bisque" points="384.47708841483467,402.00217608761926 369.47708841483467,389.0117950308527 395.4578505283678,381.5117950308527 410.4578505283678,394.50217608761926" />
</svg>
