<?xml version="1.0" encoding="UTF-8"?>
<svg
  xmlns="http://www.w3.org/2000/svg"
  width="848"
  height="600"
  style="background-color:white"
>
  <polygon fill="lightblue" points="360.04947153133975,532.8147419146777 185.33337858407992,381.5061669723875 487.95052846866025,294.1481204987576 662.6666214159201,445.4566954410477" />
  <polygon fill="steelblue" points="185.33337858407992,381.5061669723875 185.33337858407992,154.54330455895226 487.95052846866025,67.18525808532232 487.95052846866025,294.1481204987576" />
  <polygon fill="lightskyblue" points="662.6666214159201,445.4566954410477 662.6666214159201,218.49383302761248 487.95052846866025,67.18525808532232 487.95052846866025,294.1481204987576" />
  <polygon fill="white" points="317.7283816585838,282.76359166325835 317.7283816585838,222.24016168634228 355.55552539415635,211.3204058771385 355.55552539415635,271.8438358540546" />
  <polygon fill="hsl(324.0,50.0%,52.57800117743009%)" points="453.48631756749194,428.19162736299677 453.48631756749194,376.23226272781426 462.5648320640293,373.61152133360537 462.56483206402936,425.5708859687878" />
  <polygon fill="hsl(324.0,50.0%,52.57800117743009%)" points="476.18260380883544,421.6397738774745 476.18260380883544,369.68040924229206 467.104089312298,372.30115063650095 467.104089312298,424.2605152716834" />
  <polygon fill="hsl(324.0,50.0%,52.57800117743009%)" points="444.4078030709545,379.36745327682695 444.4078030709545,327.9225377964483 452.35150325542475,325.6293890765155 452.35150325542475,377.07430455689416" />
  <polygon fill="hsl(324.0,50.0%,52.57800117743009%)" points="477.31741812090263,369.8672657228197 477.31741812090263,318.42235024244104 485.26111830537286,316.12920152250825 485.26111830537286,367.5741170028869" />
  <polygon fill="hsl(324.0,50.0%,52.57800117743009%)" points="452.35150325542475,333.57308926098574 452.35150325542475,325.6293890765155 477.31741812090263,318.42235024244104 477.31741812090263,326.3660504269113" />
  <polygon fill="hsl(324.0,50.0%,52.57800117743009%)" points="453.48631756749194,376.74671188261806 453.4863175674919,325.3017964022394 476.18260380883544,318.74994291671715 476.18260380883544,370.1948583970958" />
  <polygon fill="hsl(324.0,50.0%,52.57800117743009%)" points="459.1603891278278,321.0915872568399 459.1603891278278,297.94137529066955 470.50853224849953,294.6654485479084 470.50853224849953,317.8156605140788" />
  <polygon fill="hsl(324.0,50.0%,52.57800117743009%)" points="461.4300177519621,323.0086476823066 461.4300177519621,297.2861899421173 468.2389036243652,295.3206338964606 468.2389036243652,321.04309163664993" />
  <polygon fill="hsl(324.0,50.0%,46.24652422154656%)" points="385.43241620954706,473.38394330986193 385.43241620954706,421.4245786746794 394.5109307060845,418.80383728047053 394.5109307060845,470.763201915653" />
  <polygon fill="hsl(324.0,50.0%,46.24652422154656%)" points="408.1287024508906,466.8320898243396 408.1287024508906,414.87272518915717 399.0501879543532,417.49346658336606 399.0501879543532,469.45283121854857" />
  <polygon fill="hsl(324.0,50.0%,46.24652422154656%)" points="376.35390171300963,424.5597692236921 376.35390171300963,373.11485374331346 384.2976018974799,370.8217050233807 384.2976018974799,422.2666205037593" />
  <polygon fill="hsl(324.0,50.0%,46.24652422154656%)" points="409.26351676295775,415.05958166968486 409.26351676295775,363.6146661893062 417.207216947428,361.3215174693734 417.207216947428,412.7664329497521" />
  <polygon fill="hsl(324.0,50.0%,46.24652422154656%)" points="384.2976018974799,378.7654052078509 384.2976018974799,370.8217050233807 409.26351676295775,363.6146661893062 409.26351676295775,371.55836637377644" />
  <polygon fill="hsl(324.0,50.0%,46.24652422154656%)" points="385.43241620954706,421.9390278294832 385.43241620954706,370.49411234910457 408.1287024508906,363.9422588635823 408.1287024508906,415.38717434396096" />
  <polygon fill="hsl(324.0,50.0%,46.24652422154656%)" points="391.10648776988296,366.2839032037051 391.10648776988296,343.13369123753466 402.4546308905547,339.85776449477356 402.4546308905547,363.00797646094395" />
  <polygon fill="hsl(324.0,50.0%,46.24652422154656%)" points="393.37611639401734,368.2009636291718 393.37611639401734,342.47850588898245 400.1850022664204,340.51294984332577 400.1850022664204,366.2354075835151" />
</svg>
