<?xml version="1.0" encoding="UTF-8"?>
<svg
  xmlns="http://www.w3.org/2000/svg"
  width="848"
  height="600"
  style="background-color:white"
>
  <polygon fill="lightblue" points="376.4519052838329,501.2259526419165 246.5480947161671,388.7259526419165 471.5480947161671,323.7740473580835 601.451905283833,436.2740473580835" />
  <polygon fill="steelblue" points="246.5480947161671,388.7259526419165 246.5480947161671,163.72595264191648 471.5480947161671,98.77404735808352 471.5480947161671,323.7740473580835" />
  <polygon fill="lightskyblue" points="601.451905283833,436.2740473580835 601.451905283833,211.27404735808352 471.5480947161671,98.77404735808352 471.5480947161671,323.7740473580835" />
  <polygon fill="white" points="546.242785792575,388.4615473580835 546.242785792575,275.9615473580835 526.757214207425,259.0865473580835 526.757214207425,371.5865473580835" />
  <polygon fill="white" points="264.62845185902427,338.50660311017987 264.62845185902427,293.50660311017987 292.75345185902427,285.3876149497008 292.75345185902427,330.3876149497008" />
  <polygon fill="white" points="296.7713090018814,329.22775949820374 296.7713090018814,284.22775949820374 324.8963090018814,276.10877133772465 324.8963090018814,321.10877133772465" />
  <polygon fill="white" points="328.91416614473854,319.9489158862276 328.91416614473854,274.9489158862276 357.0391661447385,266.8299277257485 357.03916614473854,311.8299277257485" />
  <polygon fill="white" points="361.05702328759565,310.6700722742515 361.05702328759565,265.6700722742515 389.18202328759565,257.5510841137724 389.18202328759565,302.5510841137724" />
  <polygon fill="white" points="393.1998804304528,301.39122866227535 393.19988043045277,256.39122866227535 421.32488043045277,248.27224050179623 421.3248804304528,293.27224050179626" />
  <polygon fill="white" points="425.34273757330993,292.1123850502992 425.34273757330993,247.11238505029922 453.46773757330993,238.9933968898201 453.46773757330993,283.99339688982013" />
</svg>
