<?xml version="1.0" encoding="UTF-8"?>
<svg
  xmlns="http://www.w3.org/2000/svg"
  width="848"
  height="600"
  style="background-color:white"
>
  <polygon fill="lightblue" points="373.03181718926623,545.8479430532154 233.7841521808829,425.25592773828987 474.96818281073377,355.6320952340982 614.2158478191171,476.22411054902364" />
  <polygon fill="steelblue" points="233.7841521808829,425.25592773828987 233.78415218088284,123.77588945097634 474.96818281073377,54.152056946784626 474.96818281073377,355.6320952340982" />
  <polygon fill="lightskyblue" points="614.2158478191171,476.22411054902364 614.2158478191171,174.7440722617101 474.96818281073377,54.152056946784626 474.96818281073377,355.6320952340982" />
  <polygon fill="white" points="555.0355901905542,424.97250404018035 555.0355901905542,304.3804887252549 534.1484404392967,286.2916864280161 534.1484404392967,406.8837017429415" />
  <polygon fill="white" points="339.30216558144264,346.55869489173585 339.30216558144264,298.3218887657657 369.450169410174,289.61890970274175 369.450169410174,337.85571582871194" />
  <polygon fill="grey" points="462.22613710805035,120.13624328439818 462.2261371080503,89.98823945566681 492.37414093678166,81.28526039264287 492.3741409367817,111.4332642213742" />
  <polygon fill="lightgrey" points="462.22613710805035,120.13624328439818 462.2261371080503,89.98823945566681 444.8201789820024,74.91423754130113 444.8201789820024,105.06224137003247" />
  <polygon fill="darkgrey" points="462.2261371080503,89.98823945566681 444.8201789820024,74.91423754130113 474.96818281073377,66.21125847827716 492.37414093678166,81.28526039264287" />
  <polygon fill="hsl(288.0,50.0%,68.65222276527638%)" points="423.99586315717517,417.5578620830521 423.99586315717517,376.1465640239067 431.2313840760707,374.05784904878095 431.2313840760707,415.46914710792635" />
  <polygon fill="hsl(288.0,50.0%,68.65222276527638%)" points="442.084665454414,412.3360746452377 442.084665454414,370.9247765860923 434.84914453551846,373.0134915612181 434.84914453551846,414.42478962036347" />
  <polygon fill="hsl(288.0,50.0%,68.65222276527638%)" points="416.76034223827963,378.6452918511032 416.76034223827963,337.64400664402854 423.0914230423132,335.81638104079354 423.09142304231324,376.81766624786815" />
  <polygon fill="hsl(288.0,50.0%,68.65222276527638%)" points="442.9891055692759,371.07370006627235 442.9891055692759,330.0724148591977 449.3201863733095,328.24478925596264 449.3201863733095,369.2460744630373" />
  <polygon fill="hsl(288.0,50.0%,68.65222276527638%)" points="423.0914230423132,342.1474618448271 423.0914230423132,335.81638104079354 442.9891055692759,330.0724148591977 442.9891055692759,336.4034956632313" />
  <polygon fill="hsl(288.0,50.0%,68.65222276527638%)" points="423.99586315717517,376.55657687597744 423.99586315717517,335.5552916689028 442.084665454414,330.3335042310884 442.084665454414,371.33478943816306" />
  <polygon fill="hsl(288.0,50.0%,68.65222276527638%)" points="428.51806373148486,332.19978054909546 428.51806373148486,313.7492022059119 437.5624648801043,311.1383084870047 437.5624648801043,329.5888868301883" />
  <polygon fill="hsl(288.0,50.0%,68.65222276527638%)" points="430.32694396120877,333.7276660656678 430.32694396120877,313.22702346213043 435.7535846503804,311.66048723078615 435.7535846503804,332.16112983432345" />
  <polygon fill="hsl(288.0,50.0%,65.5749766448301%)" points="395.6887659495766,435.62518548036815 395.6887659495766,394.2138874212228 402.9242868684721,392.12517244609705 402.9242868684721,433.53647050524245" />
  <polygon fill="hsl(288.0,50.0%,65.5749766448301%)" points="413.77756824681535,430.4033980425538 413.77756824681535,388.9920999834084 406.5420473279198,391.0808149585342 406.5420473279198,432.49211301767957" />
  <polygon fill="hsl(288.0,50.0%,65.5749766448301%)" points="388.45324503068105,396.7126152484193 388.45324503068105,355.71133004134464 394.78432583471465,353.8837044381096 394.78432583471465,394.88498964518425" />
  <polygon fill="hsl(288.0,50.0%,65.5749766448301%)" points="414.68200836167733,389.14102346358845 414.68200836167733,348.1397382565138 421.0130891657109,346.31211265327875 421.0130891657109,387.3133978603534" />
  <polygon fill="hsl(288.0,50.0%,65.5749766448301%)" points="394.78432583471465,360.2147852421432 394.78432583471465,353.8837044381096 414.68200836167733,348.1397382565138 414.68200836167733,354.47081906054734" />
  <polygon fill="hsl(288.0,50.0%,65.5749766448301%)" points="395.6887659495766,394.62390027329354 395.6887659495766,353.6226150662189 413.77756824681535,348.4008276284045 413.77756824681535,389.40211283547916" />
  <polygon fill="hsl(288.0,50.0%,65.5749766448301%)" points="400.21096652388627,350.26710394641157 400.21096652388627,331.81652560322794 409.25536767250566,329.2056318843208 409.25536767250566,347.65621022750435" />
  <polygon fill="hsl(288.0,50.0%,65.5749766448301%)" points="402.0198467536101,351.79498946298384 402.0198467536101,331.29434685944653 407.4464874427818,329.72781062810225 407.4464874427818,350.22845323163955" />
  <polygon fill="hsl(288.0,50.0%,63.87054183818537%)" points="355.5302838972692,452.6990401134399 355.5302838972692,411.2877420542944 362.76580481616475,409.1990270791687 362.76580481616475,450.6103251383141" />
  <polygon fill="hsl(288.0,50.0%,63.87054183818537%)" points="373.61908619450804,447.47725267562544 373.61908619450804,406.06595461648004 366.3835652756125,408.1546695916058 366.3835652756125,449.5659676507512" />
  <polygon fill="hsl(288.0,50.0%,63.87054183818537%)" points="348.2947629783737,413.7864698814909 348.2947629783737,372.78518467441626 354.6258437824073,370.95755907118127 354.6258437824073,411.95884427825587" />
  <polygon fill="hsl(288.0,50.0%,63.87054183818537%)" points="374.52352630936997,406.2148780966601 374.52352630936997,365.21359288958547 380.8546071134036,363.38596728635036 380.8546071134036,404.3872524934251" />
  <polygon fill="hsl(288.0,50.0%,63.87054183818537%)" points="354.6258437824073,377.2886398752148 354.6258437824073,370.95755907118127 374.52352630936997,365.21359288958547 374.52352630936997,371.544673693619" />
  <polygon fill="hsl(288.0,50.0%,63.87054183818537%)" points="355.5302838972692,411.69775490636516 355.5302838972692,370.6964696992905 373.61908619450804,365.4746822614761 373.61908619450804,406.4759674685508" />
  <polygon fill="hsl(288.0,50.0%,63.87054183818537%)" points="360.0524844715789,367.3409585794832 360.0524844715789,348.8903802362996 369.09688562019835,346.27948651739246 369.09688562019835,364.730064860576" />
  <polygon fill="hsl(288.0,50.0%,63.87054183818537%)" points="361.8613647013028,368.8688440960555 361.8613647013028,348.36820149251815 367.28800539047444,346.80166526117387 367.28800539047444,367.30230786471117" />
  <polygon fill="hsl(288.0,50.0%,52.57800117743009%)" points="447.5004160275513,462.46395614352707 447.5004160275513,421.05265808438173 454.7359369464468,418.963943109256 454.7359369464468,460.3752411684013" />
  <polygon fill="hsl(288.0,50.0%,52.57800117743009%)" points="465.58921832479007,457.24216870571274 465.58921832479007,415.83087064656735 458.35369740589454,417.9195856216931 458.35369740589454,459.3308836808385" />
  <polygon fill="hsl(288.0,50.0%,52.57800117743009%)" points="440.26489510865576,423.5513859115782 440.26489510865576,382.55010070450356 446.5959759126893,380.7224751012685 446.5959759126893,421.7237603083432" />
  <polygon fill="hsl(288.0,50.0%,52.57800117743009%)" points="466.49365843965205,415.9797941267474 466.49365843965205,374.9785089196727 472.8247392436856,373.15088331643767 472.8247392436856,414.15216852351233" />
  <polygon fill="hsl(288.0,50.0%,52.57800117743009%)" points="446.5959759126893,387.0535559053021 446.5959759126893,380.7224751012685 466.49365843965205,374.9785089196727 466.49365843965205,381.3095897237063" />
  <polygon fill="hsl(288.0,50.0%,52.57800117743009%)" points="447.5004160275513,421.46267093645247 447.5004160275513,380.4613857293778 465.58921832479007,375.2395982915634 465.58921832479007,416.2408834986381" />
  <polygon fill="hsl(288.0,50.0%,52.57800117743009%)" points="452.022616601861,377.1058746095705 452.022616601861,358.6552962663869 461.0670177504804,356.0444025474797 461.0670177504804,374.49498089066327" />
  <polygon fill="hsl(288.0,50.0%,52.57800117743009%)" points="453.83149683158484,378.63376012614276 453.83149683158484,358.13311752260546 459.2581375207565,356.5665812912612 459.2581375207565,377.0672238947985" />
  <polygon fill="hsl(288.0,50.0%,46.24652422154656%)" points="393.26186994430515,498.4819574951353 393.26186994430515,457.0706594359899 400.4973908632007,454.98194446086416 400.4973908632007,496.3932425200095" />
  <polygon fill="hsl(288.0,50.0%,46.24652422154656%)" points="411.350672241544,493.2601700573209 411.350672241544,451.8488719981755 404.11515132264844,453.9375869733012 404.11515132264844,495.3488850324467" />
  <polygon fill="hsl(288.0,50.0%,46.24652422154656%)" points="386.0263490254096,459.5693872631864 386.0263490254096,418.56810205611174 392.35742982944316,416.7404764528767 392.35742982944316,457.74176165995135" />
  <polygon fill="hsl(288.0,50.0%,46.24652422154656%)" points="412.2551123564059,451.99779547835556 412.2551123564059,410.9965102712809 418.58619316043945,409.16888466804585 418.58619316043945,450.1701698751205" />
  <polygon fill="hsl(288.0,50.0%,46.24652422154656%)" points="392.35742982944316,423.0715572569103 392.35742982944316,416.7404764528767 412.2551123564059,410.9965102712809 412.2551123564059,417.32759107531444" />
  <polygon fill="hsl(288.0,50.0%,46.24652422154656%)" points="393.26186994430515,457.48067228806065 393.26186994430515,416.479387080986 411.350672241544,411.2575996431716 411.350672241544,452.25888485024626" />
  <polygon fill="hsl(288.0,50.0%,46.24652422154656%)" points="397.78407051861484,413.12387596117867 397.78407051861484,394.67329761799505 406.8284716672342,392.0624038990879 406.8284716672342,410.51298224227145" />
  <polygon fill="hsl(288.0,50.0%,46.24652422154656%)" points="399.59295074833875,414.65176147775094 399.5929507483387,394.15111887421364 405.01959143751037,392.58458264286935 405.01959143751037,413.08522524640665" />
</svg>
