<?xml version="1.0" encoding="UTF-8"?>
<svg
  xmlns="http://www.w3.org/2000/svg"
  width="848"
  height="600"
  style="background-color:white"
>
  <polygon fill="lightblue" points="350.7949192431123,523.2050807568878 150.7949192431123,350.0 497.2050807568877,249.99999999999997 697.2050807568877,423.2050807568877" />
  <polygon fill="steelblue" points="150.7949192431123,350.0 150.7949192431123,176.79491924311228 497.2050807568877,76.79491924311225 497.2050807568877,249.99999999999997" />
  <polygon fill="lightskyblue" points="697.2050807568877,423.2050807568877 697.2050807568877,250.0 497.2050807568877,76.79491924311225 497.2050807568877,249.99999999999997" />
  <polygon fill="white" points="612.2050807568877,349.5929214352104 612.2050807568877,176.38784067832268 582.2050807568877,150.40707856478954 582.2050807568877,323.61215932167727" />
  <polygon fill="white" points="198.4263164512564,266.96796769724494 198.4263164512564,197.68593539448983 241.72758664047834,185.18593539448983 241.72758664047834,254.46796769724492" />
  <polygon fill="white" points="267.70834875401147,246.96796769724492 267.70834875401147,177.68593539448983 311.0096189432334,165.1859353944898 311.0096189432334,234.4679676972449" />
  <polygon fill="white" points="336.99038105676664,226.9679676972449 336.99038105676664,157.6859353944898 380.29165124598853,145.18593539448977 380.29165124598853,214.4679676972449" />
  <polygon fill="white" points="406.2724133595217,206.9679676972449 406.2724133595217,137.68593539448977 449.5736835487436,125.18593539448977 449.5736835487436,194.4679676972449" />
  <polygon fill="grey" points="478.9038105676658,171.56733260263394 478.9038105676658,128.266062413412 522.2050807568877,115.76606241341199 522.2050807568877,159.0673326026339" />
  <polygon fill="lightgrey" points="478.9038105676658,171.56733260263394 478.9038105676658,128.266062413412 453.9038105676658,106.61542731880101 453.9038105676658,149.91669750802296" />
  <polygon fill="darkgrey" points="478.9038105676658,128.266062413412 453.9038105676658,106.61542731880101 497.2050807568877,94.11542731880101 522.2050807568877,115.76606241341199" />
  <polygon fill="hsl(360.0,50.0%,52.57800117743009%)" points="457.7534076799585,403.4415114292898 457.7534076799585,343.9628866973746 468.1457125253718,340.9628866973746 468.1457125253718,400.4415114292898" />
  <polygon fill="hsl(360.0,50.0%,52.57800117743009%)" points="483.7341697934917,395.94151142928985 483.7341697934917,336.4628866973746 473.34186494807835,339.4628866973746 473.34186494807835,398.94151142928985" />
  <polygon fill="hsl(360.0,50.0%,52.57800117743009%)" points="447.36110283454525,347.551783971948 447.36110283454525,288.66205651460615 456.4543695742818,286.03705651460615 456.4543695742818,344.926783971948" />
  <polygon fill="hsl(360.0,50.0%,52.57800117743009%)" points="485.0332078991683,336.676783971948 485.0332078991683,277.78705651460615 494.12647463890494,275.16205651460615 494.12647463890494,334.051783971948" />
  <polygon fill="hsl(360.0,50.0%,52.57800117743009%)" points="456.4543695742818,295.1303232543428 456.4543695742818,286.03705651460615 485.0332078991683,277.78705651460615 485.0332078991683,286.8803232543428" />
  <polygon fill="hsl(360.0,50.0%,52.57800117743009%)" points="457.7534076799585,344.551783971948 457.7534076799585,285.66205651460615 483.7341697934917,278.16205651460615 483.7341697934917,337.051783971948" />
  <polygon fill="hsl(360.0,50.0%,52.57800117743009%)" points="464.2485982083418,280.8425701417391 464.2485982083418,254.34219278593528 477.23897926510836,250.59219278593525 477.23897926510836,277.0925701417391" />
  <polygon fill="hsl(360.0,50.0%,52.57800117743009%)" points="466.8466744196951,283.03705651460615 466.8466744196951,253.59219278593525 474.64090305375504,251.34219278593525 474.64090305375504,280.78705651460615" />
</svg>
