<?xml version="1.0" encoding="UTF-8"?>
<svg
  xmlns="http://www.w3.org/2000/svg"
  width="848"
  height="600"
  style="background-color:white"
>
  <polygon fill="lightblue" points="381.47169120562074,505.13772832466407 265.28219081939824,404.5146693371735 466.5283087943793,346.41991914406225 582.7178091806018,447.0429781315528" />
  <polygon fill="steelblue" points="265.28219081939824,404.5146693371735 265.28219081939824,152.95702186844724 466.52830879437926,94.86227167533596 466.5283087943793,346.41991914406225" />
  <polygon fill="lightskyblue" points="582.7178091806018,447.0429781315528 582.7178091806018,195.48533066282653 466.52830879437926,94.86227167533596 466.5283087943793,346.41991914406225" />
  <polygon fill="white" points="533.3372715164572,404.2781780618693 533.3372715164572,303.6551190743788 515.9088464585238,288.5616602262552 515.9088464585238,389.1847192137457" />
  <polygon fill="white" points="286.24532810845875,358.2139092637282 286.24532810845875,317.964685668732 311.4010928553314,310.7028418945931 311.4010928553314,350.9520654895893" />
  <polygon fill="white" points="319.7863477709556,348.5314508982097 319.78634777095556,308.28222730321346 344.9421125178282,301.02038352907454 344.94211251782826,341.2696071240708" />
  <polygon fill="white" points="353.3273674334524,338.8489925326911 353.3273674334524,298.59976893769493 378.4831321803251,291.337925163556 378.4831321803251,331.58714875855225" />
  <polygon fill="white" points="386.8683870959493,329.1665341671726 386.8683870959493,288.91731057217635 412.0241518428219,281.6554667980375 412.0241518428219,321.90469039303366" />
  <polygon fill="white" points="420.4094067584461,319.48407580165406 420.4094067584461,279.2348522066578 445.56517150531874,271.9730084325189 445.56517150531874,312.22223202751513" />
</svg>
