<?xml version="1.0" encoding="UTF-8"?>
<svg
  xmlns="http://www.w3.org/2000/svg"
  width="848"
  height="600"
  style="background-color:white"
>
  <polygon fill="lightblue" points="363.5705372728252,519.9961455481084 198.47417482809388,377.018501598568 484.4294627271748,294.47032037620227 649.5258251719061,437.44796432574276" />
  <polygon fill="steelblue" points="198.47417482809388,377.018501598568 198.47417482809388,162.55203567425727 484.4294627271748,80.00385445189158 484.4294627271748,294.47032037620227" />
  <polygon fill="lightskyblue" points="649.5258251719061,437.44796432574276 649.5258251719061,222.98149840143202 484.4294627271748,80.00385445189158 484.4294627271748,294.47032037620227" />
  <polygon fill="white" points="579.3598711328953,376.68246564718805 579.3598711328953,233.70482169764756 554.5954167661856,212.25817510521654 554.5954167661856,355.235819054757" />
  <polygon fill="white" points="323.5796132839418,283.71261473396675 323.5796132839418,226.52155715415057 359.3240242713269,216.20303450135486 359.3240242713269,273.39409208117104" />
  <polygon fill="antiquewhite" points="493.0364945822146,423.3223983480983 493.0364945822146,301.7914009909889 521.6320233721227,293.5365828687523 521.6320233721227,415.0675802258617" />
  <polygon fill="beige" points="493.0364945822146,423.3223983480983 493.0364945822146,301.7914009909889 476.52685833774143,287.4936365960349 476.52685833774143,409.02463395314425" />
  <polygon fill="bisque" points="493.0364945822146,301.7914009909889 476.52685833774143,287.4936365960349 505.1223871276496,279.2388184737983 521.6320233721227,293.5365828687523" />
</svg>
