<?xml version="1.0" encoding="UTF-8"?>
<svg
  xmlns="http://www.w3.org/2000/svg"
  width="848"
  height="600"
  style="background-color:white"
>
  <polygon fill="lightblue" points="350.7949192431123,609.8076211353316 150.7949192431123,436.6025403784439 497.2050807568877,336.60254037844385 697.2050807568877,509.80762113533154" />
  <polygon fill="steelblue" points="150.7949192431123,436.6025403784439 150.7949192431123,90.19237886466846 497.2050807568877,-9.807621135331658 497.2050807568877,336.60254037844385" />
  <polygon fill="lightskyblue" points="697.2050807568877,509.80762113533154 697.2050807568877,163.39745962155612 497.2050807568877,-9.807621135331658 497.2050807568877,336.60254037844385" />
  <polygon fill="white" points="612.2050807568877,436.1954618136543 612.2050807568877,262.9903810567666 582.2050807568877,237.00961894323342 582.2050807568877,410.2146997001211" />
  <polygon fill="white" points="186.87931106746387,356.9038414090221 186.87931106746387,287.621809106267 230.1805812566858,275.121809106267 230.18058125668583,344.4038414090221" />
  <polygon fill="white" points="244.61433798642648,340.2371747423554 244.61433798642645,270.9551424396003 287.91560817564834,258.4551424396003 287.91560817564834,327.7371747423554" />
  <polygon fill="white" points="302.34936490538905,323.57050807568874 302.34936490538905,254.28847577293368 345.65063509461095,241.78847577293368 345.65063509461095,311.07050807568874" />
  <polygon fill="white" points="360.0843918243516,306.9038414090221 360.0843918243516,237.621809106267 403.38566201357355,225.121809106267 403.38566201357355,294.4038414090221" />
  <polygon fill="white" points="417.81941874331415,290.2371747423554 417.81941874331415,220.9551424396003 461.1206889325361,208.4551424396003 461.1206889325361,277.7371747423554" />
</svg>
