<?xml version="1.0" encoding="UTF-8"?>
<svg
  xmlns="http://www.w3.org/2000/svg"
  width="848"
  height="600"
  style="background-color:white"
>
  <polygon fill="lightblue" points="369.0961894323342,532.3557158514986 219.09618943233426,402.4519052838329 478.9038105676658,327.45190528383284 628.9038105676657,457.35571585149864" />
  <polygon fill="steelblue" points="219.09618943233426,402.4519052838329 219.09618943233426,142.64428414850136 478.9038105676658,67.6442841485013 478.9038105676658,327.45190528383284" />
  <polygon fill="lightskyblue" points="628.9038105676657,457.35571585149864 628.9038105676657,197.5480947161671 478.9038105676658,67.6442841485013 478.9038105676658,327.45190528383284" />
  <polygon fill="white" points="254.81973733844234,340.1778810567666 254.81973733844234,288.21635682970026 287.2956899803588,278.84135682970026 287.2956899803588,330.8028810567666" />
  <polygon fill="white" points="306.78126156550866,325.1778810567666 306.78126156550866,273.21635682970026 339.2572142074251,263.84135682970026 339.25721420742514,315.8028810567666" />
  <polygon fill="white" points="358.742785792575,310.1778810567666 358.742785792575,258.21635682970026 391.2187384344914,248.84135682970026 391.2187384344914,300.8028810567666" />
  <polygon fill="white" points="410.7043100196413,295.1778810567666 410.70431001964124,243.21635682970026 443.1802626615577,233.84135682970026 443.1802626615577,285.8028810567665" />
  <polygon fill="hsl(288.0,50.0%,52.57800117743009%)" points="449.31505575996886,442.5330388558002 449.31505575996886,397.92407030686377 457.1092843940288,395.67407030686377 457.1092843940288,440.2830388558002" />
  <polygon fill="hsl(288.0,50.0%,52.57800117743009%)" points="468.80062734511876,436.9080388558002 468.80062734511876,392.29907030686377 461.00639871105875,394.54907030686377 461.00639871105875,439.1580388558002" />
  <polygon fill="hsl(288.0,50.0%,52.57800117743009%)" points="441.5208271259089,400.61574326279384 441.5208271259089,356.4484476697875 448.34077718071137,354.4796976697875 448.34077718071137,398.64699326279384" />
  <polygon fill="hsl(288.0,50.0%,52.57800117743009%)" points="469.77490592437624,392.45949326279384 469.77490592437624,348.2921976697875 476.59485597917865,346.3234476697875 476.59485597917865,390.49074326279384" />
  <polygon fill="hsl(288.0,50.0%,52.57800117743009%)" points="448.34077718071137,361.29964772459 448.34077718071137,354.4796976697875 469.77490592437624,348.2921976697875 469.77490592437624,355.11214772458993" />
  <polygon fill="hsl(288.0,50.0%,52.57800117743009%)" points="449.31505575996886,398.36574326279384 449.31505575996886,354.1984476697875 468.80062734511876,348.5734476697875 468.80062734511876,392.74074326279384" />
  <polygon fill="hsl(288.0,50.0%,52.57800117743009%)" points="454.18644865625635,350.5838328901372 454.18644865625635,330.70854987328437 463.92923444883127,327.8960498732843 463.92923444883127,347.77133289013716" />
  <polygon fill="hsl(288.0,50.0%,52.57800117743009%)" points="456.1350058147713,352.2296976697875 456.1350058147713,330.1460498732843 461.9806772903163,328.4585498732843 461.9806772903163,350.5421976697875" />
  <polygon fill="hsl(288.0,50.0%,46.24652422154656%)" points="390.88835315064966,481.3322546445602 390.88835315064966,436.72328609562373 398.6825817847096,434.47328609562373 398.6825817847096,479.0822546445602" />
  <polygon fill="hsl(288.0,50.0%,46.24652422154656%)" points="410.3739247357995,475.7072546445602 410.3739247357995,431.09828609562373 402.57969610173956,433.34828609562373 402.57969610173956,477.9572546445602" />
  <polygon fill="hsl(288.0,50.0%,46.24652422154656%)" points="383.0941245165897,439.4149590515538 383.0941245165897,395.24766345854744 389.9140745713921,393.27891345854744 389.9140745713922,437.4462090515538" />
  <polygon fill="hsl(288.0,50.0%,46.24652422154656%)" points="411.348203315057,431.2587090515538 411.348203315057,387.09141345854744 418.16815336985945,385.12266345854744 418.16815336985945,429.2899590515538" />
  <polygon fill="hsl(288.0,50.0%,46.24652422154656%)" points="389.9140745713921,400.0988635133499 389.9140745713921,393.27891345854744 411.348203315057,387.09141345854744 411.348203315057,393.9113635133499" />
  <polygon fill="hsl(288.0,50.0%,46.24652422154656%)" points="390.88835315064966,437.1649590515538 390.88835315064966,392.99766345854744 410.3739247357995,387.37266345854744 410.3739247357995,431.5399590515538" />
  <polygon fill="hsl(288.0,50.0%,46.24652422154656%)" points="395.75974604693715,389.3830486788971 395.75974604693715,369.5077656620443 405.502531839512,366.6952656620443 405.502531839512,386.5705486788971" />
  <polygon fill="hsl(288.0,50.0%,46.24652422154656%)" points="397.7083032054521,391.02891345854744 397.7083032054521,368.9452656620443 403.55397468099704,367.2577656620443 403.55397468099704,389.34141345854744" />
</svg>
