<?xml version="1.0" encoding="UTF-8"?>
<svg
  xmlns="http://www.w3.org/2000/svg"
  width="848"
  height="600"
  style="background-color:white"
>
  <polygon fill="lightblue" points="350.7949192431123,653.1088913245535 150.7949192431123,479.90381056766574 497.20508075688775,379.90381056766574 697.2050807568878,553.1088913245535" />
  <polygon fill="steelblue" points="150.7949192431123,479.90381056766574 150.79491924311225,46.89110867544653 497.2050807568877,-53.1088913245535 497.20508075688775,379.90381056766574" />
  <polygon fill="lightskyblue" points="697.2050807568878,553.1088913245535 697.2050807568877,120.09618943233426 497.2050807568877,-53.1088913245535 497.20508075688775,379.90381056766574" />
  <polygon fill="white" points="612.2050807568878,479.49673200287623 612.2050807568877,306.2916512459885 582.2050807568877,280.3108891324553 582.2050807568878,453.51596988934307" />
  <polygon fill="white" points="186.87931106746387,400.205111598244 186.87931106746387,330.92307929548895 230.1805812566858,318.42307929548895 230.18058125668583,387.70511159824406" />
  <polygon fill="white" points="244.61433798642648,383.5384449315774 244.61433798642645,314.25641262882226 287.91560817564834,301.75641262882226 287.9156081756484,371.0384449315774" />
  <polygon fill="white" points="302.34936490538905,366.8717782649107 302.34936490538905,297.5897459621556 345.65063509461095,285.0897459621556 345.65063509461095,354.3717782649107" />
  <polygon fill="white" points="360.0843918243516,350.205111598244 360.0843918243516,280.92307929548895 403.38566201357355,268.42307929548895 403.38566201357355,337.705111598244" />
  <polygon fill="white" points="417.81941874331415,333.5384449315774 417.81941874331415,264.25641262882226 461.1206889325361,251.75641262882226 461.1206889325361,321.0384449315774" />
</svg>
