<?xml version="1.0" encoding="UTF-8"?>
<svg
  xmlns="http://www.w3.org/2000/svg"
  width="848"
  height="600"
  style="background-color:white"
>
  <polygon fill="lightblue" points="385.1771432346219,510.22823500323386 279.1111260566398,418.3723696488647 462.8228567653781,365.3393610598736 568.8888739433603,457.1952264142428" />
  <polygon fill="steelblue" points="279.1111260566398,418.3723696488647 279.11112605663976,142.80477358575718 462.8228567653781,89.77176499676611 462.8228567653781,365.3393610598736" />
  <polygon fill="lightskyblue" points="568.8888739433603,457.1952264142428 568.8888739433602,181.6276303511353 462.8228567653781,89.77176499676611 462.8228567653781,365.3393610598736" />
  <polygon fill="white" points="523.8108166427178,418.1564836386359 523.8108166427178,326.3006182842667 507.9009140660205,312.52223848111134 507.9009140660205,404.37810383548054" />
  <polygon fill="white" points="304.3714890290913,374.33798482613076 304.3714890290913,337.59563868438306 327.3354553676836,330.9665126107592 327.3354553676836,367.7088587525069" />
  <polygon fill="white" points="341.11383517083897,363.7313831083325 341.11383517083897,326.9890369665849 364.07780150943125,320.359910892961 364.07780150943125,357.10225703470866" />
  <polygon fill="white" points="377.85618131258667,353.12478139053434 377.85618131258667,316.38243524878663 400.82014765117896,309.75330917516277 400.82014765117896,346.4956553169105" />
  <polygon fill="white" points="414.5985274543343,342.5181796727361 414.5985274543343,305.77583353098845 437.5624937929266,299.1467074573645 437.5624937929266,335.88905359911223" />
</svg>
