<?xml version="1.0" encoding="UTF-8"?>
<svg
  xmlns="http://www.w3.org/2000/svg"
  width="848"
  height="600"
  style="background-color:white"
>
  <polygon fill="lightblue" points="385.1771432346219,510.22823500323386 279.1111260566398,418.3723696488647 462.8228567653781,365.3393610598736 568.8888739433603,457.1952264142428" />
  <polygon fill="steelblue" points="279.1111260566398,418.3723696488647 279.11112605663976,142.80477358575718 462.8228567653781,89.77176499676611 462.8228567653781,365.3393610598736" />
  <polygon fill="lightskyblue" points="568.8888739433603,457.1952264142428 568.8888739433602,181.6276303511353 462.8228567653781,89.77176499676611 462.8228567653781,365.3393610598736" />
  <polygon fill="white" points="523.8108166427178,418.1564836386359 523.8108166427178,326.3006182842667 507.9009140660205,312.52223848111134 507.9009140660205,404.37810383548054" />
  <polygon fill="white" points="298.24776467213337,376.10575177909715 298.24776467213337,339.36340563734944 321.21173101072566,332.7342795637256 321.21173101072566,369.4766257054732" />
  <polygon fill="white" points="328.86638645692307,367.2669170142653 328.86638645692307,330.5245708725176 351.83035279551535,323.8954447988937 351.83035279551535,360.6377909406414" />
  <polygon fill="white" points="359.4850082417128,358.42808224943343 359.4850082417128,321.6857361076858 382.4489745803051,315.05661003406186 382.4489745803051,351.79895617580956" />
  <polygon fill="white" points="390.1036300265025,349.5892474846016 390.1036300265025,312.8469013428539 413.0675963650948,306.21777526923006 413.0675963650948,342.9601214109777" />
  <polygon fill="white" points="420.7222518112922,340.75041271976977 420.7222518112922,304.00806657802207 443.6862181498845,297.3789405043982 443.68621814988455,334.12128664614585" />
</svg>
