<?xml version="1.0" encoding="UTF-8"?>
<svg
  xmlns="http://www.w3.org/2000/svg"
  width="848"
  height="600"
  style="background-color:white"
>
  <polygon fill="lightblue" points="369.0961894323342,499.8797632095822 219.09618943233426,369.9759526419165 478.9038105676658,294.9759526419164 628.9038105676657,424.8797632095822" />
  <polygon fill="steelblue" points="219.09618943233426,369.9759526419165 219.09618943233426,175.12023679041778 478.9038105676658,100.12023679041778 478.9038105676658,294.9759526419164" />
  <polygon fill="lightskyblue" points="628.9038105676657,424.8797632095822 628.9038105676657,230.02404735808355 478.9038105676658,100.12023679041778 478.9038105676658,294.9759526419164" />
  <polygon fill="white" points="565.1538105676657,369.67064371832424 565.1538105676657,239.7668331506585 542.6538105676658,220.28126156550863 542.6538105676658,350.1850721331744" />
  <polygon fill="white" points="246.15948330059794,310.20192841485016 246.15948330059794,258.24040418778384 278.6354359425144,248.86540418778384 278.6354359425144,300.82692841485016" />
  <polygon fill="white" points="289.46075348981987,297.70192841485016 289.46075348981987,245.7404041877838 321.9367061317363,236.3654041877838 321.9367061317363,288.3269284148501" />
  <polygon fill="white" points="332.7620236790418,285.2019284148501 332.7620236790418,233.2404041877838 365.23797632095824,223.8654041877838 365.23797632095824,275.8269284148501" />
  <polygon fill="white" points="376.0632938682637,272.7019284148501 376.0632938682637,220.7404041877838 408.53924651018013,211.3654041877838 408.53924651018013,263.3269284148501" />
  <polygon fill="white" points="419.3645640574856,260.2019284148501 419.3645640574856,208.2404041877838 451.8405166994021,198.8654041877838 451.8405166994021,250.8269284148501" />
</svg>
