<?xml version="1.0" encoding="UTF-8"?>
<svg
  xmlns="http://www.w3.org/2000/svg"
  width="848"
  height="600"
  style="background-color:white"
>
  <polygon fill="lightblue" points="365.8970888985497,545.8944718489954 207.15698370172979,408.4215081491351 482.1029111014503,329.0514555507251 640.8430162982702,466.52441925058537" />
  <polygon fill="steelblue" points="207.15698370172979,408.4215081491351 207.15698370172979,133.47558074941463 482.1029111014503,54.10552815100459 482.1029111014503,329.0514555507251" />
  <polygon fill="lightskyblue" points="640.8430162982702,466.52441925058537 640.8430162982702,191.57849185086488 482.1029111014503,54.10552815100459 482.1029111014503,329.0514555507251" />
  <polygon fill="white" points="573.3784715896218,408.0984096781448 573.3784715896218,277.49909416327756 549.5674558100987,256.8781496082985 549.5674558100987,387.47746512316576" />
  <polygon fill="white" points="235.79718447253398,345.16460885685666 235.79718447253398,290.17542337691253 270.165425397499,280.2541668021113 270.16542539749906,335.2433522820554" />
  <polygon fill="white" points="281.62150570582077,331.93626675712164 281.6215057058207,276.9470812771775 315.9897466307858,267.02582470237627 315.9897466307858,322.0150101823204" />
  <polygon fill="white" points="327.4458269391075,318.7079246573866 327.4458269391075,263.71873917744256 361.81406786407257,253.79748260264128 361.81406786407257,308.7866680825854" />
  <polygon fill="white" points="373.2701481723942,305.47958255765167 373.2701481723942,250.49039707770754 407.6383890973593,240.5691405029063 407.6383890973593,295.55832598285036" />
  <polygon fill="white" points="419.09446940568097,292.25124045791665 419.09446940568097,237.26205497797253 453.462710330646,227.34079840317128 453.462710330646,282.3299838831154" />
  <polygon fill="grey" points="467.5771833260877,129.3264424832395 467.5771833260877,94.95820155827442 501.94542425105277,85.0369449834732 501.94542425105277,119.40518590843826" />
  <polygon fill="lightgrey" points="467.5771833260877,129.3264424832395 467.5771833260877,94.95820155827442 447.7346701764852,77.7740810957919 447.7346701764852,112.14232202075695" />
  <polygon fill="darkgrey" points="467.5771833260877,94.95820155827442 447.7346701764852,77.7740810957919 482.1029111014503,67.85282452099065 501.94542425105277,85.0369449834732" />
  <polygon fill="hsl(324.0,50.0%,52.57800117743009%)" points="450.7900974293388,450.8380638799477 450.7900974293388,403.6298481454157 459.03847525133045,401.2487465674634 459.03847525133045,448.4569623019954" />
  <polygon fill="hsl(324.0,50.0%,52.57800117743009%)" points="471.4110419843178,444.88530993506697 471.4110419843178,397.67709420053495 463.1626641623262,400.05819577848723 463.1626641623262,447.2664115130193" />
  <polygon fill="hsl(324.0,50.0%,52.57800117743009%)" points="442.5417196073472,406.4783577999475 442.5417196073472,359.73755014199503 449.75905020158984,357.6540862612868 449.75905020158984,404.3948939192393" />
  <polygon fill="hsl(324.0,50.0%,52.57800117743009%)" points="472.4420892120668,397.84686457987044 472.4420892120668,351.10605692191797 479.6594198063095,349.0225930412097 479.6594198063095,395.76340069916216" />
  <polygon fill="hsl(324.0,50.0%,52.57800117743009%)" points="449.75905020158984,364.87141685552945 449.75905020158984,357.6540862612868 472.4420892120668,351.10605692191797 472.4420892120668,358.3233875161606" />
  <polygon fill="hsl(324.0,50.0%,52.57800117743009%)" points="450.7900974293388,404.0972562219952 450.7900974293388,357.35644856404275 471.4110419843178,351.40369461916197 471.4110419843178,398.1445022771145" />
  <polygon fill="hsl(324.0,50.0%,52.57800117743009%)" points="455.9453335680836,353.5312196949249 455.9453335680836,332.49785624884635 466.2558058455731,329.52147927640596 466.2558058455731,350.5548427224845" />
  <polygon fill="hsl(324.0,50.0%,52.57800117743009%)" points="458.0074280235815,355.27298468333447 458.0074280235815,331.90258085435823 464.1937113900752,330.116754670894 464.1937113900752,353.48715849987025" />
</svg>
