<?xml version="1.0" encoding="UTF-8"?>
<svg
  xmlns="http://www.w3.org/2000/svg"
  width="848"
  height="600"
  style="background-color:white"
>
  <polygon fill="lightblue" points="350.7949192431123,609.8076211353316 150.7949192431123,436.6025403784439 497.2050807568877,336.60254037844385 697.2050807568877,509.80762113533154" />
  <polygon fill="steelblue" points="150.7949192431123,436.6025403784439 150.7949192431123,90.19237886466846 497.2050807568877,-9.807621135331658 497.2050807568877,336.60254037844385" />
  <polygon fill="lightskyblue" points="697.2050807568877,509.80762113533154 697.2050807568877,163.39745962155612 497.2050807568877,-9.807621135331658 497.2050807568877,336.60254037844385" />
  <polygon fill="white" points="612.2050807568877,436.1954618136543 612.2050807568877,262.9903810567666 582.2050807568877,237.00961894323342 582.2050807568877,410.2146997001211" />
  <polygon fill="white" points="178.63145007904066,359.2847937899745 178.63145007904066,290.0027614872194 221.93272026826259,277.5027614872194 221.93272026826259,346.78479378997446" />
  <polygon fill="white" points="228.11861600958002,344.9990795042602 228.11861600958002,275.7170472015051 271.4198861988019,263.2170472015051 271.4198861988019,332.4990795042602" />
  <polygon fill="white" points="277.60578194011936,330.7133652185459 277.60578194011936,261.4313329157908 320.9070521293413,248.93133291579082 320.9070521293413,318.2133652185459" />
  <polygon fill="white" points="327.0929478706587,316.4276509328316 327.0929478706587,247.1456186300765 370.39421805988064,234.6456186300765 370.39421805988064,303.9276509328316" />
  <polygon fill="white" points="376.580113801198,302.14193664711735 376.580113801198,232.85990434436223 419.88138399042,220.35990434436223 419.88138399042,289.64193664711735" />
  <polygon fill="white" points="426.0672797317374,287.856222361403 426.0672797317374,218.57419005864796 469.3685499209593,206.07419005864793 469.3685499209593,275.356222361403" />
</svg>
