<?xml version="1.0" encoding="UTF-8"?>
<svg
  xmlns="http://www.w3.org/2000/svg"
  width="848"
  height="600"
  style="background-color:white"
>
  <polygon fill="lightblue" points="376.0371036485048,559.7221298410465 245.00003393806,446.24069863432885 471.9628963514952,380.7221637791064 602.9999660619401,494.203594985824" />
  <polygon fill="steelblue" points="245.00003393806,446.24069863432885 245.00003393805994,105.79640501417597 471.9628963514952,40.27787015895353 471.9628963514952,380.7221637791064" />
  <polygon fill="lightskyblue" points="602.9999660619401,494.203594985824 602.99996606194,153.75930136567118 471.9628963514952,40.27787015895353 471.9628963514952,380.7221637791064" />
  <polygon fill="hsl(288.0,50.0%,52.57800117743009%)" points="446.1147381756189,481.25479392728573 446.1147381756189,442.2852704508989 452.923624048022,440.3197144052422 452.923624048022,479.28923788162905" />
  <polygon fill="hsl(288.0,50.0%,52.57800117743009%)" points="463.1369528566266,476.34090381314405 463.1369528566266,437.3713803367572 456.3280669842235,439.3369363824139 456.3280669842235,478.30645985880074" />
  <polygon fill="hsl(288.0,50.0%,52.57800117743009%)" points="439.3058523032159,444.6366633626584 439.3058523032159,406.05297675237443 445.26362744156853,404.33311521242484 445.26362744156853,442.91680182270886" />
  <polygon fill="hsl(288.0,50.0%,52.57800117743009%)" points="463.988063590677,437.511522697153 463.988063590677,398.927836086869 469.9458387290296,397.2079745469194 469.9458387290296,435.7916611572034" />
  <polygon fill="hsl(288.0,50.0%,52.57800117743009%)" points="445.26362744156853,410.29089035077754 445.26362744156853,404.33311521242484 463.988063590677,398.927836086869 463.988063590677,404.8856112252217" />
  <polygon fill="hsl(288.0,50.0%,52.57800117743009%)" points="446.1147381756189,442.67110731700177 446.1147381756189,404.08742070671775 463.1369528566266,399.17353059257607 463.1369528566266,437.75721720286003" />
  <polygon fill="hsl(288.0,50.0%,52.57800117743009%)" points="450.37029184587084,400.92976384766814 450.37029184587084,383.56710487304036 458.88139918637467,381.1101598159695 458.88139918637467,398.47281879059733" />
  <polygon fill="hsl(288.0,50.0%,52.57800117743009%)" points="452.0725133139716,402.36755916676816 452.0725133139716,383.0757158616262 457.1791777182739,381.6015488273837 457.1791777182739,400.89339213252566" />
</svg>
