<?xml version="1.0" encoding="UTF-8"?>
<svg
  xmlns="http://www.w3.org/2000/svg"
  width="848"
  height="600"
  style="background-color:white"
>
  <polygon fill="lightblue" points="376.0371036485048,559.7221298410465 245.00003393806,446.24069863432885 471.9628963514952,380.7221637791064 602.9999660619401,494.203594985824" />
  <polygon fill="steelblue" points="245.00003393806,446.24069863432885 245.00003393805994,105.79640501417597 471.9628963514952,40.27787015895353 471.9628963514952,380.7221637791064" />
  <polygon fill="lightskyblue" points="602.9999660619401,494.203594985824 602.99996606194,153.75930136567118 471.9628963514952,40.27787015895353 471.9628963514952,380.7221637791064" />
  <polygon fill="white" points="547.309211435001,445.973986722969 547.309211435001,332.4925555162514 527.6536509784343,315.47034083524375 527.6536509784343,428.95177204196136" />
  <polygon fill="white" points="276.20742751990736,391.8393276090487 276.20742751990736,346.4467551263616 304.5777853215867,338.25693826945883 304.5777853215867,383.6495107521459" />
  <polygon fill="white" points="321.60000000259436,378.7356206380042 321.60000000259436,333.34304815531715 349.9703578042738,325.15323129841437 349.9703578042738,370.5458037811014" />
  <polygon fill="white" points="366.9925724852814,365.63191366695975 366.9925724852814,320.2393411842727 395.3629302869608,312.04952432736985 395.3629302869608,357.4420968100569" />
  <polygon fill="white" points="412.3851449679685,352.52820669591523 412.3851449679685,307.1356342132282 440.7555027696479,298.9458173563254 440.7555027696479,344.33838983901245" />
</svg>
