<?xml version="1.0" encoding="UTF-8"?>
<svg
  xmlns="http://www.w3.org/2000/svg"
  width="848"
  height="600"
  style="background-color:white"
>
  <polygon fill="lightblue" points="363.5705372728252,519.9961455481084 198.47417482809388,377.018501598568 484.4294627271748,294.47032037620227 649.5258251719061,437.44796432574276" />
  <polygon fill="steelblue" points="198.47417482809388,377.018501598568 198.47417482809388,162.55203567425727 484.4294627271748,80.00385445189158 484.4294627271748,294.47032037620227" />
  <polygon fill="lightskyblue" points="649.5258251719061,437.44796432574276 649.5258251719061,222.98149840143202 484.4294627271748,80.00385445189158 484.4294627271748,294.47032037620227" />
  <polygon fill="white" points="551.8438107254401,352.85285832226464 551.8438107254401,209.87521437272414 527.0793563587304,188.4285677802931 527.0793563587304,331.40621172983356" />
  <polygon fill="white" points="606.8759315403505,400.51207297211147 606.8759315403505,257.534429022571 582.1114771736409,236.0877824301399 582.1114771736409,379.0654263796804" />
  <polygon fill="white" points="252.09079130917155,304.3496600395582 252.09079130917155,247.158602459742 287.83520229655664,236.8400798069463 287.83520229655664,294.0311373867625" />
  <polygon fill="white" points="323.5796132839418,283.71261473396675 323.5796132839418,226.52155715415057 359.3240242713269,216.20303450135486 359.3240242713269,273.39409208117104" />
  <polygon fill="white" points="395.06843525871204,263.07556942837533 395.06843525871204,205.88451184855916 430.81284624609714,195.56598919576345 430.81284624609714,252.75704677557962" />
  <polygon fill="hsl(288.0,50.0%,52.57800117743009%)" points="451.862824140376,421.1334973011894 451.862824140376,372.0349743689172 460.4414827773485,369.5585289322462 460.4414827773485,418.6570518645184" />
  <polygon fill="hsl(288.0,50.0%,52.57800117743009%)" points="473.3094707328071,414.94238370951194 473.3094707328071,365.84386077723974 464.73081209583466,368.3203062139107 464.73081209583466,417.41882914618293" />
  <polygon fill="hsl(288.0,50.0%,52.57800117743009%)" points="443.2841655034036,374.99754379501655 443.2841655034036,326.3851448521728 450.7904918107545,324.21825509508574 450.7904918107545,372.8306540379295" />
  <polygon fill="hsl(288.0,50.0%,52.57800117743009%)" points="474.3818030624286,366.02042908708427 474.3818030624286,317.4080301442405 481.8881293697795,315.24114038715345 481.8881293697795,363.8535393299972" />
  <polygon fill="hsl(288.0,50.0%,52.57800117743009%)" points="450.7904918107545,331.72458140243657 450.7904918107545,324.21825509508574 474.3818030624286,317.4080301442405 474.3818030624286,324.9143564515914" />
  <polygon fill="hsl(288.0,50.0%,52.57800117743009%)" points="451.862824140376,372.5210983583456 451.862824140376,323.9086994155018 473.3094707328071,317.71758582382444 473.3094707328071,366.3299847666682" />
  <polygon fill="hsl(288.0,50.0%,52.57800117743009%)" points="457.2244857884838,319.9303010704403 457.2244857884838,298.05472154616064 467.9478090846993,294.9591647503219 467.9478090846993,316.8347442746016" />
  <polygon fill="hsl(288.0,50.0%,52.57800117743009%)" points="459.3691504477269,321.74180965841475 459.3691504477269,297.43561018699285 465.8031444254562,295.57827610948965 465.8031444254562,319.8844755809115" />
</svg>
