<?xml version="1.0" encoding="UTF-8"?>
<svg
  xmlns="http://www.w3.org/2000/svg"
  width="848"
  height="600"
  style="background-color:white"
>
  <polygon fill="lightblue" points="365.8970888985497,545.8944718489954 207.15698370172979,408.4215081491351 482.1029111014503,329.0514555507251 640.8430162982702,466.52441925058537" />
  <polygon fill="steelblue" points="207.15698370172979,408.4215081491351 207.15698370172979,133.47558074941463 482.1029111014503,54.10552815100459 482.1029111014503,329.0514555507251" />
  <polygon fill="lightskyblue" points="640.8430162982702,466.52441925058537 640.8430162982702,191.57849185086488 482.1029111014503,54.10552815100459 482.1029111014503,329.0514555507251" />
  <polygon fill="white" points="281.62150570582077,331.93626675712164 281.6215057058207,276.9470812771775 315.9897466307858,267.02582470237627 315.9897466307858,322.0150101823204" />
  <polygon fill="white" points="373.2701481723942,305.47958255765167 373.2701481723942,250.49039707770754 407.6383890973593,240.5691405029063 407.6383890973593,295.55832598285036" />
  <polygon fill="grey" points="467.5771833260877,129.3264424832395 467.5771833260877,94.95820155827442 501.94542425105277,85.0369449834732 501.94542425105277,119.40518590843826" />
  <polygon fill="lightgrey" points="467.5771833260877,129.3264424832395 467.5771833260877,94.95820155827442 447.7346701764852,77.7740810957919 447.7346701764852,112.14232202075695" />
  <polygon fill="darkgrey" points="467.5771833260877,94.95820155827442 447.7346701764852,77.7740810957919 482.1029111014503,67.85282452099065 501.94542425105277,85.0369449834732" />
  <polygon fill="hsl(360.0,50.0%,68.65222276527638%)" points="423.9952840655162,399.645836744872 423.9952840655162,352.43762101033997 432.24366188750787,350.0565194323877 432.24366188750787,397.2647351669197" />
  <polygon fill="hsl(360.0,50.0%,68.65222276527638%)" points="444.61622862049524,393.69308279999126 444.61622862049524,346.48486706545924 436.36785079850364,348.8659686434115 436.36785079850364,396.07418437794354" />
  <polygon fill="hsl(360.0,50.0%,68.65222276527638%)" points="415.7469062435246,355.2861306648718 415.7469062435246,308.5453230069193 422.96423683776726,306.4618591262111 422.96423683776726,353.20266678416357" />
  <polygon fill="hsl(360.0,50.0%,68.65222276527638%)" points="445.6472758482442,346.65463744479473 445.6472758482442,299.91382978684226 452.8646064424869,297.830365906134 452.8646064424869,344.57117356408645" />
  <polygon fill="hsl(360.0,50.0%,68.65222276527638%)" points="422.96423683776726,313.67918972045373 422.96423683776726,306.4618591262111 445.6472758482442,299.91382978684226 445.6472758482442,307.1311603810849" />
  <polygon fill="hsl(360.0,50.0%,68.65222276527638%)" points="423.9952840655162,352.9050290869195 423.9952840655162,306.16422142896704 444.61622862049524,300.21146748408626 444.61622862049524,346.95227514203873" />
  <polygon fill="hsl(360.0,50.0%,68.65222276527638%)" points="429.15052020426094,302.3389925598492 429.15052020426094,281.30562911377064 439.4609924817505,278.32925214133024 439.4609924817505,299.3626155874088" />
  <polygon fill="hsl(360.0,50.0%,68.65222276527638%)" points="431.2126146597589,304.08075754825876 431.2126146597589,280.7103537192825 437.3988980262526,278.9245275358183 437.3988980262526,302.29493136479454" />
  <polygon fill="hsl(360.0,50.0%,65.5749766448301%)" points="391.7256471686944,420.24229569836507 391.7256471686944,373.03407996383305 399.974024990686,370.6529783858808 399.974024990686,417.8611941204128" />
  <polygon fill="hsl(360.0,50.0%,65.5749766448301%)" points="412.34659172367344,414.28954175348434 412.34659172367344,367.0813260189523 404.09821390168185,369.4624275969046 404.09821390168185,416.6706433314366" />
  <polygon fill="hsl(360.0,50.0%,65.5749766448301%)" points="383.4772693467028,375.8825896183649 383.4772693467028,329.1417819604124 390.69459994094547,327.0583180797041 390.69459994094547,373.7991257376566" />
  <polygon fill="hsl(360.0,50.0%,65.5749766448301%)" points="413.3776389514224,367.2510963982878 413.3776389514224,320.51028874033534 420.5949695456651,318.42682485962706 420.5949695456651,365.16763251757953" />
  <polygon fill="hsl(360.0,50.0%,65.5749766448301%)" points="390.69459994094547,334.2756486739468 390.69459994094547,327.0583180797041 413.3776389514224,320.51028874033534 413.3776389514224,327.727619334578" />
  <polygon fill="hsl(360.0,50.0%,65.5749766448301%)" points="391.7256471686944,373.5014880404126 391.7256471686944,326.7606803824601 412.34659172367344,320.80792643757934 412.34659172367344,367.5487340955318" />
  <polygon fill="hsl(360.0,50.0%,65.5749766448301%)" points="396.8808833074392,322.9354515133423 396.8808833074392,301.90208806726366 407.1913555849287,298.9257110948233 407.1913555849287,319.9590745409019" />
  <polygon fill="hsl(360.0,50.0%,65.5749766448301%)" points="398.94297776293706,324.67721650175184 398.94297776293706,301.3068126727756 405.1292611294308,299.5209864893114 405.1292611294308,322.8913903182876" />
  <polygon fill="hsl(360.0,50.0%,63.87054183818537%)" points="345.9456215923655,439.7062161914364 345.9456215923655,392.4980004569044 354.1939994143571,390.1168988789521 354.1939994143571,437.32511461348406" />
  <polygon fill="hsl(360.0,50.0%,63.87054183818537%)" points="366.56656614734453,433.7534622465556 366.56656614734453,386.54524651202365 358.31818832535293,388.92634808997593 358.31818832535293,436.13456382450795" />
  <polygon fill="hsl(360.0,50.0%,63.87054183818537%)" points="337.6972437703739,395.3465101114362 337.6972437703739,348.60570245348373 344.91457436461656,346.52223857277545 344.91457436461656,393.2630462307279" />
  <polygon fill="hsl(360.0,50.0%,63.87054183818537%)" points="367.5976133750935,386.71501689135914 367.5976133750935,339.97420923340667 374.8149439693361,337.8907453526984 374.8149439693361,384.63155301065086" />
  <polygon fill="hsl(360.0,50.0%,63.87054183818537%)" points="344.91457436461656,353.73956916701815 344.91457436461656,346.52223857277545 367.5976133750935,339.97420923340667 367.5976133750935,347.1915398276493" />
  <polygon fill="hsl(360.0,50.0%,63.87054183818537%)" points="345.9456215923655,392.9654085334839 345.9456215923655,346.22460087553145 366.56656614734453,340.27184693065067 366.56656614734453,387.01265458860314" />
  <polygon fill="hsl(360.0,50.0%,63.87054183818537%)" points="351.10085773111024,342.3993720064136 351.10085773111024,321.366008560335 361.41133000859975,318.38963158789466 361.41133000859975,339.4229950339732" />
  <polygon fill="hsl(360.0,50.0%,63.87054183818537%)" points="353.16295218660815,344.14113699482317 353.16295218660815,320.77073316584693 359.34923555310183,318.9849069823827 359.34923555310183,342.35531081135895" />
  <polygon fill="hsl(360.0,50.0%,52.57800117743009%)" points="450.7900974293388,450.8380638799477 450.7900974293388,403.6298481454157 459.03847525133045,401.2487465674634 459.03847525133045,448.4569623019954" />
  <polygon fill="hsl(360.0,50.0%,52.57800117743009%)" points="471.4110419843178,444.88530993506697 471.4110419843178,397.67709420053495 463.1626641623262,400.05819577848723 463.1626641623262,447.2664115130193" />
  <polygon fill="hsl(360.0,50.0%,52.57800117743009%)" points="442.5417196073472,406.4783577999475 442.5417196073472,359.73755014199503 449.75905020158984,357.6540862612868 449.75905020158984,404.3948939192393" />
  <polygon fill="hsl(360.0,50.0%,52.57800117743009%)" points="472.4420892120668,397.84686457987044 472.4420892120668,351.10605692191797 479.6594198063095,349.0225930412097 479.6594198063095,395.76340069916216" />
  <polygon fill="hsl(360.0,50.0%,52.57800117743009%)" points="449.75905020158984,364.87141685552945 449.75905020158984,357.6540862612868 472.4420892120668,351.10605692191797 472.4420892120668,358.3233875161606" />
  <polygon fill="hsl(360.0,50.0%,52.57800117743009%)" points="450.7900974293388,404.0972562219952 450.7900974293388,357.35644856404275 471.4110419843178,351.40369461916197 471.4110419843178,398.1445022771145" />
  <polygon fill="hsl(360.0,50.0%,52.57800117743009%)" points="455.9453335680836,353.5312196949249 455.9453335680836,332.49785624884635 466.2558058455731,329.52147927640596 466.2558058455731,350.5548427224845" />
  <polygon fill="hsl(360.0,50.0%,52.57800117743009%)" points="458.0074280235815,355.27298468333447 458.0074280235815,331.90258085435823 464.1937113900752,330.116754670894 464.1937113900752,353.48715849987025" />
  <polygon fill="hsl(360.0,50.0%,46.24652422154656%)" points="388.9590246392945,491.89800785236025 388.9590246392945,444.6897921178282 397.2074024612861,442.3086905398759 397.2074024612861,489.5169062744079" />
  <polygon fill="hsl(360.0,50.0%,46.24652422154656%)" points="409.57996919427353,485.94525390747947 409.57996919427353,438.73703817294745 401.33159137228193,441.11813975089973 401.33159137228193,488.32635548543175" />
  <polygon fill="hsl(360.0,50.0%,46.24652422154656%)" points="380.71064681730286,447.53830177236 380.71064681730286,400.7974941144075 387.9279774115455,398.71403023369925 387.92797741154556,445.4548378916517" />
  <polygon fill="hsl(360.0,50.0%,46.24652422154656%)" points="410.6110164220225,438.9068085522829 410.6110164220225,392.1660008943304 417.8283470162651,390.0825370136222 417.8283470162651,436.82334467157466" />
  <polygon fill="hsl(360.0,50.0%,46.24652422154656%)" points="387.9279774115455,405.93136082794194 387.9279774115455,398.71403023369925 410.6110164220225,392.1660008943304 410.6110164220225,399.3833314885731" />
  <polygon fill="hsl(360.0,50.0%,46.24652422154656%)" points="388.9590246392945,445.15720019440766 388.95902463929446,398.41639253645525 409.57996919427353,392.46363859157447 409.57996919427353,439.20444624952694" />
  <polygon fill="hsl(360.0,50.0%,46.24652422154656%)" points="394.11426077803924,394.5911636673374 394.11426077803924,373.5578002212588 404.42473305552875,370.5814232488184 404.42473305552875,391.614786694897" />
  <polygon fill="hsl(360.0,50.0%,46.24652422154656%)" points="396.17635523353715,396.33292865574697 396.17635523353715,372.96252482677073 402.36263860003083,371.1766986433065 402.36263860003083,394.54710247228275" />
</svg>
