<?xml version="1.0" encoding="UTF-8"?>
<svg
  xmlns="http://www.w3.org/2000/svg"
  width="848"
  height="600"
  style="background-color:white"
>
  <polygon fill="lightblue" points="363.5705372728252,519.9961455481084 198.47417482809388,377.018501598568 484.4294627271748,294.47032037620227 649.5258251719061,437.44796432574276" />
  <polygon fill="steelblue" points="198.47417482809388,377.018501598568 198.47417482809388,162.55203567425727 484.4294627271748,80.00385445189158 484.4294627271748,294.47032037620227" />
  <polygon fill="lightskyblue" points="649.5258251719061,437.44796432574276 649.5258251719061,222.98149840143202 484.4294627271748,80.00385445189158 484.4294627271748,294.47032037620227" />
  <polygon fill="white" points="579.3598711328953,376.68246564718805 579.3598711328953,233.70482169764756 554.5954167661856,212.25817510521654 554.5954167661856,355.235819054757" />
  <polygon fill="antiquewhite" points="493.0364945822146,423.3223983480983 493.0364945822146,301.7914009909889 521.6320233721227,293.5365828687523 521.6320233721227,415.0675802258617" />
  <polygon fill="beige" points="493.0364945822146,423.3223983480983 493.0364945822146,301.7914009909889 476.52685833774143,287.4936365960349 476.52685833774143,409.02463395314425" />
  <polygon fill="bisque" points="493.0364945822146,301.7914009909889 476.52685833774143,287.4936365960349 505.1223871276496,279.2388184737983 521.6320233721227,293.5365828687523" />
  <polygon fill="antiquewhite" points="380.4994070937632,498.05450792647696 380.4994070937632,376.52351056936755 409.09493588367127,368.268692447131 409.09493588367127,489.7996898042404" />
  <polygon fill="beige" points="380.4994070937632,498.05450792647696 380.4994070937632,376.52351056936755 363.98977084929004,362.2257461744135 363.98977084929004,483.75674353152294" />
  <polygon fill="bisque" points="380.4994070937632,376.52351056936755 363.98977084929004,362.2257461744135 392.5852996391981,353.97092805217693 409.09493588367127,368.268692447131" />
  <polygon fill="antiquewhite" points="444.26796898990506,330.14879025963734 444.26796898990506,208.61779290252795 472.8634977798132,200.36297478029138 472.8634977798132,321.8939721374008" />
  <polygon fill="beige" points="444.26796898990506,330.14879025963734 444.26796898990506,208.61779290252795 427.7583327454319,194.32002850757388 427.7583327454319,315.85102586468327" />
  <polygon fill="bisque" points="444.26796898990506,208.61779290252795 427.7583327454319,194.32002850757388 456.35386153534006,186.0652103853373 472.8634977798132,200.36297478029138" />
  <polygon fill="antiquewhite" points="419.039251047515,368.00062658652956 419.039251047515,246.46962922942015 447.63477983742314,238.21481110718358 447.63477983742314,359.74580846429296" />
  <polygon fill="beige" points="419.039251047515,368.00062658652956 419.039251047515,246.46962922942015 402.52961480304185,232.17186483446608 402.52961480304185,353.7028621915755" />
  <polygon fill="bisque" points="419.039251047515,246.46962922942015 402.52961480304185,232.17186483446608 431.12514359295,223.9170467122295 447.63477983742314,238.21481110718358" />
</svg>
