<?xml version="1.0" encoding="UTF-8"?>
<svg
  xmlns="http://www.w3.org/2000/svg"
  width="848"
  height="600"
  style="background-color:white"
>
  <polygon fill="lightblue" points="350.7949192431123,653.1088913245535 150.7949192431123,479.90381056766574 497.20508075688775,379.90381056766574 697.2050807568878,553.1088913245535" />
  <polygon fill="steelblue" points="150.7949192431123,479.90381056766574 150.79491924311225,46.89110867544653 497.2050807568877,-53.1088913245535 497.20508075688775,379.90381056766574" />
  <polygon fill="lightskyblue" points="697.2050807568878,553.1088913245535 697.2050807568877,120.09618943233426 497.2050807568877,-53.1088913245535 497.20508075688775,379.90381056766574" />
  <polygon fill="white" points="612.2050807568878,479.49673200287623 612.2050807568877,306.2916512459885 582.2050807568877,280.3108891324553 582.2050807568878,453.51596988934307" />
  <polygon fill="white" points="198.4263164512564,396.87177826491074 198.4263164512564,327.58974596215563 241.72758664047834,315.08974596215563 241.72758664047834,384.3717782649107" />
  <polygon fill="white" points="267.70834875401147,376.8717782649107 267.70834875401147,307.5897459621556 311.0096189432335,295.0897459621556 311.0096189432335,364.3717782649107" />
  <polygon fill="white" points="336.99038105676664,356.8717782649107 336.99038105676664,287.5897459621556 380.29165124598853,275.0897459621556 380.29165124598853,344.3717782649107" />
  <polygon fill="white" points="406.2724133595217,336.8717782649107 406.2724133595217,267.5897459621556 449.5736835487436,255.08974596215558 449.5736835487436,324.3717782649107" />
</svg>
