<?xml version="1.0" encoding="UTF-8"?>
<svg
  xmlns="http://www.w3.org/2000/svg"
  width="848"
  height="600"
  style="background-color:white"
>
  <polygon fill="lightblue" points="360.04947153133975,532.8147419146777 185.33337858407992,381.5061669723875 487.95052846866025,294.1481204987576 662.6666214159201,445.4566954410477" />
  <polygon fill="steelblue" points="185.33337858407992,381.5061669723875 185.33337858407992,154.54330455895226 487.95052846866025,67.18525808532232 487.95052846866025,294.1481204987576" />
  <polygon fill="lightskyblue" points="662.6666214159201,445.4566954410477 662.6666214159201,218.49383302761248 487.95052846866025,67.18525808532232 487.95052846866025,294.1481204987576" />
  <polygon fill="white" points="588.4122819133347,381.1505510905744 588.4122819133347,237.40740489539877 562.2048679712457,214.71111865405524 562.2048679712457,358.4542648492309" />
  <polygon fill="hsl(324.0,50.0%,68.65222276527638%)" points="423.99480944247466,371.8472907933603 423.99480944247466,319.8879261581778 433.0733239390121,317.2671847639689 433.0733239390121,369.2265493991514" />
  <polygon fill="hsl(324.0,50.0%,68.65222276527638%)" points="446.6910956838182,365.29543730783803 446.69109568381816,313.3360726726556 437.61258118728074,315.95681406686447 437.6125811872808,367.9161787020469" />
  <polygon fill="hsl(324.0,50.0%,68.65222276527638%)" points="414.91629494593724,323.02311670719047 414.91629494593724,271.5782012268118 422.85999513040747,269.285052506879 422.85999513040747,320.7299679872577" />
  <polygon fill="hsl(324.0,50.0%,68.65222276527638%)" points="447.82590999588535,313.5229291531832 447.82590999588535,262.07801367280456 455.7696101803556,259.78486495287177 455.7696101803556,311.2297804332504" />
  <polygon fill="hsl(324.0,50.0%,68.65222276527638%)" points="422.85999513040747,277.22875269134926 422.85999513040747,269.285052506879 447.82590999588535,262.07801367280456 447.82590999588535,270.0217138572748" />
  <polygon fill="hsl(324.0,50.0%,68.65222276527638%)" points="423.99480944247466,320.4023753129816 423.99480944247466,268.9574598326029 446.69109568381816,262.40560634708066 446.69109568381816,313.8505218274593" />
  <polygon fill="hsl(324.0,50.0%,68.65222276527638%)" points="429.6688810028105,264.74725068720346 429.6688810028105,241.59703872103307 441.0170241234823,238.32111197827192 441.0170241234823,261.4713239444423" />
  <polygon fill="hsl(324.0,50.0%,68.65222276527638%)" points="431.9385096269449,266.66431111267013 431.9385096269449,240.94185337248084 438.74739549934793,238.97629732682415 438.74739549934793,264.69875506701345" />
  <polygon fill="hsl(324.0,50.0%,63.87054183818537%)" points="338.09004034676644,415.93944362525 338.0900403467664,363.98007899006757 347.1685548433038,361.3593375958587 347.1685548433038,413.31870223104113" />
  <polygon fill="hsl(324.0,50.0%,63.87054183818537%)" points="360.78632658810994,409.38759013972776 360.78632658810994,357.4282255045453 351.7078120915725,360.0489668987542 351.7078120915725,412.00833153393665" />
  <polygon fill="hsl(324.0,50.0%,63.87054183818537%)" points="329.011525850229,367.11526953908026 329.011525850229,315.6703540587016 336.95522603469925,313.3772053387688 336.95522603469925,364.8221208191475" />
  <polygon fill="hsl(324.0,50.0%,63.87054183818537%)" points="361.9211409001771,357.615081985073 361.9211409001771,306.17016650469435 369.8648410846473,303.87701778476156 369.8648410846473,355.3219332651402" />
  <polygon fill="hsl(324.0,50.0%,63.87054183818537%)" points="336.95522603469925,321.32090552323905 336.95522603469925,313.3772053387688 361.9211409001771,306.17016650469435 361.9211409001771,314.1138666891646" />
  <polygon fill="hsl(324.0,50.0%,63.87054183818537%)" points="338.0900403467664,364.4945281448713 338.0900403467664,313.04961266449266 360.78632658810994,306.49775917897045 360.78632658810994,357.9426746593491" />
  <polygon fill="hsl(324.0,50.0%,63.87054183818537%)" points="343.7641119071023,308.8394035190932 343.7641119071023,285.6891915529228 355.11225502777404,282.4132648101617 355.11225502777404,305.5634767763321" />
  <polygon fill="hsl(324.0,50.0%,63.87054183818537%)" points="346.0337405312366,310.75646394455987 346.0337405312366,285.0340062043706 352.84262640363966,283.0684501587139 352.84262640363966,308.79090789890324" />
  <polygon fill="hsl(324.0,50.0%,52.57800117743009%)" points="453.48631756749194,428.19162736299677 453.48631756749194,376.23226272781426 462.5648320640293,373.61152133360537 462.56483206402936,425.5708859687878" />
  <polygon fill="hsl(324.0,50.0%,52.57800117743009%)" points="476.18260380883544,421.6397738774745 476.18260380883544,369.68040924229206 467.104089312298,372.30115063650095 467.104089312298,424.2605152716834" />
  <polygon fill="hsl(324.0,50.0%,52.57800117743009%)" points="444.4078030709545,379.36745327682695 444.4078030709545,327.9225377964483 452.35150325542475,325.6293890765155 452.35150325542475,377.07430455689416" />
  <polygon fill="hsl(324.0,50.0%,52.57800117743009%)" points="477.31741812090263,369.8672657228197 477.31741812090263,318.42235024244104 485.26111830537286,316.12920152250825 485.26111830537286,367.5741170028869" />
  <polygon fill="hsl(324.0,50.0%,52.57800117743009%)" points="452.35150325542475,333.57308926098574 452.35150325542475,325.6293890765155 477.31741812090263,318.42235024244104 477.31741812090263,326.3660504269113" />
  <polygon fill="hsl(324.0,50.0%,52.57800117743009%)" points="453.48631756749194,376.74671188261806 453.4863175674919,325.3017964022394 476.18260380883544,318.74994291671715 476.18260380883544,370.1948583970958" />
  <polygon fill="hsl(324.0,50.0%,52.57800117743009%)" points="459.1603891278278,321.0915872568399 459.1603891278278,297.94137529066955 470.50853224849953,294.6654485479084 470.50853224849953,317.8156605140788" />
  <polygon fill="hsl(324.0,50.0%,52.57800117743009%)" points="461.4300177519621,323.0086476823066 461.4300177519621,297.2861899421173 468.2389036243652,295.3206338964606 468.2389036243652,321.04309163664993" />
  <polygon fill="hsl(324.0,50.0%,46.24652422154656%)" points="385.43241620954706,473.38394330986193 385.43241620954706,421.4245786746794 394.5109307060845,418.80383728047053 394.5109307060845,470.763201915653" />
  <polygon fill="hsl(324.0,50.0%,46.24652422154656%)" points="408.1287024508906,466.8320898243396 408.1287024508906,414.87272518915717 399.0501879543532,417.49346658336606 399.0501879543532,469.45283121854857" />
  <polygon fill="hsl(324.0,50.0%,46.24652422154656%)" points="376.35390171300963,424.5597692236921 376.35390171300963,373.11485374331346 384.2976018974799,370.8217050233807 384.2976018974799,422.2666205037593" />
  <polygon fill="hsl(324.0,50.0%,46.24652422154656%)" points="409.26351676295775,415.05958166968486 409.26351676295775,363.6146661893062 417.207216947428,361.3215174693734 417.207216947428,412.7664329497521" />
  <polygon fill="hsl(324.0,50.0%,46.24652422154656%)" points="384.2976018974799,378.7654052078509 384.2976018974799,370.8217050233807 409.26351676295775,363.6146661893062 409.26351676295775,371.55836637377644" />
  <polygon fill="hsl(324.0,50.0%,46.24652422154656%)" points="385.43241620954706,421.9390278294832 385.43241620954706,370.49411234910457 408.1287024508906,363.9422588635823 408.1287024508906,415.38717434396096" />
  <polygon fill="hsl(324.0,50.0%,46.24652422154656%)" points="391.10648776988296,366.2839032037051 391.10648776988296,343.13369123753466 402.4546308905547,339.85776449477356 402.4546308905547,363.00797646094395" />
  <polygon fill="hsl(324.0,50.0%,46.24652422154656%)" points="393.37611639401734,368.2009636291718 393.37611639401734,342.47850588898245 400.1850022664204,340.51294984332577 400.1850022664204,366.2354075835151" />
</svg>
