<?xml version="1.0" encoding="UTF-8"?>
<svg
  xmlns="http://www.w3.org/2000/svg"
  width="848"
  height="600"
  style="background-color:white"
>
  <polygon fill="lightblue" points="363.5705372728252,519.9961455481084 198.47417482809388,377.018501598568 484.4294627271748,294.47032037620227 649.5258251719061,437.44796432574276" />
  <polygon fill="steelblue" points="198.47417482809388,377.018501598568 198.47417482809388,162.55203567425727 484.4294627271748,80.00385445189158 484.4294627271748,294.47032037620227" />
  <polygon fill="lightskyblue" points="649.5258251719061,437.44796432574276 649.5258251719061,222.98149840143202 484.4294627271748,80.00385445189158 484.4294627271748,294.47032037620227" />
  <polygon fill="white" points="237.7930269142175,308.4770691006765 237.7930269142175,251.28601152086028 273.53743790160263,240.96748886806458 273.53743790160263,298.1585464478808" />
  <polygon fill="white" points="294.9840844940337,291.96743285620335 294.9840844940337,234.77637527638717 330.7284954814188,224.45785262359144 330.7284954814188,281.64891020340764" />
  <polygon fill="white" points="352.1751420738499,275.4577966117302 352.1751420738499,218.26673903191403 387.91955306123504,207.94821637911832 387.91955306123504,265.1392739589345" />
  <polygon fill="white" points="409.36619965366606,258.94816036725706 409.36619965366606,201.75710278744089 445.1106106410512,191.43858013464518 445.1106106410512,248.62963771446135" />
  <polygon fill="grey" points="469.3220970453811,158.236757980719 469.3220970453811,122.49234699333388 505.06650803276625,112.17382434053818 505.06650803276625,147.9182353279233" />
  <polygon fill="lightgrey" points="469.3220970453811,158.236757980719 469.3220970453811,122.49234699333388 448.6850517397897,104.6201414996413 448.6850517397897,140.36455248702646" />
  <polygon fill="darkgrey" points="469.3220970453811,122.49234699333388 448.6850517397897,104.6201414996413 484.4294627271748,94.3016188468456 505.06650803276625,112.17382434053818" />
  <polygon fill="hsl(324.0,50.0%,52.57800117743009%)" points="451.862824140376,421.1334973011894 451.862824140376,372.0349743689172 460.4414827773485,369.5585289322462 460.4414827773485,418.6570518645184" />
  <polygon fill="hsl(324.0,50.0%,52.57800117743009%)" points="473.3094707328071,414.94238370951194 473.3094707328071,365.84386077723974 464.73081209583466,368.3203062139107 464.73081209583466,417.41882914618293" />
  <polygon fill="hsl(324.0,50.0%,52.57800117743009%)" points="443.2841655034036,374.99754379501655 443.2841655034036,326.3851448521728 450.7904918107545,324.21825509508574 450.7904918107545,372.8306540379295" />
  <polygon fill="hsl(324.0,50.0%,52.57800117743009%)" points="474.3818030624286,366.02042908708427 474.3818030624286,317.4080301442405 481.8881293697795,315.24114038715345 481.8881293697795,363.8535393299972" />
  <polygon fill="hsl(324.0,50.0%,52.57800117743009%)" points="450.7904918107545,331.72458140243657 450.7904918107545,324.21825509508574 474.3818030624286,317.4080301442405 474.3818030624286,324.9143564515914" />
  <polygon fill="hsl(324.0,50.0%,52.57800117743009%)" points="451.862824140376,372.5210983583456 451.862824140376,323.9086994155018 473.3094707328071,317.71758582382444 473.3094707328071,366.3299847666682" />
  <polygon fill="hsl(324.0,50.0%,52.57800117743009%)" points="457.2244857884838,319.9303010704403 457.2244857884838,298.05472154616064 467.9478090846993,294.9591647503219 467.9478090846993,316.8347442746016" />
  <polygon fill="hsl(324.0,50.0%,52.57800117743009%)" points="459.3691504477269,321.74180965841475 459.3691504477269,297.43561018699285 465.8031444254562,295.57827610948965 465.8031444254562,319.8844755809115" />
</svg>
