<?xml version="1.0" encoding="UTF-8"?>
<svg
  xmlns="http://www.w3.org/2000/svg"
  width="848"
  height="600"
  style="background-color:white"
>
  <polygon fill="lightblue" points="390.4377753153142,530.7739411388498 216.37819405483495,380.0339219951929 457.5622246846858,310.41008949100114 631.6218059451651,461.150108634658" />
  <polygon fill="steelblue" points="216.37819405483495,380.0339219951929 216.37819405483495,138.849891365342 457.5622246846858,69.22605886115025 457.5622246846858,310.41008949100114" />
  <polygon fill="lightskyblue" points="631.6218059451651,461.150108634658 631.6218059451651,219.96607800480712 457.5622246846858,69.22605886115025 457.5622246846858,310.41008949100114" />
  <polygon fill="white" points="555.0355901905542,394.824500211449 555.0355901905542,274.23248489652354 534.1484404392967,256.1436825992847 534.1484404392967,376.73569791421016" />
  <polygon fill="white" points="235.7590536590194,326.2023436144216 235.7590536590194,277.9655374884514 265.90705748775076,269.2625584254274 265.90705748775076,317.4993645513976" />
  <polygon fill="white" points="270.21391517756956,316.2560818281085 270.21391517756956,268.0192757021383 300.3619190063009,259.31629663911434 300.3619190063009,307.55310276508453" />
  <polygon fill="white" points="304.66877669611966,306.3098200417954 304.66877669611966,258.0730139158252 334.81678052485097,249.37003485280124 334.816780524851,297.6068409787714" />
  <polygon fill="white" points="339.12363821466977,296.3635582554823 339.12363821466977,248.1267521295121 369.27164204340113,239.42377306648814 369.27164204340113,287.66057919245833" />
  <polygon fill="white" points="373.57849973321987,286.4172964691692 373.57849973321987,238.180490343199 403.72650356195123,229.47751128017507 403.72650356195123,277.7143174061452" />
  <polygon fill="white" points="408.03336125177003,276.4710346828561 408.03336125177003,228.2342285568859 438.1813650805014,219.53124949386194 438.1813650805014,267.7680556198321" />
  <polygon fill="antiquewhite" points="490.24180026913893,441.10261399374366 490.24180026913893,338.599400976057 514.360203332124,331.6370177256378 514.360203332124,434.1402307433244" />
  <polygon fill="beige" points="490.24180026913893,441.10261399374366 490.24180026913893,338.599400976057 476.3170337683006,326.54019944456445 476.31703376830063,429.0434124622511" />
  <polygon fill="bisque" points="490.24180026913893,338.599400976057 476.3170337683006,326.54019944456445 500.4354368312857,319.57781619414527 514.360203332124,331.6370177256378" />
  <polygon fill="antiquewhite" points="404.1407784450699,511.769372019358 404.1407784450699,409.2661590016713 428.25918150805495,402.30377575125215 428.259181508055,504.8069887689388" />
  <polygon fill="beige" points="404.1407784450699,511.769372019358 404.1407784450699,409.2661590016713 390.2160119442316,397.2069574701788 390.2160119442316,499.7101704878654" />
  <polygon fill="bisque" points="404.1407784450699,409.2661590016713 390.2160119442316,397.2069574701788 414.33441500721665,390.2445742197596 428.25918150805495,402.30377575125215" />
  <polygon fill="antiquewhite" points="426.72585451663133,343.13272162894174 426.7258545166313,240.6295086112551 450.8442575796164,233.6671253608359 450.84425757961645,336.17033837852256" />
  <polygon fill="beige" points="426.72585451663133,343.13272162894174 426.7258545166313,240.6295086112551 412.80108801579297,228.57030707976253 412.80108801579297,331.07352009744915" />
  <polygon fill="bisque" points="426.7258545166313,240.6295086112551 412.80108801579297,228.57030707976253 436.9194910787781,221.60792382934335 450.8442575796164,233.6671253608359" />
  <polygon fill="antiquewhite" points="411.8267272279938,380.5830903535707 411.8267272279938,278.0798773358841 435.9451302909789,271.1174940854649 435.9451302909789,373.6207071031515" />
  <polygon fill="beige" points="411.8267272279938,380.5830903535707 411.8267272279938,278.0798773358841 397.9019607271554,266.02067580439154 397.9019607271554,368.52388882207816" />
  <polygon fill="bisque" points="411.8267272279938,278.0798773358841 397.9019607271554,266.02067580439154 422.02036379014055,259.05829255397236 435.9451302909789,271.1174940854649" />
</svg>
