<?xml version="1.0" encoding="UTF-8"?>
<svg
  xmlns="http://www.w3.org/2000/svg"
  width="848"
  height="600"
  style="background-color:white"
>
  <polygon fill="lightblue" points="384.9075948831574,533.6838660713717 182.1675283640441,358.10581810087257 463.0924051168426,277.0097914932272 665.8324716359559,452.5878394637263" />
  <polygon fill="steelblue" points="182.1675283640441,358.10581810087257 182.1675283640441,147.4121605362737 463.0924051168426,66.31613392862835 463.0924051168426,277.0097914932272" />
  <polygon fill="lightskyblue" points="665.8324716359559,452.5878394637263 665.8324716359559,241.89418189912743 463.0924051168426,66.31613392862835 463.0924051168426,277.0097914932272" />
  <polygon fill="white" points="542.8368312810271,346.0704903616235 542.8368312810271,205.60805198522428 518.5080232987336,184.5386862287644 518.5080232987336,325.0011246051637" />
  <polygon fill="white" points="610.416853454065,404.5965063517899 610.416853454065,264.1340679753906 586.0880454717714,243.06470221893073 586.0880454717714,383.52714059533" />
  <polygon fill="white" points="220.7946989175539,290.7701390917616 220.7946989175539,234.58516374120194 255.9103085116537,224.44816041524626 255.9103085116537,280.63313576580595" />
  <polygon fill="white" points="276.97967426811357,274.5509337702326 276.97967426811357,218.36595841967284 312.09528386221336,208.2289550937172 312.09528386221336,264.4139304442769" />
  <polygon fill="white" points="333.1646496186733,258.3317284487035 333.1646496186733,202.1467530981438 368.2802592127731,192.00974977218812 368.2802592127731,248.1947251227478" />
  <polygon fill="white" points="389.349624969233,242.11252312717443 389.349624969233,185.92754777661472 424.4652345633328,175.79054445065904 424.4652345633328,231.97551980121875" />
  <polygon fill="grey" points="448.2508021746541,143.17279548337368 448.2508021746541,108.05718588927385 483.3664117687539,97.92018256331818 483.3664117687539,133.035792157418" />
  <polygon fill="lightgrey" points="448.2508021746541,143.17279548337368 448.2508021746541,108.05718588927385 427.9767955227428,90.49938109222393 427.9767955227428,125.61499068632375" />
  <polygon fill="darkgrey" points="448.2508021746541,108.05718588927385 427.9767955227428,90.49938109222393 463.0924051168426,80.36237776626825 483.3664117687539,97.92018256331818" />
  <polygon fill="hsl(324.0,50.0%,70.71600065166498%)" points="407.258762874546,352.20295282488644 407.258762874546,303.96815148643094 415.68650917712995,301.5352706882016 415.68650917712995,349.7700720266571" />
  <polygon fill="hsl(324.0,50.0%,70.71600065166498%)" points="428.3281286310059,346.12075082931307 428.3281286310059,297.88594949085757 419.9003823284219,300.3188302890869 419.9003823284219,348.5536316275424" />
  <polygon fill="hsl(324.0,50.0%,70.71600065166498%)" points="398.83101657196204,306.87860457514006 398.83101657196204,259.12137552716433 406.20529458672297,256.99260482871364 406.20529458672297,304.74983387668937" />
  <polygon fill="hsl(324.0,50.0%,70.71600065166498%)" points="429.38159691882885,298.05941168155863 429.38159691882885,250.3021826335829 436.75587493358984,248.1734119351322 436.75587493358984,295.93064098310793" />
  <polygon fill="hsl(324.0,50.0%,70.71600065166498%)" points="406.20529458672297,264.36688284347457 406.20529458672297,256.99260482871364 429.38159691882885,250.3021826335829 429.38159691882885,257.67646064834383" />
  <polygon fill="hsl(324.0,50.0%,70.71600065166498%)" points="407.258762874546,304.4457237769107 407.258762874546,256.688494728935 428.3281286310059,250.60629273336156 428.3281286310059,298.3635217813373" />
  <polygon fill="hsl(324.0,50.0%,70.71600065166498%)" points="412.52610431366094,252.78008277764283 412.52610431366094,231.28932970605376 423.06078719189094,228.24822870826705 423.06078719189094,249.73898177985612" />
  <polygon fill="hsl(324.0,50.0%,70.71600065166498%)" points="414.6330408893069,254.55972403048426 414.6330408893069,230.6811095064964 420.9538506162449,228.8564489078244 420.9538506162449,252.73506343181225" />
  <polygon fill="hsl(324.0,50.0%,51.426934746249444%)" points="460.70736386614544,427.08664510898984 460.70736386614544,378.85184377053434 469.13511016872945,376.41896297230494 469.13511016872945,424.6537643107605" />
  <polygon fill="hsl(324.0,50.0%,51.426934746249444%)" points="481.77672962260533,421.0044431134164 481.77672962260533,372.769641774961 473.3489833200214,375.2025225731903 473.3489833200214,423.4373239116458" />
  <polygon fill="hsl(324.0,50.0%,51.426934746249444%)" points="452.2796175635615,381.76229685924346 452.2796175635615,334.00506781126774 459.6538955783225,331.87629711281704 459.6538955783225,379.63352616079277" />
  <polygon fill="hsl(324.0,50.0%,51.426934746249444%)" points="482.83019791042835,372.94310396566203 482.83019791042835,325.1858749176863 490.2044759251893,323.0571042192356 490.2044759251893,370.81433326721134" />
  <polygon fill="hsl(324.0,50.0%,51.426934746249444%)" points="459.6538955783225,339.250575127578 459.6538955783225,331.87629711281704 482.83019791042835,325.1858749176863 482.83019791042835,332.56015293244724" />
  <polygon fill="hsl(324.0,50.0%,51.426934746249444%)" points="460.70736386614544,379.3294160610141 460.70736386614544,331.57218701303833 481.77672962260533,325.48998501746496 481.77672962260533,373.2472140654407" />
  <polygon fill="hsl(324.0,50.0%,51.426934746249444%)" points="465.9747053052604,327.6637750617462 465.9747053052604,306.17302199015717 476.5093881834904,303.13192099237045 476.5093881834904,324.6226740639595" />
  <polygon fill="hsl(324.0,50.0%,51.426934746249444%)" points="468.08164188090643,329.44341631458764 468.08164188090643,305.5648017905998 474.4024516078444,303.74014119192776 474.4024516078444,327.61875571591565" />
  <polygon fill="hsl(324.0,50.0%,43.8291623991892%)" points="407.8008706143815,477.9328218392777 407.8008706143815,429.69802050082217 416.22861691696545,427.2651397025928 416.22861691696545,475.4999410410483" />
  <polygon fill="hsl(324.0,50.0%,43.8291623991892%)" points="428.8702363708414,471.8506198437043 428.8702363708414,423.61581850524874 420.4424900682574,426.04869930347814 420.4424900682574,474.28350064193364" />
  <polygon fill="hsl(324.0,50.0%,43.8291623991892%)" points="399.37312431179754,432.6084735895313 399.37312431179754,384.85124454155556 406.74740232655853,382.72247384310486 406.74740232655853,430.4797028910806" />
  <polygon fill="hsl(324.0,50.0%,43.8291623991892%)" points="429.9237046586644,423.78928069594986 429.9237046586644,376.03205164797413 437.29798267342534,373.90328094952343 437.29798267342534,421.66050999749916" />
  <polygon fill="hsl(324.0,50.0%,43.8291623991892%)" points="406.74740232655853,390.0967518578658 406.74740232655853,382.72247384310486 429.9237046586644,376.03205164797413 429.9237046586644,383.40632966273506" />
  <polygon fill="hsl(324.0,50.0%,43.8291623991892%)" points="407.8008706143815,430.17559279130194 407.8008706143815,382.41836374332615 428.8702363708414,376.3361617477528 428.8702363708414,424.0933907957285" />
  <polygon fill="hsl(324.0,50.0%,43.8291623991892%)" points="413.0682120534965,378.50995179203403 413.0682120534965,357.019198720445 423.60289493172644,353.9780977226583 423.60289493172644,375.4688507942474" />
  <polygon fill="hsl(324.0,50.0%,43.8291623991892%)" points="415.1751486291425,380.2895930448755 415.1751486291425,356.4109785208876 421.49595835608045,354.5863179222156 421.49595835608045,378.4649324462035" />
</svg>
