<?xml version="1.0" encoding="UTF-8"?>
<svg
  xmlns="http://www.w3.org/2000/svg"
  width="848"
  height="600"
  style="background-color:white"
>
  <polygon fill="lightblue" points="395.99537875389854,492.55984595122777 250.75850327112042,366.7810222168646 452.00462124610146,308.6862720237533 597.2414967288796,434.4650957581165" />
  <polygon fill="steelblue" points="250.75850327112042,366.7810222168646 250.75850327112042,165.53490424188354 452.00462124610146,107.44015404877223 452.00462124610146,308.6862720237533" />
  <polygon fill="lightskyblue" points="597.2414967288796,434.4650957581165 597.2414967288796,233.21897778313541 452.00462124610146,107.44015404877223 452.00462124610146,308.6862720237533" />
  <polygon fill="white" points="533.3372715164572,379.12241331499666 533.3372715164572,278.4993543275061 515.9088464585238,263.4058954793826 515.9088464585238,364.0289544668731" />
  <polygon fill="white" points="266.9300663226814,321.8634704813505 266.9300663226814,281.6142468863543 292.08583106955405,274.35240311221537 292.08583106955405,314.60162670721155" />
  <polygon fill="white" points="295.6795117476787,313.56422045376314 295.6795117476787,273.31499685876696 320.8352764945513,266.05315308462804 320.8352764945513,306.3023766796243" />
  <polygon fill="white" points="324.42895717267595,305.26497042617586 324.42895717267595,265.0157468311796 349.5847219195486,257.7539030570407 349.5847219195486,298.00312665203694" />
  <polygon fill="white" points="353.17840259767326,296.96572039858853 353.17840259767326,256.7164968035923 378.3341673445459,249.4546530294534 378.3341673445459,289.7038766244496" />
  <polygon fill="white" points="381.92784802267056,288.6664703710012 381.92784802267056,248.417246776005 407.08361276954315,241.1554030018661 407.08361276954315,281.4046265968623" />
  <polygon fill="white" points="410.67729344766786,280.36722034341386 410.67729344766786,240.11799674841765 435.83305819454046,232.85615297427876 435.83305819454046,273.105376569275" />
</svg>
