<?xml version="1.0" encoding="UTF-8"?>
<svg
  xmlns="http://www.w3.org/2000/svg"
  width="848"
  height="600"
  style="background-color:white"
>
  <polygon fill="lightblue" points="394.68069616236806,554.2730211402534 242.62564627303308,422.589485162379 453.31930383763194,361.767465206645 605.374353726967,493.4510011845193" />
  <polygon fill="steelblue" points="242.62564627303308,422.589485162379 242.62564627303303,106.54899881548064 453.31930383763194,45.72697885974665 453.31930383763194,361.767465206645" />
  <polygon fill="lightskyblue" points="605.374353726967,493.4510011845193 605.3743537269669,177.410514837621 453.31930383763194,45.72697885974665 453.31930383763194,361.767465206645" />
  <polygon fill="white" points="513.1276234607703,413.56298935794223 513.1276234607703,308.2161605756428 494.88101747405017,292.4141362582979 494.88101747405017,397.76096504059734" />
  <polygon fill="white" points="563.8126400905487,457.457501350567 563.8126400905487,352.11067256826755 545.5660341038285,336.30864825092266 545.5660341038285,441.6554770332221" />
  <polygon fill="white" points="264.5729022693455,374.11512657073695 264.57290226934543,331.9763950578172 290.9096094649203,324.3736425633504 290.9096094649203,366.5123740762702" />
  <polygon fill="white" points="299.6885118634452,363.9781232447813 299.6885118634452,321.8393917318615 326.0252190590201,314.23663923739474 326.0252190590201,356.3753707503145" />
  <polygon fill="white" points="334.8041214575451,353.8411199188256 334.8041214575451,311.7023884059058 361.1408286531199,304.09963591143907 361.1408286531199,346.23836742435884" />
  <polygon fill="white" points="369.9197310516449,343.7041165928699 369.9197310516449,301.56538507995015 396.25643824721976,293.9626325854834 396.25643824721976,336.10136409840317" />
  <polygon fill="white" points="405.03534064574467,333.5671132669143 405.03534064574467,291.4283817539945 431.37204784131956,283.8256292595277 431.37204784131956,325.9643607724475" />
  <polygon fill="grey" points="442.18810163099056,103.36947502580566 442.18810163099056,77.03276783023082 468.52480882656545,69.43001533576404 468.52480882656545,95.76672253133893" />
  <polygon fill="lightgrey" points="442.18810163099056,103.36947502580566 442.18810163099056,77.03276783023082 426.98259664205705,63.86441423244341 426.98259664205705,90.20112142801824" />
  <polygon fill="darkgrey" points="442.18810163099056,77.03276783023082 426.98259664205705,63.86441423244341 453.31930383763194,56.261661737976596 468.52480882656545,69.43001533576404" />
  <polygon fill="hsl(288.0,50.0%,51.426934746249444%)" points="451.5305228996091,474.325105418467 451.5305228996091,438.1490044146254 457.8513326265471,436.32434381595334 457.8513326265471,472.50044481979495" />
  <polygon fill="hsl(288.0,50.0%,51.426934746249444%)" points="467.332547216954,469.7634539217869 467.332547216954,433.5873529179453 461.01173749001606,435.4120135166173 461.01173749001606,471.58811452045893" />
  <polygon fill="hsl(288.0,50.0%,51.426934746249444%)" points="445.2097131726711,440.33184423115716 445.2097131726711,404.51392244517535 450.74042168374183,402.91734442133736 450.74042168374183,438.73526620731917" />
  <polygon fill="hsl(288.0,50.0%,51.426934746249444%)" points="468.1226484328213,433.7174495609711 468.1226484328213,397.8995277749893 473.653356943892,396.30294975115123 473.653356943892,432.1208715371331" />
  <polygon fill="hsl(288.0,50.0%,51.426934746249444%)" points="450.74042168374183,408.4480529324081 450.74042168374183,402.91734442133736 468.1226484328213,397.8995277749893 468.1226484328213,403.43023628606" />
  <polygon fill="hsl(288.0,50.0%,51.426934746249444%)" points="451.5305228996091,438.5071836324852 451.5305228996091,402.6892618465033 467.332547216954,398.12761034982327 467.332547216954,433.94553213580514" />
  <polygon fill="hsl(288.0,50.0%,51.426934746249444%)" points="455.48102897894535,399.75795288303425 455.48102897894535,383.6398880793424 463.3820411376178,381.3590623310024 463.3820411376178,397.47712713469423" />
  <polygon fill="hsl(288.0,50.0%,51.426934746249444%)" points="457.06123141067985,401.0926838226653 457.06123141067985,383.18372292967445 461.8018387058833,381.8152274806704 461.8018387058833,399.7241883736613" />
  <polygon fill="hsl(288.0,50.0%,43.8291623991892%)" points="411.85065296078614,512.4597379661828 411.85065296078614,476.28363696234123 418.1714626877241,474.4589763636692 418.1714626877241,510.6350773675108" />
  <polygon fill="hsl(288.0,50.0%,43.8291623991892%)" points="427.6526772781311,507.8980864695028 427.652677278131,471.7219854656612 421.3318675511931,473.54664606433323 421.3318675511931,509.72274706817484" />
  <polygon fill="hsl(288.0,50.0%,43.8291623991892%)" points="405.52984323384817,478.466476778873 405.52984323384817,442.64855499289126 411.0605517449189,441.0519769690532 411.0605517449189,476.869898755035" />
  <polygon fill="hsl(288.0,50.0%,43.8291623991892%)" points="428.4427784939983,471.852082108687 428.4427784939983,436.03416032270513 433.973487005069,434.43758229886714 433.973487005069,470.25550408484895" />
  <polygon fill="hsl(288.0,50.0%,43.8291623991892%)" points="411.0605517449189,446.5826854801239 411.0605517449189,441.0519769690532 428.4427784939983,436.03416032270513 428.4427784939983,441.5648688337759" />
  <polygon fill="hsl(288.0,50.0%,43.8291623991892%)" points="411.85065296078614,476.64181618020103 411.85065296078614,440.8238943942192 427.652677278131,436.2622428975392 427.652677278131,472.080164683521" />
  <polygon fill="hsl(288.0,50.0%,43.8291623991892%)" points="415.80115904012234,437.89258543075016 415.80115904012234,421.77452062705834 423.7021711987948,419.4936948787183 423.7021711987948,435.6117596824101" />
  <polygon fill="hsl(288.0,50.0%,43.8291623991892%)" points="417.38136147185685,439.22731637038123 417.38136147185685,421.3183554773903 422.1219687670603,419.9498600283863 422.1219687670603,437.8588209213772" />
</svg>
