<?xml version="1.0" encoding="UTF-8"?>
<svg
  xmlns="http://www.w3.org/2000/svg"
  width="848"
  height="600"
  style="background-color:white"
>
  <polygon fill="lightblue" points="390.4377753153142,530.7739411388498 216.37819405483495,380.0339219951929 457.5622246846858,310.41008949100114 631.6218059451651,461.150108634658" />
  <polygon fill="steelblue" points="216.37819405483495,380.0339219951929 216.37819405483495,138.849891365342 457.5622246846858,69.22605886115025 457.5622246846858,310.41008949100114" />
  <polygon fill="lightskyblue" points="631.6218059451651,461.150108634658 631.6218059451651,219.96607800480712 457.5622246846858,69.22605886115025 457.5622246846858,310.41008949100114" />
  <polygon fill="white" points="555.0355901905542,394.824500211449 555.0355901905542,274.23248489652354 534.1484404392967,256.1436825992847 534.1484404392967,376.73569791421016" />
  <polygon fill="white" points="261.60019979793196,318.74264727468676 261.60019979793196,270.50584114871657 291.7482036266633,261.8028620856926 291.7482036266633,310.0396682116628" />
  <polygon fill="white" points="321.8962074553947,301.3366891486388 321.8962074553947,253.09988302266865 352.04421128412605,244.3969039596447 352.0442112841261,292.6337100856149" />
  <polygon fill="white" points="382.19221511285747,283.9307310225909 382.1922151128574,235.69392489662073 412.3402189415888,226.99094583359675 412.3402189415888,275.22775195956694" />
  <polygon fill="antiquewhite" points="490.24180026913893,441.10261399374366 490.24180026913893,338.599400976057 514.360203332124,331.6370177256378 514.360203332124,434.1402307433244" />
  <polygon fill="beige" points="490.24180026913893,441.10261399374366 490.24180026913893,338.599400976057 476.3170337683006,326.54019944456445 476.31703376830063,429.0434124622511" />
  <polygon fill="bisque" points="490.24180026913893,338.599400976057 476.3170337683006,326.54019944456445 500.4354368312857,319.57781619414527 514.360203332124,331.6370177256378" />
  <polygon fill="antiquewhite" points="404.1407784450699,511.769372019358 404.1407784450699,409.2661590016713 428.25918150805495,402.30377575125215 428.259181508055,504.8069887689388" />
  <polygon fill="beige" points="404.1407784450699,511.769372019358 404.1407784450699,409.2661590016713 390.2160119442316,397.2069574701788 390.2160119442316,499.7101704878654" />
  <polygon fill="bisque" points="404.1407784450699,409.2661590016713 390.2160119442316,397.2069574701788 414.33441500721665,390.2445742197596 428.25918150805495,402.30377575125215" />
  <polygon fill="antiquewhite" points="426.72585451663133,343.13272162894174 426.7258545166313,240.6295086112551 450.8442575796164,233.6671253608359 450.84425757961645,336.17033837852256" />
  <polygon fill="beige" points="426.72585451663133,343.13272162894174 426.7258545166313,240.6295086112551 412.80108801579297,228.57030707976253 412.80108801579297,331.07352009744915" />
  <polygon fill="bisque" points="426.7258545166313,240.6295086112551 412.80108801579297,228.57030707976253 436.9194910787781,221.60792382934335 450.8442575796164,233.6671253608359" />
  <polygon fill="antiquewhite" points="411.8267272279938,380.5830903535707 411.8267272279938,278.0798773358841 435.9451302909789,271.1174940854649 435.9451302909789,373.6207071031515" />
  <polygon fill="beige" points="411.8267272279938,380.5830903535707 411.8267272279938,278.0798773358841 397.9019607271554,266.02067580439154 397.9019607271554,368.52388882207816" />
  <polygon fill="bisque" points="411.8267272279938,278.0798773358841 397.9019607271554,266.02067580439154 422.02036379014055,259.05829255397236 435.9451302909789,271.1174940854649" />
</svg>
