<?xml version="1.0" encoding="UTF-8"?>
<svg
  xmlns="http://www.w3.org/2000/svg"
  width="848"
  height="600"
  style="background-color:white"
>
  <polygon fill="lightblue" points="401.1343225023822,498.3036476560345 282.54891024606803,395.60566812381586 446.8656774976178,348.1715032212902 565.451089753932,450.8694827535088" />
  <polygon fill="steelblue" points="282.54891024606803,395.60566812381586 282.548910246068,149.13051724649117 446.8656774976178,101.69635234396549 446.8656774976178,348.1715032212902" />
  <polygon fill="lightskyblue" points="565.451089753932,450.8694827535088 565.4510897539319,204.39433187618414 446.8656774976178,101.69635234396549 446.8656774976178,348.1715032212902" />
  <polygon fill="white" points="513.2735083611537,405.6823717593326 513.2735083611537,323.52398813355774 499.04325889039603,311.2002305896915 499.04325889039603,393.3586142154664" />
  <polygon fill="white" points="305.1424657431561,356.2201169994086 305.1424657431561,323.3567635490987 325.68206164959986,317.42749293628293 325.68206164959986,350.29084638659293" />
  <polygon fill="white" points="338.0058191934661,346.7332840189035 338.0058191934661,313.86993056859353 358.5454150999098,307.94065995577785 358.5454150999098,340.8040134060878" />
  <polygon fill="white" points="370.86917264377604,337.24645103839833 370.86917264377604,304.3830975880884 391.40876855021975,298.4538269752727 391.40876855021975,331.31718042558265" />
  <polygon fill="white" points="403.732526094086,327.75961805789325 403.732526094086,294.89626460758325 424.2721220005297,288.9669939947675 424.2721220005297,321.8303474450775" />
</svg>
