<?xml version="1.0" encoding="UTF-8"?>
<svg
  xmlns="http://www.w3.org/2000/svg"
  width="848"
  height="600"
  style="background-color:white"
>
  <polygon fill="lightblue" points="392.84359053447184,542.2184772412105 231.26098878208055,402.2838393140556 455.1564094655282,337.65079861309914 616.7390112179195,477.5854365402539" />
  <polygon fill="steelblue" points="231.26098878208055,402.2838393140556 231.2609887820805,122.41456345974606 455.15640946552816,57.78152275878952 455.1564094655282,337.65079861309914" />
  <polygon fill="lightskyblue" points="616.7390112179195,477.5854365402539 616.7390112179195,197.71616068594437 455.15640946552816,57.78152275878952 455.1564094655282,337.65079861309914" />
  <polygon fill="white" points="518.7122328214688,392.69175619778 518.7122328214688,280.7440458560562 499.3223206111818,263.9518893047976 499.32232061118185,375.89959964652144" />
  <polygon fill="white" points="572.5731000722659,439.3366355068316 572.5731000722659,327.38892516510776 553.1831878619789,310.5967686138492 553.1831878619789,422.544478955573" />
  <polygon fill="white" points="262.0466091260546,348.61771208098463 262.0466091260546,303.83862794429507 290.03353671148557,295.75949785667547 290.03353671148557,340.538581993365" />
  <polygon fill="white" points="306.82569326274415,335.6911039407933 306.8256932627441,290.91201980410375 334.8126208481751,282.8328897164842 334.8126208481751,327.6119738531737" />
  <polygon fill="white" points="351.60477739943366,322.764495800602 351.60477739943366,277.98541166391243 379.59170498486463,269.9062815762929 379.59170498486463,314.6853657129824" />
  <polygon fill="white" points="396.3838615361232,309.8378876604107 396.38386153612316,265.0588035237211 424.37078912155414,256.97967343610156 424.37078912155414,301.7587575727911" />
  <polygon fill="hsl(324.0,50.0%,70.71600065166498%)" points="410.65733568243866,397.5792915378628 410.65733568243866,359.13644780651487 417.3741983029421,357.1974565854862 417.3741983029421,395.6403003168341" />
  <polygon fill="hsl(324.0,50.0%,70.71600065166498%)" points="427.44949223369724,392.73181348529107 427.44949223369724,354.2889697539431 420.7326296131938,356.22796097497184 420.7326296131938,394.67080470631976" />
  <polygon fill="hsl(324.0,50.0%,70.71600065166498%)" points="403.9404730619352,361.4560612427054 403.9404730619352,323.3938397265193 409.8177278548757,321.69722240811916 409.8177278548757,359.7594439243053" />
  <polygon fill="hsl(324.0,50.0%,70.71600065166498%)" points="428.28910006126017,354.42721806647637 428.28910006126017,316.36499655029024 434.1663548542007,314.6683792318902 434.1663548542007,352.73060074807626" />
  <polygon fill="hsl(324.0,50.0%,70.71600065166498%)" points="409.8177278548757,327.57447720105966 409.8177278548757,321.69722240811916 428.28910006126017,316.36499655029024 428.28910006126017,322.24225134323075" />
  <polygon fill="hsl(324.0,50.0%,70.71600065166498%)" points="410.65733568243866,359.5170700216767 410.65733568243866,321.4548485054906 427.44949223369724,316.6073704529189 427.44949223369724,354.669591969105" />
  <polygon fill="hsl(324.0,50.0%,70.71600065166498%)" points="414.8553748202533,318.33986791653837 414.8553748202533,301.2118682342546 423.2514530958826,298.7881292079687 423.2514530958826,315.9161288902525" />
  <polygon fill="hsl(324.0,50.0%,70.71600065166498%)" points="416.53459047537916,319.7582311870905 416.53459047537916,300.72712042899747 421.57223744075674,299.2728770132259 421.57223744075674,318.303987771319" />
  <polygon fill="hsl(324.0,50.0%,51.426934746249444%)" points="453.2555460733477,457.26113951116497 453.2555460733477,418.81829577981705 459.97240869385115,416.87930455878836 459.97240869385115,455.3221482901363" />
  <polygon fill="hsl(324.0,50.0%,51.426934746249444%)" points="470.0477026246063,452.41366145859325 470.0477026246063,413.9708177272453 463.33084000410287,415.90980894827396 463.33084000410287,454.352652679622" />
  <polygon fill="hsl(324.0,50.0%,51.426934746249444%)" points="446.5386834528443,421.1379092160076 446.5386834528443,383.0756876998215 452.4159382457848,381.37907038142134 452.4159382457848,419.44129189760747" />
  <polygon fill="hsl(324.0,50.0%,51.426934746249444%)" points="470.88731045216923,414.10906603977855 470.88731045216923,376.0468445235924 476.76456524510974,374.35022720519237 476.76456524510974,412.41244872137844" />
  <polygon fill="hsl(324.0,50.0%,51.426934746249444%)" points="452.4159382457848,387.2563251743619 452.4159382457848,381.37907038142134 470.88731045216923,376.0468445235924 470.88731045216923,381.924099316533" />
  <polygon fill="hsl(324.0,50.0%,51.426934746249444%)" points="453.2555460733477,419.1989179949789 453.2555460733477,381.13669647879277 470.0477026246063,376.28921842622105 470.0477026246063,414.3514399424071" />
  <polygon fill="hsl(324.0,50.0%,51.426934746249444%)" points="457.45358521116236,378.02171588984055 457.45358521116236,360.8937162075568 465.84966348679166,358.4699771812709 465.84966348679166,375.59797686355466" />
  <polygon fill="hsl(324.0,50.0%,51.426934746249444%)" points="459.1328008662882,379.44007916039266 459.1328008662882,360.40896840229965 464.1704478316658,358.9547249865281 464.1704478316658,377.98583574462117" />
  <polygon fill="hsl(324.0,50.0%,43.8291623991892%)" points="411.089392258806,497.7852335706254 411.089392258806,459.3423898392774 417.80625487930945,457.40339861824873 417.80625487930945,495.84624234959665" />
  <polygon fill="hsl(324.0,50.0%,43.8291623991892%)" points="427.8815488100646,492.9377555180537 427.8815488100646,454.49491178670564 421.16468618956117,456.43390300773433 421.16468618956117,494.87674673908236" />
  <polygon fill="hsl(324.0,50.0%,43.8291623991892%)" points="404.3725296383026,461.662003275468 404.3725296383026,423.5997817592819 410.2497844312431,421.90316444088177 410.2497844312431,459.96538595706784" />
  <polygon fill="hsl(324.0,50.0%,43.8291623991892%)" points="428.7211566376275,454.6331600992389 428.7211566376275,416.57093858305285 434.598411430568,414.87432126465274 434.598411430568,452.93654278083886" />
  <polygon fill="hsl(324.0,50.0%,43.8291623991892%)" points="410.2497844312431,427.7804192338223 410.2497844312431,421.90316444088177 428.7211566376275,416.57093858305285 428.7211566376275,422.44819337599336" />
  <polygon fill="hsl(324.0,50.0%,43.8291623991892%)" points="411.089392258806,459.72301205443927 411.089392258806,421.6607905382532 427.8815488100646,416.8133124856814 427.8815488100646,454.87553400186755" />
  <polygon fill="hsl(324.0,50.0%,43.8291623991892%)" points="415.28743139662066,418.5458099493009 415.28743139662066,401.4178102670172 423.6835096722499,398.99407124073133 423.68350967224995,416.1220709230151" />
  <polygon fill="hsl(324.0,50.0%,43.8291623991892%)" points="416.9666470517465,419.9641732198531 416.9666470517465,400.93306246176 422.00429401712404,399.4788190459885 422.0042940171241,418.50992980408154" />
</svg>
