<?xml version="1.0" encoding="UTF-8"?>
<svg
  xmlns="http://www.w3.org/2000/svg"
  width="848"
  height="600"
  style="background-color:white"
>
  <polygon fill="lightblue" points="375.7949192431123,631.4582562299427 125.7949192431123,414.95190528383296 472.2050807568877,314.95190528383284 722.2050807568877,531.4582562299425" />
  <polygon fill="steelblue" points="125.7949192431123,414.95190528383296 125.7949192431123,68.54174377005745 472.2050807568877,-31.458256229942606 472.2050807568877,314.95190528383284" />
  <polygon fill="lightskyblue" points="722.2050807568877,531.4582562299425 722.2050807568877,185.04809471616707 472.2050807568877,-31.458256229942606 472.2050807568877,314.95190528383284" />
  <polygon fill="white" points="612.2050807568877,436.1954618136543 612.2050807568877,262.9903810567665 582.2050807568877,237.00961894323342 582.2050807568877,410.2146997001211" />
  <polygon fill="white" points="173.4263164512564,331.9198729810778 173.4263164512564,262.63784067832273 216.72758664047834,250.1378406783227 216.72758664047834,319.4198729810778" />
  <polygon fill="white" points="242.7083487540115,311.9198729810778 242.7083487540115,242.6378406783227 286.0096189432334,230.13784067832268 286.0096189432335,299.4198729810778" />
  <polygon fill="white" points="311.99038105676664,291.9198729810778 311.99038105676664,222.63784067832268 355.29165124598853,210.13784067832268 355.29165124598853,279.4198729810778" />
  <polygon fill="white" points="381.2724133595217,271.9198729810778 381.2724133595217,202.63784067832268 424.5736835487436,190.13784067832268 424.5736835487436,259.4198729810778" />
</svg>
