<?xml version="1.0" encoding="UTF-8"?>
<svg
  xmlns="http://www.w3.org/2000/svg"
  width="848"
  height="600"
  style="background-color:white"
>
  <polygon fill="lightblue" points="395.99537875389854,492.55984595122777 250.75850327112042,366.7810222168646 452.00462124610146,308.6862720237533 597.2414967288796,434.4650957581165" />
  <polygon fill="steelblue" points="250.75850327112042,366.7810222168646 250.75850327112042,165.53490424188354 452.00462124610146,107.44015404877223 452.00462124610146,308.6862720237533" />
  <polygon fill="lightskyblue" points="597.2414967288796,434.4650957581165 597.2414967288796,233.21897778313541 452.00462124610146,107.44015404877223 452.00462124610146,308.6862720237533" />
  <polygon fill="white" points="533.3372715164572,379.12241331499666 533.3372715164572,278.4993543275061 515.9088464585238,263.4058954793826 515.9088464585238,364.0289544668731" />
  <polygon fill="white" points="271.72164056018096,320.4802621434193 271.72164056018096,280.23103854842304 296.87740530705355,272.9691947742842 296.87740530705355,313.21841836928036" />
  <polygon fill="white" points="305.26266022267777,310.7978037779007 305.26266022267777,270.5485801829045 330.4184249695504,263.2867364087656 330.4184249695504,303.53596000376183" />
  <polygon fill="white" points="338.80367988517463,301.11534541238217 338.80367988517463,260.866121817386 363.9594446320473,253.60427804324706 363.9594446320473,293.85350163824324" />
  <polygon fill="white" points="372.34469954767144,291.43288704686364 372.34469954767144,251.18366345186743 397.5004642945441,243.9218196777285 397.5004642945441,284.1710432727247" />
  <polygon fill="white" points="405.8857192101683,281.7504286813451 405.8857192101683,241.50120508634888 431.0414839570409,234.23936131220995 431.0414839570409,274.4885849072062" />
</svg>
