<?xml version="1.0" encoding="UTF-8"?>
<svg
  xmlns="http://www.w3.org/2000/svg"
  width="848"
  height="600"
  style="background-color:white"
>
  <polygon fill="lightblue" points="388.4821928194244,544.2205312871049 204.28061788740507,384.69728797887336 459.5178071805756,311.0166580060656 643.719382112595,470.53990131429714" />
  <polygon fill="steelblue" points="204.28061788740507,384.69728797887336 204.28061788740507,129.46009868570283 459.5178071805756,55.77946871289504 459.5178071805756,311.0166580060656" />
  <polygon fill="lightskyblue" points="643.719382112595,470.53990131429714 643.719382112595,215.30271202112664 459.5178071805756,55.77946871289504 459.5178071805756,311.0166580060656" />
  <polygon fill="white" points="252.13759087987455,319.8347320003378 252.13759087987455,268.7872941417037 284.04223954152087,259.5772153951027 284.04223954152087,310.6246532537368" />
  <polygon fill="white" points="315.9468882031672,301.41457450713585 315.9468882031672,250.36713664850174 347.8515368648135,241.15705790190077 347.8515368648135,292.2044957605349" />
  <polygon fill="white" points="379.75618552645983,282.9944170139339 379.75618552645983,231.9469791552998 411.6608341881061,222.73690040869883 411.6608341881061,273.78433826733294" />
  <polygon fill="grey" points="446.0333160121312,125.60837991662402 446.0333160121312,93.70373125497773 477.9379646737775,84.49365250837675 477.9379646737775,116.39830117002305" />
  <polygon fill="lightgrey" points="446.0333160121312,125.60837991662402 446.0333160121312,93.70373125497773 427.61315851892925,77.7514069241546 427.61315851892925,109.65605558580086" />
  <polygon fill="darkgrey" points="446.0333160121312,93.70373125497773 427.61315851892925,77.7514069241546 459.5178071805756,68.54132817755362 477.9379646737775,84.49365250837675" />
  <polygon fill="hsl(360.0,50.0%,70.71600065166498%)" points="408.7895766349258,379.3341789540193 408.78957663492577,335.5099535523819 416.4466923137209,333.29953465319767 416.4466923137209,377.12376005483503" />
  <polygon fill="hsl(360.0,50.0%,70.71600065166498%)" points="427.93236583191356,373.8081317060587 427.93236583191356,329.9839063044213 420.27525015311846,332.19432520360556 420.27525015311846,376.0185506052429" />
  <polygon fill="hsl(360.0,50.0%,70.71600065166498%)" points="401.13246095613067,338.1542756733645 401.13246095613067,294.76395349352555 407.8324371750764,292.8298369567393 407.8324371750764,336.2201591365783" />
  <polygon fill="hsl(360.0,50.0%,70.71600065166498%)" points="428.889505291763,330.14150716382164 428.889505291763,286.7511849839827 435.5894815107087,284.81706844719645 435.5894815107087,328.20739062703547" />
  <polygon fill="hsl(360.0,50.0%,70.71600065166498%)" points="407.8324371750764,299.52981317568504 407.8324371750764,292.8298369567393 428.889505291763,286.7511849839827 428.889505291763,293.4511612029284" />
  <polygon fill="hsl(360.0,50.0%,70.71600065166498%)" points="408.78957663492577,335.9438567741803 408.78957663492577,292.5535345943413 427.93236583191356,287.0274873463807 427.93236583191356,330.4178095262197" />
  <polygon fill="hsl(360.0,50.0%,70.71600065166498%)" points="413.57527393417274,289.0025066733592 413.57527393417274,269.47686169243167 423.14666853266664,266.71383806845137 423.14666853266664,286.2394830493789" />
  <polygon fill="hsl(360.0,50.0%,70.71600065166498%)" points="415.48955285387154,290.6194180575551 415.48955285387154,268.9242569676356 421.23238961296784,267.26644279324745 421.23238961296784,288.9616038831669" />
  <polygon fill="hsl(360.0,50.0%,64.97798353915579%)" points="343.38103353514174,422.62525493554944 343.38103353514174,378.8010295339121 351.03814921393683,376.5906106347278 351.03814921393683,420.4148360363652" />
  <polygon fill="hsl(360.0,50.0%,64.97798353915579%)" points="362.5238227321295,417.0992076875889 362.5238227321295,373.27498228595147 354.8667070533344,375.48540118513574 354.8667070533344,419.3096265867731" />
  <polygon fill="hsl(360.0,50.0%,64.97798353915579%)" points="335.7239178563466,381.4453516548947 335.7239178563466,338.0550294750557 342.4238940752923,336.1209129382695 342.4238940752923,379.5112351181085" />
  <polygon fill="hsl(360.0,50.0%,64.97798353915579%)" points="363.48096219197885,373.4325831453518 363.48096219197885,330.04226096551287 370.1809384109246,328.10814442872663 370.1809384109246,371.49846660856565" />
  <polygon fill="hsl(360.0,50.0%,64.97798353915579%)" points="342.4238940752923,342.8208891572152 342.4238940752923,336.1209129382695 363.48096219197885,330.04226096551287 363.48096219197885,336.7422371844586" />
  <polygon fill="hsl(360.0,50.0%,64.97798353915579%)" points="343.38103353514174,379.2349327557105 343.3810335351417,335.84461057587146 362.5238227321295,330.3185633279109 362.5238227321295,373.70888550774987" />
  <polygon fill="hsl(360.0,50.0%,64.97798353915579%)" points="348.16673083438866,332.29358265488935 348.16673083438866,312.76793767396185 357.73812543288255,310.00491404998155 357.73812543288255,329.5305590309091" />
  <polygon fill="hsl(360.0,50.0%,64.97798353915579%)" points="350.08100975408746,333.9104940390853 350.08100975408746,312.21533294916577 355.82384651318375,310.5575187747776 355.82384651318375,332.2526798646971" />
  <polygon fill="hsl(360.0,50.0%,54.28471806608145%)" points="366.80492130919635,461.3520113748604 366.80492130919635,417.527785973223 374.4620369879915,415.31736707403877 374.4620369879915,459.14159247567613" />
  <polygon fill="hsl(360.0,50.0%,54.28471806608145%)" points="385.94771050618414,455.82596412689986 385.94771050618414,412.00173872526244 378.29059482738904,414.21215762444666 378.29059482738904,458.0363830260841" />
  <polygon fill="hsl(360.0,50.0%,54.28471806608145%)" points="359.14780563040125,420.17210809420567 359.14780563040125,376.78178591436665 365.847781849347,374.8476693775805 365.847781849347,418.23799155741943" />
  <polygon fill="hsl(360.0,50.0%,54.28471806608145%)" points="386.9048499660335,412.1593395846628 386.9048499660335,368.7690174048238 393.60482618497923,366.8349008680376 393.60482618497923,410.2252230478766" />
  <polygon fill="hsl(360.0,50.0%,54.28471806608145%)" points="365.847781849347,381.5476455965262 365.847781849347,374.8476693775805 386.9048499660335,368.7690174048238 386.9048499660335,375.4689936237695" />
  <polygon fill="hsl(360.0,50.0%,54.28471806608145%)" points="366.80492130919635,417.96168919502145 366.80492130919635,374.57136701518243 385.94771050618414,369.0453197672218 385.94771050618414,412.43564194706084" />
  <polygon fill="hsl(360.0,50.0%,54.28471806608145%)" points="371.5906186084433,371.0203390942003 371.5906186084433,351.49469411327277 381.1620132069372,348.7316704892925 381.1620132069372,368.25731547022" />
  <polygon fill="hsl(360.0,50.0%,54.28471806608145%)" points="373.50489752814207,372.6372504783962 373.50489752814207,350.94208938847675 379.2477342872384,349.28427521408855 379.2477342872384,370.97943630400806" />
  <polygon fill="hsl(360.0,50.0%,51.426934746249444%)" points="457.3508533948777,447.370528612394 457.3508533948777,403.5463032107566 465.00796907367277,401.3358843115724 465.00796907367277,445.16010971320975" />
  <polygon fill="hsl(360.0,50.0%,51.426934746249444%)" points="476.49364259186547,441.8444813644334 476.4936425918654,398.02025596279606 468.8365269130703,400.2306748619803 468.8365269130703,444.0549002636177" />
  <polygon fill="hsl(360.0,50.0%,51.426934746249444%)" points="449.6937377160825,406.1906253317392 449.6937377160825,362.80030315190027 456.39371393502825,360.8661866151141 456.39371393502825,404.25650879495305" />
  <polygon fill="hsl(360.0,50.0%,51.426934746249444%)" points="477.45078205171484,398.1778568221964 477.45078205171484,354.7875346423574 484.15075827066056,352.8534181055712 484.15075827066056,396.2437402854102" />
  <polygon fill="hsl(360.0,50.0%,51.426934746249444%)" points="456.39371393502825,367.5661628340598 456.39371393502825,360.8661866151141 477.45078205171484,354.7875346423574 477.45078205171484,361.4875108613031" />
  <polygon fill="hsl(360.0,50.0%,51.426934746249444%)" points="457.3508533948777,403.980206432555 457.3508533948777,360.58988425271605 476.4936425918654,355.06383700475544 476.4936425918654,398.45415918459446" />
  <polygon fill="hsl(360.0,50.0%,51.426934746249444%)" points="462.1365506941246,357.03885633173394 462.1365506941246,337.5132113508064 471.7079452926185,334.7501877268261 471.7079452926185,354.27583270775364" />
  <polygon fill="hsl(360.0,50.0%,51.426934746249444%)" points="464.0508296138234,358.65576771592987 464.0508296138234,336.96060662601036 469.7936663729197,335.30279245162217 469.7936663729197,356.9979535415417" />
  <polygon fill="hsl(360.0,50.0%,43.8291623991892%)" points="409.2821142037202,493.56734601408823 409.2821142037202,449.7431206124508 416.9392298825153,447.5327017132666 416.9392298825153,491.356927114904" />
  <polygon fill="hsl(360.0,50.0%,43.8291623991892%)" points="428.424903400708,488.0412987661276 428.424903400708,444.21707336449026 420.7677877219129,446.4274922636745 420.7677877219129,490.25171766531184" />
  <polygon fill="hsl(360.0,50.0%,43.8291623991892%)" points="401.62499852492505,452.38744273343343 401.62499852492505,408.99712055359447 408.3249747438708,407.06300401680824 408.3249747438708,450.45332619664725" />
  <polygon fill="hsl(360.0,50.0%,43.8291623991892%)" points="429.38204286055736,444.37467422389057 429.38204286055736,400.9843520440516 436.0820190795031,399.0502355072654 436.0820190795031,442.4405576871044" />
  <polygon fill="hsl(360.0,50.0%,43.8291623991892%)" points="408.3249747438708,413.762980235754 408.3249747438708,407.06300401680824 429.38204286055736,400.9843520440516 429.38204286055736,407.6843282629974" />
  <polygon fill="hsl(360.0,50.0%,43.8291623991892%)" points="409.2821142037202,450.1770238342492 409.2821142037202,406.78670165441025 428.424903400708,401.26065440644965 428.424903400708,444.6509765862886" />
  <polygon fill="hsl(360.0,50.0%,43.8291623991892%)" points="414.0678115029672,403.23567373342814 414.0678115029672,383.7100287525006 423.639206101461,380.94700512852035 423.639206101461,400.47265010944784" />
  <polygon fill="hsl(360.0,50.0%,43.8291623991892%)" points="415.9820904226659,404.852585117624 415.9820904226659,383.15742402770456 421.72492718176227,381.4996098533164 421.72492718176227,403.1947709432359" />
</svg>
