<?xml version="1.0" encoding="UTF-8"?>
<svg
  xmlns="http://www.w3.org/2000/svg"
  width="848"
  height="600"
  style="background-color:white"
>
  <polygon fill="lightblue" points="375.7949192431123,718.0607966083865 125.7949192431123,501.55444566227675 472.20508075688775,401.55444566227675 722.2050807568878,618.0607966083865" />
  <polygon fill="steelblue" points="125.7949192431123,501.55444566227675 125.79491924311225,-18.060796608386454 472.2050807568877,-118.06079660838645 472.20508075688775,401.55444566227675" />
  <polygon fill="lightskyblue" points="722.2050807568878,618.0607966083865 722.2050807568877,98.44555433772325 472.2050807568877,-118.06079660838645 472.20508075688775,401.55444566227675" />
  <polygon fill="white" points="612.2050807568877,522.7980021920981 612.2050807568877,349.5929214352104 582.2050807568877,323.61215932167727 582.2050807568878,496.817240078565" />
  <polygon fill="white" points="173.42631645125647,418.5224133595217 173.4263164512564,349.2403810567666 216.72758664047834,336.7403810567666 216.72758664047834,406.0224133595217" />
  <polygon fill="white" points="242.7083487540115,398.52241335952164 242.7083487540115,329.2403810567666 286.0096189432335,316.7403810567666 286.0096189432335,386.0224133595217" />
  <polygon fill="white" points="311.99038105676664,378.5224133595217 311.99038105676664,309.2403810567665 355.29165124598853,296.7403810567665 355.29165124598853,366.0224133595217" />
  <polygon fill="white" points="381.2724133595217,358.5224133595217 381.2724133595217,289.2403810567665 424.5736835487436,276.7403810567665 424.57368354874365,346.02241335952164" />
</svg>
