<?xml version="1.0" encoding="UTF-8"?>
<svg
  xmlns="http://www.w3.org/2000/svg"
  width="848"
  height="600"
  style="background-color:white"
>
  <polygon fill="lightblue" points="398.9519052838329,494.73076211353316 269.0480947161671,382.23076211353316 449.0480947161671,330.26923788646684 578.951905283833,442.76923788646684" />
  <polygon fill="steelblue" points="269.0480947161671,382.23076211353316 269.04809471616704,157.23076211353316 449.0480947161671,105.26923788646681 449.0480947161671,330.26923788646684" />
  <polygon fill="lightskyblue" points="578.951905283833,442.76923788646684 578.951905283833,217.76923788646684 449.0480947161671,105.26923788646681 449.0480947161671,330.26923788646684" />
  <polygon fill="white" points="521.79422863406,393.26923788646684 521.7942286340599,303.26923788646684 506.20577136594005,289.76923788646684 506.2057713659401,379.76923788646684" />
  <polygon fill="white" points="283.5123804304528,342.0552824881439 283.5123804304528,306.0552824881439 306.0123804304528,299.5600919597606 306.0123804304528,335.5600919597606" />
  <polygon fill="white" points="309.22666614473854,334.632207598563 309.22666614473854,298.632207598563 331.7266661447385,292.1370170701797 331.7266661447385,328.1370170701797" />
  <polygon fill="white" points="334.9409518590242,327.2091327089821 334.9409518590242,291.2091327089821 357.44095185902427,284.7139421805988 357.44095185902427,320.7139421805988" />
  <polygon fill="white" points="360.65523757330993,319.7860578194012 360.65523757330993,283.7860578194012 383.15523757330993,277.2908672910179 383.15523757330993,313.2908672910179" />
  <polygon fill="white" points="386.36952328759565,312.3629829298203 386.36952328759565,276.36298292982025 408.86952328759565,269.867792401437 408.86952328759565,305.867792401437" />
  <polygon fill="white" points="412.0838090018814,304.9399080402394 412.0838090018814,268.93990804023935 434.5838090018814,262.4447175118561 434.5838090018814,298.4447175118561" />
</svg>
