<?xml version="1.0" encoding="UTF-8"?>
<svg
  xmlns="http://www.w3.org/2000/svg"
  width="848"
  height="600"
  style="background-color:white"
>
  <polygon fill="lightblue" points="387.059991926704,520.8174164131017 195.48263382831573,354.90655750998894 460.940008073296,278.2756142706336 652.5173661716842,444.1864731737463" />
  <polygon fill="steelblue" points="195.48263382831573,354.90655750998894 195.48263382831573,155.8135268262537 460.940008073296,79.18258358689837 460.940008073296,278.2756142706336" />
  <polygon fill="lightskyblue" points="652.5173661716842,444.1864731737463 652.5173661716842,245.09344249001106 460.940008073296,79.18258358689837 460.940008073296,278.2756142706336" />
  <polygon fill="white" points="568.2233286083934,371.1856952563767 568.2233286083934,238.45700813388655 545.2340456365869,218.54770506551304 545.2340456365869,351.2763921880032" />
  <polygon fill="white" points="267.37733935299786,281.0608688670008 267.37733935299786,227.96939401800472 300.5595111336204,218.39052611308534 300.5595111336204,271.4820009620814" />
  <polygon fill="white" points="355.8631307679913,255.517221120549 355.8631307679913,202.42574627155295 389.04530254861385,192.84687836663355 389.04530254861385,245.9383532156296" />
  <polygon fill="antiquewhite" points="496.9085351081684,422.1213502314449 496.9085351081684,309.30196617732827 523.4542725326664,301.63887185339274 523.4542725326664,414.4582559075094" />
  <polygon fill="beige" points="496.9085351081684,422.1213502314449 496.9085351081684,309.30196617732827 481.58234646029734,296.02909746507925 481.58234646029734,408.8484815191959" />
  <polygon fill="bisque" points="496.9085351081684,309.30196617732827 481.58234646029734,296.02909746507925 508.1280838847954,288.3660031411437 523.4542725326664,301.63887185339274" />
  <polygon fill="antiquewhite" points="402.14209840198026,499.9001815367179 402.14209840198026,387.08079748260127 428.68783582647825,379.41770315866574 428.68783582647825,492.2370872127824" />
  <polygon fill="beige" points="402.14209840198026,499.9001815367179 402.14209840198026,387.08079748260127 386.81590975410916,373.80792877035225 386.81590975410916,486.6273128244689" />
  <polygon fill="bisque" points="402.14209840198026,387.08079748260127 386.81590975410916,373.80792877035225 413.3616471786072,366.1448344464167 428.68783582647825,379.41770315866574" />
  <polygon fill="antiquewhite" points="427.0001911016625,314.2915311745739 427.00019110166244,201.47214712045727 453.54592852616054,193.8090527965217 453.54592852616054,306.62843685063837" />
  <polygon fill="beige" points="427.0001911016625,314.2915311745739 427.00019110166244,201.47214712045727 411.6740024537914,188.19927840820824 411.6740024537914,301.01866246232487" />
  <polygon fill="bisque" points="427.00019110166244,201.47214712045727 411.6740024537914,188.19927840820824 438.21973987828943,180.5361840842727 453.54592852616054,193.8090527965217" />
  <polygon fill="antiquewhite" points="410.60157964196185,355.5109954989084 410.60157964196185,242.6916114447918 437.14731706645995,235.02851712085624 437.14731706645995,347.8479011749729" />
  <polygon fill="beige" points="410.60157964196185,355.5109954989084 410.60157964196185,242.6916114447918 395.2753909940908,229.41874273254277 395.2753909940908,342.2381267866594" />
  <polygon fill="bisque" points="410.60157964196185,242.6916114447918 395.2753909940908,229.41874273254277 421.82112841858884,221.75564840860721 437.14731706645995,235.02851712085624" />
</svg>
