<?xml version="1.0" encoding="UTF-8"?>
<svg
  xmlns="http://www.w3.org/2000/svg"
  width="848"
  height="600"
  style="background-color:white"
>
  <polygon fill="lightblue" points="375.7949192431123,674.7595264191646 125.7949192431123,458.2531754730548 472.20508075688775,358.2531754730548 722.2050807568878,574.7595264191644" />
  <polygon fill="steelblue" points="125.7949192431123,458.2531754730548 125.79491924311225,25.240473580835555 472.2050807568877,-74.7595264191645 472.20508075688775,358.2531754730548" />
  <polygon fill="lightskyblue" points="722.2050807568878,574.7595264191644 722.2050807568877,141.7468245269452 472.2050807568877,-74.7595264191645 472.20508075688775,358.2531754730548" />
  <polygon fill="white" points="612.2050807568877,479.49673200287623 612.2050807568877,306.2916512459885 582.2050807568877,280.3108891324553 582.2050807568878,453.51596988934307" />
  <polygon fill="white" points="173.4263164512564,375.22114317029974 173.4263164512564,305.9391108675446 216.72758664047834,293.4391108675446 216.72758664047834,362.72114317029974" />
  <polygon fill="white" points="242.7083487540115,355.22114317029974 242.7083487540115,285.9391108675446 286.0096189432335,273.4391108675446 286.0096189432335,342.72114317029974" />
  <polygon fill="white" points="311.99038105676664,335.22114317029974 311.99038105676664,265.9391108675446 355.29165124598853,253.4391108675446 355.29165124598853,322.72114317029974" />
  <polygon fill="white" points="381.2724133595217,315.2211431702997 381.2724133595217,245.9391108675446 424.5736835487436,233.43911086754463 424.5736835487436,302.7211431702997" />
</svg>
