<?xml version="1.0" encoding="UTF-8"?>
<svg
  xmlns="http://www.w3.org/2000/svg"
  width="848"
  height="600"
  style="background-color:white"
>
  <polygon fill="lightblue" points="387.059991926704,520.8174164131017 195.48263382831573,354.90655750998894 460.940008073296,278.2756142706336 652.5173661716842,444.1864731737463" />
  <polygon fill="steelblue" points="195.48263382831573,354.90655750998894 195.48263382831573,155.8135268262537 460.940008073296,79.18258358689837 460.940008073296,278.2756142706336" />
  <polygon fill="lightskyblue" points="652.5173661716842,444.1864731737463 652.5173661716842,245.09344249001106 460.940008073296,79.18258358689837 460.940008073296,278.2756142706336" />
  <polygon fill="white" points="568.2233286083934,371.1856952563767 568.2233286083934,238.45700813388655 545.2340456365869,218.54770506551304 545.2340456365869,351.2763921880032" />
  <polygon fill="white" points="216.81402997300165,295.65723900783036 216.81402997300165,242.56576415883433 249.99620175362418,232.9868962539149 249.99620175362418,286.078371102911" />
  <polygon fill="white" points="254.73651200799884,284.7099614022082 254.73651200799884,231.6184865532121 287.91868378862137,222.0396186482927 287.91868378862137,275.13109349728876" />
  <polygon fill="white" points="292.658994042996,273.762683796586 292.658994042996,220.67120894758995 325.84116582361855,211.0923410426705 325.84116582361855,264.1838158916666" />
  <polygon fill="white" points="330.5814760779932,262.8154061909638 330.5814760779932,209.72393134196776 363.76364785861574,200.14506343704832 363.76364785861574,253.23653828604438" />
  <polygon fill="white" points="368.50395811299035,251.86812858534162 368.50395811299035,198.77665373634557 401.6861298936129,189.19778583142613 401.6861298936129,242.28926068042222" />
  <polygon fill="white" points="406.42644014798753,240.92085097971943 406.42644014798753,187.82937613072335 439.60861192861006,178.25050822580394 439.60861192861006,231.3419830748" />
  <polygon fill="antiquewhite" points="496.9085351081684,422.1213502314449 496.9085351081684,309.30196617732827 523.4542725326664,301.63887185339274 523.4542725326664,414.4582559075094" />
  <polygon fill="beige" points="496.9085351081684,422.1213502314449 496.9085351081684,309.30196617732827 481.58234646029734,296.02909746507925 481.58234646029734,408.8484815191959" />
  <polygon fill="bisque" points="496.9085351081684,309.30196617732827 481.58234646029734,296.02909746507925 508.1280838847954,288.3660031411437 523.4542725326664,301.63887185339274" />
</svg>
