<?xml version="1.0" encoding="UTF-8"?>
<svg
  xmlns="http://www.w3.org/2000/svg"
  width="848"
  height="600"
  style="background-color:white"
>
  <polygon fill="lightblue" points="375.7949192431123,588.1569860407207 125.7949192431123,371.65063509461095 472.2050807568877,271.65063509461095 722.2050807568877,488.15698604072065" />
  <polygon fill="steelblue" points="125.7949192431123,371.65063509461095 125.7949192431123,111.84301395927938 472.2050807568877,11.843013959279347 472.2050807568877,271.65063509461095" />
  <polygon fill="lightskyblue" points="722.2050807568877,488.15698604072065 722.2050807568877,228.34936490538902 472.2050807568877,11.843013959279347 472.2050807568877,271.65063509461095" />
  <polygon fill="white" points="612.2050807568877,392.8941916244323 612.2050807568877,219.68911086754463 582.2050807568877,193.70834875401147 582.2050807568877,366.9134295108992" />
  <polygon fill="white" points="161.87931106746385,291.9519361251892 161.87931106746385,222.66990382243412 205.1805812566858,210.1699038224341 205.1805812566858,279.4519361251892" />
  <polygon fill="white" points="219.61433798642645,275.2852694585225 219.61433798642645,206.00323715576747 262.91560817564834,193.50323715576747 262.91560817564834,262.7852694585225" />
  <polygon fill="white" points="277.34936490538905,258.61860279185584 277.34936490538905,189.33657048910078 320.65063509461095,176.83657048910075 320.65063509461095,246.11860279185586" />
  <polygon fill="white" points="335.0843918243516,241.9519361251892 335.0843918243516,172.6699038224341 378.38566201357355,160.1699038224341 378.38566201357355,229.45193612518918" />
  <polygon fill="white" points="392.81941874331415,225.28526945852252 392.81941874331415,156.00323715576744 436.1206889325361,143.50323715576744 436.1206889325361,212.78526945852252" />
</svg>
