<?xml version="1.0" encoding="UTF-8"?>
<svg
  xmlns="http://www.w3.org/2000/svg"
  width="848"
  height="600"
  style="background-color:white"
>
  <polygon fill="lightblue" points="391.6630487700196,493.3015826935528 223.9579504575354,348.06470721077466 456.3369512299804,280.9826678857809 624.0420495424646,426.2195433685591" />
  <polygon fill="steelblue" points="223.9579504575354,348.06470721077466 223.9579504575354,173.78045663144093 456.3369512299804,106.6984173064472 456.3369512299804,280.9826678857809" />
  <polygon fill="lightskyblue" points="624.0420495424646,426.2195433685591 624.0420495424646,251.93529278922534 456.3369512299804,106.6984173064472 456.3369512299804,280.9826678857809" />
  <polygon fill="white" points="550.2518062849715,362.3153181561367 550.2518062849715,246.1258177699142 530.1271944874734,228.69739271198085 530.1271944874734,344.88689309820336" />
  <polygon fill="white" points="242.63126301960688,296.19838603909864 242.63126301960688,249.72258588460966 271.67863811616246,241.33733096898544 271.67863811616246,287.8131311234745" />
  <polygon fill="white" points="275.82826312995616,286.6152375640996 275.82826312995616,240.13943740961057 304.8756382265118,231.75418249398635 304.8756382265118,278.22998264847536" />
  <polygon fill="white" points="309.02526324030543,277.03208908910045 309.02526324030543,230.55628893461147 338.072638336861,222.17103401898726 338.072638336861,268.64683417347624" />
  <polygon fill="white" points="342.2222633506547,267.4489406141014 342.2222633506547,220.97314045961235 371.26963844721035,212.58788554398814 371.26963844721035,259.0636856984771" />
  <polygon fill="white" points="375.419263461004,257.86579213910227 375.419263461004,211.38999198461326 404.4666385575596,203.00473706898904 404.4666385575596,249.48053722347805" />
  <polygon fill="white" points="408.6162635713533,248.28264366410315 408.6162635713533,201.80684350961417 437.6636386679089,193.42158859398995 437.6636386679089,239.89738874847893" />
</svg>
