<?xml version="1.0" encoding="UTF-8"?>
<svg
  xmlns="http://www.w3.org/2000/svg"
  width="848"
  height="600"
  style="background-color:white"
>
  <polygon fill="lightblue" points="390.4377753153142,530.7739411388498 216.37819405483495,380.0339219951929 457.5622246846858,310.41008949100114 631.6218059451651,461.150108634658" />
  <polygon fill="steelblue" points="216.37819405483495,380.0339219951929 216.37819405483495,138.849891365342 457.5622246846858,69.22605886115025 457.5622246846858,310.41008949100114" />
  <polygon fill="lightskyblue" points="631.6218059451651,461.150108634658 631.6218059451651,219.96607800480712 457.5622246846858,69.22605886115025 457.5622246846858,310.41008949100114" />
  <polygon fill="white" points="555.0355901905542,394.824500211449 555.0355901905542,274.23248489652354 534.1484404392967,256.1436825992847 534.1484404392967,376.73569791421016" />
  <polygon fill="white" points="235.7590536590194,326.2023436144216 235.7590536590194,277.9655374884514 265.90705748775076,269.2625584254274 265.90705748775076,317.4993645513976" />
  <polygon fill="white" points="270.21391517756956,316.2560818281085 270.21391517756956,268.0192757021383 300.3619190063009,259.31629663911434 300.3619190063009,307.55310276508453" />
  <polygon fill="white" points="304.66877669611966,306.3098200417954 304.66877669611966,258.0730139158252 334.81678052485097,249.37003485280124 334.816780524851,297.6068409787714" />
  <polygon fill="white" points="339.12363821466977,296.3635582554823 339.12363821466977,248.1267521295121 369.27164204340113,239.42377306648814 369.27164204340113,287.66057919245833" />
  <polygon fill="white" points="373.57849973321987,286.4172964691692 373.57849973321987,238.180490343199 403.72650356195123,229.47751128017507 403.72650356195123,277.7143174061452" />
  <polygon fill="white" points="408.03336125177003,276.4710346828561 408.03336125177003,228.2342285568859 438.1813650805014,219.53124949386194 438.1813650805014,267.7680556198321" />
</svg>
