<?xml version="1.0" encoding="UTF-8"?>
<svg
  xmlns="http://www.w3.org/2000/svg"
  width="848"
  height="600"
  style="background-color:white"
>
  <polygon fill="lightblue" points="388.4821928194244,544.2205312871049 204.28061788740507,384.69728797887336 459.5178071805756,311.0166580060656 643.719382112595,470.53990131429714" />
  <polygon fill="steelblue" points="204.28061788740507,384.69728797887336 204.28061788740507,129.46009868570283 459.5178071805756,55.77946871289504 459.5178071805756,311.0166580060656" />
  <polygon fill="lightskyblue" points="643.719382112595,470.53990131429714 643.719382112595,215.30271202112664 459.5178071805756,55.77946871289504 459.5178071805756,311.0166580060656" />
  <polygon fill="white" points="531.9704266538365,373.7624670406367 531.9704266538365,252.52480212638068 509.8662376619942,233.38201292939289 509.8662376619942,354.6196778436489" />
  <polygon fill="white" points="593.3709516311764,426.9368814767139 593.3709516311764,305.6992165624579 571.266762639334,286.5564273654701 571.266762639334,407.7940922797261" />
  <polygon fill="hsl(360.0,50.0%,51.426934746249444%)" points="457.3508533948777,447.370528612394 457.3508533948777,403.5463032107566 465.00796907367277,401.3358843115724 465.00796907367277,445.16010971320975" />
  <polygon fill="hsl(360.0,50.0%,51.426934746249444%)" points="476.49364259186547,441.8444813644334 476.4936425918654,398.02025596279606 468.8365269130703,400.2306748619803 468.8365269130703,444.0549002636177" />
  <polygon fill="hsl(360.0,50.0%,51.426934746249444%)" points="449.6937377160825,406.1906253317392 449.6937377160825,362.80030315190027 456.39371393502825,360.8661866151141 456.39371393502825,404.25650879495305" />
  <polygon fill="hsl(360.0,50.0%,51.426934746249444%)" points="477.45078205171484,398.1778568221964 477.45078205171484,354.7875346423574 484.15075827066056,352.8534181055712 484.15075827066056,396.2437402854102" />
  <polygon fill="hsl(360.0,50.0%,51.426934746249444%)" points="456.39371393502825,367.5661628340598 456.39371393502825,360.8661866151141 477.45078205171484,354.7875346423574 477.45078205171484,361.4875108613031" />
  <polygon fill="hsl(360.0,50.0%,51.426934746249444%)" points="457.3508533948777,403.980206432555 457.3508533948777,360.58988425271605 476.4936425918654,355.06383700475544 476.4936425918654,398.45415918459446" />
  <polygon fill="hsl(360.0,50.0%,51.426934746249444%)" points="462.1365506941246,357.03885633173394 462.1365506941246,337.5132113508064 471.7079452926185,334.7501877268261 471.7079452926185,354.27583270775364" />
  <polygon fill="hsl(360.0,50.0%,51.426934746249444%)" points="464.0508296138234,358.65576771592987 464.0508296138234,336.96060662601036 469.7936663729197,335.30279245162217 469.7936663729197,356.9979535415417" />
</svg>
