<?xml version="1.0" encoding="UTF-8"?>
<svg
  xmlns="http://www.w3.org/2000/svg"
  width="848"
  height="600"
  style="background-color:white"
>
  <polygon fill="lightblue" points="398.9519052838329,494.73076211353316 269.0480947161671,382.23076211353316 449.0480947161671,330.26923788646684 578.951905283833,442.76923788646684" />
  <polygon fill="steelblue" points="269.0480947161671,382.23076211353316 269.04809471616704,157.23076211353316 449.0480947161671,105.26923788646681 449.0480947161671,330.26923788646684" />
  <polygon fill="lightskyblue" points="578.951905283833,442.76923788646684 578.951905283833,217.76923788646684 449.0480947161671,105.26923788646681 449.0480947161671,330.26923788646684" />
  <polygon fill="white" points="521.79422863406,393.26923788646684 521.7942286340599,303.26923788646684 506.20577136594005,289.76923788646684 506.2057713659401,379.76923788646684" />
  <polygon fill="white" points="287.79809471616704,340.8181033398804 287.79809471616704,304.8181033398804 310.29809471616704,298.32291281149713 310.29809471616704,334.32291281149713" />
  <polygon fill="white" points="317.79809471616704,332.157849302036 317.79809471616704,296.157849302036 340.2980947161671,289.6626587736527 340.2980947161671,325.66265877365277" />
  <polygon fill="white" points="347.7980947161671,323.49759526419166 347.7980947161671,287.49759526419166 370.2980947161671,281.00240473580834 370.2980947161671,317.00240473580834" />
  <polygon fill="white" points="377.7980947161671,314.83734122634723 377.7980947161671,278.83734122634723 400.2980947161671,272.342150697964 400.2980947161671,308.342150697964" />
  <polygon fill="white" points="407.7980947161671,306.17708718850287 407.7980947161671,270.17708718850287 430.2980947161671,263.68189666011955 430.2980947161671,299.68189666011955" />
</svg>
