<?xml version="1.0" encoding="UTF-8"?>
<svg
  xmlns="http://www.w3.org/2000/svg"
  width="848"
  height="600"
  style="background-color:white"
>
  <polygon fill="lightblue" points="379.2503670870855,527.303911308516 147.1709254064466,326.31721911697355 468.7496329129145,233.48544244471793 700.8290745935534,434.4721346362604" />
  <polygon fill="steelblue" points="147.1709254064466,326.31721911697355 147.1709254064466,165.5278653637396 468.7496329129145,72.696088691484 468.7496329129145,233.48544244471793" />
  <polygon fill="lightskyblue" points="700.8290745935534,434.4721346362604 700.8290745935534,273.68278088302645 468.7496329129145,72.696088691484 468.7496329129145,233.48544244471793" />
  <polygon fill="white" points="598.7141202540722,346.0379900719817 598.7141202540722,185.24863631874774 570.8645872523956,161.13023325576268 570.8645872523956,321.91958700899664" />
  <polygon fill="white" points="191.38799768858593,249.23710832324483 191.38799768858593,184.92136682195127 231.5853361268944,173.3173947379193 231.5853361268944,237.63313623921286" />
  <polygon fill="white" points="255.70373918987949,230.6707529887937 255.70373918987949,166.35501148750012 295.901077628188,154.75103940346818 295.901077628188,219.06678090476174" />
  <polygon fill="white" points="320.0194806911731,212.10439765434256 320.0194806911731,147.78865615304898 360.21681912948156,136.18468406901704 360.21681912948156,200.50042557031063" />
  <polygon fill="white" points="384.33522219246663,193.53804231989147 384.33522219246663,129.22230081859786 424.53256063077515,117.61832873456589 424.53256063077515,181.93407023585948" />
  <polygon fill="grey" points="451.7602386426699,160.67500380830208 451.7602386426699,120.47766536999356 491.95757708097835,108.87369328596162 491.95757708097835,149.0710317242701" />
  <polygon fill="lightgrey" points="451.7602386426699,160.67500380830208 451.7602386426699,120.47766536999356 428.55229447460596,100.37899615083936 428.55229447460596,140.57633458914782" />
  <polygon fill="darkgrey" points="451.7602386426699,120.47766536999356 428.55229447460596,100.37899615083936 468.7496329129145,88.77502406680739 491.95757708097835,108.87369328596162" />
  <polygon fill="hsl(324.0,50.0%,51.426934746249444%)" points="466.01944222416427,405.280554256273 466.01944222416427,350.0654901774124 475.6668034493583,347.28053687724474 475.6668034493583,402.4956009561053" />
  <polygon fill="hsl(324.0,50.0%,51.426934746249444%)" points="490.13784528714933,398.3181710058538 490.13784528714933,343.10310692699323 480.49048406195527,345.8880602271609 480.49048406195527,401.10312430602147" />
  <polygon fill="hsl(324.0,50.0%,51.426934746249444%)" points="456.3720809989702,353.39712728034107 456.3720809989702,298.72874700424154 464.813522071015,296.2919128665948 464.813522071015,350.96029314269435" />
  <polygon fill="hsl(324.0,50.0%,51.426934746249444%)" points="491.3437654402986,343.30167156723326 491.3437654402986,288.63329129113373 499.7852065123434,286.196457153487 499.7852065123434,340.8648374295866" />
  <polygon fill="hsl(324.0,50.0%,51.426934746249444%)" points="464.813522071015,304.7333539386396 464.813522071015,296.2919128665948 491.3437654402986,288.63329129113373 491.3437654402986,297.0747323631785" />
  <polygon fill="hsl(324.0,50.0%,51.426934746249444%)" points="466.01944222416427,350.6121739801734 466.01944222416427,295.94379370407387 490.13784528714933,288.9814104536547 490.13784528714933,343.6497907297542" />
  <polygon fill="hsl(324.0,50.0%,51.426934746249444%)" points="472.0490429899105,291.4697788776641 472.0490429899105,266.86900775341934 484.1082445214031,263.38781612820975 484.1082445214031,287.9885872524545" />
  <polygon fill="hsl(324.0,50.0%,51.426934746249444%)" points="474.46088329620903,293.50695956642716 474.46088329620903,266.1727694283774 481.69640421510456,264.08405445325167 481.69640421510456,291.4182445913014" />
</svg>
