<?xml version="1.0" encoding="UTF-8"?>
<svg
  xmlns="http://www.w3.org/2000/svg"
  width="848"
  height="600"
  style="background-color:white"
>
  <polygon fill="lightblue" points="375.7949192431123,588.1569860407207 125.7949192431123,371.65063509461095 472.2050807568877,271.65063509461095 722.2050807568877,488.15698604072065" />
  <polygon fill="steelblue" points="125.7949192431123,371.65063509461095 125.7949192431123,111.84301395927938 472.2050807568877,11.843013959279347 472.2050807568877,271.65063509461095" />
  <polygon fill="lightskyblue" points="722.2050807568877,488.15698604072065 722.2050807568877,228.34936490538902 472.2050807568877,11.843013959279347 472.2050807568877,271.65063509461095" />
  <polygon fill="white" points="612.2050807568877,392.8941916244323 612.2050807568877,219.68911086754463 582.2050807568877,193.70834875401147 582.2050807568877,366.9134295108992" />
  <polygon fill="white" points="173.4263164512564,288.6186027918559 173.4263164512564,219.33657048910078 216.72758664047834,206.83657048910078 216.72758664047834,276.1186027918559" />
  <polygon fill="white" points="242.7083487540115,268.6186027918559 242.7083487540115,199.33657048910078 286.0096189432334,186.83657048910078 286.0096189432334,256.11860279185584" />
  <polygon fill="white" points="311.99038105676664,248.61860279185584 311.9903810567666,179.33657048910075 355.29165124598853,166.83657048910075 355.29165124598853,236.11860279185584" />
  <polygon fill="white" points="381.2724133595217,228.61860279185584 381.2724133595217,159.33657048910075 424.5736835487436,146.83657048910075 424.5736835487436,216.11860279185584" />
</svg>
