<?xml version="1.0" encoding="UTF-8"?>
<svg
  xmlns="http://www.w3.org/2000/svg"
  width="848"
  height="600"
  style="background-color:white"
>
  <polygon fill="lightblue" points="390.4377753153142,530.7739411388498 216.37819405483495,380.0339219951929 457.5622246846858,310.41008949100114 631.6218059451651,461.150108634658" />
  <polygon fill="steelblue" points="216.37819405483495,380.0339219951929 216.37819405483495,138.849891365342 457.5622246846858,69.22605886115025 457.5622246846858,310.41008949100114" />
  <polygon fill="lightskyblue" points="631.6218059451651,461.150108634658 631.6218059451651,219.96607800480712 457.5622246846858,69.22605886115025 457.5622246846858,310.41008949100114" />
  <polygon fill="white" points="526.0256599804743,369.7011636875062 526.0256599804743,249.10914837258076 505.1385102292169,231.02034607534193 505.1385102292169,351.6123613902674" />
  <polygon fill="white" points="584.0455204006341,419.94783673539183 584.0455204006341,299.3558214204664 563.1583706493766,281.26701912322756 563.1583706493766,401.859034438153" />
  <polygon fill="white" points="281.6988690170862,312.9406612326708 281.6988690170862,264.7038551067006 311.8468728458176,256.0008760436766 311.8468728458176,304.2376821696468" />
  <polygon fill="white" points="362.0935458937032,289.7327170646069 362.0935458937032,241.4959109386367 392.24154972243457,232.79293187561274 392.24154972243457,281.0297380015829" />
  <polygon fill="grey" points="444.8201789820024,135.21024519876383 444.8201789820024,105.06224137003247 474.96818281073377,96.35926230700852 474.96818281073377,126.50726613573988" />
  <polygon fill="lightgrey" points="444.8201789820024,135.21024519876383 444.8201789820024,105.06224137003247 427.4142208559545,89.98823945566681 427.4142208559545,120.13624328439815" />
  <polygon fill="darkgrey" points="444.8201789820024,105.06224137003247 427.4142208559545,89.98823945566681 457.5622246846858,81.28526039264287 474.96818281073377,96.35926230700852" />
  <polygon fill="hsl(288.0,50.0%,51.426934746249444%)" points="455.5145816681232,439.25642334966744 455.5145816681232,397.845125290522 462.7501025870187,395.75641031539624 462.7501025870187,437.1677083745417" />
  <polygon fill="hsl(288.0,50.0%,51.426934746249444%)" points="473.603383965362,434.034635911853 473.603383965362,392.62333785270766 466.3678630464665,394.7120528278334 466.3678630464665,436.12335088697876" />
  <polygon fill="hsl(288.0,50.0%,51.426934746249444%)" points="448.27906074922765,400.3438531177185 448.27906074922765,359.3425679106439 454.61014155326126,357.51494230740883 454.61014155326126,398.5162275144835" />
  <polygon fill="hsl(288.0,50.0%,51.426934746249444%)" points="474.50782408022394,392.77226133288764 474.50782408022394,351.77097612581304 480.83890488425754,349.943350522578 480.83890488425754,390.94463572965265" />
  <polygon fill="hsl(288.0,50.0%,51.426934746249444%)" points="454.61014155326126,363.84602311144243 454.61014155326126,357.51494230740883 474.50782408022394,351.77097612581304 474.50782408022394,358.1020569298466" />
  <polygon fill="hsl(288.0,50.0%,51.426934746249444%)" points="455.5145816681232,398.2551381425927 455.5145816681232,357.2538529355181 473.603383965362,352.03206549770374 473.603383965362,393.0333507047784" />
  <polygon fill="hsl(288.0,50.0%,51.426934746249444%)" points="460.0367822424329,353.8983418157108 460.0367822424329,335.4477634725272 469.0811833910523,332.83686975362 469.0811833910523,351.2874480968036" />
  <polygon fill="hsl(288.0,50.0%,51.426934746249444%)" points="461.8456624721568,355.4262273322831 461.8456624721568,334.9255847287458 467.2723031613284,333.35904849740143 467.2723031613284,353.8596911009388" />
</svg>
