<?xml version="1.0" encoding="UTF-8"?>
<svg
  xmlns="http://www.w3.org/2000/svg"
  width="848"
  height="600"
  style="background-color:white"
>
  <polygon fill="lightblue" points="375.7949192431123,674.7595264191646 125.7949192431123,458.2531754730548 472.20508075688775,358.2531754730548 722.2050807568878,574.7595264191644" />
  <polygon fill="steelblue" points="125.7949192431123,458.2531754730548 125.79491924311225,25.240473580835555 472.2050807568877,-74.7595264191645 472.20508075688775,358.2531754730548" />
  <polygon fill="lightskyblue" points="722.2050807568878,574.7595264191644 722.2050807568877,141.7468245269452 472.2050807568877,-74.7595264191645 472.20508075688775,358.2531754730548" />
  <polygon fill="white" points="612.2050807568877,479.49673200287623 612.2050807568877,306.2916512459885 582.2050807568877,280.3108891324553 582.2050807568878,453.51596988934307" />
  <polygon fill="white" points="161.87931106746385,378.55447650363305 161.87931106746385,309.272444200878 205.1805812566858,296.77244420087794 205.1805812566858,366.05447650363305" />
  <polygon fill="white" points="219.61433798642645,361.8878098369664 219.61433798642645,292.6057775342113 262.91560817564834,280.1057775342113 262.9156081756484,349.3878098369664" />
  <polygon fill="white" points="277.34936490538905,345.22114317029974 277.34936490538905,275.9391108675446 320.65063509461095,263.4391108675446 320.65063509461095,332.72114317029974" />
  <polygon fill="white" points="335.0843918243516,328.55447650363305 335.0843918243516,259.27244420087794 378.38566201357355,246.77244420087794 378.38566201357355,316.05447650363305" />
  <polygon fill="white" points="392.81941874331415,311.88780983696637 392.81941874331415,242.60577753421128 436.1206889325361,230.10577753421128 436.1206889325361,299.38780983696637" />
</svg>
