<?xml version="1.0" encoding="UTF-8"?>
<svg
  xmlns="http://www.w3.org/2000/svg"
  width="848"
  height="600"
  style="background-color:white"
>
  <polygon fill="lightblue" points="391.6630487700196,493.3015826935528 223.9579504575354,348.06470721077466 456.3369512299804,280.9826678857809 624.0420495424646,426.2195433685591" />
  <polygon fill="steelblue" points="223.9579504575354,348.06470721077466 223.9579504575354,173.78045663144093 456.3369512299804,106.6984173064472 456.3369512299804,280.9826678857809" />
  <polygon fill="lightskyblue" points="624.0420495424646,426.2195433685591 624.0420495424646,251.93529278922534 456.3369512299804,106.6984173064472 456.3369512299804,280.9826678857809" />
  <polygon fill="white" points="550.2518062849715,362.3153181561367 550.2518062849715,246.1258177699142 530.1271944874734,228.69739271198085 530.1271944874734,344.88689309820336" />
  <polygon fill="white" points="255.91006306374658,292.365126649099 255.91006306374658,245.88932649461003 284.9574381603022,237.50407157898582 284.9574381603022,283.9798717334748" />
  <polygon fill="white" points="302.38586321823556,278.94871878410027 302.38586321823556,232.47291862961129 331.4332383147912,224.08766371398707 331.4332383147912,270.56346386847605" />
  <polygon fill="white" points="348.8616633727246,265.5323109191015 348.8616633727246,219.05651076461254 377.90903846928023,210.67125584898832 377.90903846928023,257.1470560034773" />
  <polygon fill="white" points="395.3374635272136,252.11590305410277 395.3374635272136,205.6401028996138 424.3848386237692,197.25484798398958 424.3848386237692,243.73064813847859" />
</svg>
