<?xml version="1.0" encoding="UTF-8"?>
<svg
  xmlns="http://www.w3.org/2000/svg"
  width="848"
  height="600"
  style="background-color:white"
>
  <polygon fill="lightblue" points="379.2503670870855,527.303911308516 147.1709254064466,326.31721911697355 468.7496329129145,233.48544244471793 700.8290745935534,434.4721346362604" />
  <polygon fill="steelblue" points="147.1709254064466,326.31721911697355 147.1709254064466,165.5278653637396 468.7496329129145,72.696088691484 468.7496329129145,233.48544244471793" />
  <polygon fill="lightskyblue" points="700.8290745935534,434.4721346362604 700.8290745935534,273.68278088302645 468.7496329129145,72.696088691484 468.7496329129145,233.48544244471793" />
  <polygon fill="white" points="598.7141202540722,346.0379900719817 598.7141202540722,193.28810400640947 570.8645872523956,169.16970094342437 570.8645872523956,321.91958700899664" />
  <polygon fill="white" points="191.38799768858593,249.23710832324483 191.38799768858593,184.92136682195127 231.5853361268944,173.3173947379193 231.5853361268944,237.63313623921286" />
  <polygon fill="white" points="255.70373918987949,230.6707529887937 255.70373918987949,166.35501148750012 295.901077628188,154.75103940346818 295.901077628188,219.06678090476174" />
  <polygon fill="white" points="320.0194806911731,212.10439765434256 320.0194806911731,147.78865615304898 360.21681912948156,136.18468406901704 360.21681912948156,200.50042557031063" />
  <polygon fill="white" points="384.33522219246663,193.53804231989147 384.33522219246663,129.22230081859786 424.53256063077515,117.61832873456589 424.53256063077515,181.93407023585948" />
  <polygon fill="grey" points="451.7602386426699,160.67500380830208 451.7602386426699,120.47766536999356 491.95757708097835,108.87369328596162 491.95757708097835,149.0710317242701" />
  <polygon fill="lightgrey" points="451.7602386426699,160.67500380830208 451.7602386426699,120.47766536999356 428.55229447460596,100.37899615083936 428.55229447460596,140.57633458914782" />
  <polygon fill="darkgrey" points="451.7602386426699,120.47766536999356 428.55229447460596,100.37899615083936 468.7496329129145,88.77502406680739 491.95757708097835,108.87369328596162" />
  <polygon fill="hsl(324.0,50.0%,70.71600065166498%)" points="404.8360674245302,319.5601251636787 404.8360674245302,264.3450610848182 414.48342864972426,261.56010778465054 414.48342864972426,316.7751718635111" />
  <polygon fill="hsl(324.0,50.0%,70.71600065166498%)" points="428.95447048751527,312.5977419132596 428.95447048751527,257.38267783439903 419.3071092623212,260.1676311345667 419.3071092623212,315.38269521342727" />
  <polygon fill="hsl(324.0,50.0%,70.71600065166498%)" points="395.18870619933614,267.67669818774687 395.18870619933614,213.00831791164734 403.6301472713809,210.57148377400063 403.6301472713809,265.23986405010015" />
  <polygon fill="hsl(324.0,50.0%,70.71600065166498%)" points="430.1603906406645,257.58124247463905 430.1603906406645,202.91286219853953 438.6018317127093,200.47602806089282 438.6018317127093,255.14440833699234" />
  <polygon fill="hsl(324.0,50.0%,70.71600065166498%)" points="403.6301472713809,219.0129248460454 403.6301472713809,210.57148377400063 430.1603906406645,202.91286219853953 430.1603906406645,211.3543032705843" />
  <polygon fill="hsl(324.0,50.0%,70.71600065166498%)" points="404.8360674245302,264.8917448875792 404.8360674245302,210.22336461147967 428.95447048751527,203.2609813610605 428.95447048751527,257.92936163716" />
  <polygon fill="hsl(324.0,50.0%,70.71600065166498%)" points="410.86566819027644,205.7493497850699 410.86566819027644,181.1485786608251 422.924869721769,177.6673870356155 422.924869721769,202.26815815986032" />
  <polygon fill="hsl(324.0,50.0%,70.71600065166498%)" points="413.27750849657497,207.78653047383295 413.27750849657497,180.45234033578322 420.5130294154705,178.36362536065744 420.5130294154705,205.6978154987072" />
  <polygon fill="hsl(324.0,50.0%,51.426934746249444%)" points="466.01944222416427,405.280554256273 466.01944222416427,350.0654901774124 475.6668034493583,347.28053687724474 475.6668034493583,402.4956009561053" />
  <polygon fill="hsl(324.0,50.0%,51.426934746249444%)" points="490.13784528714933,398.3181710058538 490.13784528714933,343.10310692699323 480.49048406195527,345.8880602271609 480.49048406195527,401.10312430602147" />
  <polygon fill="hsl(324.0,50.0%,51.426934746249444%)" points="456.3720809989702,353.39712728034107 456.3720809989702,298.72874700424154 464.813522071015,296.2919128665948 464.813522071015,350.96029314269435" />
  <polygon fill="hsl(324.0,50.0%,51.426934746249444%)" points="491.3437654402986,343.30167156723326 491.3437654402986,288.63329129113373 499.7852065123434,286.196457153487 499.7852065123434,340.8648374295866" />
  <polygon fill="hsl(324.0,50.0%,51.426934746249444%)" points="464.813522071015,304.7333539386396 464.813522071015,296.2919128665948 491.3437654402986,288.63329129113373 491.3437654402986,297.0747323631785" />
  <polygon fill="hsl(324.0,50.0%,51.426934746249444%)" points="466.01944222416427,350.6121739801734 466.01944222416427,295.94379370407387 490.13784528714933,288.9814104536547 490.13784528714933,343.6497907297542" />
  <polygon fill="hsl(324.0,50.0%,51.426934746249444%)" points="472.0490429899105,291.4697788776641 472.0490429899105,266.86900775341934 484.1082445214031,263.38781612820975 484.1082445214031,287.9885872524545" />
  <polygon fill="hsl(324.0,50.0%,51.426934746249444%)" points="474.46088329620903,293.50695956642716 474.46088329620903,266.1727694283774 481.69640421510456,264.08405445325167 481.69640421510456,291.4182445913014" />
  <polygon fill="hsl(324.0,50.0%,43.8291623991892%)" points="405.4566258753183,463.4848969388172 405.4566258753183,408.2698328599567 415.1039871005123,405.484879559789 415.10398710051237,460.6999436386496" />
  <polygon fill="hsl(324.0,50.0%,43.8291623991892%)" points="429.5750289383034,456.52251368839813 429.5750289383034,401.3074496095375 419.9276677131094,404.0924029097052 419.9276677131094,459.30746698856575" />
  <polygon fill="hsl(324.0,50.0%,43.8291623991892%)" points="395.80926465012425,411.6014699628854 395.80926465012425,356.9330896867858 404.2507057221691,354.4962555491391 404.2507057221691,409.16463582523863" />
  <polygon fill="hsl(324.0,50.0%,43.8291623991892%)" points="430.7809490914526,401.50601424977754 430.7809490914526,346.837633973678 439.22239016349744,344.4007998360313 439.22239016349744,399.0691801121309" />
  <polygon fill="hsl(324.0,50.0%,43.8291623991892%)" points="404.2507057221691,362.9376966211839 404.2507057221691,354.4962555491391 430.7809490914526,346.837633973678 430.7809490914526,355.27907504572283" />
  <polygon fill="hsl(324.0,50.0%,43.8291623991892%)" points="405.4566258753183,408.81651666271773 405.4566258753183,354.14813638661815 429.5750289383034,347.18575313619897 429.5750289383034,401.85413341229855" />
  <polygon fill="hsl(324.0,50.0%,43.8291623991892%)" points="411.4862266410646,349.6741215602084 411.4862266410646,325.0733504359636 423.54542817255714,321.59215881075403 423.54542817255714,346.1929299349988" />
  <polygon fill="hsl(324.0,50.0%,43.8291623991892%)" points="413.8980669473631,351.71130224897144 413.8980669473631,324.3771121109217 421.1335878662586,322.28839713579595 421.1335878662586,349.6225872738457" />
</svg>
