<?xml version="1.0" encoding="UTF-8"?>
<svg
  xmlns="http://www.w3.org/2000/svg"
  width="848"
  height="600"
  style="background-color:white"
>
  <polygon fill="lightblue" points="401.1343225023822,498.3036476560345 282.54891024606803,395.60566812381586 446.8656774976178,348.1715032212902 565.451089753932,450.8694827535088" />
  <polygon fill="steelblue" points="282.54891024606803,395.60566812381586 282.548910246068,149.13051724649117 446.8656774976178,101.69635234396549 446.8656774976178,348.1715032212902" />
  <polygon fill="lightskyblue" points="565.451089753932,450.8694827535088 565.4510897539319,204.39433187618414 446.8656774976178,101.69635234396549 446.8656774976178,348.1715032212902" />
  <polygon fill="white" points="513.2735083611537,405.6823717593326 513.2735083611537,323.52398813355774 499.04325889039603,311.2002305896915 499.04325889039603,393.3586142154664" />
  <polygon fill="white" points="295.7529361859247,358.93064070812443 295.7529361859247,326.0672872578144 316.2925320923684,320.1380166449987 316.2925320923684,353.0013700953087" />
  <polygon fill="white" points="319.22676007900327,352.15433143633504 319.22676007900327,319.29097798602504 339.7663559854469,313.36170737320936 339.7663559854469,346.2250608235193" />
  <polygon fill="white" points="342.70058397208174,345.3780221645456 342.70058397208174,312.51466871423565 363.2401798785255,306.5853981014199 363.2401798785255,339.4487515517299" />
  <polygon fill="white" points="366.17440786516033,338.60171289275627 366.17440786516033,305.73835944244627 386.71400377160404,299.8090888296306 386.71400377160404,332.6724422799405" />
  <polygon fill="white" points="389.64823175823886,331.8254036209669 389.64823175823886,298.9620501706569 410.1878276646826,293.0327795578412 410.1878276646826,325.89613300815114" />
  <polygon fill="white" points="413.1220556513174,325.0490943491775 413.1220556513174,292.1857408988675 433.6616515577611,286.2564702860518 433.6616515577611,319.11982373636175" />
</svg>
