<?xml version="1.0" encoding="UTF-8"?>
<svg
  xmlns="http://www.w3.org/2000/svg"
  width="848"
  height="600"
  style="background-color:white"
>
  <polygon fill="lightblue" points="394.68069616236806,554.2730211402534 242.62564627303308,422.589485162379 453.31930383763194,361.767465206645 605.374353726967,493.4510011845193" />
  <polygon fill="steelblue" points="242.62564627303308,422.589485162379 242.62564627303303,106.54899881548064 453.31930383763194,45.72697885974665 453.31930383763194,361.767465206645" />
  <polygon fill="lightskyblue" points="605.374353726967,493.4510011845193 605.3743537269669,177.410514837621 453.31930383763194,45.72697885974665 453.31930383763194,361.767465206645" />
  <polygon fill="white" points="538.4701317756595,435.5102453542546 538.4701317756595,330.16341657195517 520.2235257889394,314.3613922546102 520.2235257889394,419.7082210369097" />
  <polygon fill="white" points="259.5563866130455,375.56326990301636 259.55638661304545,333.42453839009653 285.89309380862034,325.8217858956298 285.89309380862034,367.9605174085496" />
  <polygon fill="white" points="289.6554805508453,366.87440990934005 289.6554805508453,324.73567839642027 315.9921877464202,317.1329259019535 315.9921877464202,359.2716574148733" />
  <polygon fill="white" points="319.7545744886452,358.1855499156637 319.7545744886452,316.04681840274395 346.09128168422,308.4440659082772 346.09128168422,350.58279742119703" />
  <polygon fill="white" points="349.853668426445,349.49668992198747 349.853668426445,307.3579584090677 376.1903756220198,299.75520591460094 376.19037562201987,341.8939374275207" />
  <polygon fill="white" points="379.9527623642448,340.8078299283112 379.9527623642448,298.6690984153914 406.2894695598197,291.0663459209246 406.2894695598197,333.20507743384445" />
  <polygon fill="white" points="410.05185630204465,332.1189699346349 410.05185630204465,289.9802384217151 436.38856349761954,282.37748592724836 436.38856349761954,324.51621744016813" />
</svg>
