<?xml version="1.0" encoding="UTF-8"?>
<svg
  xmlns="http://www.w3.org/2000/svg"
  width="848"
  height="600"
  style="background-color:white"
>
  <polygon fill="lightblue" points="375.7949192431123,718.0607966083865 125.7949192431123,501.55444566227675 472.20508075688775,401.55444566227675 722.2050807568878,618.0607966083865" />
  <polygon fill="steelblue" points="125.7949192431123,501.55444566227675 125.79491924311225,-18.060796608386454 472.2050807568877,-118.06079660838645 472.20508075688775,401.55444566227675" />
  <polygon fill="lightskyblue" points="722.2050807568878,618.0607966083865 722.2050807568877,98.44555433772325 472.2050807568877,-118.06079660838645 472.20508075688775,401.55444566227675" />
  <polygon fill="white" points="612.2050807568877,522.7980021920981 612.2050807568877,349.5929214352104 582.2050807568877,323.61215932167727 582.2050807568878,496.817240078565" />
  <polygon fill="white" points="153.6314500790407,424.2366990738074 153.6314500790407,354.9546667710523 196.93272026826259,342.4546667710523 196.93272026826259,411.7366990738074" />
  <polygon fill="white" points="203.11861600958002,409.95098478809314 203.11861600958002,340.66895248533797 246.41988619880195,328.16895248533797 246.41988619880195,397.4509847880931" />
  <polygon fill="white" points="252.60578194011936,395.6652705023788 252.60578194011936,326.3832381996237 295.9070521293413,313.8832381996237 295.9070521293413,383.1652705023788" />
  <polygon fill="white" points="302.0929478706587,381.3795562166645 302.0929478706587,312.0975239139094 345.39421805988064,299.5975239139094 345.39421805988064,368.8795562166645" />
  <polygon fill="white" points="351.580113801198,367.09384193095025 351.580113801198,297.81180962819514 394.88138399042,285.31180962819514 394.88138399042,354.59384193095025" />
  <polygon fill="white" points="401.0672797317374,352.80812764523597 401.0672797317374,283.52609534248086 444.3685499209593,271.02609534248086 444.3685499209593,340.30812764523597" />
</svg>
