<?xml version="1.0" encoding="UTF-8"?>
<svg
  xmlns="http://www.w3.org/2000/svg"
  width="848"
  height="600"
  style="background-color:white"
>
  <polygon fill="lightblue" points="394.68069616236806,554.2730211402534 242.62564627303308,422.589485162379 453.31930383763194,361.767465206645 605.374353726967,493.4510011845193" />
  <polygon fill="steelblue" points="242.62564627303308,422.589485162379 242.62564627303303,106.54899881548064 453.31930383763194,45.72697885974665 453.31930383763194,361.767465206645" />
  <polygon fill="lightskyblue" points="605.374353726967,493.4510011845193 605.3743537269669,177.410514837621 453.31930383763194,45.72697885974665 453.31930383763194,361.767465206645" />
  <polygon fill="white" points="538.4701317756595,435.5102453542546 538.4701317756595,330.16341657195517 520.2235257889394,314.3613922546102 520.2235257889394,419.7082210369097" />
  <polygon fill="white" points="264.5729022693455,374.11512657073695 264.57290226934543,331.9763950578172 290.9096094649203,324.3736425633504 290.9096094649203,366.5123740762702" />
  <polygon fill="white" points="299.6885118634452,363.9781232447813 299.6885118634452,321.8393917318615 326.0252190590201,314.23663923739474 326.0252190590201,356.3753707503145" />
  <polygon fill="white" points="334.8041214575451,353.8411199188256 334.8041214575451,311.7023884059058 361.1408286531199,304.09963591143907 361.1408286531199,346.23836742435884" />
  <polygon fill="white" points="369.9197310516449,343.7041165928699 369.9197310516449,301.56538507995015 396.25643824721976,293.9626325854834 396.25643824721976,336.10136409840317" />
  <polygon fill="white" points="405.03534064574467,333.5671132669143 405.03534064574467,291.4283817539945 431.37204784131956,283.8256292595277 431.37204784131956,325.9643607724475" />
</svg>
