<?xml version="1.0" encoding="UTF-8"?>
<svg
  xmlns="http://www.w3.org/2000/svg"
  width="848"
  height="600"
  style="background-color:white"
>
  <polygon fill="lightblue" points="387.059991926704,520.8174164131017 195.48263382831573,354.90655750998894 460.940008073296,278.2756142706336 652.5173661716842,444.1864731737463" />
  <polygon fill="steelblue" points="195.48263382831573,354.90655750998894 195.48263382831573,155.8135268262537 460.940008073296,79.18258358689837 460.940008073296,278.2756142706336" />
  <polygon fill="lightskyblue" points="652.5173661716842,444.1864731737463 652.5173661716842,245.09344249001106 460.940008073296,79.18258358689837 460.940008073296,278.2756142706336" />
  <polygon fill="white" points="568.2233286083934,371.1856952563767 568.2233286083934,238.45700813388655 545.2340456365869,218.54770506551304 545.2340456365869,351.2763921880032" />
  <polygon fill="white" points="223.13444364550116,293.83269274022666 223.13444364550116,240.74121789123063 256.3166154261237,231.1623499863112 256.3166154261237,284.2538248353073" />
  <polygon fill="white" points="267.37733935299786,281.0608688670008 267.37733935299786,227.96939401800472 300.5595111336204,218.39052611308534 300.5595111336204,271.4820009620814" />
  <polygon fill="white" points="311.6202350604946,268.2890449937749 311.6202350604946,215.19757014477887 344.80240684111715,205.61870223985943 344.80240684111715,258.7101770888555" />
  <polygon fill="white" points="355.8631307679913,255.517221120549 355.8631307679913,202.42574627155295 389.04530254861385,192.84687836663355 389.04530254861385,245.9383532156296" />
  <polygon fill="white" points="400.106026475488,242.74539724732313 400.106026475488,189.65392239832707 433.28819825611055,180.07505449340766 433.28819825611055,233.16652934240372" />
  <polygon fill="antiquewhite" points="496.9085351081684,422.1213502314449 496.9085351081684,309.30196617732827 523.4542725326664,301.63887185339274 523.4542725326664,414.4582559075094" />
  <polygon fill="beige" points="496.9085351081684,422.1213502314449 496.9085351081684,309.30196617732827 481.58234646029734,296.02909746507925 481.58234646029734,408.8484815191959" />
  <polygon fill="bisque" points="496.9085351081684,309.30196617732827 481.58234646029734,296.02909746507925 508.1280838847954,288.3660031411437 523.4542725326664,301.63887185339274" />
  <polygon fill="antiquewhite" points="402.14209840198026,499.9001815367179 402.14209840198026,387.08079748260127 428.68783582647825,379.41770315866574 428.68783582647825,492.2370872127824" />
  <polygon fill="beige" points="402.14209840198026,499.9001815367179 402.14209840198026,387.08079748260127 386.81590975410916,373.80792877035225 386.81590975410916,486.6273128244689" />
  <polygon fill="bisque" points="402.14209840198026,387.08079748260127 386.81590975410916,373.80792877035225 413.3616471786072,366.1448344464167 428.68783582647825,379.41770315866574" />
</svg>
