<?xml version="1.0" encoding="UTF-8"?>
<svg
  xmlns="http://www.w3.org/2000/svg"
  width="848"
  height="600"
  style="background-color:white"
>
  <polygon fill="lightblue" points="392.84359053447184,542.2184772412105 231.26098878208055,402.2838393140556 455.1564094655282,337.65079861309914 616.7390112179195,477.5854365402539" />
  <polygon fill="steelblue" points="231.26098878208055,402.2838393140556 231.2609887820805,122.41456345974606 455.15640946552816,57.78152275878952 455.1564094655282,337.65079861309914" />
  <polygon fill="lightskyblue" points="616.7390112179195,477.5854365402539 616.7390112179195,197.71616068594437 455.15640946552816,57.78152275878952 455.1564094655282,337.65079861309914" />
  <polygon fill="white" points="273.241380160227,345.38606004593674 273.241380160227,300.60697590924724 301.2283077456579,292.5278458216277 301.2283077456579,337.3069299583172" />
  <polygon fill="white" points="329.2152353310889,329.22779987069765 329.2152353310889,284.4487157340081 357.20216291651985,276.36958564638854 357.20216291651985,321.14866978307805" />
  <polygon fill="white" points="385.18909050195083,313.0695396954585 385.1890905019508,268.29045555876894 413.17601808738175,260.2113254711494 413.17601808738175,304.99040960783896" />
  <polygon fill="hsl(360.0,50.0%,51.426934746249444%)" points="453.2555460733477,457.26113951116497 453.2555460733477,418.81829577981705 459.97240869385115,416.87930455878836 459.97240869385115,455.3221482901363" />
  <polygon fill="hsl(360.0,50.0%,51.426934746249444%)" points="470.0477026246063,452.41366145859325 470.0477026246063,413.9708177272453 463.33084000410287,415.90980894827396 463.33084000410287,454.352652679622" />
  <polygon fill="hsl(360.0,50.0%,51.426934746249444%)" points="446.5386834528443,421.1379092160076 446.5386834528443,383.0756876998215 452.4159382457848,381.37907038142134 452.4159382457848,419.44129189760747" />
  <polygon fill="hsl(360.0,50.0%,51.426934746249444%)" points="470.88731045216923,414.10906603977855 470.88731045216923,376.0468445235924 476.76456524510974,374.35022720519237 476.76456524510974,412.41244872137844" />
  <polygon fill="hsl(360.0,50.0%,51.426934746249444%)" points="452.4159382457848,387.2563251743619 452.4159382457848,381.37907038142134 470.88731045216923,376.0468445235924 470.88731045216923,381.924099316533" />
  <polygon fill="hsl(360.0,50.0%,51.426934746249444%)" points="453.2555460733477,419.1989179949789 453.2555460733477,381.13669647879277 470.0477026246063,376.28921842622105 470.0477026246063,414.3514399424071" />
  <polygon fill="hsl(360.0,50.0%,51.426934746249444%)" points="457.45358521116236,378.02171588984055 457.45358521116236,360.8937162075568 465.84966348679166,358.4699771812709 465.84966348679166,375.59797686355466" />
  <polygon fill="hsl(360.0,50.0%,51.426934746249444%)" points="459.1328008662882,379.44007916039266 459.1328008662882,360.40896840229965 464.1704478316658,358.9547249865281 464.1704478316658,377.98583574462117" />
  <polygon fill="hsl(360.0,50.0%,43.8291623991892%)" points="411.089392258806,497.7852335706254 411.089392258806,459.3423898392774 417.80625487930945,457.40339861824873 417.80625487930945,495.84624234959665" />
  <polygon fill="hsl(360.0,50.0%,43.8291623991892%)" points="427.8815488100646,492.9377555180537 427.8815488100646,454.49491178670564 421.16468618956117,456.43390300773433 421.16468618956117,494.87674673908236" />
  <polygon fill="hsl(360.0,50.0%,43.8291623991892%)" points="404.3725296383026,461.662003275468 404.3725296383026,423.5997817592819 410.2497844312431,421.90316444088177 410.2497844312431,459.96538595706784" />
  <polygon fill="hsl(360.0,50.0%,43.8291623991892%)" points="428.7211566376275,454.6331600992389 428.7211566376275,416.57093858305285 434.598411430568,414.87432126465274 434.598411430568,452.93654278083886" />
  <polygon fill="hsl(360.0,50.0%,43.8291623991892%)" points="410.2497844312431,427.7804192338223 410.2497844312431,421.90316444088177 428.7211566376275,416.57093858305285 428.7211566376275,422.44819337599336" />
  <polygon fill="hsl(360.0,50.0%,43.8291623991892%)" points="411.089392258806,459.72301205443927 411.089392258806,421.6607905382532 427.8815488100646,416.8133124856814 427.8815488100646,454.87553400186755" />
  <polygon fill="hsl(360.0,50.0%,43.8291623991892%)" points="415.28743139662066,418.5458099493009 415.28743139662066,401.4178102670172 423.6835096722499,398.99407124073133 423.68350967224995,416.1220709230151" />
  <polygon fill="hsl(360.0,50.0%,43.8291623991892%)" points="416.9666470517465,419.9641732198531 416.9666470517465,400.93306246176 422.00429401712404,399.4788190459885 422.0042940171241,418.50992980408154" />
</svg>
