<?xml version="1.0" encoding="UTF-8"?>
<svg
  xmlns="http://www.w3.org/2000/svg"
  width="848"
  height="600"
  style="background-color:white"
>
  <polygon fill="lightblue" points="387.059991926704,520.8174164131017 195.48263382831573,354.90655750998894 460.940008073296,278.2756142706336 652.5173661716842,444.1864731737463" />
  <polygon fill="steelblue" points="195.48263382831573,354.90655750998894 195.48263382831573,155.8135268262537 460.940008073296,79.18258358689837 460.940008073296,278.2756142706336" />
  <polygon fill="lightskyblue" points="652.5173661716842,444.1864731737463 652.5173661716842,245.09344249001106 460.940008073296,79.18258358689837 460.940008073296,278.2756142706336" />
  <polygon fill="white" points="568.2233286083934,371.1856952563767 568.2233286083934,238.45700813388655 545.2340456365869,218.54770506551304 545.2340456365869,351.2763921880032" />
  <polygon fill="white" points="267.37733935299786,281.0608688670008 267.37733935299786,227.96939401800472 300.5595111336204,218.39052611308534 300.5595111336204,271.4820009620814" />
  <polygon fill="white" points="355.8631307679913,255.517221120549 355.8631307679913,202.42574627155295 389.04530254861385,192.84687836663355 389.04530254861385,245.9383532156296" />
  <polygon fill="hsl(324.0,50.0%,51.426934746249444%)" points="458.68628531583033,420.0893545000017 458.68628531583033,374.5103233421386 466.65000654317976,372.21139504495795 466.65000654317976,417.7904262028211" />
  <polygon fill="hsl(324.0,50.0%,51.426934746249444%)" points="478.59558838420384,414.3420337570501 478.59558838420384,368.76300259918696 470.63186715685447,371.0619308963676 470.63186715685447,416.6409620542307" />
  <polygon fill="hsl(324.0,50.0%,51.426934746249444%)" points="450.7225640884809,377.26052917553574 450.7225640884809,332.1327755538891 457.6908201624117,330.121213293856 457.6908201624117,375.24896691550265" />
  <polygon fill="hsl(324.0,50.0%,51.426934746249444%)" points="479.59105353762254,368.92691409825585 479.59105353762254,323.7991604766092 486.55930961155326,321.7875982165761 486.55930961155326,366.91535183822276" />
  <polygon fill="hsl(324.0,50.0%,51.426934746249444%)" points="457.6908201624117,337.08946936778676 457.6908201624117,330.121213293856 479.59105353762254,323.7991604766092 479.59105353762254,330.7674165505399" />
  <polygon fill="hsl(324.0,50.0%,51.426934746249444%)" points="458.68628531583033,374.96160087835506 458.68628531583033,329.8338472567084 478.59558838420384,324.0865265137568 478.59558838420384,369.21428013540344" />
  <polygon fill="hsl(324.0,50.0%,51.426934746249444%)" points="463.6636110829237,326.1406293898882 463.6636110829237,305.8331402601472 473.6182626171105,302.95947988867135 473.6182626171105,323.26696901841234" />
  <polygon fill="hsl(324.0,50.0%,51.426934746249444%)" points="465.65454138976105,327.82228499667536 465.65454138976105,305.25840818585203 471.6273323102731,303.53421196296654 471.6273323102731,326.09808877378987" />
  <polygon fill="hsl(324.0,50.0%,43.8291623991892%)" points="408.6927819228165,468.13598077687516 408.6927819228165,422.556949619012 416.6565031501659,420.25802132183134 416.6565031501659,465.8370524796944" />
  <polygon fill="hsl(324.0,50.0%,43.8291623991892%)" points="428.60208499119,462.38866003392343 428.60208499119,416.80962887606034 420.63836376384063,419.108557173241 420.63836376384063,464.6875883311041" />
  <polygon fill="hsl(324.0,50.0%,43.8291623991892%)" points="400.72906069546707,425.3071554524091 400.72906069546707,380.17940183076246 407.6973167693978,378.16783957072937 407.6973167693978,423.29559319237603" />
  <polygon fill="hsl(324.0,50.0%,43.8291623991892%)" points="429.5975501446087,416.97354037512923 429.5975501446087,371.84578675348257 436.5658062185394,369.8342244934495 436.5658062185394,414.96197811509614" />
  <polygon fill="hsl(324.0,50.0%,43.8291623991892%)" points="407.6973167693978,385.13609564466014 407.6973167693978,378.16783957072937 429.5975501446087,371.84578675348257 429.5975501446087,378.81404282741335" />
  <polygon fill="hsl(324.0,50.0%,43.8291623991892%)" points="408.6927819228165,423.0082271552285 408.6927819228165,377.88047353358183 428.60208499119,372.13315279063016 428.60208499119,417.2609064122768" />
  <polygon fill="hsl(324.0,50.0%,43.8291623991892%)" points="413.67010768990986,374.18725566676153 413.67010768990986,353.8797665370206 423.62475922409664,351.00610616554474 423.62475922409664,371.3135952952857" />
  <polygon fill="hsl(324.0,50.0%,43.8291623991892%)" points="415.6610379967472,375.86891127354875 415.6610379967472,353.3050344627254 421.6338289172593,351.5808382398399 421.6338289172593,374.14471505066325" />
</svg>
