<?xml version="1.0" encoding="UTF-8"?>
<svg
  xmlns="http://www.w3.org/2000/svg"
  width="848"
  height="600"
  style="background-color:white"
>
  <polygon fill="lightblue" points="394.68069616236806,554.2730211402534 242.62564627303308,422.589485162379 453.31930383763194,361.767465206645 605.374353726967,493.4510011845193" />
  <polygon fill="steelblue" points="242.62564627303308,422.589485162379 242.62564627303303,106.54899881548064 453.31930383763194,45.72697885974665 453.31930383763194,361.767465206645" />
  <polygon fill="lightskyblue" points="605.374353726967,493.4510011845193 605.3743537269669,177.410514837621 453.31930383763194,45.72697885974665 453.31930383763194,361.767465206645" />
  <polygon fill="white" points="538.4701317756595,435.5102453542546 538.4701317756595,330.16341657195517 520.2235257889394,314.3613922546102 520.2235257889394,419.7082210369097" />
  <polygon fill="white" points="334.8041214575451,353.8411199188256 334.8041214575451,311.7023884059058 361.1408286531199,304.09963591143907 361.1408286531199,346.23836742435884" />
  <polygon fill="hsl(288.0,50.0%,70.71600065166498%)" points="411.4440721559095,418.1623362053894 411.4440721559095,381.98623520154786 417.7648818828475,380.1615746028758 417.7648818828475,416.3376756067174" />
  <polygon fill="hsl(288.0,50.0%,70.71600065166498%)" points="427.2460964732544,413.60068470870937 427.2460964732544,377.42458370486776 420.92528674631643,379.2492443035398 420.92528674631643,415.4253453073814" />
  <polygon fill="hsl(288.0,50.0%,70.71600065166498%)" points="405.12326242897154,384.16907501807964 405.12326242897154,348.35115323209783 410.65397094004226,346.7545752082598 410.65397094004226,382.5724969942416" />
  <polygon fill="hsl(288.0,50.0%,70.71600065166498%)" points="428.03619768912165,377.55468034789357 428.03619768912165,341.73675856191176 433.56690620019236,340.1401805380737 433.56690620019236,375.9581023240555" />
  <polygon fill="hsl(288.0,50.0%,70.71600065166498%)" points="410.65397094004226,352.2852837193305 410.65397094004226,346.7545752082598 428.03619768912165,341.73675856191176 428.03619768912165,347.26746707298247" />
  <polygon fill="hsl(288.0,50.0%,70.71600065166498%)" points="411.4440721559095,382.3444144194076 411.4440721559095,346.5264926334258 427.2460964732544,341.96484113674575 427.2460964732544,377.78276292272756" />
  <polygon fill="hsl(288.0,50.0%,70.71600065166498%)" points="415.3945782352457,343.59518366995667 415.3945782352457,327.4771188662649 423.2955903939182,325.1962931179248 423.2955903939182,341.31435792161665" />
  <polygon fill="hsl(288.0,50.0%,70.71600065166498%)" points="416.9747806669802,344.9299146095878 416.9747806669802,327.02095371659686 421.7153879621837,325.65245826759286 421.7153879621837,343.56141916058374" />
  <polygon fill="hsl(288.0,50.0%,64.97798353915579%)" points="357.45050946299057,453.89833205973497 357.45050946299057,417.72223105589336 363.77131918992853,415.8975704572214 363.77131918992853,452.073671461063" />
  <polygon fill="hsl(288.0,50.0%,64.97798353915579%)" points="373.2525337803355,449.33668056305487 373.2525337803355,413.1605795592133 366.93172405339755,414.9852401578853 366.93172405339755,451.1613411617269" />
  <polygon fill="hsl(288.0,50.0%,64.97798353915579%)" points="351.12969973605266,419.9050708724252 351.12969973605266,384.08714908644333 356.6604082471233,382.49057106260534 356.6604082471233,418.30849284858715" />
  <polygon fill="hsl(288.0,50.0%,64.97798353915579%)" points="374.0426349962027,413.2906762022391 374.0426349962027,377.4727544162573 379.5733435072734,375.87617639241927 379.5733435072734,411.6940981784011" />
  <polygon fill="hsl(288.0,50.0%,64.97798353915579%)" points="356.6604082471233,388.02127957367605 356.6604082471233,382.49057106260534 374.0426349962027,377.4727544162573 374.0426349962027,383.00346292732803" />
  <polygon fill="hsl(288.0,50.0%,64.97798353915579%)" points="357.45050946299057,418.08041027375316 357.45050946299057,382.26248848777135 373.2525337803355,377.7008369910913 373.2525337803355,413.5187587770731" />
  <polygon fill="hsl(288.0,50.0%,64.97798353915579%)" points="361.40101554232683,379.33117952430223 361.40101554232683,363.2131147206104 369.30202770099925,360.9322889722704 369.30202770099925,377.0503537759622" />
  <polygon fill="hsl(288.0,50.0%,64.97798353915579%)" points="362.9812179740613,380.6659104639333 362.9812179740613,362.7569495709424 367.7218252692648,361.3884541219384 367.7218252692648,379.2974150149293" />
  <polygon fill="hsl(288.0,50.0%,54.28471806608145%)" points="376.7865027920408,485.8665651468016 376.7865027920408,449.69046414295997 383.10731251897874,447.8658035442879 383.10731251897874,484.04190454812954" />
  <polygon fill="hsl(288.0,50.0%,54.28471806608145%)" points="392.58852710938567,481.30491365012153 392.58852710938567,445.12881264627987 386.2677173824477,446.9534732449519 386.2677173824477,483.1295742487936" />
  <polygon fill="hsl(288.0,50.0%,54.28471806608145%)" points="370.4656930651028,451.87330395949175 370.4656930651028,416.05538217350994 375.9964015761735,414.4588041496719 375.9964015761735,450.27672593565376" />
  <polygon fill="hsl(288.0,50.0%,54.28471806608145%)" points="393.3786283252529,445.25890928930573 393.3786283252529,409.44098750332387 398.90933683632363,407.8444094794859 398.90933683632363,443.6623312654677" />
  <polygon fill="hsl(288.0,50.0%,54.28471806608145%)" points="375.9964015761735,419.98951266074266 375.9964015761735,414.4588041496719 393.3786283252529,409.44098750332387 393.3786283252529,414.9716960143946" />
  <polygon fill="hsl(288.0,50.0%,54.28471806608145%)" points="376.7865027920408,450.0486433608197 376.7865027920408,414.2307215748379 392.58852710938567,409.66907007815786 392.58852710938567,445.48699186413967" />
  <polygon fill="hsl(288.0,50.0%,54.28471806608145%)" points="380.737008871377,411.29941261136884 380.737008871377,395.181347807677 388.63802103004946,392.900522059337 388.63802103004946,409.01858686302876" />
  <polygon fill="hsl(288.0,50.0%,54.28471806608145%)" points="382.3172113031115,412.6341435509999 382.3172113031115,394.725182658009 387.05781859831495,393.356687209005 387.05781859831495,411.2656481019959" />
  <polygon fill="hsl(288.0,50.0%,51.426934746249444%)" points="451.5305228996091,474.325105418467 451.5305228996091,438.1490044146254 457.8513326265471,436.32434381595334 457.8513326265471,472.50044481979495" />
  <polygon fill="hsl(288.0,50.0%,51.426934746249444%)" points="467.332547216954,469.7634539217869 467.332547216954,433.5873529179453 461.01173749001606,435.4120135166173 461.01173749001606,471.58811452045893" />
  <polygon fill="hsl(288.0,50.0%,51.426934746249444%)" points="445.2097131726711,440.33184423115716 445.2097131726711,404.51392244517535 450.74042168374183,402.91734442133736 450.74042168374183,438.73526620731917" />
  <polygon fill="hsl(288.0,50.0%,51.426934746249444%)" points="468.1226484328213,433.7174495609711 468.1226484328213,397.8995277749893 473.653356943892,396.30294975115123 473.653356943892,432.1208715371331" />
  <polygon fill="hsl(288.0,50.0%,51.426934746249444%)" points="450.74042168374183,408.4480529324081 450.74042168374183,402.91734442133736 468.1226484328213,397.8995277749893 468.1226484328213,403.43023628606" />
  <polygon fill="hsl(288.0,50.0%,51.426934746249444%)" points="451.5305228996091,438.5071836324852 451.5305228996091,402.6892618465033 467.332547216954,398.12761034982327 467.332547216954,433.94553213580514" />
  <polygon fill="hsl(288.0,50.0%,51.426934746249444%)" points="455.48102897894535,399.75795288303425 455.48102897894535,383.6398880793424 463.3820411376178,381.3590623310024 463.3820411376178,397.47712713469423" />
  <polygon fill="hsl(288.0,50.0%,51.426934746249444%)" points="457.06123141067985,401.0926838226653 457.06123141067985,383.18372292967445 461.8018387058833,381.8152274806704 461.8018387058833,399.7241883736613" />
  <polygon fill="hsl(288.0,50.0%,43.8291623991892%)" points="411.85065296078614,512.4597379661828 411.85065296078614,476.28363696234123 418.1714626877241,474.4589763636692 418.1714626877241,510.6350773675108" />
  <polygon fill="hsl(288.0,50.0%,43.8291623991892%)" points="427.6526772781311,507.8980864695028 427.652677278131,471.7219854656612 421.3318675511931,473.54664606433323 421.3318675511931,509.72274706817484" />
  <polygon fill="hsl(288.0,50.0%,43.8291623991892%)" points="405.52984323384817,478.466476778873 405.52984323384817,442.64855499289126 411.0605517449189,441.0519769690532 411.0605517449189,476.869898755035" />
  <polygon fill="hsl(288.0,50.0%,43.8291623991892%)" points="428.4427784939983,471.852082108687 428.4427784939983,436.03416032270513 433.973487005069,434.43758229886714 433.973487005069,470.25550408484895" />
  <polygon fill="hsl(288.0,50.0%,43.8291623991892%)" points="411.0605517449189,446.5826854801239 411.0605517449189,441.0519769690532 428.4427784939983,436.03416032270513 428.4427784939983,441.5648688337759" />
  <polygon fill="hsl(288.0,50.0%,43.8291623991892%)" points="411.85065296078614,476.64181618020103 411.85065296078614,440.8238943942192 427.652677278131,436.2622428975392 427.652677278131,472.080164683521" />
  <polygon fill="hsl(288.0,50.0%,43.8291623991892%)" points="415.80115904012234,437.89258543075016 415.80115904012234,421.77452062705834 423.7021711987948,419.4936948787183 423.7021711987948,435.6117596824101" />
  <polygon fill="hsl(288.0,50.0%,43.8291623991892%)" points="417.38136147185685,439.22731637038123 417.38136147185685,421.3183554773903 422.1219687670603,419.9498600283863 422.1219687670603,437.8588209213772" />
</svg>
