<?xml version="1.0" encoding="UTF-8"?>
<svg
  xmlns="http://www.w3.org/2000/svg"
  width="848"
  height="600"
  style="background-color:white"
>
  <polygon fill="lightblue" points="395.99537875389854,492.55984595122777 250.75850327112042,366.7810222168646 452.00462124610146,308.6862720237533 597.2414967288796,434.4650957581165" />
  <polygon fill="steelblue" points="250.75850327112042,366.7810222168646 250.75850327112042,165.53490424188354 452.00462124610146,107.44015404877223 452.00462124610146,308.6862720237533" />
  <polygon fill="lightskyblue" points="597.2414967288796,434.4650957581165 597.2414967288796,233.21897778313541 452.00462124610146,107.44015404877223 452.00462124610146,308.6862720237533" />
  <polygon fill="white" points="533.3372715164572,379.12241331499666 533.3372715164572,278.4993543275061 515.9088464585238,263.4058954793826 515.9088464585238,364.0289544668731" />
  <polygon fill="white" points="278.42984449268033,318.54377047031556 278.42984449268033,278.2945468753193 303.5856092395529,271.03270310118046 303.5856092395529,311.28192669617664" />
  <polygon fill="white" points="318.6790680876765,306.9248204316933 318.6790680876765,266.6755968366971 343.83483283454916,259.41375306255816 343.83483283454916,299.6629766575544" />
  <polygon fill="white" points="358.92829168267275,295.3058703930711 358.92829168267275,255.05664679807484 384.0840564295454,247.7948030239359 384.0840564295454,288.04402661893215" />
  <polygon fill="white" points="399.17751527766893,283.6869203544488 399.17751527766893,243.4376967594526 424.3332800245416,236.17585298531367 424.3332800245416,276.4250765803099" />
</svg>
