<?xml version="1.0" encoding="UTF-8"?>
<svg
  xmlns="http://www.w3.org/2000/svg"
  width="848"
  height="600"
  style="background-color:white"
>
  <polygon fill="lightblue" points="391.6630487700196,493.3015826935528 223.9579504575354,348.06470721077466 456.3369512299804,280.9826678857809 624.0420495424646,426.2195433685591" />
  <polygon fill="steelblue" points="223.9579504575354,348.06470721077466 223.9579504575354,173.78045663144093 456.3369512299804,106.6984173064472 456.3369512299804,280.9826678857809" />
  <polygon fill="lightskyblue" points="624.0420495424646,426.2195433685591 624.0420495424646,251.93529278922534 456.3369512299804,106.6984173064472 456.3369512299804,280.9826678857809" />
  <polygon fill="white" points="550.2518062849715,362.3153181561367 550.2518062849715,246.1258177699142 530.1271944874734,228.69739271198085 530.1271944874734,344.88689309820336" />
  <polygon fill="white" points="248.16409637133174,294.60119462659884 248.16409637133174,248.1253944721098 277.21147146788735,239.7401395564856 277.21147146788735,286.2159397109746" />
  <polygon fill="white" points="286.8939298334059,283.42085473909987 286.8939298334059,236.94505458461086 315.9413049299615,228.55979966898667 315.9413049299615,275.03559982347565" />
  <polygon fill="white" points="325.6237632954801,272.2405148516009 325.6237632954801,225.7647146971119 354.6711383920357,217.3794597814877 354.6711383920357,263.8552599359767" />
  <polygon fill="white" points="364.3535967575542,261.060174964102 364.3535967575542,214.58437480961294 393.40097185410986,206.19911989398875 393.40097185410986,252.67492004847776" />
  <polygon fill="white" points="403.0834302196284,249.879835076603 403.0834302196284,203.40403492211402 432.130805316184,195.0187800064898 432.130805316184,241.49458016097878" />
</svg>
