<?xml version="1.0" encoding="UTF-8"?>
<svg
  xmlns="http://www.w3.org/2000/svg"
  width="848"
  height="600"
  style="background-color:white"
>
  <polygon fill="lightblue" points="394.68069616236806,554.2730211402534 242.62564627303308,422.589485162379 453.31930383763194,361.767465206645 605.374353726967,493.4510011845193" />
  <polygon fill="steelblue" points="242.62564627303308,422.589485162379 242.62564627303303,106.54899881548064 453.31930383763194,45.72697885974665 453.31930383763194,361.767465206645" />
  <polygon fill="lightskyblue" points="605.374353726967,493.4510011845193 605.3743537269669,177.410514837621 453.31930383763194,45.72697885974665 453.31930383763194,361.767465206645" />
  <polygon fill="white" points="271.5960241881654,372.0877259055458 271.5960241881654,329.948994392626 297.93273138374025,322.3462418981593 297.93273138374025,364.48497341107907" />
  <polygon fill="white" points="313.7347557010852,359.923321914399 313.7347557010852,317.78459040147925 340.07146289666,310.1818379070125 340.07146289666,352.32056941993227" />
  <polygon fill="white" points="355.87348721400497,347.7589179232522 355.87348721400497,305.6201864103324 382.21019440957986,298.01743391586564 382.21019440957986,340.15616542878547" />
  <polygon fill="white" points="398.01221872692474,335.59451393210543 398.01221872692474,293.4557824191856 424.3489259224996,285.85302992471884 424.34892592249963,327.9917614376386" />
  <polygon fill="hsl(288.0,50.0%,51.426934746249444%)" points="451.5305228996091,474.325105418467 451.5305228996091,438.1490044146254 457.8513326265471,436.32434381595334 457.8513326265471,472.50044481979495" />
  <polygon fill="hsl(288.0,50.0%,51.426934746249444%)" points="467.332547216954,469.7634539217869 467.332547216954,433.5873529179453 461.01173749001606,435.4120135166173 461.01173749001606,471.58811452045893" />
  <polygon fill="hsl(288.0,50.0%,51.426934746249444%)" points="445.2097131726711,440.33184423115716 445.2097131726711,404.51392244517535 450.74042168374183,402.91734442133736 450.74042168374183,438.73526620731917" />
  <polygon fill="hsl(288.0,50.0%,51.426934746249444%)" points="468.1226484328213,433.7174495609711 468.1226484328213,397.8995277749893 473.653356943892,396.30294975115123 473.653356943892,432.1208715371331" />
  <polygon fill="hsl(288.0,50.0%,51.426934746249444%)" points="450.74042168374183,408.4480529324081 450.74042168374183,402.91734442133736 468.1226484328213,397.8995277749893 468.1226484328213,403.43023628606" />
  <polygon fill="hsl(288.0,50.0%,51.426934746249444%)" points="451.5305228996091,438.5071836324852 451.5305228996091,402.6892618465033 467.332547216954,398.12761034982327 467.332547216954,433.94553213580514" />
  <polygon fill="hsl(288.0,50.0%,51.426934746249444%)" points="455.48102897894535,399.75795288303425 455.48102897894535,383.6398880793424 463.3820411376178,381.3590623310024 463.3820411376178,397.47712713469423" />
  <polygon fill="hsl(288.0,50.0%,51.426934746249444%)" points="457.06123141067985,401.0926838226653 457.06123141067985,383.18372292967445 461.8018387058833,381.8152274806704 461.8018387058833,399.7241883736613" />
  <polygon fill="hsl(288.0,50.0%,43.8291623991892%)" points="411.85065296078614,512.4597379661828 411.85065296078614,476.28363696234123 418.1714626877241,474.4589763636692 418.1714626877241,510.6350773675108" />
  <polygon fill="hsl(288.0,50.0%,43.8291623991892%)" points="427.6526772781311,507.8980864695028 427.652677278131,471.7219854656612 421.3318675511931,473.54664606433323 421.3318675511931,509.72274706817484" />
  <polygon fill="hsl(288.0,50.0%,43.8291623991892%)" points="405.52984323384817,478.466476778873 405.52984323384817,442.64855499289126 411.0605517449189,441.0519769690532 411.0605517449189,476.869898755035" />
  <polygon fill="hsl(288.0,50.0%,43.8291623991892%)" points="428.4427784939983,471.852082108687 428.4427784939983,436.03416032270513 433.973487005069,434.43758229886714 433.973487005069,470.25550408484895" />
  <polygon fill="hsl(288.0,50.0%,43.8291623991892%)" points="411.0605517449189,446.5826854801239 411.0605517449189,441.0519769690532 428.4427784939983,436.03416032270513 428.4427784939983,441.5648688337759" />
  <polygon fill="hsl(288.0,50.0%,43.8291623991892%)" points="411.85065296078614,476.64181618020103 411.85065296078614,440.8238943942192 427.652677278131,436.2622428975392 427.652677278131,472.080164683521" />
  <polygon fill="hsl(288.0,50.0%,43.8291623991892%)" points="415.80115904012234,437.89258543075016 415.80115904012234,421.77452062705834 423.7021711987948,419.4936948787183 423.7021711987948,435.6117596824101" />
  <polygon fill="hsl(288.0,50.0%,43.8291623991892%)" points="417.38136147185685,439.22731637038123 417.38136147185685,421.3183554773903 422.1219687670603,419.9498600283863 422.1219687670603,437.8588209213772" />
</svg>
