<?xml version="1.0" encoding="UTF-8"?>
<svg
  xmlns="http://www.w3.org/2000/svg"
  width="848"
  height="600"
  style="background-color:white"
>
  <polygon fill="lightblue" points="387.059991926704,520.8174164131017 195.48263382831573,354.90655750998894 460.940008073296,278.2756142706336 652.5173661716842,444.1864731737463" />
  <polygon fill="steelblue" points="195.48263382831573,354.90655750998894 195.48263382831573,155.8135268262537 460.940008073296,79.18258358689837 460.940008073296,278.2756142706336" />
  <polygon fill="lightskyblue" points="652.5173661716842,444.1864731737463 652.5173661716842,245.09344249001106 460.940008073296,79.18258358689837 460.940008073296,278.2756142706336" />
  <polygon fill="white" points="311.6202350604946,268.2890449937749 311.6202350604946,215.19757014477887 344.80240684111715,205.61870223985943 344.80240684111715,258.7101770888555" />
  <polygon fill="grey" points="446.91557210251233,151.80757787500062 446.91557210251233,118.62540609437806 480.09774388313485,109.04653818945866 480.09774388313485,142.2287099700812" />
  <polygon fill="lightgrey" points="446.91557210251233,151.80757787500062 446.91557210251233,118.62540609437806 427.75783629267346,102.03432020406677 427.75783629267346,135.21649198468936" />
  <polygon fill="darkgrey" points="446.91557210251233,118.62540609437806 427.75783629267346,102.03432020406677 460.940008073296,92.45545229914737 480.09774388313485,109.04653818945866" />
  <polygon fill="hsl(324.0,50.0%,51.426934746249444%)" points="458.68628531583033,420.0893545000017 458.68628531583033,374.5103233421386 466.65000654317976,372.21139504495795 466.65000654317976,417.7904262028211" />
  <polygon fill="hsl(324.0,50.0%,51.426934746249444%)" points="478.59558838420384,414.3420337570501 478.59558838420384,368.76300259918696 470.63186715685447,371.0619308963676 470.63186715685447,416.6409620542307" />
  <polygon fill="hsl(324.0,50.0%,51.426934746249444%)" points="450.7225640884809,377.26052917553574 450.7225640884809,332.1327755538891 457.6908201624117,330.121213293856 457.6908201624117,375.24896691550265" />
  <polygon fill="hsl(324.0,50.0%,51.426934746249444%)" points="479.59105353762254,368.92691409825585 479.59105353762254,323.7991604766092 486.55930961155326,321.7875982165761 486.55930961155326,366.91535183822276" />
  <polygon fill="hsl(324.0,50.0%,51.426934746249444%)" points="457.6908201624117,337.08946936778676 457.6908201624117,330.121213293856 479.59105353762254,323.7991604766092 479.59105353762254,330.7674165505399" />
  <polygon fill="hsl(324.0,50.0%,51.426934746249444%)" points="458.68628531583033,374.96160087835506 458.68628531583033,329.8338472567084 478.59558838420384,324.0865265137568 478.59558838420384,369.21428013540344" />
  <polygon fill="hsl(324.0,50.0%,51.426934746249444%)" points="463.6636110829237,326.1406293898882 463.6636110829237,305.8331402601472 473.6182626171105,302.95947988867135 473.6182626171105,323.26696901841234" />
  <polygon fill="hsl(324.0,50.0%,51.426934746249444%)" points="465.65454138976105,327.82228499667536 465.65454138976105,305.25840818585203 471.6273323102731,303.53421196296654 471.6273323102731,326.09808877378987" />
</svg>
