<?xml version="1.0" encoding="UTF-8"?>
<svg
  xmlns="http://www.w3.org/2000/svg"
  width="848"
  height="600"
  style="background-color:white"
>
  <polygon fill="lightblue" points="398.9519052838329,494.73076211353316 269.0480947161671,382.23076211353316 449.0480947161671,330.26923788646684 578.951905283833,442.76923788646684" />
  <polygon fill="steelblue" points="269.0480947161671,382.23076211353316 269.04809471616704,157.23076211353316 449.0480947161671,105.26923788646681 449.0480947161671,330.26923788646684" />
  <polygon fill="lightskyblue" points="578.951905283833,442.76923788646684 578.951905283833,217.76923788646684 449.0480947161671,105.26923788646681 449.0480947161671,330.26923788646684" />
  <polygon fill="white" points="521.79422863406,393.26923788646684 521.7942286340599,303.26923788646684 506.20577136594005,289.76923788646684 506.2057713659401,379.76923788646684" />
  <polygon fill="white" points="293.7980947161671,339.08605253231156 293.7980947161671,303.08605253231156 316.2980947161671,296.59086200392824 316.2980947161671,332.59086200392824" />
  <polygon fill="white" points="329.7980947161671,328.6937476868983 329.7980947161671,292.6937476868983 352.2980947161671,286.198557158515 352.2980947161671,322.198557158515" />
  <polygon fill="white" points="365.7980947161671,318.301442841485 365.7980947161671,282.30144284148497 388.2980947161671,275.8062523131017 388.2980947161671,311.8062523131017" />
  <polygon fill="white" points="401.7980947161671,307.9091379960717 401.7980947161671,271.9091379960717 424.2980947161671,265.41394746768844 424.2980947161671,301.41394746768844" />
</svg>
