<?xml version="1.0" encoding="UTF-8"?>
<svg
  xmlns="http://www.w3.org/2000/svg"
  width="848"
  height="600"
  style="background-color:white"
>
  <polygon fill="lightblue" points="394.68069616236806,554.2730211402534 242.62564627303308,422.589485162379 453.31930383763194,361.767465206645 605.374353726967,493.4510011845193" />
  <polygon fill="steelblue" points="242.62564627303308,422.589485162379 242.62564627303303,106.54899881548064 453.31930383763194,45.72697885974665 453.31930383763194,361.767465206645" />
  <polygon fill="lightskyblue" points="605.374353726967,493.4510011845193 605.3743537269669,177.410514837621 453.31930383763194,45.72697885974665 453.31930383763194,361.767465206645" />
  <polygon fill="white" points="538.4701317756595,435.5102453542546 538.4701317756595,330.16341657195517 520.2235257889394,314.3613922546102 520.2235257889394,419.7082210369097" />
  <polygon fill="white" points="259.5563866130455,375.56326990301636 259.55638661304545,333.42453839009653 285.89309380862034,325.8217858956298 285.89309380862034,367.9605174085496" />
  <polygon fill="white" points="289.6554805508453,366.87440990934005 289.6554805508453,324.73567839642027 315.9921877464202,317.1329259019535 315.9921877464202,359.2716574148733" />
  <polygon fill="white" points="319.7545744886452,358.1855499156637 319.7545744886452,316.04681840274395 346.09128168422,308.4440659082772 346.09128168422,350.58279742119703" />
  <polygon fill="white" points="349.853668426445,349.49668992198747 349.853668426445,307.3579584090677 376.1903756220198,299.75520591460094 376.19037562201987,341.8939374275207" />
  <polygon fill="white" points="379.9527623642448,340.8078299283112 379.9527623642448,298.6690984153914 406.2894695598197,291.0663459209246 406.2894695598197,333.20507743384445" />
  <polygon fill="white" points="410.05185630204465,332.1189699346349 410.05185630204465,289.9802384217151 436.38856349761954,282.37748592724836 436.38856349761954,324.51621744016813" />
  <polygon fill="antiquewhite" points="481.8675426640835,475.9379014993109 481.8675426640835,386.39309703435634 502.93690842054343,380.3108950387829 502.93690842054343,469.85569950373747" />
  <polygon fill="beige" points="481.8675426640835,475.9379014993109 481.8675426640835,386.39309703435634 469.7031386729367,375.8584141561264 469.7031386729367,465.4032186210809" />
  <polygon fill="bisque" points="481.8675426640835,386.39309703435634 469.7031386729367,375.8584141561264 490.7725044293966,369.776212160553 502.93690842054343,380.3108950387829" />
  <polygon fill="antiquewhite" points="406.65137200474305,537.6710008167346 406.65137200474305,448.1261963517801 427.72073776120294,442.04399435620667 427.72073776120294,531.5887988211612" />
  <polygon fill="beige" points="406.65137200474305,537.6710008167346 406.65137200474305,448.1261963517801 394.48696801359625,437.5915134735501 394.48696801359625,527.1363179385046" />
  <polygon fill="bisque" points="406.65137200474305,448.1261963517801 394.48696801359625,437.5915134735501 415.5563337700561,431.5093114779767 427.72073776120294,442.04399435620667" />
  <polygon fill="antiquewhite" points="426.38125325544235,390.35331739710205 426.38125325544235,300.8085129321475 447.45061901190223,294.7263109365741 447.45061901190223,384.2711154015286" />
  <polygon fill="beige" points="426.38125325544235,390.35331739710205 426.38125325544235,300.8085129321475 414.2168492642955,290.27383005391755 414.2168492642955,379.8186345188721" />
  <polygon fill="bisque" points="426.38125325544235,300.8085129321475 414.2168492642955,290.27383005391755 435.28621502075544,284.1916280583441 447.45061901190223,294.7263109365741" />
  <polygon fill="antiquewhite" points="413.36566671446906,423.0692279121092 413.36566671446906,333.5244234471546 434.435032470929,327.44222145158125 434.435032470929,416.9870259165358" />
  <polygon fill="beige" points="413.36566671446906,423.0692279121092 413.36566671446906,333.5244234471546 401.20126272332226,322.9897405689247 401.20126272332226,412.5345450338792" />
  <polygon fill="bisque" points="413.36566671446906,333.5244234471546 401.20126272332226,322.9897405689247 422.27062847978215,316.9075385733513 434.435032470929,327.44222145158125" />
  <polygon fill="antiquewhite" points="373.61622741303347,402.05875482167613 373.61622741303347,312.5139503567216 394.6855931694934,306.43174836114815 394.6855931694934,395.9765528261027" />
  <polygon fill="beige" points="373.61622741303347,402.05875482167613 373.61622741303347,312.5139503567216 361.4518234218867,301.97926747849164 361.4518234218867,391.52407194344613" />
  <polygon fill="bisque" points="373.61622741303347,312.5139503567216 361.4518234218867,301.97926747849164 382.5211891783466,295.8970654829182 394.6855931694934,306.43174836114815" />
</svg>
