<?xml version="1.0" encoding="UTF-8"?>
<svg
  xmlns="http://www.w3.org/2000/svg"
  width="848"
  height="600"
  style="background-color:white"
>
  <polygon fill="lightblue" points="375.7949192431123,631.4582562299427 125.7949192431123,414.95190528383296 472.2050807568877,314.95190528383284 722.2050807568877,531.4582562299425" />
  <polygon fill="steelblue" points="125.7949192431123,414.95190528383296 125.7949192431123,68.54174377005745 472.2050807568877,-31.458256229942606 472.2050807568877,314.95190528383284" />
  <polygon fill="lightskyblue" points="722.2050807568877,531.4582562299425 722.2050807568877,185.04809471616707 472.2050807568877,-31.458256229942606 472.2050807568877,314.95190528383284" />
  <polygon fill="white" points="612.2050807568877,436.1954618136543 612.2050807568877,262.9903810567665 582.2050807568877,237.00961894323342 582.2050807568877,410.2146997001211" />
  <polygon fill="white" points="153.6314500790407,337.6341586953635 153.6314500790407,268.3521263926084 196.93272026826259,255.8521263926084 196.93272026826259,325.1341586953635" />
  <polygon fill="white" points="203.11861600958002,323.34844440964923 203.11861600958002,254.06641210689412 246.41988619880195,241.56641210689412 246.41988619880195,310.84844440964923" />
  <polygon fill="white" points="252.60578194011936,309.0627301239349 252.60578194011936,239.78069782117984 295.9070521293413,227.28069782117984 295.9070521293413,296.5627301239349" />
  <polygon fill="white" points="302.0929478706587,294.7770158382206 302.0929478706587,225.49498353546556 345.3942180598806,212.99498353546556 345.39421805988064,282.2770158382206" />
  <polygon fill="white" points="351.580113801198,280.49130155250634 351.580113801198,211.2092692497513 394.88138399042,198.7092692497513 394.88138399042,267.99130155250634" />
  <polygon fill="white" points="401.0672797317374,266.20558726679207 401.0672797317374,196.92355496403695 444.3685499209593,184.42355496403695 444.3685499209593,253.70558726679207" />
</svg>
