<?xml version="1.0" encoding="UTF-8"?>
<svg
  xmlns="http://www.w3.org/2000/svg"
  width="848"
  height="600"
  style="background-color:white"
>
  <polygon fill="lightblue" points="394.68069616236806,554.2730211402534 242.62564627303308,422.589485162379 453.31930383763194,361.767465206645 605.374353726967,493.4510011845193" />
  <polygon fill="steelblue" points="242.62564627303308,422.589485162379 242.62564627303303,106.54899881548064 453.31930383763194,45.72697885974665 453.31930383763194,361.767465206645" />
  <polygon fill="lightskyblue" points="605.374353726967,493.4510011845193 605.3743537269669,177.410514837621 453.31930383763194,45.72697885974665 453.31930383763194,361.767465206645" />
  <polygon fill="white" points="538.4701317756595,435.5102453542546 538.4701317756595,330.16341657195517 520.2235257889394,314.3613922546102 520.2235257889394,419.7082210369097" />
  <polygon fill="white" points="264.5729022693455,374.11512657073695 264.57290226934543,331.9763950578172 290.9096094649203,324.3736425633504 290.9096094649203,366.5123740762702" />
  <polygon fill="white" points="299.6885118634452,363.9781232447813 299.6885118634452,321.8393917318615 326.0252190590201,314.23663923739474 326.0252190590201,356.3753707503145" />
  <polygon fill="white" points="334.8041214575451,353.8411199188256 334.8041214575451,311.7023884059058 361.1408286531199,304.09963591143907 361.1408286531199,346.23836742435884" />
  <polygon fill="white" points="369.9197310516449,343.7041165928699 369.9197310516449,301.56538507995015 396.25643824721976,293.9626325854834 396.25643824721976,336.10136409840317" />
  <polygon fill="white" points="405.03534064574467,333.5671132669143 405.03534064574467,291.4283817539945 431.37204784131956,283.8256292595277 431.37204784131956,325.9643607724475" />
  <polygon fill="antiquewhite" points="481.8675426640835,475.9379014993109 481.8675426640835,386.39309703435634 502.93690842054343,380.3108950387829 502.93690842054343,469.85569950373747" />
  <polygon fill="beige" points="481.8675426640835,475.9379014993109 481.8675426640835,386.39309703435634 469.7031386729367,375.8584141561264 469.7031386729367,465.4032186210809" />
  <polygon fill="bisque" points="481.8675426640835,386.39309703435634 469.7031386729367,375.8584141561264 490.7725044293966,369.776212160553 502.93690842054343,380.3108950387829" />
  <polygon fill="antiquewhite" points="406.65137200474305,537.6710008167346 406.65137200474305,448.1261963517801 427.72073776120294,442.04399435620667 427.72073776120294,531.5887988211612" />
  <polygon fill="beige" points="406.65137200474305,537.6710008167346 406.65137200474305,448.1261963517801 394.48696801359625,437.5915134735501 394.48696801359625,527.1363179385046" />
  <polygon fill="bisque" points="406.65137200474305,448.1261963517801 394.48696801359625,437.5915134735501 415.5563337700561,431.5093114779767 427.72073776120294,442.04399435620667" />
  <polygon fill="antiquewhite" points="426.38125325544235,390.35331739710205 426.38125325544235,300.8085129321475 447.45061901190223,294.7263109365741 447.45061901190223,384.2711154015286" />
  <polygon fill="beige" points="426.38125325544235,390.35331739710205 426.38125325544235,300.8085129321475 414.2168492642955,290.27383005391755 414.2168492642955,379.8186345188721" />
  <polygon fill="bisque" points="426.38125325544235,300.8085129321475 414.2168492642955,290.27383005391755 435.28621502075544,284.1916280583441 447.45061901190223,294.7263109365741" />
  <polygon fill="antiquewhite" points="413.36566671446906,423.0692279121092 413.36566671446906,333.5244234471546 434.435032470929,327.44222145158125 434.435032470929,416.9870259165358" />
  <polygon fill="beige" points="413.36566671446906,423.0692279121092 413.36566671446906,333.5244234471546 401.20126272332226,322.9897405689247 401.20126272332226,412.5345450338792" />
  <polygon fill="bisque" points="413.36566671446906,333.5244234471546 401.20126272332226,322.9897405689247 422.27062847978215,316.9075385733513 434.435032470929,327.44222145158125" />
  <polygon fill="antiquewhite" points="373.61622741303347,402.05875482167613 373.61622741303347,312.5139503567216 394.6855931694934,306.43174836114815 394.6855931694934,395.9765528261027" />
  <polygon fill="beige" points="373.61622741303347,402.05875482167613 373.61622741303347,312.5139503567216 361.4518234218867,301.97926747849164 361.4518234218867,391.52407194344613" />
  <polygon fill="bisque" points="373.61622741303347,312.5139503567216 361.4518234218867,301.97926747849164 382.5211891783466,295.8970654829182 394.6855931694934,306.43174836114815" />
</svg>
