<?xml version="1.0" encoding="UTF-8"?>
<svg
  xmlns="http://www.w3.org/2000/svg"
  width="848"
  height="600"
  style="background-color:white"
>
  <polygon fill="lightblue" points="375.7949192431123,588.1569860407207 125.7949192431123,371.65063509461095 472.2050807568877,271.65063509461095 722.2050807568877,488.15698604072065" />
  <polygon fill="steelblue" points="125.7949192431123,371.65063509461095 125.7949192431123,111.84301395927938 472.2050807568877,11.843013959279347 472.2050807568877,271.65063509461095" />
  <polygon fill="lightskyblue" points="722.2050807568877,488.15698604072065 722.2050807568877,228.34936490538902 472.2050807568877,11.843013959279347 472.2050807568877,271.65063509461095" />
  <polygon fill="white" points="612.2050807568877,392.8941916244323 612.2050807568877,219.68911086754463 582.2050807568877,193.70834875401147 582.2050807568877,366.9134295108992" />
  <polygon fill="white" points="153.6314500790407,294.3328885061416 153.6314500790407,225.0508562033865 196.93272026826259,212.5508562033865 196.93272026826259,281.83288850614156" />
  <polygon fill="white" points="203.11861600958002,280.0471742204273 203.11861600958002,210.76514191767222 246.41988619880195,198.2651419176722 246.41988619880195,267.5471742204273" />
  <polygon fill="white" points="252.60578194011936,265.761459934713 252.60578194011936,196.47942763195792 295.9070521293413,183.97942763195792 295.9070521293413,253.261459934713" />
  <polygon fill="white" points="302.0929478706587,251.47574564899872 302.0929478706587,182.19371334624364 345.3942180598806,169.6937133462436 345.39421805988064,238.9757456489987" />
  <polygon fill="white" points="351.580113801198,237.19003136328442 351.580113801198,167.90799906052933 394.88138399042,155.40799906052933 394.88138399042,224.69003136328442" />
  <polygon fill="white" points="401.0672797317374,222.90431707757014 401.0672797317374,153.62228477481503 444.3685499209593,141.12228477481503 444.3685499209593,210.4043170775701" />
</svg>
