<?xml version="1.0" encoding="UTF-8"?>
<svg
  xmlns="http://www.w3.org/2000/svg"
  width="848"
  height="600"
  style="background-color:white"
>
  <polygon fill="lightblue" points="384.9075948831574,533.6838660713717 182.1675283640441,358.10581810087257 463.0924051168426,277.0097914932272 665.8324716359559,452.5878394637263" />
  <polygon fill="steelblue" points="182.1675283640441,358.10581810087257 182.1675283640441,147.4121605362737 463.0924051168426,66.31613392862835 463.0924051168426,277.0097914932272" />
  <polygon fill="lightskyblue" points="665.8324716359559,452.5878394637263 665.8324716359559,241.89418189912743 463.0924051168426,66.31613392862835 463.0924051168426,277.0097914932272" />
  <polygon fill="white" points="576.626842367546,375.3334983567067 576.626842367546,234.87105998030745 552.2980343852524,213.80169422384756 552.2980343852524,354.2641326002468" />
  <polygon fill="white" points="234.84094275519382,286.7153377613794 234.84094275519382,230.53036241081966 269.9565523492936,220.39335908486402 269.9565523492936,276.5783344354237" />
  <polygon fill="white" points="305.07216194339344,266.441331109468 305.07216194339344,210.25635575890834 340.18777153749323,200.11935243295267 340.18777153749323,256.30432778351235" />
  <polygon fill="white" points="375.3033811315931,246.16732445755667 375.3033811315931,189.982349106997 410.4189907256929,179.84534578104132 410.4189907256929,236.03032113160103" />
  <polygon fill="grey" points="448.2508021746541,143.17279548337368 448.2508021746541,108.05718588927385 483.3664117687539,97.92018256331818 483.3664117687539,133.035792157418" />
  <polygon fill="lightgrey" points="448.2508021746541,143.17279548337368 448.2508021746541,108.05718588927385 427.9767955227428,90.49938109222393 427.9767955227428,125.61499068632375" />
  <polygon fill="darkgrey" points="448.2508021746541,108.05718588927385 427.9767955227428,90.49938109222393 463.0924051168426,80.36237776626825 483.3664117687539,97.92018256331818" />
  <polygon fill="hsl(288.0,50.0%,51.426934746249444%)" points="460.70736386614544,427.08664510898984 460.70736386614544,378.85184377053434 469.13511016872945,376.41896297230494 469.13511016872945,424.6537643107605" />
  <polygon fill="hsl(288.0,50.0%,51.426934746249444%)" points="481.77672962260533,421.0044431134164 481.77672962260533,372.769641774961 473.3489833200214,375.2025225731903 473.3489833200214,423.4373239116458" />
  <polygon fill="hsl(288.0,50.0%,51.426934746249444%)" points="452.2796175635615,381.76229685924346 452.2796175635615,334.00506781126774 459.6538955783225,331.87629711281704 459.6538955783225,379.63352616079277" />
  <polygon fill="hsl(288.0,50.0%,51.426934746249444%)" points="482.83019791042835,372.94310396566203 482.83019791042835,325.1858749176863 490.2044759251893,323.0571042192356 490.2044759251893,370.81433326721134" />
  <polygon fill="hsl(288.0,50.0%,51.426934746249444%)" points="459.6538955783225,339.250575127578 459.6538955783225,331.87629711281704 482.83019791042835,325.1858749176863 482.83019791042835,332.56015293244724" />
  <polygon fill="hsl(288.0,50.0%,51.426934746249444%)" points="460.70736386614544,379.3294160610141 460.70736386614544,331.57218701303833 481.77672962260533,325.48998501746496 481.77672962260533,373.2472140654407" />
  <polygon fill="hsl(288.0,50.0%,51.426934746249444%)" points="465.9747053052604,327.6637750617462 465.9747053052604,306.17302199015717 476.5093881834904,303.13192099237045 476.5093881834904,324.6226740639595" />
  <polygon fill="hsl(288.0,50.0%,51.426934746249444%)" points="468.08164188090643,329.44341631458764 468.08164188090643,305.5648017905998 474.4024516078444,303.74014119192776 474.4024516078444,327.61875571591565" />
</svg>
