<?xml version="1.0" encoding="UTF-8"?>
<svg
  xmlns="http://www.w3.org/2000/svg"
  width="848"
  height="600"
  style="background-color:white"
>
  <polygon fill="lightblue" points="390.4377753153142,530.7739411388498 216.37819405483495,380.0339219951929 457.5622246846858,310.41008949100114 631.6218059451651,461.150108634658" />
  <polygon fill="steelblue" points="216.37819405483495,380.0339219951929 216.37819405483495,138.849891365342 457.5622246846858,69.22605886115025 457.5622246846858,310.41008949100114" />
  <polygon fill="lightskyblue" points="631.6218059451651,461.150108634658 631.6218059451651,219.96607800480712 457.5622246846858,69.22605886115025 457.5622246846858,310.41008949100114" />
  <polygon fill="white" points="526.0256599804743,369.7011636875062 526.0256599804743,249.10914837258076 505.1385102292169,231.02034607534193 505.1385102292169,351.6123613902674" />
  <polygon fill="white" points="584.0455204006341,419.94783673539183 584.0455204006341,299.3558214204664 563.1583706493766,281.26701912322756 563.1583706493766,401.859034438153" />
  <polygon fill="white" points="249.54099826643946,322.22383889989635 249.54099826643946,273.98703277392616 279.68900209517085,265.2840537109022 279.68900209517085,313.5208598368724" />
  <polygon fill="white" points="297.7778043924096,308.299072399058 297.7778043924096,260.0622662730878 327.925808221141,251.35928721006385 327.925808221141,299.596093336034" />
  <polygon fill="white" points="346.01461051837987,294.37430589821963 346.01461051837987,246.13749977224947 376.1626143471112,237.43452070922552 376.1626143471112,285.6713268351957" />
  <polygon fill="white" points="394.25141664435,280.44953939738133 394.25141664435,232.21273327141114 424.39942047308136,223.50975420838716 424.39942047308136,271.74656033435735" />
  <polygon fill="hsl(360.0,50.0%,51.426934746249444%)" points="455.5145816681232,439.25642334966744 455.5145816681232,397.845125290522 462.7501025870187,395.75641031539624 462.7501025870187,437.1677083745417" />
  <polygon fill="hsl(360.0,50.0%,51.426934746249444%)" points="473.603383965362,434.034635911853 473.603383965362,392.62333785270766 466.3678630464665,394.7120528278334 466.3678630464665,436.12335088697876" />
  <polygon fill="hsl(360.0,50.0%,51.426934746249444%)" points="448.27906074922765,400.3438531177185 448.27906074922765,359.3425679106439 454.61014155326126,357.51494230740883 454.61014155326126,398.5162275144835" />
  <polygon fill="hsl(360.0,50.0%,51.426934746249444%)" points="474.50782408022394,392.77226133288764 474.50782408022394,351.77097612581304 480.83890488425754,349.943350522578 480.83890488425754,390.94463572965265" />
  <polygon fill="hsl(360.0,50.0%,51.426934746249444%)" points="454.61014155326126,363.84602311144243 454.61014155326126,357.51494230740883 474.50782408022394,351.77097612581304 474.50782408022394,358.1020569298466" />
  <polygon fill="hsl(360.0,50.0%,51.426934746249444%)" points="455.5145816681232,398.2551381425927 455.5145816681232,357.2538529355181 473.603383965362,352.03206549770374 473.603383965362,393.0333507047784" />
  <polygon fill="hsl(360.0,50.0%,51.426934746249444%)" points="460.0367822424329,353.8983418157108 460.0367822424329,335.4477634725272 469.0811833910523,332.83686975362 469.0811833910523,351.2874480968036" />
  <polygon fill="hsl(360.0,50.0%,51.426934746249444%)" points="461.8456624721568,355.4262273322831 461.8456624721568,334.9255847287458 467.2723031613284,333.35904849740143 467.2723031613284,353.8596911009388" />
</svg>
