<?xml version="1.0" encoding="UTF-8"?>
<svg
  xmlns="http://www.w3.org/2000/svg"
  width="848"
  height="600"
  style="background-color:white"
>
  <polygon fill="lightblue" points="401.1343225023822,498.3036476560345 282.54891024606803,395.60566812381586 446.8656774976178,348.1715032212902 565.451089753932,450.8694827535088" />
  <polygon fill="steelblue" points="282.54891024606803,395.60566812381586 282.548910246068,149.13051724649117 446.8656774976178,101.69635234396549 446.8656774976178,348.1715032212902" />
  <polygon fill="lightskyblue" points="565.451089753932,450.8694827535088 565.4510897539319,204.39433187618414 446.8656774976178,101.69635234396549 446.8656774976178,348.1715032212902" />
  <polygon fill="white" points="513.2735083611537,405.6823717593326 513.2735083611537,323.52398813355774 499.04325889039603,311.2002305896915 499.04325889039603,393.3586142154664" />
  <polygon fill="white" points="299.66524016810445,357.80125582949285 299.66524016810445,324.93790237918284 320.20483607454815,319.00863176636716 320.20483607454815,351.8719852166771" />
  <polygon fill="white" points="327.05136804336274,349.8955616790719 327.05136804336274,317.03220822876193 347.59096394980645,311.1029376159462 347.59096394980645,343.9662910662562" />
  <polygon fill="white" points="354.43749591862104,341.98986752865096 354.43749591862104,309.12651407834096 374.97709182506475,303.1972434655253 374.97709182506475,336.0605969158352" />
  <polygon fill="white" points="381.82362379387934,334.08417337823 381.82362379387934,301.22081992792 402.36321970032304,295.2915493151043 402.36321970032304,328.15490276541425" />
  <polygon fill="white" points="409.20975166913763,326.178479227809 409.20975166913763,293.3151257774991 429.74934757558134,287.38585516468333 429.74934757558134,320.24920861499334" />
</svg>
