<?xml version="1.0" encoding="UTF-8"?>
<svg
  xmlns="http://www.w3.org/2000/svg"
  width="848"
  height="600"
  style="background-color:white"
>
  <polygon fill="lightblue" points="390.4377753153142,530.7739411388498 216.37819405483495,380.0339219951929 457.5622246846858,310.41008949100114 631.6218059451651,461.150108634658" />
  <polygon fill="steelblue" points="216.37819405483495,380.0339219951929 216.37819405483495,138.849891365342 457.5622246846858,69.22605886115025 457.5622246846858,310.41008949100114" />
  <polygon fill="lightskyblue" points="631.6218059451651,461.150108634658 631.6218059451651,219.96607800480712 457.5622246846858,69.22605886115025 457.5622246846858,310.41008949100114" />
  <polygon fill="white" points="555.0355901905542,394.824500211449 555.0355901905542,274.23248489652354 534.1484404392967,256.1436825992847 534.1484404392967,376.73569791421016" />
  <polygon fill="white" points="241.50153057877773,324.54463331670274 241.50153057877773,276.30782719073255 271.6495344075091,267.6048481277086 271.6495344075091,315.84165425367877" />
  <polygon fill="white" points="281.6988690170862,312.9406612326708 281.6988690170862,264.7038551067006 311.8468728458176,256.0008760436766 311.8468728458176,304.2376821696468" />
  <polygon fill="white" points="321.8962074553947,301.3366891486388 321.8962074553947,253.09988302266865 352.04421128412605,244.3969039596447 352.0442112841261,292.6337100856149" />
  <polygon fill="white" points="362.0935458937032,289.7327170646069 362.0935458937032,241.4959109386367 392.24154972243457,232.79293187561274 392.24154972243457,281.0297380015829" />
  <polygon fill="white" points="402.2908843320117,278.12874498057494 402.2908843320117,229.89193885460475 432.43888816074303,221.18895979158077 432.43888816074303,269.42576591755096" />
</svg>
