<?xml version="1.0" encoding="UTF-8"?>
<svg
  xmlns="http://www.w3.org/2000/svg"
  width="848"
  height="600"
  style="background-color:white"
>
  <polygon fill="lightblue" points="392.84359053447184,542.2184772412105 231.26098878208055,402.2838393140556 455.1564094655282,337.65079861309914 616.7390112179195,477.5854365402539" />
  <polygon fill="steelblue" points="231.26098878208055,402.2838393140556 231.2609887820805,122.41456345974606 455.15640946552816,57.78152275878952 455.1564094655282,337.65079861309914" />
  <polygon fill="lightskyblue" points="616.7390112179195,477.5854365402539 616.7390112179195,197.71616068594437 455.15640946552816,57.78152275878952 455.1564094655282,337.65079861309914" />
  <polygon fill="white" points="545.6426664468673,416.0141958523058 545.6426664468673,304.06648551058197 526.2527542365804,287.2743289593234 526.2527542365804,399.22203930104723" />
  <polygon fill="white" points="273.241380160227,345.38606004593674 273.241380160227,300.60697590924724 301.2283077456579,292.5278458216277 301.2283077456579,337.3069299583172" />
  <polygon fill="white" points="329.2152353310889,329.22779987069765 329.2152353310889,284.4487157340081 357.20216291651985,276.36958564638854 357.20216291651985,321.14866978307805" />
  <polygon fill="white" points="385.18909050195083,313.0695396954585 385.1890905019508,268.29045555876894 413.17601808738175,260.2113254711494 413.17601808738175,304.99040960783896" />
  <polygon fill="antiquewhite" points="485.4934400895287,458.9749910868179 485.49344008952863,363.81943729635265 507.88298215787347,357.356133226257 507.88298215787347,452.51168701672225" />
  <polygon fill="beige" points="485.4934400895287,458.9749910868179 485.49344008952863,363.81943729635265 472.56683194933737,352.62466626218026 472.56683194933737,447.7802200526455" />
  <polygon fill="bisque" points="485.49344008952863,363.81943729635265 472.56683194933737,352.62466626218026 494.95637401768215,346.1613621920846 507.88298215787347,357.356133226257" />
</svg>
