<?xml version="1.0" encoding="UTF-8"?>
<svg
  xmlns="http://www.w3.org/2000/svg"
  width="848"
  height="600"
  style="background-color:white"
>
  <polygon fill="lightblue" points="394.68069616236806,554.2730211402534 242.62564627303308,422.589485162379 453.31930383763194,361.767465206645 605.374353726967,493.4510011845193" />
  <polygon fill="steelblue" points="242.62564627303308,422.589485162379 242.62564627303303,106.54899881548064 453.31930383763194,45.72697885974665 453.31930383763194,361.767465206645" />
  <polygon fill="lightskyblue" points="605.374353726967,493.4510011845193 605.3743537269669,177.410514837621 453.31930383763194,45.72697885974665 453.31930383763194,361.767465206645" />
  <polygon fill="white" points="538.4701317756595,435.5102453542546 538.4701317756595,330.16341657195517 520.2235257889394,314.3613922546102 520.2235257889394,419.7082210369097" />
  <polygon fill="white" points="271.5960241881654,372.0877259055458 271.5960241881654,329.948994392626 297.93273138374025,322.3462418981593 297.93273138374025,364.48497341107907" />
  <polygon fill="white" points="313.7347557010852,359.923321914399 313.7347557010852,317.78459040147925 340.07146289666,310.1818379070125 340.07146289666,352.32056941993227" />
  <polygon fill="white" points="355.87348721400497,347.7589179232522 355.87348721400497,305.6201864103324 382.21019440957986,298.01743391586564 382.21019440957986,340.15616542878547" />
  <polygon fill="white" points="398.01221872692474,335.59451393210543 398.01221872692474,293.4557824191856 424.3489259224996,285.85302992471884 424.34892592249963,327.9917614376386" />
</svg>
