<?xml version="1.0" encoding="UTF-8"?>
<svg
  xmlns="http://www.w3.org/2000/svg"
  width="848"
  height="600"
  style="background-color:white"
>
  <polygon fill="lightblue" points="392.84359053447184,542.2184772412105 231.26098878208055,402.2838393140556 455.1564094655282,337.65079861309914 616.7390112179195,477.5854365402539" />
  <polygon fill="steelblue" points="231.26098878208055,402.2838393140556 231.2609887820805,122.41456345974606 455.15640946552816,57.78152275878952 455.1564094655282,337.65079861309914" />
  <polygon fill="lightskyblue" points="616.7390112179195,477.5854365402539 616.7390112179195,197.71616068594437 455.15640946552816,57.78152275878952 455.1564094655282,337.65079861309914" />
  <polygon fill="white" points="291.8993318838476,339.99997332085707 291.8993318838476,295.2208891841675 319.88625946927857,287.14175909654796 319.88625946927857,331.9208432332375" />
  <polygon fill="white" points="366.53113877833016,318.45562642053824 366.53113877833016,273.6765422838487 394.51806636376114,265.59741219622913 394.51806636376114,310.37649633291863" />
  <polygon fill="hsl(324.0,50.0%,51.426934746249444%)" points="453.2555460733477,457.26113951116497 453.2555460733477,418.81829577981705 459.97240869385115,416.87930455878836 459.97240869385115,455.3221482901363" />
  <polygon fill="hsl(324.0,50.0%,51.426934746249444%)" points="470.0477026246063,452.41366145859325 470.0477026246063,413.9708177272453 463.33084000410287,415.90980894827396 463.33084000410287,454.352652679622" />
  <polygon fill="hsl(324.0,50.0%,51.426934746249444%)" points="446.5386834528443,421.1379092160076 446.5386834528443,383.0756876998215 452.4159382457848,381.37907038142134 452.4159382457848,419.44129189760747" />
  <polygon fill="hsl(324.0,50.0%,51.426934746249444%)" points="470.88731045216923,414.10906603977855 470.88731045216923,376.0468445235924 476.76456524510974,374.35022720519237 476.76456524510974,412.41244872137844" />
  <polygon fill="hsl(324.0,50.0%,51.426934746249444%)" points="452.4159382457848,387.2563251743619 452.4159382457848,381.37907038142134 470.88731045216923,376.0468445235924 470.88731045216923,381.924099316533" />
  <polygon fill="hsl(324.0,50.0%,51.426934746249444%)" points="453.2555460733477,419.1989179949789 453.2555460733477,381.13669647879277 470.0477026246063,376.28921842622105 470.0477026246063,414.3514399424071" />
  <polygon fill="hsl(324.0,50.0%,51.426934746249444%)" points="457.45358521116236,378.02171588984055 457.45358521116236,360.8937162075568 465.84966348679166,358.4699771812709 465.84966348679166,375.59797686355466" />
  <polygon fill="hsl(324.0,50.0%,51.426934746249444%)" points="459.1328008662882,379.44007916039266 459.1328008662882,360.40896840229965 464.1704478316658,358.9547249865281 464.1704478316658,377.98583574462117" />
</svg>
