<?xml version="1.0" encoding="UTF-8"?>
<svg
  xmlns="http://www.w3.org/2000/svg"
  width="848"
  height="600"
  style="background-color:white"
>
  <polygon fill="lightblue" points="390.4377753153142,530.7739411388498 216.37819405483495,380.0339219951929 457.5622246846858,310.41008949100114 631.6218059451651,461.150108634658" />
  <polygon fill="steelblue" points="216.37819405483495,380.0339219951929 216.37819405483495,138.849891365342 457.5622246846858,69.22605886115025 457.5622246846858,310.41008949100114" />
  <polygon fill="lightskyblue" points="631.6218059451651,461.150108634658 631.6218059451651,219.96607800480712 457.5622246846858,69.22605886115025 457.5622246846858,310.41008949100114" />
  <polygon fill="white" points="555.0355901905542,394.824500211449 555.0355901905542,274.23248489652354 534.1484404392967,256.1436825992847 534.1484404392967,376.73569791421016" />
  <polygon fill="white" points="249.54099826643946,322.22383889989635 249.54099826643946,273.98703277392616 279.68900209517085,265.2840537109022 279.68900209517085,313.5208598368724" />
  <polygon fill="white" points="297.7778043924096,308.299072399058 297.7778043924096,260.0622662730878 327.925808221141,251.35928721006385 327.925808221141,299.596093336034" />
  <polygon fill="white" points="346.01461051837987,294.37430589821963 346.01461051837987,246.13749977224947 376.1626143471112,237.43452070922552 376.1626143471112,285.6713268351957" />
  <polygon fill="white" points="394.25141664435,280.44953939738133 394.25141664435,232.21273327141114 424.39942047308136,223.50975420838716 424.39942047308136,271.74656033435735" />
  <polygon fill="antiquewhite" points="490.24180026913893,441.10261399374366 490.24180026913893,338.599400976057 514.360203332124,331.6370177256378 514.360203332124,434.1402307433244" />
  <polygon fill="beige" points="490.24180026913893,441.10261399374366 490.24180026913893,338.599400976057 476.3170337683006,326.54019944456445 476.31703376830063,429.0434124622511" />
  <polygon fill="bisque" points="490.24180026913893,338.599400976057 476.3170337683006,326.54019944456445 500.4354368312857,319.57781619414527 514.360203332124,331.6370177256378" />
  <polygon fill="antiquewhite" points="404.1407784450699,511.769372019358 404.1407784450699,409.2661590016713 428.25918150805495,402.30377575125215 428.259181508055,504.8069887689388" />
  <polygon fill="beige" points="404.1407784450699,511.769372019358 404.1407784450699,409.2661590016713 390.2160119442316,397.2069574701788 390.2160119442316,499.7101704878654" />
  <polygon fill="bisque" points="404.1407784450699,409.2661590016713 390.2160119442316,397.2069574701788 414.33441500721665,390.2445742197596 428.25918150805495,402.30377575125215" />
</svg>
