<?xml version="1.0" encoding="UTF-8"?>
<svg
  xmlns="http://www.w3.org/2000/svg"
  width="848"
  height="600"
  style="background-color:white"
>
  <polygon fill="lightblue" points="392.84359053447184,542.2184772412105 231.26098878208055,402.2838393140556 455.1564094655282,337.65079861309914 616.7390112179195,477.5854365402539" />
  <polygon fill="steelblue" points="231.26098878208055,402.2838393140556 231.2609887820805,122.41456345974606 455.15640946552816,57.78152275878952 455.1564094655282,337.65079861309914" />
  <polygon fill="lightskyblue" points="616.7390112179195,477.5854365402539 616.7390112179195,197.71616068594437 455.15640946552816,57.78152275878952 455.1564094655282,337.65079861309914" />
  <polygon fill="white" points="518.7122328214688,392.69175619778 518.7122328214688,280.7440458560562 499.3223206111818,263.9518893047976 499.32232061118185,375.89959964652144" />
  <polygon fill="white" points="572.5731000722659,439.3366355068316 572.5731000722659,327.38892516510776 553.1831878619789,310.5967686138492 553.1831878619789,422.544478955573" />
  <polygon fill="white" points="262.0466091260546,348.61771208098463 262.0466091260546,303.83862794429507 290.03353671148557,295.75949785667547 290.03353671148557,340.538581993365" />
  <polygon fill="white" points="306.82569326274415,335.6911039407933 306.8256932627441,290.91201980410375 334.8126208481751,282.8328897164842 334.8126208481751,327.6119738531737" />
  <polygon fill="white" points="351.60477739943366,322.764495800602 351.60477739943366,277.98541166391243 379.59170498486463,269.9062815762929 379.59170498486463,314.6853657129824" />
  <polygon fill="white" points="396.3838615361232,309.8378876604107 396.38386153612316,265.0588035237211 424.37078912155414,256.97967343610156 424.37078912155414,301.7587575727911" />
  <polygon fill="hsl(360.0,50.0%,51.426934746249444%)" points="453.2555460733477,457.26113951116497 453.2555460733477,418.81829577981705 459.97240869385115,416.87930455878836 459.97240869385115,455.3221482901363" />
  <polygon fill="hsl(360.0,50.0%,51.426934746249444%)" points="470.0477026246063,452.41366145859325 470.0477026246063,413.9708177272453 463.33084000410287,415.90980894827396 463.33084000410287,454.352652679622" />
  <polygon fill="hsl(360.0,50.0%,51.426934746249444%)" points="446.5386834528443,421.1379092160076 446.5386834528443,383.0756876998215 452.4159382457848,381.37907038142134 452.4159382457848,419.44129189760747" />
  <polygon fill="hsl(360.0,50.0%,51.426934746249444%)" points="470.88731045216923,414.10906603977855 470.88731045216923,376.0468445235924 476.76456524510974,374.35022720519237 476.76456524510974,412.41244872137844" />
  <polygon fill="hsl(360.0,50.0%,51.426934746249444%)" points="452.4159382457848,387.2563251743619 452.4159382457848,381.37907038142134 470.88731045216923,376.0468445235924 470.88731045216923,381.924099316533" />
  <polygon fill="hsl(360.0,50.0%,51.426934746249444%)" points="453.2555460733477,419.1989179949789 453.2555460733477,381.13669647879277 470.0477026246063,376.28921842622105 470.0477026246063,414.3514399424071" />
  <polygon fill="hsl(360.0,50.0%,51.426934746249444%)" points="457.45358521116236,378.02171588984055 457.45358521116236,360.8937162075568 465.84966348679166,358.4699771812709 465.84966348679166,375.59797686355466" />
  <polygon fill="hsl(360.0,50.0%,51.426934746249444%)" points="459.1328008662882,379.44007916039266 459.1328008662882,360.40896840229965 464.1704478316658,358.9547249865281 464.1704478316658,377.98583574462117" />
</svg>
