<?xml version="1.0" encoding="UTF-8"?>
<svg
  xmlns="http://www.w3.org/2000/svg"
  width="848"
  height="600"
  style="background-color:white"
>
  <polygon fill="lightblue" points="394.68069616236806,554.2730211402534 242.62564627303308,422.589485162379 453.31930383763194,361.767465206645 605.374353726967,493.4510011845193" />
  <polygon fill="steelblue" points="242.62564627303308,422.589485162379 242.62564627303303,106.54899881548064 453.31930383763194,45.72697885974665 453.31930383763194,361.767465206645" />
  <polygon fill="lightskyblue" points="605.374353726967,493.4510011845193 605.3743537269669,177.410514837621 453.31930383763194,45.72697885974665 453.31930383763194,361.767465206645" />
  <polygon fill="white" points="538.4701317756595,435.5102453542546 538.4701317756595,330.16341657195517 520.2235257889394,314.3613922546102 520.2235257889394,419.7082210369097" />
  <polygon fill="white" points="334.8041214575451,353.8411199188256 334.8041214575451,311.7023884059058 361.1408286531199,304.09963591143907 361.1408286531199,346.23836742435884" />
  <polygon fill="antiquewhite" points="481.8675426640835,475.9379014993109 481.8675426640835,386.39309703435634 502.93690842054343,380.3108950387829 502.93690842054343,469.85569950373747" />
  <polygon fill="beige" points="481.8675426640835,475.9379014993109 481.8675426640835,386.39309703435634 469.7031386729367,375.8584141561264 469.7031386729367,465.4032186210809" />
  <polygon fill="bisque" points="481.8675426640835,386.39309703435634 469.7031386729367,375.8584141561264 490.7725044293966,369.776212160553 502.93690842054343,380.3108950387829" />
  <polygon fill="antiquewhite" points="406.65137200474305,537.6710008167346 406.65137200474305,448.1261963517801 427.72073776120294,442.04399435620667 427.72073776120294,531.5887988211612" />
  <polygon fill="beige" points="406.65137200474305,537.6710008167346 406.65137200474305,448.1261963517801 394.48696801359625,437.5915134735501 394.48696801359625,527.1363179385046" />
  <polygon fill="bisque" points="406.65137200474305,448.1261963517801 394.48696801359625,437.5915134735501 415.5563337700561,431.5093114779767 427.72073776120294,442.04399435620667" />
  <polygon fill="antiquewhite" points="426.38125325544235,390.35331739710205 426.38125325544235,300.8085129321475 447.45061901190223,294.7263109365741 447.45061901190223,384.2711154015286" />
  <polygon fill="beige" points="426.38125325544235,390.35331739710205 426.38125325544235,300.8085129321475 414.2168492642955,290.27383005391755 414.2168492642955,379.8186345188721" />
  <polygon fill="bisque" points="426.38125325544235,300.8085129321475 414.2168492642955,290.27383005391755 435.28621502075544,284.1916280583441 447.45061901190223,294.7263109365741" />
</svg>
