<?xml version="1.0" encoding="UTF-8"?>
<svg
  xmlns="http://www.w3.org/2000/svg"
  width="848"
  height="600"
  style="background-color:white"
>
  <polygon fill="lightblue" points="392.84359053447184,542.2184772412105 231.26098878208055,402.2838393140556 455.1564094655282,337.65079861309914 616.7390112179195,477.5854365402539" />
  <polygon fill="steelblue" points="231.26098878208055,402.2838393140556 231.2609887820805,122.41456345974606 455.15640946552816,57.78152275878952 455.1564094655282,337.65079861309914" />
  <polygon fill="lightskyblue" points="616.7390112179195,477.5854365402539 616.7390112179195,197.71616068594437 455.15640946552816,57.78152275878952 455.1564094655282,337.65079861309914" />
  <polygon fill="white" points="545.6426664468673,416.0141958523058 545.6426664468673,304.06648551058197 526.2527542365804,287.2743289593234 526.2527542365804,399.22203930104723" />
  <polygon fill="white" points="262.0466091260546,348.61771208098463 262.0466091260546,303.83862794429507 290.03353671148557,295.75949785667547 290.03353671148557,340.538581993365" />
  <polygon fill="white" points="306.82569326274415,335.6911039407933 306.8256932627441,290.91201980410375 334.8126208481751,282.8328897164842 334.8126208481751,327.6119738531737" />
  <polygon fill="white" points="351.60477739943366,322.764495800602 351.60477739943366,277.98541166391243 379.59170498486463,269.9062815762929 379.59170498486463,314.6853657129824" />
  <polygon fill="white" points="396.3838615361232,309.8378876604107 396.38386153612316,265.0588035237211 424.37078912155414,256.97967343610156 424.37078912155414,301.7587575727911" />
  <polygon fill="antiquewhite" points="485.4934400895287,458.9749910868179 485.49344008952863,363.81943729635265 507.88298215787347,357.356133226257 507.88298215787347,452.51168701672225" />
  <polygon fill="beige" points="485.4934400895287,458.9749910868179 485.49344008952863,363.81943729635265 472.56683194933737,352.62466626218026 472.56683194933737,447.7802200526455" />
  <polygon fill="bisque" points="485.49344008952863,363.81943729635265 472.56683194933737,352.62466626218026 494.95637401768215,346.1613621920846 507.88298215787347,357.356133226257" />
  <polygon fill="antiquewhite" points="405.56433179727884,524.5761980786795 405.56433179727884,429.4206442882142 427.9538738656236,422.95734021811853 427.9538738656236,518.1128940085838" />
  <polygon fill="beige" points="405.56433179727884,524.5761980786795 405.56433179727884,429.4206442882142 392.6377236570875,418.2258732540418 392.6377236570876,513.3814270445071" />
  <polygon fill="bisque" points="405.56433179727884,429.4206442882142 392.6377236570875,418.2258732540418 415.0272657254323,411.76256918394614 427.9538738656236,422.95734021811853" />
  <polygon fill="antiquewhite" points="426.53045917728974,368.0277994006758 426.53045917728974,272.87224561021054 448.9200012456346,266.4089415401149 448.9200012456346,361.56449533058014" />
  <polygon fill="beige" points="426.53045917728974,368.0277994006758 426.53045917728974,272.87224561021054 413.6038510370984,261.67747457603815 413.6038510370985,356.8330283665034" />
  <polygon fill="bisque" points="426.53045917728974,272.87224561021054 413.6038510370984,261.67747457603815 435.99339310544326,255.2141705059425 448.9200012456346,266.4089415401149" />
</svg>
