<?xml version="1.0" encoding="UTF-8"?>
<svg
  xmlns="http://www.w3.org/2000/svg"
  width="848"
  height="600"
  style="background-color:white"
>
  <polygon fill="lightblue" points="390.4377753153142,530.7739411388498 216.37819405483495,380.0339219951929 457.5622246846858,310.41008949100114 631.6218059451651,461.150108634658" />
  <polygon fill="steelblue" points="216.37819405483495,380.0339219951929 216.37819405483495,138.849891365342 457.5622246846858,69.22605886115025 457.5622246846858,310.41008949100114" />
  <polygon fill="lightskyblue" points="631.6218059451651,461.150108634658 631.6218059451651,219.96607800480712 457.5622246846858,69.22605886115025 457.5622246846858,310.41008949100114" />
  <polygon fill="white" points="555.0355901905542,394.824500211449 555.0355901905542,274.23248489652354 534.1484404392967,256.1436825992847 534.1484404392967,376.73569791421016" />
  <polygon fill="white" points="261.60019979793196,318.74264727468676 261.60019979793196,270.50584114871657 291.7482036266633,261.8028620856926 291.7482036266633,310.0396682116628" />
  <polygon fill="white" points="321.8962074553947,301.3366891486388 321.8962074553947,253.09988302266865 352.04421128412605,244.3969039596447 352.0442112841261,292.6337100856149" />
  <polygon fill="white" points="382.19221511285747,283.9307310225909 382.1922151128574,235.69392489662073 412.3402189415888,226.99094583359675 412.3402189415888,275.22775195956694" />
  <polygon fill="hsl(360.0,50.0%,70.71600065166498%)" points="409.62705056839764,374.9661015302218 409.62705056839764,333.55480347107635 416.86257148729317,331.4660884959506 416.86257148729317,372.877386555096" />
  <polygon fill="hsl(360.0,50.0%,70.71600065166498%)" points="427.71585286563646,369.7443140924074 427.71585286563646,328.33301603326197 420.48033194674093,330.4217310083877 420.48033194674093,371.8330290675332" />
  <polygon fill="hsl(360.0,50.0%,70.71600065166498%)" points="402.3915296495021,336.05353129827284 402.3915296495021,295.05224609119824 408.7226104535357,293.2246204879632 408.7226104535357,334.22590569503785" />
  <polygon fill="hsl(360.0,50.0%,70.71600065166498%)" points="428.6202929804984,328.481939513442 428.6202929804984,287.48065430636734 434.951373784532,285.65302870313235 434.951373784532,326.65431391020695" />
  <polygon fill="hsl(360.0,50.0%,70.71600065166498%)" points="408.7226104535357,299.5557012919968 408.7226104535357,293.2246204879632 428.6202929804984,287.48065430636734 428.6202929804984,293.81173511040095" />
  <polygon fill="hsl(360.0,50.0%,70.71600065166498%)" points="409.62705056839764,333.9648163231471 409.62705056839764,292.9635311160725 427.71585286563646,287.7417436782581 427.71585286563646,328.7430288853327" />
  <polygon fill="hsl(360.0,50.0%,70.71600065166498%)" points="414.1492511427073,289.60801999626517 414.1492511427073,271.15744165308155 423.19365229132677,268.5465479341744 423.19365229132677,286.99712627735795" />
  <polygon fill="hsl(360.0,50.0%,70.71600065166498%)" points="415.95813137243124,291.13590551283744 415.95813137243124,270.63526290930014 421.38477206160286,269.0687266779558 421.38477206160286,289.5693692814931" />
  <polygon fill="hsl(360.0,50.0%,64.97798353915579%)" points="347.81985034761715,415.87360495651797 347.81985034761715,374.4623068973725 355.0553712665127,372.37359192224676 355.0553712665127,413.7848899813922" />
  <polygon fill="hsl(360.0,50.0%,64.97798353915579%)" points="365.9086526448559,410.6518175187036 365.9086526448559,369.2405194595582 358.67313172596045,371.32923443468394 358.67313172596045,412.74053249382933" />
  <polygon fill="hsl(360.0,50.0%,64.97798353915579%)" points="340.5843294287216,376.961034724569 340.5843294287216,335.9597495174944 346.9154102327552,334.13212391425935 346.9154102327552,375.133409121334" />
  <polygon fill="hsl(360.0,50.0%,64.97798353915579%)" points="366.8130927597179,369.38944293973816 366.8130927597179,328.38815773266356 373.14417356375145,326.5605321294285 373.14417356375145,367.56181733650317" />
  <polygon fill="hsl(360.0,50.0%,64.97798353915579%)" points="346.9154102327552,340.46320471829296 346.9154102327552,334.13212391425935 366.8130927597179,328.38815773266356 366.8130927597179,334.7192385366971" />
  <polygon fill="hsl(360.0,50.0%,64.97798353915579%)" points="347.81985034761715,374.87231974944325 347.81985034761715,333.87103454236865 365.9086526448559,328.64924710455426 365.9086526448559,369.6505323116289" />
  <polygon fill="hsl(360.0,50.0%,64.97798353915579%)" points="352.34205092192684,330.51552342256133 352.34205092192684,312.0649450793777 361.3864520705462,309.45405136047054 361.3864520705462,327.9046297036541" />
  <polygon fill="hsl(360.0,50.0%,64.97798353915579%)" points="354.15093115165075,332.0434089391336 354.15093115165075,311.5427663355963 359.5775718408224,309.97623010425195 359.5775718408224,330.4768727077893" />
  <polygon fill="hsl(360.0,50.0%,51.426934746249444%)" points="455.5145816681232,439.25642334966744 455.5145816681232,397.845125290522 462.7501025870187,395.75641031539624 462.7501025870187,437.1677083745417" />
  <polygon fill="hsl(360.0,50.0%,51.426934746249444%)" points="473.603383965362,434.034635911853 473.603383965362,392.62333785270766 466.3678630464665,394.7120528278334 466.3678630464665,436.12335088697876" />
  <polygon fill="hsl(360.0,50.0%,51.426934746249444%)" points="448.27906074922765,400.3438531177185 448.27906074922765,359.3425679106439 454.61014155326126,357.51494230740883 454.61014155326126,398.5162275144835" />
  <polygon fill="hsl(360.0,50.0%,51.426934746249444%)" points="474.50782408022394,392.77226133288764 474.50782408022394,351.77097612581304 480.83890488425754,349.943350522578 480.83890488425754,390.94463572965265" />
  <polygon fill="hsl(360.0,50.0%,51.426934746249444%)" points="454.61014155326126,363.84602311144243 454.61014155326126,357.51494230740883 474.50782408022394,351.77097612581304 474.50782408022394,358.1020569298466" />
  <polygon fill="hsl(360.0,50.0%,51.426934746249444%)" points="455.5145816681232,398.2551381425927 455.5145816681232,357.2538529355181 473.603383965362,352.03206549770374 473.603383965362,393.0333507047784" />
  <polygon fill="hsl(360.0,50.0%,51.426934746249444%)" points="460.0367822424329,353.8983418157108 460.0367822424329,335.4477634725272 469.0811833910523,332.83686975362 469.0811833910523,351.2874480968036" />
  <polygon fill="hsl(360.0,50.0%,51.426934746249444%)" points="461.8456624721568,355.4262273322831 461.8456624721568,334.9255847287458 467.2723031613284,333.35904849740143 467.2723031613284,353.8596911009388" />
  <polygon fill="hsl(360.0,50.0%,43.8291623991892%)" points="410.0924694064887,482.9096803615756 410.0924694064887,441.49838230243023 417.32799032538423,439.40966732730453 417.32799032538423,480.82096538644987" />
  <polygon fill="hsl(360.0,50.0%,43.8291623991892%)" points="428.18127170372753,477.6878929237613 428.18127170372753,436.27659486461584 420.945750784832,438.3653098397416 420.945750784832,479.776607898887" />
  <polygon fill="hsl(360.0,50.0%,43.8291623991892%)" points="402.8569484875932,443.9971101296267 402.8569484875932,402.99582492255206 409.1880292916268,401.16819931931707 409.1880292916268,442.16948452639167" />
  <polygon fill="hsl(360.0,50.0%,43.8291623991892%)" points="429.08571181858946,436.4255183447959 429.08571181858946,395.4242331377212 435.41679262262306,393.5966075344862 435.41679262262306,434.5978927415608" />
  <polygon fill="hsl(360.0,50.0%,43.8291623991892%)" points="409.1880292916268,407.4992801233507 409.1880292916268,401.16819931931707 429.08571181858946,395.4242331377212 429.08571181858946,401.7553139417548" />
  <polygon fill="hsl(360.0,50.0%,43.8291623991892%)" points="410.0924694064887,441.908395154501 410.0924694064887,400.9071099474263 428.18127170372753,395.685322509612 428.18127170372753,436.6866077166866" />
  <polygon fill="hsl(360.0,50.0%,43.8291623991892%)" points="414.61466998079845,397.551598827619 414.61466998079845,379.1010204844354 423.65907112941784,376.49012676552826 423.65907112941784,394.9407051087118" />
  <polygon fill="hsl(360.0,50.0%,43.8291623991892%)" points="416.4235502105223,399.0794843441913 416.4235502105223,378.57884174065396 421.8501908996939,377.01230550930967 421.8501908996939,397.51294811284697" />
</svg>
