<?xml version="1.0" encoding="UTF-8"?>
<svg
  xmlns="http://www.w3.org/2000/svg"
  width="848"
  height="600"
  style="background-color:white"
>
  <polygon fill="lightblue" points="394.68069616236806,554.2730211402534 242.62564627303308,422.589485162379 453.31930383763194,361.767465206645 605.374353726967,493.4510011845193" />
  <polygon fill="steelblue" points="242.62564627303308,422.589485162379 242.62564627303303,106.54899881548064 453.31930383763194,45.72697885974665 453.31930383763194,361.767465206645" />
  <polygon fill="lightskyblue" points="605.374353726967,493.4510011845193 605.3743537269669,177.410514837621 453.31930383763194,45.72697885974665 453.31930383763194,361.767465206645" />
  <polygon fill="white" points="538.4701317756595,435.5102453542546 538.4701317756595,330.16341657195517 520.2235257889394,314.3613922546102 520.2235257889394,419.7082210369097" />
  <polygon fill="hsl(324.0,50.0%,51.426934746249444%)" points="451.5305228996091,474.325105418467 451.5305228996091,438.1490044146254 457.8513326265471,436.32434381595334 457.8513326265471,472.50044481979495" />
  <polygon fill="hsl(324.0,50.0%,51.426934746249444%)" points="467.332547216954,469.7634539217869 467.332547216954,433.5873529179453 461.01173749001606,435.4120135166173 461.01173749001606,471.58811452045893" />
  <polygon fill="hsl(324.0,50.0%,51.426934746249444%)" points="445.2097131726711,440.33184423115716 445.2097131726711,404.51392244517535 450.74042168374183,402.91734442133736 450.74042168374183,438.73526620731917" />
  <polygon fill="hsl(324.0,50.0%,51.426934746249444%)" points="468.1226484328213,433.7174495609711 468.1226484328213,397.8995277749893 473.653356943892,396.30294975115123 473.653356943892,432.1208715371331" />
  <polygon fill="hsl(324.0,50.0%,51.426934746249444%)" points="450.74042168374183,408.4480529324081 450.74042168374183,402.91734442133736 468.1226484328213,397.8995277749893 468.1226484328213,403.43023628606" />
  <polygon fill="hsl(324.0,50.0%,51.426934746249444%)" points="451.5305228996091,438.5071836324852 451.5305228996091,402.6892618465033 467.332547216954,398.12761034982327 467.332547216954,433.94553213580514" />
  <polygon fill="hsl(324.0,50.0%,51.426934746249444%)" points="455.48102897894535,399.75795288303425 455.48102897894535,383.6398880793424 463.3820411376178,381.3590623310024 463.3820411376178,397.47712713469423" />
  <polygon fill="hsl(324.0,50.0%,51.426934746249444%)" points="457.06123141067985,401.0926838226653 457.06123141067985,383.18372292967445 461.8018387058833,381.8152274806704 461.8018387058833,399.7241883736613" />
</svg>
