<?xml version="1.0" encoding="UTF-8"?>
<svg
  xmlns="http://www.w3.org/2000/svg"
  width="848"
  height="600"
  style="background-color:white"
>
  <polygon fill="lightblue" points="400.7949192431123,609.8076211353316 100.7949192431123,350.0 447.2050807568877,249.99999999999997 747.2050807568877,509.8076211353316" />
  <polygon fill="steelblue" points="100.7949192431123,350.0 100.7949192431123,90.1923788646684 447.2050807568877,-9.807621135331601 447.2050807568877,249.99999999999997" />
  <polygon fill="lightskyblue" points="747.2050807568877,509.8076211353316 747.2050807568877,249.99999999999997 447.2050807568877,-9.807621135331601 447.2050807568877,249.99999999999997" />
  <polygon fill="white" points="612.2050807568877,392.8941916244323 612.2050807568877,219.68911086754463 582.2050807568877,193.70834875401147 582.2050807568877,366.9134295108992" />
  <polygon fill="white" points="128.6314500790407,272.6822534115306 128.6314500790407,203.40022110877555 171.93272026826259,190.90022110877555 171.93272026826259,260.1822534115306" />
  <polygon fill="white" points="178.11861600958002,258.39653912581633 178.11861600958002,189.11450682306128 221.41988619880195,176.61450682306122 221.41988619880195,245.89653912581633" />
  <polygon fill="white" points="227.60578194011936,244.11082484010205 227.60578194011936,174.82879253734694 270.9070521293413,162.32879253734694 270.9070521293413,231.61082484010205" />
  <polygon fill="white" points="277.0929478706587,229.82511055438778 277.0929478706587,160.54307825163266 320.3942180598806,148.04307825163266 320.39421805988064,217.32511055438775" />
  <polygon fill="white" points="326.580113801198,215.53939626867347 326.580113801198,146.2573639659184 369.88138399042,133.7573639659184 369.88138399042,203.03939626867347" />
  <polygon fill="white" points="376.0672797317374,201.25368198295916 376.0672797317374,131.9716496802041 419.3685499209593,119.47164968020411 419.3685499209593,188.75368198295916" />
</svg>
