<?xml version="1.0" encoding="UTF-8"?>
<svg
  xmlns="http://www.w3.org/2000/svg"
  width="848"
  height="600"
  style="background-color:white"
>
  <polygon fill="lightblue" points="408.79637107611603,531.351772039367 212.24076651044876,361.12962522929064 439.20362892388397,295.61109037406817 635.7592334895512,465.8332371841446" />
  <polygon fill="steelblue" points="212.24076651044876,361.12962522929064 212.24076651044876,134.1667628158554 439.20362892388397,68.64822796063294 439.20362892388397,295.61109037406817" />
  <polygon fill="lightskyblue" points="635.7592334895512,465.8332371841446 635.7592334895512,238.87037477070936 439.20362892388397,68.64822796063294 439.20362892388397,295.61109037406817" />
  <polygon fill="white" points="547.309211435001,389.2332711196102 547.309211435001,275.7518399128926 527.6536509784343,258.72962523188494 527.6536509784343,372.21105643860255" />
  <polygon fill="white" points="243.44816009229612,306.72825420401045 243.44816009229612,261.33568172132345 271.8185178939755,253.14586486442062 271.8185178939755,298.5384373471077" />
  <polygon fill="white" points="288.8407325749832,293.624547232966 288.8407325749831,248.23197475027894 317.2110903766626,240.04215789337616 317.2110903766626,285.4347303760632" />
  <polygon fill="white" points="334.23330505767024,280.5208402619215 334.23330505767024,235.12826777923448 362.60366285934964,226.93845092233164 362.60366285934964,272.3310234050187" />
  <polygon fill="white" points="379.62587754035724,267.417133290877 379.62587754035724,222.02456080818996 407.99623534203664,213.83474395128718 407.99623534203664,259.22731643397424" />
  <polygon fill="antiquewhite" points="493.87753928039933,439.31387683862454 493.87753928039933,342.8546603129146 516.5738255217428,336.3028068273924 516.5738255217428,432.76202335310234" />
  <polygon fill="beige" points="493.87753928039933,439.31387683862454 493.87753928039933,342.8546603129146 480.7738323093548,331.5065171922428 480.7738323093548,427.96573371795284" />
  <polygon fill="bisque" points="493.87753928039933,342.8546603129146 480.7738323093548,331.5065171922428 503.4701185506984,324.95466370672057 516.5738255217428,336.3028068273924" />
  <polygon fill="antiquewhite" points="421.1499574928605,512.9988928510054 421.1499574928605,416.53967632529543 443.846243734204,409.9878228397732 443.846243734204,506.44703936548314" />
  <polygon fill="beige" points="421.1499574928605,512.9988928510054 421.1499574928605,416.53967632529543 408.046250521816,405.1915332046236 408.046250521816,501.6507497303336" />
  <polygon fill="bisque" points="421.1499574928605,416.53967632529543 408.046250521816,405.1915332046236 430.7425367631595,398.6396797191014 443.846243734204,409.9878228397732" />
</svg>
