<?xml version="1.0" encoding="UTF-8"?>
<svg
  xmlns="http://www.w3.org/2000/svg"
  width="848"
  height="600"
  style="background-color:white"
>
  <polygon fill="lightblue" points="409.8862011513016,541.1046675424659 227.4201412840996,383.0844243690167 438.1137988486985,322.2624044132827 620.5798587159004,480.28264758673185" />
  <polygon fill="steelblue" points="227.4201412840996,383.0844243690167 227.42014128409954,119.71735241326812 438.1137988486984,58.895332457534124 438.1137988486985,322.2624044132827" />
  <polygon fill="lightskyblue" points="620.5798587159004,480.28264758673185 620.5798587159004,216.9155756309833 438.1137988486984,58.895332457534124 438.1137988486985,322.2624044132827" />
  <polygon fill="white" points="538.4701317756595,409.1735381586797 538.4701317756595,303.8267093763803 520.2235257889394,288.0246850590354 520.2235257889394,393.37151384133483" />
  <polygon fill="white" points="256.3905191992319,332.5826651121835 256.3905191992319,290.44393359926374 282.72722639480673,282.841181104797 282.72722639480673,324.97991261771676" />
  <polygon fill="white" points="298.5292507121517,320.4182611210367 298.5292507121517,278.27952960811695 324.86595790772657,270.6767771136502 324.86595790772657,312.81550862656997" />
  <polygon fill="white" points="340.66798222507146,308.2538571298899 340.66798222507146,266.11512561697015 367.00468942064634,258.5123731225034 367.00468942064634,300.65110463542317" />
  <polygon fill="white" points="382.80671373799123,296.0894531387431 382.80671373799123,253.95072162582332 409.1434209335661,246.34796913135656 409.1434209335661,288.48670064427637" />
  <polygon fill="antiquewhite" points="488.86856120884795,455.664254215868 488.86856120884795,366.1194497509135 509.93792696530784,360.0372477553401 509.93792696530784,449.5820522202946" />
  <polygon fill="beige" points="488.86856120884795,455.664254215868 488.86856120884795,366.1194497509135 476.70415721770115,355.58476687268353 476.70415721770115,445.129571337638" />
  <polygon fill="bisque" points="488.86856120884795,366.1194497509135 476.70415721770115,355.58476687268353 497.77352297416104,349.5025648771101 509.93792696530784,360.0372477553401" />
  <polygon fill="antiquewhite" points="421.3542549047079,524.0673637213971 421.3542549047079,434.5225592564426 442.4236206611678,428.4403572608692 442.4236206611678,517.9851617258237" />
  <polygon fill="beige" points="421.3542549047079,524.0673637213971 421.3542549047079,434.5225592564426 409.1898509135611,423.98787637821266 409.1898509135611,513.5326808431671" />
  <polygon fill="bisque" points="421.3542549047079,434.5225592564426 409.1898509135611,423.98787637821266 430.259216670021,417.90567438263923 442.4236206611678,428.4403572608692" />
</svg>
