<?xml version="1.0" encoding="UTF-8"?>
<svg
  xmlns="http://www.w3.org/2000/svg"
  width="848"
  height="600"
  style="background-color:white"
>
  <polygon fill="lightblue" points="407.91049563499496,544.8320308733323 199.9021133298045,364.69148759693184 440.08950436500504,295.3553601618683 648.0978866701955,475.4959034382687" />
  <polygon fill="steelblue" points="199.9021133298045,364.69148759693184 199.9021133298045,124.50409656173127 440.08950436500504,55.16796912666774 440.08950436500504,295.3553601618683" />
  <polygon fill="lightskyblue" points="648.0978866701955,475.4959034382687 648.0978866701955,235.30851240306816 440.08950436500504,55.16796912666774 440.08950436500504,295.3553601618683" />
  <polygon fill="white" points="519.8260509153281,364.40923508448844 519.8260509153281,250.32022434276823 499.02521268480905,232.30617001512817 499.02521268480905,346.39518075684845" />
  <polygon fill="white" points="589.1621783503915,424.45608284328864 589.1621783503915,310.36707210156834 568.3613401198725,292.35301777392834 568.3613401198725,406.4420285156486" />
  <polygon fill="hsl(288.0,50.0%,50.65955712546234%)" points="463.36540351436554,445.5927680948422 463.36540351436554,404.3525930540983 470.5710252454216,402.2725092310464 470.5710252454216,443.51268427179036" />
  <polygon fill="hsl(288.0,50.0%,50.65955712546234%)" points="481.3794578420056,440.3925585372125 481.3794578420056,399.15238349646853 474.1738361109496,401.2324673195204 474.1738361109496,442.47264236026433" />
  <polygon fill="hsl(288.0,50.0%,50.65955712546234%)" points="456.15978178330954,406.84099544191 456.15978178330954,366.00913896592596 462.46470079798354,364.1890656207555 462.46470079798354,405.02092209673964" />
  <polygon fill="hsl(288.0,50.0%,50.65955712546234%)" points="482.2801605583876,399.30069158334686 482.2801605583876,358.4688351073628 488.5850795730616,356.6487617621924 488.5850795730616,397.4806182381765" />
  <polygon fill="hsl(288.0,50.0%,50.65955712546234%)" points="462.46470079798354,370.49398463542957 462.46470079798354,364.1890656207555 482.2801605583876,358.4688351073628 482.2801605583876,364.7737541220368" />
  <polygon fill="hsl(288.0,50.0%,50.65955712546234%)" points="463.36540351436554,404.76091161885813 463.36540351436554,363.92905514287406 481.3794578420056,358.7288455852443 481.3794578420056,399.56070206122837" />
  <polygon fill="hsl(288.0,50.0%,50.65955712546234%)" points="467.86891709627554,360.5874099296674 467.86891709627554,342.21307451547455 476.8759442600956,339.6129697366597 476.8759442600956,357.98730515085254" />
  <polygon fill="hsl(288.0,50.0%,50.65955712546234%)" points="469.6703225290396,362.1089817977036 469.6703225290396,341.6930535597116 475.0745388273316,340.13299069242265 475.0745388273316,360.5489189304147" />
</svg>
