<?xml version="1.0" encoding="UTF-8"?>
<svg
  xmlns="http://www.w3.org/2000/svg"
  width="848"
  height="600"
  style="background-color:white"
>
  <polygon fill="lightblue" points="407.266241124715,523.4099542301961 190.92880557860374,336.0562392576852 440.733758875285,263.9437607423148 657.0711944213963,451.29747571482574" />
  <polygon fill="steelblue" points="190.92880557860374,336.0562392576852 190.92880557860374,148.70252428517423 440.733758875285,76.59004576980382 440.733758875285,263.9437607423148" />
  <polygon fill="lightskyblue" points="657.0711944213963,451.29747571482574 657.0711944213963,263.9437607423148 440.733758875285,76.59004576980382 440.733758875285,263.9437607423148" />
  <polygon fill="white" points="559.7193484256462,366.9883039771958 559.7193484256462,242.08582732885517 538.0856048710351,223.35045583160408 538.0856048710351,348.2529324799447" />
  <polygon fill="white" points="211.00241789708707,280.3004958605067 211.00241789708707,230.33950520117043 242.2280370591722,221.32544538674915 242.2280370591722,271.2864360460854" />
  <polygon fill="white" points="246.68883979661297,269.9987132154538 246.68883979661297,220.03772255611753 277.9144589586981,211.02366274169623 277.9144589586981,260.98465340103246" />
  <polygon fill="white" points="282.37526169613886,259.69693057040087 282.37526169613886,209.73593991106458 313.600880858224,200.7218800966433 313.600880858224,250.68287075597954" />
  <polygon fill="white" points="318.06168359566476,249.39514792534794 318.06168359566476,199.43415726601168 349.2873027577499,190.42009745159038 349.2873027577499,240.3810881109266" />
  <polygon fill="white" points="353.7481054951906,239.09336528029502 353.7481054951906,189.13237462095876 384.9737246572758,180.11831480653746 384.9737246572758,230.07930546587372" />
  <polygon fill="white" points="389.4345273947165,228.7915826352421 389.4345273947165,178.83059197590586 420.6601465568017,169.81653216148453 420.6601465568017,219.77752282082076" />
</svg>
