<?xml version="1.0" encoding="UTF-8"?>
<svg
  xmlns="http://www.w3.org/2000/svg"
  width="848"
  height="600"
  style="background-color:white"
>
  <polygon fill="lightblue" points="406.29120903866027,536.4274642434539 177.34836052799383,338.15714141844444 441.70879096133973,261.84285858155556 670.6516394720062,460.11318140656505" />
  <polygon fill="steelblue" points="177.34836052799383,338.15714141844444 177.34836052799383,139.88681859343495 441.70879096133973,63.57253575654613 441.70879096133973,261.84285858155556" />
  <polygon fill="lightskyblue" points="670.6516394720062,460.11318140656505 670.6516394720062,261.84285858155556 441.70879096133973,63.57253575654613 441.70879096133973,261.84285858155556" />
  <polygon fill="white" points="213.6979197125789,274.791841441703 213.6979197125789,221.91975535503383 246.74297351674713,212.38047000042272 246.74297351674713,265.2525560870919" />
  <polygon fill="white" points="266.57000579924807,259.52898487432526 266.57000579924807,206.65689878765605 299.6150596034163,197.11761343304494 299.6150596034163,249.98969951971412" />
  <polygon fill="white" points="319.4420918859173,244.26612830694745 319.4420918859173,191.39404222027827 352.4871456900855,181.85475686566718 352.4871456900855,234.72684295233637" />
  <polygon fill="white" points="372.31417797258644,229.0032717395697 372.31417797258644,176.1311856529005 405.3592317767547,166.5919002982894 405.3592317767547,219.46398638495862" />
  <polygon fill="hsl(324.0,50.0%,72.09185257592405%)" points="392.4963197634694,335.485329163082 392.4963197634694,290.09464325767647 400.4271326764698,287.8052147725698 400.4271326764698,333.1959006779753" />
  <polygon fill="hsl(324.0,50.0%,72.09185257592405%)" points="412.32335204597035,329.7617579503153 412.32335204597035,284.3710720449098 404.39253913296994,286.66050053001646 404.39253913296994,332.051186435422" />
  <polygon fill="hsl(324.0,50.0%,72.09185257592405%)" points="384.56550685046903,292.8334844745198 384.56550685046903,247.89221130085102 391.50496814934434,245.8889613763827 391.50496814934434,290.8302345500515" />
  <polygon fill="hsl(324.0,50.0%,72.09185257592405%)" points="413.3147036600954,284.5343062160082 413.3147036600954,239.59303304233936 420.2541649589707,237.58978311787104 420.2541649589707,282.5310562915398" />
  <polygon fill="hsl(324.0,50.0%,72.09185257592405%)" points="391.50496814934434,252.82842267525803 391.50496814934434,245.8889613763827 413.3147036600954,239.59303304233936 413.3147036600954,246.5324943412147" />
  <polygon fill="hsl(324.0,50.0%,72.09185257592405%)" points="392.4963197634694,290.54405598941315 392.4963197634694,245.60278281574435 412.32335204597035,239.8792116029777 412.32335204597035,284.8204847766465" />
  <polygon fill="hsl(324.0,50.0%,72.09185257592405%)" points="397.45307783409464,241.92482635386926 397.45307783409464,221.7012534257183 407.3665939753451,218.83946781933497 407.3665939753451,239.0630407474859" />
  <polygon fill="hsl(324.0,50.0%,72.09185257592405%)" points="399.43578106234474,243.59953289127603 399.43578106234474,221.12889630444164 405.383890747095,219.4118249406116 405.383890747095,241.88246152744603" />
  <polygon fill="hsl(324.0,50.0%,50.65955712546234%)" points="467.3272328426053,427.2005222672837 467.3272328426053,381.8098363618782 475.25804575560574,379.52040787677157 475.25804575560574,424.9110937821771" />
  <polygon fill="hsl(324.0,50.0%,50.65955712546234%)" points="487.15426512510624,421.47695105451703 487.15426512510624,376.08626514911157 479.2234522121059,378.37569363421824 479.2234522121059,423.7663795396237" />
  <polygon fill="hsl(324.0,50.0%,50.65955712546234%)" points="459.3964199296049,384.5486775787216 459.3964199296049,339.60740440505276 466.3358812284803,337.60415448058444 466.3358812284803,382.5454276542532" />
  <polygon fill="hsl(324.0,50.0%,50.65955712546234%)" points="488.1456167392313,376.2494993202099 488.1456167392313,331.3082261465411 495.08507803810664,329.30497622207275 495.08507803810664,374.2462493957416" />
  <polygon fill="hsl(324.0,50.0%,50.65955712546234%)" points="466.3358812284803,344.54361577945974 466.3358812284803,337.60415448058444 488.1456167392313,331.3082261465411 488.1456167392313,338.24768744541643" />
  <polygon fill="hsl(324.0,50.0%,50.65955712546234%)" points="467.3272328426053,382.2592490936149 467.3272328426053,337.3179759199461 487.15426512510624,331.5944047071794 487.15426512510624,376.53567788084825" />
  <polygon fill="hsl(324.0,50.0%,50.65955712546234%)" points="472.2839909132305,333.640019458071 472.2839909132305,313.41644652992005 482.19750705448104,310.5546609235367 482.19750705448104,330.7782338516877" />
  <polygon fill="hsl(324.0,50.0%,50.65955712546234%)" points="474.2666941414806,335.3147259954778 474.2666941414806,312.84408940864336 480.21480382623093,311.1270180448134 480.21480382623093,333.59765463164774" />
  <polygon fill="hsl(324.0,50.0%,42.21758785095096%)" points="427.2039589946752,483.4175663680177 427.2039589946752,438.02688046261216 435.1347719076756,435.7374519775055 435.1347719076756,481.128137882911" />
  <polygon fill="hsl(324.0,50.0%,42.21758785095096%)" points="447.03099127717616,477.693995155251 447.03099127717616,432.3033092498455 439.10017836417575,434.59273773495215 439.1001783641758,479.9834236403576" />
  <polygon fill="hsl(324.0,50.0%,42.21758785095096%)" points="419.27314608167484,440.7657216794555 419.27314608167484,395.8244485057867 426.21260738055014,393.82119858131836 426.21260738055014,438.76247175498713" />
  <polygon fill="hsl(324.0,50.0%,42.21758785095096%)" points="448.0223428913012,432.4665434209438 448.0223428913012,387.52527024727505 454.9618041901765,385.5220203228067 454.9618041901765,430.46329349647556" />
  <polygon fill="hsl(324.0,50.0%,42.21758785095096%)" points="426.21260738055014,400.76065988019366 426.21260738055014,393.82119858131836 448.0223428913012,387.52527024727505 448.0223428913012,394.46473154615035" />
  <polygon fill="hsl(324.0,50.0%,42.21758785095096%)" points="427.2039589946752,438.47629319434884 427.2039589946752,393.53502002068 447.03099127717616,387.8114488079134 447.03099127717616,432.75272198158217" />
  <polygon fill="hsl(324.0,50.0%,42.21758785095096%)" points="432.16071706530045,389.85706355880495 432.16071706530045,369.63349063065397 442.0742332065509,366.77170502427066 442.0742332065509,386.9952779524216" />
  <polygon fill="hsl(324.0,50.0%,42.21758785095096%)" points="434.14342029355055,391.5317700962117 434.14342029355055,369.0611335093773 440.0915299783008,367.3440621455473 440.0915299783008,389.81469873238166" />
  <polygon fill="hsl(324.0,50.0%,41.7579500056716%)" points="531.7323841033065,455.67301035322987 531.7323841033065,410.2823244478244 539.6631970163069,407.99289596271774 539.6631970163069,453.3835818681232" />
  <polygon fill="hsl(324.0,50.0%,41.7579500056716%)" points="551.5594163858074,449.94943914046326 551.5594163858074,404.55875323505774 543.628603472807,406.84818172016435 543.628603472807,452.2388676255699" />
  <polygon fill="hsl(324.0,50.0%,41.7579500056716%)" points="523.801571190306,413.0211656646677 523.801571190306,368.07989249099893 530.7410324891814,366.0766425665306 530.7410324891814,411.0179157401994" />
  <polygon fill="hsl(324.0,50.0%,41.7579500056716%)" points="552.5507679999324,404.7219874061561 552.5507679999324,359.78071423248724 559.4902292988078,357.7774643080189 559.4902292988078,402.71873748168775" />
  <polygon fill="hsl(324.0,50.0%,41.7579500056716%)" points="530.7410324891814,373.0161038654059 530.7410324891814,366.0766425665306 552.5507679999324,359.78071423248724 552.5507679999324,366.7201755313626" />
  <polygon fill="hsl(324.0,50.0%,41.7579500056716%)" points="531.7323841033065,410.73173717956104 531.7323841033065,365.79046400589226 551.5594163858074,360.0668927931256 551.5594163858074,405.0081659667944" />
  <polygon fill="hsl(324.0,50.0%,41.7579500056716%)" points="536.6891421739316,362.11250754401715 536.6891421739316,341.8889346158662 546.6026583151821,339.02714900948286 546.6026583151821,359.2507219376338" />
  <polygon fill="hsl(324.0,50.0%,41.7579500056716%)" points="538.6718454021817,363.78721408142394 538.6718454021817,341.3165774945895 544.619955086932,339.59950613075955 544.619955086932,362.0701427175939" />
</svg>
