<?xml version="1.0" encoding="UTF-8"?>
<svg
  xmlns="http://www.w3.org/2000/svg"
  width="848"
  height="600"
  style="background-color:white"
>
  <polygon fill="lightblue" points="410.7184067789952,551.6719692419688 239.01127039599547,402.9692271232118 437.2815932210048,345.73351499554525 608.9887296040046,494.4362571143023" />
  <polygon fill="steelblue" points="239.01127039599547,402.9692271232118 239.0112703959954,105.56374288569774 437.2815932210048,48.32803075803116 437.2815932210048,345.73351499554525" />
  <polygon fill="lightskyblue" points="608.9887296040046,494.4362571143023 608.9887296040046,197.0307728767882 437.2815932210048,48.32803075803116 437.2815932210048,345.73351499554525" />
  <polygon fill="white" points="531.7205182316546,427.52002316086157 531.7205182316546,328.3848617483569 514.5498045933547,313.5145875364812 514.5498045933547,412.6497489489859" />
  <polygon fill="white" points="292.7094828277688,347.8138238569669 292.7094828277688,308.15975929196503 317.493273180895,301.0052952760067 317.493273180895,340.6593598410086" />
  <polygon fill="white" points="358.7995904361053,328.7352531477447 358.7995904361053,289.0811885827428 383.58338078923146,281.9267245667845 383.58338078923146,321.5807891317864" />
  <polygon fill="antiquewhite" points="485.04365323920024,471.26946197915345 485.0436532392002,387.0045747785245 504.87068552170115,381.2810035657578 504.87068552170115,465.54589076638683" />
  <polygon fill="beige" points="485.04365323920024,471.26946197915345 485.0436532392002,387.0045747785245 473.5965108136669,377.09105863727405 473.5965108136669,461.35594583790305" />
  <polygon fill="bisque" points="485.0436532392002,387.0045747785245 473.5965108136669,377.09105863727405 493.42354309616786,371.3674874245074 504.87068552170115,381.2810035657578" />
  <polygon fill="antiquewhite" points="421.51025854209485,535.6392525113507 421.51025854209485,451.3743653107217 441.33729082459575,445.6507940979551 441.3372908245958,529.9156812985841" />
  <polygon fill="beige" points="421.51025854209485,535.6392525113507 421.51025854209485,451.3743653107217 410.06311611656156,441.46084916947126 410.06311611656156,525.7257363701002" />
  <polygon fill="bisque" points="421.51025854209485,451.3743653107217 410.06311611656156,441.46084916947126 429.89014839906247,435.7372779567046 441.33729082459575,445.6507940979551" />
</svg>
