<?xml version="1.0" encoding="UTF-8"?>
<svg
  xmlns="http://www.w3.org/2000/svg"
  width="848"
  height="600"
  style="background-color:white"
>
  <polygon fill="lightblue" points="409.8862011513016,541.1046675424659 227.4201412840996,383.0844243690167 438.1137988486985,322.2624044132827 620.5798587159004,480.28264758673185" />
  <polygon fill="steelblue" points="227.4201412840996,383.0844243690167 227.42014128409954,119.71735241326812 438.1137988486984,58.895332457534124 438.1137988486985,322.2624044132827" />
  <polygon fill="lightskyblue" points="620.5798587159004,480.28264758673185 620.5798587159004,216.9155756309833 438.1137988486984,58.895332457534124 438.1137988486985,322.2624044132827" />
  <polygon fill="white" points="538.4701317756595,409.1735381586797 538.4701317756595,303.8267093763803 520.2235257889394,288.0246850590354 520.2235257889394,393.37151384133483" />
  <polygon fill="white" points="249.36739728041192,334.61006577737464 249.36739728041192,292.47133426445487 275.7041044759868,284.8685817699881 275.7041044759868,327.0073132829079" />
  <polygon fill="white" points="284.4830068745117,324.47306245141897 284.4830068745117,282.3343309384992 310.8197140700866,274.73157844403244 310.81971407008666,316.8703099569522" />
  <polygon fill="white" points="319.59861646861157,314.3360591254633 319.59861646861157,272.1973276125435 345.93532366418646,264.59457511807676 345.93532366418646,306.7333066309966" />
  <polygon fill="white" points="354.7142260627114,304.1990557995076 354.71422606271136,262.06032428658784 381.05093325828625,254.45757179212112 381.05093325828625,296.5963033050409" />
  <polygon fill="white" points="389.82983565681116,294.062052473552 389.82983565681116,251.9233209606322 416.16654285238604,244.32056846616544 416.16654285238604,286.45929997908524" />
  <polygon fill="grey" points="426.9825966420571,116.5378286235931 426.98259664205705,90.20112142801824 453.31930383763194,82.59836893355148 453.31930383763194,108.93507612912634" />
  <polygon fill="lightgrey" points="426.9825966420571,116.5378286235931 426.98259664205705,90.20112142801824 411.7770916531236,77.03276783023082 411.7770916531236,103.36947502580566" />
  <polygon fill="darkgrey" points="426.98259664205705,90.20112142801824 411.7770916531236,77.03276783023082 438.1137988486984,69.43001533576407 453.31930383763194,82.59836893355148" />
  <polygon fill="hsl(360.0,50.0%,50.65955712546234%)" points="458.5315414443736,454.0514581350241 458.5315414443736,417.8753571311825 464.85235117131157,416.05069653251047 464.85235117131157,452.2267975363521" />
  <polygon fill="hsl(360.0,50.0%,50.65955712546234%)" points="474.3335657617185,449.4898066383441 474.3335657617185,413.3137056345024 468.0127560347805,415.13836623317445 468.0127560347805,451.31446723701606" />
  <polygon fill="hsl(360.0,50.0%,50.65955712546234%)" points="452.21073171743564,420.05819694771435 452.21073171743564,384.24027516173254 457.74144022850635,382.6436971378945 457.74144022850635,418.4616189238763" />
  <polygon fill="hsl(360.0,50.0%,50.65955712546234%)" points="475.12366697758574,413.4438022775283 475.12366697758574,377.62588049154647 480.65437548865646,376.0293024677084 480.65437548865646,411.84722425369023" />
  <polygon fill="hsl(360.0,50.0%,50.65955712546234%)" points="457.74144022850635,388.17440564896526 457.74144022850635,382.6436971378945 475.12366697758574,377.62588049154647 475.12366697758574,383.1565890026172" />
  <polygon fill="hsl(360.0,50.0%,50.65955712546234%)" points="458.5315414443736,418.2335363490423 458.5315414443736,382.4156145630605 474.3335657617185,377.85396306638046 474.3335657617185,413.67188485236227" />
  <polygon fill="hsl(360.0,50.0%,50.65955712546234%)" points="462.4820475237098,379.4843055995914 462.4820475237098,363.3662407958996 470.3830596823823,361.0854150475596 470.3830596823823,377.20347985125136" />
  <polygon fill="hsl(360.0,50.0%,50.65955712546234%)" points="464.0622499554443,380.81903653922245 464.0622499554443,362.9100756462316 468.8028572506478,361.5415801972276 468.8028572506478,379.4505410902185" />
</svg>
