<?xml version="1.0" encoding="UTF-8"?>
<svg
  xmlns="http://www.w3.org/2000/svg"
  width="848"
  height="600"
  style="background-color:white"
>
  <polygon fill="lightblue" points="407.91049563499496,544.8320308733323 199.9021133298045,364.69148759693184 440.08950436500504,295.3553601618683 648.0978866701955,475.4959034382687" />
  <polygon fill="steelblue" points="199.9021133298045,364.69148759693184 199.9021133298045,124.50409656173127 440.08950436500504,55.16796912666774 440.08950436500504,295.3553601618683" />
  <polygon fill="lightskyblue" points="648.0978866701955,475.4959034382687 648.0978866701955,235.30851240306816 440.08950436500504,55.16796912666774 440.08950436500504,295.3553601618683" />
  <polygon fill="white" points="554.4941146328598,394.43265896388857 554.4941146328598,274.3389634462883 533.6932764023408,256.32490911864824 533.6932764023408,376.4186046362485" />
  <polygon fill="white" points="232.9278795971446,307.1202918675705 232.9278795971446,259.08281366053035 262.9513034765447,250.41579773114742 262.9513034765447,298.4532759381875" />
  <polygon fill="white" points="280.9653578041847,293.25306638055775 280.9653578041847,245.21558817351766 310.98878168358476,236.54857224413473 310.98878168358476,284.58605045117486" />
  <polygon fill="white" points="329.0028360112249,279.38584089354504 329.0028360112249,231.34836268650497 359.0262598906249,222.68134675712201 359.0262598906249,270.71882496416214" />
  <polygon fill="white" points="377.04031421826494,265.5186154065324 377.04031421826494,217.48113719949225 407.063738097665,208.8141212701093 407.063738097665,256.8515994771494" />
  <polygon fill="grey" points="427.4001123443709,120.87949042691082 427.4001123443709,90.85606654751078 457.42353622377095,82.18905061812785 457.42353622377095,112.21247449752786" />
  <polygon fill="lightgrey" points="427.4001123443709,120.87949042691082 427.4001123443709,90.85606654751078 410.066080485605,75.84435460781074 410.066080485605,105.86777848721078" />
  <polygon fill="darkgrey" points="427.4001123443709,90.85606654751078 410.066080485605,75.84435460781074 440.08950436500504,67.17733867842782 457.42353622377095,82.18905061812785" />
  <polygon fill="hsl(324.0,50.0%,72.09185257592405%)" points="395.37700694610066,362.26398506223165 395.37700694610066,321.0238100214877 402.5826286771567,318.9437261984358 402.5826286771567,360.1839012391797" />
  <polygon fill="hsl(324.0,50.0%,72.09185257592405%)" points="413.3910612737407,357.0637755046019 413.3910612737407,315.82360046385793 406.1854395426847,317.9036842869098 406.1854395426847,359.1438593276538" />
  <polygon fill="hsl(324.0,50.0%,72.09185257592405%)" points="388.17138521504467,323.5122124092994 388.17138521504467,282.68035593331535 394.47630422971866,280.8602825881449 394.47630422971866,321.69213906412904" />
  <polygon fill="hsl(324.0,50.0%,72.09185257592405%)" points="414.2917639901227,315.97190855073626 414.2917639901227,275.1400520747522 420.5966830047967,273.31997872958175 420.5966830047967,314.1518352055659" />
  <polygon fill="hsl(324.0,50.0%,72.09185257592405%)" points="394.47630422971866,287.16520160281897 394.47630422971866,280.8602825881449 414.2917639901227,275.1400520747522 414.2917639901227,281.4449710894262" />
  <polygon fill="hsl(324.0,50.0%,72.09185257592405%)" points="395.37700694610066,321.43212858624753 395.37700694610066,280.60027211026346 413.3910612737407,275.4000625526337 413.3910612737407,316.23191902861777" />
  <polygon fill="hsl(324.0,50.0%,72.09185257592405%)" points="399.88052052801066,277.2586268970568 399.88052052801066,258.88429148286394 408.8875476918307,256.2841867040491 408.8875476918307,274.65852211824193" />
  <polygon fill="hsl(324.0,50.0%,72.09185257592405%)" points="401.6819259607747,278.780198765093 401.6819259607747,258.364270527101 407.0861422590667,256.80420765981205 407.0861422590667,277.2201358978041" />
  <polygon fill="hsl(324.0,50.0%,50.65955712546234%)" points="463.36540351436554,445.5927680948422 463.36540351436554,404.3525930540983 470.5710252454216,402.2725092310464 470.5710252454216,443.51268427179036" />
  <polygon fill="hsl(324.0,50.0%,50.65955712546234%)" points="481.3794578420056,440.3925585372125 481.3794578420056,399.15238349646853 474.1738361109496,401.2324673195204 474.1738361109496,442.47264236026433" />
  <polygon fill="hsl(324.0,50.0%,50.65955712546234%)" points="456.15978178330954,406.84099544191 456.15978178330954,366.00913896592596 462.46470079798354,364.1890656207555 462.46470079798354,405.02092209673964" />
  <polygon fill="hsl(324.0,50.0%,50.65955712546234%)" points="482.2801605583876,399.30069158334686 482.2801605583876,358.4688351073628 488.5850795730616,356.6487617621924 488.5850795730616,397.4806182381765" />
  <polygon fill="hsl(324.0,50.0%,50.65955712546234%)" points="462.46470079798354,370.49398463542957 462.46470079798354,364.1890656207555 482.2801605583876,358.4688351073628 482.2801605583876,364.7737541220368" />
  <polygon fill="hsl(324.0,50.0%,50.65955712546234%)" points="463.36540351436554,404.76091161885813 463.36540351436554,363.92905514287406 481.3794578420056,358.7288455852443 481.3794578420056,399.56070206122837" />
  <polygon fill="hsl(324.0,50.0%,50.65955712546234%)" points="467.86891709627554,360.5874099296674 467.86891709627554,342.21307451547455 476.8759442600956,339.6129697366597 476.8759442600956,357.98730515085254" />
  <polygon fill="hsl(324.0,50.0%,50.65955712546234%)" points="469.6703225290396,362.1089817977036 469.6703225290396,341.6930535597116 475.0745388273316,340.13299069242265 475.0745388273316,360.5489189304147" />
  <polygon fill="hsl(324.0,50.0%,42.21758785095096%)" points="426.91098993390705,496.6693423466403 426.91098993390705,455.4291673058964 434.11661166496305,453.3490834828445 434.11661166496305,494.5892585235884" />
  <polygon fill="hsl(324.0,50.0%,42.21758785095096%)" points="444.9250442615471,491.4691327890106 444.9250442615471,450.2289577482666 437.71942253049104,452.3090415713185 437.71942253049104,493.5492166120624" />
  <polygon fill="hsl(324.0,50.0%,42.21758785095096%)" points="419.705368202851,457.9175696937081 419.705368202851,417.08571321772405 426.01028721752505,415.2656398725536 426.01028721752505,456.0974963485377" />
  <polygon fill="hsl(324.0,50.0%,42.21758785095096%)" points="445.8257469779291,450.37726583514495 445.82574697792904,409.5454093591609 452.1306659926031,407.7253360139905 452.1306659926031,448.55719248997457" />
  <polygon fill="hsl(324.0,50.0%,42.21758785095096%)" points="426.01028721752505,421.57055888722766 426.01028721752505,415.2656398725536 445.82574697792904,409.5454093591609 445.82574697792904,415.85032837383494" />
  <polygon fill="hsl(324.0,50.0%,42.21758785095096%)" points="426.91098993390705,455.8374858706562 426.91098993390705,415.00562939467216 444.9250442615471,409.8054198370424 444.9250442615471,450.63727631302646" />
  <polygon fill="hsl(324.0,50.0%,42.21758785095096%)" points="431.41450351581705,411.6639841814655 431.41450351581705,393.28964876727264 440.42153067963704,390.6895439884578 440.42153067963704,409.0638794026506" />
  <polygon fill="hsl(324.0,50.0%,42.21758785095096%)" points="433.21590894858105,413.1855560495017 433.21590894858105,392.7696278115097 438.62012524687304,391.20956494422074 438.62012524687304,411.6254931822128" />
  <polygon fill="hsl(324.0,50.0%,41.7579500056716%)" points="521.88136683451,471.46174030991244 521.88136683451,430.22156526916854 529.086988565566,428.14148144611664 529.086988565566,469.3816564868606" />
  <polygon fill="hsl(324.0,50.0%,41.7579500056716%)" points="539.89542116215,466.26153075228274 539.89542116215,425.0213557115388 532.689799431094,427.1014395345907 532.689799431094,468.34161457533463" />
  <polygon fill="hsl(324.0,50.0%,41.7579500056716%)" points="514.6757451034539,432.7099676569803 514.6757451034539,391.8781111809962 520.980664118128,390.0580378358258 520.980664118128,430.8898943118099" />
  <polygon fill="hsl(324.0,50.0%,41.7579500056716%)" points="540.796123878532,425.1696637984171 540.796123878532,384.33780732243304 547.101042893206,382.51773397726265 547.101042893206,423.3495904532467" />
  <polygon fill="hsl(324.0,50.0%,41.7579500056716%)" points="520.980664118128,396.3629568504998 520.980664118128,390.0580378358258 540.796123878532,384.33780732243304 540.796123878532,390.6427263371071" />
  <polygon fill="hsl(324.0,50.0%,41.7579500056716%)" points="521.88136683451,430.6298838339284 521.88136683451,389.7980273579443 539.89542116215,384.59781780031454 539.89542116215,425.4296742762986" />
  <polygon fill="hsl(324.0,50.0%,41.7579500056716%)" points="526.38488041642,386.45638214473763 526.38488041642,368.08204673054485 535.3919075802401,365.48194195172994 535.3919075802401,383.8562773659228" />
  <polygon fill="hsl(324.0,50.0%,41.7579500056716%)" points="528.186285849184,387.9779540127739 528.186285849184,367.5620257747819 533.590502147476,366.00196290749295 533.590502147476,386.41789114548493" />
</svg>
