<?xml version="1.0" encoding="UTF-8"?>
<svg
  xmlns="http://www.w3.org/2000/svg"
  width="848"
  height="600"
  style="background-color:white"
>
  <polygon fill="lightblue" points="409.8862011513016,541.1046675424659 227.4201412840996,383.0844243690167 438.1137988486985,322.2624044132827 620.5798587159004,480.28264758673185" />
  <polygon fill="steelblue" points="227.4201412840996,383.0844243690167 227.42014128409954,119.71735241326812 438.1137988486984,58.895332457534124 438.1137988486985,322.2624044132827" />
  <polygon fill="lightskyblue" points="620.5798587159004,480.28264758673185 620.5798587159004,216.9155756309833 438.1137988486984,58.895332457534124 438.1137988486985,322.2624044132827" />
  <polygon fill="white" points="266.92520207746185,329.5415641143968 266.92520207746185,287.40283260147703 293.26190927303674,279.8000801070103 293.26190927303674,321.93881161993005" />
  <polygon fill="white" points="319.59861646861157,314.3360591254633 319.59861646861157,272.1973276125435 345.93532366418646,264.59457511807676 345.93532366418646,306.7333066309966" />
  <polygon fill="white" points="372.2720308597613,299.13055413652984 372.2720308597613,256.99182262361 398.6087380553362,249.38907012914328 398.6087380553362,291.5278016420631" />
  <polygon fill="grey" points="426.9825966420571,116.5378286235931 426.98259664205705,90.20112142801824 453.31930383763194,82.59836893355148 453.31930383763194,108.93507612912634" />
  <polygon fill="lightgrey" points="426.9825966420571,116.5378286235931 426.98259664205705,90.20112142801824 411.7770916531236,77.03276783023082 411.7770916531236,103.36947502580566" />
  <polygon fill="darkgrey" points="426.98259664205705,90.20112142801824 411.7770916531236,77.03276783023082 438.1137988486984,69.43001533576407 453.31930383763194,82.59836893355148" />
  <polygon fill="hsl(288.0,50.0%,50.65955712546234%)" points="458.5315414443736,454.0514581350241 458.5315414443736,417.8753571311825 464.85235117131157,416.05069653251047 464.85235117131157,452.2267975363521" />
  <polygon fill="hsl(288.0,50.0%,50.65955712546234%)" points="474.3335657617185,449.4898066383441 474.3335657617185,413.3137056345024 468.0127560347805,415.13836623317445 468.0127560347805,451.31446723701606" />
  <polygon fill="hsl(288.0,50.0%,50.65955712546234%)" points="452.21073171743564,420.05819694771435 452.21073171743564,384.24027516173254 457.74144022850635,382.6436971378945 457.74144022850635,418.4616189238763" />
  <polygon fill="hsl(288.0,50.0%,50.65955712546234%)" points="475.12366697758574,413.4438022775283 475.12366697758574,377.62588049154647 480.65437548865646,376.0293024677084 480.65437548865646,411.84722425369023" />
  <polygon fill="hsl(288.0,50.0%,50.65955712546234%)" points="457.74144022850635,388.17440564896526 457.74144022850635,382.6436971378945 475.12366697758574,377.62588049154647 475.12366697758574,383.1565890026172" />
  <polygon fill="hsl(288.0,50.0%,50.65955712546234%)" points="458.5315414443736,418.2335363490423 458.5315414443736,382.4156145630605 474.3335657617185,377.85396306638046 474.3335657617185,413.67188485236227" />
  <polygon fill="hsl(288.0,50.0%,50.65955712546234%)" points="462.4820475237098,379.4843055995914 462.4820475237098,363.3662407958996 470.3830596823823,361.0854150475596 470.3830596823823,377.20347985125136" />
  <polygon fill="hsl(288.0,50.0%,50.65955712546234%)" points="464.0622499554443,380.81903653922245 464.0622499554443,362.9100756462316 468.8028572506478,361.5415801972276 468.8028572506478,379.4505410902185" />
  <polygon fill="hsl(288.0,50.0%,42.21758785095096%)" points="426.55353586075097,498.85610087084535 426.55353586075097,462.67999986700374 432.87434558768894,460.8553392683317 432.87434558768894,497.0314402721733" />
  <polygon fill="hsl(288.0,50.0%,42.21758785095096%)" points="442.3555601780959,494.2944493741653 442.3555601780959,458.1183483703237 436.03475045115795,459.9430089689957 436.03475045115795,496.11910997283735" />
  <polygon fill="hsl(288.0,50.0%,42.21758785095096%)" points="420.232726133813,464.8628396835356 420.232726133813,429.0449178975538 425.7634346448837,427.4483398737157 425.7634346448837,463.26626165969753" />
  <polygon fill="hsl(288.0,50.0%,42.21758785095096%)" points="443.14566139396317,458.2484450133495 443.14566139396317,422.43052322736764 448.6763699050339,420.83394520352965 448.6763699050339,456.6518669895115" />
  <polygon fill="hsl(288.0,50.0%,42.21758785095096%)" points="425.7634346448837,432.97904838478644 425.7634346448837,427.4483398737157 443.14566139396317,422.43052322736764 443.14566139396317,427.9612317384384" />
  <polygon fill="hsl(288.0,50.0%,42.21758785095096%)" points="426.55353586075097,463.03817908486354 426.55353586075097,427.22025729888173 442.3555601780959,422.6586058022017 442.3555601780959,458.4765275881835" />
  <polygon fill="hsl(288.0,50.0%,42.21758785095096%)" points="430.50404194008723,424.2889483354126 430.50404194008723,408.17088353172085 438.40505409875965,405.8900577833808 438.40505409875965,422.00812258707265" />
  <polygon fill="hsl(288.0,50.0%,42.21758785095096%)" points="432.08424437182174,425.62367927504374 432.0842443718217,407.7147183820528 436.8248516670252,406.3462229330488 436.8248516670252,424.2551838260397" />
</svg>
