<?xml version="1.0" encoding="UTF-8"?>
<svg
  xmlns="http://www.w3.org/2000/svg"
  width="848"
  height="600"
  style="background-color:white"
>
  <polygon fill="lightblue" points="400.7949192431123,696.4101615137754 100.7949192431123,436.60254037844385 447.20508075688775,336.6025403784438 747.2050807568878,596.4101615137754" />
  <polygon fill="steelblue" points="100.7949192431123,436.60254037844385 100.79491924311225,3.5898384862245507 447.2050807568877,-96.41016151377545 447.20508075688775,336.6025403784438" />
  <polygon fill="lightskyblue" points="747.2050807568878,596.4101615137754 747.2050807568877,163.39745962155615 447.2050807568877,-96.41016151377545 447.20508075688775,336.6025403784438" />
  <polygon fill="white" points="612.2050807568877,479.49673200287623 612.2050807568877,306.2916512459885 582.2050807568877,280.3108891324553 582.2050807568878,453.51596988934307" />
  <polygon fill="white" points="128.6314500790407,359.2847937899745 128.6314500790407,290.0027614872194 171.93272026826259,277.5027614872194 171.93272026826259,346.7847937899745" />
  <polygon fill="white" points="178.11861600958002,344.9990795042602 178.11861600958002,275.7170472015051 221.41988619880195,263.2170472015051 221.41988619880195,332.4990795042602" />
  <polygon fill="white" points="227.60578194011936,330.71336521854596 227.60578194011936,261.4313329157908 270.9070521293413,248.93133291579082 270.9070521293413,318.2133652185459" />
  <polygon fill="white" points="277.0929478706587,316.4276509328316 277.0929478706587,247.1456186300765 320.39421805988064,234.6456186300765 320.39421805988064,303.9276509328316" />
  <polygon fill="white" points="326.580113801198,302.14193664711735 326.580113801198,232.85990434436223 369.88138399042,220.35990434436223 369.88138399042,289.64193664711735" />
  <polygon fill="white" points="376.0672797317374,287.85622236140307 376.0672797317374,218.57419005864796 419.3685499209593,206.07419005864793 419.3685499209593,275.35622236140307" />
</svg>
