<?xml version="1.0" encoding="UTF-8"?>
<svg
  xmlns="http://www.w3.org/2000/svg"
  width="848"
  height="600"
  style="background-color:white"
>
  <polygon fill="lightblue" points="409.8862011513016,541.1046675424659 227.4201412840996,383.0844243690167 438.1137988486985,322.2624044132827 620.5798587159004,480.28264758673185" />
  <polygon fill="steelblue" points="227.4201412840996,383.0844243690167 227.42014128409954,119.71735241326812 438.1137988486984,58.895332457534124 438.1137988486985,322.2624044132827" />
  <polygon fill="lightskyblue" points="620.5798587159004,480.28264758673185 620.5798587159004,216.9155756309833 438.1137988486984,58.895332457534124 438.1137988486985,322.2624044132827" />
  <polygon fill="white" points="538.4701317756595,409.1735381586797 538.4701317756595,303.8267093763803 520.2235257889394,288.0246850590354 520.2235257889394,393.37151384133483" />
  <polygon fill="white" points="244.35088162411196,336.05820910965406 244.35088162411196,293.9194775967343 270.6875888196868,286.3167251022675 270.6875888196868,328.4554566151873" />
  <polygon fill="white" points="274.44997556191186,327.36934911597774 274.44997556191186,285.23061760305796 300.7866827574867,277.6278651085912 300.7866827574867,319.766596621511" />
  <polygon fill="white" points="304.54906949971166,318.6804891223015 304.54906949971166,276.5417576093817 330.8857766952865,268.93900511491495 330.8857766952865,311.0777366278347" />
  <polygon fill="white" points="334.64816343751147,309.99162912862516 334.64816343751147,267.8528976157054 360.98487063308636,260.25014512123863 360.98487063308636,302.3888766341584" />
  <polygon fill="white" points="364.74725737531134,301.3027691349489 364.74725737531134,259.1640376220291 391.08396457088617,251.56128512756234 391.08396457088617,293.70001664048215" />
  <polygon fill="white" points="394.84635131311114,292.6139091412726 394.84635131311114,250.4751776283528 421.18305850868603,242.87242513388605 421.18305850868603,285.01115664680583" />
</svg>
