<?xml version="1.0" encoding="UTF-8"?>
<svg
  xmlns="http://www.w3.org/2000/svg"
  width="848"
  height="600"
  style="background-color:white"
>
  <polygon fill="lightblue" points="410.7184067789952,551.6719692419688 239.01127039599547,402.9692271232118 437.2815932210048,345.73351499554525 608.9887296040046,494.4362571143023" />
  <polygon fill="steelblue" points="239.01127039599547,402.9692271232118 239.0112703959954,105.56374288569774 437.2815932210048,48.32803075803116 437.2815932210048,345.73351499554525" />
  <polygon fill="lightskyblue" points="608.9887296040046,494.4362571143023 608.9887296040046,197.0307728767882 437.2815932210048,48.32803075803116 437.2815932210048,345.73351499554525" />
  <polygon fill="white" points="531.7205182316546,427.52002316086157 531.7205182316546,328.3848617483569 514.5498045933547,313.5145875364812 514.5498045933547,412.6497489489859" />
  <polygon fill="white" points="266.27343978443423,355.4452521406558 266.27343978443423,315.7911875756539 291.0572301375604,308.63672355969555 291.0572301375604,348.29078812469743" />
  <polygon fill="white" points="305.92750434943616,343.99810971512244 305.92750434943616,304.34404515012056 330.7112947025623,297.18958113416227 330.7112947025623,336.84364569916414" />
  <polygon fill="white" points="345.581568914438,332.55096728958915 345.581568914438,292.8969027245873 370.36535926756414,285.7424387086289 370.36535926756414,325.3965032736308" />
  <polygon fill="white" points="385.23563347943985,321.1038248640558 385.23563347943985,281.44976029905393 410.019423832566,274.2952962830956 410.019423832566,313.9493608480975" />
  <polygon fill="antiquewhite" points="485.04365323920024,471.26946197915345 485.0436532392002,387.0045747785245 504.87068552170115,381.2810035657578 504.87068552170115,465.54589076638683" />
  <polygon fill="beige" points="485.04365323920024,471.26946197915345 485.0436532392002,387.0045747785245 473.5965108136669,377.09105863727405 473.5965108136669,461.35594583790305" />
  <polygon fill="bisque" points="485.0436532392002,387.0045747785245 473.5965108136669,377.09105863727405 493.42354309616786,371.3674874245074 504.87068552170115,381.2810035657578" />
  <polygon fill="antiquewhite" points="421.51025854209485,535.6392525113507 421.51025854209485,451.3743653107217 441.33729082459575,445.6507940979551 441.3372908245958,529.9156812985841" />
  <polygon fill="beige" points="421.51025854209485,535.6392525113507 421.51025854209485,451.3743653107217 410.06311611656156,441.46084916947126 410.06311611656156,525.7257363701002" />
  <polygon fill="bisque" points="421.51025854209485,451.3743653107217 410.06311611656156,441.46084916947126 429.89014839906247,435.7372779567046 441.33729082459575,445.6507940979551" />
  <polygon fill="antiquewhite" points="414.4286654071832,374.7960793052614 414.4286654071832,290.53119210463245 434.25569768968415,284.8076208918658 434.25569768968415,369.0725080924948" />
  <polygon fill="beige" points="414.4286654071832,374.7960793052614 414.4286654071832,290.53119210463245 402.9815229816499,280.61767596338194 402.9815229816499,364.88256316401095" />
  <polygon fill="bisque" points="414.4286654071832,290.53119210463245 402.9815229816499,280.61767596338194 422.80855526415087,274.89410475061527 434.25569768968415,284.8076208918658" />
  <polygon fill="antiquewhite" points="407.42500968580185,410.12478285767463 407.4250096858018,325.85989565704557 427.25204196830276,320.1363244442789 427.25204196830276,404.4012116449079" />
  <polygon fill="beige" points="407.42500968580185,410.12478285767463 407.4250096858018,325.85989565704557 395.9778672602685,315.9463795157951 395.9778672602685,400.2112667164241" />
  <polygon fill="bisque" points="407.4250096858018,325.85989565704557 395.9778672602685,315.9463795157951 415.8048995427695,310.22280830302844 427.25204196830276,320.1363244442789" />
  <polygon fill="antiquewhite" points="364.1362147234148,385.25822161035006 364.1362147234148,300.99333440972106 383.9632470059157,295.26976319695444 383.9632470059158,379.5346503975834" />
  <polygon fill="beige" points="364.1362147234148,385.25822161035006 364.1362147234148,300.99333440972106 352.68907229788147,291.0798182684706 352.68907229788147,375.3447054690996" />
  <polygon fill="bisque" points="364.1362147234148,300.99333440972106 352.68907229788147,291.0798182684706 372.51610458038243,285.35624705570393 383.9632470059157,295.26976319695444" />
</svg>
