<?xml version="1.0" encoding="UTF-8"?>
<svg
  xmlns="http://www.w3.org/2000/svg"
  width="848"
  height="600"
  style="background-color:white"
>
  <polygon fill="lightblue" points="412.9928637280136,488.03384970281263 270.6903690204366,364.79627426415027 435.0071362719864,317.36210936162456 577.3096309795634,440.5996848002869" />
  <polygon fill="steelblue" points="270.6903690204366,364.79627426415027 270.6903690204366,159.40031519971305 435.0071362719864,111.96615029718737 435.0071362719864,317.36210936162456" />
  <polygon fill="lightskyblue" points="577.3096309795634,440.5996848002869 577.3096309795634,235.20372573584973 435.0071362719864,111.96615029718737 435.0071362719864,317.36210936162456" />
  <polygon fill="white" points="513.2735083611537,385.14277585288886 513.2735083611537,302.984392227114 499.04325889039603,290.66063468324774 499.04325889039603,372.8190183090227" />
  <polygon fill="white" points="283.89439496029325,328.1212468484588 283.89439496029325,295.25789339814884 304.43399086673696,289.32862278533315 304.43399086673696,322.1919762356431" />
  <polygon fill="white" points="307.3682188533718,321.3449375766694 307.3682188533718,288.48158412635945 327.90781475981555,282.55231351354377 327.90781475981555,315.4156669638537" />
  <polygon fill="white" points="330.8420427464504,314.56862830488006 330.8420427464504,281.70527485457006 351.3816386528941,275.7760042417544 351.3816386528941,308.6393576920643" />
  <polygon fill="white" points="354.3158666395289,307.7923190330907 354.3158666395289,274.9289655827807 374.8554625459726,268.999694969965 374.8554625459726,301.86304842027494" />
  <polygon fill="white" points="377.78969053260744,301.0160097613013 377.78969053260744,268.1526563109913 398.32928643905115,262.2233856981756 398.32928643905115,295.08673914848555" />
  <polygon fill="white" points="401.26351442568597,294.2397004895119 401.26351442568597,261.3763470392019 421.8031103321297,255.44707642638622 421.8031103321297,288.31042987669616" />
</svg>
