<?xml version="1.0" encoding="UTF-8"?>
<svg
  xmlns="http://www.w3.org/2000/svg"
  width="848"
  height="600"
  style="background-color:white"
>
  <polygon fill="lightblue" points="413.9519052838329,490.40063509461095 284.04809471616716,377.90063509461095 434.0480947161671,334.59936490538905 563.951905283833,447.09936490538905" />
  <polygon fill="steelblue" points="284.04809471616716,377.90063509461095 284.0480947161671,152.90063509461098 434.0480947161671,109.59936490538902 434.0480947161671,334.59936490538905" />
  <polygon fill="lightskyblue" points="563.951905283833,447.09936490538905 563.9519052838328,222.09936490538905 434.0480947161671,109.59936490538902 434.0480947161671,334.59936490538905" />
  <polygon fill="white" points="505.4951905283833,396.47436490538905 505.49519052838326,321.474364905389 492.5048094716167,310.22436490538905 492.50480947161674,385.22436490538905" />
  <polygon fill="white" points="296.10166614473854,344.42106874011995 296.10166614473854,314.42106874011995 314.85166614473854,309.0084099664672 314.85166614473854,339.0084099664672" />
  <polygon fill="white" points="317.53023757331,338.2351729988025 317.53023757331,308.2351729988025 336.28023757330993,302.82251422514975 336.28023757330993,332.82251422514975" />
  <polygon fill="white" points="338.9588090018814,332.0492772574851 338.9588090018814,302.0492772574851 357.7088090018814,296.6366184838323 357.7088090018814,326.6366184838323" />
  <polygon fill="white" points="360.3873804304528,325.8633815161677 360.3873804304528,295.86338151616764 379.1373804304528,290.4507227425149 379.1373804304528,320.4507227425149" />
  <polygon fill="white" points="381.8159518590242,319.67748577485025 381.8159518590242,289.67748577485025 400.5659518590242,284.2648270011975 400.5659518590242,314.2648270011975" />
  <polygon fill="white" points="403.24452328759565,313.4915900335328 403.24452328759565,283.4915900335328 421.99452328759565,278.07893125988005 421.99452328759565,308.0789312598801" />
</svg>
