<?xml version="1.0" encoding="UTF-8"?>
<svg
  xmlns="http://www.w3.org/2000/svg"
  width="848"
  height="600"
  style="background-color:white"
>
  <polygon fill="lightblue" points="400.7949192431123,653.1088913245535 100.7949192431123,393.30127018922195 447.2050807568877,293.3012701892219 747.2050807568877,553.1088913245535" />
  <polygon fill="steelblue" points="100.7949192431123,393.30127018922195 100.7949192431123,46.89110867544653 447.2050807568877,-53.108891324553554 447.2050807568877,293.3012701892219" />
  <polygon fill="lightskyblue" points="747.2050807568877,553.1088913245535 747.2050807568877,206.69872981077805 447.2050807568877,-53.108891324553554 447.2050807568877,293.3012701892219" />
  <polygon fill="white" points="612.2050807568877,436.1954618136543 612.2050807568877,262.9903810567665 582.2050807568877,237.00961894323342 582.2050807568877,410.2146997001211" />
  <polygon fill="white" points="136.87931106746385,313.60257121980015 136.87931106746385,244.3205389170451 180.1805812566858,231.8205389170451 180.1805812566858,301.10257121980015" />
  <polygon fill="white" points="194.61433798642645,296.9359045531335 194.61433798642645,227.6538722503784 237.91560817564837,215.1538722503784 237.91560817564837,284.4359045531335" />
  <polygon fill="white" points="252.34936490538905,280.26923788646684 252.34936490538905,210.98720558371173 295.65063509461095,198.48720558371173 295.65063509461095,267.76923788646684" />
  <polygon fill="white" points="310.0843918243516,263.60257121980015 310.0843918243516,194.32053891704504 353.38566201357355,181.82053891704504 353.38566201357355,251.10257121980015" />
  <polygon fill="white" points="367.81941874331415,246.9359045531335 367.81941874331415,177.65387225037838 411.1206889325361,165.15387225037838 411.1206889325361,234.43590455313347" />
</svg>
