<?xml version="1.0" encoding="UTF-8"?>
<svg
  xmlns="http://www.w3.org/2000/svg"
  width="848"
  height="600"
  style="background-color:white"
>
  <polygon fill="lightblue" points="400.7949192431123,609.8076211353316 100.7949192431123,350.0 447.2050807568877,249.99999999999997 747.2050807568877,509.8076211353316" />
  <polygon fill="steelblue" points="100.7949192431123,350.0 100.7949192431123,90.1923788646684 447.2050807568877,-9.807621135331601 447.2050807568877,249.99999999999997" />
  <polygon fill="lightskyblue" points="747.2050807568877,509.8076211353316 747.2050807568877,249.99999999999997 447.2050807568877,-9.807621135331601 447.2050807568877,249.99999999999997" />
  <polygon fill="white" points="612.2050807568877,392.8941916244323 612.2050807568877,219.68911086754463 582.2050807568877,193.70834875401147 582.2050807568877,366.9134295108992" />
  <polygon fill="white" points="136.87931106746385,270.30130103057826 136.87931106746385,201.01926872782315 180.1805812566858,188.51926872782315 180.1805812566858,257.80130103057826" />
  <polygon fill="white" points="194.61433798642645,253.63463436391157 194.61433798642645,184.3526020611565 237.91560817564837,171.85260206115646 237.91560817564837,241.13463436391157" />
  <polygon fill="white" points="252.34936490538905,236.9679676972449 252.34936490538905,167.6859353944898 295.65063509461095,155.1859353944898 295.65063509461095,224.4679676972449" />
  <polygon fill="white" points="310.0843918243516,220.30130103057823 310.0843918243516,151.01926872782315 353.38566201357355,138.51926872782312 353.38566201357355,207.8013010305782" />
  <polygon fill="white" points="367.81941874331415,203.63463436391157 367.81941874331415,134.35260206115646 411.1206889325361,121.85260206115646 411.1206889325361,191.13463436391157" />
</svg>
