<?xml version="1.0" encoding="UTF-8"?>
<svg
  xmlns="http://www.w3.org/2000/svg"
  width="848"
  height="600"
  style="background-color:white"
>
  <polygon fill="lightblue" points="408.79637107611603,531.351772039367 212.24076651044876,361.12962522929064 439.20362892388397,295.61109037406817 635.7592334895512,465.8332371841446" />
  <polygon fill="steelblue" points="212.24076651044876,361.12962522929064 212.24076651044876,134.1667628158554 439.20362892388397,68.64822796063294 439.20362892388397,295.61109037406817" />
  <polygon fill="lightskyblue" points="635.7592334895512,465.8332371841446 635.7592334895512,238.87037477070936 439.20362892388397,68.64822796063294 439.20362892388397,295.61109037406817" />
  <polygon fill="white" points="235.88273134518158,308.9122053658512 235.88273134518158,263.5196328831642 264.253089146861,255.32981602626137 264.253089146861,300.7223885089484" />
  <polygon fill="white" points="273.70987508075416,297.9924495566475 273.70987508075416,252.59987707396044 302.08023288243356,244.41006021705763 302.08023288243356,289.80263269974466" />
  <polygon fill="white" points="311.5370188163267,287.07269374744374 311.5370188163267,241.6801212647567 339.9073766180061,233.4903044078539 339.9073766180061,278.88287689054096" />
  <polygon fill="white" points="349.3641625518992,276.15293793824003 349.3641625518992,230.76036545555297 377.7345203535786,222.57054859865016 377.7345203535786,267.9631210813372" />
  <polygon fill="white" points="387.1913062874717,265.23318212903627 387.1913062874717,219.8406096463492 415.5616640891511,211.65079278944643 415.5616640891511,257.0433652721335" />
  <polygon fill="grey" points="427.2129048360102,130.7417246407266 427.2129048360102,102.37136683904725 455.5832626376896,94.18154998214445 455.5832626376896,122.5519077838238" />
  <polygon fill="lightgrey" points="427.2129048360102,130.7417246407266 427.2129048360102,102.37136683904725 410.8332711222046,88.18618793820752 410.8332711222046,116.55654573988693" />
  <polygon fill="darkgrey" points="427.2129048360102,102.37136683904725 410.8332711222046,88.18618793820752 439.20362892388397,79.99637108130472 455.5832626376896,94.18154998214445" />
  <polygon fill="hsl(360.0,50.0%,50.65955712546234%)" points="461.1979753940161,437.5765449263658 461.1979753940161,398.60702144997896 468.00686126641915,396.6414654043223 468.00686126641915,435.6109888807091" />
  <polygon fill="hsl(360.0,50.0%,50.65955712546234%)" points="478.2201900750237,432.6626548122241 478.2201900750237,393.6931313358373 471.41130420262067,395.65868738149396 471.41130420262067,434.6282108578808" />
  <polygon fill="hsl(360.0,50.0%,50.65955712546234%)" points="454.389089521613,400.9584143617385 454.389089521613,362.3747277514545 460.3468646599657,360.6548662115049 460.3468646599657,399.23855282178886" />
  <polygon fill="hsl(360.0,50.0%,50.65955712546234%)" points="479.0713008090741,393.83327369623305 479.0713008090741,355.2495870859491 485.0290759474268,353.52972554599944 485.0290759474268,392.11341215628346" />
  <polygon fill="hsl(360.0,50.0%,50.65955712546234%)" points="460.3468646599657,366.6126413498576 460.3468646599657,360.6548662115049 479.0713008090741,355.2495870859491 479.0713008090741,361.20736222430173" />
  <polygon fill="hsl(360.0,50.0%,50.65955712546234%)" points="461.1979753940161,398.99285831608177 461.1979753940161,360.4091717057978 478.2201900750237,355.4952815916561 478.2201900750237,394.07896820194014" />
  <polygon fill="hsl(360.0,50.0%,50.65955712546234%)" points="465.45352906426797,357.2515148467482 465.45352906426797,339.8888558721204 473.9646364047718,337.4319108150496 473.9646364047718,354.7945697896773" />
  <polygon fill="hsl(360.0,50.0%,50.65955712546234%)" points="467.15575053236876,358.6893101658482 467.15575053236876,339.39746686070623 472.26241493667106,337.92329982646373 472.26241493667106,357.2151431316057" />
  <polygon fill="hsl(360.0,50.0%,42.21758785095096%)" points="426.75071312032117,485.840883218635 426.75071312032117,446.87135974224816 433.5595989927242,444.9058036965915 433.5595989927242,483.87532717297825" />
  <polygon fill="hsl(360.0,50.0%,42.21758785095096%)" points="443.7729278013288,480.92699310449325 443.7729278013288,441.9574696281064 436.9640419289258,443.92302567376316 436.9640419289258,482.89254915014993" />
  <polygon fill="hsl(360.0,50.0%,42.21758785095096%)" points="419.9418272479181,449.22275265400765 419.9418272479181,410.6390660437237 425.8996023862708,408.91920450377404 425.8996023862708,447.502891114058" />
  <polygon fill="hsl(360.0,50.0%,42.21758785095096%)" points="444.6240385353792,442.0976119885022 444.6240385353792,403.51392537821823 450.58181367373186,401.79406383826864 450.58181367373186,440.37775044855266" />
  <polygon fill="hsl(360.0,50.0%,42.21758785095096%)" points="425.8996023862708,414.87697964212674 425.8996023862708,408.91920450377404 444.6240385353792,403.51392537821823 444.6240385353792,409.4717005165709" />
  <polygon fill="hsl(360.0,50.0%,42.21758785095096%)" points="426.75071312032117,447.25719660835097 426.75071312032117,408.673509998067 443.7729278013288,403.7596198839253 443.7729278013288,442.3433064942093" />
  <polygon fill="hsl(360.0,50.0%,42.21758785095096%)" points="431.0062667905731,405.51585313901734 431.0062667905731,388.15319416438956 439.5173741310769,385.69624910731875 439.5173741310769,403.0589080819465" />
  <polygon fill="hsl(360.0,50.0%,42.21758785095096%)" points="432.70848825867387,406.9536484581174 432.70848825867387,387.6618051529754 437.8151526629761,386.18763811873293 437.8151526629761,405.47948142387486" />
</svg>
