<?xml version="1.0" encoding="UTF-8"?>
<svg
  xmlns="http://www.w3.org/2000/svg"
  width="848"
  height="600"
  style="background-color:white"
>
  <polygon fill="lightblue" points="412.9928637280136,488.03384970281263 270.6903690204366,364.79627426415027 435.0071362719864,317.36210936162456 577.3096309795634,440.5996848002869" />
  <polygon fill="steelblue" points="270.6903690204366,364.79627426415027 270.6903690204366,159.40031519971305 435.0071362719864,111.96615029718737 435.0071362719864,317.36210936162456" />
  <polygon fill="lightskyblue" points="577.3096309795634,440.5996848002869 577.3096309795634,235.20372573584973 435.0071362719864,111.96615029718737 435.0071362719864,317.36210936162456" />
  <polygon fill="white" points="513.2735083611537,385.14277585288886 513.2735083611537,302.984392227114 499.04325889039603,290.66063468324774 499.04325889039603,372.8190183090227" />
  <polygon fill="white" points="287.806698942473,326.99186196982726 287.806698942473,294.12850851951725 308.3462948489167,288.19923790670157 308.3462948489167,321.0625913570115" />
  <polygon fill="white" points="315.1928268177313,319.0861678194063 315.1928268177313,286.22281436909634 335.732422724175,280.2935437562806 335.7324227241751,313.1568972065906" />
  <polygon fill="white" points="342.5789546929896,311.1804736689853 342.5789546929896,278.31712021867537 363.1185505994333,272.3878496058597 363.1185505994333,305.25120305616963" />
  <polygon fill="white" points="369.9650825682479,303.2747795185644 369.9650825682479,270.41142606825446 390.5046784746916,264.4821554554387 390.5046784746916,297.34550890574866" />
  <polygon fill="white" points="397.3512104435062,295.36908536814343 397.3512104435062,262.5057319178335 417.8908063499499,256.5764613050178 417.8908063499499,289.43981475532775" />
</svg>
