<?xml version="1.0" encoding="UTF-8"?>
<svg
  xmlns="http://www.w3.org/2000/svg"
  width="848"
  height="600"
  style="background-color:white"
>
  <polygon fill="lightblue" points="408.79637107611603,531.351772039367 212.24076651044876,361.12962522929064 439.20362892388397,295.61109037406817 635.7592334895512,465.8332371841446" />
  <polygon fill="steelblue" points="212.24076651044876,361.12962522929064 212.24076651044876,134.1667628158554 439.20362892388397,68.64822796063294 439.20362892388397,295.61109037406817" />
  <polygon fill="lightskyblue" points="635.7592334895512,465.8332371841446 635.7592334895512,238.87037477070936 439.20362892388397,68.64822796063294 439.20362892388397,295.61109037406817" />
  <polygon fill="white" points="547.309211435001,389.2332711196102 547.309211435001,275.7518399128926 527.6536509784343,258.72962523188494 527.6536509784343,372.21105643860255" />
  <polygon fill="white" points="230.47885366867123,310.47217048145177 230.47885366867123,265.0795979987647 258.8492114703506,256.88978114186193 258.8492114703506,302.28235362454893" />
  <polygon fill="white" points="262.9021197277334,301.11237978784857 262.9021197277334,255.7198073051615 291.27247752941287,247.52999044825873 291.27247752941287,292.9225629309458" />
  <polygon fill="white" points="295.32538578679555,291.75258909424537 295.32538578679555,246.3600166115583 323.695743588475,238.1701997546555 323.695743588475,283.56277223734253" />
  <polygon fill="white" points="327.74865184585775,282.39279840064216 327.74865184585775,237.0002259179551 356.11900964753715,228.8104090610523 356.11900964753715,274.2029815437393" />
  <polygon fill="white" points="360.17191790491995,273.03300770703896 360.17191790491995,227.6404352243519 388.5422757065993,219.4506183674491 388.5422757065993,264.8431908501361" />
  <polygon fill="white" points="392.5951839639821,263.67321701343576 392.5951839639821,218.2806445307487 420.9655417656615,210.0908276738459 420.9655417656615,255.48340015653292" />
  <polygon fill="antiquewhite" points="493.87753928039933,439.31387683862454 493.87753928039933,342.8546603129146 516.5738255217428,336.3028068273924 516.5738255217428,432.76202335310234" />
  <polygon fill="beige" points="493.87753928039933,439.31387683862454 493.87753928039933,342.8546603129146 480.7738323093548,331.5065171922428 480.7738323093548,427.96573371795284" />
  <polygon fill="bisque" points="493.87753928039933,342.8546603129146 480.7738323093548,331.5065171922428 503.4701185506984,324.95466370672057 516.5738255217428,336.3028068273924" />
</svg>
