<?xml version="1.0" encoding="UTF-8"?>
<svg
  xmlns="http://www.w3.org/2000/svg"
  width="848"
  height="600"
  style="background-color:white"
>
  <polygon fill="lightblue" points="409.78984817638707,489.7176475517629 226.07811746764872,330.61862178478975 438.21015182361293,269.38137821521025 621.9218825323512,428.4804039821835" />
  <polygon fill="steelblue" points="226.07811746764872,330.61862178478975 226.07811746764872,171.51959601781653 438.21015182361293,110.28235244823708 438.21015182361293,269.38137821521025" />
  <polygon fill="lightskyblue" points="621.9218825323512,428.4804039821835 621.9218825323512,269.38137821521025 438.21015182361293,110.28235244823708 438.21015182361293,269.38137821521025" />
  <polygon fill="white" points="539.2516037134191,356.8858423870455 539.2516037134191,250.8198252090634 520.8804306425452,234.9099226323661 520.8804306425452,340.9759398103482" />
  <polygon fill="white" points="243.12444165696726,283.27136498389854 243.12444165696726,240.84495811270568 269.64094595146275,233.19030266650825 269.64094595146275,275.6167095377011" />
  <polygon fill="white" points="273.4290179935336,274.52318733110144 273.4290179935336,232.09678045990862 299.9455222880291,224.44212501371118 299.9455222880291,266.86853188490403" />
  <polygon fill="white" points="303.7335943300999,265.7750096783044 303.7335943300999,223.34860280711155 330.2500986245954,215.69394736091414 330.2500986245954,258.120354232107" />
  <polygon fill="white" points="334.03817066666625,257.02683202550736 334.03817066666625,214.6004251543145 360.5546749611617,206.94576970811704 360.55467496116177,249.3721765793099" />
  <polygon fill="white" points="364.34274700323255,248.27865437271026 364.34274700323255,205.8522475015174 390.85925129772806,198.19759205532 390.85925129772806,240.62399892651283" />
  <polygon fill="white" points="394.64732333979885,239.5304767199132 394.64732333979885,197.10406984872037 421.16382763429436,189.4494144025229 421.16382763429436,231.87582127371576" />
</svg>
