<?xml version="1.0" encoding="UTF-8"?>
<svg
  xmlns="http://www.w3.org/2000/svg"
  width="848"
  height="600"
  style="background-color:white"
>
  <polygon fill="lightblue" points="400.7949192431123,739.7114317029974 100.7949192431123,479.9038105676658 447.20508075688775,379.9038105676658 747.2050807568878,639.7114317029974" />
  <polygon fill="steelblue" points="100.7949192431123,479.9038105676658 100.79491924311225,-39.7114317029974 447.2050807568877,-139.7114317029974 447.20508075688775,379.9038105676658" />
  <polygon fill="lightskyblue" points="747.2050807568878,639.7114317029974 747.2050807568877,120.0961894323342 447.2050807568877,-139.7114317029974 447.20508075688775,379.9038105676658" />
  <polygon fill="white" points="612.2050807568877,522.7980021920981 612.2050807568877,349.5929214352104 582.2050807568877,323.61215932167727 582.2050807568878,496.817240078565" />
  <polygon fill="white" points="148.42631645125647,396.87177826491074 148.4263164512564,327.5897459621556 191.72758664047834,315.0897459621556 191.72758664047834,384.37177826491074" />
  <polygon fill="white" points="217.70834875401152,376.8717782649107 217.70834875401152,307.5897459621556 261.0096189432335,295.0897459621556 261.0096189432335,364.37177826491074" />
  <polygon fill="white" points="286.99038105676664,356.8717782649107 286.99038105676664,287.5897459621556 330.29165124598853,275.0897459621556 330.29165124598853,344.3717782649107" />
  <polygon fill="white" points="356.2724133595217,336.8717782649107 356.2724133595217,267.5897459621556 399.5736835487436,255.08974596215558 399.57368354874365,324.3717782649107" />
</svg>
