<?xml version="1.0" encoding="UTF-8"?>
<svg
  xmlns="http://www.w3.org/2000/svg"
  width="848"
  height="600"
  style="background-color:white"
>
  <polygon fill="lightblue" points="412.9928637280136,488.03384970281263 270.6903690204366,364.79627426415027 435.0071362719864,317.36210936162456 577.3096309795634,440.5996848002869" />
  <polygon fill="steelblue" points="270.6903690204366,364.79627426415027 270.6903690204366,159.40031519971305 435.0071362719864,111.96615029718737 435.0071362719864,317.36210936162456" />
  <polygon fill="lightskyblue" points="577.3096309795634,440.5996848002869 577.3096309795634,235.20372573584973 435.0071362719864,111.96615029718737 435.0071362719864,317.36210936162456" />
  <polygon fill="white" points="513.2735083611537,385.14277585288886 513.2735083611537,302.984392227114 499.04325889039603,290.66063468324774 499.04325889039603,372.8190183090227" />
  <polygon fill="white" points="293.2839245175247,325.4107231397431 293.2839245175247,292.5473696894331 313.8235204239684,286.6180990766174 313.8235204239684,319.48145252692734" />
  <polygon fill="white" points="326.14727796783467,315.92389015923794 326.1472779678346,283.06053670892794 346.6868738742784,277.13126609611226 346.6868738742784,309.9946195464222" />
  <polygon fill="white" points="359.0106314181446,306.43705717873274 359.0106314181446,273.5737037284228 379.5502273245883,267.6444331156071 379.5502273245883,300.50778656591706" />
  <polygon fill="white" points="391.87398486845456,296.9502241982276 391.87398486845456,264.08687074791766 412.41358077489826,258.157600135102 412.41358077489826,291.0209535854119" />
</svg>
