<?xml version="1.0" encoding="UTF-8"?>
<svg
  xmlns="http://www.w3.org/2000/svg"
  width="848"
  height="600"
  style="background-color:white"
>
  <polygon fill="lightblue" points="400.7949192431123,739.7114317029974 100.7949192431123,479.9038105676658 447.20508075688775,379.9038105676658 747.2050807568878,639.7114317029974" />
  <polygon fill="steelblue" points="100.7949192431123,479.9038105676658 100.79491924311225,-39.7114317029974 447.2050807568877,-139.7114317029974 447.20508075688775,379.9038105676658" />
  <polygon fill="lightskyblue" points="747.2050807568878,639.7114317029974 747.2050807568877,120.0961894323342 447.2050807568877,-139.7114317029974 447.20508075688775,379.9038105676658" />
  <polygon fill="white" points="612.2050807568877,522.7980021920981 612.2050807568877,349.5929214352104 582.2050807568877,323.61215932167727 582.2050807568878,496.817240078565" />
  <polygon fill="white" points="128.6314500790407,402.58606397919647 128.6314500790407,333.30403167644135 171.93272026826259,320.8040316764413 171.93272026826259,390.08606397919647" />
  <polygon fill="white" points="178.11861600958002,388.3003496934822 178.11861600958002,319.018317390727 221.41988619880195,306.518317390727 221.41988619880195,375.80034969348213" />
  <polygon fill="white" points="227.60578194011936,374.01463540776786 227.60578194011936,304.73260310501274 270.9070521293413,292.23260310501274 270.9070521293413,361.51463540776786" />
  <polygon fill="white" points="277.0929478706587,359.7289211220536 277.0929478706587,290.44688881929847 320.39421805988064,277.94688881929847 320.39421805988064,347.2289211220536" />
  <polygon fill="white" points="326.580113801198,345.4432068363393 326.580113801198,276.1611745335842 369.88138399042,263.6611745335842 369.88138399042,332.9432068363393" />
  <polygon fill="white" points="376.0672797317374,331.15749255062497 376.0672797317374,261.87546024786985 419.3685499209593,249.37546024786988 419.3685499209593,318.65749255062497" />
</svg>
