<?xml version="1.0" encoding="UTF-8"?>
<svg
  xmlns="http://www.w3.org/2000/svg"
  width="848"
  height="600"
  style="background-color:white"
>
  <polygon fill="lightblue" points="411.6936475291174,487.2642686646416 252.59462176214424,349.48047063308786 436.3063524708826,296.44746204409677 595.4053782378558,434.2312600756505" />
  <polygon fill="steelblue" points="252.59462176214424,349.48047063308786 252.59462176214424,165.76873992434952 436.3063524708826,112.7357313353584 436.3063524708826,296.44746204409677" />
  <polygon fill="lightskyblue" points="595.4053782378558,434.2312600756505 595.4053782378558,250.51952936691217 436.3063524708826,112.7357313353584 436.3063524708826,296.44746204409677" />
  <polygon fill="white" points="523.8108166427178,372.22855096145133 523.8108166427178,280.37268560708213 507.9009140660205,266.5943058039268 507.9009140660205,358.4501711582959" />
  <polygon fill="white" points="277.85498473459575,305.4460858103539 277.85498473459575,268.7037396686062 300.81895107318803,262.07461359498234 300.81895107318803,298.81695973673" />
  <polygon fill="white" points="314.59733087634345,294.83948409255567 314.59733087634345,258.097137950808 337.56129721493573,251.4680118771841 337.56129721493573,288.2103580189318" />
  <polygon fill="white" points="351.33967701809115,284.2328823747574 351.33967701809115,247.49053623300978 374.3036433566834,240.8614101593859 374.30364335668344,277.60375630113356" />
  <polygon fill="white" points="388.0820231598388,273.62628065695924 388.08202315983874,236.88393451521156 411.0459894984311,230.25480844158767 411.0459894984311,266.9971545833354" />
</svg>
