<?xml version="1.0" encoding="UTF-8"?>
<svg
  xmlns="http://www.w3.org/2000/svg"
  width="848"
  height="600"
  style="background-color:white"
>
  <polygon fill="lightblue" points="410.7184067789952,551.6719692419688 239.01127039599547,402.9692271232118 437.2815932210048,345.73351499554525 608.9887296040046,494.4362571143023" />
  <polygon fill="steelblue" points="239.01127039599547,402.9692271232118 239.0112703959954,105.56374288569774 437.2815932210048,48.32803075803116 437.2815932210048,345.73351499554525" />
  <polygon fill="lightskyblue" points="608.9887296040046,494.4362571143023 608.9887296040046,197.0307728767882 437.2815932210048,48.32803075803116 437.2815932210048,345.73351499554525" />
  <polygon fill="white" points="531.7205182316546,427.52002316086157 531.7205182316546,328.3848617483569 514.5498045933547,313.5145875364812 514.5498045933547,412.6497489489859" />
  <polygon fill="white" points="266.27343978443423,355.4452521406558 266.27343978443423,315.7911875756539 291.0572301375604,308.63672355969555 291.0572301375604,348.29078812469743" />
  <polygon fill="white" points="305.92750434943616,343.99810971512244 305.92750434943616,304.34404515012056 330.7112947025623,297.18958113416227 330.7112947025623,336.84364569916414" />
  <polygon fill="white" points="345.581568914438,332.55096728958915 345.581568914438,292.8969027245873 370.36535926756414,285.7424387086289 370.36535926756414,325.3965032736308" />
  <polygon fill="white" points="385.23563347943985,321.1038248640558 385.23563347943985,281.44976029905393 410.019423832566,274.2952962830956 410.019423832566,313.9493608480975" />
</svg>
