<?xml version="1.0" encoding="UTF-8"?>
<svg
  xmlns="http://www.w3.org/2000/svg"
  width="848"
  height="600"
  style="background-color:white"
>
  <polygon fill="lightblue" points="400.7949192431123,609.8076211353316 100.7949192431123,350.0 447.2050807568877,249.99999999999997 747.2050807568877,509.8076211353316" />
  <polygon fill="steelblue" points="100.7949192431123,350.0 100.7949192431123,90.1923788646684 447.2050807568877,-9.807621135331601 447.2050807568877,249.99999999999997" />
  <polygon fill="lightskyblue" points="747.2050807568877,509.8076211353316 747.2050807568877,249.99999999999997 447.2050807568877,-9.807621135331601 447.2050807568877,249.99999999999997" />
  <polygon fill="white" points="612.2050807568877,392.8941916244323 612.2050807568877,219.68911086754463 582.2050807568877,193.70834875401147 582.2050807568877,366.9134295108992" />
  <polygon fill="white" points="148.4263164512564,266.96796769724494 148.4263164512564,197.68593539448983 191.72758664047834,185.18593539448983 191.72758664047834,254.46796769724492" />
  <polygon fill="white" points="217.7083487540115,246.96796769724492 217.7083487540115,177.6859353944898 261.0096189432334,165.1859353944898 261.0096189432334,234.4679676972449" />
  <polygon fill="white" points="286.99038105676664,226.9679676972449 286.99038105676664,157.6859353944898 330.29165124598853,145.18593539448977 330.29165124598853,214.4679676972449" />
  <polygon fill="white" points="356.2724133595217,206.9679676972449 356.2724133595217,137.68593539448977 399.5736835487436,125.18593539448977 399.5736835487436,194.4679676972449" />
</svg>
