<?xml version="1.0" encoding="UTF-8"?>
<svg
  xmlns="http://www.w3.org/2000/svg"
  width="848"
  height="600"
  style="background-color:white"
>
  <polygon fill="lightblue" points="413.9519052838329,490.40063509461095 284.04809471616716,377.90063509461095 434.0480947161671,334.59936490538905 563.951905283833,447.09936490538905" />
  <polygon fill="steelblue" points="284.04809471616716,377.90063509461095 284.0480947161671,152.90063509461098 434.0480947161671,109.59936490538902 434.0480947161671,334.59936490538905" />
  <polygon fill="lightskyblue" points="563.951905283833,447.09936490538905 563.9519052838328,222.09936490538905 434.0480947161671,109.59936490538902 434.0480947161671,334.59936490538905" />
  <polygon fill="white" points="505.4951905283833,396.47436490538905 505.49519052838326,321.474364905389 492.5048094716167,310.22436490538905 492.50480947161674,385.22436490538905" />
  <polygon fill="white" points="299.6730947161671,343.39008611656703 299.6730947161671,313.39008611656703 318.4230947161671,307.97742734291427 318.4230947161671,337.97742734291427" />
  <polygon fill="white" points="324.6730947161671,336.1732077516967 324.6730947161671,306.1732077516967 343.4230947161671,300.76054897804397 343.4230947161671,330.76054897804397" />
  <polygon fill="white" points="349.6730947161671,328.9563293868264 349.6730947161671,298.9563293868264 368.4230947161671,293.5436706131736 368.4230947161671,323.5436706131736" />
  <polygon fill="white" points="374.6730947161671,321.73945102195603 374.6730947161671,291.73945102195603 393.4230947161671,286.3267922483033 393.4230947161671,316.3267922483033" />
  <polygon fill="white" points="399.6730947161671,314.52257265708573 399.6730947161671,284.52257265708573 418.4230947161671,279.10991388343297 418.4230947161671,309.10991388343297" />
</svg>
