<?xml version="1.0" encoding="UTF-8"?>
<svg
  xmlns="http://www.w3.org/2000/svg"
  width="848"
  height="600"
  style="background-color:white"
>
  <polygon fill="lightblue" points="403.7284947681547,532.8147419146777 141.65435534726498,305.8518795012424 444.2715052318453,218.49383302761248 706.345644652735,445.4566954410477" />
  <polygon fill="steelblue" points="141.65435534726498,305.8518795012424 141.65435534726498,154.54330455895226 444.2715052318453,67.18525808532232 444.2715052318453,218.49383302761248" />
  <polygon fill="lightskyblue" points="706.345644652735,445.4566954410477 706.345644652735,294.1481204987576 444.2715052318453,67.18525808532232 444.2715052318453,218.49383302761248" />
  <polygon fill="white" points="274.0493584217689,207.10930419211326 274.0493584217689,146.58587421519718 311.8765021573414,135.66611840599344 311.8765021573414,196.1895483829095" />
  <polygon fill="hsl(360.0,50.0%,50.65955712546234%)" points="473.5973005253548,407.78110576400934 473.5973005253548,355.8217411288269 482.6758150218922,353.200999734618 482.6758150218922,405.16036436980045" />
  <polygon fill="hsl(360.0,50.0%,50.65955712546234%)" points="496.2935867666983,401.22925227848714 496.2935867666983,349.2698876433046 487.2150722701609,351.8906290375136 487.2150722701609,403.849993672696" />
  <polygon fill="hsl(360.0,50.0%,50.65955712546234%)" points="464.5187860288174,358.9569316778396 464.5187860288174,307.5120161974609 472.4624862132876,305.21886747752814 472.4624862132876,356.6637829579068" />
  <polygon fill="hsl(360.0,50.0%,50.65955712546234%)" points="497.4284010787655,349.4567441238323 497.4284010787655,298.01182864345367 505.3721012632357,295.7186799235209 505.3721012632357,347.16359540389954" />
  <polygon fill="hsl(360.0,50.0%,50.65955712546234%)" points="472.4624862132876,313.16256766199837 472.4624862132876,305.21886747752814 497.4284010787655,298.01182864345367 497.4284010787655,305.9555288279239" />
  <polygon fill="hsl(360.0,50.0%,50.65955712546234%)" points="473.5973005253548,356.3361902836307 473.5973005253548,304.89127480325203 496.2935867666983,298.3394213177298 496.2935867666983,349.7843367981084" />
  <polygon fill="hsl(360.0,50.0%,50.65955712546234%)" points="479.27137208569064,300.6810656578525 479.27137208569064,277.5308536916822 490.61951520636245,274.254926948921 490.61951520636245,297.4051389150914" />
  <polygon fill="hsl(360.0,50.0%,50.65955712546234%)" points="481.541000709825,302.59812608331924 481.541000709825,276.8756683431299 488.34988658222807,274.91011229747323 488.34988658222807,300.63257003766256" />
  <polygon fill="hsl(360.0,50.0%,42.21758785095096%)" points="427.66761749376155,472.1335568203682 427.66761749376155,420.1741921851858 436.746131990299,417.55345079097685 436.746131990299,469.51281542615936" />
  <polygon fill="hsl(360.0,50.0%,42.21758785095096%)" points="450.36390373510505,465.581703334846 450.36390373510505,413.62233869966354 441.2853892385677,416.24308009387244 441.2853892385677,468.2024447290549" />
  <polygon fill="hsl(360.0,50.0%,42.21758785095096%)" points="418.58910299722413,423.3093827341985 418.58910299722413,371.86446725381984 426.53280318169436,369.57131853388705 426.53280318169436,421.0162340142657" />
  <polygon fill="hsl(360.0,50.0%,42.21758785095096%)" points="451.49871804717225,413.8091951801912 451.49871804717225,362.3642796998126 459.4424182316425,360.0711309798798 459.4424182316425,411.51604646025845" />
  <polygon fill="hsl(360.0,50.0%,42.21758785095096%)" points="426.53280318169436,377.5150187183573 426.53280318169436,369.57131853388705 451.49871804717225,362.3642796998126 451.49871804717225,370.3079798842828" />
  <polygon fill="hsl(360.0,50.0%,42.21758785095096%)" points="427.66761749376155,420.6886413399896 427.66761749376155,369.2437258596109 450.36390373510505,362.6918723740887 450.36390373510505,414.13678785446734" />
  <polygon fill="hsl(360.0,50.0%,42.21758785095096%)" points="433.34168905409746,365.03351671421143 433.34168905409746,341.88330474804104 444.6898321747692,338.60737800527994 444.6898321747692,361.75758997145033" />
  <polygon fill="hsl(360.0,50.0%,42.21758785095096%)" points="435.6113176782318,366.9505771396781 435.6113176782318,341.22811939948883 442.4202035506348,339.26256335383215 442.4202035506348,364.9850210940215" />
</svg>
