<?xml version="1.0" encoding="UTF-8"?>
<svg
  xmlns="http://www.w3.org/2000/svg"
  width="848"
  height="600"
  style="background-color:white"
>
  <polygon fill="lightblue" points="406.29120903866027,536.4274642434539 177.34836052799383,338.15714141844444 441.70879096133973,261.84285858155556 670.6516394720062,460.11318140656505" />
  <polygon fill="steelblue" points="177.34836052799383,338.15714141844444 177.34836052799383,139.88681859343495 441.70879096133973,63.57253575654613 441.70879096133973,261.84285858155556" />
  <polygon fill="lightskyblue" points="670.6516394720062,460.11318140656505 670.6516394720062,261.84285858155556 441.70879096133973,63.57253575654613 441.70879096133973,261.84285858155556" />
  <polygon fill="white" points="529.4702162237619,337.8464823311425 529.4702162237619,212.27527787530323 506.57593137269527,192.4482455928023 506.57593137269527,318.0194500486416" />
  <polygon fill="white" points="605.7844990606507,403.93658993947906 605.7844990606507,278.3653854836397 582.8902142095841,258.53835320113876 582.8902142095841,384.1095576569781" />
  <polygon fill="white" points="213.6979197125789,274.791841441703 213.6979197125789,221.91975535503383 246.74297351674713,212.38047000042272 246.74297351674713,265.2525560870919" />
  <polygon fill="white" points="266.57000579924807,259.52898487432526 266.57000579924807,206.65689878765605 299.6150596034163,197.11761343304494 299.6150596034163,249.98969951971412" />
  <polygon fill="white" points="319.4420918859173,244.26612830694745 319.4420918859173,191.39404222027827 352.4871456900855,181.85475686566718 352.4871456900855,234.72684295233637" />
  <polygon fill="white" points="372.31417797258644,229.0032717395697 372.31417797258644,176.1311856529005 405.3592317767547,166.5919002982894 405.3592317767547,219.46398638495862" />
  <polygon fill="grey" points="427.74230786639373,135.89742333907688 427.74230786639373,102.85236953490863 460.78736167056195,93.31308418029752 460.78736167056195,126.3581379844658" />
  <polygon fill="lightgrey" points="427.74230786639373,135.89742333907688 427.74230786639373,102.85236953490863 408.6637371571715,86.32984263282452 408.6637371571715,119.3748964369928" />
  <polygon fill="darkgrey" points="427.74230786639373,102.85236953490863 408.6637371571715,86.32984263282452 441.70879096133973,76.79055727821341 460.78736167056195,93.31308418029752" />
  <polygon fill="hsl(324.0,50.0%,50.65955712546234%)" points="467.3272328426053,427.2005222672837 467.3272328426053,381.8098363618782 475.25804575560574,379.52040787677157 475.25804575560574,424.9110937821771" />
  <polygon fill="hsl(324.0,50.0%,50.65955712546234%)" points="487.15426512510624,421.47695105451703 487.15426512510624,376.08626514911157 479.2234522121059,378.37569363421824 479.2234522121059,423.7663795396237" />
  <polygon fill="hsl(324.0,50.0%,50.65955712546234%)" points="459.3964199296049,384.5486775787216 459.3964199296049,339.60740440505276 466.3358812284803,337.60415448058444 466.3358812284803,382.5454276542532" />
  <polygon fill="hsl(324.0,50.0%,50.65955712546234%)" points="488.1456167392313,376.2494993202099 488.1456167392313,331.3082261465411 495.08507803810664,329.30497622207275 495.08507803810664,374.2462493957416" />
  <polygon fill="hsl(324.0,50.0%,50.65955712546234%)" points="466.3358812284803,344.54361577945974 466.3358812284803,337.60415448058444 488.1456167392313,331.3082261465411 488.1456167392313,338.24768744541643" />
  <polygon fill="hsl(324.0,50.0%,50.65955712546234%)" points="467.3272328426053,382.2592490936149 467.3272328426053,337.3179759199461 487.15426512510624,331.5944047071794 487.15426512510624,376.53567788084825" />
  <polygon fill="hsl(324.0,50.0%,50.65955712546234%)" points="472.2839909132305,333.640019458071 472.2839909132305,313.41644652992005 482.19750705448104,310.5546609235367 482.19750705448104,330.7782338516877" />
  <polygon fill="hsl(324.0,50.0%,50.65955712546234%)" points="474.2666941414806,335.3147259954778 474.2666941414806,312.84408940864336 480.21480382623093,311.1270180448134 480.21480382623093,333.59765463164774" />
</svg>
