<?xml version="1.0" encoding="UTF-8"?>
<svg
  xmlns="http://www.w3.org/2000/svg"
  width="848"
  height="600"
  style="background-color:white"
>
  <polygon fill="lightblue" points="408.79637107611603,531.351772039367 212.24076651044876,361.12962522929064 439.20362892388397,295.61109037406817 635.7592334895512,465.8332371841446" />
  <polygon fill="steelblue" points="212.24076651044876,361.12962522929064 212.24076651044876,134.1667628158554 439.20362892388397,68.64822796063294 439.20362892388397,295.61109037406817" />
  <polygon fill="lightskyblue" points="635.7592334895512,465.8332371841446 635.7592334895512,238.87037477070936 439.20362892388397,68.64822796063294 439.20362892388397,295.61109037406817" />
  <polygon fill="white" points="547.309211435001,389.2332711196102 547.309211435001,275.7518399128926 527.6536509784343,258.72962523188494 527.6536509784343,372.21105643860255" />
  <polygon fill="white" points="254.79630321296787,303.45232746124935 254.79630321296787,258.0597549785623 283.1666610146473,249.86993812165952 283.1666610146473,295.2625106043466" />
  <polygon fill="white" points="311.5370188163267,287.07269374744374 311.5370188163267,241.6801212647567 339.9073766180061,233.4903044078539 339.9073766180061,278.88287689054096" />
  <polygon fill="white" points="368.2777344196855,270.6930600336381 368.2777344196855,225.30048755095112 396.6480922213649,217.11067069404828 396.6480922213649,262.50324317673534" />
  <polygon fill="antiquewhite" points="493.87753928039933,439.31387683862454 493.87753928039933,342.8546603129146 516.5738255217428,336.3028068273924 516.5738255217428,432.76202335310234" />
  <polygon fill="beige" points="493.87753928039933,439.31387683862454 493.87753928039933,342.8546603129146 480.7738323093548,331.5065171922428 480.7738323093548,427.96573371795284" />
  <polygon fill="bisque" points="493.87753928039933,342.8546603129146 480.7738323093548,331.5065171922428 503.4701185506984,324.95466370672057 516.5738255217428,336.3028068273924" />
</svg>
