<?xml version="1.0" encoding="UTF-8"?>
<svg
  xmlns="http://www.w3.org/2000/svg"
  width="848"
  height="600"
  style="background-color:white"
>
  <polygon fill="lightblue" points="407.266241124715,523.4099542301961 190.92880557860374,336.0562392576852 440.733758875285,263.9437607423148 657.0711944213963,451.29747571482574" />
  <polygon fill="steelblue" points="190.92880557860374,336.0562392576852 190.92880557860374,148.70252428517423 440.733758875285,76.59004576980382 440.733758875285,263.9437607423148" />
  <polygon fill="lightskyblue" points="657.0711944213963,451.29747571482574 657.0711944213963,263.9437607423148 440.733758875285,76.59004576980382 440.733758875285,263.9437607423148" />
  <polygon fill="white" points="559.7193484256462,366.9883039771958 559.7193484256462,242.08582732885517 538.0856048710351,223.35045583160408 538.0856048710351,348.2529324799447" />
  <polygon fill="white" points="300.2184726459018,254.54603924787438 300.2184726459018,204.58504858853814 331.444091807987,195.57098877411684 331.444091807987,245.5319794334531" />
  <polygon fill="grey" points="427.53625934204246,144.93278199218693 427.53625934204246,113.70716283010177 458.7618785041276,104.69310301568046 458.7618785041276,135.91872217776563" />
  <polygon fill="lightgrey" points="427.53625934204246,144.93278199218693 427.53625934204246,113.70716283010177 409.50813971319985,98.0943532490592 409.50813971319985,129.31997241114436" />
  <polygon fill="darkgrey" points="427.53625934204246,113.70716283010177 409.50813971319985,98.0943532490592 440.733758875285,89.0802934346379 458.7618785041276,104.69310301568046" />
  <polygon fill="hsl(360.0,50.0%,72.09185257592405%)" points="394.2308875906285,333.53153488126156 394.2308875906285,290.64002440022136 401.72503618952896,288.4766500447602 401.72503618952896,331.3681605258004" />
  <polygon fill="hsl(360.0,50.0%,72.09185257592405%)" points="412.9662590878796,328.1230989926088 412.9662590878796,285.2315885115686 405.4721104889792,287.3949628670297 405.4721104889792,330.2864733480699" />
  <polygon fill="hsl(360.0,50.0%,72.09185257592405%)" points="386.7367389917281,293.22806717628686 386.7367389917281,250.761225115851 393.29411901576594,248.86827255482254 393.29411901576594,291.33511461525836" />
  <polygon fill="hsl(360.0,50.0%,72.09185257592405%)" points="413.90302766274215,285.3858351377403 413.90302766274215,242.9189930773045 420.46040768678006,241.026040516276 420.46040768678006,283.49288257671185" />
  <polygon fill="hsl(360.0,50.0%,72.09185257592405%)" points="393.29411901576594,255.42565257886042 393.29411901576594,248.86827255482254 413.90302766274215,242.9189930773045 413.90302766274215,249.47637310134238" />
  <polygon fill="hsl(360.0,50.0%,72.09185257592405%)" points="394.2308875906285,291.0646928208257 394.2308875906285,248.59785076038992 412.9662590878796,243.18941487173714 412.9662590878796,285.65625693217294" />
  <polygon fill="hsl(360.0,50.0%,72.09185257592405%)" points="398.9147304649413,245.12239968520493 398.9147304649413,226.01232075800883 408.2824162135668,223.3081028136824 408.2824162135668,242.41818174087854" />
  <polygon fill="hsl(360.0,50.0%,72.09185257592405%)" points="400.7882676146664,246.70489819936142 400.7882676146664,225.47147716914355 406.4088790638417,223.8489464025477 406.4088790638417,245.0823674327656" />
  <polygon fill="hsl(360.0,50.0%,59.71537400830306%)" points="454.0145184104834,378.10760021901217 454.0145184104834,335.216089737972 461.5086670093838,333.0527153825109 461.5086670093838,375.9442258635511" />
  <polygon fill="hsl(360.0,50.0%,59.71537400830306%)" points="472.7498899077344,372.6991643303594 472.7498899077344,329.8076538493192 465.255741308834,331.97102820478034 465.255741308834,374.86253868582054" />
  <polygon fill="hsl(360.0,50.0%,59.71537400830306%)" points="446.5203698115829,337.80413251403746 446.5203698115829,295.33729045360167 453.0777498356208,293.4443378925732 453.0777498356208,335.911179953009" />
  <polygon fill="hsl(360.0,50.0%,59.71537400830306%)" points="473.686658482597,329.96190047549095 473.686658482597,287.4950584150551 480.24403850663487,285.60210585402666 480.24403850663487,328.06894791446246" />
  <polygon fill="hsl(360.0,50.0%,59.71537400830306%)" points="453.0777498356208,300.0017179166111 453.0777498356208,293.4443378925732 473.686658482597,287.4950584150551 473.686658482597,294.052438439093" />
  <polygon fill="hsl(360.0,50.0%,59.71537400830306%)" points="454.0145184104834,335.6407581585764 454.01451841048333,293.1739160981405 472.7498899077344,287.76548020948775 472.7498899077344,330.2323222699236" />
  <polygon fill="hsl(360.0,50.0%,59.71537400830306%)" points="458.69836128479614,289.6984650229556 458.69836128479614,270.58838609575946 468.0660470334217,267.8841681514331 468.0660470334217,286.99424707862914" />
  <polygon fill="hsl(360.0,50.0%,59.71537400830306%)" points="460.57189843452124,291.2809635371121 460.57189843452124,270.04754250689416 466.1925098836966,268.4250117402983 466.1925098836966,289.65843277051624" />
  <polygon fill="hsl(360.0,50.0%,50.65955712546234%)" points="464.9416695190712,420.1969616716292 464.9416695190712,377.305451190589 472.4358181179716,375.1420768351279 472.4358181179716,418.03358731616805" />
  <polygon fill="hsl(360.0,50.0%,50.65955712546234%)" points="483.6770410163223,414.7885257829764 483.6770410163223,371.8970153019362 476.18289241742184,374.06038965739737 476.18289241742184,416.9519001384375" />
  <polygon fill="hsl(360.0,50.0%,50.65955712546234%)" points="457.44752092017075,379.8934939666545 457.44752092017075,337.42665190621864 464.0049009442086,335.5336993451902 464.0049009442086,378.000541405626" />
  <polygon fill="hsl(360.0,50.0%,50.65955712546234%)" points="484.6138095911848,372.0512619281079 484.6138095911848,329.5844198676721 491.1711896152227,327.69146730664363 491.1711896152227,370.1583093670795" />
  <polygon fill="hsl(360.0,50.0%,50.65955712546234%)" points="464.0049009442086,342.09107936922805 464.0049009442086,335.5336993451902 484.6138095911848,329.5844198676721 484.6138095911848,336.14179989171" />
  <polygon fill="hsl(360.0,50.0%,50.65955712546234%)" points="464.9416695190712,377.73011961119335 464.9416695190712,335.26327755075755 483.6770410163223,329.8548416621048 483.6770410163223,372.32168372254057" />
  <polygon fill="hsl(360.0,50.0%,50.65955712546234%)" points="469.62551239338393,331.78782647557256 469.62551239338393,312.6777475483765 478.9931981420095,309.97352960405004 478.9931981420095,329.08360853124617" />
  <polygon fill="hsl(360.0,50.0%,50.65955712546234%)" points="471.49904954310904,333.37032498972906 471.49904954310904,312.1369039595112 477.11966099228437,310.51437319291534 477.11966099228437,331.74779422313327" />
  <polygon fill="hsl(360.0,50.0%,42.21758785095096%)" points="427.02755153529347,473.3187395906665 427.02755153529347,430.4272291096263 434.5217001341939,428.2638547541652 434.5217001341939,471.1553652352054" />
  <polygon fill="hsl(360.0,50.0%,42.21758785095096%)" points="445.76292303254456,467.9103037020137 445.76292303254456,425.0187932209735 438.2687744336441,427.1821675764346 438.2687744336441,470.0736780574748" />
  <polygon fill="hsl(360.0,50.0%,42.21758785095096%)" points="419.53340293639303,433.01527188569173 419.53340293639303,390.54842982525594 426.09078296043094,388.6554772642275 426.09078296043094,431.1223193246633" />
  <polygon fill="hsl(360.0,50.0%,42.21758785095096%)" points="446.69969160740715,425.1730398471452 446.69969160740715,382.7061977867094 453.257071631445,380.81324522568093 453.257071631445,423.2800872861168" />
  <polygon fill="hsl(360.0,50.0%,42.21758785095096%)" points="426.09078296043094,395.21285728826535 426.09078296043094,388.6554772642275 446.69969160740715,382.7061977867094 446.69969160740715,389.2635778107473" />
  <polygon fill="hsl(360.0,50.0%,42.21758785095096%)" points="427.02755153529347,430.85189753023064 427.02755153529347,388.38505546979485 445.76292303254456,382.9766195811421 445.76292303254456,425.44346164157787" />
  <polygon fill="hsl(360.0,50.0%,42.21758785095096%)" points="431.71139440960627,384.90960439460986 431.71139440960627,365.7995254674138 441.0790801582318,363.09530752308734 441.0790801582318,382.20538645028347" />
  <polygon fill="hsl(360.0,50.0%,42.21758785095096%)" points="433.5849315593314,386.49210290876636 433.5849315593314,365.2586818785485 439.2055430085067,363.63615111195264 439.2055430085067,384.8695721421705" />
  <polygon fill="hsl(360.0,50.0%,41.7579500056716%)" points="525.8007238653366,447.1017769834026 525.8007238653366,404.2102665023624 533.2948724642371,402.0468921469013 533.2948724642371,444.9384026279415" />
  <polygon fill="hsl(360.0,50.0%,41.7579500056716%)" points="544.5360953625877,441.6933410947498 544.5360953625877,398.8018306137096 537.0419467636873,400.9652049691707 537.0419467636873,443.8567154502109" />
  <polygon fill="hsl(360.0,50.0%,41.7579500056716%)" points="518.3065752664362,406.7983092784279 518.3065752664362,364.3314672179921 524.8639552904741,362.4385146569636 524.8639552904741,404.9053567173994" />
  <polygon fill="hsl(360.0,50.0%,41.7579500056716%)" points="545.4728639374503,398.9560772398813 545.4728639374503,356.48923517944553 552.0302439614882,354.59628261841704 552.0302439614882,397.0631246788529" />
  <polygon fill="hsl(360.0,50.0%,41.7579500056716%)" points="524.8639552904741,368.99589468100146 524.8639552904741,362.4385146569636 545.4728639374503,356.48923517944553 545.4728639374503,363.04661520348344" />
  <polygon fill="hsl(360.0,50.0%,41.7579500056716%)" points="525.8007238653366,404.63493492296675 525.8007238653366,362.16809286253095 544.5360953625877,356.7596569738782 544.5360953625877,399.226499034314" />
  <polygon fill="hsl(360.0,50.0%,41.7579500056716%)" points="530.4845667396494,358.69264178734596 530.4845667396494,339.5825628601499 539.852252488275,336.87834491582345 539.852252488275,355.9884238430196" />
  <polygon fill="hsl(360.0,50.0%,41.7579500056716%)" points="532.3581038893745,360.27514030150246 532.3581038893745,339.0417192712846 537.9787153385498,337.41918850468875 537.9787153385498,358.6526095349067" />
</svg>
