<?xml version="1.0" encoding="UTF-8"?>
<svg
  xmlns="http://www.w3.org/2000/svg"
  width="848"
  height="600"
  style="background-color:white"
>
  <polygon fill="lightblue" points="408.79637107611603,531.351772039367 212.24076651044876,361.12962522929064 439.20362892388397,295.61109037406817 635.7592334895512,465.8332371841446" />
  <polygon fill="steelblue" points="212.24076651044876,361.12962522929064 212.24076651044876,134.1667628158554 439.20362892388397,68.64822796063294 439.20362892388397,295.61109037406817" />
  <polygon fill="lightskyblue" points="635.7592334895512,465.8332371841446 635.7592334895512,238.87037477070936 439.20362892388397,68.64822796063294 439.20362892388397,295.61109037406817" />
  <polygon fill="white" points="547.309211435001,389.2332711196102 547.309211435001,275.7518399128926 527.6536509784343,258.72962523188494 527.6536509784343,372.21105643860255" />
  <polygon fill="white" points="235.88273134518158,308.9122053658512 235.88273134518158,263.5196328831642 264.253089146861,255.32981602626137 264.253089146861,300.7223885089484" />
  <polygon fill="white" points="273.70987508075416,297.9924495566475 273.70987508075416,252.59987707396044 302.08023288243356,244.41006021705763 302.08023288243356,289.80263269974466" />
  <polygon fill="white" points="311.5370188163267,287.07269374744374 311.5370188163267,241.6801212647567 339.9073766180061,233.4903044078539 339.9073766180061,278.88287689054096" />
  <polygon fill="white" points="349.3641625518992,276.15293793824003 349.3641625518992,230.76036545555297 377.7345203535786,222.57054859865016 377.7345203535786,267.9631210813372" />
  <polygon fill="white" points="387.1913062874717,265.23318212903627 387.1913062874717,219.8406096463492 415.5616640891511,211.65079278944643 415.5616640891511,257.0433652721335" />
  <polygon fill="antiquewhite" points="493.87753928039933,439.31387683862454 493.87753928039933,342.8546603129146 516.5738255217428,336.3028068273924 516.5738255217428,432.76202335310234" />
  <polygon fill="beige" points="493.87753928039933,439.31387683862454 493.87753928039933,342.8546603129146 480.7738323093548,331.5065171922428 480.7738323093548,427.96573371795284" />
  <polygon fill="bisque" points="493.87753928039933,342.8546603129146 480.7738323093548,331.5065171922428 503.4701185506984,324.95466370672057 516.5738255217428,336.3028068273924" />
</svg>
