<?xml version="1.0" encoding="UTF-8"?>
<svg
  xmlns="http://www.w3.org/2000/svg"
  width="848"
  height="600"
  style="background-color:white"
>
  <polygon fill="lightblue" points="408.79637107611603,531.351772039367 212.24076651044876,361.12962522929064 439.20362892388397,295.61109037406817 635.7592334895512,465.8332371841446" />
  <polygon fill="steelblue" points="212.24076651044876,361.12962522929064 212.24076651044876,134.1667628158554 439.20362892388397,68.64822796063294 439.20362892388397,295.61109037406817" />
  <polygon fill="lightskyblue" points="635.7592334895512,465.8332371841446 635.7592334895512,238.87037477070936 439.20362892388397,68.64822796063294 439.20362892388397,295.61109037406817" />
  <polygon fill="white" points="547.309211435001,389.2332711196102 547.309211435001,275.7518399128926 527.6536509784343,258.72962523188494 527.6536509784343,372.21105643860255" />
  <polygon fill="antiquewhite" points="493.87753928039933,439.31387683862454 493.87753928039933,342.8546603129146 516.5738255217428,336.3028068273924 516.5738255217428,432.76202335310234" />
  <polygon fill="beige" points="493.87753928039933,439.31387683862454 493.87753928039933,342.8546603129146 480.7738323093548,331.5065171922428 480.7738323093548,427.96573371795284" />
  <polygon fill="bisque" points="493.87753928039933,342.8546603129146 480.7738323093548,331.5065171922428 503.4701185506984,324.95466370672057 516.5738255217428,336.3028068273924" />
  <polygon fill="antiquewhite" points="421.1499574928605,512.9988928510054 421.1499574928605,416.53967632529543 443.846243734204,409.9878228397732 443.846243734204,506.44703936548314" />
  <polygon fill="beige" points="421.1499574928605,512.9988928510054 421.1499574928605,416.53967632529543 408.046250521816,405.1915332046236 408.046250521816,501.6507497303336" />
  <polygon fill="bisque" points="421.1499574928605,416.53967632529543 408.046250521816,405.1915332046236 430.7425367631595,398.6396797191014 443.846243734204,409.9878228397732" />
  <polygon fill="antiquewhite" points="413.04355697135924,328.87942166452245 413.04355697135924,232.4202051388125 435.7398432127028,225.86835165329023 435.7398432127028,322.3275681790002" />
  <polygon fill="beige" points="413.04355697135924,328.87942166452245 413.04355697135924,232.4202051388125 399.9398500003147,221.07206201814074 399.9398500003147,317.5312785438507" />
  <polygon fill="bisque" points="413.04355697135924,232.4202051388125 399.9398500003147,221.07206201814074 422.6361362416583,214.52020853261848 435.7398432127028,225.86835165329023" />
  <polygon fill="antiquewhite" points="405.02637251715385,369.3206917919143 405.02637251715385,272.86147526620437 427.72265875849735,266.3096217806821 427.72265875849735,362.76883830639207" />
  <polygon fill="beige" points="405.02637251715385,369.3206917919143 405.02637251715385,272.86147526620437 391.92266554610933,261.51333214553256 391.92266554610933,357.9725486712425" />
  <polygon fill="bisque" points="405.02637251715385,272.86147526620437 391.92266554610933,261.51333214553256 414.6189517874529,254.96147866001033 427.72265875849735,266.3096217806821" />
</svg>
