<?xml version="1.0" encoding="UTF-8"?>
<svg
  xmlns="http://www.w3.org/2000/svg"
  width="848"
  height="600"
  style="background-color:white"
>
  <polygon fill="lightblue" points="411.6936475291174,487.2642686646416 252.59462176214424,349.48047063308786 436.3063524708826,296.44746204409677 595.4053782378558,434.2312600756505" />
  <polygon fill="steelblue" points="252.59462176214424,349.48047063308786 252.59462176214424,165.76873992434952 436.3063524708826,112.7357313353584 436.3063524708826,296.44746204409677" />
  <polygon fill="lightskyblue" points="595.4053782378558,434.2312600756505 595.4053782378558,250.51952936691217 436.3063524708826,112.7357313353584 436.3063524708826,296.44746204409677" />
  <polygon fill="white" points="523.8108166427178,372.22855096145133 523.8108166427178,280.37268560708213 507.9009140660205,266.5943058039268 507.9009140660205,358.4501711582959" />
  <polygon fill="white" points="271.7312603776378,307.21385276332023 271.7312603776378,270.4715066215726 294.6952267162301,263.8423805479487 294.6952267162301,300.58472668969637" />
  <polygon fill="white" points="302.34988216242755,298.37501799848843 302.34988216242755,261.6326718567407 325.31384850101983,255.00354578311686 325.31384850101983,291.7458919248645" />
  <polygon fill="white" points="332.9685039472173,289.5361832336566 332.9685039472173,252.7938370919089 355.9324702858096,246.164711018285 355.9324702858096,282.90705716003265" />
  <polygon fill="white" points="363.587125732007,280.6973484688247 363.587125732007,243.95500232707704 386.5510920705993,237.32587625345315 386.5510920705993,274.06822239520085" />
  <polygon fill="white" points="394.2057475167967,271.85851370399286 394.2057475167967,235.1161675622452 417.169713855389,228.48704148862132 417.169713855389,265.229387630369" />
</svg>
