<?xml version="1.0" encoding="UTF-8"?>
<svg
  xmlns="http://www.w3.org/2000/svg"
  width="848"
  height="600"
  style="background-color:white"
>
  <polygon fill="lightblue" points="403.7284947681547,532.8147419146777 141.65435534726498,305.8518795012424 444.2715052318453,218.49383302761248 706.345644652735,445.4566954410477" />
  <polygon fill="steelblue" points="141.65435534726498,305.8518795012424 141.65435534726498,154.54330455895226 444.2715052318453,67.18525808532232 444.2715052318453,218.49383302761248" />
  <polygon fill="lightskyblue" points="706.345644652735,445.4566954410477 706.345644652735,294.1481204987576 444.2715052318453,67.18525808532232 444.2715052318453,218.49383302761248" />
  <polygon fill="white" points="544.7332586765197,305.4962636194293 544.7332586765197,161.75311742425367 518.5258447344307,139.05683118291014 518.5258447344307,282.7999773780858" />
  <polygon fill="white" points="632.0913051501495,381.1505510905744 632.0913051501495,237.40740489539877 605.8838912080606,214.71111865405524 605.8838912080606,358.4542648492309" />
  <polygon fill="white" points="198.3950709506238,228.94881581052073 198.3950709506238,168.42538583360468 236.22221468619634,157.50563002440094 236.22221468619634,218.029060001317" />
  <polygon fill="white" points="274.0493584217689,207.10930419211326 274.0493584217689,146.58587421519718 311.8765021573414,135.66611840599344 311.8765021573414,196.1895483829095" />
  <polygon fill="white" points="349.703645892914,185.2697925737058 349.703645892914,124.74636259678968 387.5307896284865,113.82660678758594 387.5307896284865,174.35003676450202" />
  <polygon fill="hsl(360.0,50.0%,50.65955712546234%)" points="473.5973005253548,407.78110576400934 473.5973005253548,355.8217411288269 482.6758150218922,353.200999734618 482.6758150218922,405.16036436980045" />
  <polygon fill="hsl(360.0,50.0%,50.65955712546234%)" points="496.2935867666983,401.22925227848714 496.2935867666983,349.2698876433046 487.2150722701609,351.8906290375136 487.2150722701609,403.849993672696" />
  <polygon fill="hsl(360.0,50.0%,50.65955712546234%)" points="464.5187860288174,358.9569316778396 464.5187860288174,307.5120161974609 472.4624862132876,305.21886747752814 472.4624862132876,356.6637829579068" />
  <polygon fill="hsl(360.0,50.0%,50.65955712546234%)" points="497.4284010787655,349.4567441238323 497.4284010787655,298.01182864345367 505.3721012632357,295.7186799235209 505.3721012632357,347.16359540389954" />
  <polygon fill="hsl(360.0,50.0%,50.65955712546234%)" points="472.4624862132876,313.16256766199837 472.4624862132876,305.21886747752814 497.4284010787655,298.01182864345367 497.4284010787655,305.9555288279239" />
  <polygon fill="hsl(360.0,50.0%,50.65955712546234%)" points="473.5973005253548,356.3361902836307 473.5973005253548,304.89127480325203 496.2935867666983,298.3394213177298 496.2935867666983,349.7843367981084" />
  <polygon fill="hsl(360.0,50.0%,50.65955712546234%)" points="479.27137208569064,300.6810656578525 479.27137208569064,277.5308536916822 490.61951520636245,274.254926948921 490.61951520636245,297.4051389150914" />
  <polygon fill="hsl(360.0,50.0%,50.65955712546234%)" points="481.541000709825,302.59812608331924 481.541000709825,276.8756683431299 488.34988658222807,274.91011229747323 488.34988658222807,300.63257003766256" />
</svg>
