<?xml version="1.0" encoding="UTF-8"?>
<svg
  xmlns="http://www.w3.org/2000/svg"
  width="848"
  height="600"
  style="background-color:white"
>
  <polygon fill="lightblue" points="410.7184067789952,551.6719692419688 239.01127039599547,402.9692271232118 437.2815932210048,345.73351499554525 608.9887296040046,494.4362571143023" />
  <polygon fill="steelblue" points="239.01127039599547,402.9692271232118 239.0112703959954,105.56374288569774 437.2815932210048,48.32803075803116 437.2815932210048,345.73351499554525" />
  <polygon fill="lightskyblue" points="608.9887296040046,494.4362571143023 608.9887296040046,197.0307728767882 437.2815932210048,48.32803075803116 437.2815932210048,345.73351499554525" />
  <polygon fill="white" points="531.7205182316546,427.52002316086157 531.7205182316546,328.3848617483569 514.5498045933547,313.5145875364812 514.5498045933547,412.6497489489859" />
  <polygon fill="white" points="254.94370705157658,358.7158642622367 254.94370705157655,319.06179969723485 279.7274974047027,311.9073356812765 279.7274974047027,351.5614002462784" />
  <polygon fill="white" points="283.2680388837208,350.5393339582844 283.2680388837208,310.8852693932825 308.0518292368469,303.73080537732415 308.0518292368469,343.384869942326" />
  <polygon fill="white" points="311.59237071586494,342.36280365433197 311.59237071586494,302.7087390893301 336.3761610689911,295.5542750733718 336.3761610689911,335.2083396383737" />
  <polygon fill="white" points="339.91670254800914,334.1862733503796 339.91670254800914,294.53220878537775 364.7004929011353,287.3777447694194 364.7004929011353,327.03180933442127" />
  <polygon fill="white" points="368.24103438015334,326.0097430464273 368.24103438015334,286.35567848142534 393.0248247332795,279.20121446546705 393.0248247332795,318.8552790304689" />
  <polygon fill="white" points="396.56536621229753,317.83321274247487 396.56536621229753,278.179148177473 421.3491565654237,271.02468416151464 421.3491565654237,310.6787487265166" />
  <polygon fill="antiquewhite" points="485.04365323920024,471.26946197915345 485.0436532392002,387.0045747785245 504.87068552170115,381.2810035657578 504.87068552170115,465.54589076638683" />
  <polygon fill="beige" points="485.04365323920024,471.26946197915345 485.0436532392002,387.0045747785245 473.5965108136669,377.09105863727405 473.5965108136669,461.35594583790305" />
  <polygon fill="bisque" points="485.0436532392002,387.0045747785245 473.5965108136669,377.09105863727405 493.42354309616786,371.3674874245074 504.87068552170115,381.2810035657578" />
  <polygon fill="antiquewhite" points="421.51025854209485,535.6392525113507 421.51025854209485,451.3743653107217 441.33729082459575,445.6507940979551 441.3372908245958,529.9156812985841" />
  <polygon fill="beige" points="421.51025854209485,535.6392525113507 421.51025854209485,451.3743653107217 410.06311611656156,441.46084916947126 410.06311611656156,525.7257363701002" />
  <polygon fill="bisque" points="421.51025854209485,451.3743653107217 410.06311611656156,441.46084916947126 429.89014839906247,435.7372779567046 441.33729082459575,445.6507940979551" />
</svg>
