<?xml version="1.0" encoding="UTF-8"?>
<svg
  xmlns="http://www.w3.org/2000/svg"
  width="848"
  height="600"
  style="background-color:white"
>
  <polygon fill="lightblue" points="400.7949192431123,653.1088913245535 100.7949192431123,393.30127018922195 447.2050807568877,293.3012701892219 747.2050807568877,553.1088913245535" />
  <polygon fill="steelblue" points="100.7949192431123,393.30127018922195 100.7949192431123,46.89110867544653 447.2050807568877,-53.108891324553554 447.2050807568877,293.3012701892219" />
  <polygon fill="lightskyblue" points="747.2050807568877,553.1088913245535 747.2050807568877,206.69872981077805 447.2050807568877,-53.108891324553554 447.2050807568877,293.3012701892219" />
  <polygon fill="white" points="612.2050807568877,436.1954618136543 612.2050807568877,262.9903810567665 582.2050807568877,237.00961894323342 582.2050807568877,410.2146997001211" />
  <polygon fill="white" points="148.4263164512564,310.26923788646684 148.4263164512564,240.98720558371176 191.72758664047834,228.48720558371173 191.72758664047834,297.76923788646684" />
  <polygon fill="white" points="217.70834875401152,290.26923788646684 217.7083487540115,220.98720558371173 261.0096189432334,208.48720558371173 261.0096189432335,277.76923788646684" />
  <polygon fill="white" points="286.99038105676664,270.26923788646684 286.99038105676664,200.98720558371173 330.29165124598853,188.48720558371173 330.29165124598853,257.7692378864668" />
  <polygon fill="white" points="356.2724133595217,250.2692378864668 356.2724133595217,180.98720558371173 399.5736835487436,168.4872055837117 399.5736835487436,237.76923788646678" />
</svg>
