<?xml version="1.0" encoding="UTF-8"?>
<svg
  xmlns="http://www.w3.org/2000/svg"
  width="848"
  height="600"
  style="background-color:white"
>
  <polygon fill="lightblue" points="410.7184067789952,551.6719692419688 239.01127039599547,402.9692271232118 437.2815932210048,345.73351499554525 608.9887296040046,494.4362571143023" />
  <polygon fill="steelblue" points="239.01127039599547,402.9692271232118 239.0112703959954,105.56374288569774 437.2815932210048,48.32803075803116 437.2815932210048,345.73351499554525" />
  <polygon fill="lightskyblue" points="608.9887296040046,494.4362571143023 608.9887296040046,197.0307728767882 437.2815932210048,48.32803075803116 437.2815932210048,345.73351499554525" />
  <polygon fill="white" points="292.7094828277688,347.8138238569669 292.7094828277688,308.15975929196503 317.493273180895,301.0052952760067 317.493273180895,340.6593598410086" />
  <polygon fill="white" points="358.7995904361053,328.7352531477447 358.7995904361053,289.0811885827428 383.58338078923146,281.9267245667845 383.58338078923146,321.5807891317864" />
  <polygon fill="grey" points="426.8067308997953,102.57169644492922 426.8067308997953,77.78790609180308 451.59052125292146,70.6334420758447 451.59052125292146,95.41723242897089" />
  <polygon fill="lightgrey" points="426.8067308997953,102.57169644492922 426.8067308997953,77.78790609180308 412.49780286787865,65.39601091524 412.49780286787865,90.17980126836613" />
  <polygon fill="darkgrey" points="426.8067308997953,77.78790609180308 412.49780286787865,65.39601091524 437.2815932210048,58.241546899281616 451.59052125292146,70.6334420758447" />
  <polygon fill="hsl(360.0,50.0%,50.65955712546234%)" points="456.495424631954,469.7517627598413 456.495424631954,435.70874833078716 462.44353431670424,433.99167696695713 462.44353431670424,468.0346913960112" />
  <polygon fill="hsl(360.0,50.0%,50.65955712546234%)" points="471.3656988438297,465.45908435026627 471.36569884382965,431.41606992121217 465.4175891590794,433.13314128504214 465.4175891590794,467.1761557140963" />
  <polygon fill="hsl(360.0,50.0%,50.65955712546234%)" points="450.5473149472037,437.76287924341966 450.5473149472037,404.05692436316804 455.7519109213602,402.55448691981684 455.7519109213602,436.2604418000684" />
  <polygon fill="hsl(360.0,50.0%,50.65955712546234%)" points="472.1092125544235,431.5384955495359 472.1092125544235,397.8325406692843 477.31380852857995,396.33010322593304 477.31380852857995,430.03605810618467" />
  <polygon fill="hsl(360.0,50.0%,50.65955712546234%)" points="455.7519109213602,407.7590828939733 455.7519109213602,402.55448691981684 472.1092125544235,397.8325406692843 472.1092125544235,403.0371366434408" />
  <polygon fill="hsl(360.0,50.0%,50.65955712546234%)" points="456.495424631954,436.0458078795897 456.495424631954,402.33985299933806 471.36569884382965,398.0471745897631 471.36569884382965,431.75312947001464" />
  <polygon fill="hsl(360.0,50.0%,50.65955712546234%)" points="460.2129931849229,399.5813856529318 460.2129931849229,384.41370595681855 467.64813029086076,382.267366752031 467.64813029086076,397.43504644814425" />
  <polygon fill="hsl(360.0,50.0%,50.65955712546234%)" points="461.70002060611046,400.8374155559868 461.70002060611046,383.98443811586105 466.1611028696732,382.6966345929885 466.1611028696732,399.54961203311433" />
</svg>
