<?xml version="1.0" encoding="UTF-8"?>
<svg
  xmlns="http://www.w3.org/2000/svg"
  width="848"
  height="600"
  style="background-color:white"
>
  <polygon fill="lightblue" points="407.91049563499496,544.8320308733323 199.9021133298045,364.69148759693184 440.08950436500504,295.3553601618683 648.0978866701955,475.4959034382687" />
  <polygon fill="steelblue" points="199.9021133298045,364.69148759693184 199.9021133298045,124.50409656173127 440.08950436500504,55.16796912666774 440.08950436500504,295.3553601618683" />
  <polygon fill="lightskyblue" points="648.0978866701955,475.4959034382687 648.0978866701955,235.30851240306816 440.08950436500504,55.16796912666774 440.08950436500504,295.3553601618683" />
  <polygon fill="white" points="554.4941146328598,394.43265896388857 554.4941146328598,280.34364822216827 533.6932764023408,262.3295938945283 533.6932764023408,376.4186046362485" />
  <polygon fill="white" points="244.9372491489046,303.6534854958173 244.9372491489046,255.61600728877718 274.96067302830465,246.94899135939426 274.96067302830465,294.9864695664343" />
  <polygon fill="white" points="304.9840969077047,286.3194536370514 304.9840969077047,238.2819754300113 335.0075207871048,229.61495950062837 335.00752078710485,277.65243770766847" />
  <polygon fill="white" points="365.0309446665049,268.9854217782855 365.03094466650487,220.94794357124545 395.05436854590494,212.2809276418625 395.05436854590494,260.3184058489026" />
  <polygon fill="hsl(288.0,50.0%,50.65955712546234%)" points="463.36540351436554,445.5927680948422 463.36540351436554,404.3525930540983 470.5710252454216,402.2725092310464 470.5710252454216,443.51268427179036" />
  <polygon fill="hsl(288.0,50.0%,50.65955712546234%)" points="481.3794578420056,440.3925585372125 481.3794578420056,399.15238349646853 474.1738361109496,401.2324673195204 474.1738361109496,442.47264236026433" />
  <polygon fill="hsl(288.0,50.0%,50.65955712546234%)" points="456.15978178330954,406.84099544191 456.15978178330954,366.00913896592596 462.46470079798354,364.1890656207555 462.46470079798354,405.02092209673964" />
  <polygon fill="hsl(288.0,50.0%,50.65955712546234%)" points="482.2801605583876,399.30069158334686 482.2801605583876,358.4688351073628 488.5850795730616,356.6487617621924 488.5850795730616,397.4806182381765" />
  <polygon fill="hsl(288.0,50.0%,50.65955712546234%)" points="462.46470079798354,370.49398463542957 462.46470079798354,364.1890656207555 482.2801605583876,358.4688351073628 482.2801605583876,364.7737541220368" />
  <polygon fill="hsl(288.0,50.0%,50.65955712546234%)" points="463.36540351436554,404.76091161885813 463.36540351436554,363.92905514287406 481.3794578420056,358.7288455852443 481.3794578420056,399.56070206122837" />
  <polygon fill="hsl(288.0,50.0%,50.65955712546234%)" points="467.86891709627554,360.5874099296674 467.86891709627554,342.21307451547455 476.8759442600956,339.6129697366597 476.8759442600956,357.98730515085254" />
  <polygon fill="hsl(288.0,50.0%,50.65955712546234%)" points="469.6703225290396,362.1089817977036 469.6703225290396,341.6930535597116 475.0745388273316,340.13299069242265 475.0745388273316,360.5489189304147" />
</svg>
