<?xml version="1.0" encoding="UTF-8"?>
<svg
  xmlns="http://www.w3.org/2000/svg"
  width="848"
  height="600"
  style="background-color:white"
>
  <polygon fill="lightblue" points="400.7949192431123,653.1088913245535 100.7949192431123,393.30127018922195 447.2050807568877,293.3012701892219 747.2050807568877,553.1088913245535" />
  <polygon fill="steelblue" points="100.7949192431123,393.30127018922195 100.7949192431123,46.89110867544653 447.2050807568877,-53.108891324553554 447.2050807568877,293.3012701892219" />
  <polygon fill="lightskyblue" points="747.2050807568877,553.1088913245535 747.2050807568877,206.69872981077805 447.2050807568877,-53.108891324553554 447.2050807568877,293.3012701892219" />
  <polygon fill="white" points="612.2050807568877,436.1954618136543 612.2050807568877,262.9903810567665 582.2050807568877,237.00961894323342 582.2050807568877,410.2146997001211" />
  <polygon fill="white" points="128.6314500790407,315.98352360075256 128.6314500790407,246.70149129799745 171.93272026826259,234.20149129799745 171.93272026826259,303.48352360075256" />
  <polygon fill="white" points="178.11861600958002,301.6978093150383 178.11861600958002,232.41577701228317 221.41988619880195,219.91577701228317 221.41988619880195,289.1978093150383" />
  <polygon fill="white" points="227.60578194011936,287.41209502932395 227.60578194011936,218.1300627265689 270.9070521293413,205.6300627265689 270.9070521293413,274.91209502932395" />
  <polygon fill="white" points="277.0929478706587,273.1263807436097 277.0929478706587,203.8443484408546 320.3942180598806,191.3443484408546 320.39421805988064,260.6263807436097" />
  <polygon fill="white" points="326.580113801198,258.8406664578954 326.580113801198,189.5586341551403 369.88138399042,177.05863415514028 369.88138399042,246.3406664578954" />
  <polygon fill="white" points="376.0672797317374,244.55495217218112 376.0672797317374,175.272919869426 419.3685499209593,162.772919869426 419.3685499209593,232.05495217218112" />
</svg>
