<?xml version="1.0" encoding="UTF-8"?>
<svg
  xmlns="http://www.w3.org/2000/svg"
  width="848"
  height="600"
  style="background-color:white"
>
  <polygon fill="lightblue" points="403.7284947681547,532.8147419146777 141.65435534726498,305.8518795012424 444.2715052318453,218.49383302761248 706.345644652735,445.4566954410477" />
  <polygon fill="steelblue" points="141.65435534726498,305.8518795012424 141.65435534726498,154.54330455895226 444.2715052318453,67.18525808532232 444.2715052318453,218.49383302761248" />
  <polygon fill="lightskyblue" points="706.345644652735,445.4566954410477 706.345644652735,294.1481204987576 444.2715052318453,67.18525808532232 444.2715052318453,218.49383302761248" />
  <polygon fill="white" points="223.61316677433882,221.6689786043849 223.61316677433882,161.14554862746883 261.44031050991134,150.2257928182651 261.44031050991134,210.74922279518117" />
  <polygon fill="white" points="324.4855500691989,192.5496297798416 324.4855500691989,132.0261998029255 362.31269380477147,121.10644399372177 362.31269380477147,181.62987397063785" />
  <polygon fill="grey" points="428.28387311468026,149.97658699211388 428.28387311468026,112.14944325654136 466.1110168502528,101.2296874473376 466.1110168502528,139.05683118291014" />
  <polygon fill="lightgrey" points="428.28387311468026,149.97658699211388 428.28387311468026,112.14944325654136 406.4443614962728,93.23587138875507 406.4443614962728,131.06301512432762" />
  <polygon fill="darkgrey" points="428.28387311468026,112.14944325654136 406.4443614962728,93.23587138875507 444.2715052318453,82.31611557955134 466.1110168502528,101.2296874473376" />
  <polygon fill="hsl(360.0,50.0%,72.09185257592405%)" points="387.9372885403975,302.7934179591005 387.9372885403975,250.83405332391806 397.0158030369349,248.21331192970916 397.0158030369349,300.1726765648916" />
  <polygon fill="hsl(360.0,50.0%,72.09185257592405%)" points="410.633574781741,296.24156447357825 410.633574781741,244.2821998383958 401.5550602852036,246.90294123260472 401.5550602852036,298.86230586778714" />
  <polygon fill="hsl(360.0,50.0%,72.09185257592405%)" points="378.8587740438601,253.96924387293075 378.8587740438601,202.5243283925521 386.8024742283303,200.2311796726193 386.8024742283303,251.67609515299796" />
  <polygon fill="hsl(360.0,50.0%,72.09185257592405%)" points="411.7683890938082,244.4690563189235 411.7683890938082,193.02414083854484 419.7120892782784,190.73099211861202 419.7120892782784,242.1759075989907" />
  <polygon fill="hsl(360.0,50.0%,72.09185257592405%)" points="386.8024742283303,208.17487985708954 386.8024742283303,200.2311796726193 411.7683890938082,193.02414083854484 411.7683890938082,200.96784102301507" />
  <polygon fill="hsl(360.0,50.0%,72.09185257592405%)" points="387.9372885403975,251.34850247872183 387.9372885403975,199.9035869983432 410.633574781741,193.35173351282094 410.633574781741,244.7966489931996" />
  <polygon fill="hsl(360.0,50.0%,72.09185257592405%)" points="393.61136010073335,195.69337785294368 393.61136010073335,172.54316588677332 404.95950322140516,169.26723914401217 404.95950322140516,192.41745111018253" />
  <polygon fill="hsl(360.0,50.0%,72.09185257592405%)" points="395.88098872486773,197.61043827841038 395.88098872486773,171.88798053822106 402.6898745972708,169.9224244925644 402.6898745972708,195.64488223275373" />
  <polygon fill="hsl(360.0,50.0%,50.65955712546234%)" points="473.5973005253548,407.78110576400934 473.5973005253548,355.8217411288269 482.6758150218922,353.200999734618 482.6758150218922,405.16036436980045" />
  <polygon fill="hsl(360.0,50.0%,50.65955712546234%)" points="496.2935867666983,401.22925227848714 496.2935867666983,349.2698876433046 487.2150722701609,351.8906290375136 487.2150722701609,403.849993672696" />
  <polygon fill="hsl(360.0,50.0%,50.65955712546234%)" points="464.5187860288174,358.9569316778396 464.5187860288174,307.5120161974609 472.4624862132876,305.21886747752814 472.4624862132876,356.6637829579068" />
  <polygon fill="hsl(360.0,50.0%,50.65955712546234%)" points="497.4284010787655,349.4567441238323 497.4284010787655,298.01182864345367 505.3721012632357,295.7186799235209 505.3721012632357,347.16359540389954" />
  <polygon fill="hsl(360.0,50.0%,50.65955712546234%)" points="472.4624862132876,313.16256766199837 472.4624862132876,305.21886747752814 497.4284010787655,298.01182864345367 497.4284010787655,305.9555288279239" />
  <polygon fill="hsl(360.0,50.0%,50.65955712546234%)" points="473.5973005253548,356.3361902836307 473.5973005253548,304.89127480325203 496.2935867666983,298.3394213177298 496.2935867666983,349.7843367981084" />
  <polygon fill="hsl(360.0,50.0%,50.65955712546234%)" points="479.27137208569064,300.6810656578525 479.27137208569064,277.5308536916822 490.61951520636245,274.254926948921 490.61951520636245,297.4051389150914" />
  <polygon fill="hsl(360.0,50.0%,50.65955712546234%)" points="481.541000709825,302.59812608331924 481.541000709825,276.8756683431299 488.34988658222807,274.91011229747323 488.34988658222807,300.63257003766256" />
  <polygon fill="hsl(360.0,50.0%,42.21758785095096%)" points="427.66761749376155,472.1335568203682 427.66761749376155,420.1741921851858 436.746131990299,417.55345079097685 436.746131990299,469.51281542615936" />
  <polygon fill="hsl(360.0,50.0%,42.21758785095096%)" points="450.36390373510505,465.581703334846 450.36390373510505,413.62233869966354 441.2853892385677,416.24308009387244 441.2853892385677,468.2024447290549" />
  <polygon fill="hsl(360.0,50.0%,42.21758785095096%)" points="418.58910299722413,423.3093827341985 418.58910299722413,371.86446725381984 426.53280318169436,369.57131853388705 426.53280318169436,421.0162340142657" />
  <polygon fill="hsl(360.0,50.0%,42.21758785095096%)" points="451.49871804717225,413.8091951801912 451.49871804717225,362.3642796998126 459.4424182316425,360.0711309798798 459.4424182316425,411.51604646025845" />
  <polygon fill="hsl(360.0,50.0%,42.21758785095096%)" points="426.53280318169436,377.5150187183573 426.53280318169436,369.57131853388705 451.49871804717225,362.3642796998126 451.49871804717225,370.3079798842828" />
  <polygon fill="hsl(360.0,50.0%,42.21758785095096%)" points="427.66761749376155,420.6886413399896 427.66761749376155,369.2437258596109 450.36390373510505,362.6918723740887 450.36390373510505,414.13678785446734" />
  <polygon fill="hsl(360.0,50.0%,42.21758785095096%)" points="433.34168905409746,365.03351671421143 433.34168905409746,341.88330474804104 444.6898321747692,338.60737800527994 444.6898321747692,361.75758997145033" />
  <polygon fill="hsl(360.0,50.0%,42.21758785095096%)" points="435.6113176782318,366.9505771396781 435.6113176782318,341.22811939948883 442.4202035506348,339.26256335383215 442.4202035506348,364.9850210940215" />
</svg>
