<?xml version="1.0" encoding="UTF-8"?>
<svg
  xmlns="http://www.w3.org/2000/svg"
  width="848"
  height="600"
  style="background-color:white"
>
  <polygon fill="lightblue" points="407.266241124715,523.4099542301961 190.92880557860374,336.0562392576852 440.733758875285,263.9437607423148 657.0711944213963,451.29747571482574" />
  <polygon fill="steelblue" points="190.92880557860374,336.0562392576852 190.92880557860374,148.70252428517423 440.733758875285,76.59004576980382 440.733758875285,263.9437607423148" />
  <polygon fill="lightskyblue" points="657.0711944213963,451.29747571482574 657.0711944213963,263.9437607423148 440.733758875285,76.59004576980382 440.733758875285,263.9437607423148" />
  <polygon fill="white" points="523.663109167961,335.7626848151106 523.663109167961,210.86020816677 502.02936561334985,192.1248366695189 502.02936561334985,317.0273133178596" />
  <polygon fill="white" points="595.7755876833314,398.21392313928095 595.7755876833314,273.31144649094034 574.1418441287203,254.57607499368925 574.1418441287203,379.47855164202986" />
  <polygon fill="white" points="300.2184726459018,254.54603924787438 300.2184726459018,204.58504858853814 331.444091807987,195.57098877411684 331.444091807987,245.5319794334531" />
  <polygon fill="hsl(324.0,50.0%,50.65955712546234%)" points="464.9416695190712,420.1969616716292 464.9416695190712,377.305451190589 472.4358181179716,375.1420768351279 472.4358181179716,418.03358731616805" />
  <polygon fill="hsl(324.0,50.0%,50.65955712546234%)" points="483.6770410163223,414.7885257829764 483.6770410163223,371.8970153019362 476.18289241742184,374.06038965739737 476.18289241742184,416.9519001384375" />
  <polygon fill="hsl(324.0,50.0%,50.65955712546234%)" points="457.44752092017075,379.8934939666545 457.44752092017075,337.42665190621864 464.0049009442086,335.5336993451902 464.0049009442086,378.000541405626" />
  <polygon fill="hsl(324.0,50.0%,50.65955712546234%)" points="484.6138095911848,372.0512619281079 484.6138095911848,329.5844198676721 491.1711896152227,327.69146730664363 491.1711896152227,370.1583093670795" />
  <polygon fill="hsl(324.0,50.0%,50.65955712546234%)" points="464.0049009442086,342.09107936922805 464.0049009442086,335.5336993451902 484.6138095911848,329.5844198676721 484.6138095911848,336.14179989171" />
  <polygon fill="hsl(324.0,50.0%,50.65955712546234%)" points="464.9416695190712,377.73011961119335 464.9416695190712,335.26327755075755 483.6770410163223,329.8548416621048 483.6770410163223,372.32168372254057" />
  <polygon fill="hsl(324.0,50.0%,50.65955712546234%)" points="469.62551239338393,331.78782647557256 469.62551239338393,312.6777475483765 478.9931981420095,309.97352960405004 478.9931981420095,329.08360853124617" />
  <polygon fill="hsl(324.0,50.0%,50.65955712546234%)" points="471.49904954310904,333.37032498972906 471.49904954310904,312.1369039595112 477.11966099228437,310.51437319291534 477.11966099228437,331.74779422313327" />
</svg>
