<?xml version="1.0" encoding="UTF-8"?>
<svg
  xmlns="http://www.w3.org/2000/svg"
  width="848"
  height="600"
  style="background-color:white"
>
  <polygon fill="lightblue" points="409.8862011513016,541.1046675424659 227.4201412840996,383.0844243690167 438.1137988486985,322.2624044132827 620.5798587159004,480.28264758673185" />
  <polygon fill="steelblue" points="227.4201412840996,383.0844243690167 227.42014128409954,119.71735241326812 438.1137988486984,58.895332457534124 438.1137988486985,322.2624044132827" />
  <polygon fill="lightskyblue" points="620.5798587159004,480.28264758673185 620.5798587159004,216.9155756309833 438.1137988486984,58.895332457534124 438.1137988486985,322.2624044132827" />
  <polygon fill="white" points="538.4701317756595,409.1735381586797 538.4701317756595,303.8267093763803 520.2235257889394,288.0246850590354 520.2235257889394,393.37151384133483" />
  <polygon fill="white" points="266.92520207746185,329.5415641143968 266.92520207746185,287.40283260147703 293.26190927303674,279.8000801070103 293.26190927303674,321.93881161993005" />
  <polygon fill="white" points="319.59861646861157,314.3360591254633 319.59861646861157,272.1973276125435 345.93532366418646,264.59457511807676 345.93532366418646,306.7333066309966" />
  <polygon fill="white" points="372.2720308597613,299.13055413652984 372.2720308597613,256.99182262361 398.6087380553362,249.38907012914328 398.6087380553362,291.5278016420631" />
  <polygon fill="antiquewhite" points="488.86856120884795,455.664254215868 488.86856120884795,366.1194497509135 509.93792696530784,360.0372477553401 509.93792696530784,449.5820522202946" />
  <polygon fill="beige" points="488.86856120884795,455.664254215868 488.86856120884795,366.1194497509135 476.70415721770115,355.58476687268353 476.70415721770115,445.129571337638" />
  <polygon fill="bisque" points="488.86856120884795,366.1194497509135 476.70415721770115,355.58476687268353 497.77352297416104,349.5025648771101 509.93792696530784,360.0372477553401" />
  <polygon fill="antiquewhite" points="421.3542549047079,524.0673637213971 421.3542549047079,434.5225592564426 442.4236206611678,428.4403572608692 442.4236206611678,517.9851617258237" />
  <polygon fill="beige" points="421.3542549047079,524.0673637213971 421.3542549047079,434.5225592564426 409.1898509135611,423.98787637821266 409.1898509135611,513.5326808431671" />
  <polygon fill="bisque" points="421.3542549047079,434.5225592564426 409.1898509135611,423.98787637821266 430.259216670021,417.90567438263923 442.4236206611678,428.4403572608692" />
  <polygon fill="antiquewhite" points="413.82893927642925,353.14598741942336 413.82893927642925,263.6011829544688 434.8983050328892,257.51898095889544 434.8983050328892,347.06378542384994" />
  <polygon fill="beige" points="413.82893927642925,353.14598741942336 413.82893927642925,263.6011829544688 401.66453528528245,253.06650007623887 401.66453528528245,342.61130454119336" />
  <polygon fill="bisque" points="413.82893927642925,263.6011829544688 401.66453528528245,253.06650007623887 422.7339010417424,246.98429808066547 434.8983050328892,257.51898095889544" />
  <polygon fill="antiquewhite" points="406.3864445084985,390.68833698750734 406.3864445084985,301.14353252255285 427.4558102649584,295.0613305269794 427.4558102649584,384.6061349919339" />
  <polygon fill="beige" points="406.3864445084985,390.68833698750734 406.3864445084985,301.14353252255285 394.22204051735173,290.6088496443229 394.22204051735173,380.1536541092774" />
  <polygon fill="bisque" points="406.3864445084985,301.14353252255285 394.22204051735173,290.6088496443229 415.2914062738116,284.5266476487495 427.4558102649584,295.0613305269794" />
  <polygon fill="antiquewhite" points="360.3852355921289,364.2636725919337 360.3852355921289,274.7188681269792 381.45460134858877,268.6366661314058 381.45460134858877,358.1814705963603" />
  <polygon fill="beige" points="360.3852355921289,364.2636725919337 360.3852355921289,274.7188681269792 348.2208316009821,264.18418524874926 348.2208316009821,353.72898971370375" />
  <polygon fill="bisque" points="360.3852355921289,274.7188681269792 348.2208316009821,264.18418524874926 369.29019735744197,258.10198325317583 381.45460134858877,268.6366661314058" />
</svg>
