<?xml version="1.0" encoding="UTF-8"?>
<svg
  xmlns="http://www.w3.org/2000/svg"
  width="848"
  height="600"
  style="background-color:white"
>
  <polygon fill="lightblue" points="400.7949192431123,696.4101615137754 100.7949192431123,436.60254037844385 447.20508075688775,336.6025403784438 747.2050807568878,596.4101615137754" />
  <polygon fill="steelblue" points="100.7949192431123,436.60254037844385 100.79491924311225,3.5898384862245507 447.2050807568877,-96.41016151377545 447.20508075688775,336.6025403784438" />
  <polygon fill="lightskyblue" points="747.2050807568878,596.4101615137754 747.2050807568877,163.39745962155615 447.2050807568877,-96.41016151377545 447.20508075688775,336.6025403784438" />
  <polygon fill="white" points="612.2050807568877,479.49673200287623 612.2050807568877,306.2916512459885 582.2050807568877,280.3108891324553 582.2050807568878,453.51596988934307" />
  <polygon fill="white" points="136.87931106746385,356.9038414090221 136.87931106746385,287.62180910626705 180.1805812566858,275.121809106267 180.1805812566858,344.4038414090221" />
  <polygon fill="white" points="194.61433798642645,340.2371747423554 194.61433798642645,270.95514243960037 237.91560817564837,258.4551424396003 237.9156081756484,327.7371747423554" />
  <polygon fill="white" points="252.34936490538905,323.5705080756888 252.34936490538905,254.28847577293368 295.65063509461095,241.78847577293368 295.65063509461095,311.0705080756888" />
  <polygon fill="white" points="310.0843918243516,306.9038414090221 310.0843918243516,237.621809106267 353.38566201357355,225.121809106267 353.38566201357355,294.4038414090221" />
  <polygon fill="white" points="367.81941874331415,290.2371747423554 367.81941874331415,220.9551424396003 411.1206889325361,208.4551424396003 411.1206889325361,277.7371747423554" />
</svg>
