<?xml version="1.0" encoding="UTF-8"?>
<svg
  xmlns="http://www.w3.org/2000/svg"
  width="848"
  height="600"
  style="background-color:white"
>
  <polygon fill="lightblue" points="409.78984817638707,489.7176475517629 226.07811746764872,330.61862178478975 438.21015182361293,269.38137821521025 621.9218825323512,428.4804039821835" />
  <polygon fill="steelblue" points="226.07811746764872,330.61862178478975 226.07811746764872,171.51959601781653 438.21015182361293,110.28235244823708 438.21015182361293,269.38137821521025" />
  <polygon fill="lightskyblue" points="621.9218825323512,428.4804039821835 621.9218825323512,269.38137821521025 438.21015182361293,110.28235244823708 438.21015182361293,269.38137821521025" />
  <polygon fill="white" points="539.2516037134191,356.8858423870455 539.2516037134191,250.8198252090634 520.8804306425452,234.9099226323661 520.8804306425452,340.9759398103482" />
  <polygon fill="white" points="255.2462721915938,279.77209392277973 255.2462721915938,237.34568705158685 281.76277648608936,229.6910316053894 281.76277648608936,272.11743847658227" />
  <polygon fill="white" points="297.67267906278664,267.52464520886383 297.67267906278664,225.09823833767095 324.18918335728216,217.4435828914735 324.18918335728216,259.86998976266636" />
  <polygon fill="white" points="340.0990859339795,255.2771964949479 340.0990859339795,212.85078962375508 366.615590228475,205.1961341775576 366.615590228475,247.62254104875046" />
  <polygon fill="white" points="382.52549280517235,243.02974778103203 382.52549280517235,200.60334090983918 409.04199709966787,192.94868546364174 409.04199709966787,235.3750923348346" />
</svg>
