<?xml version="1.0" encoding="UTF-8"?>
<svg
  xmlns="http://www.w3.org/2000/svg"
  width="848"
  height="600"
  style="background-color:white"
>
  <polygon fill="lightblue" points="406.29120903866027,536.4274642434539 177.34836052799383,338.15714141844444 441.70879096133973,261.84285858155556 670.6516394720062,460.11318140656505" />
  <polygon fill="steelblue" points="177.34836052799383,338.15714141844444 177.34836052799383,139.88681859343495 441.70879096133973,63.57253575654613 441.70879096133973,261.84285858155556" />
  <polygon fill="lightskyblue" points="670.6516394720062,460.11318140656505 670.6516394720062,261.84285858155556 441.70879096133973,63.57253575654613 441.70879096133973,261.84285858155556" />
  <polygon fill="white" points="529.4702162237619,337.8464823311425 529.4702162237619,205.66626711446958 506.57593137269527,185.8392348319686 506.57593137269527,318.0194500486416" />
  <polygon fill="white" points="605.7844990606507,403.93658993947906 605.7844990606507,271.7563747228061 582.8902142095841,251.9293424403051 582.8902142095841,384.1095576569781" />
  <polygon fill="white" points="204.8859053648007,277.3356508695993 204.8859053648007,224.46356478293012 237.9309591689689,214.92427942831904 237.9309591689689,267.7963655149882" />
  <polygon fill="white" points="248.94597710369166,264.61660373011784 248.94597710369166,211.74451764344866 281.9910309078599,202.20523228883752 281.9910309078599,255.07731837550674" />
  <polygon fill="white" points="293.0060488425827,251.89755659063636 293.0060488425827,199.02547050396717 326.0511026467509,189.48618514935606 326.0511026467509,242.35827123602525" />
  <polygon fill="white" points="337.0661205814736,239.1785094511549 337.0661205814736,186.30642336448568 370.1111743856419,176.7671380098746 370.1111743856419,229.63922409654378" />
  <polygon fill="white" points="381.1261923203646,226.4594623116734 381.1261923203646,173.58737622500422 414.17124612453284,164.0480908703931 414.17124612453284,216.92017695706232" />
  <polygon fill="grey" points="427.74230786639373,135.89742333907688 427.74230786639373,102.85236953490863 460.78736167056195,93.31308418029752 460.78736167056195,126.3581379844658" />
  <polygon fill="lightgrey" points="427.74230786639373,135.89742333907688 427.74230786639373,102.85236953490863 408.6637371571715,86.32984263282452 408.6637371571715,119.3748964369928" />
  <polygon fill="darkgrey" points="427.74230786639373,102.85236953490863 408.6637371571715,86.32984263282452 441.70879096133973,76.79055727821341 460.78736167056195,93.31308418029752" />
  <polygon fill="hsl(360.0,50.0%,50.65955712546234%)" points="467.3272328426053,427.2005222672837 467.3272328426053,381.8098363618782 475.25804575560574,379.52040787677157 475.25804575560574,424.9110937821771" />
  <polygon fill="hsl(360.0,50.0%,50.65955712546234%)" points="487.15426512510624,421.47695105451703 487.15426512510624,376.08626514911157 479.2234522121059,378.37569363421824 479.2234522121059,423.7663795396237" />
  <polygon fill="hsl(360.0,50.0%,50.65955712546234%)" points="459.3964199296049,384.5486775787216 459.3964199296049,339.60740440505276 466.3358812284803,337.60415448058444 466.3358812284803,382.5454276542532" />
  <polygon fill="hsl(360.0,50.0%,50.65955712546234%)" points="488.1456167392313,376.2494993202099 488.1456167392313,331.3082261465411 495.08507803810664,329.30497622207275 495.08507803810664,374.2462493957416" />
  <polygon fill="hsl(360.0,50.0%,50.65955712546234%)" points="466.3358812284803,344.54361577945974 466.3358812284803,337.60415448058444 488.1456167392313,331.3082261465411 488.1456167392313,338.24768744541643" />
  <polygon fill="hsl(360.0,50.0%,50.65955712546234%)" points="467.3272328426053,382.2592490936149 467.3272328426053,337.3179759199461 487.15426512510624,331.5944047071794 487.15426512510624,376.53567788084825" />
  <polygon fill="hsl(360.0,50.0%,50.65955712546234%)" points="472.2839909132305,333.640019458071 472.2839909132305,313.41644652992005 482.19750705448104,310.5546609235367 482.19750705448104,330.7782338516877" />
  <polygon fill="hsl(360.0,50.0%,50.65955712546234%)" points="474.2666941414806,335.3147259954778 474.2666941414806,312.84408940864336 480.21480382623093,311.1270180448134 480.21480382623093,333.59765463164774" />
  <polygon fill="hsl(360.0,50.0%,42.21758785095096%)" points="427.2039589946752,483.4175663680177 427.2039589946752,438.02688046261216 435.1347719076756,435.7374519775055 435.1347719076756,481.128137882911" />
  <polygon fill="hsl(360.0,50.0%,42.21758785095096%)" points="447.03099127717616,477.693995155251 447.03099127717616,432.3033092498455 439.10017836417575,434.59273773495215 439.1001783641758,479.9834236403576" />
  <polygon fill="hsl(360.0,50.0%,42.21758785095096%)" points="419.27314608167484,440.7657216794555 419.27314608167484,395.8244485057867 426.21260738055014,393.82119858131836 426.21260738055014,438.76247175498713" />
  <polygon fill="hsl(360.0,50.0%,42.21758785095096%)" points="448.0223428913012,432.4665434209438 448.0223428913012,387.52527024727505 454.9618041901765,385.5220203228067 454.9618041901765,430.46329349647556" />
  <polygon fill="hsl(360.0,50.0%,42.21758785095096%)" points="426.21260738055014,400.76065988019366 426.21260738055014,393.82119858131836 448.0223428913012,387.52527024727505 448.0223428913012,394.46473154615035" />
  <polygon fill="hsl(360.0,50.0%,42.21758785095096%)" points="427.2039589946752,438.47629319434884 427.2039589946752,393.53502002068 447.03099127717616,387.8114488079134 447.03099127717616,432.75272198158217" />
  <polygon fill="hsl(360.0,50.0%,42.21758785095096%)" points="432.16071706530045,389.85706355880495 432.16071706530045,369.63349063065397 442.0742332065509,366.77170502427066 442.0742332065509,386.9952779524216" />
  <polygon fill="hsl(360.0,50.0%,42.21758785095096%)" points="434.14342029355055,391.5317700962117 434.14342029355055,369.0611335093773 440.0915299783008,367.3440621455473 440.0915299783008,389.81469873238166" />
</svg>
