<?xml version="1.0" encoding="UTF-8"?>
<svg
  xmlns="http://www.w3.org/2000/svg"
  width="848"
  height="600"
  style="background-color:white"
>
  <polygon fill="lightblue" points="409.8862011513016,541.1046675424659 227.4201412840996,383.0844243690167 438.1137988486985,322.2624044132827 620.5798587159004,480.28264758673185" />
  <polygon fill="steelblue" points="227.4201412840996,383.0844243690167 227.42014128409954,119.71735241326812 438.1137988486984,58.895332457534124 438.1137988486985,322.2624044132827" />
  <polygon fill="lightskyblue" points="620.5798587159004,480.28264758673185 620.5798587159004,216.9155756309833 438.1137988486984,58.895332457534124 438.1137988486985,322.2624044132827" />
  <polygon fill="hsl(324.0,50.0%,50.65955712546234%)" points="458.5315414443736,454.0514581350241 458.5315414443736,417.8753571311825 464.85235117131157,416.05069653251047 464.85235117131157,452.2267975363521" />
  <polygon fill="hsl(324.0,50.0%,50.65955712546234%)" points="474.3335657617185,449.4898066383441 474.3335657617185,413.3137056345024 468.0127560347805,415.13836623317445 468.0127560347805,451.31446723701606" />
  <polygon fill="hsl(324.0,50.0%,50.65955712546234%)" points="452.21073171743564,420.05819694771435 452.21073171743564,384.24027516173254 457.74144022850635,382.6436971378945 457.74144022850635,418.4616189238763" />
  <polygon fill="hsl(324.0,50.0%,50.65955712546234%)" points="475.12366697758574,413.4438022775283 475.12366697758574,377.62588049154647 480.65437548865646,376.0293024677084 480.65437548865646,411.84722425369023" />
  <polygon fill="hsl(324.0,50.0%,50.65955712546234%)" points="457.74144022850635,388.17440564896526 457.74144022850635,382.6436971378945 475.12366697758574,377.62588049154647 475.12366697758574,383.1565890026172" />
  <polygon fill="hsl(324.0,50.0%,50.65955712546234%)" points="458.5315414443736,418.2335363490423 458.5315414443736,382.4156145630605 474.3335657617185,377.85396306638046 474.3335657617185,413.67188485236227" />
  <polygon fill="hsl(324.0,50.0%,50.65955712546234%)" points="462.4820475237098,379.4843055995914 462.4820475237098,363.3662407958996 470.3830596823823,361.0854150475596 470.3830596823823,377.20347985125136" />
  <polygon fill="hsl(324.0,50.0%,50.65955712546234%)" points="464.0622499554443,380.81903653922245 464.0622499554443,362.9100756462316 468.8028572506478,361.5415801972276 468.8028572506478,379.4505410902185" />
</svg>
