<?xml version="1.0" encoding="UTF-8"?>
<svg
  xmlns="http://www.w3.org/2000/svg"
  width="848"
  height="600"
  style="background-color:white"
>
  <polygon fill="lightblue" points="407.266241124715,523.4099542301961 190.92880557860374,336.0562392576852 440.733758875285,263.9437607423148 657.0711944213963,451.29747571482574" />
  <polygon fill="steelblue" points="190.92880557860374,336.0562392576852 190.92880557860374,148.70252428517423 440.733758875285,76.59004576980382 440.733758875285,263.9437607423148" />
  <polygon fill="lightskyblue" points="657.0711944213963,451.29747571482574 657.0711944213963,263.9437607423148 440.733758875285,76.59004576980382 440.733758875285,263.9437607423148" />
  <polygon fill="white" points="559.7193484256462,366.9883039771958 559.7193484256462,242.08582732885517 538.0856048710351,223.35045583160408 538.0856048710351,348.2529324799447" />
  <polygon fill="white" points="225.27698665689744,276.17978280248553 225.27698665689744,226.21879214314927 256.5026058189826,217.20473232872797 256.5026058189826,267.1657229880642" />
  <polygon fill="white" points="275.2379773162337,261.7572870994114 275.2379773162337,211.79629644007517 306.46359647831883,202.78223662565387 306.46359647831883,252.74322728499013" />
  <polygon fill="white" points="325.19896797557,247.33479139633732 325.19896797556993,197.3738007370011 356.4245871376551,188.35974092257976 356.4245871376551,238.32073158191602" />
  <polygon fill="white" points="375.15995863490616,232.91229569326325 375.15995863490616,182.95130503392699 406.38557779699136,173.9372452195057 406.38557779699136,223.89823587884194" />
  <polygon fill="antiquewhite" points="500.9101836785517,422.10914286544966 500.9101836785517,315.94203771436014 525.8906790082199,308.7307898628231 525.8906790082199,414.8978950139126" />
  <polygon fill="beige" points="500.9101836785517,422.10914286544966 500.9101836785517,315.94203771436014 486.4876879754776,303.45179004952604 486.4876879754776,409.6188952006156" />
  <polygon fill="bisque" points="500.9101836785517,315.94203771436014 486.4876879754776,303.45179004952604 511.46818330514577,296.240542197989 525.8906790082199,308.7307898628231" />
  <polygon fill="antiquewhite" points="420.86312232838935,503.2099969342887 420.86312232838935,397.04289178319914 445.84361765805744,389.83164393166214 445.84361765805744,495.99874908275166" />
  <polygon fill="beige" points="420.86312232838935,503.2099969342887 420.86312232838935,397.04289178319914 406.44062662531525,384.5526441183651 406.44062662531525,490.7197492694546" />
  <polygon fill="bisque" points="420.86312232838935,397.04289178319914 406.44062662531525,384.5526441183651 431.4211219549834,377.34139626682804 445.84361765805744,389.83164393166214" />
  <polygon fill="antiquewhite" points="411.94087407092314,300.5602972800497 411.94087407092314,194.39319212896015 436.9213694005913,187.1819442774231 436.9213694005913,293.34904942851267" />
  <polygon fill="beige" points="411.94087407092314,300.5602972800497 411.94087407092314,194.39319212896015 397.51837836784904,181.9029444641261 397.51837836784904,288.0700496152156" />
  <polygon fill="bisque" points="411.94087407092314,194.39319212896015 397.51837836784904,181.9029444641261 422.4988736975172,174.69169661258906 436.9213694005913,187.1819442774231" />
</svg>
