<?xml version="1.0" encoding="UTF-8"?>
<svg
  xmlns="http://www.w3.org/2000/svg"
  width="848"
  height="600"
  style="background-color:white"
>
  <polygon fill="lightblue" points="407.266241124715,523.4099542301961 190.92880557860374,336.0562392576852 440.733758875285,263.9437607423148 657.0711944213963,451.29747571482574" />
  <polygon fill="steelblue" points="190.92880557860374,336.0562392576852 190.92880557860374,148.70252428517423 440.733758875285,76.59004576980382 440.733758875285,263.9437607423148" />
  <polygon fill="lightskyblue" points="657.0711944213963,451.29747571482574 657.0711944213963,263.9437607423148 440.733758875285,76.59004576980382 440.733758875285,263.9437607423148" />
  <polygon fill="white" points="559.7193484256462,366.9883039771958 559.7193484256462,242.08582732885517 538.0856048710351,223.35045583160408 538.0856048710351,348.2529324799447" />
  <polygon fill="white" points="211.00241789708707,280.3004958605067 211.00241789708707,230.33950520117043 242.2280370591722,221.32544538674915 242.2280370591722,271.2864360460854" />
  <polygon fill="white" points="246.68883979661297,269.9987132154538 246.68883979661297,220.03772255611753 277.9144589586981,211.02366274169623 277.9144589586981,260.98465340103246" />
  <polygon fill="white" points="282.37526169613886,259.69693057040087 282.37526169613886,209.73593991106458 313.600880858224,200.7218800966433 313.600880858224,250.68287075597954" />
  <polygon fill="white" points="318.06168359566476,249.39514792534794 318.06168359566476,199.43415726601168 349.2873027577499,190.42009745159038 349.2873027577499,240.3810881109266" />
  <polygon fill="white" points="353.7481054951906,239.09336528029502 353.7481054951906,189.13237462095876 384.9737246572758,180.11831480653746 384.9737246572758,230.07930546587372" />
  <polygon fill="white" points="389.4345273947165,228.7915826352421 389.4345273947165,178.83059197590586 420.6601465568017,169.81653216148453 420.6601465568017,219.77752282082076" />
  <polygon fill="antiquewhite" points="500.9101836785517,422.10914286544966 500.9101836785517,315.94203771436014 525.8906790082199,308.7307898628231 525.8906790082199,414.8978950139126" />
  <polygon fill="beige" points="500.9101836785517,422.10914286544966 500.9101836785517,315.94203771436014 486.4876879754776,303.45179004952604 486.4876879754776,409.6188952006156" />
  <polygon fill="bisque" points="500.9101836785517,315.94203771436014 486.4876879754776,303.45179004952604 511.46818330514577,296.240542197989 525.8906790082199,308.7307898628231" />
  <polygon fill="antiquewhite" points="420.86312232838935,503.2099969342887 420.86312232838935,397.04289178319914 445.84361765805744,389.83164393166214 445.84361765805744,495.99874908275166" />
  <polygon fill="beige" points="420.86312232838935,503.2099969342887 420.86312232838935,397.04289178319914 406.44062662531525,384.5526441183651 406.44062662531525,490.7197492694546" />
  <polygon fill="bisque" points="420.86312232838935,397.04289178319914 406.44062662531525,384.5526441183651 431.4211219549834,377.34139626682804 445.84361765805744,389.83164393166214" />
  <polygon fill="antiquewhite" points="411.94087407092314,300.5602972800497 411.94087407092314,194.39319212896015 436.9213694005913,187.1819442774231 436.9213694005913,293.34904942851267" />
  <polygon fill="beige" points="411.94087407092314,300.5602972800497 411.94087407092314,194.39319212896015 397.51837836784904,181.9029444641261 397.51837836784904,288.0700496152156" />
  <polygon fill="bisque" points="411.94087407092314,194.39319212896015 397.51837836784904,181.9029444641261 422.4988736975172,174.69169661258906 436.9213694005913,187.1819442774231" />
</svg>
