<?xml version="1.0" encoding="UTF-8"?>
<svg
  xmlns="http://www.w3.org/2000/svg"
  width="848"
  height="600"
  style="background-color:white"
>
  <polygon fill="lightblue" points="408.79637107611603,531.351772039367 212.24076651044876,361.12962522929064 439.20362892388397,295.61109037406817 635.7592334895512,465.8332371841446" />
  <polygon fill="steelblue" points="212.24076651044876,361.12962522929064 212.24076651044876,134.1667628158554 439.20362892388397,68.64822796063294 439.20362892388397,295.61109037406817" />
  <polygon fill="lightskyblue" points="635.7592334895512,465.8332371841446 635.7592334895512,238.87037477070936 439.20362892388397,68.64822796063294 439.20362892388397,295.61109037406817" />
  <polygon fill="white" points="514.5499440073897,360.8629133179308 514.5499440073897,247.3814821112132 494.894383550823,230.35926743020556 494.894383550823,343.84069863692315" />
  <polygon fill="white" points="580.0684788626122,417.6036289212896 580.0684788626122,304.122197714572 560.4129184060455,287.09998303356434 560.4129184060455,400.58141424028196" />
  <polygon fill="white" points="243.44816009229612,306.72825420401045 243.44816009229612,261.33568172132345 271.8185178939755,253.14586486442062 271.8185178939755,298.5384373471077" />
  <polygon fill="white" points="288.8407325749832,293.624547232966 288.8407325749831,248.23197475027894 317.2110903766626,240.04215789337616 317.2110903766626,285.4347303760632" />
  <polygon fill="white" points="334.23330505767024,280.5208402619215 334.23330505767024,235.12826777923448 362.60366285934964,226.93845092233164 362.60366285934964,272.3310234050187" />
  <polygon fill="white" points="379.62587754035724,267.417133290877 379.62587754035724,222.02456080818996 407.99623534203664,213.83474395128718 407.99623534203664,259.22731643397424" />
  <polygon fill="hsl(288.0,50.0%,72.09185257592405%)" points="396.9529664052981,358.8357790726842 396.9529664052981,319.8662555962973 403.7618522777012,317.9006995506407 403.7618522777012,356.8702230270275" />
  <polygon fill="hsl(288.0,50.0%,72.09185257592405%)" points="413.9751810863058,353.9218889585425 413.9751810863058,314.95236548215564 407.1662952139027,316.9179215278123 407.1662952139027,355.8874450041992" />
  <polygon fill="hsl(288.0,50.0%,72.09185257592405%)" points="390.1440805328951,322.21764850805687 390.1440805328951,283.63396189777285 396.10185567124773,281.91410035782326 396.10185567124773,320.4977869681073" />
  <polygon fill="hsl(288.0,50.0%,72.09185257592405%)" points="414.8262918203562,315.0925078425514 414.8262918203562,276.50882123226745 420.7840669587088,274.78895969231786 420.7840669587088,313.3726463026018" />
  <polygon fill="hsl(288.0,50.0%,72.09185257592405%)" points="396.10185567124773,287.87187549617596 396.10185567124773,281.91410035782326 414.8262918203562,276.50882123226745 414.8262918203562,282.4665963706201" />
  <polygon fill="hsl(288.0,50.0%,72.09185257592405%)" points="396.9529664052981,320.2520924624002 396.9529664052981,281.6684058521162 413.9751810863058,276.75451573797454 413.9751810863058,315.3382023482585" />
  <polygon fill="hsl(288.0,50.0%,72.09185257592405%)" points="401.20852007555004,278.51074899306656 401.20852007555004,261.1480900184388 409.71962741605387,258.69114496136797 409.71962741605387,276.05380393599575" />
  <polygon fill="hsl(288.0,50.0%,72.09185257592405%)" points="402.91074154365083,279.94854431216663 402.91074154365083,260.6567010070246 408.0174059479531,259.1825339727821 408.0174059479531,278.4743772779241" />
  <polygon fill="hsl(288.0,50.0%,50.65955712546234%)" points="461.1979753940161,437.5765449263658 461.1979753940161,398.60702144997896 468.00686126641915,396.6414654043223 468.00686126641915,435.6109888807091" />
  <polygon fill="hsl(288.0,50.0%,50.65955712546234%)" points="478.2201900750237,432.6626548122241 478.2201900750237,393.6931313358373 471.41130420262067,395.65868738149396 471.41130420262067,434.6282108578808" />
  <polygon fill="hsl(288.0,50.0%,50.65955712546234%)" points="454.389089521613,400.9584143617385 454.389089521613,362.3747277514545 460.3468646599657,360.6548662115049 460.3468646599657,399.23855282178886" />
  <polygon fill="hsl(288.0,50.0%,50.65955712546234%)" points="479.0713008090741,393.83327369623305 479.0713008090741,355.2495870859491 485.0290759474268,353.52972554599944 485.0290759474268,392.11341215628346" />
  <polygon fill="hsl(288.0,50.0%,50.65955712546234%)" points="460.3468646599657,366.6126413498576 460.3468646599657,360.6548662115049 479.0713008090741,355.2495870859491 479.0713008090741,361.20736222430173" />
  <polygon fill="hsl(288.0,50.0%,50.65955712546234%)" points="461.1979753940161,398.99285831608177 461.1979753940161,360.4091717057978 478.2201900750237,355.4952815916561 478.2201900750237,394.07896820194014" />
  <polygon fill="hsl(288.0,50.0%,50.65955712546234%)" points="465.45352906426797,357.2515148467482 465.45352906426797,339.8888558721204 473.9646364047718,337.4319108150496 473.9646364047718,354.7945697896773" />
  <polygon fill="hsl(288.0,50.0%,50.65955712546234%)" points="467.15575053236876,358.6893101658482 467.15575053236876,339.39746686070623 472.26241493667106,337.92329982646373 472.26241493667106,357.2151431316057" />
  <polygon fill="hsl(288.0,50.0%,42.21758785095096%)" points="426.75071312032117,485.840883218635 426.75071312032117,446.87135974224816 433.5595989927242,444.9058036965915 433.5595989927242,483.87532717297825" />
  <polygon fill="hsl(288.0,50.0%,42.21758785095096%)" points="443.7729278013288,480.92699310449325 443.7729278013288,441.9574696281064 436.9640419289258,443.92302567376316 436.9640419289258,482.89254915014993" />
  <polygon fill="hsl(288.0,50.0%,42.21758785095096%)" points="419.9418272479181,449.22275265400765 419.9418272479181,410.6390660437237 425.8996023862708,408.91920450377404 425.8996023862708,447.502891114058" />
  <polygon fill="hsl(288.0,50.0%,42.21758785095096%)" points="444.6240385353792,442.0976119885022 444.6240385353792,403.51392537821823 450.58181367373186,401.79406383826864 450.58181367373186,440.37775044855266" />
  <polygon fill="hsl(288.0,50.0%,42.21758785095096%)" points="425.8996023862708,414.87697964212674 425.8996023862708,408.91920450377404 444.6240385353792,403.51392537821823 444.6240385353792,409.4717005165709" />
  <polygon fill="hsl(288.0,50.0%,42.21758785095096%)" points="426.75071312032117,447.25719660835097 426.75071312032117,408.673509998067 443.7729278013288,403.7596198839253 443.7729278013288,442.3433064942093" />
  <polygon fill="hsl(288.0,50.0%,42.21758785095096%)" points="431.0062667905731,405.51585313901734 431.0062667905731,388.15319416438956 439.5173741310769,385.69624910731875 439.5173741310769,403.0589080819465" />
  <polygon fill="hsl(288.0,50.0%,42.21758785095096%)" points="432.70848825867387,406.9536484581174 432.70848825867387,387.6618051529754 437.8151526629761,386.18763811873293 437.8151526629761,405.47948142387486" />
  <polygon fill="hsl(288.0,50.0%,41.7579500056716%)" points="516.4920958504607,462.02119190105026 516.4920958504607,423.05166842466343 523.3009817228638,421.08611237900675 523.3009817228638,460.0556358553936" />
  <polygon fill="hsl(288.0,50.0%,41.7579500056716%)" points="533.5143105314684,457.1073017869086 533.5143105314684,418.13777831052175 526.7054246590653,420.10333435617844 526.7054246590653,459.07285783256526" />
  <polygon fill="hsl(288.0,50.0%,41.7579500056716%)" points="509.6832099780577,425.403061336423 509.6832099780577,386.81937472613896 515.6409851164103,385.09951318618937 515.6409851164103,423.68319979647333" />
  <polygon fill="hsl(288.0,50.0%,41.7579500056716%)" points="534.3654212655188,418.2779206709175 534.3654212655188,379.69423406063356 540.3231964038714,377.9743725206839 540.3231964038714,416.5580591309679" />
  <polygon fill="hsl(288.0,50.0%,41.7579500056716%)" points="515.6409851164103,391.05728832454207 515.6409851164103,385.09951318618937 534.3654212655188,379.69423406063356 534.3654212655188,385.6520091989862" />
  <polygon fill="hsl(288.0,50.0%,41.7579500056716%)" points="516.4920958504607,423.43750529076624 516.4920958504607,384.8538186804823 533.5143105314684,379.9399285663406 533.5143105314684,418.5236151766246" />
  <polygon fill="hsl(288.0,50.0%,41.7579500056716%)" points="520.7476495207127,381.69616182143267 520.7476495207127,364.3335028468049 529.2587568612165,361.876557789734 529.2587568612165,379.2392167643618" />
  <polygon fill="hsl(288.0,50.0%,41.7579500056716%)" points="522.4498709888134,383.1339571405327 522.4498709888134,363.8421138353907 527.5565353931157,362.3679468011482 527.5565353931157,381.6597901062902" />
</svg>
