<?xml version="1.0" encoding="UTF-8"?>
<svg
  xmlns="http://www.w3.org/2000/svg"
  width="848"
  height="600"
  style="background-color:white"
>
  <polygon fill="lightblue" points="403.7284947681547,532.8147419146777 141.65435534726498,305.8518795012424 444.2715052318453,218.49383302761248 706.345644652735,445.4566954410477" />
  <polygon fill="steelblue" points="141.65435534726498,305.8518795012424 141.65435534726498,154.54330455895226 444.2715052318453,67.18525808532232 444.2715052318453,218.49383302761248" />
  <polygon fill="lightskyblue" points="706.345644652735,445.4566954410477 706.345644652735,294.1481204987576 444.2715052318453,67.18525808532232 444.2715052318453,218.49383302761248" />
  <polygon fill="white" points="588.4122819133347,343.3234073550019 588.4122819133347,199.5802611598262 562.2048679712457,176.8839749184827 562.2048679712457,320.62712111365835" />
  <polygon fill="white" points="173.17697512690876,236.22865301665655 173.17697512690876,175.70522303974047 211.00411886248128,164.78546723053674 211.00411886248128,225.30889720745282" />
  <polygon fill="white" points="223.61316677433882,221.6689786043849 223.61316677433882,161.14554862746883 261.44031050991134,150.2257928182651 261.44031050991134,210.74922279518117" />
  <polygon fill="white" points="274.0493584217689,207.10930419211326 274.0493584217689,146.58587421519718 311.8765021573414,135.66611840599344 311.8765021573414,196.1895483829095" />
  <polygon fill="white" points="324.4855500691989,192.5496297798416 324.4855500691989,132.0261998029255 362.31269380477147,121.10644399372177 362.31269380477147,181.62987397063785" />
  <polygon fill="white" points="374.92174171662896,177.98995536756993 374.92174171662896,117.46652539065389 412.74888545220153,106.54676958145009 412.74888545220153,167.0701995583662" />
  <polygon fill="hsl(324.0,50.0%,50.65955712546234%)" points="473.5973005253548,407.78110576400934 473.5973005253548,355.8217411288269 482.6758150218922,353.200999734618 482.6758150218922,405.16036436980045" />
  <polygon fill="hsl(324.0,50.0%,50.65955712546234%)" points="496.2935867666983,401.22925227848714 496.2935867666983,349.2698876433046 487.2150722701609,351.8906290375136 487.2150722701609,403.849993672696" />
  <polygon fill="hsl(324.0,50.0%,50.65955712546234%)" points="464.5187860288174,358.9569316778396 464.5187860288174,307.5120161974609 472.4624862132876,305.21886747752814 472.4624862132876,356.6637829579068" />
  <polygon fill="hsl(324.0,50.0%,50.65955712546234%)" points="497.4284010787655,349.4567441238323 497.4284010787655,298.01182864345367 505.3721012632357,295.7186799235209 505.3721012632357,347.16359540389954" />
  <polygon fill="hsl(324.0,50.0%,50.65955712546234%)" points="472.4624862132876,313.16256766199837 472.4624862132876,305.21886747752814 497.4284010787655,298.01182864345367 497.4284010787655,305.9555288279239" />
  <polygon fill="hsl(324.0,50.0%,50.65955712546234%)" points="473.5973005253548,356.3361902836307 473.5973005253548,304.89127480325203 496.2935867666983,298.3394213177298 496.2935867666983,349.7843367981084" />
  <polygon fill="hsl(324.0,50.0%,50.65955712546234%)" points="479.27137208569064,300.6810656578525 479.27137208569064,277.5308536916822 490.61951520636245,274.254926948921 490.61951520636245,297.4051389150914" />
  <polygon fill="hsl(324.0,50.0%,50.65955712546234%)" points="481.541000709825,302.59812608331924 481.541000709825,276.8756683431299 488.34988658222807,274.91011229747323 488.34988658222807,300.63257003766256" />
</svg>
