<?xml version="1.0" encoding="UTF-8"?>
<svg
  xmlns="http://www.w3.org/2000/svg"
  width="848"
  height="600"
  style="background-color:white"
>
  <polygon fill="lightblue" points="409.78984817638707,489.7176475517629 226.07811746764872,330.61862178478975 438.21015182361293,269.38137821521025 621.9218825323512,428.4804039821835" />
  <polygon fill="steelblue" points="226.07811746764872,330.61862178478975 226.07811746764872,171.51959601781653 438.21015182361293,110.28235244823708 438.21015182361293,269.38137821521025" />
  <polygon fill="lightskyblue" points="621.9218825323512,428.4804039821835 621.9218825323512,269.38137821521025 438.21015182361293,110.28235244823708 438.21015182361293,269.38137821521025" />
  <polygon fill="white" points="539.2516037134191,356.8858423870455 539.2516037134191,250.8198252090634 520.8804306425452,234.9099226323661 520.8804306425452,340.9759398103482" />
  <polygon fill="white" points="248.1752043797283,281.81333537509903 248.1752043797283,239.38692850390618 274.69170867422383,231.73227305770877 274.69170867422383,274.15867992890156" />
  <polygon fill="white" points="283.5305434390557,271.6071281135024 283.5305434390557,229.1807212423096 310.0470477335512,221.52606579611216 310.0470477335512,263.952472667305" />
  <polygon fill="white" points="318.88588249838307,261.4009208519059 318.88588249838307,218.97451398071303 345.4023867928786,211.3198585345156 345.4023867928786,253.7462654057084" />
  <polygon fill="white" points="354.24122155771045,251.19471359030928 354.24122155771045,208.76830671911642 380.75772585220597,201.11365127291901 380.75772585220597,243.54005814411187" />
  <polygon fill="white" points="389.59656061703777,240.9885063287127 389.59656061703777,198.56209945751988 416.11306491153334,190.9074440113224 416.11306491153334,233.33385088251526" />
</svg>
