<?xml version="1.0" encoding="UTF-8"?>
<svg
  xmlns="http://www.w3.org/2000/svg"
  width="848"
  height="600"
  style="background-color:white"
>
  <polygon fill="lightblue" points="400.7949192431123,696.4101615137754 100.7949192431123,436.60254037844385 447.20508075688775,336.6025403784438 747.2050807568878,596.4101615137754" />
  <polygon fill="steelblue" points="100.7949192431123,436.60254037844385 100.79491924311225,3.5898384862245507 447.2050807568877,-96.41016151377545 447.20508075688775,336.6025403784438" />
  <polygon fill="lightskyblue" points="747.2050807568878,596.4101615137754 747.2050807568877,163.39745962155615 447.2050807568877,-96.41016151377545 447.20508075688775,336.6025403784438" />
  <polygon fill="white" points="612.2050807568877,479.49673200287623 612.2050807568877,306.2916512459885 582.2050807568877,280.3108891324553 582.2050807568878,453.51596988934307" />
  <polygon fill="white" points="148.4263164512564,353.5705080756888 148.4263164512564,284.2884757729337 191.72758664047834,271.7884757729337 191.72758664047834,341.0705080756888" />
  <polygon fill="white" points="217.70834875401152,333.5705080756888 217.7083487540115,264.2884757729337 261.0096189432335,251.78847577293368 261.0096189432335,321.0705080756888" />
  <polygon fill="white" points="286.99038105676664,313.57050807568874 286.99038105676664,244.28847577293365 330.29165124598853,231.78847577293365 330.29165124598853,301.07050807568874" />
  <polygon fill="white" points="356.2724133595217,293.57050807568874 356.2724133595217,224.28847577293365 399.5736835487436,211.78847577293365 399.5736835487436,281.07050807568874" />
</svg>
