<?xml version="1.0" encoding="UTF-8"?>
<svg
  xmlns="http://www.w3.org/2000/svg"
  width="848"
  height="600"
  style="background-color:white"
>
  <polygon fill="lightblue" points="407.266241124715,523.4099542301961 190.92880557860374,336.0562392576852 440.733758875285,263.9437607423148 657.0711944213963,451.29747571482574" />
  <polygon fill="steelblue" points="190.92880557860374,336.0562392576852 190.92880557860374,148.70252428517423 440.733758875285,76.59004576980382 440.733758875285,263.9437607423148" />
  <polygon fill="lightskyblue" points="657.0711944213963,451.29747571482574 657.0711944213963,263.9437607423148 440.733758875285,76.59004576980382 440.733758875285,263.9437607423148" />
  <polygon fill="white" points="559.7193484256462,366.9883039771958 559.7193484256462,242.08582732885517 538.0856048710351,223.35045583160408 538.0856048710351,348.2529324799447" />
  <polygon fill="white" points="216.95015488034136,278.5835320863312 216.95015488034136,228.62254142699496 248.17577404242653,219.60848161257366 248.17577404242653,269.5694722719099" />
  <polygon fill="white" points="258.5843137631216,266.5647856671028 258.5843137631216,216.60379500776656 289.80993292520674,207.58973519334523 289.80993292520674,257.55072585268147" />
  <polygon fill="white" points="300.2184726459018,254.54603924787438 300.2184726459018,204.58504858853814 331.444091807987,195.57098877411684 331.444091807987,245.5319794334531" />
  <polygon fill="white" points="341.85263152868197,242.52729282864598 341.85263152868197,192.56630216930972 373.07825069076716,183.55224235488842 373.07825069076716,233.51323301422468" />
  <polygon fill="white" points="383.4867904114622,230.5085464094176 383.4867904114622,180.54755575008133 414.71240957354735,171.53349593566003 414.71240957354735,221.49448659499626" />
  <polygon fill="grey" points="427.53625934204246,144.93278199218693 427.53625934204246,113.70716283010177 458.7618785041276,104.69310301568046 458.7618785041276,135.91872217776563" />
  <polygon fill="lightgrey" points="427.53625934204246,144.93278199218693 427.53625934204246,113.70716283010177 409.50813971319985,98.0943532490592 409.50813971319985,129.31997241114436" />
  <polygon fill="darkgrey" points="427.53625934204246,113.70716283010177 409.50813971319985,98.0943532490592 440.733758875285,89.0802934346379 458.7618785041276,104.69310301568046" />
  <polygon fill="hsl(324.0,50.0%,50.65955712546234%)" points="464.9416695190712,420.1969616716292 464.9416695190712,377.305451190589 472.4358181179716,375.1420768351279 472.4358181179716,418.03358731616805" />
  <polygon fill="hsl(324.0,50.0%,50.65955712546234%)" points="483.6770410163223,414.7885257829764 483.6770410163223,371.8970153019362 476.18289241742184,374.06038965739737 476.18289241742184,416.9519001384375" />
  <polygon fill="hsl(324.0,50.0%,50.65955712546234%)" points="457.44752092017075,379.8934939666545 457.44752092017075,337.42665190621864 464.0049009442086,335.5336993451902 464.0049009442086,378.000541405626" />
  <polygon fill="hsl(324.0,50.0%,50.65955712546234%)" points="484.6138095911848,372.0512619281079 484.6138095911848,329.5844198676721 491.1711896152227,327.69146730664363 491.1711896152227,370.1583093670795" />
  <polygon fill="hsl(324.0,50.0%,50.65955712546234%)" points="464.0049009442086,342.09107936922805 464.0049009442086,335.5336993451902 484.6138095911848,329.5844198676721 484.6138095911848,336.14179989171" />
  <polygon fill="hsl(324.0,50.0%,50.65955712546234%)" points="464.9416695190712,377.73011961119335 464.9416695190712,335.26327755075755 483.6770410163223,329.8548416621048 483.6770410163223,372.32168372254057" />
  <polygon fill="hsl(324.0,50.0%,50.65955712546234%)" points="469.62551239338393,331.78782647557256 469.62551239338393,312.6777475483765 478.9931981420095,309.97352960405004 478.9931981420095,329.08360853124617" />
  <polygon fill="hsl(324.0,50.0%,50.65955712546234%)" points="471.49904954310904,333.37032498972906 471.49904954310904,312.1369039595112 477.11966099228437,310.51437319291534 477.11966099228437,331.74779422313327" />
</svg>
