<?xml version="1.0" encoding="UTF-8"?>
<svg
  xmlns="http://www.w3.org/2000/svg"
  width="848"
  height="600"
  style="background-color:white"
>
  <polygon fill="lightblue" points="409.8862011513016,541.1046675424659 227.4201412840996,383.0844243690167 438.1137988486985,322.2624044132827 620.5798587159004,480.28264758673185" />
  <polygon fill="steelblue" points="227.4201412840996,383.0844243690167 227.42014128409954,119.71735241326812 438.1137988486984,58.895332457534124 438.1137988486985,322.2624044132827" />
  <polygon fill="lightskyblue" points="620.5798587159004,480.28264758673185 620.5798587159004,216.9155756309833 438.1137988486984,58.895332457534124 438.1137988486985,322.2624044132827" />
  <polygon fill="white" points="538.4701317756595,409.1735381586797 538.4701317756595,303.8267093763803 520.2235257889394,288.0246850590354 520.2235257889394,393.37151384133483" />
  <polygon fill="white" points="319.59861646861157,314.3360591254633 319.59861646861157,272.1973276125435 345.93532366418646,264.59457511807676 345.93532366418646,306.7333066309966" />
  <polygon fill="antiquewhite" points="488.86856120884795,455.664254215868 488.86856120884795,366.1194497509135 509.93792696530784,360.0372477553401 509.93792696530784,449.5820522202946" />
  <polygon fill="beige" points="488.86856120884795,455.664254215868 488.86856120884795,366.1194497509135 476.70415721770115,355.58476687268353 476.70415721770115,445.129571337638" />
  <polygon fill="bisque" points="488.86856120884795,366.1194497509135 476.70415721770115,355.58476687268353 497.77352297416104,349.5025648771101 509.93792696530784,360.0372477553401" />
  <polygon fill="antiquewhite" points="421.3542549047079,524.0673637213971 421.3542549047079,434.5225592564426 442.4236206611678,428.4403572608692 442.4236206611678,517.9851617258237" />
  <polygon fill="beige" points="421.3542549047079,524.0673637213971 421.3542549047079,434.5225592564426 409.1898509135611,423.98787637821266 409.1898509135611,513.5326808431671" />
  <polygon fill="bisque" points="421.3542549047079,434.5225592564426 409.1898509135611,423.98787637821266 430.259216670021,417.90567438263923 442.4236206611678,428.4403572608692" />
</svg>
