<?xml version="1.0" encoding="UTF-8"?>
<svg
  xmlns="http://www.w3.org/2000/svg"
  width="848"
  height="600"
  style="background-color:white"
>
  <polygon fill="lightblue" points="403.7284947681547,532.8147419146777 141.65435534726498,305.8518795012424 444.2715052318453,218.49383302761248 706.345644652735,445.4566954410477" />
  <polygon fill="steelblue" points="141.65435534726498,305.8518795012424 141.65435534726498,154.54330455895226 444.2715052318453,67.18525808532232 444.2715052318453,218.49383302761248" />
  <polygon fill="lightskyblue" points="706.345644652735,445.4566954410477 706.345644652735,294.1481204987576 444.2715052318453,67.18525808532232 444.2715052318453,218.49383302761248" />
  <polygon fill="white" points="544.7332586765197,305.4962636194293 544.7332586765197,154.18768867713916 518.5258447344307,131.49140243579564 518.5258447344307,282.7999773780858" />
  <polygon fill="white" points="632.0913051501495,381.1505510905744 632.0913051501495,229.84197614828426 605.8838912080606,207.14568990694073 605.8838912080606,358.4542648492309" />
  <polygon fill="grey" points="428.28387311468026,149.97658699211388 428.28387311468026,112.14944325654136 466.1110168502528,101.2296874473376 466.1110168502528,139.05683118291014" />
  <polygon fill="lightgrey" points="428.28387311468026,149.97658699211388 428.28387311468026,112.14944325654136 406.4443614962728,93.23587138875507 406.4443614962728,131.06301512432762" />
  <polygon fill="darkgrey" points="428.28387311468026,112.14944325654136 406.4443614962728,93.23587138875507 444.2715052318453,82.31611557955134 466.1110168502528,101.2296874473376" />
  <polygon fill="hsl(324.0,50.0%,50.65955712546234%)" points="473.5973005253548,407.78110576400934 473.5973005253548,355.8217411288269 482.6758150218922,353.200999734618 482.6758150218922,405.16036436980045" />
  <polygon fill="hsl(324.0,50.0%,50.65955712546234%)" points="496.2935867666983,401.22925227848714 496.2935867666983,349.2698876433046 487.2150722701609,351.8906290375136 487.2150722701609,403.849993672696" />
  <polygon fill="hsl(324.0,50.0%,50.65955712546234%)" points="464.5187860288174,358.9569316778396 464.5187860288174,307.5120161974609 472.4624862132876,305.21886747752814 472.4624862132876,356.6637829579068" />
  <polygon fill="hsl(324.0,50.0%,50.65955712546234%)" points="497.4284010787655,349.4567441238323 497.4284010787655,298.01182864345367 505.3721012632357,295.7186799235209 505.3721012632357,347.16359540389954" />
  <polygon fill="hsl(324.0,50.0%,50.65955712546234%)" points="472.4624862132876,313.16256766199837 472.4624862132876,305.21886747752814 497.4284010787655,298.01182864345367 497.4284010787655,305.9555288279239" />
  <polygon fill="hsl(324.0,50.0%,50.65955712546234%)" points="473.5973005253548,356.3361902836307 473.5973005253548,304.89127480325203 496.2935867666983,298.3394213177298 496.2935867666983,349.7843367981084" />
  <polygon fill="hsl(324.0,50.0%,50.65955712546234%)" points="479.27137208569064,300.6810656578525 479.27137208569064,277.5308536916822 490.61951520636245,274.254926948921 490.61951520636245,297.4051389150914" />
  <polygon fill="hsl(324.0,50.0%,50.65955712546234%)" points="481.541000709825,302.59812608331924 481.541000709825,276.8756683431299 488.34988658222807,274.91011229747323 488.34988658222807,300.63257003766256" />
</svg>
