<?xml version="1.0" encoding="UTF-8"?>
<svg
  xmlns="http://www.w3.org/2000/svg"
  width="848"
  height="600"
  style="background-color:white"
>
  <polygon fill="lightblue" points="407.266241124715,523.4099542301961 190.92880557860374,336.0562392576852 440.733758875285,263.9437607423148 657.0711944213963,451.29747571482574" />
  <polygon fill="steelblue" points="190.92880557860374,336.0562392576852 190.92880557860374,148.70252428517423 440.733758875285,76.59004576980382 440.733758875285,263.9437607423148" />
  <polygon fill="lightskyblue" points="657.0711944213963,451.29747571482574 657.0711944213963,263.9437607423148 440.733758875285,76.59004576980382 440.733758875285,263.9437607423148" />
  <polygon fill="white" points="523.663109167961,335.7626848151106 523.663109167961,210.86020816677 502.02936561334985,192.1248366695189 502.02936561334985,317.0273133178596" />
  <polygon fill="white" points="595.7755876833314,398.21392313928095 595.7755876833314,273.31144649094034 574.1418441287203,254.57607499368925 574.1418441287203,379.47855164202986" />
  <polygon fill="white" points="225.27698665689744,276.17978280248553 225.27698665689744,226.21879214314927 256.5026058189826,217.20473232872797 256.5026058189826,267.1657229880642" />
  <polygon fill="white" points="275.2379773162337,261.7572870994114 275.2379773162337,211.79629644007517 306.46359647831883,202.78223662565387 306.46359647831883,252.74322728499013" />
  <polygon fill="white" points="325.19896797557,247.33479139633732 325.19896797556993,197.3738007370011 356.4245871376551,188.35974092257976 356.4245871376551,238.32073158191602" />
  <polygon fill="white" points="375.15995863490616,232.91229569326325 375.15995863490616,182.95130503392699 406.38557779699136,173.9372452195057 406.38557779699136,223.89823587884194" />
  <polygon fill="grey" points="427.53625934204246,144.93278199218693 427.53625934204246,113.70716283010177 458.7618785041276,104.69310301568046 458.7618785041276,135.91872217776563" />
  <polygon fill="lightgrey" points="427.53625934204246,144.93278199218693 427.53625934204246,113.70716283010177 409.50813971319985,98.0943532490592 409.50813971319985,129.31997241114436" />
  <polygon fill="darkgrey" points="427.53625934204246,113.70716283010177 409.50813971319985,98.0943532490592 440.733758875285,89.0802934346379 458.7618785041276,104.69310301568046" />
  <polygon fill="hsl(288.0,50.0%,50.65955712546234%)" points="464.9416695190712,420.1969616716292 464.9416695190712,377.305451190589 472.4358181179716,375.1420768351279 472.4358181179716,418.03358731616805" />
  <polygon fill="hsl(288.0,50.0%,50.65955712546234%)" points="483.6770410163223,414.7885257829764 483.6770410163223,371.8970153019362 476.18289241742184,374.06038965739737 476.18289241742184,416.9519001384375" />
  <polygon fill="hsl(288.0,50.0%,50.65955712546234%)" points="457.44752092017075,379.8934939666545 457.44752092017075,337.42665190621864 464.0049009442086,335.5336993451902 464.0049009442086,378.000541405626" />
  <polygon fill="hsl(288.0,50.0%,50.65955712546234%)" points="484.6138095911848,372.0512619281079 484.6138095911848,329.5844198676721 491.1711896152227,327.69146730664363 491.1711896152227,370.1583093670795" />
  <polygon fill="hsl(288.0,50.0%,50.65955712546234%)" points="464.0049009442086,342.09107936922805 464.0049009442086,335.5336993451902 484.6138095911848,329.5844198676721 484.6138095911848,336.14179989171" />
  <polygon fill="hsl(288.0,50.0%,50.65955712546234%)" points="464.9416695190712,377.73011961119335 464.9416695190712,335.26327755075755 483.6770410163223,329.8548416621048 483.6770410163223,372.32168372254057" />
  <polygon fill="hsl(288.0,50.0%,50.65955712546234%)" points="469.62551239338393,331.78782647557256 469.62551239338393,312.6777475483765 478.9931981420095,309.97352960405004 478.9931981420095,329.08360853124617" />
  <polygon fill="hsl(288.0,50.0%,50.65955712546234%)" points="471.49904954310904,333.37032498972906 471.49904954310904,312.1369039595112 477.11966099228437,310.51437319291534 477.11966099228437,331.74779422313327" />
  <polygon fill="hsl(288.0,50.0%,42.21758785095096%)" points="427.02755153529347,473.3187395906665 427.02755153529347,430.4272291096263 434.5217001341939,428.2638547541652 434.5217001341939,471.1553652352054" />
  <polygon fill="hsl(288.0,50.0%,42.21758785095096%)" points="445.76292303254456,467.9103037020137 445.76292303254456,425.0187932209735 438.2687744336441,427.1821675764346 438.2687744336441,470.0736780574748" />
  <polygon fill="hsl(288.0,50.0%,42.21758785095096%)" points="419.53340293639303,433.01527188569173 419.53340293639303,390.54842982525594 426.09078296043094,388.6554772642275 426.09078296043094,431.1223193246633" />
  <polygon fill="hsl(288.0,50.0%,42.21758785095096%)" points="446.69969160740715,425.1730398471452 446.69969160740715,382.7061977867094 453.257071631445,380.81324522568093 453.257071631445,423.2800872861168" />
  <polygon fill="hsl(288.0,50.0%,42.21758785095096%)" points="426.09078296043094,395.21285728826535 426.09078296043094,388.6554772642275 446.69969160740715,382.7061977867094 446.69969160740715,389.2635778107473" />
  <polygon fill="hsl(288.0,50.0%,42.21758785095096%)" points="427.02755153529347,430.85189753023064 427.02755153529347,388.38505546979485 445.76292303254456,382.9766195811421 445.76292303254456,425.44346164157787" />
  <polygon fill="hsl(288.0,50.0%,42.21758785095096%)" points="431.71139440960627,384.90960439460986 431.71139440960627,365.7995254674138 441.0790801582318,363.09530752308734 441.0790801582318,382.20538645028347" />
  <polygon fill="hsl(288.0,50.0%,42.21758785095096%)" points="433.5849315593314,386.49210290876636 433.5849315593314,365.2586818785485 439.2055430085067,363.63615111195264 439.2055430085067,384.8695721421705" />
</svg>
