<?xml version="1.0" encoding="UTF-8"?>
<svg
  xmlns="http://www.w3.org/2000/svg"
  width="848"
  height="600"
  style="background-color:white"
>
  <polygon fill="lightblue" points="410.7184067789952,551.6719692419688 239.01127039599547,402.9692271232118 437.2815932210048,345.73351499554525 608.9887296040046,494.4362571143023" />
  <polygon fill="steelblue" points="239.01127039599547,402.9692271232118 239.0112703959954,105.56374288569774 437.2815932210048,48.32803075803116 437.2815932210048,345.73351499554525" />
  <polygon fill="lightskyblue" points="608.9887296040046,494.4362571143023 608.9887296040046,197.0307728767882 437.2815932210048,48.32803075803116 437.2815932210048,345.73351499554525" />
  <polygon fill="white" points="531.7205182316546,427.52002316086157 531.7205182316546,328.3848617483569 514.5498045933547,313.5145875364812 514.5498045933547,412.6497489489859" />
  <polygon fill="white" points="276.18695592568474,352.5834665342725 276.18695592568474,312.9294019692706 300.97074627881085,305.77493795331225 300.97074627881085,345.4290025183141" />
  <polygon fill="white" points="325.75453663193707,338.2745385023558 325.75453663193707,298.6204739373539 350.53832698506324,291.4660099213956 350.53832698506324,331.12007448639747" />
  <polygon fill="white" points="375.3221173381894,323.9656104704392 375.3221173381894,284.31154590543724 400.10590769131556,277.15708188947895 400.10590769131556,316.8111464544808" />
  <polygon fill="grey" points="426.8067308997953,102.57169644492922 426.8067308997953,77.78790609180308 451.59052125292146,70.6334420758447 451.59052125292146,95.41723242897089" />
  <polygon fill="lightgrey" points="426.8067308997953,102.57169644492922 426.8067308997953,77.78790609180308 412.49780286787865,65.39601091524 412.49780286787865,90.17980126836613" />
  <polygon fill="darkgrey" points="426.8067308997953,77.78790609180308 412.49780286787865,65.39601091524 437.2815932210048,58.241546899281616 451.59052125292146,70.6334420758447" />
  <polygon fill="hsl(360.0,50.0%,72.09185257592405%)" points="400.37223982260207,400.96536793169 400.37223982260207,366.9223535026359 406.3203495073524,365.2052821388059 406.3203495073524,399.24829656786" />
  <polygon fill="hsl(360.0,50.0%,72.09185257592405%)" points="415.2425140344778,396.672689522115 415.2425140344778,362.6296750930609 409.2944043497275,364.3467464568909 409.2944043497275,398.389760885945" />
  <polygon fill="hsl(360.0,50.0%,72.09185257592405%)" points="394.42413013785176,368.9764844152684 394.42413013785176,335.2705295350168 399.6287261120083,333.76809209166555 399.6287261120083,367.4740469719171" />
  <polygon fill="hsl(360.0,50.0%,72.09185257592405%)" points="415.98602774507157,362.75210072138464 415.98602774507157,329.04614584113307 421.19062371922803,327.5437083977818 421.19062371922803,361.2496632780334" />
  <polygon fill="hsl(360.0,50.0%,72.09185257592405%)" points="399.6287261120083,338.972688065822 399.6287261120083,333.76809209166555 415.98602774507157,329.04614584113307 415.98602774507157,334.25074181528953" />
  <polygon fill="hsl(360.0,50.0%,72.09185257592405%)" points="400.37223982260207,367.2594130514384 400.37223982260207,333.5534581711868 415.2425140344778,329.2607797616118 415.2425140344778,362.9667346418634" />
  <polygon fill="hsl(360.0,50.0%,72.09185257592405%)" points="404.08980837557095,330.7949908247805 404.08980837557095,315.62731112866726 411.52494548150884,313.48097192387974 411.52494548150884,328.64865161999296" />
  <polygon fill="hsl(360.0,50.0%,72.09185257592405%)" points="405.5768357967586,332.0510207278355 405.5768357967586,315.19804328770977 410.03791806032126,313.91023976483723 410.03791806032126,330.76321720496304" />
  <polygon fill="hsl(360.0,50.0%,50.65955712546234%)" points="456.495424631954,469.7517627598413 456.495424631954,435.70874833078716 462.44353431670424,433.99167696695713 462.44353431670424,468.0346913960112" />
  <polygon fill="hsl(360.0,50.0%,50.65955712546234%)" points="471.3656988438297,465.45908435026627 471.36569884382965,431.41606992121217 465.4175891590794,433.13314128504214 465.4175891590794,467.1761557140963" />
  <polygon fill="hsl(360.0,50.0%,50.65955712546234%)" points="450.5473149472037,437.76287924341966 450.5473149472037,404.05692436316804 455.7519109213602,402.55448691981684 455.7519109213602,436.2604418000684" />
  <polygon fill="hsl(360.0,50.0%,50.65955712546234%)" points="472.1092125544235,431.5384955495359 472.1092125544235,397.8325406692843 477.31380852857995,396.33010322593304 477.31380852857995,430.03605810618467" />
  <polygon fill="hsl(360.0,50.0%,50.65955712546234%)" points="455.7519109213602,407.7590828939733 455.7519109213602,402.55448691981684 472.1092125544235,397.8325406692843 472.1092125544235,403.0371366434408" />
  <polygon fill="hsl(360.0,50.0%,50.65955712546234%)" points="456.495424631954,436.0458078795897 456.495424631954,402.33985299933806 471.36569884382965,398.0471745897631 471.36569884382965,431.75312947001464" />
  <polygon fill="hsl(360.0,50.0%,50.65955712546234%)" points="460.2129931849229,399.5813856529318 460.2129931849229,384.41370595681855 467.64813029086076,382.267366752031 467.64813029086076,397.43504644814425" />
  <polygon fill="hsl(360.0,50.0%,50.65955712546234%)" points="461.70002060611046,400.8374155559868 461.70002060611046,383.98443811586105 466.1611028696732,382.6966345929885 466.1611028696732,399.54961203311433" />
  <polygon fill="hsl(360.0,50.0%,42.21758785095096%)" points="426.4029692460064,511.9145458353917 426.4029692460064,477.87153140633757 432.35107893075667,476.1544600425076 432.35107893075667,510.1974744715617" />
  <polygon fill="hsl(360.0,50.0%,42.21758785095096%)" points="441.27324345788213,507.62186742581673 441.27324345788213,473.57885299676263 435.3251337731318,475.2959243605926 435.3251337731318,509.3389387896467" />
  <polygon fill="hsl(360.0,50.0%,42.21758785095096%)" points="420.4548595612561,479.9256623189701 420.4548595612561,446.2197074387185 425.65945553541263,444.71726999536725 425.65945553541263,478.42322487561887" />
  <polygon fill="hsl(360.0,50.0%,42.21758785095096%)" points="442.0167571684759,473.70127862508633 442.0167571684759,439.99532374483476 447.2213531426324,438.4928863014835 447.2213531426324,472.19884118173513" />
  <polygon fill="hsl(360.0,50.0%,42.21758785095096%)" points="425.65945553541263,449.92186596952376 425.65945553541263,444.71726999536725 442.0167571684759,439.99532374483476 442.0167571684759,445.1999197189913" />
  <polygon fill="hsl(360.0,50.0%,42.21758785095096%)" points="426.4029692460064,478.2085909551401 426.4029692460064,444.5026360748885 441.27324345788213,440.2099576653135 441.27324345788213,473.9159125455651" />
  <polygon fill="hsl(360.0,50.0%,42.21758785095096%)" points="430.12053779897536,441.7441687284822 430.12053779897536,426.57648903236895 437.5556749049132,424.43014982758143 437.5556749049132,439.5978295236947" />
  <polygon fill="hsl(360.0,50.0%,42.21758785095096%)" points="431.6075652201629,443.0001986315373 431.6075652201629,426.14722119141146 436.0686474837256,424.859417668539 436.0686474837256,441.71239510866474" />
  <polygon fill="hsl(360.0,50.0%,41.7579500056716%)" points="504.7992880774798,491.10612882430087 504.7992880774798,457.06311439524677 510.7473977622301,455.3460430314168 510.7473977622301,489.3890574604709" />
  <polygon fill="hsl(360.0,50.0%,41.7579500056716%)" points="519.6695622893554,486.81345041472593 519.6695622893554,452.7704359856718 513.7214526046052,454.4875073495018 513.7214526046052,488.5305217785559" />
  <polygon fill="hsl(360.0,50.0%,41.7579500056716%)" points="498.8511783927295,459.1172453078793 498.8511783927295,425.4112904276277 504.055774366886,423.90885298427645 504.055774366886,457.614807864528" />
  <polygon fill="hsl(360.0,50.0%,41.7579500056716%)" points="520.4130759999492,452.89286161399554 520.4130759999492,419.1869067337439 525.6176719741057,417.6844692903927 525.6176719741057,451.3904241706443" />
  <polygon fill="hsl(360.0,50.0%,41.7579500056716%)" points="504.055774366886,429.1134489584329 504.055774366886,423.90885298427645 520.4130759999492,419.1869067337439 520.4130759999492,424.39150270790043" />
  <polygon fill="hsl(360.0,50.0%,41.7579500056716%)" points="504.7992880774798,457.4001739440493 504.7992880774798,423.6942190637977 519.6695622893554,419.4015406542227 519.6695622893554,453.1074955344743" />
  <polygon fill="hsl(360.0,50.0%,41.7579500056716%)" points="508.51685663044873,420.9357517173913 508.5168566304487,405.76807202127816 515.9519937363866,403.62173281649063 515.9519937363866,418.78941251260386" />
  <polygon fill="hsl(360.0,50.0%,41.7579500056716%)" points="510.0038840516363,422.1917816204464 510.0038840516363,405.3388041803206 514.464966315199,404.0510006574481 514.464966315199,420.90397809757394" />
</svg>
