<?xml version="1.0" encoding="UTF-8"?>
<svg
  xmlns="http://www.w3.org/2000/svg"
  width="848"
  height="600"
  style="background-color:white"
>
  <polygon fill="lightblue" points="411.6936475291174,487.2642686646416 252.59462176214424,349.48047063308786 436.3063524708826,296.44746204409677 595.4053782378558,434.2312600756505" />
  <polygon fill="steelblue" points="252.59462176214424,349.48047063308786 252.59462176214424,165.76873992434952 436.3063524708826,112.7357313353584 436.3063524708826,296.44746204409677" />
  <polygon fill="lightskyblue" points="595.4053782378558,434.2312600756505 595.4053782378558,250.51952936691217 436.3063524708826,112.7357313353584 436.3063524708826,296.44746204409677" />
  <polygon fill="white" points="523.8108166427178,372.22855096145133 523.8108166427178,280.37268560708213 507.9009140660205,266.5943058039268 507.9009140660205,358.4501711582959" />
  <polygon fill="white" points="267.3571715512393,308.47654344401053 267.3571715512393,271.7341973022628 290.32113788983156,265.10507122863896 290.32113788983156,301.8474173703866" />
  <polygon fill="white" points="293.6017045096305,300.9003993598689 293.6017045096305,264.15805321812127 316.5656708482228,257.5289271444974 316.5656708482228,294.27127328624505" />
  <polygon fill="white" points="319.8462374680217,293.32425527572735 319.8462374680217,256.5819091339797 342.81020380661397,249.95278306035578 342.81020380661397,286.6951292021035" />
  <polygon fill="white" points="346.09077042641286,285.7481111915858 346.09077042641286,249.0057650498381 369.05473676500515,242.37663897621422 369.05473676500515,279.11898511796187" />
  <polygon fill="white" points="372.33530338480404,278.1719671074442 372.33530338480404,241.42962096569653 395.2992697233963,234.80049489207263 395.2992697233963,271.5428410338203" />
  <polygon fill="white" points="398.5798363431952,270.5958230233026 398.5798363431952,233.85347688155494 421.5438026817875,227.22435080793105 421.5438026817875,263.96669694967875" />
</svg>
