<?xml version="1.0" encoding="UTF-8"?>
<svg
  xmlns="http://www.w3.org/2000/svg"
  width="848"
  height="600"
  style="background-color:white"
>
  <polygon fill="lightblue" points="409.8862011513016,541.1046675424659 227.4201412840996,383.0844243690167 438.1137988486985,322.2624044132827 620.5798587159004,480.28264758673185" />
  <polygon fill="steelblue" points="227.4201412840996,383.0844243690167 227.42014128409954,119.71735241326812 438.1137988486984,58.895332457534124 438.1137988486985,322.2624044132827" />
  <polygon fill="lightskyblue" points="620.5798587159004,480.28264758673185 620.5798587159004,216.9155756309833 438.1137988486984,58.895332457534124 438.1137988486985,322.2624044132827" />
  <polygon fill="white" points="538.4701317756595,409.1735381586797 538.4701317756595,303.8267093763803 520.2235257889394,288.0246850590354 520.2235257889394,393.37151384133483" />
  <polygon fill="white" points="284.4830068745117,324.47306245141897 284.4830068745117,282.3343309384992 310.8197140700866,274.73157844403244 310.81971407008666,316.8703099569522" />
  <polygon fill="white" points="354.7142260627114,304.1990557995076 354.71422606271136,262.06032428658784 381.05093325828625,254.45757179212112 381.05093325828625,296.5963033050409" />
  <polygon fill="hsl(288.0,50.0%,72.09185257592405%)" points="398.8917581768964,380.9550062277107 398.8917581768964,344.7789052238691 405.2125679038344,342.9542446251971 405.2125679038344,379.1303456290387" />
  <polygon fill="hsl(288.0,50.0%,72.09185257592405%)" points="414.69378249424136,376.3933547310307 414.69378249424136,340.217253727189 408.3729727673034,342.04191432586106 408.3729727673034,378.21801532970267" />
  <polygon fill="hsl(288.0,50.0%,72.09185257592405%)" points="392.57094844995845,346.96174504040096 392.57094844995845,311.14382325441915 398.10165696102916,309.5472452305811 398.10165696102916,345.3651670165629" />
  <polygon fill="hsl(288.0,50.0%,72.09185257592405%)" points="415.4838837101086,340.3473503702148 415.4838837101086,304.529428584233 421.0145922211793,302.932850560395 421.0145922211793,338.75077234637683" />
  <polygon fill="hsl(288.0,50.0%,72.09185257592405%)" points="398.10165696102916,315.0779537416518 398.10165696102916,309.5472452305811 415.4838837101086,304.529428584233 415.4838837101086,310.0601370953038" />
  <polygon fill="hsl(288.0,50.0%,72.09185257592405%)" points="398.8917581768964,345.1370844417289 398.8917581768964,309.3191626557471 414.69378249424136,304.75751115906706 414.69378249424136,340.5754329450489" />
  <polygon fill="hsl(288.0,50.0%,72.09185257592405%)" points="402.8422642562326,306.387853692278 402.8422642562326,290.26978888858616 410.7432764149051,287.98896314024614 410.74327641490515,304.10702794393796" />
  <polygon fill="hsl(288.0,50.0%,72.09185257592405%)" points="404.42246668796713,307.72258463190906 404.42246668796713,289.8136237389182 409.1630739831706,288.4451282899142 409.16307398317065,306.35408918290506" />
  <polygon fill="hsl(288.0,50.0%,59.71537400830306%)" points="449.3152252607024,418.5519158241947 449.3152252607024,382.375814820353 455.63603498764036,380.55115422168103 455.63603498764036,416.72725522552264" />
  <polygon fill="hsl(288.0,50.0%,59.71537400830306%)" points="465.11724957804734,413.99026432751464 465.11724957804734,377.814163323673 458.79643985110937,379.638823922345 458.79643985110937,415.8149249261866" />
  <polygon fill="hsl(288.0,50.0%,59.71537400830306%)" points="442.9944155337644,384.55865463688485 442.9944155337644,348.74073285090304 448.52512404483514,347.14415482706505 448.52512404483514,382.96207661304686" />
  <polygon fill="hsl(288.0,50.0%,59.71537400830306%)" points="465.9073507939146,377.9442599666988 465.9073507939146,342.12633818071697 471.4380593049853,340.529760156879 471.4380593049853,376.3476819428608" />
  <polygon fill="hsl(288.0,50.0%,59.71537400830306%)" points="448.52512404483514,352.67486333813576 448.52512404483514,347.14415482706505 465.9073507939146,342.12633818071697 465.9073507939146,347.6570466917877" />
  <polygon fill="hsl(288.0,50.0%,59.71537400830306%)" points="449.3152252607024,382.7339940382128 449.3152252607024,346.91607225223106 465.11724957804734,342.35442075555096 465.11724957804734,378.17234254153277" />
  <polygon fill="hsl(288.0,50.0%,59.71537400830306%)" points="453.26573134003866,343.98476328876194 453.2657313400386,327.8666984850701 461.16674349871107,325.5858727367301 461.1667434987111,341.7039375404219" />
  <polygon fill="hsl(288.0,50.0%,59.71537400830306%)" points="454.84593377177316,345.319494228393 454.8459337717731,327.41053333540214 459.58654106697657,326.0420378863981 459.5865410669766,343.950998779389" />
  <polygon fill="hsl(288.0,50.0%,50.65955712546234%)" points="458.5315414443736,454.0514581350241 458.5315414443736,417.8753571311825 464.85235117131157,416.05069653251047 464.85235117131157,452.2267975363521" />
  <polygon fill="hsl(288.0,50.0%,50.65955712546234%)" points="474.3335657617185,449.4898066383441 474.3335657617185,413.3137056345024 468.0127560347805,415.13836623317445 468.0127560347805,451.31446723701606" />
  <polygon fill="hsl(288.0,50.0%,50.65955712546234%)" points="452.21073171743564,420.05819694771435 452.21073171743564,384.24027516173254 457.74144022850635,382.6436971378945 457.74144022850635,418.4616189238763" />
  <polygon fill="hsl(288.0,50.0%,50.65955712546234%)" points="475.12366697758574,413.4438022775283 475.12366697758574,377.62588049154647 480.65437548865646,376.0293024677084 480.65437548865646,411.84722425369023" />
  <polygon fill="hsl(288.0,50.0%,50.65955712546234%)" points="457.74144022850635,388.17440564896526 457.74144022850635,382.6436971378945 475.12366697758574,377.62588049154647 475.12366697758574,383.1565890026172" />
  <polygon fill="hsl(288.0,50.0%,50.65955712546234%)" points="458.5315414443736,418.2335363490423 458.5315414443736,382.4156145630605 474.3335657617185,377.85396306638046 474.3335657617185,413.67188485236227" />
  <polygon fill="hsl(288.0,50.0%,50.65955712546234%)" points="462.4820475237098,379.4843055995914 462.4820475237098,363.3662407958996 470.3830596823823,361.0854150475596 470.3830596823823,377.20347985125136" />
  <polygon fill="hsl(288.0,50.0%,50.65955712546234%)" points="464.0622499554443,380.81903653922245 464.0622499554443,362.9100756462316 468.8028572506478,361.5415801972276 468.8028572506478,379.4505410902185" />
  <polygon fill="hsl(288.0,50.0%,42.21758785095096%)" points="426.55353586075097,498.85610087084535 426.55353586075097,462.67999986700374 432.87434558768894,460.8553392683317 432.87434558768894,497.0314402721733" />
  <polygon fill="hsl(288.0,50.0%,42.21758785095096%)" points="442.3555601780959,494.2944493741653 442.3555601780959,458.1183483703237 436.03475045115795,459.9430089689957 436.03475045115795,496.11910997283735" />
  <polygon fill="hsl(288.0,50.0%,42.21758785095096%)" points="420.232726133813,464.8628396835356 420.232726133813,429.0449178975538 425.7634346448837,427.4483398737157 425.7634346448837,463.26626165969753" />
  <polygon fill="hsl(288.0,50.0%,42.21758785095096%)" points="443.14566139396317,458.2484450133495 443.14566139396317,422.43052322736764 448.6763699050339,420.83394520352965 448.6763699050339,456.6518669895115" />
  <polygon fill="hsl(288.0,50.0%,42.21758785095096%)" points="425.7634346448837,432.97904838478644 425.7634346448837,427.4483398737157 443.14566139396317,422.43052322736764 443.14566139396317,427.9612317384384" />
  <polygon fill="hsl(288.0,50.0%,42.21758785095096%)" points="426.55353586075097,463.03817908486354 426.55353586075097,427.22025729888173 442.3555601780959,422.6586058022017 442.3555601780959,458.4765275881835" />
  <polygon fill="hsl(288.0,50.0%,42.21758785095096%)" points="430.50404194008723,424.2889483354126 430.50404194008723,408.17088353172085 438.40505409875965,405.8900577833808 438.40505409875965,422.00812258707265" />
  <polygon fill="hsl(288.0,50.0%,42.21758785095096%)" points="432.08424437182174,425.62367927504374 432.0842443718217,407.7147183820528 436.8248516670252,406.3462229330488 436.8248516670252,424.2551838260397" />
  <polygon fill="hsl(288.0,50.0%,41.7579500056716%)" points="509.8620558593883,476.74385822288446 509.8620558593883,440.56775721904285 516.1828655863262,438.7430966203708 516.1828655863262,474.9191976242125" />
  <polygon fill="hsl(288.0,50.0%,41.7579500056716%)" points="525.6640801767333,472.1822067262044 525.6640801767333,436.0061057223628 519.3432704497952,437.83076632103484 519.3432704497952,474.00686732487645" />
  <polygon fill="hsl(288.0,50.0%,41.7579500056716%)" points="503.54124613245034,442.75059703557474 503.54124613245034,406.9326752495929 509.07195464352105,405.3360972257549 509.07195464352105,441.1540190117367" />
  <polygon fill="hsl(288.0,50.0%,41.7579500056716%)" points="526.4541813926005,436.1362023653886 526.4541813926005,400.3182805794068 531.9848899036712,398.72170255556875 531.9848899036712,434.5396243415506" />
  <polygon fill="hsl(288.0,50.0%,41.7579500056716%)" points="509.07195464352105,410.8668057368256 509.07195464352105,405.3360972257549 526.4541813926005,400.3182805794068 526.4541813926005,405.8489890904775" />
  <polygon fill="hsl(288.0,50.0%,41.7579500056716%)" points="509.8620558593883,440.9259364369027 509.8620558593883,405.10801465092084 525.6640801767333,400.5463631542408 525.6640801767333,436.3642849402226" />
  <polygon fill="hsl(288.0,50.0%,41.7579500056716%)" points="513.8125619387245,402.1767056874518 513.8125619387245,386.05864088375995 521.713574097397,383.7778151354199 521.713574097397,399.89587993911175" />
  <polygon fill="hsl(288.0,50.0%,41.7579500056716%)" points="515.392764370459,403.51143662708284 515.392764370459,385.60247573409197 520.1333716656625,384.2339802850879 520.1333716656625,402.14294117807884" />
</svg>
