<?xml version="1.0" encoding="UTF-8"?>
<svg
  xmlns="http://www.w3.org/2000/svg"
  width="848"
  height="600"
  style="background-color:white"
>
  <polygon fill="lightblue" points="409.8862011513016,541.1046675424659 227.4201412840996,383.0844243690167 438.1137988486985,322.2624044132827 620.5798587159004,480.28264758673185" />
  <polygon fill="steelblue" points="227.4201412840996,383.0844243690167 227.42014128409954,119.71735241326812 438.1137988486984,58.895332457534124 438.1137988486985,322.2624044132827" />
  <polygon fill="lightskyblue" points="620.5798587159004,480.28264758673185 620.5798587159004,216.9155756309833 438.1137988486984,58.895332457534124 438.1137988486985,322.2624044132827" />
  <polygon fill="white" points="256.3905191992319,332.5826651121835 256.3905191992319,290.44393359926374 282.72722639480673,282.841181104797 282.72722639480673,324.97991261771676" />
  <polygon fill="white" points="298.5292507121517,320.4182611210367 298.5292507121517,278.27952960811695 324.86595790772657,270.6767771136502 324.86595790772657,312.81550862656997" />
  <polygon fill="white" points="340.66798222507146,308.2538571298899 340.66798222507146,266.11512561697015 367.00468942064634,258.5123731225034 367.00468942064634,300.65110463542317" />
  <polygon fill="white" points="382.80671373799123,296.0894531387431 382.80671373799123,253.95072162582332 409.1434209335661,246.34796913135656 409.1434209335661,288.48670064427637" />
  <polygon fill="grey" points="426.9825966420571,116.5378286235931 426.98259664205705,90.20112142801824 453.31930383763194,82.59836893355148 453.31930383763194,108.93507612912634" />
  <polygon fill="lightgrey" points="426.9825966420571,116.5378286235931 426.98259664205705,90.20112142801824 411.7770916531236,77.03276783023082 411.7770916531236,103.36947502580566" />
  <polygon fill="darkgrey" points="426.98259664205705,90.20112142801824 411.7770916531236,77.03276783023082 438.1137988486984,69.43001533576407 453.31930383763194,82.59836893355148" />
  <polygon fill="hsl(360.0,50.0%,50.65955712546234%)" points="458.5315414443736,454.0514581350241 458.5315414443736,417.8753571311825 464.85235117131157,416.05069653251047 464.85235117131157,452.2267975363521" />
  <polygon fill="hsl(360.0,50.0%,50.65955712546234%)" points="474.3335657617185,449.4898066383441 474.3335657617185,413.3137056345024 468.0127560347805,415.13836623317445 468.0127560347805,451.31446723701606" />
  <polygon fill="hsl(360.0,50.0%,50.65955712546234%)" points="452.21073171743564,420.05819694771435 452.21073171743564,384.24027516173254 457.74144022850635,382.6436971378945 457.74144022850635,418.4616189238763" />
  <polygon fill="hsl(360.0,50.0%,50.65955712546234%)" points="475.12366697758574,413.4438022775283 475.12366697758574,377.62588049154647 480.65437548865646,376.0293024677084 480.65437548865646,411.84722425369023" />
  <polygon fill="hsl(360.0,50.0%,50.65955712546234%)" points="457.74144022850635,388.17440564896526 457.74144022850635,382.6436971378945 475.12366697758574,377.62588049154647 475.12366697758574,383.1565890026172" />
  <polygon fill="hsl(360.0,50.0%,50.65955712546234%)" points="458.5315414443736,418.2335363490423 458.5315414443736,382.4156145630605 474.3335657617185,377.85396306638046 474.3335657617185,413.67188485236227" />
  <polygon fill="hsl(360.0,50.0%,50.65955712546234%)" points="462.4820475237098,379.4843055995914 462.4820475237098,363.3662407958996 470.3830596823823,361.0854150475596 470.3830596823823,377.20347985125136" />
  <polygon fill="hsl(360.0,50.0%,50.65955712546234%)" points="464.0622499554443,380.81903653922245 464.0622499554443,362.9100756462316 468.8028572506478,361.5415801972276 468.8028572506478,379.4505410902185" />
</svg>
