<?xml version="1.0" encoding="UTF-8"?>
<svg
  xmlns="http://www.w3.org/2000/svg"
  width="848"
  height="600"
  style="background-color:white"
>
  <polygon fill="lightblue" points="407.266241124715,523.4099542301961 190.92880557860374,336.0562392576852 440.733758875285,263.9437607423148 657.0711944213963,451.29747571482574" />
  <polygon fill="steelblue" points="190.92880557860374,336.0562392576852 190.92880557860374,148.70252428517423 440.733758875285,76.59004576980382 440.733758875285,263.9437607423148" />
  <polygon fill="lightskyblue" points="657.0711944213963,451.29747571482574 657.0711944213963,263.9437607423148 440.733758875285,76.59004576980382 440.733758875285,263.9437607423148" />
  <polygon fill="white" points="559.7193484256462,366.9883039771958 559.7193484256462,242.08582732885517 538.0856048710351,223.35045583160408 538.0856048710351,348.2529324799447" />
  <polygon fill="white" points="216.95015488034136,278.5835320863312 216.95015488034136,228.62254142699496 248.17577404242653,219.60848161257366 248.17577404242653,269.5694722719099" />
  <polygon fill="white" points="258.5843137631216,266.5647856671028 258.5843137631216,216.60379500776656 289.80993292520674,207.58973519334523 289.80993292520674,257.55072585268147" />
  <polygon fill="white" points="300.2184726459018,254.54603924787438 300.2184726459018,204.58504858853814 331.444091807987,195.57098877411684 331.444091807987,245.5319794334531" />
  <polygon fill="white" points="341.85263152868197,242.52729282864598 341.85263152868197,192.56630216930972 373.07825069076716,183.55224235488842 373.07825069076716,233.51323301422468" />
  <polygon fill="white" points="383.4867904114622,230.5085464094176 383.4867904114622,180.54755575008133 414.71240957354735,171.53349593566003 414.71240957354735,221.49448659499626" />
  <polygon fill="antiquewhite" points="500.9101836785517,422.10914286544966 500.9101836785517,315.94203771436014 525.8906790082199,308.7307898628231 525.8906790082199,414.8978950139126" />
  <polygon fill="beige" points="500.9101836785517,422.10914286544966 500.9101836785517,315.94203771436014 486.4876879754776,303.45179004952604 486.4876879754776,409.6188952006156" />
  <polygon fill="bisque" points="500.9101836785517,315.94203771436014 486.4876879754776,303.45179004952604 511.46818330514577,296.240542197989 525.8906790082199,308.7307898628231" />
  <polygon fill="antiquewhite" points="420.86312232838935,503.2099969342887 420.86312232838935,397.04289178319914 445.84361765805744,389.83164393166214 445.84361765805744,495.99874908275166" />
  <polygon fill="beige" points="420.86312232838935,503.2099969342887 420.86312232838935,397.04289178319914 406.44062662531525,384.5526441183651 406.44062662531525,490.7197492694546" />
  <polygon fill="bisque" points="420.86312232838935,397.04289178319914 406.44062662531525,384.5526441183651 431.4211219549834,377.34139626682804 445.84361765805744,389.83164393166214" />
  <polygon fill="antiquewhite" points="411.94087407092314,300.5602972800497 411.94087407092314,194.39319212896015 436.9213694005913,187.1819442774231 436.9213694005913,293.34904942851267" />
  <polygon fill="beige" points="411.94087407092314,300.5602972800497 411.94087407092314,194.39319212896015 397.51837836784904,181.9029444641261 397.51837836784904,288.0700496152156" />
  <polygon fill="bisque" points="411.94087407092314,194.39319212896015 397.51837836784904,181.9029444641261 422.4988736975172,174.69169661258906 436.9213694005913,187.1819442774231" />
</svg>
