<?xml version="1.0" encoding="UTF-8"?>
<svg
  xmlns="http://www.w3.org/2000/svg"
  width="848"
  height="600"
  style="background-color:white"
>
  <polygon fill="lightblue" points="406.29120903866027,536.4274642434539 177.34836052799383,338.15714141844444 441.70879096133973,261.84285858155556 670.6516394720062,460.11318140656505" />
  <polygon fill="steelblue" points="177.34836052799383,338.15714141844444 177.34836052799383,139.88681859343495 441.70879096133973,63.57253575654613 441.70879096133973,261.84285858155556" />
  <polygon fill="lightskyblue" points="670.6516394720062,460.11318140656505 670.6516394720062,261.84285858155556 441.70879096133973,63.57253575654613 441.70879096133973,261.84285858155556" />
  <polygon fill="white" points="567.6273576422063,370.8915361353108 567.6273576422063,238.7113209186378 544.7330727911396,218.8842886361369 544.7330727911396,351.0645038528098" />
  <polygon fill="white" points="248.94597710369166,264.61660373011784 248.94597710369166,211.74451764344866 281.9910309078599,202.20523228883752 281.9910309078599,255.07731837550674" />
  <polygon fill="white" points="337.0661205814736,239.1785094511549 337.0661205814736,186.30642336448568 370.1111743856419,176.7671380098746 370.1111743856419,229.63922409654378" />
  <polygon fill="hsl(324.0,50.0%,50.65955712546234%)" points="467.3272328426053,427.2005222672837 467.3272328426053,381.8098363618782 475.25804575560574,379.52040787677157 475.25804575560574,424.9110937821771" />
  <polygon fill="hsl(324.0,50.0%,50.65955712546234%)" points="487.15426512510624,421.47695105451703 487.15426512510624,376.08626514911157 479.2234522121059,378.37569363421824 479.2234522121059,423.7663795396237" />
  <polygon fill="hsl(324.0,50.0%,50.65955712546234%)" points="459.3964199296049,384.5486775787216 459.3964199296049,339.60740440505276 466.3358812284803,337.60415448058444 466.3358812284803,382.5454276542532" />
  <polygon fill="hsl(324.0,50.0%,50.65955712546234%)" points="488.1456167392313,376.2494993202099 488.1456167392313,331.3082261465411 495.08507803810664,329.30497622207275 495.08507803810664,374.2462493957416" />
  <polygon fill="hsl(324.0,50.0%,50.65955712546234%)" points="466.3358812284803,344.54361577945974 466.3358812284803,337.60415448058444 488.1456167392313,331.3082261465411 488.1456167392313,338.24768744541643" />
  <polygon fill="hsl(324.0,50.0%,50.65955712546234%)" points="467.3272328426053,382.2592490936149 467.3272328426053,337.3179759199461 487.15426512510624,331.5944047071794 487.15426512510624,376.53567788084825" />
  <polygon fill="hsl(324.0,50.0%,50.65955712546234%)" points="472.2839909132305,333.640019458071 472.2839909132305,313.41644652992005 482.19750705448104,310.5546609235367 482.19750705448104,330.7782338516877" />
  <polygon fill="hsl(324.0,50.0%,50.65955712546234%)" points="474.2666941414806,335.3147259954778 474.2666941414806,312.84408940864336 480.21480382623093,311.1270180448134 480.21480382623093,333.59765463164774" />
</svg>
