<?xml version="1.0" encoding="UTF-8"?>
<svg
  xmlns="http://www.w3.org/2000/svg"
  width="848"
  height="600"
  style="background-color:white"
>
  <polygon fill="lightblue" points="425.301173304057,540.2808015294688 171.5790862700488,320.55102865681135 422.698826695943,248.05900378995184 676.4209137299512,467.7887766626093" />
  <polygon fill="steelblue" points="171.5790862700488,320.55102865681135 171.5790862700488,132.21122333739072 422.698826695943,59.71919847053118 422.698826695943,248.05900378995184" />
  <polygon fill="lightskyblue" points="676.4209137299512,467.7887766626093 676.4209137299512,279.44897134318865 422.698826695943,59.71919847053118 422.698826695943,248.05900378995184" />
  <polygon fill="white" points="560.433673942976,367.3408804922516 560.433673942976,241.7810102793045 538.6860664829181,222.94702974736245 538.6860664829181,348.5068999603095" />
  <polygon fill="white" points="206.10805057860927,260.3594271524393 206.10805057860927,210.1354790672605 237.49801813184604,201.07397595890305 237.49801813184604,251.2979240440819" />
  <polygon fill="white" points="256.3319986637881,245.86102217906742 256.3319986637881,195.63707409388857 287.7219662170249,186.57557098553116 287.7219662170249,236.79951907070998" />
  <polygon fill="white" points="306.55594674896696,231.36261720569553 306.55594674896696,181.13866912051668 337.94591430220373,172.07716601215924 337.94591430220373,222.3011140973381" />
  <polygon fill="white" points="356.7798948341458,216.8642122323236 356.7798948341458,166.64026414714476 388.1698623873826,157.57876103878735 388.1698623873826,207.80270912396617" />
  <polygon fill="hsl(288.0,50.0%,50.11143025347155%)" points="473.5014695945344,428.05597649704123 473.5014695945344,384.93871706591517 481.03506180731125,382.76395631990937 481.03506180731125,425.8812157510354" />
  <polygon fill="hsl(288.0,50.0%,50.11143025347155%)" points="492.3354501264765,422.61907463202675 492.3354501264765,379.5018152009007 484.8018579136996,381.6765759469065 484.8018579136996,424.79383537803255" />
  <polygon fill="hsl(288.0,50.0%,50.11143025347155%)" points="465.9678773817576,387.540381370645 465.9678773817576,344.850025498243 472.5597705679373,342.9471098454879 472.5597705679373,385.6374657178899" />
  <polygon fill="hsl(288.0,50.0%,50.11143025347155%)" points="493.27714915307354,379.656873666374 493.27714915307354,336.966517793972 499.86904233925327,335.06360214121696 499.86904233925327,377.7539580136189" />
  <polygon fill="hsl(288.0,50.0%,50.11143025347155%)" points="472.5597705679373,349.5390030316676 472.5597705679373,342.9471098454879 493.27714915307354,336.966517793972 493.27714915307354,343.55841098015173" />
  <polygon fill="hsl(288.0,50.0%,50.11143025347155%)" points="473.5014695945344,385.3656206246392 473.5014695945344,342.6752647522372 492.3354501264765,337.2383628872227 492.3354501264765,379.92871875962476" />
  <polygon fill="hsl(288.0,50.0%,50.11143025347155%)" points="478.2099647275199,339.18152149236346 478.2099647275199,319.9708613497826 487.6269549934909,317.2524104172753 487.6269549934909,336.46307055985625" />
  <polygon fill="hsl(288.0,50.0%,50.11143025347155%)" points="480.09336278071413,340.77234909948214 480.09336278071413,319.4271711632811 485.74355694029674,317.7961006037768 485.74355694029674,339.14127853997775" />
</svg>
