<?xml version="1.0" encoding="UTF-8"?>
<svg
  xmlns="http://www.w3.org/2000/svg"
  width="848"
  height="600"
  style="background-color:white"
>
  <polygon fill="lightblue" points="425.301173304057,540.2808015294688 171.5790862700488,320.55102865681135 422.698826695943,248.05900378995184 676.4209137299512,467.7887766626093" />
  <polygon fill="steelblue" points="171.5790862700488,320.55102865681135 171.5790862700488,132.21122333739072 422.698826695943,59.71919847053118 422.698826695943,248.05900378995184" />
  <polygon fill="lightskyblue" points="676.4209137299512,467.7887766626093 676.4209137299512,279.44897134318865 422.698826695943,59.71919847053118 422.698826695943,248.05900378995184" />
  <polygon fill="white" points="518.146659437308,330.71925168014207 518.146659437308,205.15938146719495 496.39905197725017,186.3254009352529 496.39905197725017,311.8852711482" />
  <polygon fill="white" points="602.7206884486441,403.96250930436116 602.7206884486441,278.4026390914141 580.9730809885862,259.56865855947206 580.9730809885862,385.12852877241914" />
  <polygon fill="white" points="281.4439727063775,238.61181969238146 281.4439727063775,188.38787160720264 312.8339402596143,179.3263684988452 312.8339402596143,229.55031658402402" />
  <polygon fill="hsl(288.0,50.0%,73.07460395039482%)" points="379.1134613797152,320.751635716315 379.1134613797152,277.6343762851889 386.64705359249206,275.4596155391831 386.64705359249206,318.5768749703092" />
  <polygon fill="hsl(288.0,50.0%,73.07460395039482%)" points="397.9474419116573,315.3147338513005 397.9474419116573,272.19747442017444 390.4138496988804,274.37223516618025 390.4138496988804,317.4894945973063" />
  <polygon fill="hsl(288.0,50.0%,73.07460395039482%)" points="371.57986916693835,280.23604058991873 371.57986916693835,237.5456847175167 378.1717623531181,235.64276906476164 378.1717623531181,278.3331249371637" />
  <polygon fill="hsl(288.0,50.0%,73.07460395039482%)" points="398.88914093825434,272.35253288564775 398.88914093825434,229.66217701324575 405.4810341244341,227.75926136049068 405.4810341244341,270.4496172328927" />
  <polygon fill="hsl(288.0,50.0%,73.07460395039482%)" points="378.1717623531181,242.23466225094137 378.1717623531181,235.64276906476164 398.88914093825434,229.66217701324575 398.88914093825434,236.25407019942546" />
  <polygon fill="hsl(288.0,50.0%,73.07460395039482%)" points="379.1134613797152,278.0612798439129 379.1134613797152,235.37092397151093 397.9474419116573,229.93402210649646 397.9474419116573,272.62437797889845" />
  <polygon fill="hsl(288.0,50.0%,73.07460395039482%)" points="383.8219565127007,231.8771807116372 383.8219565127007,212.66652056905633 393.2389467786718,209.94806963654906 393.2389467786718,229.15872977912997" />
  <polygon fill="hsl(288.0,50.0%,73.07460395039482%)" points="385.70535456589494,233.46800831875586 385.70535456589494,212.12283038255487 391.35554872547755,210.49175982305053 391.35554872547755,231.83693775925153" />
  <polygon fill="hsl(288.0,50.0%,50.11143025347155%)" points="473.5014695945344,428.05597649704123 473.5014695945344,384.93871706591517 481.03506180731125,382.76395631990937 481.03506180731125,425.8812157510354" />
  <polygon fill="hsl(288.0,50.0%,50.11143025347155%)" points="492.3354501264765,422.61907463202675 492.3354501264765,379.5018152009007 484.8018579136996,381.6765759469065 484.8018579136996,424.79383537803255" />
  <polygon fill="hsl(288.0,50.0%,50.11143025347155%)" points="465.9678773817576,387.540381370645 465.9678773817576,344.850025498243 472.5597705679373,342.9471098454879 472.5597705679373,385.6374657178899" />
  <polygon fill="hsl(288.0,50.0%,50.11143025347155%)" points="493.27714915307354,379.656873666374 493.27714915307354,336.966517793972 499.86904233925327,335.06360214121696 499.86904233925327,377.7539580136189" />
  <polygon fill="hsl(288.0,50.0%,50.11143025347155%)" points="472.5597705679373,349.5390030316676 472.5597705679373,342.9471098454879 493.27714915307354,336.966517793972 493.27714915307354,343.55841098015173" />
  <polygon fill="hsl(288.0,50.0%,50.11143025347155%)" points="473.5014695945344,385.3656206246392 473.5014695945344,342.6752647522372 492.3354501264765,337.2383628872227 492.3354501264765,379.92871875962476" />
  <polygon fill="hsl(288.0,50.0%,50.11143025347155%)" points="478.2099647275199,339.18152149236346 478.2099647275199,319.9708613497826 487.6269549934909,317.2524104172753 487.6269549934909,336.46307055985625" />
  <polygon fill="hsl(288.0,50.0%,50.11143025347155%)" points="480.09336278071413,340.77234909948214 480.09336278071413,319.4271711632811 485.74355694029674,317.7961006037768 485.74355694029674,339.14127853997775" />
  <polygon fill="hsl(288.0,50.0%,41.06646317363794%)" points="444.56743164441417,489.40714211913036 444.5674316444141,446.28988268800435 452.10102385719097,444.1151219419985 452.10102385719097,487.23238137312455" />
  <polygon fill="hsl(288.0,50.0%,41.06646317363794%)" points="463.4014121763562,483.9702402541159 463.4014121763562,440.8529808229898 455.8678199635794,443.0277415689957 455.8678199635794,486.1450010001217" />
  <polygon fill="hsl(288.0,50.0%,41.06646317363794%)" points="437.0338394316373,448.8915469927341 437.0338394316373,406.2011911203321 443.62573261781705,404.29827546757707 443.62573261781705,446.98863133997907" />
  <polygon fill="hsl(288.0,50.0%,41.06646317363794%)" points="464.3431112029533,441.0080392884631 464.3431112029533,398.31768341606113 470.93500438913304,396.4147677633061 470.93500438913304,439.1051236357081" />
  <polygon fill="hsl(288.0,50.0%,41.06646317363794%)" points="443.62573261781705,410.89016865375675 443.62573261781705,404.29827546757707 464.3431112029533,398.31768341606113 464.3431112029533,404.90957660224086" />
  <polygon fill="hsl(288.0,50.0%,41.06646317363794%)" points="444.5674316444141,446.71678624672836 444.5674316444141,404.0264303743263 463.4014121763562,398.5895285093119 463.4014121763562,441.2798843817139" />
  <polygon fill="hsl(288.0,50.0%,41.06646317363794%)" points="449.27592677739966,400.53268711445264 449.27592677739966,381.3220269718717 458.6929170433707,378.6035760393645 458.6929170433707,397.8142361819454" />
  <polygon fill="hsl(288.0,50.0%,41.06646317363794%)" points="451.1593248305939,402.12351472157127 451.1593248305939,380.77833678537024 456.80951899017646,379.1472662258659 456.80951899017646,400.49244416206693" />
</svg>
