<?xml version="1.0" encoding="UTF-8"?>
<svg
  xmlns="http://www.w3.org/2000/svg"
  width="848"
  height="600"
  style="background-color:white"
>
  <polygon fill="lightblue" points="425.4894716131842,539.1203127914362 135.05018493499904,287.59251227109655 422.5105283868158,204.60985893447216 712.949815065001,456.13765945481185" />
  <polygon fill="steelblue" points="135.05018493499904,287.59251227109655 135.05018493499904,143.86234054518815 422.5105283868158,60.87968720856378 422.5105283868158,204.60985893447216" />
  <polygon fill="lightskyblue" points="712.949815065001,456.13765945481185 712.949815065001,312.40748772890345 422.5105283868158,60.87968720856378 422.5105283868158,204.60985893447216" />
  <polygon fill="white" points="580.177569726402,341.1535220740851 580.177569726402,197.42335034817677 555.2827737254147,175.86382458929052 555.2827737254147,319.59399631519886" />
  <polygon fill="white" points="188.9489993322147,214.5411960801161 188.9489993322147,157.04912738975275 224.88154226369176,146.67629572267472 224.88154226369176,204.16836441303803" />
  <polygon fill="white" points="260.8140851951689,193.79553274596003 260.8140851951689,136.30346405559666 296.74662812664593,125.9306323885186 296.74662812664593,183.42270107888197" />
  <polygon fill="white" points="332.6791710581231,173.0498694118039 332.6791710581231,115.55780072144054 368.61171398960016,105.18496905436251 368.61171398960016,162.67703774472588" />
  <polygon fill="grey" points="407.32364878949477,139.52435044544833 407.32364878949477,103.59180751397122 443.25619172097186,93.21897584689319 443.25619172097186,129.15151877837027" />
  <polygon fill="lightgrey" points="407.32364878949477,139.52435044544833 407.32364878949477,103.59180751397122 386.5779854553387,85.62553604823265 386.5779854553387,121.55807897970979" />
  <polygon fill="darkgrey" points="407.32364878949477,103.59180751397122 386.5779854553387,85.62553604823265 422.5105283868158,75.25270438115462 443.25619172097186,93.21897584689319" />
  <polygon fill="hsl(324.0,50.0%,50.11143025347155%)" points="480.66503727218424,410.6549572087607 480.66503727218424,361.29801623808373 489.2888475757387,358.808536637985 489.2888475757387,408.16547760866194" />
  <polygon fill="hsl(324.0,50.0%,50.11143025347155%)" points="502.2245630310705,404.4312582085139 502.2245630310705,355.0743172378369 493.60075272751595,357.5637968379357 493.60075272751595,406.9207378086126" />
  <polygon fill="hsl(324.0,50.0%,50.11143025347155%)" points="472.0412269686297,364.2761784220506 472.0412269686297,315.4079200352417 479.5870609842399,313.2296253851553 479.5870609842399,362.0978837719642" />
  <polygon fill="hsl(324.0,50.0%,50.11143025347155%)" points="503.3025393190148,355.25181487169266 503.3025393190148,306.3835564848838 510.84837333462497,304.20526183479745 510.84837333462497,353.07352022160626" />
  <polygon fill="hsl(324.0,50.0%,50.11143025347155%)" points="479.5870609842399,320.7754594007655 479.5870609842399,313.2296253851553 503.3025393190148,306.3835564848838 503.3025393190148,313.929390500494" />
  <polygon fill="hsl(324.0,50.0%,50.11143025347155%)" points="480.66503727218424,361.78669882195186 480.66503727218424,312.918440435143 502.2245630310705,306.6947414348962 502.2245630310705,355.56299982170503" />
  <polygon fill="hsl(324.0,50.0%,50.11143025347155%)" points="486.05491871190577,308.91910276574083 486.05491871190577,286.92838649167686 496.83468159134895,283.81653699155345 496.83468159134895,305.8072532656174" />
  <polygon fill="hsl(324.0,50.0%,50.11143025347155%)" points="488.2108712877944,310.7401457850566 488.2108712877944,286.30601659165217 494.67872901546025,284.43890689157814 494.6787290154603,308.8730360849826" />
</svg>
