<?xml version="1.0" encoding="UTF-8"?>
<svg
  xmlns="http://www.w3.org/2000/svg"
  width="848"
  height="600"
  style="background-color:white"
>
  <polygon fill="lightblue" points="425.4894716131842,539.1203127914362 135.05018493499904,287.59251227109655 422.5105283868158,204.60985893447216 712.949815065001,456.13765945481185" />
  <polygon fill="steelblue" points="135.05018493499904,287.59251227109655 135.05018493499904,143.86234054518815 422.5105283868158,60.87968720856378 422.5105283868158,204.60985893447216" />
  <polygon fill="lightskyblue" points="712.949815065001,456.13765945481185 712.949815065001,312.40748772890345 422.5105283868158,60.87968720856378 422.5105283868158,204.60985893447216" />
  <polygon fill="grey" points="407.32364878949477,139.52435044544833 407.32364878949477,103.59180751397122 443.25619172097186,93.21897584689319 443.25619172097186,129.15151877837027" />
  <polygon fill="lightgrey" points="407.32364878949477,139.52435044544833 407.32364878949477,103.59180751397122 386.5779854553387,85.62553604823265 386.5779854553387,121.55807897970979" />
  <polygon fill="darkgrey" points="407.32364878949477,103.59180751397122 386.5779854553387,85.62553604823265 422.5105283868158,75.25270438115462 443.25619172097186,93.21897584689319" />
  <polygon fill="hsl(288.0,50.0%,73.07460395039482%)" points="372.6177399424398,287.82215002926705 372.6177399424398,238.46520905859012 381.24155024599435,235.9757294584914 381.24155024599435,285.33267042916833" />
  <polygon fill="hsl(288.0,50.0%,73.07460395039482%)" points="394.17726570132606,281.5984510290202 394.17726570132606,232.2415100583433 385.5534553977716,234.730989658442 385.5534553977716,284.08793062911894" />
  <polygon fill="hsl(288.0,50.0%,73.07460395039482%)" points="363.99392963888533,241.44337124255694 363.99392963888533,192.5751128557481 371.5397636544955,190.3968182056617 371.5397636544955,239.26507659247056" />
  <polygon fill="hsl(288.0,50.0%,73.07460395039482%)" points="395.25524198927036,232.41900769219905 395.25524198927036,183.55074930539018 402.8010760048806,181.3724546553038 402.8010760048806,230.24071304211265" />
  <polygon fill="hsl(288.0,50.0%,73.07460395039482%)" points="371.5397636544955,197.94265222127189 371.5397636544955,190.3968182056617 395.25524198927036,183.55074930539018 395.25524198927036,191.09658332100037" />
  <polygon fill="hsl(288.0,50.0%,73.07460395039482%)" points="372.6177399424398,238.9538916424582 372.6177399424398,190.08563325564936 394.17726570132606,183.8619342554025 394.17726570132606,232.73019264221136" />
  <polygon fill="hsl(288.0,50.0%,73.07460395039482%)" points="378.00762138216135,186.08629558624722 378.00762138216135,164.09557931218325 388.78738426160453,160.9837298120598 388.78738426160453,182.9744460861238" />
  <polygon fill="hsl(288.0,50.0%,73.07460395039482%)" points="380.16357395805,187.90733860556298 380.16357395805,163.47320941215858 386.6314316857159,161.6060997120845 386.6314316857159,186.0402289054889" />
  <polygon fill="hsl(288.0,50.0%,59.81409119937232%)" points="456.8186008300269,352.4591246738533 456.8186008300269,303.10218370317637 465.4424111335814,300.6127041030776 465.4424111335814,349.9696450737545" />
  <polygon fill="hsl(288.0,50.0%,59.81409119937232%)" points="478.3781265889132,346.23542567360647 478.3781265889132,296.87848470292954 469.75431628535864,299.36796430302826 469.75431628535864,348.7249052737052" />
  <polygon fill="hsl(288.0,50.0%,59.81409119937232%)" points="448.1947905264724,306.08034588714315 448.1947905264724,257.2120875003343 455.74062454208257,255.03379285024795 455.74062454208257,303.90205123705675" />
  <polygon fill="hsl(288.0,50.0%,59.81409119937232%)" points="479.45610287685747,297.05598233678523 479.45610287685747,248.18772394997643 487.00193689246765,246.00942929989003 487.00193689246765,294.8776876866989" />
  <polygon fill="hsl(288.0,50.0%,59.81409119937232%)" points="455.74062454208257,262.57962686585813 455.74062454208257,255.03379285024795 479.45610287685747,248.18772394997643 479.45610287685747,255.7335579655866" />
  <polygon fill="hsl(288.0,50.0%,59.81409119937232%)" points="456.8186008300269,303.59086628704443 456.8186008300269,254.72260790023557 478.3781265889132,248.49890889998875 478.3781265889132,297.3671672867976" />
  <polygon fill="hsl(288.0,50.0%,59.81409119937232%)" points="462.20848226974846,250.72327023083344 462.20848226974846,228.73255395676946 472.9882451491916,225.62070445664605 472.9882451491916,247.61142073071002" />
  <polygon fill="hsl(288.0,50.0%,59.81409119937232%)" points="464.3644348456371,252.54431325014917 464.3644348456371,228.1101840567448 470.832292573303,226.24307435667072 470.832292573303,250.67720355007515" />
  <polygon fill="hsl(288.0,50.0%,50.11143025347155%)" points="480.66503727218424,410.6549572087607 480.66503727218424,361.29801623808373 489.2888475757387,358.808536637985 489.2888475757387,408.16547760866194" />
  <polygon fill="hsl(288.0,50.0%,50.11143025347155%)" points="502.2245630310705,404.4312582085139 502.2245630310705,355.0743172378369 493.60075272751595,357.5637968379357 493.60075272751595,406.9207378086126" />
  <polygon fill="hsl(288.0,50.0%,50.11143025347155%)" points="472.0412269686297,364.2761784220506 472.0412269686297,315.4079200352417 479.5870609842399,313.2296253851553 479.5870609842399,362.0978837719642" />
  <polygon fill="hsl(288.0,50.0%,50.11143025347155%)" points="503.3025393190148,355.25181487169266 503.3025393190148,306.3835564848838 510.84837333462497,304.20526183479745 510.84837333462497,353.07352022160626" />
  <polygon fill="hsl(288.0,50.0%,50.11143025347155%)" points="479.5870609842399,320.7754594007655 479.5870609842399,313.2296253851553 503.3025393190148,306.3835564848838 503.3025393190148,313.929390500494" />
  <polygon fill="hsl(288.0,50.0%,50.11143025347155%)" points="480.66503727218424,361.78669882195186 480.66503727218424,312.918440435143 502.2245630310705,306.6947414348962 502.2245630310705,355.56299982170503" />
  <polygon fill="hsl(288.0,50.0%,50.11143025347155%)" points="486.05491871190577,308.91910276574083 486.05491871190577,286.92838649167686 496.83468159134895,283.81653699155345 496.83468159134895,305.8072532656174" />
  <polygon fill="hsl(288.0,50.0%,50.11143025347155%)" points="488.2108712877944,310.7401457850566 488.2108712877944,286.30601659165217 494.67872901546025,284.43890689157814 494.6787290154603,308.8730360849826" />
  <polygon fill="hsl(288.0,50.0%,41.06646317363794%)" points="447.54383193610295,480.8845102936145 447.54383193610295,431.52756932293755 456.1676422396575,429.0380897228388 456.1676422396575,478.39503069351576" />
  <polygon fill="hsl(288.0,50.0%,41.06646317363794%)" points="469.1033576949892,474.66081129336766 469.1033576949892,425.3038703226907 460.4795473914347,427.79334992278945 460.4795473914347,477.1502908934664" />
  <polygon fill="hsl(288.0,50.0%,41.06646317363794%)" points="438.92002163254847,434.50573150690434 438.92002163254847,385.6374731200955 446.46585564815865,383.45917847000914 446.46585564815865,432.32743685681794" />
  <polygon fill="hsl(288.0,50.0%,41.06646317363794%)" points="470.18133398293355,425.4813679565465 470.18133398293355,376.6131095697376 477.72716799854373,374.4348149196512 477.72716799854373,423.3030733064601" />
  <polygon fill="hsl(288.0,50.0%,41.06646317363794%)" points="446.46585564815865,391.0050124856193 446.46585564815865,383.45917847000914 470.18133398293355,376.6131095697376 470.18133398293355,384.1589435853478" />
  <polygon fill="hsl(288.0,50.0%,41.06646317363794%)" points="447.54383193610295,432.0162519068056 447.54383193610295,383.1479935199968 469.1033576949892,376.92429451974994 469.1033576949892,425.7925529065588" />
  <polygon fill="hsl(288.0,50.0%,41.06646317363794%)" points="452.93371337582454,379.14865585059465 452.93371337582454,357.1579395765307 463.71347625526766,354.04609007640727 463.71347625526766,376.03680635047124" />
  <polygon fill="hsl(288.0,50.0%,41.06646317363794%)" points="455.0896659517132,380.9696988699104 455.0896659517132,356.535569676506 461.557523679379,354.6684599764319 461.557523679379,379.10258916983634" />
  <polygon fill="hsl(288.0,50.0%,40.57399405369576%)" points="561.7781193397594,451.2111033237079 561.7781193397594,401.854162353031 570.4019296433139,399.36468275293225 570.4019296433139,448.7216237236092" />
  <polygon fill="hsl(288.0,50.0%,40.57399405369576%)" points="583.3376450986457,444.9874043234611 583.3376450986457,395.63046335278415 574.7138347950911,398.11994295288287 574.7138347950911,447.4768839235598" />
  <polygon fill="hsl(288.0,50.0%,40.57399405369576%)" points="553.154309036205,404.8323245369978 553.154309036205,355.96406615018896 560.7001430518151,353.78577150010256 560.7001430518151,402.6540298869114" />
  <polygon fill="hsl(288.0,50.0%,40.57399405369576%)" points="584.4156213865899,395.8079609866399 584.4156213865899,346.93970259983104 591.9614554022002,344.76140794974464 591.9614554022002,393.6296663365535" />
  <polygon fill="hsl(288.0,50.0%,40.57399405369576%)" points="560.7001430518151,361.33160551571274 560.7001430518151,353.78577150010256 584.4156213865899,346.93970259983104 584.4156213865899,354.4855366154412" />
  <polygon fill="hsl(288.0,50.0%,40.57399405369576%)" points="561.7781193397594,402.34284493689904 561.7781193397594,353.4745865500902 583.3376450986457,347.25088754984336 583.3376450986457,396.1191459366522" />
  <polygon fill="hsl(288.0,50.0%,40.57399405369576%)" points="567.168000779481,349.47524888068807 567.168000779481,327.4845326066241 577.9477636589241,324.3726831065007 577.9477636589241,346.36339938056466" />
  <polygon fill="hsl(288.0,50.0%,40.57399405369576%)" points="569.3239533553696,351.29629190000384 569.3239533553696,326.8621627065994 575.7918110830354,324.9950530065254 575.7918110830354,349.42918219992976" />
</svg>
