<?xml version="1.0" encoding="UTF-8"?>
<svg
  xmlns="http://www.w3.org/2000/svg"
  width="848"
  height="600"
  style="background-color:white"
>
  <polygon fill="lightblue" points="425.301173304057,540.2808015294688 171.5790862700488,320.55102865681135 422.698826695943,248.05900378995184 676.4209137299512,467.7887766626093" />
  <polygon fill="steelblue" points="171.5790862700488,320.55102865681135 171.5790862700488,132.21122333739072 422.698826695943,59.71919847053118 422.698826695943,248.05900378995184" />
  <polygon fill="lightskyblue" points="676.4209137299512,467.7887766626093 676.4209137299512,279.44897134318865 422.698826695943,59.71919847053118 422.698826695943,248.05900378995184" />
  <polygon fill="white" points="560.433673942976,367.3408804922516 560.433673942976,248.05900378995187 538.6860664829181,229.2250232580098 538.6860664829181,348.5068999603095" />
  <polygon fill="grey" points="409.4318653594211,128.42163993003854 409.4318653594211,97.03167237680174 440.8218329126579,87.97016926844432 440.8218329126579,119.36013682168112" />
  <polygon fill="lightgrey" points="409.4318653594211,128.42163993003854 409.4318653594211,97.03167237680174 391.30885914270624,81.33668860018335 391.30885914270624,112.72665615342012" />
  <polygon fill="darkgrey" points="409.4318653594211,97.03167237680174 391.30885914270624,81.33668860018335 422.698826695943,72.27518549182591 440.8218329126579,87.97016926844432" />
  <polygon fill="hsl(288.0,50.0%,50.11143025347155%)" points="473.5014695945344,428.05597649704123 473.5014695945344,384.93871706591517 481.03506180731125,382.76395631990937 481.03506180731125,425.8812157510354" />
  <polygon fill="hsl(288.0,50.0%,50.11143025347155%)" points="492.3354501264765,422.61907463202675 492.3354501264765,379.5018152009007 484.8018579136996,381.6765759469065 484.8018579136996,424.79383537803255" />
  <polygon fill="hsl(288.0,50.0%,50.11143025347155%)" points="465.9678773817576,387.540381370645 465.9678773817576,344.850025498243 472.5597705679373,342.9471098454879 472.5597705679373,385.6374657178899" />
  <polygon fill="hsl(288.0,50.0%,50.11143025347155%)" points="493.27714915307354,379.656873666374 493.27714915307354,336.966517793972 499.86904233925327,335.06360214121696 499.86904233925327,377.7539580136189" />
  <polygon fill="hsl(288.0,50.0%,50.11143025347155%)" points="472.5597705679373,349.5390030316676 472.5597705679373,342.9471098454879 493.27714915307354,336.966517793972 493.27714915307354,343.55841098015173" />
  <polygon fill="hsl(288.0,50.0%,50.11143025347155%)" points="473.5014695945344,385.3656206246392 473.5014695945344,342.6752647522372 492.3354501264765,337.2383628872227 492.3354501264765,379.92871875962476" />
  <polygon fill="hsl(288.0,50.0%,50.11143025347155%)" points="478.2099647275199,339.18152149236346 478.2099647275199,319.9708613497826 487.6269549934909,317.2524104172753 487.6269549934909,336.46307055985625" />
  <polygon fill="hsl(288.0,50.0%,50.11143025347155%)" points="480.09336278071413,340.77234909948214 480.09336278071413,319.4271711632811 485.74355694029674,317.7961006037768 485.74355694029674,339.14127853997775" />
</svg>
