<?xml version="1.0" encoding="UTF-8"?>
<svg
  xmlns="http://www.w3.org/2000/svg"
  width="848"
  height="600"
  style="background-color:white"
>
  <polygon fill="lightblue" points="425.4894716131842,539.1203127914362 135.05018493499904,287.59251227109655 422.5105283868158,204.60985893447216 712.949815065001,456.13765945481185" />
  <polygon fill="steelblue" points="135.05018493499904,287.59251227109655 135.05018493499904,143.86234054518815 422.5105283868158,60.87968720856378 422.5105283868158,204.60985893447216" />
  <polygon fill="lightskyblue" points="712.949815065001,456.13765945481185 712.949815065001,312.40748772890345 422.5105283868158,60.87968720856378 422.5105283868158,204.60985893447216" />
  <polygon fill="white" points="580.177569726402,341.1535220740851 580.177569726402,204.6098589344722 555.2827737254147,183.05033317558593 555.2827737254147,319.59399631519886" />
  <polygon fill="white" points="164.99397071122996,221.4564171915015 164.99397071122996,163.96434850113812 200.92651364270702,153.5915168340601 200.92651364270702,211.08358552442343" />
  <polygon fill="white" points="212.9040279531994,207.62597496873076 212.9040279531994,150.1339062783674 248.83657088467646,139.76107461128936 248.83657088467652,197.2531433016527" />
  <polygon fill="white" points="260.8140851951689,193.79553274596003 260.8140851951689,136.30346405559666 296.74662812664593,125.9306323885186 296.74662812664593,183.42270107888197" />
  <polygon fill="white" points="308.7241424371383,179.96509052318928 308.7241424371383,122.47302183282594 344.6566853686154,112.10019016574788 344.6566853686154,169.59225885611124" />
  <polygon fill="white" points="356.6341996791077,166.13464830041855 356.6341996791077,108.64257961005521 392.56674261058487,98.26974794297718 392.56674261058487,155.76181663334052" />
  <polygon fill="hsl(288.0,50.0%,50.11143025347155%)" points="480.66503727218424,410.6549572087607 480.66503727218424,361.29801623808373 489.2888475757387,358.808536637985 489.2888475757387,408.16547760866194" />
  <polygon fill="hsl(288.0,50.0%,50.11143025347155%)" points="502.2245630310705,404.4312582085139 502.2245630310705,355.0743172378369 493.60075272751595,357.5637968379357 493.60075272751595,406.9207378086126" />
  <polygon fill="hsl(288.0,50.0%,50.11143025347155%)" points="472.0412269686297,364.2761784220506 472.0412269686297,315.4079200352417 479.5870609842399,313.2296253851553 479.5870609842399,362.0978837719642" />
  <polygon fill="hsl(288.0,50.0%,50.11143025347155%)" points="503.3025393190148,355.25181487169266 503.3025393190148,306.3835564848838 510.84837333462497,304.20526183479745 510.84837333462497,353.07352022160626" />
  <polygon fill="hsl(288.0,50.0%,50.11143025347155%)" points="479.5870609842399,320.7754594007655 479.5870609842399,313.2296253851553 503.3025393190148,306.3835564848838 503.3025393190148,313.929390500494" />
  <polygon fill="hsl(288.0,50.0%,50.11143025347155%)" points="480.66503727218424,361.78669882195186 480.66503727218424,312.918440435143 502.2245630310705,306.6947414348962 502.2245630310705,355.56299982170503" />
  <polygon fill="hsl(288.0,50.0%,50.11143025347155%)" points="486.05491871190577,308.91910276574083 486.05491871190577,286.92838649167686 496.83468159134895,283.81653699155345 496.83468159134895,305.8072532656174" />
  <polygon fill="hsl(288.0,50.0%,50.11143025347155%)" points="488.2108712877944,310.7401457850566 488.2108712877944,286.30601659165217 494.67872901546025,284.43890689157814 494.6787290154603,308.8730360849826" />
</svg>
