<?xml version="1.0" encoding="UTF-8"?>
<svg
  xmlns="http://www.w3.org/2000/svg"
  width="848"
  height="600"
  style="background-color:white"
>
  <polygon fill="lightblue" points="425.1821944028227,546.8292744853646 194.66037979990037,347.1915269127473 422.8178055971773,281.3281513119123 653.3396202000996,480.9658988845297" />
  <polygon fill="steelblue" points="194.66037979990037,347.1915269127473 194.66037979990037,119.03410111547032 422.8178055971773,53.170725514635336 422.8178055971773,281.3281513119123" />
  <polygon fill="lightskyblue" points="653.3396202000996,480.9658988845297 653.3396202000996,252.8084730872527 422.8178055971773,53.170725514635336 422.8178055971773,281.3281513119123" />
  <polygon fill="white" points="547.9582192387637,389.7029285656189 547.9582192387637,281.32815131191234 528.1992065585132,264.21634437711657 528.1992065585132,372.59112163082307" />
  <polygon fill="white" points="226.03202584702595,292.50382760817706 226.03202584702595,246.8723424487217 254.55170407168555,238.6394204986173 254.55170407168555,284.2709056580727" />
  <polygon fill="white" points="271.6635110064814,279.3311524880101 271.6635110064813,233.6996673285547 300.18318923114094,225.46674537845033 300.18318923114094,271.0982305379057" />
  <polygon fill="white" points="317.2949961659367,266.1584773678431 317.2949961659367,220.5269922083877 345.81467439059634,212.29407025828334 345.81467439059634,257.9255554177387" />
  <polygon fill="white" points="362.9264813253921,252.98580224767608 362.9264813253921,207.35431708822068 391.44615955005173,199.12139513811633 391.44615955005173,244.75288029757172" />
  <polygon fill="hsl(360.0,50.0%,50.11143025347155%)" points="468.97506988784124,444.8662541886606 468.97506988784124,405.6916241792682 475.81979266175955,403.7157229112431 475.81979266175955,442.89035292063556" />
  <polygon fill="hsl(360.0,50.0%,50.11143025347155%)" points="486.086876822637,439.92650101859806 486.086876822637,400.75187100920556 479.2421540487187,402.72777227723066 479.2421540487187,441.9024022866231" />
  <polygon fill="hsl(360.0,50.0%,50.11143025347155%)" points="462.13034711392294,408.0553930711486 462.13034711392294,369.2686306856116 468.11947954110144,367.53971707608963 468.11947954110144,406.3264794616267" />
  <polygon fill="hsl(360.0,50.0%,50.11143025347155%)" points="486.9424671693768,400.89275097455777 486.9424671693768,362.10598858902074 492.9315995965553,360.37707497949884 492.9315995965553,399.1638373650359" />
  <polygon fill="hsl(360.0,50.0%,50.11143025347155%)" points="468.11947954110144,373.52884950326813 468.11947954110144,367.53971707608963 486.9424671693768,362.10598858902074 486.9424671693768,368.09512101619924" />
  <polygon fill="hsl(360.0,50.0%,50.11143025347155%)" points="468.97506988784124,406.0794918031236 468.97506988784124,367.2927294175865 486.086876822637,362.3529762475239 486.086876822637,401.1397386330609" />
  <polygon fill="hsl(360.0,50.0%,50.11143025347155%)" points="473.2530216215402,364.118453005794 473.2530216215402,346.6644099323023 481.80892508893805,344.194533347271 481.8089250889381,361.64857642076265" />
  <polygon fill="hsl(360.0,50.0%,50.11143025347155%)" points="474.96420231501975,365.5638158080646 474.96420231501975,346.170434615296 480.0977443954585,344.68850866427726 480.0977443954585,364.0818898570458" />
</svg>
