<?xml version="1.0" encoding="UTF-8"?>
<svg
  xmlns="http://www.w3.org/2000/svg"
  width="848"
  height="600"
  style="background-color:white"
>
  <polygon fill="lightblue" points="425.1821944028227,546.8292744853646 194.66037979990037,347.1915269127473 422.8178055971773,281.3281513119123 653.3396202000996,480.9658988845297" />
  <polygon fill="steelblue" points="194.66037979990037,347.1915269127473 194.66037979990037,119.03410111547032 422.8178055971773,53.170725514635336 422.8178055971773,281.3281513119123" />
  <polygon fill="lightskyblue" points="653.3396202000996,480.9658988845297 653.3396202000996,252.8084730872527 422.8178055971773,53.170725514635336 422.8178055971773,281.3281513119123" />
  <polygon fill="white" points="547.9582192387637,389.7029285656189 547.9582192387637,275.6242156669804 528.1992065585132,258.5124087321846 528.1992065585132,372.59112163082307" />
  <polygon fill="white" points="226.03202584702595,292.50382760817706 226.03202584702595,246.8723424487217 254.55170407168555,238.6394204986173 254.55170407168555,284.2709056580727" />
  <polygon fill="white" points="271.6635110064814,279.3311524880101 271.6635110064813,233.6996673285547 300.18318923114094,225.46674537845033 300.18318923114094,271.0982305379057" />
  <polygon fill="white" points="317.2949961659367,266.1584773678431 317.2949961659367,220.5269922083877 345.81467439059634,212.29407025828334 345.81467439059634,257.9255554177387" />
  <polygon fill="white" points="362.9264813253921,252.98580224767608 362.9264813253921,207.35431708822068 391.44615955005173,199.12139513811633 391.44615955005173,244.75288029757172" />
  <polygon fill="hsl(324.0,50.0%,73.07460395039482%)" points="383.2178731660627,347.373790522193 383.2178731660627,308.1991605128006 390.062595939981,306.22325924477553 390.062595939981,345.397889254168" />
  <polygon fill="hsl(324.0,50.0%,73.07460395039482%)" points="400.32968010085847,342.4340373521304 400.32968010085847,303.259407342738 393.48495732694016,305.235308610763 393.48495732694016,344.40993862015546" />
  <polygon fill="hsl(324.0,50.0%,73.07460395039482%)" points="376.3731503921444,310.562929404681 376.3731503921444,271.77616701914394 382.3622828193229,270.047253409622 382.3622828193229,308.8340157951591" />
  <polygon fill="hsl(324.0,50.0%,73.07460395039482%)" points="401.1852704475982,303.4002873080902 401.1852704475982,264.6135249225531 407.1744028747768,262.8846113130312 407.1744028747768,301.6713736985683" />
  <polygon fill="hsl(324.0,50.0%,73.07460395039482%)" points="382.3622828193229,276.03638583680055 382.3622828193229,270.047253409622 401.1852704475982,264.6135249225531 401.1852704475982,270.60265734973166" />
  <polygon fill="hsl(324.0,50.0%,73.07460395039482%)" points="383.2178731660627,308.58702813665593 383.2178731660627,269.8002657511189 400.32968010085847,264.86051258105624 400.32968010085847,303.64727496659333" />
  <polygon fill="hsl(324.0,50.0%,73.07460395039482%)" points="387.4958248997616,266.6259893393264 387.4958248997616,249.1719462658347 396.0517283671595,246.70206968080336 396.0517283671595,264.15611275429507" />
  <polygon fill="hsl(324.0,50.0%,73.07460395039482%)" points="389.2070055932412,268.07135214159695 389.2070055932412,248.67797094882843 394.3405476736799,247.19604499780962 394.3405476736799,266.58942619057814" />
  <polygon fill="hsl(324.0,50.0%,50.11143025347155%)" points="468.97506988784124,444.8662541886606 468.97506988784124,405.6916241792682 475.81979266175955,403.7157229112431 475.81979266175955,442.89035292063556" />
  <polygon fill="hsl(324.0,50.0%,50.11143025347155%)" points="486.086876822637,439.92650101859806 486.086876822637,400.75187100920556 479.2421540487187,402.72777227723066 479.2421540487187,441.9024022866231" />
  <polygon fill="hsl(324.0,50.0%,50.11143025347155%)" points="462.13034711392294,408.0553930711486 462.13034711392294,369.2686306856116 468.11947954110144,367.53971707608963 468.11947954110144,406.3264794616267" />
  <polygon fill="hsl(324.0,50.0%,50.11143025347155%)" points="486.9424671693768,400.89275097455777 486.9424671693768,362.10598858902074 492.9315995965553,360.37707497949884 492.9315995965553,399.1638373650359" />
  <polygon fill="hsl(324.0,50.0%,50.11143025347155%)" points="468.11947954110144,373.52884950326813 468.11947954110144,367.53971707608963 486.9424671693768,362.10598858902074 486.9424671693768,368.09512101619924" />
  <polygon fill="hsl(324.0,50.0%,50.11143025347155%)" points="468.97506988784124,406.0794918031236 468.97506988784124,367.2927294175865 486.086876822637,362.3529762475239 486.086876822637,401.1397386330609" />
  <polygon fill="hsl(324.0,50.0%,50.11143025347155%)" points="473.2530216215402,364.118453005794 473.2530216215402,346.6644099323023 481.80892508893805,344.194533347271 481.8089250889381,361.64857642076265" />
  <polygon fill="hsl(324.0,50.0%,50.11143025347155%)" points="474.96420231501975,365.5638158080646 474.96420231501975,346.170434615296 480.0977443954585,344.68850866427726 480.0977443954585,364.0818898570458" />
  <polygon fill="hsl(324.0,50.0%,41.06646317363794%)" points="442.6867517913662,500.6074874117374 442.6867517913662,461.4328574023449 449.5314745652845,459.45695613431985 449.5314745652845,498.6315861437123" />
  <polygon fill="hsl(324.0,50.0%,41.06646317363794%)" points="459.79855872616196,495.66773424167474 459.79855872616196,456.49310423228223 452.95383595224365,458.46900550030733 452.95383595224365,497.6436355096998" />
  <polygon fill="hsl(324.0,50.0%,41.06646317363794%)" points="435.8420290174479,463.79662629422535 435.8420290174479,425.00986390868826 441.8311614446264,423.2809502991663 441.8311614446264,462.0677126847034" />
  <polygon fill="hsl(324.0,50.0%,41.06646317363794%)" points="460.65414907290176,456.6339841976345 460.6541490729017,417.8472218120975 466.64328150008026,416.1183082025755 466.64328150008026,454.9050705881126" />
  <polygon fill="hsl(324.0,50.0%,41.06646317363794%)" points="441.8311614446264,429.27008272634487 441.8311614446264,423.2809502991663 460.6541490729017,417.8472218120975 460.6541490729017,423.836354239276" />
  <polygon fill="hsl(324.0,50.0%,41.06646317363794%)" points="442.6867517913662,461.8207250262003 442.6867517913662,423.03396264066316 459.79855872616196,418.09420947060056 459.79855872616196,456.88097185613765" />
  <polygon fill="hsl(324.0,50.0%,41.06646317363794%)" points="446.96470352506515,419.8596862288707 446.96470352506515,402.40564315537904 455.520606992463,399.9357665703477 455.520606992463,417.3898096438394" />
  <polygon fill="hsl(324.0,50.0%,41.06646317363794%)" points="448.6758842185447,421.30504903114127 448.6758842185447,401.91166783837275 453.8094262989834,400.429741887354 453.8094262989834,419.8231230801225" />
</svg>
