<?xml version="1.0" encoding="UTF-8"?>
<svg
  xmlns="http://www.w3.org/2000/svg"
  width="848"
  height="600"
  style="background-color:white"
>
  <polygon fill="lightblue" points="425.4894716131842,539.1203127914362 135.05018493499904,287.59251227109655 422.5105283868158,204.60985893447216 712.949815065001,456.13765945481185" />
  <polygon fill="steelblue" points="135.05018493499904,287.59251227109655 135.05018493499904,143.86234054518815 422.5105283868158,60.87968720856378 422.5105283868158,204.60985893447216" />
  <polygon fill="lightskyblue" points="712.949815065001,456.13765945481185 712.949815065001,312.40748772890345 422.5105283868158,60.87968720856378 422.5105283868158,204.60985893447216" />
  <polygon fill="white" points="174.57598215962386,218.69032874694733 174.57598215962386,161.19826005658396 210.50852509110092,150.82542838950593 210.50852509110092,208.31749707986927" />
  <polygon fill="white" points="232.06805084998717,202.09379807962245 232.06805084998717,144.6017293892591 268.0005937814643,134.22889772218105 268.0005937814643,191.7209664125444" />
  <polygon fill="white" points="289.56011954035057,185.49726741229756 289.56011954035057,128.00519872193425 325.49266247182766,117.63236705485616 325.49266247182766,175.12443574521953" />
  <polygon fill="white" points="347.0521882307139,168.90073674497268 347.0521882307139,111.40866805460936 382.984731162191,101.0358363875313 382.984731162191,158.52790507789464" />
  <polygon fill="hsl(324.0,50.0%,50.11143025347155%)" points="480.66503727218424,410.6549572087607 480.66503727218424,361.29801623808373 489.2888475757387,358.808536637985 489.2888475757387,408.16547760866194" />
  <polygon fill="hsl(324.0,50.0%,50.11143025347155%)" points="502.2245630310705,404.4312582085139 502.2245630310705,355.0743172378369 493.60075272751595,357.5637968379357 493.60075272751595,406.9207378086126" />
  <polygon fill="hsl(324.0,50.0%,50.11143025347155%)" points="472.0412269686297,364.2761784220506 472.0412269686297,315.4079200352417 479.5870609842399,313.2296253851553 479.5870609842399,362.0978837719642" />
  <polygon fill="hsl(324.0,50.0%,50.11143025347155%)" points="503.3025393190148,355.25181487169266 503.3025393190148,306.3835564848838 510.84837333462497,304.20526183479745 510.84837333462497,353.07352022160626" />
  <polygon fill="hsl(324.0,50.0%,50.11143025347155%)" points="479.5870609842399,320.7754594007655 479.5870609842399,313.2296253851553 503.3025393190148,306.3835564848838 503.3025393190148,313.929390500494" />
  <polygon fill="hsl(324.0,50.0%,50.11143025347155%)" points="480.66503727218424,361.78669882195186 480.66503727218424,312.918440435143 502.2245630310705,306.6947414348962 502.2245630310705,355.56299982170503" />
  <polygon fill="hsl(324.0,50.0%,50.11143025347155%)" points="486.05491871190577,308.91910276574083 486.05491871190577,286.92838649167686 496.83468159134895,283.81653699155345 496.83468159134895,305.8072532656174" />
  <polygon fill="hsl(324.0,50.0%,50.11143025347155%)" points="488.2108712877944,310.7401457850566 488.2108712877944,286.30601659165217 494.67872901546025,284.43890689157814 494.6787290154603,308.8730360849826" />
</svg>
