<?xml version="1.0" encoding="UTF-8"?>
<svg
  xmlns="http://www.w3.org/2000/svg"
  width="848"
  height="600"
  style="background-color:white"
>
  <polygon fill="lightblue" points="425.4894716131842,539.1203127914362 135.05018493499904,287.59251227109655 422.5105283868158,204.60985893447216 712.949815065001,456.13765945481185" />
  <polygon fill="steelblue" points="135.05018493499904,287.59251227109655 135.05018493499904,143.86234054518815 422.5105283868158,60.87968720856378 422.5105283868158,204.60985893447216" />
  <polygon fill="lightskyblue" points="712.949815065001,456.13765945481185 712.949815065001,312.40748772890345 422.5105283868158,60.87968720856378 422.5105283868158,204.60985893447216" />
  <polygon fill="white" points="580.177569726402,341.1535220740851 580.177569726402,197.42335034817677 555.2827737254147,175.86382458929052 555.2827737254147,319.59399631519886" />
  <polygon fill="white" points="260.8140851951689,193.79553274596003 260.8140851951689,136.30346405559666 296.74662812664593,125.9306323885186 296.74662812664593,183.42270107888197" />
  <polygon fill="hsl(360.0,50.0%,50.11143025347155%)" points="480.66503727218424,410.6549572087607 480.66503727218424,361.29801623808373 489.2888475757387,358.808536637985 489.2888475757387,408.16547760866194" />
  <polygon fill="hsl(360.0,50.0%,50.11143025347155%)" points="502.2245630310705,404.4312582085139 502.2245630310705,355.0743172378369 493.60075272751595,357.5637968379357 493.60075272751595,406.9207378086126" />
  <polygon fill="hsl(360.0,50.0%,50.11143025347155%)" points="472.0412269686297,364.2761784220506 472.0412269686297,315.4079200352417 479.5870609842399,313.2296253851553 479.5870609842399,362.0978837719642" />
  <polygon fill="hsl(360.0,50.0%,50.11143025347155%)" points="503.3025393190148,355.25181487169266 503.3025393190148,306.3835564848838 510.84837333462497,304.20526183479745 510.84837333462497,353.07352022160626" />
  <polygon fill="hsl(360.0,50.0%,50.11143025347155%)" points="479.5870609842399,320.7754594007655 479.5870609842399,313.2296253851553 503.3025393190148,306.3835564848838 503.3025393190148,313.929390500494" />
  <polygon fill="hsl(360.0,50.0%,50.11143025347155%)" points="480.66503727218424,361.78669882195186 480.66503727218424,312.918440435143 502.2245630310705,306.6947414348962 502.2245630310705,355.56299982170503" />
  <polygon fill="hsl(360.0,50.0%,50.11143025347155%)" points="486.05491871190577,308.91910276574083 486.05491871190577,286.92838649167686 496.83468159134895,283.81653699155345 496.83468159134895,305.8072532656174" />
  <polygon fill="hsl(360.0,50.0%,50.11143025347155%)" points="488.2108712877944,310.7401457850566 488.2108712877944,286.30601659165217 494.67872901546025,284.43890689157814 494.6787290154603,308.8730360849826" />
  <polygon fill="hsl(360.0,50.0%,41.06646317363794%)" points="447.54383193610295,480.8845102936145 447.54383193610295,431.52756932293755 456.1676422396575,429.0380897228388 456.1676422396575,478.39503069351576" />
  <polygon fill="hsl(360.0,50.0%,41.06646317363794%)" points="469.1033576949892,474.66081129336766 469.1033576949892,425.3038703226907 460.4795473914347,427.79334992278945 460.4795473914347,477.1502908934664" />
  <polygon fill="hsl(360.0,50.0%,41.06646317363794%)" points="438.92002163254847,434.50573150690434 438.92002163254847,385.6374731200955 446.46585564815865,383.45917847000914 446.46585564815865,432.32743685681794" />
  <polygon fill="hsl(360.0,50.0%,41.06646317363794%)" points="470.18133398293355,425.4813679565465 470.18133398293355,376.6131095697376 477.72716799854373,374.4348149196512 477.72716799854373,423.3030733064601" />
  <polygon fill="hsl(360.0,50.0%,41.06646317363794%)" points="446.46585564815865,391.0050124856193 446.46585564815865,383.45917847000914 470.18133398293355,376.6131095697376 470.18133398293355,384.1589435853478" />
  <polygon fill="hsl(360.0,50.0%,41.06646317363794%)" points="447.54383193610295,432.0162519068056 447.54383193610295,383.1479935199968 469.1033576949892,376.92429451974994 469.1033576949892,425.7925529065588" />
  <polygon fill="hsl(360.0,50.0%,41.06646317363794%)" points="452.93371337582454,379.14865585059465 452.93371337582454,357.1579395765307 463.71347625526766,354.04609007640727 463.71347625526766,376.03680635047124" />
  <polygon fill="hsl(360.0,50.0%,41.06646317363794%)" points="455.0896659517132,380.9696988699104 455.0896659517132,356.535569676506 461.557523679379,354.6684599764319 461.557523679379,379.10258916983634" />
</svg>
