<?xml version="1.0" encoding="UTF-8"?>
<svg
  xmlns="http://www.w3.org/2000/svg"
  width="848"
  height="600"
  style="background-color:white"
>
  <polygon fill="lightblue" points="425.1821944028227,546.8292744853646 194.66037979990037,347.1915269127473 422.8178055971773,281.3281513119123 653.3396202000996,480.9658988845297" />
  <polygon fill="steelblue" points="194.66037979990037,347.1915269127473 194.66037979990037,119.03410111547032 422.8178055971773,53.170725514635336 422.8178055971773,281.3281513119123" />
  <polygon fill="lightskyblue" points="653.3396202000996,480.9658988845297 653.3396202000996,252.8084730872527 422.8178055971773,53.170725514635336 422.8178055971773,281.3281513119123" />
  <polygon fill="white" points="256.45301595332955,283.7220441947324 256.45301595332955,238.090559035277 284.9726941779892,229.85763708517266 284.9726941779892,275.48912224462805" />
  <polygon fill="white" points="332.5054912190885,261.76758566112073 332.5054912190885,216.13610050166537 361.0251694437481,207.90317855156098 361.0251694437481,253.53466371101638" />
  <polygon fill="grey" points="410.76397127272645,115.59103609159303 410.76397127272645,87.0713578669334 439.283649497386,78.83843591682904 439.283649497386,107.35811414148864" />
  <polygon fill="lightgrey" points="410.76397127272645,115.59103609159303 410.76397127272645,87.0713578669334 394.2981273725177,72.81151875460358 394.2981273725177,101.33119697926321" />
  <polygon fill="darkgrey" points="410.76397127272645,87.0713578669334 394.2981273725177,72.81151875460358 422.8178055971773,64.57859680449923 439.283649497386,78.83843591682904" />
  <polygon fill="hsl(360.0,50.0%,50.11143025347155%)" points="468.97506988784124,444.8662541886606 468.97506988784124,405.6916241792682 475.81979266175955,403.7157229112431 475.81979266175955,442.89035292063556" />
  <polygon fill="hsl(360.0,50.0%,50.11143025347155%)" points="486.086876822637,439.92650101859806 486.086876822637,400.75187100920556 479.2421540487187,402.72777227723066 479.2421540487187,441.9024022866231" />
  <polygon fill="hsl(360.0,50.0%,50.11143025347155%)" points="462.13034711392294,408.0553930711486 462.13034711392294,369.2686306856116 468.11947954110144,367.53971707608963 468.11947954110144,406.3264794616267" />
  <polygon fill="hsl(360.0,50.0%,50.11143025347155%)" points="486.9424671693768,400.89275097455777 486.9424671693768,362.10598858902074 492.9315995965553,360.37707497949884 492.9315995965553,399.1638373650359" />
  <polygon fill="hsl(360.0,50.0%,50.11143025347155%)" points="468.11947954110144,373.52884950326813 468.11947954110144,367.53971707608963 486.9424671693768,362.10598858902074 486.9424671693768,368.09512101619924" />
  <polygon fill="hsl(360.0,50.0%,50.11143025347155%)" points="468.97506988784124,406.0794918031236 468.97506988784124,367.2927294175865 486.086876822637,362.3529762475239 486.086876822637,401.1397386330609" />
  <polygon fill="hsl(360.0,50.0%,50.11143025347155%)" points="473.2530216215402,364.118453005794 473.2530216215402,346.6644099323023 481.80892508893805,344.194533347271 481.8089250889381,361.64857642076265" />
  <polygon fill="hsl(360.0,50.0%,50.11143025347155%)" points="474.96420231501975,365.5638158080646 474.96420231501975,346.170434615296 480.0977443954585,344.68850866427726 480.0977443954585,364.0818898570458" />
</svg>
