<?xml version="1.0" encoding="UTF-8"?>
<svg
  xmlns="http://www.w3.org/2000/svg"
  width="848"
  height="600"
  style="background-color:white"
>
  <polygon fill="lightblue" points="315.5623485264038,530.3962843180211 200.61593366737085,430.8497689761534 532.4376514735961,335.06108992695926 647.3840663326291,434.6076052688269" />
  <polygon fill="steelblue" points="200.61593366737085,430.8497689761534 200.61593366737085,165.39239473117314 532.4376514735961,69.60371568197894 532.4376514735961,335.06108992695926" />
  <polygon fill="lightskyblue" points="647.3840663326291,434.6076052688269 647.3840663326291,169.15023102384657 532.4376514735961,69.60371568197894 532.4376514735961,335.06108992695926" />
  <polygon fill="white" points="582.2477645791771,378.19791324176856 582.2477645791771,245.4692261192784 559.2584816073705,225.5599230509049 559.2584816073705,358.28861017339506" />
  <polygon fill="white" points="620.5632361988548,411.3800850223911 620.5632361988548,278.6513978999009 597.5739532270482,258.7420948315274 597.5739532270482,391.4707819540176" />
  <polygon fill="white" points="294.63208704580137,350.61816839655233 294.63208704580137,297.5266935475563 327.8142588264239,287.9478256426369 327.8142588264239,341.0393004916329" />
  <polygon fill="white" points="405.2393263145432,318.6886087134876 405.2393263145432,265.5971338644916 438.4214980951657,256.01826595957215 438.4214980951657,309.1097408085682" />
  <polygon fill="hsl(360.0,50.0%,66.3472556462705%)" points="494.6129486915339,391.0709369088694 494.6129486915339,345.49190575100624 502.57666991888334,343.19297745382556 502.57666991888334,388.7720086116887" />
  <polygon fill="hsl(360.0,50.0%,66.3472556462705%)" points="514.5222517599075,385.3236161659177 514.5222517599075,339.74458500805457 506.55853053255805,342.04351330523525 506.55853053255805,387.6225444630984" />
  <polygon fill="hsl(360.0,50.0%,66.3472556462705%)" points="486.6492274641845,348.24211158440335 486.6492274641845,303.11435796275674 493.6174835381152,301.10279570272365 493.6174835381152,346.23054932437026" />
  <polygon fill="hsl(360.0,50.0%,66.3472556462705%)" points="515.5177169133261,339.90849650712346 515.5177169133261,294.78074288547685 522.4859729872569,292.76918062544377 522.4859729872569,337.89693424709037" />
  <polygon fill="hsl(360.0,50.0%,66.3472556462705%)" points="493.6174835381152,308.0710517766544 493.6174835381152,301.10279570272365 515.5177169133261,294.78074288547685 515.5177169133261,301.7489989594076" />
  <polygon fill="hsl(360.0,50.0%,66.3472556462705%)" points="494.6129486915339,345.9431832872227 494.6129486915339,300.81542966557606 514.5222517599075,295.0681089226244 514.5222517599075,340.19586254427105" />
  <polygon fill="hsl(360.0,50.0%,66.3472556462705%)" points="499.5902744586273,297.1222117987558 499.5902744586273,276.8147226690148 509.54492599281406,273.941062297539 509.54492599281406,294.24855142728" />
  <polygon fill="hsl(360.0,50.0%,66.3472556462705%)" points="501.58120476546463,298.803867405543 501.58120476546463,276.23999059471964 507.5539956859767,274.5157943718342 507.5539956859767,297.0796711826575" />
  <polygon fill="hsl(360.0,50.0%,54.496445229397835%)" points="450.13419651745284,435.36969683871234 450.13419651745284,389.7906656808492 458.09791774480226,387.4917373836685 458.09791774480226,433.07076854153166" />
  <polygon fill="hsl(360.0,50.0%,54.496445229397835%)" points="470.04349958582634,429.62237609576067 470.04349958582634,384.04334493789753 462.079778358477,386.3422732350782 462.079778358477,431.92130439294135" />
  <polygon fill="hsl(360.0,50.0%,54.496445229397835%)" points="442.17047529010347,392.5408715142463 442.17047529010347,347.4131178925997 449.1387313640342,345.4015556325666 449.1387313640342,390.5293092542132" />
  <polygon fill="hsl(360.0,50.0%,54.496445229397835%)" points="471.03896473924505,384.2072564369664 471.03896473924505,339.07950281531976 478.00722081317576,337.0679405552867 478.00722081317576,382.19569417693333" />
  <polygon fill="hsl(360.0,50.0%,54.496445229397835%)" points="449.1387313640342,352.36981170649733 449.1387313640342,345.4015556325666 471.03896473924505,339.07950281531976 471.03896473924505,346.04775888925053" />
  <polygon fill="hsl(360.0,50.0%,54.496445229397835%)" points="450.13419651745284,390.2419432170657 450.13419651745284,345.114189595419 470.04349958582634,339.36686885246735 470.04349958582634,384.494622474114" />
  <polygon fill="hsl(360.0,50.0%,54.496445229397835%)" points="455.1115222845462,341.4209717285988 455.1115222845462,321.1134825988578 465.066173818733,318.239822227382 465.066173818733,338.54731135712296" />
  <polygon fill="hsl(360.0,50.0%,54.496445229397835%)" points="457.10245259138355,343.10262733538593 457.10245259138355,320.5387505245626 463.0752435118956,318.81455430167716 463.0752435118956,341.37843111250044" />
  <polygon fill="hsl(360.0,50.0%,50.27546059214215%)" points="341.1808478420003,478.02673441749715 341.1808478420003,432.447703259634 349.1445690693497,430.14877496245333 349.1445690693497,475.7278061203165" />
  <polygon fill="hsl(360.0,50.0%,50.27546059214215%)" points="361.09015091037384,472.2794136745455 361.09015091037384,426.70038251668234 353.1264296830244,428.999310813863 353.1264296830244,474.5783419717261" />
  <polygon fill="hsl(360.0,50.0%,50.27546059214215%)" points="333.21712661465085,435.1979090930311 333.21712661465085,390.0701554713845 340.1853826885816,388.0585932113514 340.1853826885816,433.1863468329981" />
  <polygon fill="hsl(360.0,50.0%,50.27546059214215%)" points="362.0856160637925,426.8642940157512 362.0856160637925,381.7365403941046 369.0538721377232,379.72497813407153 369.05387213772326,424.8527317557182" />
  <polygon fill="hsl(360.0,50.0%,50.27546059214215%)" points="340.1853826885816,395.02684928528214 340.1853826885816,388.0585932113514 362.0856160637925,381.7365403941046 362.0856160637925,388.70479646803534" />
  <polygon fill="hsl(360.0,50.0%,50.27546059214215%)" points="341.1808478420003,432.89898079585043 341.1808478420003,387.77122717420383 361.09015091037384,382.02390643125216 361.09015091037384,427.1516600528988" />
  <polygon fill="hsl(360.0,50.0%,50.27546059214215%)" points="346.1581736090937,384.0780093073836 346.1581736090937,363.7705201776426 356.1128251432805,360.8968598061668 356.1128251432805,381.2043489359078" />
  <polygon fill="hsl(360.0,50.0%,50.27546059214215%)" points="348.14910391593105,385.75966491417074 348.14910391593105,363.19578810334747 354.12189483644306,361.4715918804619 354.12189483644306,384.03546869128525" />
</svg>
