<?xml version="1.0" encoding="UTF-8"?>
<svg
  xmlns="http://www.w3.org/2000/svg"
  width="848"
  height="600"
  style="background-color:white"
>
  <polygon fill="lightblue" points="323.3354015553923,544.684563721672 216.6286024206904,452.27376491449684 524.6645984446077,363.35143230224526 631.3713975793096,455.76223110942044" />
  <polygon fill="steelblue" points="216.6286024206904,452.27376491449684 216.6286024206904,144.23776889057953 524.6645984446077,55.31543627832795 524.6645984446077,363.35143230224526" />
  <polygon fill="lightskyblue" points="631.3713975793096,455.76223110942044 631.3713975793096,147.72623508550316 524.6645984446077,55.31543627832795 524.6645984446077,363.35143230224526" />
  <polygon fill="white" points="570.9042114029785,403.3961117853545 570.9042114029785,280.1817133757876 549.5628515760382,261.69955361435257 549.5628515760382,384.9139520239195" />
  <polygon fill="white" points="606.4731444478791,434.1997113877462 606.4731444478791,310.9853129781793 585.1317846209388,292.5031532167443 585.1317846209388,415.7175516263112" />
  <polygon fill="white" points="278.23580162547387,385.2035390282198 278.23580162547387,335.917779664393 309.0394012278656,327.0255464031678 309.0394012278656,376.3113057669946" />
  <polygon fill="white" points="355.2448006314532,362.97295587515686 355.2448006314532,313.6871965113301 386.0484002338449,304.79496325010496 386.0484002338449,354.0807226139317" />
  <polygon fill="white" points="432.2537996374325,340.742372722094 432.2537996374325,291.4566133582672 463.05739923982424,282.56438009704203 463.05739923982424,331.8501394608688" />
  <polygon fill="hsl(360.0,50.0%,54.496445229397835%)" points="448.2608389461702,456.46969425361465 448.2608389461702,414.1578698397693 455.65370285074425,412.0237338570753 455.65370285074425,454.33555827092056" />
  <polygon fill="hsl(360.0,50.0%,54.496445229397835%)" points="466.74299870760524,451.1343542968795 466.74299870760524,408.82252988303424 459.35013480303127,410.95666586572827 459.35013480303127,453.2684902795736" />
  <polygon fill="hsl(360.0,50.0%,54.496445229397835%)" points="440.8679750415962,416.71093477705585 440.8679750415962,374.81803931780314 447.3367309580985,372.95067033294583 447.3367309580985,414.8435657921986" />
  <polygon fill="hsl(360.0,50.0%,54.496445229397835%)" points="467.66710669567703,408.97469183979 467.66710669567703,367.08179638053724 474.13586261217927,365.21442739567993 474.13586261217927,407.1073228549327" />
  <polygon fill="hsl(360.0,50.0%,54.496445229397835%)" points="447.3367309580985,379.4194262494481 447.3367309580985,372.95067033294583 467.66710669567703,367.08179638053724 467.66710669567703,373.55055229703953" />
  <polygon fill="hsl(360.0,50.0%,54.496445229397835%)" points="448.2608389461702,414.5767987943618 448.2608389461702,372.6839033351091 466.74299870760524,367.348563378374 466.74299870760524,409.24145883762674" />
  <polygon fill="hsl(360.0,50.0%,54.496445229397835%)" points="452.881378886529,369.2554235729627 452.881378886529,350.40362061629895 462.12245876724654,347.7359506379314 462.12245876724654,366.58775359459514" />
  <polygon fill="hsl(360.0,50.0%,54.496445229397835%)" points="454.7295948626725,370.8165343502518 454.7295948626725,349.87008662062544 460.274242791103,348.2694846336049 460.274242791103,369.2159323632313" />
  <polygon fill="hsl(360.0,50.0%,50.27546059214215%)" points="347.11750962683016,496.0689801137523 347.11750962683016,453.757155699907 354.5103735314042,451.62301971721297 354.5103735314042,493.9348441310582" />
  <polygon fill="hsl(360.0,50.0%,50.27546059214215%)" points="365.5996693882652,490.73364015701713 365.59966938826517,448.4218157431719 358.2068054836912,450.55595172586595 358.2068054836912,492.8677761397112" />
  <polygon fill="hsl(360.0,50.0%,50.27546059214215%)" points="339.7246457222561,456.31022063719354 339.7246457222561,414.41732517794077 346.1934016387584,412.5499561930835 346.1934016387584,454.44285165233623" />
  <polygon fill="hsl(360.0,50.0%,50.27546059214215%)" points="366.52377737633697,448.5739776999277 366.52377737633697,406.6810822406749 372.9925332928392,404.8137132558176 372.9925332928392,446.7066087150704" />
  <polygon fill="hsl(360.0,50.0%,50.27546059214215%)" points="346.1934016387584,419.01871210958575 346.1934016387584,412.5499561930835 366.52377737633697,406.6810822406749 366.52377737633697,413.14983815717716" />
  <polygon fill="hsl(360.0,50.0%,50.27546059214215%)" points="347.11750962683016,454.1760846544995 347.11750962683016,412.28318919524673 365.59966938826517,406.94784923851165 365.59966938826517,448.8407446977644" />
  <polygon fill="hsl(360.0,50.0%,50.27546059214215%)" points="351.7380495671889,408.8547094331003 351.7380495671889,390.00290647643664 360.9791294479065,387.3352364980691 360.9791294479065,406.1870394547328" />
  <polygon fill="hsl(360.0,50.0%,50.27546059214215%)" points="353.58626554333244,410.4158202103895 353.58626554333244,389.4693724807631 359.13091347176294,387.86877049374255 359.13091347176294,408.81521822336896" />
</svg>
