<?xml version="1.0" encoding="UTF-8"?>
<svg
  xmlns="http://www.w3.org/2000/svg"
  width="848"
  height="600"
  style="background-color:white"
>
  <polygon fill="lightblue" points="315.5623485264038,530.3962843180211 200.61593366737085,430.8497689761534 532.4376514735961,335.06108992695926 647.3840663326291,434.6076052688269" />
  <polygon fill="steelblue" points="200.61593366737085,430.8497689761534 200.61593366737085,165.39239473117314 532.4376514735961,69.60371568197894 532.4376514735961,335.06108992695926" />
  <polygon fill="lightskyblue" points="647.3840663326291,434.6076052688269 647.3840663326291,169.15023102384657 532.4376514735961,69.60371568197894 532.4376514735961,335.06108992695926" />
  <polygon fill="white" points="601.405500389016,394.7889991320798 601.405500389016,262.06031200958967 578.4162174172094,242.15100894121616 578.4162174172094,374.8796960637063" />
  <polygon fill="white" points="250.38919133830467,363.38999226977825 250.38919133830467,310.29851742078216 283.5713631189272,300.7196495158627 283.5713631189272,353.8111243648588" />
  <polygon fill="white" points="316.7535348995497,344.2322564599394 316.7535348995497,291.14078161094335 349.93570668017225,281.5619137060239 349.93570668017225,334.65338855502" />
  <polygon fill="white" points="383.11787846079477,325.07452065010057 383.11787846079477,271.9830458011045 416.30005024141735,262.4041778961851 416.30005024141735,315.49565274518113" />
  <polygon fill="white" points="449.4822220220399,305.91678484026176 449.4822220220399,252.82530999126567 482.6643938026624,243.24644208634624 482.6643938026624,296.3379169353423" />
  <polygon fill="grey" points="518.4132155028125,142.2287099700812 518.4132155028125,109.04653818945869 551.595387283435,99.46767028453928 551.595387283435,132.6498420651618" />
  <polygon fill="lightgrey" points="518.4132155028125,142.2287099700812 518.4132155028125,109.04653818945869 499.25547969297367,92.4554522991474 499.25547969297367,125.63762407976992" />
  <polygon fill="darkgrey" points="518.4132155028125,109.04653818945869 499.25547969297367,92.4554522991474 532.4376514735961,82.87658439422799 551.595387283435,99.46767028453928" />
  <polygon fill="hsl(288.0,50.0%,54.496445229397835%)" points="450.13419651745284,435.36969683871234 450.13419651745284,389.7906656808492 458.09791774480226,387.4917373836685 458.09791774480226,433.07076854153166" />
  <polygon fill="hsl(288.0,50.0%,54.496445229397835%)" points="470.04349958582634,429.62237609576067 470.04349958582634,384.04334493789753 462.079778358477,386.3422732350782 462.079778358477,431.92130439294135" />
  <polygon fill="hsl(288.0,50.0%,54.496445229397835%)" points="442.17047529010347,392.5408715142463 442.17047529010347,347.4131178925997 449.1387313640342,345.4015556325666 449.1387313640342,390.5293092542132" />
  <polygon fill="hsl(288.0,50.0%,54.496445229397835%)" points="471.03896473924505,384.2072564369664 471.03896473924505,339.07950281531976 478.00722081317576,337.0679405552867 478.00722081317576,382.19569417693333" />
  <polygon fill="hsl(288.0,50.0%,54.496445229397835%)" points="449.1387313640342,352.36981170649733 449.1387313640342,345.4015556325666 471.03896473924505,339.07950281531976 471.03896473924505,346.04775888925053" />
  <polygon fill="hsl(288.0,50.0%,54.496445229397835%)" points="450.13419651745284,390.2419432170657 450.13419651745284,345.114189595419 470.04349958582634,339.36686885246735 470.04349958582634,384.494622474114" />
  <polygon fill="hsl(288.0,50.0%,54.496445229397835%)" points="455.1115222845462,341.4209717285988 455.1115222845462,321.1134825988578 465.066173818733,318.239822227382 465.066173818733,338.54731135712296" />
  <polygon fill="hsl(288.0,50.0%,54.496445229397835%)" points="457.10245259138355,343.10262733538593 457.10245259138355,320.5387505245626 463.0752435118956,318.81455430167716 463.0752435118956,341.37843111250044" />
</svg>
