<?xml version="1.0" encoding="UTF-8"?>
<svg
  xmlns="http://www.w3.org/2000/svg"
  width="848"
  height="600"
  style="background-color:white"
>
  <polygon fill="lightblue" points="282.49364905389035,643.9582562299425 132.49364905389035,514.0544456622767 565.5063509461097,389.05444566227675 715.5063509461097,518.9582562299425" />
  <polygon fill="steelblue" points="132.49364905389035,514.0544456622767 132.49364905389035,81.04174377005745 565.5063509461097,-43.95825622994255 565.5063509461097,389.05444566227675" />
  <polygon fill="lightskyblue" points="715.5063509461097,518.9582562299425 715.5063509461097,85.94555433772325 565.5063509461097,-43.95825622994255 565.5063509461097,389.05444566227675" />
  <polygon fill="white" points="655.5063509461096,466.99673200287623 655.5063509461096,293.7916512459885 625.5063509461097,267.8108891324553 625.5063509461097,441.01596988934307" />
  <polygon fill="white" points="172.70197137245356,433.1652705023788 172.70197137245356,363.88323819962375 216.0032415616755,351.38323819962375 216.0032415616755,420.6652705023788" />
  <polygon fill="white" points="234.56092878562777,415.30812764523597 234.56092878562777,346.02609534248086 277.86219897484966,333.52609534248086 277.86219897484966,402.80812764523597" />
  <polygon fill="white" points="296.4198861988019,397.45098478809314 296.4198861988019,328.16895248533797 339.72115638802387,315.66895248533797 339.72115638802387,384.95098478809314" />
  <polygon fill="white" points="358.27884361197613,379.59384193095025 358.27884361197613,310.31180962819514 401.5801138011981,297.81180962819514 401.5801138011981,367.09384193095025" />
  <polygon fill="white" points="420.13780102515034,361.73669907380736 420.13780102515034,292.45466677105225 463.4390712143723,279.95466677105225 463.4390712143723,349.23669907380736" />
  <polygon fill="white" points="481.9967584383245,343.8795562166645 481.9967584383245,274.5975239139094 525.2980286275464,262.0975239139094 525.2980286275464,331.3795562166645" />
</svg>
