<?xml version="1.0" encoding="UTF-8"?>
<svg
  xmlns="http://www.w3.org/2000/svg"
  width="848"
  height="600"
  style="background-color:white"
>
  <polygon fill="lightblue" points="282.49364905389035,687.2595264191646 132.49364905389035,557.3557158514986 565.5063509461097,432.35571585149864 715.5063509461097,562.2595264191646" />
  <polygon fill="steelblue" points="132.49364905389035,557.3557158514986 132.49364905389035,37.7404735808355 565.5063509461097,-87.2595264191645 565.5063509461097,432.35571585149864" />
  <polygon fill="lightskyblue" points="715.5063509461097,562.2595264191646 715.5063509461097,42.6442841485013 565.5063509461097,-87.2595264191645 565.5063509461097,432.35571585149864" />
  <polygon fill="white" points="655.5063509461096,510.2980021920981 655.5063509461096,337.0929214352104 625.5063509461097,311.11215932167727 625.5063509461097,484.31724007856496" />
  <polygon fill="white" points="183.0117976079826,473.4903502154103 183.0117976079826,404.20831791265516 226.31306779720455,391.70831791265516 226.31306779720458,460.9903502154103" />
  <polygon fill="white" points="255.18058125668583,452.65701688207696 255.18058125668583,383.37498457932185 298.48185144590775,370.8749845793218 298.48185144590775,440.15701688207696" />
  <polygon fill="white" points="327.34936490538905,431.8236835487436 327.34936490538905,362.5416512459885 370.65063509461095,350.0416512459885 370.650635094611,419.3236835487436" />
  <polygon fill="white" points="399.51814855409225,410.9903502154103 399.51814855409225,341.70831791265516 442.8194187433142,329.20831791265516 442.8194187433142,398.4903502154103" />
  <polygon fill="white" points="471.6869322027955,390.1570168820769 471.6869322027955,320.8749845793218 514.9882023920175,308.3749845793218 514.9882023920175,377.6570168820769" />
</svg>
