<?xml version="1.0" encoding="UTF-8"?>
<svg
  xmlns="http://www.w3.org/2000/svg"
  width="848"
  height="600"
  style="background-color:white"
>
  <polygon fill="lightblue" points="323.3354015553923,544.684563721672 216.6286024206904,452.27376491449684 524.6645984446077,363.35143230224526 631.3713975793096,455.76223110942044" />
  <polygon fill="steelblue" points="216.6286024206904,452.27376491449684 216.6286024206904,144.23776889057953 524.6645984446077,55.31543627832795 524.6645984446077,363.35143230224526" />
  <polygon fill="lightskyblue" points="631.3713975793096,455.76223110942044 631.3713975793096,147.72623508550316 524.6645984446077,55.31543627832795 524.6645984446077,363.35143230224526" />
  <polygon fill="white" points="588.6886779254288,418.79791158655036 588.6886779254288,295.58351317698344 567.3473180984885,277.10135341554843 567.3473180984885,400.31575182511534" />
  <polygon fill="white" points="262.834001824278,389.64965565883233 262.834001824278,340.3638962950056 293.63760142666973,331.47166303378043 293.63760142666973,380.7574223976072" />
  <polygon fill="white" points="324.44120102906146,371.865189136382 324.44120102906146,322.5794297725553 355.2448006314532,313.6871965113301 355.2448006314532,362.97295587515686" />
  <polygon fill="white" points="386.0484002338449,354.0807226139317 386.0484002338449,304.79496325010496 416.85199983623664,295.90272998887974 416.85199983623664,345.18848935270654" />
  <polygon fill="white" points="447.65559943862837,336.2962560914814 447.65559943862837,287.0104967276546 478.4591990410201,278.1182634664294 478.4591990410201,327.4040228302562" />
</svg>
