<?xml version="1.0" encoding="UTF-8"?>
<svg
  xmlns="http://www.w3.org/2000/svg"
  width="848"
  height="600"
  style="background-color:white"
>
  <polygon fill="lightblue" points="323.3354015553923,544.684563721672 216.6286024206904,452.27376491449684 524.6645984446077,363.35143230224526 631.3713975793096,455.76223110942044" />
  <polygon fill="steelblue" points="216.6286024206904,452.27376491449684 216.6286024206904,144.23776889057953 524.6645984446077,55.31543627832795 524.6645984446077,363.35143230224526" />
  <polygon fill="lightskyblue" points="631.3713975793096,455.76223110942044 631.3713975793096,147.72623508550316 524.6645984446077,55.31543627832795 524.6645984446077,363.35143230224526" />
  <polygon fill="white" points="588.6886779254288,418.79791158655036 588.6886779254288,295.58351317698344 567.3473180984885,277.10135341554843 567.3473180984885,400.31575182511534" />
  <polygon fill="grey" points="511.6454653646663,122.73450878409741 511.6454653646663,91.93090918170569 542.449064967058,83.03867592048053 542.449064967058,113.84227552287226" />
  <polygon fill="lightgrey" points="511.6454653646663,122.73450878409741 511.6454653646663,91.93090918170569 493.86099884221596,76.52910938050982 493.86099884221596,107.33270898290152" />
  <polygon fill="darkgrey" points="511.6454653646663,91.93090918170569 493.86099884221596,76.52910938050982 524.6645984446077,67.63687611928466 542.449064967058,83.03867592048053" />
  <polygon fill="hsl(324.0,50.0%,66.3472556462705%)" points="489.5512548310192,415.34636836696416 489.55125483101915,373.0345439531188 496.9441187355932,370.9004079704248 496.94411873559324,413.21223238427007" />
  <polygon fill="hsl(324.0,50.0%,66.3472556462705%)" points="508.0334145924543,410.011028410229 508.0334145924543,367.69920399638374 500.6405506878802,369.8333399790778 500.64055068788025,412.14516439292305" />
  <polygon fill="hsl(324.0,50.0%,66.3472556462705%)" points="482.1583909264452,375.5876088904054 482.1583909264452,333.69471343115265 488.6271468429474,331.82734444629534 488.6271468429474,373.7202399055481" />
  <polygon fill="hsl(324.0,50.0%,66.3472556462705%)" points="508.95752258052596,367.8513659531395 508.95752258052596,325.95847049388675 515.4262784970283,324.0911015090295 515.4262784970283,365.9839969682822" />
  <polygon fill="hsl(324.0,50.0%,66.3472556462705%)" points="488.6271468429474,338.29610036279763 488.6271468429474,331.82734444629534 508.95752258052596,325.95847049388675 508.95752258052596,332.42722641038904" />
  <polygon fill="hsl(324.0,50.0%,66.3472556462705%)" points="489.55125483101915,373.4534729077114 489.55125483101915,331.5605774484586 508.0334145924543,326.22523749172353 508.0334145924543,368.11813295097625" />
  <polygon fill="hsl(324.0,50.0%,66.3472556462705%)" points="494.1717947713779,328.1320976863122 494.1717947713779,309.28029472964846 503.41287465209547,306.6126247512809 503.41287465209547,325.46442770794465" />
  <polygon fill="hsl(324.0,50.0%,66.3472556462705%)" points="496.02001074752144,329.6932084636013 496.02001074752144,308.74676073397495 501.56465867595193,307.1461587469544 501.56465867595193,328.0926064765808" />
  <polygon fill="hsl(324.0,50.0%,54.496445229397835%)" points="448.2608389461702,456.46969425361465 448.2608389461702,414.1578698397693 455.65370285074425,412.0237338570753 455.65370285074425,454.33555827092056" />
  <polygon fill="hsl(324.0,50.0%,54.496445229397835%)" points="466.74299870760524,451.1343542968795 466.74299870760524,408.82252988303424 459.35013480303127,410.95666586572827 459.35013480303127,453.2684902795736" />
  <polygon fill="hsl(324.0,50.0%,54.496445229397835%)" points="440.8679750415962,416.71093477705585 440.8679750415962,374.81803931780314 447.3367309580985,372.95067033294583 447.3367309580985,414.8435657921986" />
  <polygon fill="hsl(324.0,50.0%,54.496445229397835%)" points="467.66710669567703,408.97469183979 467.66710669567703,367.08179638053724 474.13586261217927,365.21442739567993 474.13586261217927,407.1073228549327" />
  <polygon fill="hsl(324.0,50.0%,54.496445229397835%)" points="447.3367309580985,379.4194262494481 447.3367309580985,372.95067033294583 467.66710669567703,367.08179638053724 467.66710669567703,373.55055229703953" />
  <polygon fill="hsl(324.0,50.0%,54.496445229397835%)" points="448.2608389461702,414.5767987943618 448.2608389461702,372.6839033351091 466.74299870760524,367.348563378374 466.74299870760524,409.24145883762674" />
  <polygon fill="hsl(324.0,50.0%,54.496445229397835%)" points="452.881378886529,369.2554235729627 452.881378886529,350.40362061629895 462.12245876724654,347.7359506379314 462.12245876724654,366.58775359459514" />
  <polygon fill="hsl(324.0,50.0%,54.496445229397835%)" points="454.7295948626725,370.8165343502518 454.7295948626725,349.87008662062544 460.274242791103,348.2694846336049 460.274242791103,369.2159323632313" />
  <polygon fill="hsl(324.0,50.0%,50.27546059214215%)" points="347.11750962683016,496.0689801137523 347.11750962683016,453.757155699907 354.5103735314042,451.62301971721297 354.5103735314042,493.9348441310582" />
  <polygon fill="hsl(324.0,50.0%,50.27546059214215%)" points="365.5996693882652,490.73364015701713 365.59966938826517,448.4218157431719 358.2068054836912,450.55595172586595 358.2068054836912,492.8677761397112" />
  <polygon fill="hsl(324.0,50.0%,50.27546059214215%)" points="339.7246457222561,456.31022063719354 339.7246457222561,414.41732517794077 346.1934016387584,412.5499561930835 346.1934016387584,454.44285165233623" />
  <polygon fill="hsl(324.0,50.0%,50.27546059214215%)" points="366.52377737633697,448.5739776999277 366.52377737633697,406.6810822406749 372.9925332928392,404.8137132558176 372.9925332928392,446.7066087150704" />
  <polygon fill="hsl(324.0,50.0%,50.27546059214215%)" points="346.1934016387584,419.01871210958575 346.1934016387584,412.5499561930835 366.52377737633697,406.6810822406749 366.52377737633697,413.14983815717716" />
  <polygon fill="hsl(324.0,50.0%,50.27546059214215%)" points="347.11750962683016,454.1760846544995 347.11750962683016,412.28318919524673 365.59966938826517,406.94784923851165 365.59966938826517,448.8407446977644" />
  <polygon fill="hsl(324.0,50.0%,50.27546059214215%)" points="351.7380495671889,408.8547094331003 351.7380495671889,390.00290647643664 360.9791294479065,387.3352364980691 360.9791294479065,406.1870394547328" />
  <polygon fill="hsl(324.0,50.0%,50.27546059214215%)" points="353.58626554333244,410.4158202103895 353.58626554333244,389.4693724807631 359.13091347176294,387.86877049374255 359.13091347176294,408.81521822336896" />
</svg>
