<?xml version="1.0" encoding="UTF-8"?>
<svg
  xmlns="http://www.w3.org/2000/svg"
  width="848"
  height="600"
  style="background-color:white"
>
  <polygon fill="lightblue" points="329.27098603078304,559.2442872182052 228.8560435184576,472.28239608297736 518.729013969217,388.6032773227061 619.1439564815424,475.56516845793396" />
  <polygon fill="steelblue" points="228.8560435184576,472.28239608297736 228.8560435184576,124.43483154206604 518.729013969217,40.75571278179484 518.729013969217,388.6032773227061" />
  <polygon fill="lightskyblue" points="619.1439564815424,475.56516845793396 619.1439564815424,127.71760391702267 518.729013969217,40.75571278179484 518.729013969217,388.6032773227061" />
  <polygon fill="white" points="562.242155724558,426.28676348130483 562.242155724558,310.3375753010011 542.159167222093,292.9451970739555 542.159167222093,408.8943852542593" />
  <polygon fill="white" points="595.7138032286664,455.2740605263808 595.7138032286664,339.32487234607703 575.6308147262014,321.93249411903145 575.6308147262014,437.88168229933524" />
  <polygon fill="white" points="286.83063760860944,409.1668970588016 286.83063760860944,362.7872217866801 315.8179346536854,354.41930991065294 315.8179346536854,400.79898518277446" />
  <polygon fill="white" points="359.2988802212993,388.24711736873377 359.2988802212993,341.86744209661225 388.28617726637526,333.49953022058514 388.28617726637526,379.87920549270666" />
  <polygon fill="white" points="431.76712283398916,367.32733767866597 431.76712283398916,320.94766240654445 460.7544198790651,312.57975053051734 460.75441987906515,358.95942580263886" />
  <polygon fill="hsl(324.0,50.0%,54.496445229397835%)" points="446.83032353922624,476.2309167657261 446.83032353922624,436.4139655446098 453.78727483004445,434.4056666943633 453.78727483004445,474.2226179154796" />
  <polygon fill="hsl(324.0,50.0%,54.496445229397835%)" points="464.22270176627177,471.2101696401098 464.22270176627177,431.3932184189935 457.26575047545356,433.40151726924 457.26575047545356,473.2184684903564" />
  <polygon fill="hsl(324.0,50.0%,54.496445229397835%)" points="439.87337224840803,438.8164916346693 439.873372248408,399.393767653366 445.96070462787395,397.6365061594003 445.96070462787395,437.0592301407036" />
  <polygon fill="hsl(324.0,50.0%,54.496445229397835%)" points="465.09232067762406,431.53640830252573 465.09232067762406,392.1136843212224 471.17965305709004,390.3564228272567 471.17965305709004,429.77914680856003" />
  <polygon fill="hsl(324.0,50.0%,54.496445229397835%)" points="445.96070462787395,403.7238385388663 445.96070462787395,397.6365061594003 465.09232067762406,392.1136843212224 465.09232067762406,398.2010167006884" />
  <polygon fill="hsl(324.0,50.0%,54.496445229397835%)" points="446.83032353922624,436.8081927844228 446.83032353922624,397.3854688031195 464.22270176627177,392.3647216775032 464.22270176627177,431.7874456588065" />
  <polygon fill="hsl(324.0,50.0%,54.496445229397835%)" points="451.1784180959876,394.1591458226503 451.1784180959876,376.4189200310638 459.87460720951043,373.9085464682557 459.87460720951043,391.64877225984213" />
  <polygon fill="hsl(324.0,50.0%,54.496445229397835%)" points="452.91765591869216,395.6282073091538 452.91765591869216,375.91684531850217 458.13536938680585,374.4106211808173 458.13536938680585,394.12198317146897" />
</svg>
