<?xml version="1.0" encoding="UTF-8"?>
<svg
  xmlns="http://www.w3.org/2000/svg"
  width="848"
  height="600"
  style="background-color:white"
>
  <polygon fill="lightblue" points="329.07465401096715,501.686837609177 228.4515950234766,414.54471231951015 518.9253459890328,330.692163163268 619.5484049765234,417.83428845293486" />
  <polygon fill="steelblue" points="228.4515950234766,414.54471231951015 228.4515950234766,182.16571154706514 518.9253459890328,98.31316239082298 518.9253459890328,330.692163163268" />
  <polygon fill="lightskyblue" points="619.5484049765234,417.83428845293486 619.5484049765234,185.45528768048985 518.9253459890328,98.31316239082298 518.9253459890328,330.692163163268" />
  <polygon fill="white" points="579.2991813815272,382.9774383370681 579.2991813815272,266.7879379508456 559.1745695840291,249.35951289291225 559.1745695840291,365.5490132791347" />
  <polygon fill="white" points="262.3401993027915,358.2861147634595 262.3401993027915,311.81031460897054 291.38757439934716,303.4250596933463 291.38757439934716,349.9008598478353" />
  <polygon fill="white" points="310.7524911303842,344.31068990408585 310.7524911303842,297.83488974959687 339.79986622693986,289.44963483397265 339.79986622693986,335.92543498846163" />
  <polygon fill="white" points="359.1647829579769,330.3352650447122 359.1647829579769,283.85946489022314 388.21215805453255,275.4742099745989 388.21215805453255,321.95001012908796" />
  <polygon fill="white" points="407.57707478556966,316.35984018533844 407.57707478556966,269.88404003084946 436.62444988212525,261.49878511522525 436.62444988212525,307.9745852697142" />
  <polygon fill="white" points="455.98936661316236,302.38441532596477 455.98936661316236,255.9086151714758 485.03674170971794,247.52336025585157 485.03674170971794,293.99916041034055" />
</svg>
