<?xml version="1.0" encoding="UTF-8"?>
<svg
  xmlns="http://www.w3.org/2000/svg"
  width="848"
  height="600"
  style="background-color:white"
>
  <polygon fill="lightblue" points="282.49364905389035,643.9582562299425 132.49364905389035,514.0544456622767 565.5063509461097,389.05444566227675 715.5063509461097,518.9582562299425" />
  <polygon fill="steelblue" points="132.49364905389035,514.0544456622767 132.49364905389035,81.04174377005745 565.5063509461097,-43.95825622994255 565.5063509461097,389.05444566227675" />
  <polygon fill="lightskyblue" points="715.5063509461097,518.9582562299425 715.5063509461097,85.94555433772325 565.5063509461097,-43.95825622994255 565.5063509461097,389.05444566227675" />
  <polygon fill="white" points="655.5063509461096,466.99673200287623 655.5063509461096,293.7916512459885 625.5063509461097,267.8108891324553 625.5063509461097,441.01596988934307" />
  <polygon fill="white" points="197.44555433772325,426.0224133595217 197.44555433772325,356.7403810567666 240.74682452694518,344.2403810567666 240.74682452694518,413.5224133595217" />
  <polygon fill="white" points="284.0480947161671,401.0224133595217 284.0480947161671,331.7403810567666 327.34936490538905,319.2403810567666 327.34936490538905,388.5224133595217" />
  <polygon fill="white" points="370.65063509461095,376.0224133595217 370.65063509461095,306.7403810567666 413.9519052838329,294.2403810567666 413.9519052838329,363.5224133595217" />
  <polygon fill="white" points="457.2531754730548,351.0224133595217 457.2531754730548,281.7403810567665 500.55444566227675,269.2403810567665 500.55444566227675,338.52241335952164" />
</svg>
