<?xml version="1.0" encoding="UTF-8"?>
<svg
  xmlns="http://www.w3.org/2000/svg"
  width="848"
  height="600"
  style="background-color:white"
>
  <polygon fill="lightblue" points="282.49364905389035,557.3557158514986 132.49364905389035,427.45190528383296 565.5063509461097,302.4519052838329 715.5063509461097,432.35571585149864" />
  <polygon fill="steelblue" points="132.49364905389035,427.45190528383296 132.49364905389035,167.64428414850133 565.5063509461097,42.6442841485013 565.5063509461097,302.4519052838329" />
  <polygon fill="lightskyblue" points="715.5063509461097,432.35571585149864 715.5063509461097,172.54809471616707 565.5063509461097,42.6442841485013 565.5063509461097,302.4519052838329" />
  <polygon fill="white" points="655.5063509461096,380.3941916244323 655.5063509461096,207.18911086754463 625.5063509461097,181.20834875401147 625.5063509461097,354.4134295108992" />
  <polygon fill="white" points="172.70197137245356,346.56273012393495 172.70197137245356,277.28069782117984 216.0032415616755,264.78069782117984 216.0032415616755,334.06273012393495" />
  <polygon fill="white" points="234.56092878562777,328.7055872667921 234.56092878562777,259.423554964037 277.86219897484966,246.923554964037 277.86219897484966,316.20558726679207" />
  <polygon fill="white" points="296.4198861988019,310.84844440964923 296.4198861988019,241.56641210689415 339.72115638802387,229.06641210689412 339.72115638802387,298.34844440964923" />
  <polygon fill="white" points="358.27884361197613,292.99130155250634 358.27884361197613,223.7092692497513 401.5801138011981,211.2092692497513 401.5801138011981,280.49130155250634" />
  <polygon fill="white" points="420.13780102515034,275.1341586953635 420.13780102515034,205.8521263926084 463.4390712143723,193.3521263926084 463.4390712143723,262.6341586953635" />
  <polygon fill="white" points="481.9967584383245,257.2770158382206 481.9967584383245,187.99498353546556 525.2980286275464,175.49498353546556 525.2980286275464,244.77701583822062" />
</svg>
