<?xml version="1.0" encoding="UTF-8"?>
<svg
  xmlns="http://www.w3.org/2000/svg"
  width="848"
  height="600"
  style="background-color:white"
>
  <polygon fill="lightblue" points="282.49364905389035,687.2595264191646 132.49364905389035,557.3557158514986 565.5063509461097,432.35571585149864 715.5063509461097,562.2595264191646" />
  <polygon fill="steelblue" points="132.49364905389035,557.3557158514986 132.49364905389035,37.7404735808355 565.5063509461097,-87.2595264191645 565.5063509461097,432.35571585149864" />
  <polygon fill="lightskyblue" points="715.5063509461097,562.2595264191646 715.5063509461097,42.6442841485013 565.5063509461097,-87.2595264191645 565.5063509461097,432.35571585149864" />
  <polygon fill="white" points="655.5063509461096,510.2980021920981 655.5063509461096,337.0929214352104 625.5063509461097,311.11215932167727 625.5063509461097,484.31724007856496" />
  <polygon fill="white" points="197.44555433772325,469.32368354874365 197.44555433772325,400.04165124598853 240.74682452694518,387.54165124598853 240.7468245269452,456.82368354874365" />
  <polygon fill="white" points="284.0480947161671,444.32368354874365 284.0480947161671,375.0416512459885 327.34936490538905,362.5416512459885 327.34936490538905,431.8236835487436" />
  <polygon fill="white" points="370.650635094611,419.3236835487436 370.65063509461095,350.0416512459885 413.9519052838329,337.5416512459885 413.9519052838329,406.8236835487436" />
  <polygon fill="white" points="457.25317547305485,394.3236835487436 457.2531754730548,325.0416512459885 500.55444566227675,312.5416512459885 500.55444566227675,381.8236835487436" />
</svg>
