<?xml version="1.0" encoding="UTF-8"?>
<svg
  xmlns="http://www.w3.org/2000/svg"
  width="848"
  height="600"
  style="background-color:white"
>
  <polygon fill="lightblue" points="339.0961894323342,506.3749537379655 249.09618943233423,428.432667397366 508.9038105676658,353.432667397366 598.9038105676658,431.3749537379655" />
  <polygon fill="steelblue" points="249.09618943233423,428.432667397366 249.09618943233423,168.6250462620345 508.9038105676658,93.62504626203449 508.9038105676658,353.432667397366" />
  <polygon fill="lightskyblue" points="598.9038105676658,431.3749537379655 598.9038105676658,171.56733260263397 508.9038105676658,93.62504626203449 508.9038105676658,353.432667397366" />
  <polygon fill="white" points="562.9038105676658,400.1980392017257 562.9038105676658,296.2749907475931 544.9038105676658,280.6865334794732 544.9038105676658,384.6095819336058" />
  <polygon fill="white" points="279.4070785647896,378.113448015713 279.4070785647896,336.54422863405995 305.38784067832273,329.04422863405995 305.38784067832273,370.613448015713" />
  <polygon fill="white" points="322.70834875401147,365.613448015713 322.70834875401147,324.04422863405995 348.6891108675446,316.54422863405995 348.6891108675446,358.113448015713" />
  <polygon fill="white" points="366.0096189432334,353.113448015713 366.0096189432334,311.54422863405995 391.9903810567666,304.04422863405995 391.9903810567666,345.613448015713" />
  <polygon fill="white" points="409.3108891324554,340.613448015713 409.3108891324554,299.04422863405995 435.29165124598853,291.54422863405995 435.29165124598853,333.113448015713" />
  <polygon fill="white" points="452.61215932167727,328.113448015713 452.61215932167727,286.54422863405995 478.5929214352104,279.0442286340599 478.5929214352104,320.613448015713" />
</svg>
