<?xml version="1.0" encoding="UTF-8"?>
<svg
  xmlns="http://www.w3.org/2000/svg"
  width="848"
  height="600"
  style="background-color:white"
>
  <polygon fill="lightblue" points="339.0961894323342,506.3749537379655 249.09618943233423,428.432667397366 508.9038105676658,353.432667397366 598.9038105676658,431.3749537379655" />
  <polygon fill="steelblue" points="249.09618943233423,428.432667397366 249.09618943233423,168.6250462620345 508.9038105676658,93.62504626203449 508.9038105676658,353.432667397366" />
  <polygon fill="lightskyblue" points="598.9038105676658,431.3749537379655 598.9038105676658,171.56733260263397 508.9038105676658,93.62504626203449 508.9038105676658,353.432667397366" />
  <polygon fill="white" points="562.9038105676658,400.1980392017257 562.9038105676658,296.2749907475931 544.9038105676658,280.6865334794732 544.9038105676658,384.6095819336058" />
  <polygon fill="white" points="288.067332602634,375.613448015713 288.067332602634,334.04422863405995 314.0480947161671,326.54422863405995 314.0480947161671,368.113448015713" />
  <polygon fill="white" points="340.02885682970026,360.613448015713 340.02885682970026,319.04422863405995 366.0096189432334,311.54422863405995 366.0096189432334,353.113448015713" />
  <polygon fill="white" points="391.9903810567666,345.613448015713 391.9903810567666,304.04422863405995 417.97114317029974,296.54422863405995 417.97114317029974,338.113448015713" />
  <polygon fill="white" points="443.9519052838329,330.613448015713 443.9519052838329,289.04422863405995 469.93266739736606,281.54422863405995 469.93266739736606,323.113448015713" />
</svg>
