<?xml version="1.0" encoding="UTF-8"?>
<svg
  xmlns="http://www.w3.org/2000/svg"
  width="848"
  height="600"
  style="background-color:white"
>
  <polygon fill="lightblue" points="323.3354015553923,544.684563721672 216.6286024206904,452.27376491449684 524.6645984446077,363.35143230224526 631.3713975793096,455.76223110942044" />
  <polygon fill="steelblue" points="216.6286024206904,452.27376491449684 216.6286024206904,144.23776889057953 524.6645984446077,55.31543627832795 524.6645984446077,363.35143230224526" />
  <polygon fill="lightskyblue" points="631.3713975793096,455.76223110942044 631.3713975793096,147.72623508550316 524.6645984446077,55.31543627832795 524.6645984446077,363.35143230224526" />
  <polygon fill="white" points="588.6886779254288,418.79791158655036 588.6886779254288,295.58351317698344 567.3473180984885,277.10135341554843 567.3473180984885,400.31575182511534" />
  <polygon fill="white" points="252.56613529014743,392.6137334125741 252.56613529014743,343.3279740487473 283.36973489253916,334.43574078752215 283.36973489253916,383.7215001513489" />
  <polygon fill="white" points="303.9054679608003,377.79334464386545 303.9054679608003,328.5075852800387 334.70906756319204,319.61535201881355 334.70906756319204,368.90111138264035" />
  <polygon fill="white" points="355.2448006314532,362.97295587515686 355.2448006314532,313.6871965113301 386.0484002338449,304.79496325010496 386.0484002338449,354.0807226139317" />
  <polygon fill="white" points="406.58413330210607,348.15256710644826 406.58413330210607,298.86680774262146 437.3877329044978,289.9745744813963 437.3877329044978,339.2603338452231" />
  <polygon fill="white" points="457.923465972759,333.33217833773966 457.923465972759,284.04641897391286 488.72706557515073,275.1541857126877 488.72706557515073,324.4399450765145" />
</svg>
