<?xml version="1.0" encoding="UTF-8"?>
<svg
  xmlns="http://www.w3.org/2000/svg"
  width="848"
  height="600"
  style="background-color:white"
>
  <polygon fill="lightblue" points="315.5623485264038,530.3962843180211 200.61593366737085,430.8497689761534 532.4376514735961,335.06108992695926 647.3840663326291,434.6076052688269" />
  <polygon fill="steelblue" points="200.61593366737085,430.8497689761534 200.61593366737085,165.39239473117314 532.4376514735961,69.60371568197894 532.4376514735961,335.06108992695926" />
  <polygon fill="lightskyblue" points="647.3840663326291,434.6076052688269 647.3840663326291,169.15023102384657 532.4376514735961,69.60371568197894 532.4376514735961,335.06108992695926" />
  <polygon fill="white" points="250.38919133830467,363.38999226977825 250.38919133830467,310.29851742078216 283.5713631189272,300.7196495158627 283.5713631189272,353.8111243648588" />
  <polygon fill="white" points="316.7535348995497,344.2322564599394 316.7535348995497,291.14078161094335 349.93570668017225,281.5619137060239 349.93570668017225,334.65338855502" />
  <polygon fill="white" points="383.11787846079477,325.07452065010057 383.11787846079477,271.9830458011045 416.30005024141735,262.4041778961851 416.30005024141735,315.49565274518113" />
  <polygon fill="white" points="449.4822220220399,305.91678484026176 449.4822220220399,252.82530999126567 482.6643938026624,243.24644208634624 482.6643938026624,296.3379169353423" />
  <polygon fill="grey" points="518.4132155028125,142.2287099700812 518.4132155028125,109.04653818945869 551.595387283435,99.46767028453928 551.595387283435,132.6498420651618" />
  <polygon fill="lightgrey" points="518.4132155028125,142.2287099700812 518.4132155028125,109.04653818945869 499.25547969297367,92.4554522991474 499.25547969297367,125.63762407976992" />
  <polygon fill="darkgrey" points="518.4132155028125,109.04653818945869 499.25547969297367,92.4554522991474 532.4376514735961,82.87658439422799 551.595387283435,99.46767028453928" />
  <polygon fill="hsl(324.0,50.0%,66.3472556462705%)" points="494.6129486915339,391.0709369088694 494.6129486915339,345.49190575100624 502.57666991888334,343.19297745382556 502.57666991888334,388.7720086116887" />
  <polygon fill="hsl(324.0,50.0%,66.3472556462705%)" points="514.5222517599075,385.3236161659177 514.5222517599075,339.74458500805457 506.55853053255805,342.04351330523525 506.55853053255805,387.6225444630984" />
  <polygon fill="hsl(324.0,50.0%,66.3472556462705%)" points="486.6492274641845,348.24211158440335 486.6492274641845,303.11435796275674 493.6174835381152,301.10279570272365 493.6174835381152,346.23054932437026" />
  <polygon fill="hsl(324.0,50.0%,66.3472556462705%)" points="515.5177169133261,339.90849650712346 515.5177169133261,294.78074288547685 522.4859729872569,292.76918062544377 522.4859729872569,337.89693424709037" />
  <polygon fill="hsl(324.0,50.0%,66.3472556462705%)" points="493.6174835381152,308.0710517766544 493.6174835381152,301.10279570272365 515.5177169133261,294.78074288547685 515.5177169133261,301.7489989594076" />
  <polygon fill="hsl(324.0,50.0%,66.3472556462705%)" points="494.6129486915339,345.9431832872227 494.6129486915339,300.81542966557606 514.5222517599075,295.0681089226244 514.5222517599075,340.19586254427105" />
  <polygon fill="hsl(324.0,50.0%,66.3472556462705%)" points="499.5902744586273,297.1222117987558 499.5902744586273,276.8147226690148 509.54492599281406,273.941062297539 509.54492599281406,294.24855142728" />
  <polygon fill="hsl(324.0,50.0%,66.3472556462705%)" points="501.58120476546463,298.803867405543 501.58120476546463,276.23999059471964 507.5539956859767,274.5157943718342 507.5539956859767,297.0796711826575" />
  <polygon fill="hsl(324.0,50.0%,62.674776644420824%)" points="438.28933171475245,417.07903094851685 438.28933171475245,371.4999997906537 446.2530529421019,369.201071493473 446.2530529421019,414.78010265133616" />
  <polygon fill="hsl(324.0,50.0%,62.674776644420824%)" points="458.19863478312595,411.3317102055652 458.19863478312595,365.7526790477021 450.23491355577653,368.0516073448827 450.23491355577653,413.63063850274585" />
  <polygon fill="hsl(324.0,50.0%,62.674776644420824%)" points="430.325610487403,374.25020562405086 430.325610487403,329.1224520024042 437.29386656133374,327.1108897423711 437.29386656133374,372.2386433640178" />
  <polygon fill="hsl(324.0,50.0%,62.674776644420824%)" points="459.19409993654466,365.916590546771 459.1940999365446,320.7888369251243 466.1623560104754,318.7772746650912 466.1623560104754,363.9050282867379" />
  <polygon fill="hsl(324.0,50.0%,62.674776644420824%)" points="437.29386656133374,334.0791458163019 437.29386656133374,327.1108897423711 459.1940999365446,320.7888369251243 459.1940999365446,327.75709299905503" />
  <polygon fill="hsl(324.0,50.0%,62.674776644420824%)" points="438.28933171475245,371.9512773268702 438.28933171475245,326.8235237052235 458.19863478312595,321.0762029622719 458.19863478312595,366.2039565839185" />
  <polygon fill="hsl(324.0,50.0%,62.674776644420824%)" points="443.2666574818458,323.1303058384033 443.2666574818458,302.8228167086623 453.2213090160326,299.9491563371865 453.2213090160326,320.25664546692747" />
  <polygon fill="hsl(324.0,50.0%,62.674776644420824%)" points="445.25758778868317,324.81196144519043 445.25758778868317,302.24808463436716 451.23037870919524,300.52388841148166 451.23037870919524,323.087765222305" />
  <polygon fill="hsl(324.0,50.0%,54.496445229397835%)" points="450.13419651745284,435.36969683871234 450.13419651745284,389.7906656808492 458.09791774480226,387.4917373836685 458.09791774480226,433.07076854153166" />
  <polygon fill="hsl(324.0,50.0%,54.496445229397835%)" points="470.04349958582634,429.62237609576067 470.04349958582634,384.04334493789753 462.079778358477,386.3422732350782 462.079778358477,431.92130439294135" />
  <polygon fill="hsl(324.0,50.0%,54.496445229397835%)" points="442.17047529010347,392.5408715142463 442.17047529010347,347.4131178925997 449.1387313640342,345.4015556325666 449.1387313640342,390.5293092542132" />
  <polygon fill="hsl(324.0,50.0%,54.496445229397835%)" points="471.03896473924505,384.2072564369664 471.03896473924505,339.07950281531976 478.00722081317576,337.0679405552867 478.00722081317576,382.19569417693333" />
  <polygon fill="hsl(324.0,50.0%,54.496445229397835%)" points="449.1387313640342,352.36981170649733 449.1387313640342,345.4015556325666 471.03896473924505,339.07950281531976 471.03896473924505,346.04775888925053" />
  <polygon fill="hsl(324.0,50.0%,54.496445229397835%)" points="450.13419651745284,390.2419432170657 450.13419651745284,345.114189595419 470.04349958582634,339.36686885246735 470.04349958582634,384.494622474114" />
  <polygon fill="hsl(324.0,50.0%,54.496445229397835%)" points="455.1115222845462,341.4209717285988 455.1115222845462,321.1134825988578 465.066173818733,318.239822227382 465.066173818733,338.54731135712296" />
  <polygon fill="hsl(324.0,50.0%,54.496445229397835%)" points="457.10245259138355,343.10262733538593 457.10245259138355,320.5387505245626 463.0752435118956,318.81455430167716 463.0752435118956,341.37843111250044" />
  <polygon fill="hsl(324.0,50.0%,52.725723603274666%)" points="426.25428928209254,446.9637434078862 426.25428928209254,401.3847122500231 434.2180105094419,399.0857839528424 434.21801050944197,444.66481511070555" />
  <polygon fill="hsl(324.0,50.0%,52.725723603274666%)" points="446.16359235046605,441.21642266493456 446.16359235046605,395.6373915070714 438.1998711231166,397.9363198042521 438.1998711231166,443.51535096211524" />
  <polygon fill="hsl(324.0,50.0%,52.725723603274666%)" points="418.2905680547431,404.1349180834202 418.2905680547431,359.0071644617735 425.25882412867384,356.9956022017405 425.25882412867384,402.1233558233871" />
  <polygon fill="hsl(324.0,50.0%,52.725723603274666%)" points="447.1590575038847,395.8013030061403 447.1590575038847,350.6735493844937 454.12731357781547,348.6619871244606 454.12731357781547,393.7897407461072" />
  <polygon fill="hsl(324.0,50.0%,52.725723603274666%)" points="425.25882412867384,363.9638582756712 425.25882412867384,356.9956022017405 447.1590575038847,350.6735493844937 447.1590575038847,357.6418054584244" />
  <polygon fill="hsl(324.0,50.0%,52.725723603274666%)" points="426.25428928209254,401.83598978623957 426.25428928209254,356.7082361645929 446.16359235046605,350.96091542164123 446.16359235046605,396.0886690432879" />
  <polygon fill="hsl(324.0,50.0%,52.725723603274666%)" points="431.2316150491859,353.01501829777266 431.2316150491859,332.70752916803167 441.1862665833727,329.83386879655586 441.1862665833727,350.1413579262968" />
  <polygon fill="hsl(324.0,50.0%,52.725723603274666%)" points="433.22254535602326,354.6966739045598 433.22254535602326,332.1327970937365 439.1953362765353,330.408600870851 439.1953362765353,352.9724776816743" />
  <polygon fill="hsl(324.0,50.0%,50.27546059214215%)" points="341.1808478420003,478.02673441749715 341.1808478420003,432.447703259634 349.1445690693497,430.14877496245333 349.1445690693497,475.7278061203165" />
  <polygon fill="hsl(324.0,50.0%,50.27546059214215%)" points="361.09015091037384,472.2794136745455 361.09015091037384,426.70038251668234 353.1264296830244,428.999310813863 353.1264296830244,474.5783419717261" />
  <polygon fill="hsl(324.0,50.0%,50.27546059214215%)" points="333.21712661465085,435.1979090930311 333.21712661465085,390.0701554713845 340.1853826885816,388.0585932113514 340.1853826885816,433.1863468329981" />
  <polygon fill="hsl(324.0,50.0%,50.27546059214215%)" points="362.0856160637925,426.8642940157512 362.0856160637925,381.7365403941046 369.0538721377232,379.72497813407153 369.05387213772326,424.8527317557182" />
  <polygon fill="hsl(324.0,50.0%,50.27546059214215%)" points="340.1853826885816,395.02684928528214 340.1853826885816,388.0585932113514 362.0856160637925,381.7365403941046 362.0856160637925,388.70479646803534" />
  <polygon fill="hsl(324.0,50.0%,50.27546059214215%)" points="341.1808478420003,432.89898079585043 341.1808478420003,387.77122717420383 361.09015091037384,382.02390643125216 361.09015091037384,427.1516600528988" />
  <polygon fill="hsl(324.0,50.0%,50.27546059214215%)" points="346.1581736090937,384.0780093073836 346.1581736090937,363.7705201776426 356.1128251432805,360.8968598061668 356.1128251432805,381.2043489359078" />
  <polygon fill="hsl(324.0,50.0%,50.27546059214215%)" points="348.14910391593105,385.75966491417074 348.14910391593105,363.19578810334747 354.12189483644306,361.4715918804619 354.12189483644306,384.03546869128525" />
</svg>
