<?xml version="1.0" encoding="UTF-8"?>
<svg
  xmlns="http://www.w3.org/2000/svg"
  width="848"
  height="600"
  style="background-color:white"
>
  <polygon fill="lightblue" points="304.64892126439804,517.0622173512692 178.13402146913563,407.4971001713293 543.351078735602,302.0680170086106 669.8659785308644,411.6331341885505" />
  <polygon fill="steelblue" points="178.13402146913563,407.4971001713293 178.13402146913563,188.3668658114495 543.351078735602,82.9377826487308 543.351078735602,302.0680170086106" />
  <polygon fill="lightskyblue" points="669.8659785308644,411.6331341885505 669.8659785308644,192.5028998286707 543.351078735602,82.9377826487308 543.351078735602,302.0680170086106" />
  <polygon fill="white" points="281.61218769463443,319.1907974459244 281.61218769463443,260.7560682832898 318.1338934212811,250.21315996701787 318.1338934212811,308.6478891296525" />
  <polygon fill="white" points="403.3512067834566,284.04776972501816 403.3512067834566,225.61304056238353 439.8729125101032,215.07013224611165 439.8729125101032,273.50486140874625" />
  <polygon fill="grey" points="527.9151896414991,162.87193184563128 527.9151896414991,126.35022611898464 564.4368953681457,115.80731780271279 564.4368953681457,152.3290235293594" />
  <polygon fill="lightgrey" points="527.9151896414991,162.87193184563128 527.9151896414991,126.35022611898464 506.8293730089554,108.08937325566131 506.8293730089554,144.61107898230796" />
  <polygon fill="darkgrey" points="527.9151896414991,126.35022611898464 506.8293730089554,108.08937325566131 543.351078735602,97.54646493938944 564.4368953681457,115.80731780271279" />
  <polygon fill="hsl(360.0,50.0%,54.496445229397835%)" points="452.76440520298155,412.4719244954697 452.76440520298155,362.30570950934793 461.5296145773767,359.7754115134427 461.5296145773767,409.94162649956445" />
  <polygon fill="hsl(360.0,50.0%,54.496445229397835%)" points="474.6774286389695,406.14617950570664 474.6774286389695,355.97996451958477 465.91221926457433,358.51026251549007 465.91221926457433,408.6764775016119" />
  <polygon fill="hsl(360.0,50.0%,54.496445229397835%)" points="443.9991958285863,365.33270270313557 443.9991958285863,315.66318291489614 451.6687540311821,313.44917216847904 451.6687540311821,363.11869195671846" />
  <polygon fill="hsl(360.0,50.0%,54.496445229397835%)" points="475.77307981076893,356.160372467979 475.77307981076893,306.4908526797396 483.44263801336473,304.2768419333225 483.44263801336473,353.9463617215619" />
  <polygon fill="hsl(360.0,50.0%,54.496445229397835%)" points="451.6687540311821,321.11873037107483 451.6687540311821,313.44917216847904 475.77307981076893,306.4908526797396 475.77307981076893,314.1604108823354" />
  <polygon fill="hsl(360.0,50.0%,54.496445229397835%)" points="452.76440520298155,362.8024047072303 452.76440520298155,313.1328849189909 474.6774286389695,306.8071399292278 474.6774286389695,356.47665971746716" />
  <polygon fill="hsl(360.0,50.0%,54.496445229397835%)" points="458.24266106197854,309.06797268213813 458.24266106197854,286.7166887774304 469.1991727799725,283.55381628254884 469.1991727799725,305.90510018725655" />
  <polygon fill="hsl(360.0,50.0%,54.496445229397835%)" points="460.43396340557734,310.9188741725738 460.43396340557734,286.0841142784541 467.0078704363737,284.1863907815252 467.0078704363737,309.02115067564483" />
</svg>
