<?xml version="1.0" encoding="UTF-8"?>
<svg
  xmlns="http://www.w3.org/2000/svg"
  width="848"
  height="600"
  style="background-color:white"
>
  <polygon fill="lightblue" points="346.49377955657326,512.1107782285442 264.3353959307983,440.95953087475567 501.50622044342674,372.4942111866099 583.6646040692017,443.6454585403984" />
  <polygon fill="steelblue" points="264.3353959307983,440.95953087475567 264.3353959307983,156.35454145960156 501.50622044342674,87.8892217714558 501.50622044342674,372.4942111866099" />
  <polygon fill="lightskyblue" points="583.6646040692017,443.6454585403984 583.6646040692017,159.04046912524433 501.50622044342674,87.8892217714558 501.50622044342674,372.4942111866099" />
  <polygon fill="white" points="550.8012506188917,415.18495959888304 550.8012506188917,320.3166297938316 534.3695738937367,306.0863803230739 534.3695738937367,400.9547101281253" />
  <polygon fill="white" points="292.0053254572716,395.0245783224515 292.0053254572716,357.0772464004309 315.7224079085345,350.2307144316163 315.72240790853454,388.1780463536369" />
  <polygon fill="white" points="331.5337962093764,383.6136917077605 331.5337962093764,345.6663597857399 355.2508786606392,338.81982781692534 355.2508786606392,376.7671597389459" />
  <polygon fill="white" points="371.0622669614811,372.2028050930695 371.0622669614811,334.25547317104895 394.77934941274395,327.4089412022344 394.77934941274395,365.3562731242549" />
  <polygon fill="white" points="410.5907377135859,360.7919184783786 410.5907377135859,322.844586556358 434.3078201648487,315.99805458754344 434.3078201648487,353.945386509564" />
  <polygon fill="white" points="450.11920846569063,349.3810318636876 450.11920846569063,311.43369994166704 473.83629091695343,304.58716797285246 473.83629091695343,342.534499894873" />
</svg>
