<?xml version="1.0" encoding="UTF-8"?>
<svg
  xmlns="http://www.w3.org/2000/svg"
  width="848"
  height="600"
  style="background-color:white"
>
  <polygon fill="lightblue" points="329.07465401096715,501.686837609177 228.4515950234766,414.54471231951015 518.9253459890328,330.692163163268 619.5484049765234,417.83428845293486" />
  <polygon fill="steelblue" points="228.4515950234766,414.54471231951015 228.4515950234766,182.16571154706514 518.9253459890328,98.31316239082298 518.9253459890328,330.692163163268" />
  <polygon fill="lightskyblue" points="619.5484049765234,417.83428845293486 619.5484049765234,185.45528768048985 518.9253459890328,98.31316239082298 518.9253459890328,330.692163163268" />
  <polygon fill="white" points="579.2991813815272,382.9774383370681 579.2991813815272,266.7879379508456 559.1745695840291,249.35951289291225 559.1745695840291,365.5490132791347" />
  <polygon fill="white" points="255.4241576131354,360.2826040290844 255.4241576131354,313.80680387459535 284.471532709691,305.42154895897113 284.471532709691,351.89734911346017" />
  <polygon fill="white" points="296.92040775107205,348.30366843533545 296.92040775107205,301.8278682808465 325.96778284762763,293.44261336522226 325.96778284762763,339.9184135197113" />
  <polygon fill="white" points="338.41665788900866,336.3247328415866 338.41665788900866,289.8489326870976 367.46403298556424,281.4636777714734 367.46403298556424,327.93947792596236" />
  <polygon fill="white" points="379.9129080269452,324.3457972478377 379.9129080269452,277.86999709334873 408.96028312350086,269.4847421777245 408.96028312350086,315.9605423322135" />
  <polygon fill="white" points="421.40915816488183,312.36686165408884 421.40915816488183,265.89106149959986 450.45653326143747,257.50580658397564 450.45653326143747,303.9816067384646" />
  <polygon fill="white" points="462.90540830281844,300.38792606033996 462.90540830281844,253.91212590585096 491.9527833993741,245.52687099022677 491.9527833993741,292.00267114471575" />
</svg>
