<?xml version="1.0" encoding="UTF-8"?>
<svg
  xmlns="http://www.w3.org/2000/svg"
  width="848"
  height="600"
  style="background-color:white"
>
  <polygon fill="lightblue" points="304.64892126439804,517.0622173512692 178.13402146913563,407.4971001713293 543.351078735602,302.0680170086106 669.8659785308644,411.6331341885505" />
  <polygon fill="steelblue" points="178.13402146913563,407.4971001713293 178.13402146913563,188.3668658114495 543.351078735602,82.9377826487308 543.351078735602,302.0680170086106" />
  <polygon fill="lightskyblue" points="669.8659785308644,411.6331341885505 669.8659785308644,192.5028998286707 543.351078735602,82.9377826487308 543.351078735602,302.0680170086106" />
  <polygon fill="white" points="619.2600186127594,367.80708731657455 619.2600186127594,221.72026440998798 593.957038653707,199.80724097400002 593.957038653707,345.8940638805866" />
  <polygon fill="white" points="220.74267815022338,336.7623113063775 220.74267815022338,278.32758214374286 257.26438387687006,267.784673827471 257.26438387687006,326.2194029901056" />
  <polygon fill="white" points="281.61218769463443,319.1907974459244 281.61218769463443,260.7560682832898 318.1338934212811,250.21315996701787 318.1338934212811,308.6478891296525" />
  <polygon fill="white" points="342.4816972390455,301.61928358547124 342.4816972390455,243.18455442283664 379.0034029656921,232.6416461065648 379.00340296569215,291.0763752691994" />
  <polygon fill="white" points="403.3512067834566,284.04776972501816 403.3512067834566,225.61304056238353 439.8729125101032,215.07013224611165 439.8729125101032,273.50486140874625" />
  <polygon fill="white" points="464.22071632786765,266.476255864565 464.22071632786765,208.04152670193042 500.74242205451424,197.49861838565855 500.74242205451424,255.93334754829314" />
  <polygon fill="antiquewhite" points="494.8334345707743,414.708425187233 494.8334345707742,290.5346257166344 524.0507991520916,282.10029906361694 524.0507991520916,406.2740985342155" />
  <polygon fill="beige" points="494.8334345707743,414.708425187233 494.8334345707742,290.5346257166344 477.96478126473926,275.9259434259758 477.96478126473926,400.09974289657436" />
  <polygon fill="bisque" points="494.8334345707742,290.5346257166344 477.96478126473926,275.9259434259758 507.1821458460566,267.4916167729583 524.0507991520916,282.10029906361694" />
  <polygon fill="antiquewhite" points="325.6357681142721,494.3830960844018 325.6357681142721,370.2092966138032 354.8531326955894,361.7749699607857 354.8531326955894,485.9487694313842" />
  <polygon fill="beige" points="325.6357681142721,494.3830960844018 325.6357681142721,370.2092966138032 308.7671148082371,355.60061432314455 308.7671148082371,479.77441379374307" />
  <polygon fill="bisque" points="325.6357681142721,370.2092966138032 308.7671148082371,355.60061432314455 337.9844793895544,347.166287670127 354.8531326955894,361.7749699607857" />
</svg>
