<?xml version="1.0" encoding="UTF-8"?>
<svg
  xmlns="http://www.w3.org/2000/svg"
  width="848"
  height="600"
  style="background-color:white"
>
  <polygon fill="lightblue" points="315.5623485264038,530.3962843180211 200.61593366737085,430.8497689761534 532.4376514735961,335.06108992695926 647.3840663326291,434.6076052688269" />
  <polygon fill="steelblue" points="200.61593366737085,430.8497689761534 200.61593366737085,165.39239473117314 532.4376514735961,69.60371568197894 532.4376514735961,335.06108992695926" />
  <polygon fill="lightskyblue" points="647.3840663326291,434.6076052688269 647.3840663326291,169.15023102384657 532.4376514735961,69.60371568197894 532.4376514735961,335.06108992695926" />
  <polygon fill="white" points="601.405500389016,394.7889991320798 601.405500389016,262.06031200958967 578.4162174172094,242.15100894121616 578.4162174172094,374.8796960637063" />
  <polygon fill="antiquewhite" points="488.35644630979095,437.4016925701555 488.35644630979095,324.5823085160389 514.902183734289,316.91921419210337 514.902183734289,429.73859824621996" />
  <polygon fill="beige" points="488.35644630979095,437.4016925701555 488.35644630979095,324.5823085160389 473.03025766191985,311.30943980378987 473.0302576619199,424.12882385790647" />
  <polygon fill="bisque" points="488.35644630979095,324.5823085160389 473.03025766191985,311.30943980378987 499.57599508641795,303.64634547985435 514.902183734289,316.91921419210337" />
  <polygon fill="antiquewhite" points="334.63016432116405,509.7909351773399 334.63016432116405,396.9715511232233 361.1759017456621,389.3084567992878 361.1759017456621,502.12784085340445" />
  <polygon fill="beige" points="334.63016432116405,509.7909351773399 334.63016432116405,396.9715511232233 319.303975673293,383.6986824109743 319.303975673293,496.5180664650909" />
  <polygon fill="bisque" points="334.63016432116405,396.9715511232233 319.303975673293,383.6986824109743 345.849713097791,376.0355880870387 361.1759017456621,389.3084567992878" />
  <polygon fill="antiquewhite" points="479.4200140975592,368.86440741279137 479.4200140975592,256.0450233586747 505.9657515220573,248.3819290347392 505.9657515220573,361.20131308885584" />
  <polygon fill="beige" points="479.4200140975592,368.86440741279137 479.4200140975592,256.0450233586747 464.09382544968815,242.77215464642572 464.09382544968815,355.59153870054234" />
  <polygon fill="bisque" points="479.4200140975592,256.0450233586747 464.09382544968815,242.77215464642572 490.6395628741862,235.10906032249017 505.9657515220573,248.3819290347392" />
  <polygon fill="antiquewhite" points="435.26493083928693,401.8806558787724 435.26493083928693,289.06127182465576 461.810668263785,281.39817750072024 461.810668263785,394.21756155483683" />
  <polygon fill="beige" points="435.26493083928693,401.8806558787724 435.26493083928693,289.06127182465576 419.9387421914158,275.78840311240674 419.9387421914158,388.6077871665234" />
  <polygon fill="bisque" points="435.26493083928693,289.06127182465576 419.9387421914158,275.78840311240674 446.48447961591387,268.1253087884712 461.810668263785,281.39817750072024" />
</svg>
