<?xml version="1.0" encoding="UTF-8"?>
<svg
  xmlns="http://www.w3.org/2000/svg"
  width="848"
  height="600"
  style="background-color:white"
>
  <polygon fill="lightblue" points="329.27098603078304,559.2442872182052 228.8560435184576,472.28239608297736 518.729013969217,388.6032773227061 619.1439564815424,475.56516845793396" />
  <polygon fill="steelblue" points="228.8560435184576,472.28239608297736 228.8560435184576,124.43483154206604 518.729013969217,40.75571278179484 518.729013969217,388.6032773227061" />
  <polygon fill="lightskyblue" points="619.1439564815424,475.56516845793396 619.1439564815424,127.71760391702267 518.729013969217,40.75571278179484 518.729013969217,388.6032773227061" />
  <polygon fill="white" points="578.9779794766123,440.7804120038428 578.9779794766123,324.83122382353906 558.8949909741472,307.4388455964935 558.8949909741472,423.3880337767973" />
  <polygon fill="antiquewhite" points="480.22053427608387,478.0060285411424 480.2205342760838,379.44921858788416 503.4103719121446,372.7548890870625 503.4103719121446,471.3116990403207" />
  <polygon fill="beige" points="480.22053427608387,478.0060285411424 480.2205342760838,379.44921858788416 466.83187527444045,367.8542997698538 466.83187527444045,466.411109723112" />
  <polygon fill="bisque" points="480.2205342760838,379.44921858788416 466.83187527444045,367.8542997698538 490.0217129105012,361.1599702690321 503.4103719121446,372.7548890870625" />
  <polygon fill="antiquewhite" points="345.92825741427583,541.2438567398353 345.92825741427583,442.68704678657707 369.1180950503366,435.99271728575536 369.1180950503366,534.5495272390135" />
  <polygon fill="beige" points="345.92825741427583,541.2438567398353 345.92825741427583,442.68704678657707 332.5395984126324,431.09212796854666 332.5395984126324,529.6489379218049" />
  <polygon fill="bisque" points="345.92825741427583,442.68704678657707 332.5395984126324,431.09212796854666 355.7294360486932,424.397798467725 369.1180950503366,435.99271728575536" />
  <polygon fill="antiquewhite" points="472.413841671038,418.13319512160797 472.413841671038,319.57638516834976 495.6036793070988,312.88205566752805 495.6036793070988,411.43886562078626" />
  <polygon fill="beige" points="472.413841671038,418.13319512160797 472.413841671038,319.57638516834976 459.0251826693946,307.9814663503194 459.0251826693946,406.5382763035776" />
  <polygon fill="bisque" points="472.413841671038,319.57638516834976 459.0251826693946,307.9814663503194 482.21502030545537,301.2871368494977 495.6036793070988,312.88205566752805" />
  <polygon fill="antiquewhite" points="433.84082351780654,446.9755448003688 433.84082351780654,348.4187348471106 457.0306611538673,341.7244053462889 457.0306611538673,440.2812152995471" />
  <polygon fill="beige" points="433.84082351780654,446.9755448003688 433.84082351780654,348.4187348471106 420.4521645161631,336.8238160290802 420.4521645161631,435.3806259823384" />
  <polygon fill="bisque" points="433.84082351780654,348.4187348471106 420.4521645161631,336.8238160290802 443.6420021522239,330.1294865282585 457.0306611538673,341.7244053462889" />
  <polygon fill="antiquewhite" points="400.19980558562054,436.82324151188027 400.19980558562054,338.26643155862206 423.3896432216813,331.5721020578004 423.3896432216813,430.12891201105856" />
  <polygon fill="beige" points="400.19980558562054,436.82324151188027 400.19980558562054,338.26643155862206 386.8111465839771,326.6715127405917 386.8111465839771,425.2283226938499" />
  <polygon fill="bisque" points="400.19980558562054,338.26643155862206 386.8111465839771,326.6715127405917 410.0009842200379,319.97718323977 423.3896432216813,331.5721020578004" />
</svg>
