<?xml version="1.0" encoding="UTF-8"?>
<svg
  xmlns="http://www.w3.org/2000/svg"
  width="848"
  height="600"
  style="background-color:white"
>
  <polygon fill="lightblue" points="314.38965188062707,499.34688030882853 198.20015149440454,398.723821321338 533.6103481193729,301.89923766615254 649.7998485055955,402.5222966536431" />
  <polygon fill="steelblue" points="198.20015149440454,398.723821321338 198.20015149440454,197.47770334635692 533.6103481193729,100.65311969117147 533.6103481193729,301.89923766615254" />
  <polygon fill="lightskyblue" points="649.7998485055955,402.5222966536431 649.7998485055955,201.276178678662 533.6103481193729,100.65311969117147 533.6103481193729,301.89923766615254" />
  <polygon fill="white" points="603.3240483511065,362.27307305864684 603.3240483511065,228.10899440865947 580.0861482738619,207.98438261116138 580.0861482738619,342.1484612611488" />
  <polygon fill="white" points="229.3453840381516,336.0673356647901 229.3453840381516,282.4017042047951 262.88640370064843,272.7192458392766 262.88640370064843,326.3848772992716" />
  <polygon fill="white" points="277.26112641314705,322.2352522854779 277.26112641314705,268.56962082548296 310.8021460756439,258.8871624599644 310.8021460756439,312.55279391995936" />
  <polygon fill="white" points="325.1768687881426,308.40316890616566 325.1768687881426,254.73753744617073 358.7178884506394,245.05507908065218 358.7178884506394,298.72071054064713" />
  <polygon fill="white" points="373.0926111631381,294.5710855268535 373.0926111631381,240.9054540668585 406.6336308256349,231.22299570133998 406.6336308256349,284.8886271613349" />
  <polygon fill="white" points="421.0083535381336,280.73900214754127 421.0083535381336,227.07337068754632 454.54937320063044,217.39091232202776 454.54937320063044,271.0565437820227" />
  <polygon fill="white" points="468.924095913129,266.90691876822905 468.924095913129,213.24128730823412 502.4651155756259,203.55882894271556 502.4651155756259,257.2244604027105" />
</svg>
