<?xml version="1.0" encoding="UTF-8"?>
<svg
  xmlns="http://www.w3.org/2000/svg"
  width="848"
  height="600"
  style="background-color:white"
>
  <polygon fill="lightblue" points="304.64892126439804,517.0622173512692 178.13402146913563,407.4971001713293 543.351078735602,302.0680170086106 669.8659785308644,411.6331341885505" />
  <polygon fill="steelblue" points="178.13402146913563,407.4971001713293 178.13402146913563,188.3668658114495 543.351078735602,82.9377826487308 543.351078735602,302.0680170086106" />
  <polygon fill="lightskyblue" points="669.8659785308644,411.6331341885505 669.8659785308644,192.5028998286707 543.351078735602,82.9377826487308 543.351078735602,302.0680170086106" />
  <polygon fill="white" points="619.2600186127594,367.80708731657455 619.2600186127594,221.72026440998798 593.957038653707,199.80724097400002 593.957038653707,345.8940638805866" />
  <polygon fill="white" points="212.0470339295932,339.2725275721565 212.0470339295932,280.8377984095219 248.56873965623987,270.29489009325005 248.56873965623987,328.72961925588464" />
  <polygon fill="white" points="264.2208992533741,324.2112299774824 264.2208992533741,265.7765008148478 300.74260498002076,255.23359249857592 300.74260498002076,313.66832166121054" />
  <polygon fill="white" points="316.39476457715506,309.1499323828083 316.39476457715506,250.7152032201737 352.91647030380165,240.17229490390181 352.91647030380165,298.60702406653644" />
  <polygon fill="white" points="368.56862990093595,294.0886347881342 368.56862990093595,235.6539056254996 405.0903356275826,225.11099730922774 405.0903356275826,283.54572647186234" />
  <polygon fill="white" points="420.74249522471683,279.0273371934601 420.74249522471683,220.5926080308255 457.2642009513635,210.0496997145536 457.2642009513635,268.48442887718824" />
  <polygon fill="white" points="472.9163605484977,263.966039598786 472.9163605484977,205.5313104361514 509.43806627514437,194.98840211987954 509.43806627514437,253.42313128251413" />
  <polygon fill="antiquewhite" points="494.8334345707743,414.708425187233 494.8334345707742,290.5346257166344 524.0507991520916,282.10029906361694 524.0507991520916,406.2740985342155" />
  <polygon fill="beige" points="494.8334345707743,414.708425187233 494.8334345707742,290.5346257166344 477.96478126473926,275.9259434259758 477.96478126473926,400.09974289657436" />
  <polygon fill="bisque" points="494.8334345707742,290.5346257166344 477.96478126473926,275.9259434259758 507.1821458460566,267.4916167729583 524.0507991520916,282.10029906361694" />
  <polygon fill="antiquewhite" points="325.6357681142721,494.3830960844018 325.6357681142721,370.2092966138032 354.8531326955894,361.7749699607857 354.8531326955894,485.9487694313842" />
  <polygon fill="beige" points="325.6357681142721,494.3830960844018 325.6357681142721,370.2092966138032 308.7671148082371,355.60061432314455 308.7671148082371,479.77441379374307" />
  <polygon fill="bisque" points="325.6357681142721,370.2092966138032 308.7671148082371,355.60061432314455 337.9844793895544,347.166287670127 354.8531326955894,361.7749699607857" />
  <polygon fill="antiquewhite" points="484.9976182276184,339.2733820451123 484.9976182276184,215.0995825745138 514.2149828089357,206.66525592149628 514.2149828089357,330.83905539209485" />
  <polygon fill="beige" points="484.9976182276184,339.2733820451123 484.9976182276184,215.0995825745138 468.12896492158336,200.49090028385513 468.12896492158336,324.6646997544537" />
  <polygon fill="bisque" points="484.9976182276184,215.0995825745138 468.12896492158336,200.49090028385513 497.34632950290074,192.05657363083762 514.2149828089357,206.66525592149628" />
  <polygon fill="antiquewhite" points="436.39866069838496,375.61246553381176 436.39866069838496,251.4386660632132 465.6160252797023,243.0043394101957 465.6160252797023,367.1781388807943" />
  <polygon fill="beige" points="436.39866069838496,375.61246553381176 436.39866069838496,251.4386660632132 419.53000739234994,236.82998377255453 419.53000739234994,361.00378324315307" />
  <polygon fill="bisque" points="436.39866069838496,251.4386660632132 419.53000739234994,236.82998377255453 448.74737197366727,228.39565711953702 465.6160252797023,243.0043394101957" />
</svg>
