<?xml version="1.0" encoding="UTF-8"?>
<svg
  xmlns="http://www.w3.org/2000/svg"
  width="848"
  height="600"
  style="background-color:white"
>
  <polygon fill="lightblue" points="282.49364905389035,600.6569860407207 132.49364905389035,470.75317547305485 565.5063509461097,345.7531754730548 715.5063509461097,475.6569860407206" />
  <polygon fill="steelblue" points="132.49364905389035,470.75317547305485 132.49364905389035,124.3430139592794 565.5063509461097,-0.6569860407206534 565.5063509461097,345.7531754730548" />
  <polygon fill="lightskyblue" points="715.5063509461097,475.6569860407206 715.5063509461097,129.24682452694515 565.5063509461097,-0.6569860407206534 565.5063509461097,345.7531754730548" />
  <polygon fill="white" points="655.5063509461096,423.6954618136543 655.5063509461096,250.49038105676655 625.5063509461097,224.50961894323342 625.5063509461097,397.7146997001211" />
  <polygon fill="white" points="172.70197137245356,389.8640003131569 172.70197137245356,320.5819680104018 216.0032415616755,308.0819680104018 216.0032415616755,377.3640003131569" />
  <polygon fill="white" points="234.56092878562777,372.006857456014 234.56092878562777,302.72482515325896 277.86219897484966,290.2248251532589 277.86219897484966,359.506857456014" />
  <polygon fill="white" points="296.4198861988019,354.1497145988712 296.4198861988019,284.8676822961161 339.72115638802387,272.3676822961161 339.72115638802387,341.6497145988712" />
  <polygon fill="white" points="358.27884361197613,336.2925717417283 358.27884361197613,267.0105394389732 401.5801138011981,254.51053943897318 401.5801138011981,323.7925717417283" />
  <polygon fill="white" points="420.13780102515034,318.4354288845854 420.13780102515034,249.15339658183035 463.4390712143723,236.65339658183035 463.4390712143723,305.9354288845854" />
  <polygon fill="white" points="481.9967584383245,300.5782860274426 481.9967584383245,231.29625372468746 525.2980286275464,218.79625372468746 525.2980286275464,288.0782860274426" />
</svg>
