<?xml version="1.0" encoding="UTF-8"?>
<svg
  xmlns="http://www.w3.org/2000/svg"
  width="848"
  height="600"
  style="background-color:white"
>
  <polygon fill="lightblue" points="315.5623485264038,530.3962843180211 200.61593366737085,430.8497689761534 532.4376514735961,335.06108992695926 647.3840663326291,434.6076052688269" />
  <polygon fill="steelblue" points="200.61593366737085,430.8497689761534 200.61593366737085,165.39239473117314 532.4376514735961,69.60371568197894 532.4376514735961,335.06108992695926" />
  <polygon fill="lightskyblue" points="647.3840663326291,434.6076052688269 647.3840663326291,169.15023102384657 532.4376514735961,69.60371568197894 532.4376514735961,335.06108992695926" />
  <polygon fill="white" points="601.405500389016,394.7889991320798 601.405500389016,262.06031200958967 578.4162174172094,242.15100894121616 578.4162174172094,374.8796960637063" />
  <polygon fill="white" points="250.38919133830467,363.38999226977825 250.38919133830467,310.29851742078216 283.5713631189272,300.7196495158627 283.5713631189272,353.8111243648588" />
  <polygon fill="white" points="316.7535348995497,344.2322564599394 316.7535348995497,291.14078161094335 349.93570668017225,281.5619137060239 349.93570668017225,334.65338855502" />
  <polygon fill="white" points="383.11787846079477,325.07452065010057 383.11787846079477,271.9830458011045 416.30005024141735,262.4041778961851 416.30005024141735,315.49565274518113" />
  <polygon fill="white" points="449.4822220220399,305.91678484026176 449.4822220220399,252.82530999126567 482.6643938026624,243.24644208634624 482.6643938026624,296.3379169353423" />
  <polygon fill="antiquewhite" points="488.35644630979095,437.4016925701555 488.35644630979095,324.5823085160389 514.902183734289,316.91921419210337 514.902183734289,429.73859824621996" />
  <polygon fill="beige" points="488.35644630979095,437.4016925701555 488.35644630979095,324.5823085160389 473.03025766191985,311.30943980378987 473.0302576619199,424.12882385790647" />
  <polygon fill="bisque" points="488.35644630979095,324.5823085160389 473.03025766191985,311.30943980378987 499.57599508641795,303.64634547985435 514.902183734289,316.91921419210337" />
</svg>
