<?xml version="1.0" encoding="UTF-8"?>
<svg
  xmlns="http://www.w3.org/2000/svg"
  width="848"
  height="600"
  style="background-color:white"
>
  <polygon fill="lightblue" points="304.64892126439804,517.0622173512692 178.13402146913563,407.4971001713293 543.351078735602,302.0680170086106 669.8659785308644,411.6331341885505" />
  <polygon fill="steelblue" points="178.13402146913563,407.4971001713293 178.13402146913563,188.3668658114495 543.351078735602,82.9377826487308 543.351078735602,302.0680170086106" />
  <polygon fill="lightskyblue" points="669.8659785308644,411.6331341885505 669.8659785308644,192.5028998286707 543.351078735602,82.9377826487308 543.351078735602,302.0680170086106" />
  <polygon fill="white" points="619.2600186127594,367.80708731657455 619.2600186127594,221.72026440998798 593.957038653707,199.80724097400002 593.957038653707,345.8940638805866" />
  <polygon fill="white" points="232.9165800591056,333.2480085342869 232.9165800591056,274.81327937165224 269.4382857857522,264.2703710553804 269.4382857857522,322.705100218015" />
  <polygon fill="white" points="305.95999151239886,312.16219190174314 305.95999151239886,253.72746273910852 342.4816972390455,243.18455442283664 342.4816972390455,301.61928358547124" />
  <polygon fill="white" points="379.00340296569215,291.0763752691994 379.0034029656921,232.6416461065648 415.52510869233873,222.0987377902929 415.52510869233873,280.53346695292754" />
  <polygon fill="white" points="452.0468144189854,269.99055863665563 452.0468144189854,211.55582947402104 488.568520145632,201.01292115774913 488.568520145632,259.4476503203838" />
  <polygon fill="antiquewhite" points="494.8334345707743,414.708425187233 494.8334345707742,290.5346257166344 524.0507991520916,282.10029906361694 524.0507991520916,406.2740985342155" />
  <polygon fill="beige" points="494.8334345707743,414.708425187233 494.8334345707742,290.5346257166344 477.96478126473926,275.9259434259758 477.96478126473926,400.09974289657436" />
  <polygon fill="bisque" points="494.8334345707742,290.5346257166344 477.96478126473926,275.9259434259758 507.1821458460566,267.4916167729583 524.0507991520916,282.10029906361694" />
</svg>
