<?xml version="1.0" encoding="UTF-8"?>
<svg
  xmlns="http://www.w3.org/2000/svg"
  width="848"
  height="600"
  style="background-color:white"
>
  <polygon fill="lightblue" points="304.64892126439804,517.0622173512692 178.13402146913563,407.4971001713293 543.351078735602,302.0680170086106 669.8659785308644,411.6331341885505" />
  <polygon fill="steelblue" points="178.13402146913563,407.4971001713293 178.13402146913563,188.3668658114495 543.351078735602,82.9377826487308 543.351078735602,302.0680170086106" />
  <polygon fill="lightskyblue" points="669.8659785308644,411.6331341885505 669.8659785308644,192.5028998286707 543.351078735602,82.9377826487308 543.351078735602,302.0680170086106" />
  <polygon fill="white" points="251.1774329224289,327.97655437615094 251.1774329224289,269.54182521351635 287.6991386490755,258.99891689724444 287.6991386490755,317.4336460598791" />
  <polygon fill="white" points="342.4816972390455,301.61928358547124 342.4816972390455,243.18455442283664 379.0034029656921,232.6416461065648 379.00340296569215,291.0763752691994" />
  <polygon fill="white" points="433.7859615556621,275.2620127947916 433.7859615556621,216.82728363215696 470.3076672823087,206.2843753158851 470.3076672823087,264.71910447851974" />
  <polygon fill="grey" points="527.9151896414991,162.87193184563128 527.9151896414991,126.35022611898464 564.4368953681457,115.80731780271279 564.4368953681457,152.3290235293594" />
  <polygon fill="lightgrey" points="527.9151896414991,162.87193184563128 527.9151896414991,126.35022611898464 506.8293730089554,108.08937325566131 506.8293730089554,144.61107898230796" />
  <polygon fill="darkgrey" points="527.9151896414991,126.35022611898464 506.8293730089554,108.08937325566131 543.351078735602,97.54646493938944 564.4368953681457,115.80731780271279" />
  <polygon fill="hsl(324.0,50.0%,54.496445229397835%)" points="452.76440520298155,412.4719244954697 452.76440520298155,362.30570950934793 461.5296145773767,359.7754115134427 461.5296145773767,409.94162649956445" />
  <polygon fill="hsl(324.0,50.0%,54.496445229397835%)" points="474.6774286389695,406.14617950570664 474.6774286389695,355.97996451958477 465.91221926457433,358.51026251549007 465.91221926457433,408.6764775016119" />
  <polygon fill="hsl(324.0,50.0%,54.496445229397835%)" points="443.9991958285863,365.33270270313557 443.9991958285863,315.66318291489614 451.6687540311821,313.44917216847904 451.6687540311821,363.11869195671846" />
  <polygon fill="hsl(324.0,50.0%,54.496445229397835%)" points="475.77307981076893,356.160372467979 475.77307981076893,306.4908526797396 483.44263801336473,304.2768419333225 483.44263801336473,353.9463617215619" />
  <polygon fill="hsl(324.0,50.0%,54.496445229397835%)" points="451.6687540311821,321.11873037107483 451.6687540311821,313.44917216847904 475.77307981076893,306.4908526797396 475.77307981076893,314.1604108823354" />
  <polygon fill="hsl(324.0,50.0%,54.496445229397835%)" points="452.76440520298155,362.8024047072303 452.76440520298155,313.1328849189909 474.6774286389695,306.8071399292278 474.6774286389695,356.47665971746716" />
  <polygon fill="hsl(324.0,50.0%,54.496445229397835%)" points="458.24266106197854,309.06797268213813 458.24266106197854,286.7166887774304 469.1991727799725,283.55381628254884 469.1991727799725,305.90510018725655" />
  <polygon fill="hsl(324.0,50.0%,54.496445229397835%)" points="460.43396340557734,310.9188741725738 460.43396340557734,286.0841142784541 467.0078704363737,284.1863907815252 467.0078704363737,309.02115067564483" />
  <polygon fill="hsl(324.0,50.0%,50.27546059214215%)" points="332.8457282530502,459.4220694083069 332.8457282530502,409.25585442218517 341.61093762744537,406.72555642627987 341.61093762744537,456.8917714124017" />
  <polygon fill="hsl(324.0,50.0%,50.27546059214215%)" points="354.75875168903815,453.0963244185439 354.75875168903815,402.930109432422 345.993542314643,405.46040742832724 345.993542314643,455.6266224144491" />
  <polygon fill="hsl(324.0,50.0%,50.27546059214215%)" points="324.08051887865497,412.28284761597274 324.08051887865497,362.6133278277333 331.75007708125077,360.39931708131627 331.75007708125077,410.0688368695557" />
  <polygon fill="hsl(324.0,50.0%,50.27546059214215%)" points="355.8544028608375,403.11051738081625 355.8544028608375,353.4409975925768 363.5239610634333,351.2269868461597 363.5239610634333,400.89650663439915" />
  <polygon fill="hsl(324.0,50.0%,50.27546059214215%)" points="331.75007708125077,368.06887528391206 331.75007708125077,360.39931708131627 355.8544028608375,353.4409975925768 355.8544028608375,361.1105557951726" />
  <polygon fill="hsl(324.0,50.0%,50.27546059214215%)" points="332.8457282530502,409.7525496200675 332.8457282530502,360.08302983182807 354.75875168903815,353.75728484206496 354.75875168903815,403.4268046303044" />
  <polygon fill="hsl(324.0,50.0%,50.27546059214215%)" points="338.3239841120472,356.01811759497537 338.3239841120472,333.6668336902676 349.28049583004116,330.50396119538607 349.28049583004116,352.8552451000938" />
  <polygon fill="hsl(324.0,50.0%,50.27546059214215%)" points="340.515286455646,357.869019085411 340.515286455646,333.0342591912913 347.08919348644235,331.13653569436235 347.08919348644235,355.97129558848206" />
</svg>
