<?xml version="1.0" encoding="UTF-8"?>
<svg
  xmlns="http://www.w3.org/2000/svg"
  width="848"
  height="600"
  style="background-color:white"
>
  <polygon fill="lightblue" points="323.3354015553923,544.684563721672 216.6286024206904,452.27376491449684 524.6645984446077,363.35143230224526 631.3713975793096,455.76223110942044" />
  <polygon fill="steelblue" points="216.6286024206904,452.27376491449684 216.6286024206904,144.23776889057953 524.6645984446077,55.31543627832795 524.6645984446077,363.35143230224526" />
  <polygon fill="lightskyblue" points="631.3713975793096,455.76223110942044 631.3713975793096,147.72623508550316 524.6645984446077,55.31543627832795 524.6645984446077,363.35143230224526" />
  <polygon fill="white" points="588.6886779254288,418.79791158655036 588.6886779254288,295.58351317698344 567.3473180984885,277.10135341554843 567.3473180984885,400.31575182511534" />
  <polygon fill="white" points="303.9054679608003,377.79334464386545 303.9054679608003,328.5075852800387 334.70906756319204,319.61535201881355 334.70906756319204,368.90111138264035" />
  <polygon fill="white" points="406.58413330210607,348.15256710644826 406.58413330210607,298.86680774262146 437.3877329044978,289.9745744813963 437.3877329044978,339.2603338452231" />
  <polygon fill="antiquewhite" points="483.7432325125052,458.3560319930177 483.7432325125052,353.6237933448858 508.3861121944186,346.5100067359057 508.3861121944186,451.2422453840376" />
  <polygon fill="beige" points="483.7432325125052,458.3560319930177 483.7432325125052,353.6237933448858 469.51565929454495,341.3023535039291 469.51565929454495,446.034592152061" />
  <polygon fill="bisque" points="483.7432325125052,353.6237933448858 469.51565929454495,341.3023535039291 494.1585389764583,334.18856689494896 508.3861121944186,346.5100067359057" />
  <polygon fill="antiquewhite" points="341.03639373026124,525.5562520248565 341.03639373026124,420.82401337672457 365.67927341217455,413.7102267677444 365.6792734121746,518.4424654158763" />
  <polygon fill="beige" points="341.03639373026124,525.5562520248565 341.03639373026124,420.82401337672457 326.80882051230094,408.50257353576785 326.80882051230094,513.2348121838997" />
  <polygon fill="bisque" points="341.03639373026124,420.82401337672457 326.80882051230094,408.50257353576785 351.45170019421437,401.3887869267877 365.67927341217455,413.7102267677444" />
  <polygon fill="antiquewhite" points="475.4473837187787,394.73165249850643 475.4473837187787,289.99941385037454 500.09026340069215,282.8856272413944 500.09026340069215,387.6178658895263" />
  <polygon fill="beige" points="475.4473837187787,394.73165249850643 475.4473837187787,289.99941385037454 461.2198105008185,277.6779740094178 461.2198105008185,382.4102126575497" />
  <polygon fill="bisque" points="475.4473837187787,289.99941385037454 461.2198105008185,277.6779740094178 485.86269018273185,270.56418740043773 500.09026340069215,282.8856272413944" />
</svg>
