<?xml version="1.0" encoding="UTF-8"?>
<svg
  xmlns="http://www.w3.org/2000/svg"
  width="848"
  height="600"
  style="background-color:white"
>
  <polygon fill="lightblue" points="323.3354015553923,544.684563721672 216.6286024206904,452.27376491449684 524.6645984446077,363.35143230224526 631.3713975793096,455.76223110942044" />
  <polygon fill="steelblue" points="216.6286024206904,452.27376491449684 216.6286024206904,144.23776889057953 524.6645984446077,55.31543627832795 524.6645984446077,363.35143230224526" />
  <polygon fill="lightskyblue" points="631.3713975793096,455.76223110942044 631.3713975793096,147.72623508550316 524.6645984446077,55.31543627832795 524.6645984446077,363.35143230224526" />
  <polygon fill="white" points="588.6886779254288,418.79791158655036 588.6886779254288,295.58351317698344 567.3473180984885,277.10135341554843 567.3473180984885,400.31575182511534" />
  <polygon fill="white" points="245.23194490862556,394.7309318081039 245.23194490862556,345.4451724442771 276.0355445110173,336.55293918305193 276.0355445110173,385.83869854687873" />
  <polygon fill="white" points="289.23708719775664,382.0277414349251 289.23708719775664,332.7419820710983 320.04068680014836,323.8497488098731 320.04068680014836,373.1355081736999" />
  <polygon fill="white" points="333.24222948688765,369.32455106174626 333.24222948688765,320.03879169791946 364.0458290892794,311.1465584366943 364.0458290892794,360.4323178005211" />
  <polygon fill="white" points="377.2473717760187,356.62136068856745 377.2473717760187,307.3356013247407 408.05097137841045,298.44336806351555 408.05097137841045,347.7291274273423" />
  <polygon fill="white" points="421.2525140651498,343.9181703153887 421.25251406514974,294.6324109515619 452.0561136675415,285.74017769033674 452.0561136675415,335.0259370541635" />
  <polygon fill="white" points="465.2576563542808,331.2149799422099 465.2576563542808,281.9292205783831 496.06125595667254,273.0369873171579 496.06125595667254,322.3227466809847" />
  <polygon fill="antiquewhite" points="483.7432325125052,458.3560319930177 483.7432325125052,353.6237933448858 508.3861121944186,346.5100067359057 508.3861121944186,451.2422453840376" />
  <polygon fill="beige" points="483.7432325125052,458.3560319930177 483.7432325125052,353.6237933448858 469.51565929454495,341.3023535039291 469.51565929454495,446.034592152061" />
  <polygon fill="bisque" points="483.7432325125052,353.6237933448858 469.51565929454495,341.3023535039291 494.1585389764583,334.18856689494896 508.3861121944186,346.5100067359057" />
</svg>
