<?xml version="1.0" encoding="UTF-8"?>
<svg
  xmlns="http://www.w3.org/2000/svg"
  width="848"
  height="600"
  style="background-color:white"
>
  <polygon fill="lightblue" points="329.07465401096715,501.686837609177 228.4515950234766,414.54471231951015 518.9253459890328,330.692163163268 619.5484049765234,417.83428845293486" />
  <polygon fill="steelblue" points="228.4515950234766,414.54471231951015 228.4515950234766,182.16571154706514 518.9253459890328,98.31316239082298 518.9253459890328,330.692163163268" />
  <polygon fill="lightskyblue" points="619.5484049765234,417.83428845293486 619.5484049765234,185.45528768048985 518.9253459890328,98.31316239082298 518.9253459890328,330.692163163268" />
  <polygon fill="white" points="579.2991813815272,382.9774383370681 579.2991813815272,266.7879379508456 559.1745695840291,249.35951289291225 559.1745695840291,365.5490132791347" />
  <polygon fill="white" points="272.0226576683101,355.4910297915848 272.0226576683101,309.0152296370958 301.0700327648657,300.62997472147157 301.0700327648657,347.1057748759606" />
  <polygon fill="white" points="330.11740786142127,338.7205199603364 330.11740786142127,292.24471980584735 359.1647829579769,283.85946489022314 359.1647829579769,330.3352650447122" />
  <polygon fill="white" points="388.21215805453255,321.95001012908796 388.21215805453255,275.4742099745989 417.2595331510882,267.08895505897476 417.2595331510882,313.56475521346374" />
  <polygon fill="white" points="446.3069082476438,305.1795002978395 446.3069082476438,258.7037001433505 475.3542833441994,250.3184452277263 475.3542833441994,296.7942453822153" />
</svg>
