<?xml version="1.0" encoding="UTF-8"?>
<svg
  xmlns="http://www.w3.org/2000/svg"
  width="848"
  height="600"
  style="background-color:white"
>
  <polygon fill="lightblue" points="315.5623485264038,530.3962843180211 200.61593366737085,430.8497689761534 532.4376514735961,335.06108992695926 647.3840663326291,434.6076052688269" />
  <polygon fill="steelblue" points="200.61593366737085,430.8497689761534 200.61593366737085,165.39239473117314 532.4376514735961,69.60371568197894 532.4376514735961,335.06108992695926" />
  <polygon fill="lightskyblue" points="647.3840663326291,434.6076052688269 647.3840663326291,169.15023102384657 532.4376514735961,69.60371568197894 532.4376514735961,335.06108992695926" />
  <polygon fill="white" points="601.405500389016,394.7889991320798 601.405500389016,262.06031200958967 578.4162174172094,242.15100894121616 578.4162174172094,374.8796960637063" />
  <polygon fill="white" points="231.42795032080605,368.8636310725893 231.42795032080605,315.77215622359324 264.6101221014286,306.19328831867386 264.6101221014286,359.2847631676699" />
  <polygon fill="white" points="278.83105286455253,355.1795340655616 278.83105286455253,302.0880592165655 312.01322464517506,292.50919131164613 312.01322464517506,345.60066616064216" />
  <polygon fill="white" points="326.234155408299,341.49543705853387 326.234155408299,288.4039622095378 359.41632718892157,278.82509430461835 359.41632718892157,331.91656915361443" />
  <polygon fill="white" points="373.6372579520455,327.8113400515061 373.6372579520455,274.71986520251005 406.819429732668,265.1409972975906 406.819429732668,318.2324721465867" />
  <polygon fill="white" points="421.040360495792,314.12724304447835 421.04036049579196,261.0357681954823 454.22253227641454,251.45690029056288 454.22253227641454,304.54837513955897" />
  <polygon fill="white" points="468.4434630395384,300.4431460374506 468.4434630395384,247.3516711884546 501.625634820161,237.77280328353515 501.625634820161,290.86427813253124" />
  <polygon fill="antiquewhite" points="488.35644630979095,437.4016925701555 488.35644630979095,324.5823085160389 514.902183734289,316.91921419210337 514.902183734289,429.73859824621996" />
  <polygon fill="beige" points="488.35644630979095,437.4016925701555 488.35644630979095,324.5823085160389 473.03025766191985,311.30943980378987 473.0302576619199,424.12882385790647" />
  <polygon fill="bisque" points="488.35644630979095,324.5823085160389 473.03025766191985,311.30943980378987 499.57599508641795,303.64634547985435 514.902183734289,316.91921419210337" />
</svg>
