<?xml version="1.0" encoding="UTF-8"?>
<svg
  xmlns="http://www.w3.org/2000/svg"
  width="848"
  height="600"
  style="background-color:white"
>
  <polygon fill="lightblue" points="282.49364905389035,600.6569860407207 132.49364905389035,470.75317547305485 565.5063509461097,345.7531754730548 715.5063509461097,475.6569860407206" />
  <polygon fill="steelblue" points="132.49364905389035,470.75317547305485 132.49364905389035,124.3430139592794 565.5063509461097,-0.6569860407206534 565.5063509461097,345.7531754730548" />
  <polygon fill="lightskyblue" points="715.5063509461097,475.6569860407206 715.5063509461097,129.24682452694515 565.5063509461097,-0.6569860407206534 565.5063509461097,345.7531754730548" />
  <polygon fill="white" points="655.5063509461096,423.6954618136543 655.5063509461096,250.49038105676655 625.5063509461097,224.50961894323342 625.5063509461097,397.7146997001211" />
  <polygon fill="white" points="197.44555433772325,382.72114317029974 197.44555433772325,313.4391108675446 240.74682452694518,300.9391108675446 240.74682452694518,370.22114317029974" />
  <polygon fill="white" points="284.0480947161671,357.72114317029974 284.0480947161671,288.4391108675446 327.34936490538905,275.9391108675446 327.34936490538905,345.22114317029974" />
  <polygon fill="white" points="370.65063509461095,332.72114317029974 370.65063509461095,263.4391108675446 413.9519052838329,250.93911086754463 413.9519052838329,320.22114317029974" />
  <polygon fill="white" points="457.2531754730548,307.72114317029974 457.2531754730548,238.43911086754463 500.55444566227675,225.93911086754463 500.55444566227675,295.2211431702997" />
</svg>
