<?xml version="1.0" encoding="UTF-8"?>
<svg
  xmlns="http://www.w3.org/2000/svg"
  width="848"
  height="600"
  style="background-color:white"
>
  <polygon fill="lightblue" points="323.3354015553923,544.684563721672 216.6286024206904,452.27376491449684 524.6645984446077,363.35143230224526 631.3713975793096,455.76223110942044" />
  <polygon fill="steelblue" points="216.6286024206904,452.27376491449684 216.6286024206904,144.23776889057953 524.6645984446077,55.31543627832795 524.6645984446077,363.35143230224526" />
  <polygon fill="lightskyblue" points="631.3713975793096,455.76223110942044 631.3713975793096,147.72623508550316 524.6645984446077,55.31543627832795 524.6645984446077,363.35143230224526" />
  <polygon fill="white" points="588.6886779254288,418.79791158655036 588.6886779254288,295.58351317698344 567.3473180984885,277.10135341554843 567.3473180984885,400.31575182511534" />
  <polygon fill="white" points="278.23580162547387,385.2035390282198 278.23580162547387,335.917779664393 309.0394012278656,327.0255464031678 309.0394012278656,376.3113057669946" />
  <polygon fill="white" points="355.2448006314532,362.97295587515686 355.2448006314532,313.6871965113301 386.0484002338449,304.79496325010496 386.0484002338449,354.0807226139317" />
  <polygon fill="white" points="432.2537996374325,340.742372722094 432.2537996374325,291.4566133582672 463.05739923982424,282.56438009704203 463.05739923982424,331.8501394608688" />
  <polygon fill="antiquewhite" points="483.7432325125052,458.3560319930177 483.7432325125052,353.6237933448858 508.3861121944186,346.5100067359057 508.3861121944186,451.2422453840376" />
  <polygon fill="beige" points="483.7432325125052,458.3560319930177 483.7432325125052,353.6237933448858 469.51565929454495,341.3023535039291 469.51565929454495,446.034592152061" />
  <polygon fill="bisque" points="483.7432325125052,353.6237933448858 469.51565929454495,341.3023535039291 494.1585389764583,334.18856689494896 508.3861121944186,346.5100067359057" />
</svg>
