<?xml version="1.0" encoding="UTF-8"?>
<svg
  xmlns="http://www.w3.org/2000/svg"
  width="848"
  height="600"
  style="background-color:white"
>
  <polygon fill="lightblue" points="315.5623485264038,530.3962843180211 200.61593366737085,430.8497689761534 532.4376514735961,335.06108992695926 647.3840663326291,434.6076052688269" />
  <polygon fill="steelblue" points="200.61593366737085,430.8497689761534 200.61593366737085,165.39239473117314 532.4376514735961,69.60371568197894 532.4376514735961,335.06108992695926" />
  <polygon fill="lightskyblue" points="647.3840663326291,434.6076052688269 647.3840663326291,169.15023102384657 532.4376514735961,69.60371568197894 532.4376514735961,335.06108992695926" />
  <polygon fill="white" points="601.405500389016,394.7889991320798 601.405500389016,262.06031200958967 578.4162174172094,242.15100894121616 578.4162174172094,374.8796960637063" />
  <polygon fill="white" points="239.32846741143047,366.58294823808467 239.32846741143047,313.49147338908864 272.510639192053,303.9126054841692 272.510639192053,357.0040803331653" />
  <polygon fill="white" points="294.63208704580137,350.61816839655233 294.63208704580137,297.5266935475563 327.8142588264239,287.9478256426369 327.8142588264239,341.0393004916329" />
  <polygon fill="white" points="349.93570668017225,334.65338855502 349.93570668017225,281.5619137060239 383.11787846079477,271.9830458011045 383.11787846079477,325.07452065010057" />
  <polygon fill="white" points="405.2393263145432,318.6886087134876 405.2393263145432,265.5971338644916 438.4214980951657,256.01826595957215 438.4214980951657,309.1097408085682" />
  <polygon fill="white" points="460.54294594891405,302.7238288719552 460.54294594891405,249.6323540229592 493.7251177295366,240.05348611803976 493.7251177295366,293.14496096703584" />
  <polygon fill="antiquewhite" points="488.35644630979095,437.4016925701555 488.35644630979095,324.5823085160389 514.902183734289,316.91921419210337 514.902183734289,429.73859824621996" />
  <polygon fill="beige" points="488.35644630979095,437.4016925701555 488.35644630979095,324.5823085160389 473.03025766191985,311.30943980378987 473.0302576619199,424.12882385790647" />
  <polygon fill="bisque" points="488.35644630979095,324.5823085160389 473.03025766191985,311.30943980378987 499.57599508641795,303.64634547985435 514.902183734289,316.91921419210337" />
  <polygon fill="antiquewhite" points="334.63016432116405,509.7909351773399 334.63016432116405,396.9715511232233 361.1759017456621,389.3084567992878 361.1759017456621,502.12784085340445" />
  <polygon fill="beige" points="334.63016432116405,509.7909351773399 334.63016432116405,396.9715511232233 319.303975673293,383.6986824109743 319.303975673293,496.5180664650909" />
  <polygon fill="bisque" points="334.63016432116405,396.9715511232233 319.303975673293,383.6986824109743 345.849713097791,376.0355880870387 361.1759017456621,389.3084567992878" />
  <polygon fill="antiquewhite" points="479.4200140975592,368.86440741279137 479.4200140975592,256.0450233586747 505.9657515220573,248.3819290347392 505.9657515220573,361.20131308885584" />
  <polygon fill="beige" points="479.4200140975592,368.86440741279137 479.4200140975592,256.0450233586747 464.09382544968815,242.77215464642572 464.09382544968815,355.59153870054234" />
  <polygon fill="bisque" points="479.4200140975592,256.0450233586747 464.09382544968815,242.77215464642572 490.6395628741862,235.10906032249017 505.9657515220573,248.3819290347392" />
</svg>
