<?xml version="1.0" encoding="UTF-8"?>
<svg
  xmlns="http://www.w3.org/2000/svg"
  width="848"
  height="600"
  style="background-color:white"
>
  <polygon fill="lightblue" points="282.49364905389035,643.9582562299425 132.49364905389035,514.0544456622767 565.5063509461097,389.05444566227675 715.5063509461097,518.9582562299425" />
  <polygon fill="steelblue" points="132.49364905389035,514.0544456622767 132.49364905389035,81.04174377005745 565.5063509461097,-43.95825622994255 565.5063509461097,389.05444566227675" />
  <polygon fill="lightskyblue" points="715.5063509461097,518.9582562299425 715.5063509461097,85.94555433772325 565.5063509461097,-43.95825622994255 565.5063509461097,389.05444566227675" />
  <polygon fill="white" points="655.5063509461096,466.99673200287623 655.5063509461096,293.7916512459885 625.5063509461097,267.8108891324553 625.5063509461097,441.01596988934307" />
  <polygon fill="white" points="183.0117976079826,430.1890800261884 183.0117976079826,360.90704772343327 226.31306779720455,348.40704772343327 226.31306779720455,417.6890800261883" />
  <polygon fill="white" points="255.18058125668583,409.355746692855 255.18058125668583,340.0737143900999 298.48185144590775,327.5737143900999 298.48185144590775,396.855746692855" />
  <polygon fill="white" points="327.34936490538905,388.5224133595217 327.34936490538905,319.2403810567666 370.65063509461095,306.7403810567666 370.65063509461095,376.0224133595217" />
  <polygon fill="white" points="399.51814855409225,367.6890800261883 399.51814855409225,298.4070477234332 442.8194187433142,285.9070477234332 442.8194187433142,355.1890800261883" />
  <polygon fill="white" points="471.6869322027955,346.85574669285495 471.6869322027955,277.5737143900999 514.9882023920175,265.0737143900999 514.9882023920175,334.35574669285495" />
</svg>
