<?xml version="1.0" encoding="UTF-8"?>
<svg
  xmlns="http://www.w3.org/2000/svg"
  width="848"
  height="600"
  style="background-color:white"
>
  <polygon fill="lightblue" points="282.49364905389035,687.2595264191646 132.49364905389035,557.3557158514986 565.5063509461097,432.35571585149864 715.5063509461097,562.2595264191646" />
  <polygon fill="steelblue" points="132.49364905389035,557.3557158514986 132.49364905389035,37.7404735808355 565.5063509461097,-87.2595264191645 565.5063509461097,432.35571585149864" />
  <polygon fill="lightskyblue" points="715.5063509461097,562.2595264191646 715.5063509461097,42.6442841485013 565.5063509461097,-87.2595264191645 565.5063509461097,432.35571585149864" />
  <polygon fill="white" points="655.5063509461096,510.2980021920981 655.5063509461096,337.0929214352104 625.5063509461097,311.11215932167727 625.5063509461097,484.31724007856496" />
  <polygon fill="white" points="172.7019713724536,476.46654069160076 172.70197137245356,407.18450838884564 216.0032415616755,394.68450838884564 216.0032415616755,463.96654069160076" />
  <polygon fill="white" points="234.56092878562777,458.6093978344579 234.56092878562777,389.3273655317028 277.86219897484966,376.8273655317028 277.86219897484966,446.1093978344579" />
  <polygon fill="white" points="296.4198861988019,440.75225497731503 296.4198861988019,371.4702226745599 339.72115638802387,358.9702226745599 339.72115638802387,428.25225497731503" />
  <polygon fill="white" points="358.2788436119762,422.89511212017214 358.27884361197613,353.61307981741703 401.5801138011981,341.11307981741703 401.5801138011981,410.39511212017214" />
  <polygon fill="white" points="420.13780102515034,405.0379692630293 420.13780102515034,335.7559369602742 463.4390712143723,323.2559369602742 463.4390712143723,392.5379692630293" />
  <polygon fill="white" points="481.9967584383245,387.1808264058865 481.9967584383245,317.8987941031313 525.2980286275464,305.3987941031313 525.2980286275465,374.6808264058865" />
</svg>
