<?xml version="1.0" encoding="UTF-8"?>
<svg
  xmlns="http://www.w3.org/2000/svg"
  width="848"
  height="600"
  style="background-color:white"
>
  <polygon fill="lightblue" points="304.64892126439804,517.0622173512692 178.13402146913563,407.4971001713293 543.351078735602,302.0680170086106 669.8659785308644,411.6331341885505" />
  <polygon fill="steelblue" points="178.13402146913563,407.4971001713293 178.13402146913563,188.3668658114495 543.351078735602,82.9377826487308 543.351078735602,302.0680170086106" />
  <polygon fill="lightskyblue" points="669.8659785308644,411.6331341885505 669.8659785308644,192.5028998286707 543.351078735602,82.9377826487308 543.351078735602,302.0680170086106" />
  <polygon fill="white" points="598.1742019802157,349.54623445325126 598.1742019802157,203.45941154666468 572.8712220211632,181.5463881106767 572.8712220211632,327.63321101726325" />
  <polygon fill="white" points="640.3458352453031,386.06794017989785 640.3458352453031,239.98111727331133 615.0428552862506,218.06809383732332 615.0428552862506,364.1549167439099" />
  <polygon fill="hsl(360.0,50.0%,66.3472556462705%)" points="501.7196064697913,363.7148303272731 501.7196064697913,313.5486153411513 510.4848158441865,311.01831734524603 510.4848158441865,361.18453233136785" />
  <polygon fill="hsl(360.0,50.0%,66.3472556462705%)" points="523.6326299057794,357.38908533751 523.6326299057794,307.22287035138817 514.8674205313841,309.7531683472934 514.8674205313841,359.9193833334152" />
  <polygon fill="hsl(360.0,50.0%,66.3472556462705%)" points="492.95439709539613,316.5756085349389 492.95439709539613,266.9060887466995 500.6239552979919,264.6920780002824 500.6239552979919,314.3615977885218" />
  <polygon fill="hsl(360.0,50.0%,66.3472556462705%)" points="524.7282810775787,307.4032782997824 524.7282810775787,257.733758511543 532.3978392801746,255.51974776512586 532.3978392801746,305.18926755336526" />
  <polygon fill="hsl(360.0,50.0%,66.3472556462705%)" points="500.6239552979919,272.3616362028782 500.6239552979919,264.6920780002824 524.7282810775787,257.733758511543 524.7282810775787,265.4033167141388" />
  <polygon fill="hsl(360.0,50.0%,66.3472556462705%)" points="501.7196064697913,314.04531053903366 501.7196064697913,264.37579075079424 523.6326299057794,258.05004576103113 523.6326299057794,307.71956554927056" />
  <polygon fill="hsl(360.0,50.0%,66.3472556462705%)" points="507.19786232878835,260.3108785139415 507.19786232878835,237.95959460923376 518.1543740467823,234.79672211435218 518.1543740467823,257.14800601905995" />
  <polygon fill="hsl(360.0,50.0%,66.3472556462705%)" points="509.3891646723871,262.16178000437714 509.3891646723871,237.32702011025745 515.9630717031835,235.42929661332852 515.9630717031835,260.26405650744823" />
  <polygon fill="hsl(360.0,50.0%,62.674776644420824%)" points="439.7274445858118,392.3404417943817 439.7274445858118,342.1742268082599 448.49265396020695,339.64392881235466 448.49265396020695,389.8101437984765" />
  <polygon fill="hsl(360.0,50.0%,62.674776644420824%)" points="461.64046802179973,386.0146968046186 461.64046802179973,335.8484818184968 452.8752586474045,338.37877981440204 452.8752586474045,388.5449948005239" />
  <polygon fill="hsl(360.0,50.0%,62.674776644420824%)" points="430.96223521141656,345.20122000204753 430.96223521141656,295.53170021380816 438.63179341401235,293.31768946739106 438.63179341401235,342.9872092556305" />
  <polygon fill="hsl(360.0,50.0%,62.674776644420824%)" points="462.7361191935991,336.02888976689104 462.7361191935991,286.3593699786516 470.4056773961949,284.1453592322345 470.4056773961949,333.81487902047394" />
  <polygon fill="hsl(360.0,50.0%,62.674776644420824%)" points="438.63179341401235,300.98724766998686 438.63179341401235,293.31768946739106 462.7361191935991,286.3593699786516 462.7361191935991,294.0289281812474" />
  <polygon fill="hsl(360.0,50.0%,62.674776644420824%)" points="439.7274445858118,342.6709220061423 439.7274445858118,293.00140221790286 461.64046802179973,286.67565722813976 461.64046802179973,336.3451770163792" />
  <polygon fill="hsl(360.0,50.0%,62.674776644420824%)" points="445.2057004448087,288.93648998105016 445.2057004448087,266.5852060763424 456.16221216280275,263.42233358146086 456.16221216280275,285.7736174861686" />
  <polygon fill="hsl(360.0,50.0%,62.674776644420824%)" points="447.3970027884076,290.7873914714858 447.3970027884076,265.9526315773661 453.97090981920394,264.05490808043714 453.97090981920394,288.88966797455686" />
  <polygon fill="hsl(360.0,50.0%,54.496445229397835%)" points="452.76440520298155,412.4719244954697 452.76440520298155,362.30570950934793 461.5296145773767,359.7754115134427 461.5296145773767,409.94162649956445" />
  <polygon fill="hsl(360.0,50.0%,54.496445229397835%)" points="474.6774286389695,406.14617950570664 474.6774286389695,355.97996451958477 465.91221926457433,358.51026251549007 465.91221926457433,408.6764775016119" />
  <polygon fill="hsl(360.0,50.0%,54.496445229397835%)" points="443.9991958285863,365.33270270313557 443.9991958285863,315.66318291489614 451.6687540311821,313.44917216847904 451.6687540311821,363.11869195671846" />
  <polygon fill="hsl(360.0,50.0%,54.496445229397835%)" points="475.77307981076893,356.160372467979 475.77307981076893,306.4908526797396 483.44263801336473,304.2768419333225 483.44263801336473,353.9463617215619" />
  <polygon fill="hsl(360.0,50.0%,54.496445229397835%)" points="451.6687540311821,321.11873037107483 451.6687540311821,313.44917216847904 475.77307981076893,306.4908526797396 475.77307981076893,314.1604108823354" />
  <polygon fill="hsl(360.0,50.0%,54.496445229397835%)" points="452.76440520298155,362.8024047072303 452.76440520298155,313.1328849189909 474.6774286389695,306.8071399292278 474.6774286389695,356.47665971746716" />
  <polygon fill="hsl(360.0,50.0%,54.496445229397835%)" points="458.24266106197854,309.06797268213813 458.24266106197854,286.7166887774304 469.1991727799725,283.55381628254884 469.1991727799725,305.90510018725655" />
  <polygon fill="hsl(360.0,50.0%,54.496445229397835%)" points="460.43396340557734,310.9188741725738 460.43396340557734,286.0841142784541 467.0078704363737,284.1863907815252 467.0078704363737,309.02115067564483" />
  <polygon fill="hsl(360.0,50.0%,52.725723603274666%)" points="426.48116640247747,425.23282392603926 426.48116640247747,375.0666089399174 435.24637577687264,372.53631094401214 435.2463757768727,422.702525930134" />
  <polygon fill="hsl(360.0,50.0%,52.725723603274666%)" points="448.3941898384654,418.9070789362761 448.3941898384654,368.7408639501543 439.62898046407025,371.2711619460595 439.62898046407025,421.43737693218134" />
  <polygon fill="hsl(360.0,50.0%,52.725723603274666%)" points="417.71595702808224,378.0936021337051 417.71595702808224,328.42408234546565 425.38551523067804,326.21007159904855 425.38551523067804,375.879591387288" />
  <polygon fill="hsl(360.0,50.0%,52.725723603274666%)" points="449.48984101026485,368.9212718985485 449.48984101026485,319.2517521103091 457.15939921286065,317.037741363892 457.15939921286065,366.7072611521314" />
  <polygon fill="hsl(360.0,50.0%,52.725723603274666%)" points="425.38551523067804,333.87962980164434 425.38551523067804,326.21007159904855 449.48984101026485,319.2517521103091 449.48984101026485,326.9213103129049" />
  <polygon fill="hsl(360.0,50.0%,52.725723603274666%)" points="426.48116640247747,375.56330413779983 426.48116640247747,325.8937843495604 448.3941898384654,319.56803935979724 448.3941898384654,369.23755914803667" />
  <polygon fill="hsl(360.0,50.0%,52.725723603274666%)" points="431.95942226147446,321.82887211270764 431.95942226147446,299.47758820799993 442.91593397946843,296.31471571311835 442.91593397946843,318.66599961782606" />
  <polygon fill="hsl(360.0,50.0%,52.725723603274666%)" points="434.15072460507326,323.6797736031433 434.15072460507326,298.8450137090236 440.7246316358696,296.94729021209463 440.7246316358696,321.78205010621434" />
  <polygon fill="hsl(360.0,50.0%,50.27546059214215%)" points="332.8457282530502,459.4220694083069 332.8457282530502,409.25585442218517 341.61093762744537,406.72555642627987 341.61093762744537,456.8917714124017" />
  <polygon fill="hsl(360.0,50.0%,50.27546059214215%)" points="354.75875168903815,453.0963244185439 354.75875168903815,402.930109432422 345.993542314643,405.46040742832724 345.993542314643,455.6266224144491" />
  <polygon fill="hsl(360.0,50.0%,50.27546059214215%)" points="324.08051887865497,412.28284761597274 324.08051887865497,362.6133278277333 331.75007708125077,360.39931708131627 331.75007708125077,410.0688368695557" />
  <polygon fill="hsl(360.0,50.0%,50.27546059214215%)" points="355.8544028608375,403.11051738081625 355.8544028608375,353.4409975925768 363.5239610634333,351.2269868461597 363.5239610634333,400.89650663439915" />
  <polygon fill="hsl(360.0,50.0%,50.27546059214215%)" points="331.75007708125077,368.06887528391206 331.75007708125077,360.39931708131627 355.8544028608375,353.4409975925768 355.8544028608375,361.1105557951726" />
  <polygon fill="hsl(360.0,50.0%,50.27546059214215%)" points="332.8457282530502,409.7525496200675 332.8457282530502,360.08302983182807 354.75875168903815,353.75728484206496 354.75875168903815,403.4268046303044" />
  <polygon fill="hsl(360.0,50.0%,50.27546059214215%)" points="338.3239841120472,356.01811759497537 338.3239841120472,333.6668336902676 349.28049583004116,330.50396119538607 349.28049583004116,352.8552451000938" />
  <polygon fill="hsl(360.0,50.0%,50.27546059214215%)" points="340.515286455646,357.869019085411 340.515286455646,333.0342591912913 347.08919348644235,331.13653569436235 347.08919348644235,355.97129558848206" />
</svg>
