<?xml version="1.0" encoding="UTF-8"?>
<svg
  xmlns="http://www.w3.org/2000/svg"
  width="848"
  height="600"
  style="background-color:white"
>
  <polygon fill="lightblue" points="314.38965188062707,499.34688030882853 198.20015149440454,398.723821321338 533.6103481193729,301.89923766615254 649.7998485055955,402.5222966536431" />
  <polygon fill="steelblue" points="198.20015149440454,398.723821321338 198.20015149440454,197.47770334635692 533.6103481193729,100.65311969117147 533.6103481193729,301.89923766615254" />
  <polygon fill="lightskyblue" points="649.7998485055955,402.5222966536431 649.7998485055955,201.276178678662 533.6103481193729,100.65311969117147 533.6103481193729,301.89923766615254" />
  <polygon fill="white" points="603.3240483511065,362.27307305864684 603.3240483511065,228.10899440865947 580.0861482738619,207.98438261116138 580.0861482738619,342.1484612611488" />
  <polygon fill="white" points="248.5116809881498,330.5345023130652 248.5116809881498,276.8688708530703 282.05270065064667,267.1864124875517 282.05270065064667,320.8520439475467" />
  <polygon fill="white" points="315.5937203131435,311.1695855820281 315.5937203131435,257.5039541220332 349.13473997564034,247.82149575651462 349.13473997564034,301.4871272165096" />
  <polygon fill="white" points="382.67575963813715,291.80466885099105 382.67575963813715,238.1390373909961 416.216779300634,228.45657902547754 416.216779300634,282.12221048547246" />
  <polygon fill="white" points="449.7577989631309,272.43975211995394 449.7577989631309,218.774120659959 483.2988186256277,209.09166229444043 483.2988186256277,262.7572937544354" />
</svg>
