<?xml version="1.0" encoding="UTF-8"?>
<svg
  xmlns="http://www.w3.org/2000/svg"
  width="848"
  height="600"
  style="background-color:white"
>
  <polygon fill="lightblue" points="346.49377955657326,512.1107782285442 264.3353959307983,440.95953087475567 501.50622044342674,372.4942111866099 583.6646040692017,443.6454585403984" />
  <polygon fill="steelblue" points="264.3353959307983,440.95953087475567 264.3353959307983,156.35454145960156 501.50622044342674,87.8892217714558 501.50622044342674,372.4942111866099" />
  <polygon fill="lightskyblue" points="583.6646040692017,443.6454585403984 583.6646040692017,159.04046912524433 501.50622044342674,87.8892217714558 501.50622044342674,372.4942111866099" />
  <polygon fill="white" points="550.8012506188917,415.18495959888304 550.8012506188917,320.3166297938316 534.3695738937367,306.0863803230739 534.3695738937367,400.9547101281253" />
  <polygon fill="white" points="299.9110196076926,392.7424009995133 299.9110196076926,354.7950690774927 323.62810205895545,347.9485371086781 323.62810205895545,385.8958690306987" />
  <polygon fill="white" points="347.34518451021825,379.0493370618841 347.34518451021825,341.10200513986354 371.0622669614811,334.25547317104895 371.0622669614811,372.2028050930695" />
  <polygon fill="white" points="394.77934941274395,365.3562731242549 394.77934941274395,327.4089412022344 418.4964318640068,320.5624092334198 418.4964318640068,358.5097411554404" />
  <polygon fill="white" points="442.21351431526966,351.6632091866258 442.21351431526966,313.71587726460524 465.9305967665325,306.86934529579065 465.9305967665325,344.8166772178112" />
</svg>
