<?xml version="1.0" encoding="UTF-8"?>
<svg
  xmlns="http://www.w3.org/2000/svg"
  width="848"
  height="600"
  style="background-color:white"
>
  <polygon fill="lightblue" points="346.49377955657326,512.1107782285442 264.3353959307983,440.95953087475567 501.50622044342674,372.4942111866099 583.6646040692017,443.6454585403984" />
  <polygon fill="steelblue" points="264.3353959307983,440.95953087475567 264.3353959307983,156.35454145960156 501.50622044342674,87.8892217714558 501.50622044342674,372.4942111866099" />
  <polygon fill="lightskyblue" points="583.6646040692017,443.6454585403984 583.6646040692017,159.04046912524433 501.50622044342674,87.8892217714558 501.50622044342674,372.4942111866099" />
  <polygon fill="white" points="550.8012506188917,415.18495959888304 550.8012506188917,320.3166297938316 534.3695738937367,306.0863803230739 534.3695738937367,400.9547101281253" />
  <polygon fill="white" points="286.3584010641139,396.65470498169304 286.3584010641138,358.7073730596725 310.0754835153767,351.8608410908579 310.0754835153767,389.80817301287846" />
  <polygon fill="white" points="320.23994742306076,386.87394502624363 320.23994742306076,348.92661310422307 343.9570298743236,342.0800811354085 343.9570298743236,380.02741305742904" />
  <polygon fill="white" points="354.1214937820077,377.0931850707942 354.1214937820077,339.14585314877365 377.8385762332705,332.2993211799591 377.8385762332705,370.24665310197963" />
  <polygon fill="white" points="388.00304014095457,367.3124251153448 388.00304014095457,329.36509319332424 411.7201225922174,322.5185612245097 411.7201225922174,360.4658931465303" />
  <polygon fill="white" points="421.8845864999015,357.53166515989545 421.8845864999015,319.5843332378749 445.60166895116436,312.7378012690603 445.60166895116436,350.68513319108087" />
  <polygon fill="white" points="455.76613285884844,347.75090520444604 455.7661328588484,309.8035732824255 479.48321531011123,302.9570413136109 479.4832153101113,340.90437323563145" />
</svg>
