<?xml version="1.0" encoding="UTF-8"?>
<svg
  xmlns="http://www.w3.org/2000/svg"
  width="848"
  height="600"
  style="background-color:white"
>
  <polygon fill="lightblue" points="315.5623485264038,530.3962843180211 200.61593366737085,430.8497689761534 532.4376514735961,335.06108992695926 647.3840663326291,434.6076052688269" />
  <polygon fill="steelblue" points="200.61593366737085,430.8497689761534 200.61593366737085,165.39239473117314 532.4376514735961,69.60371568197894 532.4376514735961,335.06108992695926" />
  <polygon fill="lightskyblue" points="647.3840663326291,434.6076052688269 647.3840663326291,169.15023102384657 532.4376514735961,69.60371568197894 532.4376514735961,335.06108992695926" />
  <polygon fill="white" points="239.32846741143047,366.58294823808467 239.32846741143047,313.49147338908864 272.510639192053,303.9126054841692 272.510639192053,357.0040803331653" />
  <polygon fill="white" points="294.63208704580137,350.61816839655233 294.63208704580137,297.5266935475563 327.8142588264239,287.9478256426369 327.8142588264239,341.0393004916329" />
  <polygon fill="white" points="349.93570668017225,334.65338855502 349.93570668017225,281.5619137060239 383.11787846079477,271.9830458011045 383.11787846079477,325.07452065010057" />
  <polygon fill="white" points="405.2393263145432,318.6886087134876 405.2393263145432,265.5971338644916 438.4214980951657,256.01826595957215 438.4214980951657,309.1097408085682" />
  <polygon fill="white" points="460.54294594891405,302.7238288719552 460.54294594891405,249.6323540229592 493.7251177295366,240.05348611803976 493.7251177295366,293.14496096703584" />
  <polygon fill="hsl(360.0,50.0%,54.496445229397835%)" points="450.13419651745284,435.36969683871234 450.13419651745284,389.7906656808492 458.09791774480226,387.4917373836685 458.09791774480226,433.07076854153166" />
  <polygon fill="hsl(360.0,50.0%,54.496445229397835%)" points="470.04349958582634,429.62237609576067 470.04349958582634,384.04334493789753 462.079778358477,386.3422732350782 462.079778358477,431.92130439294135" />
  <polygon fill="hsl(360.0,50.0%,54.496445229397835%)" points="442.17047529010347,392.5408715142463 442.17047529010347,347.4131178925997 449.1387313640342,345.4015556325666 449.1387313640342,390.5293092542132" />
  <polygon fill="hsl(360.0,50.0%,54.496445229397835%)" points="471.03896473924505,384.2072564369664 471.03896473924505,339.07950281531976 478.00722081317576,337.0679405552867 478.00722081317576,382.19569417693333" />
  <polygon fill="hsl(360.0,50.0%,54.496445229397835%)" points="449.1387313640342,352.36981170649733 449.1387313640342,345.4015556325666 471.03896473924505,339.07950281531976 471.03896473924505,346.04775888925053" />
  <polygon fill="hsl(360.0,50.0%,54.496445229397835%)" points="450.13419651745284,390.2419432170657 450.13419651745284,345.114189595419 470.04349958582634,339.36686885246735 470.04349958582634,384.494622474114" />
  <polygon fill="hsl(360.0,50.0%,54.496445229397835%)" points="455.1115222845462,341.4209717285988 455.1115222845462,321.1134825988578 465.066173818733,318.239822227382 465.066173818733,338.54731135712296" />
  <polygon fill="hsl(360.0,50.0%,54.496445229397835%)" points="457.10245259138355,343.10262733538593 457.10245259138355,320.5387505245626 463.0752435118956,318.81455430167716 463.0752435118956,341.37843111250044" />
</svg>
