<?xml version="1.0" encoding="UTF-8"?>
<svg
  xmlns="http://www.w3.org/2000/svg"
  width="848"
  height="600"
  style="background-color:white"
>
  <polygon fill="lightblue" points="329.27098603078304,559.2442872182052 228.8560435184576,472.28239608297736 518.729013969217,388.6032773227061 619.1439564815424,475.56516845793396" />
  <polygon fill="steelblue" points="228.8560435184576,472.28239608297736 228.8560435184576,124.43483154206604 518.729013969217,40.75571278179484 518.729013969217,388.6032773227061" />
  <polygon fill="lightskyblue" points="619.1439564815424,475.56516845793396 619.1439564815424,127.71760391702267 518.729013969217,40.75571278179484 518.729013969217,388.6032773227061" />
  <polygon fill="white" points="578.9779794766123,440.7804120038428 578.9779794766123,324.83122382353906 558.8949909741472,307.4388455964935 558.8949909741472,423.3880337767973" />
  <polygon fill="white" points="262.67455673771286,416.14015695549085 262.67455673771286,369.76048168336933 291.6618537827888,361.3925698073422 291.66185378278885,407.77224507946374" />
  <polygon fill="white" points="310.98671847950607,402.1936371621123 310.98671847950607,355.8139618899908 339.974015524582,347.44605001396366 339.974015524582,393.82572528608523" />
  <polygon fill="white" points="359.2988802212993,388.24711736873377 359.2988802212993,341.86744209661225 388.28617726637526,333.49953022058514 388.28617726637526,379.87920549270666" />
  <polygon fill="white" points="407.6110419630926,374.30059757535525 407.6110419630926,327.92092230323374 436.5983390081685,319.55301042720663 436.5983390081685,365.93268569932815" />
  <polygon fill="white" points="455.9232037048858,360.3540777819767 455.9232037048858,313.97440250985517 484.9105007499617,305.60649063382806 484.9105007499617,351.9861659059496" />
  <polygon fill="hsl(360.0,50.0%,54.496445229397835%)" points="446.83032353922624,476.2309167657261 446.83032353922624,436.4139655446098 453.78727483004445,434.4056666943633 453.78727483004445,474.2226179154796" />
  <polygon fill="hsl(360.0,50.0%,54.496445229397835%)" points="464.22270176627177,471.2101696401098 464.22270176627177,431.3932184189935 457.26575047545356,433.40151726924 457.26575047545356,473.2184684903564" />
  <polygon fill="hsl(360.0,50.0%,54.496445229397835%)" points="439.87337224840803,438.8164916346693 439.873372248408,399.393767653366 445.96070462787395,397.6365061594003 445.96070462787395,437.0592301407036" />
  <polygon fill="hsl(360.0,50.0%,54.496445229397835%)" points="465.09232067762406,431.53640830252573 465.09232067762406,392.1136843212224 471.17965305709004,390.3564228272567 471.17965305709004,429.77914680856003" />
  <polygon fill="hsl(360.0,50.0%,54.496445229397835%)" points="445.96070462787395,403.7238385388663 445.96070462787395,397.6365061594003 465.09232067762406,392.1136843212224 465.09232067762406,398.2010167006884" />
  <polygon fill="hsl(360.0,50.0%,54.496445229397835%)" points="446.83032353922624,436.8081927844228 446.83032353922624,397.3854688031195 464.22270176627177,392.3647216775032 464.22270176627177,431.7874456588065" />
  <polygon fill="hsl(360.0,50.0%,54.496445229397835%)" points="451.1784180959876,394.1591458226503 451.1784180959876,376.4189200310638 459.87460720951043,373.9085464682557 459.87460720951043,391.64877225984213" />
  <polygon fill="hsl(360.0,50.0%,54.496445229397835%)" points="452.91765591869216,395.6282073091538 452.91765591869216,375.91684531850217 458.13536938680585,374.4106211808173 458.13536938680585,394.12198317146897" />
</svg>
