<?xml version="1.0" encoding="UTF-8"?>
<svg
  xmlns="http://www.w3.org/2000/svg"
  width="848"
  height="600"
  style="background-color:white"
>
  <polygon fill="lightblue" points="282.49364905389035,557.3557158514986 132.49364905389035,427.45190528383296 565.5063509461097,302.4519052838329 715.5063509461097,432.35571585149864" />
  <polygon fill="steelblue" points="132.49364905389035,427.45190528383296 132.49364905389035,167.64428414850133 565.5063509461097,42.6442841485013 565.5063509461097,302.4519052838329" />
  <polygon fill="lightskyblue" points="715.5063509461097,432.35571585149864 715.5063509461097,172.54809471616707 565.5063509461097,42.6442841485013 565.5063509461097,302.4519052838329" />
  <polygon fill="white" points="655.5063509461096,380.3941916244323 655.5063509461096,207.18911086754463 625.5063509461097,181.20834875401147 625.5063509461097,354.4134295108992" />
  <polygon fill="white" points="183.0117976079826,343.5865396477445 183.0117976079826,274.30450734498936 226.31306779720455,261.80450734498936 226.31306779720455,331.0865396477445" />
  <polygon fill="white" points="255.18058125668583,322.75320631441116 255.18058125668583,253.47117401165605 298.48185144590775,240.97117401165605 298.48185144590775,310.25320631441116" />
  <polygon fill="white" points="327.34936490538905,301.9198729810778 327.34936490538905,232.6378406783227 370.65063509461095,220.1378406783227 370.65063509461095,289.4198729810778" />
  <polygon fill="white" points="399.51814855409225,281.0865396477445 399.51814855409225,211.80450734498936 442.8194187433142,199.30450734498936 442.8194187433142,268.5865396477445" />
  <polygon fill="white" points="471.6869322027955,260.2532063144111 471.6869322027955,190.97117401165602 514.9882023920175,178.47117401165602 514.9882023920175,247.7532063144111" />
</svg>
