<?xml version="1.0" encoding="UTF-8"?>
<svg
  xmlns="http://www.w3.org/2000/svg"
  width="848"
  height="600"
  style="background-color:white"
>
  <polygon fill="lightblue" points="304.64892126439804,517.0622173512692 178.13402146913563,407.4971001713293 543.351078735602,302.0680170086106 669.8659785308644,411.6331341885505" />
  <polygon fill="steelblue" points="178.13402146913563,407.4971001713293 178.13402146913563,188.3668658114495 543.351078735602,82.9377826487308 543.351078735602,302.0680170086106" />
  <polygon fill="lightskyblue" points="669.8659785308644,411.6331341885505 669.8659785308644,192.5028998286707 543.351078735602,82.9377826487308 543.351078735602,302.0680170086106" />
  <polygon fill="white" points="619.2600186127594,367.80708731657455 619.2600186127594,221.72026440998798 593.957038653707,199.80724097400002 593.957038653707,345.8940638805866" />
  <polygon fill="white" points="251.1774329224289,327.97655437615094 251.1774329224289,269.54182521351635 287.6991386490755,258.99891689724444 287.6991386490755,317.4336460598791" />
  <polygon fill="white" points="342.4816972390455,301.61928358547124 342.4816972390455,243.18455442283664 379.0034029656921,232.6416461065648 379.00340296569215,291.0763752691994" />
  <polygon fill="white" points="433.7859615556621,275.2620127947916 433.7859615556621,216.82728363215696 470.3076672823087,206.2843753158851 470.3076672823087,264.71910447851974" />
  <polygon fill="antiquewhite" points="494.8334345707743,414.708425187233 494.8334345707742,290.5346257166344 524.0507991520916,282.10029906361694 524.0507991520916,406.2740985342155" />
  <polygon fill="beige" points="494.8334345707743,414.708425187233 494.8334345707742,290.5346257166344 477.96478126473926,275.9259434259758 477.96478126473926,400.09974289657436" />
  <polygon fill="bisque" points="494.8334345707742,290.5346257166344 477.96478126473926,275.9259434259758 507.1821458460566,267.4916167729583 524.0507991520916,282.10029906361694" />
</svg>
