<?xml version="1.0" encoding="UTF-8"?>
<svg
  xmlns="http://www.w3.org/2000/svg"
  width="848"
  height="600"
  style="background-color:white"
>
  <polygon fill="lightblue" points="339.0961894323342,506.3749537379655 249.09618943233423,428.432667397366 508.9038105676658,353.432667397366 598.9038105676658,431.3749537379655" />
  <polygon fill="steelblue" points="249.09618943233423,428.432667397366 249.09618943233423,168.6250462620345 508.9038105676658,93.62504626203449 508.9038105676658,353.432667397366" />
  <polygon fill="lightskyblue" points="598.9038105676658,431.3749537379655 598.9038105676658,171.56733260263397 508.9038105676658,93.62504626203449 508.9038105676658,353.432667397366" />
  <polygon fill="white" points="562.9038105676658,400.1980392017257 562.9038105676658,296.2749907475931 544.9038105676658,280.6865334794732 544.9038105676658,384.6095819336058" />
  <polygon fill="white" points="273.22118282347213,379.8991623014273 273.22118282347213,338.3299429197742 299.2019449370053,330.8299429197742 299.2019449370053,372.3991623014273" />
  <polygon fill="white" points="310.33655727137665,369.1848765871416 310.33655727137665,327.6156572054885 336.3173193849098,320.1156572054885 336.3173193849098,361.68487658714156" />
  <polygon fill="white" points="347.45193171928116,358.47059087285584 347.45193171928116,316.9013714912028 373.4326938328143,309.4013714912028 373.4326938328143,350.97059087285584" />
  <polygon fill="white" points="384.5673061671857,347.7563051585701 384.5673061671857,306.18708577691706 410.54806828071884,298.68708577691706 410.54806828071884,340.2563051585701" />
  <polygon fill="white" points="421.6826806150902,337.0420194442844 421.6826806150902,295.47280006263134 447.66344272862335,287.97280006263134 447.66344272862335,329.5420194442844" />
  <polygon fill="white" points="458.7980550629947,326.3277337299987 458.7980550629947,284.75851434834567 484.77881717652787,277.25851434834567 484.77881717652787,318.8277337299987" />
</svg>
