<?xml version="1.0" encoding="UTF-8"?>
<svg
  xmlns="http://www.w3.org/2000/svg"
  width="848"
  height="600"
  style="background-color:white"
>
  <polygon fill="lightblue" points="329.27098603078304,559.2442872182052 228.8560435184576,472.28239608297736 518.729013969217,388.6032773227061 619.1439564815424,475.56516845793396" />
  <polygon fill="steelblue" points="228.8560435184576,472.28239608297736 228.8560435184576,124.43483154206604 518.729013969217,40.75571278179484 518.729013969217,388.6032773227061" />
  <polygon fill="lightskyblue" points="619.1439564815424,475.56516845793396 619.1439564815424,127.71760391702267 518.729013969217,40.75571278179484 518.729013969217,388.6032773227061" />
  <polygon fill="white" points="578.9779794766123,440.7804120038428 578.9779794766123,324.83122382353906 558.8949909741472,307.4388455964935 558.8949909741472,423.3880337767973" />
  <polygon fill="white" points="272.3369890860715,413.35085299681515 272.3369890860715,366.97117772469363 301.32428613114746,358.6032658486665 301.32428613114746,404.98294112078804" />
  <polygon fill="white" points="330.3115831762234,396.61502924476093 330.3115831762234,350.23535397263936 359.2988802212993,341.86744209661225 359.2988802212993,388.24711736873377" />
  <polygon fill="white" points="388.28617726637526,379.87920549270666 388.28617726637526,333.49953022058514 417.2734743114512,325.13161834455804 417.2734743114512,371.51129361667955" />
  <polygon fill="white" points="446.26077135652713,363.14338174065244 446.26077135652713,316.7637064685309 475.24806840160306,308.39579459250376 475.24806840160306,354.7754698646253" />
  <polygon fill="hsl(288.0,50.0%,54.496445229397835%)" points="446.83032353922624,476.2309167657261 446.83032353922624,436.4139655446098 453.78727483004445,434.4056666943633 453.78727483004445,474.2226179154796" />
  <polygon fill="hsl(288.0,50.0%,54.496445229397835%)" points="464.22270176627177,471.2101696401098 464.22270176627177,431.3932184189935 457.26575047545356,433.40151726924 457.26575047545356,473.2184684903564" />
  <polygon fill="hsl(288.0,50.0%,54.496445229397835%)" points="439.87337224840803,438.8164916346693 439.873372248408,399.393767653366 445.96070462787395,397.6365061594003 445.96070462787395,437.0592301407036" />
  <polygon fill="hsl(288.0,50.0%,54.496445229397835%)" points="465.09232067762406,431.53640830252573 465.09232067762406,392.1136843212224 471.17965305709004,390.3564228272567 471.17965305709004,429.77914680856003" />
  <polygon fill="hsl(288.0,50.0%,54.496445229397835%)" points="445.96070462787395,403.7238385388663 445.96070462787395,397.6365061594003 465.09232067762406,392.1136843212224 465.09232067762406,398.2010167006884" />
  <polygon fill="hsl(288.0,50.0%,54.496445229397835%)" points="446.83032353922624,436.8081927844228 446.83032353922624,397.3854688031195 464.22270176627177,392.3647216775032 464.22270176627177,431.7874456588065" />
  <polygon fill="hsl(288.0,50.0%,54.496445229397835%)" points="451.1784180959876,394.1591458226503 451.1784180959876,376.4189200310638 459.87460720951043,373.9085464682557 459.87460720951043,391.64877225984213" />
  <polygon fill="hsl(288.0,50.0%,54.496445229397835%)" points="452.91765591869216,395.6282073091538 452.91765591869216,375.91684531850217 458.13536938680585,374.4106211808173 458.13536938680585,394.12198317146897" />
  <polygon fill="hsl(288.0,50.0%,50.27546059214215%)" points="351.6508065687484,513.4952714780748 351.6508065687484,473.6783202569584 358.6077578595666,471.6700214067119 358.6077578595666,511.4869726278282" />
  <polygon fill="hsl(288.0,50.0%,50.27546059214215%)" points="369.04318479579393,508.4745243524584 369.04318479579393,468.65757313134213 362.0862335049757,470.6658719815886 362.0862335049757,510.48282320270494" />
  <polygon fill="hsl(288.0,50.0%,50.27546059214215%)" points="344.69385527793014,476.0808463470179 344.69385527793014,436.65812236571463 350.7811876573961,434.90086087174893 350.7811876573961,474.32358485305224" />
  <polygon fill="hsl(288.0,50.0%,50.27546059214215%)" points="369.9128037071462,468.8007630148743 369.91280370714617,429.37803903357104 376.00013608661214,427.62077753960534 376.00013608661214,467.04350152090865" />
  <polygon fill="hsl(288.0,50.0%,50.27546059214215%)" points="350.7811876573961,440.98819325121485 350.7811876573961,434.90086087174893 369.91280370714617,429.37803903357104 369.91280370714617,435.465371413037" />
  <polygon fill="hsl(288.0,50.0%,50.27546059214215%)" points="351.6508065687484,474.07254749677145 351.65080656874835,434.64982351546814 369.04318479579393,429.6290763898519 369.04318479579393,469.05180037115514" />
  <polygon fill="hsl(288.0,50.0%,50.27546059214215%)" points="355.99890112550975,431.4235005349989 355.99890112550975,413.6832747434124 364.69509023903254,411.1729011806043 364.69509023903254,428.91312697219075" />
  <polygon fill="hsl(288.0,50.0%,50.27546059214215%)" points="357.7381389482143,432.89256202150244 357.7381389482143,413.1812000308508 362.95585241632796,411.67497589316594 362.95585241632796,431.38633788381753" />
</svg>
