<?xml version="1.0" encoding="UTF-8"?>
<svg
  xmlns="http://www.w3.org/2000/svg"
  width="848"
  height="600"
  style="background-color:white"
>
  <polygon fill="lightblue" points="282.49364905389035,557.3557158514986 132.49364905389035,427.45190528383296 565.5063509461097,302.4519052838329 715.5063509461097,432.35571585149864" />
  <polygon fill="steelblue" points="132.49364905389035,427.45190528383296 132.49364905389035,167.64428414850133 565.5063509461097,42.6442841485013 565.5063509461097,302.4519052838329" />
  <polygon fill="lightskyblue" points="715.5063509461097,432.35571585149864 715.5063509461097,172.54809471616707 565.5063509461097,42.6442841485013 565.5063509461097,302.4519052838329" />
  <polygon fill="white" points="655.5063509461096,380.3941916244323 655.5063509461096,207.18911086754463 625.5063509461097,181.20834875401147 625.5063509461097,354.4134295108992" />
  <polygon fill="white" points="197.44555433772325,339.41987298107784 197.44555433772325,270.13784067832273 240.74682452694518,257.63784067832273 240.74682452694518,326.9198729810778" />
  <polygon fill="white" points="284.0480947161671,314.4198729810778 284.0480947161671,245.13784067832273 327.34936490538905,232.6378406783227 327.34936490538905,301.9198729810778" />
  <polygon fill="white" points="370.65063509461095,289.4198729810778 370.65063509461095,220.1378406783227 413.9519052838329,207.63784067832268 413.9519052838329,276.9198729810778" />
  <polygon fill="white" points="457.2531754730548,264.4198729810778 457.2531754730548,195.13784067832268 500.55444566227675,182.63784067832268 500.55444566227675,251.9198729810778" />
</svg>
