<?xml version="1.0" encoding="UTF-8"?>
<svg
  xmlns="http://www.w3.org/2000/svg"
  width="848"
  height="600"
  style="background-color:white"
>
  <polygon fill="lightblue" points="282.49364905389035,600.6569860407207 132.49364905389035,470.75317547305485 565.5063509461097,345.7531754730548 715.5063509461097,475.6569860407206" />
  <polygon fill="steelblue" points="132.49364905389035,470.75317547305485 132.49364905389035,124.3430139592794 565.5063509461097,-0.6569860407206534 565.5063509461097,345.7531754730548" />
  <polygon fill="lightskyblue" points="715.5063509461097,475.6569860407206 715.5063509461097,129.24682452694515 565.5063509461097,-0.6569860407206534 565.5063509461097,345.7531754730548" />
  <polygon fill="white" points="655.5063509461096,423.6954618136543 655.5063509461096,250.49038105676655 625.5063509461097,224.50961894323342 625.5063509461097,397.7146997001211" />
  <polygon fill="white" points="183.0117976079826,386.8878098369664 183.0117976079826,317.6057775342113 226.31306779720455,305.1057775342113 226.31306779720455,374.3878098369664" />
  <polygon fill="white" points="255.18058125668583,366.05447650363305 255.18058125668583,296.772444200878 298.48185144590775,284.272444200878 298.48185144590775,353.55447650363305" />
  <polygon fill="white" points="327.34936490538905,345.22114317029974 327.34936490538905,275.9391108675446 370.65063509461095,263.4391108675446 370.65063509461095,332.72114317029974" />
  <polygon fill="white" points="399.51814855409225,324.38780983696637 399.51814855409225,255.10577753421128 442.8194187433142,242.60577753421128 442.8194187433142,311.88780983696637" />
  <polygon fill="white" points="471.6869322027955,303.55447650363305 471.6869322027955,234.27244420087794 514.9882023920175,221.77244420087794 514.9882023920175,291.05447650363305" />
</svg>
