<?xml version="1.0" encoding="UTF-8"?>
<svg
  xmlns="http://www.w3.org/2000/svg"
  width="848"
  height="600"
  style="background-color:white"
>
  <polygon fill="lightblue" points="323.3354015553923,544.684563721672 216.6286024206904,452.27376491449684 524.6645984446077,363.35143230224526 631.3713975793096,455.76223110942044" />
  <polygon fill="steelblue" points="216.6286024206904,452.27376491449684 216.6286024206904,144.23776889057953 524.6645984446077,55.31543627832795 524.6645984446077,363.35143230224526" />
  <polygon fill="lightskyblue" points="631.3713975793096,455.76223110942044 631.3713975793096,147.72623508550316 524.6645984446077,55.31543627832795 524.6645984446077,363.35143230224526" />
  <polygon fill="white" points="262.834001824278,389.64965565883233 262.834001824278,340.3638962950056 293.63760142666973,331.47166303378043 293.63760142666973,380.7574223976072" />
  <polygon fill="white" points="324.44120102906146,371.865189136382 324.44120102906146,322.5794297725553 355.2448006314532,313.6871965113301 355.2448006314532,362.97295587515686" />
  <polygon fill="white" points="386.0484002338449,354.0807226139317 386.0484002338449,304.79496325010496 416.85199983623664,295.90272998887974 416.85199983623664,345.18848935270654" />
  <polygon fill="white" points="447.65559943862837,336.2962560914814 447.65559943862837,287.0104967276546 478.4591990410201,278.1182634664294 478.4591990410201,327.4040228302562" />
  <polygon fill="hsl(360.0,50.0%,54.496445229397835%)" points="448.2608389461702,456.46969425361465 448.2608389461702,414.1578698397693 455.65370285074425,412.0237338570753 455.65370285074425,454.33555827092056" />
  <polygon fill="hsl(360.0,50.0%,54.496445229397835%)" points="466.74299870760524,451.1343542968795 466.74299870760524,408.82252988303424 459.35013480303127,410.95666586572827 459.35013480303127,453.2684902795736" />
  <polygon fill="hsl(360.0,50.0%,54.496445229397835%)" points="440.8679750415962,416.71093477705585 440.8679750415962,374.81803931780314 447.3367309580985,372.95067033294583 447.3367309580985,414.8435657921986" />
  <polygon fill="hsl(360.0,50.0%,54.496445229397835%)" points="467.66710669567703,408.97469183979 467.66710669567703,367.08179638053724 474.13586261217927,365.21442739567993 474.13586261217927,407.1073228549327" />
  <polygon fill="hsl(360.0,50.0%,54.496445229397835%)" points="447.3367309580985,379.4194262494481 447.3367309580985,372.95067033294583 467.66710669567703,367.08179638053724 467.66710669567703,373.55055229703953" />
  <polygon fill="hsl(360.0,50.0%,54.496445229397835%)" points="448.2608389461702,414.5767987943618 448.2608389461702,372.6839033351091 466.74299870760524,367.348563378374 466.74299870760524,409.24145883762674" />
  <polygon fill="hsl(360.0,50.0%,54.496445229397835%)" points="452.881378886529,369.2554235729627 452.881378886529,350.40362061629895 462.12245876724654,347.7359506379314 462.12245876724654,366.58775359459514" />
  <polygon fill="hsl(360.0,50.0%,54.496445229397835%)" points="454.7295948626725,370.8165343502518 454.7295948626725,349.87008662062544 460.274242791103,348.2694846336049 460.274242791103,369.2159323632313" />
</svg>
