<?xml version="1.0" encoding="UTF-8"?>
<svg
  xmlns="http://www.w3.org/2000/svg"
  width="848"
  height="600"
  style="background-color:white"
>
  <polygon fill="lightblue" points="353.1384839778597,548.7074200369326 231.4944440663917,443.36059125463316 494.8615160221403,367.3330663099657 616.5055559336083,472.67989509226516" />
  <polygon fill="steelblue" points="231.4944440663917,443.36059125463316 231.4944440663917,127.32010490773487 494.8615160221403,51.29257996306737 494.8615160221403,367.3330663099657" />
  <polygon fill="lightskyblue" points="616.5055559336083,472.67989509226516 616.5055559336083,156.6394087453668 494.8615160221403,51.29257996306737 494.8615160221403,367.3330663099657" />
  <polygon fill="white" points="564.8068389712344,427.90749285978785 564.8068389712344,322.5606640774884 546.5602329845142,306.7586397601435 546.5602329845142,412.10546854244296" />
  <polygon fill="white" points="270.999504859754,389.8177310000133 270.999504859754,347.6789994870935 297.3362120553289,340.07624699262675 297.3362120553289,382.2149785055466" />
  <polygon fill="white" points="323.6729192509037,374.61222601107977 323.6729192509037,332.47349449816 350.0096264464786,324.87074200369324 350.0096264464786,367.00947351661307" />
  <polygon fill="white" points="376.3463336420534,359.4067210221463 376.3463336420534,317.2679895092265 402.6830408376283,309.6652370147597 402.6830408376283,351.80396852767956" />
  <polygon fill="white" points="429.01974803320314,344.2012160332128 429.01974803320314,302.06248452029297 455.35645522877803,294.4597320258262 455.35645522877803,336.59846353874605" />
  <polygon fill="antiquewhite" points="482.08076383131305,467.7922699673197 482.08076383131305,378.24746550236523 503.15012958777294,372.1652635067918 503.15012958777294,461.71006797174635" />
  <polygon fill="beige" points="482.08076383131305,467.7922699673197 482.08076383131305,378.24746550236523 469.91635984016625,367.71278262413523 469.91635984016625,457.25758708908984" />
  <polygon fill="bisque" points="482.08076383131305,378.24746550236523 469.91635984016625,367.71278262413523 490.98572559662614,361.63058062856186 503.15012958777294,372.1652635067918" />
</svg>
