<?xml version="1.0" encoding="UTF-8"?>
<svg
  xmlns="http://www.w3.org/2000/svg"
  width="848"
  height="600"
  style="background-color:white"
>
  <polygon fill="lightblue" points="353.1384839778597,548.7074200369326 231.4944440663917,443.36059125463316 494.8615160221403,367.3330663099657 616.5055559336083,472.67989509226516" />
  <polygon fill="steelblue" points="231.4944440663917,443.36059125463316 231.4944440663917,127.32010490773487 494.8615160221403,51.29257996306737 494.8615160221403,367.3330663099657" />
  <polygon fill="lightskyblue" points="616.5055559336083,472.67989509226516 616.5055559336083,156.6394087453668 494.8615160221403,51.29257996306737 494.8615160221403,367.3330663099657" />
  <polygon fill="grey" points="483.7303138154989,108.93507612912634 483.7303138154989,82.59836893355148 510.0670210110738,74.99561643908473 510.0670210110738,101.33232363465962" />
  <polygon fill="lightgrey" points="483.7303138154989,108.93507612912634 483.7303138154989,82.59836893355148 468.52480882656545,69.43001533576404 468.52480882656545,95.76672253133893" />
  <polygon fill="darkgrey" points="483.7303138154989,82.59836893355148 468.52480882656545,69.43001533576404 494.8615160221403,61.827262841297284 510.0670210110738,74.99561643908473" />
  <polygon fill="hsl(360.0,50.0%,52.57800117743009%)" points="451.74374406683864,466.1794738864759 451.74374406683864,430.0033728826342 458.0645537937766,428.1787122839622 458.0645537937766,464.35481328780384" />
  <polygon fill="hsl(360.0,50.0%,52.57800117743009%)" points="467.5457683841836,461.6178223897958 467.5457683841836,425.44172138595417 461.22495865724557,427.2663819846262 461.22495865724557,463.4424829884678" />
  <polygon fill="hsl(360.0,50.0%,52.57800117743009%)" points="445.4229343399007,432.18621269916605 445.4229343399007,396.36829091318424 450.9536428509714,394.7717128893462 450.9536428509714,430.58963467532806" />
  <polygon fill="hsl(360.0,50.0%,52.57800117743009%)" points="468.33586960005084,425.57181802898 468.33586960005084,389.75389624299817 473.86657811112156,388.1573182191601 473.86657811112156,423.9752400051419" />
  <polygon fill="hsl(360.0,50.0%,52.57800117743009%)" points="450.9536428509714,400.30242140041696 450.9536428509714,394.7717128893462 468.33586960005084,389.75389624299817 468.33586960005084,395.2846047540689" />
  <polygon fill="hsl(360.0,50.0%,52.57800117743009%)" points="451.74374406683864,430.361552100494 451.74374406683864,394.5436303145122 467.5457683841836,389.98197881783216 467.5457683841836,425.79990060381397" />
  <polygon fill="hsl(360.0,50.0%,52.57800117743009%)" points="455.69425014617485,391.6123213510431 455.69425014617485,375.4942565473513 463.5952623048473,373.2134307990113 463.5952623048473,389.33149560270306" />
  <polygon fill="hsl(360.0,50.0%,52.57800117743009%)" points="457.27445257790936,392.9470522906742 457.27445257790936,375.0380913976833 462.0150598731128,373.6695959486793 462.0150598731128,391.5785568416702" />
  <polygon fill="hsl(360.0,50.0%,46.24652422154656%)" points="372.9692782706033,506.70639723778623 372.9692782706033,470.5302962339446 379.29008799754126,468.7056356352726 379.29008799754126,504.8817366391142" />
  <polygon fill="hsl(360.0,50.0%,46.24652422154656%)" points="388.77130258794824,502.14474574110614 388.77130258794824,465.9686447372645 382.4504928610103,467.79330533593657 382.4504928610103,503.9694063397782" />
  <polygon fill="hsl(360.0,50.0%,46.24652422154656%)" points="366.64846854366533,472.71313605047646 366.64846854366533,436.8952142644946 372.17917705473604,435.2986362406566 372.17917705473604,471.11655802663836" />
  <polygon fill="hsl(360.0,50.0%,46.24652422154656%)" points="389.56140380381544,466.09874138029033 389.56140380381544,430.2808195943086 395.0921123148862,428.68424157047053 395.0921123148862,464.50216335645234" />
  <polygon fill="hsl(360.0,50.0%,46.24652422154656%)" points="372.17917705473604,440.8293447517273 372.17917705473604,435.2986362406566 389.56140380381544,430.2808195943086 389.56140380381544,435.81152810537924" />
  <polygon fill="hsl(360.0,50.0%,46.24652422154656%)" points="372.9692782706033,470.8884754518044 372.9692782706033,435.07055366582256 388.7713025879482,430.5089021691425 388.77130258794824,466.3268239551244" />
  <polygon fill="hsl(360.0,50.0%,46.24652422154656%)" points="376.9197843499395,432.1392447023535 376.9197843499395,416.02117989866167 384.820796508612,413.74035415032165 384.820796508612,429.8584189540135" />
  <polygon fill="hsl(360.0,50.0%,46.24652422154656%)" points="378.499986781674,433.47397564198457 378.499986781674,415.5650147489937 383.24059407687747,414.19651929998963 383.24059407687747,432.10548019298056" />
</svg>
