<?xml version="1.0" encoding="UTF-8"?>
<svg
  xmlns="http://www.w3.org/2000/svg"
  width="848"
  height="600"
  style="background-color:white"
>
  <polygon fill="lightblue" points="329.51797863714626,526.2630646002774 167.32592542185563,385.80062622387817 518.4820213628537,284.4305929643215 680.6740745781444,424.8930313407207" />
  <polygon fill="steelblue" points="167.32592542185563,385.80062622387817 167.32592542185563,175.1069686592793 518.4820213628537,73.7369353997226 518.4820213628537,284.4305929643215" />
  <polygon fill="lightskyblue" points="680.6740745781444,424.8930313407207 680.6740745781444,214.19937377612183 518.4820213628537,73.7369353997226 518.4820213628537,284.4305929643215" />
  <polygon fill="white" points="584.7104430924308,341.78608863468446 584.7104430924308,201.32365025828523 560.3816351101372,180.25428450182534 560.3816351101372,320.7167228782246" />
  <polygon fill="white" points="638.774460830861,388.60690142681756 638.774460830861,248.14446305041832 614.4456528485673,227.07509729395844 614.4456528485673,367.53753567035767" />
  <polygon fill="white" points="237.55714461005522,309.34164422140714 237.55714461005522,253.15666887084743 272.672754204155,243.01966554489175 272.672754204155,299.20464089545146" />
  <polygon fill="white" points="325.3461685953048,283.99913590651795 325.3461685953048,227.81416055595824 360.4617781894046,217.67715723000256 360.4617781894046,273.8621325805623" />
  <polygon fill="white" points="413.1351925805543,258.65662759162876 413.1351925805543,202.47165224106908 448.2508021746541,192.3346489151134 448.2508021746541,248.5196242656731" />
  <polygon fill="grey" points="503.64041842066524,150.59359695446793 503.64041842066524,115.4779873603681 538.7560280147651,105.34098403441243 538.7560280147651,140.45659362851225" />
  <polygon fill="lightgrey" points="503.64041842066524,150.59359695446793 503.64041842066524,115.4779873603681 483.3664117687539,97.92018256331818 483.3664117687539,133.035792157418" />
  <polygon fill="darkgrey" points="503.64041842066524,115.4779873603681 483.3664117687539,97.92018256331818 518.4820213628537,87.7831792373625 538.7560280147651,105.34098403441243" />
  <polygon fill="hsl(324.0,50.0%,52.57800117743009%)" points="460.9916587557849,416.225803066335 460.9916587557849,367.9910017278795 469.41940505836885,365.55812092965016 469.41940505836885,413.79292226810566" />
  <polygon fill="hsl(324.0,50.0%,52.57800117743009%)" points="482.0610245122447,410.14360107076163 482.0610245122447,361.9087997323061 473.6332782096608,364.3416805305354 473.6332782096608,412.576481868991" />
  <polygon fill="hsl(324.0,50.0%,52.57800117743009%)" points="452.5639124532009,370.9014548165886 452.5639124532009,323.14422576861284 459.9381904679619,321.0154550701622 459.9381904679619,368.77268411813793" />
  <polygon fill="hsl(324.0,50.0%,52.57800117743009%)" points="483.11449280006775,362.0822619230072 483.11449280006775,314.3250328750314 490.4887708148287,312.1962621765807 490.4887708148287,359.9534912245565" />
  <polygon fill="hsl(324.0,50.0%,52.57800117743009%)" points="459.9381904679619,328.38973308492314 459.9381904679619,321.0154550701622 483.11449280006775,314.3250328750314 483.11449280006775,321.6993108897924" />
  <polygon fill="hsl(324.0,50.0%,52.57800117743009%)" points="460.9916587557849,368.4685740183593 460.99165875578484,320.7113449703835 482.0610245122447,314.6291429748101 482.0610245122447,362.38637202278585" />
  <polygon fill="hsl(324.0,50.0%,52.57800117743009%)" points="466.25900019489984,316.80293301909137 466.25900019489984,295.3121799475023 476.7936830731298,292.2710789497156 476.7936830731298,313.76183202130466" />
  <polygon fill="hsl(324.0,50.0%,52.57800117743009%)" points="468.36593677054583,318.5825742719328 468.36593677054583,294.70395974794496 474.6867464974838,292.8792991492729 474.6867464974838,316.7579136732608" />
</svg>
