<?xml version="1.0" encoding="UTF-8"?>
<svg
  xmlns="http://www.w3.org/2000/svg"
  width="848"
  height="600"
  style="background-color:white"
>
  <polygon fill="lightblue" points="363.4615242270663,489.9759526419165 259.5384757729337,399.9759526419165 484.5384757729337,335.0240473580835 588.4615242270663,425.0240473580835" />
  <polygon fill="steelblue" points="259.5384757729337,399.9759526419165 259.5384757729337,174.97595264191645 484.5384757729337,110.02404735808352 484.5384757729337,335.0240473580835" />
  <polygon fill="lightskyblue" points="588.4615242270663,425.0240473580835 588.4615242270663,200.02404735808355 484.5384757729337,110.02404735808352 484.5384757729337,335.0240473580835" />
  <polygon fill="white" points="544.2942286340599,386.7740473580835 544.2942286340599,296.7740473580835 528.7057713659401,283.2740473580835 528.7057713659401,373.2740473580835" />
  <polygon fill="white" points="285.7884757729337,356.3982303588026 285.7884757729337,320.3982303588026 308.2884757729337,313.90303983041935 308.2884757729337,349.90303983041935" />
  <polygon fill="white" points="323.2884757729337,345.57291281149713 323.2884757729337,309.57291281149713 345.7884757729337,303.0777222831138 345.7884757729337,339.07772228311387" />
  <polygon fill="white" points="360.7884757729337,334.74759526419166 360.7884757729337,298.74759526419166 383.2884757729337,292.25240473580834 383.2884757729337,328.25240473580834" />
  <polygon fill="white" points="398.2884757729337,323.92227771688613 398.2884757729337,287.92227771688613 420.7884757729337,281.42708718850287 420.7884757729337,317.42708718850287" />
  <polygon fill="white" points="435.7884757729337,313.09696016958065 435.7884757729337,277.09696016958065 458.2884757729337,270.60176964119734 458.2884757729337,306.6017696411974" />
</svg>
