<?xml version="1.0" encoding="UTF-8"?>
<svg
  xmlns="http://www.w3.org/2000/svg"
  width="848"
  height="600"
  style="background-color:white"
>
  <polygon fill="lightblue" points="342.8838133605349,524.402918287508 203.6361483521515,403.81090297258254 505.1161866394651,316.7811123423429 644.3638516478485,437.37312765726836" />
  <polygon fill="steelblue" points="203.6361483521515,403.81090297258254 203.6361483521515,162.62687234273164 505.1161866394651,75.59708171249198 505.1161866394651,316.7811123423429" />
  <polygon fill="lightskyblue" points="644.3638516478485,437.37312765726836 644.3638516478485,196.18909702741746 505.1161866394651,75.59708171249198 505.1161866394651,316.7811123423429" />
  <polygon fill="white" points="585.1835940192856,386.121521148425 585.1835940192856,265.52950583349957 564.296444268028,247.44070353626077 564.296444268028,368.03271885118625" />
  <polygon fill="white" points="231.63072333597347,347.492759145233 231.63072333597347,299.2559530192628 261.77872716470483,290.5529739562388 261.77872716470483,338.789780082209" />
  <polygon fill="white" points="274.69930023416117,335.0599319123416 274.69930023416117,286.8231257863714 304.84730406289253,278.12014672334743 304.84730406289253,326.3569528493176" />
  <polygon fill="white" points="317.7678771323488,322.6271046794502 317.7678771323488,274.39029855348 347.9158809610802,265.68731949045605 347.9158809610802,313.92412561642624" />
  <polygon fill="white" points="360.83645403053646,310.19427744655883 360.83645403053646,261.95747132058864 390.9844578592678,253.2544922575647 390.9844578592678,301.49129838353485" />
  <polygon fill="white" points="403.90503092872416,297.76145021366744 403.90503092872416,249.52464408769725 434.0530347574555,240.82166502467328 434.0530347574555,289.05847115064347" />
  <polygon fill="white" points="446.97360782691175,285.32862298077606 446.97360782691175,237.0918168548059 477.12161165564316,228.38883779178192 477.12161165564316,276.6256439177521" />
</svg>
