<?xml version="1.0" encoding="UTF-8"?>
<svg
  xmlns="http://www.w3.org/2000/svg"
  width="848"
  height="600"
  style="background-color:white"
>
  <polygon fill="lightblue" points="342.8838133605349,524.402918287508 203.6361483521515,403.81090297258254 505.1161866394651,316.7811123423429 644.3638516478485,437.37312765726836" />
  <polygon fill="steelblue" points="203.6361483521515,403.81090297258254 203.6361483521515,162.62687234273164 505.1161866394651,75.59708171249198 505.1161866394651,316.7811123423429" />
  <polygon fill="lightskyblue" points="644.3638516478485,437.37312765726836 644.3638516478485,196.18909702741746 505.1161866394651,75.59708171249198 505.1161866394651,316.7811123423429" />
  <polygon fill="white" points="585.1835940192856,386.121521148425 585.1835940192856,265.52950583349957 564.296444268028,247.44070353626077 564.296444268028,368.03271885118625" />
  <polygon fill="white" points="339.30216558144264,316.4106910630045 339.30216558144264,268.17388493703436 369.450169410174,259.4709058740104 369.450169410174,307.7077119999806" />
  <polygon fill="antiquewhite" points="490.48587757608044,431.77819356448185 490.48587757608044,329.27498054679523 514.6042806390656,322.31259729637605 514.6042806390656,424.8158103140627" />
  <polygon fill="beige" points="490.48587757608044,431.77819356448185 490.48587757608044,329.27498054679523 476.5611110752421,317.2157790153027 476.56111107524214,419.7189920329893" />
  <polygon fill="bisque" points="490.48587757608044,329.27498054679523 476.5611110752421,317.2157790153027 500.6795141382272,310.2533957648835 514.6042806390656,322.31259729637605" />
  <polygon fill="antiquewhite" points="359.63271506716495,505.1834409453002 359.63271506716495,402.68022792761354 383.75111813015,395.7178446771944 383.75111813015,498.221057694881" />
  <polygon fill="beige" points="359.63271506716495,505.1834409453002 359.63271506716495,402.68022792761354 345.7079485663266,390.621026396121 345.7079485663266,493.12423941380763" />
  <polygon fill="bisque" points="359.63271506716495,402.68022792761354 345.7079485663266,390.621026396121 369.8263516293117,383.65864314570183 383.75111813015,395.7178446771944" />
  <polygon fill="antiquewhite" points="459.98361184708364,350.1237096873837 459.98361184708364,247.6204966696971 484.10201491006876,240.65811341927792 484.10201491006876,343.16132643696454" />
  <polygon fill="beige" points="459.98361184708364,350.1237096873837 459.98361184708364,247.6204966696971 446.0588453462453,235.56129513820457 446.0588453462453,338.0645081558912" />
  <polygon fill="bisque" points="459.98361184708364,247.6204966696971 446.0588453462453,235.56129513820457 470.1772484092304,228.59891188778536 484.10201491006876,240.65811341927792" />
  <polygon fill="antiquewhite" points="426.24565384133007,385.6458557050548 426.24565384133007,283.14264268736815 450.3640569043152,276.180259436949 450.3640569043152,378.68347245463565" />
  <polygon fill="beige" points="426.24565384133007,385.6458557050548 426.24565384133007,283.14264268736815 412.3208873404917,271.0834411558756 412.32088734049177,373.58665417356224" />
  <polygon fill="bisque" points="426.24565384133007,283.14264268736815 412.3208873404917,271.0834411558756 436.43929040347683,264.12105790545644 450.3640569043152,276.180259436949" />
  <polygon fill="antiquewhite" points="384.1010955260833,368.8893328876012 384.1010955260833,266.3861198699145 408.21949858906845,259.42373661949534 408.21949858906845,361.926949637182" />
  <polygon fill="beige" points="384.1010955260833,368.8893328876012 384.1010955260833,266.3861198699145 370.17632902524497,254.326918338422 370.17632902524497,356.8301313561086" />
  <polygon fill="bisque" points="384.1010955260833,266.3861198699145 370.17632902524497,254.326918338422 394.2947320882301,247.3645350880028 408.21949858906845,259.42373661949534" />
</svg>
