<?xml version="1.0" encoding="UTF-8"?>
<svg
  xmlns="http://www.w3.org/2000/svg"
  width="848"
  height="600"
  style="background-color:white"
>
  <polygon fill="lightblue" points="353.1384839778597,548.7074200369326 231.4944440663917,443.36059125463316 494.8615160221403,367.3330663099657 616.5055559336083,472.67989509226516" />
  <polygon fill="steelblue" points="231.4944440663917,443.36059125463316 231.4944440663917,127.32010490773487 494.8615160221403,51.29257996306737 494.8615160221403,367.3330663099657" />
  <polygon fill="lightskyblue" points="616.5055559336083,472.67989509226516 616.5055559336083,156.6394087453668 494.8615160221403,51.29257996306737 494.8615160221403,367.3330663099657" />
  <polygon fill="white" points="544.532832319323,410.3496880627379 544.532832319323,305.0028592804385 526.2862263326028,289.2008349630936 526.2862263326028,394.54766374539304" />
  <polygon fill="white" points="585.0808456231457,445.4652976568378 585.0808456231457,340.11846887453834 566.8342396364255,324.3164445571934 566.8342396364255,429.66327333949283" />
  <polygon fill="white" points="270.999504859754,389.8177310000133 270.999504859754,347.6789994870935 297.3362120553289,340.07624699262675 297.3362120553289,382.2149785055466" />
  <polygon fill="white" points="323.6729192509037,374.61222601107977 323.6729192509037,332.47349449816 350.0096264464786,324.87074200369324 350.0096264464786,367.00947351661307" />
  <polygon fill="white" points="376.3463336420534,359.4067210221463 376.3463336420534,317.2679895092265 402.6830408376283,309.6652370147597 402.6830408376283,351.80396852767956" />
  <polygon fill="white" points="429.01974803320314,344.2012160332128 429.01974803320314,302.06248452029297 455.35645522877803,294.4597320258262 455.35645522877803,336.59846353874605" />
  <polygon fill="hsl(288.0,50.0%,52.57800117743009%)" points="451.74374406683864,466.1794738864759 451.74374406683864,430.0033728826342 458.0645537937766,428.1787122839622 458.0645537937766,464.35481328780384" />
  <polygon fill="hsl(288.0,50.0%,52.57800117743009%)" points="467.5457683841836,461.6178223897958 467.5457683841836,425.44172138595417 461.22495865724557,427.2663819846262 461.22495865724557,463.4424829884678" />
  <polygon fill="hsl(288.0,50.0%,52.57800117743009%)" points="445.4229343399007,432.18621269916605 445.4229343399007,396.36829091318424 450.9536428509714,394.7717128893462 450.9536428509714,430.58963467532806" />
  <polygon fill="hsl(288.0,50.0%,52.57800117743009%)" points="468.33586960005084,425.57181802898 468.33586960005084,389.75389624299817 473.86657811112156,388.1573182191601 473.86657811112156,423.9752400051419" />
  <polygon fill="hsl(288.0,50.0%,52.57800117743009%)" points="450.9536428509714,400.30242140041696 450.9536428509714,394.7717128893462 468.33586960005084,389.75389624299817 468.33586960005084,395.2846047540689" />
  <polygon fill="hsl(288.0,50.0%,52.57800117743009%)" points="451.74374406683864,430.361552100494 451.74374406683864,394.5436303145122 467.5457683841836,389.98197881783216 467.5457683841836,425.79990060381397" />
  <polygon fill="hsl(288.0,50.0%,52.57800117743009%)" points="455.69425014617485,391.6123213510431 455.69425014617485,375.4942565473513 463.5952623048473,373.2134307990113 463.5952623048473,389.33149560270306" />
  <polygon fill="hsl(288.0,50.0%,52.57800117743009%)" points="457.27445257790936,392.9470522906742 457.27445257790936,375.0380913976833 462.0150598731128,373.6695959486793 462.0150598731128,391.5785568416702" />
</svg>
