<?xml version="1.0" encoding="UTF-8"?>
<svg
  xmlns="http://www.w3.org/2000/svg"
  width="848"
  height="600"
  style="background-color:white"
>
  <polygon fill="lightblue" points="329.51797863714626,526.2630646002774 167.32592542185563,385.80062622387817 518.4820213628537,284.4305929643215 680.6740745781444,424.8930313407207" />
  <polygon fill="steelblue" points="167.32592542185563,385.80062622387817 167.32592542185563,175.1069686592793 518.4820213628537,73.7369353997226 518.4820213628537,284.4305929643215" />
  <polygon fill="lightskyblue" points="680.6740745781444,424.8930313407207 680.6740745781444,214.19937377612183 518.4820213628537,73.7369353997226 518.4820213628537,284.4305929643215" />
  <polygon fill="white" points="584.7104430924308,341.78608863468446 584.7104430924308,208.3467721771052 560.3816351101372,187.27740642064532 560.3816351101372,320.7167228782246" />
  <polygon fill="white" points="638.774460830861,388.60690142681756 638.774460830861,255.1675849692383 614.4456528485673,234.09821921277842 614.4456528485673,367.53753567035767" />
  <polygon fill="white" points="208.29413661497207,317.78914699303687 208.29413661497207,261.6041716424771 243.4097462090719,251.46716831652145 243.4097462090719,307.6521436670812" />
  <polygon fill="white" points="266.82015260513845,300.8941414497774 266.82015260513845,244.7091660992177 301.93576219923824,234.572162773262 301.93576219923824,290.75713812382173" />
  <polygon fill="white" points="325.3461685953048,283.99913590651795 325.3461685953048,227.81416055595824 360.4617781894046,217.67715723000256 360.4617781894046,273.8621325805623" />
  <polygon fill="white" points="383.87218458547113,267.1041303632585 383.87218458547113,210.91915501269878 418.9877941795709,200.7821516867431 418.9877941795709,256.9671270373028" />
  <polygon fill="white" points="442.3982005756375,250.20912481999903 442.3982005756375,194.02414946943932 477.51381016973727,183.88714614348368 477.51381016973727,240.07212149404336" />
  <polygon fill="hsl(288.0,50.0%,68.65222276527638%)" points="445.9965323476441,360.345873620966 445.9965323476441,312.1110722825105 454.4242786502281,309.6781914842812 454.4242786502281,357.91299282273667" />
  <polygon fill="hsl(288.0,50.0%,68.65222276527638%)" points="467.065898104104,354.26367162539265 467.065898104104,306.02887028693715 458.63815180152005,308.4617510851665 458.63815180152005,356.696552423622" />
  <polygon fill="hsl(288.0,50.0%,68.65222276527638%)" points="437.56878604506016,315.02152537121964 437.56878604506016,267.2642963232439 444.9430640598211,265.1355256247932 444.9430640598211,312.89275467276894" />
  <polygon fill="hsl(288.0,50.0%,68.65222276527638%)" points="468.119366391927,306.2023324776382 468.119366391927,258.4451034296625 475.49364440668796,256.3163327312118 475.49364440668796,304.0735617791875" />
  <polygon fill="hsl(288.0,50.0%,68.65222276527638%)" points="444.9430640598211,272.50980363955415 444.9430640598211,265.1355256247932 468.119366391927,258.4451034296625 468.119366391927,265.8193814444234" />
  <polygon fill="hsl(288.0,50.0%,68.65222276527638%)" points="445.9965323476441,312.5886445729903 445.9965323476441,264.83141552501456 467.065898104104,258.74921352944114 467.065898104104,306.50644257741686" />
  <polygon fill="hsl(288.0,50.0%,68.65222276527638%)" points="451.26387378675906,260.92300357372244 451.26387378675906,239.43225050213334 461.79855666498906,236.39114950434663 461.79855666498906,257.8819025759357" />
  <polygon fill="hsl(288.0,50.0%,68.65222276527638%)" points="453.37081036240505,262.70264482656387 453.37081036240505,238.82403030257598 459.691620089343,236.99936970390397 459.691620089343,260.87798422789183" />
  <polygon fill="hsl(288.0,50.0%,65.5749766448301%)" points="391.5484294145053,387.5900202252808 391.5484294145053,339.3552188868253 399.97617571708923,336.92233808859595 399.97617571708923,385.15713942705145" />
  <polygon fill="hsl(288.0,50.0%,65.5749766448301%)" points="412.6177951709651,381.5078182297074 412.6177951709651,333.2730168912519 404.19004886838115,335.7058976894813 404.19004886838115,383.9406990279368" />
  <polygon fill="hsl(288.0,50.0%,65.5749766448301%)" points="383.12068311192127,342.2656719755344 383.12068311192127,294.5084429275587 390.49496112668226,292.379672229108 390.49496112668226,340.1369012770837" />
  <polygon fill="hsl(288.0,50.0%,65.5749766448301%)" points="413.67126345878813,333.446479081953 413.67126345878813,285.68925003397726 421.04554147354906,283.56047933552657 421.04554147354906,331.3177083835023" />
  <polygon fill="hsl(288.0,50.0%,65.5749766448301%)" points="390.49496112668226,299.7539502438689 390.49496112668226,292.379672229108 413.67126345878813,285.68925003397726 413.67126345878813,293.0635280487382" />
  <polygon fill="hsl(288.0,50.0%,65.5749766448301%)" points="391.5484294145053,339.83279117730507 391.5484294145053,292.0755621293293 412.6177951709651,285.9933601337559 412.6177951709651,333.75058918173164" />
  <polygon fill="hsl(288.0,50.0%,65.5749766448301%)" points="396.8157708536202,288.16715017803716 396.8157708536202,266.6763971064481 407.35045373185017,263.6352961086614 407.35045373185017,285.12604918025045" />
  <polygon fill="hsl(288.0,50.0%,65.5749766448301%)" points="398.9227074292662,289.94679143087865 398.9227074292662,266.06817690689076 405.2435171562042,264.2435163082188 405.2435171562042,288.1221308322066" />
  <polygon fill="hsl(288.0,50.0%,63.87054183818537%)" points="318.6206407771742,415.02670126572906 318.6206407771742,366.79189992727356 327.04838707975813,364.35901912904416 327.0483870797582,412.5938204674997" />
  <polygon fill="hsl(288.0,50.0%,63.87054183818537%)" points="339.69000653363406,408.94449927015563 339.69000653363406,360.70969793170013 331.26226023105016,363.1425787299295 331.26226023105016,411.37738006838504" />
  <polygon fill="hsl(288.0,50.0%,63.87054183818537%)" points="310.1928944745903,369.7023530159827 310.1928944745903,321.9451239680069 317.5671724893512,319.8163532695562 317.5671724893512,367.573582317532" />
  <polygon fill="hsl(288.0,50.0%,63.87054183818537%)" points="340.7434748214571,360.88316012240125 340.7434748214571,313.12593107442547 348.117752836218,310.9971603759748 348.117752836218,358.75438942395056" />
  <polygon fill="hsl(288.0,50.0%,63.87054183818537%)" points="317.5671724893512,327.1906312843172 317.5671724893512,319.8163532695562 340.7434748214571,313.12593107442547 340.7434748214571,320.50020908918646" />
  <polygon fill="hsl(288.0,50.0%,63.87054183818537%)" points="318.6206407771742,367.26947221775333 318.6206407771742,319.51224316977755 339.69000653363406,313.4300411742042 339.69000653363406,361.1872702221799" />
  <polygon fill="hsl(288.0,50.0%,63.87054183818537%)" points="323.8879822162892,315.6038312184854 323.8879822162892,294.1130781468963 334.4226650945191,291.07197714910967 334.4226650945191,312.5627302206987" />
  <polygon fill="hsl(288.0,50.0%,63.87054183818537%)" points="325.99491879193516,317.38347247132685 325.99491879193516,293.504857947339 332.31572851887313,291.680197348667 332.31572851887313,315.55881187265487" />
  <polygon fill="hsl(288.0,50.0%,52.57800117743009%)" points="460.9916587557849,416.225803066335 460.9916587557849,367.9910017278795 469.41940505836885,365.55812092965016 469.41940505836885,413.79292226810566" />
  <polygon fill="hsl(288.0,50.0%,52.57800117743009%)" points="482.0610245122447,410.14360107076163 482.0610245122447,361.9087997323061 473.6332782096608,364.3416805305354 473.6332782096608,412.576481868991" />
  <polygon fill="hsl(288.0,50.0%,52.57800117743009%)" points="452.5639124532009,370.9014548165886 452.5639124532009,323.14422576861284 459.9381904679619,321.0154550701622 459.9381904679619,368.77268411813793" />
  <polygon fill="hsl(288.0,50.0%,52.57800117743009%)" points="483.11449280006775,362.0822619230072 483.11449280006775,314.3250328750314 490.4887708148287,312.1962621765807 490.4887708148287,359.9534912245565" />
  <polygon fill="hsl(288.0,50.0%,52.57800117743009%)" points="459.9381904679619,328.38973308492314 459.9381904679619,321.0154550701622 483.11449280006775,314.3250328750314 483.11449280006775,321.6993108897924" />
  <polygon fill="hsl(288.0,50.0%,52.57800117743009%)" points="460.9916587557849,368.4685740183593 460.99165875578484,320.7113449703835 482.0610245122447,314.6291429748101 482.0610245122447,362.38637202278585" />
  <polygon fill="hsl(288.0,50.0%,52.57800117743009%)" points="466.25900019489984,316.80293301909137 466.25900019489984,295.3121799475023 476.7936830731298,292.2710789497156 476.7936830731298,313.76183202130466" />
  <polygon fill="hsl(288.0,50.0%,52.57800117743009%)" points="468.36593677054583,318.5825742719328 468.36593677054583,294.70395974794496 474.6867464974838,292.8792991492729 474.6867464974838,316.7579136732608" />
  <polygon fill="hsl(288.0,50.0%,46.24652422154656%)" points="355.95903769413775,470.2617008680822 355.95903769413775,422.0268995296267 364.3867839967217,419.5940187313973 364.3867839967217,467.8288200698528" />
  <polygon fill="hsl(288.0,50.0%,46.24652422154656%)" points="377.02840345059764,464.1794988725088 377.02840345059764,415.94469753405326 368.6006571480137,418.3775783322826 368.6006571480137,466.61237967073816" />
  <polygon fill="hsl(288.0,50.0%,46.24652422154656%)" points="347.5312913915538,424.9373526183358 347.5312913915538,377.18012357036 354.9055694063147,375.05135287190933 354.9055694063147,422.8085819198851" />
  <polygon fill="hsl(288.0,50.0%,46.24652422154656%)" points="378.0818717384206,416.1181597247544 378.0818717384206,368.3609306767786 385.45614975318153,366.2321599783279 385.45614975318153,413.9893890263037" />
  <polygon fill="hsl(288.0,50.0%,46.24652422154656%)" points="354.9055694063147,382.4256308866703 354.9055694063147,375.05135287190933 378.0818717384206,368.3609306767786 378.0818717384206,375.7352086915396" />
  <polygon fill="hsl(288.0,50.0%,46.24652422154656%)" points="355.95903769413775,422.5044718201064 355.95903769413775,374.7472427721307 377.02840345059764,368.66504077655725 377.02840345059764,416.42226982453303" />
  <polygon fill="hsl(288.0,50.0%,46.24652422154656%)" points="361.2263791332527,370.83883082083855 361.2263791332527,349.34807774924946 371.76106201148264,346.3069767514628 371.76106201148264,367.79772982305184" />
  <polygon fill="hsl(288.0,50.0%,46.24652422154656%)" points="363.3333157088987,372.61847207368 363.3333157088987,348.73985754969215 369.65412543583665,346.9151969510201 369.65412543583665,370.79381147500794" />
</svg>
