<?xml version="1.0" encoding="UTF-8"?>
<svg
  xmlns="http://www.w3.org/2000/svg"
  width="848"
  height="600"
  style="background-color:white"
>
  <polygon fill="lightblue" points="353.1384839778597,548.7074200369326 231.4944440663917,443.36059125463316 494.8615160221403,367.3330663099657 616.5055559336083,472.67989509226516" />
  <polygon fill="steelblue" points="231.4944440663917,443.36059125463316 231.4944440663917,127.32010490773487 494.8615160221403,51.29257996306737 494.8615160221403,367.3330663099657" />
  <polygon fill="lightskyblue" points="616.5055559336083,472.67989509226516 616.5055559336083,156.6394087453668 494.8615160221403,51.29257996306737 494.8615160221403,367.3330663099657" />
  <polygon fill="white" points="564.8068389712344,427.90749285978785 564.8068389712344,322.5606640774884 546.5602329845142,306.7586397601435 546.5602329845142,412.10546854244296" />
  <polygon fill="white" points="284.16785845754146,386.01635475277993 284.16785845754146,343.87762323986016 310.5045656531163,336.2748707453934 310.5045656531163,378.4136022583132" />
  <polygon fill="white" points="350.0096264464786,367.00947351661307 350.0096264464786,324.87074200369324 376.3463336420534,317.2679895092265 376.3463336420534,359.4067210221463" />
  <polygon fill="white" points="415.8513944354157,348.00259228044615 415.8513944354157,305.8638607675264 442.18810163099056,298.2611082730596 442.1881016309906,340.3998397859794" />
  <polygon fill="antiquewhite" points="482.08076383131305,467.7922699673197 482.08076383131305,378.24746550236523 503.15012958777294,372.1652635067918 503.15012958777294,461.71006797174635" />
  <polygon fill="beige" points="482.08076383131305,467.7922699673197 482.08076383131305,378.24746550236523 469.91635984016625,367.71278262413523 469.91635984016625,457.25758708908984" />
  <polygon fill="bisque" points="482.08076383131305,378.24746550236523 469.91635984016625,367.71278262413523 490.98572559662614,361.63058062856186 503.15012958777294,372.1652635067918" />
  <polygon fill="antiquewhite" points="367.7699973145602,531.9176600883379 367.7699973145602,442.37285562338343 388.83936307102005,436.29065362781006 388.8393630710201,525.8354580927646" />
  <polygon fill="beige" points="367.7699973145602,531.9176600883379 367.7699973145602,442.37285562338343 355.60559332341336,431.8381727451535 355.6055933234134,521.382977210108" />
  <polygon fill="bisque" points="367.7699973145602,442.37285562338343 355.60559332341336,431.8381727451535 376.67495907987325,425.7559707495801 388.83936307102005,436.29065362781006" />
  <polygon fill="antiquewhite" points="455.43458036026595,396.46050799416173 455.4345803602659,306.9157035292072 476.50394611672584,300.8335015336338 476.50394611672584,390.3783059985883" />
  <polygon fill="beige" points="455.43458036026595,396.46050799416173 455.4345803602659,306.9157035292072 443.2701763691191,296.38102065097723 443.2701763691191,385.9258251159318" />
  <polygon fill="bisque" points="455.4345803602659,306.9157035292072 443.2701763691191,296.38102065097723 464.339542125579,290.2988186554038 476.50394611672584,300.8335015336338" />
  <polygon fill="antiquewhite" points="425.961759326346,427.4919608207095 425.961759326346,337.94715635575494 447.0311250828059,331.86495436018157 447.0311250828059,421.40975882513607" />
  <polygon fill="beige" points="425.961759326346,427.4919608207095 425.961759326346,337.94715635575494 413.7973553351992,327.412473477525 413.7973553351992,416.95727794247955" />
  <polygon fill="bisque" points="425.961759326346,337.94715635575494 413.7973553351992,327.412473477525 434.8667210916591,321.33027148195157 447.0311250828059,331.86495436018157" />
  <polygon fill="antiquewhite" points="389.1450964872067,412.85378983047394 389.1450964872067,323.3089853655194 410.2144622436666,317.226783369946 410.2144622436666,406.7715878349005" />
  <polygon fill="beige" points="389.1450964872067,412.85378983047394 389.1450964872067,323.3089853655194 376.9806924960599,312.77430248728945 376.9806924960599,402.319106952244" />
  <polygon fill="bisque" points="389.1450964872067,323.3089853655194 376.9806924960599,312.77430248728945 398.0500582525198,306.6921004917161 410.2144622436666,317.226783369946" />
</svg>
