<?xml version="1.0" encoding="UTF-8"?>
<svg
  xmlns="http://www.w3.org/2000/svg"
  width="848"
  height="600"
  style="background-color:white"
>
  <polygon fill="lightblue" points="307.49364905389035,665.6088913245535 107.49364905389035,492.40381056766574 540.5063509461096,367.40381056766574 740.5063509461097,540.6088913245535" />
  <polygon fill="steelblue" points="107.49364905389035,492.40381056766574 107.49364905389035,59.39110867544653 540.5063509461096,-65.6088913245535 540.5063509461096,367.40381056766574" />
  <polygon fill="lightskyblue" points="740.5063509461097,540.6088913245535 740.5063509461097,107.59618943233426 540.5063509461096,-65.6088913245535 540.5063509461096,367.40381056766574" />
  <polygon fill="white" points="655.5063509461096,466.99673200287623 655.5063509461096,293.7916512459885 625.5063509461097,267.8108891324553 625.5063509461097,441.01596988934307" />
  <polygon fill="white" points="147.70197137245356,411.51463540776786 147.70197137245356,342.23260310501274 191.0032415616755,329.73260310501274 191.0032415616755,399.01463540776786" />
  <polygon fill="white" points="209.56092878562777,393.65749255062497 209.56092878562777,324.3754602478699 252.8621989748497,311.8754602478699 252.8621989748497,381.15749255062497" />
  <polygon fill="white" points="271.4198861988019,375.80034969348213 271.4198861988019,306.518317390727 314.72115638802387,294.018317390727 314.72115638802387,363.30034969348213" />
  <polygon fill="white" points="333.27884361197613,357.94320683633924 333.27884361197613,288.6611745335842 376.5801138011981,276.1611745335842 376.5801138011981,345.44320683633924" />
  <polygon fill="white" points="395.13780102515034,340.0860639791964 395.13780102515034,270.8040316764413 438.4390712143723,258.3040316764413 438.4390712143723,327.5860639791964" />
  <polygon fill="white" points="456.9967584383245,322.2289211220535 456.9967584383245,252.94688881929844 500.2980286275464,240.44688881929844 500.2980286275464,309.7289211220535" />
</svg>
