<?xml version="1.0" encoding="UTF-8"?>
<svg
  xmlns="http://www.w3.org/2000/svg"
  width="848"
  height="600"
  style="background-color:white"
>
  <polygon fill="lightblue" points="307.49364905389035,579.0063509461097 107.49364905389035,405.80127018922195 540.5063509461096,280.8012701892219 740.5063509461097,454.00635094610965" />
  <polygon fill="steelblue" points="107.49364905389035,405.80127018922195 107.49364905389035,145.99364905389035 540.5063509461096,20.993649053890294 540.5063509461096,280.8012701892219" />
  <polygon fill="lightskyblue" points="740.5063509461097,454.00635094610965 740.5063509461097,194.19872981077805 540.5063509461096,20.993649053890294 540.5063509461096,280.8012701892219" />
  <polygon fill="white" points="655.5063509461096,380.3941916244323 655.5063509461096,207.18911086754463 625.5063509461097,181.20834875401147 625.5063509461097,354.4134295108992" />
  <polygon fill="white" points="172.44555433772325,317.76923788646684 172.44555433772325,248.48720558371176 215.74682452694518,235.98720558371173 215.74682452694518,305.26923788646684" />
  <polygon fill="white" points="259.0480947161671,292.76923788646684 259.0480947161671,223.48720558371173 302.34936490538905,210.98720558371173 302.34936490538905,280.26923788646684" />
  <polygon fill="white" points="345.65063509461095,267.76923788646684 345.65063509461095,198.48720558371173 388.9519052838329,185.98720558371173 388.9519052838329,255.2692378864668" />
  <polygon fill="white" points="432.2531754730548,242.7692378864668 432.2531754730548,173.48720558371173 475.55444566227675,160.9872055837117 475.55444566227675,230.2692378864668" />
</svg>
