<?xml version="1.0" encoding="UTF-8"?>
<svg
  xmlns="http://www.w3.org/2000/svg"
  width="848"
  height="600"
  style="background-color:white"
>
  <polygon fill="lightblue" points="348.6984027738017,536.3041435361146 219.4323213718887,424.35643319439066 499.3015972261983,343.565132318195 628.5676786281113,455.5128426599189" />
  <polygon fill="steelblue" points="219.4323213718887,424.35643319439066 219.4323213718887,144.48715734008113 499.3015972261983,63.69585646388546 499.3015972261983,343.565132318195" />
  <polygon fill="lightskyblue" points="628.5676786281113,455.5128426599189 628.5676786281113,175.64356680560934 499.3015972261983,63.69585646388546 499.3015972261983,343.565132318195" />
  <polygon fill="white" points="573.6295940322982,407.9350657646862 573.6295940322982,295.9873554229624 554.2396818220113,279.19519887170384 554.2396818220113,391.1429092134277" />
  <polygon fill="white" points="245.4201827012174,372.07529969062585 245.4201827012174,327.2962155539363 273.4071102866484,319.21708546631675 273.4071102866484,363.9961696030063" />
  <polygon fill="white" points="285.4015078232617,360.5336852797408 285.4015078232617,315.7546011430512 313.38843540869266,307.6754710554317 313.38843540869266,352.45455519212123" />
  <polygon fill="white" points="325.3828329453059,348.99207086885565 325.3828329453059,304.21298673216614 353.36976053073687,296.13385664454654 353.36976053073687,340.9129407812361" />
  <polygon fill="white" points="365.3641580673501,337.4504564579706 365.3641580673501,292.671372321281 393.3510856527811,284.59224223366147 393.3510856527811,329.371326370351" />
  <polygon fill="white" points="405.3454831893944,325.9088420470855 405.3454831893944,281.12975791039594 433.33241077482535,273.0506278227764 433.33241077482535,317.8297119594659" />
  <polygon fill="white" points="445.3268083114386,314.36722763620037 445.3268083114386,269.58814349951086 473.3137358968695,261.50901341189126 473.3137358968695,306.2880975485808" />
</svg>
