<?xml version="1.0" encoding="UTF-8"?>
<svg
  xmlns="http://www.w3.org/2000/svg"
  width="848"
  height="600"
  style="background-color:white"
>
  <polygon fill="lightblue" points="345.8451638422156,487.16315006089917 211.6810851922282,370.9736496746767 502.1548361577844,287.12110051843456 636.3189148077718,403.31060090465706" />
  <polygon fill="steelblue" points="211.6810851922282,370.9736496746767 211.6810851922282,196.68939909534294 502.1548361577844,112.8368499391008 502.1548361577844,287.12110051843456" />
  <polygon fill="lightskyblue" points="636.3189148077718,403.31060090465706 636.3189148077718,229.0263503253233 502.1548361577844,112.8368499391008 502.1548361577844,287.12110051843456" />
  <polygon fill="white" points="579.2991813815272,353.9300632405125 579.2991813815272,237.74056285428998 559.1745695840291,220.3121377963566 559.1745695840291,336.50163818257914" />
  <polygon fill="white" points="255.25214783706164,311.9199671467514 255.25214783706164,265.44416699226235 284.29952293361725,257.05891207663814 284.29952293361725,303.5347122311272" />
  <polygon fill="white" points="313.3468980301729,295.14945731550296 313.3468980301729,248.67365716101395 342.39427312672854,240.2884022453897 342.39427312672854,286.76420239987874" />
  <polygon fill="white" points="371.4416482232841,278.3789474842545 371.4416482232841,231.90314732976552 400.48902331983976,223.5178924141413 400.48902331983976,269.9936925686303" />
  <polygon fill="white" points="429.53639841639534,261.6084376530061 429.53639841639534,215.13263749851708 458.583773512951,206.74738258289287 458.583773512951,253.22318273738188" />
</svg>
