<?xml version="1.0" encoding="UTF-8"?>
<svg
  xmlns="http://www.w3.org/2000/svg"
  width="848"
  height="600"
  style="background-color:white"
>
  <polygon fill="lightblue" points="342.8838133605349,524.402918287508 203.6361483521515,403.81090297258254 505.1161866394651,316.7811123423429 644.3638516478485,437.37312765726836" />
  <polygon fill="steelblue" points="203.6361483521515,403.81090297258254 203.6361483521515,162.62687234273164 505.1161866394651,75.59708171249198 505.1161866394651,316.7811123423429" />
  <polygon fill="lightskyblue" points="644.3638516478485,437.37312765726836 644.3638516478485,196.18909702741746 505.1161866394651,75.59708171249198 505.1161866394651,316.7811123423429" />
  <polygon fill="white" points="561.9756498512216,366.02285192927076 561.9756498512216,245.43083661434534 541.0885000999641,227.34203431710654 541.0885000999641,347.934049632032" />
  <polygon fill="white" points="608.3915381873494,406.2201903675793 608.3915381873494,285.62817505265383 587.5043884360919,267.539372755415 587.5043884360919,388.13138807034045" />
  <polygon fill="white" points="238.80881948567145,345.4206212730844 238.80881948567145,297.1838151471142 268.9568233144028,288.48083608409024 268.9568233144028,336.71764221006043" />
  <polygon fill="white" points="289.05549253355707,330.91565616804445 289.05549253355707,282.67885004207426 319.20349636228843,273.9758709790503 319.20349636228843,322.2126771050205" />
  <polygon fill="white" points="339.30216558144264,316.4106910630045 339.30216558144264,268.17388493703436 369.450169410174,259.4709058740104 369.450169410174,307.7077119999806" />
  <polygon fill="white" points="389.54883862932826,301.9057259579646 389.54883862932826,253.6689198319944 419.6968424580596,244.96594076897043 419.6968424580596,293.2027468949406" />
  <polygon fill="white" points="439.7955116772139,287.40076085292463 439.7955116772139,239.16395472695444 469.94351550594524,230.46097566393047 469.94351550594524,278.69778178990066" />
  <polygon fill="hsl(360.0,50.0%,52.57800117743009%)" points="455.7586589750647,429.9320029204057 455.7586589750647,388.52070486126024 462.9941798939602,386.4319898861345 462.9941798939602,427.8432879452799" />
  <polygon fill="hsl(360.0,50.0%,52.57800117743009%)" points="473.8474612723035,424.71021548259125 473.8474612723035,383.29891742344586 466.611940353408,385.3876323985716 466.611940353408,426.798930457717" />
  <polygon fill="hsl(360.0,50.0%,52.57800117743009%)" points="448.52313805616916,391.01943268845673 448.52313805616916,350.01814748138213 454.85421886020276,348.1905218781471 454.85421886020276,389.19180708522174" />
  <polygon fill="hsl(360.0,50.0%,52.57800117743009%)" points="474.75190138716545,383.4478409036259 474.75190138716545,342.44655569655123 481.08298219119905,340.61893009331624 481.08298219119905,381.6202153003909" />
  <polygon fill="hsl(360.0,50.0%,52.57800117743009%)" points="454.85421886020276,354.5216026821807 454.85421886020276,348.1905218781471 474.75190138716545,342.44655569655123 474.75190138716545,348.77763650058483" />
  <polygon fill="hsl(360.0,50.0%,52.57800117743009%)" points="455.7586589750647,388.930717713331 455.7586589750647,347.9294325062564 473.8474612723035,342.707645068442 473.8474612723035,383.70893027551665" />
  <polygon fill="hsl(360.0,50.0%,52.57800117743009%)" points="460.2808595493744,344.573921386449 460.2808595493744,326.12334304326544 469.3252606979938,323.5124493243583 469.3252606979938,341.96302766754184" />
  <polygon fill="hsl(360.0,50.0%,52.57800117743009%)" points="462.0897397790983,346.1018069030213 462.0897397790983,325.601164299484 467.5163804682699,324.0346280681397 467.5163804682699,344.535270671677" />
</svg>
