<?xml version="1.0" encoding="UTF-8"?>
<svg
  xmlns="http://www.w3.org/2000/svg"
  width="848"
  height="600"
  style="background-color:white"
>
  <polygon fill="lightblue" points="334.7200843362426,513.8051984277098 181.458197857532,381.07651130521964 513.2799156637574,285.28783225602547 666.541802142468,418.0165193785156" />
  <polygon fill="steelblue" points="181.458197857532,381.07651130521964 181.458197857532,181.98348062148438 513.2799156637574,86.19480157229023 513.2799156637574,285.28783225602547" />
  <polygon fill="lightskyblue" points="666.541802142468,418.0165193785156 666.541802142468,218.92348869478036 513.2799156637574,86.19480157229023 513.2799156637574,285.28783225602547" />
  <polygon fill="white" points="575.8618526425641,339.4853794977089 575.8618526425641,206.75669237521876 552.8725696707576,186.84738930684526 552.8725696707576,319.5760764293354" />
  <polygon fill="white" points="626.9491481354678,383.72827520520565 626.9491481354678,250.9995880827155 603.9598651636611,231.09028501434196 603.9598651636611,363.81897213683214" />
  <polygon fill="hsl(360.0,50.0%,52.57800117743009%)" points="458.95492715270603,409.8265018681587 458.95492715270603,364.24747071029554 466.9186483800554,361.94854241311486 466.9186483800554,407.527573570978" />
  <polygon fill="hsl(360.0,50.0%,52.57800117743009%)" points="478.86423022107954,404.079181125207 478.86423022107954,358.50014996734393 470.9005089937301,360.79907826452455 470.9005089937301,406.3781094223877" />
  <polygon fill="hsl(360.0,50.0%,52.57800117743009%)" points="450.9912059253566,366.9976765436927 450.9912059253566,321.86992292204604 457.9594619992873,319.85836066201296 457.9594619992873,364.9861142836596" />
  <polygon fill="hsl(360.0,50.0%,52.57800117743009%)" points="479.8596953744982,358.6640614664128 479.8596953744982,313.53630784476616 486.82795144842896,311.52474558473307 486.82795144842896,356.65249920637973" />
  <polygon fill="hsl(360.0,50.0%,52.57800117743009%)" points="457.9594619992873,326.8266167359437 457.9594619992873,319.85836066201296 479.8596953744982,313.53630784476616 479.8596953744982,320.5045639186969" />
  <polygon fill="hsl(360.0,50.0%,52.57800117743009%)" points="458.95492715270603,364.698748246512 458.954927152706,319.57099462486536 478.86423022107954,313.8236738819137 478.86423022107954,358.95142750356035" />
  <polygon fill="hsl(360.0,50.0%,52.57800117743009%)" points="463.93225291979934,315.8777767580451 463.93225291979934,295.57028762830413 473.8869044539862,292.6966272568283 473.8869044539862,313.0041163865693" />
  <polygon fill="hsl(360.0,50.0%,52.57800117743009%)" points="465.92318322663675,317.5594323648323 465.92318322663675,294.995555554009 471.89597414714876,293.2713593311235 471.89597414714876,315.8352361419468" />
</svg>
