<?xml version="1.0" encoding="UTF-8"?>
<svg
  xmlns="http://www.w3.org/2000/svg"
  width="848"
  height="600"
  style="background-color:white"
>
  <polygon fill="lightblue" points="307.49364905389035,708.9101615137754 107.49364905389035,535.7050807568877 540.5063509461096,410.7050807568877 740.5063509461097,583.9101615137754" />
  <polygon fill="steelblue" points="107.49364905389035,535.7050807568877 107.49364905389035,16.08983848622455 540.5063509461096,-108.91016151377545 540.5063509461096,410.7050807568877" />
  <polygon fill="lightskyblue" points="740.5063509461097,583.9101615137754 740.5063509461097,64.29491924311228 540.5063509461096,-108.91016151377545 540.5063509461096,410.7050807568877" />
  <polygon fill="white" points="655.5063509461096,510.2980021920981 655.5063509461096,337.0929214352104 625.5063509461097,311.11215932167727 625.5063509461097,484.31724007856496" />
  <polygon fill="white" points="172.44555433772325,447.67304845413264 172.44555433772325,378.3910161513775 215.74682452694518,365.8910161513775 215.74682452694523,435.17304845413264" />
  <polygon fill="white" points="259.0480947161671,422.67304845413264 259.0480947161671,353.3910161513775 302.34936490538905,340.8910161513775 302.34936490538905,410.17304845413264" />
  <polygon fill="white" points="345.65063509461095,397.67304845413264 345.65063509461095,328.3910161513775 388.9519052838329,315.8910161513775 388.9519052838329,385.17304845413264" />
  <polygon fill="white" points="432.25317547305485,372.67304845413264 432.2531754730548,303.3910161513775 475.55444566227675,290.8910161513775 475.5544456622768,360.17304845413264" />
</svg>
