<?xml version="1.0" encoding="UTF-8"?>
<svg
  xmlns="http://www.w3.org/2000/svg"
  width="848"
  height="600"
  style="background-color:white"
>
  <polygon fill="lightblue" points="368.73618537030706,493.9631203156283 273.8678555652557,411.8047366898534 479.26381462969294,352.51203056169635 574.1321444347443,434.67041418747124" />
  <polygon fill="steelblue" points="273.8678555652557,411.8047366898534 273.8678555652557,165.32958581252876 479.26381462969294,106.03687968437166 479.26381462969294,352.51203056169635" />
  <polygon fill="lightskyblue" points="574.1321444347443,434.67041418747124 574.1321444347443,188.19526331014657 479.26381462969294,106.03687968437166 479.26381462969294,352.51203056169635" />
  <polygon fill="white" points="533.8131042675975,399.7531011465169 533.8131042675975,317.594717520742 519.5828547968398,305.27095997687576 519.5828547968398,387.42934360265065" />
  <polygon fill="white" points="304.6772494249213,370.0474773203199 304.6772494249213,337.18412387000996 325.216845331365,331.25485325719427 325.21684533136505,364.1182067075042" />
  <polygon fill="white" points="345.75644123780876,358.18893609468853 345.75644123780876,325.3255826443785 366.29603714425247,319.39631203156284 366.29603714425247,352.2596654818728" />
  <polygon fill="white" points="386.8356330506962,346.3303948690571 386.8356330506962,313.4670414187471 407.37522895713994,307.5377708059314 407.37522895713994,340.40112425624136" />
  <polygon fill="white" points="427.91482486358365,334.4718536434257 427.91482486358365,301.6085001931157 448.45442077002735,295.6792295803 448.45442077002735,328.54258303060993" />
</svg>
