<?xml version="1.0" encoding="UTF-8"?>
<svg
  xmlns="http://www.w3.org/2000/svg"
  width="848"
  height="600"
  style="background-color:white"
>
  <polygon fill="lightblue" points="348.6984027738017,536.3041435361146 219.4323213718887,424.35643319439066 499.3015972261983,343.565132318195 628.5676786281113,455.5128426599189" />
  <polygon fill="steelblue" points="219.4323213718887,424.35643319439066 219.4323213718887,144.48715734008113 499.3015972261983,63.69585646388546 499.3015972261983,343.565132318195" />
  <polygon fill="lightskyblue" points="628.5676786281113,455.5128426599189 628.5676786281113,175.64356680560934 499.3015972261983,63.69585646388546 499.3015972261983,343.565132318195" />
  <polygon fill="white" points="275.4061765427506,363.41908888246206 275.4061765427506,318.6400047457725 303.39310412818156,310.56087465815295 303.39310412818156,355.33995879484246" />
  <polygon fill="white" points="345.373495506328,343.22126366341314 345.373495506328,298.4421795267236 373.36042309175895,290.36304943910403 373.36042309175895,335.14213357579354" />
  <polygon fill="white" points="415.3408144699054,323.0234384443642 415.3408144699054,278.24435430767466 443.3277420553364,270.1652242200551 443.3277420553364,314.9443083567446" />
  <polygon fill="hsl(288.0,50.0%,68.65222276527638%)" points="441.53110269364487,404.06914995945976 441.53110269364487,365.6263062281118 448.24796531414836,363.6873150070831 448.24796531414836,402.1301587384311" />
  <polygon fill="hsl(288.0,50.0%,68.65222276527638%)" points="458.32325924490345,399.221671906888 458.32325924490345,360.77882817554007 451.6063966244,362.71781939656876 451.6063966244,401.1606631279167" />
  <polygon fill="hsl(288.0,50.0%,68.65222276527638%)" points="434.81424007314143,367.9459196643023 434.81424007314143,329.88369814811625 440.69149486608194,328.18708082971614 440.69149486608194,366.24930234590227" />
  <polygon fill="hsl(288.0,50.0%,68.65222276527638%)" points="459.1628670724664,360.91707648807335 459.1628670724664,322.8548549718872 465.0401218654069,321.1582376534871 465.0401218654069,359.22045916967323" />
  <polygon fill="hsl(288.0,50.0%,68.65222276527638%)" points="440.69149486608194,334.06433562265664 440.69149486608194,328.18708082971614 459.1628670724664,322.8548549718872 459.1628670724664,328.7321097648277" />
  <polygon fill="hsl(288.0,50.0%,68.65222276527638%)" points="441.53110269364487,366.00692844327364 441.53110269364487,327.9447069270875 458.32325924490345,323.0972288745158 458.32325924490345,361.1594503907019" />
  <polygon fill="hsl(288.0,50.0%,68.65222276527638%)" points="445.7291418314595,324.8297263381353 445.7291418314595,307.7017266558516 454.1252201070888,305.2779876295657 454.1252201070888,322.4059873118494" />
  <polygon fill="hsl(288.0,50.0%,68.65222276527638%)" points="447.4083574865854,326.24808960868745 447.4083574865854,307.2169788505944 452.44600445196295,305.76273543482284 452.44600445196295,324.7938461929159" />
  <polygon fill="hsl(288.0,50.0%,63.87054183818537%)" points="340.01329068016867,447.6494375094884 340.01329068016867,409.2065937781404 346.7301533006721,407.26760255711173 346.7301533006721,445.7104462884597" />
  <polygon fill="hsl(288.0,50.0%,63.87054183818537%)" points="356.8054472314272,442.8019594569166 356.8054472314272,404.3591157255687 350.0885846109238,406.2981069465974 350.0885846109238,444.74095067794536" />
  <polygon fill="hsl(288.0,50.0%,63.87054183818537%)" points="333.29642805966523,411.52620721433095 333.29642805966523,373.4639856981448 339.17368285260574,371.76736837974477 339.17368285260574,409.82958989593084" />
  <polygon fill="hsl(288.0,50.0%,63.87054183818537%)" points="357.6450550589901,404.497364038102 357.6450550589901,366.43514252191585 363.52230985193063,364.73852520351574 363.52230985193063,402.80074671970186" />
  <polygon fill="hsl(288.0,50.0%,63.87054183818537%)" points="339.17368285260574,377.6446231726853 339.17368285260574,371.76736837974477 357.6450550589901,366.43514252191585 357.6450550589901,372.31239731485636" />
  <polygon fill="hsl(288.0,50.0%,63.87054183818537%)" points="340.01329068016867,409.58721599330227 340.01329068016867,371.52499447711614 356.8054472314272,366.6775164245444 356.8054472314272,404.73973794073055" />
  <polygon fill="hsl(288.0,50.0%,63.87054183818537%)" points="344.2113298179833,368.4100138881639 344.2113298179833,351.28201420588016 352.60740809361255,348.85827517959433 352.60740809361255,365.9862748618781" />
  <polygon fill="hsl(288.0,50.0%,63.87054183818537%)" points="345.8905454731091,369.8283771587161 345.8905454731091,350.797266400623 350.9281924384867,349.3430229848515 350.9281924384867,368.37413374294454" />
  <polygon fill="hsl(288.0,50.0%,52.57800117743009%)" points="453.48212737383534,448.6051143622905 453.48212737383534,410.16227063094254 460.1989899943388,408.22327940991386 460.1989899943388,446.6661231412618" />
  <polygon fill="hsl(288.0,50.0%,52.57800117743009%)" points="470.27428392509387,443.7576363097188 470.27428392509387,405.3147925783708 463.55742130459043,407.2537837993995 463.55742130459043,445.6966275307475" />
  <polygon fill="hsl(288.0,50.0%,52.57800117743009%)" points="446.7652647533319,412.48188406713314 446.7652647533319,374.419662550947 452.6425195462724,372.72304523254695 452.6425195462724,410.785266748733" />
  <polygon fill="hsl(288.0,50.0%,52.57800117743009%)" points="471.11389175265685,405.4530408909041 471.11389175265685,367.39081937471803 476.9911465455973,365.69420205631786 476.9911465455973,403.756423572504" />
  <polygon fill="hsl(288.0,50.0%,52.57800117743009%)" points="452.6425195462724,378.6003000254874 452.6425195462724,372.72304523254695 471.11389175265685,367.39081937471803 471.11389175265685,373.2680741676585" />
  <polygon fill="hsl(288.0,50.0%,52.57800117743009%)" points="453.48212737383534,410.54289284610445 453.48212737383534,372.4806713299183 470.27428392509387,367.6331932773466 470.27428392509387,405.6954147935327" />
  <polygon fill="hsl(288.0,50.0%,52.57800117743009%)" points="457.68016651164993,369.3656907409661 457.68016651164993,352.23769105868234 466.0762447872793,349.81395203239646 466.0762447872793,366.9419517146802" />
  <polygon fill="hsl(288.0,50.0%,52.57800117743009%)" points="459.35938216677584,370.7840540115182 459.35938216677584,351.7529432534252 464.39702913215336,350.29869983765366 464.39702913215336,369.3298105957467" />
  <polygon fill="hsl(288.0,50.0%,46.24652422154656%)" points="369.77176626268334,491.6713967441674 369.7717662626833,453.2285530128194 376.4886288831867,451.2895617917907 376.4886288831868,489.7324055231387" />
  <polygon fill="hsl(288.0,50.0%,46.24652422154656%)" points="386.5639228139419,486.8239186915956 386.5639228139419,448.3810749602477 379.84706019343844,450.3200661812764 379.8470601934385,488.7629099126243" />
  <polygon fill="hsl(288.0,50.0%,46.24652422154656%)" points="363.05490364217985,455.54816644900995 363.05490364217985,417.4859449328238 368.9321584351204,415.78932761442377 368.9321584351204,453.8515491306099" />
  <polygon fill="hsl(288.0,50.0%,46.24652422154656%)" points="387.4035306415048,448.519323272781 387.4035306415048,410.45710175659485 393.2807854344453,408.76048443819474 393.2807854344453,446.8227059543808" />
  <polygon fill="hsl(288.0,50.0%,46.24652422154656%)" points="368.9321584351204,421.6665824073643 368.9321584351204,415.78932761442377 387.4035306415048,410.45710175659485 387.4035306415048,416.33435654953536" />
  <polygon fill="hsl(288.0,50.0%,46.24652422154656%)" points="369.7717662626833,453.60917522798127 369.7717662626833,415.54695371179514 386.5639228139419,410.6994756592234 386.5639228139419,448.76169717540955" />
  <polygon fill="hsl(288.0,50.0%,46.24652422154656%)" points="373.969805400498,412.4319731228429 373.969805400498,395.30397344055916 382.3658836761273,392.88023441427333 382.3658836761273,410.0082340965571" />
  <polygon fill="hsl(288.0,50.0%,46.24652422154656%)" points="375.64902105562385,413.8503363933951 375.64902105562385,394.819225635302 380.68666802100137,393.3649822195305 380.68666802100137,412.39609297762354" />
</svg>
