<?xml version="1.0" encoding="UTF-8"?>
<svg
  xmlns="http://www.w3.org/2000/svg"
  width="848"
  height="600"
  style="background-color:white"
>
  <polygon fill="lightblue" points="307.49364905389035,622.3076211353316 107.49364905389035,449.1025403784439 540.5063509461096,324.10254037844385 740.5063509461097,497.30762113533154" />
  <polygon fill="steelblue" points="107.49364905389035,449.1025403784439 107.49364905389035,102.69237886466846 540.5063509461096,-22.307621135331658 540.5063509461096,324.10254037844385" />
  <polygon fill="lightskyblue" points="740.5063509461097,497.30762113533154 740.5063509461097,150.89745962155612 540.5063509461096,-22.307621135331658 540.5063509461096,324.10254037844385" />
  <polygon fill="white" points="655.5063509461096,423.6954618136543 655.5063509461096,250.49038105676655 625.5063509461097,224.50961894323342 625.5063509461097,397.7146997001211" />
  <polygon fill="white" points="172.44555433772325,361.0705080756888 172.44555433772325,291.7884757729337 215.74682452694518,279.2884757729337 215.74682452694518,348.5705080756888" />
  <polygon fill="white" points="259.0480947161671,336.07050807568874 259.0480947161671,266.7884757729337 302.34936490538905,254.28847577293368 302.34936490538905,323.57050807568874" />
  <polygon fill="white" points="345.65063509461095,311.07050807568874 345.65063509461095,241.78847577293368 388.9519052838329,229.28847577293365 388.9519052838329,298.57050807568874" />
  <polygon fill="white" points="432.2531754730548,286.07050807568874 432.2531754730548,216.78847577293365 475.55444566227675,204.28847577293362 475.55444566227675,273.57050807568874" />
</svg>
