<?xml version="1.0" encoding="UTF-8"?>
<svg
  xmlns="http://www.w3.org/2000/svg"
  width="848"
  height="600"
  style="background-color:white"
>
  <polygon fill="lightblue" points="348.6984027738017,536.3041435361146 219.4323213718887,424.35643319439066 499.3015972261983,343.565132318195 628.5676786281113,455.5128426599189" />
  <polygon fill="steelblue" points="219.4323213718887,424.35643319439066 219.4323213718887,144.48715734008113 499.3015972261983,63.69585646388546 499.3015972261983,343.565132318195" />
  <polygon fill="lightskyblue" points="628.5676786281113,455.5128426599189 628.5676786281113,175.64356680560934 499.3015972261983,63.69585646388546 499.3015972261983,343.565132318195" />
  <polygon fill="white" points="573.6295940322982,407.9350657646862 573.6295940322982,295.9873554229624 554.2396818220113,279.19519887170384 554.2396818220113,391.1429092134277" />
  <polygon fill="antiquewhite" points="485.72002139001626,450.3189659379434 485.72002139001626,355.1634121474782 508.10956345836104,348.70010807738254 508.10956345836104,443.85566186784774" />
  <polygon fill="beige" points="485.72002139001626,450.3189659379434 485.72002139001626,355.1634121474782 472.79341324982494,343.9686411133058 472.79341324982494,439.12419490377107" />
  <polygon fill="bisque" points="485.72002139001626,355.1634121474782 472.79341324982494,343.9686411133058 495.1829553181698,337.50533704321015 508.10956345836104,348.70010807738254" />
  <polygon fill="antiquewhite" points="364.24670580115617,518.4623612522214 364.24670580115617,423.3068074617562 386.6362478695009,416.84350339166053 386.63624786950095,511.9990571821258" />
  <polygon fill="beige" points="364.24670580115617,518.4623612522214 364.24670580115617,423.3068074617562 351.32009766096485,412.1120364275838 351.32009766096485,507.26759021804907" />
  <polygon fill="bisque" points="364.24670580115617,423.3068074617562 351.32009766096485,412.1120364275838 373.70963972930963,405.64873235748814 386.6362478695009,416.84350339166053" />
  <polygon fill="antiquewhite" points="457.404226188496,374.5176578222728 457.404226188496,279.3621040318075 479.7937682568408,272.89879996171186 479.7937682568408,368.0543537521771" />
  <polygon fill="beige" points="457.404226188496,374.5176578222728 457.404226188496,279.3621040318075 444.4776180483047,268.1673329976351 444.4776180483047,363.32288678810033" />
  <polygon fill="bisque" points="457.404226188496,279.3621040318075 444.4776180483047,268.1673329976351 466.8671601166495,261.70402892753947 479.7937682568408,272.89879996171186" />
</svg>
