<?xml version="1.0" encoding="UTF-8"?>
<svg
  xmlns="http://www.w3.org/2000/svg"
  width="848"
  height="600"
  style="background-color:white"
>
  <polygon fill="lightblue" points="342.8838133605349,524.402918287508 203.6361483521515,403.81090297258254 505.1161866394651,316.7811123423429 644.3638516478485,437.37312765726836" />
  <polygon fill="steelblue" points="203.6361483521515,403.81090297258254 203.6361483521515,162.62687234273164 505.1161866394651,75.59708171249198 505.1161866394651,316.7811123423429" />
  <polygon fill="lightskyblue" points="644.3638516478485,437.37312765726836 644.3638516478485,196.18909702741746 505.1161866394651,75.59708171249198 505.1161866394651,316.7811123423429" />
  <polygon fill="white" points="238.80881948567145,345.4206212730844 238.80881948567145,297.1838151471142 268.9568233144028,288.48083608409024 268.9568233144028,336.71764221006043" />
  <polygon fill="white" points="289.05549253355707,330.91565616804445 289.05549253355707,282.67885004207426 319.20349636228843,273.9758709790503 319.20349636228843,322.2126771050205" />
  <polygon fill="white" points="339.30216558144264,316.4106910630045 339.30216558144264,268.17388493703436 369.450169410174,259.4709058740104 369.450169410174,307.7077119999806" />
  <polygon fill="white" points="389.54883862932826,301.9057259579646 389.54883862932826,253.6689198319944 419.6968424580596,244.96594076897043 419.6968424580596,293.2027468949406" />
  <polygon fill="white" points="439.7955116772139,287.40076085292463 439.7955116772139,239.16395472695444 469.94351550594524,230.46097566393047 469.94351550594524,278.69778178990066" />
  <polygon fill="grey" points="492.3741409367817,141.58126805010556 492.3741409367817,111.4332642213742 522.5221447655131,102.73028515835026 522.5221447655131,132.8782889870816" />
  <polygon fill="lightgrey" points="492.3741409367817,141.58126805010556 492.3741409367817,111.4332642213742 474.96818281073377,96.35926230700852 474.96818281073377,126.50726613573988" />
  <polygon fill="darkgrey" points="492.3741409367817,111.4332642213742 474.96818281073377,96.35926230700852 505.1161866394651,87.65628324398455 522.5221447655131,102.73028515835026" />
  <polygon fill="hsl(288.0,50.0%,68.65222276527638%)" points="442.88480789885,381.9570895886638 442.88480789885,340.5457915295184 450.12032881774553,338.45707655439264 450.12032881774553,379.86837461353804" />
  <polygon fill="hsl(288.0,50.0%,68.65222276527638%)" points="460.97361019608877,376.7353021508494 460.97361019608877,335.324004091704 453.73808927719324,337.41271906682977 453.73808927719324,378.82401712597516" />
  <polygon fill="hsl(288.0,50.0%,68.65222276527638%)" points="435.64928697995447,343.0445193567149 435.6492869799544,302.0432341496402 441.980367783988,300.2156085464052 441.980367783988,341.21689375347984" />
  <polygon fill="hsl(288.0,50.0%,68.65222276527638%)" points="461.87805031095075,335.47292757188404 461.8780503109507,294.4716423648094 468.2091311149843,292.64401676157433 468.2091311149843,333.645301968649" />
  <polygon fill="hsl(288.0,50.0%,68.65222276527638%)" points="441.980367783988,306.5466893504388 441.980367783988,300.2156085464052 461.8780503109507,294.4716423648094 461.8780503109507,300.802723168843" />
  <polygon fill="hsl(288.0,50.0%,68.65222276527638%)" points="442.88480789885,340.95580438158913 442.88480789884994,299.9545191745145 460.97361019608877,294.7327317367001 460.97361019608877,335.73401694377475" />
  <polygon fill="hsl(288.0,50.0%,68.65222276527638%)" points="447.40700847315964,296.59900805470716 447.40700847315964,278.1484297115236 456.4514096217791,275.53753599261637 456.4514096217791,293.98811433579993" />
  <polygon fill="hsl(288.0,50.0%,68.65222276527638%)" points="449.21588870288355,298.1268935712794 449.21588870288355,277.6262509677421 454.64252939205517,276.05971473639784 454.64252939205517,296.56035733993514" />
  <polygon fill="hsl(288.0,50.0%,65.5749766448301%)" points="396.13916871816957,405.3471615717914 396.13916871816957,363.93586351264594 403.3746896370651,361.8471485375202 403.3746896370651,403.25844659666564" />
  <polygon fill="hsl(288.0,50.0%,65.5749766448301%)" points="414.22797101540834,400.125374133977 414.22797101540834,358.7140760748316 406.9924500965128,360.80279104995736 406.9924500965128,402.21408910910276" />
  <polygon fill="hsl(288.0,50.0%,65.5749766448301%)" points="388.90364779927404,366.4345913398424 388.90364779927404,325.4333061327678 395.2347286033076,323.6056805295328 395.2347286033076,364.60696573660744" />
  <polygon fill="hsl(288.0,50.0%,65.5749766448301%)" points="415.1324111302703,358.8629995550116 415.1324111302703,317.861714347937 421.4634919343039,316.03408874470193 421.4634919343039,357.0353739517766" />
  <polygon fill="hsl(288.0,50.0%,65.5749766448301%)" points="395.2347286033076,329.9367613335664 395.2347286033076,323.6056805295328 415.1324111302703,317.861714347937 415.1324111302703,324.19279515197053" />
  <polygon fill="hsl(288.0,50.0%,65.5749766448301%)" points="396.13916871816957,364.3458763647167 396.13916871816957,323.34459115764207 414.22797101540834,318.1228037198277 414.22797101540834,359.12408892690235" />
  <polygon fill="hsl(288.0,50.0%,65.5749766448301%)" points="400.6613692924792,319.98908003783475 400.6613692924792,301.53850169465113 409.70577044109865,298.92760797574397 409.70577044109865,317.37818631892753" />
  <polygon fill="hsl(288.0,50.0%,65.5749766448301%)" points="402.4702495222031,321.516965554407 402.4702495222031,301.0163229508697 407.89689021137474,299.4497867195254 407.89689021137474,319.95042932306274" />
  <polygon fill="hsl(288.0,50.0%,63.87054183818537%)" points="333.52805996986564,428.9025312383369 333.5280599698656,387.4912331791915 340.7635808887611,385.40251820406576 340.7635808887611,426.81381626321115" />
  <polygon fill="hsl(288.0,50.0%,63.87054183818537%)" points="351.6168622671044,423.6807438005225 351.6168622671044,382.2694457413771 344.38134134820893,384.3581607165029 344.38134134820893,425.7694587756483" />
  <polygon fill="hsl(288.0,50.0%,63.87054183818537%)" points="326.2925390509701,389.989961006388 326.2925390509701,348.98867579931334 332.62361985500365,347.16105019607835 332.62361985500365,388.16233540315295" />
  <polygon fill="hsl(288.0,50.0%,63.87054183818537%)" points="352.5213023819664,382.41836922155716 352.52130238196634,341.4170840144825 358.85238318599994,339.5894584112475 358.85238318599994,380.5907436183221" />
  <polygon fill="hsl(288.0,50.0%,63.87054183818537%)" points="332.62361985500365,353.4921310001119 332.62361985500365,347.16105019607835 352.52130238196634,341.4170840144825 352.52130238196634,347.7481648185161" />
  <polygon fill="hsl(288.0,50.0%,63.87054183818537%)" points="333.5280599698656,387.90124603126225 333.5280599698656,346.8999608241876 351.6168622671044,341.67817338637326 351.6168622671044,382.67945859344786" />
  <polygon fill="hsl(288.0,50.0%,63.87054183818537%)" points="338.05026054417533,343.54444970438027 338.05026054417533,325.0938713611967 347.0946616927947,322.48297764228954 347.0946616927947,340.9335559854731" />
  <polygon fill="hsl(288.0,50.0%,63.87054183818537%)" points="339.8591407738992,345.0723352209526 339.8591407738992,324.57169261741524 345.28578146307086,323.00515638607095 345.28578146307086,343.50579898960825" />
  <polygon fill="hsl(288.0,50.0%,52.57800117743009%)" points="455.7586589750647,429.9320029204057 455.7586589750647,388.52070486126024 462.9941798939602,386.4319898861345 462.9941798939602,427.8432879452799" />
  <polygon fill="hsl(288.0,50.0%,52.57800117743009%)" points="473.8474612723035,424.71021548259125 473.8474612723035,383.29891742344586 466.611940353408,385.3876323985716 466.611940353408,426.798930457717" />
  <polygon fill="hsl(288.0,50.0%,52.57800117743009%)" points="448.52313805616916,391.01943268845673 448.52313805616916,350.01814748138213 454.85421886020276,348.1905218781471 454.85421886020276,389.19180708522174" />
  <polygon fill="hsl(288.0,50.0%,52.57800117743009%)" points="474.75190138716545,383.4478409036259 474.75190138716545,342.44655569655123 481.08298219119905,340.61893009331624 481.08298219119905,381.6202153003909" />
  <polygon fill="hsl(288.0,50.0%,52.57800117743009%)" points="454.85421886020276,354.5216026821807 454.85421886020276,348.1905218781471 474.75190138716545,342.44655569655123 474.75190138716545,348.77763650058483" />
  <polygon fill="hsl(288.0,50.0%,52.57800117743009%)" points="455.7586589750647,388.930717713331 455.7586589750647,347.9294325062564 473.8474612723035,342.707645068442 473.8474612723035,383.70893027551665" />
  <polygon fill="hsl(288.0,50.0%,52.57800117743009%)" points="460.2808595493744,344.573921386449 460.2808595493744,326.12334304326544 469.3252606979938,323.5124493243583 469.3252606979938,341.96302766754184" />
  <polygon fill="hsl(288.0,50.0%,52.57800117743009%)" points="462.0897397790983,346.1018069030213 462.0897397790983,325.601164299484 467.5163804682699,324.0346280681397 467.5163804682699,344.535270671677" />
  <polygon fill="hsl(288.0,50.0%,46.24652422154656%)" points="365.58440602858377,476.3237492875179 365.58440602858377,434.91245122837245 372.8199269474793,432.8237362532467 372.8199269474793,474.23503431239214" />
  <polygon fill="hsl(288.0,50.0%,46.24652422154656%)" points="383.6732083258226,471.10196184970346 383.6732083258226,429.6906637905581 376.4376874069271,431.7793787656839 376.4376874069271,473.1906768248292" />
  <polygon fill="hsl(288.0,50.0%,46.24652422154656%)" points="358.34888510968824,437.41117905556894 358.34888510968824,396.40989384849433 364.67996591372184,394.5822682452593 364.67996591372184,435.58355345233394" />
  <polygon fill="hsl(288.0,50.0%,46.24652422154656%)" points="384.5776484406845,429.8395872707381 384.5776484406845,388.83830206366343 390.90872924471813,387.01067646042844 390.90872924471813,428.0119616675031" />
  <polygon fill="hsl(288.0,50.0%,46.24652422154656%)" points="364.67996591372184,400.91334904929283 364.67996591372184,394.5822682452593 384.5776484406845,388.83830206366343 384.5776484406845,395.16938286769704" />
  <polygon fill="hsl(288.0,50.0%,46.24652422154656%)" points="365.58440602858377,435.3224640804432 365.58440602858377,394.3211788733686 383.6732083258226,389.0993914355542 383.6732083258226,430.10067664262886" />
  <polygon fill="hsl(288.0,50.0%,46.24652422154656%)" points="370.1066066028935,390.9656677535612 370.1066066028935,372.51508941037764 379.1510077515129,369.9041956914705 379.1510077515129,388.35477403465404" />
  <polygon fill="hsl(288.0,50.0%,46.24652422154656%)" points="371.9154868326174,392.49355327013353 371.9154868326174,371.99291066659623 377.34212752178905,370.4263744352519 377.34212752178905,390.9270170387892" />
</svg>
