<?xml version="1.0" encoding="UTF-8"?>
<svg
  xmlns="http://www.w3.org/2000/svg"
  width="848"
  height="600"
  style="background-color:white"
>
  <polygon fill="lightblue" points="348.6984027738017,536.3041435361146 219.4323213718887,424.35643319439066 499.3015972261983,343.565132318195 628.5676786281113,455.5128426599189" />
  <polygon fill="steelblue" points="219.4323213718887,424.35643319439066 219.4323213718887,144.48715734008113 499.3015972261983,63.69585646388546 499.3015972261983,343.565132318195" />
  <polygon fill="lightskyblue" points="628.5676786281113,455.5128426599189 628.5676786281113,175.64356680560934 499.3015972261983,63.69585646388546 499.3015972261983,343.565132318195" />
  <polygon fill="white" points="252.08373688822482,370.15169728881165 252.08373688822482,325.37261315212214 280.0706644736558,317.2934830645026 280.0706644736558,362.0725672011921" />
  <polygon fill="white" points="298.72861619727644,356.6864804761124 298.72861619727644,311.90739633942286 326.71554378270736,303.8282662518033 326.71554378270736,348.6073503884928" />
  <polygon fill="white" points="345.373495506328,343.22126366341314 345.373495506328,298.4421795267236 373.36042309175895,290.36304943910403 373.36042309175895,335.14213357579354" />
  <polygon fill="white" points="392.0183748153796,329.75604685071386 392.0183748153796,284.9769627140243 420.0053024008106,276.89783262640475 420.0053024008106,321.67691676309425" />
  <polygon fill="white" points="438.6632541244312,316.2908300380146 438.6632541244312,271.511745901325 466.6501817098622,263.43261581370547 466.6501817098622,308.211699950395" />
  <polygon fill="grey" points="487.47292981600646,124.95014896382384 487.47292981600646,96.96322137839289 515.4598574014374,88.88409129077334 515.4598574014374,116.87101887620429" />
  <polygon fill="lightgrey" points="487.47292981600646,124.95014896382384 487.47292981600646,96.96322137839289 471.3146696407673,82.9697575856774 471.3146696407673,110.95668517110835" />
  <polygon fill="darkgrey" points="487.47292981600646,96.96322137839289 471.3146696407673,82.9697575856774 499.3015972261983,74.89062749805782 515.4598574014374,88.88409129077334" />
  <polygon fill="hsl(324.0,50.0%,52.57800117743009%)" points="453.48212737383534,448.6051143622905 453.48212737383534,410.16227063094254 460.1989899943388,408.22327940991386 460.1989899943388,446.6661231412618" />
  <polygon fill="hsl(324.0,50.0%,52.57800117743009%)" points="470.27428392509387,443.7576363097188 470.27428392509387,405.3147925783708 463.55742130459043,407.2537837993995 463.55742130459043,445.6966275307475" />
  <polygon fill="hsl(324.0,50.0%,52.57800117743009%)" points="446.7652647533319,412.48188406713314 446.7652647533319,374.419662550947 452.6425195462724,372.72304523254695 452.6425195462724,410.785266748733" />
  <polygon fill="hsl(324.0,50.0%,52.57800117743009%)" points="471.11389175265685,405.4530408909041 471.11389175265685,367.39081937471803 476.9911465455973,365.69420205631786 476.9911465455973,403.756423572504" />
  <polygon fill="hsl(324.0,50.0%,52.57800117743009%)" points="452.6425195462724,378.6003000254874 452.6425195462724,372.72304523254695 471.11389175265685,367.39081937471803 471.11389175265685,373.2680741676585" />
  <polygon fill="hsl(324.0,50.0%,52.57800117743009%)" points="453.48212737383534,410.54289284610445 453.48212737383534,372.4806713299183 470.27428392509387,367.6331932773466 470.27428392509387,405.6954147935327" />
  <polygon fill="hsl(324.0,50.0%,52.57800117743009%)" points="457.68016651164993,369.3656907409661 457.68016651164993,352.23769105868234 466.0762447872793,349.81395203239646 466.0762447872793,366.9419517146802" />
  <polygon fill="hsl(324.0,50.0%,52.57800117743009%)" points="459.35938216677584,370.7840540115182 459.35938216677584,351.7529432534252 464.39702913215336,350.29869983765366 464.39702913215336,369.3298105957467" />
</svg>
