<?xml version="1.0" encoding="UTF-8"?>
<svg
  xmlns="http://www.w3.org/2000/svg"
  width="848"
  height="600"
  style="background-color:white"
>
  <polygon fill="lightblue" points="363.4615242270663,489.9759526419165 259.5384757729337,399.9759526419165 484.5384757729337,335.0240473580835 588.4615242270663,425.0240473580835" />
  <polygon fill="steelblue" points="259.5384757729337,399.9759526419165 259.5384757729337,174.97595264191645 484.5384757729337,110.02404735808352 484.5384757729337,335.0240473580835" />
  <polygon fill="lightskyblue" points="588.4615242270663,425.0240473580835 588.4615242270663,200.02404735808355 484.5384757729337,110.02404735808352 484.5384757729337,335.0240473580835" />
  <polygon fill="white" points="544.2942286340599,386.7740473580835 544.2942286340599,296.7740473580835 528.7057713659401,283.2740473580835 528.7057713659401,373.2740473580835" />
  <polygon fill="white" points="293.2884757729337,354.23316684934156 293.2884757729337,318.2331668493415 315.7884757729337,311.73797632095824 315.7884757729337,347.73797632095824" />
  <polygon fill="white" points="338.2884757729337,341.2427857925749 338.2884757729337,305.2427857925749 360.7884757729337,298.74759526419166 360.7884757729337,334.74759526419166" />
  <polygon fill="white" points="383.2884757729337,328.25240473580834 383.2884757729337,292.25240473580834 405.7884757729337,285.757214207425 405.7884757729337,321.7572142074251" />
  <polygon fill="white" points="428.2884757729337,315.26202367904176 428.2884757729337,279.26202367904176 450.7884757729337,272.76683315065844 450.7884757729337,308.7668331506585" />
</svg>
