<?xml version="1.0" encoding="UTF-8"?>
<svg
  xmlns="http://www.w3.org/2000/svg"
  width="848"
  height="600"
  style="background-color:white"
>
  <polygon fill="lightblue" points="368.73618537030706,493.9631203156283 273.8678555652557,411.8047366898534 479.26381462969294,352.51203056169635 574.1321444347443,434.67041418747124" />
  <polygon fill="steelblue" points="273.8678555652557,411.8047366898534 273.8678555652557,165.32958581252876 479.26381462969294,106.03687968437166 479.26381462969294,352.51203056169635" />
  <polygon fill="lightskyblue" points="574.1321444347443,434.67041418747124 574.1321444347443,188.19526331014657 479.26381462969294,106.03687968437166 479.26381462969294,352.51203056169635" />
  <polygon fill="white" points="533.8131042675975,399.7531011465169 533.8131042675975,317.594717520742 519.5828547968398,305.27095997687576 519.5828547968398,387.42934360265065" />
  <polygon fill="white" points="292.94033747838205,373.4356319562146 292.94033747838205,340.57227850590465 313.47993338482576,334.64300789308896 313.47993338482576,367.5063613433989" />
  <polygon fill="white" points="322.28261734473017,364.9652453664779 322.28261734473017,332.1018919161679 342.82221325117393,326.17262130335223 342.82221325117393,359.0359747536622" />
  <polygon fill="white" points="351.6248972110784,356.4948587767411 351.6248972110784,323.6315053264312 372.1644931175221,317.7022347136155 372.1644931175221,350.56558816392544" />
  <polygon fill="white" points="380.9671770774265,348.02447218700445 380.9671770774265,315.16111873669445 401.5067729838703,309.23184812387876 401.5067729838703,342.0952015741887" />
  <polygon fill="white" points="410.30945694377476,339.5540855972677 410.30945694377476,306.6907321469577 430.84905285021847,300.76146153414203 430.84905285021847,333.624814984452" />
  <polygon fill="white" points="439.6517368101229,331.083699007531 439.6517368101229,298.220345557221 460.19133271656665,292.2910749444053 460.19133271656665,325.15442839471524" />
</svg>
