<?xml version="1.0" encoding="UTF-8"?>
<svg
  xmlns="http://www.w3.org/2000/svg"
  width="848"
  height="600"
  style="background-color:white"
>
  <polygon fill="lightblue" points="348.6984027738017,536.3041435361146 219.4323213718887,424.35643319439066 499.3015972261983,343.565132318195 628.5676786281113,455.5128426599189" />
  <polygon fill="steelblue" points="219.4323213718887,424.35643319439066 219.4323213718887,144.48715734008113 499.3015972261983,63.69585646388546 499.3015972261983,343.565132318195" />
  <polygon fill="lightskyblue" points="628.5676786281113,455.5128426599189 628.5676786281113,175.64356680560934 499.3015972261983,63.69585646388546 499.3015972261983,343.565132318195" />
  <polygon fill="white" points="552.0852471319794,389.2771140410656 552.0852471319794,277.32940369934175 532.6953349216925,260.53724714808317 532.6953349216925,372.484957489807" />
  <polygon fill="white" points="595.1739409326171,426.5930174883069 595.1739409326171,314.64530714658304 575.7840287223302,297.85315059532445 575.7840287223302,409.8008609370483" />
  <polygon fill="white" points="298.72861619727644,356.6864804761124 298.72861619727644,311.90739633942286 326.71554378270736,303.8282662518033 326.71554378270736,348.6073503884928" />
  <polygon fill="white" points="392.0183748153796,329.75604685071386 392.0183748153796,284.9769627140243 420.0053024008106,276.89783262640475 420.0053024008106,321.67691676309425" />
  <polygon fill="hsl(360.0,50.0%,52.57800117743009%)" points="453.48212737383534,448.6051143622905 453.48212737383534,410.16227063094254 460.1989899943388,408.22327940991386 460.1989899943388,446.6661231412618" />
  <polygon fill="hsl(360.0,50.0%,52.57800117743009%)" points="470.27428392509387,443.7576363097188 470.27428392509387,405.3147925783708 463.55742130459043,407.2537837993995 463.55742130459043,445.6966275307475" />
  <polygon fill="hsl(360.0,50.0%,52.57800117743009%)" points="446.7652647533319,412.48188406713314 446.7652647533319,374.419662550947 452.6425195462724,372.72304523254695 452.6425195462724,410.785266748733" />
  <polygon fill="hsl(360.0,50.0%,52.57800117743009%)" points="471.11389175265685,405.4530408909041 471.11389175265685,367.39081937471803 476.9911465455973,365.69420205631786 476.9911465455973,403.756423572504" />
  <polygon fill="hsl(360.0,50.0%,52.57800117743009%)" points="452.6425195462724,378.6003000254874 452.6425195462724,372.72304523254695 471.11389175265685,367.39081937471803 471.11389175265685,373.2680741676585" />
  <polygon fill="hsl(360.0,50.0%,52.57800117743009%)" points="453.48212737383534,410.54289284610445 453.48212737383534,372.4806713299183 470.27428392509387,367.6331932773466 470.27428392509387,405.6954147935327" />
  <polygon fill="hsl(360.0,50.0%,52.57800117743009%)" points="457.68016651164993,369.3656907409661 457.68016651164993,352.23769105868234 466.0762447872793,349.81395203239646 466.0762447872793,366.9419517146802" />
  <polygon fill="hsl(360.0,50.0%,52.57800117743009%)" points="459.35938216677584,370.7840540115182 459.35938216677584,351.7529432534252 464.39702913215336,350.29869983765366 464.39702913215336,369.3298105957467" />
  <polygon fill="hsl(360.0,50.0%,46.24652422154656%)" points="369.77176626268334,491.6713967441674 369.7717662626833,453.2285530128194 376.4886288831867,451.2895617917907 376.4886288831868,489.7324055231387" />
  <polygon fill="hsl(360.0,50.0%,46.24652422154656%)" points="386.5639228139419,486.8239186915956 386.5639228139419,448.3810749602477 379.84706019343844,450.3200661812764 379.8470601934385,488.7629099126243" />
  <polygon fill="hsl(360.0,50.0%,46.24652422154656%)" points="363.05490364217985,455.54816644900995 363.05490364217985,417.4859449328238 368.9321584351204,415.78932761442377 368.9321584351204,453.8515491306099" />
  <polygon fill="hsl(360.0,50.0%,46.24652422154656%)" points="387.4035306415048,448.519323272781 387.4035306415048,410.45710175659485 393.2807854344453,408.76048443819474 393.2807854344453,446.8227059543808" />
  <polygon fill="hsl(360.0,50.0%,46.24652422154656%)" points="368.9321584351204,421.6665824073643 368.9321584351204,415.78932761442377 387.4035306415048,410.45710175659485 387.4035306415048,416.33435654953536" />
  <polygon fill="hsl(360.0,50.0%,46.24652422154656%)" points="369.7717662626833,453.60917522798127 369.7717662626833,415.54695371179514 386.5639228139419,410.6994756592234 386.5639228139419,448.76169717540955" />
  <polygon fill="hsl(360.0,50.0%,46.24652422154656%)" points="373.969805400498,412.4319731228429 373.969805400498,395.30397344055916 382.3658836761273,392.88023441427333 382.3658836761273,410.0082340965571" />
  <polygon fill="hsl(360.0,50.0%,46.24652422154656%)" points="375.64902105562385,413.8503363933951 375.64902105562385,394.819225635302 380.68666802100137,393.3649822195305 380.68666802100137,412.39609297762354" />
</svg>
