<?xml version="1.0" encoding="UTF-8"?>
<svg
  xmlns="http://www.w3.org/2000/svg"
  width="848"
  height="600"
  style="background-color:white"
>
  <polygon fill="lightblue" points="353.1384839778597,548.7074200369326 231.4944440663917,443.36059125463316 494.8615160221403,367.3330663099657 616.5055559336083,472.67989509226516" />
  <polygon fill="steelblue" points="231.4944440663917,443.36059125463316 231.4944440663917,127.32010490773487 494.8615160221403,51.29257996306737 494.8615160221403,367.3330663099657" />
  <polygon fill="lightskyblue" points="616.5055559336083,472.67989509226516 616.5055559336083,156.6394087453668 494.8615160221403,51.29257996306737 494.8615160221403,367.3330663099657" />
  <polygon fill="white" points="262.2206024612291,392.3519818315022 262.2206024612291,350.2132503185824 288.5573096568039,342.61049782411567 288.5573096568039,384.74922933703544" />
  <polygon fill="white" points="306.11511445385383,379.6807276740576 306.11511445385383,337.54199616113783 332.45182164942867,329.9392436666711 332.45182164942867,372.07797517959085" />
  <polygon fill="white" points="350.0096264464786,367.00947351661307 350.0096264464786,324.87074200369324 376.3463336420534,317.2679895092265 376.3463336420534,359.4067210221463" />
  <polygon fill="white" points="393.90413843910335,354.3382193591684 393.90413843910335,312.19948784624864 420.24084563467824,304.5967353517819 420.24084563467824,346.7354668647017" />
  <polygon fill="white" points="437.7986504317281,341.6669652017239 437.7986504317281,299.52823368880405 464.135357627303,291.9254811943373 464.135357627303,334.0642127072571" />
  <polygon fill="grey" points="483.7303138154989,108.93507612912634 483.7303138154989,82.59836893355148 510.0670210110738,74.99561643908473 510.0670210110738,101.33232363465962" />
  <polygon fill="lightgrey" points="483.7303138154989,108.93507612912634 483.7303138154989,82.59836893355148 468.52480882656545,69.43001533576404 468.52480882656545,95.76672253133893" />
  <polygon fill="darkgrey" points="483.7303138154989,82.59836893355148 468.52480882656545,69.43001533576404 494.8615160221403,61.827262841297284 510.0670210110738,74.99561643908473" />
  <polygon fill="hsl(288.0,50.0%,52.57800117743009%)" points="451.74374406683864,466.1794738864759 451.74374406683864,430.0033728826342 458.0645537937766,428.1787122839622 458.0645537937766,464.35481328780384" />
  <polygon fill="hsl(288.0,50.0%,52.57800117743009%)" points="467.5457683841836,461.6178223897958 467.5457683841836,425.44172138595417 461.22495865724557,427.2663819846262 461.22495865724557,463.4424829884678" />
  <polygon fill="hsl(288.0,50.0%,52.57800117743009%)" points="445.4229343399007,432.18621269916605 445.4229343399007,396.36829091318424 450.9536428509714,394.7717128893462 450.9536428509714,430.58963467532806" />
  <polygon fill="hsl(288.0,50.0%,52.57800117743009%)" points="468.33586960005084,425.57181802898 468.33586960005084,389.75389624299817 473.86657811112156,388.1573182191601 473.86657811112156,423.9752400051419" />
  <polygon fill="hsl(288.0,50.0%,52.57800117743009%)" points="450.9536428509714,400.30242140041696 450.9536428509714,394.7717128893462 468.33586960005084,389.75389624299817 468.33586960005084,395.2846047540689" />
  <polygon fill="hsl(288.0,50.0%,52.57800117743009%)" points="451.74374406683864,430.361552100494 451.74374406683864,394.5436303145122 467.5457683841836,389.98197881783216 467.5457683841836,425.79990060381397" />
  <polygon fill="hsl(288.0,50.0%,52.57800117743009%)" points="455.69425014617485,391.6123213510431 455.69425014617485,375.4942565473513 463.5952623048473,373.2134307990113 463.5952623048473,389.33149560270306" />
  <polygon fill="hsl(288.0,50.0%,52.57800117743009%)" points="457.27445257790936,392.9470522906742 457.27445257790936,375.0380913976833 462.0150598731128,373.6695959486793 462.0150598731128,391.5785568416702" />
</svg>
