<?xml version="1.0" encoding="UTF-8"?>
<svg
  xmlns="http://www.w3.org/2000/svg"
  width="848"
  height="600"
  style="background-color:white"
>
  <polygon fill="lightblue" points="307.49364905389035,708.9101615137754 107.49364905389035,535.7050807568877 540.5063509461096,410.7050807568877 740.5063509461097,583.9101615137754" />
  <polygon fill="steelblue" points="107.49364905389035,535.7050807568877 107.49364905389035,16.08983848622455 540.5063509461096,-108.91016151377545 540.5063509461096,410.7050807568877" />
  <polygon fill="lightskyblue" points="740.5063509461097,583.9101615137754 740.5063509461097,64.29491924311228 540.5063509461096,-108.91016151377545 540.5063509461096,410.7050807568877" />
  <polygon fill="white" points="655.5063509461096,510.2980021920981 655.5063509461096,337.0929214352104 625.5063509461097,311.11215932167727 625.5063509461097,484.31724007856496" />
  <polygon fill="white" points="147.7019713724536,454.81590559698975 147.70197137245356,385.5338732942347 191.0032415616755,373.0338732942347 191.0032415616755,442.31590559698975" />
  <polygon fill="white" points="209.56092878562777,436.9587627398469 209.56092878562777,367.6767304370918 252.8621989748497,355.1767304370918 252.8621989748497,424.4587627398469" />
  <polygon fill="white" points="271.4198861988019,419.10161988270403 271.4198861988019,349.819587579949 314.72115638802387,337.319587579949 314.72115638802387,406.6016198827041" />
  <polygon fill="white" points="333.2788436119762,401.2444770255612 333.27884361197613,331.9624447228061 376.5801138011981,319.4624447228061 376.5801138011981,388.7444770255612" />
  <polygon fill="white" points="395.13780102515034,383.3873341684183 395.13780102515034,314.10530186566325 438.4390712143723,301.60530186566325 438.4390712143723,370.8873341684183" />
  <polygon fill="white" points="456.9967584383245,365.5301913112755 456.9967584383245,296.24815900852036 500.2980286275464,283.74815900852036 500.29802862754644,353.0301913112755" />
</svg>
