<?xml version="1.0" encoding="UTF-8"?>
<svg
  xmlns="http://www.w3.org/2000/svg"
  width="848"
  height="600"
  style="background-color:white"
>
  <polygon fill="lightblue" points="307.49364905389035,622.3076211353316 107.49364905389035,449.1025403784439 540.5063509461096,324.10254037844385 740.5063509461097,497.30762113533154" />
  <polygon fill="steelblue" points="107.49364905389035,449.1025403784439 107.49364905389035,102.69237886466846 540.5063509461096,-22.307621135331658 540.5063509461096,324.10254037844385" />
  <polygon fill="lightskyblue" points="740.5063509461097,497.30762113533154 740.5063509461097,150.89745962155612 540.5063509461096,-22.307621135331658 540.5063509461096,324.10254037844385" />
  <polygon fill="white" points="655.5063509461096,423.6954618136543 655.5063509461096,250.49038105676655 625.5063509461097,224.50961894323342 625.5063509461097,397.7146997001211" />
  <polygon fill="white" points="158.0117976079826,365.2371747423554 158.0117976079826,295.95514243960037 201.31306779720458,283.4551424396003 201.31306779720458,352.7371747423554" />
  <polygon fill="white" points="230.18058125668583,344.4038414090221 230.18058125668583,275.121809106267 273.48185144590775,262.621809106267 273.48185144590775,331.9038414090221" />
  <polygon fill="white" points="302.34936490538905,323.57050807568874 302.34936490538905,254.28847577293368 345.65063509461095,241.78847577293368 345.65063509461095,311.07050807568874" />
  <polygon fill="white" points="374.51814855409225,302.7371747423554 374.51814855409225,233.4551424396003 417.8194187433142,220.9551424396003 417.8194187433142,290.2371747423554" />
  <polygon fill="white" points="446.6869322027955,281.90384140902205 446.6869322027955,212.621809106267 489.9882023920174,200.12180910626697 489.9882023920174,269.40384140902205" />
</svg>
