<?xml version="1.0" encoding="UTF-8"?>
<svg
  xmlns="http://www.w3.org/2000/svg"
  width="848"
  height="600"
  style="background-color:white"
>
  <polygon fill="lightblue" points="348.6984027738017,536.3041435361146 219.4323213718887,424.35643319439066 499.3015972261983,343.565132318195 628.5676786281113,455.5128426599189" />
  <polygon fill="steelblue" points="219.4323213718887,424.35643319439066 219.4323213718887,144.48715734008113 499.3015972261983,63.69585646388546 499.3015972261983,343.565132318195" />
  <polygon fill="lightskyblue" points="628.5676786281113,455.5128426599189 628.5676786281113,175.64356680560934 499.3015972261983,63.69585646388546 499.3015972261983,343.565132318195" />
  <polygon fill="white" points="573.6295940322982,407.9350657646862 573.6295940322982,295.9873554229624 554.2396818220113,279.19519887170384 554.2396818220113,391.1429092134277" />
  <polygon fill="white" points="275.4061765427506,363.41908888246206 275.4061765427506,318.6400047457725 303.39310412818156,310.56087465815295 303.39310412818156,355.33995879484246" />
  <polygon fill="white" points="345.373495506328,343.22126366341314 345.373495506328,298.4421795267236 373.36042309175895,290.36304943910403 373.36042309175895,335.14213357579354" />
  <polygon fill="white" points="415.3408144699054,323.0234384443642 415.3408144699054,278.24435430767466 443.3277420553364,270.1652242200551 443.3277420553364,314.9443083567446" />
  <polygon fill="antiquewhite" points="485.72002139001626,450.3189659379434 485.72002139001626,355.1634121474782 508.10956345836104,348.70010807738254 508.10956345836104,443.85566186784774" />
  <polygon fill="beige" points="485.72002139001626,450.3189659379434 485.72002139001626,355.1634121474782 472.79341324982494,343.9686411133058 472.79341324982494,439.12419490377107" />
  <polygon fill="bisque" points="485.72002139001626,355.1634121474782 472.79341324982494,343.9686411133058 495.1829553181698,337.50533704321015 508.10956345836104,348.70010807738254" />
</svg>
