<?xml version="1.0" encoding="UTF-8"?>
<svg
  xmlns="http://www.w3.org/2000/svg"
  width="848"
  height="600"
  style="background-color:white"
>
  <polygon fill="lightblue" points="342.8838133605349,524.402918287508 203.6361483521515,403.81090297258254 505.1161866394651,316.7811123423429 644.3638516478485,437.37312765726836" />
  <polygon fill="steelblue" points="203.6361483521515,403.81090297258254 203.6361483521515,162.62687234273164 505.1161866394651,75.59708171249198 505.1161866394651,316.7811123423429" />
  <polygon fill="lightskyblue" points="644.3638516478485,437.37312765726836 644.3638516478485,196.18909702741746 505.1161866394651,75.59708171249198 505.1161866394651,316.7811123423429" />
  <polygon fill="white" points="585.1835940192856,386.121521148425 585.1835940192856,265.52950583349957 564.296444268028,247.44070353626077 564.296444268028,368.03271885118625" />
  <polygon fill="white" points="248.85815409524855,342.5196282520764 248.85815409524855,294.2828221261062 279.0061579239799,285.57984306308225 279.0061579239799,333.81664918905244" />
  <polygon fill="white" points="309.1541617527113,325.11367012602847 309.1541617527113,276.8768640000583 339.30216558144264,268.17388493703436 339.30216558144264,316.4106910630045" />
  <polygon fill="white" points="369.450169410174,307.7077119999806 369.450169410174,259.4709058740104 399.59817323890536,250.7679268109864 399.59817323890536,299.0047329369566" />
  <polygon fill="white" points="429.7461770676367,290.3017538739326 429.7461770676367,242.06494774796244 459.8941808963681,233.36196868493846 459.8941808963681,281.59877481090865" />
  <polygon fill="antiquewhite" points="490.48587757608044,431.77819356448185 490.48587757608044,329.27498054679523 514.6042806390656,322.31259729637605 514.6042806390656,424.8158103140627" />
  <polygon fill="beige" points="490.48587757608044,431.77819356448185 490.48587757608044,329.27498054679523 476.5611110752421,317.2157790153027 476.56111107524214,419.7189920329893" />
  <polygon fill="bisque" points="490.48587757608044,329.27498054679523 476.5611110752421,317.2157790153027 500.6795141382272,310.2533957648835 514.6042806390656,322.31259729637605" />
</svg>
