<?xml version="1.0" encoding="UTF-8"?>
<svg
  xmlns="http://www.w3.org/2000/svg"
  width="848"
  height="600"
  style="background-color:white"
>
  <polygon fill="lightblue" points="348.6984027738017,536.3041435361146 219.4323213718887,424.35643319439066 499.3015972261983,343.565132318195 628.5676786281113,455.5128426599189" />
  <polygon fill="steelblue" points="219.4323213718887,424.35643319439066 219.4323213718887,144.48715734008113 499.3015972261983,63.69585646388546 499.3015972261983,343.565132318195" />
  <polygon fill="lightskyblue" points="628.5676786281113,455.5128426599189 628.5676786281113,175.64356680560934 499.3015972261983,63.69585646388546 499.3015972261983,343.565132318195" />
  <polygon fill="white" points="261.4127127500351,367.45865392627184 261.4127127500351,322.6795697895823 289.3996403354661,314.6004397019627 289.3996403354661,359.37952383865223" />
  <polygon fill="white" points="317.38656792089705,351.3003937510327 317.38656792089705,306.5213096143431 345.373495506328,298.4421795267236 345.373495506328,343.22126366341314" />
  <polygon fill="white" points="373.36042309175895,335.14213357579354 373.36042309175895,290.36304943910403 401.3473506771899,282.2839193514844 401.3473506771899,327.063003488174" />
  <polygon fill="white" points="429.3342782626209,318.98387340055444 429.3342782626209,274.2047892638649 457.3212058480518,266.12565917624534 457.3212058480518,310.90474331293484" />
  <polygon fill="hsl(324.0,50.0%,52.57800117743009%)" points="453.48212737383534,448.6051143622905 453.48212737383534,410.16227063094254 460.1989899943388,408.22327940991386 460.1989899943388,446.6661231412618" />
  <polygon fill="hsl(324.0,50.0%,52.57800117743009%)" points="470.27428392509387,443.7576363097188 470.27428392509387,405.3147925783708 463.55742130459043,407.2537837993995 463.55742130459043,445.6966275307475" />
  <polygon fill="hsl(324.0,50.0%,52.57800117743009%)" points="446.7652647533319,412.48188406713314 446.7652647533319,374.419662550947 452.6425195462724,372.72304523254695 452.6425195462724,410.785266748733" />
  <polygon fill="hsl(324.0,50.0%,52.57800117743009%)" points="471.11389175265685,405.4530408909041 471.11389175265685,367.39081937471803 476.9911465455973,365.69420205631786 476.9911465455973,403.756423572504" />
  <polygon fill="hsl(324.0,50.0%,52.57800117743009%)" points="452.6425195462724,378.6003000254874 452.6425195462724,372.72304523254695 471.11389175265685,367.39081937471803 471.11389175265685,373.2680741676585" />
  <polygon fill="hsl(324.0,50.0%,52.57800117743009%)" points="453.48212737383534,410.54289284610445 453.48212737383534,372.4806713299183 470.27428392509387,367.6331932773466 470.27428392509387,405.6954147935327" />
  <polygon fill="hsl(324.0,50.0%,52.57800117743009%)" points="457.68016651164993,369.3656907409661 457.68016651164993,352.23769105868234 466.0762447872793,349.81395203239646 466.0762447872793,366.9419517146802" />
  <polygon fill="hsl(324.0,50.0%,52.57800117743009%)" points="459.35938216677584,370.7840540115182 459.35938216677584,351.7529432534252 464.39702913215336,350.29869983765366 464.39702913215336,369.3298105957467" />
</svg>
