<?xml version="1.0" encoding="UTF-8"?>
<svg
  xmlns="http://www.w3.org/2000/svg"
  width="848"
  height="600"
  style="background-color:white"
>
  <polygon fill="lightblue" points="307.49364905389035,665.6088913245535 107.49364905389035,492.40381056766574 540.5063509461096,367.40381056766574 740.5063509461097,540.6088913245535" />
  <polygon fill="steelblue" points="107.49364905389035,492.40381056766574 107.49364905389035,59.39110867544653 540.5063509461096,-65.6088913245535 540.5063509461096,367.40381056766574" />
  <polygon fill="lightskyblue" points="740.5063509461097,540.6088913245535 740.5063509461097,107.59618943233426 540.5063509461096,-65.6088913245535 540.5063509461096,367.40381056766574" />
  <polygon fill="white" points="655.5063509461096,466.99673200287623 655.5063509461096,293.7916512459885 625.5063509461097,267.8108891324553 625.5063509461097,441.01596988934307" />
  <polygon fill="white" points="172.44555433772325,404.37177826491074 172.44555433772325,335.08974596215563 215.74682452694518,322.5897459621556 215.74682452694518,391.8717782649107" />
  <polygon fill="white" points="259.0480947161671,379.3717782649107 259.0480947161671,310.08974596215563 302.34936490538905,297.5897459621556 302.34936490538905,366.8717782649107" />
  <polygon fill="white" points="345.65063509461095,354.3717782649107 345.65063509461095,285.0897459621556 388.9519052838329,272.5897459621556 388.9519052838329,341.8717782649107" />
  <polygon fill="white" points="432.2531754730548,329.3717782649107 432.2531754730548,260.0897459621556 475.55444566227675,247.58974596215558 475.55444566227675,316.8717782649107" />
</svg>
