<?xml version="1.0" encoding="UTF-8"?>
<svg
  xmlns="http://www.w3.org/2000/svg"
  width="848"
  height="600"
  style="background-color:white"
>
  <polygon fill="lightblue" points="307.49364905389035,579.0063509461097 107.49364905389035,405.80127018922195 540.5063509461096,280.8012701892219 740.5063509461097,454.00635094610965" />
  <polygon fill="steelblue" points="107.49364905389035,405.80127018922195 107.49364905389035,145.99364905389035 540.5063509461096,20.993649053890294 540.5063509461096,280.8012701892219" />
  <polygon fill="lightskyblue" points="740.5063509461097,454.00635094610965 740.5063509461097,194.19872981077805 540.5063509461096,20.993649053890294 540.5063509461096,280.8012701892219" />
  <polygon fill="white" points="655.5063509461096,380.3941916244323 655.5063509461096,207.18911086754463 625.5063509461097,181.20834875401147 625.5063509461097,354.4134295108992" />
  <polygon fill="white" points="147.70197137245356,324.91209502932395 147.70197137245356,255.6300627265689 191.0032415616755,243.1300627265689 191.0032415616755,312.41209502932395" />
  <polygon fill="white" points="209.56092878562777,307.0549521721811 209.56092878562777,237.77291986942603 252.8621989748497,225.272919869426 252.8621989748497,294.5549521721811" />
  <polygon fill="white" points="271.4198861988019,289.1978093150383 271.4198861988019,219.91577701228317 314.72115638802387,207.41577701228317 314.72115638802387,276.6978093150383" />
  <polygon fill="white" points="333.27884361197613,271.3406664578954 333.27884361197613,202.0586341551403 376.5801138011981,189.55863415514028 376.5801138011981,258.8406664578954" />
  <polygon fill="white" points="395.13780102515034,253.48352360075253 395.13780102515034,184.20149129799745 438.4390712143723,171.70149129799742 438.4390712143723,240.98352360075253" />
  <polygon fill="white" points="456.9967584383245,235.62638074360967 456.9967584383245,166.34434844085456 500.2980286275464,153.84434844085456 500.2980286275464,223.12638074360967" />
</svg>
