<?xml version="1.0" encoding="UTF-8"?>
<svg
  xmlns="http://www.w3.org/2000/svg"
  width="848"
  height="600"
  style="background-color:white"
>
  <polygon fill="lightblue" points="342.8838133605349,524.402918287508 203.6361483521515,403.81090297258254 505.1161866394651,316.7811123423429 644.3638516478485,437.37312765726836" />
  <polygon fill="steelblue" points="203.6361483521515,403.81090297258254 203.6361483521515,162.62687234273164 505.1161866394651,75.59708171249198 505.1161866394651,316.7811123423429" />
  <polygon fill="lightskyblue" points="644.3638516478485,437.37312765726836 644.3638516478485,196.18909702741746 505.1161866394651,75.59708171249198 505.1161866394651,316.7811123423429" />
  <polygon fill="white" points="585.1835940192856,386.121521148425 585.1835940192856,265.52950583349957 564.296444268028,247.44070353626077 564.296444268028,368.03271885118625" />
  <polygon fill="white" points="238.80881948567145,345.4206212730844 238.80881948567145,297.1838151471142 268.9568233144028,288.48083608409024 268.9568233144028,336.71764221006043" />
  <polygon fill="white" points="289.05549253355707,330.91565616804445 289.05549253355707,282.67885004207426 319.20349636228843,273.9758709790503 319.20349636228843,322.2126771050205" />
  <polygon fill="white" points="339.30216558144264,316.4106910630045 339.30216558144264,268.17388493703436 369.450169410174,259.4709058740104 369.450169410174,307.7077119999806" />
  <polygon fill="white" points="389.54883862932826,301.9057259579646 389.54883862932826,253.6689198319944 419.6968424580596,244.96594076897043 419.6968424580596,293.2027468949406" />
  <polygon fill="white" points="439.7955116772139,287.40076085292463 439.7955116772139,239.16395472695444 469.94351550594524,230.46097566393047 469.94351550594524,278.69778178990066" />
</svg>
