<?xml version="1.0" encoding="UTF-8"?>
<svg
  xmlns="http://www.w3.org/2000/svg"
  width="848"
  height="600"
  style="background-color:white"
>
  <polygon fill="lightblue" points="338.15738666457617,537.4782857028828 190.7961267189607,409.8596910562975 509.84261333542383,317.7589035902878 657.2038732810393,445.37749823687307" />
  <polygon fill="steelblue" points="190.7961267189607,409.8596910562975 190.7961267189607,154.62250176312696 509.84261333542383,62.52171429711723 509.84261333542383,317.7589035902878" />
  <polygon fill="lightskyblue" points="657.2038732810393,445.37749823687307 657.2038732810393,190.1403089437025 509.84261333542383,62.52171429711723 509.84261333542383,317.7589035902878" />
  <polygon fill="hsl(288.0,50.0%,68.65222276527638%)" points="443.9851759499012,386.73251348619794 443.9851759499012,342.9082880845605 451.64229162869634,340.6978691853763 451.64229162869634,384.52209458701367" />
  <polygon fill="hsl(288.0,50.0%,68.65222276527638%)" points="463.127965146889,381.20646623823734 463.127965146889,337.3822408366 455.4708494680939,339.5926597357842 455.4708494680939,383.41688513742156" />
  <polygon fill="hsl(288.0,50.0%,68.65222276527638%)" points="436.3280602711061,345.55261020554315 436.3280602711061,302.1622880257042 443.0280364900518,300.22817148891795 443.0280364900518,343.6184936687569" />
  <polygon fill="hsl(288.0,50.0%,68.65222276527638%)" points="464.0851046067384,337.5398416960003 464.08510460673835,294.1495195161613 470.7850808256841,292.21540297937514 470.7850808256841,335.6057251592141" />
  <polygon fill="hsl(288.0,50.0%,68.65222276527638%)" points="443.0280364900518,306.9281477078637 443.0280364900518,300.22817148891795 464.08510460673835,294.1495195161613 464.08510460673835,300.84949573510704" />
  <polygon fill="hsl(288.0,50.0%,68.65222276527638%)" points="443.9851759499012,343.3421913063589 443.9851759499012,299.9518691265199 463.127965146889,294.42582187855936 463.127965146889,337.8161440583983" />
  <polygon fill="hsl(288.0,50.0%,68.65222276527638%)" points="448.77087324914817,296.40084120553786 448.77087324914817,276.8751962246103 458.34226784764206,274.11217260063 458.34226784764206,293.63781758155756" />
  <polygon fill="hsl(288.0,50.0%,68.65222276527638%)" points="450.6851521688469,298.01775258973373 450.6851521688469,276.3225914998142 456.42798892794326,274.6647773254261 456.42798892794326,296.35993841534554" />
  <polygon fill="hsl(288.0,50.0%,65.5749766448301%)" points="394.5157914096759,411.485463400617 394.5157914096759,367.66123799897963 402.172907088471,365.4508190997954 402.172907088471,409.2750445014328" />
  <polygon fill="hsl(288.0,50.0%,65.5749766448301%)" points="413.65858060666363,405.95941615265644 413.65858060666363,362.135190751019 406.00146492786854,364.3456096502033 406.00146492786854,408.16983505184066" />
  <polygon fill="hsl(288.0,50.0%,65.5749766448301%)" points="386.85867573088075,370.30556011996225 386.85867573088075,326.91523794012323 393.55865194982647,324.98112140333706 393.55865194982647,368.3714435831761" />
  <polygon fill="hsl(288.0,50.0%,65.5749766448301%)" points="414.61572006651306,362.2927916104194 414.61572006651306,318.9024694305804 421.3156962854588,316.9683528937942 421.3156962854588,360.3586750736332" />
  <polygon fill="hsl(288.0,50.0%,65.5749766448301%)" points="393.55865194982647,331.6810976222828 393.55865194982647,324.98112140333706 414.61572006651306,318.9024694305804 414.61572006651306,325.60244564952615" />
  <polygon fill="hsl(288.0,50.0%,65.5749766448301%)" points="394.5157914096759,368.09514122077803 394.5157914096759,324.704819040939 413.65858060666363,319.17877179297847 413.65858060666363,362.5690939728174" />
  <polygon fill="hsl(288.0,50.0%,65.5749766448301%)" points="399.3014887089228,321.1537911199569 399.3014887089228,301.6281461390294 408.8728833074167,298.8651225150491 408.8728833074167,318.39076749597666" />
  <polygon fill="hsl(288.0,50.0%,65.5749766448301%)" points="401.2157676286216,322.77070250415284 401.2157676286216,301.0755414142333 406.9586043877179,299.4177272398452 406.9586043877179,321.11288832976464" />
  <polygon fill="hsl(288.0,50.0%,63.87054183818537%)" points="328.2564981483739,436.4133424593998 328.25649814837385,392.58911705776245 335.913613827169,390.37869815857823 335.913613827169,434.2029235602156" />
  <polygon fill="hsl(288.0,50.0%,63.87054183818537%)" points="347.39928734536164,430.8872952114392 347.39928734536164,387.06306980980185 339.74217166656655,389.27348870898606 339.74217166656655,433.0977141106235" />
  <polygon fill="hsl(288.0,50.0%,63.87054183818537%)" points="320.59938246957876,395.233439178745 320.59938246957876,351.84311699890605 327.2993586885245,349.9090004621199 327.2993586885245,393.29932264195884" />
  <polygon fill="hsl(288.0,50.0%,63.87054183818537%)" points="348.3564268052111,387.2206706692022 348.356426805211,343.83034848936325 355.05640302415674,341.896231952577 355.0564030241568,385.28655413241603" />
  <polygon fill="hsl(288.0,50.0%,63.87054183818537%)" points="327.2993586885245,356.6089766810656 327.2993586885245,349.9090004621199 348.356426805211,343.83034848936325 348.356426805211,350.53032470830897" />
  <polygon fill="hsl(288.0,50.0%,63.87054183818537%)" points="328.25649814837385,393.0230202795608 328.25649814837385,349.63269809972184 347.39928734536164,344.1066508517613 347.39928734536164,387.49697303160025" />
  <polygon fill="hsl(288.0,50.0%,63.87054183818537%)" points="333.0421954476208,346.0816701787397 333.0421954476208,326.55602519781223 342.6135900461147,323.79300157383193 342.6135900461147,343.3186465547594" />
  <polygon fill="hsl(288.0,50.0%,63.87054183818537%)" points="334.9564743673196,347.69858156293566 334.9564743673196,326.00342047301615 340.6993111264159,324.345606298628 340.6993111264159,346.04076738854747" />
  <polygon fill="hsl(288.0,50.0%,52.57800117743009%)" points="457.609152444078,437.5027987467914 457.609152444078,393.678573345154 465.26626812287316,391.4681544459698 465.26626812287316,435.2923798476072" />
  <polygon fill="hsl(288.0,50.0%,52.57800117743009%)" points="476.7519416410658,431.9767514988308 476.7519416410658,388.15252609719346 469.09482596227065,390.3629449963777 469.09482596227065,434.18717039801504" />
  <polygon fill="hsl(288.0,50.0%,52.57800117743009%)" points="449.9520367652829,396.32289546613663 449.95203676528286,352.93257328629767 456.6520129842286,350.9984567495115 456.65201298422863,394.38877892935045" />
  <polygon fill="hsl(288.0,50.0%,52.57800117743009%)" points="477.70908110091517,388.3101269565938 477.70908110091517,344.9198047767548 484.4090573198609,342.9856882399686 484.4090573198609,386.3760104198076" />
  <polygon fill="hsl(288.0,50.0%,52.57800117743009%)" points="456.6520129842286,357.6984329684572 456.6520129842286,350.9984567495115 477.70908110091517,344.9198047767548 477.70908110091517,351.6197809957006" />
  <polygon fill="hsl(288.0,50.0%,52.57800117743009%)" points="457.609152444078,394.1124765669524 457.609152444078,350.72215438711345 476.7519416410658,345.19610713915284 476.7519416410658,388.5864293189918" />
  <polygon fill="hsl(288.0,50.0%,52.57800117743009%)" points="462.3948497433249,347.17112646613134 462.3948497433249,327.6454814852038 471.9662443418189,324.8824578612235 471.9662443418189,344.40810284215104" />
  <polygon fill="hsl(288.0,50.0%,52.57800117743009%)" points="464.3091286630237,348.7880378503272 464.3091286630237,327.09287676040776 470.05196542212,325.43506258601957 470.0519654221201,347.1302236759391" />
  <polygon fill="hsl(288.0,50.0%,46.24652422154656%)" points="362.18068311895115,486.59767007065534 362.18068311895115,442.77344466901786 369.83779879774625,440.56302576983364 369.83779879774625,484.38725117147106" />
  <polygon fill="hsl(288.0,50.0%,46.24652422154656%)" points="381.32347231593894,481.07162282269474 381.32347231593894,437.2473974210573 373.6663566371438,439.4578163202416 373.66635663714385,483.28204172187895" />
  <polygon fill="hsl(288.0,50.0%,46.24652422154656%)" points="354.523567440156,445.41776679000054 354.523567440156,402.0274446101615 361.2235436591017,400.09332807337535 361.2235436591017,443.48365025321436" />
  <polygon fill="hsl(288.0,50.0%,46.24652422154656%)" points="382.2806117757883,437.4049982804577 382.2806117757883,394.0146761006187 388.98058799473404,392.0805595638325 388.98058799473404,435.4708817436715" />
  <polygon fill="hsl(288.0,50.0%,46.24652422154656%)" points="361.2235436591017,406.79330429232107 361.2235436591017,400.09332807337535 382.2806117757883,394.0146761006187 382.2806117757883,400.71465231956444" />
  <polygon fill="hsl(288.0,50.0%,46.24652422154656%)" points="362.18068311895115,443.2073478908163 362.18068311895115,399.8170257109773 381.32347231593894,394.29097846301676 381.32347231593894,437.6813006428557" />
  <polygon fill="hsl(288.0,50.0%,46.24652422154656%)" points="366.96638041819807,396.26599778999525 366.96638041819807,376.74035280906764 376.53777501669197,373.9773291850874 376.53777501669197,393.50297416601495" />
  <polygon fill="hsl(288.0,50.0%,46.24652422154656%)" points="368.8806593378969,397.8829091741911 368.8806593378969,376.1877480842716 374.6234960969932,374.5299339098834 374.6234960969932,396.22509499980293" />
</svg>
