<?xml version="1.0" encoding="UTF-8"?>
<svg
  xmlns="http://www.w3.org/2000/svg"
  width="848"
  height="600"
  style="background-color:white"
>
  <polygon fill="lightblue" points="334.7200843362426,513.8051984277098 181.458197857532,381.07651130521964 513.2799156637574,285.28783225602547 666.541802142468,418.0165193785156" />
  <polygon fill="steelblue" points="181.458197857532,381.07651130521964 181.458197857532,181.98348062148438 513.2799156637574,86.19480157229023 513.2799156637574,285.28783225602547" />
  <polygon fill="lightskyblue" points="666.541802142468,418.0165193785156 666.541802142468,218.92348869478036 513.2799156637574,86.19480157229023 513.2799156637574,285.28783225602547" />
  <polygon fill="white" points="601.405500389016,361.6068273514573 601.405500389016,228.87814022896714 578.4162174172094,208.9688371605936 578.4162174172094,341.6975242830838" />
  <polygon fill="white" points="330.77797087033343,284.88013088408616 330.77797087033343,231.78865603509013 363.96014265095596,222.2097881301707 363.96014265095596,275.3012629791668" />
  <polygon fill="antiquewhite" points="497.1771769450441,411.85849759960183 497.17717694504404,299.03911354548524 523.7229143695421,291.37601922154965 523.7229143695422,404.1954032756663" />
  <polygon fill="beige" points="497.1771769450441,411.85849759960183 497.17717694504404,299.03911354548524 481.850988297173,285.7662448332362 481.850988297173,398.58562888735287" />
  <polygon fill="bisque" points="497.17717694504404,299.03911354548524 481.850988297173,285.7662448332362 508.3967257216711,278.1031505093007 523.7229143695421,291.37601922154965" />
  <polygon fill="antiquewhite" points="353.15463598096915,492.6514264457935 353.15463598096915,379.83204239167685 379.7003734054672,372.1689480677413 379.7003734054672,484.988332121858" />
  <polygon fill="beige" points="353.15463598096915,492.6514264457935 353.15463598096915,379.83204239167685 337.8284473330981,366.5591736794279 337.8284473330981,479.3785577335445" />
  <polygon fill="bisque" points="353.15463598096915,379.83204239167685 337.8284473330981,366.5591736794279 364.3741847575961,358.8960793554923 379.7003734054672,372.1689480677413" />
</svg>
