<?xml version="1.0" encoding="UTF-8"?>
<svg
  xmlns="http://www.w3.org/2000/svg"
  width="848"
  height="600"
  style="background-color:white"
>
  <polygon fill="lightblue" points="342.8838133605349,524.402918287508 203.6361483521515,403.81090297258254 505.1161866394651,316.7811123423429 644.3638516478485,437.37312765726836" />
  <polygon fill="steelblue" points="203.6361483521515,403.81090297258254 203.6361483521515,162.62687234273164 505.1161866394651,75.59708171249198 505.1161866394651,316.7811123423429" />
  <polygon fill="lightskyblue" points="644.3638516478485,437.37312765726836 644.3638516478485,196.18909702741746 505.1161866394651,75.59708171249198 505.1161866394651,316.7811123423429" />
  <polygon fill="white" points="238.80881948567145,345.4206212730844 238.80881948567145,297.1838151471142 268.9568233144028,288.48083608409024 268.9568233144028,336.71764221006043" />
  <polygon fill="white" points="289.05549253355707,330.91565616804445 289.05549253355707,282.67885004207426 319.20349636228843,273.9758709790503 319.20349636228843,322.2126771050205" />
  <polygon fill="white" points="339.30216558144264,316.4106910630045 339.30216558144264,268.17388493703436 369.450169410174,259.4709058740104 369.450169410174,307.7077119999806" />
  <polygon fill="white" points="389.54883862932826,301.9057259579646 389.54883862932826,253.6689198319944 419.6968424580596,244.96594076897043 419.6968424580596,293.2027468949406" />
  <polygon fill="white" points="439.7955116772139,287.40076085292463 439.7955116772139,239.16395472695444 469.94351550594524,230.46097566393047 469.94351550594524,278.69778178990066" />
  <polygon fill="hsl(288.0,50.0%,52.57800117743009%)" points="455.7586589750647,429.9320029204057 455.7586589750647,388.52070486126024 462.9941798939602,386.4319898861345 462.9941798939602,427.8432879452799" />
  <polygon fill="hsl(288.0,50.0%,52.57800117743009%)" points="473.8474612723035,424.71021548259125 473.8474612723035,383.29891742344586 466.611940353408,385.3876323985716 466.611940353408,426.798930457717" />
  <polygon fill="hsl(288.0,50.0%,52.57800117743009%)" points="448.52313805616916,391.01943268845673 448.52313805616916,350.01814748138213 454.85421886020276,348.1905218781471 454.85421886020276,389.19180708522174" />
  <polygon fill="hsl(288.0,50.0%,52.57800117743009%)" points="474.75190138716545,383.4478409036259 474.75190138716545,342.44655569655123 481.08298219119905,340.61893009331624 481.08298219119905,381.6202153003909" />
  <polygon fill="hsl(288.0,50.0%,52.57800117743009%)" points="454.85421886020276,354.5216026821807 454.85421886020276,348.1905218781471 474.75190138716545,342.44655569655123 474.75190138716545,348.77763650058483" />
  <polygon fill="hsl(288.0,50.0%,52.57800117743009%)" points="455.7586589750647,388.930717713331 455.7586589750647,347.9294325062564 473.8474612723035,342.707645068442 473.8474612723035,383.70893027551665" />
  <polygon fill="hsl(288.0,50.0%,52.57800117743009%)" points="460.2808595493744,344.573921386449 460.2808595493744,326.12334304326544 469.3252606979938,323.5124493243583 469.3252606979938,341.96302766754184" />
  <polygon fill="hsl(288.0,50.0%,52.57800117743009%)" points="462.0897397790983,346.1018069030213 462.0897397790983,325.601164299484 467.5163804682699,324.0346280681397 467.5163804682699,344.535270671677" />
  <polygon fill="hsl(288.0,50.0%,46.24652422154656%)" points="365.58440602858377,476.3237492875179 365.58440602858377,434.91245122837245 372.8199269474793,432.8237362532467 372.8199269474793,474.23503431239214" />
  <polygon fill="hsl(288.0,50.0%,46.24652422154656%)" points="383.6732083258226,471.10196184970346 383.6732083258226,429.6906637905581 376.4376874069271,431.7793787656839 376.4376874069271,473.1906768248292" />
  <polygon fill="hsl(288.0,50.0%,46.24652422154656%)" points="358.34888510968824,437.41117905556894 358.34888510968824,396.40989384849433 364.67996591372184,394.5822682452593 364.67996591372184,435.58355345233394" />
  <polygon fill="hsl(288.0,50.0%,46.24652422154656%)" points="384.5776484406845,429.8395872707381 384.5776484406845,388.83830206366343 390.90872924471813,387.01067646042844 390.90872924471813,428.0119616675031" />
  <polygon fill="hsl(288.0,50.0%,46.24652422154656%)" points="364.67996591372184,400.91334904929283 364.67996591372184,394.5822682452593 384.5776484406845,388.83830206366343 384.5776484406845,395.16938286769704" />
  <polygon fill="hsl(288.0,50.0%,46.24652422154656%)" points="365.58440602858377,435.3224640804432 365.58440602858377,394.3211788733686 383.6732083258226,389.0993914355542 383.6732083258226,430.10067664262886" />
  <polygon fill="hsl(288.0,50.0%,46.24652422154656%)" points="370.1066066028935,390.9656677535612 370.1066066028935,372.51508941037764 379.1510077515129,369.9041956914705 379.1510077515129,388.35477403465404" />
  <polygon fill="hsl(288.0,50.0%,46.24652422154656%)" points="371.9154868326174,392.49355327013353 371.9154868326174,371.99291066659623 377.34212752178905,370.4263744352519 377.34212752178905,390.9270170387892" />
</svg>
