<?xml version="1.0" encoding="UTF-8"?>
<svg
  xmlns="http://www.w3.org/2000/svg"
  width="848"
  height="600"
  style="background-color:white"
>
  <polygon fill="lightblue" points="338.15738666457617,537.4782857028828 190.7961267189607,409.8596910562975 509.84261333542383,317.7589035902878 657.2038732810393,445.37749823687307" />
  <polygon fill="steelblue" points="190.7961267189607,409.8596910562975 190.7961267189607,154.62250176312696 509.84261333542383,62.52171429711723 509.84261333542383,317.7589035902878" />
  <polygon fill="lightskyblue" points="657.2038732810393,445.37749823687307 657.2038732810393,190.1403089437025 509.84261333542383,62.52171429711723 509.84261333542383,317.7589035902878" />
  <polygon fill="white" points="570.0151278132168,369.8698297376434 570.0151278132168,248.63216482338743 547.9109388213744,229.48937562639964 547.9109388213744,350.72704054065565" />
  <polygon fill="white" points="619.1355477950887,412.40936128650515 619.1355477950887,291.1716963722492 597.0313588032463,272.0289071752614 597.0313588032463,393.2665720895174" />
  <polygon fill="white" points="254.6054240422533,340.39209570446144 254.6054240422533,289.3446578458273 286.5100727038996,280.13457909922636 286.51007270389965,331.18201695786047" />
  <polygon fill="white" points="334.36704569636913,317.366898837959 334.36704569636913,266.3194609793249 366.27169435801545,257.10938223272393 366.27169435801545,308.15682009135804" />
  <polygon fill="white" points="414.1286673504849,294.3417019714566 414.1286673504849,243.29426411282247 446.0333160121312,234.0841853662215 446.0333160121312,285.1316232248556" />
  <polygon fill="hsl(288.0,50.0%,52.57800117743009%)" points="457.609152444078,437.5027987467914 457.609152444078,393.678573345154 465.26626812287316,391.4681544459698 465.26626812287316,435.2923798476072" />
  <polygon fill="hsl(288.0,50.0%,52.57800117743009%)" points="476.7519416410658,431.9767514988308 476.7519416410658,388.15252609719346 469.09482596227065,390.3629449963777 469.09482596227065,434.18717039801504" />
  <polygon fill="hsl(288.0,50.0%,52.57800117743009%)" points="449.9520367652829,396.32289546613663 449.95203676528286,352.93257328629767 456.6520129842286,350.9984567495115 456.65201298422863,394.38877892935045" />
  <polygon fill="hsl(288.0,50.0%,52.57800117743009%)" points="477.70908110091517,388.3101269565938 477.70908110091517,344.9198047767548 484.4090573198609,342.9856882399686 484.4090573198609,386.3760104198076" />
  <polygon fill="hsl(288.0,50.0%,52.57800117743009%)" points="456.6520129842286,357.6984329684572 456.6520129842286,350.9984567495115 477.70908110091517,344.9198047767548 477.70908110091517,351.6197809957006" />
  <polygon fill="hsl(288.0,50.0%,52.57800117743009%)" points="457.609152444078,394.1124765669524 457.609152444078,350.72215438711345 476.7519416410658,345.19610713915284 476.7519416410658,388.5864293189918" />
  <polygon fill="hsl(288.0,50.0%,52.57800117743009%)" points="462.3948497433249,347.17112646613134 462.3948497433249,327.6454814852038 471.9662443418189,324.8824578612235 471.9662443418189,344.40810284215104" />
  <polygon fill="hsl(288.0,50.0%,52.57800117743009%)" points="464.3091286630237,348.7880378503272 464.3091286630237,327.09287676040776 470.05196542212,325.43506258601957 470.0519654221201,347.1302236759391" />
  <polygon fill="hsl(288.0,50.0%,46.24652422154656%)" points="362.18068311895115,486.59767007065534 362.18068311895115,442.77344466901786 369.83779879774625,440.56302576983364 369.83779879774625,484.38725117147106" />
  <polygon fill="hsl(288.0,50.0%,46.24652422154656%)" points="381.32347231593894,481.07162282269474 381.32347231593894,437.2473974210573 373.6663566371438,439.4578163202416 373.66635663714385,483.28204172187895" />
  <polygon fill="hsl(288.0,50.0%,46.24652422154656%)" points="354.523567440156,445.41776679000054 354.523567440156,402.0274446101615 361.2235436591017,400.09332807337535 361.2235436591017,443.48365025321436" />
  <polygon fill="hsl(288.0,50.0%,46.24652422154656%)" points="382.2806117757883,437.4049982804577 382.2806117757883,394.0146761006187 388.98058799473404,392.0805595638325 388.98058799473404,435.4708817436715" />
  <polygon fill="hsl(288.0,50.0%,46.24652422154656%)" points="361.2235436591017,406.79330429232107 361.2235436591017,400.09332807337535 382.2806117757883,394.0146761006187 382.2806117757883,400.71465231956444" />
  <polygon fill="hsl(288.0,50.0%,46.24652422154656%)" points="362.18068311895115,443.2073478908163 362.18068311895115,399.8170257109773 381.32347231593894,394.29097846301676 381.32347231593894,437.6813006428557" />
  <polygon fill="hsl(288.0,50.0%,46.24652422154656%)" points="366.96638041819807,396.26599778999525 366.96638041819807,376.74035280906764 376.53777501669197,373.9773291850874 376.53777501669197,393.50297416601495" />
  <polygon fill="hsl(288.0,50.0%,46.24652422154656%)" points="368.8806593378969,397.8829091741911 368.8806593378969,376.1877480842716 374.6234960969932,374.5299339098834 374.6234960969932,396.22509499980293" />
</svg>
