<?xml version="1.0" encoding="UTF-8"?>
<svg
  xmlns="http://www.w3.org/2000/svg"
  width="848"
  height="600"
  style="background-color:white"
>
  <polygon fill="lightblue" points="342.8838133605349,524.402918287508 203.6361483521515,403.81090297258254 505.1161866394651,316.7811123423429 644.3638516478485,437.37312765726836" />
  <polygon fill="steelblue" points="203.6361483521515,403.81090297258254 203.6361483521515,162.62687234273164 505.1161866394651,75.59708171249198 505.1161866394651,316.7811123423429" />
  <polygon fill="lightskyblue" points="644.3638516478485,437.37312765726836 644.3638516478485,196.18909702741746 505.1161866394651,75.59708171249198 505.1161866394651,316.7811123423429" />
  <polygon fill="white" points="585.1835940192856,386.121521148425 585.1835940192856,265.52950583349957 564.296444268028,247.44070353626077 564.296444268028,368.03271885118625" />
  <polygon fill="white" points="263.93215600961423,338.16813872056446 263.93215600961423,289.93133259459427 294.0801598383456,281.2283535315703 294.0801598383456,329.4651596575405" />
  <polygon fill="white" points="339.30216558144264,316.4106910630045 339.30216558144264,268.17388493703436 369.450169410174,259.4709058740104 369.450169410174,307.7077119999806" />
  <polygon fill="white" points="414.67217515327104,294.6532434054446 414.67217515327104,246.41643727947442 444.8201789820024,237.71345821645048 444.8201789820024,285.9502643424206" />
  <polygon fill="antiquewhite" points="490.48587757608044,431.77819356448185 490.48587757608044,329.27498054679523 514.6042806390656,322.31259729637605 514.6042806390656,424.8158103140627" />
  <polygon fill="beige" points="490.48587757608044,431.77819356448185 490.48587757608044,329.27498054679523 476.5611110752421,317.2157790153027 476.56111107524214,419.7189920329893" />
  <polygon fill="bisque" points="490.48587757608044,329.27498054679523 476.5611110752421,317.2157790153027 500.6795141382272,310.2533957648835 514.6042806390656,322.31259729637605" />
  <polygon fill="antiquewhite" points="359.63271506716495,505.1834409453002 359.63271506716495,402.68022792761354 383.75111813015,395.7178446771944 383.75111813015,498.221057694881" />
  <polygon fill="beige" points="359.63271506716495,505.1834409453002 359.63271506716495,402.68022792761354 345.7079485663266,390.621026396121 345.7079485663266,493.12423941380763" />
  <polygon fill="bisque" points="359.63271506716495,402.68022792761354 345.7079485663266,390.621026396121 369.8263516293117,383.65864314570183 383.75111813015,395.7178446771944" />
  <polygon fill="antiquewhite" points="459.98361184708364,350.1237096873837 459.98361184708364,247.6204966696971 484.10201491006876,240.65811341927792 484.10201491006876,343.16132643696454" />
  <polygon fill="beige" points="459.98361184708364,350.1237096873837 459.98361184708364,247.6204966696971 446.0588453462453,235.56129513820457 446.0588453462453,338.0645081558912" />
  <polygon fill="bisque" points="459.98361184708364,247.6204966696971 446.0588453462453,235.56129513820457 470.1772484092304,228.59891188778536 484.10201491006876,240.65811341927792" />
</svg>
