<?xml version="1.0" encoding="UTF-8"?>
<svg
  xmlns="http://www.w3.org/2000/svg"
  width="848"
  height="600"
  style="background-color:white"
>
  <polygon fill="lightblue" points="334.7200843362426,513.8051984277098 181.458197857532,381.07651130521964 513.2799156637574,285.28783225602547 666.541802142468,418.0165193785156" />
  <polygon fill="steelblue" points="181.458197857532,381.07651130521964 181.458197857532,181.98348062148438 513.2799156637574,86.19480157229023 513.2799156637574,285.28783225602547" />
  <polygon fill="lightskyblue" points="666.541802142468,418.0165193785156 666.541802142468,218.92348869478036 513.2799156637574,86.19480157229023 513.2799156637574,285.28783225602547" />
  <polygon fill="white" points="601.405500389016,361.6068273514573 601.405500389016,228.87814022896714 578.4162174172094,208.9688371605936 578.4162174172094,341.6975242830838" />
  <polygon fill="white" points="231.23145552846583,313.61673459884446 231.23145552846583,260.5252597498484 264.4136273090884,250.94639184492894 264.4136273090884,304.037866693925" />
  <polygon fill="white" points="297.5957990897109,294.4589987890056 297.5957990897109,241.36752394000953 330.77797087033343,231.78865603509013 330.77797087033343,284.88013088408616" />
  <polygon fill="white" points="363.96014265095596,275.3012629791668 363.96014265095596,222.2097881301707 397.1423144315785,212.6309202252513 397.1423144315785,265.72239507424734" />
  <polygon fill="white" points="430.324486212201,256.1435271693279 430.324486212201,203.05205232033188 463.5066579928236,193.47318441541245 463.5066579928236,246.5646592644085" />
  <polygon fill="antiquewhite" points="497.1771769450441,411.85849759960183 497.17717694504404,299.03911354548524 523.7229143695421,291.37601922154965 523.7229143695422,404.1954032756663" />
  <polygon fill="beige" points="497.1771769450441,411.85849759960183 497.17717694504404,299.03911354548524 481.850988297173,285.7662448332362 481.850988297173,398.58562888735287" />
  <polygon fill="bisque" points="497.17717694504404,299.03911354548524 481.850988297173,285.7662448332362 508.3967257216711,278.1031505093007 523.7229143695421,291.37601922154965" />
</svg>
