<?xml version="1.0" encoding="UTF-8"?>
<svg
  xmlns="http://www.w3.org/2000/svg"
  width="848"
  height="600"
  style="background-color:white"
>
  <polygon fill="lightblue" points="353.1384839778597,548.7074200369326 231.4944440663917,443.36059125463316 494.8615160221403,367.3330663099657 616.5055559336083,472.67989509226516" />
  <polygon fill="steelblue" points="231.4944440663917,443.36059125463316 231.4944440663917,127.32010490773487 494.8615160221403,51.29257996306737 494.8615160221403,367.3330663099657" />
  <polygon fill="lightskyblue" points="616.5055559336083,472.67989509226516 616.5055559336083,156.6394087453668 494.8615160221403,51.29257996306737 494.8615160221403,367.3330663099657" />
  <polygon fill="white" points="564.8068389712344,427.90749285978785 564.8068389712344,322.5606640774884 546.5602329845142,306.7586397601435 546.5602329845142,412.10546854244296" />
  <polygon fill="white" points="255.94995789085408,394.1621609968514 255.94995789085405,352.02342948393164 282.2866650864289,344.4206769894649 282.2866650864289,386.55940850238466" />
  <polygon fill="white" points="293.5738253131039,383.3010860047561 293.5738253131039,341.1623544918363 319.9105325086787,333.55960199736955 319.9105325086787,375.69833351028933" />
  <polygon fill="white" points="331.1976927353537,372.4400110126607 331.1976927353537,330.30127949974093 357.53439993092854,322.6985270052742 357.53439993092854,364.837258518194" />
  <polygon fill="white" points="368.82156015760347,361.5789360205654 368.82156015760347,319.44020450764555 395.15826735317836,311.8374520131788 395.15826735317836,353.9761835260986" />
  <polygon fill="white" points="406.4454275798533,350.71786102847 406.4454275798533,308.5791295155502 432.7821347754281,300.97637702108347 432.7821347754282,343.11510853400324" />
  <polygon fill="white" points="444.06929500210305,339.8567860363746 444.06929500210305,297.71805452345484 470.40600219767794,290.1153020289881 470.40600219767794,332.2540335419079" />
</svg>
