<?xml version="1.0" encoding="UTF-8"?>
<svg
  xmlns="http://www.w3.org/2000/svg"
  width="848"
  height="600"
  style="background-color:white"
>
  <polygon fill="lightblue" points="368.73618537030706,493.9631203156283 273.8678555652557,411.8047366898534 479.26381462969294,352.51203056169635 574.1321444347443,434.67041418747124" />
  <polygon fill="steelblue" points="273.8678555652557,411.8047366898534 273.8678555652557,165.32958581252876 479.26381462969294,106.03687968437166 479.26381462969294,352.51203056169635" />
  <polygon fill="lightskyblue" points="574.1321444347443,434.67041418747124 574.1321444347443,188.19526331014657 479.26381462969294,106.03687968437166 479.26381462969294,352.51203056169635" />
  <polygon fill="white" points="533.8131042675975,399.7531011465169 533.8131042675975,317.594717520742 519.5828547968398,305.27095997687576 519.5828547968398,387.42934360265065" />
  <polygon fill="white" points="297.8307174561067,372.0239008579251 297.8307174561067,339.1605474076152 318.37031336255046,333.2312767947995 318.37031336255046,366.09463024510944" />
  <polygon fill="white" points="332.0633773001796,362.141783169899 332.0633773001796,329.278429719589 352.60297320662335,323.3491591067733 352.60297320662335,356.21251255708324" />
  <polygon fill="white" points="366.29603714425247,352.2596654818728 366.29603714425247,319.39631203156284 386.8356330506962,313.4670414187471 386.8356330506962,346.3303948690571" />
  <polygon fill="white" points="400.52869698832535,342.3775477938466 400.52869698832535,309.51419434353664 421.06829289476906,303.5849237307209 421.06829289476906,336.4482771810309" />
  <polygon fill="white" points="434.76135683239823,332.4954301058204 434.76135683239823,299.63207665551045 455.30095273884194,293.70280604269476 455.30095273884194,326.5661594930047" />
</svg>
