<?xml version="1.0" encoding="UTF-8"?>
<svg
  xmlns="http://www.w3.org/2000/svg"
  width="848"
  height="600"
  style="background-color:white"
>
  <polygon fill="lightblue" points="348.6984027738017,536.3041435361146 219.4323213718887,424.35643319439066 499.3015972261983,343.565132318195 628.5676786281113,455.5128426599189" />
  <polygon fill="steelblue" points="219.4323213718887,424.35643319439066 219.4323213718887,144.48715734008113 499.3015972261983,63.69585646388546 499.3015972261983,343.565132318195" />
  <polygon fill="lightskyblue" points="628.5676786281113,455.5128426599189 628.5676786281113,175.64356680560934 499.3015972261983,63.69585646388546 499.3015972261983,343.565132318195" />
  <polygon fill="white" points="573.6295940322982,407.9350657646862 573.6295940322982,295.9873554229624 554.2396818220113,279.19519887170384 554.2396818220113,391.1429092134277" />
  <polygon fill="white" points="261.4127127500351,367.45865392627184 261.4127127500351,322.6795697895823 289.3996403354661,314.6004397019627 289.3996403354661,359.37952383865223" />
  <polygon fill="white" points="317.38656792089705,351.3003937510327 317.38656792089705,306.5213096143431 345.373495506328,298.4421795267236 345.373495506328,343.22126366341314" />
  <polygon fill="white" points="373.36042309175895,335.14213357579354 373.36042309175895,290.36304943910403 401.3473506771899,282.2839193514844 401.3473506771899,327.063003488174" />
  <polygon fill="white" points="429.3342782626209,318.98387340055444 429.3342782626209,274.2047892638649 457.3212058480518,266.12565917624534 457.3212058480518,310.90474331293484" />
  <polygon fill="antiquewhite" points="485.72002139001626,450.3189659379434 485.72002139001626,355.1634121474782 508.10956345836104,348.70010807738254 508.10956345836104,443.85566186784774" />
  <polygon fill="beige" points="485.72002139001626,450.3189659379434 485.72002139001626,355.1634121474782 472.79341324982494,343.9686411133058 472.79341324982494,439.12419490377107" />
  <polygon fill="bisque" points="485.72002139001626,355.1634121474782 472.79341324982494,343.9686411133058 495.1829553181698,337.50533704321015 508.10956345836104,348.70010807738254" />
</svg>
