<?xml version="1.0" encoding="UTF-8"?>
<svg
  xmlns="http://www.w3.org/2000/svg"
  width="848"
  height="600"
  style="background-color:white"
>
  <polygon fill="lightblue" points="307.49364905389035,579.0063509461097 107.49364905389035,405.80127018922195 540.5063509461096,280.8012701892219 740.5063509461097,454.00635094610965" />
  <polygon fill="steelblue" points="107.49364905389035,405.80127018922195 107.49364905389035,145.99364905389035 540.5063509461096,20.993649053890294 540.5063509461096,280.8012701892219" />
  <polygon fill="lightskyblue" points="740.5063509461097,454.00635094610965 740.5063509461097,194.19872981077805 540.5063509461096,20.993649053890294 540.5063509461096,280.8012701892219" />
  <polygon fill="white" points="655.5063509461096,380.3941916244323 655.5063509461096,207.18911086754463 625.5063509461097,181.20834875401147 625.5063509461097,354.4134295108992" />
  <polygon fill="white" points="158.0117976079826,321.9359045531335 158.0117976079826,252.6538722503784 201.31306779720458,240.1538722503784 201.31306779720458,309.4359045531335" />
  <polygon fill="white" points="230.18058125668583,301.10257121980015 230.18058125668583,231.8205389170451 273.48185144590775,219.32053891704507 273.48185144590775,288.60257121980015" />
  <polygon fill="white" points="302.34936490538905,280.26923788646684 302.34936490538905,210.98720558371173 345.65063509461095,198.48720558371173 345.65063509461095,267.76923788646684" />
  <polygon fill="white" points="374.51814855409225,259.43590455313347 374.51814855409225,190.15387225037838 417.8194187433142,177.65387225037838 417.8194187433142,246.93590455313347" />
  <polygon fill="white" points="446.6869322027955,238.60257121980013 446.6869322027955,169.32053891704504 489.9882023920174,156.82053891704504 489.9882023920174,226.10257121980013" />
</svg>
