<?xml version="1.0" encoding="UTF-8"?>
<svg
  xmlns="http://www.w3.org/2000/svg"
  width="848"
  height="600"
  style="background-color:white"
>
  <polygon fill="lightblue" points="307.49364905389035,708.9101615137754 107.49364905389035,535.7050807568877 540.5063509461096,410.7050807568877 740.5063509461097,583.9101615137754" />
  <polygon fill="steelblue" points="107.49364905389035,535.7050807568877 107.49364905389035,16.08983848622455 540.5063509461096,-108.91016151377545 540.5063509461096,410.7050807568877" />
  <polygon fill="lightskyblue" points="740.5063509461097,583.9101615137754 740.5063509461097,64.29491924311228 540.5063509461096,-108.91016151377545 540.5063509461096,410.7050807568877" />
  <polygon fill="white" points="655.5063509461096,510.2980021920981 655.5063509461096,337.0929214352104 625.5063509461097,311.11215932167727 625.5063509461097,484.31724007856496" />
  <polygon fill="white" points="158.0117976079826,451.83971512079927 158.0117976079826,382.5576828180442 201.31306779720458,370.0576828180442 201.31306779720458,439.33971512079927" />
  <polygon fill="white" points="230.18058125668583,431.00638178746595 230.18058125668583,361.72434948471084 273.48185144590775,349.22434948471084 273.48185144590775,418.50638178746595" />
  <polygon fill="white" points="302.34936490538905,410.17304845413264 302.34936490538905,340.8910161513775 345.65063509461095,328.3910161513775 345.65063509461095,397.67304845413264" />
  <polygon fill="white" points="374.51814855409225,389.33971512079927 374.51814855409225,320.05768281804416 417.8194187433142,307.55768281804416 417.8194187433142,376.83971512079927" />
  <polygon fill="white" points="446.6869322027955,368.50638178746595 446.6869322027955,299.22434948471084 489.9882023920174,286.72434948471084 489.98820239201746,356.00638178746595" />
</svg>
