<?xml version="1.0" encoding="UTF-8"?>
<svg
  xmlns="http://www.w3.org/2000/svg"
  width="848"
  height="600"
  style="background-color:white"
>
  <polygon fill="lightblue" points="307.49364905389035,622.3076211353316 107.49364905389035,449.1025403784439 540.5063509461096,324.10254037844385 740.5063509461097,497.30762113533154" />
  <polygon fill="steelblue" points="107.49364905389035,449.1025403784439 107.49364905389035,102.69237886466846 540.5063509461096,-22.307621135331658 540.5063509461096,324.10254037844385" />
  <polygon fill="lightskyblue" points="740.5063509461097,497.30762113533154 740.5063509461097,150.89745962155612 540.5063509461096,-22.307621135331658 540.5063509461096,324.10254037844385" />
  <polygon fill="white" points="655.5063509461096,423.6954618136543 655.5063509461096,250.49038105676655 625.5063509461097,224.50961894323342 625.5063509461097,397.7146997001211" />
  <polygon fill="white" points="147.70197137245356,368.2133652185459 147.70197137245356,298.93133291579085 191.0032415616755,286.43133291579085 191.0032415616755,355.7133652185459" />
  <polygon fill="white" points="209.56092878562777,350.35622236140307 209.56092878562777,281.07419005864796 252.8621989748497,268.57419005864796 252.8621989748497,337.85622236140307" />
  <polygon fill="white" points="271.4198861988019,332.4990795042602 271.4198861988019,263.2170472015051 314.72115638802387,250.7170472015051 314.72115638802387,319.9990795042602" />
  <polygon fill="white" points="333.27884361197613,314.6419366471173 333.27884361197613,245.35990434436223 376.5801138011981,232.85990434436223 376.5801138011981,302.1419366471173" />
  <polygon fill="white" points="395.13780102515034,296.78479378997446 395.13780102515034,227.50276148721935 438.4390712143723,215.00276148721935 438.4390712143723,284.28479378997446" />
  <polygon fill="white" points="456.9967584383245,278.92765093283157 456.9967584383245,209.6456186300765 500.2980286275464,197.14561863007648 500.2980286275464,266.4276509328316" />
</svg>
