<?xml version="1.0" encoding="UTF-8"?>
<svg
  xmlns="http://www.w3.org/2000/svg"
  width="848"
  height="600"
  style="background-color:white"
>
  <polygon fill="lightblue" points="315.8450844807132,518.8092141733937 130.181531136202,358.0198604201598 532.1549155192869,241.98013957984023 717.818468863798,402.7694933330742" />
  <polygon fill="steelblue" points="130.181531136202,358.0198604201598 130.181531136202,197.2305066669258 532.1549155192869,81.19078582660629 532.1549155192869,241.98013957984023" />
  <polygon fill="lightskyblue" points="717.818468863798,402.7694933330742 717.818468863798,241.98013957984026 532.1549155192869,81.19078582660629 532.1549155192869,241.98013957984023" />
  <polygon fill="white" points="607.9675331349622,307.63579236241077 607.9675331349622,154.8859062968385 580.1180001332855,130.76750323385343 580.1180001332855,283.51738929942564" />
  <polygon fill="white" points="669.8553842497993,361.2322436134887 669.8553842497993,208.48235754791648 642.0058512481226,184.3639544849314 642.0058512481226,337.11384055050365" />
  <polygon fill="hsl(360.0,50.0%,68.65222276527638%)" points="449.17974386513333,328.88144257493474 449.1797438651333,273.66637849607423 458.82710509032734,270.88142519590656 458.82710509032734,326.09648927476707" />
  <polygon fill="hsl(360.0,50.0%,68.65222276527638%)" points="473.2981469281184,321.91905932451556 473.2981469281184,266.70399524565505 463.65078570292434,269.4889485458227 463.65078570292434,324.70401262468323" />
  <polygon fill="hsl(360.0,50.0%,68.65222276527638%)" points="439.53238263993927,276.9980155990029 439.53238263993927,222.32963532290333 447.97382371198404,219.89280118525664 447.97382371198404,274.56118146135617" />
  <polygon fill="hsl(360.0,50.0%,68.65222276527638%)" points="474.50406708126764,266.9025598858951 474.50406708126764,212.23417960979555 482.9455081533124,209.79734547214883 482.9455081533124,264.46572574824836" />
  <polygon fill="hsl(360.0,50.0%,68.65222276527638%)" points="447.97382371198404,228.3342422573014 447.97382371198404,219.89280118525664 474.50406708126764,212.23417960979555 474.50406708126764,220.67562068184031" />
  <polygon fill="hsl(360.0,50.0%,68.65222276527638%)" points="449.1797438651333,274.2130622988352 449.1797438651333,219.54468202273566 473.2981469281184,212.5822987723165 473.2981469281184,267.25067904841603" />
  <polygon fill="hsl(360.0,50.0%,68.65222276527638%)" points="455.20934463087957,215.07066719632587 455.20934463087957,190.4698960720811 467.2685461623721,186.9887044468715 467.2685461623721,211.58947557111628" />
  <polygon fill="hsl(360.0,50.0%,68.65222276527638%)" points="457.6211849371781,217.10784788508897 457.6211849371781,189.77365774703918 464.8567058560736,187.68494277191346 464.8567058560736,215.01913290996322" />
  <polygon fill="hsl(360.0,50.0%,63.87054183818537%)" points="303.37074662648746,391.4753647744989 303.37074662648746,336.2603006956384 313.0181078516815,333.47534739547075 313.0181078516815,388.6904114743313" />
  <polygon fill="hsl(360.0,50.0%,63.87054183818537%)" points="327.4891496894726,384.5129815240798 327.4891496894725,329.29791744521924 317.8417884642785,332.0828707453869 317.8417884642785,387.2979348242474" />
  <polygon fill="hsl(360.0,50.0%,63.87054183818537%)" points="293.72338540129346,339.5919377985671 293.72338540129346,284.92355752246755 302.1648264733382,282.48672338482083 302.1648264733382,337.15510366092036" />
  <polygon fill="hsl(360.0,50.0%,63.87054183818537%)" points="328.6950698426218,329.49648208545926 328.6950698426218,274.82810180935974 337.1365109146666,272.391267671713 337.1365109146666,327.05964794781255" />
  <polygon fill="hsl(360.0,50.0%,63.87054183818537%)" points="302.1648264733382,290.9281644568656 302.1648264733382,282.48672338482083 328.6950698426218,274.82810180935974 328.6950698426218,283.2695428814045" />
  <polygon fill="hsl(360.0,50.0%,63.87054183818537%)" points="303.37074662648746,336.8069844983994 303.37074662648746,282.1386042222999 327.4891496894725,275.1762209718807 327.4891496894725,329.8446012479802" />
  <polygon fill="hsl(360.0,50.0%,63.87054183818537%)" points="309.40034739223375,277.66458939589006 309.40034739223375,253.06381827164532 321.4595489237263,249.58262664643573 321.4595489237263,274.18339777068053" />
  <polygon fill="hsl(360.0,50.0%,63.87054183818537%)" points="311.8121876985322,279.70177008465316 311.8121876985322,252.36757994660337 319.04770861742776,250.27886497147765 319.04770861742776,277.6130551095274" />
  <polygon fill="hsl(360.0,50.0%,52.57800117743009%)" points="466.3448786334196,392.8479936839239 466.3448786334196,337.6329296050634 475.99223985861363,334.8479763048957 475.99223985861363,390.0630403837563" />
  <polygon fill="hsl(360.0,50.0%,52.57800117743009%)" points="490.4632816964047,385.8856104335048 490.4632816964047,330.6705463546442 480.81592047121063,333.4554996548119 480.81592047121063,388.67056373367245" />
  <polygon fill="hsl(360.0,50.0%,52.57800117743009%)" points="456.69751740822556,340.96456670799205 456.69751740822556,286.2961864318925 465.13895848027033,283.8593522942458 465.13895848027033,338.52773257034534" />
  <polygon fill="hsl(360.0,50.0%,52.57800117743009%)" points="491.66920184955393,330.86911099488424 491.66920184955393,276.2007307187847 500.1106429215987,273.763896581138 500.1106429215987,328.4322768572375" />
  <polygon fill="hsl(360.0,50.0%,52.57800117743009%)" points="465.13895848027033,292.3007933662906 465.13895848027033,283.8593522942458 491.66920184955393,276.2007307187847 491.66920184955393,284.6421717908295" />
  <polygon fill="hsl(360.0,50.0%,52.57800117743009%)" points="466.3448786334196,338.1796134078244 466.3448786334196,283.51123313172485 490.4632816964047,276.54884988130567 490.4632816964047,331.2172301574052" />
  <polygon fill="hsl(360.0,50.0%,52.57800117743009%)" points="472.37447939916586,279.0372183053151 472.37447939916586,254.4364471810703 484.4336809306584,250.9552555558607 484.43368093065845,275.55602668010545" />
  <polygon fill="hsl(360.0,50.0%,52.57800117743009%)" points="474.7863197054644,281.07439899407814 474.7863197054644,253.74020885602837 482.02184062435987,251.65149388090262 482.02184062435987,278.9856840189524" />
  <polygon fill="hsl(360.0,50.0%,46.24652422154656%)" points="346.11254137144505,454.70365550674023 346.11254137144505,399.48859142787967 355.7599025966391,396.703638127712 355.7599025966391,451.91870220657256" />
  <polygon fill="hsl(360.0,50.0%,46.24652422154656%)" points="370.23094443443017,447.74127225632105 370.23094443443017,392.5262081774605 360.5835832092361,395.31116147762816 360.5835832092361,450.5262255564887" />
  <polygon fill="hsl(360.0,50.0%,46.24652422154656%)" points="336.465180146251,402.8202285308083 336.465180146251,348.1518482547088 344.9066212182958,345.7150141170621 344.9066212182958,400.3833943931616" />
  <polygon fill="hsl(360.0,50.0%,46.24652422154656%)" points="371.4368645875794,392.72477281770057 371.4368645875794,338.056392541601 379.8783056596242,335.6195584039543 379.8783056596242,390.2879386800538" />
  <polygon fill="hsl(360.0,50.0%,46.24652422154656%)" points="344.9066212182958,354.15645518910685 344.9066212182958,345.7150141170621 371.4368645875794,338.056392541601 371.4368645875794,346.49783361364575" />
  <polygon fill="hsl(360.0,50.0%,46.24652422154656%)" points="346.11254137144505,400.03527523064065 346.11254137144505,345.3668949545411 370.23094443443017,338.40451170412194 370.23094443443017,393.07289198022147" />
  <polygon fill="hsl(360.0,50.0%,46.24652422154656%)" points="352.14214213719134,340.89288012813137 352.14214213719134,316.2921090038866 364.2013436686839,312.810917378677 364.2013436686839,337.4116885029218" />
  <polygon fill="hsl(360.0,50.0%,46.24652422154656%)" points="354.5539824434899,342.9300608168944 354.5539824434899,315.5958706788447 361.78950336238535,313.5071557037189 361.78950336238535,340.84134584176866" />
</svg>
