<?xml version="1.0" encoding="UTF-8"?>
<svg
  xmlns="http://www.w3.org/2000/svg"
  width="848"
  height="600"
  style="background-color:white"
>
  <polygon fill="lightblue" points="315.8450844807132,518.8092141733937 130.181531136202,358.0198604201598 532.1549155192869,241.98013957984023 717.818468863798,402.7694933330742" />
  <polygon fill="steelblue" points="130.181531136202,358.0198604201598 130.181531136202,197.2305066669258 532.1549155192869,81.19078582660629 532.1549155192869,241.98013957984023" />
  <polygon fill="lightskyblue" points="717.818468863798,402.7694933330742 717.818468863798,241.98013957984026 532.1549155192869,81.19078582660629 532.1549155192869,241.98013957984023" />
  <polygon fill="white" points="638.9114586923807,334.43401798794974 638.9114586923807,181.6841319223775 611.0619256907041,157.5657288593924 611.0619256907041,310.3156149249647" />
  <polygon fill="white" points="244.07399004474271,260.82619801410897 244.07399004474271,196.51045651281538 284.2713284830512,184.90648442878344 284.2713284830512,249.222225930077" />
  <polygon fill="white" points="378.0651181724377,222.1462910673358 378.0651181724377,157.8305495660422 418.26245661074614,146.22657748201027 418.26245661074614,210.54231898330386" />
  <polygon fill="hsl(288.0,50.0%,52.57800117743009%)" points="466.3448786334196,392.8479936839239 466.3448786334196,337.6329296050634 475.99223985861363,334.8479763048957 475.99223985861363,390.0630403837563" />
  <polygon fill="hsl(288.0,50.0%,52.57800117743009%)" points="490.4632816964047,385.8856104335048 490.4632816964047,330.6705463546442 480.81592047121063,333.4554996548119 480.81592047121063,388.67056373367245" />
  <polygon fill="hsl(288.0,50.0%,52.57800117743009%)" points="456.69751740822556,340.96456670799205 456.69751740822556,286.2961864318925 465.13895848027033,283.8593522942458 465.13895848027033,338.52773257034534" />
  <polygon fill="hsl(288.0,50.0%,52.57800117743009%)" points="491.66920184955393,330.86911099488424 491.66920184955393,276.2007307187847 500.1106429215987,273.763896581138 500.1106429215987,328.4322768572375" />
  <polygon fill="hsl(288.0,50.0%,52.57800117743009%)" points="465.13895848027033,292.3007933662906 465.13895848027033,283.8593522942458 491.66920184955393,276.2007307187847 491.66920184955393,284.6421717908295" />
  <polygon fill="hsl(288.0,50.0%,52.57800117743009%)" points="466.3448786334196,338.1796134078244 466.3448786334196,283.51123313172485 490.4632816964047,276.54884988130567 490.4632816964047,331.2172301574052" />
  <polygon fill="hsl(288.0,50.0%,52.57800117743009%)" points="472.37447939916586,279.0372183053151 472.37447939916586,254.4364471810703 484.4336809306584,250.9552555558607 484.43368093065845,275.55602668010545" />
  <polygon fill="hsl(288.0,50.0%,52.57800117743009%)" points="474.7863197054644,281.07439899407814 474.7863197054644,253.74020885602837 482.02184062435987,251.65149388090262 482.02184062435987,278.9856840189524" />
</svg>
