<?xml version="1.0" encoding="UTF-8"?>
<svg
  xmlns="http://www.w3.org/2000/svg"
  width="848"
  height="600"
  style="background-color:white"
>
  <polygon fill="lightblue" points="338.15738666457617,537.4782857028828 190.7961267189607,409.8596910562975 509.84261333542383,317.7589035902878 657.2038732810393,445.37749823687307" />
  <polygon fill="steelblue" points="190.7961267189607,409.8596910562975 190.7961267189607,154.62250176312696 509.84261333542383,62.52171429711723 509.84261333542383,317.7589035902878" />
  <polygon fill="lightskyblue" points="657.2038732810393,445.37749823687307 657.2038732810393,190.1403089437025 509.84261333542383,62.52171429711723 509.84261333542383,317.7589035902878" />
  <polygon fill="white" points="594.5753378041527,391.13959551207427 594.5753378041527,269.9019305978183 572.4711488123104,250.75914140083052 572.4711488123104,371.99680631508653" />
  <polygon fill="white" points="281.19263126029193,332.71703008229395 281.19263126029193,281.66959222365983 313.09727992193825,272.45951347705886 313.09727992193825,323.506951335693" />
  <polygon fill="white" points="387.54146013244633,302.016767593624 387.54146013244633,250.96932973498994 419.44610879409265,241.75925098838897 419.44610879409265,292.80668884702305" />
  <polygon fill="grey" points="496.35812216697946,132.35062550084623 496.35812216697946,100.44597683919991 528.2627708286258,91.23589809259894 528.2627708286258,123.14054675424526" />
  <polygon fill="lightgrey" points="496.35812216697946,132.35062550084623 496.35812216697946,100.44597683919991 477.9379646737775,84.49365250837675 477.9379646737775,116.39830117002305" />
  <polygon fill="darkgrey" points="496.35812216697946,100.44597683919991 477.9379646737775,84.49365250837675 509.84261333542383,75.28357376177578 528.2627708286258,91.23589809259894" />
  <polygon fill="hsl(288.0,50.0%,52.57800117743009%)" points="457.609152444078,437.5027987467914 457.609152444078,393.678573345154 465.26626812287316,391.4681544459698 465.26626812287316,435.2923798476072" />
  <polygon fill="hsl(288.0,50.0%,52.57800117743009%)" points="476.7519416410658,431.9767514988308 476.7519416410658,388.15252609719346 469.09482596227065,390.3629449963777 469.09482596227065,434.18717039801504" />
  <polygon fill="hsl(288.0,50.0%,52.57800117743009%)" points="449.9520367652829,396.32289546613663 449.95203676528286,352.93257328629767 456.6520129842286,350.9984567495115 456.65201298422863,394.38877892935045" />
  <polygon fill="hsl(288.0,50.0%,52.57800117743009%)" points="477.70908110091517,388.3101269565938 477.70908110091517,344.9198047767548 484.4090573198609,342.9856882399686 484.4090573198609,386.3760104198076" />
  <polygon fill="hsl(288.0,50.0%,52.57800117743009%)" points="456.6520129842286,357.6984329684572 456.6520129842286,350.9984567495115 477.70908110091517,344.9198047767548 477.70908110091517,351.6197809957006" />
  <polygon fill="hsl(288.0,50.0%,52.57800117743009%)" points="457.609152444078,394.1124765669524 457.609152444078,350.72215438711345 476.7519416410658,345.19610713915284 476.7519416410658,388.5864293189918" />
  <polygon fill="hsl(288.0,50.0%,52.57800117743009%)" points="462.3948497433249,347.17112646613134 462.3948497433249,327.6454814852038 471.9662443418189,324.8824578612235 471.9662443418189,344.40810284215104" />
  <polygon fill="hsl(288.0,50.0%,52.57800117743009%)" points="464.3091286630237,348.7880378503272 464.3091286630237,327.09287676040776 470.05196542212,325.43506258601957 470.0519654221201,347.1302236759391" />
</svg>
