<?xml version="1.0" encoding="UTF-8"?>
<svg
  xmlns="http://www.w3.org/2000/svg"
  width="848"
  height="600"
  style="background-color:white"
>
  <polygon fill="lightblue" points="356.3159264587481,487.24380735193034 240.12642607252562,386.6207483644398 491.6840735412519,314.00231062305073 607.8735739274744,414.6253696105412" />
  <polygon fill="steelblue" points="240.12642607252562,386.6207483644398 240.12642607252562,185.3746303894588 491.6840735412519,112.75619264806966 491.6840735412519,314.00231062305073" />
  <polygon fill="lightskyblue" points="607.8735739274744,414.6253696105412 607.8735739274744,213.3792516355602 491.6840735412519,112.75619264806966 491.6840735412519,314.00231062305073" />
  <polygon fill="white" points="558.4930362633298,371.8605695408578 558.4930362633298,271.23751055336726 541.0646112053964,256.14405170524367 541.0646112053964,356.7671106927342" />
  <polygon fill="white" points="263.4853504803359,339.6283841220289 263.4853504803359,299.3791605270327 288.64111522720856,292.11731675289377 288.64111522720856,332.36654034789" />
  <polygon fill="white" points="299.4221572615825,329.2543215875447 299.4221572615825,289.00509799254854 324.5779220084552,281.7432542184096 324.5779220084552,321.9924778134058" />
  <polygon fill="white" points="335.35896404282914,318.88025905306057 335.35896404282914,278.6310354580644 360.51472878970173,271.36919168392546 360.51472878970173,311.61841527892165" />
  <polygon fill="white" points="371.29577082407576,308.5061965185764 371.29577082407576,268.25697292358024 396.45153557094835,260.9951291494413 396.4515355709484,301.2443527444375" />
  <polygon fill="white" points="407.2325776053224,298.13213398409226 407.2325776053224,257.8829103890961 432.388342352195,250.62106661495713 432.388342352195,290.87029020995334" />
  <polygon fill="white" points="443.16938438656894,287.7580714496081 443.16938438656894,247.5088478546119 468.3251491334416,240.24700408047298 468.3251491334416,280.4962276754692" />
</svg>
