<?xml version="1.0" encoding="UTF-8"?>
<svg
  xmlns="http://www.w3.org/2000/svg"
  width="848"
  height="600"
  style="background-color:white"
>
  <polygon fill="lightblue" points="334.7200843362426,513.8051984277098 181.458197857532,381.07651130521964 513.2799156637574,285.28783225602547 666.541802142468,418.0165193785156" />
  <polygon fill="steelblue" points="181.458197857532,381.07651130521964 181.458197857532,181.98348062148438 513.2799156637574,86.19480157229023 513.2799156637574,285.28783225602547" />
  <polygon fill="lightskyblue" points="666.541802142468,418.0165193785156 666.541802142468,218.92348869478036 513.2799156637574,86.19480157229023 513.2799156637574,285.28783225602547" />
  <polygon fill="white" points="601.405500389016,361.6068273514573 601.405500389016,228.87814022896714 578.4162174172094,208.9688371605936 578.4162174172094,341.6975242830838" />
  <polygon fill="white" points="212.2702145109672,319.0903734016555 212.2702145109672,265.99889855265945 245.4523862915898,256.4200306477401 245.4523862915898,309.5115054967361" />
  <polygon fill="white" points="259.6733170547137,305.4062763946278 259.6733170547137,252.31480154563172 292.85548883533625,242.7359336407123 292.85548883533625,295.8274084897084" />
  <polygon fill="white" points="307.0764195984602,291.7221793876 307.0764195984602,238.630704538604 340.25859137908276,229.05183663368456 340.25859137908276,282.14331148268064" />
  <polygon fill="white" points="354.4795221422067,278.0380823805723 354.47952214220663,224.94660753157626 387.6616939228292,215.36773962665683 387.6616939228292,268.4592144756529" />
  <polygon fill="white" points="401.88262468595315,264.35398537354456 401.88262468595315,211.2625105245485 435.06479646657573,201.6836426196291 435.06479646657573,254.77511746862515" />
  <polygon fill="white" points="449.2857272296996,250.66988836651683 449.2857272296996,197.57841351752077 482.4678990103222,187.99954561260137 482.4678990103222,241.09102046159742" />
  <polygon fill="antiquewhite" points="497.1771769450441,411.85849759960183 497.17717694504404,299.03911354548524 523.7229143695421,291.37601922154965 523.7229143695422,404.1954032756663" />
  <polygon fill="beige" points="497.1771769450441,411.85849759960183 497.17717694504404,299.03911354548524 481.850988297173,285.7662448332362 481.850988297173,398.58562888735287" />
  <polygon fill="bisque" points="497.17717694504404,299.03911354548524 481.850988297173,285.7662448332362 508.3967257216711,278.1031505093007 523.7229143695421,291.37601922154965" />
  <polygon fill="antiquewhite" points="353.15463598096915,492.6514264457935 353.15463598096915,379.83204239167685 379.7003734054672,372.1689480677413 379.7003734054672,484.988332121858" />
  <polygon fill="beige" points="353.15463598096915,492.6514264457935 353.15463598096915,379.83204239167685 337.8284473330981,366.5591736794279 337.8284473330981,479.3785577335445" />
  <polygon fill="bisque" points="353.15463598096915,379.83204239167685 337.8284473330981,366.5591736794279 364.3741847575961,358.8960793554923 379.7003734054672,372.1689480677413" />
  <polygon fill="antiquewhite" points="463.605089490511,321.9861091635294 463.605089490511,209.16672510941282 490.150826915009,201.50363078547727 490.150826915009,314.3230148395939" />
  <polygon fill="beige" points="463.605089490511,321.9861091635294 463.605089490511,209.16672510941282 448.2789008426399,195.89385639716377 448.2789008426399,308.7132404512804" />
  <polygon fill="bisque" points="463.605089490511,209.16672510941282 448.2789008426399,195.89385639716377 474.82463826713797,188.23076207322825 490.150826915009,201.50363078547727" />
  <polygon fill="antiquewhite" points="426.4716618700909,361.0832897885167 426.4716618700909,248.26390573440008 453.0173992945889,240.60081141046456 453.017399294589,353.4201954645812" />
  <polygon fill="beige" points="426.4716618700909,361.0832897885167 426.4716618700909,248.26390573440008 411.14547322221983,234.99103702215106 411.14547322221983,347.8104210762677" />
  <polygon fill="bisque" points="426.4716618700909,248.26390573440008 411.14547322221983,234.99103702215106 437.6912106467179,227.3279426982155 453.0173992945889,240.60081141046456" />
</svg>
