<?xml version="1.0" encoding="UTF-8"?>
<svg
  xmlns="http://www.w3.org/2000/svg"
  width="848"
  height="600"
  style="background-color:white"
>
  <polygon fill="lightblue" points="348.6984027738017,536.3041435361146 219.4323213718887,424.35643319439066 499.3015972261983,343.565132318195 628.5676786281113,455.5128426599189" />
  <polygon fill="steelblue" points="219.4323213718887,424.35643319439066 219.4323213718887,144.48715734008113 499.3015972261983,63.69585646388546 499.3015972261983,343.565132318195" />
  <polygon fill="lightskyblue" points="628.5676786281113,455.5128426599189 628.5676786281113,175.64356680560934 499.3015972261983,63.69585646388546 499.3015972261983,343.565132318195" />
  <polygon fill="white" points="573.6295940322982,407.9350657646862 573.6295940322982,295.9873554229624 554.2396818220113,279.19519887170384 554.2396818220113,391.1429092134277" />
  <polygon fill="white" points="252.08373688822482,370.15169728881165 252.08373688822482,325.37261315212214 280.0706644736558,317.2934830645026 280.0706644736558,362.0725672011921" />
  <polygon fill="white" points="298.72861619727644,356.6864804761124 298.72861619727644,311.90739633942286 326.71554378270736,303.8282662518033 326.71554378270736,348.6073503884928" />
  <polygon fill="white" points="345.373495506328,343.22126366341314 345.373495506328,298.4421795267236 373.36042309175895,290.36304943910403 373.36042309175895,335.14213357579354" />
  <polygon fill="white" points="392.0183748153796,329.75604685071386 392.0183748153796,284.9769627140243 420.0053024008106,276.89783262640475 420.0053024008106,321.67691676309425" />
  <polygon fill="white" points="438.6632541244312,316.2908300380146 438.6632541244312,271.511745901325 466.6501817098622,263.43261581370547 466.6501817098622,308.211699950395" />
  <polygon fill="antiquewhite" points="485.72002139001626,450.3189659379434 485.72002139001626,355.1634121474782 508.10956345836104,348.70010807738254 508.10956345836104,443.85566186784774" />
  <polygon fill="beige" points="485.72002139001626,450.3189659379434 485.72002139001626,355.1634121474782 472.79341324982494,343.9686411133058 472.79341324982494,439.12419490377107" />
  <polygon fill="bisque" points="485.72002139001626,355.1634121474782 472.79341324982494,343.9686411133058 495.1829553181698,337.50533704321015 508.10956345836104,348.70010807738254" />
</svg>
