<?xml version="1.0" encoding="UTF-8"?>
<svg
  xmlns="http://www.w3.org/2000/svg"
  width="848"
  height="600"
  style="background-color:white"
>
  <polygon fill="lightblue" points="334.7200843362426,513.8051984277098 181.458197857532,381.07651130521964 513.2799156637574,285.28783225602547 666.541802142468,418.0165193785156" />
  <polygon fill="steelblue" points="181.458197857532,381.07651130521964 181.458197857532,181.98348062148438 513.2799156637574,86.19480157229023 513.2799156637574,285.28783225602547" />
  <polygon fill="lightskyblue" points="666.541802142468,418.0165193785156 666.541802142468,218.92348869478036 513.2799156637574,86.19480157229023 513.2799156637574,285.28783225602547" />
  <polygon fill="white" points="601.405500389016,361.6068273514573 601.405500389016,228.87814022896714 578.4162174172094,208.9688371605936 578.4162174172094,341.6975242830838" />
  <polygon fill="white" points="247.8225414187771,308.82730064638474 247.8225414187771,255.73582579738866 281.0047131993996,246.15695789246922 281.0047131993996,299.2484327414653" />
  <polygon fill="white" points="330.77797087033343,284.88013088408616 330.77797087033343,231.78865603509013 363.96014265095596,222.2097881301707 363.96014265095596,275.3012629791668" />
  <polygon fill="white" points="413.73340032188975,260.9329611217876 413.73340032188975,207.8414862727916 446.91557210251233,198.26261836787216 446.91557210251233,251.3540932168682" />
  <polygon fill="antiquewhite" points="497.1771769450441,411.85849759960183 497.17717694504404,299.03911354548524 523.7229143695421,291.37601922154965 523.7229143695422,404.1954032756663" />
  <polygon fill="beige" points="497.1771769450441,411.85849759960183 497.17717694504404,299.03911354548524 481.850988297173,285.7662448332362 481.850988297173,398.58562888735287" />
  <polygon fill="bisque" points="497.17717694504404,299.03911354548524 481.850988297173,285.7662448332362 508.3967257216711,278.1031505093007 523.7229143695421,291.37601922154965" />
  <polygon fill="antiquewhite" points="353.15463598096915,492.6514264457935 353.15463598096915,379.83204239167685 379.7003734054672,372.1689480677413 379.7003734054672,484.988332121858" />
  <polygon fill="beige" points="353.15463598096915,492.6514264457935 353.15463598096915,379.83204239167685 337.8284473330981,366.5591736794279 337.8284473330981,479.3785577335445" />
  <polygon fill="bisque" points="353.15463598096915,379.83204239167685 337.8284473330981,366.5591736794279 364.3741847575961,358.8960793554923 379.7003734054672,372.1689480677413" />
  <polygon fill="antiquewhite" points="463.605089490511,321.9861091635294 463.605089490511,209.16672510941282 490.150826915009,201.50363078547727 490.150826915009,314.3230148395939" />
  <polygon fill="beige" points="463.605089490511,321.9861091635294 463.605089490511,209.16672510941282 448.2789008426399,195.89385639716377 448.2789008426399,308.7132404512804" />
  <polygon fill="bisque" points="463.605089490511,209.16672510941282 448.2789008426399,195.89385639716377 474.82463826713797,188.23076207322825 490.150826915009,201.50363078547727" />
  <polygon fill="antiquewhite" points="426.4716618700909,361.0832897885167 426.4716618700909,248.26390573440008 453.0173992945889,240.60081141046456 453.017399294589,353.4201954645812" />
  <polygon fill="beige" points="426.4716618700909,361.0832897885167 426.4716618700909,248.26390573440008 411.14547322221983,234.99103702215106 411.14547322221983,347.8104210762677" />
  <polygon fill="bisque" points="426.4716618700909,248.26390573440008 411.14547322221983,234.99103702215106 437.6912106467179,227.3279426982155 453.0173992945889,240.60081141046456" />
</svg>
