<?xml version="1.0" encoding="UTF-8"?>
<svg
  xmlns="http://www.w3.org/2000/svg"
  width="848"
  height="600"
  style="background-color:white"
>
  <polygon fill="lightblue" points="353.1384839778597,548.7074200369326 231.4944440663917,443.36059125463316 494.8615160221403,367.3330663099657 616.5055559336083,472.67989509226516" />
  <polygon fill="steelblue" points="231.4944440663917,443.36059125463316 231.4944440663917,127.32010490773487 494.8615160221403,51.29257996306737 494.8615160221403,367.3330663099657" />
  <polygon fill="lightskyblue" points="616.5055559336083,472.67989509226516 616.5055559336083,156.6394087453668 494.8615160221403,51.29257996306737 494.8615160221403,367.3330663099657" />
  <polygon fill="white" points="564.8068389712344,427.90749285978785 564.8068389712344,322.5606640774884 546.5602329845142,306.7586397601435 546.5602329845142,412.10546854244296" />
  <polygon fill="white" points="350.0096264464786,367.00947351661307 350.0096264464786,324.87074200369324 376.3463336420534,317.2679895092265 376.3463336420534,359.4067210221463" />
  <polygon fill="grey" points="483.7303138154989,108.93507612912634 483.7303138154989,82.59836893355148 510.0670210110738,74.99561643908473 510.0670210110738,101.33232363465962" />
  <polygon fill="lightgrey" points="483.7303138154989,108.93507612912634 483.7303138154989,82.59836893355148 468.52480882656545,69.43001533576404 468.52480882656545,95.76672253133893" />
  <polygon fill="darkgrey" points="483.7303138154989,82.59836893355148 468.52480882656545,69.43001533576404 494.8615160221403,61.827262841297284 510.0670210110738,74.99561643908473" />
  <polygon fill="hsl(324.0,50.0%,68.65222276527638%)" points="440.4973992607331,424.26952680244915 440.4973992607331,388.0934257986075 446.8182089876711,386.2687651999355 446.8182089876711,422.4448662037771" />
  <polygon fill="hsl(324.0,50.0%,68.65222276527638%)" points="456.299423578078,419.7078753057691 456.299423578078,383.53177430192744 449.97861385114004,385.3564349005995 449.97861385114004,421.5325359044411" />
  <polygon fill="hsl(324.0,50.0%,68.65222276527638%)" points="434.1765895337951,390.2762656151393 434.1765895337951,354.4583438291575 439.70729804486587,352.86176580531946 439.70729804486587,388.67968759130133" />
  <polygon fill="hsl(324.0,50.0%,68.65222276527638%)" points="457.08952479394526,383.66187094495325 457.08952479394526,347.84394915897144 462.620233305016,346.2473711351334 462.620233305016,382.0652929211152" />
  <polygon fill="hsl(324.0,50.0%,68.65222276527638%)" points="439.70729804486587,358.39247431639023 439.70729804486587,352.86176580531946 457.08952479394526,347.84394915897144 457.08952479394526,353.37465767004215" />
  <polygon fill="hsl(324.0,50.0%,68.65222276527638%)" points="440.4973992607331,388.4516050164673 440.4973992607331,352.6336832304855 456.299423578078,348.07203173380543 456.299423578078,383.88995351978724" />
  <polygon fill="hsl(324.0,50.0%,68.65222276527638%)" points="444.4479053400693,349.7023742670164 444.4479053400693,333.5843094633246 452.3489174987418,331.3034837149845 452.3489174987418,347.42154851867633" />
  <polygon fill="hsl(324.0,50.0%,68.65222276527638%)" points="446.02810777180383,351.0371052066475 446.02810777180383,333.12814431365655 450.7687150670073,331.75964886465255 450.7687150670073,349.6686097576435" />
  <polygon fill="hsl(324.0,50.0%,63.87054183818537%)" points="344.9654805828807,465.2801475360214 344.9654805828807,429.1040465321798 351.2862903098186,427.27938593350774 351.2862903098186,463.4554869373494" />
  <polygon fill="hsl(324.0,50.0%,63.87054183818537%)" points="360.76750490022556,460.71849603934135 360.76750490022556,424.54239503549974 354.4466951732876,426.3670556341718 354.4466951732876,462.5431566380134" />
  <polygon fill="hsl(324.0,50.0%,63.87054183818537%)" points="338.6446708559427,431.2868863487116 338.64467085594265,395.46896456272975 344.1753793670134,393.87238653889176 344.1753793670134,429.6903083248736" />
  <polygon fill="hsl(324.0,50.0%,63.87054183818537%)" points="361.5576061160928,424.67249167852555 361.5576061160928,388.8545698925437 367.0883146271635,387.2579918687057 367.0883146271635,423.0759136546875" />
  <polygon fill="hsl(324.0,50.0%,63.87054183818537%)" points="344.1753793670134,399.4030950499625 344.1753793670134,393.87238653889176 361.5576061160928,388.8545698925437 361.5576061160928,394.3852784036144" />
  <polygon fill="hsl(324.0,50.0%,63.87054183818537%)" points="344.9654805828807,429.4622257500396 344.9654805828807,393.6443039640577 360.76750490022556,389.08265246737767 360.76750490022556,424.90057425335954" />
  <polygon fill="hsl(324.0,50.0%,63.87054183818537%)" points="348.9159866622169,390.71299500058865 348.9159866622169,374.5949301968968 356.81699882088935,372.3141044485568 356.81699882088935,388.4321692522486" />
  <polygon fill="hsl(324.0,50.0%,63.87054183818537%)" points="350.49618909395133,392.0477259402197 350.49618909395133,374.13876504722884 355.23679638915485,372.7702695982248 355.23679638915485,390.6792304912157" />
  <polygon fill="hsl(324.0,50.0%,52.57800117743009%)" points="451.74374406683864,466.1794738864759 451.74374406683864,430.0033728826342 458.0645537937766,428.1787122839622 458.0645537937766,464.35481328780384" />
  <polygon fill="hsl(324.0,50.0%,52.57800117743009%)" points="467.5457683841836,461.6178223897958 467.5457683841836,425.44172138595417 461.22495865724557,427.2663819846262 461.22495865724557,463.4424829884678" />
  <polygon fill="hsl(324.0,50.0%,52.57800117743009%)" points="445.4229343399007,432.18621269916605 445.4229343399007,396.36829091318424 450.9536428509714,394.7717128893462 450.9536428509714,430.58963467532806" />
  <polygon fill="hsl(324.0,50.0%,52.57800117743009%)" points="468.33586960005084,425.57181802898 468.33586960005084,389.75389624299817 473.86657811112156,388.1573182191601 473.86657811112156,423.9752400051419" />
  <polygon fill="hsl(324.0,50.0%,52.57800117743009%)" points="450.9536428509714,400.30242140041696 450.9536428509714,394.7717128893462 468.33586960005084,389.75389624299817 468.33586960005084,395.2846047540689" />
  <polygon fill="hsl(324.0,50.0%,52.57800117743009%)" points="451.74374406683864,430.361552100494 451.74374406683864,394.5436303145122 467.5457683841836,389.98197881783216 467.5457683841836,425.79990060381397" />
  <polygon fill="hsl(324.0,50.0%,52.57800117743009%)" points="455.69425014617485,391.6123213510431 455.69425014617485,375.4942565473513 463.5952623048473,373.2134307990113 463.5952623048473,389.33149560270306" />
  <polygon fill="hsl(324.0,50.0%,52.57800117743009%)" points="457.27445257790936,392.9470522906742 457.27445257790936,375.0380913976833 462.0150598731128,373.6695959486793 462.0150598731128,391.5785568416702" />
  <polygon fill="hsl(324.0,50.0%,46.24652422154656%)" points="372.9692782706033,506.70639723778623 372.9692782706033,470.5302962339446 379.29008799754126,468.7056356352726 379.29008799754126,504.8817366391142" />
  <polygon fill="hsl(324.0,50.0%,46.24652422154656%)" points="388.77130258794824,502.14474574110614 388.77130258794824,465.9686447372645 382.4504928610103,467.79330533593657 382.4504928610103,503.9694063397782" />
  <polygon fill="hsl(324.0,50.0%,46.24652422154656%)" points="366.64846854366533,472.71313605047646 366.64846854366533,436.8952142644946 372.17917705473604,435.2986362406566 372.17917705473604,471.11655802663836" />
  <polygon fill="hsl(324.0,50.0%,46.24652422154656%)" points="389.56140380381544,466.09874138029033 389.56140380381544,430.2808195943086 395.0921123148862,428.68424157047053 395.0921123148862,464.50216335645234" />
  <polygon fill="hsl(324.0,50.0%,46.24652422154656%)" points="372.17917705473604,440.8293447517273 372.17917705473604,435.2986362406566 389.56140380381544,430.2808195943086 389.56140380381544,435.81152810537924" />
  <polygon fill="hsl(324.0,50.0%,46.24652422154656%)" points="372.9692782706033,470.8884754518044 372.9692782706033,435.07055366582256 388.7713025879482,430.5089021691425 388.77130258794824,466.3268239551244" />
  <polygon fill="hsl(324.0,50.0%,46.24652422154656%)" points="376.9197843499395,432.1392447023535 376.9197843499395,416.02117989866167 384.820796508612,413.74035415032165 384.820796508612,429.8584189540135" />
  <polygon fill="hsl(324.0,50.0%,46.24652422154656%)" points="378.499986781674,433.47397564198457 378.499986781674,415.5650147489937 383.24059407687747,414.19651929998963 383.24059407687747,432.10548019298056" />
</svg>
