<?xml version="1.0" encoding="UTF-8"?>
<svg
  xmlns="http://www.w3.org/2000/svg"
  width="848"
  height="600"
  style="background-color:white"
>
  <polygon fill="lightblue" points="345.8451638422156,487.16315006089917 211.6810851922282,370.9736496746767 502.1548361577844,287.12110051843456 636.3189148077718,403.31060090465706" />
  <polygon fill="steelblue" points="211.6810851922282,370.9736496746767 211.6810851922282,196.68939909534294 502.1548361577844,112.8368499391008 502.1548361577844,287.12110051843456" />
  <polygon fill="lightskyblue" points="636.3189148077718,403.31060090465706 636.3189148077718,229.0263503253233 502.1548361577844,112.8368499391008 502.1548361577844,287.12110051843456" />
  <polygon fill="white" points="579.2991813815272,353.9300632405125 579.2991813815272,237.74056285428998 559.1745695840291,220.3121377963566 559.1745695840291,336.50163818257914" />
  <polygon fill="white" points="245.5696894715431,314.7150521186261 245.5696894715431,268.2392519641371 274.6170645680987,259.8539970485129 274.6170645680987,306.3297972030019" />
  <polygon fill="white" points="293.9819812991358,300.7396272592524 293.9819812991358,254.2638271047634 323.0293563956914,245.8785721891392 323.0293563956914,292.3543723436282" />
  <polygon fill="white" points="342.39427312672854,286.76420239987874 342.39427312672854,240.2884022453897 371.4416482232841,231.90314732976552 371.4416482232841,278.3789474842545" />
  <polygon fill="white" points="390.80656495432123,272.788777540505 390.80656495432123,226.31297738601603 419.8539400508768,217.9277224703918 419.8539400508768,264.4035226248808" />
  <polygon fill="white" points="439.2188567819139,258.81335268113133 439.2188567819139,212.33755252664233 468.26623187846957,203.95229761101814 468.26623187846957,250.42809776550712" />
</svg>
