<?xml version="1.0" encoding="UTF-8"?>
<svg
  xmlns="http://www.w3.org/2000/svg"
  width="848"
  height="600"
  style="background-color:white"
>
  <polygon fill="lightblue" points="307.49364905389035,665.6088913245535 107.49364905389035,492.40381056766574 540.5063509461096,367.40381056766574 740.5063509461097,540.6088913245535" />
  <polygon fill="steelblue" points="107.49364905389035,492.40381056766574 107.49364905389035,59.39110867544653 540.5063509461096,-65.6088913245535 540.5063509461096,367.40381056766574" />
  <polygon fill="lightskyblue" points="740.5063509461097,540.6088913245535 740.5063509461097,107.59618943233426 540.5063509461096,-65.6088913245535 540.5063509461096,367.40381056766574" />
  <polygon fill="white" points="655.5063509461096,466.99673200287623 655.5063509461096,293.7916512459885 625.5063509461097,267.8108891324553 625.5063509461097,441.01596988934307" />
  <polygon fill="white" points="158.0117976079826,408.5384449315774 158.0117976079826,339.25641262882226 201.31306779720458,326.75641262882226 201.31306779720458,396.0384449315774" />
  <polygon fill="white" points="230.18058125668583,387.70511159824406 230.18058125668583,318.42307929548895 273.48185144590775,305.92307929548895 273.48185144590775,375.20511159824406" />
  <polygon fill="white" points="302.34936490538905,366.8717782649107 302.34936490538905,297.5897459621556 345.65063509461095,285.0897459621556 345.65063509461095,354.3717782649107" />
  <polygon fill="white" points="374.51814855409225,346.0384449315774 374.51814855409225,276.75641262882226 417.8194187433142,264.25641262882226 417.8194187433142,333.5384449315774" />
  <polygon fill="white" points="446.6869322027955,325.205111598244 446.6869322027955,255.9230792954889 489.9882023920174,243.4230792954889 489.9882023920174,312.705111598244" />
</svg>
