<?xml version="1.0" encoding="UTF-8"?>
<svg
  xmlns="http://www.w3.org/2000/svg"
  width="848"
  height="600"
  style="background-color:white"
>
  <polygon fill="lightblue" points="334.7200843362426,513.8051984277098 181.458197857532,381.07651130521964 513.2799156637574,285.28783225602547 666.541802142468,418.0165193785156" />
  <polygon fill="steelblue" points="181.458197857532,381.07651130521964 181.458197857532,181.98348062148438 513.2799156637574,86.19480157229023 513.2799156637574,285.28783225602547" />
  <polygon fill="lightskyblue" points="666.541802142468,418.0165193785156 666.541802142468,218.92348869478036 513.2799156637574,86.19480157229023 513.2799156637574,285.28783225602547" />
  <polygon fill="white" points="247.8225414187771,308.82730064638474 247.8225414187771,255.73582579738866 281.0047131993996,246.15695789246922 281.0047131993996,299.2484327414653" />
  <polygon fill="white" points="330.77797087033343,284.88013088408616 330.77797087033343,231.78865603509013 363.96014265095596,222.2097881301707 363.96014265095596,275.3012629791668" />
  <polygon fill="white" points="413.73340032188975,260.9329611217876 413.73340032188975,207.8414862727916 446.91557210251233,198.26261836787216 446.91557210251233,251.3540932168682" />
  <polygon fill="grey" points="499.25547969297367,158.81979586039247 499.25547969297367,125.63762407976992 532.4376514735961,116.05875617485052 532.4376514735961,149.24092795547307" />
  <polygon fill="lightgrey" points="499.25547969297367,158.81979586039247 499.25547969297367,125.63762407976992 480.09774388313485,109.04653818945866 480.09774388313485,142.2287099700812" />
  <polygon fill="darkgrey" points="499.25547969297367,125.63762407976992 480.09774388313485,109.04653818945866 513.2799156637574,99.46767028453925 532.4376514735961,116.05875617485052" />
  <polygon fill="hsl(288.0,50.0%,52.57800117743009%)" points="458.95492715270603,409.8265018681587 458.95492715270603,364.24747071029554 466.9186483800554,361.94854241311486 466.9186483800554,407.527573570978" />
  <polygon fill="hsl(288.0,50.0%,52.57800117743009%)" points="478.86423022107954,404.079181125207 478.86423022107954,358.50014996734393 470.9005089937301,360.79907826452455 470.9005089937301,406.3781094223877" />
  <polygon fill="hsl(288.0,50.0%,52.57800117743009%)" points="450.9912059253566,366.9976765436927 450.9912059253566,321.86992292204604 457.9594619992873,319.85836066201296 457.9594619992873,364.9861142836596" />
  <polygon fill="hsl(288.0,50.0%,52.57800117743009%)" points="479.8596953744982,358.6640614664128 479.8596953744982,313.53630784476616 486.82795144842896,311.52474558473307 486.82795144842896,356.65249920637973" />
  <polygon fill="hsl(288.0,50.0%,52.57800117743009%)" points="457.9594619992873,326.8266167359437 457.9594619992873,319.85836066201296 479.8596953744982,313.53630784476616 479.8596953744982,320.5045639186969" />
  <polygon fill="hsl(288.0,50.0%,52.57800117743009%)" points="458.95492715270603,364.698748246512 458.954927152706,319.57099462486536 478.86423022107954,313.8236738819137 478.86423022107954,358.95142750356035" />
  <polygon fill="hsl(288.0,50.0%,52.57800117743009%)" points="463.93225291979934,315.8777767580451 463.93225291979934,295.57028762830413 473.8869044539862,292.6966272568283 473.8869044539862,313.0041163865693" />
  <polygon fill="hsl(288.0,50.0%,52.57800117743009%)" points="465.92318322663675,317.5594323648323 465.92318322663675,294.995555554009 471.89597414714876,293.2713593311235 471.89597414714876,315.8352361419468" />
</svg>
