<?xml version="1.0" encoding="UTF-8"?>
<svg
  xmlns="http://www.w3.org/2000/svg"
  width="848"
  height="600"
  style="background-color:white"
>
  <polygon fill="lightblue" points="356.3159264587481,487.24380735193034 240.12642607252562,386.6207483644398 491.6840735412519,314.00231062305073 607.8735739274744,414.6253696105412" />
  <polygon fill="steelblue" points="240.12642607252562,386.6207483644398 240.12642607252562,185.3746303894588 491.6840735412519,112.75619264806966 491.6840735412519,314.00231062305073" />
  <polygon fill="lightskyblue" points="607.8735739274744,414.6253696105412 607.8735739274744,213.3792516355602 491.6840735412519,112.75619264806966 491.6840735412519,314.00231062305073" />
  <polygon fill="white" points="558.4930362633298,371.8605695408578 558.4930362633298,271.23751055336726 541.0646112053964,256.14405170524367 541.0646112053964,356.7671106927342" />
  <polygon fill="white" points="269.4748182772104,337.89937369961484 269.4748182772104,297.65015010461866 294.63058302408297,290.38830633047974 294.63058302408297,330.637529925476" />
  <polygon fill="white" points="311.4010928553314,325.79630074271665 311.4010928553314,285.5470771477205 336.556857602204,278.28523337358155 336.556857602204,318.5344569685778" />
  <polygon fill="white" points="353.3273674334524,313.6932277858185 353.3273674334524,273.4440041908223 378.4831321803251,266.18216041668336 378.4831321803251,306.4313840116796" />
  <polygon fill="white" points="395.2536420115735,301.59015482892033 395.2536420115735,261.3409312339241 420.40940675844615,254.0790874597852 420.40940675844615,294.3283110547814" />
  <polygon fill="white" points="437.1799165896945,289.48708187202215 437.1799165896945,249.2378582770259 462.3356813365672,241.976014502887 462.3356813365672,282.2252380978832" />
</svg>
