<?xml version="1.0" encoding="UTF-8"?>
<svg
  xmlns="http://www.w3.org/2000/svg"
  width="848"
  height="600"
  style="background-color:white"
>
  <polygon fill="lightblue" points="356.3159264587481,487.24380735193034 240.12642607252562,386.6207483644398 491.6840735412519,314.00231062305073 607.8735739274744,414.6253696105412" />
  <polygon fill="steelblue" points="240.12642607252562,386.6207483644398 240.12642607252562,185.3746303894588 491.6840735412519,112.75619264806966 491.6840735412519,314.00231062305073" />
  <polygon fill="lightskyblue" points="607.8735739274744,414.6253696105412 607.8735739274744,213.3792516355602 491.6840735412519,112.75619264806966 491.6840735412519,314.00231062305073" />
  <polygon fill="white" points="558.4930362633298,371.8605695408578 558.4930362633298,271.23751055336726 541.0646112053964,256.14405170524367 541.0646112053964,356.7671106927342" />
  <polygon fill="white" points="277.86007319283453,335.47875910823524 277.86007319283453,295.229535513239 303.0158379397072,287.96769173910013 303.0158379397072,328.2169153340963" />
  <polygon fill="white" points="328.17160268657983,320.9550715599574 328.17160268657983,280.7058479649612 353.3273674334524,273.4440041908223 353.3273674334524,313.6932277858185" />
  <polygon fill="white" points="378.4831321803251,306.4313840116796 378.4831321803251,266.18216041668336 403.6388969271977,258.9203166425445 403.6388969271977,299.1695402375407" />
  <polygon fill="white" points="428.7946616740703,291.90769646340175 428.7946616740703,251.65847286840557 453.95042642094296,244.39662909426664 453.95042642094296,284.6458526892629" />
</svg>
