<?xml version="1.0" encoding="UTF-8"?>
<svg
  xmlns="http://www.w3.org/2000/svg"
  width="848"
  height="600"
  style="background-color:white"
>
  <polygon fill="lightblue" points="363.4615242270663,489.9759526419165 259.5384757729337,399.9759526419165 484.5384757729337,335.0240473580835 588.4615242270663,425.0240473580835" />
  <polygon fill="steelblue" points="259.5384757729337,399.9759526419165 259.5384757729337,174.97595264191645 484.5384757729337,110.02404735808352 484.5384757729337,335.0240473580835" />
  <polygon fill="lightskyblue" points="588.4615242270663,425.0240473580835 588.4615242270663,200.02404735808355 484.5384757729337,110.02404735808352 484.5384757729337,335.0240473580835" />
  <polygon fill="white" points="544.2942286340599,386.7740473580835 544.2942286340599,296.7740473580835 528.7057713659401,283.2740473580835 528.7057713659401,373.2740473580835" />
  <polygon fill="white" points="280.4313329157908,357.94470429413195 280.4313329157908,321.94470429413195 302.9313329157908,315.4495137657487 302.9313329157908,351.4495137657487" />
  <polygon fill="white" points="312.57419005864796,348.6658606821559 312.57419005864796,312.6658606821558 335.07419005864796,306.17067015377256 335.07419005864796,342.17067015377256" />
  <polygon fill="white" points="344.7170472015051,339.3870170701797 344.7170472015051,303.3870170701797 367.2170472015051,296.89182654179643 367.2170472015051,332.89182654179643" />
  <polygon fill="white" points="376.85990434436223,330.10817345820357 376.85990434436223,294.10817345820357 399.35990434436223,287.6129829298203 399.35990434436223,323.6129829298203" />
  <polygon fill="white" points="409.0027614872194,320.82932984622744 409.0027614872194,284.82932984622744 431.5027614872194,278.3341393178441 431.5027614872194,314.3341393178442" />
  <polygon fill="white" points="441.1456186300765,311.5504862342513 441.1456186300765,275.5504862342513 463.6456186300765,269.055295705868 463.6456186300765,305.05529570586805" />
</svg>
