<?xml version="1.0" encoding="UTF-8"?>
<svg
  xmlns="http://www.w3.org/2000/svg"
  width="848"
  height="600"
  style="background-color:white"
>
  <polygon fill="lightblue" points="345.8451638422156,487.16315006089917 211.6810851922282,370.9736496746767 502.1548361577844,287.12110051843456 636.3189148077718,403.31060090465706" />
  <polygon fill="steelblue" points="211.6810851922282,370.9736496746767 211.6810851922282,196.68939909534294 502.1548361577844,112.8368499391008 502.1548361577844,287.12110051843456" />
  <polygon fill="lightskyblue" points="636.3189148077718,403.31060090465706 636.3189148077718,229.0263503253233 502.1548361577844,112.8368499391008 502.1548361577844,287.12110051843456" />
  <polygon fill="white" points="579.2991813815272,353.9300632405125 579.2991813815272,237.74056285428998 559.1745695840291,220.3121377963566 559.1745695840291,336.50163818257914" />
  <polygon fill="white" points="238.65364778188697,316.7115413842509 238.65364778188697,270.2357412297619 267.7010228784426,261.8504863141377 267.7010228784426,308.3262864686267" />
  <polygon fill="white" points="280.1498979198236,304.732605790502 280.1498979198236,258.25680563601304 309.1972730163792,249.87155072038883 309.1972730163792,296.3473508748778" />
  <polygon fill="white" points="321.64614805776023,292.75367019675315 321.64614805776023,246.27787004226417 350.6935231543158,237.89261512663995 350.6935231543158,284.36841528112893" />
  <polygon fill="white" points="363.14239819569684,280.7747346030043 363.1423981956968,234.2989344485153 392.1897732922524,225.91367953289108 392.1897732922524,272.38947968738006" />
  <polygon fill="white" points="404.6386483336334,268.7957990092554 404.6386483336334,222.3199988547664 433.68602343018904,213.9347439391422 433.68602343018904,260.4105440936312" />
  <polygon fill="white" points="446.13489847157,256.81686341550653 446.13489847157,210.34106326101752 475.18227356812565,201.95580834539334 475.18227356812565,248.43160849988232" />
</svg>
