<?xml version="1.0" encoding="UTF-8"?>
<svg
  xmlns="http://www.w3.org/2000/svg"
  width="848"
  height="600"
  style="background-color:white"
>
  <polygon fill="lightblue" points="315.8450844807132,518.8092141733937 130.181531136202,358.0198604201598 532.1549155192869,241.98013957984023 717.818468863798,402.7694933330742" />
  <polygon fill="steelblue" points="130.181531136202,358.0198604201598 130.181531136202,197.2305066669258 532.1549155192869,81.19078582660629 532.1549155192869,241.98013957984023" />
  <polygon fill="lightskyblue" points="717.818468863798,402.7694933330742 717.818468863798,241.98013957984026 532.1549155192869,81.19078582660629 532.1549155192869,241.98013957984023" />
  <polygon fill="white" points="638.9114586923807,334.43401798794974 638.9114586923807,173.6446642347158 611.0619256907041,149.52626117173074 611.0619256907041,310.3156149249647" />
  <polygon fill="white" points="177.07842598089522,280.16615148749554 177.07842598089522,215.85040998620198 217.27576441920374,204.24643790217004 217.27576441920374,268.5621794034636" />
  <polygon fill="white" points="244.07399004474271,260.82619801410897 244.07399004474271,196.51045651281538 284.2713284830512,184.90648442878344 284.2713284830512,249.222225930077" />
  <polygon fill="white" points="311.0695541085902,241.4862445407224 311.0695541085902,177.1705030394288 351.26689254689865,165.56653095539687 351.26689254689865,229.88227245669043" />
  <polygon fill="white" points="378.0651181724377,222.1462910673358 378.0651181724377,157.8305495660422 418.26245661074614,146.22657748201027 418.26245661074614,210.54231898330386" />
  <polygon fill="white" points="445.0606822362852,202.8063375939492 445.0606822362852,138.49059609265564 485.25802067459364,126.88662400862367 485.25802067459364,191.20236550991723" />
  <polygon fill="hsl(324.0,50.0%,52.57800117743009%)" points="466.3448786334196,392.8479936839239 466.3448786334196,337.6329296050634 475.99223985861363,334.8479763048957 475.99223985861363,390.0630403837563" />
  <polygon fill="hsl(324.0,50.0%,52.57800117743009%)" points="490.4632816964047,385.8856104335048 490.4632816964047,330.6705463546442 480.81592047121063,333.4554996548119 480.81592047121063,388.67056373367245" />
  <polygon fill="hsl(324.0,50.0%,52.57800117743009%)" points="456.69751740822556,340.96456670799205 456.69751740822556,286.2961864318925 465.13895848027033,283.8593522942458 465.13895848027033,338.52773257034534" />
  <polygon fill="hsl(324.0,50.0%,52.57800117743009%)" points="491.66920184955393,330.86911099488424 491.66920184955393,276.2007307187847 500.1106429215987,273.763896581138 500.1106429215987,328.4322768572375" />
  <polygon fill="hsl(324.0,50.0%,52.57800117743009%)" points="465.13895848027033,292.3007933662906 465.13895848027033,283.8593522942458 491.66920184955393,276.2007307187847 491.66920184955393,284.6421717908295" />
  <polygon fill="hsl(324.0,50.0%,52.57800117743009%)" points="466.3448786334196,338.1796134078244 466.3448786334196,283.51123313172485 490.4632816964047,276.54884988130567 490.4632816964047,331.2172301574052" />
  <polygon fill="hsl(324.0,50.0%,52.57800117743009%)" points="472.37447939916586,279.0372183053151 472.37447939916586,254.4364471810703 484.4336809306584,250.9552555558607 484.43368093065845,275.55602668010545" />
  <polygon fill="hsl(324.0,50.0%,52.57800117743009%)" points="474.7863197054644,281.07439899407814 474.7863197054644,253.74020885602837 482.02184062435987,251.65149388090262 482.02184062435987,278.9856840189524" />
  <polygon fill="hsl(324.0,50.0%,46.24652422154656%)" points="346.11254137144505,454.70365550674023 346.11254137144505,399.48859142787967 355.7599025966391,396.703638127712 355.7599025966391,451.91870220657256" />
  <polygon fill="hsl(324.0,50.0%,46.24652422154656%)" points="370.23094443443017,447.74127225632105 370.23094443443017,392.5262081774605 360.5835832092361,395.31116147762816 360.5835832092361,450.5262255564887" />
  <polygon fill="hsl(324.0,50.0%,46.24652422154656%)" points="336.465180146251,402.8202285308083 336.465180146251,348.1518482547088 344.9066212182958,345.7150141170621 344.9066212182958,400.3833943931616" />
  <polygon fill="hsl(324.0,50.0%,46.24652422154656%)" points="371.4368645875794,392.72477281770057 371.4368645875794,338.056392541601 379.8783056596242,335.6195584039543 379.8783056596242,390.2879386800538" />
  <polygon fill="hsl(324.0,50.0%,46.24652422154656%)" points="344.9066212182958,354.15645518910685 344.9066212182958,345.7150141170621 371.4368645875794,338.056392541601 371.4368645875794,346.49783361364575" />
  <polygon fill="hsl(324.0,50.0%,46.24652422154656%)" points="346.11254137144505,400.03527523064065 346.11254137144505,345.3668949545411 370.23094443443017,338.40451170412194 370.23094443443017,393.07289198022147" />
  <polygon fill="hsl(324.0,50.0%,46.24652422154656%)" points="352.14214213719134,340.89288012813137 352.14214213719134,316.2921090038866 364.2013436686839,312.810917378677 364.2013436686839,337.4116885029218" />
  <polygon fill="hsl(324.0,50.0%,46.24652422154656%)" points="354.5539824434899,342.9300608168944 354.5539824434899,315.5958706788447 361.78950336238535,313.5071557037189 361.78950336238535,340.84134584176866" />
</svg>
