<?xml version="1.0" encoding="UTF-8"?>
<svg
  xmlns="http://www.w3.org/2000/svg"
  width="848"
  height="600"
  style="background-color:white"
>
  <polygon fill="lightblue" points="329.51797863714626,526.2630646002774 167.32592542185563,385.80062622387817 518.4820213628537,284.4305929643215 680.6740745781444,424.8930313407207" />
  <polygon fill="steelblue" points="167.32592542185563,385.80062622387817 167.32592542185563,175.1069686592793 518.4820213628537,73.7369353997226 518.4820213628537,284.4305929643215" />
  <polygon fill="lightskyblue" points="680.6740745781444,424.8930313407207 680.6740745781444,214.19937377612183 518.4820213628537,73.7369353997226 518.4820213628537,284.4305929643215" />
  <polygon fill="white" points="584.7104430924308,341.78608863468446 584.7104430924308,201.32365025828523 560.3816351101372,180.25428450182534 560.3816351101372,320.7167228782246" />
  <polygon fill="white" points="638.774460830861,388.60690142681756 638.774460830861,248.14446305041832 614.4456528485673,227.07509729395844 614.4456528485673,367.53753567035767" />
  <polygon fill="grey" points="503.64041842066524,150.59359695446793 503.64041842066524,115.4779873603681 538.7560280147651,105.34098403441243 538.7560280147651,140.45659362851225" />
  <polygon fill="lightgrey" points="503.64041842066524,150.59359695446793 503.64041842066524,115.4779873603681 483.3664117687539,97.92018256331818 483.3664117687539,133.035792157418" />
  <polygon fill="darkgrey" points="503.64041842066524,115.4779873603681 483.3664117687539,97.92018256331818 518.4820213628537,87.7831792373625 538.7560280147651,105.34098403441243" />
  <polygon fill="hsl(324.0,50.0%,68.65222276527638%)" points="445.9965323476441,360.345873620966 445.9965323476441,312.1110722825105 454.4242786502281,309.6781914842812 454.4242786502281,357.91299282273667" />
  <polygon fill="hsl(324.0,50.0%,68.65222276527638%)" points="467.065898104104,354.26367162539265 467.065898104104,306.02887028693715 458.63815180152005,308.4617510851665 458.63815180152005,356.696552423622" />
  <polygon fill="hsl(324.0,50.0%,68.65222276527638%)" points="437.56878604506016,315.02152537121964 437.56878604506016,267.2642963232439 444.9430640598211,265.1355256247932 444.9430640598211,312.89275467276894" />
  <polygon fill="hsl(324.0,50.0%,68.65222276527638%)" points="468.119366391927,306.2023324776382 468.119366391927,258.4451034296625 475.49364440668796,256.3163327312118 475.49364440668796,304.0735617791875" />
  <polygon fill="hsl(324.0,50.0%,68.65222276527638%)" points="444.9430640598211,272.50980363955415 444.9430640598211,265.1355256247932 468.119366391927,258.4451034296625 468.119366391927,265.8193814444234" />
  <polygon fill="hsl(324.0,50.0%,68.65222276527638%)" points="445.9965323476441,312.5886445729903 445.9965323476441,264.83141552501456 467.065898104104,258.74921352944114 467.065898104104,306.50644257741686" />
  <polygon fill="hsl(324.0,50.0%,68.65222276527638%)" points="451.26387378675906,260.92300357372244 451.26387378675906,239.43225050213334 461.79855666498906,236.39114950434663 461.79855666498906,257.8819025759357" />
  <polygon fill="hsl(324.0,50.0%,68.65222276527638%)" points="453.37081036240505,262.70264482656387 453.37081036240505,238.82403030257598 459.691620089343,236.99936970390397 459.691620089343,260.87798422789183" />
  <polygon fill="hsl(324.0,50.0%,52.57800117743009%)" points="460.9916587557849,416.225803066335 460.9916587557849,367.9910017278795 469.41940505836885,365.55812092965016 469.41940505836885,413.79292226810566" />
  <polygon fill="hsl(324.0,50.0%,52.57800117743009%)" points="482.0610245122447,410.14360107076163 482.0610245122447,361.9087997323061 473.6332782096608,364.3416805305354 473.6332782096608,412.576481868991" />
  <polygon fill="hsl(324.0,50.0%,52.57800117743009%)" points="452.5639124532009,370.9014548165886 452.5639124532009,323.14422576861284 459.9381904679619,321.0154550701622 459.9381904679619,368.77268411813793" />
  <polygon fill="hsl(324.0,50.0%,52.57800117743009%)" points="483.11449280006775,362.0822619230072 483.11449280006775,314.3250328750314 490.4887708148287,312.1962621765807 490.4887708148287,359.9534912245565" />
  <polygon fill="hsl(324.0,50.0%,52.57800117743009%)" points="459.9381904679619,328.38973308492314 459.9381904679619,321.0154550701622 483.11449280006775,314.3250328750314 483.11449280006775,321.6993108897924" />
  <polygon fill="hsl(324.0,50.0%,52.57800117743009%)" points="460.9916587557849,368.4685740183593 460.99165875578484,320.7113449703835 482.0610245122447,314.6291429748101 482.0610245122447,362.38637202278585" />
  <polygon fill="hsl(324.0,50.0%,52.57800117743009%)" points="466.25900019489984,316.80293301909137 466.25900019489984,295.3121799475023 476.7936830731298,292.2710789497156 476.7936830731298,313.76183202130466" />
  <polygon fill="hsl(324.0,50.0%,52.57800117743009%)" points="468.36593677054583,318.5825742719328 468.36593677054583,294.70395974794496 474.6867464974838,292.8792991492729 474.6867464974838,316.7579136732608" />
  <polygon fill="hsl(324.0,50.0%,46.24652422154656%)" points="355.95903769413775,470.2617008680822 355.95903769413775,422.0268995296267 364.3867839967217,419.5940187313973 364.3867839967217,467.8288200698528" />
  <polygon fill="hsl(324.0,50.0%,46.24652422154656%)" points="377.02840345059764,464.1794988725088 377.02840345059764,415.94469753405326 368.6006571480137,418.3775783322826 368.6006571480137,466.61237967073816" />
  <polygon fill="hsl(324.0,50.0%,46.24652422154656%)" points="347.5312913915538,424.9373526183358 347.5312913915538,377.18012357036 354.9055694063147,375.05135287190933 354.9055694063147,422.8085819198851" />
  <polygon fill="hsl(324.0,50.0%,46.24652422154656%)" points="378.0818717384206,416.1181597247544 378.0818717384206,368.3609306767786 385.45614975318153,366.2321599783279 385.45614975318153,413.9893890263037" />
  <polygon fill="hsl(324.0,50.0%,46.24652422154656%)" points="354.9055694063147,382.4256308866703 354.9055694063147,375.05135287190933 378.0818717384206,368.3609306767786 378.0818717384206,375.7352086915396" />
  <polygon fill="hsl(324.0,50.0%,46.24652422154656%)" points="355.95903769413775,422.5044718201064 355.95903769413775,374.7472427721307 377.02840345059764,368.66504077655725 377.02840345059764,416.42226982453303" />
  <polygon fill="hsl(324.0,50.0%,46.24652422154656%)" points="361.2263791332527,370.83883082083855 361.2263791332527,349.34807774924946 371.76106201148264,346.3069767514628 371.76106201148264,367.79772982305184" />
  <polygon fill="hsl(324.0,50.0%,46.24652422154656%)" points="363.3333157088987,372.61847207368 363.3333157088987,348.73985754969215 369.65412543583665,346.9151969510201 369.65412543583665,370.79381147500794" />
</svg>
