<?xml version="1.0" encoding="UTF-8"?>
<svg
  xmlns="http://www.w3.org/2000/svg"
  width="848"
  height="600"
  style="background-color:white"
>
  <polygon fill="lightblue" points="334.7200843362426,513.8051984277098 181.458197857532,381.07651130521964 513.2799156637574,285.28783225602547 666.541802142468,418.0165193785156" />
  <polygon fill="steelblue" points="181.458197857532,381.07651130521964 181.458197857532,181.98348062148438 513.2799156637574,86.19480157229023 513.2799156637574,285.28783225602547" />
  <polygon fill="lightskyblue" points="666.541802142468,418.0165193785156 666.541802142468,218.92348869478036 513.2799156637574,86.19480157229023 513.2799156637574,285.28783225602547" />
  <polygon fill="white" points="575.8618526425641,339.4853794977089 575.8618526425641,206.75669237521876 552.8725696707576,186.84738930684526 552.8725696707576,319.5760764293354" />
  <polygon fill="white" points="626.9491481354678,383.72827520520565 626.9491481354678,250.9995880827155 603.9598651636611,231.09028501434196 603.9598651636611,363.81897213683214" />
  <polygon fill="white" points="275.47435123596256,300.84491072561855 275.47435123596256,247.75343587662246 308.6565230165851,238.17456797170306 308.6565230165851,291.2660428206991" />
  <polygon fill="white" points="386.0815905047043,268.9153510425538 386.0815905047043,215.82387619355774 419.2637622853269,206.24500828863833 419.2637622853269,259.3364831376344" />
  <polygon fill="hsl(288.0,50.0%,68.65222276527638%)" points="444.78542059711776,357.02327733701316 444.7854205971177,311.44424617915 452.74914182446713,309.14531788196933 452.7491418244672,354.7243490398325" />
  <polygon fill="hsl(288.0,50.0%,68.65222276527638%)" points="464.69472366549127,351.27595659406154 464.69472366549127,305.6969254361984 456.73100243814184,307.995853733379 456.73100243814184,353.57488489124216" />
  <polygon fill="hsl(288.0,50.0%,68.65222276527638%)" points="436.82169936976834,314.1944520125471 436.82169936976834,269.0666983909005 443.78995544369906,267.0551361308674 443.78995544369906,312.1828897525141" />
  <polygon fill="hsl(288.0,50.0%,68.65222276527638%)" points="465.6901888189099,305.86083693526723 465.6901888189099,260.7330833136206 472.65844489284063,258.72152105358754 472.65844489284063,303.8492746752342" />
  <polygon fill="hsl(288.0,50.0%,68.65222276527638%)" points="443.78995544369906,274.02339220479814 443.78995544369906,267.0551361308674 465.6901888189099,260.7330833136206 465.6901888189099,267.70133938755134" />
  <polygon fill="hsl(288.0,50.0%,68.65222276527638%)" points="444.7854205971177,311.8955237153665 444.7854205971177,266.76777009371983 464.69472366549127,261.0204493507682 464.69472366549127,306.1482029724148" />
  <polygon fill="hsl(288.0,50.0%,68.65222276527638%)" points="449.7627463642111,263.0745522268996 449.7627463642111,242.7670630971586 459.7173978983979,239.8934027256828 459.7173978983979,260.2008918554238" />
  <polygon fill="hsl(288.0,50.0%,68.65222276527638%)" points="451.7536766710485,264.75620783368674 451.7536766710485,242.19233102286344 457.7264675915605,240.46813479997795 457.7264675915605,263.03201161080125" />
  <polygon fill="hsl(288.0,50.0%,52.57800117743009%)" points="458.95492715270603,409.8265018681587 458.95492715270603,364.24747071029554 466.9186483800554,361.94854241311486 466.9186483800554,407.527573570978" />
  <polygon fill="hsl(288.0,50.0%,52.57800117743009%)" points="478.86423022107954,404.079181125207 478.86423022107954,358.50014996734393 470.9005089937301,360.79907826452455 470.9005089937301,406.3781094223877" />
  <polygon fill="hsl(288.0,50.0%,52.57800117743009%)" points="450.9912059253566,366.9976765436927 450.9912059253566,321.86992292204604 457.9594619992873,319.85836066201296 457.9594619992873,364.9861142836596" />
  <polygon fill="hsl(288.0,50.0%,52.57800117743009%)" points="479.8596953744982,358.6640614664128 479.8596953744982,313.53630784476616 486.82795144842896,311.52474558473307 486.82795144842896,356.65249920637973" />
  <polygon fill="hsl(288.0,50.0%,52.57800117743009%)" points="457.9594619992873,326.8266167359437 457.9594619992873,319.85836066201296 479.8596953744982,313.53630784476616 479.8596953744982,320.5045639186969" />
  <polygon fill="hsl(288.0,50.0%,52.57800117743009%)" points="458.95492715270603,364.698748246512 458.954927152706,319.57099462486536 478.86423022107954,313.8236738819137 478.86423022107954,358.95142750356035" />
  <polygon fill="hsl(288.0,50.0%,52.57800117743009%)" points="463.93225291979934,315.8777767580451 463.93225291979934,295.57028762830413 473.8869044539862,292.6966272568283 473.8869044539862,313.0041163865693" />
  <polygon fill="hsl(288.0,50.0%,52.57800117743009%)" points="465.92318322663675,317.5594323648323 465.92318322663675,294.995555554009 471.89597414714876,293.2713593311235 471.89597414714876,315.8352361419468" />
  <polygon fill="hsl(288.0,50.0%,46.24652422154656%)" points="359.7053195018054,460.88722568595074 359.7053195018054,415.3081945280876 367.6690407291548,413.0092662309069 367.6690407291548,458.58829738877" />
  <polygon fill="hsl(288.0,50.0%,46.24652422154656%)" points="379.6146225701789,455.13990494299907 379.6146225701789,409.5608737851359 371.6509013428295,411.8598020823166 371.6509013428295,457.43883324017975" />
  <polygon fill="hsl(288.0,50.0%,46.24652422154656%)" points="351.741598274456,418.0584003614847 351.741598274456,372.93064673983804 358.7098543483867,370.91908447980495 358.7098543483867,416.0468381014516" />
  <polygon fill="hsl(288.0,50.0%,46.24652422154656%)" points="380.6100877235976,409.7247852842048 380.6100877235976,364.59703166255815 387.5783437975283,362.58546940252506 387.5783437975283,407.7132230241717" />
  <polygon fill="hsl(288.0,50.0%,46.24652422154656%)" points="358.7098543483867,377.8873405537357 358.7098543483867,370.91908447980495 380.6100877235976,364.59703166255815 380.6100877235976,371.5652877364889" />
  <polygon fill="hsl(288.0,50.0%,46.24652422154656%)" points="359.7053195018054,415.759472064304 359.7053195018054,370.6317184426574 379.6146225701789,364.88439769970574 379.6146225701789,410.0121513213524" />
  <polygon fill="hsl(288.0,50.0%,46.24652422154656%)" points="364.6826452688988,366.9385005758371 364.6826452688988,346.6310114460962 374.6372968030855,343.7573510746204 374.6372968030855,364.0648402043613" />
  <polygon fill="hsl(288.0,50.0%,46.24652422154656%)" points="366.6735755757361,368.6201561826243 366.6735755757361,346.056279371801 372.64636649624816,344.3320831489155 372.64636649624816,366.89595995973883" />
</svg>
