<?xml version="1.0" encoding="UTF-8"?>
<svg
  xmlns="http://www.w3.org/2000/svg"
  width="848"
  height="600"
  style="background-color:white"
>
  <polygon fill="lightblue" points="361.41053636559843,535.2641379256248 190.41294169792874,387.17587695738837 486.58946363440157,301.6770796235535 657.5870583020712,449.76534059178994" />
  <polygon fill="steelblue" points="190.41294169792874,387.17587695738837 190.41294169792874,150.2346594082101 486.58946363440157,64.7358620743752 486.58946363440157,301.6770796235535" />
  <polygon fill="lightskyblue" points="657.5870583020712,449.76534059178994 657.5870583020712,212.82412304261163 486.58946363440157,64.7358620743752 486.58946363440157,301.6770796235535" />
  <polygon fill="white" points="553.8485175370183,359.92512893772647 553.8485175370183,247.37805060186682 533.328806176898,229.60745928567843 533.328806176898,342.1545376215381" />
  <polygon fill="white" points="610.8477157595748,409.2878825938053 610.8477157595748,296.7408042579456 590.3280043994545,278.97021294175727 590.3280043994545,391.5172912776169" />
  <polygon fill="white" points="274.3296229132627,315.56297420296613 274.3296229132627,268.1747306931305 303.94727510691,259.624850959747 303.94727510691,307.01309446958265" />
  <polygon fill="white" points="373.0551302254203,287.0633750916879 373.0551302254203,239.6751315818522 402.67278241906763,231.1252518484687 402.67278241906763,278.51349535830434" />
  <polygon fill="hsl(360.0,50.0%,51.426934746249444%)" points="463.073156979708,434.4646680928207 463.073156979708,393.78186103962673 470.1813935061833,391.7298899036147 470.1813935061834,432.41269695680865" />
  <polygon fill="hsl(360.0,50.0%,51.426934746249444%)" points="480.8437482958964,429.3347402527906 480.8437482958964,388.65193319959667 473.735511769421,390.70390433560874 473.735511769421,431.3867113888026" />
  <polygon fill="hsl(360.0,50.0%,51.426934746249444%)" points="455.96492045323265,396.2366322454724 455.96492045323265,355.9566252621121 462.18462741389857,354.1611505181016 462.18462741389857,394.4411575014619" />
  <polygon fill="hsl(360.0,50.0%,51.426934746249444%)" points="481.73227786170577,388.7982368774288 481.73227786170577,348.5182298940685 487.95198482237174,346.72275515005794 487.95198482237174,387.00276213341823" />
  <polygon fill="hsl(360.0,50.0%,51.426934746249444%)" points="462.18462741389857,360.3808574787675 462.18462741389857,354.1611505181016 481.73227786170577,348.5182298940685 481.73227786170577,354.7379368547344" />
  <polygon fill="hsl(360.0,50.0%,51.426934746249444%)" points="463.073156979708,394.18466110946036 463.073156979708,353.90465412610007 480.8437482958964,348.77472628607 480.8437482958964,389.05473326943024" />
  <polygon fill="hsl(360.0,50.0%,51.426934746249444%)" points="467.5158048087551,350.60817181692454 467.5158048087551,332.48216867441243 476.4011004668493,329.91720475439735 476.4011004668493,348.0432078969095" />
  <polygon fill="hsl(360.0,50.0%,51.426934746249444%)" points="469.29286394037393,352.10917938208956 469.29286394037393,331.9691758904094 474.62404133523046,330.43019753840036 474.62404133523046,350.5702010300805" />
</svg>
