<?xml version="1.0" encoding="UTF-8"?>
<svg
  xmlns="http://www.w3.org/2000/svg"
  width="848"
  height="600"
  style="background-color:white"
>
  <polygon fill="lightblue" points="385.1771432346219,482.67147539692314 279.11112605663976,390.81561004255394 462.8228567653781,337.7826014535629 568.8888739433603,429.6384668079321" />
  <polygon fill="steelblue" points="279.11112605663976,390.81561004255394 279.11112605663976,170.36153319206792 462.8228567653781,117.32852460307683 462.8228567653781,337.7826014535629" />
  <polygon fill="lightskyblue" points="568.8888739433603,429.6384668079321 568.8888739433603,209.18438995744606 462.8228567653781,117.32852460307683 462.8228567653781,337.7826014535629" />
  <polygon fill="white" points="522.2198263850481,389.2218860520096 522.2198263850481,315.73719376851426 509.4919043236903,304.71448992599 509.4919043236903,378.19918220948534" />
  <polygon fill="white" points="300.5441613059926,355.2345487937735 300.5441613059926,325.8406718803754 318.91533437686644,320.5373710214763 318.91533437686644,349.9312479348744" />
  <polygon fill="white" points="331.1627830907823,346.3957140289417 331.1627830907823,317.00183711554354 349.53395616165614,311.69853625664445 349.53395616165614,341.09241317004256" />
  <polygon fill="white" points="361.78140487557204,337.55687926410985 361.78140487557204,308.1630023507117 380.15257794644583,302.8597014918126 380.15257794644583,332.25357840521076" />
  <polygon fill="white" points="392.40002666036173,328.718044499278 392.40002666036173,299.3241675858798 410.7711997312356,294.0208667269807 410.7711997312356,323.4147436403789" />
  <polygon fill="white" points="423.0186484451515,319.87920973444614 423.0186484451515,290.485332821048 441.38982151602534,285.18203196214887 441.38982151602534,314.57590887554704" />
</svg>
