<?xml version="1.0" encoding="UTF-8"?>
<svg
  xmlns="http://www.w3.org/2000/svg"
  width="848"
  height="600"
  style="background-color:white"
>
  <polygon fill="lightblue" points="364.85666294904087,522.3106797433991 203.27406119664957,382.3760418162443 483.14333705095913,301.5847409400486 644.7259388033505,441.5193788672034" />
  <polygon fill="steelblue" points="203.27406119664957,382.3760418162443 203.27406119664957,158.48062113279659 483.14333705095913,77.6893202566009 483.14333705095913,301.5847409400486" />
  <polygon fill="lightskyblue" points="644.7259388033505,441.5193788672034 644.7259388033505,217.62395818375572 483.14333705095913,77.6893202566009 483.14333705095913,301.5847409400486" />
  <polygon fill="white" points="546.6991604068998,356.6256985247295 546.6991604068998,244.67798818300565 527.3092481966128,227.8858316317471 527.3092481966128,339.8335419734709" />
  <polygon fill="white" points="600.5600276576968,403.2705778337811 600.5600276576968,291.32286749205724 581.1701154474099,274.53071094079866 581.1701154474099,386.4784212825225" />
  <polygon fill="white" points="282.5703560220373,314.70608909796596 282.5703560220373,269.9270049612764 310.5572836074682,261.84787487365685 310.5572836074682,306.62695901034635" />
  <polygon fill="white" points="375.8601146401405,287.7756554725674 375.86011464014047,242.99657133587786 403.84704222557144,234.91744124825829 403.84704222557144,279.69652538494785" />
  <polygon fill="hsl(324.0,50.0%,70.71600065166498%)" points="428.192278680776,364.53046192227447 428.192278680776,326.0876181909265 434.9091413012795,324.1486269698978 434.9091413012795,362.5914707012457" />
  <polygon fill="hsl(324.0,50.0%,70.71600065166498%)" points="444.98443523203457,359.6829838697027 444.98443523203457,321.2401401383547 438.26757261153114,323.17913135938346 438.26757261153114,361.62197509073144" />
  <polygon fill="hsl(324.0,50.0%,70.71600065166498%)" points="421.47541606027255,328.407231627117 421.47541606027255,290.34501011093096 427.35267085321306,288.64839279253084 427.35267085321306,326.7106143087169" />
  <polygon fill="hsl(324.0,50.0%,70.71600065166498%)" points="445.8240430595975,321.378388450888 445.8240430595975,283.3161669347019 451.701297852538,281.6195496163018 451.701297852538,319.6817711324879" />
  <polygon fill="hsl(324.0,50.0%,70.71600065166498%)" points="427.35267085321306,294.52564758547135 427.35267085321306,288.64839279253084 445.8240430595975,283.3161669347019 445.8240430595975,289.19342172764243" />
  <polygon fill="hsl(324.0,50.0%,70.71600065166498%)" points="428.192278680776,326.46824040608834 428.192278680776,288.4060188899022 444.98443523203457,283.5585408373305 444.98443523203457,321.6207623535166" />
  <polygon fill="hsl(324.0,50.0%,70.71600065166498%)" points="432.39031781859063,285.29103830095 432.39031781859063,268.16303861866623 440.7863960942199,265.7392995923804 440.7863960942199,282.8672992746641" />
  <polygon fill="hsl(324.0,50.0%,70.71600065166498%)" points="434.0695334737165,286.7094015715021 434.0695334737165,267.6782908134091 439.10718043909407,266.22404739763755 439.10718043909407,285.2551581557306" />
  <polygon fill="hsl(324.0,50.0%,70.0415638934771%)" points="359.5674875047431,386.85745444653764 359.5674875047431,348.41461071518967 366.28435012524653,346.475619494161 366.28435012524653,384.91846322550896" />
  <polygon fill="hsl(324.0,50.0%,70.0415638934771%)" points="376.3596440560016,382.00997639396587 376.3596440560016,343.56713266261795 369.6427814354982,345.50612388364664 369.6427814354982,383.9489676149946" />
  <polygon fill="hsl(324.0,50.0%,70.0415638934771%)" points="352.85062488423966,350.7342241513802 352.85062488423966,312.67200263519413 358.7278796771801,310.975385316794 358.7278796771801,349.0376068329801" />
  <polygon fill="hsl(324.0,50.0%,70.0415638934771%)" points="377.19925188356456,343.7053809751512 377.19925188356456,305.6431594589651 383.07650667650506,303.946542140565 383.07650667650506,342.00876365675106" />
  <polygon fill="hsl(324.0,50.0%,70.0415638934771%)" points="358.7278796771801,316.8526401097345 358.7278796771801,310.975385316794 377.19925188356456,305.6431594589651 377.19925188356456,311.5204142519056" />
  <polygon fill="hsl(324.0,50.0%,70.0415638934771%)" points="359.5674875047431,348.7952329303515 359.5674875047431,310.7330114141654 376.3596440560016,305.8855333615937 376.3596440560016,343.9477548777798" />
  <polygon fill="hsl(324.0,50.0%,70.0415638934771%)" points="363.7655266425577,307.61803082521317 363.7655266425577,290.49003114292947 372.16160491818704,288.0662921166436 372.16160491818704,305.1942917989273" />
  <polygon fill="hsl(324.0,50.0%,70.0415638934771%)" points="365.4447422976836,309.03639409576533 365.44474229768355,290.00528333767227 370.4823892630611,288.5510399219007 370.4823892630611,307.5821506799938" />
  <polygon fill="hsl(324.0,50.0%,56.01394996926309%)" points="389.4666687984059,430.5716129414295 389.4666687984059,392.1287692100816 396.18353141890935,390.1897779890529 396.18353141890935,428.63262172040083" />
  <polygon fill="hsl(324.0,50.0%,56.01394996926309%)" points="406.2588253496645,425.72413488885786 406.2588253496645,387.2812911575098 399.54196272916107,389.22028237853857 399.54196272916107,427.66312610988655" />
  <polygon fill="hsl(324.0,50.0%,56.01394996926309%)" points="382.7498061779025,394.44838264627214 382.7498061779025,356.38616113008607 388.627060970843,354.68954381168595 388.627060970843,392.751765327872" />
  <polygon fill="hsl(324.0,50.0%,56.01394996926309%)" points="407.09843317722743,387.4195394700431 407.09843317722743,349.35731795385703 412.97568797016794,347.6607006354569 412.97568797016794,385.72292215164305" />
  <polygon fill="hsl(324.0,50.0%,56.01394996926309%)" points="388.627060970843,360.56679860462646 388.627060970843,354.68954381168595 407.09843317722743,349.35731795385703 407.09843317722743,355.23457274679754" />
  <polygon fill="hsl(324.0,50.0%,56.01394996926309%)" points="389.4666687984059,392.50939142524345 389.4666687984059,354.4471699090573 406.2588253496645,349.5996918564856 406.2588253496645,387.66191337267173" />
  <polygon fill="hsl(324.0,50.0%,56.01394996926309%)" points="393.66470793622057,351.3321893201051 393.66470793622057,334.2041896378214 402.06078621184986,331.7804506115355 402.06078621184986,348.9084502938192" />
  <polygon fill="hsl(324.0,50.0%,56.01394996926309%)" points="395.3439235913464,352.75055259065726 395.3439235913464,333.7194418325642 400.381570556724,332.26519841679266 400.381570556724,351.2963091748857" />
  <polygon fill="hsl(324.0,50.0%,51.426934746249444%)" points="460.9218197234357,427.06114934795426 460.9218197234357,388.6183056166062 467.63868234393914,386.67931439557753 467.63868234393914,425.1221581269255" />
  <polygon fill="hsl(324.0,50.0%,51.426934746249444%)" points="477.71397627469423,422.2136712953825 477.71397627469423,383.7708275640345 470.9971136541908,385.70981878506325 470.9971136541908,424.15266251641117" />
  <polygon fill="hsl(324.0,50.0%,51.426934746249444%)" points="454.20495710293227,390.9379190527968 454.2049571029322,352.8756975366107 460.0822118958727,351.17908021821063 460.0822118958728,389.2413017343967" />
  <polygon fill="hsl(324.0,50.0%,51.426934746249444%)" points="478.55358410225716,383.9090758765678 478.55358410225716,345.8468543603817 484.43083889519767,344.1502370419816 484.43083889519767,382.21245855816767" />
  <polygon fill="hsl(324.0,50.0%,51.426934746249444%)" points="460.0822118958727,357.05633501115113 460.0822118958727,351.17908021821063 478.55358410225716,345.8468543603817 478.55358410225716,351.72410915332216" />
  <polygon fill="hsl(324.0,50.0%,51.426934746249444%)" points="460.9218197234357,388.9989278317681 460.92181972343565,350.936706315582 477.71397627469423,346.0892282630103 477.71397627469423,384.15144977919635" />
  <polygon fill="hsl(324.0,50.0%,51.426934746249444%)" points="465.1198588612503,347.8217257266298 465.1198588612503,330.693726044346 473.5159371368796,328.2699870180602 473.51593713687964,345.3979867003439" />
  <polygon fill="hsl(324.0,50.0%,51.426934746249444%)" points="466.79907451637615,349.2400889971819 466.79907451637615,330.2089782390889 471.8367214817537,328.75473482331734 471.8367214817537,347.7858455814104" />
  <polygon fill="hsl(324.0,50.0%,43.8291623991892%)" points="385.39591076801946,477.2153752127566 385.39591076801946,438.7725314814086 392.1127733885229,436.8335402603799 392.1127733885229,475.27638399172787" />
  <polygon fill="hsl(324.0,50.0%,43.8291623991892%)" points="402.18806731927805,472.36789716018484 402.18806731927805,433.92505342883686 395.4712046987746,435.86404464986555 395.4712046987746,474.3068883812135" />
  <polygon fill="hsl(324.0,50.0%,43.8291623991892%)" points="378.679048147516,441.09214491759917 378.679048147516,403.02992340141304 384.55630294045653,401.3333060830129 384.55630294045653,439.39552759919906" />
  <polygon fill="hsl(324.0,50.0%,43.8291623991892%)" points="403.0276751468409,434.06330174137014 403.0276751468409,396.001080225184 408.9049299397814,394.30446290678395 408.9049299397815,432.36668442297" />
  <polygon fill="hsl(324.0,50.0%,43.8291623991892%)" points="384.55630294045653,407.21056087595343 384.55630294045653,401.3333060830129 403.0276751468409,396.001080225184 403.0276751468409,401.8783350181245" />
  <polygon fill="hsl(324.0,50.0%,43.8291623991892%)" points="385.39591076801946,439.1531536965705 385.39591076801946,401.09093218038436 402.18806731927805,396.2434541278126 402.18806731927805,434.3056756439987" />
  <polygon fill="hsl(324.0,50.0%,43.8291623991892%)" points="389.5939499058341,397.97595159143214 389.5939499058341,380.8479519091484 397.9900281814634,378.4242128828625 397.9900281814634,395.55221256514625" />
  <polygon fill="hsl(324.0,50.0%,43.8291623991892%)" points="391.27316556095997,399.39431486198424 391.27316556095997,380.3632041038912 396.31081252633754,378.9089606881197 396.31081252633754,397.94007144621276" />
</svg>
