<?xml version="1.0" encoding="UTF-8"?>
<svg
  xmlns="http://www.w3.org/2000/svg"
  width="848"
  height="600"
  style="background-color:white"
>
  <polygon fill="lightblue" points="355.11138151062335,526.3432449592789 166.90417573441766,363.3510235817994 492.88861848937665,269.2474206936965 681.0958242655823,432.23964207117604" />
  <polygon fill="steelblue" points="166.90417573441766,363.3510235817994 166.90417573441766,167.760357928824 492.88861848937665,73.6567550407211 492.88861848937665,269.2474206936965" />
  <polygon fill="lightskyblue" points="681.0958242655823,432.23964207117604 681.0958242655823,236.64897641820062 492.88861848937665,73.6567550407211 492.88861848937665,269.2474206936965" />
  <polygon fill="white" points="598.2846537240519,360.52306466508503 598.2846537240519,236.64897641820062 575.6997890309071,217.08990985290308 575.6997890309071,340.9639980997875" />
  <polygon fill="white" points="232.10106428540942,292.3727921633854 232.10106428540942,240.21528132259192 264.6995085609053,230.80492103378162 264.6995085609053,282.9624318745751" />
  <polygon fill="white" points="313.5971749741492,268.8468914413596 313.5971749741492,216.6893806005662 346.19561924964506,207.27902031175591 346.19561924964506,259.4365311525494" />
  <polygon fill="white" points="395.09328566288895,245.3209907193339 395.09328566288895,193.16347987854047 427.6917299383848,183.7531195897302 427.6917299383848,235.9106304305236" />
  <polygon fill="hsl(288.0,50.0%,70.71600065166498%)" points="428.88305701100853,342.56495694544884 428.8830570110085,297.78773388862766 436.7066836371275,295.5292474193132 436.7066836371275,340.3064704761344" />
  <polygon fill="hsl(288.0,50.0%,70.71600065166498%)" points="448.442123576306,336.91874077216266 448.442123576306,292.1415177153415 440.618496950187,294.400004184656 440.618496950187,339.17722724147717" />
  <polygon fill="hsl(288.0,50.0%,70.71600065166498%)" points="421.0594303848895,300.4895592000889 421.0594303848895,256.15567498541446 427.90510368274363,254.17949932476432 427.90510368274363,298.51338353943873" />
  <polygon fill="hsl(288.0,50.0%,70.71600065166498%)" points="449.4200769045709,292.30254574882395 449.4200769045709,247.96866153414953 456.26575020242507,245.99248587349936 456.26575020242507,290.3263700881738" />
  <polygon fill="hsl(288.0,50.0%,70.71600065166498%)" points="427.90510368274363,261.02517262261847 427.90510368274363,254.17949932476432 449.4200769045709,247.96866153414953 449.4200769045709,254.81433483200365" />
  <polygon fill="hsl(288.0,50.0%,70.71600065166498%)" points="428.8830570110085,298.23107273077443 428.8830570110085,253.8971885161 448.442123576306,248.25097234281384 448.442123576306,292.58485655748825" />
  <polygon fill="hsl(288.0,50.0%,70.71600065166498%)" points="433.7728236523329,250.26894026204474 433.7728236523329,230.31869236544125 443.5523569349817,227.49558427879816 443.5523569349817,247.44583217540165" />
  <polygon fill="hsl(288.0,50.0%,70.71600065166498%)" points="435.7287303088626,251.92101285544985 435.7287303088626,229.75407074811264 441.5964502784519,228.06020589612677 441.5964502784519,250.22714800346398" />
  <polygon fill="hsl(288.0,50.0%,56.01394996926309%)" points="383.77647530669185,419.4879694774937 383.77647530669185,374.71074642067254 391.60010193281084,372.4522599513581 391.60010193281084,417.2294830081792" />
  <polygon fill="hsl(288.0,50.0%,56.01394996926309%)" points="403.3355418719894,413.84175330420754 403.3355418719894,369.06453024738636 395.5119152458704,371.3230167167008 395.5119152458704,416.100239773522" />
  <polygon fill="hsl(288.0,50.0%,56.01394996926309%)" points="375.95284868057286,377.41257173213376 375.95284868057286,333.0786875174593 382.798521978427,331.10251185680914 382.798521978427,375.43639607148356" />
  <polygon fill="hsl(288.0,50.0%,56.01394996926309%)" points="404.3134952002543,369.22555828086877 404.3134952002543,324.89167406619435 411.15916849810844,322.9154984055442 411.15916849810844,367.2493826202186" />
  <polygon fill="hsl(288.0,50.0%,56.01394996926309%)" points="382.798521978427,337.9481851546633 382.798521978427,331.10251185680914 404.3134952002543,324.89167406619435 404.3134952002543,331.7373473640485" />
  <polygon fill="hsl(288.0,50.0%,56.01394996926309%)" points="383.77647530669185,375.15408526281925 383.77647530669185,330.82020104814484 403.3355418719894,325.17398487485866 403.3355418719894,369.5078690895331" />
  <polygon fill="hsl(288.0,50.0%,56.01394996926309%)" points="388.66624194801625,327.19195279408956 388.66624194801625,307.2417048974861 398.445775230665,304.418596810843 398.445775230665,324.3688447074465" />
  <polygon fill="hsl(288.0,50.0%,56.01394996926309%)" points="390.622148604546,328.8440253874947 390.622148604546,306.6770832801575 396.48986857413524,304.9832184281716 396.48986857413524,327.1501605355088" />
  <polygon fill="hsl(288.0,50.0%,51.426934746249444%)" points="467.0055739105451,415.399072920923 467.0055739105451,370.6218498641018 474.8292005366641,368.3633633947873 474.8292005366641,413.1405864516085" />
  <polygon fill="hsl(288.0,50.0%,51.426934746249444%)" points="486.56464047584257,409.75285674763677 486.56464047584257,364.97563369081564 478.7410138497236,367.2341201601301 478.7410138497236,412.0113432169513" />
  <polygon fill="hsl(288.0,50.0%,51.426934746249444%)" points="459.18194728442603,373.32367517556304 459.18194728442603,328.98979096088857 466.0276205822802,327.0136153002384 466.0276205822802,371.34749951491284" />
  <polygon fill="hsl(288.0,50.0%,51.426934746249444%)" points="487.54259380410747,365.13666172429805 487.54259380410747,320.80277750962364 494.3882671019616,318.8266018489735 494.3882671019616,363.1604860636479" />
  <polygon fill="hsl(288.0,50.0%,51.426934746249444%)" points="466.0276205822802,333.8592885980926 466.0276205822802,327.0136153002384 487.54259380410747,320.80277750962364 487.54259380410747,327.6484508074778" />
  <polygon fill="hsl(288.0,50.0%,51.426934746249444%)" points="467.0055739105451,371.06518870624853 467.005573910545,326.7313044915741 486.56464047584257,321.08508831828794 486.56464047584257,365.41897253296236" />
  <polygon fill="hsl(288.0,50.0%,51.426934746249444%)" points="471.8953405518694,323.10305623751884 471.8953405518694,303.1528083409154 481.6748738345182,300.32970025427227 481.6748738345182,320.2799481508758" />
  <polygon fill="hsl(288.0,50.0%,51.426934746249444%)" points="473.8512472083992,324.755128830924 473.8512472083992,302.5881867235868 479.7189671779885,300.89432187160094 479.7189671779885,323.0612639789381" />
  <polygon fill="hsl(288.0,50.0%,43.8291623991892%)" points="379.0349623840065,473.81740884020746 379.0349623840065,429.0401857833863 386.8585890101255,426.7816993140718 386.8585890101255,471.5589223708929" />
  <polygon fill="hsl(288.0,50.0%,43.8291623991892%)" points="398.59402894930406,468.17119266692123 398.59402894930406,423.39396961010004 390.770402323185,425.65245607941455 390.770402323185,470.42967913623573" />
  <polygon fill="hsl(288.0,50.0%,43.8291623991892%)" points="371.21133575788747,431.74201109484744 371.21133575788747,387.40812688017303 378.0570090557416,385.4319512195229 378.0570090557416,429.7658354341973" />
  <polygon fill="hsl(288.0,50.0%,43.8291623991892%)" points="399.5719822775689,423.5549976435825 399.5719822775689,379.2211134289081 406.41765557542305,377.24493776825796 406.41765557542305,421.57882198293237" />
  <polygon fill="hsl(288.0,50.0%,43.8291623991892%)" points="378.0570090557416,392.27762451737703 378.0570090557416,385.4319512195229 399.5719822775689,379.2211134289081 399.5719822775689,386.0667867267622" />
  <polygon fill="hsl(288.0,50.0%,43.8291623991892%)" points="379.0349623840065,429.483524625533 379.0349623840065,385.1496404108585 398.59402894930406,379.5034242375724 398.59402894930406,423.8373084522468" />
  <polygon fill="hsl(288.0,50.0%,43.8291623991892%)" points="383.92472902533086,381.5213921568033 383.92472902533086,361.57114426019984 393.70426230797966,358.7480361735567 393.70426230797966,378.6982840701602" />
  <polygon fill="hsl(288.0,50.0%,43.8291623991892%)" points="385.88063568186067,383.1734647502084 385.88063568186067,361.00652264287123 391.7483556514499,359.31265779088534 391.7483556514499,381.47959989822255" />
</svg>
