<?xml version="1.0" encoding="UTF-8"?>
<svg
  xmlns="http://www.w3.org/2000/svg"
  width="848"
  height="600"
  style="background-color:white"
>
  <polygon fill="lightblue" points="372.33353613296754,543.103933339325 231.17813180081325,420.8597673062153 475.66646386703246,350.2820651401381 616.8218681991867,472.52623117324777" />
  <polygon fill="steelblue" points="231.17813180081325,420.8597673062153 231.17813180081325,127.47376882675223 475.66646386703246,56.89606666067505 475.66646386703246,350.2820651401381" />
  <polygon fill="lightskyblue" points="616.8218681991867,472.52623117324777 616.8218681991867,179.1402326937847 475.66646386703246,56.89606666067505 475.66646386703246,350.2820651401381" />
  <polygon fill="white" points="554.7134902930388,418.73879811867954 554.7134902930388,320.94346529219183 537.7748417731804,306.2741653682187 537.7748417731804,404.0694981947064" />
  <polygon fill="white" points="267.8513816107461,371.1549788507087 267.8513816107461,332.03684572011355 292.30021481736804,324.97907550350584 292.3002148173681,364.097208634101" />
  <polygon fill="white" points="316.74904802399,357.0394384174932 316.74904802399,317.92130528689813 341.19788123061187,310.8635350702904 341.19788123061187,349.9816682008855" />
  <polygon fill="white" points="365.6467144372338,342.9238979842778 365.6467144372338,303.8057648536827 390.09554764385575,296.747994637075 390.09554764385575,335.8661277676701" />
  <polygon fill="white" points="414.5443808504777,328.80835755106233 414.54438085047764,289.69022442046725 438.9932140570996,282.63245420385954 438.9932140570996,321.7505873344546" />
</svg>
