<?xml version="1.0" encoding="UTF-8"?>
<svg
  xmlns="http://www.w3.org/2000/svg"
  width="848"
  height="600"
  style="background-color:white"
>
  <polygon fill="lightblue" points="369.0961894323342,532.3557158514986 219.09618943233423,402.45190528383284 478.9038105676658,327.45190528383284 628.9038105676658,457.35571585149864" />
  <polygon fill="steelblue" points="219.09618943233423,402.45190528383284 219.09618943233423,142.64428414850133 478.9038105676658,67.6442841485013 478.9038105676658,327.45190528383284" />
  <polygon fill="lightskyblue" points="628.9038105676658,457.35571585149864 628.9038105676658,197.54809471616713 478.9038105676658,67.6442841485013 478.9038105676658,327.45190528383284" />
  <polygon fill="white" points="562.9038105676658,400.1980392017257 562.9038105676658,296.2749907475931 544.9038105676658,280.6865334794732 544.9038105676658,384.6095819336058" />
  <polygon fill="white" points="258.067332602634,349.63268590217984 258.067332602634,308.0634665205268 284.0480947161671,300.5634665205268 284.0480947161671,342.13268590217984" />
  <polygon fill="white" points="310.02885682970026,334.63268590217984 310.02885682970026,293.0634665205268 336.0096189432334,285.5634665205268 336.0096189432334,327.13268590217984" />
  <polygon fill="white" points="361.9903810567666,319.63268590217984 361.9903810567666,278.0634665205268 387.97114317029974,270.5634665205268 387.97114317029974,312.13268590217984" />
  <polygon fill="white" points="413.9519052838329,304.63268590217984 413.9519052838329,263.0634665205268 439.93266739736606,255.56346652052676 439.93266739736606,297.13268590217984" />
  <polygon fill="hsl(360.0,50.0%,70.71600065166498%)" points="427.89176678241654,385.88553641079386 427.89176678241654,350.19836157164474 434.1271496896645,348.3983615716447 434.1271496896645,384.0855364107939" />
  <polygon fill="hsl(360.0,50.0%,70.71600065166498%)" points="443.48022405053644,381.38553641079386 443.48022405053644,345.69836157164474 437.2448411432885,347.49836157164475 437.2448411432885,383.18553641079393" />
  <polygon fill="hsl(360.0,50.0%,70.71600065166498%)" points="421.6563838751686,352.3516999363888 421.6563838751686,317.0178634619837 427.1123439190106,315.44286346198373 427.1123439190106,350.7766999363888" />
  <polygon fill="hsl(360.0,50.0%,70.71600065166498%)" points="444.25964691394245,345.8266999363888 444.25964691394245,310.4928634619837 449.7156069577844,308.9178634619837 449.7156069577844,344.2516999363888" />
  <polygon fill="hsl(360.0,50.0%,70.71600065166498%)" points="427.1123439190106,320.89882350582565 427.1123439190106,315.44286346198373 444.25964691394245,310.4928634619837 444.25964691394245,315.94882350582566" />
  <polygon fill="hsl(360.0,50.0%,70.71600065166498%)" points="427.89176678241654,350.5516999363888 427.89176678241654,315.2178634619837 443.48022405053644,310.7178634619837 443.48022405053644,346.0516999363888" />
  <polygon fill="hsl(360.0,50.0%,70.71600065166498%)" points="431.78888109944654,312.3261716382635 431.78888109944654,296.4259452247812 439.5831097335065,294.1759452247812 439.5831097335065,310.0761716382634" />
  <polygon fill="hsl(360.0,50.0%,70.71600065166498%)" points="433.3477268262585,313.6428634619837 433.3477268262585,295.9759452247812 438.02426400669447,294.62594522478116 438.02426400669447,312.2928634619837" />
  <polygon fill="hsl(360.0,50.0%,51.426934746249444%)" points="458.2751812289926,443.9338845134272 458.2751812289926,408.246709674278 464.5105641362406,406.446709674278 464.5105641362406,442.1338845134271" />
  <polygon fill="hsl(360.0,50.0%,51.426934746249444%)" points="473.8636384971125,439.43388451342713 473.8636384971125,403.746709674278 467.6282555898645,405.546709674278 467.6282555898646,441.23388451342714" />
  <polygon fill="hsl(360.0,50.0%,51.426934746249444%)" points="452.0397983217447,410.40004803902207 452.0397983217447,375.066211564617 457.4957583655866,373.49121156461695 457.49575836558665,408.825048039022" />
  <polygon fill="hsl(360.0,50.0%,51.426934746249444%)" points="474.6430613605185,403.87504803902203 474.6430613605185,368.54121156461696 480.0990214043605,366.96621156461697 480.0990214043605,402.30004803902204" />
  <polygon fill="hsl(360.0,50.0%,51.426934746249444%)" points="457.4957583655866,378.9471716084589 457.4957583655866,373.49121156461695 474.6430613605185,368.54121156461696 474.6430613605185,373.9971716084589" />
  <polygon fill="hsl(360.0,50.0%,51.426934746249444%)" points="458.2751812289926,408.60004803902206 458.2751812289926,373.266211564617 473.8636384971125,368.7662115646169 473.8636384971125,404.10004803902206" />
  <polygon fill="hsl(360.0,50.0%,51.426934746249444%)" points="462.1722955460226,370.37451974089674 462.1722955460226,354.47429332741444 469.96652418008256,352.22429332741444 469.96652418008256,368.1245197408967" />
  <polygon fill="hsl(360.0,50.0%,51.426934746249444%)" points="463.7311412728346,371.691211564617 463.7311412728346,354.0242933274144 468.40767845327053,352.67429332741443 468.40767845327053,370.34121156461697" />
  <polygon fill="hsl(360.0,50.0%,43.8291623991892%)" points="388.16313809780956,490.49294345993906 388.16313809780956,454.80576862079 394.3985210050575,453.0057686207899 394.39852100505755,488.6929434599391" />
  <polygon fill="hsl(360.0,50.0%,43.8291623991892%)" points="403.75159536592946,485.99294345993906 403.75159536592946,450.30576862078993 397.5162124586815,452.10576862078995 397.5162124586815,487.7929434599391" />
  <polygon fill="hsl(360.0,50.0%,43.8291623991892%)" points="381.9277551905616,456.959106985534 381.9277551905616,421.6252705111289 387.38371523440355,420.05027051112893 387.38371523440355,455.384106985534" />
  <polygon fill="hsl(360.0,50.0%,43.8291623991892%)" points="404.5310182293354,450.43410698553396 404.5310182293354,415.1002705111289 409.9869782731774,413.5252705111289 409.9869782731774,448.859106985534" />
  <polygon fill="hsl(360.0,50.0%,43.8291623991892%)" points="387.38371523440355,425.5062305549709 387.38371523440355,420.05027051112893 404.5310182293354,415.1002705111289 404.5310182293354,420.55623055497085" />
  <polygon fill="hsl(360.0,50.0%,43.8291623991892%)" points="388.16313809780956,455.159106985534 388.16313809780956,419.8252705111289 403.75159536592946,415.3252705111289 403.75159536592946,450.659106985534" />
  <polygon fill="hsl(360.0,50.0%,43.8291623991892%)" points="392.0602524148395,416.93357868740867 392.0602524148395,401.03335227392637 399.85448104889946,398.78335227392637 399.85448104889946,414.68357868740867" />
  <polygon fill="hsl(360.0,50.0%,43.8291623991892%)" points="393.61909814165153,418.2502705111289 393.61909814165153,400.5833522739264 398.2956353220875,399.23335227392636 398.2956353220875,416.9002705111289" />
</svg>
