<?xml version="1.0" encoding="UTF-8"?>
<svg
  xmlns="http://www.w3.org/2000/svg"
  width="848"
  height="600"
  style="background-color:white"
>
  <polygon fill="lightblue" points="381.47169120562074,479.9819635777914 265.28219081939824,379.3589045903009 466.52830879437926,321.2641543971896 582.7178091806018,421.88721338468014" />
  <polygon fill="steelblue" points="265.28219081939824,379.3589045903009 265.28219081939824,178.11278661531986 466.52830879437926,120.01803642220858 466.52830879437926,321.2641543971896" />
  <polygon fill="lightskyblue" points="582.7178091806018,421.88721338468014 582.7178091806018,220.64109540969912 466.52830879437926,120.01803642220858 466.52830879437926,321.2641543971896" />
  <polygon fill="white" points="531.5944290106638,377.6130674301843 531.5944290106638,297.1146202401919 517.6516889643171,285.03985316169303 517.6516889643171,365.53830035168545" />
  <polygon fill="white" points="283.9693303456464,341.76501319637214 283.9693303456464,309.5656343203752 304.09394214314455,303.75615930106403 304.09394214314455,335.95553817706104" />
  <polygon fill="white" points="312.7187757706438,333.46576316878486 312.7187757706438,301.26638429278785 332.84338756814185,295.45690927347675 332.84338756814185,327.6562881494737" />
  <polygon fill="white" points="341.46822119564104,325.1665131411975 341.46822119564104,292.9671342652005 361.59283299313915,287.1576592458894 361.59283299313915,319.3570381218864" />
  <polygon fill="white" points="370.21766662063834,316.8672631136102 370.21766662063834,284.66788423761324 390.34227841813646,278.8584092183021 390.34227841813646,311.05778809429904" />
  <polygon fill="white" points="398.96711204563564,308.56801308602286 398.96711204563564,276.3686342100259 419.09172384313376,270.55915919071475 419.09172384313376,302.75853806671176" />
  <polygon fill="white" points="427.7165574706329,300.2687630584355 427.7165574706329,268.06938418243857 447.841169268131,262.2599091631274 447.841169268131,294.45928803912443" />
</svg>
