<?xml version="1.0" encoding="UTF-8"?>
<svg
  xmlns="http://www.w3.org/2000/svg"
  width="848"
  height="600"
  style="background-color:white"
>
  <polygon fill="lightblue" points="369.0961894323342,480.39419162443244 219.09618943233423,350.4903810567666 478.9038105676658,275.4903810567666 628.9038105676658,405.3941916244324" />
  <polygon fill="steelblue" points="219.09618943233423,350.4903810567666 219.09618943233423,194.60580837556762 478.9038105676658,119.60580837556759 478.9038105676658,275.4903810567666" />
  <polygon fill="lightskyblue" points="628.9038105676658,405.3941916244324 628.9038105676658,249.50961894323342 478.9038105676658,119.60580837556759 478.9038105676658,275.4903810567666" />
  <polygon fill="white" points="562.9038105676658,348.2365149746594 562.9038105676658,244.31346652052676 544.9038105676658,228.7250092524069 544.9038105676658,332.64805770653953" />
  <polygon fill="white" points="243.22118282347213,301.9568759608278 243.22118282347213,260.38765657917475 269.20194493700535,252.88765657917475 269.20194493700535,294.4568759608278" />
  <polygon fill="white" points="280.3365572713767,291.2425902465421 280.3365572713767,249.67337086488902 306.3173193849098,242.17337086488902 306.3173193849098,283.7425902465421" />
  <polygon fill="white" points="317.45193171928116,280.52830453225636 317.45193171928116,238.9590851506033 343.4326938328143,231.4590851506033 343.4326938328143,273.02830453225636" />
  <polygon fill="white" points="354.5673061671857,269.81401881797063 354.5673061671857,228.2447994363176 380.54806828071884,220.7447994363176 380.54806828071884,262.31401881797063" />
  <polygon fill="white" points="391.6826806150902,259.0997331036849 391.6826806150902,217.53051372203188 417.66344272862335,210.03051372203186 417.66344272862335,251.5997331036849" />
  <polygon fill="white" points="428.7980550629947,248.38544738939922 428.7980550629947,206.81622800774616 454.77881717652787,199.31622800774616 454.77881717652787,240.88544738939922" />
</svg>
