<?xml version="1.0" encoding="UTF-8"?>
<svg
  xmlns="http://www.w3.org/2000/svg"
  width="848"
  height="600"
  style="background-color:white"
>
  <polygon fill="lightblue" points="376.4519052838329,478.7259526419165 246.54809471616707,366.2259526419165 471.5480947161671,301.2740473580835 601.451905283833,413.7740473580836" />
  <polygon fill="steelblue" points="246.54809471616707,366.2259526419165 246.54809471616707,186.22595264191642 471.5480947161671,121.2740473580835 471.5480947161671,301.2740473580835" />
  <polygon fill="lightskyblue" points="601.451905283833,413.7740473580836 601.451905283833,233.77404735808352 471.5480947161671,121.2740473580835 471.5480947161671,301.2740473580835" />
  <polygon fill="white" points="544.2942286340599,364.2740473580835 544.2942286340599,274.2740473580835 528.7057713659401,260.7740473580835 528.7057713659401,350.7740473580835" />
  <polygon fill="white" points="280.2980947161671,320.4831668493415 280.2980947161671,284.4831668493415 302.7980947161671,277.98797632095824 302.7980947161671,313.98797632095824" />
  <polygon fill="white" points="325.2980947161671,307.4927857925749 325.2980947161671,271.4927857925749 347.7980947161671,264.99759526419166 347.7980947161671,300.99759526419166" />
  <polygon fill="white" points="370.2980947161671,294.50240473580834 370.2980947161671,258.50240473580834 392.7980947161671,252.00721420742505 392.7980947161671,288.007214207425" />
  <polygon fill="white" points="415.2980947161671,281.51202367904176 415.2980947161671,245.51202367904176 437.7980947161671,239.01683315065844 437.7980947161671,275.01683315065844" />
</svg>
