<?xml version="1.0" encoding="UTF-8"?>
<svg
  xmlns="http://www.w3.org/2000/svg"
  width="848"
  height="600"
  style="background-color:white"
>
  <polygon fill="lightblue" points="332.49364905389035,600.6569860407207 82.49364905389035,384.15063509461095 515.5063509461096,259.15063509461095 765.5063509461097,475.65698604072065" />
  <polygon fill="steelblue" points="82.49364905389035,384.15063509461095 82.49364905389035,124.34301395927938 515.5063509461096,-0.6569860407206534 515.5063509461096,259.15063509461095" />
  <polygon fill="lightskyblue" points="765.5063509461097,475.65698604072065 765.5063509461097,215.84936490538902 515.5063509461096,-0.6569860407206534 515.5063509461096,259.15063509461095" />
  <polygon fill="white" points="655.5063509461096,380.3941916244323 655.5063509461096,207.18911086754463 625.5063509461097,181.20834875401147 625.5063509461097,354.4134295108992" />
  <polygon fill="white" points="133.0117976079826,300.2852694585225 133.0117976079826,231.00323715576747 176.31306779720458,218.50323715576747 176.31306779720458,287.7852694585225" />
  <polygon fill="white" points="205.18058125668583,279.4519361251892 205.18058125668583,210.1699038224341 248.48185144590775,197.6699038224341 248.48185144590775,266.9519361251892" />
  <polygon fill="white" points="277.34936490538905,258.61860279185584 277.34936490538905,189.33657048910078 320.65063509461095,176.83657048910075 320.65063509461095,246.11860279185586" />
  <polygon fill="white" points="349.51814855409225,237.78526945852252 349.51814855409225,168.50323715576744 392.8194187433142,156.0032371557674 392.8194187433142,225.28526945852252" />
  <polygon fill="white" points="421.6869322027955,216.95193612518918 421.6869322027955,147.66990382243407 464.9882023920174,135.16990382243407 464.9882023920174,204.45193612518915" />
</svg>
