<?xml version="1.0" encoding="UTF-8"?>
<svg
  xmlns="http://www.w3.org/2000/svg"
  width="848"
  height="600"
  style="background-color:white"
>
  <polygon fill="lightblue" points="385.1771432346219,482.67147539692314 279.11112605663976,390.81561004255394 462.8228567653781,337.7826014535629 568.8888739433603,429.6384668079321" />
  <polygon fill="steelblue" points="279.11112605663976,390.81561004255394 279.11112605663976,170.36153319206792 462.8228567653781,117.32852460307683 462.8228567653781,337.7826014535629" />
  <polygon fill="lightskyblue" points="568.8888739433603,429.6384668079321 568.8888739433603,209.18438995744606 462.8228567653781,117.32852460307683 462.8228567653781,337.7826014535629" />
  <polygon fill="white" points="522.2198263850481,389.2218860520096 522.2198263850481,315.73719376851426 509.4919043236903,304.71448992599 509.4919043236903,378.19918220948534" />
  <polygon fill="white" points="306.66788566295054,353.4667818408072 306.66788566295054,324.072904927409 325.03905873382433,318.7696040685099 325.0390587338244,348.16348098190804" />
  <polygon fill="white" points="343.4102318046982,342.86018012300894 343.4102318046982,313.4663032096108 361.78140487557204,308.1630023507117 361.78140487557204,337.55687926410985" />
  <polygon fill="white" points="380.15257794644583,332.25357840521076 380.15257794644583,302.8597014918126 398.5237510173197,297.5564006329135 398.5237510173197,326.9502775463116" />
  <polygon fill="white" points="416.89492408819353,321.6469766874125 416.89492408819353,292.25309977401434 435.2660971590674,286.94979891511525 435.2660971590674,316.3436758285134" />
</svg>
