<?xml version="1.0" encoding="UTF-8"?>
<svg
  xmlns="http://www.w3.org/2000/svg"
  width="848"
  height="600"
  style="background-color:white"
>
  <polygon fill="lightblue" points="358.90433460029294,513.8809641192804 181.05966937578978,359.86296610732165 489.09566539970706,270.9406334950701 666.9403306242102,424.9586315070287" />
  <polygon fill="steelblue" points="181.05966937578978,359.86296610732165 181.05966937578978,175.0413684929713 489.09566539970706,86.11903588071965 489.09566539970706,270.9406334950701" />
  <polygon fill="lightskyblue" points="666.9403306242102,424.9586315070287 666.9403306242102,240.13703389267835 489.09566539970706,86.11903588071965 489.09566539970706,270.9406334950701" />
  <polygon fill="white" points="588.6886779254288,357.1907123817669 588.6886779254288,233.9763139722 567.3473180984885,215.49415421076492 567.3473180984885,338.7085526203319" />
  <polygon fill="white" points="216.9972022452468,300.20293460539887 216.9972022452468,250.9171752415721 247.80080184763855,242.02494198034694 247.80080184763855,291.3107013441737" />
  <polygon fill="white" points="268.3365349158997,285.38254583669027 268.3365349158997,236.09678647286347 299.1401345182914,227.2045532116383 299.1401345182914,276.4903125754651" />
  <polygon fill="white" points="319.67586758655256,270.5621570679817 319.67586758655256,221.27639770415487 350.4794671889443,212.38416444292972 350.4794671889443,261.6699238067565" />
  <polygon fill="white" points="371.01520025720544,255.74176829927308 371.01520025720544,206.45600893544628 401.81879985959716,197.56377567422112 401.81879985959716,246.8495350380479" />
  <polygon fill="white" points="422.3545329278584,240.92137953056445 422.3545329278584,191.63562016673768 453.15813253025004,182.74338690551252 453.15813253025004,232.0291462693393" />
</svg>
