<?xml version="1.0" encoding="UTF-8"?>
<svg
  xmlns="http://www.w3.org/2000/svg"
  width="848"
  height="600"
  style="background-color:white"
>
  <polygon fill="lightblue" points="364.85666294904087,522.3106797433991 203.27406119664957,382.3760418162443 483.14333705095913,301.5847409400486 644.7259388033505,441.5193788672034" />
  <polygon fill="steelblue" points="203.27406119664957,382.3760418162443 203.27406119664957,158.48062113279659 483.14333705095913,77.6893202566009 483.14333705095913,301.5847409400486" />
  <polygon fill="lightskyblue" points="644.7259388033505,441.5193788672034 644.7259388033505,217.62395818375572 483.14333705095913,77.6893202566009 483.14333705095913,301.5847409400486" />
  <polygon fill="white" points="546.6991604068998,356.6256985247295 546.6991604068998,244.67798818300565 527.3092481966128,227.8858316317471 527.3092481966128,339.8335419734709" />
  <polygon fill="white" points="600.5600276576968,403.2705778337811 600.5600276576968,291.32286749205724 581.1701154474099,274.53071094079866 581.1701154474099,386.4784212825225" />
  <polygon fill="white" points="329.2152353310889,301.2408722852667 329.2152353310889,256.4617881485771 357.20216291651985,248.38265806095757 357.20216291651985,293.16174219764713" />
  <polygon fill="hsl(288.0,50.0%,51.426934746249444%)" points="460.9218197234357,427.06114934795426 460.9218197234357,388.6183056166062 467.63868234393914,386.67931439557753 467.63868234393914,425.1221581269255" />
  <polygon fill="hsl(288.0,50.0%,51.426934746249444%)" points="477.71397627469423,422.2136712953825 477.71397627469423,383.7708275640345 470.9971136541908,385.70981878506325 470.9971136541908,424.15266251641117" />
  <polygon fill="hsl(288.0,50.0%,51.426934746249444%)" points="454.20495710293227,390.9379190527968 454.2049571029322,352.8756975366107 460.0822118958727,351.17908021821063 460.0822118958728,389.2413017343967" />
  <polygon fill="hsl(288.0,50.0%,51.426934746249444%)" points="478.55358410225716,383.9090758765678 478.55358410225716,345.8468543603817 484.43083889519767,344.1502370419816 484.43083889519767,382.21245855816767" />
  <polygon fill="hsl(288.0,50.0%,51.426934746249444%)" points="460.0822118958727,357.05633501115113 460.0822118958727,351.17908021821063 478.55358410225716,345.8468543603817 478.55358410225716,351.72410915332216" />
  <polygon fill="hsl(288.0,50.0%,51.426934746249444%)" points="460.9218197234357,388.9989278317681 460.92181972343565,350.936706315582 477.71397627469423,346.0892282630103 477.71397627469423,384.15144977919635" />
  <polygon fill="hsl(288.0,50.0%,51.426934746249444%)" points="465.1198588612503,347.8217257266298 465.1198588612503,330.693726044346 473.5159371368796,328.2699870180602 473.51593713687964,345.3979867003439" />
  <polygon fill="hsl(288.0,50.0%,51.426934746249444%)" points="466.79907451637615,349.2400889971819 466.79907451637615,330.2089782390889 471.8367214817537,328.75473482331734 471.8367214817537,347.7858455814104" />
  <polygon fill="hsl(288.0,50.0%,43.8291623991892%)" points="385.39591076801946,477.2153752127566 385.39591076801946,438.7725314814086 392.1127733885229,436.8335402603799 392.1127733885229,475.27638399172787" />
  <polygon fill="hsl(288.0,50.0%,43.8291623991892%)" points="402.18806731927805,472.36789716018484 402.18806731927805,433.92505342883686 395.4712046987746,435.86404464986555 395.4712046987746,474.3068883812135" />
  <polygon fill="hsl(288.0,50.0%,43.8291623991892%)" points="378.679048147516,441.09214491759917 378.679048147516,403.02992340141304 384.55630294045653,401.3333060830129 384.55630294045653,439.39552759919906" />
  <polygon fill="hsl(288.0,50.0%,43.8291623991892%)" points="403.0276751468409,434.06330174137014 403.0276751468409,396.001080225184 408.9049299397814,394.30446290678395 408.9049299397815,432.36668442297" />
  <polygon fill="hsl(288.0,50.0%,43.8291623991892%)" points="384.55630294045653,407.21056087595343 384.55630294045653,401.3333060830129 403.0276751468409,396.001080225184 403.0276751468409,401.8783350181245" />
  <polygon fill="hsl(288.0,50.0%,43.8291623991892%)" points="385.39591076801946,439.1531536965705 385.39591076801946,401.09093218038436 402.18806731927805,396.2434541278126 402.18806731927805,434.3056756439987" />
  <polygon fill="hsl(288.0,50.0%,43.8291623991892%)" points="389.5939499058341,397.97595159143214 389.5939499058341,380.8479519091484 397.9900281814634,378.4242128828625 397.9900281814634,395.55221256514625" />
  <polygon fill="hsl(288.0,50.0%,43.8291623991892%)" points="391.27316556095997,399.39431486198424 391.27316556095997,380.3632041038912 396.31081252633754,378.9089606881197 396.31081252633754,397.94007144621276" />
</svg>
