<?xml version="1.0" encoding="UTF-8"?>
<svg
  xmlns="http://www.w3.org/2000/svg"
  width="848"
  height="600"
  style="background-color:white"
>
  <polygon fill="lightblue" points="332.49364905389035,643.9582562299427 82.49364905389035,427.45190528383296 515.5063509461096,302.45190528383284 765.5063509461097,518.9582562299425" />
  <polygon fill="steelblue" points="82.49364905389035,427.45190528383296 82.49364905389035,81.04174377005745 515.5063509461096,-43.958256229942606 515.5063509461096,302.45190528383284" />
  <polygon fill="lightskyblue" points="765.5063509461097,518.9582562299425 765.5063509461097,172.54809471616707 515.5063509461096,-43.958256229942606 515.5063509461096,302.45190528383284" />
  <polygon fill="white" points="655.5063509461096,423.6954618136543 655.5063509461096,250.49038105676655 625.5063509461097,224.50961894323342 625.5063509461097,397.7146997001211" />
  <polygon fill="white" points="133.0117976079826,343.5865396477445 133.0117976079826,274.30450734498936 176.31306779720458,261.80450734498936 176.31306779720458,331.0865396477445" />
  <polygon fill="white" points="205.18058125668583,322.75320631441116 205.18058125668583,253.47117401165605 248.48185144590775,240.97117401165605 248.48185144590775,310.2532063144111" />
  <polygon fill="white" points="277.34936490538905,301.9198729810778 277.34936490538905,232.63784067832268 320.65063509461095,220.13784067832268 320.65063509461095,289.4198729810778" />
  <polygon fill="white" points="349.51814855409225,281.0865396477444 349.51814855409225,211.80450734498936 392.8194187433142,199.30450734498936 392.8194187433142,268.5865396477444" />
  <polygon fill="white" points="421.6869322027955,260.2532063144111 421.6869322027955,190.971174011656 464.9882023920174,178.471174011656 464.9882023920174,247.7532063144111" />
</svg>
