<?xml version="1.0" encoding="UTF-8"?>
<svg
  xmlns="http://www.w3.org/2000/svg"
  width="848"
  height="600"
  style="background-color:white"
>
  <polygon fill="lightblue" points="372.33353613296754,543.103933339325 231.17813180081325,420.8597673062153 475.66646386703246,350.2820651401381 616.8218681991867,472.52623117324777" />
  <polygon fill="steelblue" points="231.17813180081325,420.8597673062153 231.17813180081325,127.47376882675223 475.66646386703246,56.89606666067505 475.66646386703246,350.2820651401381" />
  <polygon fill="lightskyblue" points="616.8218681991867,472.52623117324777 616.8218681991867,179.1402326937847 475.66646386703246,56.89606666067505 475.66646386703246,350.2820651401381" />
  <polygon fill="white" points="280.07579821405704,367.6260937424048 280.07579821405704,328.5079606118097 304.52463142067904,321.450190395202 304.52463142067904,360.5683235257971" />
  <polygon fill="white" points="341.19788123061187,349.9816682008855 341.19788123061187,310.8635350702904 365.6467144372338,303.8057648536827 365.6467144372338,342.9238979842778" />
  <polygon fill="white" points="402.3199642471667,332.3372426593662 402.3199642471667,293.2191095287711 426.76879745378864,286.1613393121634 426.76879745378864,325.2794724427585" />
  <polygon fill="hsl(288.0,50.0%,51.426934746249444%)" points="456.2541804329088,459.895804310558 456.2541804329088,426.31288701794216 462.12190040249806,424.61902216595627 462.12190040249806,458.20193945857216" />
  <polygon fill="hsl(288.0,50.0%,51.426934746249444%)" points="470.92348035688195,455.6611421805934 470.92348035688195,422.0782248879775 465.05576038729265,423.77208973996335 465.05576038729265,457.35500703257924" />
  <polygon fill="hsl(288.0,50.0%,51.426934746249444%)" points="450.3864604633195,428.33925600153805 450.3864604633195,395.0888428405322 455.52071543671013,393.6067110950446 455.52071543671013,426.85712425605044" />
  <polygon fill="hsl(288.0,50.0%,51.426934746249444%)" points="471.6569453530806,422.19899591308933 471.6569453530806,388.9485827520835 476.7912003264712,387.4664510065959 476.7912003264712,420.71686416760167" />
  <polygon fill="hsl(288.0,50.0%,51.426934746249444%)" points="455.52071543671013,398.74096606843517 455.52071543671013,393.6067110950446 471.6569453530806,388.9485827520835 471.6569453530806,394.08283772547406" />
  <polygon fill="hsl(288.0,50.0%,51.426934746249444%)" points="456.2541804329088,426.6453911495522 456.2541804329088,393.3949779885463 470.92348035688195,389.1603158585817 470.92348035688195,422.41072901958756" />
  <polygon fill="hsl(288.0,50.0%,51.426934746249444%)" points="459.9215054139021,390.6737917980049 459.9215054139021,375.7111058755523 467.2561553758887,373.59377481057 467.2561553758887,388.5564607330226" />
  <polygon fill="hsl(288.0,50.0%,51.426934746249444%)" points="461.3884354062994,391.91284624305877 461.3884354062994,375.2876396625558 465.7892253834913,374.01724102356644 465.7892253834913,390.64244760406933" />
</svg>
