<?xml version="1.0" encoding="UTF-8"?>
<svg
  xmlns="http://www.w3.org/2000/svg"
  width="848"
  height="600"
  style="background-color:white"
>
  <polygon fill="lightblue" points="361.41053636559843,535.2641379256248 190.41294169792874,387.17587695738837 486.58946363440157,301.6770796235535 657.5870583020712,449.76534059178994" />
  <polygon fill="steelblue" points="190.41294169792874,387.17587695738837 190.41294169792874,150.2346594082101 486.58946363440157,64.7358620743752 486.58946363440157,301.6770796235535" />
  <polygon fill="lightskyblue" points="657.5870583020712,449.76534059178994 657.5870583020712,212.82412304261163 486.58946363440157,64.7358620743752 486.58946363440157,301.6770796235535" />
  <polygon fill="white" points="553.8485175370183,359.92512893772647 553.8485175370183,247.37805060186682 533.328806176898,229.60745928567843 533.328806176898,342.1545376215381" />
  <polygon fill="white" points="610.8477157595748,409.2878825938053 610.8477157595748,296.7408042579456 590.3280043994545,278.97021294175727 590.3280043994545,391.5172912776169" />
  <polygon fill="white" points="234.8394199883997,326.9628138474775 234.8394199883997,279.57457033764183 264.45707218204694,271.02469060425835 264.45707218204694,318.41293411409396" />
  <polygon fill="white" points="294.07472437569425,309.8630543807105 294.07472437569425,262.4748108708748 323.6923765693415,253.92493113749134 323.6923765693415,301.313174647327" />
  <polygon fill="white" points="353.3100287629888,292.7632949139435 353.3100287629888,245.37505140410786 382.9276809566361,236.8251716707244 382.9276809566361,284.21341518056005" />
  <polygon fill="white" points="412.54533315028334,275.6635354471765 412.54533315028334,228.27529193734088 442.16298534393064,219.72541220395738 442.16298534393064,267.11365571379304" />
  <polygon fill="hsl(288.0,50.0%,70.71600065166498%)" points="428.43655172533846,368.29048209294155 428.43655172533846,327.6076750397476 435.5447882518138,325.55570390373555 435.5447882518138,366.2385109569295" />
  <polygon fill="hsl(288.0,50.0%,70.71600065166498%)" points="446.2071430415268,363.1605542529114 446.2071430415268,322.47774719971756 439.09890651505145,324.52971833572957 439.09890651505145,365.2125253889235" />
  <polygon fill="hsl(288.0,50.0%,70.71600065166498%)" points="421.3283151988631,330.06244624559326 421.3283151988631,289.78243926223297 427.548022159529,287.9869645182224 427.548022159529,328.2669715015827" />
  <polygon fill="hsl(288.0,50.0%,70.71600065166498%)" points="447.09567260733627,322.6240508775496 447.09567260733627,282.3440438941893 453.3153795680022,280.54856915017876 453.3153795680022,320.82857613353906" />
  <polygon fill="hsl(288.0,50.0%,70.71600065166498%)" points="427.548022159529,294.2066714788883 427.548022159529,287.9869645182224 447.09567260733627,282.3440438941893 447.09567260733627,288.56375085485524" />
  <polygon fill="hsl(288.0,50.0%,70.71600065166498%)" points="428.43655172533846,328.0104751095812 428.43655172533846,287.7304681262209 446.2071430415268,282.60054028619084 446.2071430415268,322.88054726955113" />
  <polygon fill="hsl(288.0,50.0%,70.71600065166498%)" points="432.87919955438554,284.43398581704537 432.87919955438554,266.30798267453326 441.76449521247974,263.7430187545182 441.76449521247974,281.86902189703034" />
  <polygon fill="hsl(288.0,50.0%,70.71600065166498%)" points="434.6562586860044,285.9349933822104 434.6562586860044,265.79498989053025 439.9874360808609,264.2560115385212 439.9874360808609,284.39601503020134" />
  <polygon fill="hsl(288.0,50.0%,51.426934746249444%)" points="463.073156979708,434.4646680928207 463.073156979708,393.78186103962673 470.1813935061833,391.7298899036147 470.1813935061834,432.41269695680865" />
  <polygon fill="hsl(288.0,50.0%,51.426934746249444%)" points="480.8437482958964,429.3347402527906 480.8437482958964,388.65193319959667 473.735511769421,390.70390433560874 473.735511769421,431.3867113888026" />
  <polygon fill="hsl(288.0,50.0%,51.426934746249444%)" points="455.96492045323265,396.2366322454724 455.96492045323265,355.9566252621121 462.18462741389857,354.1611505181016 462.18462741389857,394.4411575014619" />
  <polygon fill="hsl(288.0,50.0%,51.426934746249444%)" points="481.73227786170577,388.7982368774288 481.73227786170577,348.5182298940685 487.95198482237174,346.72275515005794 487.95198482237174,387.00276213341823" />
  <polygon fill="hsl(288.0,50.0%,51.426934746249444%)" points="462.18462741389857,360.3808574787675 462.18462741389857,354.1611505181016 481.73227786170577,348.5182298940685 481.73227786170577,354.7379368547344" />
  <polygon fill="hsl(288.0,50.0%,51.426934746249444%)" points="463.073156979708,394.18466110946036 463.073156979708,353.90465412610007 480.8437482958964,348.77472628607 480.8437482958964,389.05473326943024" />
  <polygon fill="hsl(288.0,50.0%,51.426934746249444%)" points="467.5158048087551,350.60817181692454 467.5158048087551,332.48216867441243 476.4011004668493,329.91720475439735 476.4011004668493,348.0432078969095" />
  <polygon fill="hsl(288.0,50.0%,51.426934746249444%)" points="469.29286394037393,352.10917938208956 469.29286394037393,331.9691758904094 474.62404133523046,330.43019753840036 474.62404133523046,350.5702010300805" />
  <polygon fill="hsl(288.0,50.0%,43.8291623991892%)" points="383.14655209525324,487.5412486917793 383.14655209525324,446.85844163858536 390.25478862172855,444.80647050257335 390.25478862172855,485.4892775557672" />
  <polygon fill="hsl(288.0,50.0%,43.8291623991892%)" points="400.9171434114416,482.4113208517492 400.9171434114416,441.7285137985553 393.80890688496623,443.7804849345673 393.8089068849663,484.4632919877612" />
  <polygon fill="hsl(288.0,50.0%,43.8291623991892%)" points="376.0383155687779,449.313212844431 376.0383155687779,409.0332058610707 382.2580225294438,407.2377311170602 382.2580225294438,447.5177381004205" />
  <polygon fill="hsl(288.0,50.0%,43.8291623991892%)" points="401.805672977251,441.8748174763874 401.805672977251,401.59481049302707 408.0253799379169,399.79933574901656 408.02537993791697,440.07934273237686" />
  <polygon fill="hsl(288.0,50.0%,43.8291623991892%)" points="382.2580225294438,413.4574380777261 382.2580225294438,407.2377311170602 401.805672977251,401.59481049302707 401.805672977251,407.81451745369304" />
  <polygon fill="hsl(288.0,50.0%,43.8291623991892%)" points="383.14655209525324,447.261241708419 383.14655209525324,406.9812347250587 400.9171434114416,401.8513068850286 400.9171434114416,442.1313138683889" />
  <polygon fill="hsl(288.0,50.0%,43.8291623991892%)" points="387.5891999243003,403.68475241588317 387.5891999243003,385.558749273371 396.4744955823945,382.993785353356 396.4744955823945,401.1197884958681" />
  <polygon fill="hsl(288.0,50.0%,43.8291623991892%)" points="389.36625905591916,405.18575998104814 389.36625905591916,385.045756489368 394.6974364507757,383.506778137359 394.6974364507757,403.64678162903914" />
</svg>
