<?xml version="1.0" encoding="UTF-8"?>
<svg
  xmlns="http://www.w3.org/2000/svg"
  width="848"
  height="600"
  style="background-color:white"
>
  <polygon fill="lightblue" points="369.0961894323342,532.3557158514986 219.09618943233423,402.45190528383284 478.9038105676658,327.45190528383284 628.9038105676658,457.35571585149864" />
  <polygon fill="steelblue" points="219.09618943233423,402.45190528383284 219.09618943233423,142.64428414850133 478.9038105676658,67.6442841485013 478.9038105676658,327.45190528383284" />
  <polygon fill="lightskyblue" points="628.9038105676658,457.35571585149864 628.9038105676658,197.54809471616713 478.9038105676658,67.6442841485013 478.9038105676658,327.45190528383284" />
  <polygon fill="white" points="562.9038105676658,400.1980392017257 562.9038105676658,296.2749907475931 544.9038105676658,280.6865334794732 544.9038105676658,384.6095819336058" />
  <polygon fill="white" points="258.067332602634,349.63268590217984 258.067332602634,308.0634665205268 284.0480947161671,300.5634665205268 284.0480947161671,342.13268590217984" />
  <polygon fill="white" points="310.02885682970026,334.63268590217984 310.02885682970026,293.0634665205268 336.0096189432334,285.5634665205268 336.0096189432334,327.13268590217984" />
  <polygon fill="white" points="361.9903810567666,319.63268590217984 361.9903810567666,278.0634665205268 387.97114317029974,270.5634665205268 387.97114317029974,312.13268590217984" />
  <polygon fill="white" points="413.9519052838329,304.63268590217984 413.9519052838329,263.0634665205268 439.93266739736606,255.56346652052676 439.93266739736606,297.13268590217984" />
  <polygon fill="hsl(324.0,50.0%,51.426934746249444%)" points="458.2751812289926,443.9338845134272 458.2751812289926,408.246709674278 464.5105641362406,406.446709674278 464.5105641362406,442.1338845134271" />
  <polygon fill="hsl(324.0,50.0%,51.426934746249444%)" points="473.8636384971125,439.43388451342713 473.8636384971125,403.746709674278 467.6282555898645,405.546709674278 467.6282555898646,441.23388451342714" />
  <polygon fill="hsl(324.0,50.0%,51.426934746249444%)" points="452.0397983217447,410.40004803902207 452.0397983217447,375.066211564617 457.4957583655866,373.49121156461695 457.49575836558665,408.825048039022" />
  <polygon fill="hsl(324.0,50.0%,51.426934746249444%)" points="474.6430613605185,403.87504803902203 474.6430613605185,368.54121156461696 480.0990214043605,366.96621156461697 480.0990214043605,402.30004803902204" />
  <polygon fill="hsl(324.0,50.0%,51.426934746249444%)" points="457.4957583655866,378.9471716084589 457.4957583655866,373.49121156461695 474.6430613605185,368.54121156461696 474.6430613605185,373.9971716084589" />
  <polygon fill="hsl(324.0,50.0%,51.426934746249444%)" points="458.2751812289926,408.60004803902206 458.2751812289926,373.266211564617 473.8636384971125,368.7662115646169 473.8636384971125,404.10004803902206" />
  <polygon fill="hsl(324.0,50.0%,51.426934746249444%)" points="462.1722955460226,370.37451974089674 462.1722955460226,354.47429332741444 469.96652418008256,352.22429332741444 469.96652418008256,368.1245197408967" />
  <polygon fill="hsl(324.0,50.0%,51.426934746249444%)" points="463.7311412728346,371.691211564617 463.7311412728346,354.0242933274144 468.40767845327053,352.67429332741443 468.40767845327053,370.34121156461697" />
</svg>
