<?xml version="1.0" encoding="UTF-8"?>
<svg
  xmlns="http://www.w3.org/2000/svg"
  width="848"
  height="600"
  style="background-color:white"
>
  <polygon fill="lightblue" points="332.49364905389035,600.6569860407207 82.49364905389035,384.15063509461095 515.5063509461096,259.15063509461095 765.5063509461097,475.65698604072065" />
  <polygon fill="steelblue" points="82.49364905389035,384.15063509461095 82.49364905389035,124.34301395927938 515.5063509461096,-0.6569860407206534 515.5063509461096,259.15063509461095" />
  <polygon fill="lightskyblue" points="765.5063509461097,475.65698604072065 765.5063509461097,215.84936490538902 515.5063509461096,-0.6569860407206534 515.5063509461096,259.15063509461095" />
  <polygon fill="white" points="655.5063509461096,380.3941916244323 655.5063509461096,207.18911086754463 625.5063509461097,181.20834875401147 625.5063509461097,354.4134295108992" />
  <polygon fill="white" points="122.70197137245356,303.261459934713 122.70197137245356,233.97942763195795 166.0032415616755,221.47942763195792 166.0032415616755,290.761459934713" />
  <polygon fill="white" points="184.56092878562777,285.40431707757017 184.56092878562777,216.12228477481506 227.8621989748497,203.62228477481506 227.8621989748497,272.90431707757017" />
  <polygon fill="white" points="246.41988619880195,267.5471742204273 246.41988619880195,198.2651419176722 289.72115638802387,185.7651419176722 289.72115638802387,255.04717422042728" />
  <polygon fill="white" points="308.27884361197613,249.69003136328442 308.27884361197613,180.40799906052933 351.5801138011981,167.90799906052933 351.5801138011981,237.19003136328442" />
  <polygon fill="white" points="370.13780102515034,231.83288850614156 370.13780102515034,162.55085620338647 413.4390712143723,150.05085620338645 413.4390712143723,219.33288850614156" />
  <polygon fill="white" points="431.9967584383245,213.97574564899872 431.9967584383245,144.6937133462436 475.29802862754644,132.19371334624358 475.29802862754644,201.4757456489987" />
</svg>
