<?xml version="1.0" encoding="UTF-8"?>
<svg
  xmlns="http://www.w3.org/2000/svg"
  width="848"
  height="600"
  style="background-color:white"
>
  <polygon fill="lightblue" points="364.85666294904087,522.3106797433991 203.27406119664957,382.3760418162443 483.14333705095913,301.5847409400486 644.7259388033505,441.5193788672034" />
  <polygon fill="steelblue" points="203.27406119664957,382.3760418162443 203.27406119664957,158.48062113279659 483.14333705095913,77.6893202566009 483.14333705095913,301.5847409400486" />
  <polygon fill="lightskyblue" points="644.7259388033505,441.5193788672034 644.7259388033505,217.62395818375572 483.14333705095913,77.6893202566009 483.14333705095913,301.5847409400486" />
  <polygon fill="white" points="573.6295940322982,379.9481381792553 573.6295940322982,268.00042783753145 554.2396818220113,251.20827128627286 554.2396818220113,363.1559816279967" />
  <polygon fill="white" points="259.2479163675115,321.4386975043156 259.2479163675115,276.65961336762604 287.23484395294247,268.5804832800065 287.23484395294247,313.35956741669605" />
  <polygon fill="white" points="329.2152353310889,301.2408722852667 329.2152353310889,256.4617881485771 357.20216291651985,248.38265806095757 357.20216291651985,293.16174219764713" />
  <polygon fill="white" points="399.18255429466626,281.04304706621775 399.18255429466626,236.26396292952822 427.16948188009724,228.18483284190864 427.16948188009724,272.9639169785982" />
  <polygon fill="antiquewhite" points="493.1597137396166,428.77500092360714 493.1597137396166,333.6194471331419 515.5492558079613,327.1561430630462 515.5492558079615,422.3116968535115" />
  <polygon fill="beige" points="493.1597137396166,428.77500092360714 493.1597137396166,333.6194471331419 480.2331055994253,322.4246760989695 480.2331055994253,417.58022988943475" />
  <polygon fill="bisque" points="493.1597137396166,333.6194471331419 480.2331055994253,322.4246760989695 502.62264766777014,315.9613720288738 515.5492558079613,327.1561430630462" />
  <polygon fill="antiquewhite" points="379.8708503064923,504.0063397208106 379.8708503064923,408.85078593034535 402.260392374837,402.3874818602497 402.260392374837,497.54303565071496" />
  <polygon fill="beige" points="379.8708503064923,504.0063397208106 379.8708503064923,408.85078593034535 366.94424216630097,397.65601489617296 366.94424216630097,492.8115686866382" />
  <polygon fill="bisque" points="379.8708503064923,408.85078593034535 366.94424216630097,397.65601489617296 389.33378423464575,391.1927108260773 402.260392374837,402.3874818602497" />
  <polygon fill="antiquewhite" points="444.06540217562707,334.97896978508743 444.06540217562707,239.8234159946222 466.4549442439719,233.36011192452654 466.4549442439719,328.51566571499177" />
  <polygon fill="beige" points="444.06540217562707,334.97896978508743 444.06540217562707,239.8234159946222 431.13879403543575,228.6286449604498 431.13879403543575,323.78419875091504" />
  <polygon fill="bisque" points="444.06540217562707,239.8234159946222 431.13879403543575,228.6286449604498 453.5283361037806,222.16534089035412 466.4549442439719,233.36011192452654" />
  <polygon fill="antiquewhite" points="418.66815007541135,373.0836658637941 418.66815007541135,277.92811207332886 441.0576921437561,271.4648080032332 441.0576921437561,366.62036179369846" />
  <polygon fill="beige" points="418.66815007541135,373.0836658637941 418.66815007541135,277.92811207332886 405.74154193522,266.73334103915647 405.74154193522,361.88889482962173" />
  <polygon fill="bisque" points="418.66815007541135,277.92811207332886 405.74154193522,266.73334103915647 428.1310840035648,260.2700369690608 441.0576921437561,271.4648080032332" />
</svg>
