<?xml version="1.0" encoding="UTF-8"?>
<svg
  xmlns="http://www.w3.org/2000/svg"
  width="848"
  height="600"
  style="background-color:white"
>
  <polygon fill="lightblue" points="332.49364905389035,687.2595264191646 82.49364905389035,470.7531754730548 515.5063509461096,345.7531754730548 765.5063509461097,562.2595264191644" />
  <polygon fill="steelblue" points="82.49364905389035,470.7531754730548 82.49364905389035,37.740473580835555 515.5063509461096,-87.2595264191645 515.5063509461096,345.7531754730548" />
  <polygon fill="lightskyblue" points="765.5063509461097,562.2595264191644 765.5063509461097,129.2468245269452 515.5063509461096,-87.2595264191645 515.5063509461096,345.7531754730548" />
  <polygon fill="white" points="655.5063509461096,466.99673200287623 655.5063509461096,293.7916512459885 625.5063509461097,267.8108891324553 625.5063509461097,441.01596988934307" />
  <polygon fill="white" points="147.44555433772325,382.72114317029974 147.44555433772325,313.4391108675446 190.74682452694518,300.9391108675446 190.74682452694518,370.22114317029974" />
  <polygon fill="white" points="234.0480947161671,357.72114317029974 234.0480947161671,288.4391108675446 277.34936490538905,275.9391108675446 277.34936490538905,345.22114317029974" />
  <polygon fill="white" points="320.65063509461095,332.72114317029974 320.65063509461095,263.4391108675446 363.9519052838329,250.93911086754463 363.9519052838329,320.22114317029974" />
  <polygon fill="white" points="407.2531754730548,307.72114317029974 407.2531754730548,238.43911086754463 450.55444566227675,225.9391108675446 450.55444566227675,295.2211431702997" />
</svg>
