<?xml version="1.0" encoding="UTF-8"?>
<svg
  xmlns="http://www.w3.org/2000/svg"
  width="848"
  height="600"
  style="background-color:white"
>
  <polygon fill="lightblue" points="369.0961894323342,532.3557158514986 219.09618943233423,402.45190528383284 478.9038105676658,327.45190528383284 628.9038105676658,457.35571585149864" />
  <polygon fill="steelblue" points="219.09618943233423,402.45190528383284 219.09618943233423,142.64428414850133 478.9038105676658,67.6442841485013 478.9038105676658,327.45190528383284" />
  <polygon fill="lightskyblue" points="628.9038105676658,457.35571585149864 628.9038105676658,197.54809471616713 478.9038105676658,67.6442841485013 478.9038105676658,327.45190528383284" />
  <polygon fill="white" points="562.9038105676658,400.1980392017257 562.9038105676658,296.2749907475931 544.9038105676658,280.6865334794732 544.9038105676658,384.6095819336058" />
  <polygon fill="white" points="292.70834875401147,339.63268590217984 292.70834875401147,298.0634665205268 318.6891108675446,290.5634665205268 318.6891108675446,332.13268590217984" />
  <polygon fill="white" points="379.3108891324554,314.63268590217984 379.3108891324554,273.0634665205268 405.29165124598853,265.5634665205268 405.29165124598853,307.13268590217984" />
  <polygon fill="antiquewhite" points="488.20219100593215,445.5248833806312 488.20219100593215,357.19029219461845 508.9868006967587,351.19029219461845 508.9868006967587,439.5248833806312" />
  <polygon fill="beige" points="488.20219100593215,445.5248833806312 488.20219100593215,357.19029219461845 476.20219100593215,346.7979873492052 476.20219100593215,435.13257853521793" />
  <polygon fill="bisque" points="488.20219100593215,357.19029219461845 476.20219100593215,346.7979873492052 496.9868006967587,340.7979873492052 508.9868006967587,351.19029219461845" />
  <polygon fill="antiquewhite" points="383.03412630915756,515.3634718003991 383.03412630915756,427.02888061438637 403.8187359999841,421.02888061438637 403.8187359999841,509.3634718003991" />
  <polygon fill="beige" points="383.03412630915756,515.3634718003991 383.03412630915756,427.02888061438637 371.03412630915756,416.6365757689731 371.03412630915756,504.97116695498585" />
  <polygon fill="bisque" points="383.03412630915756,427.02888061438637 371.03412630915756,416.6365757689731 391.8187359999841,410.6365757689731 403.8187359999841,421.02888061438637" />
</svg>
