<?xml version="1.0" encoding="UTF-8"?>
<svg
  xmlns="http://www.w3.org/2000/svg"
  width="848"
  height="600"
  style="background-color:white"
>
  <polygon fill="lightblue" points="364.85666294904087,522.3106797433991 203.27406119664957,382.3760418162443 483.14333705095913,301.5847409400486 644.7259388033505,441.5193788672034" />
  <polygon fill="steelblue" points="203.27406119664957,382.3760418162443 203.27406119664957,158.48062113279659 483.14333705095913,77.6893202566009 483.14333705095913,301.5847409400486" />
  <polygon fill="lightskyblue" points="644.7259388033505,441.5193788672034 644.7259388033505,217.62395818375572 483.14333705095913,77.6893202566009 483.14333705095913,301.5847409400486" />
  <polygon fill="white" points="573.6295940322982,379.9481381792553 573.6295940322982,268.00042783753145 554.2396818220113,251.20827128627286 554.2396818220113,363.1559816279967" />
  <polygon fill="white" points="245.254452574796,325.4782625481254 245.254452574796,280.69917841143587 273.241380160227,272.62004832381626 273.241380160227,317.3991324605058" />
  <polygon fill="white" points="301.2283077456579,309.3200023728862 301.2283077456579,264.5409182361967 329.2152353310889,256.4617881485771 329.2152353310889,301.2408722852667" />
  <polygon fill="white" points="357.20216291651985,293.16174219764713 357.20216291651985,248.38265806095757 385.1890905019508,240.303527973338 385.18909050195083,285.0826121100275" />
  <polygon fill="white" points="413.17601808738175,277.003482022408 413.17601808738175,232.22439788571842 441.1629456728127,224.14526779809887 441.1629456728127,268.9243519347884" />
  <polygon fill="grey" points="471.3146696407673,138.9436127565393 471.3146696407673,110.95668517110835 499.3015972261983,102.8775550834888 499.3015972261983,130.86448266891975" />
  <polygon fill="lightgrey" points="471.3146696407673,138.9436127565393 471.3146696407673,110.95668517110835 455.1564094655282,96.96322137839289 455.1564094655282,124.9501489638238" />
  <polygon fill="darkgrey" points="471.3146696407673,110.95668517110835 455.1564094655282,96.96322137839289 483.14333705095913,88.88409129077334 499.3015972261983,102.8775550834888" />
  <polygon fill="hsl(324.0,50.0%,51.426934746249444%)" points="460.9218197234357,427.06114934795426 460.9218197234357,388.6183056166062 467.63868234393914,386.67931439557753 467.63868234393914,425.1221581269255" />
  <polygon fill="hsl(324.0,50.0%,51.426934746249444%)" points="477.71397627469423,422.2136712953825 477.71397627469423,383.7708275640345 470.9971136541908,385.70981878506325 470.9971136541908,424.15266251641117" />
  <polygon fill="hsl(324.0,50.0%,51.426934746249444%)" points="454.20495710293227,390.9379190527968 454.2049571029322,352.8756975366107 460.0822118958727,351.17908021821063 460.0822118958728,389.2413017343967" />
  <polygon fill="hsl(324.0,50.0%,51.426934746249444%)" points="478.55358410225716,383.9090758765678 478.55358410225716,345.8468543603817 484.43083889519767,344.1502370419816 484.43083889519767,382.21245855816767" />
  <polygon fill="hsl(324.0,50.0%,51.426934746249444%)" points="460.0822118958727,357.05633501115113 460.0822118958727,351.17908021821063 478.55358410225716,345.8468543603817 478.55358410225716,351.72410915332216" />
  <polygon fill="hsl(324.0,50.0%,51.426934746249444%)" points="460.9218197234357,388.9989278317681 460.92181972343565,350.936706315582 477.71397627469423,346.0892282630103 477.71397627469423,384.15144977919635" />
  <polygon fill="hsl(324.0,50.0%,51.426934746249444%)" points="465.1198588612503,347.8217257266298 465.1198588612503,330.693726044346 473.5159371368796,328.2699870180602 473.51593713687964,345.3979867003439" />
  <polygon fill="hsl(324.0,50.0%,51.426934746249444%)" points="466.79907451637615,349.2400889971819 466.79907451637615,330.2089782390889 471.8367214817537,328.75473482331734 471.8367214817537,347.7858455814104" />
</svg>
