<?xml version="1.0" encoding="UTF-8"?>
<svg
  xmlns="http://www.w3.org/2000/svg"
  width="848"
  height="600"
  style="background-color:white"
>
  <polygon fill="lightblue" points="364.85666294904087,522.3106797433991 203.27406119664957,382.3760418162443 483.14333705095913,301.5847409400486 644.7259388033505,441.5193788672034" />
  <polygon fill="steelblue" points="203.27406119664957,382.3760418162443 203.27406119664957,158.48062113279659 483.14333705095913,77.6893202566009 483.14333705095913,301.5847409400486" />
  <polygon fill="lightskyblue" points="644.7259388033505,441.5193788672034 644.7259388033505,217.62395818375572 483.14333705095913,77.6893202566009 483.14333705095913,301.5847409400486" />
  <polygon fill="white" points="573.6295940322982,379.9481381792553 573.6295940322982,268.00042783753145 554.2396818220113,251.20827128627286 554.2396818220113,363.1559816279967" />
  <polygon fill="white" points="229.2619225259783,330.0949083124794 229.2619225259783,285.3158241757899 257.2488501114093,277.23669408817034 257.2488501114093,322.01577822485984" />
  <polygon fill="white" points="269.2432476480226,318.5532939015943 269.2432476480226,273.77420976490475 297.2301752334535,265.6950796772852 297.2301752334535,310.47416381397477" />
  <polygon fill="white" points="309.22457277006674,307.01167949070924 309.22457277006674,262.2325953540197 337.2115003554977,254.15346526640013 337.2115003554977,298.93254940308964" />
  <polygon fill="white" points="349.205897892111,295.4700650798241 349.205897892111,250.6909809431346 377.19282547754193,242.611850855515 377.192825477542,287.39093499220456" />
  <polygon fill="white" points="389.1872230141552,283.92845066893904 389.1872230141552,239.14936653224947 417.1741505995862,231.07023644462993 417.1741505995862,275.8493205813195" />
  <polygon fill="white" points="429.16854813619943,272.3868362580539 429.16854813619943,227.6077521213644 457.1554757216304,219.52862203374482 457.1554757216304,264.30770617043436" />
  <polygon fill="antiquewhite" points="493.1597137396166,428.77500092360714 493.1597137396166,333.6194471331419 515.5492558079613,327.1561430630462 515.5492558079615,422.3116968535115" />
  <polygon fill="beige" points="493.1597137396166,428.77500092360714 493.1597137396166,333.6194471331419 480.2331055994253,322.4246760989695 480.2331055994253,417.58022988943475" />
  <polygon fill="bisque" points="493.1597137396166,333.6194471331419 480.2331055994253,322.4246760989695 502.62264766777014,315.9613720288738 515.5492558079613,327.1561430630462" />
  <polygon fill="antiquewhite" points="379.8708503064923,504.0063397208106 379.8708503064923,408.85078593034535 402.260392374837,402.3874818602497 402.260392374837,497.54303565071496" />
  <polygon fill="beige" points="379.8708503064923,504.0063397208106 379.8708503064923,408.85078593034535 366.94424216630097,397.65601489617296 366.94424216630097,492.8115686866382" />
  <polygon fill="bisque" points="379.8708503064923,408.85078593034535 366.94424216630097,397.65601489617296 389.33378423464575,391.1927108260773 402.260392374837,402.3874818602497" />
  <polygon fill="antiquewhite" points="444.06540217562707,334.97896978508743 444.06540217562707,239.8234159946222 466.4549442439719,233.36011192452654 466.4549442439719,328.51566571499177" />
  <polygon fill="beige" points="444.06540217562707,334.97896978508743 444.06540217562707,239.8234159946222 431.13879403543575,228.6286449604498 431.13879403543575,323.78419875091504" />
  <polygon fill="bisque" points="444.06540217562707,239.8234159946222 431.13879403543575,228.6286449604498 453.5283361037806,222.16534089035412 466.4549442439719,233.36011192452654" />
</svg>
