<?xml version="1.0" encoding="UTF-8"?>
<svg
  xmlns="http://www.w3.org/2000/svg"
  width="848"
  height="600"
  style="background-color:white"
>
  <polygon fill="lightblue" points="345.1422172653878,521.7824327633829 129.6987482621994,335.20291552717646 502.8577827346122,227.48118102558223 718.3012517378006,414.0606982617887" />
  <polygon fill="steelblue" points="129.6987482621994,335.20291552717646 129.6987482621994,185.93930173821133 502.8577827346122,78.21756723661713 502.8577827346122,227.48118102558223" />
  <polygon fill="lightskyblue" points="718.3012517378006,414.0606982617887 718.3012517378006,264.79708447282354 502.8577827346122,78.21756723661713 502.8577827346122,227.48118102558223" />
  <polygon fill="white" points="623.5061253763977,331.9657106778578 623.5061253763977,182.7020968888927 597.652909096015,160.31255482054794 597.652909096015,309.57616860951305" />
  <polygon fill="hsl(288.0,50.0%,70.71600065166498%)" points="429.58970490770133,311.40880900188336 429.58970490770133,260.1516840267528 438.54552173503924,257.5663623987145 438.54552173503924,308.8234873738451" />
  <polygon fill="hsl(288.0,50.0%,70.71600065166498%)" points="451.9792469760461,304.94550493178775 451.9792469760461,253.68837995665712 443.0234301487082,256.27370158469535 443.0234301487082,307.530826559826" />
  <polygon fill="hsl(288.0,50.0%,70.71600065166498%)" points="420.6338880803634,263.2445019416735 420.6338880803634,212.49487325342534 428.4702278042841,210.23271682889188 428.4702278042841,260.98234551714" />
  <polygon fill="hsl(288.0,50.0%,70.71600065166498%)" points="453.09872407946335,253.8727110400348 453.09872407946335,203.12308235178665 460.935063803384,200.86092592725316 460.935063803384,251.61055461550131" />
  <polygon fill="hsl(288.0,50.0%,70.71600065166498%)" points="428.4702278042841,218.06905655281253 428.4702278042841,210.23271682889188 453.09872407946335,203.12308235178665 453.09872407946335,210.95942207570732" />
  <polygon fill="hsl(288.0,50.0%,70.71600065166498%)" points="429.58970490770133,260.65918031363526 429.58970490770133,209.90955162538708 451.9792469760461,203.44624755529145 451.9792469760461,254.19587624353957" />
  <polygon fill="hsl(288.0,50.0%,70.71600065166498%)" points="435.1870904247875,205.75624417345077 435.1870904247875,182.91891126373912 446.3818614589599,179.6872592286913 446.3818614589599,202.52459213840294" />
  <polygon fill="hsl(288.0,50.0%,70.71600065166498%)" points="437.426044631622,207.6473952008536 437.426044631622,182.27258085672955 444.14290725212544,180.33358963570086 444.14290725212544,205.7084039798249" />
  <polygon fill="hsl(288.0,50.0%,70.0415638934771%)" points="338.08998333965746,341.1781323675676 338.08998333965746,289.921007392437 347.0458001669954,287.3356857643987 347.0458001669954,338.59281073952934" />
  <polygon fill="hsl(288.0,50.0%,70.0415638934771%)" points="360.4795254080022,334.71482829747197 360.4795254080022,283.45770332234133 351.5237085806643,286.0430249503796 351.5237085806643,337.30014992551025" />
  <polygon fill="hsl(288.0,50.0%,70.0415638934771%)" points="329.13416651231955,293.01382530735776 329.13416651231955,242.2641966191096 336.97050623624017,240.00204019457613 336.97050623624017,290.7516688828243" />
  <polygon fill="hsl(288.0,50.0%,70.0415638934771%)" points="361.5990025114194,283.642034405719 361.5990025114194,232.8924057174709 369.4353422353401,230.6302492929374 369.4353422353401,281.3798779811856" />
  <polygon fill="hsl(288.0,50.0%,70.0415638934771%)" points="336.97050623624017,247.83837991849677 336.97050623624017,240.00204019457613 361.5990025114194,232.8924057174709 361.5990025114194,240.72874544139157" />
  <polygon fill="hsl(288.0,50.0%,70.0415638934771%)" points="338.08998333965746,290.4285036793195 338.08998333965746,239.67887499107132 360.4795254080022,233.21557092097567 360.4795254080022,283.9651996092238" />
  <polygon fill="hsl(288.0,50.0%,70.0415638934771%)" points="343.6873688567436,235.525567539135 343.6873688567436,212.68823462942333 354.882139890916,209.4565825943755 354.882139890916,232.29391550408718" />
  <polygon fill="hsl(288.0,50.0%,70.0415638934771%)" points="345.9263230635781,237.41671856653784 345.9263230635781,212.0419042224138 352.6431856840815,210.1029130013851 352.6431856840815,235.47772734550915" />
  <polygon fill="hsl(288.0,50.0%,56.01394996926309%)" points="377.95555839787454,399.4636770274235 377.95555839787454,348.2065520522929 386.91137522521245,345.62123042425463 386.91137522521245,396.87835539938527" />
  <polygon fill="hsl(288.0,50.0%,56.01394996926309%)" points="400.3451004662193,393.0003729573279 400.3451004662193,341.74324798219726 391.3892836388814,344.3285696102355 391.3892836388814,395.5856945853661" />
  <polygon fill="hsl(288.0,50.0%,56.01394996926309%)" points="368.9997415705366,351.29936996721364 368.9997415705366,300.5497412789655 376.8360812944573,298.287584854432 376.8360812944573,349.03721354268015" />
  <polygon fill="hsl(288.0,50.0%,56.01394996926309%)" points="401.46457756963656,341.92757906557495 401.46457756963656,291.1779503773268 409.30091729355723,288.9157939527933 409.30091729355723,339.66542264104146" />
  <polygon fill="hsl(288.0,50.0%,56.01394996926309%)" points="376.8360812944573,306.12392457835267 376.8360812944573,298.287584854432 401.46457756963656,291.1779503773268 401.46457756963656,299.01429010124747" />
  <polygon fill="hsl(288.0,50.0%,56.01394996926309%)" points="377.95555839787454,348.7140483391754 377.95555839787454,297.96441965092725 400.3451004662193,291.5011155808316 400.3451004662193,342.25074426907975" />
  <polygon fill="hsl(288.0,50.0%,56.01394996926309%)" points="383.55294391496074,293.81111219899094 383.55294391496074,270.97377928927926 394.7477149491331,267.74212725423143 394.7477149491331,290.5794601639431" />
  <polygon fill="hsl(288.0,50.0%,56.01394996926309%)" points="385.7918981217952,295.70226322639377 385.7918981217952,270.3274488822697 392.50876074229865,268.388457661241 392.50876074229865,293.7632720053651" />
  <polygon fill="hsl(288.0,50.0%,51.426934746249444%)" points="473.2290929645809,394.7830589027898 473.2290929645809,343.52593392765914 482.1849097919188,340.94061229962085 482.1849097919188,392.1977372747515" />
  <polygon fill="hsl(288.0,50.0%,51.426934746249444%)" points="495.6186350329257,388.3197548326941 495.6186350329257,337.0626298575635 486.66281820558777,339.64795148560177 486.66281820558777,390.90507646073235" />
  <polygon fill="hsl(288.0,50.0%,51.426934746249444%)" points="464.273276137243,346.61875184257985 464.273276137243,295.8691231543317 472.10961586116366,293.6069667297983 472.10961586116366,344.35659541804637" />
  <polygon fill="hsl(288.0,50.0%,51.426934746249444%)" points="496.7381121363429,337.24696094094116 496.7381121363429,286.497332252693 504.5744518602636,284.2351758281595 504.5744518602636,334.9848045164077" />
  <polygon fill="hsl(288.0,50.0%,51.426934746249444%)" points="472.10961586116366,301.4433064537189 472.10961586116366,293.6069667297983 496.7381121363429,286.497332252693 496.7381121363429,294.3336719766137" />
  <polygon fill="hsl(288.0,50.0%,51.426934746249444%)" points="473.2290929645809,344.0334302145416 473.2290929645809,293.2838015262935 495.6186350329257,286.8204974561978 495.6186350329257,337.57012614444596" />
  <polygon fill="hsl(288.0,50.0%,51.426934746249444%)" points="478.8264784816671,289.13049407435716 478.8264784816671,266.2931611646455 490.0212495158395,263.06150912959765 490.0212495158395,285.89884203930933" />
  <polygon fill="hsl(288.0,50.0%,51.426934746249444%)" points="481.0654326885016,291.02164510176 481.0654326885016,265.64683075763594 487.782295309005,263.70783953660725 487.782295309005,289.0826538807313" />
  <polygon fill="hsl(288.0,50.0%,43.8291623991892%)" points="372.52788102402593,461.65536005585955 372.52788102402593,410.3982350807289 381.48369785136384,407.8129134526907 381.48369785136384,459.07003842782126" />
  <polygon fill="hsl(288.0,50.0%,43.8291623991892%)" points="394.9174230923707,455.1920559857639 394.9174230923707,403.93493101063325 385.9616062650328,406.52025263867154 385.9616062650328,457.7773776138022" />
  <polygon fill="hsl(288.0,50.0%,43.8291623991892%)" points="363.572064196688,413.4910529956496 363.572064196688,362.74142430740153 371.4084039206087,360.47926788286804 371.4084039206087,411.2288965711162" />
  <polygon fill="hsl(288.0,50.0%,43.8291623991892%)" points="396.0369001957879,404.119262094011 396.0369001957879,353.36963340576284 403.87323991970857,351.10747698122935 403.87323991970857,401.8571056694775" />
  <polygon fill="hsl(288.0,50.0%,43.8291623991892%)" points="371.4084039206087,368.3156076067887 371.4084039206087,360.47926788286804 396.0369001957879,353.36963340576284 396.0369001957879,361.20597312968346" />
  <polygon fill="hsl(288.0,50.0%,43.8291623991892%)" points="372.52788102402593,410.9057313676114 372.52788102402593,360.15610267936324 394.9174230923707,353.6927986092676 394.9174230923707,404.44242729751574" />
  <polygon fill="hsl(288.0,50.0%,43.8291623991892%)" points="378.1252665411121,356.00279522742693 378.1252665411121,333.1654623177153 389.3200375752845,329.9338102826675 389.3200375752845,352.7711431923791" />
  <polygon fill="hsl(288.0,50.0%,43.8291623991892%)" points="380.3642207479466,357.89394625482976 380.3642207479466,332.5191319107057 387.08108336845004,330.580140689677 387.08108336845004,355.95495503380107" />
</svg>
