<?xml version="1.0" encoding="UTF-8"?>
<svg
  xmlns="http://www.w3.org/2000/svg"
  width="848"
  height="600"
  style="background-color:white"
>
  <polygon fill="lightblue" points="355.11138151062335,526.3432449592789 166.90417573441766,363.3510235817994 492.88861848937665,269.2474206936965 681.0958242655823,432.23964207117604" />
  <polygon fill="steelblue" points="166.90417573441766,363.3510235817994 166.90417573441766,167.760357928824 492.88861848937665,73.6567550407211 492.88861848937665,269.2474206936965" />
  <polygon fill="lightskyblue" points="681.0958242655823,432.23964207117604 681.0958242655823,236.64897641820062 492.88861848937665,73.6567550407211 492.88861848937665,269.2474206936965" />
  <polygon fill="white" points="566.9167860946842,333.3576944355051 566.9167860946842,202.9639173335215 544.3319214015395,183.40485076822398 544.3319214015395,313.79862787020755" />
  <polygon fill="white" points="629.6525213534195,387.68843489466497 629.6525213534195,257.29465779268133 607.0676566602748,237.7355912273838 607.0676566602748,368.1293683293674" />
  <polygon fill="white" points="259.2664345149893,284.53082525604344 259.2664345149893,232.37331441525 291.86487879048525,222.96295412643974 291.86487879048525,275.12046496723315" />
  <polygon fill="white" points="367.927915433309,253.16295762667582 367.927915433309,201.00544678588238 400.52635970880493,191.5950864970721 400.52635970880493,243.75259733786552" />
  <polygon fill="grey" points="479.1108947915013,145.00415945297362 479.1108947915013,112.4057151774777 511.7093390669972,102.9953548886674 511.7093390669972,135.59379916416333" />
  <polygon fill="lightgrey" points="479.1108947915013,145.00415945297362 479.1108947915013,112.4057151774777 460.29017421388073,96.10649303972974 460.29017421388073,128.70493731522566" />
  <polygon fill="darkgrey" points="479.1108947915013,112.4057151774777 460.29017421388073,96.10649303972974 492.88861848937665,86.69613275091945 511.7093390669972,102.9953548886674" />
  <polygon fill="hsl(360.0,50.0%,51.426934746249444%)" points="467.0055739105451,415.399072920923 467.0055739105451,370.6218498641018 474.8292005366641,368.3633633947873 474.8292005366641,413.1405864516085" />
  <polygon fill="hsl(360.0,50.0%,51.426934746249444%)" points="486.56464047584257,409.75285674763677 486.56464047584257,364.97563369081564 478.7410138497236,367.2341201601301 478.7410138497236,412.0113432169513" />
  <polygon fill="hsl(360.0,50.0%,51.426934746249444%)" points="459.18194728442603,373.32367517556304 459.18194728442603,328.98979096088857 466.0276205822802,327.0136153002384 466.0276205822802,371.34749951491284" />
  <polygon fill="hsl(360.0,50.0%,51.426934746249444%)" points="487.54259380410747,365.13666172429805 487.54259380410747,320.80277750962364 494.3882671019616,318.8266018489735 494.3882671019616,363.1604860636479" />
  <polygon fill="hsl(360.0,50.0%,51.426934746249444%)" points="466.0276205822802,333.8592885980926 466.0276205822802,327.0136153002384 487.54259380410747,320.80277750962364 487.54259380410747,327.6484508074778" />
  <polygon fill="hsl(360.0,50.0%,51.426934746249444%)" points="467.0055739105451,371.06518870624853 467.005573910545,326.7313044915741 486.56464047584257,321.08508831828794 486.56464047584257,365.41897253296236" />
  <polygon fill="hsl(360.0,50.0%,51.426934746249444%)" points="471.8953405518694,323.10305623751884 471.8953405518694,303.1528083409154 481.6748738345182,300.32970025427227 481.6748738345182,320.2799481508758" />
  <polygon fill="hsl(360.0,50.0%,51.426934746249444%)" points="473.8512472083992,324.755128830924 473.8512472083992,302.5881867235868 479.7189671779885,300.89432187160094 479.7189671779885,323.0612639789381" />
</svg>
