<?xml version="1.0" encoding="UTF-8"?>
<svg
  xmlns="http://www.w3.org/2000/svg"
  width="848"
  height="600"
  style="background-color:white"
>
  <polygon fill="lightblue" points="385.1771432346219,482.67147539692314 279.11112605663976,390.81561004255394 462.8228567653781,337.7826014535629 568.8888739433603,429.6384668079321" />
  <polygon fill="steelblue" points="279.11112605663976,390.81561004255394 279.11112605663976,170.36153319206792 462.8228567653781,117.32852460307683 462.8228567653781,337.7826014535629" />
  <polygon fill="lightskyblue" points="568.8888739433603,429.6384668079321 568.8888739433603,209.18438995744606 462.8228567653781,117.32852460307683 462.8228567653781,337.7826014535629" />
  <polygon fill="white" points="522.2198263850481,389.2218860520096 522.2198263850481,315.73719376851426 509.4919043236903,304.71448992599 509.4919043236903,378.19918220948534" />
  <polygon fill="white" points="296.17007247959407,356.4972394744638 296.170072479594,327.10336256106564 314.54124555046786,321.80006170216654 314.54124555046786,351.19393861556466" />
  <polygon fill="white" points="322.41460543798524,348.9210953903222 322.41460543798524,319.5272184769241 340.78577850885904,314.223917618025 340.78577850885904,343.6177945314231" />
  <polygon fill="white" points="348.6591383963764,341.34495130618063 348.6591383963764,311.9510743927825 367.03031146725027,306.64777353388337 367.03031146725027,336.04165044728154" />
  <polygon fill="white" points="374.90367135476765,333.7688072220391 374.90367135476765,304.3749303086409 393.27484442564145,299.0716294497418 393.27484442564145,328.4655063631399" />
  <polygon fill="white" points="401.14820431315883,326.19266313789745 401.14820431315883,296.79878622449934 419.5193773840326,291.4954853656002 419.5193773840327,320.88936227899836" />
  <polygon fill="white" points="427.39273727155,318.6165190537559 427.39273727155,289.2226421403577 445.76391034242386,283.9193412814586 445.76391034242386,313.31321819485674" />
</svg>
