<?xml version="1.0" encoding="UTF-8"?>
<svg
  xmlns="http://www.w3.org/2000/svg"
  width="848"
  height="600"
  style="background-color:white"
>
  <polygon fill="lightblue" points="358.90433460029294,513.8809641192804 181.05966937578978,359.86296610732165 489.09566539970706,270.9406334950701 666.9403306242102,424.9586315070287" />
  <polygon fill="steelblue" points="181.05966937578978,359.86296610732165 181.05966937578978,175.0413684929713 489.09566539970706,86.11903588071965 489.09566539970706,270.9406334950701" />
  <polygon fill="lightskyblue" points="666.9403306242102,424.9586315070287 666.9403306242102,240.13703389267835 489.09566539970706,86.11903588071965 489.09566539970706,270.9406334950701" />
  <polygon fill="white" points="588.6886779254288,357.1907123817669 588.6886779254288,233.9763139722 567.3473180984885,215.49415421076492 567.3473180984885,338.7085526203319" />
  <polygon fill="white" points="319.67586758655256,270.5621570679817 319.67586758655256,221.27639770415487 350.4794671889443,212.38416444292972 350.4794671889443,261.6699238067565" />
  <polygon fill="hsl(360.0,50.0%,51.426934746249444%)" points="464.6377208745291,409.04529083356823 464.6377208745291,366.73346641972296 472.03058477910315,364.59933043702887 472.03058477910315,406.91115485087414" />
  <polygon fill="hsl(360.0,50.0%,51.426934746249444%)" points="483.11988063596414,403.7099508768331 483.11988063596414,361.3981264629878 475.7270167313901,363.53226244568185 475.7270167313901,405.8440868595272" />
  <polygon fill="hsl(360.0,50.0%,51.426934746249444%)" points="457.2448569699551,369.2865313570095 457.2448569699551,327.3936358977567 463.7136128864573,325.5262669128995 463.7136128864573,367.4191623721522" />
  <polygon fill="hsl(360.0,50.0%,51.426934746249444%)" points="484.0439886240359,361.5502884197436 484.0439886240359,319.6573929604908 490.51274454053816,317.7900239756336 490.51274454053816,359.68291943488634" />
  <polygon fill="hsl(360.0,50.0%,51.426934746249444%)" points="463.7136128864573,331.9950228294017 463.7136128864573,325.5262669128995 484.0439886240359,319.6573929604908 484.0439886240359,326.1261488769931" />
  <polygon fill="hsl(360.0,50.0%,51.426934746249444%)" points="464.6377208745291,367.15239537431546 464.6377208745291,325.2594999150627 483.11988063596414,319.9241599583276 483.11988063596414,361.8170554175804" />
  <polygon fill="hsl(360.0,50.0%,51.426934746249444%)" points="469.2582608148879,321.83102015291627 469.2582608148879,302.9792171962526 478.4993406956054,300.311547217885 478.4993406956054,319.1633501745487" />
  <polygon fill="hsl(360.0,50.0%,51.426934746249444%)" points="471.10647679103135,323.39213093020544 471.10647679103135,302.445683200579 476.6511247194619,300.8450812135585 476.6511247194619,321.7915289431849" />
</svg>
