<?xml version="1.0" encoding="UTF-8"?>
<svg
  xmlns="http://www.w3.org/2000/svg"
  width="848"
  height="600"
  style="background-color:white"
>
  <polygon fill="lightblue" points="369.0961894323342,480.39419162443244 219.09618943233423,350.4903810567666 478.9038105676658,275.4903810567666 628.9038105676658,405.3941916244324" />
  <polygon fill="steelblue" points="219.09618943233423,350.4903810567666 219.09618943233423,194.60580837556762 478.9038105676658,119.60580837556759 478.9038105676658,275.4903810567666" />
  <polygon fill="lightskyblue" points="628.9038105676658,405.3941916244324 628.9038105676658,249.50961894323342 478.9038105676658,119.60580837556759 478.9038105676658,275.4903810567666" />
  <polygon fill="white" points="562.9038105676658,348.2365149746594 562.9038105676658,244.31346652052676 544.9038105676658,228.7250092524069 544.9038105676658,332.64805770653953" />
  <polygon fill="white" points="258.067332602634,297.6711616751135 258.067332602634,256.10194229346047 284.0480947161671,248.60194229346047 284.0480947161671,290.1711616751135" />
  <polygon fill="white" points="310.02885682970026,282.6711616751135 310.02885682970026,241.10194229346047 336.0096189432334,233.60194229346047 336.0096189432334,275.1711616751135" />
  <polygon fill="white" points="361.9903810567666,267.6711616751135 361.9903810567666,226.10194229346047 387.97114317029974,218.60194229346047 387.97114317029974,260.1711616751135" />
  <polygon fill="white" points="413.9519052838329,252.67116167511352 413.9519052838329,211.10194229346047 439.93266739736606,203.60194229346047 439.93266739736606,245.1711616751135" />
</svg>
