<?xml version="1.0" encoding="UTF-8"?>
<svg
  xmlns="http://www.w3.org/2000/svg"
  width="848"
  height="600"
  style="background-color:white"
>
  <polygon fill="lightblue" points="372.33353613296754,543.103933339325 231.17813180081325,420.8597673062153 475.66646386703246,350.2820651401381 616.8218681991867,472.52623117324777" />
  <polygon fill="steelblue" points="231.17813180081325,420.8597673062153 231.17813180081325,127.47376882675223 475.66646386703246,56.89606666067505 475.66646386703246,350.2820651401381" />
  <polygon fill="lightskyblue" points="616.8218681991867,472.52623117324777 616.8218681991867,179.1402326937847 475.66646386703246,56.89606666067505 475.66646386703246,350.2820651401381" />
  <polygon fill="white" points="554.7134902930388,418.73879811867954 554.7134902930388,320.94346529219183 537.7748417731804,306.2741653682187 537.7748417731804,404.0694981947064" />
  <polygon fill="white" points="341.19788123061187,349.9816682008855 341.19788123061187,310.8635350702904 365.6467144372338,303.8057648536827 365.6467144372338,342.9238979842778" />
  <polygon fill="grey" points="465.333171093626,110.40661996986444 465.333171093626,85.9577867632425 489.7820043002479,78.90001654663479 489.7820043002479,103.34884975325673" />
  <polygon fill="lightgrey" points="465.333171093626,110.40661996986444 465.333171093626,85.9577867632425 451.2176306604105,73.73337015993152 451.2176306604105,98.18220336655347" />
  <polygon fill="darkgrey" points="465.333171093626,85.9577867632425 451.2176306604105,73.73337015993152 475.66646386703246,66.67559994332382 489.7820043002479,78.90001654663479" />
  <polygon fill="hsl(324.0,50.0%,70.71600065166498%)" points="427.6622927582564,405.2702173289524 427.6622927582564,371.6873000363365 433.53001272784564,369.9934351843507 433.53001272784564,403.5763524769666" />
  <polygon fill="hsl(324.0,50.0%,70.71600065166498%)" points="442.33159268222954,401.03555519898777 442.33159268222954,367.45263790637193 436.46387271264024,369.14650275835777 436.4638727126403,402.7294200509736" />
  <polygon fill="hsl(324.0,50.0%,70.71600065166498%)" points="421.7945727886671,373.71366901993247 421.7945727886671,340.46325585892663 426.9288277620577,338.981124113439 426.9288277620577,372.2315372744448" />
  <polygon fill="hsl(324.0,50.0%,70.71600065166498%)" points="443.0650576784282,367.5734089314837 443.0650576784282,334.3229957704779 448.1993126518188,332.8408640249903 448.1993126518188,366.0912771859961" />
  <polygon fill="hsl(324.0,50.0%,70.71600065166498%)" points="426.9288277620577,344.1153790868296 426.9288277620577,338.981124113439 443.0650576784282,334.3229957704779 443.0650576784282,339.4572507438685" />
  <polygon fill="hsl(324.0,50.0%,70.71600065166498%)" points="427.6622927582564,372.0198041679466 427.6622927582564,338.76939100694074 442.33159268222954,334.53472887697615 442.33159268222954,367.7851420379819" />
  <polygon fill="hsl(324.0,50.0%,70.71600065166498%)" points="431.32961773924967,336.04820481639933 431.32961773924967,321.0855188939467 438.66426770123627,318.9681878289644 438.66426770123627,333.93087375141704" />
  <polygon fill="hsl(324.0,50.0%,70.71600065166498%)" points="432.79654773164697,337.28725926145313 432.79654773164697,320.66205268095024 437.1973377088389,319.39165404196086 437.1973377088389,336.01686062246375" />
  <polygon fill="hsl(324.0,50.0%,56.01394996926309%)" points="393.8323564800189,462.96247672798603 393.8323564800189,429.3795594353702 399.70007644960816,427.6856945833843 399.70007644960816,461.26861187600014" />
  <polygon fill="hsl(324.0,50.0%,56.01394996926309%)" points="408.50165640399206,458.7278145980214 408.50165640399206,425.14489730540555 402.6339364344028,426.8387621573914 402.6339364344028,460.4216794500072" />
  <polygon fill="hsl(324.0,50.0%,56.01394996926309%)" points="387.96463651042967,431.405928418966 387.96463651042967,398.15551525796025 393.09889148382024,396.6733835124726 393.09889148382024,429.9237966734784" />
  <polygon fill="hsl(324.0,50.0%,56.01394996926309%)" points="409.23512140019074,425.2656683305173 409.23512140019074,392.01525516951153 414.3693763735813,390.5331234240239 414.3693763735813,423.7835365850297" />
  <polygon fill="hsl(324.0,50.0%,56.01394996926309%)" points="393.09889148382024,401.8076384858632 393.09889148382024,396.6733835124726 409.23512140019074,392.01525516951153 409.23512140019074,397.14951014290216" />
  <polygon fill="hsl(324.0,50.0%,56.01394996926309%)" points="393.8323564800189,429.7120635669802 393.8323564800189,396.4616504059744 408.50165640399206,392.22698827600976 408.50165640399206,425.4774014370156" />
  <polygon fill="hsl(324.0,50.0%,56.01394996926309%)" points="397.4996814610122,393.74046421543295 397.4996814610122,378.7777782929803 404.8343314229988,376.660447227998 404.8343314229988,391.62313315045066" />
  <polygon fill="hsl(324.0,50.0%,56.01394996926309%)" points="398.9666114534095,394.97951866048675 398.9666114534095,378.35431207998386 403.36740143060143,377.0839134409945 403.36740143060143,393.70912002149737" />
  <polygon fill="hsl(324.0,50.0%,51.426934746249444%)" points="456.2541804329088,459.895804310558 456.2541804329088,426.31288701794216 462.12190040249806,424.61902216595627 462.12190040249806,458.20193945857216" />
  <polygon fill="hsl(324.0,50.0%,51.426934746249444%)" points="470.92348035688195,455.6611421805934 470.92348035688195,422.0782248879775 465.05576038729265,423.77208973996335 465.05576038729265,457.35500703257924" />
  <polygon fill="hsl(324.0,50.0%,51.426934746249444%)" points="450.3864604633195,428.33925600153805 450.3864604633195,395.0888428405322 455.52071543671013,393.6067110950446 455.52071543671013,426.85712425605044" />
  <polygon fill="hsl(324.0,50.0%,51.426934746249444%)" points="471.6569453530806,422.19899591308933 471.6569453530806,388.9485827520835 476.7912003264712,387.4664510065959 476.7912003264712,420.71686416760167" />
  <polygon fill="hsl(324.0,50.0%,51.426934746249444%)" points="455.52071543671013,398.74096606843517 455.52071543671013,393.6067110950446 471.6569453530806,388.9485827520835 471.6569453530806,394.08283772547406" />
  <polygon fill="hsl(324.0,50.0%,51.426934746249444%)" points="456.2541804329088,426.6453911495522 456.2541804329088,393.3949779885463 470.92348035688195,389.1603158585817 470.92348035688195,422.41072901958756" />
  <polygon fill="hsl(324.0,50.0%,51.426934746249444%)" points="459.9215054139021,390.6737917980049 459.9215054139021,375.7111058755523 467.2561553758887,373.59377481057 467.2561553758887,388.5564607330226" />
  <polygon fill="hsl(324.0,50.0%,51.426934746249444%)" points="461.3884354062994,391.91284624305877 461.3884354062994,375.2876396625558 465.7892253834913,374.01724102356644 465.7892253834913,390.64244760406933" />
  <polygon fill="hsl(324.0,50.0%,43.8291623991892%)" points="390.2762217880049,503.70955625002136 390.2762217880049,470.1266389574055 396.1439417575942,468.43277410541964 396.1439417575942,502.0156913980355" />
  <polygon fill="hsl(324.0,50.0%,43.8291623991892%)" points="404.945521711978,499.47489412005666 404.945521711978,465.8919768274408 399.0778017423888,467.58584167942666 399.0778017423888,501.16875897204255" />
  <polygon fill="hsl(324.0,50.0%,43.8291623991892%)" points="384.40850181841563,472.15300794100136 384.40850181841563,438.9025947799955 389.5427567918062,437.4204630345079 389.54275679180626,470.67087619551376" />
  <polygon fill="hsl(324.0,50.0%,43.8291623991892%)" points="405.6789867081767,466.0127478525526 405.6789867081767,432.7623346915468 410.81324168156726,431.2802029460592 410.81324168156726,464.53061610706504" />
  <polygon fill="hsl(324.0,50.0%,43.8291623991892%)" points="389.5427567918062,442.5547180078985 389.5427567918062,437.4204630345079 405.6789867081767,432.7623346915468 405.6789867081767,437.89658966493744" />
  <polygon fill="hsl(324.0,50.0%,43.8291623991892%)" points="390.2762217880049,470.45914308901547 390.2762217880049,437.2087299280097 404.945521711978,432.97406779804504 404.945521711978,466.2244809590509" />
  <polygon fill="hsl(324.0,50.0%,43.8291623991892%)" points="393.94354676899815,434.48754373746823 393.94354676899815,419.5248578150156 401.27819673098475,417.4075267500333 401.27819673098475,432.37021267248593" />
  <polygon fill="hsl(324.0,50.0%,43.8291623991892%)" points="395.4104767613955,435.726598182522 395.4104767613955,419.1013916020192 399.8112667385874,417.83099296302976 399.8112667385874,434.45619954353265" />
</svg>
