<?xml version="1.0" encoding="UTF-8"?>
<svg
  xmlns="http://www.w3.org/2000/svg"
  width="848"
  height="600"
  style="background-color:white"
>
  <polygon fill="lightblue" points="358.90433460029294,513.8809641192804 181.05966937578978,359.86296610732165 489.09566539970706,270.9406334950701 666.9403306242102,424.9586315070287" />
  <polygon fill="steelblue" points="181.05966937578978,359.86296610732165 181.05966937578978,175.0413684929713 489.09566539970706,86.11903588071965 489.09566539970706,270.9406334950701" />
  <polygon fill="lightskyblue" points="666.9403306242102,424.9586315070287 666.9403306242102,240.13703389267835 489.09566539970706,86.11903588071965 489.09566539970706,270.9406334950701" />
  <polygon fill="white" points="588.6886779254288,357.1907123817669 588.6886779254288,233.9763139722 567.3473180984885,215.49415421076492 567.3473180984885,338.7085526203319" />
  <polygon fill="antiquewhite" points="500.1201144408641,410.9316285729713 500.1201144408641,306.1993899248394 524.7629941227775,299.0856033158593 524.7629941227775,403.8178419639912" />
  <polygon fill="beige" points="500.1201144408641,410.9316285729713 500.1201144408641,306.1993899248394 485.89254122290384,293.87795008388275 485.89254122290384,398.61018873201465" />
  <polygon fill="bisque" points="500.1201144408641,306.1993899248394 485.89254122290384,293.87795008388275 510.5354209048172,286.7641634749026 524.7629941227775,299.0856033158593" />
  <polygon fill="antiquewhite" points="375.4295860521523,493.7344310880746 375.4295860521523,389.0021924399427 400.07246573406564,381.88840583096254 400.07246573406564,486.62064447909444" />
  <polygon fill="beige" points="375.4295860521523,493.7344310880746 375.4295860521523,389.0021924399427 361.20201283419203,376.680752598986 361.20201283419203,481.4129912471179" />
  <polygon fill="bisque" points="375.4295860521523,389.0021924399427 361.20201283419203,376.680752598986 385.8448925161054,369.5669659900059 400.07246573406564,381.88840583096254" />
  <polygon fill="antiquewhite" points="446.08483273457756,307.69573822148897 446.08483273457756,202.96349957335707 470.72771241649093,195.84971296437695 470.72771241649093,300.5819516125088" />
  <polygon fill="beige" points="446.08483273457756,307.69573822148897 446.08483273457756,202.96349957335707 431.85725951661726,190.64205973240036 431.85725951661726,295.37429838053225" />
  <polygon fill="bisque" points="446.08483273457756,202.96349957335707 431.85725951661726,190.64205973240036 456.5001391985307,183.52827312342023 470.72771241649093,195.84971296437695" />
  <polygon fill="antiquewhite" points="418.1315398156613,349.6353829858656 418.1315398156613,244.9031443377337 442.7744194975747,237.78935772875354 442.77441949757474,342.52159637688544" />
  <polygon fill="beige" points="418.1315398156613,349.6353829858656 418.1315398156613,244.9031443377337 403.903966597701,232.581704496777 403.903966597701,337.3139431449089" />
  <polygon fill="bisque" points="418.1315398156613,244.9031443377337 403.903966597701,232.581704496777 428.54684627961444,225.4679178877969 442.7744194975747,237.78935772875354" />
  <polygon fill="antiquewhite" points="367.758395634568,326.18199776796536 367.758395634568,221.44975911983346 392.4012753164814,214.33597251085334 392.4012753164814,319.0682111589852" />
  <polygon fill="beige" points="367.758395634568,326.18199776796536 367.758395634568,221.44975911983346 353.53082241660775,209.12831927887675 353.53082241660775,313.86055792700864" />
  <polygon fill="bisque" points="367.758395634568,221.44975911983346 353.53082241660775,209.12831927887675 378.1737020985211,202.0145326698966 392.4012753164814,214.33597251085334" />
</svg>
