<?xml version="1.0" encoding="UTF-8"?>
<svg
  xmlns="http://www.w3.org/2000/svg"
  width="848"
  height="600"
  style="background-color:white"
>
  <polygon fill="lightblue" points="381.47169120562074,479.9819635777914 265.28219081939824,379.3589045903009 466.52830879437926,321.2641543971896 582.7178091806018,421.88721338468014" />
  <polygon fill="steelblue" points="265.28219081939824,379.3589045903009 265.28219081939824,178.11278661531986 466.52830879437926,120.01803642220858 466.52830879437926,321.2641543971896" />
  <polygon fill="lightskyblue" points="582.7178091806018,421.88721338468014 582.7178091806018,220.64109540969912 466.52830879437926,120.01803642220858 466.52830879437926,321.2641543971896" />
  <polygon fill="white" points="531.5944290106638,377.6130674301843 531.5944290106638,297.1146202401919 517.6516889643171,285.03985316169303 517.6516889643171,365.53830035168545" />
  <polygon fill="white" points="295.4691085156454,338.4453131853372 295.4691085156454,306.24593430934027 315.5937203131435,300.4364592900291 315.5937203131435,332.63583816602613" />
  <polygon fill="white" points="335.7183321106416,326.826363146715 335.7183321106416,294.626984270718 355.8429439081397,288.8175092514069 355.8429439081397,321.01688812740383" />
  <polygon fill="white" points="375.9675557056378,315.20741310809274 375.9675557056378,283.0080342320957 396.0921675031359,277.19855921278463 396.0921675031359,309.3979380887816" />
  <polygon fill="white" points="416.216779300634,303.5884630694705 416.216779300634,271.3890841934735 436.34139109813214,265.5796091741624 436.34139109813214,297.77898805015934" />
</svg>
