<?xml version="1.0" encoding="UTF-8"?>
<svg
  xmlns="http://www.w3.org/2000/svg"
  width="848"
  height="600"
  style="background-color:white"
>
  <polygon fill="lightblue" points="332.49364905389035,643.9582562299427 82.49364905389035,427.45190528383296 515.5063509461096,302.45190528383284 765.5063509461097,518.9582562299425" />
  <polygon fill="steelblue" points="82.49364905389035,427.45190528383296 82.49364905389035,81.04174377005745 515.5063509461096,-43.958256229942606 515.5063509461096,302.45190528383284" />
  <polygon fill="lightskyblue" points="765.5063509461097,518.9582562299425 765.5063509461097,172.54809471616707 515.5063509461096,-43.958256229942606 515.5063509461096,302.45190528383284" />
  <polygon fill="white" points="655.5063509461096,423.6954618136543 655.5063509461096,250.49038105676655 625.5063509461097,224.50961894323342 625.5063509461097,397.7146997001211" />
  <polygon fill="white" points="147.44555433772325,339.4198729810778 147.44555433772325,270.13784067832273 190.74682452694518,257.63784067832273 190.74682452694518,326.9198729810778" />
  <polygon fill="white" points="234.0480947161671,314.4198729810778 234.0480947161671,245.1378406783227 277.34936490538905,232.63784067832268 277.34936490538905,301.9198729810778" />
  <polygon fill="white" points="320.65063509461095,289.4198729810778 320.65063509461095,220.13784067832268 363.9519052838329,207.63784067832268 363.9519052838329,276.9198729810778" />
  <polygon fill="white" points="407.2531754730548,264.4198729810778 407.2531754730548,195.13784067832268 450.55444566227675,182.63784067832268 450.55444566227675,251.91987298107776" />
</svg>
