<?xml version="1.0" encoding="UTF-8"?>
<svg
  xmlns="http://www.w3.org/2000/svg"
  width="848"
  height="600"
  style="background-color:white"
>
  <polygon fill="lightblue" points="364.85666294904087,522.3106797433991 203.27406119664957,382.3760418162443 483.14333705095913,301.5847409400486 644.7259388033505,441.5193788672034" />
  <polygon fill="steelblue" points="203.27406119664957,382.3760418162443 203.27406119664957,158.48062113279659 483.14333705095913,77.6893202566009 483.14333705095913,301.5847409400486" />
  <polygon fill="lightskyblue" points="644.7259388033505,441.5193788672034 644.7259388033505,217.62395818375572 483.14333705095913,77.6893202566009 483.14333705095913,301.5847409400486" />
  <polygon fill="white" points="573.6295940322982,379.9481381792553 573.6295940322982,268.00042783753145 554.2396818220113,251.20827128627286 554.2396818220113,363.1559816279967" />
  <polygon fill="antiquewhite" points="493.1597137396166,428.77500092360714 493.1597137396166,333.6194471331419 515.5492558079613,327.1561430630462 515.5492558079615,422.3116968535115" />
  <polygon fill="beige" points="493.1597137396166,428.77500092360714 493.1597137396166,333.6194471331419 480.2331055994253,322.4246760989695 480.2331055994253,417.58022988943475" />
  <polygon fill="bisque" points="493.1597137396166,333.6194471331419 480.2331055994253,322.4246760989695 502.62264766777014,315.9613720288738 515.5492558079613,327.1561430630462" />
  <polygon fill="antiquewhite" points="379.8708503064923,504.0063397208106 379.8708503064923,408.85078593034535 402.260392374837,402.3874818602497 402.260392374837,497.54303565071496" />
  <polygon fill="beige" points="379.8708503064923,504.0063397208106 379.8708503064923,408.85078593034535 366.94424216630097,397.65601489617296 366.94424216630097,492.8115686866382" />
  <polygon fill="bisque" points="379.8708503064923,408.85078593034535 366.94424216630097,397.65601489617296 389.33378423464575,391.1927108260773 402.260392374837,402.3874818602497" />
  <polygon fill="antiquewhite" points="444.06540217562707,334.97896978508743 444.06540217562707,239.8234159946222 466.4549442439719,233.36011192452654 466.4549442439719,328.51566571499177" />
  <polygon fill="beige" points="444.06540217562707,334.97896978508743 444.06540217562707,239.8234159946222 431.13879403543575,228.6286449604498 431.13879403543575,323.78419875091504" />
  <polygon fill="bisque" points="444.06540217562707,239.8234159946222 431.13879403543575,228.6286449604498 453.5283361037806,222.16534089035412 466.4549442439719,233.36011192452654" />
</svg>
