<?xml version="1.0" encoding="UTF-8"?>
<svg
  xmlns="http://www.w3.org/2000/svg"
  width="848"
  height="600"
  style="background-color:white"
>
  <polygon fill="lightblue" points="345.1422172653878,521.7824327633829 129.6987482621994,335.20291552717646 502.8577827346122,227.48118102558223 718.3012517378006,414.0606982617887" />
  <polygon fill="steelblue" points="129.6987482621994,335.20291552717646 129.6987482621994,185.93930173821133 502.8577827346122,78.21756723661713 502.8577827346122,227.48118102558223" />
  <polygon fill="lightskyblue" points="718.3012517378006,414.0606982617887 718.3012517378006,264.79708447282354 502.8577827346122,78.21756723661713 502.8577827346122,227.48118102558223" />
  <polygon fill="white" points="587.5988805425329,300.86912447182345 587.5988805425329,159.06869137230655 561.7456642621504,136.6791493039618 561.7456642621504,278.4795824034787" />
  <polygon fill="white" points="659.4133702102624,363.06229688389226 659.4133702102624,221.26186378437538 633.5601539298798,198.8723217160306 633.5601539298798,340.6727548155475" />
  <polygon fill="white" points="204.33055515668195,253.95312311127157 204.33055515668195,194.2476775956855 241.64645860392326,183.4755041455261 241.64645860392326,243.18094966111215" />
  <polygon fill="white" points="297.6203137747852,227.022689485873 297.6203137747852,167.31724397028694 334.93621722202647,156.54507052012752 334.93621722202647,216.2505160357136" />
  <polygon fill="white" points="390.91007239288837,200.09225586047444 390.91007239288837,140.3868103448884 428.22597584012965,129.61463689472896 428.22597584012965,189.32008241031502" />
  <polygon fill="hsl(324.0,50.0%,51.426934746249444%)" points="473.2290929645809,394.7830589027898 473.2290929645809,343.52593392765914 482.1849097919188,340.94061229962085 482.1849097919188,392.1977372747515" />
  <polygon fill="hsl(324.0,50.0%,51.426934746249444%)" points="495.6186350329257,388.3197548326941 495.6186350329257,337.0626298575635 486.66281820558777,339.64795148560177 486.66281820558777,390.90507646073235" />
  <polygon fill="hsl(324.0,50.0%,51.426934746249444%)" points="464.273276137243,346.61875184257985 464.273276137243,295.8691231543317 472.10961586116366,293.6069667297983 472.10961586116366,344.35659541804637" />
  <polygon fill="hsl(324.0,50.0%,51.426934746249444%)" points="496.7381121363429,337.24696094094116 496.7381121363429,286.497332252693 504.5744518602636,284.2351758281595 504.5744518602636,334.9848045164077" />
  <polygon fill="hsl(324.0,50.0%,51.426934746249444%)" points="472.10961586116366,301.4433064537189 472.10961586116366,293.6069667297983 496.7381121363429,286.497332252693 496.7381121363429,294.3336719766137" />
  <polygon fill="hsl(324.0,50.0%,51.426934746249444%)" points="473.2290929645809,344.0334302145416 473.2290929645809,293.2838015262935 495.6186350329257,286.8204974561978 495.6186350329257,337.57012614444596" />
  <polygon fill="hsl(324.0,50.0%,51.426934746249444%)" points="478.8264784816671,289.13049407435716 478.8264784816671,266.2931611646455 490.0212495158395,263.06150912959765 490.0212495158395,285.89884203930933" />
  <polygon fill="hsl(324.0,50.0%,51.426934746249444%)" points="481.0654326885016,291.02164510176 481.0654326885016,265.64683075763594 487.782295309005,263.70783953660725 487.782295309005,289.0826538807313" />
  <polygon fill="hsl(324.0,50.0%,43.8291623991892%)" points="372.52788102402593,461.65536005585955 372.52788102402593,410.3982350807289 381.48369785136384,407.8129134526907 381.48369785136384,459.07003842782126" />
  <polygon fill="hsl(324.0,50.0%,43.8291623991892%)" points="394.9174230923707,455.1920559857639 394.9174230923707,403.93493101063325 385.9616062650328,406.52025263867154 385.9616062650328,457.7773776138022" />
  <polygon fill="hsl(324.0,50.0%,43.8291623991892%)" points="363.572064196688,413.4910529956496 363.572064196688,362.74142430740153 371.4084039206087,360.47926788286804 371.4084039206087,411.2288965711162" />
  <polygon fill="hsl(324.0,50.0%,43.8291623991892%)" points="396.0369001957879,404.119262094011 396.0369001957879,353.36963340576284 403.87323991970857,351.10747698122935 403.87323991970857,401.8571056694775" />
  <polygon fill="hsl(324.0,50.0%,43.8291623991892%)" points="371.4084039206087,368.3156076067887 371.4084039206087,360.47926788286804 396.0369001957879,353.36963340576284 396.0369001957879,361.20597312968346" />
  <polygon fill="hsl(324.0,50.0%,43.8291623991892%)" points="372.52788102402593,410.9057313676114 372.52788102402593,360.15610267936324 394.9174230923707,353.6927986092676 394.9174230923707,404.44242729751574" />
  <polygon fill="hsl(324.0,50.0%,43.8291623991892%)" points="378.1252665411121,356.00279522742693 378.1252665411121,333.1654623177153 389.3200375752845,329.9338102826675 389.3200375752845,352.7711431923791" />
  <polygon fill="hsl(324.0,50.0%,43.8291623991892%)" points="380.3642207479466,357.89394625482976 380.3642207479466,332.5191319107057 387.08108336845004,330.580140689677 387.08108336845004,355.95495503380107" />
</svg>
