<?xml version="1.0" encoding="UTF-8"?>
<svg
  xmlns="http://www.w3.org/2000/svg"
  width="848"
  height="600"
  style="background-color:white"
>
  <polygon fill="lightblue" points="332.49364905389035,643.9582562299427 82.49364905389035,427.45190528383296 515.5063509461096,302.45190528383284 765.5063509461097,518.9582562299425" />
  <polygon fill="steelblue" points="82.49364905389035,427.45190528383296 82.49364905389035,81.04174377005745 515.5063509461096,-43.958256229942606 515.5063509461096,302.45190528383284" />
  <polygon fill="lightskyblue" points="765.5063509461097,518.9582562299425 765.5063509461097,172.54809471616707 515.5063509461096,-43.958256229942606 515.5063509461096,302.45190528383284" />
  <polygon fill="white" points="655.5063509461096,423.6954618136543 655.5063509461096,250.49038105676655 625.5063509461097,224.50961894323342 625.5063509461097,397.7146997001211" />
  <polygon fill="white" points="122.70197137245356,346.56273012393495 122.70197137245356,277.28069782117984 166.0032415616755,264.78069782117984 166.0032415616755,334.06273012393495" />
  <polygon fill="white" points="184.56092878562777,328.70558726679207 184.56092878562777,259.423554964037 227.8621989748497,246.92355496403698 227.8621989748497,316.20558726679207" />
  <polygon fill="white" points="246.41988619880195,310.84844440964923 246.41988619880195,241.56641210689412 289.72115638802387,229.06641210689412 289.72115638802387,298.34844440964923" />
  <polygon fill="white" points="308.27884361197613,292.99130155250634 308.27884361197613,223.70926924975126 351.5801138011981,211.20926924975126 351.5801138011981,280.49130155250634" />
  <polygon fill="white" points="370.13780102515034,275.1341586953635 370.13780102515034,205.8521263926084 413.4390712143723,193.3521263926084 413.4390712143723,262.63415869536345" />
  <polygon fill="white" points="431.9967584383245,257.2770158382206 431.9967584383245,187.99498353546554 475.29802862754644,175.49498353546554 475.29802862754644,244.77701583822062" />
</svg>
