<?xml version="1.0" encoding="UTF-8"?>
<svg
  xmlns="http://www.w3.org/2000/svg"
  width="848"
  height="600"
  style="background-color:white"
>
  <polygon fill="lightblue" points="376.4519052838329,478.7259526419165 246.54809471616707,366.2259526419165 471.5480947161671,301.2740473580835 601.451905283833,413.7740473580836" />
  <polygon fill="steelblue" points="246.54809471616707,366.2259526419165 246.54809471616707,186.22595264191642 471.5480947161671,121.2740473580835 471.5480947161671,301.2740473580835" />
  <polygon fill="lightskyblue" points="601.451905283833,413.7740473580836 601.451905283833,233.77404735808352 471.5480947161671,121.2740473580835 471.5480947161671,301.2740473580835" />
  <polygon fill="white" points="544.2942286340599,364.2740473580835 544.2942286340599,274.2740473580835 528.7057713659401,260.7740473580835 528.7057713659401,350.7740473580835" />
  <polygon fill="white" points="267.4409518590242,324.19470429413195 267.4409518590242,288.19470429413195 289.94095185902427,281.6995137657487 289.94095185902427,317.6995137657487" />
  <polygon fill="white" points="299.5838090018814,314.9158606821558 299.5838090018814,278.9158606821558 322.0838090018814,272.42067015377256 322.0838090018814,308.42067015377256" />
  <polygon fill="white" points="331.7266661447385,305.6370170701797 331.7266661447385,269.6370170701797 354.2266661447385,263.1418265417964 354.2266661447385,299.14182654179643" />
  <polygon fill="white" points="363.86952328759565,296.35817345820357 363.86952328759565,260.35817345820357 386.36952328759565,253.86298292982025 386.36952328759565,289.86298292982025" />
  <polygon fill="white" points="396.0123804304528,287.07932984622744 396.0123804304528,251.07932984622744 418.5123804304528,244.58413931784412 418.5123804304528,280.5841393178441" />
  <polygon fill="white" points="428.15523757330993,277.8004862342513 428.15523757330993,241.8004862342513 450.65523757330993,235.305295705868 450.65523757330993,271.305295705868" />
</svg>
