<?xml version="1.0" encoding="UTF-8"?>
<svg
  xmlns="http://www.w3.org/2000/svg"
  width="848"
  height="600"
  style="background-color:white"
>
  <polygon fill="lightblue" points="372.33353613296754,543.103933339325 231.17813180081325,420.8597673062153 475.66646386703246,350.2820651401381 616.8218681991867,472.52623117324777" />
  <polygon fill="steelblue" points="231.17813180081325,420.8597673062153 231.17813180081325,127.47376882675223 475.66646386703246,56.89606666067505 475.66646386703246,350.2820651401381" />
  <polygon fill="lightskyblue" points="616.8218681991867,472.52623117324777 616.8218681991867,179.1402326937847 475.66646386703246,56.89606666067505 475.66646386703246,350.2820651401381" />
  <polygon fill="white" points="554.7134902930388,418.73879811867954 554.7134902930388,320.94346529219183 537.7748417731804,306.2741653682187 537.7748417731804,404.0694981947064" />
  <polygon fill="white" points="253.88061977839075,375.1879904030559 253.88061977839072,336.0698572724608 278.32945298501267,329.0120870558531 278.32945298501267,368.1302201864482" />
  <polygon fill="white" points="288.8075243592792,365.10546152218774 288.8075243592792,325.98732839159265 313.2563575659011,318.92955817498495 313.2563575659011,358.04769130558003" />
  <polygon fill="white" points="323.7344289401677,355.0229326413196 323.7344289401677,315.9047995107245 348.1832621467896,308.8470292941168 348.1832621467896,347.9651624247119" />
  <polygon fill="white" points="358.6613335210561,344.94040376045143 358.6613335210561,305.82227062985635 383.11016672767806,298.76450041324864 383.11016672767806,337.8826335438437" />
  <polygon fill="white" points="393.5882381019446,334.8578748795833 393.5882381019446,295.73974174898814 418.0370713085665,288.68197153238043 418.0370713085665,327.8001046629755" />
  <polygon fill="white" points="428.5151426828331,324.77534599871507 428.515142682833,285.65721286812 452.96397588945496,278.5994426515123 452.96397588945496,317.71757578210736" />
  <polygon fill="antiquewhite" points="484.4165748696837,461.3929915665059 484.4165748696837,378.2669586639913 503.97564143498124,372.6207424907052 503.97564143498124,455.7467753932197" />
  <polygon fill="beige" points="484.4165748696837,461.3929915665059 484.4165748696837,378.2669586639913 473.12414252311135,368.4874253813426 473.12414252311135,451.61345828385714" />
  <polygon fill="bisque" points="484.4165748696837,378.2669586639913 473.12414252311135,368.4874253813426 492.6832090884089,362.8412092080564 503.97564143498124,372.6207424907052" />
</svg>
