<?xml version="1.0" encoding="UTF-8"?>
<svg
  xmlns="http://www.w3.org/2000/svg"
  width="848"
  height="600"
  style="background-color:white"
>
  <polygon fill="lightblue" points="372.33353613296754,543.103933339325 231.17813180081325,420.8597673062153 475.66646386703246,350.2820651401381 616.8218681991867,472.52623117324777" />
  <polygon fill="steelblue" points="231.17813180081325,420.8597673062153 231.17813180081325,127.47376882675223 475.66646386703246,56.89606666067505 475.66646386703246,350.2820651401381" />
  <polygon fill="lightskyblue" points="616.8218681991867,472.52623117324777 616.8218681991867,179.1402326937847 475.66646386703246,56.89606666067505 475.66646386703246,350.2820651401381" />
  <polygon fill="white" points="554.7134902930388,418.73879811867954 554.7134902930388,320.94346529219183 537.7748417731804,306.2741653682187 537.7748417731804,404.0694981947064" />
  <polygon fill="white" points="259.7017705418722,373.5075689229112 259.7017705418722,334.38943579231614 284.15060374849406,327.3316655757084 284.15060374849406,366.4497987063035" />
  <polygon fill="white" points="300.449825886242,361.7446185618984 300.449825886242,322.6264854313033 324.89865909286397,315.56871521469554 324.89865909286397,354.6868483452906" />
  <polygon fill="white" points="341.19788123061187,349.9816682008855 341.19788123061187,310.8635350702904 365.6467144372338,303.8057648536827 365.6467144372338,342.9238979842778" />
  <polygon fill="white" points="381.9459365749818,338.2187178398726 381.9459365749818,299.10058470927754 406.3947697816037,292.04281449266983 406.3947697816037,331.1609476232649" />
  <polygon fill="white" points="422.6939919193517,326.4557674788598 422.6939919193517,287.3376343482647 447.14282512597356,280.27986413165695 447.14282512597356,319.3979972622521" />
  <polygon fill="antiquewhite" points="484.4165748696837,461.3929915665059 484.4165748696837,378.2669586639913 503.97564143498124,372.6207424907052 503.97564143498124,455.7467753932197" />
  <polygon fill="beige" points="484.4165748696837,461.3929915665059 484.4165748696837,378.2669586639913 473.12414252311135,368.4874253813426 473.12414252311135,451.61345828385714" />
  <polygon fill="bisque" points="484.4165748696837,378.2669586639913 473.12414252311135,368.4874253813426 492.6832090884089,362.8412092080564 503.97564143498124,372.6207424907052" />
  <polygon fill="antiquewhite" points="385.4496369023278,527.113619475701 385.4496369023278,443.9875865731863 405.00870346762537,438.34137039990014 405.00870346762537,521.4674033024147" />
  <polygon fill="beige" points="385.4496369023278,527.113619475701 385.4496369023278,443.9875865731863 374.15720455575547,434.2080532905376 374.15720455575547,517.3340861930521" />
  <polygon fill="bisque" points="385.4496369023278,443.9875865731863 374.15720455575547,434.2080532905376 393.716271121053,428.5618371172514 405.00870346762537,438.34137039990014" />
  <polygon fill="antiquewhite" points="441.5287433577051,379.4546110940975 441.5287433577051,296.32857819158295 461.0878099230026,290.68236201829677 461.0878099230026,373.80839492081134" />
  <polygon fill="beige" points="441.5287433577051,379.4546110940975 441.5287433577051,296.32857819158295 430.2363110111327,286.54904490893415 430.2363110111327,369.6750778114487" />
  <polygon fill="bisque" points="441.5287433577051,296.32857819158295 430.2363110111327,286.54904490893415 449.79537757643027,280.902828735648 461.0878099230026,290.68236201829677" />
  <polygon fill="antiquewhite" points="419.3422000649736,412.7421292031695 419.3422000649736,329.616096300655 438.9012666302712,323.9698801273688 438.9012666302712,407.0959130298834" />
  <polygon fill="beige" points="419.3422000649736,412.7421292031695 419.3422000649736,329.616096300655 408.04976771840126,319.8365630180062 408.04976771840126,402.96259592052076" />
  <polygon fill="bisque" points="419.3422000649736,329.616096300655 408.04976771840126,319.8365630180062 427.60883428369885,314.19034684472 438.9012666302712,323.9698801273688" />
</svg>
