<?xml version="1.0" encoding="UTF-8"?>
<svg
  xmlns="http://www.w3.org/2000/svg"
  width="848"
  height="600"
  style="background-color:white"
>
  <polygon fill="lightblue" points="358.90433460029294,513.8809641192804 181.05966937578978,359.86296610732165 489.09566539970706,270.9406334950701 666.9403306242102,424.9586315070287" />
  <polygon fill="steelblue" points="181.05966937578978,359.86296610732165 181.05966937578978,175.0413684929713 489.09566539970706,86.11903588071965 489.09566539970706,270.9406334950701" />
  <polygon fill="lightskyblue" points="666.9403306242102,424.9586315070287 666.9403306242102,240.13703389267835 489.09566539970706,86.11903588071965 489.09566539970706,270.9406334950701" />
  <polygon fill="white" points="588.6886779254288,357.1907123817669 588.6886779254288,233.9763139722 567.3473180984885,215.49415421076492 567.3473180984885,338.7085526203319" />
  <polygon fill="white" points="209.66301186372493,302.32013300092865 209.66301186372493,253.0343736371019 240.4666114661167,244.14214037587672 240.4666114661167,293.4278997397035" />
  <polygon fill="white" points="253.668154152856,289.6169426277499 253.668154152856,240.3311832639231 284.47175375524773,231.43895000269794 284.47175375524773,280.7247093665247" />
  <polygon fill="white" points="297.673296441987,276.9137522545711 297.673296441987,227.62799289074428 328.47689604437875,218.73575962951912 328.47689604437875,268.0215189933459" />
  <polygon fill="white" points="341.6784387311181,264.21056188139227 341.6784387311181,214.92480251756547 372.4820383335098,206.0325692563403 372.4820383335098,255.3183286201671" />
  <polygon fill="white" points="385.6835810202491,251.50737150821345 385.6835810202491,202.22161214438668 416.4871806226409,193.3293788831615 416.4871806226409,242.6151382469883" />
  <polygon fill="white" points="429.6887233093802,238.80418113503467 429.6887233093802,189.5184217712079 460.4923229117719,180.6261885099827 460.4923229117719,229.91194787380948" />
</svg>
