<?xml version="1.0" encoding="UTF-8"?>
<svg
  xmlns="http://www.w3.org/2000/svg"
  width="848"
  height="600"
  style="background-color:white"
>
  <polygon fill="lightblue" points="364.85666294904087,522.3106797433991 203.27406119664957,382.3760418162443 483.14333705095913,301.5847409400486 644.7259388033505,441.5193788672034" />
  <polygon fill="steelblue" points="203.27406119664957,382.3760418162443 203.27406119664957,158.48062113279659 483.14333705095913,77.6893202566009 483.14333705095913,301.5847409400486" />
  <polygon fill="lightskyblue" points="644.7259388033505,441.5193788672034 644.7259388033505,217.62395818375572 483.14333705095913,77.6893202566009 483.14333705095913,301.5847409400486" />
  <polygon fill="white" points="573.6295940322982,379.9481381792553 573.6295940322982,268.00042783753145 554.2396818220113,251.20827128627286 554.2396818220113,363.1559816279967" />
  <polygon fill="white" points="245.254452574796,325.4782625481254 245.254452574796,280.69917841143587 273.241380160227,272.62004832381626 273.241380160227,317.3991324605058" />
  <polygon fill="white" points="301.2283077456579,309.3200023728862 301.2283077456579,264.5409182361967 329.2152353310889,256.4617881485771 329.2152353310889,301.2408722852667" />
  <polygon fill="white" points="357.20216291651985,293.16174219764713 357.20216291651985,248.38265806095757 385.1890905019508,240.303527973338 385.18909050195083,285.0826121100275" />
  <polygon fill="white" points="413.17601808738175,277.003482022408 413.17601808738175,232.22439788571842 441.1629456728127,224.14526779809887 441.1629456728127,268.9243519347884" />
  <polygon fill="antiquewhite" points="493.1597137396166,428.77500092360714 493.1597137396166,333.6194471331419 515.5492558079613,327.1561430630462 515.5492558079615,422.3116968535115" />
  <polygon fill="beige" points="493.1597137396166,428.77500092360714 493.1597137396166,333.6194471331419 480.2331055994253,322.4246760989695 480.2331055994253,417.58022988943475" />
  <polygon fill="bisque" points="493.1597137396166,333.6194471331419 480.2331055994253,322.4246760989695 502.62264766777014,315.9613720288738 515.5492558079613,327.1561430630462" />
</svg>
