<?xml version="1.0" encoding="UTF-8"?>
<svg
  xmlns="http://www.w3.org/2000/svg"
  width="848"
  height="600"
  style="background-color:white"
>
  <polygon fill="lightblue" points="364.85666294904087,522.3106797433991 203.27406119664957,382.3760418162443 483.14333705095913,301.5847409400486 644.7259388033505,441.5193788672034" />
  <polygon fill="steelblue" points="203.27406119664957,382.3760418162443 203.27406119664957,158.48062113279659 483.14333705095913,77.6893202566009 483.14333705095913,301.5847409400486" />
  <polygon fill="lightskyblue" points="644.7259388033505,441.5193788672034 644.7259388033505,217.62395818375572 483.14333705095913,77.6893202566009 483.14333705095913,301.5847409400486" />
  <polygon fill="white" points="573.6295940322982,379.9481381792553 573.6295940322982,268.00042783753145 554.2396818220113,251.20827128627286 554.2396818220113,363.1559816279967" />
  <polygon fill="white" points="229.2619225259783,330.0949083124794 229.2619225259783,285.3158241757899 257.2488501114093,277.23669408817034 257.2488501114093,322.01577822485984" />
  <polygon fill="white" points="269.2432476480226,318.5532939015943 269.2432476480226,273.77420976490475 297.2301752334535,265.6950796772852 297.2301752334535,310.47416381397477" />
  <polygon fill="white" points="309.22457277006674,307.01167949070924 309.22457277006674,262.2325953540197 337.2115003554977,254.15346526640013 337.2115003554977,298.93254940308964" />
  <polygon fill="white" points="349.205897892111,295.4700650798241 349.205897892111,250.6909809431346 377.19282547754193,242.611850855515 377.192825477542,287.39093499220456" />
  <polygon fill="white" points="389.1872230141552,283.92845066893904 389.1872230141552,239.14936653224947 417.1741505995862,231.07023644462993 417.1741505995862,275.8493205813195" />
  <polygon fill="white" points="429.16854813619943,272.3868362580539 429.16854813619943,227.6077521213644 457.1554757216304,219.52862203374482 457.1554757216304,264.30770617043436" />
</svg>
