<?xml version="1.0" encoding="UTF-8"?>
<svg
  xmlns="http://www.w3.org/2000/svg"
  width="848"
  height="600"
  style="background-color:white"
>
  <polygon fill="lightblue" points="332.49364905389035,600.6569860407207 82.49364905389035,384.15063509461095 515.5063509461096,259.15063509461095 765.5063509461097,475.65698604072065" />
  <polygon fill="steelblue" points="82.49364905389035,384.15063509461095 82.49364905389035,124.34301395927938 515.5063509461096,-0.6569860407206534 515.5063509461096,259.15063509461095" />
  <polygon fill="lightskyblue" points="765.5063509461097,475.65698604072065 765.5063509461097,215.84936490538902 515.5063509461096,-0.6569860407206534 515.5063509461096,259.15063509461095" />
  <polygon fill="white" points="655.5063509461096,380.3941916244323 655.5063509461096,207.18911086754463 625.5063509461097,181.20834875401147 625.5063509461097,354.4134295108992" />
  <polygon fill="white" points="147.44555433772325,296.1186027918559 147.44555433772325,226.83657048910078 190.74682452694518,214.33657048910078 190.74682452694518,283.6186027918559" />
  <polygon fill="white" points="234.0480947161671,271.1186027918559 234.0480947161671,201.83657048910078 277.34936490538905,189.33657048910078 277.34936490538905,258.61860279185584" />
  <polygon fill="white" points="320.65063509461095,246.11860279185586 320.65063509461095,176.83657048910075 363.9519052838329,164.33657048910075 363.9519052838329,233.61860279185584" />
  <polygon fill="white" points="407.2531754730548,221.11860279185584 407.2531754730548,151.83657048910075 450.55444566227675,139.33657048910075 450.55444566227675,208.61860279185584" />
</svg>
