<?xml version="1.0" encoding="UTF-8"?>
<svg
  xmlns="http://www.w3.org/2000/svg"
  width="848"
  height="600"
  style="background-color:white"
>
  <polygon fill="lightblue" points="358.90433460029294,513.8809641192804 181.05966937578978,359.86296610732165 489.09566539970706,270.9406334950701 666.9403306242102,424.9586315070287" />
  <polygon fill="steelblue" points="181.05966937578978,359.86296610732165 181.05966937578978,175.0413684929713 489.09566539970706,86.11903588071965 489.09566539970706,270.9406334950701" />
  <polygon fill="lightskyblue" points="666.9403306242102,424.9586315070287 666.9403306242102,240.13703389267835 489.09566539970706,86.11903588071965 489.09566539970706,270.9406334950701" />
  <polygon fill="white" points="588.6886779254288,357.1907123817669 588.6886779254288,233.9763139722 567.3473180984885,215.49415421076492 567.3473180984885,338.7085526203319" />
  <polygon fill="white" points="216.9972022452468,300.20293460539887 216.9972022452468,250.9171752415721 247.80080184763855,242.02494198034694 247.80080184763855,291.3107013441737" />
  <polygon fill="white" points="268.3365349158997,285.38254583669027 268.3365349158997,236.09678647286347 299.1401345182914,227.2045532116383 299.1401345182914,276.4903125754651" />
  <polygon fill="white" points="319.67586758655256,270.5621570679817 319.67586758655256,221.27639770415487 350.4794671889443,212.38416444292972 350.4794671889443,261.6699238067565" />
  <polygon fill="white" points="371.01520025720544,255.74176829927308 371.01520025720544,206.45600893544628 401.81879985959716,197.56377567422112 401.81879985959716,246.8495350380479" />
  <polygon fill="white" points="422.3545329278584,240.92137953056445 422.3545329278584,191.63562016673768 453.15813253025004,182.74338690551252 453.15813253025004,232.0291462693393" />
  <polygon fill="antiquewhite" points="500.1201144408641,410.9316285729713 500.1201144408641,306.1993899248394 524.7629941227775,299.0856033158593 524.7629941227775,403.8178419639912" />
  <polygon fill="beige" points="500.1201144408641,410.9316285729713 500.1201144408641,306.1993899248394 485.89254122290384,293.87795008388275 485.89254122290384,398.61018873201465" />
  <polygon fill="bisque" points="500.1201144408641,306.1993899248394 485.89254122290384,293.87795008388275 510.5354209048172,286.7641634749026 524.7629941227775,299.0856033158593" />
  <polygon fill="antiquewhite" points="375.4295860521523,493.7344310880746 375.4295860521523,389.0021924399427 400.07246573406564,381.88840583096254 400.07246573406564,486.62064447909444" />
  <polygon fill="beige" points="375.4295860521523,493.7344310880746 375.4295860521523,389.0021924399427 361.20201283419203,376.680752598986 361.20201283419203,481.4129912471179" />
  <polygon fill="bisque" points="375.4295860521523,389.0021924399427 361.20201283419203,376.680752598986 385.8448925161054,369.5669659900059 400.07246573406564,381.88840583096254" />
</svg>
