<?xml version="1.0" encoding="UTF-8"?>
<svg
  xmlns="http://www.w3.org/2000/svg"
  width="848"
  height="600"
  style="background-color:white"
>
  <polygon fill="lightblue" points="332.49364905389035,687.2595264191646 82.49364905389035,470.7531754730548 515.5063509461096,345.7531754730548 765.5063509461097,562.2595264191644" />
  <polygon fill="steelblue" points="82.49364905389035,470.7531754730548 82.49364905389035,37.740473580835555 515.5063509461096,-87.2595264191645 515.5063509461096,345.7531754730548" />
  <polygon fill="lightskyblue" points="765.5063509461097,562.2595264191644 765.5063509461097,129.2468245269452 515.5063509461096,-87.2595264191645 515.5063509461096,345.7531754730548" />
  <polygon fill="white" points="655.5063509461096,466.99673200287623 655.5063509461096,293.7916512459885 625.5063509461097,267.8108891324553 625.5063509461097,441.01596988934307" />
  <polygon fill="white" points="122.70197137245356,389.8640003131569 122.70197137245356,320.5819680104018 166.0032415616755,308.0819680104018 166.0032415616755,377.3640003131569" />
  <polygon fill="white" points="184.56092878562777,372.006857456014 184.56092878562777,302.72482515325896 227.8621989748497,290.2248251532589 227.8621989748497,359.506857456014" />
  <polygon fill="white" points="246.41988619880195,354.1497145988712 246.41988619880195,284.8676822961161 289.72115638802387,272.3676822961161 289.72115638802387,341.6497145988712" />
  <polygon fill="white" points="308.2788436119762,336.2925717417283 308.27884361197613,267.0105394389732 351.5801138011981,254.51053943897318 351.5801138011981,323.7925717417283" />
  <polygon fill="white" points="370.13780102515034,318.4354288845854 370.13780102515034,249.15339658183032 413.4390712143723,236.6533965818303 413.4390712143723,305.9354288845854" />
  <polygon fill="white" points="431.9967584383245,300.5782860274426 431.9967584383245,231.29625372468746 475.29802862754644,218.79625372468746 475.29802862754644,288.0782860274426" />
</svg>
