<?xml version="1.0" encoding="UTF-8"?>
<svg
  xmlns="http://www.w3.org/2000/svg"
  width="848"
  height="600"
  style="background-color:white"
>
  <polygon fill="lightblue" points="369.0961894323342,532.3557158514986 219.09618943233423,402.45190528383284 478.9038105676658,327.45190528383284 628.9038105676658,457.35571585149864" />
  <polygon fill="steelblue" points="219.09618943233423,402.45190528383284 219.09618943233423,142.64428414850133 478.9038105676658,67.6442841485013 478.9038105676658,327.45190528383284" />
  <polygon fill="lightskyblue" points="628.9038105676658,457.35571585149864 628.9038105676658,197.54809471616713 478.9038105676658,67.6442841485013 478.9038105676658,327.45190528383284" />
  <polygon fill="white" points="562.9038105676658,400.1980392017257 562.9038105676658,296.2749907475931 544.9038105676658,280.6865334794732 544.9038105676658,384.6095819336058" />
  <polygon fill="white" points="271.0577136594005,345.88268590217984 271.0577136594005,304.3134665205268 297.0384757729337,296.8134665205268 297.0384757729337,338.38268590217984" />
  <polygon fill="white" points="336.0096189432334,327.13268590217984 336.0096189432334,285.5634665205268 361.9903810567666,278.0634665205268 361.9903810567666,319.63268590217984" />
  <polygon fill="white" points="400.9615242270663,308.38268590217984 400.9615242270663,266.8134665205268 426.9422863405995,259.3134665205268 426.9422863405995,300.88268590217984" />
  <polygon fill="grey" points="467.92304845413264,124.5077321642143 467.92304845413264,98.52697005068114 493.9038105676658,91.02697005068114 493.9038105676658,117.0077321642143" />
  <polygon fill="lightgrey" points="467.92304845413264,124.5077321642143 467.92304845413264,98.52697005068114 452.92304845413264,85.53658899391456 452.92304845413264,111.51735110744772" />
  <polygon fill="darkgrey" points="467.92304845413264,98.52697005068114 452.92304845413264,85.53658899391456 478.9038105676658,78.03658899391456 493.9038105676658,91.02697005068114" />
  <polygon fill="hsl(288.0,50.0%,51.426934746249444%)" points="458.2751812289926,443.9338845134272 458.2751812289926,408.246709674278 464.5105641362406,406.446709674278 464.5105641362406,442.1338845134271" />
  <polygon fill="hsl(288.0,50.0%,51.426934746249444%)" points="473.8636384971125,439.43388451342713 473.8636384971125,403.746709674278 467.6282555898645,405.546709674278 467.6282555898646,441.23388451342714" />
  <polygon fill="hsl(288.0,50.0%,51.426934746249444%)" points="452.0397983217447,410.40004803902207 452.0397983217447,375.066211564617 457.4957583655866,373.49121156461695 457.49575836558665,408.825048039022" />
  <polygon fill="hsl(288.0,50.0%,51.426934746249444%)" points="474.6430613605185,403.87504803902203 474.6430613605185,368.54121156461696 480.0990214043605,366.96621156461697 480.0990214043605,402.30004803902204" />
  <polygon fill="hsl(288.0,50.0%,51.426934746249444%)" points="457.4957583655866,378.9471716084589 457.4957583655866,373.49121156461695 474.6430613605185,368.54121156461696 474.6430613605185,373.9971716084589" />
  <polygon fill="hsl(288.0,50.0%,51.426934746249444%)" points="458.2751812289926,408.60004803902206 458.2751812289926,373.266211564617 473.8636384971125,368.7662115646169 473.8636384971125,404.10004803902206" />
  <polygon fill="hsl(288.0,50.0%,51.426934746249444%)" points="462.1722955460226,370.37451974089674 462.1722955460226,354.47429332741444 469.96652418008256,352.22429332741444 469.96652418008256,368.1245197408967" />
  <polygon fill="hsl(288.0,50.0%,51.426934746249444%)" points="463.7311412728346,371.691211564617 463.7311412728346,354.0242933274144 468.40767845327053,352.67429332741443 468.40767845327053,370.34121156461697" />
</svg>
