<?xml version="1.0" encoding="UTF-8"?>
<svg
  xmlns="http://www.w3.org/2000/svg"
  width="848"
  height="600"
  style="background-color:white"
>
  <polygon fill="lightblue" points="364.85666294904087,522.3106797433991 203.27406119664957,382.3760418162443 483.14333705095913,301.5847409400486 644.7259388033505,441.5193788672034" />
  <polygon fill="steelblue" points="203.27406119664957,382.3760418162443 203.27406119664957,158.48062113279659 483.14333705095913,77.6893202566009 483.14333705095913,301.5847409400486" />
  <polygon fill="lightskyblue" points="644.7259388033505,441.5193788672034 644.7259388033505,217.62395818375572 483.14333705095913,77.6893202566009 483.14333705095913,301.5847409400486" />
  <polygon fill="white" points="573.6295940322982,379.9481381792553 573.6295940322982,268.00042783753145 554.2396818220113,251.20827128627286 554.2396818220113,363.1559816279967" />
  <polygon fill="white" points="235.92547671298567,328.17130591066524 235.92547671298567,283.3922217739757 263.9124042984167,275.31309168635613 263.9124042984167,320.09217582304564" />
  <polygon fill="white" points="282.5703560220373,314.70608909796596 282.5703560220373,269.9270049612764 310.5572836074682,261.84787487365685 310.5572836074682,306.62695901034635" />
  <polygon fill="white" points="329.2152353310889,301.2408722852667 329.2152353310889,256.4617881485771 357.20216291651985,248.38265806095757 357.20216291651985,293.16174219764713" />
  <polygon fill="white" points="375.8601146401405,287.7756554725674 375.86011464014047,242.99657133587786 403.84704222557144,234.91744124825829 403.84704222557144,279.69652538494785" />
  <polygon fill="white" points="422.5049939491921,274.3104386598681 422.5049939491921,229.53135452317855 450.49192153462303,221.452224435559 450.49192153462303,266.23130857224857" />
  <polygon fill="antiquewhite" points="493.1597137396166,428.77500092360714 493.1597137396166,333.6194471331419 515.5492558079613,327.1561430630462 515.5492558079615,422.3116968535115" />
  <polygon fill="beige" points="493.1597137396166,428.77500092360714 493.1597137396166,333.6194471331419 480.2331055994253,322.4246760989695 480.2331055994253,417.58022988943475" />
  <polygon fill="bisque" points="493.1597137396166,333.6194471331419 480.2331055994253,322.4246760989695 502.62264766777014,315.9613720288738 515.5492558079613,327.1561430630462" />
  <polygon fill="antiquewhite" points="379.8708503064923,504.0063397208106 379.8708503064923,408.85078593034535 402.260392374837,402.3874818602497 402.260392374837,497.54303565071496" />
  <polygon fill="beige" points="379.8708503064923,504.0063397208106 379.8708503064923,408.85078593034535 366.94424216630097,397.65601489617296 366.94424216630097,492.8115686866382" />
  <polygon fill="bisque" points="379.8708503064923,408.85078593034535 366.94424216630097,397.65601489617296 389.33378423464575,391.1927108260773 402.260392374837,402.3874818602497" />
</svg>
