<?xml version="1.0" encoding="UTF-8"?>
<svg
  xmlns="http://www.w3.org/2000/svg"
  width="848"
  height="600"
  style="background-color:white"
>
  <polygon fill="lightblue" points="358.90433460029294,513.8809641192804 181.05966937578978,359.86296610732165 489.09566539970706,270.9406334950701 666.9403306242102,424.9586315070287" />
  <polygon fill="steelblue" points="181.05966937578978,359.86296610732165 181.05966937578978,175.0413684929713 489.09566539970706,86.11903588071965 489.09566539970706,270.9406334950701" />
  <polygon fill="lightskyblue" points="666.9403306242102,424.9586315070287 666.9403306242102,240.13703389267835 489.09566539970706,86.11903588071965 489.09566539970706,270.9406334950701" />
  <polygon fill="white" points="216.9972022452468,300.20293460539887 216.9972022452468,250.9171752415721 247.80080184763855,242.02494198034694 247.80080184763855,291.3107013441737" />
  <polygon fill="white" points="268.3365349158997,285.38254583669027 268.3365349158997,236.09678647286347 299.1401345182914,227.2045532116383 299.1401345182914,276.4903125754651" />
  <polygon fill="white" points="319.67586758655256,270.5621570679817 319.67586758655256,221.27639770415487 350.4794671889443,212.38416444292972 350.4794671889443,261.6699238067565" />
  <polygon fill="white" points="371.01520025720544,255.74176829927308 371.01520025720544,206.45600893544628 401.81879985959716,197.56377567422112 401.81879985959716,246.8495350380479" />
  <polygon fill="white" points="422.3545329278584,240.92137953056445 422.3545329278584,191.63562016673768 453.15813253025004,182.74338690551252 453.15813253025004,232.0291462693393" />
  <polygon fill="grey" points="476.07653231976565,153.53810838648914 476.07653231976565,122.73450878409739 506.8801319221574,113.84227552287223 506.8801319221574,144.64587512526398" />
  <polygon fill="lightgrey" points="476.07653231976565,153.53810838648914 476.07653231976565,122.73450878409739 458.29206579731533,107.3327089829015 458.29206579731533,138.13630858529325" />
  <polygon fill="darkgrey" points="476.07653231976565,122.73450878409739 458.29206579731533,107.3327089829015 489.09566539970706,98.44047572167634 506.8801319221574,113.84227552287223" />
  <polygon fill="hsl(288.0,50.0%,70.71600065166498%)" points="428.61419973700475,340.22136393258 428.61419973700475,297.9095395187347 436.0070636415788,295.77540353604064 436.0070636415788,338.08722794988597" />
  <polygon fill="hsl(288.0,50.0%,70.71600065166498%)" points="447.0963594984398,334.8860239758449 447.0963594984398,292.5741995619996 439.7034955938658,294.7083355446936 439.7034955938658,337.02015995853895" />
  <polygon fill="hsl(288.0,50.0%,70.71600065166498%)" points="421.2213358324307,300.46260445602127 421.2213358324307,258.5697089967685 427.690091748933,256.70234001191125 427.690091748933,298.59523547116396" />
  <polygon fill="hsl(288.0,50.0%,70.71600065166498%)" points="448.02046748651156,292.72636151875537 448.02046748651156,250.83346605950263 454.4892234030138,248.96609707464535 454.4892234030138,290.8589925338981" />
  <polygon fill="hsl(288.0,50.0%,70.71600065166498%)" points="427.690091748933,263.1710959284135 427.690091748933,256.70234001191125 448.02046748651156,250.83346605950263 448.02046748651156,257.3022219760049" />
  <polygon fill="hsl(288.0,50.0%,70.71600065166498%)" points="428.61419973700475,298.32846847332723 428.61419973700475,256.43557301407446 447.0963594984398,251.10023305733938 447.0963594984398,292.99312851659215" />
  <polygon fill="hsl(288.0,50.0%,70.71600065166498%)" points="433.2347396773635,253.00709325192807 433.2347396773635,234.15529029526434 442.47581955808107,231.48762031689677 442.47581955808107,250.3394232735605" />
  <polygon fill="hsl(288.0,50.0%,70.71600065166498%)" points="435.08295565350704,254.56820402921718 435.08295565350704,233.62175629959083 440.62760358193754,232.0211543125703 440.62760358193754,252.96760204219666" />
  <polygon fill="hsl(288.0,50.0%,70.0415638934771%)" points="353.0828437590559,364.79539893315706 353.0828437590559,322.4835745193118 360.4757076636299,320.34943853661775 360.4757076636299,362.661262950463" />
  <polygon fill="hsl(288.0,50.0%,70.0415638934771%)" points="371.5650035204909,359.460058976422 371.5650035204909,317.1482345625767 364.1721396159169,319.28237054527074 364.1721396159169,361.594194959116" />
  <polygon fill="hsl(288.0,50.0%,70.0415638934771%)" points="345.68997985448186,325.0366394565983 345.68997985448186,283.1437439973456 352.1587357709841,281.2763750124883 352.1587357709841,323.1692704717411" />
  <polygon fill="hsl(288.0,50.0%,70.0415638934771%)" points="372.48911150856264,317.3003965193325 372.48911150856264,275.4075010600797 378.95786742506493,273.5401320752224 378.95786742506493,315.4330275344752" />
  <polygon fill="hsl(288.0,50.0%,70.0415638934771%)" points="352.1587357709841,287.7451309289906 352.1587357709841,281.2763750124883 372.48911150856264,275.4075010600797 372.48911150856264,281.87625697658194" />
  <polygon fill="hsl(288.0,50.0%,70.0415638934771%)" points="353.0828437590559,322.9025034739043 353.0828437590559,281.0096080146516 371.5650035204909,275.67426805791644 371.5650035204909,317.5671635171692" />
  <polygon fill="hsl(288.0,50.0%,70.0415638934771%)" points="357.70338369941464,277.58112825250515 357.70338369941464,258.7293252958414 366.94446358013215,256.0616553174739 366.94446358013215,274.9134582741376" />
  <polygon fill="hsl(288.0,50.0%,70.0415638934771%)" points="359.5515996755581,279.14223902979427 359.5515996755581,258.1957913001679 365.0962476039887,256.5951893131474 365.0962476039887,277.54163704277374" />
  <polygon fill="hsl(288.0,50.0%,56.01394996926309%)" points="385.99115090345117,412.9090559654178 385.99115090345117,370.5972315515725 393.38401480802514,368.4630955688785 393.38401480802514,410.77491998272376" />
  <polygon fill="hsl(288.0,50.0%,56.01394996926309%)" points="404.4733106648862,407.5737160086827 404.4733106648862,365.2618915948374 397.08044676031216,367.39602757753147 397.08044676031216,409.70785199137674" />
  <polygon fill="hsl(288.0,50.0%,56.01394996926309%)" points="378.59828699887714,373.1502964888591 378.59828699887714,331.25740102960634 385.0670429153794,329.39003204474903 385.0670429153794,371.2829275040018" />
  <polygon fill="hsl(288.0,50.0%,56.01394996926309%)" points="405.3974186529579,365.41405355159316 405.3974186529579,323.52115809234044 411.8661745694602,321.65378910748314 411.8661745694602,363.5466845667359" />
  <polygon fill="hsl(288.0,50.0%,56.01394996926309%)" points="385.0670429153794,335.8587879612513 385.0670429153794,329.39003204474903 405.3974186529579,323.52115809234044 405.3974186529579,329.9899140088427" />
  <polygon fill="hsl(288.0,50.0%,56.01394996926309%)" points="385.99115090345117,371.016160506165 385.99115090345117,329.12326504691225 404.4733106648862,323.78792509017717 404.4733106648862,365.68082054942994" />
  <polygon fill="hsl(288.0,50.0%,56.01394996926309%)" points="390.6116908438099,325.6947852847659 390.6116908438099,306.84298232810215 399.85277072452743,304.1753123497346 399.85277072452743,323.02711530639834" />
  <polygon fill="hsl(288.0,50.0%,56.01394996926309%)" points="392.4599068199534,327.255896062055 392.4599068199534,306.30944833242864 398.0045547483839,304.7088463454081 398.0045547483839,325.6552940750345" />
  <polygon fill="hsl(288.0,50.0%,51.426934746249444%)" points="464.6377208745291,409.04529083356823 464.6377208745291,366.73346641972296 472.03058477910315,364.59933043702887 472.03058477910315,406.91115485087414" />
  <polygon fill="hsl(288.0,50.0%,51.426934746249444%)" points="483.11988063596414,403.7099508768331 483.11988063596414,361.3981264629878 475.7270167313901,363.53226244568185 475.7270167313901,405.8440868595272" />
  <polygon fill="hsl(288.0,50.0%,51.426934746249444%)" points="457.2448569699551,369.2865313570095 457.2448569699551,327.3936358977567 463.7136128864573,325.5262669128995 463.7136128864573,367.4191623721522" />
  <polygon fill="hsl(288.0,50.0%,51.426934746249444%)" points="484.0439886240359,361.5502884197436 484.0439886240359,319.6573929604908 490.51274454053816,317.7900239756336 490.51274454053816,359.68291943488634" />
  <polygon fill="hsl(288.0,50.0%,51.426934746249444%)" points="463.7136128864573,331.9950228294017 463.7136128864573,325.5262669128995 484.0439886240359,319.6573929604908 484.0439886240359,326.1261488769931" />
  <polygon fill="hsl(288.0,50.0%,51.426934746249444%)" points="464.6377208745291,367.15239537431546 464.6377208745291,325.2594999150627 483.11988063596414,319.9241599583276 483.11988063596414,361.8170554175804" />
  <polygon fill="hsl(288.0,50.0%,51.426934746249444%)" points="469.2582608148879,321.83102015291627 469.2582608148879,302.9792171962526 478.4993406956054,300.311547217885 478.4993406956054,319.1633501745487" />
  <polygon fill="hsl(288.0,50.0%,51.426934746249444%)" points="471.10647679103135,323.39213093020544 471.10647679103135,302.445683200579 476.6511247194619,300.8450812135585 476.6511247194619,321.7915289431849" />
  <polygon fill="hsl(288.0,50.0%,43.8291623991892%)" points="381.51070194872125,464.2471591769704 381.51070194872125,421.93533476312507 388.9035658532953,419.8011987804311 388.9035658532953,462.11302319427637" />
  <polygon fill="hsl(288.0,50.0%,43.8291623991892%)" points="399.99286171015626,458.9118192202353 399.99286171015626,416.59999480639 392.5999978055823,418.734130789084 392.5999978055823,461.04595520292935" />
  <polygon fill="hsl(288.0,50.0%,43.8291623991892%)" points="374.1178380441472,424.48839970041166 374.1178380441472,382.5955042411589 380.5865939606495,380.72813525630164 380.5865939606495,422.6210307155544" />
  <polygon fill="hsl(288.0,50.0%,43.8291623991892%)" points="400.91696969822806,416.75215676314576 400.91696969822806,374.85926130389305 407.3857256147303,372.99189231903574 407.3857256147303,414.8847877782885" />
  <polygon fill="hsl(288.0,50.0%,43.8291623991892%)" points="380.5865939606495,387.1968911728039 380.5865939606495,380.72813525630164 400.91696969822806,374.85926130389305 400.91696969822806,381.3280172203953" />
  <polygon fill="hsl(288.0,50.0%,43.8291623991892%)" points="381.51070194872125,422.35426371771763 381.51070194872125,380.46136825846486 399.99286171015626,375.1260283017298 399.99286171015626,417.01892376098255" />
  <polygon fill="hsl(288.0,50.0%,43.8291623991892%)" points="386.13124188908,377.0328884963185 386.13124188908,358.18108553965476 395.3723217697975,355.51341556128716 395.3723217697975,374.3652185179509" />
  <polygon fill="hsl(288.0,50.0%,43.8291623991892%)" points="387.97945786522354,378.5939992736076 387.97945786522354,357.6475515439812 393.52410579365403,356.0469495569607 393.52410579365403,376.9933972865871" />
</svg>
