<?xml version="1.0" encoding="UTF-8"?>
<svg
  xmlns="http://www.w3.org/2000/svg"
  width="848"
  height="600"
  style="background-color:white"
>
  <polygon fill="lightblue" points="369.0961894323342,532.3557158514986 219.09618943233423,402.45190528383284 478.9038105676658,327.45190528383284 628.9038105676658,457.35571585149864" />
  <polygon fill="steelblue" points="219.09618943233423,402.45190528383284 219.09618943233423,142.64428414850133 478.9038105676658,67.6442841485013 478.9038105676658,327.45190528383284" />
  <polygon fill="lightskyblue" points="628.9038105676658,457.35571585149864 628.9038105676658,197.54809471616713 478.9038105676658,67.6442841485013 478.9038105676658,327.45190528383284" />
  <polygon fill="white" points="562.9038105676658,400.1980392017257 562.9038105676658,296.2749907475931 544.9038105676658,280.6865334794732 544.9038105676658,384.6095819336058" />
  <polygon fill="white" points="243.22118282347213,353.9184001878941 243.22118282347213,312.34918080624107 269.20194493700535,304.84918080624107 269.20194493700535,346.4184001878941" />
  <polygon fill="white" points="280.3365572713767,343.2041144736084 280.3365572713767,301.63489509195534 306.3173193849098,294.13489509195534 306.3173193849098,335.7041144736084" />
  <polygon fill="white" points="317.45193171928116,332.4898287593227 317.45193171928116,290.9206093776696 343.4326938328143,283.4206093776696 343.4326938328143,324.9898287593227" />
  <polygon fill="white" points="354.5673061671857,321.77554304503695 354.5673061671857,280.2063236633839 380.54806828071884,272.7063236633839 380.54806828071884,314.27554304503695" />
  <polygon fill="white" points="391.6826806150902,311.06125733075123 391.6826806150902,269.4920379490982 417.66344272862335,261.9920379490982 417.66344272862335,303.56125733075123" />
  <polygon fill="white" points="428.7980550629947,300.34697161646557 428.7980550629947,258.7777522348125 454.77881717652787,251.27775223481248 454.77881717652787,292.84697161646557" />
  <polygon fill="antiquewhite" points="488.20219100593215,445.5248833806312 488.20219100593215,357.19029219461845 508.9868006967587,351.19029219461845 508.9868006967587,439.5248833806312" />
  <polygon fill="beige" points="488.20219100593215,445.5248833806312 488.20219100593215,357.19029219461845 476.20219100593215,346.7979873492052 476.20219100593215,435.13257853521793" />
  <polygon fill="bisque" points="488.20219100593215,357.19029219461845 476.20219100593215,346.7979873492052 496.9868006967587,340.7979873492052 508.9868006967587,351.19029219461845" />
  <polygon fill="antiquewhite" points="383.03412630915756,515.3634718003991 383.03412630915756,427.02888061438637 403.8187359999841,421.02888061438637 403.8187359999841,509.3634718003991" />
  <polygon fill="beige" points="383.03412630915756,515.3634718003991 383.03412630915756,427.02888061438637 371.03412630915756,416.6365757689731 371.03412630915756,504.97116695498585" />
  <polygon fill="bisque" points="383.03412630915756,427.02888061438637 371.03412630915756,416.6365757689731 391.8187359999841,410.6365757689731 403.8187359999841,421.02888061438637" />
  <polygon fill="antiquewhite" points="442.6270693360681,358.45236122668126 442.6270693360681,270.1177700406686 463.4116790268946,264.1177700406686 463.4116790268946,352.45236122668126" />
  <polygon fill="beige" points="442.6270693360681,358.45236122668126 442.6270693360681,270.1177700406686 430.627069336068,259.7254651952553 430.6270693360681,348.060056381268" />
  <polygon fill="bisque" points="442.6270693360681,270.1177700406686 430.627069336068,259.7254651952553 451.4116790268946,253.72546519525528 463.4116790268946,264.1177700406686" />
</svg>
