<?xml version="1.0" encoding="UTF-8"?>
<svg
  xmlns="http://www.w3.org/2000/svg"
  width="848"
  height="600"
  style="background-color:white"
>
  <polygon fill="lightblue" points="345.1422172653878,521.7824327633829 129.6987482621994,335.20291552717646 502.8577827346122,227.48118102558223 718.3012517378006,414.0606982617887" />
  <polygon fill="steelblue" points="129.6987482621994,335.20291552717646 129.6987482621994,185.93930173821133 502.8577827346122,78.21756723661713 502.8577827346122,227.48118102558223" />
  <polygon fill="lightskyblue" points="718.3012517378006,414.0606982617887 718.3012517378006,264.79708447282354 502.8577827346122,78.21756723661713 502.8577827346122,227.48118102558223" />
  <polygon fill="white" points="623.5061253763977,331.9657106778578 623.5061253763977,190.16527757834098 597.652909096015,167.7757355099962 597.652909096015,309.57616860951305" />
  <polygon fill="grey" points="487.08622618768976,159.88995723653497 487.08622618768976,122.57405378929366 524.402129634931,111.80188033913424 524.402129634931,149.11778378637553" />
  <polygon fill="lightgrey" points="487.08622618768976,159.88995723653497 487.08622618768976,122.57405378929366 465.54187928737093,103.91610206567304 465.54187928737093,141.23200551291433" />
  <polygon fill="darkgrey" points="487.08622618768976,122.57405378929366 465.54187928737093,103.91610206567304 502.8577827346122,93.14392861551363 524.402129634931,111.80188033913424" />
  <polygon fill="hsl(360.0,50.0%,51.426934746249444%)" points="473.2290929645809,394.7830589027898 473.2290929645809,343.52593392765914 482.1849097919188,340.94061229962085 482.1849097919188,392.1977372747515" />
  <polygon fill="hsl(360.0,50.0%,51.426934746249444%)" points="495.6186350329257,388.3197548326941 495.6186350329257,337.0626298575635 486.66281820558777,339.64795148560177 486.66281820558777,390.90507646073235" />
  <polygon fill="hsl(360.0,50.0%,51.426934746249444%)" points="464.273276137243,346.61875184257985 464.273276137243,295.8691231543317 472.10961586116366,293.6069667297983 472.10961586116366,344.35659541804637" />
  <polygon fill="hsl(360.0,50.0%,51.426934746249444%)" points="496.7381121363429,337.24696094094116 496.7381121363429,286.497332252693 504.5744518602636,284.2351758281595 504.5744518602636,334.9848045164077" />
  <polygon fill="hsl(360.0,50.0%,51.426934746249444%)" points="472.10961586116366,301.4433064537189 472.10961586116366,293.6069667297983 496.7381121363429,286.497332252693 496.7381121363429,294.3336719766137" />
  <polygon fill="hsl(360.0,50.0%,51.426934746249444%)" points="473.2290929645809,344.0334302145416 473.2290929645809,293.2838015262935 495.6186350329257,286.8204974561978 495.6186350329257,337.57012614444596" />
  <polygon fill="hsl(360.0,50.0%,51.426934746249444%)" points="478.8264784816671,289.13049407435716 478.8264784816671,266.2931611646455 490.0212495158395,263.06150912959765 490.0212495158395,285.89884203930933" />
  <polygon fill="hsl(360.0,50.0%,51.426934746249444%)" points="481.0654326885016,291.02164510176 481.0654326885016,265.64683075763594 487.782295309005,263.70783953660725 487.782295309005,289.0826538807313" />
</svg>
