<?xml version="1.0" encoding="UTF-8"?>
<svg
  xmlns="http://www.w3.org/2000/svg"
  width="848"
  height="600"
  style="background-color:white"
>
  <polygon fill="lightblue" points="369.0961894323342,532.3557158514986 219.09618943233423,402.45190528383284 478.9038105676658,327.45190528383284 628.9038105676658,457.35571585149864" />
  <polygon fill="steelblue" points="219.09618943233423,402.45190528383284 219.09618943233423,142.64428414850133 478.9038105676658,67.6442841485013 478.9038105676658,327.45190528383284" />
  <polygon fill="lightskyblue" points="628.9038105676658,457.35571585149864 628.9038105676658,197.54809471616713 478.9038105676658,67.6442841485013 478.9038105676658,327.45190528383284" />
  <polygon fill="white" points="562.9038105676658,400.1980392017257 562.9038105676658,296.2749907475931 544.9038105676658,280.6865334794732 544.9038105676658,384.6095819336058" />
  <polygon fill="white" points="258.067332602634,349.63268590217984 258.067332602634,308.0634665205268 284.0480947161671,300.5634665205268 284.0480947161671,342.13268590217984" />
  <polygon fill="white" points="310.02885682970026,334.63268590217984 310.02885682970026,293.0634665205268 336.0096189432334,285.5634665205268 336.0096189432334,327.13268590217984" />
  <polygon fill="white" points="361.9903810567666,319.63268590217984 361.9903810567666,278.0634665205268 387.97114317029974,270.5634665205268 387.97114317029974,312.13268590217984" />
  <polygon fill="white" points="413.9519052838329,304.63268590217984 413.9519052838329,263.0634665205268 439.93266739736606,255.56346652052676 439.93266739736606,297.13268590217984" />
  <polygon fill="antiquewhite" points="488.20219100593215,445.5248833806312 488.20219100593215,357.19029219461845 508.9868006967587,351.19029219461845 508.9868006967587,439.5248833806312" />
  <polygon fill="beige" points="488.20219100593215,445.5248833806312 488.20219100593215,357.19029219461845 476.20219100593215,346.7979873492052 476.20219100593215,435.13257853521793" />
  <polygon fill="bisque" points="488.20219100593215,357.19029219461845 476.20219100593215,346.7979873492052 496.9868006967587,340.7979873492052 508.9868006967587,351.19029219461845" />
</svg>
