<?xml version="1.0" encoding="UTF-8"?>
<svg
  xmlns="http://www.w3.org/2000/svg"
  width="848"
  height="600"
  style="background-color:white"
>
  <polygon fill="lightblue" points="332.49364905389035,730.5607966083865 82.49364905389035,514.0544456622767 515.5063509461096,389.05444566227675 765.5063509461097,605.5607966083865" />
  <polygon fill="steelblue" points="82.49364905389035,514.0544456622767 82.49364905389035,-5.560796608386397 515.5063509461096,-130.56079660838645 515.5063509461096,389.05444566227675" />
  <polygon fill="lightskyblue" points="765.5063509461097,605.5607966083865 765.5063509461097,85.94555433772325 515.5063509461096,-130.56079660838645 515.5063509461096,389.05444566227675" />
  <polygon fill="white" points="655.5063509461096,510.2980021920981 655.5063509461096,337.0929214352104 625.5063509461097,311.11215932167727 625.5063509461097,484.31724007856496" />
  <polygon fill="white" points="147.44555433772325,426.0224133595217 147.44555433772325,356.7403810567666 190.74682452694518,344.2403810567666 190.74682452694523,413.5224133595217" />
  <polygon fill="white" points="234.0480947161671,401.0224133595217 234.0480947161671,331.7403810567665 277.34936490538905,319.2403810567665 277.34936490538905,388.5224133595217" />
  <polygon fill="white" points="320.65063509461095,376.0224133595217 320.65063509461095,306.7403810567666 363.9519052838329,294.2403810567666 363.9519052838329,363.5224133595217" />
  <polygon fill="white" points="407.25317547305485,351.02241335952164 407.2531754730548,281.7403810567665 450.55444566227675,269.2403810567665 450.5544456622768,338.52241335952164" />
</svg>
