<?xml version="1.0" encoding="UTF-8"?>
<svg
  xmlns="http://www.w3.org/2000/svg"
  width="848"
  height="600"
  style="background-color:white"
>
  <polygon fill="lightblue" points="381.47169120562074,479.9819635777914 265.28219081939824,379.3589045903009 466.52830879437926,321.2641543971896 582.7178091806018,421.88721338468014" />
  <polygon fill="steelblue" points="265.28219081939824,379.3589045903009 265.28219081939824,178.11278661531986 466.52830879437926,120.01803642220858 466.52830879437926,321.2641543971896" />
  <polygon fill="lightskyblue" points="582.7178091806018,421.88721338468014 582.7178091806018,220.64109540969912 466.52830879437926,120.01803642220858 466.52830879437926,321.2641543971896" />
  <polygon fill="white" points="531.5944290106638,377.6130674301843 531.5944290106638,297.1146202401919 517.6516889643171,285.03985316169303 517.6516889643171,365.53830035168545" />
  <polygon fill="white" points="288.76090458314604,340.38180485844094 288.76090458314604,308.182425982444 308.88551638064416,302.37295096313284 308.88551638064416,334.5723298391298" />
  <polygon fill="white" points="322.30192424564285,330.6993464929224 322.30192424564285,298.4999676169254 342.42653604314097,292.6904925976143 342.42653604314097,324.88987147361127" />
  <polygon fill="white" points="355.8429439081397,321.01688812740383 355.8429439081397,288.8175092514069 375.9675557056378,283.0080342320957 375.9675557056378,315.20741310809274" />
  <polygon fill="white" points="389.3839635706365,311.3344297618853 389.3839635706365,279.13505088588835 409.50857536813464,273.3255758665772 409.50857536813464,305.52495474257415" />
  <polygon fill="white" points="422.9249832331334,301.6519713963668 422.9249832331334,269.45259252036976 443.0495950306315,263.64311750105867 443.0495950306315,295.8424963770556" />
</svg>
