<?xml version="1.0" encoding="UTF-8"?>
<svg
  xmlns="http://www.w3.org/2000/svg"
  width="848"
  height="600"
  style="background-color:white"
>
  <polygon fill="lightblue" points="388.6632281310253,540.2731764907636 229.2644427536336,402.22977902155895 459.3367718689747,335.81361844764575 618.7355572463664,473.8570159168504" />
  <polygon fill="steelblue" points="229.2644427536336,402.22977902155895 229.2644427536336,126.14298408314957 459.3367718689747,59.72682350923637 459.3367718689747,335.81361844764575" />
  <polygon fill="lightskyblue" points="618.7355572463664,473.8570159168504 618.7355572463664,197.77022097844105 459.3367718689747,59.72682350923637 459.3367718689747,335.81361844764575" />
  <polygon fill="white" points="547.0061038265401,411.7374870557083 547.0061038265401,319.70855540957183 531.066225288801,305.9042156626514 531.066225288801,397.93314730878785" />
  <polygon fill="white" points="250.62830188577243,359.25099145266955 250.6283018857724,322.439418794215 273.63553479730655,315.79780273682366 273.63553479730655,352.6093753952782" />
  <polygon fill="white" points="283.49577747367834,349.76296851353914 283.49577747367834,312.9513958550845 306.5030103852124,306.3097797976932 306.5030103852124,343.1213524561478" />
  <polygon fill="white" points="316.36325306158415,340.27494557440866 316.36325306158415,303.46337291595404 339.3704859731183,296.82175685856276 339.3704859731183,333.63332951701733" />
  <polygon fill="white" points="349.23072864949006,330.7869226352782 349.23072864949006,293.97534997682357 372.2379615610242,287.3337339194323 372.2379615610242,324.14530657788686" />
  <polygon fill="white" points="382.0982042373959,321.2988996961477 382.0982042373959,284.48732703769315 405.10543714893004,277.8457109803018 405.10543714893004,314.65728363875644" />
  <polygon fill="white" points="414.9656798253018,311.8108767570173 414.9656798253018,274.9993040985627 437.9729127368359,268.35768804117134 437.97291273683595,305.16926069962597" />
  <polygon fill="antiquewhite" points="486.9701267279233,457.17319056873833 486.9701267279233,378.9485986695223 505.37591305715057,373.63530582360926 505.37591305715057,451.8598977228253" />
  <polygon fill="beige" points="486.9701267279233,457.17319056873833 486.9701267279233,378.9485986695223 476.3435410360972,369.74570550490864 476.3435410360972,447.97029740412466" />
  <polygon fill="bisque" points="486.9701267279233,378.9485986695223 476.3435410360972,369.74570550490864 494.74932736532446,364.4324126589956 505.37591305715057,373.63530582360926" />
  <polygon fill="antiquewhite" points="400.5668706753595,524.8454598718959 400.5668706753595,446.6208679726798 418.9726570045868,441.3075751267668 418.9726570045868,519.5321670259827" />
  <polygon fill="beige" points="400.5668706753595,524.8454598718959 400.5668706753595,446.6208679726798 389.9402849835334,437.4179748080661 389.9402849835334,515.6425667072822" />
  <polygon fill="bisque" points="400.5668706753595,446.6208679726798 389.9402849835334,437.4179748080661 408.34607131276067,432.1046819621531 418.9726570045868,441.3075751267668" />
</svg>
