<?xml version="1.0" encoding="UTF-8"?>
<svg
  xmlns="http://www.w3.org/2000/svg"
  width="848"
  height="600"
  style="background-color:white"
>
  <polygon fill="lightblue" points="383.5494939557267,522.3707128413578 201.0834340885247,364.3504696679086 464.4505060442733,288.3229447232411 646.9165659114753,446.3431878966902" />
  <polygon fill="steelblue" points="201.0834340885247,364.3504696679086 201.0834340885247,153.65681210330976 464.4505060442733,77.6292871586422 464.4505060442733,288.3229447232411" />
  <polygon fill="lightskyblue" points="646.9165659114753,446.3431878966902 646.9165659114753,235.6495303320914 464.4505060442733,77.6292871586422 464.4505060442733,288.3229447232411" />
  <polygon fill="white" points="564.8068389712344,375.23407846863813 564.8068389712344,269.8872496863387 546.5602329845142,254.08522536899378 546.5602329845142,359.43205415129324" />
  <polygon fill="white" points="225.53894791298706,315.15203941012686 225.53894791298706,273.0133078972071 251.87565510856194,265.41055540274033 251.87565510856194,307.5492869156601" />
  <polygon fill="white" points="263.16281533523687,304.2909644180315 263.16281533523687,262.1522329051117 289.49952253081176,254.54948041064495 289.49952253081176,296.6882119235647" />
  <polygon fill="white" points="300.7866827574867,293.42988942593615 300.7866827574867,251.29115791301635 327.1233899530615,243.6884054185496 327.1233899530615,285.8271369314694" />
  <polygon fill="white" points="338.41055017973645,282.56881443384077 338.41055017973645,240.430082920921 364.74725737531134,232.82733042645424 364.74725737531134,274.966061939374" />
  <polygon fill="white" points="376.03441760198626,271.7077394417454 376.03441760198626,229.5690079288256 402.37112479756115,221.96625543435886 402.37112479756115,264.10498694727863" />
  <polygon fill="white" points="413.6582850242361,260.84666444965006 413.6582850242361,218.7079329367303 439.9949922198109,211.10518044226353 439.9949922198109,253.2439119551833" />
</svg>
