<?xml version="1.0" encoding="UTF-8"?>
<svg
  xmlns="http://www.w3.org/2000/svg"
  width="848"
  height="600"
  style="background-color:white"
>
  <polygon fill="lightblue" points="357.49364905389035,622.3076211353316 57.49364905389035,362.5 490.50635094610965,237.49999999999997 790.5063509461097,497.3076211353316" />
  <polygon fill="steelblue" points="57.49364905389035,362.5 57.49364905389035,102.69237886466843 490.50635094610965,-22.3076211353316 490.50635094610965,237.49999999999997" />
  <polygon fill="lightskyblue" points="790.5063509461097,497.3076211353316 790.5063509461097,237.49999999999997 490.50635094610965,-22.3076211353316 490.50635094610965,237.49999999999997" />
  <polygon fill="white" points="655.5063509461096,380.3941916244323 655.5063509461096,207.18911086754463 625.5063509461097,181.20834875401147 625.5063509461097,354.4134295108992" />
  <polygon fill="white" points="108.0117976079826,278.6346343639116 108.0117976079826,209.3526020611565 151.31306779720455,196.8526020611565 151.31306779720455,266.1346343639116" />
  <polygon fill="white" points="180.18058125668583,257.8013010305782 180.18058125668583,188.51926872782315 223.48185144590775,176.01926872782315 223.48185144590775,245.30130103057823" />
  <polygon fill="white" points="252.34936490538905,236.9679676972449 252.34936490538905,167.6859353944898 295.65063509461095,155.1859353944898 295.65063509461095,224.4679676972449" />
  <polygon fill="white" points="324.51814855409225,216.13463436391157 324.51814855409225,146.85260206115646 367.8194187433142,134.35260206115646 367.8194187433142,203.63463436391154" />
  <polygon fill="white" points="396.6869322027955,195.3013010305782 396.6869322027955,126.01926872782312 439.9882023920174,113.51926872782312 439.9882023920174,182.8013010305782" />
</svg>
