<?xml version="1.0" encoding="UTF-8"?>
<svg
  xmlns="http://www.w3.org/2000/svg"
  width="848"
  height="600"
  style="background-color:white"
>
  <polygon fill="lightblue" points="383.5494939557267,522.3707128413578 201.0834340885247,364.3504696679086 464.4505060442733,288.3229447232411 646.9165659114753,446.3431878966902" />
  <polygon fill="steelblue" points="201.0834340885247,364.3504696679086 201.0834340885247,153.65681210330976 464.4505060442733,77.6292871586422 464.4505060442733,288.3229447232411" />
  <polygon fill="lightskyblue" points="646.9165659114753,446.3431878966902 646.9165659114753,235.6495303320914 464.4505060442733,77.6292871586422 464.4505060442733,288.3229447232411" />
  <polygon fill="white" points="253.7568484796744,307.0062331660553 253.7568484796744,264.86750165313555 280.09355567524926,257.2647491586688 280.09355567524926,299.40348067158857" />
  <polygon fill="white" points="319.59861646861157,287.99935192988846 319.59861646861157,245.8606204169687 345.9353236641864,238.25786792250193 345.93532366418646,280.3965994354217" />
  <polygon fill="white" points="385.4403844575487,268.99247069372154 385.4403844575487,226.8537391808018 411.7770916531236,219.25098668633504 411.7770916531236,261.3897181992548" />
  <polygon fill="hsl(360.0,50.0%,50.65955712546234%)" points="465.7457811563676,425.63217931959014 465.7457811563676,389.4560783157485 472.0665908833056,387.6314177170765 472.0665908833056,423.8075187209181" />
  <polygon fill="hsl(360.0,50.0%,50.65955712546234%)" points="481.5478054737126,421.0705278229101 481.5478054737125,384.8944268190685 475.22699574677455,386.71908741774047 475.2269957467746,422.8951884215821" />
  <polygon fill="hsl(360.0,50.0%,50.65955712546234%)" points="459.42497142942966,391.6389181322803 459.42497142942966,355.82099634629856 464.9556799405004,354.2244183224605 464.9556799405004,390.0423401084423" />
  <polygon fill="hsl(360.0,50.0%,50.65955712546234%)" points="482.33790668957977,385.0245234620943 482.33790668957977,349.2066016761125 487.86861520065054,347.61002365227444 487.86861520065054,383.42794543825624" />
  <polygon fill="hsl(360.0,50.0%,50.65955712546234%)" points="464.9556799405004,359.7551268335312 464.9556799405004,354.2244183224605 482.33790668957977,349.2066016761125 482.33790668957977,354.7373101871832" />
  <polygon fill="hsl(360.0,50.0%,50.65955712546234%)" points="465.7457811563676,389.8142575336083 465.7457811563676,353.9963357476265 481.5478054737125,349.4346842509465 481.5478054737125,385.2526060369283" />
  <polygon fill="hsl(360.0,50.0%,50.65955712546234%)" points="469.69628723570383,351.0650267841574 469.69628723570383,334.94696198046563 477.5972993943763,332.6661362321256 477.5972993943763,348.7842010358174" />
  <polygon fill="hsl(360.0,50.0%,50.65955712546234%)" points="471.27648966743834,352.3997577237885 471.27648966743834,334.4907968307976 476.0170969626418,333.1223013817936 476.0170969626418,351.03126227478447" />
  <polygon fill="hsl(360.0,50.0%,42.21758785095096%)" points="402.375044070533,479.49912304711125 402.375044070533,443.3230220432696 408.695853797471,441.4983614445976 408.695853797471,477.6744624484392" />
  <polygon fill="hsl(360.0,50.0%,42.21758785095096%)" points="418.1770683878779,474.9374715504312 418.1770683878779,438.76137054658955 411.85625866093994,440.5860311452616 411.85625866093994,476.7621321491032" />
  <polygon fill="hsl(360.0,50.0%,42.21758785095096%)" points="396.05423434359506,445.5058618598015 396.05423434359506,409.6879400738197 401.58494285466577,408.0913620499816 401.58494285466577,443.9092838359635" />
  <polygon fill="hsl(360.0,50.0%,42.21758785095096%)" points="418.96716960374516,438.89146718961535 418.96716960374516,403.0735454036336 424.4978781148159,401.4769673797956 424.4978781148159,437.29488916577736" />
  <polygon fill="hsl(360.0,50.0%,42.21758785095096%)" points="401.58494285466577,413.6220705610524 401.58494285466577,408.0913620499816 418.96716960374516,403.0735454036336 418.96716960374516,408.6042539147043" />
  <polygon fill="hsl(360.0,50.0%,42.21758785095096%)" points="402.375044070533,443.68120126112944 402.375044070533,407.86327947514764 418.1770683878779,403.3016279784676 418.1770683878779,439.1195497644494" />
  <polygon fill="hsl(360.0,50.0%,42.21758785095096%)" points="406.32555014986923,404.9319705116785 406.32555014986923,388.81390570798675 414.2265623085417,386.53307995964667 414.2265623085417,402.6511447633385" />
  <polygon fill="hsl(360.0,50.0%,42.21758785095096%)" points="407.90575258160374,406.26670145130964 407.90575258160374,388.3577405583187 412.6463598768072,386.9892451093147 412.6463598768072,404.89820600230564" />
</svg>
