<?xml version="1.0" encoding="UTF-8"?>
<svg
  xmlns="http://www.w3.org/2000/svg"
  width="848"
  height="600"
  style="background-color:white"
>
  <polygon fill="lightblue" points="357.49364905389035,708.9101615137754 57.49364905389035,449.10254037844385 490.50635094610965,324.1025403784438 790.5063509461097,583.9101615137754" />
  <polygon fill="steelblue" points="57.49364905389035,449.10254037844385 57.49364905389035,16.08983848622455 490.50635094610965,-108.91016151377545 490.50635094610965,324.1025403784438" />
  <polygon fill="lightskyblue" points="790.5063509461097,583.9101615137754 790.5063509461097,150.89745962155615 490.50635094610965,-108.91016151377545 490.50635094610965,324.1025403784438" />
  <polygon fill="white" points="655.5063509461096,466.99673200287623 655.5063509461096,293.7916512459885 625.5063509461097,267.8108891324553 625.5063509461097,441.01596988934307" />
  <polygon fill="white" points="122.44555433772325,361.0705080756888 122.44555433772325,291.7884757729337 165.7468245269452,279.2884757729337 165.7468245269452,348.57050807568874" />
  <polygon fill="white" points="209.0480947161671,336.07050807568874 209.0480947161671,266.7884757729337 252.34936490538905,254.28847577293368 252.34936490538905,323.5705080756888" />
  <polygon fill="white" points="295.65063509461095,311.0705080756888 295.65063509461095,241.78847577293368 338.9519052838329,229.28847577293365 338.9519052838329,298.5705080756888" />
  <polygon fill="white" points="382.2531754730548,286.0705080756888 382.2531754730548,216.78847577293365 425.55444566227675,204.28847577293362 425.55444566227675,273.57050807568874" />
</svg>
