<?xml version="1.0" encoding="UTF-8"?>
<svg
  xmlns="http://www.w3.org/2000/svg"
  width="848"
  height="600"
  style="background-color:white"
>
  <polygon fill="lightblue" points="357.49364905389035,665.6088913245535 57.49364905389035,405.80127018922195 490.50635094610965,280.8012701892219 790.5063509461097,540.6088913245535" />
  <polygon fill="steelblue" points="57.49364905389035,405.80127018922195 57.49364905389035,59.39110867544653 490.50635094610965,-65.60889132455355 490.50635094610965,280.8012701892219" />
  <polygon fill="lightskyblue" points="790.5063509461097,540.6088913245535 790.5063509461097,194.19872981077805 490.50635094610965,-65.60889132455355 490.50635094610965,280.8012701892219" />
  <polygon fill="white" points="655.5063509461096,423.6954618136543 655.5063509461096,250.49038105676655 625.5063509461097,224.50961894323342 625.5063509461097,397.7146997001211" />
  <polygon fill="white" points="108.0117976079826,321.9359045531335 108.0117976079826,252.6538722503784 151.31306779720455,240.1538722503784 151.31306779720455,309.4359045531335" />
  <polygon fill="white" points="180.18058125668583,301.10257121980015 180.18058125668583,231.8205389170451 223.48185144590775,219.32053891704507 223.48185144590775,288.60257121980015" />
  <polygon fill="white" points="252.34936490538905,280.26923788646684 252.34936490538905,210.98720558371173 295.65063509461095,198.48720558371173 295.65063509461095,267.76923788646684" />
  <polygon fill="white" points="324.51814855409225,259.43590455313347 324.51814855409225,190.15387225037838 367.8194187433142,177.65387225037838 367.8194187433142,246.93590455313347" />
  <polygon fill="white" points="396.6869322027955,238.60257121980013 396.6869322027955,169.32053891704504 439.9882023920174,156.82053891704504 439.9882023920174,226.10257121980013" />
</svg>
