<?xml version="1.0" encoding="UTF-8"?>
<svg
  xmlns="http://www.w3.org/2000/svg"
  width="848"
  height="600"
  style="background-color:white"
>
  <polygon fill="lightblue" points="387.57297136946073,476.53515455164995 223.2562041179109,334.2326598440729 460.42702863053927,265.7673401559271 624.7437958820891,408.0698348635042" />
  <polygon fill="steelblue" points="223.2562041179109,334.2326598440729 223.2562041179109,191.93016513649582 460.42702863053927,123.46484544835005 460.42702863053927,265.7673401559271" />
  <polygon fill="lightskyblue" points="624.7437958820891,408.0698348635042 624.7437958820891,265.7673401559271 460.42702863053927,123.46484544835005 460.42702863053927,265.7673401559271" />
  <polygon fill="white" points="550.8012506188917,344.0337122450945 550.8012506188917,249.16538244004312 534.3695738937367,234.9351329692854 534.3695738937367,329.80346277433677" />
  <polygon fill="white" points="258.8318277948051,286.0155299688305 258.8318277948051,248.06819804680993 282.548910246068,241.22166607799534 282.548910246068,279.1689980000159" />
  <polygon fill="white" points="306.26599269733083,272.3224660312013 306.26599269733083,234.37513410918075 329.9830751485937,227.5286021403662 329.9830751485937,265.4759340623867" />
  <polygon fill="white" points="353.70015759985654,258.62940209357214 353.70015759985654,220.68207017155163 377.41724005111934,213.83553820273704 377.41724005111934,251.78287012475758" />
  <polygon fill="white" points="401.1343225023822,244.936338155943 401.1343225023822,206.98900623392245 424.85140495364504,200.14247426510786 424.85140495364504,238.08980618712843" />
</svg>
