<?xml version="1.0" encoding="UTF-8"?>
<svg
  xmlns="http://www.w3.org/2000/svg"
  width="848"
  height="600"
  style="background-color:white"
>
  <polygon fill="lightblue" points="386.44907656618295,530.879516736014 217.06259136759783,384.1865174962824 461.55092343381705,313.60881533020523 630.9374086324021,460.3018145699368" />
  <polygon fill="steelblue" points="217.06259136759783,384.1865174962824 217.06259136759783,139.6981854300632 461.55092343381705,69.12048326398605 461.55092343381705,313.60881533020523" />
  <polygon fill="lightskyblue" points="630.9374086324021,460.3018145699368 630.9374086324021,215.81348250371758 461.55092343381705,69.12048326398605 461.55092343381705,313.60881533020523" />
  <polygon fill="white" points="327.08234079739645,313.3084183909526 327.08234079739645,274.19028526035754 351.5311740040184,267.13251504374983 351.5311740040184,306.2506481743449" />
  <polygon fill="grey" points="451.2176306604105,122.63103657317541 451.2176306604105,98.18220336655347 475.66646386703246,91.12443314994576 475.66646386703246,115.5732663565677" />
  <polygon fill="lightgrey" points="451.2176306604105,122.63103657317541 451.2176306604105,98.18220336655347 437.1020902271951,85.95778676324252 437.1020902271951,110.40661996986444" />
  <polygon fill="darkgrey" points="451.2176306604105,98.18220336655347 437.1020902271951,85.95778676324252 461.55092343381705,78.90001654663482 475.66646386703246,91.12443314994576" />
  <polygon fill="hsl(324.0,50.0%,72.09185257592405%)" points="416.00975667805864,370.7299918583645 416.00975667805864,337.14707456574865 421.87747664764794,335.45320971376276 421.87747664764794,369.03612700637865" />
  <polygon fill="hsl(324.0,50.0%,72.09185257592405%)" points="430.6790566020318,366.4953297283999 430.6790566020318,332.912412435784 424.81133663244253,334.60627728776984 424.81133663244253,368.18919458038573" />
  <polygon fill="hsl(324.0,50.0%,72.09185257592405%)" points="410.1420367084694,339.17344354934454 410.1420367084694,305.9230303883387 415.27629168186,304.4408986428511 415.27629168186,337.69131180385693" />
  <polygon fill="hsl(324.0,50.0%,72.09185257592405%)" points="431.41252159823046,333.0331834608958 431.41252159823046,299.78277029989 436.5467765716211,298.3006385544024 436.5467765716211,331.5510517154082" />
  <polygon fill="hsl(324.0,50.0%,72.09185257592405%)" points="415.27629168186,309.5751536162417 415.27629168186,304.4408986428511 431.41252159823046,299.78277029989 431.41252159823046,304.9170252732806" />
  <polygon fill="hsl(324.0,50.0%,72.09185257592405%)" points="416.00975667805864,337.4795786973587 416.00975667805864,304.22916553635287 430.6790566020318,299.9945034063882 430.6790566020318,333.24491656739406" />
  <polygon fill="hsl(324.0,50.0%,72.09185257592405%)" points="419.67708165905196,301.5079793458114 419.6770816590519,286.5452934233588 427.0117316210385,284.4279623583765 427.0117316210385,299.3906482808291" />
  <polygon fill="hsl(324.0,50.0%,72.09185257592405%)" points="421.14401165144926,302.74703379086526 421.14401165144926,286.12182721036237 425.5448016286412,284.85142857137294 425.5448016286412,301.4766351518759" />
  <polygon fill="hsl(324.0,50.0%,59.71537400830306%)" points="465.2591751714798,404.9273829756754 465.2591751714798,371.3444656830595 471.1268951410691,369.6506008310737 471.1268951410691,403.2335181236895" />
  <polygon fill="hsl(324.0,50.0%,59.71537400830306%)" points="479.928475095453,400.69272084571077 479.928475095453,367.1098035530949 474.0607551258637,368.80366840508077 474.0607551258637,402.38658569769666" />
  <polygon fill="hsl(324.0,50.0%,59.71537400830306%)" points="459.39145520189055,373.37083466665547 459.39145520189055,340.12042150564963 464.5257101752812,338.63828976016197 464.5257101752812,371.8887029211678" />
  <polygon fill="hsl(324.0,50.0%,59.71537400830306%)" points="480.6619400916516,367.2305745782067 480.6619400916516,333.9801614172009 485.79619506504224,332.49802967171325 485.79619506504224,365.7484428327191" />
  <polygon fill="hsl(324.0,50.0%,59.71537400830306%)" points="464.5257101752812,343.7725447335526 464.5257101752812,338.63828976016197 480.6619400916516,333.9801614172009 480.6619400916516,339.1144163905915" />
  <polygon fill="hsl(324.0,50.0%,59.71537400830306%)" points="465.2591751714798,371.6769698146696 465.2591751714798,338.42655665366374 479.928475095453,334.19189452369915 479.928475095453,367.44230768470493" />
  <polygon fill="hsl(324.0,50.0%,59.71537400830306%)" points="468.92650015247307,335.70537046312234 468.92650015247307,320.7426845406697 476.26115011445967,318.6253534756874 476.26115011445967,333.58803939814" />
  <polygon fill="hsl(324.0,50.0%,59.71537400830306%)" points="470.3934301448704,336.94442490817613 470.3934301448704,320.31921832767324 474.79422012206237,319.04881968868386 474.79422012206237,335.67402626918675" />
  <polygon fill="hsl(324.0,50.0%,50.65955712546234%)" points="462.75335033316776,441.07541734107156 462.75335033316776,407.49250004845567 468.621070302757,405.7986351964698 468.62107030275706,439.38155248908566" />
  <polygon fill="hsl(324.0,50.0%,50.65955712546234%)" points="477.4226502571409,436.84075521110685 477.4226502571409,403.257837918491 471.55493028755166,404.95170277047686 471.55493028755166,438.53462006309275" />
  <polygon fill="hsl(324.0,50.0%,50.65955712546234%)" points="456.8856303635785,409.51886903205155 456.8856303635785,376.2684558710457 462.0198853369691,374.7863241255581 462.0198853369691,408.03673728656395" />
  <polygon fill="hsl(324.0,50.0%,50.65955712546234%)" points="478.1561152533396,403.37860894360284 478.1561152533396,370.128195782597 483.29037022673015,368.6460640371094 483.29037022673015,401.89647719811524" />
  <polygon fill="hsl(324.0,50.0%,50.65955712546234%)" points="462.0198853369691,379.92057909894874 462.0198853369691,374.7863241255581 478.1561152533396,370.128195782597 478.1561152533396,375.26245075598763" />
  <polygon fill="hsl(324.0,50.0%,50.65955712546234%)" points="462.75335033316776,407.82500418006566 462.75335033316776,374.5745910190599 477.4226502571409,370.33992888909523 477.4226502571409,403.59034205010107" />
  <polygon fill="hsl(324.0,50.0%,50.65955712546234%)" points="466.42067531416103,371.8534048285184 466.42067531416103,356.89071890606584 473.75532527614763,354.7733878410835 473.75532527614763,369.7360737635361" />
  <polygon fill="hsl(324.0,50.0%,50.65955712546234%)" points="467.8876053065584,373.0924592735723 467.8876053065584,356.4672526930694 472.28839528375033,355.19685405407995 472.28839528375033,371.8220606345829" />
  <polygon fill="hsl(324.0,50.0%,42.21758785095096%)" points="403.9251692060835,491.0810582423735 403.9251692060835,457.4981409497576 409.79288917567277,455.8042760977718 409.79288917567277,489.38719339038767" />
  <polygon fill="hsl(324.0,50.0%,42.21758785095096%)" points="418.59446913005667,486.8463961124089 418.59446913005667,453.263478819793 412.7267491604674,454.95734367177886 412.7267491604674,488.54026096439475" />
  <polygon fill="hsl(324.0,50.0%,42.21758785095096%)" points="398.0574492364942,459.52450993335356 398.0574492364942,426.2740967723477 403.19170420988485,424.7919650268601 403.19170420988485,458.0423781878659" />
  <polygon fill="hsl(324.0,50.0%,42.21758785095096%)" points="419.3279341262553,453.38424984490484 419.3279341262553,420.13383668389906 424.4621890996459,418.6517049384114 424.4621890996459,451.9021180994172" />
  <polygon fill="hsl(324.0,50.0%,42.21758785095096%)" points="403.19170420988485,429.92622000025074 403.19170420988485,424.7919650268601 419.3279341262553,420.13383668389906 419.3279341262553,425.26809165728963" />
  <polygon fill="hsl(324.0,50.0%,42.21758785095096%)" points="403.9251692060835,457.8306450813677 403.9251692060835,424.5802319203619 418.59446913005667,420.34556979039724 418.59446913005667,453.5959829514031" />
  <polygon fill="hsl(324.0,50.0%,42.21758785095096%)" points="407.5924941870768,421.8590457298204 407.5924941870768,406.89635980736784 414.9271441490634,404.7790287423855 414.9271441490634,419.7417146648381" />
  <polygon fill="hsl(324.0,50.0%,42.21758785095096%)" points="409.0594241794741,423.0981001748743 409.0594241794741,406.4728935943714 413.46021415666604,405.202494955382 413.46021415666604,421.8277015358849" />
  <polygon fill="hsl(324.0,50.0%,41.7579500056716%)" points="519.1517736664669,459.61602013321885 519.1517736664669,426.033102840603 525.019493636056,424.3392379886171 525.019493636056,457.922155281233" />
  <polygon fill="hsl(324.0,50.0%,41.7579500056716%)" points="533.8210735904399,455.38135800325426 533.8210735904399,421.7984407106384 527.9533536208507,423.49230556262427 527.9533536208507,457.0752228552401" />
  <polygon fill="hsl(324.0,50.0%,41.7579500056716%)" points="513.2840536968775,428.0594718241989 513.2840536968775,394.8090586631931 518.4183086702682,393.32692691770546 518.4183086702682,426.57734007871136" />
  <polygon fill="hsl(324.0,50.0%,41.7579500056716%)" points="534.5545385866386,421.9192117357502 534.5545385866386,388.6687985747444 539.6887935600292,387.18666682925675 539.6887935600292,420.4370799902626" />
  <polygon fill="hsl(324.0,50.0%,41.7579500056716%)" points="518.4183086702682,398.4611818910961 518.4183086702682,393.32692691770546 534.5545385866386,388.6687985747444 534.5545385866386,393.803053548135" />
  <polygon fill="hsl(324.0,50.0%,41.7579500056716%)" points="519.1517736664669,426.3656069722131 519.1517736664669,393.1151938112073 533.8210735904399,388.88053168124264 533.8210735904399,422.1309448422485" />
  <polygon fill="hsl(324.0,50.0%,41.7579500056716%)" points="522.8190986474601,390.39400762066583 522.8190986474601,375.4313216982132 530.1537486094467,373.3139906332309 530.1537486094467,388.2766765556835" />
  <polygon fill="hsl(324.0,50.0%,41.7579500056716%)" points="524.2860286398574,391.6330620657196 524.2860286398574,375.00785548521674 528.6868186170493,373.73745684622736 528.6868186170493,390.36266342673025" />
</svg>
