<?xml version="1.0" encoding="UTF-8"?>
<svg
  xmlns="http://www.w3.org/2000/svg"
  width="848"
  height="600"
  style="background-color:white"
>
  <polygon fill="lightblue" points="388.6632281310253,540.2731764907636 229.2644427536336,402.22977902155895 459.3367718689747,335.81361844764575 618.7355572463664,473.8570159168504" />
  <polygon fill="steelblue" points="229.2644427536336,402.22977902155895 229.2644427536336,126.14298408314957 459.3367718689747,59.72682350923637 459.3367718689747,335.81361844764575" />
  <polygon fill="lightskyblue" points="618.7355572463664,473.8570159168504 618.7355572463664,197.77022097844105 459.3367718689747,59.72682350923637 459.3367718689747,335.81361844764575" />
  <polygon fill="white" points="547.0061038265401,411.7374870557083 547.0061038265401,319.70855540957183 531.066225288801,305.9042156626514 531.066225288801,397.93314730878785" />
  <polygon fill="white" points="263.77529212093475,355.4557822770174 263.77529212093475,318.6442096185628 286.7825250324689,312.00259356117147 286.7825250324689,348.8141662196261" />
  <polygon fill="white" points="309.789757944003,342.17255016223476 309.789757944003,305.36097750378013 332.7969908555371,298.7193614463888 332.7969908555371,335.5309341048434" />
  <polygon fill="white" points="355.8042237670712,328.8893180474521 355.8042237670712,292.0777453889975 378.81145667860534,285.4361293316062 378.81145667860534,322.24770199006076" />
  <polygon fill="white" points="401.81868959013946,315.60608593266943 401.81868959013946,278.79451327421486 424.8259225016736,272.15289721682353 424.8259225016736,308.96446987527816" />
  <polygon fill="hsl(324.0,50.0%,50.65955712546234%)" points="460.4682989033595,455.7642834189098 460.4682989033595,424.16154829162656 465.99003480212764,422.56756043785265 465.99003480212764,454.1702955651359" />
  <polygon fill="hsl(324.0,50.0%,50.65955712546234%)" points="474.27263865027993,451.77931378447505 474.27263865027993,420.1765786571918 468.7509027515117,421.7705665109657 468.7509027515117,453.37330163824896" />
  <polygon fill="hsl(324.0,50.0%,50.65955712546234%)" points="454.94656300459127,426.0684345129973 454.94656300459127,394.7785977533109 459.77808191601343,393.3838583812588 459.77808191601343,424.67369514094514" />
  <polygon fill="hsl(324.0,50.0%,50.65955712546234%)" points="474.962855637626,420.29022854306686 474.962855637626,389.0003917833805 479.79437454904814,387.6056524113283 479.79437454904814,418.8954891710147" />
  <polygon fill="hsl(324.0,50.0%,50.65955712546234%)" points="459.77808191601343,398.21537729268096 459.77808191601343,393.3838583812588 474.962855637626,389.0003917833805 474.962855637626,393.8319106948027" />
  <polygon fill="hsl(324.0,50.0%,50.65955712546234%)" points="460.4682989033595,424.4744466592234 460.4682989033595,393.184609899537 474.27263865027993,389.19964026510223 474.27263865027993,420.48947702478864" />
  <polygon fill="hsl(324.0,50.0%,50.65955712546234%)" points="463.9193838400896,390.62387565294404 463.91938384008955,376.5434491110851 470.8215537135498,374.55096429386776 470.8215537135498,388.6313908357266" />
  <polygon fill="hsl(324.0,50.0%,50.65955712546234%)" points="465.29981781478165,391.7898705274848 465.29981781478165,376.1449521476417 469.44111973885776,374.9494612573112 469.44111973885776,390.5943796371544" />
</svg>
