<?xml version="1.0" encoding="UTF-8"?>
<svg
  xmlns="http://www.w3.org/2000/svg"
  width="848"
  height="600"
  style="background-color:white"
>
  <polygon fill="lightblue" points="357.49364905389035,665.6088913245535 57.49364905389035,405.80127018922195 490.50635094610965,280.8012701892219 790.5063509461097,540.6088913245535" />
  <polygon fill="steelblue" points="57.49364905389035,405.80127018922195 57.49364905389035,59.39110867544653 490.50635094610965,-65.60889132455355 490.50635094610965,280.8012701892219" />
  <polygon fill="lightskyblue" points="790.5063509461097,540.6088913245535 790.5063509461097,194.19872981077805 490.50635094610965,-65.60889132455355 490.50635094610965,280.8012701892219" />
  <polygon fill="white" points="655.5063509461096,423.6954618136543 655.5063509461096,250.49038105676655 625.5063509461097,224.50961894323342 625.5063509461097,397.7146997001211" />
  <polygon fill="white" points="97.70197137245356,324.912095029324 97.70197137245356,255.6300627265689 141.0032415616755,243.1300627265689 141.0032415616755,312.412095029324" />
  <polygon fill="white" points="159.56092878562777,307.0549521721811 159.56092878562777,237.77291986942603 202.8621989748497,225.272919869426 202.8621989748497,294.5549521721811" />
  <polygon fill="white" points="221.41988619880195,289.1978093150383 221.41988619880195,219.91577701228317 264.72115638802387,207.41577701228317 264.72115638802387,276.6978093150383" />
  <polygon fill="white" points="283.27884361197613,271.3406664578954 283.27884361197613,202.0586341551403 326.5801138011981,189.55863415514028 326.5801138011981,258.8406664578954" />
  <polygon fill="white" points="345.13780102515034,253.48352360075253 345.13780102515034,184.20149129799745 388.4390712143723,171.70149129799742 388.4390712143723,240.98352360075253" />
  <polygon fill="white" points="406.9967584383245,235.62638074360967 406.9967584383245,166.34434844085456 450.29802862754644,153.84434844085456 450.29802862754644,223.12638074360967" />
</svg>
