<?xml version="1.0" encoding="UTF-8"?>
<svg
  xmlns="http://www.w3.org/2000/svg"
  width="848"
  height="600"
  style="background-color:white"
>
  <polygon fill="lightblue" points="386.44907656618295,530.879516736014 217.06259136759783,384.1865174962824 461.55092343381705,313.60881533020523 630.9374086324021,460.3018145699368" />
  <polygon fill="steelblue" points="217.06259136759783,384.1865174962824 217.06259136759783,139.6981854300632 461.55092343381705,69.12048326398605 461.55092343381705,313.60881533020523" />
  <polygon fill="lightskyblue" points="630.9374086324021,460.3018145699368 630.9374086324021,215.81348250371758 461.55092343381705,69.12048326398605 461.55092343381705,313.60881533020523" />
  <polygon fill="white" points="554.7134902930388,394.2899649120576 554.7134902930388,296.4946320855699 537.7748417731804,281.82533216159675 537.7748417731804,379.62066498808446" />
  <polygon fill="white" points="253.73584117753072,334.4817290407758 253.73584117753072,295.3635959101807 278.18467438415263,288.30582569357296 278.18467438415263,327.42395882416804" />
  <polygon fill="white" points="302.63350759077457,320.36618860756033 302.63350759077457,281.24805547696525 327.08234079739645,274.19028526035754 327.08234079739645,313.3084183909526" />
  <polygon fill="white" points="351.5311740040184,306.2506481743449 351.5311740040184,267.13251504374983 375.98000721064034,260.0747448271421 375.98000721064034,299.1928779577372" />
  <polygon fill="white" points="400.4288404172622,292.1351077411295 400.4288404172622,253.0169746105344 424.87767362388416,245.95920439392665 424.87767362388416,285.07733752452174" />
</svg>
