<?xml version="1.0" encoding="UTF-8"?>
<svg
  xmlns="http://www.w3.org/2000/svg"
  width="848"
  height="600"
  style="background-color:white"
>
  <polygon fill="lightblue" points="398.2422010368691,475.14073439503215 282.05270065064667,374.5176754075416 449.7577989631309,326.1053835799489 565.9472993493533,426.72844256743946" />
  <polygon fill="steelblue" points="282.05270065064667,374.5176754075416 282.05270065064667,173.27155743256054 449.7577989631309,124.85926560496785 449.7577989631309,326.1053835799489" />
  <polygon fill="lightskyblue" points="565.9472993493533,426.72844256743946 565.9472993493533,225.48232459245838 449.7577989631309,124.85926560496785 449.7577989631309,326.1053835799489" />
  <polygon fill="white" points="513.6620241755533,381.4480660230687 513.6620241755533,314.366026698075 502.04307413693095,304.30372079932596 502.04307413693095,371.38576012431963" />
  <polygon fill="white" points="297.6253169225202,343.1894325792677 297.62531692252014,316.3566168492702 314.3958267537686,311.51538766651095 314.3958267537686,338.34820339650844" />
  <polygon fill="white" points="321.58318811001794,336.27339088961156 321.58318811001794,309.4405751596141 338.3536979412663,304.5993459768548 338.3536979412663,331.4321617068523" />
  <polygon fill="white" points="345.5410592975157,329.3573491999555 345.5410592975157,302.524533469958 362.31156912876406,297.6833042871987 362.31156912876406,324.5161200171962" />
  <polygon fill="white" points="369.49893048501343,322.4413075102994 369.49893048501343,295.6084917803019 386.2694403162618,290.76726259754264 386.2694403162618,317.6000783275401" />
  <polygon fill="white" points="393.4568016725112,315.52526582064326 393.4568016725112,288.69245009064576 410.2273115037596,283.8512209078865 410.2273115037596,310.684036637884" />
  <polygon fill="white" points="417.4146728600089,308.6092241309872 417.41467286000886,281.7764084009897 434.1851826912573,276.9351792182304 434.18518269125735,303.7679949482279" />
</svg>
