<?xml version="1.0" encoding="UTF-8"?>
<svg
  xmlns="http://www.w3.org/2000/svg"
  width="848"
  height="600"
  style="background-color:white"
>
  <polygon fill="lightblue" points="388.6632281310253,540.2731764907636 229.2644427536336,402.22977902155895 459.3367718689747,335.81361844764575 618.7355572463664,473.8570159168504" />
  <polygon fill="steelblue" points="229.2644427536336,402.22977902155895 229.2644427536336,126.14298408314957 459.3367718689747,59.72682350923637 459.3367718689747,335.81361844764575" />
  <polygon fill="lightskyblue" points="618.7355572463664,473.8570159168504 618.7355572463664,197.77022097844105 459.3367718689747,59.72682350923637 459.3367718689747,335.81361844764575" />
  <polygon fill="white" points="547.0061038265401,411.7374870557083 547.0061038265401,319.70855540957183 531.066225288801,305.9042156626514 531.066225288801,397.93314730878785" />
  <polygon fill="white" points="275.27890857670184,352.1349742483217 275.27890857670184,315.32340158986716 298.28614148823596,308.6817855324758 298.28614148823596,345.4933581909304" />
  <polygon fill="white" points="332.7969908555371,335.5309341048434 332.7969908555371,298.7193614463888 355.8042237670712,292.0777453889975 355.8042237670712,328.8893180474521" />
  <polygon fill="white" points="390.3150731343724,318.9268939613651 390.3150731343724,282.1153213029105 413.32230604590654,275.4737052455192 413.32230604590654,312.2852779039738" />
  <polygon fill="antiquewhite" points="486.9701267279233,457.17319056873833 486.9701267279233,378.9485986695223 505.37591305715057,373.63530582360926 505.37591305715057,451.8598977228253" />
  <polygon fill="beige" points="486.9701267279233,457.17319056873833 486.9701267279233,378.9485986695223 476.3435410360972,369.74570550490864 476.3435410360972,447.97029740412466" />
  <polygon fill="bisque" points="486.9701267279233,378.9485986695223 476.3435410360972,369.74570550490864 494.74932736532446,364.4324126589956 505.37591305715057,373.63530582360926" />
</svg>
