<?xml version="1.0" encoding="UTF-8"?>
<svg
  xmlns="http://www.w3.org/2000/svg"
  width="848"
  height="600"
  style="background-color:white"
>
  <polygon fill="lightblue" points="383.5494939557267,522.3707128413578 201.0834340885247,364.3504696679086 464.4505060442733,288.3229447232411 646.9165659114753,446.3431878966902" />
  <polygon fill="steelblue" points="201.0834340885247,364.3504696679086 201.0834340885247,153.65681210330976 464.4505060442733,77.6292871586422 464.4505060442733,288.3229447232411" />
  <polygon fill="lightskyblue" points="646.9165659114753,446.3431878966902 646.9165659114753,235.6495303320914 464.4505060442733,77.6292871586422 464.4505060442733,288.3229447232411" />
  <polygon fill="white" points="564.8068389712344,375.23407846863813 564.8068389712344,269.8872496863387 546.5602329845142,254.08522536899378 546.5602329845142,359.43205415129324" />
  <polygon fill="white" points="240.58849488188702,310.80760941328873 240.58849488188702,268.66887790036895 266.92520207746185,261.0661254059022 266.92520207746185,303.204856918822" />
  <polygon fill="white" points="293.26190927303674,295.6021044243552 293.26190927303674,253.46337291143544 319.59861646861157,245.8606204169687 319.59861646861157,287.99935192988846" />
  <polygon fill="white" points="345.93532366418646,280.3965994354217 345.9353236641864,238.25786792250193 372.2720308597613,230.65511542803517 372.2720308597613,272.79384694095495" />
  <polygon fill="white" points="398.6087380553362,265.1910944464882 398.6087380553362,223.05236293356842 424.945445250911,215.44961043910166 424.945445250911,257.58834195202144" />
  <polygon fill="antiquewhite" points="496.08280092084203,427.24497540043404 496.08280092084203,337.7001709354795 517.1521666773019,331.6179689399061 517.1521666773019,421.1627734048606" />
  <polygon fill="beige" points="496.08280092084203,427.24497540043404 496.08280092084203,337.7001709354795 483.9183969296952,327.16548805724955 483.9183969296952,416.7102925222041" />
  <polygon fill="bisque" points="496.08280092084203,337.7001709354795 483.9183969296952,327.16548805724955 504.9877626861551,321.0832860616762 517.1521666773019,331.6179689399061" />
</svg>
