<?xml version="1.0" encoding="UTF-8"?>
<svg
  xmlns="http://www.w3.org/2000/svg"
  width="848"
  height="600"
  style="background-color:white"
>
  <polygon fill="lightblue" points="357.49364905389035,708.9101615137754 57.49364905389035,449.10254037844385 490.50635094610965,324.1025403784438 790.5063509461097,583.9101615137754" />
  <polygon fill="steelblue" points="57.49364905389035,449.10254037844385 57.49364905389035,16.08983848622455 490.50635094610965,-108.91016151377545 490.50635094610965,324.1025403784438" />
  <polygon fill="lightskyblue" points="790.5063509461097,583.9101615137754 790.5063509461097,150.89745962155615 490.50635094610965,-108.91016151377545 490.50635094610965,324.1025403784438" />
  <polygon fill="white" points="655.5063509461096,466.99673200287623 655.5063509461096,293.7916512459885 625.5063509461097,267.8108891324553 625.5063509461097,441.01596988934307" />
  <polygon fill="white" points="97.70197137245356,368.21336521854596 97.70197137245356,298.9313329157908 141.0032415616755,286.4313329157908 141.0032415616755,355.71336521854596" />
  <polygon fill="white" points="159.56092878562777,350.35622236140307 159.56092878562777,281.07419005864796 202.8621989748497,268.57419005864796 202.8621989748497,337.85622236140307" />
  <polygon fill="white" points="221.41988619880195,332.4990795042602 221.41988619880195,263.2170472015051 264.72115638802387,250.7170472015051 264.72115638802387,319.9990795042602" />
  <polygon fill="white" points="283.2788436119762,314.64193664711735 283.27884361197613,245.35990434436223 326.5801138011981,232.85990434436223 326.5801138011981,302.14193664711735" />
  <polygon fill="white" points="345.13780102515034,296.78479378997446 345.13780102515034,227.50276148721935 388.4390712143723,215.00276148721935 388.4390712143723,284.28479378997446" />
  <polygon fill="white" points="406.9967584383245,278.9276509328316 406.9967584383245,209.6456186300765 450.29802862754644,197.14561863007648 450.29802862754644,266.4276509328316" />
</svg>
