<?xml version="1.0" encoding="UTF-8"?>
<svg
  xmlns="http://www.w3.org/2000/svg"
  width="848"
  height="600"
  style="background-color:white"
>
  <polygon fill="lightblue" points="376.88430417470033,528.3353036748817 164.35259033817812,344.2774403826088 471.11569582529967,255.7225596173912 683.6474096618219,439.78042290966414" />
  <polygon fill="steelblue" points="164.35259033817812,344.2774403826088 164.35259033817812,160.2195770903359 471.11569582529967,71.66469632511829 471.11569582529967,255.7225596173912" />
  <polygon fill="lightskyblue" points="683.6474096618219,439.78042290966414 683.6474096618219,255.7225596173912 471.11569582529967,71.66469632511829 471.11569582529967,255.7225596173912" />
  <polygon fill="white" points="588.0081384353869,356.9543844281413 588.0081384353869,240.3844043430351 566.7549670517346,221.97861801380782 566.7549670517346,338.548598098914" />
  <polygon fill="white" points="200.14161931167564,284.8639407487273 200.14161931167564,235.78184387078784 230.81792986038784,226.9263557942661 230.81792986038784,276.0084526722055" />
  <polygon fill="white" points="251.26880355952923,270.1047939545244 251.26880355952923,221.0226970765849 281.9451141082414,212.16720900006317 281.9451141082414,261.2493058780026" />
  <polygon fill="white" points="302.3959878073828,255.34564716032142 302.3959878073828,206.26355028238197 333.07229835609496,197.40806220586023 333.07229835609496,246.49015908379965" />
  <polygon fill="white" points="353.5231720552364,240.58650036611849 353.5231720552364,191.50440348817904 384.1994826039486,182.6489154116573 384.1994826039486,231.73101228959672" />
  <polygon fill="white" points="404.65035630309,225.82735357191555 404.65035630309,176.7452566939761 435.32666685180214,167.88976861745434 435.32666685180214,216.97186549539379" />
  <polygon fill="hsl(288.0,50.0%,50.65955712546234%)" points="472.6243985378126,415.65677957907667 472.6243985378126,373.51979940936565 479.98671306950354,371.3944822710004 479.98671306950354,413.53146244071144" />
  <polygon fill="hsl(288.0,50.0%,50.65955712546234%)" points="491.0301848670399,410.3434867331636 491.0301848670399,368.2065065634526 483.667870335349,370.3318237018178 483.667870335349,412.46880387152885" />
  <polygon fill="hsl(288.0,50.0%,50.65955712546234%)" points="465.2620840061217,376.06231437119334 465.2620840061217,334.34253202494483 471.70410922135125,332.48287952887523 471.70410922135125,374.2026618751238" />
  <polygon fill="hsl(288.0,50.0%,50.65955712546234%)" points="491.9504741835013,368.3580397446194 491.9504741835013,326.63825739837085 498.3924993987308,324.7786049023013 498.3924993987308,366.4983872485498" />
  <polygon fill="hsl(288.0,50.0%,50.65955712546234%)" points="471.70410922135125,338.92490474410477 471.70410922135125,332.48287952887523 491.9504741835013,326.63825739837085 491.9504741835013,333.08028261360045" />
  <polygon fill="hsl(288.0,50.0%,50.65955712546234%)" points="472.6243985378126,373.9369972328281 472.6243985378126,332.2172148865796 491.0301848670399,326.90392204066654 491.0301848670399,368.62370438691505" />
  <polygon fill="hsl(288.0,50.0%,50.65955712546234%)" points="477.2258451201194,328.8029025577889 477.2258451201194,310.02900050197707 486.4287382847331,307.3723540790205 486.4287382847331,326.14625613483236" />
  <polygon fill="hsl(288.0,50.0%,50.65955712546234%)" points="479.06642375304216,330.35756239051 479.06642375304216,309.49767121738574 484.5881596518103,307.90368336361183 484.5881596518103,328.7635745367361" />
</svg>
