<?xml version="1.0" encoding="UTF-8"?>
<svg
  xmlns="http://www.w3.org/2000/svg"
  width="848"
  height="600"
  style="background-color:white"
>
  <polygon fill="lightblue" points="370.06599194096896,526.2630646002774 126.77791211803299,315.5694070356785 477.93400805903104,214.19937377612183 721.222087881967,424.8930313407207" />
  <polygon fill="steelblue" points="126.77791211803299,315.5694070356785 126.77791211803299,175.1069686592793 477.93400805903104,73.7369353997226 477.93400805903104,214.19937377612183" />
  <polygon fill="lightskyblue" points="721.222087881967,424.8930313407207 721.222087881967,284.4305929643215 477.93400805903104,73.7369353997226 477.93400805903104,214.19937377612183" />
  <polygon fill="white" points="226.27213930131578,230.66292226157776 226.27213930131578,174.47794691101808 261.3877488954156,164.34094358506238 261.3877488954156,220.5259189356221" />
  <polygon fill="white" points="343.32417128164843,196.87291117505885 343.32417128164843,140.68793582449916 378.4397808757483,130.55093249854346 378.4397808757483,186.73590784910317" />
  <polygon fill="hsl(288.0,50.0%,50.65955712546234%)" points="479.6610415418235,397.27835323792056 479.6610415418235,349.04355189946506 488.0887878444075,346.61067110123565 488.0887878444075,394.8454724396912" />
  <polygon fill="hsl(288.0,50.0%,50.65955712546234%)" points="500.73040729828335,391.1961512423471 500.73040729828335,342.96134990389163 492.3026609956994,345.39423070212104 492.3026609956994,393.62903204057653" />
  <polygon fill="hsl(288.0,50.0%,50.65955712546234%)" points="471.2332952392395,351.9540049881742 471.2332952392395,304.19677594019845 478.6075732540005,302.06800524174776 478.6075732540005,349.8252342897235" />
  <polygon fill="hsl(288.0,50.0%,50.65955712546234%)" points="501.7838755861064,343.13481209459275 501.7838755861064,295.377583046617 509.15815360086737,293.2488123481663 509.15815360086737,341.00604139614205" />
  <polygon fill="hsl(288.0,50.0%,50.65955712546234%)" points="478.6075732540005,309.4422832565087 478.6075732540005,302.06800524174776 501.7838755861064,295.377583046617 501.7838755861064,302.75186106137795" />
  <polygon fill="hsl(288.0,50.0%,50.65955712546234%)" points="479.6610415418235,349.5211241899448 479.6610415418235,301.76389514196904 500.73040729828335,295.6816931463957 500.73040729828335,343.4389221943714" />
  <polygon fill="hsl(288.0,50.0%,50.65955712546234%)" points="484.92838298093847,297.8554831906769 484.92838298093847,276.3647301190879 495.4630658591684,273.32362912130117 495.4630658591684,294.8143821928902" />
  <polygon fill="hsl(288.0,50.0%,50.65955712546234%)" points="487.03531955658445,299.63512444351835 487.03531955658445,275.7565099195305 493.3561292835224,273.9318493208585 493.3561292835224,297.81046384484637" />
</svg>
