<?xml version="1.0" encoding="UTF-8"?>
<svg
  xmlns="http://www.w3.org/2000/svg"
  width="848"
  height="600"
  style="background-color:white"
>
  <polygon fill="lightblue" points="388.6632281310253,540.2731764907636 229.2644427536336,402.22977902155895 459.3367718689747,335.81361844764575 618.7355572463664,473.8570159168504" />
  <polygon fill="steelblue" points="229.2644427536336,402.22977902155895 229.2644427536336,126.14298408314957 459.3367718689747,59.72682350923637 459.3367718689747,335.81361844764575" />
  <polygon fill="lightskyblue" points="618.7355572463664,473.8570159168504 618.7355572463664,197.77022097844105 459.3367718689747,59.72682350923637 459.3367718689747,335.81361844764575" />
  <polygon fill="white" points="520.4396395969749,388.7302541441742 520.4396395969749,296.7013224980377 504.4997610592357,282.89698275111726 504.4997610592357,374.92591439725373" />
  <polygon fill="white" points="573.5725680561054,434.7447199672424 573.5725680561054,342.71578832110595 557.6326895183663,328.9114485741855 557.6326895183663,420.94038022032197" />
  <polygon fill="white" points="263.77529212093475,355.4557822770174 263.77529212093475,318.6442096185628 286.7825250324689,312.00259356117147 286.7825250324689,348.8141662196261" />
  <polygon fill="white" points="309.789757944003,342.17255016223476 309.789757944003,305.36097750378013 332.7969908555371,298.7193614463888 332.7969908555371,335.5309341048434" />
  <polygon fill="white" points="355.8042237670712,328.8893180474521 355.8042237670712,292.0777453889975 378.81145667860534,285.4361293316062 378.81145667860534,322.24770199006076" />
  <polygon fill="white" points="401.81868959013946,315.60608593266943 401.81868959013946,278.79451327421486 424.8259225016736,272.15289721682353 424.8259225016736,308.96446987527816" />
  <polygon fill="hsl(324.0,50.0%,50.65955712546234%)" points="460.4682989033595,455.7642834189098 460.4682989033595,424.16154829162656 465.99003480212764,422.56756043785265 465.99003480212764,454.1702955651359" />
  <polygon fill="hsl(324.0,50.0%,50.65955712546234%)" points="474.27263865027993,451.77931378447505 474.27263865027993,420.1765786571918 468.7509027515117,421.7705665109657 468.7509027515117,453.37330163824896" />
  <polygon fill="hsl(324.0,50.0%,50.65955712546234%)" points="454.94656300459127,426.0684345129973 454.94656300459127,394.7785977533109 459.77808191601343,393.3838583812588 459.77808191601343,424.67369514094514" />
  <polygon fill="hsl(324.0,50.0%,50.65955712546234%)" points="474.962855637626,420.29022854306686 474.962855637626,389.0003917833805 479.79437454904814,387.6056524113283 479.79437454904814,418.8954891710147" />
  <polygon fill="hsl(324.0,50.0%,50.65955712546234%)" points="459.77808191601343,398.21537729268096 459.77808191601343,393.3838583812588 474.962855637626,389.0003917833805 474.962855637626,393.8319106948027" />
  <polygon fill="hsl(324.0,50.0%,50.65955712546234%)" points="460.4682989033595,424.4744466592234 460.4682989033595,393.184609899537 474.27263865027993,389.19964026510223 474.27263865027993,420.48947702478864" />
  <polygon fill="hsl(324.0,50.0%,50.65955712546234%)" points="463.9193838400896,390.62387565294404 463.91938384008955,376.5434491110851 470.8215537135498,374.55096429386776 470.8215537135498,388.6313908357266" />
  <polygon fill="hsl(324.0,50.0%,50.65955712546234%)" points="465.29981781478165,391.7898705274848 465.29981781478165,376.1449521476417 469.44111973885776,374.9494612573112 469.44111973885776,390.5943796371544" />
  <polygon fill="hsl(324.0,50.0%,42.21758785095096%)" points="405.10886094923427,502.8213931543218 405.10886094923427,471.21865802703854 410.6305968480024,469.6246701732646 410.6305968480024,501.22740530054784" />
  <polygon fill="hsl(324.0,50.0%,42.21758785095096%)" points="418.9132006961547,498.83642351988703 418.9132006961547,467.23368839260377 413.39146479738656,468.8276762463777 413.39146479738656,500.43041137366095" />
  <polygon fill="hsl(324.0,50.0%,42.21758785095096%)" points="399.58712505046606,473.1255442484093 399.58712505046606,441.8357074887229 404.4186439618882,440.4409681166708 404.4186439618882,471.7308048763571" />
  <polygon fill="hsl(324.0,50.0%,42.21758785095096%)" points="419.6034176835007,467.34733827847884 419.6034176835007,436.0575015187925 424.4349365949229,434.6627621467403 424.4349365949229,465.9525989064267" />
  <polygon fill="hsl(324.0,50.0%,42.21758785095096%)" points="404.4186439618882,445.2724870280929 404.4186439618882,440.4409681166708 419.6034176835007,436.0575015187925 419.6034176835007,440.8890204302146" />
  <polygon fill="hsl(324.0,50.0%,42.21758785095096%)" points="405.10886094923427,471.5315563946354 405.1088609492342,440.241719634949 418.9132006961547,436.2567500005142 418.9132006961547,467.5465867602006" />
  <polygon fill="hsl(324.0,50.0%,42.21758785095096%)" points="408.55994588596434,437.68098538835596 408.55994588596434,423.6005588464971 415.4621157594246,421.6080740292797 415.4621157594246,435.68850057113855" />
  <polygon fill="hsl(324.0,50.0%,42.21758785095096%)" points="409.9403798606564,438.8469802628968 409.9403798606564,423.2020618830536 414.08168178473255,422.0065709927232 414.08168178473255,437.6514893725664" />
</svg>
