<?xml version="1.0" encoding="UTF-8"?>
<svg
  xmlns="http://www.w3.org/2000/svg"
  width="848"
  height="600"
  style="background-color:white"
>
  <polygon fill="lightblue" points="388.6632281310253,540.2731764907636 229.2644427536336,402.22977902155895 459.3367718689747,335.81361844764575 618.7355572463664,473.8570159168504" />
  <polygon fill="steelblue" points="229.2644427536336,402.22977902155895 229.2644427536336,126.14298408314957 459.3367718689747,59.72682350923637 459.3367718689747,335.81361844764575" />
  <polygon fill="lightskyblue" points="618.7355572463664,473.8570159168504 618.7355572463664,197.77022097844105 459.3367718689747,59.72682350923637 459.3367718689747,335.81361844764575" />
  <polygon fill="white" points="547.0061038265401,411.7374870557083 547.0061038265401,319.70855540957183 531.066225288801,305.9042156626514 531.066225288801,397.93314730878785" />
  <polygon fill="white" points="332.7969908555371,335.5309341048434 332.7969908555371,298.7193614463888 355.8042237670712,292.0777453889975 355.8042237670712,328.8893180474521" />
  <polygon fill="hsl(324.0,50.0%,72.09185257592405%)" points="416.48089315452717,389.56670357271696 416.48089315452717,357.9639684454337 422.0026290532954,356.3699805916598 422.0026290532954,387.972715718943" />
  <polygon fill="hsl(324.0,50.0%,72.09185257592405%)" points="430.2852329014476,385.5817339382821 430.2852329014476,353.97899881099886 424.7634970026794,355.57298666477277 424.76349700267946,387.17572179205604" />
  <polygon fill="hsl(324.0,50.0%,72.09185257592405%)" points="410.95915725575895,359.87085466680446 410.95915725575895,328.58101790711805 415.7906761671811,327.18627853506587 415.7906761671811,358.4761152947523" />
  <polygon fill="hsl(324.0,50.0%,72.09185257592405%)" points="430.97544988879366,354.092648696874 430.97544988879366,322.8028119371876 435.8069688002158,321.4080725651354 435.8069688002158,352.6979093248218" />
  <polygon fill="hsl(324.0,50.0%,72.09185257592405%)" points="415.7906761671811,332.01779744648803 415.7906761671811,327.18627853506587 430.97544988879366,322.8028119371876 430.97544988879366,327.63433084860975" />
  <polygon fill="hsl(324.0,50.0%,72.09185257592405%)" points="416.48089315452717,358.2768668130305 416.48089315452717,326.98703005334414 430.2852329014476,323.0020604189093 430.2852329014476,354.2918971785957" />
  <polygon fill="hsl(324.0,50.0%,72.09185257592405%)" points="419.9319780912573,324.4262958067511 419.9319780912573,310.3458692648922 426.83414796471754,308.35338444767484 426.83414796471754,322.4338109895337" />
  <polygon fill="hsl(324.0,50.0%,72.09185257592405%)" points="421.31241206594933,325.59229068129196 421.31241206594933,309.94737230144875 425.45371399002545,308.7518814111183 425.45371399002545,324.3967997909615" />
  <polygon fill="hsl(324.0,50.0%,59.71537400830306%)" points="462.8263703582761,421.7476807078425 462.8263703582761,390.1449455805593 468.34810625704426,388.5509577267853 468.34810625704426,420.1536928540686" />
  <polygon fill="hsl(324.0,50.0%,59.71537400830306%)" points="476.63071010519656,417.76271107340773 476.63071010519656,386.15997594612446 471.10897420642834,387.75396379989843 471.10897420642834,419.35669892718164" />
  <polygon fill="hsl(324.0,50.0%,59.71537400830306%)" points="457.3046344595079,392.05183180193006 457.3046344595079,360.76199504224365 462.13615337093006,359.36725567019147 462.13615337093006,390.6570924298779" />
  <polygon fill="hsl(324.0,50.0%,59.71537400830306%)" points="477.3209270925426,386.2736258319996 477.3209270925426,354.9837890723132 482.15244600396477,353.589049700261 482.15244600396477,384.8788864599474" />
  <polygon fill="hsl(324.0,50.0%,59.71537400830306%)" points="462.13615337093006,364.19877458161363 462.13615337093006,359.36725567019147 477.3209270925426,354.9837890723132 477.3209270925426,359.81530798373535" />
  <polygon fill="hsl(324.0,50.0%,59.71537400830306%)" points="462.8263703582761,390.4578439481561 462.8263703582761,359.16800718846974 476.63071010519656,355.1830375540349 476.63071010519656,386.4728743137213" />
  <polygon fill="hsl(324.0,50.0%,59.71537400830306%)" points="466.2774552950062,356.6072729418767 466.2774552950062,342.5268464000178 473.17962516846643,340.53436158280044 473.17962516846643,354.6147881246593" />
  <polygon fill="hsl(324.0,50.0%,59.71537400830306%)" points="467.6578892696983,357.77326781641756 467.6578892696983,342.12834943657435 471.7991911937744,340.9328585462439 471.7991911937744,356.5777769260871" />
  <polygon fill="hsl(324.0,50.0%,50.65955712546234%)" points="460.4682989033595,455.7642834189098 460.4682989033595,424.16154829162656 465.99003480212764,422.56756043785265 465.99003480212764,454.1702955651359" />
  <polygon fill="hsl(324.0,50.0%,50.65955712546234%)" points="474.27263865027993,451.77931378447505 474.27263865027993,420.1765786571918 468.7509027515117,421.7705665109657 468.7509027515117,453.37330163824896" />
  <polygon fill="hsl(324.0,50.0%,50.65955712546234%)" points="454.94656300459127,426.0684345129973 454.94656300459127,394.7785977533109 459.77808191601343,393.3838583812588 459.77808191601343,424.67369514094514" />
  <polygon fill="hsl(324.0,50.0%,50.65955712546234%)" points="474.962855637626,420.29022854306686 474.962855637626,389.0003917833805 479.79437454904814,387.6056524113283 479.79437454904814,418.8954891710147" />
  <polygon fill="hsl(324.0,50.0%,50.65955712546234%)" points="459.77808191601343,398.21537729268096 459.77808191601343,393.3838583812588 474.962855637626,389.0003917833805 474.962855637626,393.8319106948027" />
  <polygon fill="hsl(324.0,50.0%,50.65955712546234%)" points="460.4682989033595,424.4744466592234 460.4682989033595,393.184609899537 474.27263865027993,389.19964026510223 474.27263865027993,420.48947702478864" />
  <polygon fill="hsl(324.0,50.0%,50.65955712546234%)" points="463.9193838400896,390.62387565294404 463.91938384008955,376.5434491110851 470.8215537135498,374.55096429386776 470.8215537135498,388.6313908357266" />
  <polygon fill="hsl(324.0,50.0%,50.65955712546234%)" points="465.29981781478165,391.7898705274848 465.29981781478165,376.1449521476417 469.44111973885776,374.9494612573112 469.44111973885776,390.5943796371544" />
  <polygon fill="hsl(324.0,50.0%,42.21758785095096%)" points="405.10886094923427,502.8213931543218 405.10886094923427,471.21865802703854 410.6305968480024,469.6246701732646 410.6305968480024,501.22740530054784" />
  <polygon fill="hsl(324.0,50.0%,42.21758785095096%)" points="418.9132006961547,498.83642351988703 418.9132006961547,467.23368839260377 413.39146479738656,468.8276762463777 413.39146479738656,500.43041137366095" />
  <polygon fill="hsl(324.0,50.0%,42.21758785095096%)" points="399.58712505046606,473.1255442484093 399.58712505046606,441.8357074887229 404.4186439618882,440.4409681166708 404.4186439618882,471.7308048763571" />
  <polygon fill="hsl(324.0,50.0%,42.21758785095096%)" points="419.6034176835007,467.34733827847884 419.6034176835007,436.0575015187925 424.4349365949229,434.6627621467403 424.4349365949229,465.9525989064267" />
  <polygon fill="hsl(324.0,50.0%,42.21758785095096%)" points="404.4186439618882,445.2724870280929 404.4186439618882,440.4409681166708 419.6034176835007,436.0575015187925 419.6034176835007,440.8890204302146" />
  <polygon fill="hsl(324.0,50.0%,42.21758785095096%)" points="405.10886094923427,471.5315563946354 405.1088609492342,440.241719634949 418.9132006961547,436.2567500005142 418.9132006961547,467.5465867602006" />
  <polygon fill="hsl(324.0,50.0%,42.21758785095096%)" points="408.55994588596434,437.68098538835596 408.55994588596434,423.6005588464971 415.4621157594246,421.6080740292797 415.4621157594246,435.68850057113855" />
  <polygon fill="hsl(324.0,50.0%,42.21758785095096%)" points="409.9403798606564,438.8469802628968 409.9403798606564,423.2020618830536 414.08168178473255,422.0065709927232 414.08168178473255,437.6514893725664" />
  <polygon fill="hsl(324.0,50.0%,41.7579500056716%)" points="513.5412472320784,473.21165864349274 513.5412472320784,441.6089235162094 519.0629831308465,440.0149356624355 519.0629831308465,471.6176707897188" />
  <polygon fill="hsl(324.0,50.0%,41.7579500056716%)" points="527.3455869789988,469.22668900905796 527.3455869789988,437.6239538817747 521.8238510802306,439.2179417355486 521.8238510802306,470.8206768628319" />
  <polygon fill="hsl(324.0,50.0%,41.7579500056716%)" points="508.01951133331016,443.5158097375802 508.01951133331016,412.2259729778938 512.8510302447323,410.83123360584165 512.8510302447323,442.12107036552806" />
  <polygon fill="hsl(324.0,50.0%,41.7579500056716%)" points="528.0358039663448,437.7376037676498 528.0358039663448,406.44776700796336 532.867322877767,405.0530276359112 532.867322877767,436.3428643955976" />
  <polygon fill="hsl(324.0,50.0%,41.7579500056716%)" points="512.8510302447323,415.6627525172638 512.8510302447323,410.83123360584165 528.0358039663448,406.44776700796336 528.0358039663448,411.27928591938553" />
  <polygon fill="hsl(324.0,50.0%,41.7579500056716%)" points="513.5412472320784,441.9218218838063 513.5412472320784,410.63198512411986 527.3455869789988,406.64701548968515 527.3455869789988,437.93685224937155" />
  <polygon fill="hsl(324.0,50.0%,41.7579500056716%)" points="516.9923321688084,408.0712508775269 516.9923321688084,393.990824335668 523.8945020422686,391.9983395184506 523.8945020422686,406.0787660603095" />
  <polygon fill="hsl(324.0,50.0%,41.7579500056716%)" points="518.3727661435005,409.23724575206774 518.3727661435005,393.59232737222453 522.5140680675767,392.39683648189407 522.5140680675767,408.04175486173733" />
</svg>
