<?xml version="1.0" encoding="UTF-8"?>
<svg
  xmlns="http://www.w3.org/2000/svg"
  width="848"
  height="600"
  style="background-color:white"
>
  <polygon fill="lightblue" points="376.88430417470033,528.3353036748817 164.35259033817812,344.2774403826088 471.11569582529967,255.7225596173912 683.6474096618219,439.78042290966414" />
  <polygon fill="steelblue" points="164.35259033817812,344.2774403826088 164.35259033817812,160.2195770903359 471.11569582529967,71.66469632511829 471.11569582529967,255.7225596173912" />
  <polygon fill="lightskyblue" points="683.6474096618219,439.78042290966414 683.6474096618219,255.7225596173912 471.11569582529967,71.66469632511829 471.11569582529967,255.7225596173912" />
  <polygon fill="white" points="588.0081384353869,356.9543844281413 588.0081384353869,240.3844043430351 566.7549670517346,221.97861801380782 566.7549670517346,338.548598098914" />
  <polygon fill="white" points="210.36705616124638,281.9121113898867 210.36705616124638,232.83001451194727 241.04336670995852,223.9745264354255 241.04336670995852,273.056623313365" />
  <polygon fill="white" points="271.7196772586707,264.2011352368432 271.7196772586707,215.11903835890377 302.3959878073828,206.26355028238197 302.3959878073828,255.34564716032142" />
  <polygon fill="white" points="333.07229835609496,246.49015908379965 333.07229835609496,197.40806220586023 363.7486089048071,188.55257412933844 363.7486089048071,237.63467100727792" />
  <polygon fill="white" points="394.42491945351924,228.77918293075612 394.42491945351924,179.6970860528167 425.10123000223143,170.84159797629493 425.10123000223143,219.92369485423438" />
  <polygon fill="hsl(360.0,50.0%,50.65955712546234%)" points="472.6243985378126,415.65677957907667 472.6243985378126,373.51979940936565 479.98671306950354,371.3944822710004 479.98671306950354,413.53146244071144" />
  <polygon fill="hsl(360.0,50.0%,50.65955712546234%)" points="491.0301848670399,410.3434867331636 491.0301848670399,368.2065065634526 483.667870335349,370.3318237018178 483.667870335349,412.46880387152885" />
  <polygon fill="hsl(360.0,50.0%,50.65955712546234%)" points="465.2620840061217,376.06231437119334 465.2620840061217,334.34253202494483 471.70410922135125,332.48287952887523 471.70410922135125,374.2026618751238" />
  <polygon fill="hsl(360.0,50.0%,50.65955712546234%)" points="491.9504741835013,368.3580397446194 491.9504741835013,326.63825739837085 498.3924993987308,324.7786049023013 498.3924993987308,366.4983872485498" />
  <polygon fill="hsl(360.0,50.0%,50.65955712546234%)" points="471.70410922135125,338.92490474410477 471.70410922135125,332.48287952887523 491.9504741835013,326.63825739837085 491.9504741835013,333.08028261360045" />
  <polygon fill="hsl(360.0,50.0%,50.65955712546234%)" points="472.6243985378126,373.9369972328281 472.6243985378126,332.2172148865796 491.0301848670399,326.90392204066654 491.0301848670399,368.62370438691505" />
  <polygon fill="hsl(360.0,50.0%,50.65955712546234%)" points="477.2258451201194,328.8029025577889 477.2258451201194,310.02900050197707 486.4287382847331,307.3723540790205 486.4287382847331,326.14625613483236" />
  <polygon fill="hsl(360.0,50.0%,50.65955712546234%)" points="479.06642375304216,330.35756239051 479.06642375304216,309.49767121738574 484.5881596518103,307.90368336361183 484.5881596518103,328.7635745367361" />
  <polygon fill="hsl(360.0,50.0%,42.21758785095096%)" points="398.81181459897897,478.39959255962594 398.81181459897897,436.2626123899149 406.1741291306699,434.1372952515497 406.1741291306699,476.2742754212607" />
  <polygon fill="hsl(360.0,50.0%,42.21758785095096%)" points="417.21760092820625,473.08629971371283 417.21760092820625,430.9493195440018 409.85528639651534,433.0746366823671 409.85528639651534,475.2116168520781" />
  <polygon fill="hsl(360.0,50.0%,42.21758785095096%)" points="391.44950006728806,438.8051273517426 391.44950006728806,397.0853450054941 397.8915252825176,395.2256925094245 397.8915252825176,436.94547485567307" />
  <polygon fill="hsl(360.0,50.0%,42.21758785095096%)" points="418.13789024466763,431.1008527251687 418.13789024466763,389.3810703789202 424.57991545989717,387.5214178828506 424.57991545989717,429.24120022909915" />
  <polygon fill="hsl(360.0,50.0%,42.21758785095096%)" points="397.8915252825176,401.66771772465404 397.8915252825176,395.2256925094245 418.13789024466763,389.3810703789202 418.13789024466763,395.8230955941497" />
  <polygon fill="hsl(360.0,50.0%,42.21758785095096%)" points="398.81181459897897,436.67981021337744 398.81181459897897,394.9600278671289 417.21760092820625,389.6467350212158 417.21760092820625,431.3665173674643" />
  <polygon fill="hsl(360.0,50.0%,42.21758785095096%)" points="403.4132611812858,391.5457155383382 403.4132611812858,372.77181348252634 412.6161543458995,370.11516705956984 412.6161543458995,388.88906911538163" />
  <polygon fill="hsl(360.0,50.0%,42.21758785095096%)" points="405.25383981420856,393.1003753710593 405.25383981420856,372.2404841979351 410.7755757129767,370.6464963441611 410.7755757129767,391.50638751728536" />
</svg>
