<?xml version="1.0" encoding="UTF-8"?>
<svg
  xmlns="http://www.w3.org/2000/svg"
  width="848"
  height="600"
  style="background-color:white"
>
  <polygon fill="lightblue" points="357.49364905389035,665.6088913245535 57.49364905389035,405.80127018922195 490.50635094610965,280.8012701892219 790.5063509461097,540.6088913245535" />
  <polygon fill="steelblue" points="57.49364905389035,405.80127018922195 57.49364905389035,59.39110867544653 490.50635094610965,-65.60889132455355 490.50635094610965,280.8012701892219" />
  <polygon fill="lightskyblue" points="790.5063509461097,540.6088913245535 790.5063509461097,194.19872981077805 490.50635094610965,-65.60889132455355 490.50635094610965,280.8012701892219" />
  <polygon fill="white" points="655.5063509461096,423.6954618136543 655.5063509461096,250.49038105676655 625.5063509461097,224.50961894323342 625.5063509461097,397.7146997001211" />
  <polygon fill="white" points="122.44555433772325,317.76923788646684 122.44555433772325,248.48720558371176 165.7468245269452,235.98720558371173 165.7468245269452,305.26923788646684" />
  <polygon fill="white" points="209.0480947161671,292.76923788646684 209.0480947161671,223.48720558371173 252.34936490538905,210.98720558371173 252.34936490538905,280.26923788646684" />
  <polygon fill="white" points="295.65063509461095,267.76923788646684 295.65063509461095,198.48720558371173 338.9519052838329,185.98720558371173 338.9519052838329,255.2692378864668" />
  <polygon fill="white" points="382.2531754730548,242.7692378864668 382.2531754730548,173.48720558371173 425.55444566227675,160.9872055837117 425.55444566227675,230.2692378864668" />
</svg>
