<?xml version="1.0" encoding="UTF-8"?>
<svg
  xmlns="http://www.w3.org/2000/svg"
  width="848"
  height="600"
  style="background-color:white"
>
  <polygon fill="lightblue" points="386.44907656618295,530.879516736014 217.06259136759783,384.1865174962824 461.55092343381705,313.60881533020523 630.9374086324021,460.3018145699368" />
  <polygon fill="steelblue" points="217.06259136759783,384.1865174962824 217.06259136759783,139.6981854300632 461.55092343381705,69.12048326398605 461.55092343381705,313.60881533020523" />
  <polygon fill="lightskyblue" points="630.9374086324021,460.3018145699368 630.9374086324021,215.81348250371758 461.55092343381705,69.12048326398605 461.55092343381705,313.60881533020523" />
  <polygon fill="white" points="554.7134902930388,394.2899649120576 554.7134902930388,296.4946320855699 537.7748417731804,281.82533216159675 537.7748417731804,379.62066498808446" />
  <polygon fill="white" points="253.73584117753072,334.4817290407758 253.73584117753072,295.3635959101807 278.18467438415263,288.30582569357296 278.18467438415263,327.42395882416804" />
  <polygon fill="white" points="302.63350759077457,320.36618860756033 302.63350759077457,281.24805547696525 327.08234079739645,274.19028526035754 327.08234079739645,313.3084183909526" />
  <polygon fill="white" points="351.5311740040184,306.2506481743449 351.5311740040184,267.13251504374983 375.98000721064034,260.0747448271421 375.98000721064034,299.1928779577372" />
  <polygon fill="white" points="400.4288404172622,292.1351077411295 400.4288404172622,253.0169746105344 424.87767362388416,245.95920439392665 424.87767362388416,285.07733752452174" />
  <polygon fill="antiquewhite" points="490.91574476994265,442.5726045970194 490.91574476994265,359.4465716945049 510.4748113352402,353.8003555212187 510.4748113352402,436.9263884237332" />
  <polygon fill="beige" points="490.91574476994265,442.5726045970194 490.91574476994265,359.4465716945049 479.6233124233703,349.6670384118561 479.6233124233703,432.79307131437065" />
  <polygon fill="bisque" points="490.91574476994265,359.4465716945049 479.6233124233703,349.6670384118561 499.18237898866784,344.0208222385699 510.4748113352402,353.8003555212187" />
  <polygon fill="antiquewhite" points="399.0985843204065,514.4851214680531 399.0985843204064,431.3590885655385 418.65765088570396,425.7128723922524 418.657650885704,508.8389052947669" />
  <polygon fill="beige" points="399.0985843204065,514.4851214680531 399.0985843204064,431.3590885655385 387.8061519738341,421.57955528288977 387.8061519738341,504.7055881854043" />
  <polygon fill="bisque" points="399.0985843204064,431.3590885655385 387.8061519738341,421.57955528288977 407.36521853913166,415.9333391096036 418.65765088570396,425.7128723922524" />
  <polygon fill="antiquewhite" points="429.8762072775074,344.9143856235096 429.8762072775074,261.7883527209951 449.4352738428049,256.1421365477089 449.4352738428049,339.2681694502234" />
  <polygon fill="beige" points="429.8762072775074,344.9143856235096 429.8762072775074,261.7883527209951 418.583774930935,252.0088194383463 418.583774930935,335.13485234086085" />
  <polygon fill="bisque" points="429.8762072775074,261.7883527209951 418.583774930935,252.0088194383463 438.14284149623256,246.36260326506013 449.4352738428049,256.1421365477089" />
  <polygon fill="antiquewhite" points="412.8632640932666,382.6823728555565 412.8632640932666,299.5563399530419 432.42233065856414,293.91012377975574 432.42233065856414,377.0361566822703" />
  <polygon fill="beige" points="412.8632640932666,382.6823728555565 412.8632640932666,299.5563399530419 401.57083174669424,289.77680667039317 401.57083174669424,372.9028395729077" />
  <polygon fill="bisque" points="412.8632640932666,299.5563399530419 401.57083174669424,289.77680667039317 421.1298983119918,284.130590497107 432.42233065856414,293.91012377975574" />
  <polygon fill="antiquewhite" points="367.07844425426043,359.04131869100456 367.07844425426043,275.91528578849005 386.637510819558,270.2690696152039 386.637510819558,353.3951025177184" />
  <polygon fill="beige" points="367.07844425426043,359.04131869100456 367.07844425426043,275.91528578849005 355.7860119076881,266.13575250584125 355.7860119076881,349.2617854083558" />
  <polygon fill="bisque" points="367.07844425426043,275.91528578849005 355.7860119076881,266.13575250584125 375.3450784729856,260.4895363325551 386.637510819558,270.2690696152039" />
</svg>
