<?xml version="1.0" encoding="UTF-8"?>
<svg
  xmlns="http://www.w3.org/2000/svg"
  width="848"
  height="600"
  style="background-color:white"
>
  <polygon fill="lightblue" points="379.47845728694574,515.7633416505912 178.6485722622949,341.8395593801356 468.52154271305426,258.1604406198644 669.3514277377051,432.08422289032" />
  <polygon fill="steelblue" points="178.6485722622949,341.8395593801356 178.6485722622949,167.91577710967996 468.52154271305426,84.23665834940877 468.52154271305426,258.1604406198644" />
  <polygon fill="lightskyblue" points="669.3514277377051,432.08422289032 669.3514277377051,258.1604406198644 468.52154271305426,84.23665834940877 468.52154271305426,258.1604406198644" />
  <polygon fill="white" points="578.9779794766123,353.818520868615 578.9779794766123,237.86933268831123 558.8949909741472,220.47695446126568 558.8949909741472,336.4261426415694" />
  <polygon fill="white" points="309.0914089651366,257.80428066589207 309.0914089651366,211.42460539377055 338.07870601021256,203.05669351774344 338.07870601021256,249.43636878986493" />
  <polygon fill="antiquewhite" points="503.3373881790583,411.06392014146394 503.3373881790583,312.50711018820573 526.5272258151191,305.812780687384 526.5272258151191,404.36959064064223" />
  <polygon fill="beige" points="503.3373881790583,411.06392014146394 503.3373881790583,312.50711018820573 489.9487291774149,300.9121913701753 489.9487291774149,399.46900132343353" />
  <polygon fill="bisque" points="503.3373881790583,312.50711018820573 489.9487291774149,300.9121913701753 513.1385668134757,294.21786186935367 526.5272258151191,305.812780687384" />
</svg>
