<?xml version="1.0" encoding="UTF-8"?>
<svg
  xmlns="http://www.w3.org/2000/svg"
  width="848"
  height="600"
  style="background-color:white"
>
  <polygon fill="lightblue" points="386.44907656618295,530.879516736014 217.06259136759783,384.1865174962824 461.55092343381705,313.60881533020523 630.9374086324021,460.3018145699368" />
  <polygon fill="steelblue" points="217.06259136759783,384.1865174962824 217.06259136759783,139.6981854300632 461.55092343381705,69.12048326398605 461.55092343381705,313.60881533020523" />
  <polygon fill="lightskyblue" points="630.9374086324021,460.3018145699368 630.9374086324021,215.81348250371758 461.55092343381705,69.12048326398605 461.55092343381705,313.60881533020523" />
  <polygon fill="white" points="265.96025778084163,330.9528439324719 265.96025778084163,291.83471080187684 290.4090909874636,284.77694058526913 290.4090909874636,323.8950737158642" />
  <polygon fill="white" points="327.08234079739645,313.3084183909526 327.08234079739645,274.19028526035754 351.5311740040184,267.13251504374983 351.5311740040184,306.2506481743449" />
  <polygon fill="white" points="388.2044238139513,295.6639928494333 388.2044238139513,256.54585971883824 412.6532570205732,249.48808950223054 412.6532570205732,288.6062226328256" />
  <polygon fill="grey" points="451.2176306604105,122.63103657317541 451.2176306604105,98.18220336655347 475.66646386703246,91.12443314994576 475.66646386703246,115.5732663565677" />
  <polygon fill="lightgrey" points="451.2176306604105,122.63103657317541 451.2176306604105,98.18220336655347 437.1020902271951,85.95778676324252 437.1020902271951,110.40661996986444" />
  <polygon fill="darkgrey" points="451.2176306604105,98.18220336655347 437.1020902271951,85.95778676324252 461.55092343381705,78.90001654663482 475.66646386703246,91.12443314994576" />
  <polygon fill="hsl(288.0,50.0%,50.65955712546234%)" points="462.75335033316776,441.07541734107156 462.75335033316776,407.49250004845567 468.621070302757,405.7986351964698 468.62107030275706,439.38155248908566" />
  <polygon fill="hsl(288.0,50.0%,50.65955712546234%)" points="477.4226502571409,436.84075521110685 477.4226502571409,403.257837918491 471.55493028755166,404.95170277047686 471.55493028755166,438.53462006309275" />
  <polygon fill="hsl(288.0,50.0%,50.65955712546234%)" points="456.8856303635785,409.51886903205155 456.8856303635785,376.2684558710457 462.0198853369691,374.7863241255581 462.0198853369691,408.03673728656395" />
  <polygon fill="hsl(288.0,50.0%,50.65955712546234%)" points="478.1561152533396,403.37860894360284 478.1561152533396,370.128195782597 483.29037022673015,368.6460640371094 483.29037022673015,401.89647719811524" />
  <polygon fill="hsl(288.0,50.0%,50.65955712546234%)" points="462.0198853369691,379.92057909894874 462.0198853369691,374.7863241255581 478.1561152533396,370.128195782597 478.1561152533396,375.26245075598763" />
  <polygon fill="hsl(288.0,50.0%,50.65955712546234%)" points="462.75335033316776,407.82500418006566 462.75335033316776,374.5745910190599 477.4226502571409,370.33992888909523 477.4226502571409,403.59034205010107" />
  <polygon fill="hsl(288.0,50.0%,50.65955712546234%)" points="466.42067531416103,371.8534048285184 466.42067531416103,356.89071890606584 473.75532527614763,354.7733878410835 473.75532527614763,369.7360737635361" />
  <polygon fill="hsl(288.0,50.0%,50.65955712546234%)" points="467.8876053065584,373.0924592735723 467.8876053065584,356.4672526930694 472.28839528375033,355.19685405407995 472.28839528375033,371.8220606345829" />
</svg>
