<?xml version="1.0" encoding="UTF-8"?>
<svg
  xmlns="http://www.w3.org/2000/svg"
  width="848"
  height="600"
  style="background-color:white"
>
  <polygon fill="lightblue" points="395.7837449524201,473.4858888614862 268.5045243388415,363.25885043624316 452.2162550475799,310.2258418472521 579.4954756611585,420.4528802724951" />
  <polygon fill="steelblue" points="268.5045243388415,363.25885043624316 268.5045243388415,179.54711972750485 452.2162550475799,126.51411113851378 452.2162550475799,310.2258418472521" />
  <polygon fill="lightskyblue" points="579.4954756611585,420.4528802724951 579.4954756611585,236.7411495637568 452.2162550475799,126.51411113851378 452.2162550475799,310.2258418472521" />
  <polygon fill="white" points="522.2198263850481,370.85071298113576 522.2198263850481,297.36602069764047 509.4919043236903,286.34331685511614 509.4919043236903,359.8280091386115" />
  <polygon fill="white" points="289.93755958819435,327.6777891874628 289.93755958819435,298.2839122740646 308.3087326590682,292.9806114151655 308.3087326590682,322.37448832856364" />
  <polygon fill="white" points="320.5561813729841,318.83895442263093 320.5561813729841,289.44507750923276 338.9273544438579,284.14177665033367 338.9273544438579,313.53565356373184" />
  <polygon fill="white" points="351.1748031577738,310.0001196577991 351.1748031577738,280.60624274440096 369.54597622864765,275.3029418855018 369.54597622864765,304.6968187989" />
  <polygon fill="white" points="381.79342494256355,301.1612848929672 381.79342494256355,271.7674079795691 400.1645980134374,266.46410712067 400.1645980134374,295.8579840340681" />
  <polygon fill="white" points="412.41204672735324,292.32245012813536 412.41204672735324,262.92857321473724 430.7832197982271,257.62527235583815 430.7832197982271,287.01914926923627" />
</svg>
