<?xml version="1.0" encoding="UTF-8"?>
<svg
  xmlns="http://www.w3.org/2000/svg"
  width="848"
  height="600"
  style="background-color:white"
>
  <polygon fill="lightblue" points="383.5494939557267,522.3707128413578 201.0834340885247,364.3504696679086 464.4505060442733,288.3229447232411 646.9165659114753,446.3431878966902" />
  <polygon fill="steelblue" points="201.0834340885247,364.3504696679086 201.0834340885247,153.65681210330976 464.4505060442733,77.6292871586422 464.4505060442733,288.3229447232411" />
  <polygon fill="lightskyblue" points="646.9165659114753,446.3431878966902 646.9165659114753,235.6495303320914 464.4505060442733,77.6292871586422 464.4505060442733,288.3229447232411" />
  <polygon fill="white" points="564.8068389712344,375.23407846863813 564.8068389712344,269.8872496863387 546.5602329845142,254.08522536899378 546.5602329845142,359.43205415129324" />
  <polygon fill="white" points="231.80959248336205,313.34186024477765 231.80959248336205,271.2031287318579 258.1462996789369,263.6003762373911 258.1462996789369,305.7391077503109" />
  <polygon fill="white" points="275.7041044759868,300.67060608733306 275.7041044759868,258.5318745744133 302.04081167156164,250.92912207994652 302.04081167156164,293.0678535928663" />
  <polygon fill="white" points="319.59861646861157,287.99935192988846 319.59861646861157,245.8606204169687 345.9353236641864,238.25786792250193 345.93532366418646,280.3965994354217" />
  <polygon fill="white" points="363.4931284612363,275.32809777244387 363.4931284612363,233.1893662595241 389.8298356568112,225.58661376505734 389.8298356568112,267.7253452779771" />
  <polygon fill="white" points="407.38764045386114,262.6568436149993 407.38764045386114,220.5181121020795 433.72434764943597,212.91535960761274 433.72434764943597,255.05409112053252" />
  <polygon fill="hsl(324.0,50.0%,50.65955712546234%)" points="465.7457811563676,425.63217931959014 465.7457811563676,389.4560783157485 472.0665908833056,387.6314177170765 472.0665908833056,423.8075187209181" />
  <polygon fill="hsl(324.0,50.0%,50.65955712546234%)" points="481.5478054737126,421.0705278229101 481.5478054737125,384.8944268190685 475.22699574677455,386.71908741774047 475.2269957467746,422.8951884215821" />
  <polygon fill="hsl(324.0,50.0%,50.65955712546234%)" points="459.42497142942966,391.6389181322803 459.42497142942966,355.82099634629856 464.9556799405004,354.2244183224605 464.9556799405004,390.0423401084423" />
  <polygon fill="hsl(324.0,50.0%,50.65955712546234%)" points="482.33790668957977,385.0245234620943 482.33790668957977,349.2066016761125 487.86861520065054,347.61002365227444 487.86861520065054,383.42794543825624" />
  <polygon fill="hsl(324.0,50.0%,50.65955712546234%)" points="464.9556799405004,359.7551268335312 464.9556799405004,354.2244183224605 482.33790668957977,349.2066016761125 482.33790668957977,354.7373101871832" />
  <polygon fill="hsl(324.0,50.0%,50.65955712546234%)" points="465.7457811563676,389.8142575336083 465.7457811563676,353.9963357476265 481.5478054737125,349.4346842509465 481.5478054737125,385.2526060369283" />
  <polygon fill="hsl(324.0,50.0%,50.65955712546234%)" points="469.69628723570383,351.0650267841574 469.69628723570383,334.94696198046563 477.5972993943763,332.6661362321256 477.5972993943763,348.7842010358174" />
  <polygon fill="hsl(324.0,50.0%,50.65955712546234%)" points="471.27648966743834,352.3997577237885 471.27648966743834,334.4907968307976 476.0170969626418,333.1223013817936 476.0170969626418,351.03126227478447" />
</svg>
