<?xml version="1.0" encoding="UTF-8"?>
<svg
  xmlns="http://www.w3.org/2000/svg"
  width="848"
  height="600"
  style="background-color:white"
>
  <polygon fill="lightblue" points="370.06599194096896,526.2630646002774 126.77791211803299,315.5694070356785 477.93400805903104,214.19937377612183 721.222087881967,424.8930313407207" />
  <polygon fill="steelblue" points="126.77791211803299,315.5694070356785 126.77791211803299,175.1069686592793 477.93400805903104,73.7369353997226 477.93400805903104,214.19937377612183" />
  <polygon fill="lightskyblue" points="721.222087881967,424.8930313407207 721.222087881967,284.4305929643215 477.93400805903104,73.7369353997226 477.93400805903104,214.19937377612183" />
  <polygon fill="white" points="571.1944386578232,294.9652758425514 571.1944386578232,161.5259593849721 546.8656306755296,140.45659362851222 546.8656306755296,273.89591008609153" />
  <polygon fill="white" points="652.2904652654685,365.19649503075107 652.2904652654685,231.75717857317176 627.9616572831749,210.68781281671187 627.9616572831749,344.1271292742912" />
  <polygon fill="white" points="284.7981552914821,213.7679167183183 284.7981552914821,157.58294136775862 319.91376488558194,147.44593804180295 319.91376488558194,203.63091339236263" />
  <polygon fill="hsl(288.0,50.0%,72.09185257592405%)" points="412.523695070276,296.24193660792264 412.52369507027595,248.00713526946717 420.95144137285996,245.5742544712378 420.95144137285996,293.8090558096933" />
  <polygon fill="hsl(288.0,50.0%,72.09185257592405%)" points="433.59306082673584,290.15973461234927 433.59306082673584,241.92493327389377 425.1653145241519,244.35781407212312 425.1653145241519,292.5926154105786" />
  <polygon fill="hsl(288.0,50.0%,72.09185257592405%)" points="404.095948767692,250.9175883581763 404.095948767692,203.16035931020053 411.470226782453,201.03158861174984 411.470226782453,248.7888176597256" />
  <polygon fill="hsl(288.0,50.0%,72.09185257592405%)" points="434.64652911455886,242.09839546459486 434.64652911455886,194.3411664166191 442.0208071293198,192.2123957181684 442.0208071293198,239.96962476614416" />
  <polygon fill="hsl(288.0,50.0%,72.09185257592405%)" points="411.470226782453,208.40586662651083 411.470226782453,201.03158861174984 434.64652911455886,194.3411664166191 434.64652911455886,201.7154444313801" />
  <polygon fill="hsl(288.0,50.0%,72.09185257592405%)" points="412.52369507027595,248.4847075599469 412.52369507027595,200.72747851197119 433.59306082673584,194.6452765163978 433.59306082673584,242.4025055643735" />
  <polygon fill="hsl(288.0,50.0%,72.09185257592405%)" points="417.79103650939095,196.81906656067906 417.79103650939095,175.32831348908996 428.3257193876209,172.28721249130325 428.3257193876209,193.77796556289235" />
  <polygon fill="hsl(288.0,50.0%,72.09185257592405%)" points="419.89797308503694,198.5987078135205 419.89797308503694,174.7200932895326 426.2187828119749,172.89543269086062 426.2187828119749,196.77404721484848" />
  <polygon fill="hsl(288.0,50.0%,50.65955712546234%)" points="479.6610415418235,397.27835323792056 479.6610415418235,349.04355189946506 488.0887878444075,346.61067110123565 488.0887878444075,394.8454724396912" />
  <polygon fill="hsl(288.0,50.0%,50.65955712546234%)" points="500.73040729828335,391.1961512423471 500.73040729828335,342.96134990389163 492.3026609956994,345.39423070212104 492.3026609956994,393.62903204057653" />
  <polygon fill="hsl(288.0,50.0%,50.65955712546234%)" points="471.2332952392395,351.9540049881742 471.2332952392395,304.19677594019845 478.6075732540005,302.06800524174776 478.6075732540005,349.8252342897235" />
  <polygon fill="hsl(288.0,50.0%,50.65955712546234%)" points="501.7838755861064,343.13481209459275 501.7838755861064,295.377583046617 509.15815360086737,293.2488123481663 509.15815360086737,341.00604139614205" />
  <polygon fill="hsl(288.0,50.0%,50.65955712546234%)" points="478.6075732540005,309.4422832565087 478.6075732540005,302.06800524174776 501.7838755861064,295.377583046617 501.7838755861064,302.75186106137795" />
  <polygon fill="hsl(288.0,50.0%,50.65955712546234%)" points="479.6610415418235,349.5211241899448 479.6610415418235,301.76389514196904 500.73040729828335,295.6816931463957 500.73040729828335,343.4389221943714" />
  <polygon fill="hsl(288.0,50.0%,50.65955712546234%)" points="484.92838298093847,297.8554831906769 484.92838298093847,276.3647301190879 495.4630658591684,273.32362912130117 495.4630658591684,294.8143821928902" />
  <polygon fill="hsl(288.0,50.0%,50.65955712546234%)" points="487.03531955658445,299.63512444351835 487.03531955658445,275.7565099195305 493.3561292835224,273.9318493208585 493.3561292835224,297.81046384484637" />
  <polygon fill="hsl(288.0,50.0%,42.21758785095096%)" points="395.16672542737734,469.1009448746154 395.16672542737734,420.8661435361599 403.5944717299613,418.43326273793053 403.5944717299613,466.66806407638603" />
  <polygon fill="hsl(288.0,50.0%,42.21758785095096%)" points="416.23609118383723,463.01874287904195 416.23609118383723,414.78394154058645 407.8083448812533,417.21682233881586 407.8083448812533,465.4516236772713" />
  <polygon fill="hsl(288.0,50.0%,42.21758785095096%)" points="386.7389791247934,423.776596624869 386.7389791247934,376.0193675768933 394.1132571395543,373.8905968784426 394.1132571395543,421.6478259264183" />
  <polygon fill="hsl(288.0,50.0%,42.21758785095096%)" points="417.2895594716602,414.95740373128757 417.2895594716602,367.20017468331184 424.6638374864212,365.07140398486115 424.6638374864212,412.8286330328369" />
  <polygon fill="hsl(288.0,50.0%,42.21758785095096%)" points="394.1132571395543,381.2648748932035 394.1132571395543,373.8905968784426 417.2895594716602,367.20017468331184 417.2895594716602,374.5744526980728" />
  <polygon fill="hsl(288.0,50.0%,42.21758785095096%)" points="395.16672542737734,421.34371582663965 395.16672542737734,373.58648677866387 416.23609118383723,367.5042847830905 416.23609118383723,415.2615138310662" />
  <polygon fill="hsl(288.0,50.0%,42.21758785095096%)" points="400.43406686649234,369.67807482737174 400.43406686649234,348.1873217557827 410.96874974472223,345.146220757996 410.96874974472223,366.63697382958503" />
  <polygon fill="hsl(288.0,50.0%,42.21758785095096%)" points="402.5410034421383,371.45771608021323 402.5410034421383,347.57910155622534 408.86181316907624,345.7544409575533 408.86181316907624,369.6330554815412" />
  <polygon fill="hsl(288.0,50.0%,41.7579500056716%)" points="560.6655213367322,423.9080317909234 560.6655213367322,375.6732304524679 569.0932676393162,373.24034965423857 569.0932676393162,421.47515099269407" />
  <polygon fill="hsl(288.0,50.0%,41.7579500056716%)" points="581.7348870931921,417.82582979535005 581.7348870931921,369.5910284568945 573.3071407906082,372.0239092551239 573.3071407906082,420.2587105935794" />
  <polygon fill="hsl(288.0,50.0%,41.7579500056716%)" points="552.2377750341483,378.58368354117704 552.2377750341483,330.8264544932013 559.6120530489093,328.6976837947506 559.6120530489093,376.45491284272634" />
  <polygon fill="hsl(288.0,50.0%,41.7579500056716%)" points="582.7883553810151,369.7644906475956 582.7883553810151,322.0072615996199 590.1626333957761,319.8784909011692 590.1626333957761,367.6357199491449" />
  <polygon fill="hsl(288.0,50.0%,41.7579500056716%)" points="559.6120530489093,336.07196180951155 559.6120530489093,328.6976837947506 582.7883553810151,322.0072615996199 582.7883553810151,329.3815396143808" />
  <polygon fill="hsl(288.0,50.0%,41.7579500056716%)" points="560.6655213367322,376.1508027429477 560.6655213367322,328.3935736949719 581.7348870931921,322.31137169939853 581.7348870931921,370.06860074737426" />
  <polygon fill="hsl(288.0,50.0%,41.7579500056716%)" points="565.9328627758472,324.4851617436798 565.9328627758472,302.99440867209074 576.4675456540772,299.953307674304 576.4675456540772,321.44406074589307" />
  <polygon fill="hsl(288.0,50.0%,41.7579500056716%)" points="568.0397993514932,326.26480299652127 568.0397993514932,302.3861884725334 574.3606090784311,300.56152787386134 574.3606090784311,324.44014239784923" />
</svg>
