<?xml version="1.0" encoding="UTF-8"?>
<svg
  xmlns="http://www.w3.org/2000/svg"
  width="848"
  height="600"
  style="background-color:white"
>
  <polygon fill="lightblue" points="392.4532678215699,473.42352440918467 250.15077311399287,350.1859489705223 455.5467321784301,290.89324284236517 597.8492268860072,414.1308182810275" />
  <polygon fill="steelblue" points="250.15077311399287,350.1859489705223 250.15077311399287,185.8691817189725 455.5467321784301,126.57647559081536 455.5467321784301,290.89324284236517" />
  <polygon fill="lightskyblue" points="597.8492268860072,414.1308182810275 597.8492268860072,249.8140510294777 455.5467321784301,126.57647559081536 455.5467321784301,290.89324284236517" />
  <polygon fill="white" points="533.8131042675975,358.67390933362947 533.8131042675975,276.5155257078546 519.5828547968398,264.19176816398834 519.5828547968398,346.35015178976323" />
  <polygon fill="white" points="269.2232550271192,311.81684423688347 269.2232550271192,278.95349078657347 289.7628509335629,273.0242201737578 289.7628509335629,305.8875736240677" />
  <polygon fill="white" points="298.5655348934674,303.34645764714674 298.5655348934674,270.48310419683673 319.1051307999111,264.55383358402105 319.1051307999111,297.417187034331" />
  <polygon fill="white" points="327.90781475981555,294.87607105741 327.90781475981555,262.0127176071 348.44741066625926,256.0834469942843 348.44741066625926,288.94680044459426" />
  <polygon fill="white" points="357.2500946261637,286.40568446767327 357.2500946261637,253.5423310173633 377.78969053260744,247.61306040454758 377.78969053260744,280.4764138548575" />
  <polygon fill="white" points="386.5923744925119,277.93529787793653 386.5923744925119,245.07194442762656 407.1319703989556,239.14267381481085 407.1319703989556,272.0060272651208" />
  <polygon fill="white" points="415.93465435886003,269.4649112881998 415.93465435886003,236.60155783788983 436.4742502653038,230.67228722507411 436.4742502653038,263.53564067538406" />
</svg>
