<?xml version="1.0" encoding="UTF-8"?>
<svg
  xmlns="http://www.w3.org/2000/svg"
  width="848"
  height="600"
  style="background-color:white"
>
  <polygon fill="lightblue" points="357.49364905389035,752.2114317029974 57.49364905389035,492.4038105676658 490.50635094610965,367.4038105676658 790.5063509461097,627.2114317029974" />
  <polygon fill="steelblue" points="57.49364905389035,492.4038105676658 57.49364905389035,-27.2114317029974 490.50635094610965,-152.2114317029974 490.50635094610965,367.4038105676658" />
  <polygon fill="lightskyblue" points="790.5063509461097,627.2114317029974 790.5063509461097,107.5961894323342 490.50635094610965,-152.2114317029974 490.50635094610965,367.4038105676658" />
  <polygon fill="white" points="655.5063509461096,510.2980021920981 655.5063509461096,337.0929214352104 625.5063509461097,311.11215932167727 625.5063509461097,484.31724007856496" />
  <polygon fill="white" points="122.44555433772325,404.37177826491074 122.44555433772325,335.08974596215563 165.7468245269452,322.58974596215563 165.7468245269452,391.87177826491074" />
  <polygon fill="white" points="209.0480947161671,379.37177826491074 209.0480947161671,310.0897459621556 252.34936490538905,297.5897459621556 252.34936490538905,366.8717782649107" />
  <polygon fill="white" points="295.65063509461095,354.3717782649107 295.65063509461095,285.0897459621556 338.9519052838329,272.5897459621556 338.9519052838329,341.8717782649107" />
  <polygon fill="white" points="382.25317547305485,329.3717782649107 382.2531754730548,260.0897459621556 425.55444566227675,247.58974596215558 425.5544456622768,316.8717782649107" />
</svg>
