<?xml version="1.0" encoding="UTF-8"?>
<svg
  xmlns="http://www.w3.org/2000/svg"
  width="848"
  height="600"
  style="background-color:white"
>
  <polygon fill="lightblue" points="370.06599194096896,526.2630646002774 126.77791211803299,315.5694070356785 477.93400805903104,214.19937377612183 721.222087881967,424.8930313407207" />
  <polygon fill="steelblue" points="126.77791211803299,315.5694070356785 126.77791211803299,175.1069686592793 477.93400805903104,73.7369353997226 477.93400805903104,214.19937377612183" />
  <polygon fill="lightskyblue" points="721.222087881967,424.8930313407207 721.222087881967,284.4305929643215 477.93400805903104,73.7369353997226 477.93400805903104,214.19937377612183" />
  <polygon fill="white" points="197.00913130623258,239.1104250332075 197.00913130623258,182.9254496826478 232.1247409003324,172.78844635669213 232.1247409003324,228.97342170725182" />
  <polygon fill="white" points="284.7981552914821,213.7679167183183 284.7981552914821,157.58294136775862 319.91376488558194,147.44593804180295 319.91376488558194,203.63091339236263" />
  <polygon fill="white" points="372.5871792767316,188.42540840342915 372.5871792767316,132.24043305286943 407.70278887083145,122.10342972691376 407.70278887083145,178.28840507747347" />
  <polygon fill="hsl(324.0,50.0%,50.65955712546234%)" points="479.6610415418235,397.27835323792056 479.6610415418235,349.04355189946506 488.0887878444075,346.61067110123565 488.0887878444075,394.8454724396912" />
  <polygon fill="hsl(324.0,50.0%,50.65955712546234%)" points="500.73040729828335,391.1961512423471 500.73040729828335,342.96134990389163 492.3026609956994,345.39423070212104 492.3026609956994,393.62903204057653" />
  <polygon fill="hsl(324.0,50.0%,50.65955712546234%)" points="471.2332952392395,351.9540049881742 471.2332952392395,304.19677594019845 478.6075732540005,302.06800524174776 478.6075732540005,349.8252342897235" />
  <polygon fill="hsl(324.0,50.0%,50.65955712546234%)" points="501.7838755861064,343.13481209459275 501.7838755861064,295.377583046617 509.15815360086737,293.2488123481663 509.15815360086737,341.00604139614205" />
  <polygon fill="hsl(324.0,50.0%,50.65955712546234%)" points="478.6075732540005,309.4422832565087 478.6075732540005,302.06800524174776 501.7838755861064,295.377583046617 501.7838755861064,302.75186106137795" />
  <polygon fill="hsl(324.0,50.0%,50.65955712546234%)" points="479.6610415418235,349.5211241899448 479.6610415418235,301.76389514196904 500.73040729828335,295.6816931463957 500.73040729828335,343.4389221943714" />
  <polygon fill="hsl(324.0,50.0%,50.65955712546234%)" points="484.92838298093847,297.8554831906769 484.92838298093847,276.3647301190879 495.4630658591684,273.32362912130117 495.4630658591684,294.8143821928902" />
  <polygon fill="hsl(324.0,50.0%,50.65955712546234%)" points="487.03531955658445,299.63512444351835 487.03531955658445,275.7565099195305 493.3561292835224,273.9318493208585 493.3561292835224,297.81046384484637" />
</svg>
