<?xml version="1.0" encoding="UTF-8"?>
<svg
  xmlns="http://www.w3.org/2000/svg"
  width="848"
  height="600"
  style="background-color:white"
>
  <polygon fill="lightblue" points="388.6632281310253,540.2731764907636 229.2644427536336,402.22977902155895 459.3367718689747,335.81361844764575 618.7355572463664,473.8570159168504" />
  <polygon fill="steelblue" points="229.2644427536336,402.22977902155895 229.2644427536336,126.14298408314957 459.3367718689747,59.72682350923637 459.3367718689747,335.81361844764575" />
  <polygon fill="lightskyblue" points="618.7355572463664,473.8570159168504 618.7355572463664,197.77022097844105 459.3367718689747,59.72682350923637 459.3367718689747,335.81361844764575" />
  <polygon fill="white" points="256.10621448375673,357.6696542961478 256.10621448375673,320.8580816376932 279.1134473952909,314.21646558030193 279.1134473952909,351.0280382387565" />
  <polygon fill="white" points="294.45160266964695,346.6002942004956 294.45160266964695,309.78872154204106 317.458835581181,303.1471054846497 317.458835581181,339.9586781431043" />
  <polygon fill="white" points="332.7969908555371,335.5309341048434 332.7969908555371,298.7193614463888 355.8042237670712,292.0777453889975 355.8042237670712,328.8893180474521" />
  <polygon fill="white" points="371.1423790414273,324.4615740091912 371.1423790414273,287.6500013507366 394.14961195296144,281.0083852933453 394.14961195296144,317.8199579517999" />
  <polygon fill="white" points="409.48776722731753,313.392213913539 409.4877672273175,276.5806412550844 432.4950001388516,269.93902519769307 432.49500013885165,306.7505978561477" />
  <polygon fill="grey" points="449.61277107222327,110.08218209854249 449.61277107222327,87.07494918700837 472.6200039837574,80.43333312961704 472.6200039837574,103.44056604115119" />
  <polygon fill="lightgrey" points="449.61277107222327,110.08218209854249 449.61277107222327,87.07494918700837 436.3295389574406,75.57133273124134 436.3295389574406,98.57856564277546" />
  <polygon fill="darkgrey" points="449.61277107222327,87.07494918700837 436.3295389574406,75.57133273124134 459.3367718689747,68.92971667385001 472.6200039837574,80.43333312961704" />
  <polygon fill="hsl(324.0,50.0%,72.09185257592405%)" points="416.48089315452717,389.56670357271696 416.48089315452717,357.9639684454337 422.0026290532954,356.3699805916598 422.0026290532954,387.972715718943" />
  <polygon fill="hsl(324.0,50.0%,72.09185257592405%)" points="430.2852329014476,385.5817339382821 430.2852329014476,353.97899881099886 424.7634970026794,355.57298666477277 424.76349700267946,387.17572179205604" />
  <polygon fill="hsl(324.0,50.0%,72.09185257592405%)" points="410.95915725575895,359.87085466680446 410.95915725575895,328.58101790711805 415.7906761671811,327.18627853506587 415.7906761671811,358.4761152947523" />
  <polygon fill="hsl(324.0,50.0%,72.09185257592405%)" points="430.97544988879366,354.092648696874 430.97544988879366,322.8028119371876 435.8069688002158,321.4080725651354 435.8069688002158,352.6979093248218" />
  <polygon fill="hsl(324.0,50.0%,72.09185257592405%)" points="415.7906761671811,332.01779744648803 415.7906761671811,327.18627853506587 430.97544988879366,322.8028119371876 430.97544988879366,327.63433084860975" />
  <polygon fill="hsl(324.0,50.0%,72.09185257592405%)" points="416.48089315452717,358.2768668130305 416.48089315452717,326.98703005334414 430.2852329014476,323.0020604189093 430.2852329014476,354.2918971785957" />
  <polygon fill="hsl(324.0,50.0%,72.09185257592405%)" points="419.9319780912573,324.4262958067511 419.9319780912573,310.3458692648922 426.83414796471754,308.35338444767484 426.83414796471754,322.4338109895337" />
  <polygon fill="hsl(324.0,50.0%,72.09185257592405%)" points="421.31241206594933,325.59229068129196 421.31241206594933,309.94737230144875 425.45371399002545,308.7518814111183 425.45371399002545,324.3967997909615" />
  <polygon fill="hsl(324.0,50.0%,50.65955712546234%)" points="460.4682989033595,455.7642834189098 460.4682989033595,424.16154829162656 465.99003480212764,422.56756043785265 465.99003480212764,454.1702955651359" />
  <polygon fill="hsl(324.0,50.0%,50.65955712546234%)" points="474.27263865027993,451.77931378447505 474.27263865027993,420.1765786571918 468.7509027515117,421.7705665109657 468.7509027515117,453.37330163824896" />
  <polygon fill="hsl(324.0,50.0%,50.65955712546234%)" points="454.94656300459127,426.0684345129973 454.94656300459127,394.7785977533109 459.77808191601343,393.3838583812588 459.77808191601343,424.67369514094514" />
  <polygon fill="hsl(324.0,50.0%,50.65955712546234%)" points="474.962855637626,420.29022854306686 474.962855637626,389.0003917833805 479.79437454904814,387.6056524113283 479.79437454904814,418.8954891710147" />
  <polygon fill="hsl(324.0,50.0%,50.65955712546234%)" points="459.77808191601343,398.21537729268096 459.77808191601343,393.3838583812588 474.962855637626,389.0003917833805 474.962855637626,393.8319106948027" />
  <polygon fill="hsl(324.0,50.0%,50.65955712546234%)" points="460.4682989033595,424.4744466592234 460.4682989033595,393.184609899537 474.27263865027993,389.19964026510223 474.27263865027993,420.48947702478864" />
  <polygon fill="hsl(324.0,50.0%,50.65955712546234%)" points="463.9193838400896,390.62387565294404 463.91938384008955,376.5434491110851 470.8215537135498,374.55096429386776 470.8215537135498,388.6313908357266" />
  <polygon fill="hsl(324.0,50.0%,50.65955712546234%)" points="465.29981781478165,391.7898705274848 465.29981781478165,376.1449521476417 469.44111973885776,374.9494612573112 469.44111973885776,390.5943796371544" />
  <polygon fill="hsl(324.0,50.0%,42.21758785095096%)" points="405.10886094923427,502.8213931543218 405.10886094923427,471.21865802703854 410.6305968480024,469.6246701732646 410.6305968480024,501.22740530054784" />
  <polygon fill="hsl(324.0,50.0%,42.21758785095096%)" points="418.9132006961547,498.83642351988703 418.9132006961547,467.23368839260377 413.39146479738656,468.8276762463777 413.39146479738656,500.43041137366095" />
  <polygon fill="hsl(324.0,50.0%,42.21758785095096%)" points="399.58712505046606,473.1255442484093 399.58712505046606,441.8357074887229 404.4186439618882,440.4409681166708 404.4186439618882,471.7308048763571" />
  <polygon fill="hsl(324.0,50.0%,42.21758785095096%)" points="419.6034176835007,467.34733827847884 419.6034176835007,436.0575015187925 424.4349365949229,434.6627621467403 424.4349365949229,465.9525989064267" />
  <polygon fill="hsl(324.0,50.0%,42.21758785095096%)" points="404.4186439618882,445.2724870280929 404.4186439618882,440.4409681166708 419.6034176835007,436.0575015187925 419.6034176835007,440.8890204302146" />
  <polygon fill="hsl(324.0,50.0%,42.21758785095096%)" points="405.10886094923427,471.5315563946354 405.1088609492342,440.241719634949 418.9132006961547,436.2567500005142 418.9132006961547,467.5465867602006" />
  <polygon fill="hsl(324.0,50.0%,42.21758785095096%)" points="408.55994588596434,437.68098538835596 408.55994588596434,423.6005588464971 415.4621157594246,421.6080740292797 415.4621157594246,435.68850057113855" />
  <polygon fill="hsl(324.0,50.0%,42.21758785095096%)" points="409.9403798606564,438.8469802628968 409.9403798606564,423.2020618830536 414.08168178473255,422.0065709927232 414.08168178473255,437.6514893725664" />
</svg>
