<?xml version="1.0" encoding="UTF-8"?>
<svg
  xmlns="http://www.w3.org/2000/svg"
  width="848"
  height="600"
  style="background-color:white"
>
  <polygon fill="lightblue" points="383.5494939557267,522.3707128413578 201.0834340885247,364.3504696679086 464.4505060442733,288.3229447232411 646.9165659114753,446.3431878966902" />
  <polygon fill="steelblue" points="201.0834340885247,364.3504696679086 201.0834340885247,153.65681210330976 464.4505060442733,77.6292871586422 464.4505060442733,288.3229447232411" />
  <polygon fill="lightskyblue" points="646.9165659114753,446.3431878966902 646.9165659114753,235.6495303320914 464.4505060442733,77.6292871586422 464.4505060442733,288.3229447232411" />
  <polygon fill="white" points="564.8068389712344,375.23407846863813 564.8068389712344,269.8872496863387 546.5602329845142,254.08522536899378 546.5602329845142,359.43205415129324" />
  <polygon fill="white" points="231.80959248336205,313.34186024477765 231.80959248336205,271.2031287318579 258.1462996789369,263.6003762373911 258.1462996789369,305.7391077503109" />
  <polygon fill="white" points="275.7041044759868,300.67060608733306 275.7041044759868,258.5318745744133 302.04081167156164,250.92912207994652 302.04081167156164,293.0678535928663" />
  <polygon fill="white" points="319.59861646861157,287.99935192988846 319.59861646861157,245.8606204169687 345.9353236641864,238.25786792250193 345.93532366418646,280.3965994354217" />
  <polygon fill="white" points="363.4931284612363,275.32809777244387 363.4931284612363,233.1893662595241 389.8298356568112,225.58661376505734 389.8298356568112,267.7253452779771" />
  <polygon fill="white" points="407.38764045386114,262.6568436149993 407.38764045386114,220.5181121020795 433.72434764943597,212.91535960761274 433.72434764943597,255.05409112053252" />
  <polygon fill="antiquewhite" points="496.08280092084203,427.24497540043404 496.08280092084203,337.7001709354795 517.1521666773019,331.6179689399061 517.1521666773019,421.1627734048606" />
  <polygon fill="beige" points="496.08280092084203,427.24497540043404 496.08280092084203,337.7001709354795 483.9183969296952,327.16548805724955 483.9183969296952,416.7102925222041" />
  <polygon fill="bisque" points="496.08280092084203,337.7001709354795 483.9183969296952,327.16548805724955 504.9877626861551,321.0832860616762 517.1521666773019,331.6179689399061" />
  <polygon fill="antiquewhite" points="397.1757631144899,504.71038589766306 397.1757631144899,415.1655814327085 418.24512887094977,409.08337943713514 418.24512887094977,498.62818390208963" />
  <polygon fill="beige" points="397.1757631144899,504.71038589766306 397.1757631144899,415.1655814327085 385.0113591233431,404.63089855447856 385.0113591233431,494.17570301943306" />
  <polygon fill="bisque" points="397.1757631144899,415.1655814327085 385.0113591233431,404.63089855447856 406.080724879803,398.54869655890514 418.24512887094977,409.08337943713514" />
</svg>
