<?xml version="1.0" encoding="UTF-8"?>
<svg
  xmlns="http://www.w3.org/2000/svg"
  width="848"
  height="600"
  style="background-color:white"
>
  <polygon fill="lightblue" points="387.57297136946073,476.53515455164995 223.2562041179109,334.2326598440729 460.42702863053927,265.7673401559271 624.7437958820891,408.0698348635042" />
  <polygon fill="steelblue" points="223.2562041179109,334.2326598440729 223.2562041179109,191.93016513649582 460.42702863053927,123.46484544835005 460.42702863053927,265.7673401559271" />
  <polygon fill="lightskyblue" points="624.7437958820891,408.0698348635042 624.7437958820891,265.7673401559271 460.42702863053927,123.46484544835005 460.42702863053927,265.7673401559271" />
  <polygon fill="white" points="550.8012506188917,344.0337122450945 550.8012506188917,249.16538244004312 534.3695738937367,234.9351329692854 534.3695738937367,329.80346277433677" />
  <polygon fill="white" points="245.27920925122638,289.9278339510102 245.27920925122638,251.9805020289897 268.9962917024892,245.1339700601751 268.9962917024892,283.08130198219567" />
  <polygon fill="white" points="279.1607556101733,280.14707399556085 279.1607556101733,242.19974207354028 302.87783806143614,235.3532101047257 302.87783806143614,273.30054202674626" />
  <polygon fill="white" points="313.0423019691202,270.36631404011143 313.0423019691202,232.41898211809087 336.75938442038307,225.5724501492763 336.75938442038307,263.51978207129685" />
  <polygon fill="white" points="346.92384832806715,260.585554084662 346.92384832806715,222.63822216264148 370.64093077932995,215.79169019382692 370.64093077932995,253.73902211584746" />
  <polygon fill="white" points="380.80539468701403,250.80479412921264 380.80539468701403,212.8574622071921 404.5224771382769,206.0109302383775 404.5224771382769,243.95826216039805" />
  <polygon fill="white" points="414.68694104596096,241.02403417376325 414.68694104596096,203.0767022517427 438.4040234972238,196.2301702829281 438.4040234972238,234.17750220494867" />
</svg>
