<?xml version="1.0" encoding="UTF-8"?>
<svg
  xmlns="http://www.w3.org/2000/svg"
  width="848"
  height="600"
  style="background-color:white"
>
  <polygon fill="lightblue" points="357.49364905389035,752.2114317029974 57.49364905389035,492.4038105676658 490.50635094610965,367.4038105676658 790.5063509461097,627.2114317029974" />
  <polygon fill="steelblue" points="57.49364905389035,492.4038105676658 57.49364905389035,-27.2114317029974 490.50635094610965,-152.2114317029974 490.50635094610965,367.4038105676658" />
  <polygon fill="lightskyblue" points="790.5063509461097,627.2114317029974 790.5063509461097,107.5961894323342 490.50635094610965,-152.2114317029974 490.50635094610965,367.4038105676658" />
  <polygon fill="white" points="655.5063509461096,510.2980021920981 655.5063509461096,337.0929214352104 625.5063509461097,311.11215932167727 625.5063509461097,484.31724007856496" />
  <polygon fill="white" points="97.70197137245361,411.51463540776786 97.70197137245356,342.23260310501274 141.0032415616755,329.73260310501274 141.0032415616755,399.01463540776786" />
  <polygon fill="white" points="159.56092878562777,393.657492550625 159.56092878562777,324.3754602478699 202.8621989748497,311.8754602478699 202.8621989748497,381.157492550625" />
  <polygon fill="white" points="221.41988619880195,375.80034969348213 221.41988619880195,306.518317390727 264.72115638802387,294.018317390727 264.72115638802387,363.30034969348213" />
  <polygon fill="white" points="283.2788436119762,357.94320683633924 283.2788436119762,288.66117453358413 326.5801138011981,276.16117453358413 326.5801138011981,345.44320683633924" />
  <polygon fill="white" points="345.13780102515034,340.0860639791964 345.13780102515034,270.8040316764413 388.4390712143723,258.3040316764413 388.4390712143723,327.5860639791964" />
  <polygon fill="white" points="406.9967584383245,322.2289211220535 406.9967584383245,252.94688881929844 450.29802862754644,240.44688881929844 450.29802862754644,309.7289211220535" />
</svg>
