<?xml version="1.0" encoding="UTF-8"?>
<svg
  xmlns="http://www.w3.org/2000/svg"
  width="848"
  height="600"
  style="background-color:white"
>
  <polygon fill="lightblue" points="395.7837449524201,473.4858888614862 268.5045243388415,363.25885043624316 452.2162550475799,310.2258418472521 579.4954756611585,420.4528802724951" />
  <polygon fill="steelblue" points="268.5045243388415,363.25885043624316 268.5045243388415,179.54711972750485 452.2162550475799,126.51411113851378 452.2162550475799,310.2258418472521" />
  <polygon fill="lightskyblue" points="579.4954756611585,420.4528802724951 579.4954756611585,236.7411495637568 452.2162550475799,126.51411113851378 452.2162550475799,310.2258418472521" />
  <polygon fill="white" points="522.2198263850481,370.85071298113576 522.2198263850481,297.36602069764047 509.4919043236903,286.34331685511614 509.4919043236903,359.8280091386115" />
  <polygon fill="white" points="296.0612839451523,325.9100222344964 296.0612839451523,296.5161453210983 314.43245701602615,291.21284446219914 314.43245701602615,320.6067213755973" />
  <polygon fill="white" points="332.80363008689994,315.30342051669817 332.80363008689994,285.90954360330005 351.1748031577738,280.60624274440096 351.1748031577738,310.0001196577991" />
  <polygon fill="white" points="369.54597622864765,304.6968187989 369.54597622864765,275.3029418855018 387.9171492995215,269.9996410266027 387.9171492995215,299.3935179400009" />
  <polygon fill="white" points="406.2883223703953,294.09021708110174 406.2883223703953,264.6963401677036 424.65949544126914,259.39303930880453 424.65949544126914,288.78691622220265" />
</svg>
