<?xml version="1.0" encoding="UTF-8"?>
<svg
  xmlns="http://www.w3.org/2000/svg"
  width="848"
  height="600"
  style="background-color:white"
>
  <polygon fill="lightblue" points="376.88430417470033,528.3353036748817 164.35259033817812,344.2774403826088 471.11569582529967,255.7225596173912 683.6474096618219,439.78042290966414" />
  <polygon fill="steelblue" points="164.35259033817812,344.2774403826088 164.35259033817812,160.2195770903359 471.11569582529967,71.66469632511829 471.11569582529967,255.7225596173912" />
  <polygon fill="lightskyblue" points="683.6474096618219,439.78042290966414 683.6474096618219,255.7225596173912 471.11569582529967,71.66469632511829 471.11569582529967,255.7225596173912" />
  <polygon fill="white" points="552.5861861292998,326.27807387942914 552.5861861292998,209.70809379432296 531.3330147456476,191.30230746509568 531.3330147456476,307.87228755020186" />
  <polygon fill="white" points="623.4300907414739,387.6306949768534 623.4300907414739,271.0607148917473 602.1769193578217,252.65492856251998 602.1769193578217,369.2249086476262" />
  <polygon fill="white" points="302.3959878073828,255.34564716032142 302.3959878073828,206.26355028238197 333.07229835609496,197.40806220586023 333.07229835609496,246.49015908379965" />
  <polygon fill="hsl(360.0,50.0%,72.09185257592405%)" points="413.9745242060362,327.3933397841528 413.9745242060362,285.25635961444175 421.33683873772713,283.1310424760765 421.33683873772713,325.26802264578754" />
  <polygon fill="hsl(360.0,50.0%,72.09185257592405%)" points="432.3803105352635,322.0800469382397 432.3803105352635,279.9430667685287 425.01799600357253,282.0683839068939 425.0179960035726,324.20536407660495" />
  <polygon fill="hsl(360.0,50.0%,72.09185257592405%)" points="406.6122096743453,287.79887457626944 406.6122096743453,246.07909223002093 413.05423488957484,244.21943973395136 413.05423488957484,285.9392220801999" />
  <polygon fill="hsl(360.0,50.0%,72.09185257592405%)" points="433.3005998517249,280.0945999496955 433.3005998517249,238.374817603447 439.7426250669544,236.5151651073774 439.7426250669544,278.234947453626" />
  <polygon fill="hsl(360.0,50.0%,72.09185257592405%)" points="413.05423488957484,250.66146494918092 413.05423488957484,244.21943973395136 433.3005998517249,238.374817603447 433.3005998517249,244.81684281867655" />
  <polygon fill="hsl(360.0,50.0%,72.09185257592405%)" points="413.9745242060362,285.6735574379042 413.9745242060362,243.9537750916557 432.3803105352635,238.64048224574265 432.3803105352635,280.36026459199115" />
  <polygon fill="hsl(360.0,50.0%,72.09185257592405%)" points="418.575970788343,240.539462762865 418.575970788343,221.7655607070532 427.77886395295667,219.10891428409667 427.77886395295667,237.8828163399085" />
  <polygon fill="hsl(360.0,50.0%,72.09185257592405%)" points="420.41654942126576,242.09412259558613 420.41654942126576,221.2342314224619 425.9382853200339,219.64024356868796 425.9382853200339,240.50013474181222" />
  <polygon fill="hsl(360.0,50.0%,50.65955712546234%)" points="472.6243985378126,415.65677957907667 472.6243985378126,373.51979940936565 479.98671306950354,371.3944822710004 479.98671306950354,413.53146244071144" />
  <polygon fill="hsl(360.0,50.0%,50.65955712546234%)" points="491.0301848670399,410.3434867331636 491.0301848670399,368.2065065634526 483.667870335349,370.3318237018178 483.667870335349,412.46880387152885" />
  <polygon fill="hsl(360.0,50.0%,50.65955712546234%)" points="465.2620840061217,376.06231437119334 465.2620840061217,334.34253202494483 471.70410922135125,332.48287952887523 471.70410922135125,374.2026618751238" />
  <polygon fill="hsl(360.0,50.0%,50.65955712546234%)" points="491.9504741835013,368.3580397446194 491.9504741835013,326.63825739837085 498.3924993987308,324.7786049023013 498.3924993987308,366.4983872485498" />
  <polygon fill="hsl(360.0,50.0%,50.65955712546234%)" points="471.70410922135125,338.92490474410477 471.70410922135125,332.48287952887523 491.9504741835013,326.63825739837085 491.9504741835013,333.08028261360045" />
  <polygon fill="hsl(360.0,50.0%,50.65955712546234%)" points="472.6243985378126,373.9369972328281 472.6243985378126,332.2172148865796 491.0301848670399,326.90392204066654 491.0301848670399,368.62370438691505" />
  <polygon fill="hsl(360.0,50.0%,50.65955712546234%)" points="477.2258451201194,328.8029025577889 477.2258451201194,310.02900050197707 486.4287382847331,307.3723540790205 486.4287382847331,326.14625613483236" />
  <polygon fill="hsl(360.0,50.0%,50.65955712546234%)" points="479.06642375304216,330.35756239051 479.06642375304216,309.49767121738574 484.5881596518103,307.90368336361183 484.5881596518103,328.7635745367361" />
  <polygon fill="hsl(360.0,50.0%,42.21758785095096%)" points="398.81181459897897,478.39959255962594 398.81181459897897,436.2626123899149 406.1741291306699,434.1372952515497 406.1741291306699,476.2742754212607" />
  <polygon fill="hsl(360.0,50.0%,42.21758785095096%)" points="417.21760092820625,473.08629971371283 417.21760092820625,430.9493195440018 409.85528639651534,433.0746366823671 409.85528639651534,475.2116168520781" />
  <polygon fill="hsl(360.0,50.0%,42.21758785095096%)" points="391.44950006728806,438.8051273517426 391.44950006728806,397.0853450054941 397.8915252825176,395.2256925094245 397.8915252825176,436.94547485567307" />
  <polygon fill="hsl(360.0,50.0%,42.21758785095096%)" points="418.13789024466763,431.1008527251687 418.13789024466763,389.3810703789202 424.57991545989717,387.5214178828506 424.57991545989717,429.24120022909915" />
  <polygon fill="hsl(360.0,50.0%,42.21758785095096%)" points="397.8915252825176,401.66771772465404 397.8915252825176,395.2256925094245 418.13789024466763,389.3810703789202 418.13789024466763,395.8230955941497" />
  <polygon fill="hsl(360.0,50.0%,42.21758785095096%)" points="398.81181459897897,436.67981021337744 398.81181459897897,394.9600278671289 417.21760092820625,389.6467350212158 417.21760092820625,431.3665173674643" />
  <polygon fill="hsl(360.0,50.0%,42.21758785095096%)" points="403.4132611812858,391.5457155383382 403.4132611812858,372.77181348252634 412.6161543458995,370.11516705956984 412.6161543458995,388.88906911538163" />
  <polygon fill="hsl(360.0,50.0%,42.21758785095096%)" points="405.25383981420856,393.1003753710593 405.25383981420856,372.2404841979351 410.7755757129767,370.6464963441611 410.7755757129767,391.50638751728536" />
  <polygon fill="hsl(360.0,50.0%,41.7579500056716%)" points="543.3883296427712,438.91994654518714 543.3883296427712,396.7829663754761 550.7506441744621,394.6576492371109 550.7506441744621,436.7946294068219" />
  <polygon fill="hsl(360.0,50.0%,41.7579500056716%)" points="561.7941159719984,433.6066536992741 561.7941159719984,391.46967352956307 554.4318014403075,393.5949906679283 554.4318014403075,435.7319708376393" />
  <polygon fill="hsl(360.0,50.0%,41.7579500056716%)" points="536.0260151110801,399.3254813373038 536.0260151110801,357.6056989910553 542.4680403263097,355.74604649498576 542.4680403263097,397.46582884123427" />
  <polygon fill="hsl(360.0,50.0%,41.7579500056716%)" points="562.7144052884598,391.6212067107299 562.7144052884598,349.9014243644814 569.1564305036893,348.0417718684118 569.1564305036893,389.76155421466035" />
  <polygon fill="hsl(360.0,50.0%,41.7579500056716%)" points="542.4680403263097,362.1880717102153 542.4680403263097,355.74604649498576 562.7144052884598,349.9014243644814 562.7144052884598,356.3434495797109" />
  <polygon fill="hsl(360.0,50.0%,41.7579500056716%)" points="543.3883296427712,397.20016419893864 543.3883296427712,355.4803818526901 561.7941159719984,350.167089006777 561.7941159719984,391.8868713530255" />
  <polygon fill="hsl(360.0,50.0%,41.7579500056716%)" points="547.9897762250779,352.0660695238994 547.9897762250779,333.29216746808754 557.1926693896916,330.63552104513104 557.1926693896916,349.40942310094283" />
  <polygon fill="hsl(360.0,50.0%,41.7579500056716%)" points="549.8303548580006,353.62072935662053 549.8303548580006,332.7608381834963 555.3520907567688,331.16685032972237 555.3520907567688,352.0267415028466" />
</svg>
