<?xml version="1.0" encoding="UTF-8"?>
<svg
  xmlns="http://www.w3.org/2000/svg"
  width="848"
  height="600"
  style="background-color:white"
>
  <polygon fill="lightblue" points="381.19254943511635,535.3276689941932 188.0946725139904,368.1000021636572 466.80745056488365,287.6425534465214 659.9053274860096,454.87022027705734" />
  <polygon fill="steelblue" points="188.0946725139904,368.1000021636572 188.0946725139904,145.12977972294266 466.80745056488365,64.67233100580677 466.80745056488365,287.6425534465214" />
  <polygon fill="lightskyblue" points="659.9053274860096,454.87022027705734 659.9053274860096,231.89999783634275 466.80745056488365,64.67233100580677 466.80745056488365,287.6425534465214" />
  <polygon fill="white" points="540.8283033846486,351.74649239822685 540.8283033846486,245.83563673888742 521.518515692536,229.1128700558338 521.518515692536,335.02372571517327" />
  <polygon fill="white" points="605.1942623583573,407.4890480084055 605.1942623583573,301.57819234906606 585.8844746662446,284.8554256660125 585.8844746662446,390.7662813253519" />
  <polygon fill="hsl(288.0,50.0%,50.65955712546234%)" points="468.17819794856814,432.9524357419832 468.17819794856814,394.6684485489126 474.8673046217896,392.7374697797013 474.8673046217896,431.021456972772" />
  <polygon fill="hsl(288.0,50.0%,50.65955712546234%)" points="484.9009646316217,428.1249888189551 484.9009646316217,389.8410016258844 478.2118579584003,391.7719803950957 478.2118579584003,430.05596758816637" />
  <polygon fill="hsl(288.0,50.0%,50.65955712546234%)" points="461.4890912753467,396.978476696273 461.4890912753467,359.07353888135157 467.34205961441546,357.3839324582917 467.34205961441546,395.2888702732132" />
  <polygon fill="hsl(288.0,50.0%,50.65955712546234%)" points="485.73710296577445,389.9786786578822 485.73710296577445,352.0737408429607 491.5900713048432,350.3841344199009 491.5900713048432,388.28907223482236" />
  <polygon fill="hsl(288.0,50.0%,50.65955712546234%)" points="467.34205961441546,363.2369007973605 467.34205961441546,357.3839324582917 485.73710296577445,352.0737408429607 485.73710296577445,357.92670918202947" />
  <polygon fill="hsl(288.0,50.0%,50.65955712546234%)" points="468.17819794856814,395.0474979270618 468.17819794856814,357.1425601121403 484.9009646316217,352.31511318911214 484.9009646316217,390.2200510040336" />
  <polygon fill="hsl(288.0,50.0%,50.65955712546234%)" points="472.35888961933153,354.04045149063717 472.35888961933153,336.9832294739225 480.7202729608583,334.56950601240845 480.7202729608583,351.6267280291231" />
  <polygon fill="hsl(288.0,50.0%,50.65955712546234%)" points="474.0311662876369,355.45295368908046 474.0311662876369,336.5004847816197 479.04799629255297,335.05225070471124 479.04799629255297,354.004719612172" />
</svg>
