<?xml version="1.0" encoding="UTF-8"?>
<svg
  xmlns="http://www.w3.org/2000/svg"
  width="848"
  height="600"
  style="background-color:white"
>
  <polygon fill="lightblue" points="386.44907656618295,530.879516736014 217.06259136759783,384.1865174962824 461.55092343381705,313.60881533020523 630.9374086324021,460.3018145699368" />
  <polygon fill="steelblue" points="217.06259136759783,384.1865174962824 217.06259136759783,139.6981854300632 461.55092343381705,69.12048326398605 461.55092343381705,313.60881533020523" />
  <polygon fill="lightskyblue" points="630.9374086324021,460.3018145699368 630.9374086324021,215.81348250371758 461.55092343381705,69.12048326398605 461.55092343381705,313.60881533020523" />
  <polygon fill="white" points="554.7134902930388,394.2899649120576 554.7134902930388,296.4946320855699 537.7748417731804,281.82533216159675 537.7748417731804,379.62066498808446" />
  <polygon fill="white" points="265.96025778084163,330.9528439324719 265.96025778084163,291.83471080187684 290.4090909874636,284.77694058526913 290.4090909874636,323.8950737158642" />
  <polygon fill="white" points="327.08234079739645,313.3084183909526 327.08234079739645,274.19028526035754 351.5311740040184,267.13251504374983 351.5311740040184,306.2506481743449" />
  <polygon fill="white" points="388.2044238139513,295.6639928494333 388.2044238139513,256.54585971883824 412.6532570205732,249.48808950223054 412.6532570205732,288.6062226328256" />
  <polygon fill="antiquewhite" points="490.91574476994265,442.5726045970194 490.91574476994265,359.4465716945049 510.4748113352402,353.8003555212187 510.4748113352402,436.9263884237332" />
  <polygon fill="beige" points="490.91574476994265,442.5726045970194 490.91574476994265,359.4465716945049 479.6233124233703,349.6670384118561 479.6233124233703,432.79307131437065" />
  <polygon fill="bisque" points="490.91574476994265,359.4465716945049 479.6233124233703,349.6670384118561 499.18237898866784,344.0208222385699 510.4748113352402,353.8003555212187" />
  <polygon fill="antiquewhite" points="399.0985843204065,514.4851214680531 399.0985843204064,431.3590885655385 418.65765088570396,425.7128723922524 418.657650885704,508.8389052947669" />
  <polygon fill="beige" points="399.0985843204065,514.4851214680531 399.0985843204064,431.3590885655385 387.8061519738341,421.57955528288977 387.8061519738341,504.7055881854043" />
  <polygon fill="bisque" points="399.0985843204064,431.3590885655385 387.8061519738341,421.57955528288977 407.36521853913166,415.9333391096036 418.65765088570396,425.7128723922524" />
  <polygon fill="antiquewhite" points="429.8762072775074,344.9143856235096 429.8762072775074,261.7883527209951 449.4352738428049,256.1421365477089 449.4352738428049,339.2681694502234" />
  <polygon fill="beige" points="429.8762072775074,344.9143856235096 429.8762072775074,261.7883527209951 418.583774930935,252.0088194383463 418.583774930935,335.13485234086085" />
  <polygon fill="bisque" points="429.8762072775074,261.7883527209951 418.583774930935,252.0088194383463 438.14284149623256,246.36260326506013 449.4352738428049,256.1421365477089" />
  <polygon fill="antiquewhite" points="412.8632640932666,382.6823728555565 412.8632640932666,299.5563399530419 432.42233065856414,293.91012377975574 432.42233065856414,377.0361566822703" />
  <polygon fill="beige" points="412.8632640932666,382.6823728555565 412.8632640932666,299.5563399530419 401.57083174669424,289.77680667039317 401.57083174669424,372.9028395729077" />
  <polygon fill="bisque" points="412.8632640932666,299.5563399530419 401.57083174669424,289.77680667039317 421.1298983119918,284.130590497107 432.42233065856414,293.91012377975574" />
</svg>
