<?xml version="1.0" encoding="UTF-8"?>
<svg
  xmlns="http://www.w3.org/2000/svg"
  width="848"
  height="600"
  style="background-color:white"
>
  <polygon fill="lightblue" points="379.47845728694574,515.7633416505912 178.6485722622949,341.8395593801356 468.52154271305426,258.1604406198644 669.3514277377051,432.08422289032" />
  <polygon fill="steelblue" points="178.6485722622949,341.8395593801356 178.6485722622949,167.91577710967996 468.52154271305426,84.23665834940877 468.52154271305426,258.1604406198644" />
  <polygon fill="lightskyblue" points="669.3514277377051,432.08422289032 669.3514277377051,258.1604406198644 468.52154271305426,84.23665834940877 468.52154271305426,258.1604406198644" />
  <polygon fill="white" points="578.9779794766123,353.818520868615 578.9779794766123,237.86933268831123 558.8949909741472,220.47695446126568 558.8949909741472,336.4261426415694" />
  <polygon fill="white" points="212.46708548155016,285.69732025264915 212.46708548155016,239.31764498052763 241.45438252662612,230.9497331045005 241.45438252662612,277.329408376622" />
  <polygon fill="white" points="260.7792472233434,271.7508004592706 260.7792472233434,225.37112518714906 289.76654426841935,217.00321331112195 289.76654426841935,263.38288858324347" />
  <polygon fill="white" points="309.0914089651366,257.80428066589207 309.0914089651366,211.42460539377055 338.07870601021256,203.05669351774344 338.07870601021256,249.43636878986493" />
  <polygon fill="white" points="357.4035707069298,243.85776087251352 357.4035707069298,197.478085600392 386.39086775200576,189.11017372436487 386.39086775200576,235.4898489964864" />
  <polygon fill="white" points="405.7157324487231,229.91124107913498 405.7157324487231,183.53156580701346 434.703029493799,175.16365393098636 434.703029493799,221.54332920310785" />
  <polygon fill="antiquewhite" points="503.3373881790583,411.06392014146394 503.3373881790583,312.50711018820573 526.5272258151191,305.812780687384 526.5272258151191,404.36959064064223" />
  <polygon fill="beige" points="503.3373881790583,411.06392014146394 503.3373881790583,312.50711018820573 489.9487291774149,300.9121913701753 489.9487291774149,399.46900132343353" />
  <polygon fill="bisque" points="503.3373881790583,312.50711018820573 489.9487291774149,300.9121913701753 513.1385668134757,294.21786186935367 526.5272258151191,305.812780687384" />
  <polygon fill="antiquewhite" points="394.4761070989766,496.3256367306667 394.4761070989766,397.7688267774085 417.66594473503733,391.0744972765868 417.66594473503733,489.631307229845" />
  <polygon fill="beige" points="394.4761070989766,496.3256367306667 394.4761070989766,397.7688267774085 381.0874480973332,386.1739079593781 381.0874480973332,484.73071791263635" />
  <polygon fill="bisque" points="394.4761070989766,397.7688267774085 381.0874480973332,386.1739079593781 404.27728573339397,379.47957845855643 417.66594473503733,391.0744972765868" />
</svg>
