<?xml version="1.0" encoding="UTF-8"?>
<svg
  xmlns="http://www.w3.org/2000/svg"
  width="848"
  height="600"
  style="background-color:white"
>
  <polygon fill="lightblue" points="392.4532678215699,473.42352440918467 250.15077311399287,350.1859489705223 455.5467321784301,290.89324284236517 597.8492268860072,414.1308182810275" />
  <polygon fill="steelblue" points="250.15077311399287,350.1859489705223 250.15077311399287,185.8691817189725 455.5467321784301,126.57647559081536 455.5467321784301,290.89324284236517" />
  <polygon fill="lightskyblue" points="597.8492268860072,414.1308182810275 597.8492268860072,249.8140510294777 455.5467321784301,126.57647559081536 455.5467321784301,290.89324284236517" />
  <polygon fill="white" points="533.8131042675975,358.67390933362947 533.8131042675975,276.5155257078546 519.5828547968398,264.19176816398834 519.5828547968398,346.35015178976323" />
  <polygon fill="white" points="280.9601669736585,308.4286896009888 280.9601669736585,275.5653361506788 301.49976288010214,269.6360655378631 301.49976288010214,302.49941898817303" />
  <polygon fill="white" points="322.0393587865459,296.57014837535735 322.0393587865459,263.70679492504735 342.5789546929896,257.77752431223166 342.5789546929896,290.6408777625416" />
  <polygon fill="white" points="363.1185505994333,284.7116071497259 363.1185505994333,251.84825369941595 383.6581465058771,245.91898308660024 383.6581465058771,278.7823365369102" />
  <polygon fill="white" points="404.1977424123208,272.8530659240945 404.1977424123208,239.98971247378452 424.7373383187645,234.0604418609688 424.7373383187645,266.92379531127875" />
</svg>
