<?xml version="1.0" encoding="UTF-8"?>
<svg
  xmlns="http://www.w3.org/2000/svg"
  width="848"
  height="600"
  style="background-color:white"
>
  <polygon fill="lightblue" points="386.44907656618295,530.879516736014 217.06259136759783,384.1865174962824 461.55092343381705,313.60881533020523 630.9374086324021,460.3018145699368" />
  <polygon fill="steelblue" points="217.06259136759783,384.1865174962824 217.06259136759783,139.6981854300632 461.55092343381705,69.12048326398605 461.55092343381705,313.60881533020523" />
  <polygon fill="lightskyblue" points="630.9374086324021,460.3018145699368 630.9374086324021,215.81348250371758 461.55092343381705,69.12048326398605 461.55092343381705,313.60881533020523" />
  <polygon fill="white" points="554.7134902930388,394.2899649120576 554.7134902930388,296.4946320855699 537.7748417731804,281.82533216159675 537.7748417731804,379.62066498808446" />
  <polygon fill="white" points="239.7650793451753,338.51474059312307 239.7650793451753,299.3966074625279 264.21391255179725,292.3388372459202 264.21391255179725,331.4569703765153" />
  <polygon fill="white" points="274.6919839260638,328.43221171225485 274.6919839260638,289.3140785816598 299.1408171326857,282.25630836505206 299.1408171326857,321.37444149564715" />
  <polygon fill="white" points="309.61888850695226,318.3496828313867 309.61888850695226,279.2315497007916 334.06772171357414,272.1737794841839 334.06772171357414,311.291912614779" />
  <polygon fill="white" points="344.5457930878407,308.26715395051855 344.5457930878407,269.14902081992346 368.9946262944626,262.09125060331576 368.99462629446265,301.20938373391084" />
  <polygon fill="white" points="379.47269766872915,298.1846250696504 379.47269766872915,259.06649193905525 403.9215308753511,252.00872172244755 403.9215308753511,291.12685485304263" />
  <polygon fill="white" points="414.3996022496176,288.1020961887822 414.3996022496176,248.98396305818713 438.84843545623954,241.9261928415794 438.84843545623954,281.0443259721745" />
</svg>
