<?xml version="1.0" encoding="UTF-8"?>
<svg
  xmlns="http://www.w3.org/2000/svg"
  width="848"
  height="600"
  style="background-color:white"
>
  <polygon fill="lightblue" points="387.57297136946073,476.53515455164995 223.2562041179109,334.2326598440729 460.42702863053927,265.7673401559271 624.7437958820891,408.0698348635042" />
  <polygon fill="steelblue" points="223.2562041179109,334.2326598440729 223.2562041179109,191.93016513649582 460.42702863053927,123.46484544835005 460.42702863053927,265.7673401559271" />
  <polygon fill="lightskyblue" points="624.7437958820891,408.0698348635042 624.7437958820891,265.7673401559271 460.42702863053927,123.46484544835005 460.42702863053927,265.7673401559271" />
  <polygon fill="white" points="550.8012506188917,344.0337122450945 550.8012506188917,249.16538244004312 534.3695738937367,234.9351329692854 534.3695738937367,329.80346277433677" />
  <polygon fill="white" points="250.9261336443842,288.2977072917687 250.9261336443842,250.35037536974812 274.64321609564706,243.50384340093353 274.64321609564706,281.4511753229541" />
  <polygon fill="white" points="290.45460439648895,276.8868206770777 290.45460439648895,238.93948875505714 314.17168684775174,232.09295678624255 314.17168684775174,270.0402887082631" />
  <polygon fill="white" points="329.9830751485937,265.4759340623867 329.9830751485937,227.5286021403662 353.70015759985654,220.68207017155163 353.70015759985654,258.62940209357214" />
  <polygon fill="white" points="369.5115459006984,254.06504744769578 369.5115459006984,216.11771552567524 393.2286283519613,209.27118355686065 393.2286283519613,247.2185154788812" />
  <polygon fill="white" points="409.04001665280316,242.6541608330048 409.04001665280316,204.70682891098426 432.757099104066,197.86029694216967 432.757099104066,235.80762886419024" />
</svg>
