<?xml version="1.0" encoding="UTF-8"?>
<svg
  xmlns="http://www.w3.org/2000/svg"
  width="848"
  height="600"
  style="background-color:white"
>
  <polygon fill="lightblue" points="381.19254943511635,535.3276689941932 188.0946725139904,368.1000021636572 466.80745056488365,287.6425534465214 659.9053274860096,454.87022027705734" />
  <polygon fill="steelblue" points="188.0946725139904,368.1000021636572 188.0946725139904,145.12977972294266 466.80745056488365,64.67233100580677 466.80745056488365,287.6425534465214" />
  <polygon fill="lightskyblue" points="659.9053274860096,454.87022027705734 659.9053274860096,231.89999783634275 466.80745056488365,64.67233100580677 466.80745056488365,287.6425534465214" />
  <polygon fill="white" points="573.0112828715029,379.6177702033162 573.0112828715029,268.13265898295884 553.7014951793903,251.40989229990527 553.7014951793903,362.89500352026255" />
  <polygon fill="white" points="229.9015892216244,311.43734036794393 229.9015892216244,266.843295879801 257.7728670267137,258.79755100808745 257.7728670267137,303.39159549623037" />
  <polygon fill="white" points="285.64414483180303,295.34585062451674 285.64414483180303,250.75180613637386 313.51542263689237,242.70606126466026 313.51542263689237,287.3001057528032" />
  <polygon fill="white" points="341.3867004419817,279.2543608810896 341.3867004419817,234.6603163929467 369.257978247071,226.6145715212331 369.25797824707104,271.208616009376" />
  <polygon fill="white" points="397.1292560521603,263.1628711376624 397.1292560521603,218.5688266495195 425.00053385724965,210.52308177780594 425.00053385724965,255.11712626594885" />
  <polygon fill="hsl(324.0,50.0%,72.09185257592405%)" points="414.89125074092414,352.75977871920526 414.89125074092414,314.47579152613457 421.58035741414557,312.5448127569233 421.58035741414557,350.828799949994" />
  <polygon fill="hsl(324.0,50.0%,72.09185257592405%)" points="431.6140174239777,347.93233179617715 431.6140174239777,309.6483446031064 424.9249107507563,311.5793233723177 424.9249107507563,349.8633105653884" />
  <polygon fill="hsl(324.0,50.0%,72.09185257592405%)" points="408.2021440677027,316.78581967349504 408.2021440677027,278.88088185857356 414.05511240677146,277.1912754355137 414.05511240677146,315.0962132504352" />
  <polygon fill="hsl(324.0,50.0%,72.09185257592405%)" points="432.4501557581304,309.78602163510425 432.4501557581304,271.88108382018277 438.30312409719915,270.1914773971229 438.30312409719915,308.09641521204435" />
  <polygon fill="hsl(324.0,50.0%,72.09185257592405%)" points="414.05511240677146,283.04424377458247 414.05511240677146,277.1912754355137 432.4501557581304,271.88108382018277 432.4501557581304,277.7340521592515" />
  <polygon fill="hsl(324.0,50.0%,72.09185257592405%)" points="414.89125074092414,314.8548409042838 414.89125074092414,276.9499030893623 431.6140174239777,272.1224561663342 431.6140174239777,310.0273939812556" />
  <polygon fill="hsl(324.0,50.0%,72.09185257592405%)" points="419.07194241168753,273.8477944678592 419.07194241168753,256.79057245114456 427.4333257532143,254.37684898963047 427.4333257532143,271.4340710063451" />
  <polygon fill="hsl(324.0,50.0%,72.09185257592405%)" points="420.7442190799929,275.26029666630245 420.7442190799929,256.3078277588417 425.76104908490896,254.8595936819333 425.76104908490896,273.81206258939403" />
  <polygon fill="hsl(324.0,50.0%,59.71537400830306%)" points="471.03479808196727,391.74425621900326 471.03479808196727,353.4602690259326 477.7239047551887,351.5292902567213 477.7239047551887,389.813277449792" />
  <polygon fill="hsl(324.0,50.0%,59.71537400830306%)" points="487.75756476502085,386.9168092959751 487.75756476502085,348.6328221029044 481.0684580917994,350.5638008721157 481.0684580917994,388.84778806518636" />
  <polygon fill="hsl(324.0,50.0%,59.71537400830306%)" points="464.34569140874584,355.770297173293 464.3456914087458,317.86535935837156 470.1986597478146,316.1757529353117 470.1986597478146,354.08069075023315" />
  <polygon fill="hsl(324.0,50.0%,59.71537400830306%)" points="488.5937030991735,348.7704991349022 488.5937030991735,310.8655613199807 494.4466714382423,309.17595489692087 494.4466714382423,347.08089271184235" />
  <polygon fill="hsl(324.0,50.0%,59.71537400830306%)" points="470.1986597478146,322.0287212743805 470.1986597478146,316.1757529353117 488.5937030991735,310.8655613199807 488.5937030991735,316.71852965904947" />
  <polygon fill="hsl(324.0,50.0%,59.71537400830306%)" points="471.03479808196727,353.8393184040818 471.03479808196727,315.9343805891603 487.75756476502085,311.10693366613214 487.75756476502085,349.0118714810536" />
  <polygon fill="hsl(324.0,50.0%,59.71537400830306%)" points="475.2154897527306,312.83227196765716 475.2154897527306,295.7750499509425 483.57687309425745,293.36132648942845 483.57687309425745,310.4185485061431" />
  <polygon fill="hsl(324.0,50.0%,59.71537400830306%)" points="476.887766421036,314.24477416610046 476.887766421036,295.2923052586397 481.9045964259521,293.84407118173124 481.9045964259521,312.796540089192" />
  <polygon fill="hsl(324.0,50.0%,50.65955712546234%)" points="468.17819794856814,432.9524357419832 468.17819794856814,394.6684485489126 474.8673046217896,392.7374697797013 474.8673046217896,431.021456972772" />
  <polygon fill="hsl(324.0,50.0%,50.65955712546234%)" points="484.9009646316217,428.1249888189551 484.9009646316217,389.8410016258844 478.2118579584003,391.7719803950957 478.2118579584003,430.05596758816637" />
  <polygon fill="hsl(324.0,50.0%,50.65955712546234%)" points="461.4890912753467,396.978476696273 461.4890912753467,359.07353888135157 467.34205961441546,357.3839324582917 467.34205961441546,395.2888702732132" />
  <polygon fill="hsl(324.0,50.0%,50.65955712546234%)" points="485.73710296577445,389.9786786578822 485.73710296577445,352.0737408429607 491.5900713048432,350.3841344199009 491.5900713048432,388.28907223482236" />
  <polygon fill="hsl(324.0,50.0%,50.65955712546234%)" points="467.34205961441546,363.2369007973605 467.34205961441546,357.3839324582917 485.73710296577445,352.0737408429607 485.73710296577445,357.92670918202947" />
  <polygon fill="hsl(324.0,50.0%,50.65955712546234%)" points="468.17819794856814,395.0474979270618 468.17819794856814,357.1425601121403 484.9009646316217,352.31511318911214 484.9009646316217,390.2200510040336" />
  <polygon fill="hsl(324.0,50.0%,50.65955712546234%)" points="472.35888961933153,354.04045149063717 472.35888961933153,336.9832294739225 480.7202729608583,334.56950601240845 480.7202729608583,351.6267280291231" />
  <polygon fill="hsl(324.0,50.0%,50.65955712546234%)" points="474.0311662876369,355.45295368908046 474.0311662876369,336.5004847816197 479.04799629255297,335.05225070471124 479.04799629255297,354.004719612172" />
  <polygon fill="hsl(324.0,50.0%,42.21758785095096%)" points="401.1150148058654,489.9580645015692 401.1150148058654,451.67407730849845 407.80412147908686,449.7430985392872 407.80412147908686,488.0270857323579" />
  <polygon fill="hsl(324.0,50.0%,42.21758785095096%)" points="417.837781488919,485.130617578541 417.837781488919,446.84663038547035 411.1486748156976,448.77760915468156 411.1486748156976,487.06159634775224" />
  <polygon fill="hsl(324.0,50.0%,42.21758785095096%)" points="394.425908132644,453.9841054558589 394.425908132644,416.07916764093744 400.27887647171275,414.3895612178776 400.27887647171275,452.2944990327991" />
  <polygon fill="hsl(324.0,50.0%,42.21758785095096%)" points="418.6739198230717,446.98430741746813 418.6739198230717,409.07936960254665 424.52688816214044,407.3897631794868 424.52688816214044,445.29470099440823" />
  <polygon fill="hsl(324.0,50.0%,42.21758785095096%)" points="400.27887647171275,420.24252955694635 400.27887647171275,414.3895612178776 418.6739198230717,409.07936960254665 418.6739198230717,414.9323379416154" />
  <polygon fill="hsl(324.0,50.0%,42.21758785095096%)" points="401.1150148058654,452.05312668664766 401.1150148058654,414.14818887172623 417.837781488919,409.320741948698 417.837781488919,447.2256797636195" />
  <polygon fill="hsl(324.0,50.0%,42.21758785095096%)" points="405.2957064766288,411.0460802502231 405.2957064766288,393.98885823350844 413.6570898181556,391.5751347719943 413.6570898181556,408.632356788709" />
  <polygon fill="hsl(324.0,50.0%,42.21758785095096%)" points="406.9679831449342,412.45858244866633 406.9679831449342,393.5061135412056 411.98481314985025,392.0578794642971 411.98481314985025,411.0103483717579" />
  <polygon fill="hsl(324.0,50.0%,41.7579500056716%)" points="532.4714961688557,454.0884256162891 532.4714961688557,415.80443842321847 539.1606028420771,413.8734596540072 539.1606028420771,452.15744684707784" />
  <polygon fill="hsl(324.0,50.0%,41.7579500056716%)" points="549.1942628519092,449.260978693261 549.1942628519092,410.9769915001903 542.5051561786877,412.9079702694016 542.5051561786877,451.19195746247226" />
  <polygon fill="hsl(324.0,50.0%,41.7579500056716%)" points="525.7823894956341,418.1144665705789 525.7823894956341,380.2095287556574 531.6353578347029,378.5199223325976 531.6353578347029,416.4248601475191" />
  <polygon fill="hsl(324.0,50.0%,41.7579500056716%)" points="550.0304011860619,411.1146685321881 550.0304011860619,373.2097307172666 555.8833695251305,371.52012429420677 555.8833695251305,409.42506210912825" />
  <polygon fill="hsl(324.0,50.0%,41.7579500056716%)" points="531.6353578347029,384.37289067166637 531.6353578347029,378.5199223325976 550.0304011860619,373.2097307172666 550.0304011860619,379.06269905633536" />
  <polygon fill="hsl(324.0,50.0%,41.7579500056716%)" points="532.4714961688557,416.1834878013676 532.4714961688555,378.2785499864462 549.1942628519091,373.45110306341803 549.1942628519092,411.3560408783395" />
  <polygon fill="hsl(324.0,50.0%,41.7579500056716%)" points="536.652187839619,375.17644136494306 536.652187839619,358.1192193482284 545.0135711811458,355.70549588671435 545.0135711811458,372.762717903429" />
  <polygon fill="hsl(324.0,50.0%,41.7579500056716%)" points="538.3244645079244,376.58894356338635 538.3244645079244,357.6364746559256 543.3412945128405,356.18824057901713 543.3412945128405,375.1407094864779" />
</svg>
