<?xml version="1.0" encoding="UTF-8"?>
<svg
  xmlns="http://www.w3.org/2000/svg"
  width="848"
  height="600"
  style="background-color:white"
>
  <polygon fill="lightblue" points="379.47845728694574,515.7633416505912 178.6485722622949,341.8395593801356 468.52154271305426,258.1604406198644 669.3514277377051,432.08422289032" />
  <polygon fill="steelblue" points="178.6485722622949,341.8395593801356 178.6485722622949,167.91577710967996 468.52154271305426,84.23665834940877 468.52154271305426,258.1604406198644" />
  <polygon fill="lightskyblue" points="669.3514277377051,432.08422289032 669.3514277377051,258.1604406198644 468.52154271305426,84.23665834940877 468.52154271305426,258.1604406198644" />
  <polygon fill="white" points="545.5063319725037,324.83122382353906 545.5063319725037,208.88203564323527 525.4233434700386,191.48965741618971 525.4233434700386,307.4388455964935" />
  <polygon fill="white" points="612.4496269807207,382.80581791369093 612.4496269807207,266.8566297333872 592.3666384782556,249.4642515063416 592.3666384782556,365.41343968664535" />
  <polygon fill="white" points="222.1295178299088,282.90801629397345 222.1295178299088,236.52834102185193 251.11681487498473,228.1604291458248 251.11681487498473,274.5401044179463" />
  <polygon fill="white" points="280.10411192006063,266.1721925419192 280.10411192006063,219.79251726979766 309.0914089651366,211.42460539377055 309.0914089651366,257.80428066589207" />
  <polygon fill="white" points="338.07870601021256,249.43636878986493 338.07870601021256,203.05669351774344 367.0660030552885,194.6887816417163 367.0660030552885,241.0684569138378" />
  <polygon fill="white" points="396.0533001003644,232.70054503781068 396.0533001003644,186.32086976568917 425.04059714544036,177.95295788966206 425.04059714544036,224.33263316178358" />
  <polygon fill="hsl(360.0,50.0%,50.65955712546234%)" points="469.9471774422007,409.28880836604765 469.9471774422007,369.4718571449313 476.9041287330189,367.4635582946848 476.9041287330189,407.2805095158011" />
  <polygon fill="hsl(360.0,50.0%,50.65955712546234%)" points="487.33955566924624,404.2680612404314 487.33955566924624,364.451110019315 480.382604378428,366.45940886956157 480.382604378428,406.2763600906779" />
  <polygon fill="hsl(360.0,50.0%,50.65955712546234%)" points="462.9902261513825,371.87438323499083 462.99022615138244,332.4516592536876 469.0775585308484,330.6943977597219 469.0775585308484,370.11712174102513" />
  <polygon fill="hsl(360.0,50.0%,50.65955712546234%)" points="488.2091745805985,364.5942999028473 488.2091745805985,325.171575921544 494.2965069600645,323.4143144275783 494.2965069600645,362.83703840888154" />
  <polygon fill="hsl(360.0,50.0%,50.65955712546234%)" points="469.0775585308484,336.78173013918786 469.0775585308484,330.6943977597219 488.2091745805985,325.171575921544 488.2091745805985,331.2589083010099" />
  <polygon fill="hsl(360.0,50.0%,50.65955712546234%)" points="469.9471774422007,369.86608438474434 469.9471774422007,330.44336040344103 487.33955566924624,325.4226132778248 487.33955566924624,364.8453372591281" />
  <polygon fill="hsl(360.0,50.0%,50.65955712546234%)" points="474.2952719989621,327.2170374229718 474.2952719989621,309.4768116313854 482.9914611124849,306.96643806857725 482.9914611124849,324.7066638601637" />
  <polygon fill="hsl(360.0,50.0%,50.65955712546234%)" points="476.03450982166663,328.6860989094754 476.03450982166663,308.97473691882374 481.2522232897803,307.4685127811389 481.2522232897803,327.1798747717905" />
  <polygon fill="hsl(360.0,50.0%,42.21758785095096%)" points="400.19865625344914,468.5770514689061 400.19865625344914,428.7601002477898 407.1556075442674,426.7518013975433 407.1556075442674,466.5687526186596" />
  <polygon fill="hsl(360.0,50.0%,42.21758785095096%)" points="417.5910344804947,463.55630434328987 417.5910344804947,423.7393531221735 410.6340831896765,425.74765197242004 410.6340831896765,465.56460319353636" />
  <polygon fill="hsl(360.0,50.0%,42.21758785095096%)" points="393.24170496263093,431.16262633784936 393.24170496263093,391.73990235654605 399.32903734209685,389.98264086258035 399.32903734209685,429.40536484388366" />
  <polygon fill="hsl(360.0,50.0%,42.21758785095096%)" points="418.460653391847,423.88254300570577 418.460653391847,384.45981902440246 424.54798577131294,382.70255753043676 424.54798577131294,422.12528151174007" />
  <polygon fill="hsl(360.0,50.0%,42.21758785095096%)" points="399.32903734209685,396.06997324204633 399.32903734209685,389.98264086258035 418.460653391847,384.45981902440246 418.460653391847,390.5471514038684" />
  <polygon fill="hsl(360.0,50.0%,42.21758785095096%)" points="400.19865625344914,429.1543274876028 400.19865625344914,389.73160350629956 417.5910344804947,384.7108563806833 417.5910344804947,424.13358036198656" />
  <polygon fill="hsl(360.0,50.0%,42.21758785095096%)" points="404.54675081021054,386.5052805258303 404.54675081021054,368.76505473424385 413.24293992373333,366.2546811714357 413.24293992373333,383.9949069630222" />
  <polygon fill="hsl(360.0,50.0%,42.21758785095096%)" points="406.2859886329151,387.97434201233386 406.2859886329151,368.2629800216822 411.50370210102875,366.75675588399736 411.50370210102875,386.468117874649" />
</svg>
