<?xml version="1.0" encoding="UTF-8"?>
<svg
  xmlns="http://www.w3.org/2000/svg"
  width="848"
  height="600"
  style="background-color:white"
>
  <polygon fill="lightblue" points="388.6632281310253,540.2731764907636 229.2644427536336,402.22977902155895 459.3367718689747,335.81361844764575 618.7355572463664,473.8570159168504" />
  <polygon fill="steelblue" points="229.2644427536336,402.22977902155895 229.2644427536336,126.14298408314957 459.3367718689747,59.72682350923637 459.3367718689747,335.81361844764575" />
  <polygon fill="lightskyblue" points="618.7355572463664,473.8570159168504 618.7355572463664,197.77022097844105 459.3367718689747,59.72682350923637 459.3367718689747,335.81361844764575" />
  <polygon fill="white" points="547.0061038265401,411.7374870557083 547.0061038265401,319.70855540957183 531.066225288801,305.9042156626514 531.066225288801,397.93314730878785" />
  <polygon fill="white" points="294.45160266964695,346.6002942004956 294.45160266964695,309.78872154204106 317.458835581181,303.1471054846497 317.458835581181,339.9586781431043" />
  <polygon fill="white" points="371.1423790414273,324.4615740091912 371.1423790414273,287.6500013507366 394.14961195296144,281.0083852933453 394.14961195296144,317.8199579517999" />
  <polygon fill="antiquewhite" points="486.9701267279233,457.17319056873833 486.9701267279233,378.9485986695223 505.37591305715057,373.63530582360926 505.37591305715057,451.8598977228253" />
  <polygon fill="beige" points="486.9701267279233,457.17319056873833 486.9701267279233,378.9485986695223 476.3435410360972,369.74570550490864 476.3435410360972,447.97029740412466" />
  <polygon fill="bisque" points="486.9701267279233,378.9485986695223 476.3435410360972,369.74570550490864 494.74932736532446,364.4324126589956 505.37591305715057,373.63530582360926" />
  <polygon fill="antiquewhite" points="400.5668706753595,524.8454598718959 400.5668706753595,446.6208679726798 418.9726570045868,441.3075751267668 418.9726570045868,519.5321670259827" />
  <polygon fill="beige" points="400.5668706753595,524.8454598718959 400.5668706753595,446.6208679726798 389.9402849835334,437.4179748080661 389.9402849835334,515.6425667072822" />
  <polygon fill="bisque" points="400.5668706753595,446.6208679726798 389.9402849835334,437.4179748080661 408.34607131276067,432.1046819621531 418.9726570045868,441.3075751267668" />
  <polygon fill="antiquewhite" points="429.5297227613073,365.27328799831275 429.5297227613073,287.0486960990968 447.93550909053465,281.73540325318373 447.93550909053465,359.9599951523997" />
  <polygon fill="beige" points="429.5297227613073,365.27328799831275 429.5297227613073,287.0486960990968 418.9031370694812,277.8458029344831 418.9031370694812,356.0703948336991" />
  <polygon fill="bisque" points="429.5297227613073,287.0486960990968 418.9031370694812,277.8458029344831 437.3089233987085,272.53251008857006 447.93550909053465,281.73540325318373" />
  <polygon fill="antiquewhite" points="413.51993026763085,400.81432472198753 413.5199302676308,322.5897328227715 431.92571659685814,317.27643997685846 431.92571659685814,395.5010318760745" />
  <polygon fill="beige" points="413.51993026763085,400.81432472198753 413.5199302676308,322.5897328227715 402.8933445758047,313.38683965815784 402.8933445758047,391.61143155737386" />
  <polygon fill="bisque" points="413.5199302676308,322.5897328227715 402.8933445758047,313.38683965815784 421.29913090503203,308.0735468122448 431.92571659685814,317.27643997685846" />
</svg>
