<?xml version="1.0" encoding="UTF-8"?>
<svg
  xmlns="http://www.w3.org/2000/svg"
  width="848"
  height="600"
  style="background-color:white"
>
  <polygon fill="lightblue" points="357.49364905389035,622.3076211353316 57.49364905389035,362.5 490.50635094610965,237.49999999999997 790.5063509461097,497.3076211353316" />
  <polygon fill="steelblue" points="57.49364905389035,362.5 57.49364905389035,102.69237886466843 490.50635094610965,-22.3076211353316 490.50635094610965,237.49999999999997" />
  <polygon fill="lightskyblue" points="790.5063509461097,497.3076211353316 790.5063509461097,237.49999999999997 490.50635094610965,-22.3076211353316 490.50635094610965,237.49999999999997" />
  <polygon fill="white" points="655.5063509461096,380.3941916244323 655.5063509461096,207.18911086754463 625.5063509461097,181.20834875401147 625.5063509461097,354.4134295108992" />
  <polygon fill="white" points="122.44555433772325,274.46796769724494 122.44555433772325,205.18593539448983 165.7468245269452,192.68593539448983 165.7468245269452,261.9679676972449" />
  <polygon fill="white" points="209.0480947161671,249.46796769724492 209.0480947161671,180.18593539448983 252.34936490538905,167.6859353944898 252.34936490538905,236.9679676972449" />
  <polygon fill="white" points="295.65063509461095,224.4679676972449 295.65063509461095,155.1859353944898 338.9519052838329,142.6859353944898 338.9519052838329,211.9679676972449" />
  <polygon fill="white" points="382.2531754730548,199.4679676972449 382.2531754730548,130.1859353944898 425.55444566227675,117.68593539448977 425.55444566227675,186.9679676972449" />
</svg>
