<?xml version="1.0" encoding="UTF-8"?>
<svg
  xmlns="http://www.w3.org/2000/svg"
  width="848"
  height="600"
  style="background-color:white"
>
  <polygon fill="lightblue" points="379.47845728694574,515.7633416505912 178.6485722622949,341.8395593801356 468.52154271305426,258.1604406198644 669.3514277377051,432.08422289032" />
  <polygon fill="steelblue" points="178.6485722622949,341.8395593801356 178.6485722622949,167.91577710967996 468.52154271305426,84.23665834940877 468.52154271305426,258.1604406198644" />
  <polygon fill="lightskyblue" points="669.3514277377051,432.08422289032 669.3514277377051,258.1604406198644 468.52154271305426,84.23665834940877 468.52154271305426,258.1604406198644" />
  <polygon fill="white" points="578.9779794766123,353.818520868615 578.9779794766123,237.86933268831123 558.8949909741472,220.47695446126568 558.8949909741472,336.4261426415694" />
  <polygon fill="white" points="205.56534808986538,287.68968022313175 205.56534808986538,241.31000495101026 234.55264513494134,232.94209307498312 234.55264513494134,279.32176834710464" />
  <polygon fill="white" points="246.9757724399739,275.7355204002359 246.9757724399739,229.35584512811437 275.9630694850498,220.98793325208726 275.9630694850498,267.3676085242088" />
  <polygon fill="white" points="288.3861967900824,263.78136057733997 288.3861967900824,217.4016853052185 317.3734938351583,209.03377342919137 317.3734938351583,255.41344870131286" />
  <polygon fill="white" points="329.79662114019084,251.8272007544441 329.79662114019084,205.4475254823226 358.78391818526677,197.07961360629548 358.78391818526677,243.459288878417" />
  <polygon fill="white" points="371.2070454902993,239.87304093154822 371.2070454902993,193.49336565942673 400.1943425353753,185.12545378339956 400.1943425353753,231.50512905552108" />
  <polygon fill="white" points="412.6174698404078,227.91888110865233 412.6174698404078,181.5392058365308 441.60476688548374,173.1712939605037 441.60476688548374,219.5509692326252" />
  <polygon fill="antiquewhite" points="503.3373881790583,411.06392014146394 503.3373881790583,312.50711018820573 526.5272258151191,305.812780687384 526.5272258151191,404.36959064064223" />
  <polygon fill="beige" points="503.3373881790583,411.06392014146394 503.3373881790583,312.50711018820573 489.9487291774149,300.9121913701753 489.9487291774149,399.46900132343353" />
  <polygon fill="bisque" points="503.3373881790583,312.50711018820573 489.9487291774149,300.9121913701753 513.1385668134757,294.21786186935367 526.5272258151191,305.812780687384" />
  <polygon fill="antiquewhite" points="394.4761070989766,496.3256367306667 394.4761070989766,397.7688267774085 417.66594473503733,391.0744972765868 417.66594473503733,489.631307229845" />
  <polygon fill="beige" points="394.4761070989766,496.3256367306667 394.4761070989766,397.7688267774085 381.0874480973332,386.1739079593781 381.0874480973332,484.73071791263635" />
  <polygon fill="bisque" points="394.4761070989766,397.7688267774085 381.0874480973332,386.1739079593781 404.27728573339397,379.47957845855643 417.66594473503733,391.0744972765868" />
</svg>
