<?xml version="1.0" encoding="UTF-8"?>
<svg
  xmlns="http://www.w3.org/2000/svg"
  width="848"
  height="600"
  style="background-color:white"
>
  <polygon fill="lightblue" points="357.49364905389035,622.3076211353316 57.49364905389035,362.5 490.50635094610965,237.49999999999997 790.5063509461097,497.3076211353316" />
  <polygon fill="steelblue" points="57.49364905389035,362.5 57.49364905389035,102.69237886466843 490.50635094610965,-22.3076211353316 490.50635094610965,237.49999999999997" />
  <polygon fill="lightskyblue" points="790.5063509461097,497.3076211353316 790.5063509461097,237.49999999999997 490.50635094610965,-22.3076211353316 490.50635094610965,237.49999999999997" />
  <polygon fill="white" points="655.5063509461096,380.3941916244323 655.5063509461096,207.18911086754463 625.5063509461097,181.20834875401147 625.5063509461097,354.4134295108992" />
  <polygon fill="white" points="97.70197137245356,281.61082484010205 97.70197137245356,212.32879253734697 141.0032415616755,199.82879253734694 141.0032415616755,269.11082484010205" />
  <polygon fill="white" points="159.56092878562777,263.7536819829592 159.56092878562777,194.4716496802041 202.8621989748497,181.9716496802041 202.8621989748497,251.2536819829592" />
  <polygon fill="white" points="221.41988619880195,245.89653912581633 221.41988619880195,176.61450682306122 264.72115638802387,164.11450682306125 264.72115638802387,233.39653912581633" />
  <polygon fill="white" points="283.27884361197613,228.03939626867347 283.27884361197613,158.7573639659184 326.5801138011981,146.2573639659184 326.5801138011981,215.53939626867347" />
  <polygon fill="white" points="345.13780102515034,210.1822534115306 345.13780102515034,140.90022110877553 388.4390712143723,128.4002211087755 388.4390712143723,197.68225341153058" />
  <polygon fill="white" points="406.9967584383245,192.32511055438775 406.9967584383245,123.04307825163266 450.29802862754644,110.54307825163266 450.29802862754644,179.82511055438772" />
</svg>
