<?xml version="1.0" encoding="UTF-8"?>
<svg
  xmlns="http://www.w3.org/2000/svg"
  width="848"
  height="600"
  style="background-color:white"
>
  <polygon fill="lightblue" points="381.19254943511635,535.3276689941932 188.0946725139904,368.1000021636572 466.80745056488365,287.6425534465214 659.9053274860096,454.87022027705734" />
  <polygon fill="steelblue" points="188.0946725139904,368.1000021636572 188.0946725139904,145.12977972294266 466.80745056488365,64.67233100580677 466.80745056488365,287.6425534465214" />
  <polygon fill="lightskyblue" points="659.9053274860096,454.87022027705734 659.9053274860096,231.89999783634275 466.80745056488365,64.67233100580677 466.80745056488365,287.6425534465214" />
  <polygon fill="white" points="267.0632929617435,300.7096805389925 267.0632929617435,256.11563605084956 294.9345707668328,248.069891179136 294.9345707668328,292.6639356672789" />
  <polygon fill="white" points="359.9675523120412,273.8905309666139 359.9675523120412,229.29648647847097 387.83883011713056,221.25074160675737 387.83883011713056,265.8447860949003" />
  <polygon fill="hsl(324.0,50.0%,50.65955712546234%)" points="468.17819794856814,432.9524357419832 468.17819794856814,394.6684485489126 474.8673046217896,392.7374697797013 474.8673046217896,431.021456972772" />
  <polygon fill="hsl(324.0,50.0%,50.65955712546234%)" points="484.9009646316217,428.1249888189551 484.9009646316217,389.8410016258844 478.2118579584003,391.7719803950957 478.2118579584003,430.05596758816637" />
  <polygon fill="hsl(324.0,50.0%,50.65955712546234%)" points="461.4890912753467,396.978476696273 461.4890912753467,359.07353888135157 467.34205961441546,357.3839324582917 467.34205961441546,395.2888702732132" />
  <polygon fill="hsl(324.0,50.0%,50.65955712546234%)" points="485.73710296577445,389.9786786578822 485.73710296577445,352.0737408429607 491.5900713048432,350.3841344199009 491.5900713048432,388.28907223482236" />
  <polygon fill="hsl(324.0,50.0%,50.65955712546234%)" points="467.34205961441546,363.2369007973605 467.34205961441546,357.3839324582917 485.73710296577445,352.0737408429607 485.73710296577445,357.92670918202947" />
  <polygon fill="hsl(324.0,50.0%,50.65955712546234%)" points="468.17819794856814,395.0474979270618 468.17819794856814,357.1425601121403 484.9009646316217,352.31511318911214 484.9009646316217,390.2200510040336" />
  <polygon fill="hsl(324.0,50.0%,50.65955712546234%)" points="472.35888961933153,354.04045149063717 472.35888961933153,336.9832294739225 480.7202729608583,334.56950601240845 480.7202729608583,351.6267280291231" />
  <polygon fill="hsl(324.0,50.0%,50.65955712546234%)" points="474.0311662876369,355.45295368908046 474.0311662876369,336.5004847816197 479.04799629255297,335.05225070471124 479.04799629255297,354.004719612172" />
  <polygon fill="hsl(324.0,50.0%,42.21758785095096%)" points="401.1150148058654,489.9580645015692 401.1150148058654,451.67407730849845 407.80412147908686,449.7430985392872 407.80412147908686,488.0270857323579" />
  <polygon fill="hsl(324.0,50.0%,42.21758785095096%)" points="417.837781488919,485.130617578541 417.837781488919,446.84663038547035 411.1486748156976,448.77760915468156 411.1486748156976,487.06159634775224" />
  <polygon fill="hsl(324.0,50.0%,42.21758785095096%)" points="394.425908132644,453.9841054558589 394.425908132644,416.07916764093744 400.27887647171275,414.3895612178776 400.27887647171275,452.2944990327991" />
  <polygon fill="hsl(324.0,50.0%,42.21758785095096%)" points="418.6739198230717,446.98430741746813 418.6739198230717,409.07936960254665 424.52688816214044,407.3897631794868 424.52688816214044,445.29470099440823" />
  <polygon fill="hsl(324.0,50.0%,42.21758785095096%)" points="400.27887647171275,420.24252955694635 400.27887647171275,414.3895612178776 418.6739198230717,409.07936960254665 418.6739198230717,414.9323379416154" />
  <polygon fill="hsl(324.0,50.0%,42.21758785095096%)" points="401.1150148058654,452.05312668664766 401.1150148058654,414.14818887172623 417.837781488919,409.320741948698 417.837781488919,447.2256797636195" />
  <polygon fill="hsl(324.0,50.0%,42.21758785095096%)" points="405.2957064766288,411.0460802502231 405.2957064766288,393.98885823350844 413.6570898181556,391.5751347719943 413.6570898181556,408.632356788709" />
  <polygon fill="hsl(324.0,50.0%,42.21758785095096%)" points="406.9679831449342,412.45858244866633 406.9679831449342,393.5061135412056 411.98481314985025,392.0578794642971 411.98481314985025,411.0103483717579" />
</svg>
