<?xml version="1.0" encoding="UTF-8"?>
<svg
  xmlns="http://www.w3.org/2000/svg"
  width="848"
  height="600"
  style="background-color:white"
>
  <polygon fill="lightblue" points="383.5494939557267,522.3707128413578 201.0834340885247,364.3504696679086 464.4505060442733,288.3229447232411 646.9165659114753,446.3431878966902" />
  <polygon fill="steelblue" points="201.0834340885247,364.3504696679086 201.0834340885247,153.65681210330976 464.4505060442733,77.6292871586422 464.4505060442733,288.3229447232411" />
  <polygon fill="lightskyblue" points="646.9165659114753,446.3431878966902 646.9165659114753,235.6495303320914 464.4505060442733,77.6292871586422 464.4505060442733,288.3229447232411" />
  <polygon fill="white" points="534.3958289933673,348.89737127306324 534.3958289933673,243.55054249076383 516.1492230066472,227.74851817341892 516.1492230066472,333.09534695571836" />
  <polygon fill="white" points="595.2178489491014,401.57078566421296 595.2178489491014,296.2239568819136 576.9712429623812,280.42193256456864 576.9712429623812,385.7687613468681" />
  <polygon fill="white" points="231.80959248336205,313.34186024477765 231.80959248336205,271.2031287318579 258.1462996789369,263.6003762373911 258.1462996789369,305.7391077503109" />
  <polygon fill="white" points="275.7041044759868,300.67060608733306 275.7041044759868,258.5318745744133 302.04081167156164,250.92912207994652 302.04081167156164,293.0678535928663" />
  <polygon fill="white" points="319.59861646861157,287.99935192988846 319.59861646861157,245.8606204169687 345.9353236641864,238.25786792250193 345.93532366418646,280.3965994354217" />
  <polygon fill="white" points="363.4931284612363,275.32809777244387 363.4931284612363,233.1893662595241 389.8298356568112,225.58661376505734 389.8298356568112,267.7253452779771" />
  <polygon fill="white" points="407.38764045386114,262.6568436149993 407.38764045386114,220.5181121020795 433.72434764943597,212.91535960761274 433.72434764943597,255.05409112053252" />
  <polygon fill="hsl(360.0,50.0%,72.09185257592405%)" points="415.392771302707,349.8548668470917 415.392771302707,313.67876584325006 421.71358102964496,311.8541052445781 421.71358102964496,348.0302062484197" />
  <polygon fill="hsl(360.0,50.0%,72.09185257592405%)" points="431.1947956200519,345.2932153504117 431.1947956200519,309.11711434657 424.8739858931139,310.94177494524206 424.8739858931139,347.11787594908367" />
  <polygon fill="hsl(360.0,50.0%,72.09185257592405%)" points="409.071961575769,315.8616056597819 409.071961575769,280.0436838738001 414.60267008683974,278.4471058499621 414.60267008683974,314.2650276359439" />
  <polygon fill="hsl(360.0,50.0%,72.09185257592405%)" points="431.98489683591913,309.2472109895958 431.98489683591913,273.429289203614 437.51560534698984,271.832711179776 437.51560534698984,307.65063296575784" />
  <polygon fill="hsl(360.0,50.0%,72.09185257592405%)" points="414.60267008683974,283.9778143610328 414.60267008683974,278.4471058499621 431.98489683591913,273.429289203614 431.98489683591913,278.9599977146848" />
  <polygon fill="hsl(360.0,50.0%,72.09185257592405%)" points="415.392771302707,314.0369450611099 415.392771302707,278.2190232751281 431.1947956200519,273.65737177844807 431.1947956200519,309.4752935644299" />
  <polygon fill="hsl(360.0,50.0%,72.09185257592405%)" points="419.3432773820432,275.287714311659 419.3432773820432,259.16964950796716 427.24428954071567,256.88882375962714 427.24428954071567,273.00688856331897" />
  <polygon fill="hsl(360.0,50.0%,72.09185257592405%)" points="420.9234798137777,276.62244525129006 420.9234798137777,258.7134843582992 425.66408710898116,257.3449889092952 425.66408710898116,275.25394980228606" />
  <polygon fill="hsl(360.0,50.0%,59.71537400830306%)" points="468.44509913576917,386.6928897129531 468.44509913576917,350.5167887091115 474.76590886270714,348.69212811043946 474.76590886270714,384.86822911428106" />
  <polygon fill="hsl(360.0,50.0%,59.71537400830306%)" points="484.24712345311406,382.13123821627306 484.24712345311406,345.9551372124314 477.9263137261761,347.77979781110344 477.9263137261761,383.9558988149451" />
  <polygon fill="hsl(360.0,50.0%,59.71537400830306%)" points="462.1242894088312,352.69962852564333 462.1242894088312,316.8817067396615 467.6549979199019,315.2851287158235 467.6549979199019,351.1030505018053" />
  <polygon fill="hsl(360.0,50.0%,59.71537400830306%)" points="485.0372246689813,346.0852338554572 485.0372246689813,310.26731206947545 490.567933180052,308.6707340456374 490.567933180052,344.4886558316192" />
  <polygon fill="hsl(360.0,50.0%,59.71537400830306%)" points="467.6549979199019,320.8158372268942 467.6549979199019,315.2851287158235 485.0372246689813,310.26731206947545 485.0372246689813,315.79802058054617" />
  <polygon fill="hsl(360.0,50.0%,59.71537400830306%)" points="468.44509913576917,350.8749679269713 468.44509913576917,315.0570461409895 484.24712345311406,310.49539464430944 484.24712345311406,346.31331643029125" />
  <polygon fill="hsl(360.0,50.0%,59.71537400830306%)" points="472.3956052151054,312.12573717752036 472.3956052151054,296.0076723738286 480.29661737377785,293.7268466254886 480.29661737377785,309.84491142918034" />
  <polygon fill="hsl(360.0,50.0%,59.71537400830306%)" points="473.9758076468399,313.4604681171515 473.9758076468399,295.55150722416056 478.71641494204334,294.18301177515656 478.71641494204334,312.09197266814743" />
  <polygon fill="hsl(360.0,50.0%,50.65955712546234%)" points="465.7457811563676,425.63217931959014 465.7457811563676,389.4560783157485 472.0665908833056,387.6314177170765 472.0665908833056,423.8075187209181" />
  <polygon fill="hsl(360.0,50.0%,50.65955712546234%)" points="481.5478054737126,421.0705278229101 481.5478054737125,384.8944268190685 475.22699574677455,386.71908741774047 475.2269957467746,422.8951884215821" />
  <polygon fill="hsl(360.0,50.0%,50.65955712546234%)" points="459.42497142942966,391.6389181322803 459.42497142942966,355.82099634629856 464.9556799405004,354.2244183224605 464.9556799405004,390.0423401084423" />
  <polygon fill="hsl(360.0,50.0%,50.65955712546234%)" points="482.33790668957977,385.0245234620943 482.33790668957977,349.2066016761125 487.86861520065054,347.61002365227444 487.86861520065054,383.42794543825624" />
  <polygon fill="hsl(360.0,50.0%,50.65955712546234%)" points="464.9556799405004,359.7551268335312 464.9556799405004,354.2244183224605 482.33790668957977,349.2066016761125 482.33790668957977,354.7373101871832" />
  <polygon fill="hsl(360.0,50.0%,50.65955712546234%)" points="465.7457811563676,389.8142575336083 465.7457811563676,353.9963357476265 481.5478054737125,349.4346842509465 481.5478054737125,385.2526060369283" />
  <polygon fill="hsl(360.0,50.0%,50.65955712546234%)" points="469.69628723570383,351.0650267841574 469.69628723570383,334.94696198046563 477.5972993943763,332.6661362321256 477.5972993943763,348.7842010358174" />
  <polygon fill="hsl(360.0,50.0%,50.65955712546234%)" points="471.27648966743834,352.3997577237885 471.27648966743834,334.4907968307976 476.0170969626418,333.1223013817936 476.0170969626418,351.03126227478447" />
  <polygon fill="hsl(360.0,50.0%,42.21758785095096%)" points="402.375044070533,479.49912304711125 402.375044070533,443.3230220432696 408.695853797471,441.4983614445976 408.695853797471,477.6744624484392" />
  <polygon fill="hsl(360.0,50.0%,42.21758785095096%)" points="418.1770683878779,474.9374715504312 418.1770683878779,438.76137054658955 411.85625866093994,440.5860311452616 411.85625866093994,476.7621321491032" />
  <polygon fill="hsl(360.0,50.0%,42.21758785095096%)" points="396.05423434359506,445.5058618598015 396.05423434359506,409.6879400738197 401.58494285466577,408.0913620499816 401.58494285466577,443.9092838359635" />
  <polygon fill="hsl(360.0,50.0%,42.21758785095096%)" points="418.96716960374516,438.89146718961535 418.96716960374516,403.0735454036336 424.4978781148159,401.4769673797956 424.4978781148159,437.29488916577736" />
  <polygon fill="hsl(360.0,50.0%,42.21758785095096%)" points="401.58494285466577,413.6220705610524 401.58494285466577,408.0913620499816 418.96716960374516,403.0735454036336 418.96716960374516,408.6042539147043" />
  <polygon fill="hsl(360.0,50.0%,42.21758785095096%)" points="402.375044070533,443.68120126112944 402.375044070533,407.86327947514764 418.1770683878779,403.3016279784676 418.1770683878779,439.1195497644494" />
  <polygon fill="hsl(360.0,50.0%,42.21758785095096%)" points="406.32555014986923,404.9319705116785 406.32555014986923,388.81390570798675 414.2265623085417,386.53307995964667 414.2265623085417,402.6511447633385" />
  <polygon fill="hsl(360.0,50.0%,42.21758785095096%)" points="407.90575258160374,406.26670145130964 407.90575258160374,388.3577405583187 412.6463598768072,386.9892451093147 412.6463598768072,404.89820600230564" />
  <polygon fill="hsl(360.0,50.0%,41.7579500056716%)" points="526.4991410025492,445.6044382343423 526.4991410025492,409.4283372305007 532.8199507294871,407.60367663182865 532.8199507294871,443.77977763567026" />
  <polygon fill="hsl(360.0,50.0%,41.7579500056716%)" points="542.301165319894,441.04278673766225 542.301165319894,404.86668573382065 535.9803555929561,406.6913463324926 535.9803555929561,442.8674473363343" />
  <polygon fill="hsl(360.0,50.0%,41.7579500056716%)" points="520.1783312756112,411.61117704703247 520.1783312756112,375.7932552610507 525.709039786682,374.19667723721267 525.709039786682,410.0145990231945" />
  <polygon fill="hsl(360.0,50.0%,41.7579500056716%)" points="543.0912665357613,404.99678237684645 543.0912665357613,369.1788605908646 548.6219750468321,367.5822825670266 548.6219750468321,403.4002043530084" />
  <polygon fill="hsl(360.0,50.0%,41.7579500056716%)" points="525.709039786682,379.7273857482834 525.709039786682,374.19667723721267 543.0912665357613,369.1788605908646 543.0912665357613,374.70956910193536" />
  <polygon fill="hsl(360.0,50.0%,41.7579500056716%)" points="526.4991410025492,409.7865164483605 526.4991410025492,373.9685946623787 542.301165319894,369.40694316569864 542.301165319894,405.2248649516804" />
  <polygon fill="hsl(360.0,50.0%,41.7579500056716%)" points="530.4496470818854,371.03728569890956 530.4496470818854,354.9192208952178 538.3506592405579,352.6383951468777 538.3506592405579,368.75645995056954" />
  <polygon fill="hsl(360.0,50.0%,41.7579500056716%)" points="532.0298495136199,372.3720166385407 532.0298495136199,354.46305574554975 536.7704568088234,353.09456029654575 536.7704568088234,371.0035211895366" />
</svg>
