<?xml version="1.0" encoding="UTF-8"?>
<svg
  xmlns="http://www.w3.org/2000/svg"
  width="848"
  height="600"
  style="background-color:white"
>
  <polygon fill="lightblue" points="383.5494939557267,522.3707128413578 201.0834340885247,364.3504696679086 464.4505060442733,288.3229447232411 646.9165659114753,446.3431878966902" />
  <polygon fill="steelblue" points="201.0834340885247,364.3504696679086 201.0834340885247,153.65681210330976 464.4505060442733,77.6292871586422 464.4505060442733,288.3229447232411" />
  <polygon fill="lightskyblue" points="646.9165659114753,446.3431878966902 646.9165659114753,235.6495303320914 464.4505060442733,77.6292871586422 464.4505060442733,288.3229447232411" />
  <polygon fill="white" points="534.3958289933673,348.89737127306324 534.3958289933673,243.55054249076383 516.1492230066472,227.74851817341892 516.1492230066472,333.09534695571836" />
  <polygon fill="white" points="595.2178489491014,401.57078566421296 595.2178489491014,296.2239568819136 576.9712429623812,280.42193256456864 576.9712429623812,385.7687613468681" />
  <polygon fill="white" points="275.7041044759868,300.67060608733306 275.7041044759868,258.5318745744133 302.04081167156164,250.92912207994652 302.04081167156164,293.0678535928663" />
  <polygon fill="white" points="363.4931284612363,275.32809777244387 363.4931284612363,233.1893662595241 389.8298356568112,225.58661376505734 389.8298356568112,267.7253452779771" />
  <polygon fill="grey" points="453.31930383763194,135.27178332470118 453.31930383763194,108.93507612912634 479.6560110332068,101.33232363465962 479.6560110332068,127.66903083023445" />
  <polygon fill="lightgrey" points="453.31930383763194,135.27178332470118 453.31930383763194,108.93507612912634 438.1137988486984,95.76672253133893 438.1137988486984,122.10342972691376" />
  <polygon fill="darkgrey" points="453.31930383763194,108.93507612912634 438.1137988486984,95.76672253133893 464.4505060442733,88.16397003687217 479.6560110332068,101.33232363465962" />
  <polygon fill="hsl(288.0,50.0%,50.65955712546234%)" points="465.7457811563676,425.63217931959014 465.7457811563676,389.4560783157485 472.0665908833056,387.6314177170765 472.0665908833056,423.8075187209181" />
  <polygon fill="hsl(288.0,50.0%,50.65955712546234%)" points="481.5478054737126,421.0705278229101 481.5478054737125,384.8944268190685 475.22699574677455,386.71908741774047 475.2269957467746,422.8951884215821" />
  <polygon fill="hsl(288.0,50.0%,50.65955712546234%)" points="459.42497142942966,391.6389181322803 459.42497142942966,355.82099634629856 464.9556799405004,354.2244183224605 464.9556799405004,390.0423401084423" />
  <polygon fill="hsl(288.0,50.0%,50.65955712546234%)" points="482.33790668957977,385.0245234620943 482.33790668957977,349.2066016761125 487.86861520065054,347.61002365227444 487.86861520065054,383.42794543825624" />
  <polygon fill="hsl(288.0,50.0%,50.65955712546234%)" points="464.9556799405004,359.7551268335312 464.9556799405004,354.2244183224605 482.33790668957977,349.2066016761125 482.33790668957977,354.7373101871832" />
  <polygon fill="hsl(288.0,50.0%,50.65955712546234%)" points="465.7457811563676,389.8142575336083 465.7457811563676,353.9963357476265 481.5478054737125,349.4346842509465 481.5478054737125,385.2526060369283" />
  <polygon fill="hsl(288.0,50.0%,50.65955712546234%)" points="469.69628723570383,351.0650267841574 469.69628723570383,334.94696198046563 477.5972993943763,332.6661362321256 477.5972993943763,348.7842010358174" />
  <polygon fill="hsl(288.0,50.0%,50.65955712546234%)" points="471.27648966743834,352.3997577237885 471.27648966743834,334.4907968307976 476.0170969626418,333.1223013817936 476.0170969626418,351.03126227478447" />
</svg>
