<?xml version="1.0" encoding="UTF-8"?>
<svg
  xmlns="http://www.w3.org/2000/svg"
  width="848"
  height="600"
  style="background-color:white"
>
  <polygon fill="lightblue" points="386.44907656618295,530.879516736014 217.06259136759783,384.1865174962824 461.55092343381705,313.60881533020523 630.9374086324021,460.3018145699368" />
  <polygon fill="steelblue" points="217.06259136759783,384.1865174962824 217.06259136759783,139.6981854300632 461.55092343381705,69.12048326398605 461.55092343381705,313.60881533020523" />
  <polygon fill="lightskyblue" points="630.9374086324021,460.3018145699368 630.9374086324021,215.81348250371758 461.55092343381705,69.12048326398605 461.55092343381705,313.60881533020523" />
  <polygon fill="white" points="554.7134902930388,394.2899649120576 554.7134902930388,296.4946320855699 537.7748417731804,281.82533216159675 537.7748417731804,379.62066498808446" />
  <polygon fill="white" points="327.08234079739645,313.3084183909526 327.08234079739645,274.19028526035754 351.5311740040184,267.13251504374983 351.5311740040184,306.2506481743449" />
  <polygon fill="hsl(288.0,50.0%,50.65955712546234%)" points="462.75335033316776,441.07541734107156 462.75335033316776,407.49250004845567 468.621070302757,405.7986351964698 468.62107030275706,439.38155248908566" />
  <polygon fill="hsl(288.0,50.0%,50.65955712546234%)" points="477.4226502571409,436.84075521110685 477.4226502571409,403.257837918491 471.55493028755166,404.95170277047686 471.55493028755166,438.53462006309275" />
  <polygon fill="hsl(288.0,50.0%,50.65955712546234%)" points="456.8856303635785,409.51886903205155 456.8856303635785,376.2684558710457 462.0198853369691,374.7863241255581 462.0198853369691,408.03673728656395" />
  <polygon fill="hsl(288.0,50.0%,50.65955712546234%)" points="478.1561152533396,403.37860894360284 478.1561152533396,370.128195782597 483.29037022673015,368.6460640371094 483.29037022673015,401.89647719811524" />
  <polygon fill="hsl(288.0,50.0%,50.65955712546234%)" points="462.0198853369691,379.92057909894874 462.0198853369691,374.7863241255581 478.1561152533396,370.128195782597 478.1561152533396,375.26245075598763" />
  <polygon fill="hsl(288.0,50.0%,50.65955712546234%)" points="462.75335033316776,407.82500418006566 462.75335033316776,374.5745910190599 477.4226502571409,370.33992888909523 477.4226502571409,403.59034205010107" />
  <polygon fill="hsl(288.0,50.0%,50.65955712546234%)" points="466.42067531416103,371.8534048285184 466.42067531416103,356.89071890606584 473.75532527614763,354.7733878410835 473.75532527614763,369.7360737635361" />
  <polygon fill="hsl(288.0,50.0%,50.65955712546234%)" points="467.8876053065584,373.0924592735723 467.8876053065584,356.4672526930694 472.28839528375033,355.19685405407995 472.28839528375033,371.8220606345829" />
  <polygon fill="hsl(288.0,50.0%,42.21758785095096%)" points="403.9251692060835,491.0810582423735 403.9251692060835,457.4981409497576 409.79288917567277,455.8042760977718 409.79288917567277,489.38719339038767" />
  <polygon fill="hsl(288.0,50.0%,42.21758785095096%)" points="418.59446913005667,486.8463961124089 418.59446913005667,453.263478819793 412.7267491604674,454.95734367177886 412.7267491604674,488.54026096439475" />
  <polygon fill="hsl(288.0,50.0%,42.21758785095096%)" points="398.0574492364942,459.52450993335356 398.0574492364942,426.2740967723477 403.19170420988485,424.7919650268601 403.19170420988485,458.0423781878659" />
  <polygon fill="hsl(288.0,50.0%,42.21758785095096%)" points="419.3279341262553,453.38424984490484 419.3279341262553,420.13383668389906 424.4621890996459,418.6517049384114 424.4621890996459,451.9021180994172" />
  <polygon fill="hsl(288.0,50.0%,42.21758785095096%)" points="403.19170420988485,429.92622000025074 403.19170420988485,424.7919650268601 419.3279341262553,420.13383668389906 419.3279341262553,425.26809165728963" />
  <polygon fill="hsl(288.0,50.0%,42.21758785095096%)" points="403.9251692060835,457.8306450813677 403.9251692060835,424.5802319203619 418.59446913005667,420.34556979039724 418.59446913005667,453.5959829514031" />
  <polygon fill="hsl(288.0,50.0%,42.21758785095096%)" points="407.5924941870768,421.8590457298204 407.5924941870768,406.89635980736784 414.9271441490634,404.7790287423855 414.9271441490634,419.7417146648381" />
  <polygon fill="hsl(288.0,50.0%,42.21758785095096%)" points="409.0594241794741,423.0981001748743 409.0594241794741,406.4728935943714 413.46021415666604,405.202494955382 413.46021415666604,421.8277015358849" />
</svg>
