<?xml version="1.0" encoding="UTF-8"?>
<svg
  xmlns="http://www.w3.org/2000/svg"
  width="848"
  height="600"
  style="background-color:white"
>
  <polygon fill="lightblue" points="379.47845728694574,515.7633416505912 178.6485722622949,341.8395593801356 468.52154271305426,258.1604406198644 669.3514277377051,432.08422289032" />
  <polygon fill="steelblue" points="178.6485722622949,341.8395593801356 178.6485722622949,167.91577710967996 468.52154271305426,84.23665834940877 468.52154271305426,258.1604406198644" />
  <polygon fill="lightskyblue" points="669.3514277377051,432.08422289032 669.3514277377051,258.1604406198644 468.52154271305426,84.23665834940877 468.52154271305426,258.1604406198644" />
  <polygon fill="white" points="578.9779794766123,353.818520868615 578.9779794766123,237.86933268831123 558.8949909741472,220.47695446126568 558.8949909741472,336.4261426415694" />
  <polygon fill="white" points="222.1295178299088,282.90801629397345 222.1295178299088,236.52834102185193 251.11681487498473,228.1604291458248 251.11681487498473,274.5401044179463" />
  <polygon fill="white" points="280.10411192006063,266.1721925419192 280.10411192006063,219.79251726979766 309.0914089651366,211.42460539377055 309.0914089651366,257.80428066589207" />
  <polygon fill="white" points="338.07870601021256,249.43636878986493 338.07870601021256,203.05669351774344 367.0660030552885,194.6887816417163 367.0660030552885,241.0684569138378" />
  <polygon fill="white" points="396.0533001003644,232.70054503781068 396.0533001003644,186.32086976568917 425.04059714544036,177.95295788966206 425.04059714544036,224.33263316178358" />
  <polygon fill="antiquewhite" points="503.3373881790583,411.06392014146394 503.3373881790583,312.50711018820573 526.5272258151191,305.812780687384 526.5272258151191,404.36959064064223" />
  <polygon fill="beige" points="503.3373881790583,411.06392014146394 503.3373881790583,312.50711018820573 489.9487291774149,300.9121913701753 489.9487291774149,399.46900132343353" />
  <polygon fill="bisque" points="503.3373881790583,312.50711018820573 489.9487291774149,300.9121913701753 513.1385668134757,294.21786186935367 526.5272258151191,305.812780687384" />
</svg>
