<?xml version="1.0" encoding="UTF-8"?>
<svg
  xmlns="http://www.w3.org/2000/svg"
  width="848"
  height="600"
  style="background-color:white"
>
  <polygon fill="lightblue" points="379.47845728694574,515.7633416505912 178.6485722622949,341.8395593801356 468.52154271305426,258.1604406198644 669.3514277377051,432.08422289032" />
  <polygon fill="steelblue" points="178.6485722622949,341.8395593801356 178.6485722622949,167.91577710967996 468.52154271305426,84.23665834940877 468.52154271305426,258.1604406198644" />
  <polygon fill="lightskyblue" points="669.3514277377051,432.08422289032 669.3514277377051,258.1604406198644 468.52154271305426,84.23665834940877 468.52154271305426,258.1604406198644" />
  <polygon fill="white" points="578.9779794766123,353.818520868615 578.9779794766123,237.86933268831123 558.8949909741472,220.47695446126568 558.8949909741472,336.4261426415694" />
  <polygon fill="white" points="236.62316635244676,278.72406035595986 236.62316635244676,232.34438508383835 265.6104633975227,223.97647320781124 265.6104633975227,270.35614847993276" />
  <polygon fill="white" points="309.0914089651366,257.80428066589207 309.0914089651366,211.42460539377055 338.07870601021256,203.05669351774344 338.07870601021256,249.43636878986493" />
  <polygon fill="white" points="381.55965157782646,236.88450097582424 381.55965157782646,190.50482570370275 410.5469486229024,182.13691382767564 410.5469486229024,228.51658909979713" />
  <polygon fill="hsl(360.0,50.0%,50.65955712546234%)" points="469.9471774422007,409.28880836604765 469.9471774422007,369.4718571449313 476.9041287330189,367.4635582946848 476.9041287330189,407.2805095158011" />
  <polygon fill="hsl(360.0,50.0%,50.65955712546234%)" points="487.33955566924624,404.2680612404314 487.33955566924624,364.451110019315 480.382604378428,366.45940886956157 480.382604378428,406.2763600906779" />
  <polygon fill="hsl(360.0,50.0%,50.65955712546234%)" points="462.9902261513825,371.87438323499083 462.99022615138244,332.4516592536876 469.0775585308484,330.6943977597219 469.0775585308484,370.11712174102513" />
  <polygon fill="hsl(360.0,50.0%,50.65955712546234%)" points="488.2091745805985,364.5942999028473 488.2091745805985,325.171575921544 494.2965069600645,323.4143144275783 494.2965069600645,362.83703840888154" />
  <polygon fill="hsl(360.0,50.0%,50.65955712546234%)" points="469.0775585308484,336.78173013918786 469.0775585308484,330.6943977597219 488.2091745805985,325.171575921544 488.2091745805985,331.2589083010099" />
  <polygon fill="hsl(360.0,50.0%,50.65955712546234%)" points="469.9471774422007,369.86608438474434 469.9471774422007,330.44336040344103 487.33955566924624,325.4226132778248 487.33955566924624,364.8453372591281" />
  <polygon fill="hsl(360.0,50.0%,50.65955712546234%)" points="474.2952719989621,327.2170374229718 474.2952719989621,309.4768116313854 482.9914611124849,306.96643806857725 482.9914611124849,324.7066638601637" />
  <polygon fill="hsl(360.0,50.0%,50.65955712546234%)" points="476.03450982166663,328.6860989094754 476.03450982166663,308.97473691882374 481.2522232897803,307.4685127811389 481.2522232897803,327.1798747717905" />
</svg>
