<?xml version="1.0" encoding="UTF-8"?>
<svg
  xmlns="http://www.w3.org/2000/svg"
  width="848"
  height="600"
  style="background-color:white"
>
  <polygon fill="lightblue" points="398.2422010368691,475.14073439503215 282.05270065064667,374.5176754075416 449.7577989631309,326.1053835799489 565.9472993493533,426.72844256743946" />
  <polygon fill="steelblue" points="282.05270065064667,374.5176754075416 282.05270065064667,173.27155743256054 449.7577989631309,124.85926560496785 449.7577989631309,326.1053835799489" />
  <polygon fill="lightskyblue" points="565.9472993493533,426.72844256743946 565.9472993493533,225.48232459245838 449.7577989631309,124.85926560496785 449.7577989631309,326.1053835799489" />
  <polygon fill="white" points="513.6620241755533,381.4480660230687 513.6620241755533,314.366026698075 502.04307413693095,304.30372079932596 502.04307413693095,371.38576012431963" />
  <polygon fill="white" points="301.6182954537698,342.03675896432503 301.6182954537698,315.20394323432754 318.38880528501824,310.3627140515682 318.38880528501824,337.1955297815657" />
  <polygon fill="white" points="329.56914517251715,333.9680436597262 329.56914517251715,307.1352279297287 346.3396550037656,302.29399874696946 346.3396550037656,329.12681447696696" />
  <polygon fill="white" points="357.51999489126456,325.8993283551274 357.51999489126456,299.0665126251299 374.290504722513,294.22528344237065 374.290504722513,321.05809917236814" />
  <polygon fill="white" points="385.4708446100119,317.83061305052865 385.4708446100119,290.99779732053116 402.24135444126034,286.1565681377719 402.24135444126034,312.9893838677694" />
  <polygon fill="white" points="413.4216943287593,309.76189774592984 413.42169432875926,282.92908201593235 430.1922041600077,278.0878528331731 430.1922041600077,304.9206685631706" />
</svg>
