<?xml version="1.0" encoding="UTF-8"?>
<svg
  xmlns="http://www.w3.org/2000/svg"
  width="848"
  height="600"
  style="background-color:white"
>
  <polygon fill="lightblue" points="383.5494939557267,522.3707128413578 201.0834340885247,364.3504696679086 464.4505060442733,288.3229447232411 646.9165659114753,446.3431878966902" />
  <polygon fill="steelblue" points="201.0834340885247,364.3504696679086 201.0834340885247,153.65681210330976 464.4505060442733,77.6292871586422 464.4505060442733,288.3229447232411" />
  <polygon fill="lightskyblue" points="646.9165659114753,446.3431878966902 646.9165659114753,235.6495303320914 464.4505060442733,77.6292871586422 464.4505060442733,288.3229447232411" />
  <polygon fill="white" points="564.8068389712344,375.23407846863813 564.8068389712344,269.8872496863387 546.5602329845142,254.08522536899378 546.5602329845142,359.43205415129324" />
  <polygon fill="white" points="225.53894791298706,315.15203941012686 225.53894791298706,273.0133078972071 251.87565510856194,265.41055540274033 251.87565510856194,307.5492869156601" />
  <polygon fill="white" points="263.16281533523687,304.2909644180315 263.16281533523687,262.1522329051117 289.49952253081176,254.54948041064495 289.49952253081176,296.6882119235647" />
  <polygon fill="white" points="300.7866827574867,293.42988942593615 300.7866827574867,251.29115791301635 327.1233899530615,243.6884054185496 327.1233899530615,285.8271369314694" />
  <polygon fill="white" points="338.41055017973645,282.56881443384077 338.41055017973645,240.430082920921 364.74725737531134,232.82733042645424 364.74725737531134,274.966061939374" />
  <polygon fill="white" points="376.03441760198626,271.7077394417454 376.03441760198626,229.5690079288256 402.37112479756115,221.96625543435886 402.37112479756115,264.10498694727863" />
  <polygon fill="white" points="413.6582850242361,260.84666444965006 413.6582850242361,218.7079329367303 439.9949922198109,211.10518044226353 439.9949922198109,253.2439119551833" />
  <polygon fill="antiquewhite" points="496.08280092084203,427.24497540043404 496.08280092084203,337.7001709354795 517.1521666773019,331.6179689399061 517.1521666773019,421.1627734048606" />
  <polygon fill="beige" points="496.08280092084203,427.24497540043404 496.08280092084203,337.7001709354795 483.9183969296952,327.16548805724955 483.9183969296952,416.7102925222041" />
  <polygon fill="bisque" points="496.08280092084203,337.7001709354795 483.9183969296952,327.16548805724955 504.9877626861551,321.0832860616762 517.1521666773019,331.6179689399061" />
  <polygon fill="antiquewhite" points="397.1757631144899,504.71038589766306 397.1757631144899,415.1655814327085 418.24512887094977,409.08337943713514 418.24512887094977,498.62818390208963" />
  <polygon fill="beige" points="397.1757631144899,504.71038589766306 397.1757631144899,415.1655814327085 385.0113591233431,404.63089855447856 385.0113591233431,494.17570301943306" />
  <polygon fill="bisque" points="397.1757631144899,415.1655814327085 385.0113591233431,404.63089855447856 406.080724879803,398.54869655890514 418.24512887094977,409.08337943713514" />
  <polygon fill="antiquewhite" points="430.3299524022398,322.04584803880437 430.3299524022398,232.50104357384984 451.3993181586997,226.4188415782764 451.3993181586997,315.96364604323094" />
  <polygon fill="beige" points="430.3299524022398,322.04584803880437 430.3299524022398,232.50104357384984 418.165548411093,221.96636069561987 418.165548411093,311.5111651605744" />
  <polygon fill="bisque" points="430.3299524022398,232.50104357384984 418.165548411093,221.96636069561987 439.2349141675529,215.8841587000465 451.3993181586997,226.4188415782764" />
  <polygon fill="antiquewhite" points="412.00331491440494,362.73017897150584 412.00331491440494,273.18537450655134 433.0726806708648,267.1031725109779 433.0726806708648,356.64797697593247" />
  <polygon fill="beige" points="412.00331491440494,362.73017897150584 412.00331491440494,273.18537450655134 399.8389109232581,262.6506916283214 399.83891092325814,352.1954960932759" />
  <polygon fill="bisque" points="412.00331491440494,273.18537450655134 399.8389109232581,262.6506916283214 420.908276679718,256.56848963274797 433.0726806708648,267.1031725109779" />
  <polygon fill="antiquewhite" points="362.6831128453975,337.2636253709892 362.6831128453975,247.7188209060347 383.7524786018574,241.63661891046127 383.7524786018574,331.18142337541576" />
  <polygon fill="beige" points="362.6831128453975,337.2636253709892 362.6831128453975,247.7188209060347 350.5187088542507,237.18413802780472 350.5187088542507,326.72894249275924" />
  <polygon fill="bisque" points="362.6831128453975,247.7188209060347 350.5187088542507,237.18413802780472 371.5880746107106,231.10193603223132 383.7524786018574,241.63661891046127" />
</svg>
