<?xml version="1.0" encoding="UTF-8"?>
<svg
  xmlns="http://www.w3.org/2000/svg"
  width="848"
  height="600"
  style="background-color:white"
>
  <polygon fill="lightblue" points="392.0258849547367,531.608918676316 122.40593497715162,298.1111926286377 455.9741150452633,201.81835335092873 725.5940650228483,435.316079398607" />
  <polygon fill="steelblue" points="122.40593497715162,298.1111926286377 122.40593497715162,164.68392060139303 455.9741150452633,68.39108132368403 455.9741150452633,201.81835335092873" />
  <polygon fill="lightskyblue" points="725.5940650228483,435.316079398607 725.5940650228483,301.8888073713623 455.9741150452633,68.39108132368403 455.9741150452633,201.81835335092873" />
  <polygon fill="hsl(360.0,50.0%,50.11143025347155%)" points="485.7403730075395,400.08527680392694 485.7403730075395,354.26635158977115 493.74600932917417,351.95532344710614 493.74600932917417,397.77424866126194" />
  <polygon fill="hsl(360.0,50.0%,50.11143025347155%)" points="505.75446381162624,394.3077064472644 505.7544638116262,348.4887812331086 497.7488274899915,350.79980937577363 497.7488274899915,396.61873458992943" />
  <polygon fill="hsl(360.0,50.0%,50.11143025347155%)" points="477.7347366859048,357.0310324573288 477.7347366859048,311.6657599680656 484.73966846733515,309.6436103432337 484.73966846733515,355.0088828324969" />
  <polygon fill="hsl(360.0,50.0%,50.11143025347155%)" points="506.75516835183055,348.65355544016813 506.75516835183055,303.2882829509049 513.760100133261,301.26613332607303 513.760100133261,346.6314058153362" />
  <polygon fill="hsl(360.0,50.0%,50.11143025347155%)" points="484.73966846733515,316.64854212466406 484.73966846733515,309.6436103432337 506.75516835183055,303.2882829509049 506.75516835183055,310.29321473233523" />
  <polygon fill="hsl(360.0,50.0%,50.11143025347155%)" points="485.7403730075395,354.72000431466375 485.7403730075395,309.35473182540056 505.7544638116262,303.57716146873804 505.7544638116262,348.94243395800123" />
  <polygon fill="hsl(360.0,50.0%,50.11143025347155%)" points="490.7438957085612,305.64207561177176 490.7438957085612,285.22770299160334 500.7509411106046,282.3389178132721 500.7509411106046,302.7532904334405" />
  <polygon fill="hsl(360.0,50.0%,50.11143025347155%)" points="492.74530478896986,307.3325822005687 492.74530478896986,284.6499459559371 498.74953203019584,282.9166748489383 498.74953203019584,305.59931109356995" />
</svg>
