<?xml version="1.0" encoding="UTF-8"?>
<svg
  xmlns="http://www.w3.org/2000/svg"
  width="848"
  height="600"
  style="background-color:white"
>
  <polygon fill="lightblue" points="392.0258849547367,531.608918676316 122.40593497715162,298.1111926286377 455.9741150452633,201.81835335092873 725.5940650228483,435.316079398607" />
  <polygon fill="steelblue" points="122.40593497715162,298.1111926286377 122.40593497715162,164.68392060139303 455.9741150452633,68.39108132368403 455.9741150452633,201.81835335092873" />
  <polygon fill="lightskyblue" points="725.5940650228483,435.316079398607 725.5940650228483,301.8888073713623 455.9741150452633,68.39108132368403 455.9741150452633,201.81835335092873" />
  <polygon fill="white" points="557.4025724177834,289.6579741021982 557.4025724177834,162.90206567631574 534.2922909911333,142.88797487222902 534.2922909911333,269.64388329811146" />
  <polygon fill="white" points="647.2758890769785,367.4905494514243 647.2758890769785,240.7346410255418 624.1656076503283,220.72055022145508 624.1656076503283,347.47645864733755" />
  <polygon fill="white" points="172.4411619873684,230.2963579260835 172.4411619873684,176.9254491151856 205.79797999417957,167.29616518741472 205.79797999417957,220.66707399831256" />
  <polygon fill="white" points="239.15479800099072,211.0377900705417 239.15479800099072,157.66688125964382 272.5116160078019,148.03759733187292 272.5116160078019,201.4085061427708" />
  <polygon fill="white" points="305.86843401461306,191.7792222149999 305.86843401461306,138.408313404102 339.22525202142424,128.7790294763311 339.22525202142424,182.149938287229" />
  <polygon fill="white" points="372.5820700282354,172.5206543594581 372.5820700282354,119.14974554856022 405.9388880350466,109.52046162078932 405.9388880350466,162.8913704316872" />
  <polygon fill="grey" points="441.875864893994,141.39831946439617 441.875864893994,108.04150145758499 475.2326829008051,98.41221752981411 475.2326829008051,131.76903553662527" />
  <polygon fill="lightgrey" points="441.875864893994,141.39831946439617 441.875864893994,108.04150145758499 422.6172970384522,91.3630924541794 422.6172970384522,124.71991046099058" />
  <polygon fill="darkgrey" points="441.875864893994,108.04150145758499 422.6172970384522,91.3630924541794 455.9741150452633,81.7338085264085 475.2326829008051,98.41221752981411" />
  <polygon fill="hsl(360.0,50.0%,50.11143025347155%)" points="485.7403730075395,400.08527680392694 485.7403730075395,354.26635158977115 493.74600932917417,351.95532344710614 493.74600932917417,397.77424866126194" />
  <polygon fill="hsl(360.0,50.0%,50.11143025347155%)" points="505.75446381162624,394.3077064472644 505.7544638116262,348.4887812331086 497.7488274899915,350.79980937577363 497.7488274899915,396.61873458992943" />
  <polygon fill="hsl(360.0,50.0%,50.11143025347155%)" points="477.7347366859048,357.0310324573288 477.7347366859048,311.6657599680656 484.73966846733515,309.6436103432337 484.73966846733515,355.0088828324969" />
  <polygon fill="hsl(360.0,50.0%,50.11143025347155%)" points="506.75516835183055,348.65355544016813 506.75516835183055,303.2882829509049 513.760100133261,301.26613332607303 513.760100133261,346.6314058153362" />
  <polygon fill="hsl(360.0,50.0%,50.11143025347155%)" points="484.73966846733515,316.64854212466406 484.73966846733515,309.6436103432337 506.75516835183055,303.2882829509049 506.75516835183055,310.29321473233523" />
  <polygon fill="hsl(360.0,50.0%,50.11143025347155%)" points="485.7403730075395,354.72000431466375 485.7403730075395,309.35473182540056 505.7544638116262,303.57716146873804 505.7544638116262,348.94243395800123" />
  <polygon fill="hsl(360.0,50.0%,50.11143025347155%)" points="490.7438957085612,305.64207561177176 490.7438957085612,285.22770299160334 500.7509411106046,282.3389178132721 500.7509411106046,302.7532904334405" />
  <polygon fill="hsl(360.0,50.0%,50.11143025347155%)" points="492.74530478896986,307.3325822005687 492.74530478896986,284.6499459559371 498.74953203019584,282.9166748489383 498.74953203019584,305.59931109356995" />
</svg>
