<?xml version="1.0" encoding="UTF-8"?>
<svg
  xmlns="http://www.w3.org/2000/svg"
  width="848"
  height="600"
  style="background-color:white"
>
  <polygon fill="lightblue" points="398.62212807069835,536.7787685703245 184.62463195768245,351.45150059019096 449.37787192930165,275.02382340697096 663.3753680423175,460.3510913871044" />
  <polygon fill="steelblue" points="184.62463195768245,351.45150059019096 184.62463195768245,139.64890861289558 449.37787192930165,63.22123142967558 449.37787192930165,275.02382340697096" />
  <polygon fill="lightskyblue" points="663.3753680423175,460.3510913871044 663.3753680423175,248.54849940980904 449.37787192930165,63.22123142967558 449.37787192930165,275.02382340697096" />
  <polygon fill="white" points="259.63804994964124,287.4364736594862 259.63804994964124,245.07595526402713 286.1133739468031,237.43318754570515 286.1133739468031,279.7937059411642" />
  <polygon fill="white" points="347.88912994018096,261.96058126507955 347.88912994018096,219.60006286962044 374.3644539373429,211.95729515129847 374.3644539373429,254.31781354675752" />
  <polygon fill="grey" points="438.18808336878374,121.16711474260526 438.18808336878374,94.69179074544334 464.6634073659456,87.04902302712134 464.6634073659456,113.52434702428326" />
  <polygon fill="lightgrey" points="438.18808336878374,121.16711474260526 438.18808336878374,94.69179074544334 422.9025479321397,81.45412874686238 422.9025479321397,107.92945274402427" />
  <polygon fill="darkgrey" points="438.18808336878374,94.69179074544334 422.9025479321397,81.45412874686238 449.37787192930165,73.81136102854038 464.6634073659456,87.04902302712134" />
  <polygon fill="hsl(288.0,50.0%,73.07460395039482%)" points="402.72908925831456,339.1894280762027 402.72908925831456,302.8229230337011 409.08316701763346,300.9886587813038 409.08316701763346,337.3551638238054" />
  <polygon fill="hsl(288.0,50.0%,73.07460395039482%)" points="418.6142836566117,334.60376744520954 418.6142836566117,298.23726240270787 412.26020589729285,300.0715266551052 412.26020589729285,336.4380316976068" />
  <polygon fill="hsl(288.0,50.0%,73.07460395039482%)" points="396.3750114989957,305.01725169245975 396.3750114989957,269.01081105631954 401.9348295383997,267.40582983547193 401.9348295383997,303.41227047161215" />
  <polygon fill="hsl(288.0,50.0%,73.07460395039482%)" points="419.40854337652655,298.36804377751963 419.40854337652655,262.3616031413794 424.9683614159306,260.7566219205318 424.9683614159306,296.763062556672" />
  <polygon fill="hsl(288.0,50.0%,73.07460395039482%)" points="401.9348295383997,272.96564787487597 401.9348295383997,267.40582983547193 419.40854337652655,262.3616031413794 419.40854337652655,267.92142118078345" />
  <polygon fill="hsl(288.0,50.0%,73.07460395039482%)" points="402.72908925831456,303.1829874400625 402.72908925831456,267.1765468039223 418.6142836566117,262.5908861729291 418.6142836566117,298.5973268090693" />
  <polygon fill="hsl(288.0,50.0%,73.07460395039482%)" points="406.7003878578888,264.22980961436696 406.7003878578888,248.0269113281039 414.64298505703744,245.73408101260728 414.64298505703744,261.93697929887037" />
  <polygon fill="hsl(288.0,50.0%,73.07460395039482%)" points="408.28890729771854,265.5715655830747 408.28890729771854,247.56834526500455 413.0544656172077,246.19264707570662 413.0544656172077,264.1958673937767" />
  <polygon fill="hsl(288.0,50.0%,50.11143025347155%)" points="473.00336653053864,432.3883848368649 473.00336653053864,396.02187979436326 479.3574442898575,394.187615541966 479.3574442898575,430.5541205844676" />
  <polygon fill="hsl(288.0,50.0%,50.11143025347155%)" points="488.8885609288358,427.8027242058717 488.8885609288358,391.4362191633701 482.53448316951693,393.27048341576733 482.53448316951693,429.636988458269" />
  <polygon fill="hsl(288.0,50.0%,50.11143025347155%)" points="466.64928877121974,398.21620845312196 466.64928877121974,362.20976781698175 472.2091068106238,360.60478659613415 472.2091068106238,396.61122723227436" />
  <polygon fill="hsl(288.0,50.0%,50.11143025347155%)" points="489.68282064875063,391.5670005381818 489.68282064875063,355.56055990204163 495.24263868815467,353.95557868119397 495.24263868815467,389.9620193173342" />
  <polygon fill="hsl(288.0,50.0%,50.11143025347155%)" points="472.2091068106238,366.1646046355381 472.2091068106238,360.60478659613415 489.68282064875063,355.56055990204163 489.68282064875063,361.1203779414456" />
  <polygon fill="hsl(288.0,50.0%,50.11143025347155%)" points="473.00336653053864,396.38194420072466 473.00336653053864,360.3755035645845 488.8885609288358,355.7898429335913 488.8885609288358,391.7962835697315" />
  <polygon fill="hsl(288.0,50.0%,50.11143025347155%)" points="476.9746651301129,357.42876637502917 476.9746651301129,341.2258680887661 484.9172623292615,338.93303777326946 484.9172623292615,355.1359360595326" />
  <polygon fill="hsl(288.0,50.0%,50.11143025347155%)" points="478.5631845699426,358.77052234373684 478.5631845699426,340.76730202566677 483.32874288943174,339.3916038363688 483.32874288943174,357.3948241544389" />
  <polygon fill="hsl(288.0,50.0%,41.06646317363794%)" points="417.0414943361303,493.24396016811835 417.0414943361303,456.87745512561673 423.39557209544915,455.0431908732195 423.39557209544915,491.40969591572104" />
  <polygon fill="hsl(288.0,50.0%,41.06646317363794%)" points="432.92668873442744,488.6582995371251 432.92668873442744,452.29179449462356 426.5726109751086,454.1260587470208 426.5726109751086,490.4925637895224" />
  <polygon fill="hsl(288.0,50.0%,41.06646317363794%)" points="410.6874165768114,459.0717837843754 410.6874165768114,423.06534314823523 416.24723461621545,421.46036192738757 416.24723461621545,457.46680256352784" />
  <polygon fill="hsl(288.0,50.0%,41.06646317363794%)" points="433.7209484543423,452.42257586943526 433.7209484543423,416.41613523329505 439.2807664937463,414.81115401244745 439.2807664937463,450.8175946485876" />
  <polygon fill="hsl(288.0,50.0%,41.06646317363794%)" points="416.24723461621545,427.0201799667916 416.24723461621545,421.46036192738757 433.7209484543423,416.41613523329505 433.7209484543423,421.9759532726991" />
  <polygon fill="hsl(288.0,50.0%,41.06646317363794%)" points="417.0414943361303,457.23751953197814 417.0414943361303,421.2310788958379 432.92668873442744,416.64541826484475 432.92668873442744,452.65185890098496" />
  <polygon fill="hsl(288.0,50.0%,41.06646317363794%)" points="421.01279293570457,418.2843417062826 421.01279293570457,402.0814434200195 428.9553901348532,399.78861310452294 428.9553901348532,415.991511390786" />
  <polygon fill="hsl(288.0,50.0%,41.06646317363794%)" points="422.6013123755343,419.6260976749903 422.6013123755343,401.6228773569202 427.36687069502347,400.2471791676222 427.36687069502347,418.25039948569236" />
  <polygon fill="hsl(288.0,50.0%,40.57399405369576%)" points="542.240436656267,459.5359508177504 542.240436656267,423.1694457752488 548.5945144155858,421.3351815228515 548.5945144155858,457.70168656535316" />
  <polygon fill="hsl(288.0,50.0%,40.57399405369576%)" points="558.1256310545641,454.95029018675723 558.1256310545641,418.5837851442556 551.7715532952452,420.41804939665286 551.7715532952452,456.7845544391545" />
  <polygon fill="hsl(288.0,50.0%,40.57399405369576%)" points="535.8863588969481,425.3637744340075 535.8863588969481,389.3573337978673 541.4461769363521,387.7523525770197 541.4461769363521,423.75879321315983" />
  <polygon fill="hsl(288.0,50.0%,40.57399405369576%)" points="558.919890774479,418.7145665190673 558.919890774479,382.7081258829271 564.4797088138829,381.1031446620795 564.4797088138829,417.1095852982197" />
  <polygon fill="hsl(288.0,50.0%,40.57399405369576%)" points="541.4461769363521,393.31217061642366 541.4461769363521,387.7523525770197 558.919890774479,382.7081258829271 558.919890774479,388.26794392233114" />
  <polygon fill="hsl(288.0,50.0%,40.57399405369576%)" points="542.240436656267,423.5295101816102 542.240436656267,387.52306954547 558.1256310545641,382.9374089144768 558.1256310545641,418.943849550617" />
  <polygon fill="hsl(288.0,50.0%,40.57399405369576%)" points="546.2117352558412,384.5763323559147 546.2117352558412,368.3734340696516 554.1543324549898,366.080603754155 554.1543324549898,382.28350204041806" />
  <polygon fill="hsl(288.0,50.0%,40.57399405369576%)" points="547.8002546956709,385.9180883246224 547.8002546956709,367.9148680065523 552.5658130151601,366.53916981725433 552.5658130151601,384.5423901353244" />
</svg>
