<?xml version="1.0" encoding="UTF-8"?>
<svg
  xmlns="http://www.w3.org/2000/svg"
  width="848"
  height="600"
  style="background-color:white"
>
  <polygon fill="lightblue" points="396.06803771922694,531.468891390842 160.53331651563053,327.4898393552422 451.93196228077306,243.37029606824348 687.4666834843695,447.3493481038433" />
  <polygon fill="steelblue" points="160.53331651563053,327.4898393552422 160.53331651563053,152.65065189615672 451.93196228077306,68.53110860915794 451.93196228077306,243.37029606824348" />
  <polygon fill="lightskyblue" points="687.4666834843695,447.3493481038433 687.4666834843695,272.5101606447578 451.93196228077306,68.53110860915794 451.93196228077306,243.37029606824348" />
  <polygon fill="white" points="579.793668077011,354.10178145899766 579.793668077011,237.54232315294064 559.6049776881314,220.05840440703207 559.6049776881314,336.6178627130891" />
  <polygon fill="grey" points="439.61600636165855,132.30880563323495 439.61600636165855,103.16894105672068 468.7558709381728,94.75698672802082 468.7558709381728,123.89685130453509" />
  <polygon fill="lightgrey" points="439.61600636165855,132.30880563323495 439.61600636165855,103.16894105672068 422.7920977042588,88.59900876846353 422.7920977042588,117.73887334497778" />
  <polygon fill="darkgrey" points="439.61600636165855,103.16894105672068 422.7920977042588,88.59900876846353 451.93196228077306,80.18705443976367 468.7558709381728,94.75698672802082" />
  <polygon fill="hsl(288.0,50.0%,73.07460395039482%)" points="400.5883334044078,313.9936822346224 400.5883334044078,273.9671642523224 407.5819009027712,271.9482952134344 407.5819009027712,311.9748131957344" />
  <polygon fill="hsl(288.0,50.0%,73.07460395039482%)" points="418.0722521503164,308.94650963740247 418.07225215031633,268.9199916551025 411.0786846519529,270.9388606939904 411.0786846519529,310.9653786762904" />
  <polygon fill="hsl(288.0,50.0%,73.07460395039482%)" points="393.59476590604436,276.382335449451 393.59476590604436,236.75211962539157 399.7141374671124,234.9856092163646 399.7141374671124,274.615825040424" />
  <polygon fill="hsl(288.0,50.0%,73.07460395039482%)" points="418.94644808761177,269.06393518348204 418.94644808761177,229.4337193594227 425.0658196486798,227.66720895039572 425.0658196486798,267.29742477445507" />
  <polygon fill="hsl(288.0,50.0%,73.07460395039482%)" points="399.7141374671124,241.1049807774326 399.7141374671124,234.9856092163646 418.94644808761177,229.4337193594227 418.94644808761177,235.55309092049066" />
  <polygon fill="hsl(288.0,50.0%,73.07460395039482%)" points="400.5883334044078,274.363466410563 400.5883334044078,234.7332505865036 418.07225215031633,229.6860779892837 418.07225215031633,269.31629381334307" />
  <polygon fill="hsl(288.0,50.0%,73.07460395039482%)" points="404.95931309088496,231.48994664599564 404.95931309088496,213.65634952516893 413.70127246383925,211.13276322655895 413.70127246383925,228.96636034738566" />
  <polygon fill="hsl(288.0,50.0%,73.07460395039482%)" points="406.7077049654758,232.96674017747662 406.7077049654758,213.15163226544695 411.95288058924837,211.63748048628096 411.95288058924837,231.45258839831064" />
  <polygon fill="hsl(288.0,50.0%,50.11143025347155%)" points="477.93518374491885,416.5724072001499 477.93518374491885,376.54588921784995 484.92875124328225,374.52702017896195 484.92875124328225,414.55353816126194" />
  <polygon fill="hsl(288.0,50.0%,50.11143025347155%)" points="495.41910249082736,411.52523460293 495.41910249082736,371.49871662063 488.42553499246395,373.517585659518 488.42553499246395,413.54410364181797" />
  <polygon fill="hsl(288.0,50.0%,50.11143025347155%)" points="470.9416162465554,378.9610604149785 470.9416162465554,339.3308445909191 477.0609878076234,337.56433418189215 477.0609878076234,377.1945500059515" />
  <polygon fill="hsl(288.0,50.0%,50.11143025347155%)" points="496.2932984281228,371.6426601490096 496.2932984281228,332.0124443249502 502.4126699891908,330.2459339159232 502.4126699891908,369.8761497399826" />
  <polygon fill="hsl(288.0,50.0%,50.11143025347155%)" points="477.0609878076234,343.6837057429601 477.0609878076234,337.56433418189215 496.2932984281228,332.0124443249502 496.2932984281228,338.1318158860182" />
  <polygon fill="hsl(288.0,50.0%,50.11143025347155%)" points="477.93518374491885,376.94219137609053 477.93518374491885,337.31197555203113 495.41910249082736,332.2648029548112 495.41910249082736,371.8950187788706" />
  <polygon fill="hsl(288.0,50.0%,50.11143025347155%)" points="482.30616343139593,334.0686716115232 482.30616343139593,316.2350744906965 491.0481228043502,313.7114881920865 491.0481228043502,331.5450853129132" />
  <polygon fill="hsl(288.0,50.0%,50.11143025347155%)" points="484.0545553059868,335.54546514300415 484.0545553059868,315.7303572309745 489.29973092975933,314.2162054518085 489.29973092975933,334.0313133638382" />
  <polygon fill="hsl(288.0,50.0%,41.06646317363794%)" points="416.34117351229366,483.5526346779584 416.34117351229366,443.5261166956584 423.3347410106571,441.50724765677046 423.3347410106571,481.53376563907045" />
  <polygon fill="hsl(288.0,50.0%,41.06646317363794%)" points="433.82509225820223,478.5054620807385 433.82509225820223,438.4789440984385 426.8315247598388,440.4978131373265 426.8315247598388,480.5243311196264" />
  <polygon fill="hsl(288.0,50.0%,41.06646317363794%)" points="409.34760601393026,445.94128789278693 409.34760601393026,406.3110720687276 415.4669775749982,404.5445616597006 415.4669775749982,444.17477748375995" />
  <polygon fill="hsl(288.0,50.0%,41.06646317363794%)" points="434.6992881954976,438.6228876268181 434.6992881954976,398.9926718027587 440.81865975656564,397.22616139373173 440.81865975656564,436.85637721779113" />
  <polygon fill="hsl(288.0,50.0%,41.06646317363794%)" points="415.4669775749982,410.6639332207686 415.4669775749982,404.5445616597006 434.6992881954976,398.9926718027587 434.6992881954976,405.1120433638267" />
  <polygon fill="hsl(288.0,50.0%,41.06646317363794%)" points="416.34117351229366,443.922418853899 416.34117351229366,404.29220302983964 433.82509225820223,399.2450304326197 433.82509225820223,438.8752462566791" />
  <polygon fill="hsl(288.0,50.0%,41.06646317363794%)" points="420.7121531987708,401.04889908933166 420.7121531987708,383.21530196850495 429.4541125717251,380.691715669895 429.4541125717251,398.5253127907217" />
  <polygon fill="hsl(288.0,50.0%,41.06646317363794%)" points="422.4605450733617,402.52569262081266 422.4605450733617,382.71058470878296 427.7057206971342,381.196432929617 427.7057206971342,401.0115408416467" />
  <polygon fill="hsl(288.0,50.0%,40.57399405369576%)" points="554.140439905509,446.4521698179668 554.140439905509,406.4256518356668 561.1340074038724,404.4067827967788 561.1340074038724,444.4333007790789" />
  <polygon fill="hsl(288.0,50.0%,40.57399405369576%)" points="571.6243586514175,441.40499722074685 571.6243586514175,401.37847923844686 564.6307911530541,403.39734827733486 564.6307911530541,443.42386625963485" />
  <polygon fill="hsl(288.0,50.0%,40.57399405369576%)" points="547.1468724071456,408.84082303279536 547.1468724071456,369.210607208736 553.2662439682135,367.44409679970903 553.2662439682135,407.0743126237684" />
  <polygon fill="hsl(288.0,50.0%,40.57399405369576%)" points="572.498554588713,401.5224227668265 572.498554588713,361.89220694276713 578.6179261497809,360.12569653374015 578.6179261497809,399.7559123577995" />
  <polygon fill="hsl(288.0,50.0%,40.57399405369576%)" points="553.2662439682135,373.563468360777 553.2662439682135,367.44409679970903 572.498554588713,361.89220694276713 572.498554588713,368.0115785038351" />
  <polygon fill="hsl(288.0,50.0%,40.57399405369576%)" points="554.140439905509,406.8219539939074 554.140439905509,367.191738169848 571.6243586514175,362.1445655726281 571.6243586514175,401.7747813966875" />
  <polygon fill="hsl(288.0,50.0%,40.57399405369576%)" points="558.511419591986,363.9484342293401 558.511419591986,346.11483710851337 567.2533789649403,343.5912508099034 567.2533789649403,361.4248479307301" />
  <polygon fill="hsl(288.0,50.0%,40.57399405369576%)" points="560.2598114665769,365.42522776082103 560.2598114665769,345.6101198487914 565.5049870903495,344.0959680696254 565.5049870903495,363.9110759816551" />
</svg>
