<?xml version="1.0" encoding="UTF-8"?>
<svg
  xmlns="http://www.w3.org/2000/svg"
  width="848"
  height="600"
  style="background-color:white"
>
  <polygon fill="lightblue" points="398.62212807069835,536.7787685703245 184.62463195768245,351.45150059019096 449.37787192930165,275.02382340697096 663.3753680423175,460.3510913871044" />
  <polygon fill="steelblue" points="184.62463195768245,351.45150059019096 184.62463195768245,139.64890861289558 449.37787192930165,63.22123142967558 449.37787192930165,275.02382340697096" />
  <polygon fill="lightskyblue" points="663.3753680423175,460.3510913871044 663.3753680423175,248.54849940980904 449.37787192930165,63.22123142967558 449.37787192930165,275.02382340697096" />
  <polygon fill="white" points="529.8816918956267,344.7421765994974 529.8816918956267,244.13594541028206 511.5390493716539,228.2507510119849 511.5390493716539,328.8569822012002" />
  <polygon fill="white" points="601.2141905999653,406.5179325928752 601.2141905999653,305.9117014036599 582.8715480759926,290.02650700536276 582.8715480759926,390.632738194578" />
  <polygon fill="white" points="215.51250995437135,300.17441985668955 215.51250995437135,257.81390146123044 241.9878339515333,250.17113374290847 241.9878339515333,292.5316521383675" />
  <polygon fill="white" points="259.63804994964124,287.4364736594862 259.63804994964124,245.07595526402713 286.1133739468031,237.43318754570515 286.1133739468031,279.7937059411642" />
  <polygon fill="white" points="303.7635899449111,274.69852746228287 303.7635899449111,232.33800906682382 330.238913942073,224.69524134850178 330.238913942073,267.0557597439609" />
  <polygon fill="white" points="347.88912994018096,261.96058126507955 347.88912994018096,219.60006286962044 374.3644539373429,211.95729515129847 374.3644539373429,254.31781354675752" />
  <polygon fill="white" points="392.01466993545085,249.22263506787618 392.01466993545085,206.86211667241713 418.4899939326127,199.21934895409512 418.4899939326127,241.5798673495542" />
  <polygon fill="hsl(324.0,50.0%,50.11143025347155%)" points="473.00336653053864,432.3883848368649 473.00336653053864,396.02187979436326 479.3574442898575,394.187615541966 479.3574442898575,430.5541205844676" />
  <polygon fill="hsl(324.0,50.0%,50.11143025347155%)" points="488.8885609288358,427.8027242058717 488.8885609288358,391.4362191633701 482.53448316951693,393.27048341576733 482.53448316951693,429.636988458269" />
  <polygon fill="hsl(324.0,50.0%,50.11143025347155%)" points="466.64928877121974,398.21620845312196 466.64928877121974,362.20976781698175 472.2091068106238,360.60478659613415 472.2091068106238,396.61122723227436" />
  <polygon fill="hsl(324.0,50.0%,50.11143025347155%)" points="489.68282064875063,391.5670005381818 489.68282064875063,355.56055990204163 495.24263868815467,353.95557868119397 495.24263868815467,389.9620193173342" />
  <polygon fill="hsl(324.0,50.0%,50.11143025347155%)" points="472.2091068106238,366.1646046355381 472.2091068106238,360.60478659613415 489.68282064875063,355.56055990204163 489.68282064875063,361.1203779414456" />
  <polygon fill="hsl(324.0,50.0%,50.11143025347155%)" points="473.00336653053864,396.38194420072466 473.00336653053864,360.3755035645845 488.8885609288358,355.7898429335913 488.8885609288358,391.7962835697315" />
  <polygon fill="hsl(324.0,50.0%,50.11143025347155%)" points="476.9746651301129,357.42876637502917 476.9746651301129,341.2258680887661 484.9172623292615,338.93303777326946 484.9172623292615,355.1359360595326" />
  <polygon fill="hsl(324.0,50.0%,50.11143025347155%)" points="478.5631845699426,358.77052234373684 478.5631845699426,340.76730202566677 483.32874288943174,339.3916038363688 483.32874288943174,357.3948241544389" />
</svg>
