<?xml version="1.0" encoding="UTF-8"?>
<svg
  xmlns="http://www.w3.org/2000/svg"
  width="848"
  height="600"
  style="background-color:white"
>
  <polygon fill="lightblue" points="392.0258849547367,531.608918676316 122.40593497715162,298.1111926286377 455.9741150452633,201.81835335092873 725.5940650228483,435.316079398607" />
  <polygon fill="steelblue" points="122.40593497715162,298.1111926286377 122.40593497715162,164.68392060139303 455.9741150452633,68.39108132368403 455.9741150452633,201.81835335092873" />
  <polygon fill="lightskyblue" points="725.5940650228483,435.316079398607 725.5940650228483,301.8888073713623 455.9741150452633,68.39108132368403 455.9741150452633,201.81835335092873" />
  <polygon fill="white" points="557.4025724177834,289.6579741021982 557.4025724177834,156.2307020749535 534.2922909911333,136.2166112708668 534.2922909911333,269.64388329811146" />
  <polygon fill="white" points="647.2758890769785,367.4905494514243 647.2758890769785,234.06327742417955 624.1656076503283,214.04918662009288 624.1656076503283,347.47645864733755" />
  <polygon fill="white" points="161.32222265176466,233.50611923534046 161.32222265176466,180.13521042444256 194.67904065857587,170.50592649667166 194.67904065857587,223.87683530756954" />
  <polygon fill="white" points="216.9169193297833,217.45731268905564 216.9169193297833,164.08640387815774 250.27373733659445,154.45711995038684 250.27373733659445,207.8280287612847" />
  <polygon fill="white" points="272.5116160078019,201.4085061427708 272.5116160078019,148.03759733187292 305.86843401461306,138.408313404102 305.86843401461306,191.7792222149999" />
  <polygon fill="white" points="328.1063126858205,185.35969959648594 328.1063126858205,131.9887907855881 361.4631306926317,122.3595068578172 361.4631306926317,175.73041566871507" />
  <polygon fill="white" points="383.70100936383915,169.31089305020112 383.70100936383915,115.93998423930321 417.05782737065033,106.31070031153232 417.05782737065033,159.68160912243022" />
  <polygon fill="grey" points="441.875864893994,141.39831946439617 441.875864893994,108.04150145758499 475.2326829008051,98.41221752981411 475.2326829008051,131.76903553662527" />
  <polygon fill="lightgrey" points="441.875864893994,141.39831946439617 441.875864893994,108.04150145758499 422.6172970384522,91.3630924541794 422.6172970384522,124.71991046099058" />
  <polygon fill="darkgrey" points="441.875864893994,108.04150145758499 422.6172970384522,91.3630924541794 455.9741150452633,81.7338085264085 475.2326829008051,98.41221752981411" />
  <polygon fill="hsl(288.0,50.0%,73.07460395039482%)" points="397.20033180611557,282.66194935292657 397.2003318061155,236.84302413877077 405.2059681277502,234.53199599610576 405.2059681277502,280.35092121026156" />
  <polygon fill="hsl(288.0,50.0%,73.07460395039482%)" points="417.21442261020223,276.88437899626405 417.21442261020223,231.06545378210822 409.2087862885675,233.37648192477326 409.2087862885675,279.19540713892906" />
  <polygon fill="hsl(288.0,50.0%,73.07460395039482%)" points="389.19469548448086,239.60770500632842 389.19469548448086,194.2424325170652 396.1996272659112,192.22028289223334 396.1996272659112,237.58555538149653" />
  <polygon fill="hsl(288.0,50.0%,73.07460395039482%)" points="418.2151271504066,231.23022798916773 418.2151271504066,185.86495549990454 425.22005893183695,183.84280587507266 425.22005893183695,229.20807836433585" />
  <polygon fill="hsl(288.0,50.0%,73.07460395039482%)" points="396.1996272659112,199.22521467366366 396.1996272659112,192.22028289223334 418.2151271504066,185.86495549990454 418.2151271504066,192.86988728133485" />
  <polygon fill="hsl(288.0,50.0%,73.07460395039482%)" points="397.2003318061155,237.29667686366338 397.2003318061155,191.9314043744002 417.21442261020223,186.15383401773767 417.21442261020223,231.51910650700086" />
  <polygon fill="hsl(288.0,50.0%,73.07460395039482%)" points="402.2038545071372,188.21874816077138 402.2038545071372,167.80437554060296 412.21089990918057,164.9155903622717 412.21089990918057,185.32996298244012" />
  <polygon fill="hsl(288.0,50.0%,73.07460395039482%)" points="404.2052635875459,189.90925474956828 404.2052635875459,167.2266185049367 410.2094908287719,165.49334739793795 410.2094908287719,188.17598364256952" />
  <polygon fill="hsl(288.0,50.0%,50.11143025347155%)" points="485.7403730075395,400.08527680392694 485.7403730075395,354.26635158977115 493.74600932917417,351.95532344710614 493.74600932917417,397.77424866126194" />
  <polygon fill="hsl(288.0,50.0%,50.11143025347155%)" points="505.75446381162624,394.3077064472644 505.7544638116262,348.4887812331086 497.7488274899915,350.79980937577363 497.7488274899915,396.61873458992943" />
  <polygon fill="hsl(288.0,50.0%,50.11143025347155%)" points="477.7347366859048,357.0310324573288 477.7347366859048,311.6657599680656 484.73966846733515,309.6436103432337 484.73966846733515,355.0088828324969" />
  <polygon fill="hsl(288.0,50.0%,50.11143025347155%)" points="506.75516835183055,348.65355544016813 506.75516835183055,303.2882829509049 513.760100133261,301.26613332607303 513.760100133261,346.6314058153362" />
  <polygon fill="hsl(288.0,50.0%,50.11143025347155%)" points="484.73966846733515,316.64854212466406 484.73966846733515,309.6436103432337 506.75516835183055,303.2882829509049 506.75516835183055,310.29321473233523" />
  <polygon fill="hsl(288.0,50.0%,50.11143025347155%)" points="485.7403730075395,354.72000431466375 485.7403730075395,309.35473182540056 505.7544638116262,303.57716146873804 505.7544638116262,348.94243395800123" />
  <polygon fill="hsl(288.0,50.0%,50.11143025347155%)" points="490.7438957085612,305.64207561177176 490.7438957085612,285.22770299160334 500.7509411106046,282.3389178132721 500.7509411106046,302.7532904334405" />
  <polygon fill="hsl(288.0,50.0%,50.11143025347155%)" points="492.74530478896986,307.3325822005687 492.74530478896986,284.6499459559371 498.74953203019584,282.9166748489383 498.74953203019584,305.59931109356995" />
  <polygon fill="hsl(288.0,50.0%,41.06646317363794%)" points="415.23283223827787,476.7584971672363 415.23283223827787,430.93957195308053 423.2384685599126,428.6285438104155 423.2384685599126,474.4474690245714" />
  <polygon fill="hsl(288.0,50.0%,41.06646317363794%)" points="435.2469230423646,470.98092681057386 435.2469230423646,425.162001596418 427.2412867207299,427.473029739083 427.2412867207299,473.2919549532388" />
  <polygon fill="hsl(288.0,50.0%,41.06646317363794%)" points="407.22719591664315,433.7042528206382 407.22719591664315,388.338980331375 414.2321276980735,386.3168307065431 414.2321276980735,431.6821031958063" />
  <polygon fill="hsl(288.0,50.0%,41.06646317363794%)" points="436.2476275825689,425.3267758034775 436.2476275825689,379.9615033142143 443.25255936399924,377.9393536893824 443.25255936399924,423.3046261786456" />
  <polygon fill="hsl(288.0,50.0%,41.06646317363794%)" points="414.2321276980735,393.32176248797344 414.2321276980735,386.3168307065431 436.2476275825689,379.9615033142143 436.2476275825689,386.96643509564467" />
  <polygon fill="hsl(288.0,50.0%,41.06646317363794%)" points="415.23283223827787,431.3932246779732 415.23283223827787,386.02795218870995 435.2469230423646,380.2503818320474 435.2469230423646,425.61565432131067" />
  <polygon fill="hsl(288.0,50.0%,41.06646317363794%)" points="420.23635493929953,382.3152959750812 420.23635493929953,361.9009233549127 430.2434003413429,359.0121381765815 430.2434003413429,379.4265107967499" />
  <polygon fill="hsl(288.0,50.0%,41.06646317363794%)" points="422.2377640197082,384.0058025638781 422.2377640197082,361.3231663192465 428.24199126093424,359.5898952122477 428.24199126093424,382.27253145687934" />
</svg>
