<?xml version="1.0" encoding="UTF-8"?>
<svg
  xmlns="http://www.w3.org/2000/svg"
  width="848"
  height="600"
  style="background-color:white"
>
  <polygon fill="lightblue" points="396.06803771922694,531.468891390842 160.53331651563053,327.4898393552422 451.93196228077306,243.37029606824348 687.4666834843695,447.3493481038433" />
  <polygon fill="steelblue" points="160.53331651563053,327.4898393552422 160.53331651563053,152.65065189615672 451.93196228077306,68.53110860915794 451.93196228077306,243.37029606824348" />
  <polygon fill="lightskyblue" points="687.4666834843695,447.3493481038433 687.4666834843695,272.5101606447578 451.93196228077306,68.53110860915794 451.93196228077306,243.37029606824348" />
  <polygon fill="white" points="540.537881209745,320.10527278639773 540.537881209745,209.37378739564355 520.3491908208654,191.88986864973498 520.3491908208654,302.62135404048917" />
  <polygon fill="white" points="619.0494549442772,388.09829013159765 619.0494549442772,277.36680474084346 598.8607645553975,259.8828859949349 598.8607645553975,370.6143713856891" />
  <polygon fill="grey" points="439.61600636165855,132.30880563323495 439.61600636165855,103.16894105672068 468.7558709381728,94.75698672802082 468.7558709381728,123.89685130453509" />
  <polygon fill="lightgrey" points="439.61600636165855,132.30880563323495 439.61600636165855,103.16894105672068 422.7920977042588,88.59900876846353 422.7920977042588,117.73887334497778" />
  <polygon fill="darkgrey" points="439.61600636165855,103.16894105672068 422.7920977042588,88.59900876846353 451.93196228077306,80.18705443976367 468.7558709381728,94.75698672802082" />
  <polygon fill="hsl(288.0,50.0%,50.11143025347155%)" points="477.93518374491885,416.5724072001499 477.93518374491885,376.54588921784995 484.92875124328225,374.52702017896195 484.92875124328225,414.55353816126194" />
  <polygon fill="hsl(288.0,50.0%,50.11143025347155%)" points="495.41910249082736,411.52523460293 495.41910249082736,371.49871662063 488.42553499246395,373.517585659518 488.42553499246395,413.54410364181797" />
  <polygon fill="hsl(288.0,50.0%,50.11143025347155%)" points="470.9416162465554,378.9610604149785 470.9416162465554,339.3308445909191 477.0609878076234,337.56433418189215 477.0609878076234,377.1945500059515" />
  <polygon fill="hsl(288.0,50.0%,50.11143025347155%)" points="496.2932984281228,371.6426601490096 496.2932984281228,332.0124443249502 502.4126699891908,330.2459339159232 502.4126699891908,369.8761497399826" />
  <polygon fill="hsl(288.0,50.0%,50.11143025347155%)" points="477.0609878076234,343.6837057429601 477.0609878076234,337.56433418189215 496.2932984281228,332.0124443249502 496.2932984281228,338.1318158860182" />
  <polygon fill="hsl(288.0,50.0%,50.11143025347155%)" points="477.93518374491885,376.94219137609053 477.93518374491885,337.31197555203113 495.41910249082736,332.2648029548112 495.41910249082736,371.8950187788706" />
  <polygon fill="hsl(288.0,50.0%,50.11143025347155%)" points="482.30616343139593,334.0686716115232 482.30616343139593,316.2350744906965 491.0481228043502,313.7114881920865 491.0481228043502,331.5450853129132" />
  <polygon fill="hsl(288.0,50.0%,50.11143025347155%)" points="484.0545553059868,335.54546514300415 484.0545553059868,315.7303572309745 489.29973092975933,314.2162054518085 489.29973092975933,334.0313133638382" />
</svg>
