<?xml version="1.0" encoding="UTF-8"?>
<svg
  xmlns="http://www.w3.org/2000/svg"
  width="848"
  height="600"
  style="background-color:white"
>
  <polygon fill="lightblue" points="398.62212807069835,536.7787685703245 184.62463195768245,351.45150059019096 449.37787192930165,275.02382340697096 663.3753680423175,460.3510913871044" />
  <polygon fill="steelblue" points="184.62463195768245,351.45150059019096 184.62463195768245,139.64890861289558 449.37787192930165,63.22123142967558 449.37787192930165,275.02382340697096" />
  <polygon fill="lightskyblue" points="663.3753680423175,460.3510913871044 663.3753680423175,248.54849940980904 449.37787192930165,63.22123142967558 449.37787192930165,275.02382340697096" />
  <polygon fill="white" points="529.8816918956267,344.7421765994974 529.8816918956267,238.84088061084967 511.5390493716539,222.9556862125525 511.5390493716539,328.8569822012002" />
  <polygon fill="white" points="601.2141905999653,406.5179325928752 601.2141905999653,300.6166366042275 582.8715480759926,284.73144220593036 582.8715480759926,390.632738194578" />
  <polygon fill="white" points="303.7635899449111,274.69852746228287 303.7635899449111,232.33800906682382 330.238913942073,224.69524134850178 330.238913942073,267.0557597439609" />
  <polygon fill="grey" points="438.18808336878374,121.16711474260526 438.18808336878374,94.69179074544334 464.6634073659456,87.04902302712134 464.6634073659456,113.52434702428326" />
  <polygon fill="lightgrey" points="438.18808336878374,121.16711474260526 438.18808336878374,94.69179074544334 422.9025479321397,81.45412874686238 422.9025479321397,107.92945274402427" />
  <polygon fill="darkgrey" points="438.18808336878374,94.69179074544334 422.9025479321397,81.45412874686238 449.37787192930165,73.81136102854038 464.6634073659456,87.04902302712134" />
  <polygon fill="hsl(324.0,50.0%,50.11143025347155%)" points="473.00336653053864,432.3883848368649 473.00336653053864,396.02187979436326 479.3574442898575,394.187615541966 479.3574442898575,430.5541205844676" />
  <polygon fill="hsl(324.0,50.0%,50.11143025347155%)" points="488.8885609288358,427.8027242058717 488.8885609288358,391.4362191633701 482.53448316951693,393.27048341576733 482.53448316951693,429.636988458269" />
  <polygon fill="hsl(324.0,50.0%,50.11143025347155%)" points="466.64928877121974,398.21620845312196 466.64928877121974,362.20976781698175 472.2091068106238,360.60478659613415 472.2091068106238,396.61122723227436" />
  <polygon fill="hsl(324.0,50.0%,50.11143025347155%)" points="489.68282064875063,391.5670005381818 489.68282064875063,355.56055990204163 495.24263868815467,353.95557868119397 495.24263868815467,389.9620193173342" />
  <polygon fill="hsl(324.0,50.0%,50.11143025347155%)" points="472.2091068106238,366.1646046355381 472.2091068106238,360.60478659613415 489.68282064875063,355.56055990204163 489.68282064875063,361.1203779414456" />
  <polygon fill="hsl(324.0,50.0%,50.11143025347155%)" points="473.00336653053864,396.38194420072466 473.00336653053864,360.3755035645845 488.8885609288358,355.7898429335913 488.8885609288358,391.7962835697315" />
  <polygon fill="hsl(324.0,50.0%,50.11143025347155%)" points="476.9746651301129,357.42876637502917 476.9746651301129,341.2258680887661 484.9172623292615,338.93303777326946 484.9172623292615,355.1359360595326" />
  <polygon fill="hsl(324.0,50.0%,50.11143025347155%)" points="478.5631845699426,358.77052234373684 478.5631845699426,340.76730202566677 483.32874288943174,339.3916038363688 483.32874288943174,357.3948241544389" />
  <polygon fill="hsl(324.0,50.0%,41.06646317363794%)" points="417.0414943361303,493.24396016811835 417.0414943361303,456.87745512561673 423.39557209544915,455.0431908732195 423.39557209544915,491.40969591572104" />
  <polygon fill="hsl(324.0,50.0%,41.06646317363794%)" points="432.92668873442744,488.6582995371251 432.92668873442744,452.29179449462356 426.5726109751086,454.1260587470208 426.5726109751086,490.4925637895224" />
  <polygon fill="hsl(324.0,50.0%,41.06646317363794%)" points="410.6874165768114,459.0717837843754 410.6874165768114,423.06534314823523 416.24723461621545,421.46036192738757 416.24723461621545,457.46680256352784" />
  <polygon fill="hsl(324.0,50.0%,41.06646317363794%)" points="433.7209484543423,452.42257586943526 433.7209484543423,416.41613523329505 439.2807664937463,414.81115401244745 439.2807664937463,450.8175946485876" />
  <polygon fill="hsl(324.0,50.0%,41.06646317363794%)" points="416.24723461621545,427.0201799667916 416.24723461621545,421.46036192738757 433.7209484543423,416.41613523329505 433.7209484543423,421.9759532726991" />
  <polygon fill="hsl(324.0,50.0%,41.06646317363794%)" points="417.0414943361303,457.23751953197814 417.0414943361303,421.2310788958379 432.92668873442744,416.64541826484475 432.92668873442744,452.65185890098496" />
  <polygon fill="hsl(324.0,50.0%,41.06646317363794%)" points="421.01279293570457,418.2843417062826 421.01279293570457,402.0814434200195 428.9553901348532,399.78861310452294 428.9553901348532,415.991511390786" />
  <polygon fill="hsl(324.0,50.0%,41.06646317363794%)" points="422.6013123755343,419.6260976749903 422.6013123755343,401.6228773569202 427.36687069502347,400.2471791676222 427.36687069502347,418.25039948569236" />
</svg>
