<?xml version="1.0" encoding="UTF-8"?>
<svg
  xmlns="http://www.w3.org/2000/svg"
  width="848"
  height="600"
  style="background-color:white"
>
  <polygon fill="lightblue" points="398.62212807069835,536.7787685703245 184.62463195768245,351.45150059019096 449.37787192930165,275.02382340697096 663.3753680423175,460.3510913871044" />
  <polygon fill="steelblue" points="184.62463195768245,351.45150059019096 184.62463195768245,139.64890861289558 449.37787192930165,63.22123142967558 449.37787192930165,275.02382340697096" />
  <polygon fill="lightskyblue" points="663.3753680423175,460.3510913871044 663.3753680423175,248.54849940980904 449.37787192930165,63.22123142967558 449.37787192930165,275.02382340697096" />
  <polygon fill="white" points="224.33761795342534,297.62683061724886 224.33761795342534,255.2663122217898 250.81294195058726,247.6235445034678 250.81294195058726,289.9840628989269" />
  <polygon fill="white" points="277.28826594774915,282.34129518060485 277.28826594774915,239.9807767851458 303.7635899449111,232.33800906682382 303.7635899449111,274.69852746228287" />
  <polygon fill="white" points="330.238913942073,267.0557597439609 330.238913942073,224.69524134850178 356.7142379392349,217.0524736301798 356.7142379392349,259.41299202563886" />
  <polygon fill="white" points="383.18956193639684,251.77022430731688 383.18956193639684,209.40970591185783 409.66488593355876,201.7669381935358 409.66488593355876,244.12745658899487" />
  <polygon fill="grey" points="438.18808336878374,121.16711474260526 438.18808336878374,94.69179074544334 464.6634073659456,87.04902302712134 464.6634073659456,113.52434702428326" />
  <polygon fill="lightgrey" points="438.18808336878374,121.16711474260526 438.18808336878374,94.69179074544334 422.9025479321397,81.45412874686238 422.9025479321397,107.92945274402427" />
  <polygon fill="darkgrey" points="438.18808336878374,94.69179074544334 422.9025479321397,81.45412874686238 449.37787192930165,73.81136102854038 464.6634073659456,87.04902302712134" />
  <polygon fill="hsl(324.0,50.0%,50.11143025347155%)" points="473.00336653053864,432.3883848368649 473.00336653053864,396.02187979436326 479.3574442898575,394.187615541966 479.3574442898575,430.5541205844676" />
  <polygon fill="hsl(324.0,50.0%,50.11143025347155%)" points="488.8885609288358,427.8027242058717 488.8885609288358,391.4362191633701 482.53448316951693,393.27048341576733 482.53448316951693,429.636988458269" />
  <polygon fill="hsl(324.0,50.0%,50.11143025347155%)" points="466.64928877121974,398.21620845312196 466.64928877121974,362.20976781698175 472.2091068106238,360.60478659613415 472.2091068106238,396.61122723227436" />
  <polygon fill="hsl(324.0,50.0%,50.11143025347155%)" points="489.68282064875063,391.5670005381818 489.68282064875063,355.56055990204163 495.24263868815467,353.95557868119397 495.24263868815467,389.9620193173342" />
  <polygon fill="hsl(324.0,50.0%,50.11143025347155%)" points="472.2091068106238,366.1646046355381 472.2091068106238,360.60478659613415 489.68282064875063,355.56055990204163 489.68282064875063,361.1203779414456" />
  <polygon fill="hsl(324.0,50.0%,50.11143025347155%)" points="473.00336653053864,396.38194420072466 473.00336653053864,360.3755035645845 488.8885609288358,355.7898429335913 488.8885609288358,391.7962835697315" />
  <polygon fill="hsl(324.0,50.0%,50.11143025347155%)" points="476.9746651301129,357.42876637502917 476.9746651301129,341.2258680887661 484.9172623292615,338.93303777326946 484.9172623292615,355.1359360595326" />
  <polygon fill="hsl(324.0,50.0%,50.11143025347155%)" points="478.5631845699426,358.77052234373684 478.5631845699426,340.76730202566677 483.32874288943174,339.3916038363688 483.32874288943174,357.3948241544389" />
</svg>
