<?xml version="1.0" encoding="UTF-8"?>
<svg
  xmlns="http://www.w3.org/2000/svg"
  width="848"
  height="600"
  style="background-color:white"
>
  <polygon fill="lightblue" points="310.8289069102114,491.76870629691 218.97304155584223,412.21919341342345 537.1710930897887,320.3633280590542 629.0269584441578,399.9128409425408" />
  <polygon fill="steelblue" points="218.97304155584223,412.21919341342345 218.97304155584223,200.0871590574592 537.1710930897887,108.23129370308999 537.1710930897887,320.3633280590542" />
  <polygon fill="lightskyblue" points="629.0269584441578,399.9128409425408 629.0269584441578,187.78080658657657 537.1710930897887,108.23129370308999 537.1710930897887,320.3633280590542" />
  <polygon fill="white" points="592.2846123024101,368.09303578914614 592.2846123024101,262.02701861116407 573.9134392315362,246.11711603446673 573.9134392315362,352.18313321244887" />
  <polygon fill="white" points="269.35439971538375,355.2489411944554 269.35439971538375,312.8225343232626 295.87090400987927,305.16787887706516 295.87090400987927,347.594285748258" />
  <polygon fill="white" points="332.99401002217303,336.87776812358163 332.99401002217303,294.4513612523888 359.51051431666855,286.7967058061913 359.51051431666855,329.22311267738417" />
  <polygon fill="white" points="396.63362032896225,318.5065950527078 396.63362032896225,276.0801881815149 423.15012462345777,268.42553273531746 423.1501246234578,310.8519396065103" />
  <polygon fill="white" points="460.27323063575153,300.13542198183393 460.27323063575153,257.7090151106411 486.78973493024705,250.05435966444364 486.78973493024705,292.4807665356365" />
</svg>
