<?xml version="1.0" encoding="UTF-8"?>
<svg
  xmlns="http://www.w3.org/2000/svg"
  width="848"
  height="600"
  style="background-color:white"
>
  <polygon fill="lightblue" points="239.1923788646684,699.7595264191646 89.1923788646684,569.8557158514988 608.8076211353316,419.85571585149864 758.8076211353316,549.7595264191644" />
  <polygon fill="steelblue" points="89.1923788646684,569.8557158514988 89.1923788646684,50.240473580835555 608.8076211353316,-99.75952641916456 608.8076211353316,419.85571585149864" />
  <polygon fill="lightskyblue" points="758.8076211353316,549.7595264191644 758.8076211353316,30.144284148501242 608.8076211353316,-99.75952641916456 608.8076211353316,419.85571585149864" />
  <polygon fill="white" points="698.8076211353316,497.7980021920981 698.8076211353316,324.5929214352104 668.8076211353316,298.61215932167727 668.8076211353316,471.81724007856496" />
  <polygon fill="white" points="171.46479222419015,476.82368354874365 171.46479222419012,407.54165124598853 214.76606241341204,395.04165124598853 214.76606241341204,464.32368354874365" />
  <polygon fill="white" points="275.38784067832273,446.8236835487436 275.38784067832273,377.54165124598853 318.6891108675446,365.04165124598853 318.6891108675446,434.3236835487436" />
  <polygon fill="white" points="379.3108891324553,416.8236835487436 379.3108891324553,347.54165124598853 422.61215932167727,335.0416512459885 422.61215932167727,404.3236835487436" />
  <polygon fill="white" points="483.233937586588,386.8236835487436 483.23393758658796,317.5416512459885 526.5352077758099,305.0416512459885 526.5352077758099,374.3236835487436" />
</svg>
