<?xml version="1.0" encoding="UTF-8"?>
<svg
  xmlns="http://www.w3.org/2000/svg"
  width="848"
  height="600"
  style="background-color:white"
>
  <polygon fill="lightblue" points="290.7306439140168,525.8252642779962 182.56192614096122,432.14840679174074 557.2693560859832,323.97968901868506 665.4380738590388,417.65654650494054" />
  <polygon fill="steelblue" points="182.56192614096122,432.14840679174074 182.56192614096122,182.34345349505946 557.2693560859832,74.17473572200379 557.2693560859832,323.97968901868506" />
  <polygon fill="lightskyblue" points="665.4380738590388,417.65654650494054 665.4380738590388,167.85159320825926 557.2693560859832,74.17473572200379 557.2693560859832,323.97968901868506" />
  <polygon fill="white" points="622.1705867498165,380.18580351043835 622.1705867498165,255.2833268620977 600.5368431952054,236.54795536484662 600.5368431952054,361.45043201318725" />
  <polygon fill="white" points="229.40035488408898,368.6663264107725 229.40035488408898,318.7053357514362 260.6259740461742,309.69127593701495 260.6259740461742,359.6522665963512" />
  <polygon fill="white" points="291.85159320825926,350.6382067819299 291.85159320825926,300.6772161225936 323.07721237034445,291.66315630817235 323.07721237034445,341.6241469675086" />
  <polygon fill="white" points="354.30283153242965,332.6100871530873 354.30283153242965,282.649096493751 385.5284506945148,273.63503667932974 385.5284506945148,323.596027338666" />
  <polygon fill="white" points="416.7540698565999,314.58196752424465 416.7540698565999,264.6209768649084 447.97968901868506,255.6069170504871 447.97968901868506,305.5679077098234" />
  <polygon fill="white" points="479.20530818077026,296.55384789540204 479.20530818077026,246.5928572360658 510.4309273428554,237.5787974216445 510.4309273428554,287.53978808098077" />
</svg>
