<?xml version="1.0" encoding="UTF-8"?>
<svg
  xmlns="http://www.w3.org/2000/svg"
  width="848"
  height="600"
  style="background-color:white"
>
  <polygon fill="lightblue" points="293.32127788025275,490.81680662054487 187.25526070227062,398.96094126617567 554.6787221197472,292.8949240881935 660.7447392977294,384.7507894425627" />
  <polygon fill="steelblue" points="187.25526070227062,398.96094126617567 187.25526070227062,215.24921055743732 554.6787221197472,109.18319337945516 554.6787221197472,292.8949240881935" />
  <polygon fill="lightskyblue" points="660.7447392977294,384.7507894425627 660.7447392977294,201.03905873382433 554.6787221197472,109.18319337945516 554.6787221197472,292.8949240881935" />
  <polygon fill="white" points="618.3183324265365,348.00844330081503 618.3183324265365,225.53395616165614 597.1051289909401,207.16278309078228 597.1051289909401,329.6372702299412" />
  <polygon fill="white" points="245.43064209337112,333.17736035733157 245.43064209337112,284.187565501668 276.0492638781608,275.3487307368362 276.0492638781608,324.33852559249976" />
  <polygon fill="white" points="318.91533437686644,311.96415692173514 318.91533437686644,262.9743620660716 349.53395616165614,254.13552730123976 349.53395616165614,303.12532215690334" />
  <polygon fill="white" points="392.40002666036173,290.7509534861387 392.40002666036173,241.7611586304752 423.0186484451514,232.92232386564334 423.0186484451514,281.9121187213069" />
  <polygon fill="white" points="465.8847189438571,269.5377500505423 465.8847189438571,220.54795519487874 496.5033407286468,211.7091204300469 496.5033407286468,260.6989152857104" />
</svg>
