<?xml version="1.0" encoding="UTF-8"?>
<svg
  xmlns="http://www.w3.org/2000/svg"
  width="848"
  height="600"
  style="background-color:white"
>
  <polygon fill="lightblue" points="300.28368898570704,538.6249020491564 199.86874647338163,451.6630109139285 547.716311014293,351.248068401603 648.1312535266184,438.20995953683087" />
  <polygon fill="steelblue" points="199.86874647338163,451.6630109139285 199.86874647338163,161.79004046316913 547.716311014293,61.37509795084367 547.716311014293,351.248068401603" />
  <polygon fill="lightskyblue" points="648.1312535266184,438.20995953683087 648.1312535266184,148.3369890860715 547.716311014293,61.37509795084367 547.716311014293,351.248068401603" />
  <polygon fill="white" points="591.229452769634,388.9315545602018 591.229452769634,272.982366379898 571.1464642671689,255.58998815285247 571.1464642671689,371.5391763331562" />
  <polygon fill="white" points="624.7011002737424,417.9188516052777 624.7011002737424,301.969663424974 604.6181117712773,284.5772851979284 604.6181117712773,400.52647337823214" />
  <polygon fill="grey" points="535.4648377212712,124.81887421251508 535.4648377212712,95.83157716743915 564.4521347663472,87.46366529141201 564.4521347663472,116.45096233648798" />
  <polygon fill="lightgrey" points="535.4648377212712,124.81887421251508 535.4648377212712,95.83157716743915 518.729013969217,81.33792864490118 518.729013969217,110.32522568997712" />
  <polygon fill="darkgrey" points="535.4648377212712,95.83157716743915 518.729013969217,81.33792864490118 547.716311014293,72.97001676887405 564.4521347663472,87.46366529141201" />
  <polygon fill="hsl(360.0,50.0%,57.04478701996097%)" points="371.44510957739624,463.0958932711054 371.44510957739624,423.27894204998915 378.40206086821445,421.2706431997426 378.40206086821445,461.087594420859" />
  <polygon fill="hsl(360.0,50.0%,57.04478701996097%)" points="388.83748780444176,458.07514614548916 388.83748780444176,418.2581949243729 381.88053651362355,420.2664937746194 381.88053651362355,460.0834449957357" />
  <polygon fill="hsl(360.0,50.0%,57.04478701996097%)" points="364.48815828657797,425.6814681400487 364.48815828657797,386.2587441587454 370.57549066604395,384.5014826647797 370.57549066604395,423.924206646083" />
  <polygon fill="hsl(360.0,50.0%,57.04478701996097%)" points="389.70710671579405,418.40138480790506 389.70710671579405,378.9786608266018 395.79443909526,377.2213993326361 395.79443909526003,416.6441233139394" />
  <polygon fill="hsl(360.0,50.0%,57.04478701996097%)" points="370.57549066604395,390.5888150442457 370.57549066604395,384.5014826647797 389.70710671579405,378.9786608266018 389.70710671579405,385.0659932060678" />
  <polygon fill="hsl(360.0,50.0%,57.04478701996097%)" points="371.44510957739624,423.67316928980216 371.44510957739624,384.2504453084989 388.83748780444176,379.22969818288266 388.83748780444176,418.6524221641859" />
  <polygon fill="hsl(360.0,50.0%,57.04478701996097%)" points="375.7932041341576,381.02412232802965 375.7932041341576,363.2838965364432 384.48939324768037,360.77352297363507 384.4893932476804,378.5137487652215" />
  <polygon fill="hsl(360.0,50.0%,57.04478701996097%)" points="377.53244195686216,382.4931838145332 377.53244195686216,362.78182182388156 382.75015542497584,361.2755976861967 382.75015542497584,380.9869596768483" />
  <polygon fill="hsl(360.0,50.0%,54.496445229397835%)" points="454.77062176758983,444.9514530608543 454.77062176758983,405.134501839738 461.7275730584081,403.1262029894915 461.7275730584081,442.9431542106078" />
  <polygon fill="hsl(360.0,50.0%,54.496445229397835%)" points="472.1629999946354,439.93070593523805 472.1629999946354,400.11375471412174 465.20604870381715,402.12205356436823 465.20604870381715,441.9390047854846" />
  <polygon fill="hsl(360.0,50.0%,54.496445229397835%)" points="447.8136704767716,407.53702792979755 447.8136704767716,368.1143039484943 453.90100285623754,366.3570424545286 453.90100285623754,405.77976643583185" />
  <polygon fill="hsl(360.0,50.0%,54.496445229397835%)" points="473.0326189059877,400.25694459765396 473.0326189059877,360.83422061635065 479.1199512854536,359.076959122385 479.1199512854536,398.49968310368826" />
  <polygon fill="hsl(360.0,50.0%,54.496445229397835%)" points="453.90100285623754,372.4443748339945 453.90100285623754,366.3570424545286 473.0326189059877,360.83422061635065 473.0326189059877,366.9215529958166" />
  <polygon fill="hsl(360.0,50.0%,54.496445229397835%)" points="454.77062176758983,405.528729079551 454.77062176758983,366.1060050982478 472.1629999946354,361.0852579726315 472.1629999946354,400.50798195393475" />
  <polygon fill="hsl(360.0,50.0%,54.496445229397835%)" points="459.1187163243512,362.87968211777854 459.1187163243512,345.1394563261921 467.814905437874,342.62908276338396 467.814905437874,360.3693085549704" />
  <polygon fill="hsl(360.0,50.0%,54.496445229397835%)" points="460.8579541470558,364.34874360428205 460.8579541470558,344.63738161363045 466.07566761516944,343.13115747594554 466.07566761516944,362.8425194665972" />
  <polygon fill="hsl(360.0,50.0%,50.27546059214215%)" points="325.0389329423165,492.19016063392917 325.0389329423164,452.3732094128128 331.9958842331347,450.36491056256637 331.9958842331347,490.1818617836826" />
  <polygon fill="hsl(360.0,50.0%,50.27546059214215%)" points="342.431311169362,487.16941350831286 342.431311169362,447.35246228719654 335.47435987854374,449.3607611374431 335.4743598785438,489.17771235855935" />
  <polygon fill="hsl(360.0,50.0%,50.27546059214215%)" points="318.0819816514982,454.7757355028724 318.0819816514982,415.3530115215691 324.16931403096413,413.5957500276034 324.16931403096413,453.01847400890665" />
  <polygon fill="hsl(360.0,50.0%,50.27546059214215%)" points="343.30093008071424,447.49565217072876 343.30093008071424,408.0729281894255 349.3882624601802,406.3156666954598 349.3882624601802,445.73839067676306" />
  <polygon fill="hsl(360.0,50.0%,50.27546059214215%)" points="324.16931403096413,419.6830824070693 324.16931403096413,413.5957500276034 343.30093008071424,408.0729281894255 343.30093008071424,414.16026056889143" />
  <polygon fill="hsl(360.0,50.0%,50.27546059214215%)" points="325.0389329423164,452.76743665262586 325.0389329423164,413.34471267132255 342.431311169362,408.3239655457063 342.431311169362,447.7466895270096" />
  <polygon fill="hsl(360.0,50.0%,50.27546059214215%)" points="329.3870274990778,410.11838969085335 329.3870274990778,392.3781638992669 338.0832166126006,389.86779033645877 338.0832166126006,407.6080161280452" />
  <polygon fill="hsl(360.0,50.0%,50.27546059214215%)" points="331.1262653217824,411.5874511773569 331.1262653217824,391.87608918670526 336.343978789896,390.3698650490204 336.343978789896,410.081227039672" />
</svg>
