<?xml version="1.0" encoding="UTF-8"?>
<svg
  xmlns="http://www.w3.org/2000/svg"
  width="848"
  height="600"
  style="background-color:white"
>
  <polygon fill="lightblue" points="239.1923788646684,569.8557158514988 89.1923788646684,439.95190528383296 608.8076211353316,289.95190528383284 758.8076211353316,419.85571585149864" />
  <polygon fill="steelblue" points="89.1923788646684,439.95190528383296 89.1923788646684,180.14428414850136 608.8076211353316,30.144284148501242 608.8076211353316,289.95190528383284" />
  <polygon fill="lightskyblue" points="758.8076211353316,419.85571585149864 758.8076211353316,160.04809471616704 608.8076211353316,30.144284148501242 608.8076211353316,289.95190528383284" />
  <polygon fill="white" points="698.8076211353316,367.8941916244323 698.8076211353316,194.68911086754463 668.8076211353316,168.70834875401147 668.8076211353316,341.91342951089916" />
  <polygon fill="white" points="171.46479222419012,346.9198729810778 171.46479222419012,277.63784067832273 214.76606241341204,265.13784067832273 214.76606241341204,334.4198729810778" />
  <polygon fill="white" points="275.38784067832273,316.9198729810778 275.38784067832273,247.63784067832273 318.6891108675446,235.1378406783227 318.6891108675446,304.4198729810778" />
  <polygon fill="white" points="379.3108891324553,286.9198729810778 379.3108891324553,217.63784067832273 422.61215932167727,205.1378406783227 422.61215932167727,274.4198729810778" />
  <polygon fill="white" points="483.23393758658796,256.9198729810778 483.23393758658796,187.6378406783227 526.5352077758099,175.1378406783227 526.5352077758099,244.4198729810778" />
</svg>
