<?xml version="1.0" encoding="UTF-8"?>
<svg
  xmlns="http://www.w3.org/2000/svg"
  width="848"
  height="600"
  style="background-color:white"
>
  <polygon fill="lightblue" points="239.1923788646684,699.7595264191646 89.1923788646684,569.8557158514988 608.8076211353316,419.85571585149864 758.8076211353316,549.7595264191644" />
  <polygon fill="steelblue" points="89.1923788646684,569.8557158514988 89.1923788646684,50.240473580835555 608.8076211353316,-99.75952641916456 608.8076211353316,419.85571585149864" />
  <polygon fill="lightskyblue" points="758.8076211353316,549.7595264191644 758.8076211353316,30.144284148501242 608.8076211353316,-99.75952641916456 608.8076211353316,419.85571585149864" />
  <polygon fill="white" points="698.8076211353316,497.7980021920981 698.8076211353316,324.5929214352104 668.8076211353316,298.61215932167727 668.8076211353316,471.81724007856496" />
  <polygon fill="white" points="141.77249266586648,485.3951121201722 141.77249266586648,416.1130798174171 185.0737628550884,403.6130798174171 185.07376285508846,472.8951121201722" />
  <polygon fill="white" points="216.0032415616755,463.96654069160076 216.0032415616755,394.68450838884564 259.3045117508974,382.18450838884564 259.3045117508974,451.46654069160076" />
  <polygon fill="white" points="290.23399045748454,442.53796926302937 290.23399045748454,373.2559369602742 333.53526064670643,360.7559369602742 333.53526064670643,430.03796926302937" />
  <polygon fill="white" points="364.46473935329357,421.1093978344579 364.4647393532935,351.82736553170275 407.76600954251546,339.32736553170275 407.76600954251546,408.6093978344579" />
  <polygon fill="white" points="438.6954882491026,399.6808264058865 438.6954882491026,330.39879410313137 481.9967584383245,317.8987941031313 481.9967584383245,387.1808264058865" />
  <polygon fill="white" points="512.9262371449115,378.25225497731503 512.9262371449115,308.9702226745599 556.2275073341334,296.4702226745599 556.2275073341334,365.75225497731503" />
</svg>
