<?xml version="1.0" encoding="UTF-8"?>
<svg
  xmlns="http://www.w3.org/2000/svg"
  width="848"
  height="600"
  style="background-color:white"
>
  <polygon fill="lightblue" points="300.28368898570704,538.6249020491564 199.86874647338163,451.6630109139285 547.716311014293,351.248068401603 648.1312535266184,438.20995953683087" />
  <polygon fill="steelblue" points="199.86874647338163,451.6630109139285 199.86874647338163,161.79004046316913 547.716311014293,61.37509795084367 547.716311014293,351.248068401603" />
  <polygon fill="lightskyblue" points="648.1312535266184,438.20995953683087 648.1312535266184,148.3369890860715 547.716311014293,61.37509795084367 547.716311014293,351.248068401603" />
  <polygon fill="white" points="591.229452769634,388.9315545602018 591.229452769634,272.982366379898 571.1464642671689,255.58998815285247 571.1464642671689,371.5391763331562" />
  <polygon fill="white" points="624.7011002737424,417.9188516052777 624.7011002737424,301.969663424974 604.6181117712773,284.5772851979284 604.6181117712773,400.52647337823214" />
  <polygon fill="white" points="359.2988802212993,359.25982032365783 359.2988802212993,312.8801450515363 388.28617726637526,304.5122331755092 388.28617726637526,350.8919084476307" />
  <polygon fill="hsl(324.0,50.0%,54.496445229397835%)" points="454.77062176758983,444.9514530608543 454.77062176758983,405.134501839738 461.7275730584081,403.1262029894915 461.7275730584081,442.9431542106078" />
  <polygon fill="hsl(324.0,50.0%,54.496445229397835%)" points="472.1629999946354,439.93070593523805 472.1629999946354,400.11375471412174 465.20604870381715,402.12205356436823 465.20604870381715,441.9390047854846" />
  <polygon fill="hsl(324.0,50.0%,54.496445229397835%)" points="447.8136704767716,407.53702792979755 447.8136704767716,368.1143039484943 453.90100285623754,366.3570424545286 453.90100285623754,405.77976643583185" />
  <polygon fill="hsl(324.0,50.0%,54.496445229397835%)" points="473.0326189059877,400.25694459765396 473.0326189059877,360.83422061635065 479.1199512854536,359.076959122385 479.1199512854536,398.49968310368826" />
  <polygon fill="hsl(324.0,50.0%,54.496445229397835%)" points="453.90100285623754,372.4443748339945 453.90100285623754,366.3570424545286 473.0326189059877,360.83422061635065 473.0326189059877,366.9215529958166" />
  <polygon fill="hsl(324.0,50.0%,54.496445229397835%)" points="454.77062176758983,405.528729079551 454.77062176758983,366.1060050982478 472.1629999946354,361.0852579726315 472.1629999946354,400.50798195393475" />
  <polygon fill="hsl(324.0,50.0%,54.496445229397835%)" points="459.1187163243512,362.87968211777854 459.1187163243512,345.1394563261921 467.814905437874,342.62908276338396 467.814905437874,360.3693085549704" />
  <polygon fill="hsl(324.0,50.0%,54.496445229397835%)" points="460.8579541470558,364.34874360428205 460.8579541470558,344.63738161363045 466.07566761516944,343.13115747594554 466.07566761516944,362.8425194665972" />
</svg>
