<?xml version="1.0" encoding="UTF-8"?>
<svg
  xmlns="http://www.w3.org/2000/svg"
  width="848"
  height="600"
  style="background-color:white"
>
  <polygon fill="lightblue" points="307.5784939752995,551.8327211157555 213.08441523318405,469.99844841787643 540.4215060247004,375.50436967576087 634.915584766816,457.33864237364" />
  <polygon fill="steelblue" points="213.08441523318405,469.99844841787643 213.08441523318405,142.66135762636 540.4215060247004,48.16727888424447 540.4215060247004,375.50436967576087" />
  <polygon fill="lightskyblue" points="634.915584766816,457.33864237364 634.915584766816,130.00155158212357 540.4215060247004,48.16727888424447 540.4215060247004,375.50436967576087" />
  <polygon fill="white" points="597.1179532699698,424.6049332944883 597.1179532699698,315.4925696973162 578.2191375215467,299.1257151577404 578.2191375215467,408.2380787549125" />
  <polygon fill="white" points="246.20781132518275,416.79160215391255 246.20781132518275,373.14665671504366 273.4859022244758,365.2721501532007 273.4859022244758,408.9170955920696" />
  <polygon fill="white" points="292.970252866828,403.292448047896 292.970252866828,359.6475026090272 320.24834376612097,351.7729960471842 320.24834376612097,395.41794148605305" />
  <polygon fill="white" points="339.7326944084731,389.79329394187954 339.7326944084731,346.14834850301065 367.0107853077662,338.2738419411677 367.0107853077662,381.9187873800366" />
  <polygon fill="white" points="386.4951359501183,376.294139835863 386.4951359501183,332.6491943969942 413.77322684941134,324.7746878351512 413.77322684941134,368.41963327402004" />
  <polygon fill="white" points="433.2575774917635,362.79498572984653 433.2575774917635,319.15004029097764 460.53566839105656,311.2755337291347 460.53566839105656,354.92047916800357" />
  <polygon fill="white" points="480.02001903340874,349.29583162383005 480.02001903340874,305.65088618496117 507.2981099327017,297.7763796231182 507.2981099327017,341.4213250619871" />
  <polygon fill="antiquewhite" points="484.377655029686,465.3530748041719 484.377655029686,372.6075657465756 506.2001277491205,366.30796049710125 506.2001277491205,459.0534695546976" />
  <polygon fill="beige" points="484.377655029686,465.3530748041719 484.377655029686,372.6075657465756 471.7784445307373,361.6963293868584 471.7784445307373,454.4418384444547" />
  <polygon fill="bisque" points="484.377655029686,372.6075657465756 471.7784445307373,361.6963293868584 493.60091725017173,355.396724137384 506.2001277491205,366.30796049710125" />
</svg>
