<?xml version="1.0" encoding="UTF-8"?>
<svg
  xmlns="http://www.w3.org/2000/svg"
  width="848"
  height="600"
  style="background-color:white"
>
  <polygon fill="lightblue" points="290.7306439140168,525.8252642779962 182.56192614096122,432.14840679174074 557.2693560859832,323.97968901868506 665.4380738590388,417.65654650494054" />
  <polygon fill="steelblue" points="182.56192614096122,432.14840679174074 182.56192614096122,182.34345349505946 557.2693560859832,74.17473572200379 557.2693560859832,323.97968901868506" />
  <polygon fill="lightskyblue" points="665.4380738590388,417.65654650494054 665.4380738590388,167.85159320825926 557.2693560859832,74.17473572200379 557.2693560859832,323.97968901868506" />
  <polygon fill="white" points="622.1705867498165,380.18580351043835 622.1705867498165,255.2833268620977 600.5368431952054,236.54795536484662 600.5368431952054,361.45043201318725" />
  <polygon fill="white" points="260.6259740461742,359.6522665963512 260.6259740461742,309.69127593701495 291.85159320825926,300.6772161225936 291.85159320825926,350.6382067819299" />
  <polygon fill="white" points="354.30283153242965,332.6100871530873 354.30283153242965,282.649096493751 385.5284506945148,273.63503667932974 385.5284506945148,323.596027338666" />
  <polygon fill="white" points="447.97968901868506,305.5679077098234 447.97968901868506,255.6069170504871 479.20530818077026,246.5928572360658 479.20530818077026,296.55384789540204" />
  <polygon fill="hsl(360.0,50.0%,66.3472556462705%)" points="521.5007050213783,376.73727261214003 521.5007050213783,333.8457621310999 528.9948536202787,331.68238777563874 528.9948536202787,374.57389825667894" />
  <polygon fill="hsl(360.0,50.0%,66.3472556462705%)" points="540.2360765186295,371.32883672348726 540.2360765186295,328.4373262424471 532.741927919729,330.6007005979082 532.741927919729,373.4922110789484" />
  <polygon fill="hsl(360.0,50.0%,66.3472556462705%)" points="514.0065564224778,336.4338049071654 514.0065564224778,293.96696284672953 520.5639364465158,292.0740102857011 520.5639364465158,334.5408523461369" />
  <polygon fill="hsl(360.0,50.0%,66.3472556462705%)" points="541.172845093492,328.5915728686188 541.172845093492,286.124730808183 547.7302251175299,284.2317782471545 547.7302251175299,326.6986203075903" />
  <polygon fill="hsl(360.0,50.0%,66.3472556462705%)" points="520.5639364465158,298.63139030973895 520.5639364465158,292.0740102857011 541.172845093492,286.124730808183 541.172845093492,292.68211083222087" />
  <polygon fill="hsl(360.0,50.0%,66.3472556462705%)" points="521.5007050213783,334.27043055170424 521.5007050213783,291.80358849126844 540.2360765186295,286.39515260261567 540.2360765186295,328.86199466305146" />
  <polygon fill="hsl(360.0,50.0%,66.3472556462705%)" points="526.1845478956911,288.32813741608345 526.1845478956911,269.2180584888873 535.5522336443166,266.51384054456094 535.5522336443166,285.62391947175706" />
  <polygon fill="hsl(360.0,50.0%,66.3472556462705%)" points="528.0580850454162,289.91063593023995 528.0580850454162,268.6772149000221 533.6786964945916,267.05468413342624 533.6786964945916,288.2881051636441" />
  <polygon fill="hsl(360.0,50.0%,57.04478701996097%)" points="367.386960471359,444.4641059704185 367.386960471359,401.5725954893783 374.88110907025947,399.4092211339172 374.88110907025947,442.3007316149574" />
  <polygon fill="hsl(360.0,50.0%,57.04478701996097%)" points="386.12233196861007,439.0556700817657 386.12233196861007,396.1641596007255 378.62818336970963,398.32753395618664 378.62818336970963,441.2190444372268" />
  <polygon fill="hsl(360.0,50.0%,57.04478701996097%)" points="359.89281187245854,404.16063826544377 359.89281187245854,361.69379620500797 366.45019189649645,359.8008436439795 366.45019189649645,402.26768570441527" />
  <polygon fill="hsl(360.0,50.0%,57.04478701996097%)" points="387.05910054347265,396.3184062268972 387.05910054347265,353.8515641664614 393.6164805675105,351.95861160543296 393.6164805675105,394.42545366586876" />
  <polygon fill="hsl(360.0,50.0%,57.04478701996097%)" points="366.45019189649645,366.35822366801733 366.45019189649645,359.8008436439795 387.05910054347265,353.8515641664614 387.05910054347265,360.4089441904993" />
  <polygon fill="hsl(360.0,50.0%,57.04478701996097%)" points="367.386960471359,401.9972639099826 367.386960471359,359.5304218495468 386.12233196861007,354.12198596089405 386.12233196861007,396.58882802132985" />
  <polygon fill="hsl(360.0,50.0%,57.04478701996097%)" points="372.0708033456718,356.05497077436183 372.0708033456718,336.94489184716576 381.4384890942973,334.2406739028394 381.4384890942973,353.35075283003545" />
  <polygon fill="hsl(360.0,50.0%,57.04478701996097%)" points="373.9443404953969,357.6374692885184 373.9443404953969,336.40404825830046 379.5649519445722,334.7815174917046 379.5649519445722,356.01493852192255" />
  <polygon fill="hsl(360.0,50.0%,54.496445229397835%)" points="457.1466474849729,424.91860026033123 457.1466474849729,382.02708977929103 464.64079608387334,379.86371542382994 464.64079608387334,422.75522590487014" />
  <polygon fill="hsl(360.0,50.0%,54.496445229397835%)" points="475.88201898222394,419.51016437167846 475.88201898222394,376.61865389063826 468.3878703833235,378.7820282460994 468.3878703833235,421.67353872713954" />
  <polygon fill="hsl(360.0,50.0%,54.496445229397835%)" points="449.6524988860724,384.6151325553565 449.6524988860724,342.14829049492073 456.2098789101103,340.25533793389224 456.2098789101103,382.72217999432803" />
  <polygon fill="hsl(360.0,50.0%,54.496445229397835%)" points="476.8187875570865,376.77290051681 476.8187875570865,334.3060584563742 483.3761675811244,332.4131058953457 483.37616758112443,374.8799479557815" />
  <polygon fill="hsl(360.0,50.0%,54.496445229397835%)" points="456.2098789101103,346.81271795793015 456.2098789101103,340.25533793389224 476.8187875570865,334.3060584563742 476.8187875570865,340.86343848041207" />
  <polygon fill="hsl(360.0,50.0%,54.496445229397835%)" points="457.1466474849729,382.4517581998954 457.1466474849729,339.98491613945964 475.88201898222394,334.5764802508068 475.88201898222394,377.0433223112426" />
  <polygon fill="hsl(360.0,50.0%,54.496445229397835%)" points="461.83049035928565,336.50946506427465 461.83049035928565,317.3993861370785 471.1981761079112,314.69516819275213 471.1981761079112,333.80524711994826" />
  <polygon fill="hsl(360.0,50.0%,54.496445229397835%)" points="463.70402750901076,338.09196357843115 463.70402750901076,316.8585425482132 469.3246389581861,315.23601178161744 469.3246389581861,336.4694328118353" />
  <polygon fill="hsl(360.0,50.0%,52.725723603274666%)" points="425.90726546635335,438.3599834003662 425.90726546635335,395.4684729193261 433.4014140652538,393.30509856386493 433.4014140652538,436.19660904490513" />
  <polygon fill="hsl(360.0,50.0%,52.725723603274666%)" points="444.64263696360445,432.95154751171344 444.64263696360445,390.0600370306733 437.148488364704,392.2234113861344 437.148488364704,435.1149218671746" />
  <polygon fill="hsl(360.0,50.0%,52.725723603274666%)" points="418.4131168674529,398.0565156953915 418.4131168674529,355.5896736349557 424.97049689149077,353.6967210739272 424.97049689149077,396.1635631343631" />
  <polygon fill="hsl(360.0,50.0%,52.725723603274666%)" points="445.579405538467,390.214283656845 445.579405538467,347.7474415964092 452.1367855625049,345.8544890353807 452.1367855625049,388.3213310958165" />
  <polygon fill="hsl(360.0,50.0%,52.725723603274666%)" points="424.97049689149077,360.25410109796513 424.97049689149077,353.6967210739272 445.579405538467,347.7474415964092 445.579405538467,354.30482162044706" />
  <polygon fill="hsl(360.0,50.0%,52.725723603274666%)" points="425.90726546635335,395.8931413399304 425.90726546635335,353.42629927949463 444.64263696360445,348.01786339084185 444.64263696360445,390.48470545127765" />
  <polygon fill="hsl(360.0,50.0%,52.725723603274666%)" points="430.5911083406661,349.95084820430964 430.5911083406661,330.8407692771135 439.95879408929164,328.1365513327871 439.95879408929164,347.24663025998325" />
  <polygon fill="hsl(360.0,50.0%,52.725723603274666%)" points="432.4646454903912,351.53334671846613 432.4646454903912,330.2999256882482 438.08525693956653,328.6773949216524 438.08525693956653,349.9108159518703" />
  <polygon fill="hsl(360.0,50.0%,50.27546059214215%)" points="317.39742208417755,475.8049554141834 317.39742208417755,432.9134449331432 324.891570683078,430.7500705776821 324.891570683078,473.6415810587223" />
  <polygon fill="hsl(360.0,50.0%,50.27546059214215%)" points="336.13279358142864,470.3965195255306 336.13279358142864,427.5050090444904 328.63864498252815,429.6683833999515 328.63864498252815,472.5598938809917" />
  <polygon fill="hsl(360.0,50.0%,50.27546059214215%)" points="309.9032734852771,435.5014877092086 309.9032734852771,393.0346456487728 316.46065350931497,391.1416930877444 316.46065350931497,433.6085351481802" />
  <polygon fill="hsl(360.0,50.0%,50.27546059214215%)" points="337.06956215629117,427.6592556706621 337.06956215629117,385.1924136102263 343.626942180329,383.2994610491978 343.626942180329,425.76630310963367" />
  <polygon fill="hsl(360.0,50.0%,50.27546059214215%)" points="316.46065350931497,397.69907311178224 316.46065350931497,391.1416930877444 337.06956215629117,385.1924136102263 337.06956215629117,391.74979363426417" />
  <polygon fill="hsl(360.0,50.0%,50.27546059214215%)" points="317.39742208417755,433.33811335374753 317.39742208417755,390.87127129331174 336.13279358142864,385.46283540465896 336.13279358142864,427.92967746509476" />
  <polygon fill="hsl(360.0,50.0%,50.27546059214215%)" points="322.0812649584903,387.39582021812674 322.0812649584903,368.2857412909307 331.44895070711584,365.58152334660423 331.44895070711584,384.69160227380036" />
  <polygon fill="hsl(360.0,50.0%,50.27546059214215%)" points="323.9548021082154,388.97831873228324 323.9548021082154,367.7448977020654 329.57541355739073,366.12236693546953 329.57541355739073,387.35578796568745" />
</svg>
