<?xml version="1.0" encoding="UTF-8"?>
<svg
  xmlns="http://www.w3.org/2000/svg"
  width="848"
  height="600"
  style="background-color:white"
>
  <polygon fill="lightblue" points="300.28368898570704,538.6249020491564 199.86874647338163,451.6630109139285 547.716311014293,351.248068401603 648.1312535266184,438.20995953683087" />
  <polygon fill="steelblue" points="199.86874647338163,451.6630109139285 199.86874647338163,161.79004046316913 547.716311014293,61.37509795084367 547.716311014293,351.248068401603" />
  <polygon fill="lightskyblue" points="648.1312535266184,438.20995953683087 648.1312535266184,148.3369890860715 547.716311014293,61.37509795084367 547.716311014293,351.248068401603" />
  <polygon fill="white" points="607.9652765216881,403.4252030827397 607.9652765216881,287.47601490243596 587.8822880192231,270.08363667539044 587.8822880192231,386.0328248556942" />
  <polygon fill="white" points="359.2988802212993,359.25982032365783 359.2988802212993,312.8801450515363 388.28617726637526,304.5122331755092 388.28617726637526,350.8919084476307" />
  <polygon fill="antiquewhite" points="488.16083250444746,446.72656483627065 488.16083250444746,348.16975488301244 511.3506701405082,341.47542538219074 511.3506701405082,440.03223533544895" />
  <polygon fill="beige" points="488.16083250444746,446.72656483627065 488.16083250444746,348.16975488301244 474.77217350280404,336.57483606498204 474.77217350280404,435.13164601824025" />
  <polygon fill="bisque" points="488.16083250444746,348.16975488301244 474.77217350280404,336.57483606498204 497.9620111388648,329.8805065641604 511.3506701405082,341.47542538219074" />
</svg>
