<?xml version="1.0" encoding="UTF-8"?>
<svg
  xmlns="http://www.w3.org/2000/svg"
  width="848"
  height="600"
  style="background-color:white"
>
  <polygon fill="lightblue" points="300.28368898570704,538.6249020491564 199.86874647338163,451.6630109139285 547.716311014293,351.248068401603 648.1312535266184,438.20995953683087" />
  <polygon fill="steelblue" points="199.86874647338163,451.6630109139285 199.86874647338163,161.79004046316913 547.716311014293,61.37509795084367 547.716311014293,351.248068401603" />
  <polygon fill="lightskyblue" points="648.1312535266184,438.20995953683087 648.1312535266184,148.3369890860715 547.716311014293,61.37509795084367 547.716311014293,351.248068401603" />
  <polygon fill="white" points="607.9652765216881,403.4252030827397 607.9652765216881,287.47601490243596 587.8822880192231,270.08363667539044 587.8822880192231,386.0328248556942" />
  <polygon fill="white" points="301.32428613114746,375.9956440757121 301.32428613114746,329.6159688035906 330.3115831762234,321.2480569275635 330.3115831762234,367.62773219968494" />
  <polygon fill="white" points="417.2734743114512,342.5239965716036 417.2734743114512,296.1443212994821 446.26077135652713,287.776409423455 446.26077135652713,334.1560846955765" />
  <polygon fill="hsl(288.0,50.0%,54.496445229397835%)" points="454.77062176758983,444.9514530608543 454.77062176758983,405.134501839738 461.7275730584081,403.1262029894915 461.7275730584081,442.9431542106078" />
  <polygon fill="hsl(288.0,50.0%,54.496445229397835%)" points="472.1629999946354,439.93070593523805 472.1629999946354,400.11375471412174 465.20604870381715,402.12205356436823 465.20604870381715,441.9390047854846" />
  <polygon fill="hsl(288.0,50.0%,54.496445229397835%)" points="447.8136704767716,407.53702792979755 447.8136704767716,368.1143039484943 453.90100285623754,366.3570424545286 453.90100285623754,405.77976643583185" />
  <polygon fill="hsl(288.0,50.0%,54.496445229397835%)" points="473.0326189059877,400.25694459765396 473.0326189059877,360.83422061635065 479.1199512854536,359.076959122385 479.1199512854536,398.49968310368826" />
  <polygon fill="hsl(288.0,50.0%,54.496445229397835%)" points="453.90100285623754,372.4443748339945 453.90100285623754,366.3570424545286 473.0326189059877,360.83422061635065 473.0326189059877,366.9215529958166" />
  <polygon fill="hsl(288.0,50.0%,54.496445229397835%)" points="454.77062176758983,405.528729079551 454.77062176758983,366.1060050982478 472.1629999946354,361.0852579726315 472.1629999946354,400.50798195393475" />
  <polygon fill="hsl(288.0,50.0%,54.496445229397835%)" points="459.1187163243512,362.87968211777854 459.1187163243512,345.1394563261921 467.814905437874,342.62908276338396 467.814905437874,360.3693085549704" />
  <polygon fill="hsl(288.0,50.0%,54.496445229397835%)" points="460.8579541470558,364.34874360428205 460.8579541470558,344.63738161363045 466.07566761516944,343.13115747594554 466.07566761516944,362.8425194665972" />
  <polygon fill="hsl(288.0,50.0%,50.27546059214215%)" points="325.0389329423165,492.19016063392917 325.0389329423164,452.3732094128128 331.9958842331347,450.36491056256637 331.9958842331347,490.1818617836826" />
  <polygon fill="hsl(288.0,50.0%,50.27546059214215%)" points="342.431311169362,487.16941350831286 342.431311169362,447.35246228719654 335.47435987854374,449.3607611374431 335.4743598785438,489.17771235855935" />
  <polygon fill="hsl(288.0,50.0%,50.27546059214215%)" points="318.0819816514982,454.7757355028724 318.0819816514982,415.3530115215691 324.16931403096413,413.5957500276034 324.16931403096413,453.01847400890665" />
  <polygon fill="hsl(288.0,50.0%,50.27546059214215%)" points="343.30093008071424,447.49565217072876 343.30093008071424,408.0729281894255 349.3882624601802,406.3156666954598 349.3882624601802,445.73839067676306" />
  <polygon fill="hsl(288.0,50.0%,50.27546059214215%)" points="324.16931403096413,419.6830824070693 324.16931403096413,413.5957500276034 343.30093008071424,408.0729281894255 343.30093008071424,414.16026056889143" />
  <polygon fill="hsl(288.0,50.0%,50.27546059214215%)" points="325.0389329423164,452.76743665262586 325.0389329423164,413.34471267132255 342.431311169362,408.3239655457063 342.431311169362,447.7466895270096" />
  <polygon fill="hsl(288.0,50.0%,50.27546059214215%)" points="329.3870274990778,410.11838969085335 329.3870274990778,392.3781638992669 338.0832166126006,389.86779033645877 338.0832166126006,407.6080161280452" />
  <polygon fill="hsl(288.0,50.0%,50.27546059214215%)" points="331.1262653217824,411.5874511773569 331.1262653217824,391.87608918670526 336.343978789896,390.3698650490204 336.343978789896,410.081227039672" />
</svg>
