<?xml version="1.0" encoding="UTF-8"?>
<svg
  xmlns="http://www.w3.org/2000/svg"
  width="848"
  height="600"
  style="background-color:white"
>
  <polygon fill="lightblue" points="290.7306439140168,525.8252642779962 182.56192614096122,432.14840679174074 557.2693560859832,323.97968901868506 665.4380738590388,417.65654650494054" />
  <polygon fill="steelblue" points="182.56192614096122,432.14840679174074 182.56192614096122,182.34345349505946 557.2693560859832,74.17473572200379 557.2693560859832,323.97968901868506" />
  <polygon fill="lightskyblue" points="665.4380738590388,417.65654650494054 665.4380738590388,167.85159320825926 557.2693560859832,74.17473572200379 557.2693560859832,323.97968901868506" />
  <polygon fill="white" points="622.1705867498165,380.18580351043835 622.1705867498165,255.2833268620977 600.5368431952054,236.54795536484662 600.5368431952054,361.45043201318725" />
  <polygon fill="white" points="291.85159320825926,350.6382067819299 291.85159320825926,300.6772161225936 323.07721237034445,291.66315630817235 323.07721237034445,341.6241469675086" />
  <polygon fill="white" points="416.7540698565999,314.58196752424465 416.7540698565999,264.6209768649084 447.97968901868506,255.6069170504871 447.97968901868506,305.5679077098234" />
  <polygon fill="antiquewhite" points="493.11516164445345,426.83078145415175 493.1151616444534,320.6636763030622 518.0956569741215,313.4524284515252 518.0956569741215,419.6195336026147" />
  <polygon fill="beige" points="493.11516164445345,426.83078145415175 493.1151616444534,320.6636763030622 478.69266594137935,308.17342863822813 478.69266594137935,414.34053378931765" />
  <polygon fill="bisque" points="493.1151616444534,320.6636763030622 478.69266594137935,308.17342863822813 503.6731612710475,300.9621807866911 518.0956569741215,313.4524284515252" />
</svg>
