<?xml version="1.0" encoding="UTF-8"?>
<svg
  xmlns="http://www.w3.org/2000/svg"
  width="848"
  height="600"
  style="background-color:white"
>
  <polygon fill="lightblue" points="239.1923788646684,656.4582562299427 89.1923788646684,526.5544456622767 608.8076211353316,376.5544456622767 758.8076211353316,506.4582562299425" />
  <polygon fill="steelblue" points="89.1923788646684,526.5544456622767 89.1923788646684,93.54174377005751 608.8076211353316,-56.458256229942606 608.8076211353316,376.5544456622767" />
  <polygon fill="lightskyblue" points="758.8076211353316,506.4582562299425 758.8076211353316,73.44555433772322 608.8076211353316,-56.458256229942606 608.8076211353316,376.5544456622767" />
  <polygon fill="white" points="698.8076211353316,454.4967320028762 698.8076211353316,281.2916512459885 668.8076211353316,255.31088913245532 668.8076211353316,428.515969889343" />
  <polygon fill="white" points="171.46479222419012,433.5224133595217 171.46479222419012,364.2403810567666 214.76606241341204,351.7403810567666 214.76606241341204,421.0224133595217" />
  <polygon fill="white" points="275.38784067832273,403.5224133595217 275.38784067832273,334.2403810567666 318.6891108675446,321.7403810567666 318.6891108675446,391.0224133595217" />
  <polygon fill="white" points="379.3108891324553,373.5224133595217 379.3108891324553,304.2403810567666 422.61215932167727,291.7403810567666 422.61215932167727,361.0224133595217" />
  <polygon fill="white" points="483.23393758658796,343.52241335952164 483.23393758658796,274.2403810567665 526.5352077758099,261.7403810567665 526.5352077758099,331.02241335952164" />
</svg>
