<?xml version="1.0" encoding="UTF-8"?>
<svg
  xmlns="http://www.w3.org/2000/svg"
  width="848"
  height="600"
  style="background-color:white"
>
  <polygon fill="lightblue" points="300.28368898570704,538.6249020491564 199.86874647338163,451.6630109139285 547.716311014293,351.248068401603 648.1312535266184,438.20995953683087" />
  <polygon fill="steelblue" points="199.86874647338163,451.6630109139285 199.86874647338163,161.79004046316913 547.716311014293,61.37509795084367 547.716311014293,351.248068401603" />
  <polygon fill="lightskyblue" points="648.1312535266184,438.20995953683087 648.1312535266184,148.3369890860715 547.716311014293,61.37509795084367 547.716311014293,351.248068401603" />
  <polygon fill="white" points="607.9652765216881,403.4252030827397 607.9652765216881,287.47601490243596 587.8822880192231,270.08363667539044 587.8822880192231,386.0328248556942" />
  <polygon fill="white" points="235.06760717097387,395.12229979234553 235.06760717097387,348.742624520224 264.0549042160498,340.37471264419685 264.0549042160498,386.75438791631836" />
  <polygon fill="white" points="284.760116391104,380.77730800487046 284.760116391104,334.39763273274895 313.74741343618,326.02972085672184 313.74741343618,372.40939612884335" />
  <polygon fill="white" points="334.4526256112342,366.4323162173954 334.4526256112342,320.0526409452739 363.43992265631016,311.68472906924677 363.43992265631016,358.06440434136823" />
  <polygon fill="white" points="384.14513483136443,352.08732442992033 384.14513483136443,305.7076491577988 413.13243187644036,297.3397372817717 413.13243187644036,343.7194125538932" />
  <polygon fill="white" points="433.8376440514946,337.74233264244526 433.8376440514946,291.36265737032375 462.8249410965705,282.99474549429664 462.8249410965705,329.3744207664181" />
  <polygon fill="white" points="483.5301532716247,323.3973408549702 483.5301532716247,277.0176655828487 512.5174503167007,268.64975370682157 512.5174503167007,315.0294289789431" />
  <polygon fill="antiquewhite" points="488.16083250444746,446.72656483627065 488.16083250444746,348.16975488301244 511.3506701405082,341.47542538219074 511.3506701405082,440.03223533544895" />
  <polygon fill="beige" points="488.16083250444746,446.72656483627065 488.16083250444746,348.16975488301244 474.77217350280404,336.57483606498204 474.77217350280404,435.13164601824025" />
  <polygon fill="bisque" points="488.16083250444746,348.16975488301244 474.77217350280404,336.57483606498204 497.9620111388648,329.8805065641604 511.3506701405082,341.47542538219074" />
  <polygon fill="antiquewhite" points="319.3163837878439,519.9387458956897 319.3163837878439,421.38193594243154 342.50622142390466,414.68760644160983 342.50622142390466,513.244416394868" />
  <polygon fill="beige" points="319.3163837878439,519.9387458956897 319.3163837878439,421.38193594243154 305.92772478620054,409.78701712440113 305.92772478620054,508.3438270776593" />
  <polygon fill="bisque" points="319.3163837878439,421.38193594243154 305.92772478620054,409.78701712440113 329.11756242226124,403.0926876235794 342.50622142390466,414.68760644160983" />
</svg>
