<?xml version="1.0" encoding="UTF-8"?>
<svg
  xmlns="http://www.w3.org/2000/svg"
  width="848"
  height="600"
  style="background-color:white"
>
  <polygon fill="lightblue" points="322.7766971053104,495.2402277460959 240.6183134795355,424.0889803923074 525.2233028946896,341.93059676653246 607.3816865204645,413.08184412032097" />
  <polygon fill="steelblue" points="240.6183134795355,424.0889803923074 240.6183134795355,186.918155879679 525.2233028946896,104.75977225390406 525.2233028946896,341.93059676653246" />
  <polygon fill="lightskyblue" points="607.3816865204645,413.08184412032097 607.3816865204645,175.9110196076926 525.2233028946896,104.75977225390406 525.2233028946896,341.93059676653246" />
  <polygon fill="white" points="574.5183330701545,384.62134517880554 574.5183330701545,289.75301537375424 558.0866563449996,275.5227659029965 558.0866563449996,370.3910957080479" />
  <polygon fill="white" points="276.19393715642974,375.871850517065 276.19393715642974,337.92451859504445 299.9110196076926,331.07798662622986 299.9110196076926,369.0253185482504" />
  <polygon fill="white" points="323.62810205895545,362.17878657943584 323.62810205895545,324.23145465741527 347.34518451021825,317.38492268860074 347.34518451021825,355.33225461062125" />
  <polygon fill="white" points="371.0622669614811,348.48572264180666 371.0622669614811,310.53839071978615 394.77934941274395,303.69185875097156 394.77934941274395,341.63919067299213" />
  <polygon fill="white" points="418.4964318640068,334.79265870417754 418.4964318640068,296.845326782157 442.21351431526966,289.9987948133424 442.21351431526966,327.94612673536295" />
  <polygon fill="white" points="465.9305967665325,321.09959476654836 465.9305967665325,283.1522628445278 489.6476792177953,276.30573087571327 489.6476792177953,314.2530627977338" />
</svg>
