<?xml version="1.0" encoding="UTF-8"?>
<svg
  xmlns="http://www.w3.org/2000/svg"
  width="848"
  height="600"
  style="background-color:white"
>
  <polygon fill="lightblue" points="290.7306439140168,525.8252642779962 182.56192614096122,432.14840679174074 557.2693560859832,323.97968901868506 665.4380738590388,417.65654650494054" />
  <polygon fill="steelblue" points="182.56192614096122,432.14840679174074 182.56192614096122,182.34345349505946 557.2693560859832,74.17473572200379 557.2693560859832,323.97968901868506" />
  <polygon fill="lightskyblue" points="665.4380738590388,417.65654650494054 665.4380738590388,167.85159320825926 557.2693560859832,74.17473572200379 557.2693560859832,323.97968901868506" />
  <polygon fill="white" points="622.1705867498165,380.18580351043835 622.1705867498165,255.2833268620977 600.5368431952054,236.54795536484662 600.5368431952054,361.45043201318725" />
  <polygon fill="white" points="354.30283153242965,332.6100871530873 354.30283153242965,282.649096493751 385.5284506945148,273.63503667932974 385.5284506945148,323.596027338666" />
  <polygon fill="antiquewhite" points="493.11516164445345,426.83078145415175 493.1151616444534,320.6636763030622 518.0956569741215,313.4524284515252 518.0956569741215,419.6195336026147" />
  <polygon fill="beige" points="493.11516164445345,426.83078145415175 493.1151616444534,320.6636763030622 478.69266594137935,308.17342863822813 478.69266594137935,414.34053378931765" />
  <polygon fill="bisque" points="493.1151616444534,320.6636763030622 478.69266594137935,308.17342863822813 503.6731612710475,300.9621807866911 518.0956569741215,313.4524284515252" />
  <polygon fill="antiquewhite" points="311.23299287727343,505.6962127578056 311.23299287727343,399.529107606716 336.2134882069415,392.31785975517903 336.2134882069415,498.48496490626854" />
  <polygon fill="beige" points="311.23299287727343,505.6962127578056 311.23299287727343,399.529107606716 296.8104971741993,387.038859941882 296.8104971741993,493.2059650929715" />
  <polygon fill="bisque" points="311.23299287727343,399.529107606716 296.8104971741993,387.038859941882 321.7909925038674,379.8276120903449 336.2134882069415,392.31785975517903" />
</svg>
