<?xml version="1.0" encoding="UTF-8"?>
<svg
  xmlns="http://www.w3.org/2000/svg"
  width="848"
  height="600"
  style="background-color:white"
>
  <polygon fill="lightblue" points="277.3180938990171,514.1846236111503 158.26301500140215,411.0799008362551 570.6819061009829,292.0248219386401 689.7369849985978,395.12954471353527" />
  <polygon fill="steelblue" points="158.26301500140215,411.0799008362551 158.26301500140215,204.87045528646473 570.6819061009829,85.8153763888497 570.6819061009829,292.0248219386401" />
  <polygon fill="lightskyblue" points="689.7369849985978,395.12954471353527 689.7369849985978,188.9200991637449 570.6819061009829,85.8153763888497 570.6819061009829,292.0248219386401" />
  <polygon fill="white" points="642.1149534395519,353.88765560357723 642.1149534395519,216.41469190371697 618.3039376600289,195.79374734873792 618.3039376600289,333.26671104859815" />
  <polygon fill="white" points="223.5626727588358,337.2403278641886 223.5626727588358,282.25114238424453 257.93091368380084,272.3298858094433 257.93091368380084,327.31907128938735" />
  <polygon fill="white" points="306.0464509787519,313.42931208466564 306.0464509787519,258.4401266047215 340.41469190371697,248.51887002992027 340.41469190371697,303.50805550986433" />
  <polygon fill="white" points="388.53022919866805,289.6182963051426 388.53022919866805,234.62911082519852 422.8984701236331,224.70785425039725 422.8984701236331,279.6970397303414" />
  <polygon fill="white" points="471.0140074185842,265.8072805256196 471.0140074185842,210.81809504567553 505.38224834354924,200.8968384708743 505.38224834354924,255.88602395081836" />
  <polygon fill="antiquewhite" points="500.0710785151925,405.2270968357226 500.0710785151925,288.37507769084135 527.5656712551646,280.43807243100036 527.5656712551646,397.29009157588155" />
  <polygon fill="beige" points="500.0710785151925,405.2270968357226 500.0710785151925,288.37507769084135 484.1970679955105,274.6277813208553 484.1970679955105,391.47980046573656" />
  <polygon fill="bisque" points="500.0710785151925,288.37507769084135 484.1970679955105,274.6277813208553 511.69166073548257,266.69077606101433 527.5656712551646,280.43807243100036" />
  <polygon fill="antiquewhite" points="299.88384880172487,492.02973570817653 299.88384880172487,375.17771656329535 327.37844154169693,367.2407113034543 327.37844154169693,484.09273044833554" />
  <polygon fill="beige" points="299.88384880172487,492.02973570817653 299.88384880172487,375.17771656329535 284.0098382820429,361.4304201933093 284.0098382820429,478.28243933819056" />
  <polygon fill="bisque" points="299.88384880172487,375.17771656329535 284.0098382820429,361.4304201933093 311.5044310220149,353.4934149334683 327.37844154169693,367.2407113034543" />
  <polygon fill="antiquewhite" points="502.93405053903183,330.7415986397495 502.93405053903183,213.88957949486826 530.4286432790038,205.95257423502727 530.4286432790038,322.80459337990845" />
  <polygon fill="beige" points="502.93405053903183,330.7415986397495 502.93405053903183,213.88957949486826 487.0600400193498,200.14228312488223 487.0600400193498,316.99430226976347" />
  <polygon fill="bisque" points="502.93405053903183,213.88957949486826 487.0600400193498,200.14228312488223 514.5546327593219,192.20527786504124 530.4286432790038,205.95257423502727" />
  <polygon fill="antiquewhite" points="442.99735449262545,369.0381325169635 442.9973544926254,252.1861133720823 470.4919472325975,244.2491081122413 470.4919472325975,361.1011272571225" />
  <polygon fill="beige" points="442.99735449262545,369.0381325169635 442.9973544926254,252.1861133720823 427.1233439729434,238.43881700209624 427.1233439729434,355.2908361469775" />
  <polygon fill="bisque" points="442.9973544926254,252.1861133720823 427.1233439729434,238.43881700209624 454.6179367129155,230.50181174225526 470.4919472325975,244.2491081122413" />
</svg>
