<?xml version="1.0" encoding="UTF-8"?>
<svg
  xmlns="http://www.w3.org/2000/svg"
  width="848"
  height="600"
  style="background-color:white"
>
  <polygon fill="lightblue" points="239.1923788646684,613.1569860407207 89.1923788646684,483.25317547305485 608.8076211353316,333.2531754730548 758.8076211353316,463.15698604072054" />
  <polygon fill="steelblue" points="89.1923788646684,483.25317547305485 89.1923788646684,136.84301395927943 608.8076211353316,-13.156986040720653 608.8076211353316,333.2531754730548" />
  <polygon fill="lightskyblue" points="758.8076211353316,463.15698604072054 758.8076211353316,116.74682452694515 608.8076211353316,-13.156986040720653 608.8076211353316,333.2531754730548" />
  <polygon fill="white" points="698.8076211353316,411.1954618136543 698.8076211353316,237.99038105676655 668.8076211353316,212.00961894323336 668.8076211353316,385.2146997001211" />
  <polygon fill="white" points="141.77249266586648,398.7925717417283 141.77249266586648,329.51053943897324 185.0737628550884,317.01053943897324 185.0737628550884,386.2925717417283" />
  <polygon fill="white" points="216.0032415616755,377.3640003131569 216.0032415616755,308.0819680104018 259.3045117508974,295.5819680104018 259.3045117508974,364.8640003131569" />
  <polygon fill="white" points="290.23399045748454,355.93542888458546 290.23399045748454,286.65339658183035 333.53526064670643,274.15339658183035 333.53526064670643,343.43542888458546" />
  <polygon fill="white" points="364.4647393532935,334.506857456014 364.4647393532935,265.2248251532589 407.76600954251546,252.7248251532589 407.76600954251546,322.006857456014" />
  <polygon fill="white" points="438.6954882491026,313.0782860274426 438.69548824910254,243.7962537246875 481.9967584383245,231.29625372468746 481.9967584383245,300.5782860274426" />
  <polygon fill="white" points="512.9262371449115,291.6497145988711 512.9262371449115,222.36768229611607 556.2275073341334,209.86768229611607 556.2275073341334,279.1497145988711" />
</svg>
