<?xml version="1.0" encoding="UTF-8"?>
<svg
  xmlns="http://www.w3.org/2000/svg"
  width="848"
  height="600"
  style="background-color:white"
>
  <polygon fill="lightblue" points="307.5784939752995,551.8327211157555 213.08441523318405,469.99844841787643 540.4215060247004,375.50436967576087 634.915584766816,457.33864237364" />
  <polygon fill="steelblue" points="213.08441523318405,469.99844841787643 213.08441523318405,142.66135762636 540.4215060247004,48.16727888424447 540.4215060247004,375.50436967576087" />
  <polygon fill="lightskyblue" points="634.915584766816,457.33864237364 634.915584766816,130.00155158212357 540.4215060247004,48.16727888424447 540.4215060247004,375.50436967576087" />
  <polygon fill="white" points="264.91278794184086,411.39194051150594 264.91278794184086,367.7469950726371 292.1908788411339,359.87248851079414 292.1908788411339,403.517433949663" />
  <polygon fill="white" points="330.3802061001441,392.49312476308285 330.3802061001441,348.84817932421396 357.65829699943714,340.973672762371 357.65829699943714,384.6186182012399" />
  <polygon fill="white" points="395.84762425844735,373.59430901465976 395.84762425844735,329.94936357579087 423.1257151577404,322.0748570139479 423.1257151577404,365.7198024528168" />
  <polygon fill="white" points="461.31504241675066,354.6954932662366 461.31504241675066,311.0505478273678 488.5931333160437,303.1760412655248 488.5931333160437,346.82098670439365" />
  <polygon fill="hsl(360.0,50.0%,57.04478701996097%)" points="374.54395461843535,480.7572026299382 374.54395461843535,443.28801697066933 381.0906964342657,441.398135395827 381.0906964342657,478.8673210550959" />
  <polygon fill="hsl(360.0,50.0%,57.04478701996097%)" points="390.91080915801115,476.0324986928324 390.91080915801115,438.56331303356353 384.3640673421808,440.45319460840585 384.3640673421808,477.9223802676747" />
  <polygon fill="hsl(360.0,50.0%,57.04478701996097%)" points="367.997212802605,445.54888058174197 367.997212802605,408.4506769587034 373.72561189145654,406.7970305807164 373.72561189145654,443.89523420375497" />
  <polygon fill="hsl(360.0,50.0%,57.04478701996097%)" points="391.72915188498996,438.6980598729386 391.72915188498996,401.59985624990003 397.4575509738415,399.946209871913 397.4575509738415,437.0444134949515" />
  <polygon fill="hsl(360.0,50.0%,57.04478701996097%)" points="373.72561189145654,412.525429669568 373.72561189145654,406.7970305807164 391.72915188498996,401.59985624990003 391.72915188498996,407.3282553387516" />
  <polygon fill="hsl(360.0,50.0%,57.04478701996097%)" points="374.54395461843535,443.65899900689965 374.54395461843535,406.5607953838611 390.91080915801115,401.83609144675535 390.91080915801115,438.93429506979385" />
  <polygon fill="hsl(360.0,50.0%,57.04478701996097%)" points="378.6356682533293,403.52470921843275 378.6356682533293,386.83051758806545 386.8190955231172,384.46816561951255 386.8190955231172,401.16235724987985" />
  <polygon fill="hsl(360.0,50.0%,57.04478701996097%)" points="380.27235370728687,404.9071490058741 380.27235370728687,386.35804719435487 385.18241006915963,384.94063601322307 385.18241006915963,403.48973782474235" />
  <polygon fill="hsl(360.0,50.0%,54.496445229397835%)" points="452.9562637143729,463.6826306682142 452.9562637143729,426.2134450089453 459.5030055302032,424.323563434103 459.5030055302032,461.79274909337187" />
  <polygon fill="hsl(360.0,50.0%,54.496445229397835%)" points="469.3231182539487,458.95792673110844 469.3231182539487,421.4887410718395 462.77637643811835,423.37862264668183 462.77637643811835,460.84780830595076" />
  <polygon fill="hsl(360.0,50.0%,54.496445229397835%)" points="446.40952189854255,428.47430862001795 446.40952189854255,391.37610499697945 452.13792098739407,389.7224586189924 452.13792098739407,426.82066224203095" />
  <polygon fill="hsl(360.0,50.0%,54.496445229397835%)" points="470.1414609809275,421.6234879112146 470.1414609809275,384.52528428817607 475.869860069779,382.87163791018907 475.869860069779,419.96984153322757" />
  <polygon fill="hsl(360.0,50.0%,54.496445229397835%)" points="452.13792098739407,395.45085770784397 452.13792098739407,389.7224586189924 470.1414609809275,384.52528428817607 470.1414609809275,390.2536833770276" />
  <polygon fill="hsl(360.0,50.0%,54.496445229397835%)" points="452.9562637143729,426.58442704517563 452.9562637143729,389.48622342213713 469.3231182539487,384.76151948503133 469.3231182539487,421.8597231080699" />
  <polygon fill="hsl(360.0,50.0%,54.496445229397835%)" points="457.04797734926683,386.4501372567088 457.04797734926683,369.75594562634143 465.23140461905473,367.39359365778853 465.23140461905473,384.0877852881559" />
  <polygon fill="hsl(360.0,50.0%,54.496445229397835%)" points="458.6846628032244,387.8325770441501 458.6846628032244,369.28347523263085 463.59471916509716,367.8660640514991 463.59471916509716,386.4151658630184" />
  <polygon fill="hsl(360.0,50.0%,50.27546059214215%)" points="330.87407044220834,508.1359564522527 330.87407044220834,470.6667707929838 337.4208122580386,468.7768892181415 337.4208122580386,506.24607487741036" />
  <polygon fill="hsl(360.0,50.0%,50.27546059214215%)" points="347.24092498178413,503.4112525151469 347.24092498178413,465.942066855878 340.6941831659538,467.83194843072033 340.6941831659538,505.3011340899892" />
  <polygon fill="hsl(360.0,50.0%,50.27546059214215%)" points="324.32732862637795,472.92763440405645 324.32732862637795,435.82943078101795 330.05572771522947,434.1757844030309 330.0557277152295,471.27398802606945" />
  <polygon fill="hsl(360.0,50.0%,50.27546059214215%)" points="348.05926770876295,466.0768136952531 348.0592677087629,428.97861007221456 353.7876667976144,427.32496369422756 353.7876667976144,464.4231673172661" />
  <polygon fill="hsl(360.0,50.0%,50.27546059214215%)" points="330.05572771522947,439.90418349188246 330.05572771522947,434.1757844030309 348.0592677087629,428.97861007221456 348.0592677087629,434.7070091610661" />
  <polygon fill="hsl(360.0,50.0%,50.27546059214215%)" points="330.87407044220834,471.0377528292141 330.8740704422083,433.9395492061756 347.24092498178413,429.2148452690699 347.24092498178413,466.3130488921084" />
  <polygon fill="hsl(360.0,50.0%,50.27546059214215%)" points="334.9657840771023,430.9034630407473 334.9657840771023,414.2092714103799 343.1492113468901,411.846919441827 343.1492113468901,428.5411110721944" />
  <polygon fill="hsl(360.0,50.0%,50.27546059214215%)" points="336.60246953105985,432.28590282818857 336.60246953105985,413.73680101666935 341.51252589293256,412.3193898355376 341.51252589293256,430.8684916470569" />
</svg>
