<?xml version="1.0" encoding="UTF-8"?>
<svg
  xmlns="http://www.w3.org/2000/svg"
  width="848"
  height="600"
  style="background-color:white"
>
  <polygon fill="lightblue" points="300.28368898570704,538.6249020491564 199.86874647338163,451.6630109139285 547.716311014293,351.248068401603 648.1312535266184,438.20995953683087" />
  <polygon fill="steelblue" points="199.86874647338163,451.6630109139285 199.86874647338163,161.79004046316913 547.716311014293,61.37509795084367 547.716311014293,351.248068401603" />
  <polygon fill="lightskyblue" points="648.1312535266184,438.20995953683087 648.1312535266184,148.3369890860715 547.716311014293,61.37509795084367 547.716311014293,351.248068401603" />
  <polygon fill="white" points="607.9652765216881,403.4252030827397 607.9652765216881,287.47601490243596 587.8822880192231,270.08363667539044 587.8822880192231,386.0328248556942" />
  <polygon fill="white" points="301.32428613114746,375.9956440757121 301.32428613114746,329.6159688035906 330.3115831762234,321.2480569275635 330.3115831762234,367.62773219968494" />
  <polygon fill="white" points="417.2734743114512,342.5239965716036 417.2734743114512,296.1443212994821 446.26077135652713,287.776409423455 446.26077135652713,334.1560846955765" />
  <polygon fill="hsl(288.0,50.0%,54.496445229397835%)" points="454.77062176758983,444.9514530608543 454.77062176758983,405.134501839738 461.7275730584081,403.1262029894915 461.7275730584081,442.9431542106078" />
  <polygon fill="hsl(288.0,50.0%,54.496445229397835%)" points="472.1629999946354,439.93070593523805 472.1629999946354,400.11375471412174 465.20604870381715,402.12205356436823 465.20604870381715,441.9390047854846" />
  <polygon fill="hsl(288.0,50.0%,54.496445229397835%)" points="447.8136704767716,407.53702792979755 447.8136704767716,368.1143039484943 453.90100285623754,366.3570424545286 453.90100285623754,405.77976643583185" />
  <polygon fill="hsl(288.0,50.0%,54.496445229397835%)" points="473.0326189059877,400.25694459765396 473.0326189059877,360.83422061635065 479.1199512854536,359.076959122385 479.1199512854536,398.49968310368826" />
  <polygon fill="hsl(288.0,50.0%,54.496445229397835%)" points="453.90100285623754,372.4443748339945 453.90100285623754,366.3570424545286 473.0326189059877,360.83422061635065 473.0326189059877,366.9215529958166" />
  <polygon fill="hsl(288.0,50.0%,54.496445229397835%)" points="454.77062176758983,405.528729079551 454.77062176758983,366.1060050982478 472.1629999946354,361.0852579726315 472.1629999946354,400.50798195393475" />
  <polygon fill="hsl(288.0,50.0%,54.496445229397835%)" points="459.1187163243512,362.87968211777854 459.1187163243512,345.1394563261921 467.814905437874,342.62908276338396 467.814905437874,360.3693085549704" />
  <polygon fill="hsl(288.0,50.0%,54.496445229397835%)" points="460.8579541470558,364.34874360428205 460.8579541470558,344.63738161363045 466.07566761516944,343.13115747594554 466.07566761516944,362.8425194665972" />
</svg>
