<?xml version="1.0" encoding="UTF-8"?>
<svg
  xmlns="http://www.w3.org/2000/svg"
  width="848"
  height="600"
  style="background-color:white"
>
  <polygon fill="lightblue" points="290.7306439140168,525.8252642779962 182.56192614096122,432.14840679174074 557.2693560859832,323.97968901868506 665.4380738590388,417.65654650494054" />
  <polygon fill="steelblue" points="182.56192614096122,432.14840679174074 182.56192614096122,182.34345349505946 557.2693560859832,74.17473572200379 557.2693560859832,323.97968901868506" />
  <polygon fill="lightskyblue" points="665.4380738590388,417.65654650494054 665.4380738590388,167.85159320825926 557.2693560859832,74.17473572200379 557.2693560859832,323.97968901868506" />
  <polygon fill="white" points="622.1705867498165,380.18580351043835 622.1705867498165,255.2833268620977 600.5368431952054,236.54795536484662 600.5368431952054,361.45043201318725" />
  <polygon fill="white" points="241.89060254892306,365.06070248500396 241.89060254892306,315.0997118256677 273.1162217110082,306.08565201124645 273.1162217110082,356.0466426705827" />
  <polygon fill="white" points="316.8320885379274,343.42695893039286 316.8320885379274,293.4659682710566 348.05770770001254,284.4519084566353 348.05770770001254,334.4128991159715" />
  <polygon fill="white" points="391.7735745269318,321.79321537578176 391.7735745269318,271.83222471644547 422.9991936890169,262.81816490202414 422.9991936890169,312.7791555613604" />
  <polygon fill="white" points="466.71506051593616,300.1594718211706 466.71506051593616,250.19848116183434 497.9406796780213,241.18442134741304 497.9406796780213,291.14541200674927" />
  <polygon fill="grey" points="544.0718565527405,142.51747194438693 544.0718565527405,111.29185278230176 575.2974757148257,102.27779296788046 575.2974757148257,133.50341212996562" />
  <polygon fill="lightgrey" points="544.0718565527405,142.51747194438693 544.0718565527405,111.29185278230176 526.043736923898,95.67904320125919 526.043736923898,126.90466236334433" />
  <polygon fill="darkgrey" points="544.0718565527405,111.29185278230176 526.043736923898,95.67904320125919 557.2693560859832,86.66498338683789 575.2974757148257,102.27779296788046" />
  <polygon fill="hsl(324.0,50.0%,54.496445229397835%)" points="457.1466474849729,424.91860026033123 457.1466474849729,382.02708977929103 464.64079608387334,379.86371542382994 464.64079608387334,422.75522590487014" />
  <polygon fill="hsl(324.0,50.0%,54.496445229397835%)" points="475.88201898222394,419.51016437167846 475.88201898222394,376.61865389063826 468.3878703833235,378.7820282460994 468.3878703833235,421.67353872713954" />
  <polygon fill="hsl(324.0,50.0%,54.496445229397835%)" points="449.6524988860724,384.6151325553565 449.6524988860724,342.14829049492073 456.2098789101103,340.25533793389224 456.2098789101103,382.72217999432803" />
  <polygon fill="hsl(324.0,50.0%,54.496445229397835%)" points="476.8187875570865,376.77290051681 476.8187875570865,334.3060584563742 483.3761675811244,332.4131058953457 483.37616758112443,374.8799479557815" />
  <polygon fill="hsl(324.0,50.0%,54.496445229397835%)" points="456.2098789101103,346.81271795793015 456.2098789101103,340.25533793389224 476.8187875570865,334.3060584563742 476.8187875570865,340.86343848041207" />
  <polygon fill="hsl(324.0,50.0%,54.496445229397835%)" points="457.1466474849729,382.4517581998954 457.1466474849729,339.98491613945964 475.88201898222394,334.5764802508068 475.88201898222394,377.0433223112426" />
  <polygon fill="hsl(324.0,50.0%,54.496445229397835%)" points="461.83049035928565,336.50946506427465 461.83049035928565,317.3993861370785 471.1981761079112,314.69516819275213 471.1981761079112,333.80524711994826" />
  <polygon fill="hsl(324.0,50.0%,54.496445229397835%)" points="463.70402750901076,338.09196357843115 463.70402750901076,316.8585425482132 469.3246389581861,315.23601178161744 469.3246389581861,336.4694328118353" />
</svg>
