<?xml version="1.0" encoding="UTF-8"?>
<svg
  xmlns="http://www.w3.org/2000/svg"
  width="848"
  height="600"
  style="background-color:white"
>
  <polygon fill="lightblue" points="307.5784939752995,551.8327211157555 213.08441523318405,469.99844841787643 540.4215060247004,375.50436967576087 634.915584766816,457.33864237364" />
  <polygon fill="steelblue" points="213.08441523318405,469.99844841787643 213.08441523318405,142.66135762636 540.4215060247004,48.16727888424447 540.4215060247004,375.50436967576087" />
  <polygon fill="lightskyblue" points="634.915584766816,457.33864237364 634.915584766816,130.00155158212357 540.4215060247004,48.16727888424447 540.4215060247004,375.50436967576087" />
  <polygon fill="white" points="597.1179532699698,424.6049332944883 597.1179532699698,315.4925696973162 578.2191375215467,299.1257151577404 578.2191375215467,408.2380787549125" />
  <polygon fill="white" points="363.11391517929576,383.0437168888713 363.11391517929576,339.3987714500024 390.3920060785888,331.52426488815945 390.3920060785888,375.16921032702834" />
  <polygon fill="hsl(324.0,50.0%,54.496445229397835%)" points="452.9562637143729,463.6826306682142 452.9562637143729,426.2134450089453 459.5030055302032,424.323563434103 459.5030055302032,461.79274909337187" />
  <polygon fill="hsl(324.0,50.0%,54.496445229397835%)" points="469.3231182539487,458.95792673110844 469.3231182539487,421.4887410718395 462.77637643811835,423.37862264668183 462.77637643811835,460.84780830595076" />
  <polygon fill="hsl(324.0,50.0%,54.496445229397835%)" points="446.40952189854255,428.47430862001795 446.40952189854255,391.37610499697945 452.13792098739407,389.7224586189924 452.13792098739407,426.82066224203095" />
  <polygon fill="hsl(324.0,50.0%,54.496445229397835%)" points="470.1414609809275,421.6234879112146 470.1414609809275,384.52528428817607 475.869860069779,382.87163791018907 475.869860069779,419.96984153322757" />
  <polygon fill="hsl(324.0,50.0%,54.496445229397835%)" points="452.13792098739407,395.45085770784397 452.13792098739407,389.7224586189924 470.1414609809275,384.52528428817607 470.1414609809275,390.2536833770276" />
  <polygon fill="hsl(324.0,50.0%,54.496445229397835%)" points="452.9562637143729,426.58442704517563 452.9562637143729,389.48622342213713 469.3231182539487,384.76151948503133 469.3231182539487,421.8597231080699" />
  <polygon fill="hsl(324.0,50.0%,54.496445229397835%)" points="457.04797734926683,386.4501372567088 457.04797734926683,369.75594562634143 465.23140461905473,367.39359365778853 465.23140461905473,384.0877852881559" />
  <polygon fill="hsl(324.0,50.0%,54.496445229397835%)" points="458.6846628032244,387.8325770441501 458.6846628032244,369.28347523263085 463.59471916509716,367.8660640514991 463.59471916509716,386.4151658630184" />
</svg>
