<?xml version="1.0" encoding="UTF-8"?>
<svg
  xmlns="http://www.w3.org/2000/svg"
  width="848"
  height="600"
  style="background-color:white"
>
  <polygon fill="lightblue" points="277.3180938990171,514.1846236111503 158.26301500140215,411.0799008362551 570.6819061009829,292.0248219386401 689.7369849985978,395.12954471353527" />
  <polygon fill="steelblue" points="158.26301500140215,411.0799008362551 158.26301500140215,204.87045528646473 570.6819061009829,85.8153763888497 570.6819061009829,292.0248219386401" />
  <polygon fill="lightskyblue" points="689.7369849985978,395.12954471353527 689.7369849985978,188.9200991637449 570.6819061009829,85.8153763888497 570.6819061009829,292.0248219386401" />
  <polygon fill="white" points="642.1149534395519,353.88765560357723 642.1149534395519,216.41469190371697 618.3039376600289,195.79374734873792 618.3039376600289,333.26671104859815" />
  <polygon fill="white" points="244.1836173138148,331.2875739193079 244.1836173138148,276.29838843936375 278.5518582387799,266.3771318645625 278.5518582387799,321.3663173445066" />
  <polygon fill="white" points="347.28834008871,301.52380419490413 347.28834008871,246.53461871496 381.65658101367507,236.61336214015876 381.65658101367507,291.6025476201029" />
  <polygon fill="white" points="450.39306286360517,271.7600344705004 450.39306286360517,216.77084899055626 484.7613037885702,206.849592415755 484.7613037885702,261.8387778956991" />
  <polygon fill="antiquewhite" points="500.0710785151925,405.2270968357226 500.0710785151925,288.37507769084135 527.5656712551646,280.43807243100036 527.5656712551646,397.29009157588155" />
  <polygon fill="beige" points="500.0710785151925,405.2270968357226 500.0710785151925,288.37507769084135 484.1970679955105,274.6277813208553 484.1970679955105,391.47980046573656" />
  <polygon fill="bisque" points="500.0710785151925,288.37507769084135 484.1970679955105,274.6277813208553 511.69166073548257,266.69077606101433 527.5656712551646,280.43807243100036" />
</svg>
