<?xml version="1.0" encoding="UTF-8"?>
<svg
  xmlns="http://www.w3.org/2000/svg"
  width="848"
  height="600"
  style="background-color:white"
>
  <polygon fill="lightblue" points="331.5961894323342,499.8797632095823 256.5961894323342,434.9278579257494 516.4038105676658,359.9278579257493 591.4038105676658,424.8797632095822" />
  <polygon fill="steelblue" points="256.5961894323342,434.9278579257494 256.5961894323342,175.12023679041778 516.4038105676658,100.12023679041772 516.4038105676658,359.9278579257493" />
  <polygon fill="lightskyblue" points="591.4038105676658,424.8797632095822 591.4038105676658,165.07214207425062 516.4038105676658,100.12023679041772 516.4038105676658,359.9278579257493" />
  <polygon fill="white" points="561.4038105676658,398.89900109604906 561.4038105676658,312.2964607176052 546.4038105676658,299.30607966083863 546.4038105676658,385.9086200392825" />
  <polygon fill="white" points="289.0721420742507,390.91184177437185 289.0721420742507,356.27082562299427 310.7227771688616,350.02082562299427 310.7227771688616,384.66184177437185" />
  <polygon fill="white" points="332.3734122634726,378.41184177437185 332.3734122634726,343.77082562299427 354.0240473580835,337.52082562299427 354.0240473580835,372.16184177437185" />
  <polygon fill="white" points="375.6746824526945,365.9118417743718 375.6746824526945,331.27082562299427 397.3253175473055,325.02082562299427 397.3253175473055,359.6618417743718" />
  <polygon fill="white" points="418.9759526419165,353.4118417743718 418.9759526419165,318.77082562299427 440.6265877365274,312.52082562299427 440.6265877365274,347.1618417743718" />
  <polygon fill="white" points="462.2772228311384,340.9118417743718 462.2772228311384,306.2708256229942 483.9278579257493,300.0208256229942 483.9278579257493,334.6618417743718" />
</svg>
