<?xml version="1.0" encoding="UTF-8"?>
<svg
  xmlns="http://www.w3.org/2000/svg"
  width="848"
  height="600"
  style="background-color:white"
>
  <polygon fill="lightblue" points="307.5784939752995,551.8327211157555 213.08441523318405,469.99844841787643 540.4215060247004,375.50436967576087 634.915584766816,457.33864237364" />
  <polygon fill="steelblue" points="213.08441523318405,469.99844841787643 213.08441523318405,142.66135762636 540.4215060247004,48.16727888424447 540.4215060247004,375.50436967576087" />
  <polygon fill="lightskyblue" points="634.915584766816,457.33864237364 634.915584766816,130.00155158212357 540.4215060247004,48.16727888424447 540.4215060247004,375.50436967576087" />
  <polygon fill="white" points="597.1179532699698,424.6049332944883 597.1179532699698,315.4925696973162 578.2191375215467,299.1257151577404 578.2191375215467,408.2380787549125" />
  <polygon fill="white" points="254.00155158212362,414.5417431362431 254.0015515821236,370.89679769737427 281.27964248141666,363.0222911355313 281.27964248141666,406.66723657440014" />
  <polygon fill="white" points="308.5577333807097,398.79273001255723 308.5577333807097,355.14778457368834 335.8358242800027,347.2732780118454 335.8358242800027,390.91822345071427" />
  <polygon fill="white" points="363.11391517929576,383.0437168888713 363.11391517929576,339.3987714500024 390.3920060785888,331.52426488815945 390.3920060785888,375.16921032702834" />
  <polygon fill="white" points="417.6700969778818,367.2947037651854 417.6700969778818,323.6497583263165 444.94818787717486,315.7752517644735 444.94818787717486,359.4201972033424" />
  <polygon fill="white" points="472.2262787764679,351.54569064149945 472.2262787764679,307.90074520263056 499.5043696757609,300.0262386407876 499.5043696757609,343.6711840796565" />
</svg>
