<?xml version="1.0" encoding="UTF-8"?>
<svg
  xmlns="http://www.w3.org/2000/svg"
  width="848"
  height="600"
  style="background-color:white"
>
  <polygon fill="lightblue" points="300.28368898570704,538.6249020491564 199.86874647338163,451.6630109139285 547.716311014293,351.248068401603 648.1312535266184,438.20995953683087" />
  <polygon fill="steelblue" points="199.86874647338163,451.6630109139285 199.86874647338163,161.79004046316913 547.716311014293,61.37509795084367 547.716311014293,351.248068401603" />
  <polygon fill="lightskyblue" points="648.1312535266184,438.20995953683087 648.1312535266184,148.3369890860715 547.716311014293,61.37509795084367 547.716311014293,351.248068401603" />
  <polygon fill="white" points="607.9652765216881,403.4252030827397 607.9652765216881,287.47601490243596 587.8822880192231,270.08363667539044 587.8822880192231,386.0328248556942" />
  <polygon fill="white" points="243.34969204099556,392.7314678277663 243.34969204099556,346.3517925556448 272.3369890860715,337.9838806796177 272.3369890860715,384.3635559517392" />
  <polygon fill="white" points="301.32428613114746,375.9956440757121 301.32428613114746,329.6159688035906 330.3115831762234,321.2480569275635 330.3115831762234,367.62773219968494" />
  <polygon fill="white" points="359.2988802212993,359.25982032365783 359.2988802212993,312.8801450515363 388.28617726637526,304.5122331755092 388.28617726637526,350.8919084476307" />
  <polygon fill="white" points="417.2734743114512,342.5239965716036 417.2734743114512,296.1443212994821 446.26077135652713,287.776409423455 446.26077135652713,334.1560846955765" />
  <polygon fill="white" points="475.24806840160306,325.78817281954935 475.24806840160306,279.4084975474278 504.235365446679,271.0405856714007 504.235365446679,317.42026094352224" />
</svg>
