<?xml version="1.0" encoding="UTF-8"?>
<svg
  xmlns="http://www.w3.org/2000/svg"
  width="848"
  height="600"
  style="background-color:white"
>
  <polygon fill="lightblue" points="239.1923788646684,656.4582562299427 89.1923788646684,526.5544456622767 608.8076211353316,376.5544456622767 758.8076211353316,506.4582562299425" />
  <polygon fill="steelblue" points="89.1923788646684,526.5544456622767 89.1923788646684,93.54174377005751 608.8076211353316,-56.458256229942606 608.8076211353316,376.5544456622767" />
  <polygon fill="lightskyblue" points="758.8076211353316,506.4582562299425 758.8076211353316,73.44555433772322 608.8076211353316,-56.458256229942606 608.8076211353316,376.5544456622767" />
  <polygon fill="white" points="698.8076211353316,454.4967320028762 698.8076211353316,281.2916512459885 668.8076211353316,255.31088913245532 668.8076211353316,428.515969889343" />
  <polygon fill="white" points="141.77249266586648,442.09384193095025 141.77249266586648,372.8118096281952 185.0737628550884,360.31180962819514 185.0737628550884,429.59384193095025" />
  <polygon fill="white" points="216.0032415616755,420.6652705023788 216.0032415616755,351.38323819962375 259.3045117508974,338.88323819962375 259.3045117508974,408.1652705023788" />
  <polygon fill="white" points="290.23399045748454,399.23669907380736 290.23399045748454,329.9546667710523 333.53526064670643,317.4546667710523 333.53526064670643,386.73669907380736" />
  <polygon fill="white" points="364.4647393532935,377.8081276452359 364.4647393532935,308.52609534248086 407.76600954251546,296.02609534248086 407.76600954251546,365.3081276452359" />
  <polygon fill="white" points="438.6954882491026,356.3795562166645 438.69548824910254,287.0975239139094 481.9967584383245,274.5975239139094 481.9967584383245,343.8795562166645" />
  <polygon fill="white" points="512.9262371449115,334.9509847880931 512.9262371449115,265.66895248533797 556.2275073341334,253.16895248533797 556.2275073341334,322.4509847880931" />
</svg>
