<?xml version="1.0" encoding="UTF-8"?>
<svg
  xmlns="http://www.w3.org/2000/svg"
  width="848"
  height="600"
  style="background-color:white"
>
  <polygon fill="lightblue" points="322.7766971053104,495.2402277460959 240.6183134795355,424.0889803923074 525.2233028946896,341.93059676653246 607.3816865204645,413.08184412032097" />
  <polygon fill="steelblue" points="240.6183134795355,424.0889803923074 240.6183134795355,186.918155879679 525.2233028946896,104.75977225390406 525.2233028946896,341.93059676653246" />
  <polygon fill="lightskyblue" points="607.3816865204645,413.08184412032097 607.3816865204645,175.9110196076926 525.2233028946896,104.75977225390406 525.2233028946896,341.93059676653246" />
  <polygon fill="white" points="574.5183330701545,384.62134517880554 574.5183330701545,289.75301537375424 558.0866563449996,275.5227659029965 558.0866563449996,370.3910957080479" />
  <polygon fill="white" points="269.4176278846404,377.8280025081549 269.4176278846404,339.88067058613433 293.1347103359032,333.03413861731974 293.1347103359032,370.9814705393403" />
  <polygon fill="white" points="310.0754835153767,366.0910905616156 310.0754835153767,328.14375863959503 333.79256596663953,321.29722667078045 333.79256596663953,359.244558592801" />
  <polygon fill="white" points="350.73333914611294,354.3541786150763 350.73333914611294,316.4068466930558 374.4504215973758,309.5603147242412 374.4504215973758,347.5076466462618" />
  <polygon fill="white" points="391.39119477684926,342.61726666853707 391.39119477684926,304.6699347465165 415.1082772281121,297.8234027777019 415.1082772281121,335.7707346997225" />
  <polygon fill="white" points="432.0490504075856,330.8803547219978 432.0490504075856,292.9330227999772 455.7661328588484,286.0864908311626 455.7661328588484,324.0338227531832" />
  <polygon fill="white" points="472.70690603832185,319.1434427754585 472.70690603832185,281.196110853438 496.4239884895847,274.3495788846234 496.4239884895847,312.29691080664395" />
</svg>
