<?xml version="1.0" encoding="UTF-8"?>
<svg
  xmlns="http://www.w3.org/2000/svg"
  width="848"
  height="600"
  style="background-color:white"
>
  <polygon fill="lightblue" points="277.3180938990171,514.1846236111503 158.26301500140215,411.0799008362551 570.6819061009829,292.0248219386401 689.7369849985978,395.12954471353527" />
  <polygon fill="steelblue" points="158.26301500140215,411.0799008362551 158.26301500140215,204.87045528646473 570.6819061009829,85.8153763888497 570.6819061009829,292.0248219386401" />
  <polygon fill="lightskyblue" points="689.7369849985978,395.12954471353527 689.7369849985978,188.9200991637449 570.6819061009829,85.8153763888497 570.6819061009829,292.0248219386401" />
  <polygon fill="white" points="622.2724402899494,336.7035351410947 622.2724402899494,199.23057144123442 598.4614245104265,178.6096268862554 598.4614245104265,316.08259058611566" />
  <polygon fill="white" points="661.9574665891544,371.0717760660597 661.9574665891544,233.5988123661995 638.1464508096315,212.97786781122045 638.1464508096315,350.4508315110807" />
  <polygon fill="white" points="278.5518582387799,321.3663173445066 278.5518582387799,266.3771318645625 312.9200991637449,256.45587528976125 312.9200991637449,311.4450607697054" />
  <polygon fill="white" points="416.0248219386401,281.68129104530163 416.0248219386401,226.6921055653575 450.39306286360517,216.77084899055626 450.39306286360517,271.7600344705004" />
  <polygon fill="grey" points="556.1561783256203,161.03629072108458 556.1561783256203,126.66804979611953 590.5244192505854,116.74679322131828 590.5244192505854,151.11503414628334" />
  <polygon fill="lightgrey" points="556.1561783256203,161.03629072108458 556.1561783256203,126.66804979611953 536.3136651760178,109.48392933363701 536.3136651760178,143.85217025860206" />
  <polygon fill="darkgrey" points="556.1561783256203,126.66804979611953 536.3136651760178,109.48392933363701 570.6819061009829,99.56267275883576 590.5244192505854,116.74679322131828" />
  <polygon fill="hsl(288.0,50.0%,54.496445229397835%)" points="460.4826061800455,403.122469106156 460.4826061800455,355.914253371624 468.73098400203713,353.53315179367166 468.73098400203713,400.7413675282037" />
  <polygon fill="hsl(288.0,50.0%,54.496445229397835%)" points="481.10355073502456,397.16971516127524 481.1035507350245,349.9614994267432 472.8551729130329,352.34260100469555 472.8551729130329,399.55081673922757" />
  <polygon fill="hsl(288.0,50.0%,54.496445229397835%)" points="452.2342283580539,358.7627630261558 452.2342283580539,312.0219553682033 459.4515589522965,309.93849148749507 459.4515589522965,356.67929914544754" />
  <polygon fill="hsl(288.0,50.0%,54.496445229397835%)" points="482.13459796277346,350.1312698060787 482.13459796277346,303.39046214812623 489.35192855701615,301.30699826741795 489.35192855701615,348.0478059253704" />
  <polygon fill="hsl(288.0,50.0%,54.496445229397835%)" points="459.4515589522965,317.1558220817377 459.4515589522965,309.93849148749507 482.13459796277346,303.39046214812623 482.13459796277346,310.6077927423689" />
  <polygon fill="hsl(288.0,50.0%,54.496445229397835%)" points="460.4826061800455,356.3816614482035 460.4826061800455,309.640853790251 481.1035507350245,303.6880998453703 481.1035507350245,350.42890750332276" />
  <polygon fill="hsl(288.0,50.0%,54.496445229397835%)" points="465.63784231879026,305.81562492113324 465.63784231879026,284.7822614750546 475.9483145962798,281.8058845026142 475.9483145962798,302.83924794869284" />
  <polygon fill="hsl(288.0,50.0%,54.496445229397835%)" points="467.6999367742882,307.55738990954274 467.6999367742882,284.1869860805665 473.88622014078186,282.40115989710233 473.88622014078186,305.7715637260785" />
</svg>
