<?xml version="1.0" encoding="UTF-8"?>
<svg
  xmlns="http://www.w3.org/2000/svg"
  width="848"
  height="600"
  style="background-color:white"
>
  <polygon fill="lightblue" points="239.1923788646684,569.8557158514988 89.1923788646684,439.95190528383296 608.8076211353316,289.95190528383284 758.8076211353316,419.85571585149864" />
  <polygon fill="steelblue" points="89.1923788646684,439.95190528383296 89.1923788646684,180.14428414850136 608.8076211353316,30.144284148501242 608.8076211353316,289.95190528383284" />
  <polygon fill="lightskyblue" points="758.8076211353316,419.85571585149864 758.8076211353316,160.04809471616704 608.8076211353316,30.144284148501242 608.8076211353316,289.95190528383284" />
  <polygon fill="white" points="698.8076211353316,367.8941916244323 698.8076211353316,194.68911086754463 668.8076211353316,168.70834875401147 668.8076211353316,341.91342951089916" />
  <polygon fill="white" points="141.77249266586648,355.4913015525064 141.77249266586648,286.2092692497513 185.0737628550884,273.7092692497513 185.0737628550884,342.9913015525064" />
  <polygon fill="white" points="216.0032415616755,334.06273012393495 216.0032415616755,264.78069782117984 259.3045117508974,252.28069782117987 259.3045117508974,321.56273012393495" />
  <polygon fill="white" points="290.23399045748454,312.6341586953635 290.23399045748454,243.35212639260845 333.53526064670643,230.85212639260843 333.53526064670643,300.1341586953635" />
  <polygon fill="white" points="364.4647393532935,291.20558726679207 364.4647393532935,221.923554964037 407.76600954251546,209.423554964037 407.76600954251546,278.70558726679207" />
  <polygon fill="white" points="438.69548824910254,269.7770158382206 438.69548824910254,200.49498353546556 481.9967584383245,187.99498353546556 481.9967584383245,257.2770158382206" />
  <polygon fill="white" points="512.9262371449115,248.34844440964923 512.9262371449115,179.06641210689412 556.2275073341334,166.56641210689412 556.2275073341334,235.84844440964923" />
</svg>
