<?xml version="1.0" encoding="UTF-8"?>
<svg
  xmlns="http://www.w3.org/2000/svg"
  width="848"
  height="600"
  style="background-color:white"
>
  <polygon fill="lightblue" points="277.3180938990171,514.1846236111503 158.26301500140215,411.0799008362551 570.6819061009829,292.0248219386401 689.7369849985978,395.12954471353527" />
  <polygon fill="steelblue" points="158.26301500140215,411.0799008362551 158.26301500140215,204.87045528646473 570.6819061009829,85.8153763888497 570.6819061009829,292.0248219386401" />
  <polygon fill="lightskyblue" points="689.7369849985978,395.12954471353527 689.7369849985978,188.9200991637449 570.6819061009829,85.8153763888497 570.6819061009829,292.0248219386401" />
  <polygon fill="white" points="642.1149534395519,353.88765560357723 642.1149534395519,216.41469190371697 618.3039376600289,195.79374734873792 618.3039376600289,333.26671104859815" />
  <polygon fill="white" points="199.99587898171688,344.0434752297666 199.99587898171688,289.0542897498225 234.36411990668194,279.13303317502124 234.36411990668194,334.12221865496537" />
  <polygon fill="white" points="258.91286342451417,327.0356068158216 258.91286342451417,272.04642133587754 293.28110434947916,262.12516476107623 293.28110434947916,317.11435024102036" />
  <polygon fill="white" points="317.82984786731134,310.0277384018766 317.82984786731134,255.0385529219325 352.1980887922764,245.11729634713126 352.1980887922764,300.10648182707536" />
  <polygon fill="white" points="376.74683231010863,293.0198699879316 376.74683231010863,238.03068450798753 411.1150732350737,228.10942793318628 411.1150732350737,283.09861341313035" />
  <polygon fill="white" points="435.66381675290586,276.0120015739866 435.66381675290586,221.02281609404253 470.0320576778709,211.10155951924128 470.0320576778709,266.09074499918535" />
  <polygon fill="white" points="494.5808011957031,259.00413316004165 494.5808011957031,204.01494768009752 528.9490421206681,194.09369110529627 528.9490421206681,249.08287658524037" />
</svg>
