<?xml version="1.0" encoding="UTF-8"?>
<svg
  xmlns="http://www.w3.org/2000/svg"
  width="848"
  height="600"
  style="background-color:white"
>
  <polygon fill="lightblue" points="307.5784939752995,551.8327211157555 213.08441523318405,469.99844841787643 540.4215060247004,375.50436967576087 634.915584766816,457.33864237364" />
  <polygon fill="steelblue" points="213.08441523318405,469.99844841787643 213.08441523318405,142.66135762636 540.4215060247004,48.16727888424447 540.4215060247004,375.50436967576087" />
  <polygon fill="lightskyblue" points="634.915584766816,457.33864237364 634.915584766816,130.00155158212357 540.4215060247004,48.16727888424447 540.4215060247004,375.50436967576087" />
  <polygon fill="white" points="597.1179532699698,424.6049332944883 597.1179532699698,315.4925696973162 578.2191375215467,299.1257151577404 578.2191375215467,408.2380787549125" />
  <polygon fill="antiquewhite" points="484.377655029686,465.3530748041719 484.377655029686,372.6075657465756 506.2001277491205,366.30796049710125 506.2001277491205,459.0534695546976" />
  <polygon fill="beige" points="484.377655029686,465.3530748041719 484.377655029686,372.6075657465756 471.7784445307373,361.6963293868584 471.7784445307373,454.4418384444547" />
  <polygon fill="bisque" points="484.377655029686,372.6075657465756 471.7784445307373,361.6963293868584 493.60091725017173,355.396724137384 506.2001277491205,366.30796049710125" />
  <polygon fill="antiquewhite" points="325.48894551080696,534.2483749340465 325.48894551080696,441.5028658764502 347.31141823024143,435.2032606269758 347.31141823024143,527.9487696845721" />
  <polygon fill="beige" points="325.48894551080696,534.2483749340465 325.48894551080696,441.5028658764502 312.88973501185825,430.59162951673295 312.88973501185825,523.3371385743293" />
  <polygon fill="bisque" points="325.48894551080696,441.5028658764502 312.88973501185825,430.59162951673295 334.71220773129266,424.29202426725857 347.31141823024143,435.2032606269758" />
</svg>
