<?xml version="1.0" encoding="UTF-8"?>
<svg
  xmlns="http://www.w3.org/2000/svg"
  width="848"
  height="600"
  style="background-color:white"
>
  <polygon fill="lightblue" points="239.1923788646684,569.8557158514988 89.1923788646684,439.95190528383296 608.8076211353316,289.95190528383284 758.8076211353316,419.85571585149864" />
  <polygon fill="steelblue" points="89.1923788646684,439.95190528383296 89.1923788646684,180.14428414850136 608.8076211353316,30.144284148501242 608.8076211353316,289.95190528383284" />
  <polygon fill="lightskyblue" points="758.8076211353316,419.85571585149864 758.8076211353316,160.04809471616704 608.8076211353316,30.144284148501242 608.8076211353316,289.95190528383284" />
  <polygon fill="white" points="698.8076211353316,367.8941916244323 698.8076211353316,194.68911086754463 668.8076211353316,168.70834875401147 668.8076211353316,341.91342951089916" />
  <polygon fill="white" points="154.1442841485013,351.91987298107784 154.1442841485013,282.63784067832273 197.44555433772325,270.13784067832273 197.44555433772325,339.41987298107784" />
  <polygon fill="white" points="240.74682452694518,326.9198729810778 240.74682452694518,257.63784067832273 284.0480947161671,245.13784067832273 284.0480947161671,314.4198729810778" />
  <polygon fill="white" points="327.34936490538905,301.9198729810778 327.34936490538905,232.6378406783227 370.65063509461095,220.1378406783227 370.65063509461095,289.4198729810778" />
  <polygon fill="white" points="413.9519052838329,276.9198729810778 413.9519052838329,207.63784067832268 457.2531754730548,195.13784067832268 457.2531754730548,264.4198729810778" />
  <polygon fill="white" points="500.55444566227675,251.9198729810778 500.55444566227675,182.63784067832268 543.8557158514986,170.13784067832268 543.8557158514986,239.4198729810778" />
</svg>
