<?xml version="1.0" encoding="UTF-8"?>
<svg
  xmlns="http://www.w3.org/2000/svg"
  width="848"
  height="600"
  style="background-color:white"
>
  <polygon fill="lightblue" points="290.7306439140168,525.8252642779962 182.56192614096122,432.14840679174074 557.2693560859832,323.97968901868506 665.4380738590388,417.65654650494054" />
  <polygon fill="steelblue" points="182.56192614096122,432.14840679174074 182.56192614096122,182.34345349505946 557.2693560859832,74.17473572200379 557.2693560859832,323.97968901868506" />
  <polygon fill="lightskyblue" points="665.4380738590388,417.65654650494054 665.4380738590388,167.85159320825926 557.2693560859832,74.17473572200379 557.2693560859832,323.97968901868506" />
  <polygon fill="white" points="622.1705867498165,380.18580351043835 622.1705867498165,255.2833268620977 600.5368431952054,236.54795536484662 600.5368431952054,361.45043201318725" />
  <polygon fill="white" points="220.47874940920752,371.2417720720357 220.47874940920752,321.28078141269947 251.70436857129266,312.2667215982782 251.70436857129266,362.2277122576144" />
  <polygon fill="white" points="274.00838225849634,355.78909810445634 274.00838225849634,305.8281074451201 305.23400142058154,296.8140476306988 305.23400142058154,346.77503829003507" />
  <polygon fill="white" points="327.53801510778516,340.336424136877 327.53801510778516,290.37543347754075 358.76363426987035,281.3613736631194 358.76363426987035,331.32236432245566" />
  <polygon fill="white" points="381.06764795707403,324.8837501692976 381.06764795707403,274.92275950996134 412.29326711915917,265.90869969554 412.29326711915917,315.8696903548763" />
  <polygon fill="white" points="434.5972808063629,309.4310762017182 434.59728080636285,259.470085542382 465.82289996844804,250.45602572796065 465.82289996844804,300.4170163872969" />
  <polygon fill="white" points="488.12691365565166,293.97840223413885 488.12691365565166,244.0174115748026 519.3525328177368,235.0033517603813 519.3525328177368,284.9643424197175" />
</svg>
