<?xml version="1.0" encoding="UTF-8"?>
<svg
  xmlns="http://www.w3.org/2000/svg"
  width="848"
  height="600"
  style="background-color:white"
>
  <polygon fill="lightblue" points="322.7766971053104,495.2402277460959 240.6183134795355,424.0889803923074 525.2233028946896,341.93059676653246 607.3816865204645,413.08184412032097" />
  <polygon fill="steelblue" points="240.6183134795355,424.0889803923074 240.6183134795355,186.918155879679 525.2233028946896,104.75977225390406 525.2233028946896,341.93059676653246" />
  <polygon fill="lightskyblue" points="607.3816865204645,413.08184412032097 607.3816865204645,175.9110196076926 525.2233028946896,104.75977225390406 525.2233028946896,341.93059676653246" />
  <polygon fill="white" points="574.5183330701545,384.62134517880554 574.5183330701545,289.75301537375424 558.0866563449996,275.5227659029965 558.0866563449996,370.3910957080479" />
  <polygon fill="white" points="285.68077013693494,373.1332377295392 285.68077013693494,335.1859058075186 309.39785258819774,328.33937383870403 309.39785258819774,366.2867057607246" />
  <polygon fill="white" points="342.60176801996573,356.7015610043842 342.60176801996573,318.7542290823636 366.31885047122853,311.90769711354903 366.31885047122853,349.8550290355696" />
  <polygon fill="white" points="399.5227659029965,340.2698842792292 399.5227659029965,302.3225523572086 423.2398483542594,295.4760203883941 423.2398483542594,333.42335231041466" />
  <polygon fill="white" points="456.4437637860274,323.8382075540742 456.4437637860274,285.8908756320537 480.1608462372902,279.0443436632391 480.1608462372902,316.9916755852596" />
</svg>
