<?xml version="1.0" encoding="UTF-8"?>
<svg
  xmlns="http://www.w3.org/2000/svg"
  width="848"
  height="600"
  style="background-color:white"
>
  <polygon fill="lightblue" points="331.5961894323342,499.8797632095823 256.5961894323342,434.9278579257494 516.4038105676658,359.9278579257493 591.4038105676658,424.8797632095822" />
  <polygon fill="steelblue" points="256.5961894323342,434.9278579257494 256.5961894323342,175.12023679041778 516.4038105676658,100.12023679041772 516.4038105676658,359.9278579257493" />
  <polygon fill="lightskyblue" points="591.4038105676658,424.8797632095822 591.4038105676658,165.07214207425062 516.4038105676658,100.12023679041772 516.4038105676658,359.9278579257493" />
  <polygon fill="white" points="561.4038105676658,398.89900109604906 561.4038105676658,312.2964607176052 546.4038105676658,299.30607966083863 546.4038105676658,385.9086200392825" />
  <polygon fill="white" points="282.88624633293324,392.6975560600861 282.88624633293324,358.05653990870854 304.5368814275442,351.80653990870854 304.53688142754424,386.4475560600861" />
  <polygon fill="white" points="320.00162078083775,381.9832703458004 320.00162078083775,347.3422541944228 341.6522558754487,341.0922541944228 341.6522558754487,375.7332703458004" />
  <polygon fill="white" points="357.11699522874227,371.2689846315147 357.11699522874227,336.6279684801371 378.7676303233532,330.3779684801371 378.7676303233532,365.0189846315147" />
  <polygon fill="white" points="394.2323696766468,360.55469891722896 394.2323696766468,325.9136827658514 415.88300477125773,319.6636827658514 415.88300477125773,354.30469891722896" />
  <polygon fill="white" points="431.3477441245513,349.84041320294324 431.3477441245513,315.19939705156565 452.99837921916225,308.94939705156565 452.99837921916225,343.59041320294324" />
  <polygon fill="white" points="468.46311857245576,339.1261274886575 468.46311857245576,304.48511133727993 490.1137536670667,298.23511133727993 490.1137536670667,332.8761274886575" />
</svg>
