<?xml version="1.0" encoding="UTF-8"?>
<svg
  xmlns="http://www.w3.org/2000/svg"
  width="848"
  height="600"
  style="background-color:white"
>
  <polygon fill="lightblue" points="277.3180938990171,514.1846236111503 158.26301500140215,411.0799008362551 570.6819061009829,292.0248219386401 689.7369849985978,395.12954471353527" />
  <polygon fill="steelblue" points="158.26301500140215,411.0799008362551 158.26301500140215,204.87045528646473 570.6819061009829,85.8153763888497 570.6819061009829,292.0248219386401" />
  <polygon fill="lightskyblue" points="689.7369849985978,395.12954471353527 689.7369849985978,188.9200991637449 570.6819061009829,85.8153763888497 570.6819061009829,292.0248219386401" />
  <polygon fill="white" points="642.1149534395519,353.88765560357723 642.1149534395519,216.41469190371697 618.3039376600289,195.79374734873792 618.3039376600289,333.26671104859815" />
  <polygon fill="white" points="278.5518582387799,321.3663173445066 278.5518582387799,266.3771318645625 312.9200991637449,256.45587528976125 312.9200991637449,311.4450607697054" />
  <polygon fill="white" points="416.0248219386401,281.68129104530163 416.0248219386401,226.6921055653575 450.39306286360517,216.77084899055626 450.39306286360517,271.7600344705004" />
  <polygon fill="grey" points="556.1561783256203,161.03629072108458 556.1561783256203,126.66804979611953 590.5244192505854,116.74679322131828 590.5244192505854,151.11503414628334" />
  <polygon fill="lightgrey" points="556.1561783256203,161.03629072108458 556.1561783256203,126.66804979611953 536.3136651760178,109.48392933363701 536.3136651760178,143.85217025860206" />
  <polygon fill="darkgrey" points="556.1561783256203,126.66804979611953 536.3136651760178,109.48392933363701 570.6819061009829,99.56267275883576 590.5244192505854,116.74679322131828" />
  <polygon fill="hsl(324.0,50.0%,54.496445229397835%)" points="460.4826061800455,403.122469106156 460.4826061800455,355.914253371624 468.73098400203713,353.53315179367166 468.73098400203713,400.7413675282037" />
  <polygon fill="hsl(324.0,50.0%,54.496445229397835%)" points="481.10355073502456,397.16971516127524 481.1035507350245,349.9614994267432 472.8551729130329,352.34260100469555 472.8551729130329,399.55081673922757" />
  <polygon fill="hsl(324.0,50.0%,54.496445229397835%)" points="452.2342283580539,358.7627630261558 452.2342283580539,312.0219553682033 459.4515589522965,309.93849148749507 459.4515589522965,356.67929914544754" />
  <polygon fill="hsl(324.0,50.0%,54.496445229397835%)" points="482.13459796277346,350.1312698060787 482.13459796277346,303.39046214812623 489.35192855701615,301.30699826741795 489.35192855701615,348.0478059253704" />
  <polygon fill="hsl(324.0,50.0%,54.496445229397835%)" points="459.4515589522965,317.1558220817377 459.4515589522965,309.93849148749507 482.13459796277346,303.39046214812623 482.13459796277346,310.6077927423689" />
  <polygon fill="hsl(324.0,50.0%,54.496445229397835%)" points="460.4826061800455,356.3816614482035 460.4826061800455,309.640853790251 481.1035507350245,303.6880998453703 481.1035507350245,350.42890750332276" />
  <polygon fill="hsl(324.0,50.0%,54.496445229397835%)" points="465.63784231879026,305.81562492113324 465.63784231879026,284.7822614750546 475.9483145962798,281.8058845026142 475.9483145962798,302.83924794869284" />
  <polygon fill="hsl(324.0,50.0%,54.496445229397835%)" points="467.6999367742882,307.55738990954274 467.6999367742882,284.1869860805665 473.88622014078186,282.40115989710233 473.88622014078186,305.7715637260785" />
  <polygon fill="hsl(324.0,50.0%,50.27546059214215%)" points="306.66868105911107,459.1301499993006 306.66868105911107,411.9219342647686 314.91705888110266,409.5408326868163 314.91705888110266,456.74904842134833" />
  <polygon fill="hsl(324.0,50.0%,50.27546059214215%)" points="327.2896256140901,453.1773960544199 327.2896256140901,405.96918031988787 319.0412477920985,408.35028189784015 319.0412477920985,455.55849763237217" />
  <polygon fill="hsl(324.0,50.0%,50.27546059214215%)" points="298.42030323711947,414.7704439193004 298.42030323711947,368.02963626134795 305.6376338313621,365.94617238063967 305.6376338313621,412.6869800385922" />
  <polygon fill="hsl(324.0,50.0%,50.27546059214215%)" points="328.32067284183904,406.13895069922336 328.32067284183904,359.3981430412708 335.5380034360817,357.3146791605626 335.5380034360817,404.0554868185151" />
  <polygon fill="hsl(324.0,50.0%,50.27546059214215%)" points="305.6376338313621,373.16350297488236 305.6376338313621,365.94617238063967 328.32067284183904,359.3981430412708 328.32067284183904,366.6154736355135" />
  <polygon fill="hsl(324.0,50.0%,50.27546059214215%)" points="306.66868105911107,412.3893423413481 306.66868105911107,365.6485346833956 327.2896256140901,359.6957807385149 327.2896256140901,406.43658839646736" />
  <polygon fill="hsl(324.0,50.0%,50.27546059214215%)" points="311.82391719785585,361.82330581427783 311.82391719785585,340.7899423681992 322.13438947534536,337.81356539575887 322.13438947534536,358.84692884183744" />
  <polygon fill="hsl(324.0,50.0%,50.27546059214215%)" points="313.88601165335376,363.5650708026874 313.88601165335376,340.19466697371115 320.07229501984745,338.4088407902469 320.07229501984745,361.77924461922316" />
</svg>
