<?xml version="1.0" encoding="UTF-8"?>
<svg
  xmlns="http://www.w3.org/2000/svg"
  width="848"
  height="600"
  style="background-color:white"
>
  <polygon fill="lightblue" points="310.8289069102114,491.76870629691 218.97304155584223,412.21919341342345 537.1710930897887,320.3633280590542 629.0269584441578,399.9128409425408" />
  <polygon fill="steelblue" points="218.97304155584223,412.21919341342345 218.97304155584223,200.0871590574592 537.1710930897887,108.23129370308999 537.1710930897887,320.3633280590542" />
  <polygon fill="lightskyblue" points="629.0269584441578,399.9128409425408 629.0269584441578,187.78080658657657 537.1710930897887,108.23129370308999 537.1710930897887,320.3633280590542" />
  <polygon fill="white" points="592.2846123024101,368.09303578914614 592.2846123024101,262.02701861116407 573.9134392315362,246.11711603446673 573.9134392315362,352.18313321244887" />
  <polygon fill="white" points="251.17165391344398,360.49784778613366 251.17165391344398,318.07144091494087 277.6881582079395,310.4167854687434 277.6881582079395,352.84319233993625" />
  <polygon fill="white" points="296.6285184182934,347.3755813069381 296.6285184182934,304.94917443574525 323.145022712789,297.29451898954784 323.145022712789,339.72092586074064" />
  <polygon fill="white" points="342.0853829231429,334.2533148277425 342.0853829231429,291.82690795654963 368.6018872176384,284.1722525103522 368.6018872176384,326.5986593815451" />
  <polygon fill="white" points="387.5422474279924,321.13104834854687 387.5422474279924,278.704641477354 414.0587517224879,271.0499860311566 414.0587517224879,313.47639290234946" />
  <polygon fill="white" points="432.99911193284186,308.0087818693513 432.99911193284186,265.58237499815846 459.5156162273374,257.927719551961 459.5156162273374,300.35412642315384" />
  <polygon fill="white" points="478.45597643769133,294.8865153901557 478.45597643769133,252.46010851896284 504.97248073218685,244.8054530727654 504.97248073218685,287.2318599439583" />
</svg>
