<?xml version="1.0" encoding="UTF-8"?>
<svg
  xmlns="http://www.w3.org/2000/svg"
  width="848"
  height="600"
  style="background-color:white"
>
  <polygon fill="lightblue" points="331.5961894323342,499.8797632095823 256.5961894323342,434.9278579257494 516.4038105676658,359.9278579257493 591.4038105676658,424.8797632095822" />
  <polygon fill="steelblue" points="256.5961894323342,434.9278579257494 256.5961894323342,175.12023679041778 516.4038105676658,100.12023679041772 516.4038105676658,359.9278579257493" />
  <polygon fill="lightskyblue" points="591.4038105676658,424.8797632095822 591.4038105676658,165.07214207425062 516.4038105676658,100.12023679041772 516.4038105676658,359.9278579257493" />
  <polygon fill="white" points="561.4038105676658,398.89900109604906 561.4038105676658,312.2964607176052 546.4038105676658,299.30607966083863 546.4038105676658,385.9086200392825" />
  <polygon fill="white" points="297.7323961120951,388.41184177437185 297.73239611209505,353.77082562299427 319.38303120670605,347.52082562299427 319.38303120670605,382.16184177437185" />
  <polygon fill="white" points="349.69392033916137,373.4118417743718 349.69392033916137,338.77082562299427 371.3445554337723,332.52082562299427 371.3445554337723,367.1618417743718" />
  <polygon fill="white" points="401.6554445662277,358.4118417743718 401.6554445662277,323.77082562299427 423.30607966083863,317.52082562299427 423.30607966083863,352.1618417743718" />
  <polygon fill="white" points="453.616968793294,343.4118417743718 453.616968793294,308.77082562299427 475.26760388790495,302.52082562299427 475.26760388790495,337.1618417743718" />
</svg>
