<?xml version="1.0" encoding="UTF-8"?>
<svg
  xmlns="http://www.w3.org/2000/svg"
  width="848"
  height="600"
  style="background-color:white"
>
  <polygon fill="lightblue" points="290.7306439140168,525.8252642779962 182.56192614096122,432.14840679174074 557.2693560859832,323.97968901868506 665.4380738590388,417.65654650494054" />
  <polygon fill="steelblue" points="182.56192614096122,432.14840679174074 182.56192614096122,182.34345349505946 557.2693560859832,74.17473572200379 557.2693560859832,323.97968901868506" />
  <polygon fill="lightskyblue" points="665.4380738590388,417.65654650494054 665.4380738590388,167.85159320825926 557.2693560859832,74.17473572200379 557.2693560859832,323.97968901868506" />
  <polygon fill="white" points="622.1705867498165,380.18580351043835 622.1705867498165,255.2833268620977 600.5368431952054,236.54795536484662 600.5368431952054,361.45043201318725" />
  <polygon fill="antiquewhite" points="493.11516164445345,426.83078145415175 493.1151616444534,320.6636763030622 518.0956569741215,313.4524284515252 518.0956569741215,419.6195336026147" />
  <polygon fill="beige" points="493.11516164445345,426.83078145415175 493.1151616444534,320.6636763030622 478.69266594137935,308.17342863822813 478.69266594137935,414.34053378931765" />
  <polygon fill="bisque" points="493.1151616444534,320.6636763030622 478.69266594137935,308.17342863822813 503.6731612710475,300.9621807866911 518.0956569741215,313.4524284515252" />
  <polygon fill="antiquewhite" points="311.23299287727343,505.6962127578056 311.23299287727343,399.529107606716 336.2134882069415,392.31785975517903 336.2134882069415,498.48496490626854" />
  <polygon fill="beige" points="311.23299287727343,505.6962127578056 311.23299287727343,399.529107606716 296.8104971741993,387.038859941882 296.8104971741993,493.2059650929715" />
  <polygon fill="bisque" points="311.23299287727343,399.529107606716 296.8104971741993,387.038859941882 321.7909925038674,379.8276120903449 336.2134882069415,392.31785975517903" />
  <polygon fill="antiquewhite" points="495.71634435506377,359.1562151345198 495.71634435506377,252.98910998343024 520.6968396847319,245.77786213189322 520.6968396847319,351.94496728298276" />
  <polygon fill="beige" points="495.71634435506377,359.1562151345198 495.71634435506377,252.98910998343024 481.29384865198966,240.4988623185962 481.29384865198966,346.6659674696857" />
  <polygon fill="bisque" points="495.71634435506377,252.98910998343024 481.29384865198966,240.4988623185962 506.2743439816578,233.28761446705914 520.6968396847319,245.77786213189322" />
  <polygon fill="antiquewhite" points="441.2602420289409,393.95092530570946 441.2602420289409,287.7838201546199 466.24073735860907,280.57257230308284 466.24073735860907,386.7396774541724" />
  <polygon fill="beige" points="441.2602420289409,393.95092530570946 441.2602420289409,287.7838201546199 426.8377463258668,275.29357248978584 426.8377463258668,381.46067764087536" />
  <polygon fill="bisque" points="441.2602420289409,287.7838201546199 426.8377463258668,275.29357248978584 451.81824165553496,268.0823246382488 466.24073735860907,280.57257230308284" />
  <polygon fill="antiquewhite" points="401.08645250097595,384.1506540687865 401.0864525009759,277.98354891769696 426.06694783064404,270.7723010661599 426.0669478306441,376.9394062172494" />
  <polygon fill="beige" points="401.08645250097595,384.1506540687865 401.0864525009759,277.98354891769696 386.66395679790185,265.49330125286286 386.66395679790185,371.6604064039524" />
  <polygon fill="bisque" points="401.0864525009759,277.98354891769696 386.66395679790185,265.49330125286286 411.64445212757,258.2820534013258 426.06694783064404,270.7723010661599" />
</svg>
