<?xml version="1.0" encoding="UTF-8"?>
<svg
  xmlns="http://www.w3.org/2000/svg"
  width="848"
  height="600"
  style="background-color:white"
>
  <polygon fill="lightblue" points="300.28368898570704,538.6249020491564 199.86874647338163,451.6630109139285 547.716311014293,351.248068401603 648.1312535266184,438.20995953683087" />
  <polygon fill="steelblue" points="199.86874647338163,451.6630109139285 199.86874647338163,161.79004046316913 547.716311014293,61.37509795084367 547.716311014293,351.248068401603" />
  <polygon fill="lightskyblue" points="648.1312535266184,438.20995953683087 648.1312535266184,148.3369890860715 547.716311014293,61.37509795084367 547.716311014293,351.248068401603" />
  <polygon fill="white" points="607.9652765216881,403.4252030827397 607.9652765216881,287.47601490243596 587.8822880192231,270.08363667539044 587.8822880192231,386.0328248556942" />
  <polygon fill="white" points="254.94461085902594,389.38430307735547 254.94461085902594,343.00462780523395 283.9319079041019,334.63671592920684 283.9319079041019,381.01639120132836" />
  <polygon fill="white" points="324.51412376720816,369.3013145748904 324.51412376720816,322.9216393027689 353.5014208122841,314.5537274267418 353.50142081228415,360.9334026988633" />
  <polygon fill="white" points="394.08363667539044,349.2183260724253 394.08363667539044,302.8386508003038 423.07093372046637,294.47073892427665 423.07093372046637,340.8504141963982" />
  <polygon fill="white" points="463.6531495835727,329.1353375699602 463.6531495835727,282.7556622978387 492.64044662864865,274.3877504218116 492.64044662864865,320.7674256939331" />
  <polygon fill="antiquewhite" points="488.16083250444746,446.72656483627065 488.16083250444746,348.16975488301244 511.3506701405082,341.47542538219074 511.3506701405082,440.03223533544895" />
  <polygon fill="beige" points="488.16083250444746,446.72656483627065 488.16083250444746,348.16975488301244 474.77217350280404,336.57483606498204 474.77217350280404,435.13164601824025" />
  <polygon fill="bisque" points="488.16083250444746,348.16975488301244 474.77217350280404,336.57483606498204 497.9620111388648,329.8805065641604 511.3506701405082,341.47542538219074" />
  <polygon fill="antiquewhite" points="319.3163837878439,519.9387458956897 319.3163837878439,421.38193594243154 342.50622142390466,414.68760644160983 342.50622142390466,513.244416394868" />
  <polygon fill="beige" points="319.3163837878439,519.9387458956897 319.3163837878439,421.38193594243154 305.92772478620054,409.78701712440113 305.92772478620054,508.3438270776593" />
  <polygon fill="bisque" points="319.3163837878439,421.38193594243154 305.92772478620054,409.78701712440113 329.11756242226124,403.0926876235794 342.50622142390466,414.68760644160983" />
</svg>
