<?xml version="1.0" encoding="UTF-8"?>
<svg
  xmlns="http://www.w3.org/2000/svg"
  width="848"
  height="600"
  style="background-color:white"
>
  <polygon fill="lightblue" points="293.32127788025275,490.81680662054487 187.25526070227062,398.96094126617567 554.6787221197472,292.8949240881935 660.7447392977294,384.7507894425627" />
  <polygon fill="steelblue" points="187.25526070227062,398.96094126617567 187.25526070227062,215.24921055743732 554.6787221197472,109.18319337945516 554.6787221197472,292.8949240881935" />
  <polygon fill="lightskyblue" points="660.7447392977294,384.7507894425627 660.7447392977294,201.03905873382433 554.6787221197472,109.18319337945516 554.6787221197472,292.8949240881935" />
  <polygon fill="white" points="618.3183324265365,348.00844330081503 618.3183324265365,225.53395616165614 597.1051289909401,207.16278309078228 597.1051289909401,329.6372702299412" />
  <polygon fill="white" points="224.43501572665815,339.23827562464487 224.43501572665815,290.2484807689813 255.05363751144787,281.40964600414947 255.05363751144787,330.399440859813" />
  <polygon fill="white" points="276.92408164344056,324.0859874563617 276.92408164344056,275.09619260069815 307.54270342823025,266.2573578358663 307.54270342823025,315.24715269152983" />
  <polygon fill="white" points="329.4131475602229,308.9336992880785 329.4131475602229,259.94390443241497 360.0317693450126,251.10506966758314 360.0317693450126,300.09486452324666" />
  <polygon fill="white" points="381.90221347700526,293.7814111197954 381.90221347700526,244.79161626413182 412.52083526179496,235.9527814993 412.52083526179496,284.94257635496353" />
  <polygon fill="white" points="434.39127939378767,278.6291229515122 434.39127939378767,229.63932809584864 465.00990117857737,220.8004933310168 465.00990117857737,269.79028818668036" />
  <polygon fill="white" points="486.88034531056996,263.47683478322904 486.88034531056996,214.4870399275655 517.4989670953597,205.64820516273363 517.4989670953597,254.63800001839718" />
</svg>
