<?xml version="1.0" encoding="UTF-8"?>
<svg
  xmlns="http://www.w3.org/2000/svg"
  width="848"
  height="600"
  style="background-color:white"
>
  <polygon fill="lightblue" points="307.5784939752995,551.8327211157555 213.08441523318405,469.99844841787643 540.4215060247004,375.50436967576087 634.915584766816,457.33864237364" />
  <polygon fill="steelblue" points="213.08441523318405,469.99844841787643 213.08441523318405,142.66135762636 540.4215060247004,48.16727888424447 540.4215060247004,375.50436967576087" />
  <polygon fill="lightskyblue" points="634.915584766816,457.33864237364 634.915584766816,130.00155158212357 540.4215060247004,48.16727888424447 540.4215060247004,375.50436967576087" />
  <polygon fill="white" points="597.1179532699698,424.6049332944883 597.1179532699698,315.4925696973162 578.2191375215467,299.1257151577404 578.2191375215467,408.2380787549125" />
  <polygon fill="white" points="264.91278794184086,411.39194051150594 264.91278794184086,367.7469950726371 292.1908788411339,359.87248851079414 292.1908788411339,403.517433949663" />
  <polygon fill="white" points="330.3802061001441,392.49312476308285 330.3802061001441,348.84817932421396 357.65829699943714,340.973672762371 357.65829699943714,384.6186182012399" />
  <polygon fill="white" points="395.84762425844735,373.59430901465976 395.84762425844735,329.94936357579087 423.1257151577404,322.0748570139479 423.1257151577404,365.7198024528168" />
  <polygon fill="white" points="461.31504241675066,354.6954932662366 461.31504241675066,311.0505478273678 488.5931333160437,303.1760412655248 488.5931333160437,346.82098670439365" />
  <polygon fill="antiquewhite" points="484.377655029686,465.3530748041719 484.377655029686,372.6075657465756 506.2001277491205,366.30796049710125 506.2001277491205,459.0534695546976" />
  <polygon fill="beige" points="484.377655029686,465.3530748041719 484.377655029686,372.6075657465756 471.7784445307373,361.6963293868584 471.7784445307373,454.4418384444547" />
  <polygon fill="bisque" points="484.377655029686,372.6075657465756 471.7784445307373,361.6963293868584 493.60091725017173,355.396724137384 506.2001277491205,366.30796049710125" />
</svg>
