<?xml version="1.0" encoding="UTF-8"?>
<svg
  xmlns="http://www.w3.org/2000/svg"
  width="848"
  height="600"
  style="background-color:white"
>
  <polygon fill="lightblue" points="239.1923788646684,699.7595264191646 89.1923788646684,569.8557158514988 608.8076211353316,419.85571585149864 758.8076211353316,549.7595264191644" />
  <polygon fill="steelblue" points="89.1923788646684,569.8557158514988 89.1923788646684,50.240473580835555 608.8076211353316,-99.75952641916456 608.8076211353316,419.85571585149864" />
  <polygon fill="lightskyblue" points="758.8076211353316,549.7595264191644 758.8076211353316,30.144284148501242 608.8076211353316,-99.75952641916456 608.8076211353316,419.85571585149864" />
  <polygon fill="white" points="698.8076211353316,497.7980021920981 698.8076211353316,324.5929214352104 668.8076211353316,298.61215932167727 668.8076211353316,471.81724007856496" />
  <polygon fill="white" points="154.14428414850136,481.82368354874365 154.1442841485013,412.54165124598853 197.44555433772325,400.04165124598853 197.44555433772325,469.32368354874365" />
  <polygon fill="white" points="240.7468245269452,456.82368354874365 240.74682452694518,387.54165124598853 284.0480947161671,375.0416512459885 284.0480947161671,444.32368354874365" />
  <polygon fill="white" points="327.34936490538905,431.8236835487436 327.34936490538905,362.5416512459885 370.65063509461095,350.0416512459885 370.650635094611,419.3236835487436" />
  <polygon fill="white" points="413.9519052838329,406.8236835487436 413.9519052838329,337.5416512459885 457.2531754730548,325.0416512459885 457.25317547305485,394.3236835487436" />
  <polygon fill="white" points="500.55444566227675,381.8236835487436 500.55444566227675,312.5416512459885 543.8557158514986,300.0416512459885 543.8557158514986,369.3236835487436" />
</svg>
