<?xml version="1.0" encoding="UTF-8"?>
<svg
  xmlns="http://www.w3.org/2000/svg"
  width="848"
  height="600"
  style="background-color:white"
>
  <polygon fill="lightblue" points="290.7306439140168,525.8252642779962 182.56192614096122,432.14840679174074 557.2693560859832,323.97968901868506 665.4380738590388,417.65654650494054" />
  <polygon fill="steelblue" points="182.56192614096122,432.14840679174074 182.56192614096122,182.34345349505946 557.2693560859832,74.17473572200379 557.2693560859832,323.97968901868506" />
  <polygon fill="lightskyblue" points="665.4380738590388,417.65654650494054 665.4380738590388,167.85159320825926 557.2693560859832,74.17473572200379 557.2693560859832,323.97968901868506" />
  <polygon fill="white" points="622.1705867498165,380.18580351043835 622.1705867498165,255.2833268620977 600.5368431952054,236.54795536484662 600.5368431952054,361.45043201318725" />
  <polygon fill="white" points="241.89060254892306,365.06070248500396 241.89060254892306,315.0997118256677 273.1162217110082,306.08565201124645 273.1162217110082,356.0466426705827" />
  <polygon fill="white" points="316.8320885379274,343.42695893039286 316.8320885379274,293.4659682710566 348.05770770001254,284.4519084566353 348.05770770001254,334.4128991159715" />
  <polygon fill="white" points="391.7735745269318,321.79321537578176 391.7735745269318,271.83222471644547 422.9991936890169,262.81816490202414 422.9991936890169,312.7791555613604" />
  <polygon fill="white" points="466.71506051593616,300.1594718211706 466.71506051593616,250.19848116183434 497.9406796780213,241.18442134741304 497.9406796780213,291.14541200674927" />
</svg>
