<?xml version="1.0" encoding="UTF-8"?>
<svg
  xmlns="http://www.w3.org/2000/svg"
  width="848"
  height="600"
  style="background-color:white"
>
  <polygon fill="lightblue" points="277.3180938990171,514.1846236111503 158.26301500140215,411.0799008362551 570.6819061009829,292.0248219386401 689.7369849985978,395.12954471353527" />
  <polygon fill="steelblue" points="158.26301500140215,411.0799008362551 158.26301500140215,204.87045528646473 570.6819061009829,85.8153763888497 570.6819061009829,292.0248219386401" />
  <polygon fill="lightskyblue" points="689.7369849985978,395.12954471353527 689.7369849985978,188.9200991637449 570.6819061009829,85.8153763888497 570.6819061009829,292.0248219386401" />
  <polygon fill="white" points="642.1149534395519,353.88765560357723 642.1149534395519,216.41469190371697 618.3039376600289,195.79374734873792 618.3039376600289,333.26671104859815" />
  <polygon fill="white" points="209.81537638884973,341.2088304941091 209.81537638884973,286.219645014165 244.1836173138148,276.29838843936375 244.1836173138148,331.2875739193079" />
  <polygon fill="white" points="278.5518582387799,321.3663173445066 278.5518582387799,266.3771318645625 312.9200991637449,256.45587528976125 312.9200991637449,311.4450607697054" />
  <polygon fill="white" points="347.28834008871,301.52380419490413 347.28834008871,246.53461871496 381.65658101367507,236.61336214015876 381.65658101367507,291.6025476201029" />
  <polygon fill="white" points="416.0248219386401,281.68129104530163 416.0248219386401,226.6921055653575 450.39306286360517,216.77084899055626 450.39306286360517,271.7600344705004" />
  <polygon fill="white" points="484.7613037885702,261.8387778956991 484.7613037885702,206.849592415755 519.1295447135353,196.92833584095376 519.1295447135353,251.91752132089786" />
  <polygon fill="grey" points="556.1561783256203,161.03629072108458 556.1561783256203,126.66804979611953 590.5244192505854,116.74679322131828 590.5244192505854,151.11503414628334" />
  <polygon fill="lightgrey" points="556.1561783256203,161.03629072108458 556.1561783256203,126.66804979611953 536.3136651760178,109.48392933363701 536.3136651760178,143.85217025860206" />
  <polygon fill="darkgrey" points="556.1561783256203,126.66804979611953 536.3136651760178,109.48392933363701 570.6819061009829,99.56267275883576 590.5244192505854,116.74679322131828" />
  <polygon fill="hsl(360.0,50.0%,66.3472556462705%)" points="531.3134115655088,350.09205622299515 531.3134115655088,302.88384048846314 539.5617893875003,300.50273891051086 539.5617893875003,347.7109546450429" />
  <polygon fill="hsl(360.0,50.0%,66.3472556462705%)" points="551.9343561204878,344.1393022781144 551.9343561204878,296.93108654358235 543.6859782984961,299.3121881215347 543.6859782984961,346.5204038560667" />
  <polygon fill="hsl(360.0,50.0%,66.3472556462705%)" points="523.0650337435171,305.73235014299496 523.0650337435171,258.9915424850425 530.2823643377598,256.9080786043342 530.2823643377598,303.6488862622867" />
  <polygon fill="hsl(360.0,50.0%,66.3472556462705%)" points="552.9654033482368,297.10085692291784 552.9654033482368,250.36004926496537 560.1827339424794,248.27658538425712 560.1827339424794,295.0173930422096" />
  <polygon fill="hsl(360.0,50.0%,66.3472556462705%)" points="530.2823643377598,264.1254091985769 530.2823643377598,256.9080786043342 552.9654033482368,250.36004926496537 552.9654033482368,257.57737985920807" />
  <polygon fill="hsl(360.0,50.0%,66.3472556462705%)" points="531.3134115655088,303.3512485650427 531.3134115655088,256.61044090709015 551.9343561204878,250.65768696220943 551.9343561204878,297.3984946201619" />
  <polygon fill="hsl(360.0,50.0%,66.3472556462705%)" points="536.4686477042535,252.78521203797237 536.4686477042535,231.75184859189375 546.7791199817431,228.77547161945336 546.7791199817431,249.80883506553198" />
  <polygon fill="hsl(360.0,50.0%,66.3472556462705%)" points="538.5307421597514,254.5269770263819 538.5307421597514,231.1565731974057 544.7170255262452,229.37074701394147 544.7170255262452,252.74115084291768" />
  <polygon fill="hsl(360.0,50.0%,57.04478701996097%)" points="361.68928737921055,424.63508173867683 361.68928737921055,377.4268660041448 369.9376652012022,375.04576442619253 369.9376652012022,422.25398016072455" />
  <polygon fill="hsl(360.0,50.0%,57.04478701996097%)" points="382.3102319341896,418.6823277937961 382.3102319341896,371.4741120592641 374.061854112198,373.85521363721637 374.061854112198,421.0634293717484" />
  <polygon fill="hsl(360.0,50.0%,57.04478701996097%)" points="353.4409095572189,380.27537565867664 353.4409095572189,333.53456800072416 360.6582401514616,331.4511041200159 360.6582401514616,378.19191177796836" />
  <polygon fill="hsl(360.0,50.0%,57.04478701996097%)" points="383.34127916193853,371.6438824385996 383.34127916193853,324.9030747806471 390.5586097561812,322.8196108999388 390.5586097561812,369.5604185578913" />
  <polygon fill="hsl(360.0,50.0%,57.04478701996097%)" points="360.6582401514616,338.6684347142586 360.6582401514616,331.4511041200159 383.34127916193853,324.9030747806471 383.34127916193853,332.12040537488974" />
  <polygon fill="hsl(360.0,50.0%,57.04478701996097%)" points="361.68928737921055,377.89427408072436 361.68928737921055,331.1534664227719 382.3102319341896,325.2007124778911 382.3102319341896,371.9415201358436" />
  <polygon fill="hsl(360.0,50.0%,57.04478701996097%)" points="366.8445235179553,327.32823755365405 366.8445235179553,306.2948741075754 377.15499579544485,303.3184971351351 377.15499579544485,324.35186058121366" />
  <polygon fill="hsl(360.0,50.0%,57.04478701996097%)" points="368.9066179734532,329.0700025420636 368.9066179734532,305.69959871308737 375.09290133994693,303.91377252962315 375.09290133994693,327.2841763585994" />
  <polygon fill="hsl(360.0,50.0%,54.496445229397835%)" points="460.4826061800455,403.122469106156 460.4826061800455,355.914253371624 468.73098400203713,353.53315179367166 468.73098400203713,400.7413675282037" />
  <polygon fill="hsl(360.0,50.0%,54.496445229397835%)" points="481.10355073502456,397.16971516127524 481.1035507350245,349.9614994267432 472.8551729130329,352.34260100469555 472.8551729130329,399.55081673922757" />
  <polygon fill="hsl(360.0,50.0%,54.496445229397835%)" points="452.2342283580539,358.7627630261558 452.2342283580539,312.0219553682033 459.4515589522965,309.93849148749507 459.4515589522965,356.67929914544754" />
  <polygon fill="hsl(360.0,50.0%,54.496445229397835%)" points="482.13459796277346,350.1312698060787 482.13459796277346,303.39046214812623 489.35192855701615,301.30699826741795 489.35192855701615,348.0478059253704" />
  <polygon fill="hsl(360.0,50.0%,54.496445229397835%)" points="459.4515589522965,317.1558220817377 459.4515589522965,309.93849148749507 482.13459796277346,303.39046214812623 482.13459796277346,310.6077927423689" />
  <polygon fill="hsl(360.0,50.0%,54.496445229397835%)" points="460.4826061800455,356.3816614482035 460.4826061800455,309.640853790251 481.1035507350245,303.6880998453703 481.1035507350245,350.42890750332276" />
  <polygon fill="hsl(360.0,50.0%,54.496445229397835%)" points="465.63784231879026,305.81562492113324 465.63784231879026,284.7822614750546 475.9483145962798,281.8058845026142 475.9483145962798,302.83924794869284" />
  <polygon fill="hsl(360.0,50.0%,54.496445229397835%)" points="467.6999367742882,307.55738990954274 467.6999367742882,284.1869860805665 473.88622014078186,282.40115989710233 473.88622014078186,305.7715637260785" />
  <polygon fill="hsl(360.0,50.0%,52.725723603274666%)" points="426.09921727140926,417.9166255237941 426.09921727140926,370.7084097892621 434.3475950934009,368.3273082113098 434.3475950934009,415.5355239458418" />
  <polygon fill="hsl(360.0,50.0%,52.725723603274666%)" points="446.7201618263883,411.96387157891337 446.7201618263883,364.75565584438135 438.4717840043967,367.13675742233363 438.4717840043967,414.34497315686565" />
  <polygon fill="hsl(360.0,50.0%,52.725723603274666%)" points="417.85083944941766,373.55691944379396 417.85083944941766,326.81611178584143 425.0681700436603,324.7326479051332 425.0681700436603,371.4734555630857" />
  <polygon fill="hsl(360.0,50.0%,52.725723603274666%)" points="447.75120905413723,364.92542622371684 447.75120905413723,318.18461856576437 454.96853964837993,316.1011546850561 454.96853964837993,362.84196234300856" />
  <polygon fill="hsl(360.0,50.0%,52.725723603274666%)" points="425.0681700436603,331.94997849937585 425.0681700436603,324.7326479051332 447.75120905413723,318.18461856576437 447.75120905413723,325.401949160007" />
  <polygon fill="hsl(360.0,50.0%,52.725723603274666%)" points="426.09921727140926,371.1758178658416 426.09921727140926,324.43501020788915 446.7201618263883,318.4822562630084 446.7201618263883,365.2230639209609" />
  <polygon fill="hsl(360.0,50.0%,52.725723603274666%)" points="431.254453410154,320.6097813387713 431.254453410154,299.57641789269275 441.56492568764355,296.60004092025235 441.56492568764355,317.633404366331" />
  <polygon fill="hsl(360.0,50.0%,52.725723603274666%)" points="433.31654786565196,322.35154632718087 433.31654786565196,298.98114249820463 439.50283123214564,297.1953163147404 439.50283123214564,320.56572014371665" />
  <polygon fill="hsl(360.0,50.0%,50.27546059214215%)" points="306.66868105911107,459.1301499993006 306.66868105911107,411.9219342647686 314.91705888110266,409.5408326868163 314.91705888110266,456.74904842134833" />
  <polygon fill="hsl(360.0,50.0%,50.27546059214215%)" points="327.2896256140901,453.1773960544199 327.2896256140901,405.96918031988787 319.0412477920985,408.35028189784015 319.0412477920985,455.55849763237217" />
  <polygon fill="hsl(360.0,50.0%,50.27546059214215%)" points="298.42030323711947,414.7704439193004 298.42030323711947,368.02963626134795 305.6376338313621,365.94617238063967 305.6376338313621,412.6869800385922" />
  <polygon fill="hsl(360.0,50.0%,50.27546059214215%)" points="328.32067284183904,406.13895069922336 328.32067284183904,359.3981430412708 335.5380034360817,357.3146791605626 335.5380034360817,404.0554868185151" />
  <polygon fill="hsl(360.0,50.0%,50.27546059214215%)" points="305.6376338313621,373.16350297488236 305.6376338313621,365.94617238063967 328.32067284183904,359.3981430412708 328.32067284183904,366.6154736355135" />
  <polygon fill="hsl(360.0,50.0%,50.27546059214215%)" points="306.66868105911107,412.3893423413481 306.66868105911107,365.6485346833956 327.2896256140901,359.6957807385149 327.2896256140901,406.43658839646736" />
  <polygon fill="hsl(360.0,50.0%,50.27546059214215%)" points="311.82391719785585,361.82330581427783 311.82391719785585,340.7899423681992 322.13438947534536,337.81356539575887 322.13438947534536,358.84692884183744" />
  <polygon fill="hsl(360.0,50.0%,50.27546059214215%)" points="313.88601165335376,363.5650708026874 313.88601165335376,340.19466697371115 320.07229501984745,338.4088407902469 320.07229501984745,361.77924461922316" />
</svg>
