<?xml version="1.0" encoding="UTF-8"?>
<svg
  xmlns="http://www.w3.org/2000/svg"
  width="848"
  height="600"
  style="background-color:white"
>
  <polygon fill="lightblue" points="319.296388045146,519.3610479514932 188.25931833470116,405.8796167447756 528.7036119548541,307.60181446194196 659.7406816652988,421.0832456686596" />
  <polygon fill="steelblue" points="188.25931833470116,405.8796167447756 188.25931833470116,178.91675433134043 528.7036119548541,80.63895204850672 528.7036119548541,307.60181446194196" />
  <polygon fill="lightskyblue" points="659.7406816652988,421.0832456686596 659.7406816652988,194.12038325522437 528.7036119548541,80.63895204850672 528.7036119548541,307.60181446194196" />
  <polygon fill="white" points="604.0499270383598,372.8536374058046 604.0499270383598,259.372206199087 584.3943665817931,242.34999151807935 584.3943665817931,355.83142272479694" />
  <polygon fill="white" points="344.29628624393786,315.44305154912314 344.29628624393786,270.0504790664361 372.6666440456173,261.8606622095333 372.6666440456173,307.25323469222036" />
  <polygon fill="grey" points="516.7128878669802,142.73244872860042 516.7128878669802,114.36209092692104 545.0832456686596,106.17227407001823 545.0832456686596,134.54263187169764" />
  <polygon fill="lightgrey" points="516.7128878669802,142.73244872860042 516.7128878669802,114.36209092692104 500.3332541531746,100.17691202608131 500.3332541531746,128.54726982776072" />
  <polygon fill="darkgrey" points="516.7128878669802,114.36209092692104 500.3332541531746,100.17691202608131 528.7036119548541,91.98709516917853 545.0832456686596,106.17227407001823" />
  <polygon fill="hsl(288.0,50.0%,52.57800117743009%)" points="461.65734647334455,420.0273137816265 461.65734647334455,381.0577903052397 468.4662323457476,379.09223425958305 468.4662323457476,418.0617577359699" />
  <polygon fill="hsl(288.0,50.0%,52.57800117743009%)" points="478.67956115435214,415.1134236674849 478.67956115435214,376.14390019109806 471.8706752819491,378.1094562367547 471.8706752819491,417.0789797131415" />
  <polygon fill="hsl(288.0,50.0%,52.57800117743009%)" points="454.84846060094145,383.4091832169992 454.84846060094145,344.82549660671526 460.80623573929415,343.1056350667657 460.80623573929415,381.68932167704963" />
  <polygon fill="hsl(288.0,50.0%,52.57800117743009%)" points="479.53067188840254,376.28404255149377 479.53067188840254,337.7003559412098 485.4884470267552,335.9804944012602 485.48844702675524,374.5641810115442" />
  <polygon fill="hsl(288.0,50.0%,52.57800117743009%)" points="460.80623573929415,349.0634102051183 460.80623573929415,343.1056350667657 479.53067188840254,337.7003559412098 479.53067188840254,343.65813107956245" />
  <polygon fill="hsl(288.0,50.0%,52.57800117743009%)" points="461.65734647334455,381.44362717134254 461.65734647334455,342.8599405610586 478.67956115435214,337.9460504469169 478.67956115435214,376.52973705720086" />
  <polygon fill="hsl(288.0,50.0%,52.57800117743009%)" points="465.9129001435964,339.7022837020089 465.9129001435964,322.33962472738114 474.42400748410023,319.8826796703103 474.42400748410023,337.2453386449381" />
  <polygon fill="hsl(288.0,50.0%,52.57800117743009%)" points="467.6151216116972,341.140079021109 467.6151216116972,321.848235715967 472.72178601599944,320.37406868172445 472.72178601599944,339.6659119868665" />
</svg>
