<?xml version="1.0" encoding="UTF-8"?>
<svg
  xmlns="http://www.w3.org/2000/svg"
  width="848"
  height="600"
  style="background-color:white"
>
  <polygon fill="lightblue" points="284.39518406019465,516.8271097975127 109.67909111293483,365.5185348552224 563.6048159398053,234.48146514477753 738.3209088870651,385.7900400870677" />
  <polygon fill="steelblue" points="109.67909111293483,365.5185348552224 109.67909111293483,214.20995991293228 563.6048159398053,83.17289020248737 563.6048159398053,234.48146514477753" />
  <polygon fill="lightskyblue" points="738.3209088870651,385.7900400870677 738.3209088870651,234.4814651447776 563.6048159398053,83.17289020248737 563.6048159398053,234.48146514477753" />
  <polygon fill="white" points="664.0665693844797,321.4838957365944 664.0665693844797,170.17532079430424 637.8591554423908,147.4790345529607 637.8591554423908,298.7876094952509" />
  <polygon fill="white" points="166.41980671629364,288.6154711645008 166.41980671629364,228.0920411875847 204.2469504518662,217.17228537838093 204.2469504518662,277.695715355297" />
  <polygon fill="white" points="242.07409418743876,266.77595954609325 242.07409418743876,206.2525295691772 279.9012379230113,195.33277375997346 279.9012379230113,255.85620373688954" />
  <polygon fill="white" points="317.7283816585838,244.93644792768578 317.7283816585838,184.41301795076973 355.55552539415635,173.493262141566 355.55552539415635,234.01669211848207" />
  <polygon fill="white" points="393.3826691297289,223.0969363092783 393.3826691297289,162.57350633236223 431.20981286530144,151.6537505231585 431.20981286530144,212.17718050007457" />
  <polygon fill="white" points="469.036956600874,201.25742469087083 469.036956600874,140.73399471395473 506.86410033644654,129.814238904751 506.86410033644654,190.33766888166707" />
  <polygon fill="grey" points="547.6171838226403,165.96421910927893 547.6171838226403,128.1370753737064 585.4443275582129,117.21731956450267 585.4443275582129,155.0444633000752" />
  <polygon fill="lightgrey" points="547.6171838226403,165.96421910927893 547.6171838226403,128.1370753737064 525.7776722042328,109.22350350592012 525.7776722042328,147.05064724149267" />
  <polygon fill="darkgrey" points="547.6171838226403,128.1370753737064 525.7776722042328,109.22350350592012 563.6048159398053,98.30374769671639 585.4443275582129,117.21731956450267" />
  <polygon fill="hsl(360.0,50.0%,52.57800117743009%)" points="474.2097952977927,384.382130904357 474.20979529779265,332.42276626917453 483.2883097943301,329.80202487496564 483.28830979433013,381.7613895101481" />
  <polygon fill="hsl(360.0,50.0%,52.57800117743009%)" points="496.9060815391362,377.8302774188347 496.9060815391362,325.87091278365233 487.8275670425988,328.4916541778612 487.8275670425988,380.4510188130437" />
  <polygon fill="hsl(360.0,50.0%,52.57800117743009%)" points="465.1312808012553,335.5579568181872 465.1312808012553,284.11304133780857 473.0749809857255,281.8198926178758 473.0749809857255,333.26480809825443" />
  <polygon fill="hsl(360.0,50.0%,52.57800117743009%)" points="498.0408958512034,326.05776926417997 498.0408958512034,274.6128537838013 505.98459603567363,272.3197050638685 505.98459603567363,323.7646205442472" />
  <polygon fill="hsl(360.0,50.0%,52.57800117743009%)" points="473.0749809857255,289.763592802346 473.0749809857255,281.8198926178758 498.0408958512034,274.6128537838013 498.0408958512034,282.55655396827154" />
  <polygon fill="hsl(360.0,50.0%,52.57800117743009%)" points="474.20979529779265,332.93721542397833 474.20979529779265,281.4922999435997 496.9060815391362,274.9404464580774 496.9060815391362,326.3853619384561" />
  <polygon fill="hsl(360.0,50.0%,52.57800117743009%)" points="479.88386685812856,277.28209079820016 479.88386685812856,254.1318788320298 491.2320099788003,250.85595208926867 491.2320099788003,274.00616405543906" />
  <polygon fill="hsl(360.0,50.0%,52.57800117743009%)" points="482.15349548226294,279.1991512236669 482.15349548226294,253.47669348347756 488.962381354666,251.5111374378209 488.962381354666,277.2335951780102" />
</svg>
