<?xml version="1.0" encoding="UTF-8"?>
<svg
  xmlns="http://www.w3.org/2000/svg"
  width="848"
  height="600"
  style="background-color:white"
>
  <polygon fill="lightblue" points="354.8012701892219,482.4759526419165 268.1987298107781,407.4759526419165 493.1987298107781,342.5240473580835 579.8012701892219,417.5240473580835" />
  <polygon fill="steelblue" points="268.1987298107781,407.4759526419165 268.1987298107781,182.47595264191648 493.1987298107781,117.52404735808352 493.1987298107781,342.5240473580835" />
  <polygon fill="lightskyblue" points="579.8012701892219,417.5240473580835 579.8012701892219,192.52404735808352 493.1987298107781,117.52404735808352 493.1987298107781,342.5240473580835" />
  <polygon fill="white" points="542.9951905283833,385.6490473580835 542.9951905283833,310.6490473580835 530.0048094716167,299.3990473580835 530.0048094716167,374.3990473580835" />
  <polygon fill="white" points="290.9665869536352,370.9034384167667 290.9665869536352,340.9034384167667 309.7165869536352,335.49077964311397 309.7165869536352,365.49077964311397" />
  <polygon fill="white" points="323.1094440964924,361.62459480479055 323.1094440964924,331.62459480479055 341.8594440964924,326.21193603113784 341.8594440964924,356.21193603113784" />
  <polygon fill="white" points="355.2523012393495,352.3457511928144 355.2523012393495,322.3457511928144 374.0023012393495,316.9330924191617 374.0023012393495,346.9330924191617" />
  <polygon fill="white" points="387.39515838220666,343.0669075808383 387.39515838220666,313.0669075808383 406.14515838220666,307.6542488071856 406.14515838220666,337.6542488071856" />
  <polygon fill="white" points="419.53801552506377,333.78806396886216 419.53801552506377,303.78806396886216 438.28801552506377,298.3754051952094 438.28801552506377,328.37540519520945" />
  <polygon fill="white" points="451.6808726679209,324.50922035688603 451.6808726679209,294.50922035688603 470.4308726679209,289.0965615832333 470.4308726679209,319.0965615832333" />
</svg>
