<?xml version="1.0" encoding="UTF-8"?>
<svg
  xmlns="http://www.w3.org/2000/svg"
  width="848"
  height="600"
  style="background-color:white"
>
  <polygon fill="lightblue" points="326.80177678228483,529.9734653358246 205.15773687081682,424.6266365535251 521.1982232177152,333.393606619924 642.8422631291832,438.7404354022235" />
  <polygon fill="steelblue" points="205.15773687081682,424.6266365535251 205.15773687081682,161.2595645977765 521.1982232177152,70.02653466417544 521.1982232177152,333.393606619924" />
  <polygon fill="lightskyblue" points="642.8422631291832,438.7404354022235 642.8422631291832,175.3733634464749 521.1982232177152,70.02653466417544 521.1982232177152,333.393606619924" />
  <polygon fill="white" points="591.1435461668093,393.9680331697462 591.1435461668093,288.6212043874468 572.8969401800891,272.8191800701019 572.8969401800891,378.1660088524013" />
  <polygon fill="white" points="270.999504859754,363.48102380443845 270.999504859754,321.3422922915187 297.3362120553289,313.7395397970519 297.3362120553289,355.8782713099717" />
  <polygon fill="white" points="350.0096264464786,340.6727663210382 350.0096264464786,298.5340348081184 376.3463336420534,290.93128231365165 376.3463336420534,333.0700138265714" />
  <polygon fill="white" points="429.01974803320314,317.8645088376379 429.01974803320314,275.72577732471814 455.35645522877803,268.1230248302514 455.35645522877803,310.26175634317116" />
  <polygon fill="antiquewhite" points="489.2950035433071,439.37299115188574 489.2950035433071,349.8281866869312 510.36436929976696,343.7459846913578 510.36436929976696,433.29078915631237" />
  <polygon fill="beige" points="489.2950035433071,439.37299115188574 489.2950035433071,349.8281866869312 477.1305995521603,339.2935038087013 477.1305995521603,428.8383082736558" />
  <polygon fill="bisque" points="489.2950035433071,349.8281866869312 477.1305995521603,339.2935038087013 498.19996530862016,333.2113018131279 510.36436929976696,343.7459846913578" />
  <polygon fill="antiquewhite" points="343.5915055243422,512.5606822646039 343.5915055243422,423.0158777996494 364.6608712808021,416.93367580407596 364.6608712808021,506.47848026903046" />
  <polygon fill="beige" points="343.5915055243422,512.5606822646039 343.5915055243422,423.0158777996494 331.4271015331954,412.48119492141944 331.4271015331954,502.0259993863739" />
  <polygon fill="bisque" points="343.5915055243422,423.0158777996494 331.4271015331954,412.48119492141944 352.4964672896553,406.398992925846 364.6608712808021,416.93367580407596" />
</svg>
