<?xml version="1.0" encoding="UTF-8"?>
<svg
  xmlns="http://www.w3.org/2000/svg"
  width="848"
  height="600"
  style="background-color:white"
>
  <polygon fill="lightblue" points="308.75876354285947,510.2124546969536 164.53380651211864,385.309978048613 539.2412364571405,277.14126027555733 683.4661934878814,402.043736923898" />
  <polygon fill="steelblue" points="164.53380651211864,385.309978048613 164.53380651211864,197.95626307610203 539.2412364571405,89.78754530304636 539.2412364571405,277.14126027555733" />
  <polygon fill="lightskyblue" points="683.4661934878814,402.043736923898 683.4661934878814,214.690021951387 539.2412364571405,89.78754530304636 539.2412364571405,277.14126027555733" />
  <polygon fill="white" points="622.1705867498165,348.9601843483532 622.1705867498165,224.05770770001254 600.5368431952054,205.32233620276145 600.5368431952054,330.2248128511021" />
  <polygon fill="white" points="202.45062978036492,324.403343328908 202.45062978036492,274.44235266957173 233.67624894245006,265.42829285515046 233.67624894245006,315.3892835144867" />
  <polygon fill="white" points="255.98026262965377,308.9506693613286 255.98026262965377,258.9896787019924 287.2058817917389,249.97561888757107 287.2058817917389,299.93660954690733" />
  <polygon fill="white" points="309.50989547894255,293.49799539374925 309.50989547894255,243.537004734413 340.73551464102775,234.5229449199917 340.73551464102775,284.4839355793279" />
  <polygon fill="white" points="363.0395283282314,278.04532142616983 363.0395283282314,228.0843307668336 394.26514749031656,219.0702709524123 394.26514749031656,269.03126161174856" />
  <polygon fill="white" points="416.56916117752024,262.5926474585905 416.56916117752024,212.63165679925422 447.79478033960544,203.61759698483291 447.79478033960544,253.57858764416918" />
  <polygon fill="white" points="470.09879402680906,247.13997349101112 470.09879402680906,197.17898283167483 501.32441318889425,188.16492301725356 501.32441318889425,238.1259136765898" />
  <polygon fill="antiquewhite" points="501.41578697328123,402.7937146941281 501.41578697328123,296.6266095430385 526.3962823029494,289.41536169150146 526.3962823029494,395.58246684259103" />
  <polygon fill="beige" points="501.41578697328123,402.7937146941281 501.41578697328123,296.6266095430385 486.9932912702072,284.13636187820447 486.9932912702072,390.303467029294" />
  <polygon fill="bisque" points="501.41578697328123,296.6266095430385 486.9932912702072,284.13636187820447 511.9737865998753,276.9251140266674 526.3962823029494,289.41536169150146" />
</svg>
