<?xml version="1.0" encoding="UTF-8"?>
<svg
  xmlns="http://www.w3.org/2000/svg"
  width="848"
  height="600"
  style="background-color:white"
>
  <polygon fill="lightblue" points="264.1923788646684,634.8076211353316 64.1923788646684,461.6025403784439 583.8076211353316,311.6025403784438 783.8076211353316,484.80762113533154" />
  <polygon fill="steelblue" points="64.1923788646684,461.6025403784439 64.1923788646684,115.19237886466846 583.8076211353316,-34.80762113533166 583.8076211353316,311.6025403784438" />
  <polygon fill="lightskyblue" points="783.8076211353316,484.80762113533154 783.8076211353316,138.39745962155612 583.8076211353316,-34.80762113533166 583.8076211353316,311.6025403784438" />
  <polygon fill="white" points="698.8076211353316,411.1954618136543 698.8076211353316,237.99038105676655 668.8076211353316,212.0096189432334 668.8076211353316,385.2146997001211" />
  <polygon fill="white" points="116.77249266586648,377.14193664711735 116.77249266586648,307.85990434436223 160.07376285508843,295.35990434436223 160.07376285508843,364.64193664711735" />
  <polygon fill="white" points="191.0032415616755,355.7133652185459 191.0032415616755,286.43133291579085 234.30451175089743,273.93133291579085 234.30451175089743,343.2133652185459" />
  <polygon fill="white" points="265.23399045748454,334.28479378997446 265.23399045748454,265.0027614872194 308.53526064670643,252.5027614872194 308.53526064670643,321.78479378997446" />
  <polygon fill="white" points="339.46473935329357,312.85622236140307 339.46473935329357,243.57419005864796 382.76600954251546,231.07419005864796 382.76600954251546,300.356222361403" />
  <polygon fill="white" points="413.6954882491026,291.4276509328316 413.69548824910254,222.1456186300765 456.9967584383245,209.6456186300765 456.9967584383245,278.92765093283157" />
  <polygon fill="white" points="487.92623714491157,269.9990795042602 487.92623714491157,200.71704720150507 531.2275073341334,188.2170472015051 531.2275073341334,257.4990795042602" />
</svg>
