<?xml version="1.0" encoding="UTF-8"?>
<svg
  xmlns="http://www.w3.org/2000/svg"
  width="848"
  height="600"
  style="background-color:white"
>
  <polygon fill="lightblue" points="284.39518406019465,516.8271097975127 109.67909111293483,365.5185348552224 563.6048159398053,234.48146514477753 738.3209088870651,385.7900400870677" />
  <polygon fill="steelblue" points="109.67909111293483,365.5185348552224 109.67909111293483,214.20995991293228 563.6048159398053,83.17289020248737 563.6048159398053,234.48146514477753" />
  <polygon fill="lightskyblue" points="738.3209088870651,385.7900400870677 738.3209088870651,234.4814651447776 563.6048159398053,83.17289020248737 563.6048159398053,234.48146514477753" />
  <polygon fill="white" points="634.9472205599365,296.26579991287934 634.9472205599365,144.95722497058918 608.7398066178475,122.26093872924568 608.7398066178475,273.56951367153584" />
  <polygon fill="white" points="693.185918209023,346.7019915603094 693.185918209023,195.39341661801927 666.9785042669341,172.69713037667574 666.9785042669341,324.0057053189659" />
  <polygon fill="white" points="242.07409418743876,266.77595954609325 242.07409418743876,206.2525295691772 279.9012379230113,195.33277375997346 279.9012379230113,255.85620373688954" />
  <polygon fill="white" points="393.3826691297289,223.0969363092783 393.3826691297289,162.57350633236223 431.20981286530144,151.6537505231585 431.20981286530144,212.17718050007457" />
  <polygon fill="grey" points="547.6171838226403,165.96421910927893 547.6171838226403,128.1370753737064 585.4443275582129,117.21731956450267 585.4443275582129,155.0444633000752" />
  <polygon fill="lightgrey" points="547.6171838226403,165.96421910927893 547.6171838226403,128.1370753737064 525.7776722042328,109.22350350592012 525.7776722042328,147.05064724149267" />
  <polygon fill="darkgrey" points="547.6171838226403,128.1370753737064 525.7776722042328,109.22350350592012 563.6048159398053,98.30374769671639 585.4443275582129,117.21731956450267" />
  <polygon fill="hsl(288.0,50.0%,52.57800117743009%)" points="474.2097952977927,384.382130904357 474.20979529779265,332.42276626917453 483.2883097943301,329.80202487496564 483.28830979433013,381.7613895101481" />
  <polygon fill="hsl(288.0,50.0%,52.57800117743009%)" points="496.9060815391362,377.8302774188347 496.9060815391362,325.87091278365233 487.8275670425988,328.4916541778612 487.8275670425988,380.4510188130437" />
  <polygon fill="hsl(288.0,50.0%,52.57800117743009%)" points="465.1312808012553,335.5579568181872 465.1312808012553,284.11304133780857 473.0749809857255,281.8198926178758 473.0749809857255,333.26480809825443" />
  <polygon fill="hsl(288.0,50.0%,52.57800117743009%)" points="498.0408958512034,326.05776926417997 498.0408958512034,274.6128537838013 505.98459603567363,272.3197050638685 505.98459603567363,323.7646205442472" />
  <polygon fill="hsl(288.0,50.0%,52.57800117743009%)" points="473.0749809857255,289.763592802346 473.0749809857255,281.8198926178758 498.0408958512034,274.6128537838013 498.0408958512034,282.55655396827154" />
  <polygon fill="hsl(288.0,50.0%,52.57800117743009%)" points="474.20979529779265,332.93721542397833 474.20979529779265,281.4922999435997 496.9060815391362,274.9404464580774 496.9060815391362,326.3853619384561" />
  <polygon fill="hsl(288.0,50.0%,52.57800117743009%)" points="479.88386685812856,277.28209079820016 479.88386685812856,254.1318788320298 491.2320099788003,250.85595208926867 491.2320099788003,274.00616405543906" />
  <polygon fill="hsl(288.0,50.0%,52.57800117743009%)" points="482.15349548226294,279.1991512236669 482.15349548226294,253.47669348347756 488.962381354666,251.5111374378209 488.962381354666,277.2335951780102" />
  <polygon fill="hsl(288.0,50.0%,46.24652422154656%)" points="315.9777742555514,455.60662768859356 315.9777742555514,403.6472630534111 325.05628875208885,401.0265216592022 325.05628875208885,452.98588629438467" />
  <polygon fill="hsl(288.0,50.0%,46.24652422154656%)" points="338.6740604968949,449.05477420307136 338.6740604968949,397.0954095678889 329.59554600035756,399.7161509620978 329.59554600035756,451.67551559728025" />
  <polygon fill="hsl(288.0,50.0%,46.24652422154656%)" points="306.899259759014,406.78245360242386 306.899259759014,355.33753812204515 314.84295994348423,353.04438940211236 314.84295994348423,404.489304882491" />
  <polygon fill="hsl(288.0,50.0%,46.24652422154656%)" points="339.8088748089621,397.28226604841655 339.8088748089621,345.8373505680379 347.75257499343235,343.5442018481051 347.75257499343235,394.98911732848376" />
  <polygon fill="hsl(288.0,50.0%,46.24652422154656%)" points="314.84295994348423,360.9880895865826 314.84295994348423,353.04438940211236 339.8088748089621,345.8373505680379 339.8088748089621,353.7810507525081" />
  <polygon fill="hsl(288.0,50.0%,46.24652422154656%)" points="315.9777742555514,404.1617122082149 315.9777742555514,352.71679672783625 338.6740604968949,346.16494324231405 338.6740604968949,397.6098587226927" />
  <polygon fill="hsl(288.0,50.0%,46.24652422154656%)" points="321.6518458158873,348.5065875824368 321.6518458158873,325.3563756162664 332.9999889365591,322.08044887350525 332.9999889365591,345.23066083967564" />
  <polygon fill="hsl(288.0,50.0%,46.24652422154656%)" points="323.92147444002165,350.42364800790347 323.92147444002165,324.70119026771414 330.7303603124247,322.7356342220575 330.7303603124247,348.4580919622468" />
</svg>
