<?xml version="1.0" encoding="UTF-8"?>
<svg
  xmlns="http://www.w3.org/2000/svg"
  width="848"
  height="600"
  style="background-color:white"
>
  <polygon fill="lightblue" points="326.1382178026063,478.5104541496623 203.66373066344735,372.44443697168015 521.8617821973937,280.58857161731095 644.3362693365526,386.6545887952931" />
  <polygon fill="steelblue" points="203.66373066344735,372.44443697168015 203.66373066344735,213.34541120470695 521.8617821973937,121.48954585033772 521.8617821973937,280.58857161731095" />
  <polygon fill="lightskyblue" points="644.3362693365526,386.6545887952931 644.3362693365526,227.55556302831985 521.8617821973937,121.48954585033772 521.8617821973937,280.58857161731095" />
  <polygon fill="white" points="592.2846123024101,341.5765314946507 592.2846123024101,235.51051431666852 573.9134392315362,219.6006117399712 573.9134392315362,325.66662891795335" />
  <polygon fill="white" points="243.43848710519066,318.53604693119115 243.43848710519066,276.1096400599983 269.9549913996862,268.45498461380083 269.9549913996862,310.8813914849937" />
  <polygon fill="white" points="296.4714956941817,303.2267360387963 296.4714956941817,260.8003291676034 322.98799998867725,253.14567372140598 322.98799998867725,295.5720805925988" />
  <polygon fill="white" points="349.50450428317276,287.9174251464014 349.50450428317276,245.49101827520855 376.02100857766834,237.8363628290111 376.02100857766834,280.26276970020393" />
  <polygon fill="white" points="402.53751287216386,272.6081142540065 402.53751287216386,230.18170738281367 429.0540171666594,222.52705193661626 429.0540171666594,264.9534588078091" />
  <polygon fill="white" points="455.5705214611549,257.29880336161165 455.5705214611549,214.8723964904188 482.0870257556504,207.21774104422138 482.0870257556504,249.64414791541424" />
</svg>
