<?xml version="1.0" encoding="UTF-8"?>
<svg
  xmlns="http://www.w3.org/2000/svg"
  width="848"
  height="600"
  style="background-color:white"
>
  <polygon fill="lightblue" points="313.19558415866305,532.142638852698 174.5233292885361,412.04894333509776 534.804415841337,308.0447521825025 673.4766707114638,428.1384477001028" />
  <polygon fill="steelblue" points="174.5233292885361,412.04894333509776 174.5233292885361,171.8615522998972 534.804415841337,67.85736114730193 534.804415841337,308.0447521825025" />
  <polygon fill="lightskyblue" points="673.4766707114638,428.1384477001028 673.4766707114638,187.95105666490224 534.804415841337,67.85736114730193 534.804415841337,308.0447521825025" />
  <polygon fill="white" points="591.4289199133054,357.0830111855226 591.4289199133054,236.9893156679223 570.6280816827864,218.97526134028232 570.6280816827864,339.0689568578826" />
  <polygon fill="white" points="637.6530048700145,397.1142430247227 637.6530048700145,277.02054750712244 616.8521666394954,259.0064931794824 616.8521666394954,379.1001886970827" />
  <polygon fill="white" points="339.6521606252365,316.3428775164515 339.6521606252365,268.30539930941137 369.67558450463656,259.6383833800284 369.67558450463656,307.67586158706854" />
  <polygon fill="hsl(360.0,50.0%,52.57800117743009%)" points="463.85154093741204,427.0209894412474 463.85154093741204,385.78081440050346 471.05716266846804,383.70073057745157 471.0571626684681,424.94090561819553" />
  <polygon fill="hsl(360.0,50.0%,52.57800117743009%)" points="481.8655952650521,421.82077988361766 481.8655952650521,380.58060484287375 474.65997353399604,382.66068866592565 474.65997353399604,423.9008637066696" />
  <polygon fill="hsl(360.0,50.0%,52.57800117743009%)" points="456.645919206356,388.26921678831525 456.645919206356,347.4373603123312 462.95083822103004,345.61728696716074 462.95083822103004,386.4491434431448" />
  <polygon fill="hsl(360.0,50.0%,52.57800117743009%)" points="482.7662979814341,380.7289129297521 482.7662979814341,339.897056453768 489.0712169961081,338.0769831085976 489.0712169961081,378.90883958458164" />
  <polygon fill="hsl(360.0,50.0%,52.57800117743009%)" points="462.95083822103004,351.92220598183474 462.95083822103004,345.61728696716074 482.7662979814341,339.897056453768 482.7662979814341,346.201975468442" />
  <polygon fill="hsl(360.0,50.0%,52.57800117743009%)" points="463.85154093741204,386.1891329652633 463.85154093741204,345.35727648927923 481.8655952650521,340.15706693164947 481.8655952650521,380.9889234076336" />
  <polygon fill="hsl(360.0,50.0%,52.57800117743009%)" points="468.35505451932204,342.0156312760726 468.35505451932204,323.64129586187977 477.36208168314204,321.04119108306486 477.36208168314204,339.4155264972577" />
  <polygon fill="hsl(360.0,50.0%,52.57800117743009%)" points="470.15645995208604,343.53720314410884 470.15645995208604,323.1212749061168 475.56067625037804,321.5612120388279 475.56067625037804,341.9771402768199" />
  <polygon fill="hsl(360.0,50.0%,46.24652422154656%)" points="338.262702608658,483.5519100018488 338.262702608658,442.3117349611049 345.46832433971406,440.231651138053 345.46832433971406,481.47182617879696" />
  <polygon fill="hsl(360.0,50.0%,46.24652422154656%)" points="356.27675693629806,478.3517004442191 356.27675693629806,437.1115254034751 349.07113520524206,439.191609226527 349.07113520524206,480.431784267271" />
  <polygon fill="hsl(360.0,50.0%,46.24652422154656%)" points="331.057080877602,444.8001373489167 331.057080877602,403.96828087293255 337.361999892276,402.1482075277621 337.361999892276,442.98006400374624" />
  <polygon fill="hsl(360.0,50.0%,46.24652422154656%)" points="357.17745965268006,437.25983349035346 357.17745965268006,396.4279770143694 363.48237866735406,394.607903669199 363.48237866735406,435.4397601451831" />
  <polygon fill="hsl(360.0,50.0%,46.24652422154656%)" points="337.361999892276,408.45312654243617 337.361999892276,402.1482075277621 357.17745965268006,396.4279770143694 357.17745965268006,402.7328960290434" />
  <polygon fill="hsl(360.0,50.0%,46.24652422154656%)" points="338.262702608658,442.7200535258647 338.262702608658,401.88819704988066 356.27675693629806,396.68798749225084 356.27675693629806,437.51984396823497" />
  <polygon fill="hsl(360.0,50.0%,46.24652422154656%)" points="342.766216190568,398.546551836674 342.766216190568,380.17221642248114 351.77324335438806,377.5721116436663 351.77324335438806,395.94644705785913" />
  <polygon fill="hsl(360.0,50.0%,46.24652422154656%)" points="344.56762162333206,400.0681237047102 344.56762162333206,379.6521954667182 349.971837921624,378.09213259942925 349.971837921624,398.5080608374213" />
</svg>
