<?xml version="1.0" encoding="UTF-8"?>
<svg
  xmlns="http://www.w3.org/2000/svg"
  width="848"
  height="600"
  style="background-color:white"
>
  <polygon fill="lightblue" points="326.80177678228483,529.9734653358246 205.15773687081682,424.6266365535251 521.1982232177152,333.393606619924 642.8422631291832,438.7404354022235" />
  <polygon fill="steelblue" points="205.15773687081682,424.6266365535251 205.15773687081682,161.2595645977765 521.1982232177152,70.02653466417544 521.1982232177152,333.393606619924" />
  <polygon fill="lightskyblue" points="642.8422631291832,438.7404354022235 642.8422631291832,175.3733634464749 521.1982232177152,70.02653466417544 521.1982232177152,333.393606619924" />
  <polygon fill="grey" points="510.0670210110738,127.66903083023445 510.0670210110738,101.33232363465962 536.4037282066487,93.72957114019283 536.4037282066487,120.06627833576772" />
  <polygon fill="lightgrey" points="510.0670210110738,127.66903083023445 510.0670210110738,101.33232363465962 494.8615160221403,88.16397003687217 494.8615160221403,114.50067723244703" />
  <polygon fill="darkgrey" points="510.0670210110738,101.33232363465962 494.8615160221403,88.16397003687217 521.1982232177152,80.56121754240539 536.4037282066487,93.72957114019283" />
  <polygon fill="hsl(360.0,50.0%,52.57800117743009%)" points="458.9579837788327,437.76019507104184 458.9579837788327,401.5840940672002 465.2787935057707,399.7594334685282 465.2787935057707,435.9355344723698" />
  <polygon fill="hsl(360.0,50.0%,52.57800117743009%)" points="474.7600080961776,433.1985435743618 474.7600080961776,397.0224425705202 468.43919836923965,398.8471031691922 468.43919836923965,435.02320417303383" />
  <polygon fill="hsl(360.0,50.0%,52.57800117743009%)" points="452.6371740518947,403.76693388373207 452.6371740518947,367.94901209775026 458.1678825629654,366.35243407391226 458.1678825629654,402.170355859894" />
  <polygon fill="hsl(360.0,50.0%,52.57800117743009%)" points="475.55010931204487,397.152539213546 475.55010931204487,361.3346174275642 481.0808178231156,359.73803940372613 481.0808178231156,395.55596118970794" />
  <polygon fill="hsl(360.0,50.0%,52.57800117743009%)" points="458.1678825629654,371.883142584983 458.1678825629654,366.35243407391226 475.55010931204487,361.3346174275642 475.55010931204487,366.8653259386349" />
  <polygon fill="hsl(360.0,50.0%,52.57800117743009%)" points="458.9579837788327,401.94227328506 458.95798377883267,366.1243514990782 474.7600080961776,361.5627000023982 474.7600080961776,397.38062178838" />
  <polygon fill="hsl(360.0,50.0%,52.57800117743009%)" points="462.9084898581689,363.19304253560915 462.9084898581689,347.07497773191733 470.8095020168414,344.7941519835773 470.8095020168414,360.9122167872691" />
  <polygon fill="hsl(360.0,50.0%,52.57800117743009%)" points="464.4886922899034,364.5277734752402 464.4886922899034,346.61881258224935 469.2292995851069,345.2503171332453 469.2292995851069,363.1592780262362" />
  <polygon fill="hsl(360.0,50.0%,46.24652422154656%)" points="348.79078648038535,487.34941941405214 348.79078648038535,451.1733184102105 355.11159620732326,449.3486578115385 355.11159620732326,485.5247588153801" />
  <polygon fill="hsl(360.0,50.0%,46.24652422154656%)" points="364.59281079773024,482.78776791737204 364.59281079773024,446.6116669135305 358.27200107079227,448.43632751220247 358.27200107079227,484.6124285160441" />
  <polygon fill="hsl(360.0,50.0%,46.24652422154656%)" points="342.4699767534473,453.3561582267423 342.4699767534473,417.5382364407605 348.00068526451804,415.9416584169225 348.00068526451804,451.7595802029043" />
  <polygon fill="hsl(360.0,50.0%,46.24652422154656%)" points="365.3829120135975,446.74176355655624 365.3829120135975,410.9238417705744 370.9136205246682,409.32726374673643 370.9136205246682,445.14518553271824" />
  <polygon fill="hsl(360.0,50.0%,46.24652422154656%)" points="348.00068526451804,421.4723669279932 348.00068526451804,415.9416584169225 365.3829120135975,410.9238417705744 365.3829120135975,416.45455028164514" />
  <polygon fill="hsl(360.0,50.0%,46.24652422154656%)" points="348.79078648038535,451.53149762807027 348.79078648038535,415.7135758420885 364.59281079773024,411.1519243454085 364.59281079773024,446.9698461313902" />
  <polygon fill="hsl(360.0,50.0%,46.24652422154656%)" points="352.74129255972156,412.7822668786194 352.74129255972156,396.6642020749276 360.642304718394,394.38337632658755 360.642304718394,410.5014411302794" />
  <polygon fill="hsl(360.0,50.0%,46.24652422154656%)" points="354.321494991456,414.11699781825047 354.321494991456,396.2080369252596 359.0621022866595,394.8395414762556 359.0621022866595,412.74850236924647" />
</svg>
