<?xml version="1.0" encoding="UTF-8"?>
<svg
  xmlns="http://www.w3.org/2000/svg"
  width="848"
  height="600"
  style="background-color:white"
>
  <polygon fill="lightblue" points="332.53297000890956,541.1971069207593 218.06154575357638,442.06194550825467 515.4670299910905,356.2083773167547 629.9384542464236,455.3435387292594" />
  <polygon fill="steelblue" points="218.06154575357638,442.06194550825467 218.06154575357638,144.65646127074058 515.4670299910905,58.80289307924065 515.4670299910905,356.2083773167547" />
  <polygon fill="lightskyblue" points="629.9384542464236,455.3435387292594 629.9384542464236,157.93805449174536 515.4670299910905,58.80289307924065 515.4670299910905,356.2083773167547" />
  <polygon fill="white" points="562.2095282286848,396.6885682268608 562.2095282286848,297.5534068143561 545.0388145903848,282.68313260248044 545.0388145903848,381.8182940149851" />
  <polygon fill="white" points="600.3666696471292,429.73362203102903 600.3666696471292,330.59846061852437 583.1959560088292,315.72818640664866 583.1959560088292,414.8633478191533" />
  <polygon fill="white" points="255.23723128326566,391.6761849193153 255.23723128326566,352.0221203543134 280.0210216363918,344.86765633835506 280.0210216363918,384.52172090335694" />
  <polygon fill="white" points="304.80481198951804,377.36725688739864 304.804811989518,337.71319232239676 329.58860234264415,330.5587283064384 329.58860234264415,370.2127928714403" />
  <polygon fill="white" points="354.3723926957704,363.058328855482 354.3723926957704,323.4042642904801 379.15618304889654,316.24980027452176 379.15618304889654,355.90386483952364" />
  <polygon fill="white" points="403.9399734020227,348.74940082356534 403.9399734020227,309.09533625856346 428.72376375514887,301.9408722426051 428.72376375514887,341.594936807607" />
  <polygon fill="white" points="453.50755410827503,334.4404727916487 453.50755410827503,294.78640822664676 478.2913444614012,287.63194421068846 478.2913444614012,327.28600877569033" />
  <polygon fill="grey" points="504.9921676698809,113.04655876613876 504.9921676698809,88.26276841301257 529.7759580230071,81.10830439705424 529.7759580230071,105.8920947501804" />
  <polygon fill="lightgrey" points="504.9921676698809,113.04655876613876 504.9921676698809,88.26276841301257 490.6832396379643,75.87087323644946 490.6832396379643,100.65466358957565" />
  <polygon fill="darkgrey" points="504.9921676698809,88.26276841301257 490.6832396379643,75.87087323644946 515.4670299910905,68.71640922049116 529.7759580230071,81.10830439705424" />
  <polygon fill="hsl(360.0,50.0%,69.21014392802753%)" points="400.31272403254695,426.7866863912926 400.31272403254695,392.7436719622385 406.26083371729726,391.02660059840855 406.26083371729726,425.06961502746265" />
  <polygon fill="hsl(360.0,50.0%,69.21014392802753%)" points="415.18299824442266,422.49400798171763 415.18299824442266,388.45099355266353 409.23488855967236,390.16806491649356 409.23488855967236,424.21107934554766" />
  <polygon fill="hsl(360.0,50.0%,69.21014392802753%)" points="394.36461434779665,394.7978028748711 394.36461434779665,361.09184799461946 399.56921032195316,359.5894105512682 399.56921032195316,393.2953654315198" />
  <polygon fill="hsl(360.0,50.0%,69.21014392802753%)" points="415.92651195501645,388.5734191809873 415.92651195501645,354.8674643007357 421.13110792917297,353.36502685738446 421.13110792917297,387.07098173763603" />
  <polygon fill="hsl(360.0,50.0%,69.21014392802753%)" points="399.56921032195316,364.79400652542466 399.56921032195316,359.5894105512682 415.92651195501645,354.8674643007357 415.92651195501645,360.0720602748922" />
  <polygon fill="hsl(360.0,50.0%,69.21014392802753%)" points="400.31272403254695,393.08073151104105 400.31272403254695,359.3747766307894 415.18299824442266,355.08209822121444 415.18299824442266,388.78805310146606" />
  <polygon fill="hsl(360.0,50.0%,69.21014392802753%)" points="404.0302925855159,356.61630928438314 404.0302925855159,341.4486295882699 411.4654296914537,339.3022903834824 411.4654296914537,354.4699700795956" />
  <polygon fill="hsl(360.0,50.0%,69.21014392802753%)" points="405.51732000670347,357.8723391874382 405.51732000670347,341.0193617473124 409.97840227026614,339.7315582244399 409.97840227026614,356.5845356645657" />
  <polygon fill="hsl(360.0,50.0%,68.65222276527638%)" points="455.0526949516115,412.4595407058432 455.0526949516115,378.4165262767891 461.0008046363618,376.69945491295914 461.0008046363618,410.74246934201324" />
  <polygon fill="hsl(360.0,50.0%,68.65222276527638%)" points="469.92296916348727,408.1668622962682 469.92296916348727,374.1238478672141 463.974859478737,375.84091923104415 463.974859478737,409.88393366009825" />
  <polygon fill="hsl(360.0,50.0%,68.65222276527638%)" points="449.10458526686125,380.4706571894216 449.10458526686125,346.76470230917005 454.30918124101777,345.2622648658188 454.30918124101777,378.9682197460704" />
  <polygon fill="hsl(360.0,50.0%,68.65222276527638%)" points="470.66648287408105,374.2462734955379 470.666482874081,340.54031861528625 475.8710788482375,339.037881171935 475.8710788482376,372.7438360521866" />
  <polygon fill="hsl(360.0,50.0%,68.65222276527638%)" points="454.30918124101777,350.46686083997525 454.30918124101777,345.2622648658188 470.666482874081,340.54031861528625 470.666482874081,345.74491458944277" />
  <polygon fill="hsl(360.0,50.0%,68.65222276527638%)" points="455.0526949516115,378.75358582559164 455.0526949516115,345.04763094534 469.92296916348727,340.754952535765 469.92296916348727,374.46090741601665" />
  <polygon fill="hsl(360.0,50.0%,68.65222276527638%)" points="458.77026350458044,342.28916359893367 458.77026350458044,327.1214839028205 466.2054006105183,324.975144698033 466.2054006105183,340.1428243941462" />
  <polygon fill="hsl(360.0,50.0%,68.65222276527638%)" points="460.257290925768,343.54519350198876 460.257290925768,326.692216061863 464.71837318933075,325.40441253899047 464.71837318933075,342.2573899791163" />
  <polygon fill="hsl(360.0,50.0%,56.400513863274796%)" points="381.27872672421944,466.1449213022511 381.2787267242194,432.101906873197 387.2268364089697,430.38483550936695 387.2268364089697,464.42784993842105" />
  <polygon fill="hsl(360.0,50.0%,56.400513863274796%)" points="396.1490009360951,461.85224289267603 396.1490009360951,427.80922846362193 390.20089125134484,429.52629982745196 390.20089125134484,463.56931425650606" />
  <polygon fill="hsl(360.0,50.0%,56.400513863274796%)" points="375.33061703946913,434.1560377858294 375.33061703946913,400.45008290557786 380.5352130136256,398.9476454622266 380.5352130136256,432.65360034247817" />
  <polygon fill="hsl(360.0,50.0%,56.400513863274796%)" points="396.8925146466889,427.9316540919457 396.8925146466889,394.2256992116941 402.0971106208454,392.72326176834287 402.0971106208454,426.42921664859443" />
  <polygon fill="hsl(360.0,50.0%,56.400513863274796%)" points="380.5352130136256,404.1522414363831 380.5352130136256,398.9476454622266 396.8925146466889,394.2256992116941 396.8925146466889,399.4302951858506" />
  <polygon fill="hsl(360.0,50.0%,56.400513863274796%)" points="381.2787267242194,432.43896642199945 381.2787267242194,398.7330115417478 396.1490009360951,394.4403331321729 396.1490009360951,428.14628801242446" />
  <polygon fill="hsl(360.0,50.0%,56.400513863274796%)" points="384.9962952771883,395.97454419534154 384.9962952771883,380.8068644992283 392.4314323831262,378.6605252944408 392.4314323831262,393.828204990554" />
  <polygon fill="hsl(360.0,50.0%,56.400513863274796%)" points="386.4833226983759,397.2305740983966 386.4833226983759,380.3775966582708 390.94440496193863,379.0897931353983 390.94440496193863,395.9427705755241" />
  <polygon fill="hsl(360.0,50.0%,52.57800117743009%)" points="456.8967222329201,454.4210972606552 456.8967222329201,420.3780828316011 462.84483191767043,418.6610114677711 462.84483191767043,452.7040258968252" />
  <polygon fill="hsl(360.0,50.0%,52.57800117743009%)" points="471.76699644479584,450.1284188510802 471.76699644479584,416.0854044220261 465.81888676004553,417.80247578585613 465.81888676004553,451.8454902149102" />
  <polygon fill="hsl(360.0,50.0%,52.57800117743009%)" points="450.9486125481698,422.4322137442336 450.9486125481698,388.726258863982 456.15320852232634,387.22382142063077 456.15320852232634,420.9297763008824" />
  <polygon fill="hsl(360.0,50.0%,52.57800117743009%)" points="472.5105101553896,416.20783005034986 472.5105101553896,382.5018751700983 477.7151061295461,380.99943772674703 477.7151061295461,414.7053926069986" />
  <polygon fill="hsl(360.0,50.0%,52.57800117743009%)" points="456.15320852232634,392.4284173947873 456.15320852232634,387.22382142063077 472.5105101553896,382.5018751700983 472.5105101553896,387.70647114425475" />
  <polygon fill="hsl(360.0,50.0%,52.57800117743009%)" points="456.8967222329201,420.7151423804036 456.8967222329201,387.009187500152 471.76699644479584,382.716509090577 471.76699644479584,416.42246397082863" />
  <polygon fill="hsl(360.0,50.0%,52.57800117743009%)" points="460.614290785889,384.2507201537457 460.614290785889,369.0830404576325 468.0494278918269,366.93670125284495 468.0494278918269,382.1043809489582" />
  <polygon fill="hsl(360.0,50.0%,52.57800117743009%)" points="462.1013182070766,385.5067500568008 462.1013182070766,368.653772616675 466.5624004706393,367.3659690938025 466.5624004706393,384.21894653392826" />
  <polygon fill="hsl(360.0,50.0%,46.24652422154656%)" points="353.2254203742365,501.086344011692 353.2254203742365,467.0433295826379 359.1735300589867,465.32625821880794 359.1735300589867,499.36927264786203" />
  <polygon fill="hsl(360.0,50.0%,46.24652422154656%)" points="368.09569458611213,496.793665602117 368.09569458611213,462.7506511730629 362.1475849013619,464.4677225368929 362.1475849013619,498.510736965947" />
  <polygon fill="hsl(360.0,50.0%,46.24652422154656%)" points="347.27731068948617,469.0974604952704 347.27731068948617,435.3915056150188 352.48190666364263,433.88906817166753 352.4819066636427,467.59502305191916" />
  <polygon fill="hsl(360.0,50.0%,46.24652422154656%)" points="368.8392082967059,462.8730768013867 368.8392082967059,429.16712192113505 374.04380427086244,427.6646844777838 374.04380427086244,461.3706393580354" />
  <polygon fill="hsl(360.0,50.0%,46.24652422154656%)" points="352.48190666364263,439.09366414582405 352.48190666364263,433.88906817166753 368.8392082967059,429.16712192113505 368.8392082967059,434.37171789529157" />
  <polygon fill="hsl(360.0,50.0%,46.24652422154656%)" points="353.2254203742365,467.38038913144044 353.2254203742365,433.6744342511888 368.09569458611213,429.3817558416138 368.09569458611213,463.0877107218654" />
  <polygon fill="hsl(360.0,50.0%,46.24652422154656%)" points="356.94298892720536,430.9159669047825 356.94298892720536,415.74828720866924 364.3781260331432,413.6019480038818 364.3781260331432,428.769627699995" />
  <polygon fill="hsl(360.0,50.0%,46.24652422154656%)" points="358.43001634839294,432.17199680783756 358.43001634839294,415.3190193677118 362.8910986119556,414.03121584483927 362.8910986119556,430.884193284965" />
</svg>
