<?xml version="1.0" encoding="UTF-8"?>
<svg
  xmlns="http://www.w3.org/2000/svg"
  width="848"
  height="600"
  style="background-color:white"
>
  <polygon fill="lightblue" points="326.80177678228483,529.9734653358246 205.15773687081682,424.6266365535251 521.1982232177152,333.393606619924 642.8422631291832,438.7404354022235" />
  <polygon fill="steelblue" points="205.15773687081682,424.6266365535251 205.15773687081682,161.2595645977765 521.1982232177152,70.02653466417544 521.1982232177152,333.393606619924" />
  <polygon fill="lightskyblue" points="642.8422631291832,438.7404354022235 642.8422631291832,175.3733634464749 521.1982232177152,70.02653466417544 521.1982232177152,333.393606619924" />
  <polygon fill="white" points="591.1435461668093,393.9680331697462 591.1435461668093,288.6212043874468 572.8969401800891,272.8191800701019 572.8969401800891,378.1660088524013" />
  <polygon fill="white" points="255.1974805424091,368.0426753011185 255.1974805424091,325.9039437881987 281.534187737984,318.30119129373196 281.534187737984,360.43992280665174" />
  <polygon fill="white" points="318.4055778117887,349.79606931439827 318.4055778117887,307.6573378014785 344.7422850073636,300.05458530701173 344.7422850073636,342.1933168199315" />
  <polygon fill="white" points="381.61367508116837,331.5494633276781 381.61367508116837,289.4107318147583 407.95038227674326,281.80797932029157 407.95038227674326,323.94671083321134" />
  <polygon fill="white" points="444.82177235054803,313.30285734095787 444.82177235054803,271.1641258280381 471.1584795461229,263.56137333357134 471.1584795461229,305.7001048464911" />
  <polygon fill="antiquewhite" points="489.2950035433071,439.37299115188574 489.2950035433071,349.8281866869312 510.36436929976696,343.7459846913578 510.36436929976696,433.29078915631237" />
  <polygon fill="beige" points="489.2950035433071,439.37299115188574 489.2950035433071,349.8281866869312 477.1305995521603,339.2935038087013 477.1305995521603,428.8383082736558" />
  <polygon fill="bisque" points="489.2950035433071,349.8281866869312 477.1305995521603,339.2935038087013 498.19996530862016,333.2113018131279 510.36436929976696,343.7459846913578" />
</svg>
