<?xml version="1.0" encoding="UTF-8"?>
<svg
  xmlns="http://www.w3.org/2000/svg"
  width="848"
  height="600"
  style="background-color:white"
>
  <polygon fill="lightblue" points="348.19658946386335,479.35279502200035 253.32825965881196,397.1944113962254 499.80341053613665,326.0431640424369 594.6717403411881,408.2015476682118" />
  <polygon fill="steelblue" points="253.32825965881196,397.1944113962254 253.32825965881196,191.7984523317882 499.80341053613665,120.64720497799965 499.80341053613665,326.0431640424369" />
  <polygon fill="lightskyblue" points="594.6717403411881,408.2015476682118 594.6717403411881,202.80558860377457 499.80341053613665,120.64720497799965 499.80341053613665,326.0431640424369" />
  <polygon fill="white" points="554.3527001740412,373.28423462725743 554.3527001740412,291.12585100148254 540.1224507032834,278.8020934576163 540.1224507032834,360.9604770833912" />
  <polygon fill="white" points="278.26919754520793,357.1312293446393 278.26919754520793,324.2678758943293 298.80879345165164,318.3386052815136 298.80879345165164,351.20195873182354" />
  <polygon fill="white" points="313.47993338482576,346.9667654369552 313.47993338482576,314.1034119866452 334.01952929126946,308.1741413738295 334.01952929126946,341.03749482413946" />
  <polygon fill="white" points="348.6906692244435,336.8023015292711 348.6906692244435,303.9389480789611 369.2302651308873,298.00967746614543 369.2302651308873,330.8730309164554" />
  <polygon fill="white" points="383.90140506406135,326.63783762158704 383.90140506406135,293.77448417127704 404.44100097050506,287.84521355846135 404.4410009705051,320.7085670087713" />
  <polygon fill="white" points="419.1121409036792,316.47337371390296 419.1121409036792,283.610020263593 439.6517368101229,277.6807496507773 439.6517368101229,310.5441031010872" />
  <polygon fill="white" points="454.32287674329694,306.3089098062189 454.32287674329694,273.44555635590893 474.8624726497407,267.5162857430932 474.8624726497407,300.3796391934032" />
</svg>
