<?xml version="1.0" encoding="UTF-8"?>
<svg
  xmlns="http://www.w3.org/2000/svg"
  width="848"
  height="600"
  style="background-color:white"
>
  <polygon fill="lightblue" points="326.1382178026063,478.5104541496623 203.66373066344735,372.44443697168015 521.8617821973937,280.58857161731095 644.3362693365526,386.6545887952931" />
  <polygon fill="steelblue" points="203.66373066344735,372.44443697168015 203.66373066344735,213.34541120470695 521.8617821973937,121.48954585033772 521.8617821973937,280.58857161731095" />
  <polygon fill="lightskyblue" points="644.3362693365526,386.6545887952931 644.3362693365526,227.55556302831985 521.8617821973937,121.48954585033772 521.8617821973937,280.58857161731095" />
  <polygon fill="white" points="592.2846123024101,341.5765314946507 592.2846123024101,235.51051431666852 573.9134392315362,219.6006117399712 573.9134392315362,325.66662891795335" />
  <polygon fill="white" points="235.8623430210491,320.7230913443904 235.8623430210491,278.29668447319756 262.3788473155446,270.6420290270001 262.3788473155446,313.06843589819294" />
  <polygon fill="white" points="281.3192075258986,307.6008248651948 281.3192075258986,265.17441799400194 307.8357118203941,257.51976254780453 307.8357118203941,299.94616941899733" />
  <polygon fill="white" points="326.776072030748,294.4785583859992 326.776072030748,252.05215151480635 353.29257632524354,244.39749606860892 353.29257632524354,286.82390293980177" />
  <polygon fill="white" points="372.2329365355975,281.3562919068036 372.2329365355975,238.92988503561074 398.749440830093,231.2752295894133 398.749440830093,273.70163646060615" />
  <polygon fill="white" points="417.689801040447,268.234025427608 417.689801040447,225.80761855641515 444.2063053349425,218.15296311021768 444.2063053349425,260.57936998141054" />
  <polygon fill="white" points="463.14666554529646,255.1117589484124 463.14666554529646,212.68535207721953 489.663169839792,205.03069663102212 489.663169839792,247.45710350221498" />
</svg>
