<?xml version="1.0" encoding="UTF-8"?>
<svg
  xmlns="http://www.w3.org/2000/svg"
  width="848"
  height="600"
  style="background-color:white"
>
  <polygon fill="lightblue" points="326.80177678228483,529.9734653358246 205.15773687081682,424.6266365535251 521.1982232177152,333.393606619924 642.8422631291832,438.7404354022235" />
  <polygon fill="steelblue" points="205.15773687081682,424.6266365535251 205.15773687081682,161.2595645977765 521.1982232177152,70.02653466417544 521.1982232177152,333.393606619924" />
  <polygon fill="lightskyblue" points="642.8422631291832,438.7404354022235 642.8422631291832,175.3733634464749 521.1982232177152,70.02653466417544 521.1982232177152,333.393606619924" />
  <polygon fill="white" points="297.3362120553289,355.8782713099717 297.3362120553289,313.7395397970519 323.6729192509037,306.13678730258516 323.6729192509037,348.27551881550494" />
  <polygon fill="white" points="402.6830408376283,325.46726133210467 402.6830408376283,283.3285298191849 429.01974803320314,275.72577732471814 429.01974803320314,317.8645088376379" />
  <polygon fill="hsl(324.0,50.0%,52.57800117743009%)" points="458.9579837788327,437.76019507104184 458.9579837788327,401.5840940672002 465.2787935057707,399.7594334685282 465.2787935057707,435.9355344723698" />
  <polygon fill="hsl(324.0,50.0%,52.57800117743009%)" points="474.7600080961776,433.1985435743618 474.7600080961776,397.0224425705202 468.43919836923965,398.8471031691922 468.43919836923965,435.02320417303383" />
  <polygon fill="hsl(324.0,50.0%,52.57800117743009%)" points="452.6371740518947,403.76693388373207 452.6371740518947,367.94901209775026 458.1678825629654,366.35243407391226 458.1678825629654,402.170355859894" />
  <polygon fill="hsl(324.0,50.0%,52.57800117743009%)" points="475.55010931204487,397.152539213546 475.55010931204487,361.3346174275642 481.0808178231156,359.73803940372613 481.0808178231156,395.55596118970794" />
  <polygon fill="hsl(324.0,50.0%,52.57800117743009%)" points="458.1678825629654,371.883142584983 458.1678825629654,366.35243407391226 475.55010931204487,361.3346174275642 475.55010931204487,366.8653259386349" />
  <polygon fill="hsl(324.0,50.0%,52.57800117743009%)" points="458.9579837788327,401.94227328506 458.95798377883267,366.1243514990782 474.7600080961776,361.5627000023982 474.7600080961776,397.38062178838" />
  <polygon fill="hsl(324.0,50.0%,52.57800117743009%)" points="462.9084898581689,363.19304253560915 462.9084898581689,347.07497773191733 470.8095020168414,344.7941519835773 470.8095020168414,360.9122167872691" />
  <polygon fill="hsl(324.0,50.0%,52.57800117743009%)" points="464.4886922899034,364.5277734752402 464.4886922899034,346.61881258224935 469.2292995851069,345.2503171332453 469.2292995851069,363.1592780262362" />
</svg>
