<?xml version="1.0" encoding="UTF-8"?>
<svg
  xmlns="http://www.w3.org/2000/svg"
  width="848"
  height="600"
  style="background-color:white"
>
  <polygon fill="lightblue" points="308.75876354285947,510.2124546969536 164.53380651211864,385.309978048613 539.2412364571405,277.14126027555733 683.4661934878814,402.043736923898" />
  <polygon fill="steelblue" points="164.53380651211864,385.309978048613 164.53380651211864,197.95626307610203 539.2412364571405,89.78754530304636 539.2412364571405,277.14126027555733" />
  <polygon fill="lightskyblue" points="683.4661934878814,402.043736923898 683.4661934878814,214.690021951387 539.2412364571405,89.78754530304636 539.2412364571405,277.14126027555733" />
  <polygon fill="white" points="223.86248292008045,318.2222737418762 223.86248292008045,268.26128308254 255.08810208216562,259.24722326811866 255.08810208216562,309.20821392745495" />
  <polygon fill="white" points="298.8039689090848,296.5885301872651 298.8039689090848,246.62753952792886 330.02958807117,237.61347971350756 330.02958807117,287.5744703728438" />
  <polygon fill="white" points="373.7454548980892,274.95478663265396 373.7454548980892,224.99379597331773 404.9710740601743,215.97973615889643 404.9710740601743,265.9407268182327" />
  <polygon fill="white" points="448.68694088709356,253.32104307804286 448.68694088709356,203.36005241870657 479.9125600491787,194.3459926042853 479.9125600491787,244.30698326362153" />
  <polygon fill="hsl(360.0,50.0%,52.57800117743009%)" points="465.44727281380074,400.88153350030757 465.44727281380074,357.9900230192674 472.9414214127012,355.8266486638063 472.9414214127012,398.7181591448465" />
  <polygon fill="hsl(360.0,50.0%,52.57800117743009%)" points="484.18264431105183,395.4730976116548 484.18264431105183,352.5815871306146 476.6884957121514,354.74496148607574 476.6884957121514,397.63647196711594" />
  <polygon fill="hsl(360.0,50.0%,52.57800117743009%)" points="457.9531242149003,360.57806579533286 457.9531242149003,318.11122373489707 464.51050423893815,316.2182711738686 464.51050423893815,358.6851132343044" />
  <polygon fill="hsl(360.0,50.0%,52.57800117743009%)" points="485.11941288591436,352.73583375678635 485.11941288591436,310.2689916963505 491.67679290995227,308.37603913532206 491.67679290995227,350.84288119575785" />
  <polygon fill="hsl(360.0,50.0%,52.57800117743009%)" points="464.51050423893815,322.7756511979065 464.51050423893815,316.2182711738686 485.11941288591436,310.2689916963505 485.11941288591436,316.8263717203884" />
  <polygon fill="hsl(360.0,50.0%,52.57800117743009%)" points="465.44727281380074,358.4146914398718 465.44727281380074,315.9478493794359 484.18264431105183,310.53941349078315 484.18264431105183,353.006255551219" />
  <polygon fill="hsl(360.0,50.0%,52.57800117743009%)" points="470.1311156881135,312.472398304251 470.1311156881135,293.36231937705486 479.4988014367391,290.6581014327285 479.4988014367391,309.76818035992454" />
  <polygon fill="hsl(360.0,50.0%,52.57800117743009%)" points="472.0046528378386,314.0548968184075 472.0046528378386,292.82147578818956 477.6252642870139,291.1989450215937 477.6252642870139,312.43236605181164" />
</svg>
