<?xml version="1.0" encoding="UTF-8"?>
<svg
  xmlns="http://www.w3.org/2000/svg"
  width="848"
  height="600"
  style="background-color:white"
>
  <polygon fill="lightblue" points="332.53297000890956,541.1971069207593 218.06154575357638,442.06194550825467 515.4670299910905,356.2083773167547 629.9384542464236,455.3435387292594" />
  <polygon fill="steelblue" points="218.06154575357638,442.06194550825467 218.06154575357638,144.65646127074058 515.4670299910905,58.80289307924065 515.4670299910905,356.2083773167547" />
  <polygon fill="lightskyblue" points="629.9384542464236,455.3435387292594 629.9384542464236,157.93805449174536 515.4670299910905,58.80289307924065 515.4670299910905,356.2083773167547" />
  <polygon fill="white" points="581.2880989379071,413.2110951289449 581.2880989379071,314.07593371644026 564.117385299607,299.20565950456455 564.117385299607,398.3408209170692" />
  <polygon fill="white" points="255.23723128326566,391.6761849193153 255.23723128326566,352.0221203543134 280.0210216363918,344.86765633835506 280.0210216363918,384.52172090335694" />
  <polygon fill="white" points="304.80481198951804,377.36725688739864 304.804811989518,337.71319232239676 329.58860234264415,330.5587283064384 329.58860234264415,370.2127928714403" />
  <polygon fill="white" points="354.3723926957704,363.058328855482 354.3723926957704,323.4042642904801 379.15618304889654,316.24980027452176 379.15618304889654,355.90386483952364" />
  <polygon fill="white" points="403.9399734020227,348.74940082356534 403.9399734020227,309.09533625856346 428.72376375514887,301.9408722426051 428.72376375514887,341.594936807607" />
  <polygon fill="white" points="453.50755410827503,334.4404727916487 453.50755410827503,294.78640822664676 478.2913444614012,287.63194421068846 478.2913444614012,327.28600877569033" />
  <polygon fill="antiquewhite" points="485.44495084016637,455.93879647996744 485.44495084016637,371.67390927933843 505.2719831226673,365.95033806657176 505.2719831226673,450.2152252672008" />
  <polygon fill="beige" points="485.44495084016637,455.93879647996744 485.44495084016637,371.67390927933843 473.997808414633,361.760393138088 473.997808414633,446.0252803387169" />
  <polygon fill="bisque" points="485.44495084016637,371.67390927933843 473.997808414633,361.760393138088 493.824840697134,356.0368219253213 505.2719831226673,365.95033806657176" />
  <polygon fill="antiquewhite" points="348.3327096703249,524.811050687651 348.3327096703249,440.54616348702206 368.1597419528258,434.8225922742554 368.15974195282587,519.0874794748844" />
  <polygon fill="beige" points="348.3327096703249,524.811050687651 348.3327096703249,440.54616348702206 336.88556724479156,430.6326473457716 336.88556724479156,514.8975345464006" />
  <polygon fill="bisque" points="348.3327096703249,440.54616348702206 336.88556724479156,430.6326473457716 356.7125995272925,424.90907613300493 368.1597419528258,434.8225922742554" />
  <polygon fill="antiquewhite" points="469.1091205361927,386.29025207941464 469.1091205361927,302.02536487878564 488.93615281869364,296.30179366601897 488.93615281869364,380.56668086664797" />
  <polygon fill="beige" points="469.1091205361927,386.29025207941464 469.1091205361927,302.02536487878564 457.66197811065933,292.1118487375352 457.66197811065933,376.37673593816413" />
  <polygon fill="bisque" points="469.1091205361927,302.02536487878564 457.66197811065933,292.1118487375352 477.4890103931603,286.3882775247685 488.93615281869364,296.30179366601897" />
  <polygon fill="antiquewhite" points="431.13176362759845,418.4486848838959 431.13176362759845,334.1837976832669 450.9587959100994,328.4602264705003 450.9587959100994,412.7251136711293" />
  <polygon fill="beige" points="431.13176362759845,418.4486848838959 431.13176362759845,334.1837976832669 419.68462120206516,324.27028154201645 419.68462120206516,408.53516874264545" />
  <polygon fill="bisque" points="431.13176362759845,334.1837976832669 419.68462120206516,324.27028154201645 439.51165348456607,318.5467103292498 450.9587959100994,328.4602264705003" />
</svg>
