<?xml version="1.0" encoding="UTF-8"?>
<svg
  xmlns="http://www.w3.org/2000/svg"
  width="848"
  height="600"
  style="background-color:white"
>
  <polygon fill="lightblue" points="332.53297000890956,541.1971069207593 218.06154575357638,442.06194550825467 515.4670299910905,356.2083773167547 629.9384542464236,455.3435387292594" />
  <polygon fill="steelblue" points="218.06154575357638,442.06194550825467 218.06154575357638,144.65646127074058 515.4670299910905,58.80289307924065 515.4670299910905,356.2083773167547" />
  <polygon fill="lightskyblue" points="629.9384542464236,455.3435387292594 629.9384542464236,157.93805449174536 515.4670299910905,58.80289307924065 515.4670299910905,356.2083773167547" />
  <polygon fill="white" points="581.2880989379071,413.2110951289449 581.2880989379071,314.07593371644026 564.117385299607,299.20565950456455 564.117385299607,398.3408209170692" />
  <polygon fill="white" points="248.15614832522962,393.72031749530333 248.15614832522962,354.06625293030146 272.9399386783558,346.91178891434316 272.9399386783558,386.56585347934504" />
  <polygon fill="white" points="290.6426460734459,381.4555220393748 290.6426460734459,341.8014574743729 315.4264364265721,334.6469934584146 315.4264364265721,374.3010580234165" />
  <polygon fill="white" points="333.1291438216622,369.19072658344624 333.1291438216622,329.53666201844436 357.91293417478835,322.38219800248606 357.91293417478835,362.03626256748794" />
  <polygon fill="white" points="375.61564156987845,356.9259311275177 375.61564156987845,317.2718665625158 400.39943192300467,310.11740254655746 400.39943192300467,349.7714671115594" />
  <polygon fill="white" points="418.10213931809477,344.66113567158914 418.10213931809477,305.00707110658726 442.88592967122094,297.8526070906289 442.88592967122094,337.50667165563084" />
  <polygon fill="white" points="460.58863706631104,332.3963402156606 460.58863706631104,292.7422756506587 485.3724274194372,285.58781163470036 485.3724274194372,325.24187619970223" />
</svg>
