<?xml version="1.0" encoding="UTF-8"?>
<svg
  xmlns="http://www.w3.org/2000/svg"
  width="848"
  height="600"
  style="background-color:white"
>
  <polygon fill="lightblue" points="302.04396001187934,522.4609811485079 149.41539433810175,390.2807659318349 545.9560399881207,275.8093416765016 698.5846056618982,407.9895568931746" />
  <polygon fill="steelblue" points="149.41539433810175,390.2807659318349 149.41539433810175,192.0104431068254 545.9560399881207,77.53901885149213 545.9560399881207,275.8093416765016" />
  <polygon fill="lightskyblue" points="698.5846056618982,407.9895568931746 698.5846056618982,209.71923406816512 545.9560399881207,77.53901885149213 545.9560399881207,275.8093416765016" />
  <polygon fill="white" points="198.9829750443541,323.09975181324904 198.9829750443541,270.2276657265798 232.02802884852235,260.6883803719687 232.02802884852235,313.5604664586379" />
  <polygon fill="white" points="265.0730826526906,304.0211811040268 265.0730826526906,251.1490950173576 298.1181364568588,241.6098096627465 298.1181364568588,294.4818957494157" />
  <polygon fill="white" points="331.16319026102707,284.9426103948046 331.16319026102707,232.07052430813542 364.2082440651953,222.5312389535243 364.20824406519534,275.4033250401935" />
  <polygon fill="white" points="397.25329786936356,265.8640396855824 397.25329786936356,212.9919535989132 430.2983516735318,203.45266824430212 430.2983516735318,256.3247543309713" />
  <polygon fill="white" points="463.34340547770006,246.78546897636016 463.34340547770006,193.91338288969098 496.3884592818683,184.3740975350799 496.3884592818683,237.24618362174908" />
  <polygon fill="hsl(360.0,50.0%,52.57800117743009%)" points="467.86229631056017,406.75963493503565 467.86229631056017,361.36894902963013 475.7931092235606,359.07952054452346 475.7931092235606,404.470206449929" />
  <polygon fill="hsl(360.0,50.0%,52.57800117743009%)" points="487.68932859306113,401.036063722269 487.68932859306113,355.64537781686346 479.7585156800607,357.9348063019701 479.7585156800607,403.32549220737565" />
  <polygon fill="hsl(360.0,50.0%,52.57800117743009%)" points="459.9314833975598,364.1077902464735 459.93148339755976,319.1665170728047 466.8709446964351,317.16326714833633 466.8709446964351,362.10454032200516" />
  <polygon fill="hsl(360.0,50.0%,52.57800117743009%)" points="488.68068020718613,355.80861198796185 488.68068020718613,310.867338814293 495.6201415060615,308.8640888898247 495.6201415060615,353.8053620634935" />
  <polygon fill="hsl(360.0,50.0%,52.57800117743009%)" points="466.8709446964351,324.1027284472117 466.8709446964351,317.16326714833633 488.68068020718613,310.867338814293 488.68068020718613,317.8068001131684" />
  <polygon fill="hsl(360.0,50.0%,52.57800117743009%)" points="467.86229631056017,361.8183617613668 467.86229631056017,316.87708858769804 487.68932859306113,311.15351737493137 487.68932859306113,356.09479054860014" />
  <polygon fill="hsl(360.0,50.0%,52.57800117743009%)" points="472.8190543811854,313.1991321258229 472.8190543811854,292.97555919767194 482.7325705224359,290.11377359128863 482.7325705224359,310.33734651943956" />
  <polygon fill="hsl(360.0,50.0%,52.57800117743009%)" points="474.8017576094355,314.87383866322966 474.8017576094355,292.4032020763953 480.7498672941858,290.6861307125653 480.7498672941858,313.1567672993997" />
  <polygon fill="hsl(360.0,50.0%,46.24652422154656%)" points="329.6338938323152,468.9799639364181 329.6338938323152,423.58927803101255 337.56470674531556,421.2998495459059 337.56470674531556,466.69053545131146" />
  <polygon fill="hsl(360.0,50.0%,46.24652422154656%)" points="349.4609261148162,463.2563927236514 349.4609261148162,417.8657068182459 341.53011320181577,420.15513530335255 341.53011320181577,465.54582120875807" />
  <polygon fill="hsl(360.0,50.0%,46.24652422154656%)" points="321.70308091931486,426.3281192478559 321.70308091931486,381.38684607418713 328.64254221819016,379.38359614971876 328.64254221819016,424.3248693233876" />
  <polygon fill="hsl(360.0,50.0%,46.24652422154656%)" points="350.4522777289412,418.0289409893443 350.4522777289412,373.08766781567545 357.3917390278165,371.0844178912071 357.3917390278165,416.0256910648759" />
  <polygon fill="hsl(360.0,50.0%,46.24652422154656%)" points="328.64254221819016,386.3230574485941 328.64254221819016,379.38359614971876 350.4522777289412,373.08766781567545 350.4522777289412,380.0271291145508" />
  <polygon fill="hsl(360.0,50.0%,46.24652422154656%)" points="329.6338938323152,424.03869076274924 329.6338938323152,379.09741758908046 349.4609261148162,373.3738463763138 349.4609261148162,418.31511954998257" />
  <polygon fill="hsl(360.0,50.0%,46.24652422154656%)" points="334.59065190294046,375.41946112720535 334.59065190294046,355.19588819905437 344.5041680441909,352.33410259267106 344.5041680441909,372.557675520822" />
  <polygon fill="hsl(360.0,50.0%,46.24652422154656%)" points="336.57335513119057,377.0941676646121 336.57335513119057,354.6235310777777 342.5214648159408,352.90645971394775 342.5214648159408,375.3770963007821" />
</svg>
