<?xml version="1.0" encoding="UTF-8"?>
<svg
  xmlns="http://www.w3.org/2000/svg"
  width="848"
  height="600"
  style="background-color:white"
>
  <polygon fill="lightblue" points="319.296388045146,519.3610479514932 188.25931833470116,405.8796167447756 528.7036119548541,307.60181446194196 659.7406816652988,421.0832456686596" />
  <polygon fill="steelblue" points="188.25931833470116,405.8796167447756 188.25931833470116,178.91675433134043 528.7036119548541,80.63895204850672 528.7036119548541,307.60181446194196" />
  <polygon fill="lightskyblue" points="659.7406816652988,421.0832456686596 659.7406816652988,194.12038325522437 528.7036119548541,80.63895204850672 528.7036119548541,307.60181446194196" />
  <polygon fill="white" points="604.0499270383598,372.8536374058046 604.0499270383598,259.372206199087 584.3943665817931,242.34999151807935 584.3943665817931,355.83142272479694" />
  <polygon fill="white" points="287.55557064057905,331.82268526292876 287.55557064057905,286.4301127802417 315.9259284422585,278.2402959233389 315.9259284422585,323.632868406026" />
  <polygon fill="white" points="401.0370018472967,299.0634178353175 401.03700184729666,253.6708453526305 429.40735964897607,245.48102849572768 429.40735964897607,290.87360097841474" />
  <polygon fill="antiquewhite" points="494.33691035972777,421.7646456938853 494.33691035972777,325.30542916817535 517.0331966010713,318.7535756826531 517.0331966010713,415.21279220836306" />
  <polygon fill="beige" points="494.33691035972777,421.7646456938853 494.33691035972777,325.30542916817535 481.23320338868325,313.9572860475036 481.23320338868325,410.41650257321356" />
  <polygon fill="bisque" points="494.33691035972777,325.30542916817535 481.23320338868325,313.9572860475036 503.9294896300268,307.40543256198134 517.0331966010713,318.7535756826531" />
  <polygon fill="antiquewhite" points="337.3825750642029,500.6036960021744 337.3825750642029,404.1444794764644 360.0788613055464,397.5926259909422 360.0788613055464,494.05184251665213" />
  <polygon fill="beige" points="337.3825750642029,500.6036960021744 337.3825750642029,404.1444794764644 324.2788680931584,392.7963363557927 324.2788680931584,489.2555528815026" />
  <polygon fill="bisque" points="337.3825750642029,404.1444794764644 324.2788680931584,392.7963363557927 346.9751543345019,386.2444828702704 360.0788613055464,397.5926259909422" />
  <polygon fill="antiquewhite" points="475.63705274683474,342.0369649454644 475.63705274683474,245.5777484197544 498.3333389881783,239.02589493423218 498.3333389881783,335.4851114599421" />
  <polygon fill="beige" points="475.63705274683474,342.0369649454644 475.63705274683474,245.5777484197544 462.5333457757903,234.22960529908266 462.5333457757903,330.6888218247926" />
  <polygon fill="bisque" points="475.63705274683474,245.5777484197544 462.5333457757903,234.22960529908266 485.2296320171338,227.6777518135604 498.3333389881783,239.02589493423218" />
</svg>
