<?xml version="1.0" encoding="UTF-8"?>
<svg
  xmlns="http://www.w3.org/2000/svg"
  width="848"
  height="600"
  style="background-color:white"
>
  <polygon fill="lightblue" points="308.75876354285947,510.2124546969536 164.53380651211864,385.309978048613 539.2412364571405,277.14126027555733 683.4661934878814,402.043736923898" />
  <polygon fill="steelblue" points="164.53380651211864,385.309978048613 164.53380651211864,197.95626307610203 539.2412364571405,89.78754530304636 539.2412364571405,277.14126027555733" />
  <polygon fill="lightskyblue" points="683.4661934878814,402.043736923898 683.4661934878814,214.690021951387 539.2412364571405,89.78754530304636 539.2412364571405,277.14126027555733" />
  <polygon fill="white" points="622.1705867498165,348.9601843483532 622.1705867498165,224.05770770001254 600.5368431952054,205.32233620276145 600.5368431952054,330.2248128511021" />
  <polygon fill="antiquewhite" points="501.41578697328123,402.7937146941281 501.41578697328123,296.6266095430385 526.3962823029494,289.41536169150146 526.3962823029494,395.58246684259103" />
  <polygon fill="beige" points="501.41578697328123,402.7937146941281 501.41578697328123,296.6266095430385 486.9932912702072,284.13636187820447 486.9932912702072,390.303467029294" />
  <polygon fill="bisque" points="501.41578697328123,296.6266095430385 486.9932912702072,284.13636187820447 511.9737865998753,276.9251140266674 526.3962823029494,289.41536169150146" />
  <polygon fill="antiquewhite" points="328.66518812513556,489.5673175240994 328.66518812513556,383.4002123730099 353.6456834548037,376.1889645214728 353.6456834548037,482.3560696725624" />
  <polygon fill="beige" points="328.66518812513556,489.5673175240994 328.66518812513556,383.4002123730099 314.24269242206145,370.90996470817583 314.24269242206145,477.07706985926535" />
  <polygon fill="bisque" points="328.66518812513556,383.4002123730099 314.24269242206145,370.90996470817583 339.2231877517296,363.6987168566387 353.6456834548037,376.1889645214728" />
  <polygon fill="antiquewhite" points="480.8339305057943,315.0420475093339 480.8339305057943,208.87494235824434 505.81442583546243,201.66369450670732 505.81442583546243,307.83079965779683" />
  <polygon fill="beige" points="480.8339305057943,315.0420475093339 480.8339305057943,208.87494235824434 466.4114348027202,196.38469469341027 466.4114348027202,302.5517998444998" />
  <polygon fill="bisque" points="480.8339305057943,208.87494235824434 466.4114348027202,196.38469469341027 491.3919301323883,189.17344684187321 505.81442583546243,201.66369450670732" />
  <polygon fill="antiquewhite" points="432.9854591172859,355.5591339313297 432.9854591172859,249.39202878024014 457.9659544469541,242.1807809287031 457.9659544469541,348.34788607979266" />
  <polygon fill="beige" points="432.9854591172859,355.5591339313297 432.9854591172859,249.39202878024014 418.5629634142118,236.90178111540607 418.5629634142118,343.0688862664956" />
  <polygon fill="bisque" points="432.9854591172859,249.39202878024014 418.5629634142118,236.90178111540607 443.54345874387997,229.69053326386904 457.9659544469541,242.1807809287031" />
  <polygon fill="antiquewhite" points="385.39937709446315,339.33962909357916 385.39937709446315,233.17252394248962 410.3798724241313,225.96127609095257 410.3798724241313,332.1283812420421" />
  <polygon fill="beige" points="385.39937709446315,339.33962909357916 385.39937709446315,233.17252394248962 370.97688139138904,220.68227627765555 370.97688139138904,326.84938142874506" />
  <polygon fill="bisque" points="385.39937709446315,233.17252394248962 370.97688139138904,220.68227627765555 395.9573767210572,213.4710284261185 410.3798724241313,225.96127609095257" />
</svg>
