<?xml version="1.0" encoding="UTF-8"?>
<svg
  xmlns="http://www.w3.org/2000/svg"
  width="848"
  height="600"
  style="background-color:white"
>
  <polygon fill="lightblue" points="326.80177678228483,529.9734653358246 205.15773687081682,424.6266365535251 521.1982232177152,333.393606619924 642.8422631291832,438.7404354022235" />
  <polygon fill="steelblue" points="205.15773687081682,424.6266365535251 205.15773687081682,161.2595645977765 521.1982232177152,70.02653466417544 521.1982232177152,333.393606619924" />
  <polygon fill="lightskyblue" points="642.8422631291832,438.7404354022235 642.8422631291832,175.3733634464749 521.1982232177152,70.02653466417544 521.1982232177152,333.393606619924" />
  <polygon fill="white" points="591.1435461668093,393.9680331697462 591.1435461668093,288.6212043874468 572.8969401800891,272.8191800701019 572.8969401800891,378.1660088524013" />
  <polygon fill="white" points="237.13802417972917,373.2559912973243 237.13802417972917,331.1172597844045 263.47473137530403,323.51450728993774 263.47473137530403,365.6532388028575" />
  <polygon fill="white" points="282.2866650864289,360.2227013068098 282.2866650864289,318.08396979389005 308.6233722820038,310.4812172994233 308.6233722820038,352.61994881234307" />
  <polygon fill="white" points="327.4353059931287,347.1894113162954 327.4353059931287,305.0506798033756 353.77201318870357,297.44792730890885 353.77201318870357,339.5866588218286" />
  <polygon fill="white" points="372.58394689982845,334.156121325781 372.58394689982845,292.01738981286115 398.9206540954033,284.4146373183944 398.9206540954033,326.55336883131423" />
  <polygon fill="white" points="417.7325878065282,321.12283133526654 417.7325878065282,278.98409982234676 444.06929500210305,271.38134732788 444.06929500210305,313.5200788407998" />
  <polygon fill="white" points="462.8812287132279,308.0895413447521 462.8812287132279,265.9508098318323 489.2179359088028,258.34805733736556 489.2179359088028,300.48678885028534" />
  <polygon fill="antiquewhite" points="489.2950035433071,439.37299115188574 489.2950035433071,349.8281866869312 510.36436929976696,343.7459846913578 510.36436929976696,433.29078915631237" />
  <polygon fill="beige" points="489.2950035433071,439.37299115188574 489.2950035433071,349.8281866869312 477.1305995521603,339.2935038087013 477.1305995521603,428.8383082736558" />
  <polygon fill="bisque" points="489.2950035433071,349.8281866869312 477.1305995521603,339.2935038087013 498.19996530862016,333.2113018131279 510.36436929976696,343.7459846913578" />
</svg>
