<?xml version="1.0" encoding="UTF-8"?>
<svg
  xmlns="http://www.w3.org/2000/svg"
  width="848"
  height="600"
  style="background-color:white"
>
  <polygon fill="lightblue" points="319.296388045146,519.3610479514932 188.25931833470116,405.8796167447756 528.7036119548541,307.60181446194196 659.7406816652988,421.0832456686596" />
  <polygon fill="steelblue" points="188.25931833470116,405.8796167447756 188.25931833470116,178.91675433134043 528.7036119548541,80.63895204850672 528.7036119548541,307.60181446194196" />
  <polygon fill="lightskyblue" points="659.7406816652988,421.0832456686596 659.7406816652988,194.12038325522437 528.7036119548541,80.63895204850672 528.7036119548541,307.60181446194196" />
  <polygon fill="white" points="582.2104154199524,353.9400655380183 582.2104154199524,240.45863433130071 562.5548549633857,223.4364196502931 562.5548549633857,336.9178508570107" />
  <polygon fill="white" points="625.8894386567672,391.7672092735909 625.8894386567672,278.28577806687326 606.2338782002005,261.2635633858656 606.2338782002005,374.7449945925832" />
  <polygon fill="white" points="230.81485503722027,348.2023189767344 230.81485503722027,302.8097464940473 259.1852128388997,294.61992963714454 259.1852128388997,340.0125021198316" />
  <polygon fill="white" points="287.55557064057905,331.82268526292876 287.55557064057905,286.4301127802417 315.9259284422585,278.2402959233389 315.9259284422585,323.632868406026" />
  <polygon fill="white" points="344.29628624393786,315.44305154912314 344.29628624393786,270.0504790664361 372.6666440456173,261.8606622095333 372.6666440456173,307.25323469222036" />
  <polygon fill="white" points="401.0370018472967,299.0634178353175 401.03700184729666,253.6708453526305 429.40735964897607,245.48102849572768 429.40735964897607,290.87360097841474" />
  <polygon fill="white" points="457.7777174506555,282.6837841215119 457.7777174506555,237.29121163882488 486.1480752523349,229.1013947819221 486.1480752523349,274.4939672646091" />
  <polygon fill="grey" points="516.7128878669802,142.73244872860042 516.7128878669802,114.36209092692104 545.0832456686596,106.17227407001823 545.0832456686596,134.54263187169764" />
  <polygon fill="lightgrey" points="516.7128878669802,142.73244872860042 516.7128878669802,114.36209092692104 500.3332541531746,100.17691202608131 500.3332541531746,128.54726982776072" />
  <polygon fill="darkgrey" points="516.7128878669802,114.36209092692104 500.3332541531746,100.17691202608131 528.7036119548541,91.98709516917853 545.0832456686596,106.17227407001823" />
  <polygon fill="hsl(288.0,50.0%,52.57800117743009%)" points="461.65734647334455,420.0273137816265 461.65734647334455,381.0577903052397 468.4662323457476,379.09223425958305 468.4662323457476,418.0617577359699" />
  <polygon fill="hsl(288.0,50.0%,52.57800117743009%)" points="478.67956115435214,415.1134236674849 478.67956115435214,376.14390019109806 471.8706752819491,378.1094562367547 471.8706752819491,417.0789797131415" />
  <polygon fill="hsl(288.0,50.0%,52.57800117743009%)" points="454.84846060094145,383.4091832169992 454.84846060094145,344.82549660671526 460.80623573929415,343.1056350667657 460.80623573929415,381.68932167704963" />
  <polygon fill="hsl(288.0,50.0%,52.57800117743009%)" points="479.53067188840254,376.28404255149377 479.53067188840254,337.7003559412098 485.4884470267552,335.9804944012602 485.48844702675524,374.5641810115442" />
  <polygon fill="hsl(288.0,50.0%,52.57800117743009%)" points="460.80623573929415,349.0634102051183 460.80623573929415,343.1056350667657 479.53067188840254,337.7003559412098 479.53067188840254,343.65813107956245" />
  <polygon fill="hsl(288.0,50.0%,52.57800117743009%)" points="461.65734647334455,381.44362717134254 461.65734647334455,342.8599405610586 478.67956115435214,337.9460504469169 478.67956115435214,376.52973705720086" />
  <polygon fill="hsl(288.0,50.0%,52.57800117743009%)" points="465.9129001435964,339.7022837020089 465.9129001435964,322.33962472738114 474.42400748410023,319.8826796703103 474.42400748410023,337.2453386449381" />
  <polygon fill="hsl(288.0,50.0%,52.57800117743009%)" points="467.6151216116972,341.140079021109 467.6151216116972,321.848235715967 472.72178601599944,320.37406868172445 472.72178601599944,339.6659119868665" />
  <polygon fill="hsl(288.0,50.0%,46.24652422154656%)" points="342.9833306916636,473.445686369804 342.9833306916636,434.47616289341715 349.7922165640666,432.51060684776047 349.7922165640666,471.48013032414735" />
  <polygon fill="hsl(288.0,50.0%,46.24652422154656%)" points="360.00554537267124,468.53179625566224 360.00554537267124,429.5622727792754 353.1966595002682,431.52782882493216 353.1966595002682,470.497352301319" />
  <polygon fill="hsl(288.0,50.0%,46.24652422154656%)" points="336.17444481926054,436.82755580517664 336.17444481926054,398.2438691948927 342.1322199576132,396.5240076549431 342.1322199576132,435.10769426522705" />
  <polygon fill="hsl(288.0,50.0%,46.24652422154656%)" points="360.85665610672163,429.7024151396712 360.85665610672163,391.1187285293872 366.8144312450743,389.39886698943764 366.8144312450743,427.9825535997216" />
  <polygon fill="hsl(288.0,50.0%,46.24652422154656%)" points="342.1322199576132,402.48178279329574 342.1322199576132,396.5240076549431 360.85665610672163,391.1187285293872 360.85665610672163,397.07650366773987" />
  <polygon fill="hsl(288.0,50.0%,46.24652422154656%)" points="342.9833306916636,434.86199975951996 342.9833306916636,396.278313149236 360.00554537267124,391.3644230350943 360.00554537267124,429.9481096453783" />
  <polygon fill="hsl(288.0,50.0%,46.24652422154656%)" points="347.2388843619155,393.1206562901864 347.2388843619155,375.7579973155586 355.7499917024193,373.30105225848774 355.7499917024193,390.6637112331155" />
  <polygon fill="hsl(288.0,50.0%,46.24652422154656%)" points="348.9411058300163,394.5584516092864 348.9411058300163,375.2666083041444 354.04777023431853,373.79244126990193 354.04777023431853,393.0842845750439" />
</svg>
