<?xml version="1.0" encoding="UTF-8"?>
<svg
  xmlns="http://www.w3.org/2000/svg"
  width="848"
  height="600"
  style="background-color:white"
>
  <polygon fill="lightblue" points="308.75876354285947,510.2124546969536 164.53380651211864,385.309978048613 539.2412364571405,277.14126027555733 683.4661934878814,402.043736923898" />
  <polygon fill="steelblue" points="164.53380651211864,385.309978048613 164.53380651211864,197.95626307610203 539.2412364571405,89.78754530304636 539.2412364571405,277.14126027555733" />
  <polygon fill="lightskyblue" points="683.4661934878814,402.043736923898 683.4661934878814,214.690021951387 539.2412364571405,89.78754530304636 539.2412364571405,277.14126027555733" />
  <polygon fill="white" points="273.8234735794167,303.7997780388022 273.8234735794167,253.83878737946588 305.04909274150185,244.8247275650446 305.04909274150185,294.78571822438084" />
  <polygon fill="white" points="398.7259502277573,267.7435387811169 398.7259502277573,217.78254812178068 429.95156938984246,208.7684883073594 429.95156938984246,258.72947896669564" />
  <polygon fill="grey" points="526.043736923898,158.1302815254295 526.043736923898,126.90466236334433 557.2693560859832,117.89060254892303 557.2693560859832,149.1162217110082" />
  <polygon fill="lightgrey" points="526.043736923898,158.1302815254295 526.043736923898,126.90466236334433 508.01561729505534,111.29185278230173 508.01561729505534,142.51747194438693" />
  <polygon fill="darkgrey" points="526.043736923898,126.90466236334433 508.01561729505534,111.29185278230173 539.2412364571405,102.27779296788043 557.2693560859832,117.89060254892303" />
  <polygon fill="hsl(360.0,50.0%,52.57800117743009%)" points="465.44727281380074,400.88153350030757 465.44727281380074,357.9900230192674 472.9414214127012,355.8266486638063 472.9414214127012,398.7181591448465" />
  <polygon fill="hsl(360.0,50.0%,52.57800117743009%)" points="484.18264431105183,395.4730976116548 484.18264431105183,352.5815871306146 476.6884957121514,354.74496148607574 476.6884957121514,397.63647196711594" />
  <polygon fill="hsl(360.0,50.0%,52.57800117743009%)" points="457.9531242149003,360.57806579533286 457.9531242149003,318.11122373489707 464.51050423893815,316.2182711738686 464.51050423893815,358.6851132343044" />
  <polygon fill="hsl(360.0,50.0%,52.57800117743009%)" points="485.11941288591436,352.73583375678635 485.11941288591436,310.2689916963505 491.67679290995227,308.37603913532206 491.67679290995227,350.84288119575785" />
  <polygon fill="hsl(360.0,50.0%,52.57800117743009%)" points="464.51050423893815,322.7756511979065 464.51050423893815,316.2182711738686 485.11941288591436,310.2689916963505 485.11941288591436,316.8263717203884" />
  <polygon fill="hsl(360.0,50.0%,52.57800117743009%)" points="465.44727281380074,358.4146914398718 465.44727281380074,315.9478493794359 484.18264431105183,310.53941349078315 484.18264431105183,353.006255551219" />
  <polygon fill="hsl(360.0,50.0%,52.57800117743009%)" points="470.1311156881135,312.472398304251 470.1311156881135,293.36231937705486 479.4988014367391,290.6581014327285 479.4988014367391,309.76818035992454" />
  <polygon fill="hsl(360.0,50.0%,52.57800117743009%)" points="472.0046528378386,314.0548968184075 472.0046528378386,292.82147578818956 477.6252642870139,291.1989450215937 477.6252642870139,312.43236605181164" />
</svg>
