<?xml version="1.0" encoding="UTF-8"?>
<svg
  xmlns="http://www.w3.org/2000/svg"
  width="848"
  height="600"
  style="background-color:white"
>
  <polygon fill="lightblue" points="302.04396001187934,522.4609811485079 149.41539433810175,390.2807659318349 545.9560399881207,275.8093416765016 698.5846056618982,407.9895568931746" />
  <polygon fill="steelblue" points="149.41539433810175,390.2807659318349 149.41539433810175,192.0104431068254 545.9560399881207,77.53901885149213 545.9560399881207,275.8093416765016" />
  <polygon fill="lightskyblue" points="698.5846056618982,407.9895568931746 698.5846056618982,209.71923406816512 545.9560399881207,77.53901885149213 545.9560399881207,275.8093416765016" />
  <polygon fill="white" points="633.7174652505428,351.81296542608857 633.7174652505428,226.24176097024923 610.8231803994761,206.41472868774832 610.8231803994761,331.98593314358766" />
  <polygon fill="white" points="212.20099656602142,319.2840376714046 212.20099656602142,266.4119515847354 245.24605037018966,256.8726662301243 245.24605037018966,309.7447523167935" />
  <polygon fill="white" points="291.5091256960252,296.38975282033795 291.5091256960252,243.51766673366873 324.5541795001934,233.97838137905762 324.5541795001934,286.8504674657268" />
  <polygon fill="white" points="370.81725482602894,273.49546796927126 370.81725482602894,220.62338188260208 403.86230863019716,211.084096527991 403.86230863019716,263.9561826146602" />
  <polygon fill="white" points="450.12538395603275,250.60118311820463 450.12538395603275,197.72909703153545 483.17043776020097,188.1898116769243 483.17043776020097,241.06189776359352" />
  <polygon fill="hsl(360.0,50.0%,52.57800117743009%)" points="467.86229631056017,406.75963493503565 467.86229631056017,361.36894902963013 475.7931092235606,359.07952054452346 475.7931092235606,404.470206449929" />
  <polygon fill="hsl(360.0,50.0%,52.57800117743009%)" points="487.68932859306113,401.036063722269 487.68932859306113,355.64537781686346 479.7585156800607,357.9348063019701 479.7585156800607,403.32549220737565" />
  <polygon fill="hsl(360.0,50.0%,52.57800117743009%)" points="459.9314833975598,364.1077902464735 459.93148339755976,319.1665170728047 466.8709446964351,317.16326714833633 466.8709446964351,362.10454032200516" />
  <polygon fill="hsl(360.0,50.0%,52.57800117743009%)" points="488.68068020718613,355.80861198796185 488.68068020718613,310.867338814293 495.6201415060615,308.8640888898247 495.6201415060615,353.8053620634935" />
  <polygon fill="hsl(360.0,50.0%,52.57800117743009%)" points="466.8709446964351,324.1027284472117 466.8709446964351,317.16326714833633 488.68068020718613,310.867338814293 488.68068020718613,317.8068001131684" />
  <polygon fill="hsl(360.0,50.0%,52.57800117743009%)" points="467.86229631056017,361.8183617613668 467.86229631056017,316.87708858769804 487.68932859306113,311.15351737493137 487.68932859306113,356.09479054860014" />
  <polygon fill="hsl(360.0,50.0%,52.57800117743009%)" points="472.8190543811854,313.1991321258229 472.8190543811854,292.97555919767194 482.7325705224359,290.11377359128863 482.7325705224359,310.33734651943956" />
  <polygon fill="hsl(360.0,50.0%,52.57800117743009%)" points="474.8017576094355,314.87383866322966 474.8017576094355,292.4032020763953 480.7498672941858,290.6861307125653 480.7498672941858,313.1567672993997" />
</svg>
