<?xml version="1.0" encoding="UTF-8"?>
<svg
  xmlns="http://www.w3.org/2000/svg"
  width="848"
  height="600"
  style="background-color:white"
>
  <polygon fill="lightblue" points="332.53297000890956,541.1971069207593 218.06154575357638,442.06194550825467 515.4670299910905,356.2083773167547 629.9384542464236,455.3435387292594" />
  <polygon fill="steelblue" points="218.06154575357638,442.06194550825467 218.06154575357638,144.65646127074058 515.4670299910905,58.80289307924065 515.4670299910905,356.2083773167547" />
  <polygon fill="lightskyblue" points="629.9384542464236,455.3435387292594 629.9384542464236,157.93805449174536 515.4670299910905,58.80289307924065 515.4670299910905,356.2083773167547" />
  <polygon fill="white" points="581.2880989379071,413.2110951289449 581.2880989379071,314.07593371644026 564.117385299607,299.20565950456455 564.117385299607,398.3408209170692" />
  <polygon fill="white" points="265.15074742451617,388.814399312932 265.1507474245161,349.16033474793005 289.9345377776423,342.00587073197175 289.9345377776423,381.65993529697363" />
  <polygon fill="white" points="324.63184427201895,371.64368567463197 324.63184427201895,331.9896211096301 349.4156346251451,324.83515709367174 349.4156346251451,364.4892216586736" />
  <polygon fill="white" points="384.11294111952174,354.472972036332 384.11294111952174,314.8189074713301 408.8967314726479,307.6644434553718 408.8967314726479,347.31850802037366" />
  <polygon fill="white" points="443.5940379670246,337.302258398032 443.5940379670245,297.6481938330301 468.3778283201507,290.49372981707177 468.3778283201507,330.1477943820737" />
</svg>
