<?xml version="1.0" encoding="UTF-8"?>
<svg
  xmlns="http://www.w3.org/2000/svg"
  width="848"
  height="600"
  style="background-color:white"
>
  <polygon fill="lightblue" points="313.19558415866305,532.142638852698 174.5233292885361,412.04894333509776 534.804415841337,308.0447521825025 673.4766707114638,428.1384477001028" />
  <polygon fill="steelblue" points="174.5233292885361,412.04894333509776 174.5233292885361,171.8615522998972 534.804415841337,67.85736114730193 534.804415841337,308.0447521825025" />
  <polygon fill="lightskyblue" points="673.4766707114638,428.1384477001028 673.4766707114638,187.95105666490224 534.804415841337,67.85736114730193 534.804415841337,308.0447521825025" />
  <polygon fill="white" points="614.54096239166,377.09862710512266 614.54096239166,257.0049315875224 593.7401241611409,238.99087725988235 593.7401241611409,359.0845727774826" />
  <polygon fill="white" points="219.5584651076362,351.01094123398326 219.5584651076362,302.97346302694314 249.5818889870363,294.3064470975602 249.5818889870363,342.3439253046003" />
  <polygon fill="white" points="279.60531286643635,333.67690937521735 279.60531286643635,285.6394311681772 309.6287367458364,276.9724152387943 309.6287367458364,325.0098934458344" />
  <polygon fill="white" points="339.6521606252365,316.3428775164515 339.6521606252365,268.30539930941137 369.67558450463656,259.6383833800284 369.67558450463656,307.67586158706854" />
  <polygon fill="white" points="399.69900838403663,299.0088456576856 399.69900838403663,250.9713674506455 429.7224322634367,242.30435152126256 429.7224322634367,290.3418297283027" />
  <polygon fill="white" points="459.7458561428368,281.67481379891973 459.7458561428368,233.6373355918796 489.76928002223684,224.9703196624967 489.76928002223684,273.0077978695368" />
  <polygon fill="hsl(360.0,50.0%,69.21014392802753%)" points="395.30490870096213,393.5442847335787 395.30490870096213,352.3041096928348 402.5105304320182,350.2240258697829 402.5105304320182,391.4642009105268" />
  <polygon fill="hsl(360.0,50.0%,69.21014392802753%)" points="413.3189630286022,388.344075175949 413.3189630286022,347.10390013520504 406.1133412975462,349.18398395825693 406.1133412975462,390.4241589990009" />
  <polygon fill="hsl(360.0,50.0%,69.21014392802753%)" points="388.09928696990613,354.79251208064653 388.09928696990613,313.96065560466246 394.40420598458013,312.140582259492 394.40420598458013,352.9724387354761" />
  <polygon fill="hsl(360.0,50.0%,69.21014392802753%)" points="414.2196657449842,347.25220822208337 414.2196657449842,306.4203517460993 420.5245847596582,304.60027840092886 420.5245847596582,345.432134876913" />
  <polygon fill="hsl(360.0,50.0%,69.21014392802753%)" points="394.40420598458013,318.445501274166 394.40420598458013,312.140582259492 414.2196657449842,306.4203517460993 414.2196657449842,312.7252707607733" />
  <polygon fill="hsl(360.0,50.0%,69.21014392802753%)" points="395.30490870096213,352.71242825759464 395.30490870096213,311.88057178161057 413.3189630286022,306.68036222398075 413.3189630286022,347.5122186999649" />
  <polygon fill="hsl(360.0,50.0%,69.21014392802753%)" points="399.80842228287213,308.5389265684039 399.80842228287213,290.16459115421105 408.8154494466922,287.5644863753962 408.8154494466922,305.938821789589" />
  <polygon fill="hsl(360.0,50.0%,69.21014392802753%)" points="401.6098277156362,310.0604984364401 401.6098277156362,289.6445701984481 407.0140440139282,288.08450733115916 407.0140440139282,308.5004355691512" />
  <polygon fill="hsl(360.0,50.0%,68.65222276527638%)" points="461.6176609730053,376.1881837592212 461.6176609730053,334.94800871847724 468.8232827040613,332.86792489542535 468.8232827040613,374.1080999361693" />
  <polygon fill="hsl(360.0,50.0%,68.65222276527638%)" points="479.6317153006454,370.98797420159144 479.6317153006454,329.7477991608475 472.42609356958934,331.82788298389937 472.4260935695894,373.06805802464334" />
  <polygon fill="hsl(360.0,50.0%,68.65222276527638%)" points="454.4120392419493,337.43641110628903 454.4120392419493,296.6045546303049 460.7169582566233,294.7844812851345 460.7169582566233,335.6163377611186" />
  <polygon fill="hsl(360.0,50.0%,68.65222276527638%)" points="480.53241801702734,329.89610724772587 480.53241801702734,289.06425077174174 486.8373370317014,287.24417742657135 486.8373370317014,328.0760339025554" />
  <polygon fill="hsl(360.0,50.0%,68.65222276527638%)" points="460.7169582566233,301.0894002998085 460.7169582566233,294.7844812851345 480.53241801702734,289.06425077174174 480.53241801702734,295.3691697864158" />
  <polygon fill="hsl(360.0,50.0%,68.65222276527638%)" points="461.6176609730053,335.3563272832371 461.6176609730053,294.524470807253 479.6317153006454,289.32426124962325 479.6317153006454,330.1561177256073" />
  <polygon fill="hsl(360.0,50.0%,68.65222276527638%)" points="466.12117455491534,291.1828255940464 466.12117455491534,272.80849017985355 475.12820171873534,270.20838540103864 475.12820171873534,288.5827208152315" />
  <polygon fill="hsl(360.0,50.0%,68.65222276527638%)" points="467.92257998767934,292.7043974620826 467.92257998767934,272.2884692240906 473.32679628597134,270.72840635680166 473.32679628597134,291.1443345947937" />
  <polygon fill="hsl(360.0,50.0%,56.400513863274796%)" points="372.2468630523798,441.223390836397 372.2468630523798,399.98321579565305 379.4524847834358,397.90313197260116 379.4524847834358,439.14330701334507" />
  <polygon fill="hsl(360.0,50.0%,56.400513863274796%)" points="390.26091738001986,436.0231812787672 390.26091738001986,394.7830062380233 383.0552956489638,396.8630900610752 383.0552956489638,438.10326510181915" />
  <polygon fill="hsl(360.0,50.0%,56.400513863274796%)" points="365.0412413213238,402.4716181834648 365.04124132132375,361.6397617074807 371.3461603359978,359.8196883623103 371.3461603359978,400.6515448382944" />
  <polygon fill="hsl(360.0,50.0%,56.400513863274796%)" points="391.16162009640186,394.9313143249016 391.16162009640186,354.09945784891755 397.46653911107586,352.2793845037471 397.46653911107586,393.1112409797312" />
  <polygon fill="hsl(360.0,50.0%,56.400513863274796%)" points="371.3461603359978,366.1246073769843 371.3461603359978,359.8196883623103 391.16162009640186,354.09945784891755 391.16162009640186,360.40437686359155" />
  <polygon fill="hsl(360.0,50.0%,56.400513863274796%)" points="372.2468630523798,400.3915343604129 372.2468630523798,359.55967788442877 390.2609173800198,354.35946832679906 390.26091738001986,395.19132480278313" />
  <polygon fill="hsl(360.0,50.0%,56.400513863274796%)" points="376.7503766342898,356.21803267122215 376.7503766342898,337.8436972570293 385.75740379810986,335.24359247821445 385.75740379810986,353.61792789240724" />
  <polygon fill="hsl(360.0,50.0%,56.400513863274796%)" points="378.5517820670538,357.7396045392584 378.5517820670538,337.32367630126635 383.9559983653458,335.7636134339774 383.9559983653458,356.17954167196945" />
  <polygon fill="hsl(360.0,50.0%,52.57800117743009%)" points="463.85154093741204,427.0209894412474 463.85154093741204,385.78081440050346 471.05716266846804,383.70073057745157 471.0571626684681,424.94090561819553" />
  <polygon fill="hsl(360.0,50.0%,52.57800117743009%)" points="481.8655952650521,421.82077988361766 481.8655952650521,380.58060484287375 474.65997353399604,382.66068866592565 474.65997353399604,423.9008637066696" />
  <polygon fill="hsl(360.0,50.0%,52.57800117743009%)" points="456.645919206356,388.26921678831525 456.645919206356,347.4373603123312 462.95083822103004,345.61728696716074 462.95083822103004,386.4491434431448" />
  <polygon fill="hsl(360.0,50.0%,52.57800117743009%)" points="482.7662979814341,380.7289129297521 482.7662979814341,339.897056453768 489.0712169961081,338.0769831085976 489.0712169961081,378.90883958458164" />
  <polygon fill="hsl(360.0,50.0%,52.57800117743009%)" points="462.95083822103004,351.92220598183474 462.95083822103004,345.61728696716074 482.7662979814341,339.897056453768 482.7662979814341,346.201975468442" />
  <polygon fill="hsl(360.0,50.0%,52.57800117743009%)" points="463.85154093741204,386.1891329652633 463.85154093741204,345.35727648927923 481.8655952650521,340.15706693164947 481.8655952650521,380.9889234076336" />
  <polygon fill="hsl(360.0,50.0%,52.57800117743009%)" points="468.35505451932204,342.0156312760726 468.35505451932204,323.64129586187977 477.36208168314204,321.04119108306486 477.36208168314204,339.4155264972577" />
  <polygon fill="hsl(360.0,50.0%,52.57800117743009%)" points="470.15645995208604,343.53720314410884 470.15645995208604,323.1212749061168 475.56067625037804,321.5612120388279 475.56067625037804,341.9771402768199" />
  <polygon fill="hsl(360.0,50.0%,46.24652422154656%)" points="338.262702608658,483.5519100018488 338.262702608658,442.3117349611049 345.46832433971406,440.231651138053 345.46832433971406,481.47182617879696" />
  <polygon fill="hsl(360.0,50.0%,46.24652422154656%)" points="356.27675693629806,478.3517004442191 356.27675693629806,437.1115254034751 349.07113520524206,439.191609226527 349.07113520524206,480.431784267271" />
  <polygon fill="hsl(360.0,50.0%,46.24652422154656%)" points="331.057080877602,444.8001373489167 331.057080877602,403.96828087293255 337.361999892276,402.1482075277621 337.361999892276,442.98006400374624" />
  <polygon fill="hsl(360.0,50.0%,46.24652422154656%)" points="357.17745965268006,437.25983349035346 357.17745965268006,396.4279770143694 363.48237866735406,394.607903669199 363.48237866735406,435.4397601451831" />
  <polygon fill="hsl(360.0,50.0%,46.24652422154656%)" points="337.361999892276,408.45312654243617 337.361999892276,402.1482075277621 357.17745965268006,396.4279770143694 357.17745965268006,402.7328960290434" />
  <polygon fill="hsl(360.0,50.0%,46.24652422154656%)" points="338.262702608658,442.7200535258647 338.262702608658,401.88819704988066 356.27675693629806,396.68798749225084 356.27675693629806,437.51984396823497" />
  <polygon fill="hsl(360.0,50.0%,46.24652422154656%)" points="342.766216190568,398.546551836674 342.766216190568,380.17221642248114 351.77324335438806,377.5721116436663 351.77324335438806,395.94644705785913" />
  <polygon fill="hsl(360.0,50.0%,46.24652422154656%)" points="344.56762162333206,400.0681237047102 344.56762162333206,379.6521954667182 349.971837921624,378.09213259942925 349.971837921624,398.5080608374213" />
</svg>
