<?xml version="1.0" encoding="UTF-8"?>
<svg
  xmlns="http://www.w3.org/2000/svg"
  width="848"
  height="600"
  style="background-color:white"
>
  <polygon fill="lightblue" points="326.80177678228483,529.9734653358246 205.15773687081682,424.6266365535251 521.1982232177152,333.393606619924 642.8422631291832,438.7404354022235" />
  <polygon fill="steelblue" points="205.15773687081682,424.6266365535251 205.15773687081682,161.2595645977765 521.1982232177152,70.02653466417544 521.1982232177152,333.393606619924" />
  <polygon fill="lightskyblue" points="642.8422631291832,438.7404354022235 642.8422631291832,175.3733634464749 521.1982232177152,70.02653466417544 521.1982232177152,333.393606619924" />
  <polygon fill="white" points="591.1435461668093,393.9680331697462 591.1435461668093,288.6212043874468 572.8969401800891,272.8191800701019 572.8969401800891,378.1660088524013" />
  <polygon fill="white" points="297.3362120553289,355.8782713099717 297.3362120553289,313.7395397970519 323.6729192509037,306.13678730258516 323.6729192509037,348.27551881550494" />
  <polygon fill="white" points="402.6830408376283,325.46726133210467 402.6830408376283,283.3285298191849 429.01974803320314,275.72577732471814 429.01974803320314,317.8645088376379" />
  <polygon fill="antiquewhite" points="489.2950035433071,439.37299115188574 489.2950035433071,349.8281866869312 510.36436929976696,343.7459846913578 510.36436929976696,433.29078915631237" />
  <polygon fill="beige" points="489.2950035433071,439.37299115188574 489.2950035433071,349.8281866869312 477.1305995521603,339.2935038087013 477.1305995521603,428.8383082736558" />
  <polygon fill="bisque" points="489.2950035433071,349.8281866869312 477.1305995521603,339.2935038087013 498.19996530862016,333.2113018131279 510.36436929976696,343.7459846913578" />
  <polygon fill="antiquewhite" points="343.5915055243422,512.5606822646039 343.5915055243422,423.0158777996494 364.6608712808021,416.93367580407596 364.6608712808021,506.47848026903046" />
  <polygon fill="beige" points="343.5915055243422,512.5606822646039 343.5915055243422,423.0158777996494 331.4271015331954,412.48119492141944 331.4271015331954,502.0259993863739" />
  <polygon fill="bisque" points="343.5915055243422,423.0158777996494 331.4271015331954,412.48119492141944 352.4964672896553,406.398992925846 364.6608712808021,416.93367580407596" />
  <polygon fill="antiquewhite" points="471.93559348607647,365.36036861354273 471.93559348607647,275.81556414858824 493.00495924253636,269.7333621530148 493.00495924253636,359.2781666179693" />
  <polygon fill="beige" points="471.93559348607647,365.36036861354273 471.93559348607647,275.81556414858824 459.7711894949297,265.28088127035824 459.7711894949297,354.8256857353128" />
  <polygon fill="bisque" points="471.93559348607647,275.81556414858824 459.7711894949297,265.28088127035824 480.84055525138956,259.19867927478487 493.00495924253636,269.7333621530148" />
  <polygon fill="antiquewhite" points="431.57862973225235,399.533802804708 431.57862973225235,309.98899833975344 452.64799548871224,303.90679634418007 452.6479954887123,393.45160080913456" />
  <polygon fill="beige" points="431.57862973225235,399.533802804708 431.57862973225235,309.98899833975344 419.41422574110555,299.4543154615235 419.41422574110555,388.999119926478" />
  <polygon fill="bisque" points="431.57862973225235,309.98899833975344 419.41422574110555,299.4543154615235 440.48359149756544,293.37211346595006 452.64799548871224,303.90679634418007" />
</svg>
