<?xml version="1.0" encoding="UTF-8"?>
<svg
  xmlns="http://www.w3.org/2000/svg"
  width="848"
  height="600"
  style="background-color:white"
>
  <polygon fill="lightblue" points="313.19558415866305,532.142638852698 174.5233292885361,412.04894333509776 534.804415841337,308.0447521825025 673.4766707114638,428.1384477001028" />
  <polygon fill="steelblue" points="174.5233292885361,412.04894333509776 174.5233292885361,171.8615522998972 534.804415841337,67.85736114730193 534.804415841337,308.0447521825025" />
  <polygon fill="lightskyblue" points="673.4766707114638,428.1384477001028 673.4766707114638,187.95105666490224 534.804415841337,67.85736114730193 534.804415841337,308.0447521825025" />
  <polygon fill="white" points="614.54096239166,377.09862710512266 614.54096239166,263.0096163634024 593.7401241611409,244.99556203576236 593.7401241611409,359.0845727774826" />
  <polygon fill="white" points="219.5584651076362,351.01094123398326 219.5584651076362,302.97346302694314 249.5818889870363,294.3064470975602 249.5818889870363,342.3439253046003" />
  <polygon fill="white" points="279.60531286643635,333.67690937521735 279.60531286643635,285.6394311681772 309.6287367458364,276.9724152387943 309.6287367458364,325.0098934458344" />
  <polygon fill="white" points="339.6521606252365,316.3428775164515 339.6521606252365,268.30539930941137 369.67558450463656,259.6383833800284 369.67558450463656,307.67586158706854" />
  <polygon fill="white" points="399.69900838403663,299.0088456576856 399.69900838403663,250.9713674506455 429.7224322634367,242.30435152126256 429.7224322634367,290.3418297283027" />
  <polygon fill="white" points="459.7458561428368,281.67481379891973 459.7458561428368,233.6373355918796 489.76928002223684,224.9703196624967 489.76928002223684,273.0077978695368" />
  <polygon fill="hsl(288.0,50.0%,52.57800117743009%)" points="463.85154093741204,427.0209894412474 463.85154093741204,385.78081440050346 471.05716266846804,383.70073057745157 471.0571626684681,424.94090561819553" />
  <polygon fill="hsl(288.0,50.0%,52.57800117743009%)" points="481.8655952650521,421.82077988361766 481.8655952650521,380.58060484287375 474.65997353399604,382.66068866592565 474.65997353399604,423.9008637066696" />
  <polygon fill="hsl(288.0,50.0%,52.57800117743009%)" points="456.645919206356,388.26921678831525 456.645919206356,347.4373603123312 462.95083822103004,345.61728696716074 462.95083822103004,386.4491434431448" />
  <polygon fill="hsl(288.0,50.0%,52.57800117743009%)" points="482.7662979814341,380.7289129297521 482.7662979814341,339.897056453768 489.0712169961081,338.0769831085976 489.0712169961081,378.90883958458164" />
  <polygon fill="hsl(288.0,50.0%,52.57800117743009%)" points="462.95083822103004,351.92220598183474 462.95083822103004,345.61728696716074 482.7662979814341,339.897056453768 482.7662979814341,346.201975468442" />
  <polygon fill="hsl(288.0,50.0%,52.57800117743009%)" points="463.85154093741204,386.1891329652633 463.85154093741204,345.35727648927923 481.8655952650521,340.15706693164947 481.8655952650521,380.9889234076336" />
  <polygon fill="hsl(288.0,50.0%,52.57800117743009%)" points="468.35505451932204,342.0156312760726 468.35505451932204,323.64129586187977 477.36208168314204,321.04119108306486 477.36208168314204,339.4155264972577" />
  <polygon fill="hsl(288.0,50.0%,52.57800117743009%)" points="470.15645995208604,343.53720314410884 470.15645995208604,323.1212749061168 475.56067625037804,321.5612120388279 475.56067625037804,341.9771402768199" />
</svg>
