<?xml version="1.0" encoding="UTF-8"?>
<svg
  xmlns="http://www.w3.org/2000/svg"
  width="848"
  height="600"
  style="background-color:white"
>
  <polygon fill="lightblue" points="264.1923788646684,721.4101615137755 64.1923788646684,548.2050807568878 583.8076211353316,398.2050807568877 783.8076211353316,571.4101615137754" />
  <polygon fill="steelblue" points="64.1923788646684,548.2050807568878 64.1923788646684,28.58983848622455 583.8076211353316,-121.4101615137755 583.8076211353316,398.2050807568877" />
  <polygon fill="lightskyblue" points="783.8076211353316,571.4101615137754 783.8076211353316,51.79491924311225 583.8076211353316,-121.4101615137755 583.8076211353316,398.2050807568877" />
  <polygon fill="white" points="698.8076211353316,497.7980021920981 698.8076211353316,324.5929214352104 668.8076211353316,298.61215932167727 668.8076211353316,471.81724007856496" />
  <polygon fill="white" points="129.14428414850136,460.17304845413264 129.1442841485013,390.8910161513775 172.44555433772325,378.3910161513775 172.44555433772325,447.67304845413264" />
  <polygon fill="white" points="215.74682452694523,435.17304845413264 215.74682452694518,365.8910161513775 259.0480947161671,353.3910161513775 259.0480947161671,422.67304845413264" />
  <polygon fill="white" points="302.34936490538905,410.17304845413264 302.34936490538905,340.8910161513775 345.65063509461095,328.3910161513775 345.65063509461095,397.67304845413264" />
  <polygon fill="white" points="388.9519052838329,385.17304845413264 388.9519052838329,315.8910161513775 432.2531754730548,303.3910161513775 432.25317547305485,372.67304845413264" />
  <polygon fill="white" points="475.5544456622768,360.17304845413264 475.55444566227675,290.8910161513775 518.8557158514986,278.3910161513775 518.8557158514986,347.67304845413264" />
</svg>
