<?xml version="1.0" encoding="UTF-8"?>
<svg
  xmlns="http://www.w3.org/2000/svg"
  width="848"
  height="600"
  style="background-color:white"
>
  <polygon fill="lightblue" points="319.296388045146,519.3610479514932 188.25931833470116,405.8796167447756 528.7036119548541,307.60181446194196 659.7406816652988,421.0832456686596" />
  <polygon fill="steelblue" points="188.25931833470116,405.8796167447756 188.25931833470116,178.91675433134043 528.7036119548541,80.63895204850672 528.7036119548541,307.60181446194196" />
  <polygon fill="lightskyblue" points="659.7406816652988,421.0832456686596 659.7406816652988,194.12038325522437 528.7036119548541,80.63895204850672 528.7036119548541,307.60181446194196" />
  <polygon fill="white" points="604.0499270383598,372.8536374058046 604.0499270383598,259.372206199087 584.3943665817931,242.34999151807935 584.3943665817931,355.83142272479694" />
  <polygon fill="white" points="230.81485503722027,348.2023189767344 230.81485503722027,302.8097464940473 259.1852128388997,294.61992963714454 259.1852128388997,340.0125021198316" />
  <polygon fill="white" points="287.55557064057905,331.82268526292876 287.55557064057905,286.4301127802417 315.9259284422585,278.2402959233389 315.9259284422585,323.632868406026" />
  <polygon fill="white" points="344.29628624393786,315.44305154912314 344.29628624393786,270.0504790664361 372.6666440456173,261.8606622095333 372.6666440456173,307.25323469222036" />
  <polygon fill="white" points="401.0370018472967,299.0634178353175 401.03700184729666,253.6708453526305 429.40735964897607,245.48102849572768 429.40735964897607,290.87360097841474" />
  <polygon fill="white" points="457.7777174506555,282.6837841215119 457.7777174506555,237.29121163882488 486.1480752523349,229.1013947819221 486.1480752523349,274.4939672646091" />
  <polygon fill="antiquewhite" points="494.33691035972777,421.7646456938853 494.33691035972777,325.30542916817535 517.0331966010713,318.7535756826531 517.0331966010713,415.21279220836306" />
  <polygon fill="beige" points="494.33691035972777,421.7646456938853 494.33691035972777,325.30542916817535 481.23320338868325,313.9572860475036 481.23320338868325,410.41650257321356" />
  <polygon fill="bisque" points="494.33691035972777,325.30542916817535 481.23320338868325,313.9572860475036 503.9294896300268,307.40543256198134 517.0331966010713,318.7535756826531" />
</svg>
