<?xml version="1.0" encoding="UTF-8"?>
<svg
  xmlns="http://www.w3.org/2000/svg"
  width="848"
  height="600"
  style="background-color:white"
>
  <polygon fill="lightblue" points="339.2492105574373,477.5585544732971 233.1831933794552,385.7026891189279 508.7507894425627,306.15317623544126 614.8168066205449,398.0090415898104" />
  <polygon fill="steelblue" points="233.1831933794552,385.7026891189279 233.1831933794552,201.99095841018956 508.7507894425627,122.44144552670292 508.7507894425627,306.15317623544126" />
  <polygon fill="lightskyblue" points="614.8168066205449,398.0090415898104 614.8168066205449,214.29731088107212 508.7507894425627,122.44144552670292 508.7507894425627,306.15317623544126" />
  <polygon fill="white" points="569.7387493199024,358.97029881420355 569.7387493199024,267.1144334598344 553.8288467432051,253.33605365667898 553.8288467432051,345.1919190110482" />
  <polygon fill="white" points="276.8147294227806,336.36500343729483 276.8147294227806,299.6226572955472 299.77869576137283,292.99353122192326 299.77869576137283,329.73587736367097" />
  <polygon fill="white" points="331.92824863540204,320.4551008605975 331.92824863540204,283.71275471884985 354.8922149739943,277.083628645226 354.8922149739943,313.82597478697363" />
  <polygon fill="white" points="387.04176784802354,304.5451982839002 387.04176784802354,267.8028521421525 410.0057341866158,261.17372606852865 410.0057341866158,297.9160722102763" />
  <polygon fill="white" points="442.15528706064504,288.6352957072029 442.15528706064504,251.8929495654552 465.1192533992373,245.26382349183132 465.1192533992373,282.00616963357896" />
</svg>
