<?xml version="1.0" encoding="UTF-8"?>
<svg
  xmlns="http://www.w3.org/2000/svg"
  width="848"
  height="600"
  style="background-color:white"
>
  <polygon fill="lightblue" points="264.1923788646684,678.1088913245535 64.1923788646684,504.9038105676658 583.8076211353316,354.90381056766574 783.8076211353316,528.1088913245535" />
  <polygon fill="steelblue" points="64.1923788646684,504.9038105676658 64.1923788646684,71.89110867544653 583.8076211353316,-78.10889132455355 583.8076211353316,354.90381056766574" />
  <polygon fill="lightskyblue" points="783.8076211353316,528.1088913245535 783.8076211353316,95.0961894323342 583.8076211353316,-78.10889132455355 583.8076211353316,354.90381056766574" />
  <polygon fill="white" points="698.8076211353316,454.4967320028762 698.8076211353316,281.2916512459885 668.8076211353316,255.31088913245532 668.8076211353316,428.515969889343" />
  <polygon fill="white" points="116.77249266586648,420.4432068363393 116.77249266586648,351.1611745335842 160.07376285508843,338.6611745335842 160.07376285508843,407.9432068363393" />
  <polygon fill="white" points="191.0032415616755,399.01463540776786 191.0032415616755,329.73260310501274 234.30451175089743,317.23260310501274 234.30451175089743,386.51463540776786" />
  <polygon fill="white" points="265.23399045748454,377.5860639791964 265.23399045748454,308.30403167644135 308.53526064670643,295.8040316764413 308.53526064670643,365.0860639791964" />
  <polygon fill="white" points="339.46473935329357,356.15749255062497 339.46473935329357,286.8754602478699 382.76600954251546,274.37546024786985 382.76600954251546,343.65749255062497" />
  <polygon fill="white" points="413.6954882491026,334.7289211220535 413.69548824910254,265.44688881929847 456.9967584383245,252.94688881929844 456.9967584383245,322.2289211220535" />
  <polygon fill="white" points="487.92623714491157,313.30034969348213 487.92623714491157,244.01831739072702 531.2275073341334,231.51831739072702 531.2275073341334,300.80034969348213" />
</svg>
