<?xml version="1.0" encoding="UTF-8"?>
<svg
  xmlns="http://www.w3.org/2000/svg"
  width="848"
  height="600"
  style="background-color:white"
>
  <polygon fill="lightblue" points="319.296388045146,519.3610479514932 188.25931833470116,405.8796167447756 528.7036119548541,307.60181446194196 659.7406816652988,421.0832456686596" />
  <polygon fill="steelblue" points="188.25931833470116,405.8796167447756 188.25931833470116,178.91675433134043 528.7036119548541,80.63895204850672 528.7036119548541,307.60181446194196" />
  <polygon fill="lightskyblue" points="659.7406816652988,421.0832456686596 659.7406816652988,194.12038325522437 528.7036119548541,80.63895204850672 528.7036119548541,307.60181446194196" />
  <polygon fill="white" points="604.0499270383598,372.8536374058046 604.0499270383598,259.372206199087 584.3943665817931,242.34999151807935 584.3943665817931,355.83142272479694" />
  <polygon fill="white" points="242.16299815789205,344.9263922339733 242.16299815789205,299.5338197512862 270.53335595957145,291.3440028943834 270.53335595957145,336.73657537707044" />
  <polygon fill="white" points="310.2518568819226,325.2708317774065 310.2518568819226,279.8782592947195 338.622214683602,271.68844243781666 338.622214683602,317.0810149205037" />
  <polygon fill="white" points="378.34071560595316,305.6152713208398 378.34071560595316,260.2226988381527 406.71107340763257,252.03288198124994 406.71107340763257,297.425454463937" />
  <polygon fill="white" points="446.4295743299837,285.95971086427306 446.4295743299837,240.567138381586 474.7999321316631,232.3773215246832 474.7999321316631,277.7698940073702" />
  <polygon fill="antiquewhite" points="494.33691035972777,421.7646456938853 494.33691035972777,325.30542916817535 517.0331966010713,318.7535756826531 517.0331966010713,415.21279220836306" />
  <polygon fill="beige" points="494.33691035972777,421.7646456938853 494.33691035972777,325.30542916817535 481.23320338868325,313.9572860475036 481.23320338868325,410.41650257321356" />
  <polygon fill="bisque" points="494.33691035972777,325.30542916817535 481.23320338868325,313.9572860475036 503.9294896300268,307.40543256198134 517.0331966010713,318.7535756826531" />
  <polygon fill="antiquewhite" points="337.3825750642029,500.6036960021744 337.3825750642029,404.1444794764644 360.0788613055464,397.5926259909422 360.0788613055464,494.05184251665213" />
  <polygon fill="beige" points="337.3825750642029,500.6036960021744 337.3825750642029,404.1444794764644 324.2788680931584,392.7963363557927 324.2788680931584,489.2555528815026" />
  <polygon fill="bisque" points="337.3825750642029,404.1444794764644 324.2788680931584,392.7963363557927 346.9751543345019,386.2444828702704 360.0788613055464,397.5926259909422" />
</svg>
