<?xml version="1.0" encoding="UTF-8"?>
<svg
  xmlns="http://www.w3.org/2000/svg"
  width="848"
  height="600"
  style="background-color:white"
>
  <polygon fill="lightblue" points="354.8012701892219,482.4759526419165 268.1987298107781,407.4759526419165 493.1987298107781,342.5240473580835 579.8012701892219,417.5240473580835" />
  <polygon fill="steelblue" points="268.1987298107781,407.4759526419165 268.1987298107781,182.47595264191648 493.1987298107781,117.52404735808352 493.1987298107781,342.5240473580835" />
  <polygon fill="lightskyblue" points="579.8012701892219,417.5240473580835 579.8012701892219,192.52404735808352 493.1987298107781,117.52404735808352 493.1987298107781,342.5240473580835" />
  <polygon fill="white" points="542.9951905283833,385.6490473580835 542.9951905283833,310.6490473580835 530.0048094716167,299.3990473580835 530.0048094716167,374.3990473580835" />
  <polygon fill="white" points="303.8237298107781,367.1919009719762 303.8237298107781,337.1919009719762 322.5737298107781,331.7792421983235 322.5737298107781,361.7792421983235" />
  <polygon fill="white" points="348.8237298107781,354.20151991520964 348.8237298107781,324.20151991520964 367.57372981077805,318.78886114155694 367.5737298107781,348.78886114155694" />
  <polygon fill="white" points="393.82372981077805,341.21113885844306 393.82372981077805,311.21113885844306 412.57372981077805,305.79848008479036 412.57372981077805,335.79848008479036" />
  <polygon fill="white" points="438.82372981077805,328.2207578016765 438.82372981077805,298.2207578016765 457.57372981077805,292.8080990280237 457.57372981077805,322.8080990280238" />
</svg>
