<?xml version="1.0" encoding="UTF-8"?>
<svg
  xmlns="http://www.w3.org/2000/svg"
  width="848"
  height="600"
  style="background-color:white"
>
  <polygon fill="lightblue" points="264.1923788646684,591.5063509461097 64.1923788646684,418.30127018922195 583.8076211353316,268.3012701892219 783.8076211353316,441.50635094610965" />
  <polygon fill="steelblue" points="64.1923788646684,418.30127018922195 64.1923788646684,158.49364905389035 583.8076211353316,8.493649053890294 583.8076211353316,268.3012701892219" />
  <polygon fill="lightskyblue" points="783.8076211353316,441.50635094610965 783.8076211353316,181.69872981077805 583.8076211353316,8.493649053890294 583.8076211353316,268.3012701892219" />
  <polygon fill="white" points="698.8076211353316,367.8941916244323 698.8076211353316,194.68911086754463 668.8076211353316,168.70834875401147 668.8076211353316,341.91342951089916" />
  <polygon fill="white" points="146.4647922241901,325.26923788646684 146.4647922241901,255.98720558371176 189.76606241341204,243.48720558371176 189.76606241341204,312.76923788646684" />
  <polygon fill="white" points="250.3878406783227,295.26923788646684 250.3878406783227,225.98720558371173 293.6891108675446,213.48720558371173 293.6891108675446,282.76923788646684" />
  <polygon fill="white" points="354.3108891324553,265.26923788646684 354.3108891324553,195.98720558371173 397.61215932167727,183.48720558371173 397.61215932167727,252.76923788646684" />
  <polygon fill="white" points="458.23393758658796,235.2692378864668 458.23393758658796,165.98720558371173 501.5352077758099,153.48720558371173 501.5352077758099,222.7692378864668" />
</svg>
