<?xml version="1.0" encoding="UTF-8"?>
<svg
  xmlns="http://www.w3.org/2000/svg"
  width="848"
  height="600"
  style="background-color:white"
>
  <polygon fill="lightblue" points="308.75876354285947,510.2124546969536 164.53380651211864,385.309978048613 539.2412364571405,277.14126027555733 683.4661934878814,402.043736923898" />
  <polygon fill="steelblue" points="164.53380651211864,385.309978048613 164.53380651211864,197.95626307610203 539.2412364571405,89.78754530304636 539.2412364571405,277.14126027555733" />
  <polygon fill="lightskyblue" points="683.4661934878814,402.043736923898 683.4661934878814,214.690021951387 539.2412364571405,89.78754530304636 539.2412364571405,277.14126027555733" />
  <polygon fill="white" points="622.1705867498165,348.9601843483532 622.1705867498165,224.05770770001254 600.5368431952054,205.32233620276145 600.5368431952054,330.2248128511021" />
  <polygon fill="white" points="211.37223525524638,321.8278976676448 211.37223525524638,271.8669070083085 242.59785441733155,262.8528471938872 242.59785441733155,312.81383785322345" />
  <polygon fill="white" points="273.8234735794167,303.7997780388022 273.8234735794167,253.83878737946588 305.04909274150185,244.8247275650446 305.04909274150185,294.78571822438084" />
  <polygon fill="white" points="336.274711903587,285.77165840995957 336.274711903587,235.81066775062328 367.5003310656722,226.796607936202 367.5003310656722,276.75759859553824" />
  <polygon fill="white" points="398.7259502277573,267.7435387811169 398.7259502277573,217.78254812178068 429.95156938984246,208.7684883073594 429.95156938984246,258.72947896669564" />
  <polygon fill="white" points="461.17718855192766,249.7154191522743 461.17718855192766,199.75442849293808 492.4028077140128,190.74036867851677 492.4028077140128,240.70135933785303" />
</svg>
