<?xml version="1.0" encoding="UTF-8"?>
<svg
  xmlns="http://www.w3.org/2000/svg"
  width="848"
  height="600"
  style="background-color:white"
>
  <polygon fill="lightblue" points="326.1382178026063,478.5104541496623 203.66373066344735,372.44443697168015 521.8617821973937,280.58857161731095 644.3362693365526,386.6545887952931" />
  <polygon fill="steelblue" points="203.66373066344735,372.44443697168015 203.66373066344735,213.34541120470695 521.8617821973937,121.48954585033772 521.8617821973937,280.58857161731095" />
  <polygon fill="lightskyblue" points="644.3362693365526,386.6545887952931 644.3362693365526,227.55556302831985 521.8617821973937,121.48954585033772 521.8617821973937,280.58857161731095" />
  <polygon fill="white" points="592.2846123024101,341.5765314946507 592.2846123024101,235.51051431666852 573.9134392315362,219.6006117399712 573.9134392315362,325.66662891795335" />
  <polygon fill="white" points="254.0450888229889,315.4741847527121 254.0450888229889,273.0477778815193 280.56159311748445,265.39312243532186 280.56159311748445,307.8195293065147" />
  <polygon fill="white" points="317.68469912977815,297.1030116818383 317.68469912977815,254.67660481064547 344.2012034242737,247.02194936444803 344.2012034242737,289.44835623564086" />
  <polygon fill="white" points="381.32430943656743,278.7318386109645 381.32430943656743,236.30543173977162 407.84081373106295,228.6507762935742 407.84081373106295,271.07718316476706" />
  <polygon fill="white" points="444.96391974335666,260.3606655400906 444.96391974335666,217.93425866889777 471.48042403785223,210.27960322270036 471.48042403785223,252.7060100938932" />
</svg>
