<?xml version="1.0" encoding="UTF-8"?>
<svg
  xmlns="http://www.w3.org/2000/svg"
  width="848"
  height="600"
  style="background-color:white"
>
  <polygon fill="lightblue" points="348.19658946386335,479.35279502200035 253.32825965881196,397.1944113962254 499.80341053613665,326.0431640424369 594.6717403411881,408.2015476682118" />
  <polygon fill="steelblue" points="253.32825965881196,397.1944113962254 253.32825965881196,191.7984523317882 499.80341053613665,120.64720497799965 499.80341053613665,326.0431640424369" />
  <polygon fill="lightskyblue" points="594.6717403411881,408.2015476682118 594.6717403411881,202.80558860377457 499.80341053613665,120.64720497799965 499.80341053613665,326.0431640424369" />
  <polygon fill="white" points="554.3527001740412,373.28423462725743 554.3527001740412,291.12585100148254 540.1224507032834,278.8020934576163 540.1224507032834,360.9604770833912" />
  <polygon fill="white" points="284.1376535184776,355.4371520266919 284.1376535184776,322.57379857638193 304.6772494249213,316.64452796356625 304.6772494249213,349.5078814138762" />
  <polygon fill="white" points="325.216845331365,343.5786108010605 325.216845331365,310.7152573507505 345.75644123780876,304.7859867379348 345.75644123780876,337.64934018824476" />
  <polygon fill="white" points="366.29603714425247,331.7200695754291 366.29603714425247,298.8567161251191 386.8356330506962,292.9274455123034 386.8356330506962,325.79079896261334" />
  <polygon fill="white" points="407.37522895713994,319.86152834979765 407.3752289571399,286.99817489948765 427.91482486358365,281.06890428667197 427.91482486358365,313.9322577369819" />
  <polygon fill="white" points="448.45442077002735,308.0029871241662 448.45442077002735,275.1396336738562 468.99401667647106,269.21036306104054 468.99401667647106,302.0737165113505" />
</svg>
