<?xml version="1.0" encoding="UTF-8"?>
<svg
  xmlns="http://www.w3.org/2000/svg"
  width="848"
  height="600"
  style="background-color:white"
>
  <polygon fill="lightblue" points="284.39518406019465,516.8271097975127 109.67909111293483,365.5185348552224 563.6048159398053,234.48146514477753 738.3209088870651,385.7900400870677" />
  <polygon fill="steelblue" points="109.67909111293483,365.5185348552224 109.67909111293483,214.20995991293228 563.6048159398053,83.17289020248737 563.6048159398053,234.48146514477753" />
  <polygon fill="lightskyblue" points="738.3209088870651,385.7900400870677 738.3209088870651,234.4814651447776 563.6048159398053,83.17289020248737 563.6048159398053,234.48146514477753" />
  <polygon fill="white" points="634.9472205599365,296.26579991287934 634.9472205599365,152.5226537177037 608.7398066178475,129.8263674763602 608.7398066178475,273.56951367153584" />
  <polygon fill="white" points="693.185918209023,346.7019915603094 693.185918209023,202.95884536513375 666.9785042669341,180.26255912379025 666.9785042669341,324.0057053189659" />
  <polygon fill="white" points="181.5506642105227,284.24756884081927 181.5506642105227,223.7241388639032 219.37780794609523,212.80438305469943 219.37780794609523,273.3278130316155" />
  <polygon fill="white" points="272.33580917589677,258.0401548987303 272.33580917589677,197.51672492181422 310.1629529114693,186.59696911261045 310.1629529114693,247.12039908952653" />
  <polygon fill="white" points="363.1209541412709,231.83274095664132 363.1209541412709,171.30931097972524 400.9480978768434,160.3895551705215 400.9480978768434,220.91298514743755" />
  <polygon fill="white" points="453.906099106645,205.62532701455234 453.906099106645,145.10189703763626 491.7332428422175,134.18214122843253 491.7332428422175,194.70557120534858" />
  <polygon fill="grey" points="547.6171838226403,165.96421910927893 547.6171838226403,128.1370753737064 585.4443275582129,117.21731956450267 585.4443275582129,155.0444633000752" />
  <polygon fill="lightgrey" points="547.6171838226403,165.96421910927893 547.6171838226403,128.1370753737064 525.7776722042328,109.22350350592012 525.7776722042328,147.05064724149267" />
  <polygon fill="darkgrey" points="547.6171838226403,128.1370753737064 525.7776722042328,109.22350350592012 563.6048159398053,98.30374769671639 585.4443275582129,117.21731956450267" />
  <polygon fill="hsl(288.0,50.0%,52.57800117743009%)" points="474.2097952977927,384.382130904357 474.20979529779265,332.42276626917453 483.2883097943301,329.80202487496564 483.28830979433013,381.7613895101481" />
  <polygon fill="hsl(288.0,50.0%,52.57800117743009%)" points="496.9060815391362,377.8302774188347 496.9060815391362,325.87091278365233 487.8275670425988,328.4916541778612 487.8275670425988,380.4510188130437" />
  <polygon fill="hsl(288.0,50.0%,52.57800117743009%)" points="465.1312808012553,335.5579568181872 465.1312808012553,284.11304133780857 473.0749809857255,281.8198926178758 473.0749809857255,333.26480809825443" />
  <polygon fill="hsl(288.0,50.0%,52.57800117743009%)" points="498.0408958512034,326.05776926417997 498.0408958512034,274.6128537838013 505.98459603567363,272.3197050638685 505.98459603567363,323.7646205442472" />
  <polygon fill="hsl(288.0,50.0%,52.57800117743009%)" points="473.0749809857255,289.763592802346 473.0749809857255,281.8198926178758 498.0408958512034,274.6128537838013 498.0408958512034,282.55655396827154" />
  <polygon fill="hsl(288.0,50.0%,52.57800117743009%)" points="474.20979529779265,332.93721542397833 474.20979529779265,281.4922999435997 496.9060815391362,274.9404464580774 496.9060815391362,326.3853619384561" />
  <polygon fill="hsl(288.0,50.0%,52.57800117743009%)" points="479.88386685812856,277.28209079820016 479.88386685812856,254.1318788320298 491.2320099788003,250.85595208926867 491.2320099788003,274.00616405543906" />
  <polygon fill="hsl(288.0,50.0%,52.57800117743009%)" points="482.15349548226294,279.1991512236669 482.15349548226294,253.47669348347756 488.962381354666,251.5111374378209 488.962381354666,277.2335951780102" />
</svg>
