<?xml version="1.0" encoding="UTF-8"?>
<svg
  xmlns="http://www.w3.org/2000/svg"
  width="848"
  height="600"
  style="background-color:white"
>
  <polygon fill="lightblue" points="302.04396001187934,522.4609811485079 149.41539433810175,390.2807659318349 545.9560399881207,275.8093416765016 698.5846056618982,407.9895568931746" />
  <polygon fill="steelblue" points="149.41539433810175,390.2807659318349 149.41539433810175,192.0104431068254 545.9560399881207,77.53901885149213 545.9560399881207,275.8093416765016" />
  <polygon fill="lightskyblue" points="698.5846056618982,407.9895568931746 698.5846056618982,209.71923406816512 545.9560399881207,77.53901885149213 545.9560399881207,275.8093416765016" />
  <polygon fill="white" points="608.2793709715799,329.78292955664307 608.2793709715799,197.60271433997008 585.3850861205132,177.77568205746917 585.3850861205132,309.9558972741421" />
  <polygon fill="white" points="659.1555595295057,373.84300129553407 659.1555595295057,241.66278607886107 636.2612746784391,221.83575379636017 636.2612746784391,354.0159690130331" />
  <polygon fill="white" points="232.02802884852235,313.5604664586379 232.02802884852235,260.6883803719687 265.0730826526906,251.1490950173576 265.0730826526906,304.0211811040268" />
  <polygon fill="white" points="331.16319026102707,284.9426103948046 331.16319026102707,232.07052430813542 364.2082440651953,222.5312389535243 364.20824406519534,275.4033250401935" />
  <polygon fill="white" points="430.2983516735318,256.3247543309713 430.2983516735318,203.45266824430212 463.34340547770006,193.91338288969098 463.34340547770006,246.78546897636016" />
  <polygon fill="hsl(288.0,50.0%,69.21014392802753%)" points="392.41696537672925,369.91375377588554 392.41696537672925,324.52306787048 400.34777828972966,322.23363938537335 400.34777828972966,367.62432529077887" />
  <polygon fill="hsl(288.0,50.0%,69.21014392802753%)" points="412.2439976592302,364.19018256311887 412.2439976592302,318.79949665771335 404.3131847462298,321.08892514282 404.3131847462298,366.47961104822554" />
  <polygon fill="hsl(288.0,50.0%,69.21014392802753%)" points="384.4861524637289,327.2619090873234 384.4861524637289,282.32063591365454 391.4256137626042,280.3173859891862 391.4256137626042,325.25865916285505" />
  <polygon fill="hsl(288.0,50.0%,69.21014392802753%)" points="413.23534927335527,318.96273082881174 413.23534927335527,274.0214576551429 420.17481057223057,272.0182077306746 420.17481057223057,316.95948090434337" />
  <polygon fill="hsl(288.0,50.0%,69.21014392802753%)" points="391.4256137626042,287.2568472880616 391.4256137626042,280.3173859891862 413.23534927335527,274.0214576551429 413.23534927335527,280.9609189540182" />
  <polygon fill="hsl(288.0,50.0%,69.21014392802753%)" points="392.41696537672925,324.9724806022167 392.41696537672925,280.03120742854793 412.2439976592302,274.30763621578126 412.2439976592302,319.24890938945003" />
  <polygon fill="hsl(288.0,50.0%,69.21014392802753%)" points="397.37372344735445,276.3532509666728 397.37372344735445,256.12967803852183 407.28723958860496,253.26789243213852 407.28723958860496,273.49146536028945" />
  <polygon fill="hsl(288.0,50.0%,69.21014392802753%)" points="399.3564266756046,278.02795750407955 399.3564266756046,255.5573209172452 405.30453636035486,253.8402495534152 405.30453636035486,276.3108861402496" />
  <polygon fill="hsl(288.0,50.0%,68.65222276527638%)" points="465.40359326881537,350.810892861953 465.40359326881537,305.4202069565475 473.3344061818158,303.1307784714408 473.3344061818158,348.5214643768463" />
  <polygon fill="hsl(288.0,50.0%,68.65222276527638%)" points="485.2306255513164,345.08732164918626 485.2306255513164,299.6966357437808 477.299812638316,301.98606422888747 477.299812638316,347.37675013429293" />
  <polygon fill="hsl(288.0,50.0%,68.65222276527638%)" points="457.472780355815,308.15904817339083 457.472780355815,263.217774999722 464.4122416546903,261.2145250752537 464.4122416546903,306.15579824892245" />
  <polygon fill="hsl(288.0,50.0%,68.65222276527638%)" points="486.2219771654414,299.85986991487914 486.2219771654414,254.91859674121034 493.16143846431675,252.915346816742 493.16143846431675,297.8566199904108" />
  <polygon fill="hsl(288.0,50.0%,68.65222276527638%)" points="464.4122416546903,268.153986374129 464.4122416546903,261.2145250752537 486.2219771654414,254.91859674121034 486.2219771654414,261.85805804008567" />
  <polygon fill="hsl(288.0,50.0%,68.65222276527638%)" points="465.40359326881537,305.86961968828416 465.40359326881537,260.9283465146153 485.2306255513164,255.20477530184866 485.2306255513164,300.1460484755175" />
  <polygon fill="hsl(288.0,50.0%,68.65222276527638%)" points="470.3603513394406,257.2503900527402 470.3603513394406,237.0268171245893 480.27386748069114,234.16503151820592 480.27386748069114,254.3886044463569" />
  <polygon fill="hsl(288.0,50.0%,68.65222276527638%)" points="472.34305456769073,258.925096590147 472.34305456769073,236.4544600033126 478.29116425244104,234.73738863948262 478.29116425244104,257.208025226317" />
  <polygon fill="hsl(288.0,50.0%,52.57800117743009%)" points="467.86229631056017,406.75963493503565 467.86229631056017,361.36894902963013 475.7931092235606,359.07952054452346 475.7931092235606,404.470206449929" />
  <polygon fill="hsl(288.0,50.0%,52.57800117743009%)" points="487.68932859306113,401.036063722269 487.68932859306113,355.64537781686346 479.7585156800607,357.9348063019701 479.7585156800607,403.32549220737565" />
  <polygon fill="hsl(288.0,50.0%,52.57800117743009%)" points="459.9314833975598,364.1077902464735 459.93148339755976,319.1665170728047 466.8709446964351,317.16326714833633 466.8709446964351,362.10454032200516" />
  <polygon fill="hsl(288.0,50.0%,52.57800117743009%)" points="488.68068020718613,355.80861198796185 488.68068020718613,310.867338814293 495.6201415060615,308.8640888898247 495.6201415060615,353.8053620634935" />
  <polygon fill="hsl(288.0,50.0%,52.57800117743009%)" points="466.8709446964351,324.1027284472117 466.8709446964351,317.16326714833633 488.68068020718613,310.867338814293 488.68068020718613,317.8068001131684" />
  <polygon fill="hsl(288.0,50.0%,52.57800117743009%)" points="467.86229631056017,361.8183617613668 467.86229631056017,316.87708858769804 487.68932859306113,311.15351737493137 487.68932859306113,356.09479054860014" />
  <polygon fill="hsl(288.0,50.0%,52.57800117743009%)" points="472.8190543811854,313.1991321258229 472.8190543811854,292.97555919767194 482.7325705224359,290.11377359128863 482.7325705224359,310.33734651943956" />
  <polygon fill="hsl(288.0,50.0%,52.57800117743009%)" points="474.8017576094355,314.87383866322966 474.8017576094355,292.4032020763953 480.7498672941858,290.6861307125653 480.7498672941858,313.1567672993997" />
  <polygon fill="hsl(288.0,50.0%,46.24652422154656%)" points="329.6338938323152,468.9799639364181 329.6338938323152,423.58927803101255 337.56470674531556,421.2998495459059 337.56470674531556,466.69053545131146" />
  <polygon fill="hsl(288.0,50.0%,46.24652422154656%)" points="349.4609261148162,463.2563927236514 349.4609261148162,417.8657068182459 341.53011320181577,420.15513530335255 341.53011320181577,465.54582120875807" />
  <polygon fill="hsl(288.0,50.0%,46.24652422154656%)" points="321.70308091931486,426.3281192478559 321.70308091931486,381.38684607418713 328.64254221819016,379.38359614971876 328.64254221819016,424.3248693233876" />
  <polygon fill="hsl(288.0,50.0%,46.24652422154656%)" points="350.4522777289412,418.0289409893443 350.4522777289412,373.08766781567545 357.3917390278165,371.0844178912071 357.3917390278165,416.0256910648759" />
  <polygon fill="hsl(288.0,50.0%,46.24652422154656%)" points="328.64254221819016,386.3230574485941 328.64254221819016,379.38359614971876 350.4522777289412,373.08766781567545 350.4522777289412,380.0271291145508" />
  <polygon fill="hsl(288.0,50.0%,46.24652422154656%)" points="329.6338938323152,424.03869076274924 329.6338938323152,379.09741758908046 349.4609261148162,373.3738463763138 349.4609261148162,418.31511954998257" />
  <polygon fill="hsl(288.0,50.0%,46.24652422154656%)" points="334.59065190294046,375.41946112720535 334.59065190294046,355.19588819905437 344.5041680441909,352.33410259267106 344.5041680441909,372.557675520822" />
  <polygon fill="hsl(288.0,50.0%,46.24652422154656%)" points="336.57335513119057,377.0941676646121 336.57335513119057,354.6235310777777 342.5214648159408,352.90645971394775 342.5214648159408,375.3770963007821" />
</svg>
