<?xml version="1.0" encoding="UTF-8"?>
<svg
  xmlns="http://www.w3.org/2000/svg"
  width="848"
  height="600"
  style="background-color:white"
>
  <polygon fill="lightblue" points="264.1923788646684,591.5063509461097 64.1923788646684,418.30127018922195 583.8076211353316,268.3012701892219 783.8076211353316,441.50635094610965" />
  <polygon fill="steelblue" points="64.1923788646684,418.30127018922195 64.1923788646684,158.49364905389035 583.8076211353316,8.493649053890294 583.8076211353316,268.3012701892219" />
  <polygon fill="lightskyblue" points="783.8076211353316,441.50635094610965 783.8076211353316,181.69872981077805 583.8076211353316,8.493649053890294 583.8076211353316,268.3012701892219" />
  <polygon fill="white" points="698.8076211353316,367.8941916244323 698.8076211353316,194.68911086754463 668.8076211353316,168.70834875401147 668.8076211353316,341.91342951089916" />
  <polygon fill="white" points="116.77249266586648,333.8406664578954 116.77249266586648,264.55863415514034 160.07376285508843,252.05863415514034 160.07376285508843,321.3406664578954" />
  <polygon fill="white" points="191.0032415616755,312.412095029324 191.0032415616755,243.1300627265689 234.30451175089743,230.6300627265689 234.30451175089743,299.91209502932395" />
  <polygon fill="white" points="265.23399045748454,290.98352360075256 265.23399045748454,221.70149129799745 308.53526064670643,209.20149129799745 308.53526064670643,278.48352360075256" />
  <polygon fill="white" points="339.46473935329357,269.5549521721811 339.46473935329357,200.272919869426 382.76600954251546,187.772919869426 382.76600954251546,257.0549521721811" />
  <polygon fill="white" points="413.69548824910254,248.12638074360967 413.69548824910254,178.84434844085456 456.9967584383245,166.34434844085456 456.9967584383245,235.62638074360967" />
  <polygon fill="white" points="487.92623714491157,226.69780931503823 487.92623714491157,157.41577701228314 531.2275073341334,144.91577701228314 531.2275073341334,214.19780931503823" />
</svg>
