<?xml version="1.0" encoding="UTF-8"?>
<svg
  xmlns="http://www.w3.org/2000/svg"
  width="848"
  height="600"
  style="background-color:white"
>
  <polygon fill="lightblue" points="308.75876354285947,510.2124546969536 164.53380651211864,385.309978048613 539.2412364571405,277.14126027555733 683.4661934878814,402.043736923898" />
  <polygon fill="steelblue" points="164.53380651211864,385.309978048613 164.53380651211864,197.95626307610203 539.2412364571405,89.78754530304636 539.2412364571405,277.14126027555733" />
  <polygon fill="lightskyblue" points="683.4661934878814,402.043736923898 683.4661934878814,214.690021951387 539.2412364571405,89.78754530304636 539.2412364571405,277.14126027555733" />
  <polygon fill="hsl(360.0,50.0%,69.21014392802753%)" points="394.15590239393697,366.064357544554 394.15590239393697,323.1728470635138 401.6500509928374,321.00947270805267 401.6500509928374,363.90098318909287" />
  <polygon fill="hsl(360.0,50.0%,69.21014392802753%)" points="412.89127389118806,360.65592165590124 412.89127389118806,317.76441117486104 405.3971252922876,319.9277855303221 405.3971252922876,362.8192960113623" />
  <polygon fill="hsl(360.0,50.0%,69.21014392802753%)" points="386.66175379503653,325.7608898395793 386.66175379503653,283.29404777914345 393.2191338190744,281.401095218115 393.2191338190744,323.8679372785508" />
  <polygon fill="hsl(360.0,50.0%,69.21014392802753%)" points="413.8280424660506,317.91865780103274 413.8280424660506,275.45181574059694 420.3854224900885,273.55886317956845 420.3854224900885,316.0257052400043" />
  <polygon fill="hsl(360.0,50.0%,69.21014392802753%)" points="393.2191338190744,287.9584752421529 393.2191338190744,281.401095218115 413.8280424660506,275.45181574059694 413.8280424660506,282.0091957646348" />
  <polygon fill="hsl(360.0,50.0%,69.21014392802753%)" points="394.15590239393697,323.59751548411816 394.15590239393697,281.13067342368237 412.89127389118806,275.7222375350296 412.89127389118806,318.1890795954654" />
  <polygon fill="hsl(360.0,50.0%,69.21014392802753%)" points="398.8397452682497,277.6552223484974 398.8397452682497,258.54514342130125 408.20743101687526,255.84092547697486 408.20743101687526,274.951004404171" />
  <polygon fill="hsl(360.0,50.0%,69.21014392802753%)" points="400.7132824179748,279.2377208626539 400.7132824179748,258.004299832436 406.33389386715015,256.38176906584016 406.33389386715015,277.61519009605803" />
  <polygon fill="hsl(360.0,50.0%,68.65222276527638%)" points="463.1239440254996,348.0132851105458 463.1239440254996,305.1217746295056 470.61809262440005,302.9584002740445 470.61809262440005,345.84991075508464" />
  <polygon fill="hsl(360.0,50.0%,68.65222276527638%)" points="481.85931552275076,342.60484922189295 481.85931552275076,299.7133387408528 474.3651669238503,301.8767130963139 474.3651669238503,344.7682235773541" />
  <polygon fill="hsl(360.0,50.0%,68.65222276527638%)" points="455.62979542659923,307.709817405571 455.62979542659923,265.2429753451352 462.1871754506371,263.3500227841067 462.1871754506371,305.8168648445426" />
  <polygon fill="hsl(360.0,50.0%,68.65222276527638%)" points="482.7960840976133,299.8675853670245 482.7960840976133,257.4007433065887 489.3534641216512,255.50779074556021 489.3534641216512,297.974632805996" />
  <polygon fill="hsl(360.0,50.0%,68.65222276527638%)" points="462.1871754506371,269.90740280814464 462.1871754506371,263.3500227841067 482.7960840976133,257.4007433065887 482.7960840976133,263.95812333062656" />
  <polygon fill="hsl(360.0,50.0%,68.65222276527638%)" points="463.1239440254996,305.54644305010993 463.1239440254996,263.07960098967413 481.85931552275076,257.6711651010213 481.85931552275076,300.13800716145715" />
  <polygon fill="hsl(360.0,50.0%,68.65222276527638%)" points="467.8077868998124,259.60414991448914 467.8077868998124,240.49407098729301 477.17547264843796,237.78985304296663 477.17547264843796,256.89993197016275" />
  <polygon fill="hsl(360.0,50.0%,68.65222276527638%)" points="469.6813240495375,261.18664842864564 469.6813240495375,239.95322739842774 475.30193549871285,238.33069663183193 475.30193549871285,259.5641176620498" />
  <polygon fill="hsl(360.0,50.0%,56.400513863274796%)" points="370.1745685215327,415.6526261955778 370.1745685215327,372.7611157145376 377.66871712043314,370.59774135907645 377.6687171204332,413.48925184011665" />
  <polygon fill="hsl(360.0,50.0%,56.400513863274796%)" points="388.9099400187838,410.244190306925 388.9099400187838,367.3526798258848 381.41579141988336,369.5160541813459 381.41579141988336,412.4075646623861" />
  <polygon fill="hsl(360.0,50.0%,56.400513863274796%)" points="362.68041992263227,375.34915849060303 362.68041992263227,332.88231643016724 369.2377999466702,330.98936386913874 369.2377999466702,373.4562059295746" />
  <polygon fill="hsl(360.0,50.0%,56.400513863274796%)" points="389.8467085936464,367.5069264520565 389.8467085936464,325.0400843916207 396.40408861768424,323.14713183059223 396.40408861768424,365.6139738910281" />
  <polygon fill="hsl(360.0,50.0%,56.400513863274796%)" points="369.2377999466702,337.54674389317665 369.2377999466702,330.98936386913874 389.8467085936464,325.0400843916207 389.8467085936464,331.5974644156586" />
  <polygon fill="hsl(360.0,50.0%,56.400513863274796%)" points="370.1745685215327,373.18578413514194 370.1745685215327,330.71894207470615 388.9099400187838,325.3105061860533 388.9099400187838,367.77734824648917" />
  <polygon fill="hsl(360.0,50.0%,56.400513863274796%)" points="374.85841139584545,327.24349099952116 374.85841139584545,308.13341207232503 384.22609714447105,305.42919412799864 384.22609714447105,324.53927305519477" />
  <polygon fill="hsl(360.0,50.0%,56.400513863274796%)" points="376.7319485455706,328.82598951367765 376.7319485455706,307.59256848345973 382.35255999474595,305.97003771686394 382.35255999474595,327.2034587470818" />
  <polygon fill="hsl(360.0,50.0%,52.57800117743009%)" points="465.44727281380074,400.88153350030757 465.44727281380074,357.9900230192674 472.9414214127012,355.8266486638063 472.9414214127012,398.7181591448465" />
  <polygon fill="hsl(360.0,50.0%,52.57800117743009%)" points="484.18264431105183,395.4730976116548 484.18264431105183,352.5815871306146 476.6884957121514,354.74496148607574 476.6884957121514,397.63647196711594" />
  <polygon fill="hsl(360.0,50.0%,52.57800117743009%)" points="457.9531242149003,360.57806579533286 457.9531242149003,318.11122373489707 464.51050423893815,316.2182711738686 464.51050423893815,358.6851132343044" />
  <polygon fill="hsl(360.0,50.0%,52.57800117743009%)" points="485.11941288591436,352.73583375678635 485.11941288591436,310.2689916963505 491.67679290995227,308.37603913532206 491.67679290995227,350.84288119575785" />
  <polygon fill="hsl(360.0,50.0%,52.57800117743009%)" points="464.51050423893815,322.7756511979065 464.51050423893815,316.2182711738686 485.11941288591436,310.2689916963505 485.11941288591436,316.8263717203884" />
  <polygon fill="hsl(360.0,50.0%,52.57800117743009%)" points="465.44727281380074,358.4146914398718 465.44727281380074,315.9478493794359 484.18264431105183,310.53941349078315 484.18264431105183,353.006255551219" />
  <polygon fill="hsl(360.0,50.0%,52.57800117743009%)" points="470.1311156881135,312.472398304251 470.1311156881135,293.36231937705486 479.4988014367391,290.6581014327285 479.4988014367391,309.76818035992454" />
  <polygon fill="hsl(360.0,50.0%,52.57800117743009%)" points="472.0046528378386,314.0548968184075 472.0046528378386,292.82147578818956 477.6252642870139,291.1989450215937 477.6252642870139,312.43236605181164" />
  <polygon fill="hsl(360.0,50.0%,46.24652422154656%)" points="334.8296173320397,459.6760601804772 334.8296173320397,416.784549699437 342.3237659309401,414.6211753439759 342.3237659309401,457.5126858250161" />
  <polygon fill="hsl(360.0,50.0%,46.24652422154656%)" points="353.56498882929077,454.2676242918244 353.56498882929077,411.3761138107842 346.07084023039033,413.53948816624535 346.07084023039033,456.43099864728555" />
  <polygon fill="hsl(360.0,50.0%,46.24652422154656%)" points="327.33546873313924,419.3725924755025 327.33546873313924,376.9057504150667 333.8928487571771,375.01279785403824 333.8928487571771,417.47963991447403" />
  <polygon fill="hsl(360.0,50.0%,46.24652422154656%)" points="354.5017574041533,411.53036043695596 354.5017574041533,369.06351837652016 361.0591374281912,367.17056581549167 361.0591374281912,409.63740787592747" />
  <polygon fill="hsl(360.0,50.0%,46.24652422154656%)" points="333.8928487571771,381.5701778780761 333.8928487571771,375.01279785403824 354.5017574041533,369.06351837652016 354.5017574041533,375.620898400558" />
  <polygon fill="hsl(360.0,50.0%,46.24652422154656%)" points="334.8296173320397,417.2092181200414 334.8296173320397,374.7423760596056 353.56498882929077,369.3339401709528 353.56498882929077,411.8007822313886" />
  <polygon fill="hsl(360.0,50.0%,46.24652422154656%)" points="339.5134602063524,371.2669249844206 339.5134602063524,352.15684605722447 348.881145954978,349.4526281128981 348.881145954978,368.5627070400942" />
  <polygon fill="hsl(360.0,50.0%,46.24652422154656%)" points="341.3869973560776,372.8494234985771 341.3869973560776,351.61600246835917 347.00760880525286,349.9934717017634 347.00760880525286,371.22689273198125" />
</svg>
