<?xml version="1.0" encoding="UTF-8"?>
<svg
  xmlns="http://www.w3.org/2000/svg"
  width="848"
  height="600"
  style="background-color:white"
>
  <polygon fill="lightblue" points="332.53297000890956,541.1971069207593 218.06154575357638,442.06194550825467 515.4670299910905,356.2083773167547 629.9384542464236,455.3435387292594" />
  <polygon fill="steelblue" points="218.06154575357638,442.06194550825467 218.06154575357638,144.65646127074058 515.4670299910905,58.80289307924065 515.4670299910905,356.2083773167547" />
  <polygon fill="lightskyblue" points="629.9384542464236,455.3435387292594 629.9384542464236,157.93805449174536 515.4670299910905,58.80289307924065 515.4670299910905,356.2083773167547" />
  <polygon fill="white" points="581.2880989379071,413.2110951289449 581.2880989379071,314.07593371644026 564.117385299607,299.20565950456455 564.117385299607,398.3408209170692" />
  <polygon fill="white" points="255.23723128326566,391.6761849193153 255.23723128326566,352.0221203543134 280.0210216363918,344.86765633835506 280.0210216363918,384.52172090335694" />
  <polygon fill="white" points="304.80481198951804,377.36725688739864 304.804811989518,337.71319232239676 329.58860234264415,330.5587283064384 329.58860234264415,370.2127928714403" />
  <polygon fill="white" points="354.3723926957704,363.058328855482 354.3723926957704,323.4042642904801 379.15618304889654,316.24980027452176 379.15618304889654,355.90386483952364" />
  <polygon fill="white" points="403.9399734020227,348.74940082356534 403.9399734020227,309.09533625856346 428.72376375514887,301.9408722426051 428.72376375514887,341.594936807607" />
  <polygon fill="white" points="453.50755410827503,334.4404727916487 453.50755410827503,294.78640822664676 478.2913444614012,287.63194421068846 478.2913444614012,327.28600877569033" />
  <polygon fill="grey" points="504.9921676698809,113.04655876613876 504.9921676698809,88.26276841301257 529.7759580230071,81.10830439705424 529.7759580230071,105.8920947501804" />
  <polygon fill="lightgrey" points="504.9921676698809,113.04655876613876 504.9921676698809,88.26276841301257 490.6832396379643,75.87087323644946 490.6832396379643,100.65466358957565" />
  <polygon fill="darkgrey" points="504.9921676698809,88.26276841301257 490.6832396379643,75.87087323644946 515.4670299910905,68.71640922049116 529.7759580230071,81.10830439705424" />
  <polygon fill="hsl(360.0,50.0%,52.57800117743009%)" points="456.8967222329201,454.4210972606552 456.8967222329201,420.3780828316011 462.84483191767043,418.6610114677711 462.84483191767043,452.7040258968252" />
  <polygon fill="hsl(360.0,50.0%,52.57800117743009%)" points="471.76699644479584,450.1284188510802 471.76699644479584,416.0854044220261 465.81888676004553,417.80247578585613 465.81888676004553,451.8454902149102" />
  <polygon fill="hsl(360.0,50.0%,52.57800117743009%)" points="450.9486125481698,422.4322137442336 450.9486125481698,388.726258863982 456.15320852232634,387.22382142063077 456.15320852232634,420.9297763008824" />
  <polygon fill="hsl(360.0,50.0%,52.57800117743009%)" points="472.5105101553896,416.20783005034986 472.5105101553896,382.5018751700983 477.7151061295461,380.99943772674703 477.7151061295461,414.7053926069986" />
  <polygon fill="hsl(360.0,50.0%,52.57800117743009%)" points="456.15320852232634,392.4284173947873 456.15320852232634,387.22382142063077 472.5105101553896,382.5018751700983 472.5105101553896,387.70647114425475" />
  <polygon fill="hsl(360.0,50.0%,52.57800117743009%)" points="456.8967222329201,420.7151423804036 456.8967222329201,387.009187500152 471.76699644479584,382.716509090577 471.76699644479584,416.42246397082863" />
  <polygon fill="hsl(360.0,50.0%,52.57800117743009%)" points="460.614290785889,384.2507201537457 460.614290785889,369.0830404576325 468.0494278918269,366.93670125284495 468.0494278918269,382.1043809489582" />
  <polygon fill="hsl(360.0,50.0%,52.57800117743009%)" points="462.1013182070766,385.5067500568008 462.1013182070766,368.653772616675 466.5624004706393,367.3659690938025 466.5624004706393,384.21894653392826" />
</svg>
