<?xml version="1.0" encoding="UTF-8"?>
<svg
  xmlns="http://www.w3.org/2000/svg"
  width="848"
  height="600"
  style="background-color:white"
>
  <polygon fill="lightblue" points="264.1923788646684,721.4101615137755 64.1923788646684,548.2050807568878 583.8076211353316,398.2050807568877 783.8076211353316,571.4101615137754" />
  <polygon fill="steelblue" points="64.1923788646684,548.2050807568878 64.1923788646684,28.58983848622455 583.8076211353316,-121.4101615137755 583.8076211353316,398.2050807568877" />
  <polygon fill="lightskyblue" points="783.8076211353316,571.4101615137754 783.8076211353316,51.79491924311225 583.8076211353316,-121.4101615137755 583.8076211353316,398.2050807568877" />
  <polygon fill="white" points="698.8076211353316,497.7980021920981 698.8076211353316,324.5929214352104 668.8076211353316,298.61215932167727 668.8076211353316,471.81724007856496" />
  <polygon fill="white" points="116.77249266586648,463.7444770255612 116.77249266586648,394.46244472280614 160.07376285508843,381.96244472280614 160.07376285508843,451.2444770255612" />
  <polygon fill="white" points="191.0032415616755,442.31590559698975 191.0032415616755,373.0338732942347 234.30451175089743,360.5338732942347 234.30451175089743,429.81590559698975" />
  <polygon fill="white" points="265.23399045748454,420.88733416841836 265.23399045748454,351.60530186566325 308.53526064670643,339.10530186566325 308.53526064670643,408.38733416841836" />
  <polygon fill="white" points="339.46473935329357,399.4587627398469 339.46473935329357,330.1767304370918 382.76600954251546,317.6767304370918 382.76600954251546,386.9587627398469" />
  <polygon fill="white" points="413.6954882491026,378.03019131127553 413.6954882491026,308.74815900852036 456.9967584383245,296.24815900852036 456.9967584383245,365.5301913112755" />
  <polygon fill="white" points="487.92623714491157,356.6016198827041 487.92623714491157,287.3195875799489 531.2275073341334,274.8195875799489 531.2275073341334,344.1016198827041" />
</svg>
