<?xml version="1.0" encoding="UTF-8"?>
<svg
  xmlns="http://www.w3.org/2000/svg"
  width="848"
  height="600"
  style="background-color:white"
>
  <polygon fill="lightblue" points="348.19658946386335,479.35279502200035 253.32825965881196,397.1944113962254 499.80341053613665,326.0431640424369 594.6717403411881,408.2015476682118" />
  <polygon fill="steelblue" points="253.32825965881196,397.1944113962254 253.32825965881196,191.7984523317882 499.80341053613665,120.64720497799965 499.80341053613665,326.0431640424369" />
  <polygon fill="lightskyblue" points="594.6717403411881,408.2015476682118 594.6717403411881,202.80558860377457 499.80341053613665,120.64720497799965 499.80341053613665,326.0431640424369" />
  <polygon fill="white" points="554.3527001740412,373.28423462725743 554.3527001740412,291.12585100148254 540.1224507032834,278.8020934576163 540.1224507032834,360.9604770833912" />
  <polygon fill="white" points="292.3534918810551,353.06544378156565 292.3534918810551,320.20209033125565 312.89308778749876,314.27281971843996 312.89308778749876,347.1361731687499" />
  <polygon fill="white" points="341.64852205652,338.83519431080794 341.64852205652,305.97184086049793 362.1881179629637,300.04257024768225 362.1881179629637,332.9059236979922" />
  <polygon fill="white" points="390.94355223198494,324.6049448400502 390.9435522319849,291.7415913897403 411.48314813842865,285.81232077692454 411.48314813842865,318.6756742272345" />
  <polygon fill="white" points="440.2385824074499,310.3746953692925 440.2385824074499,277.51134191898257 460.7781783138936,271.5820713061668 460.7781783138936,304.44542475647677" />
</svg>
