<?xml version="1.0" encoding="UTF-8"?>
<svg
  xmlns="http://www.w3.org/2000/svg"
  width="848"
  height="600"
  style="background-color:white"
>
  <polygon fill="lightblue" points="313.19558415866305,532.142638852698 174.5233292885361,412.04894333509776 534.804415841337,308.0447521825025 673.4766707114638,428.1384477001028" />
  <polygon fill="steelblue" points="174.5233292885361,412.04894333509776 174.5233292885361,171.8615522998972 534.804415841337,67.85736114730193 534.804415841337,308.0447521825025" />
  <polygon fill="lightskyblue" points="673.4766707114638,428.1384477001028 673.4766707114638,187.95105666490224 534.804415841337,67.85736114730193 534.804415841337,308.0447521825025" />
  <polygon fill="white" points="339.6521606252365,316.3428775164515 339.6521606252365,268.30539930941137 369.67558450463656,259.6383833800284 369.67558450463656,307.67586158706854" />
  <polygon fill="grey" points="522.1150238207027,133.56888244754504 522.1150238207027,103.54545856814497 552.1384477001028,94.87844263876204 552.1384477001028,124.90186651816211" />
  <polygon fill="lightgrey" points="522.1150238207027,133.56888244754504 522.1150238207027,103.54545856814497 504.7809919619369,88.53374662844493 504.7809919619369,118.557170507845" />
  <polygon fill="darkgrey" points="522.1150238207027,103.54545856814497 504.7809919619369,88.53374662844493 534.804415841337,79.866730699062 552.1384477001028,94.87844263876204" />
  <polygon fill="hsl(324.0,50.0%,52.57800117743009%)" points="463.85154093741204,427.0209894412474 463.85154093741204,385.78081440050346 471.05716266846804,383.70073057745157 471.0571626684681,424.94090561819553" />
  <polygon fill="hsl(324.0,50.0%,52.57800117743009%)" points="481.8655952650521,421.82077988361766 481.8655952650521,380.58060484287375 474.65997353399604,382.66068866592565 474.65997353399604,423.9008637066696" />
  <polygon fill="hsl(324.0,50.0%,52.57800117743009%)" points="456.645919206356,388.26921678831525 456.645919206356,347.4373603123312 462.95083822103004,345.61728696716074 462.95083822103004,386.4491434431448" />
  <polygon fill="hsl(324.0,50.0%,52.57800117743009%)" points="482.7662979814341,380.7289129297521 482.7662979814341,339.897056453768 489.0712169961081,338.0769831085976 489.0712169961081,378.90883958458164" />
  <polygon fill="hsl(324.0,50.0%,52.57800117743009%)" points="462.95083822103004,351.92220598183474 462.95083822103004,345.61728696716074 482.7662979814341,339.897056453768 482.7662979814341,346.201975468442" />
  <polygon fill="hsl(324.0,50.0%,52.57800117743009%)" points="463.85154093741204,386.1891329652633 463.85154093741204,345.35727648927923 481.8655952650521,340.15706693164947 481.8655952650521,380.9889234076336" />
  <polygon fill="hsl(324.0,50.0%,52.57800117743009%)" points="468.35505451932204,342.0156312760726 468.35505451932204,323.64129586187977 477.36208168314204,321.04119108306486 477.36208168314204,339.4155264972577" />
  <polygon fill="hsl(324.0,50.0%,52.57800117743009%)" points="470.15645995208604,343.53720314410884 470.15645995208604,323.1212749061168 475.56067625037804,321.5612120388279 475.56067625037804,341.9771402768199" />
</svg>
