<?xml version="1.0" encoding="UTF-8"?>
<svg
  xmlns="http://www.w3.org/2000/svg"
  width="848"
  height="600"
  style="background-color:white"
>
  <polygon fill="lightblue" points="326.80177678228483,529.9734653358246 205.15773687081682,424.6266365535251 521.1982232177152,333.393606619924 642.8422631291832,438.7404354022235" />
  <polygon fill="steelblue" points="205.15773687081682,424.6266365535251 205.15773687081682,161.2595645977765 521.1982232177152,70.02653466417544 521.1982232177152,333.393606619924" />
  <polygon fill="lightskyblue" points="642.8422631291832,438.7404354022235 642.8422631291832,175.3733634464749 521.1982232177152,70.02653466417544 521.1982232177152,333.393606619924" />
  <polygon fill="white" points="270.999504859754,363.48102380443845 270.999504859754,321.3422922915187 297.3362120553289,313.7395397970519 297.3362120553289,355.8782713099717" />
  <polygon fill="white" points="350.0096264464786,340.6727663210382 350.0096264464786,298.5340348081184 376.3463336420534,290.93128231365165 376.3463336420534,333.0700138265714" />
  <polygon fill="white" points="429.01974803320314,317.8645088376379 429.01974803320314,275.72577732471814 455.35645522877803,268.1230248302514 455.35645522877803,310.26175634317116" />
  <polygon fill="hsl(288.0,50.0%,69.21014392802753%)" points="398.8285132125927,408.3942515564006 398.8285132125927,372.218150552559 405.1493229395307,370.39348995388696 405.1493229395307,406.56959095772856" />
  <polygon fill="hsl(288.0,50.0%,69.21014392802753%)" points="414.6305375299376,403.83260005972056 414.6305375299376,367.65649905587895 408.30972780299965,369.481159654551 408.30972780299965,405.6572606583926" />
  <polygon fill="hsl(288.0,50.0%,69.21014392802753%)" points="392.5077034856547,374.40099036909083 392.5077034856547,338.583068583109 398.0384119967255,336.986490559271 398.0384119967255,372.8044123452528" />
  <polygon fill="hsl(288.0,50.0%,69.21014392802753%)" points="415.42063874580487,367.78659569890476 415.42063874580487,331.96867391292295 420.9513472568756,330.3720958890849 420.9513472568756,366.1900176750667" />
  <polygon fill="hsl(288.0,50.0%,69.21014392802753%)" points="398.0384119967255,342.5171990703417 398.0384119967255,336.986490559271 415.42063874580487,331.96867391292295 415.42063874580487,337.49938242399367" />
  <polygon fill="hsl(288.0,50.0%,69.21014392802753%)" points="398.8285132125927,372.5763297704188 398.8285132125927,336.758407984437 414.6305375299376,332.19675648775694 414.6305375299376,368.01467827373875" />
  <polygon fill="hsl(288.0,50.0%,69.21014392802753%)" points="402.77901929192893,333.8270990209679 402.77901929192893,317.7090342172761 410.6800314506014,315.4282084689361 410.6800314506014,331.54627327262784" />
  <polygon fill="hsl(288.0,50.0%,69.21014392802753%)" points="404.35922172366344,335.161829960599 404.35922172366344,317.25286906760806 409.0998290188669,315.88437361860406 409.0998290188669,333.79333451159494" />
  <polygon fill="hsl(288.0,50.0%,68.65222276527638%)" points="456.9984123865436,393.1693874218301 456.9984123865436,356.9932864179885 463.3192221134816,355.1686258193165 463.3192221134816,391.3447268231581" />
  <polygon fill="hsl(288.0,50.0%,68.65222276527638%)" points="472.8004367038886,388.60773592515005 472.8004367038885,352.43163492130844 466.4796269769506,354.2562955199804 466.4796269769506,390.4323965238221" />
  <polygon fill="hsl(288.0,50.0%,68.65222276527638%)" points="450.67760265960567,359.1761262345203 450.67760265960567,323.3582044485385 456.2083111706764,321.7616264247005 456.2083111706764,357.57954821068233" />
  <polygon fill="hsl(288.0,50.0%,68.65222276527638%)" points="473.5905379197558,352.56173156433425 473.5905379197558,316.74380977835244 479.12124643082655,315.1472317545144 479.12124643082655,350.9651535404962" />
  <polygon fill="hsl(288.0,50.0%,68.65222276527638%)" points="456.2083111706764,327.29233493577124 456.2083111706764,321.7616264247005 473.5905379197558,316.74380977835244 473.5905379197558,322.27451828942316" />
  <polygon fill="hsl(288.0,50.0%,68.65222276527638%)" points="456.9984123865436,357.35146563584834 456.9984123865436,321.5335438498665 472.8004367038885,316.97189235318643 472.8004367038885,352.78981413916824" />
  <polygon fill="hsl(288.0,50.0%,68.65222276527638%)" points="460.94891846587984,318.6022348863974 460.94891846587984,302.4841700827056 468.8499306245523,300.20334433436557 468.8499306245523,316.32140913805733" />
  <polygon fill="hsl(288.0,50.0%,68.65222276527638%)" points="462.52912089761435,319.9369658260285 462.52912089761435,302.02800493303755 467.2697281928178,300.65950948403355 467.2697281928178,318.5684703770245" />
  <polygon fill="hsl(288.0,50.0%,52.57800117743009%)" points="458.9579837788327,437.76019507104184 458.9579837788327,401.5840940672002 465.2787935057707,399.7594334685282 465.2787935057707,435.9355344723698" />
  <polygon fill="hsl(288.0,50.0%,52.57800117743009%)" points="474.7600080961776,433.1985435743618 474.7600080961776,397.0224425705202 468.43919836923965,398.8471031691922 468.43919836923965,435.02320417303383" />
  <polygon fill="hsl(288.0,50.0%,52.57800117743009%)" points="452.6371740518947,403.76693388373207 452.6371740518947,367.94901209775026 458.1678825629654,366.35243407391226 458.1678825629654,402.170355859894" />
  <polygon fill="hsl(288.0,50.0%,52.57800117743009%)" points="475.55010931204487,397.152539213546 475.55010931204487,361.3346174275642 481.0808178231156,359.73803940372613 481.0808178231156,395.55596118970794" />
  <polygon fill="hsl(288.0,50.0%,52.57800117743009%)" points="458.1678825629654,371.883142584983 458.1678825629654,366.35243407391226 475.55010931204487,361.3346174275642 475.55010931204487,366.8653259386349" />
  <polygon fill="hsl(288.0,50.0%,52.57800117743009%)" points="458.9579837788327,401.94227328506 458.95798377883267,366.1243514990782 474.7600080961776,361.5627000023982 474.7600080961776,397.38062178838" />
  <polygon fill="hsl(288.0,50.0%,52.57800117743009%)" points="462.9084898581689,363.19304253560915 462.9084898581689,347.07497773191733 470.8095020168414,344.7941519835773 470.8095020168414,360.9122167872691" />
  <polygon fill="hsl(288.0,50.0%,52.57800117743009%)" points="464.4886922899034,364.5277734752402 464.4886922899034,346.61881258224935 469.2292995851069,345.2503171332453 469.2292995851069,363.1592780262362" />
  <polygon fill="hsl(288.0,50.0%,46.24652422154656%)" points="348.79078648038535,487.34941941405214 348.79078648038535,451.1733184102105 355.11159620732326,449.3486578115385 355.11159620732326,485.5247588153801" />
  <polygon fill="hsl(288.0,50.0%,46.24652422154656%)" points="364.59281079773024,482.78776791737204 364.59281079773024,446.6116669135305 358.27200107079227,448.43632751220247 358.27200107079227,484.6124285160441" />
  <polygon fill="hsl(288.0,50.0%,46.24652422154656%)" points="342.4699767534473,453.3561582267423 342.4699767534473,417.5382364407605 348.00068526451804,415.9416584169225 348.00068526451804,451.7595802029043" />
  <polygon fill="hsl(288.0,50.0%,46.24652422154656%)" points="365.3829120135975,446.74176355655624 365.3829120135975,410.9238417705744 370.9136205246682,409.32726374673643 370.9136205246682,445.14518553271824" />
  <polygon fill="hsl(288.0,50.0%,46.24652422154656%)" points="348.00068526451804,421.4723669279932 348.00068526451804,415.9416584169225 365.3829120135975,410.9238417705744 365.3829120135975,416.45455028164514" />
  <polygon fill="hsl(288.0,50.0%,46.24652422154656%)" points="348.79078648038535,451.53149762807027 348.79078648038535,415.7135758420885 364.59281079773024,411.1519243454085 364.59281079773024,446.9698461313902" />
  <polygon fill="hsl(288.0,50.0%,46.24652422154656%)" points="352.74129255972156,412.7822668786194 352.74129255972156,396.6642020749276 360.642304718394,394.38337632658755 360.642304718394,410.5014411302794" />
  <polygon fill="hsl(288.0,50.0%,46.24652422154656%)" points="354.321494991456,414.11699781825047 354.321494991456,396.2080369252596 359.0621022866595,394.8395414762556 359.0621022866595,412.74850236924647" />
</svg>
