<?xml version="1.0" encoding="UTF-8"?>
<svg
  xmlns="http://www.w3.org/2000/svg"
  width="848"
  height="600"
  style="background-color:white"
>
  <polygon fill="lightblue" points="339.2492105574373,477.5585544732971 233.1831933794552,385.7026891189279 508.7507894425627,306.15317623544126 614.8168066205449,398.0090415898104" />
  <polygon fill="steelblue" points="233.1831933794552,385.7026891189279 233.1831933794552,201.99095841018956 508.7507894425627,122.44144552670292 508.7507894425627,306.15317623544126" />
  <polygon fill="lightskyblue" points="614.8168066205449,398.0090415898104 614.8168066205449,214.29731088107212 508.7507894425627,122.44144552670292 508.7507894425627,306.15317623544126" />
  <polygon fill="white" points="569.7387493199024,358.97029881420355 569.7387493199024,267.1144334598344 553.8288467432051,253.33605365667898 553.8288467432051,345.1919190110482" />
  <polygon fill="white" points="261.06800964774584,340.91068988777977 261.06800964774584,304.1683437460321 284.0319759863381,297.53921767240826 284.0319759863381,334.2815638141559" />
  <polygon fill="white" points="300.43480908533263,329.5464737615674 300.43480908533263,292.8041276198197 323.3987754239249,286.17500154619586 323.3987754239249,322.91734768794356" />
  <polygon fill="white" points="339.8016085229194,318.18225763535503 339.8016085229194,281.4399114936074 362.7655748615117,274.81078541998346 362.7655748615117,311.55313156173116" />
  <polygon fill="white" points="379.16840796050616,306.8180415091427 379.16840796050616,270.075695367395 402.1323742990985,263.4465692937711 402.1323742990985,300.18891543551877" />
  <polygon fill="white" points="418.53520739809295,295.4538253829303 418.53520739809295,258.71147924118264 441.49917373668524,252.08235316755875 441.49917373668524,288.8246993093064" />
  <polygon fill="white" points="457.90200683567974,284.0896092567179 457.90200683567974,247.34726311497025 480.865973174272,240.71813704134638 480.865973174272,277.460483183094" />
</svg>
