<?xml version="1.0" encoding="UTF-8"?>
<svg
  xmlns="http://www.w3.org/2000/svg"
  width="848"
  height="600"
  style="background-color:white"
>
  <polygon fill="lightblue" points="264.1923788646684,678.1088913245535 64.1923788646684,504.9038105676658 583.8076211353316,354.90381056766574 783.8076211353316,528.1088913245535" />
  <polygon fill="steelblue" points="64.1923788646684,504.9038105676658 64.1923788646684,71.89110867544653 583.8076211353316,-78.10889132455355 583.8076211353316,354.90381056766574" />
  <polygon fill="lightskyblue" points="783.8076211353316,528.1088913245535 783.8076211353316,95.0961894323342 583.8076211353316,-78.10889132455355 583.8076211353316,354.90381056766574" />
  <polygon fill="white" points="698.8076211353316,454.4967320028762 698.8076211353316,281.2916512459885 668.8076211353316,255.31088913245532 668.8076211353316,428.515969889343" />
  <polygon fill="white" points="146.4647922241901,411.8717782649107 146.4647922241901,342.5897459621556 189.76606241341204,330.0897459621556 189.76606241341204,399.37177826491074" />
  <polygon fill="white" points="250.3878406783227,381.87177826491074 250.3878406783227,312.58974596215563 293.6891108675446,300.0897459621556 293.6891108675446,369.37177826491074" />
  <polygon fill="white" points="354.3108891324553,351.8717782649107 354.3108891324553,282.5897459621556 397.61215932167727,270.0897459621556 397.61215932167727,339.3717782649107" />
  <polygon fill="white" points="458.23393758658796,321.8717782649107 458.23393758658796,252.58974596215558 501.5352077758099,240.08974596215558 501.5352077758099,309.3717782649107" />
</svg>
