<?xml version="1.0" encoding="UTF-8"?>
<svg
  xmlns="http://www.w3.org/2000/svg"
  width="848"
  height="600"
  style="background-color:white"
>
  <polygon fill="lightblue" points="264.1923788646684,721.4101615137755 64.1923788646684,548.2050807568878 583.8076211353316,398.2050807568877 783.8076211353316,571.4101615137754" />
  <polygon fill="steelblue" points="64.1923788646684,548.2050807568878 64.1923788646684,28.58983848622455 583.8076211353316,-121.4101615137755 583.8076211353316,398.2050807568877" />
  <polygon fill="lightskyblue" points="783.8076211353316,571.4101615137754 783.8076211353316,51.79491924311225 583.8076211353316,-121.4101615137755 583.8076211353316,398.2050807568877" />
  <polygon fill="white" points="698.8076211353316,497.7980021920981 698.8076211353316,324.5929214352104 668.8076211353316,298.61215932167727 668.8076211353316,471.81724007856496" />
  <polygon fill="white" points="146.46479222419015,455.17304845413264 146.4647922241901,385.8910161513775 189.76606241341204,373.3910161513775 189.76606241341204,442.67304845413264" />
  <polygon fill="white" points="250.3878406783227,425.17304845413264 250.3878406783227,355.8910161513775 293.6891108675446,343.3910161513775 293.6891108675446,412.67304845413264" />
  <polygon fill="white" points="354.3108891324553,395.17304845413264 354.3108891324553,325.8910161513775 397.61215932167727,313.3910161513775 397.61215932167727,382.67304845413264" />
  <polygon fill="white" points="458.233937586588,365.17304845413264 458.23393758658796,295.8910161513775 501.5352077758099,283.3910161513775 501.5352077758099,352.67304845413264" />
</svg>
