<?xml version="1.0" encoding="UTF-8"?>
<svg
  xmlns="http://www.w3.org/2000/svg"
  width="848"
  height="600"
  style="background-color:white"
>
  <polygon fill="lightblue" points="308.75876354285947,510.2124546969536 164.53380651211864,385.309978048613 539.2412364571405,277.14126027555733 683.4661934878814,402.043736923898" />
  <polygon fill="steelblue" points="164.53380651211864,385.309978048613 164.53380651211864,197.95626307610203 539.2412364571405,89.78754530304636 539.2412364571405,277.14126027555733" />
  <polygon fill="lightskyblue" points="683.4661934878814,402.043736923898 683.4661934878814,214.690021951387 539.2412364571405,89.78754530304636 539.2412364571405,277.14126027555733" />
  <polygon fill="white" points="598.1330939113598,328.14310490696306 598.1330939113598,203.24062825862245 576.4993503567486,184.50525676137136 576.4993503567486,309.40773340971197" />
  <polygon fill="white" points="646.2080795882733,369.7772637897433 646.2080795882733,244.87478714140266 624.5743360336621,226.13941564415157 624.5743360336621,351.0418922924922" />
  <polygon fill="white" points="211.37223525524638,321.8278976676448 211.37223525524638,271.8669070083085 242.59785441733155,262.8528471938872 242.59785441733155,312.81383785322345" />
  <polygon fill="white" points="273.8234735794167,303.7997780388022 273.8234735794167,253.83878737946588 305.04909274150185,244.8247275650446 305.04909274150185,294.78571822438084" />
  <polygon fill="white" points="336.274711903587,285.77165840995957 336.274711903587,235.81066775062328 367.5003310656722,226.796607936202 367.5003310656722,276.75759859553824" />
  <polygon fill="white" points="398.7259502277573,267.7435387811169 398.7259502277573,217.78254812178068 429.95156938984246,208.7684883073594 429.95156938984246,258.72947896669564" />
  <polygon fill="white" points="461.17718855192766,249.7154191522743 461.17718855192766,199.75442849293808 492.4028077140128,190.74036867851677 492.4028077140128,240.70135933785303" />
  <polygon fill="hsl(360.0,50.0%,52.57800117743009%)" points="465.44727281380074,400.88153350030757 465.44727281380074,357.9900230192674 472.9414214127012,355.8266486638063 472.9414214127012,398.7181591448465" />
  <polygon fill="hsl(360.0,50.0%,52.57800117743009%)" points="484.18264431105183,395.4730976116548 484.18264431105183,352.5815871306146 476.6884957121514,354.74496148607574 476.6884957121514,397.63647196711594" />
  <polygon fill="hsl(360.0,50.0%,52.57800117743009%)" points="457.9531242149003,360.57806579533286 457.9531242149003,318.11122373489707 464.51050423893815,316.2182711738686 464.51050423893815,358.6851132343044" />
  <polygon fill="hsl(360.0,50.0%,52.57800117743009%)" points="485.11941288591436,352.73583375678635 485.11941288591436,310.2689916963505 491.67679290995227,308.37603913532206 491.67679290995227,350.84288119575785" />
  <polygon fill="hsl(360.0,50.0%,52.57800117743009%)" points="464.51050423893815,322.7756511979065 464.51050423893815,316.2182711738686 485.11941288591436,310.2689916963505 485.11941288591436,316.8263717203884" />
  <polygon fill="hsl(360.0,50.0%,52.57800117743009%)" points="465.44727281380074,358.4146914398718 465.44727281380074,315.9478493794359 484.18264431105183,310.53941349078315 484.18264431105183,353.006255551219" />
  <polygon fill="hsl(360.0,50.0%,52.57800117743009%)" points="470.1311156881135,312.472398304251 470.1311156881135,293.36231937705486 479.4988014367391,290.6581014327285 479.4988014367391,309.76818035992454" />
  <polygon fill="hsl(360.0,50.0%,52.57800117743009%)" points="472.0046528378386,314.0548968184075 472.0046528378386,292.82147578818956 477.6252642870139,291.1989450215937 477.6252642870139,312.43236605181164" />
  <polygon fill="hsl(360.0,50.0%,46.24652422154656%)" points="334.8296173320397,459.6760601804772 334.8296173320397,416.784549699437 342.3237659309401,414.6211753439759 342.3237659309401,457.5126858250161" />
  <polygon fill="hsl(360.0,50.0%,46.24652422154656%)" points="353.56498882929077,454.2676242918244 353.56498882929077,411.3761138107842 346.07084023039033,413.53948816624535 346.07084023039033,456.43099864728555" />
  <polygon fill="hsl(360.0,50.0%,46.24652422154656%)" points="327.33546873313924,419.3725924755025 327.33546873313924,376.9057504150667 333.8928487571771,375.01279785403824 333.8928487571771,417.47963991447403" />
  <polygon fill="hsl(360.0,50.0%,46.24652422154656%)" points="354.5017574041533,411.53036043695596 354.5017574041533,369.06351837652016 361.0591374281912,367.17056581549167 361.0591374281912,409.63740787592747" />
  <polygon fill="hsl(360.0,50.0%,46.24652422154656%)" points="333.8928487571771,381.5701778780761 333.8928487571771,375.01279785403824 354.5017574041533,369.06351837652016 354.5017574041533,375.620898400558" />
  <polygon fill="hsl(360.0,50.0%,46.24652422154656%)" points="334.8296173320397,417.2092181200414 334.8296173320397,374.7423760596056 353.56498882929077,369.3339401709528 353.56498882929077,411.8007822313886" />
  <polygon fill="hsl(360.0,50.0%,46.24652422154656%)" points="339.5134602063524,371.2669249844206 339.5134602063524,352.15684605722447 348.881145954978,349.4526281128981 348.881145954978,368.5627070400942" />
  <polygon fill="hsl(360.0,50.0%,46.24652422154656%)" points="341.3869973560776,372.8494234985771 341.3869973560776,351.61600246835917 347.00760880525286,349.9934717017634 347.00760880525286,371.22689273198125" />
</svg>
