<?xml version="1.0" encoding="UTF-8"?>
<svg
  xmlns="http://www.w3.org/2000/svg"
  width="848"
  height="600"
  style="background-color:white"
>
  <polygon fill="lightblue" points="308.75876354285947,510.2124546969536 164.53380651211864,385.309978048613 539.2412364571405,277.14126027555733 683.4661934878814,402.043736923898" />
  <polygon fill="steelblue" points="164.53380651211864,385.309978048613 164.53380651211864,197.95626307610203 539.2412364571405,89.78754530304636 539.2412364571405,277.14126027555733" />
  <polygon fill="lightskyblue" points="683.4661934878814,402.043736923898 683.4661934878814,214.690021951387 539.2412364571405,89.78754530304636 539.2412364571405,277.14126027555733" />
  <polygon fill="white" points="622.1705867498165,348.9601843483532 622.1705867498165,224.05770770001254 600.5368431952054,205.32233620276145 600.5368431952054,330.2248128511021" />
  <polygon fill="white" points="223.86248292008045,318.2222737418762 223.86248292008045,268.26128308254 255.08810208216562,259.24722326811866 255.08810208216562,309.20821392745495" />
  <polygon fill="white" points="298.8039689090848,296.5885301872651 298.8039689090848,246.62753952792886 330.02958807117,237.61347971350756 330.02958807117,287.5744703728438" />
  <polygon fill="white" points="373.7454548980892,274.95478663265396 373.7454548980892,224.99379597331773 404.9710740601743,215.97973615889643 404.9710740601743,265.9407268182327" />
  <polygon fill="white" points="448.68694088709356,253.32104307804286 448.68694088709356,203.36005241870657 479.9125600491787,194.3459926042853 479.9125600491787,244.30698326362153" />
</svg>
