<?xml version="1.0" encoding="UTF-8"?>
<svg
  xmlns="http://www.w3.org/2000/svg"
  width="848"
  height="600"
  style="background-color:white"
>
  <polygon fill="lightblue" points="308.75876354285947,510.2124546969536 164.53380651211864,385.309978048613 539.2412364571405,277.14126027555733 683.4661934878814,402.043736923898" />
  <polygon fill="steelblue" points="164.53380651211864,385.309978048613 164.53380651211864,197.95626307610203 539.2412364571405,89.78754530304636 539.2412364571405,277.14126027555733" />
  <polygon fill="lightskyblue" points="683.4661934878814,402.043736923898 683.4661934878814,214.690021951387 539.2412364571405,89.78754530304636 539.2412364571405,277.14126027555733" />
  <polygon fill="white" points="622.1705867498165,348.9601843483532 622.1705867498165,224.05770770001254 600.5368431952054,205.32233620276145 600.5368431952054,330.2248128511021" />
  <polygon fill="white" points="223.86248292008045,318.2222737418762 223.86248292008045,268.26128308254 255.08810208216562,259.24722326811866 255.08810208216562,309.20821392745495" />
  <polygon fill="white" points="298.8039689090848,296.5885301872651 298.8039689090848,246.62753952792886 330.02958807117,237.61347971350756 330.02958807117,287.5744703728438" />
  <polygon fill="white" points="373.7454548980892,274.95478663265396 373.7454548980892,224.99379597331773 404.9710740601743,215.97973615889643 404.9710740601743,265.9407268182327" />
  <polygon fill="white" points="448.68694088709356,253.32104307804286 448.68694088709356,203.36005241870657 479.9125600491787,194.3459926042853 479.9125600491787,244.30698326362153" />
  <polygon fill="antiquewhite" points="501.41578697328123,402.7937146941281 501.41578697328123,296.6266095430385 526.3962823029494,289.41536169150146 526.3962823029494,395.58246684259103" />
  <polygon fill="beige" points="501.41578697328123,402.7937146941281 501.41578697328123,296.6266095430385 486.9932912702072,284.13636187820447 486.9932912702072,390.303467029294" />
  <polygon fill="bisque" points="501.41578697328123,296.6266095430385 486.9932912702072,284.13636187820447 511.9737865998753,276.9251140266674 526.3962823029494,289.41536169150146" />
  <polygon fill="antiquewhite" points="328.66518812513556,489.5673175240994 328.66518812513556,383.4002123730099 353.6456834548037,376.1889645214728 353.6456834548037,482.3560696725624" />
  <polygon fill="beige" points="328.66518812513556,489.5673175240994 328.66518812513556,383.4002123730099 314.24269242206145,370.90996470817583 314.24269242206145,477.07706985926535" />
  <polygon fill="bisque" points="328.66518812513556,383.4002123730099 314.24269242206145,370.90996470817583 339.2231877517296,363.6987168566387 353.6456834548037,376.1889645214728" />
</svg>
