<?xml version="1.0" encoding="UTF-8"?>
<svg
  xmlns="http://www.w3.org/2000/svg"
  width="848"
  height="600"
  style="background-color:white"
>
  <polygon fill="lightblue" points="313.19558415866305,532.142638852698 174.5233292885361,412.04894333509776 534.804415841337,308.0447521825025 673.4766707114638,428.1384477001028" />
  <polygon fill="steelblue" points="174.5233292885361,412.04894333509776 174.5233292885361,171.8615522998972 534.804415841337,67.85736114730193 534.804415841337,308.0447521825025" />
  <polygon fill="lightskyblue" points="673.4766707114638,428.1384477001028 673.4766707114638,187.95105666490224 534.804415841337,67.85736114730193 534.804415841337,308.0447521825025" />
  <polygon fill="white" points="614.54096239166,377.09862710512266 614.54096239166,257.0049315875224 593.7401241611409,238.99087725988235 593.7401241611409,359.0845727774826" />
  <polygon fill="white" points="339.6521606252365,316.3428775164515 339.6521606252365,268.30539930941137 369.67558450463656,259.6383833800284 369.67558450463656,307.67586158706854" />
  <polygon fill="grey" points="522.1150238207027,133.56888244754504 522.1150238207027,103.54545856814497 552.1384477001028,94.87844263876204 552.1384477001028,124.90186651816211" />
  <polygon fill="lightgrey" points="522.1150238207027,133.56888244754504 522.1150238207027,103.54545856814497 504.7809919619369,88.53374662844493 504.7809919619369,118.557170507845" />
  <polygon fill="darkgrey" points="522.1150238207027,103.54545856814497 504.7809919619369,88.53374662844493 534.804415841337,79.866730699062 552.1384477001028,94.87844263876204" />
  <polygon fill="hsl(324.0,50.0%,68.65222276527638%)" points="461.6176609730053,376.1881837592212 461.6176609730053,334.94800871847724 468.8232827040613,332.86792489542535 468.8232827040613,374.1080999361693" />
  <polygon fill="hsl(324.0,50.0%,68.65222276527638%)" points="479.6317153006454,370.98797420159144 479.6317153006454,329.7477991608475 472.42609356958934,331.82788298389937 472.4260935695894,373.06805802464334" />
  <polygon fill="hsl(324.0,50.0%,68.65222276527638%)" points="454.4120392419493,337.43641110628903 454.4120392419493,296.6045546303049 460.7169582566233,294.7844812851345 460.7169582566233,335.6163377611186" />
  <polygon fill="hsl(324.0,50.0%,68.65222276527638%)" points="480.53241801702734,329.89610724772587 480.53241801702734,289.06425077174174 486.8373370317014,287.24417742657135 486.8373370317014,328.0760339025554" />
  <polygon fill="hsl(324.0,50.0%,68.65222276527638%)" points="460.7169582566233,301.0894002998085 460.7169582566233,294.7844812851345 480.53241801702734,289.06425077174174 480.53241801702734,295.3691697864158" />
  <polygon fill="hsl(324.0,50.0%,68.65222276527638%)" points="461.6176609730053,335.3563272832371 461.6176609730053,294.524470807253 479.6317153006454,289.32426124962325 479.6317153006454,330.1561177256073" />
  <polygon fill="hsl(324.0,50.0%,68.65222276527638%)" points="466.12117455491534,291.1828255940464 466.12117455491534,272.80849017985355 475.12820171873534,270.20838540103864 475.12820171873534,288.5827208152315" />
  <polygon fill="hsl(324.0,50.0%,68.65222276527638%)" points="467.92257998767934,292.7043974620826 467.92257998767934,272.2884692240906 473.32679628597134,270.72840635680166 473.32679628597134,291.1443345947937" />
  <polygon fill="hsl(324.0,50.0%,52.57800117743009%)" points="463.85154093741204,427.0209894412474 463.85154093741204,385.78081440050346 471.05716266846804,383.70073057745157 471.0571626684681,424.94090561819553" />
  <polygon fill="hsl(324.0,50.0%,52.57800117743009%)" points="481.8655952650521,421.82077988361766 481.8655952650521,380.58060484287375 474.65997353399604,382.66068866592565 474.65997353399604,423.9008637066696" />
  <polygon fill="hsl(324.0,50.0%,52.57800117743009%)" points="456.645919206356,388.26921678831525 456.645919206356,347.4373603123312 462.95083822103004,345.61728696716074 462.95083822103004,386.4491434431448" />
  <polygon fill="hsl(324.0,50.0%,52.57800117743009%)" points="482.7662979814341,380.7289129297521 482.7662979814341,339.897056453768 489.0712169961081,338.0769831085976 489.0712169961081,378.90883958458164" />
  <polygon fill="hsl(324.0,50.0%,52.57800117743009%)" points="462.95083822103004,351.92220598183474 462.95083822103004,345.61728696716074 482.7662979814341,339.897056453768 482.7662979814341,346.201975468442" />
  <polygon fill="hsl(324.0,50.0%,52.57800117743009%)" points="463.85154093741204,386.1891329652633 463.85154093741204,345.35727648927923 481.8655952650521,340.15706693164947 481.8655952650521,380.9889234076336" />
  <polygon fill="hsl(324.0,50.0%,52.57800117743009%)" points="468.35505451932204,342.0156312760726 468.35505451932204,323.64129586187977 477.36208168314204,321.04119108306486 477.36208168314204,339.4155264972577" />
  <polygon fill="hsl(324.0,50.0%,52.57800117743009%)" points="470.15645995208604,343.53720314410884 470.15645995208604,323.1212749061168 475.56067625037804,321.5612120388279 475.56067625037804,341.9771402768199" />
  <polygon fill="hsl(324.0,50.0%,46.24652422154656%)" points="338.262702608658,483.5519100018488 338.262702608658,442.3117349611049 345.46832433971406,440.231651138053 345.46832433971406,481.47182617879696" />
  <polygon fill="hsl(324.0,50.0%,46.24652422154656%)" points="356.27675693629806,478.3517004442191 356.27675693629806,437.1115254034751 349.07113520524206,439.191609226527 349.07113520524206,480.431784267271" />
  <polygon fill="hsl(324.0,50.0%,46.24652422154656%)" points="331.057080877602,444.8001373489167 331.057080877602,403.96828087293255 337.361999892276,402.1482075277621 337.361999892276,442.98006400374624" />
  <polygon fill="hsl(324.0,50.0%,46.24652422154656%)" points="357.17745965268006,437.25983349035346 357.17745965268006,396.4279770143694 363.48237866735406,394.607903669199 363.48237866735406,435.4397601451831" />
  <polygon fill="hsl(324.0,50.0%,46.24652422154656%)" points="337.361999892276,408.45312654243617 337.361999892276,402.1482075277621 357.17745965268006,396.4279770143694 357.17745965268006,402.7328960290434" />
  <polygon fill="hsl(324.0,50.0%,46.24652422154656%)" points="338.262702608658,442.7200535258647 338.262702608658,401.88819704988066 356.27675693629806,396.68798749225084 356.27675693629806,437.51984396823497" />
  <polygon fill="hsl(324.0,50.0%,46.24652422154656%)" points="342.766216190568,398.546551836674 342.766216190568,380.17221642248114 351.77324335438806,377.5721116436663 351.77324335438806,395.94644705785913" />
  <polygon fill="hsl(324.0,50.0%,46.24652422154656%)" points="344.56762162333206,400.0681237047102 344.56762162333206,379.6521954667182 349.971837921624,378.09213259942925 349.971837921624,398.5080608374213" />
</svg>
