<?xml version="1.0" encoding="UTF-8"?>
<svg
  xmlns="http://www.w3.org/2000/svg"
  width="848"
  height="600"
  style="background-color:white"
>
  <polygon fill="lightblue" points="319.296388045146,519.3610479514932 188.25931833470116,405.8796167447756 528.7036119548541,307.60181446194196 659.7406816652988,421.0832456686596" />
  <polygon fill="steelblue" points="188.25931833470116,405.8796167447756 188.25931833470116,178.91675433134043 528.7036119548541,80.63895204850672 528.7036119548541,307.60181446194196" />
  <polygon fill="lightskyblue" points="659.7406816652988,421.0832456686596 659.7406816652988,194.12038325522437 528.7036119548541,80.63895204850672 528.7036119548541,307.60181446194196" />
  <polygon fill="white" points="604.0499270383598,372.8536374058046 604.0499270383598,259.372206199087 584.3943665817931,242.34999151807935 584.3943665817931,355.83142272479694" />
  <polygon fill="white" points="222.70903852245473,350.54226665013516 222.70903852245473,305.1496941674481 251.07939632413414,296.9598773105453 251.07939632413414,342.3524497932324" />
  <polygon fill="white" points="271.343937611048,336.5025806097304 271.343937611048,291.11000812704333 299.7142954127274,282.92019127014055 299.7142954127274,328.31276375282755" />
  <polygon fill="white" points="319.97883669964125,322.46289456932556 319.97883669964125,277.0703220866385 348.34919450132065,268.8805052297357 348.34919450132065,314.2730777124228" />
  <polygon fill="white" points="368.6137357882345,308.4232085289208 368.6137357882345,263.0306360462337 396.9840935899139,254.8408191893309 396.9840935899139,300.23339167201794" />
  <polygon fill="white" points="417.2486348768278,294.38352248851595 417.2486348768278,248.9909500058289 445.6189926785072,240.80113314892608 445.6189926785072,286.1937056316131" />
  <polygon fill="white" points="465.883533965421,280.3438364481111 465.883533965421,234.9512639654241 494.2538917671004,226.76144710852128 494.2538917671004,272.15401959120834" />
  <polygon fill="antiquewhite" points="494.33691035972777,421.7646456938853 494.33691035972777,325.30542916817535 517.0331966010713,318.7535756826531 517.0331966010713,415.21279220836306" />
  <polygon fill="beige" points="494.33691035972777,421.7646456938853 494.33691035972777,325.30542916817535 481.23320338868325,313.9572860475036 481.23320338868325,410.41650257321356" />
  <polygon fill="bisque" points="494.33691035972777,325.30542916817535 481.23320338868325,313.9572860475036 503.9294896300268,307.40543256198134 517.0331966010713,318.7535756826531" />
  <polygon fill="antiquewhite" points="337.3825750642029,500.6036960021744 337.3825750642029,404.1444794764644 360.0788613055464,397.5926259909422 360.0788613055464,494.05184251665213" />
  <polygon fill="beige" points="337.3825750642029,500.6036960021744 337.3825750642029,404.1444794764644 324.2788680931584,392.7963363557927 324.2788680931584,489.2555528815026" />
  <polygon fill="bisque" points="337.3825750642029,404.1444794764644 324.2788680931584,392.7963363557927 346.9751543345019,386.2444828702704 360.0788613055464,397.5926259909422" />
  <polygon fill="antiquewhite" points="475.63705274683474,342.0369649454644 475.63705274683474,245.5777484197544 498.3333389881783,239.02589493423218 498.3333389881783,335.4851114599421" />
  <polygon fill="beige" points="475.63705274683474,342.0369649454644 475.63705274683474,245.5777484197544 462.5333457757903,234.22960529908266 462.5333457757903,330.6888218247926" />
  <polygon fill="bisque" points="475.63705274683474,245.5777484197544 462.5333457757903,234.22960529908266 485.2296320171338,227.6777518135604 498.3333389881783,239.02589493423218" />
  <polygon fill="antiquewhite" points="432.16383139903576,378.8491809949484 432.16383139903576,282.38996446923846 454.8601176403793,275.8381109837162 454.8601176403793,372.29732750942617" />
  <polygon fill="beige" points="432.16383139903576,378.8491809949484 432.16383139903576,282.38996446923846 419.0601244279913,271.0418213485667 419.0601244279913,367.5010378742767" />
  <polygon fill="bisque" points="432.16383139903576,282.38996446923846 419.0601244279913,271.0418213485667 441.7564106693348,264.48996786304446 454.8601176403793,275.8381109837162" />
</svg>
