<?xml version="1.0" encoding="UTF-8"?>
<svg
  xmlns="http://www.w3.org/2000/svg"
  width="848"
  height="600"
  style="background-color:white"
>
  <polygon fill="lightblue" points="264.1923788646684,634.8076211353316 64.1923788646684,461.6025403784439 583.8076211353316,311.6025403784438 783.8076211353316,484.80762113533154" />
  <polygon fill="steelblue" points="64.1923788646684,461.6025403784439 64.1923788646684,115.19237886466846 583.8076211353316,-34.80762113533166 583.8076211353316,311.6025403784438" />
  <polygon fill="lightskyblue" points="783.8076211353316,484.80762113533154 783.8076211353316,138.39745962155612 583.8076211353316,-34.80762113533166 583.8076211353316,311.6025403784438" />
  <polygon fill="white" points="698.8076211353316,411.1954618136543 698.8076211353316,237.99038105676655 668.8076211353316,212.0096189432334 668.8076211353316,385.2146997001211" />
  <polygon fill="white" points="146.4647922241901,368.5705080756888 146.4647922241901,299.2884757729337 189.76606241341204,286.7884757729337 189.76606241341204,356.0705080756888" />
  <polygon fill="white" points="250.3878406783227,338.5705080756888 250.3878406783227,269.2884757729337 293.6891108675446,256.7884757729337 293.6891108675446,326.0705080756888" />
  <polygon fill="white" points="354.3108891324553,308.5705080756888 354.3108891324553,239.28847577293368 397.61215932167727,226.78847577293368 397.61215932167727,296.07050807568874" />
  <polygon fill="white" points="458.23393758658796,278.57050807568874 458.23393758658796,209.28847577293365 501.5352077758099,196.78847577293362 501.5352077758099,266.07050807568874" />
</svg>
