<?xml version="1.0" encoding="UTF-8"?>
<svg
  xmlns="http://www.w3.org/2000/svg"
  width="848"
  height="600"
  style="background-color:white"
>
  <polygon fill="lightblue" points="284.39518406019465,516.8271097975127 109.67909111293483,365.5185348552224 563.6048159398053,234.48146514477753 738.3209088870651,385.7900400870677" />
  <polygon fill="steelblue" points="109.67909111293483,365.5185348552224 109.67909111293483,214.20995991293228 563.6048159398053,83.17289020248737 563.6048159398053,234.48146514477753" />
  <polygon fill="lightskyblue" points="738.3209088870651,385.7900400870677 738.3209088870651,234.4814651447776 563.6048159398053,83.17289020248737 563.6048159398053,234.48146514477753" />
  <polygon fill="white" points="664.0665693844797,321.4838957365944 664.0665693844797,170.17532079430424 637.8591554423908,147.4790345529607 637.8591554423908,298.7876094952509" />
  <polygon fill="hsl(288.0,50.0%,69.21014392802753%)" points="387.846450443687,342.2041259620504 387.846450443687,290.24476132686794 396.9249649402244,287.62401993265905 396.9249649402244,339.5833845678415" />
  <polygon fill="hsl(288.0,50.0%,69.21014392802753%)" points="410.5427366850305,335.65227247652814 410.5427366850305,283.6929078413457 401.46422218849307,286.3136492355546 401.46422218849307,338.27301387073703" />
  <polygon fill="hsl(288.0,50.0%,69.21014392802753%)" points="378.76793594714957,293.37995187588064 378.76793594714957,241.93503639550198 386.7116361316198,239.6418876755692 386.7116361316198,291.08680315594785" />
  <polygon fill="hsl(288.0,50.0%,69.21014392802753%)" points="411.6775509970977,283.8797643218734 411.6775509970977,232.43484884149473 419.6212511815679,230.14170012156194 419.6212511815679,281.5866156019406" />
  <polygon fill="hsl(288.0,50.0%,69.21014392802753%)" points="386.7116361316198,247.58558786003942 386.7116361316198,239.6418876755692 411.6775509970977,232.43484884149473 411.6775509970977,240.37854902596496" />
  <polygon fill="hsl(288.0,50.0%,69.21014392802753%)" points="387.846450443687,290.75921048167174 387.846450443687,239.3142950012931 410.5427366850305,232.76244151577083 410.5427366850305,284.2073569961495" />
  <polygon fill="hsl(288.0,50.0%,69.21014392802753%)" points="393.52052200402284,235.10408585589357 393.52052200402284,211.95387388972318 404.86866512469464,208.67794714696208 404.86866512469464,231.82815911313247" />
  <polygon fill="hsl(288.0,50.0%,69.21014392802753%)" points="395.7901506281572,237.0211462813603 395.7901506281572,211.29868854117097 402.59903650056026,209.3331324955143 402.59903650056026,235.05559023570362" />
  <polygon fill="hsl(288.0,50.0%,68.65222276527638%)" points="471.39528290769823,320.3368090003564 471.39528290769823,268.377444365174 480.47379740423565,265.7567029709651 480.47379740423565,317.71606760614753" />
  <polygon fill="hsl(288.0,50.0%,68.65222276527638%)" points="494.0915691490418,313.78495551483417 494.0915691490418,261.8255908796517 485.01305465250437,264.4463322738606 485.01305465250437,316.40569690904306" />
  <polygon fill="hsl(288.0,50.0%,68.65222276527638%)" points="462.31676841116087,271.51263491418666 462.31676841116087,220.067719433808 470.2604685956311,217.77457071387522 470.2604685956311,269.2194861942539" />
  <polygon fill="hsl(288.0,50.0%,68.65222276527638%)" points="495.226383461109,262.0124473601794 495.226383461109,210.56753187980075 503.1700836455792,208.27438315986797 503.1700836455792,259.7192986402466" />
  <polygon fill="hsl(288.0,50.0%,68.65222276527638%)" points="470.2604685956311,225.71827089834545 470.2604685956311,217.77457071387522 495.226383461109,210.56753187980075 495.226383461109,218.51123206427098" />
  <polygon fill="hsl(288.0,50.0%,68.65222276527638%)" points="471.39528290769823,268.89189351997777 471.39528290769823,217.44697803959912 494.0915691490418,210.89512455407686 494.0915691490418,262.3400400344555" />
  <polygon fill="hsl(288.0,50.0%,68.65222276527638%)" points="477.06935446803413,213.2367688941996 477.06935446803413,190.08655692802924 488.41749758870594,186.8106301852681 488.41749758870594,209.9608421514385" />
  <polygon fill="hsl(288.0,50.0%,68.65222276527638%)" points="479.33898309216846,215.15382931966633 479.33898309216846,189.431371579477 486.14786896457156,187.46581553382032 486.14786896457156,213.18827327400965" />
  <polygon fill="hsl(288.0,50.0%,56.400513863274796%)" points="358.7951333616012,402.2760353811622 358.7951333616012,350.31667074597976 367.8736478581386,347.69592935177087 367.8736478581386,399.6552939869533" />
  <polygon fill="hsl(288.0,50.0%,56.400513863274796%)" points="381.4914196029447,395.72418189563996 381.4914196029447,343.76481726045756 372.41290510640727,346.38555865466645 372.4129051064073,398.3449232898489" />
  <polygon fill="hsl(288.0,50.0%,56.400513863274796%)" points="349.71661886506377,353.45186129499245 349.71661886506377,302.0069458146138 357.660319049534,299.713797094681 357.660319049534,351.15871257505967" />
  <polygon fill="hsl(288.0,50.0%,56.400513863274796%)" points="382.6262339150119,343.9516737409852 382.6262339150119,292.50675826060655 390.5699340994821,290.21360954067376 390.5699340994821,341.6585250210524" />
  <polygon fill="hsl(288.0,50.0%,56.400513863274796%)" points="357.660319049534,307.65749727915124 357.660319049534,299.713797094681 382.6262339150119,292.50675826060655 382.6262339150119,300.4504584450768" />
  <polygon fill="hsl(288.0,50.0%,56.400513863274796%)" points="358.7951333616012,350.83111990078356 358.7951333616012,299.3862044204049 381.4914196029447,292.83435093488265 381.4914196029447,344.2792664152613" />
  <polygon fill="hsl(288.0,50.0%,56.400513863274796%)" points="364.4692049219371,295.1759952750054 364.4692049219371,272.025783308835 375.81734804260884,268.7498565660739 375.81734804260884,291.9000685322443" />
  <polygon fill="hsl(288.0,50.0%,56.400513863274796%)" points="366.7388335460714,297.0930557004721 366.7388335460714,271.3705979602828 373.54771941847446,269.4050419146261 373.54771941847446,295.12749965481544" />
  <polygon fill="hsl(288.0,50.0%,52.57800117743009%)" points="474.2097952977927,384.382130904357 474.20979529779265,332.42276626917453 483.2883097943301,329.80202487496564 483.28830979433013,381.7613895101481" />
  <polygon fill="hsl(288.0,50.0%,52.57800117743009%)" points="496.9060815391362,377.8302774188347 496.9060815391362,325.87091278365233 487.8275670425988,328.4916541778612 487.8275670425988,380.4510188130437" />
  <polygon fill="hsl(288.0,50.0%,52.57800117743009%)" points="465.1312808012553,335.5579568181872 465.1312808012553,284.11304133780857 473.0749809857255,281.8198926178758 473.0749809857255,333.26480809825443" />
  <polygon fill="hsl(288.0,50.0%,52.57800117743009%)" points="498.0408958512034,326.05776926417997 498.0408958512034,274.6128537838013 505.98459603567363,272.3197050638685 505.98459603567363,323.7646205442472" />
  <polygon fill="hsl(288.0,50.0%,52.57800117743009%)" points="473.0749809857255,289.763592802346 473.0749809857255,281.8198926178758 498.0408958512034,274.6128537838013 498.0408958512034,282.55655396827154" />
  <polygon fill="hsl(288.0,50.0%,52.57800117743009%)" points="474.20979529779265,332.93721542397833 474.20979529779265,281.4922999435997 496.9060815391362,274.9404464580774 496.9060815391362,326.3853619384561" />
  <polygon fill="hsl(288.0,50.0%,52.57800117743009%)" points="479.88386685812856,277.28209079820016 479.88386685812856,254.1318788320298 491.2320099788003,250.85595208926867 491.2320099788003,274.00616405543906" />
  <polygon fill="hsl(288.0,50.0%,52.57800117743009%)" points="482.15349548226294,279.1991512236669 482.15349548226294,253.47669348347756 488.962381354666,251.5111374378209 488.962381354666,277.2335951780102" />
  <polygon fill="hsl(288.0,50.0%,46.24652422154656%)" points="315.9777742555514,455.60662768859356 315.9777742555514,403.6472630534111 325.05628875208885,401.0265216592022 325.05628875208885,452.98588629438467" />
  <polygon fill="hsl(288.0,50.0%,46.24652422154656%)" points="338.6740604968949,449.05477420307136 338.6740604968949,397.0954095678889 329.59554600035756,399.7161509620978 329.59554600035756,451.67551559728025" />
  <polygon fill="hsl(288.0,50.0%,46.24652422154656%)" points="306.899259759014,406.78245360242386 306.899259759014,355.33753812204515 314.84295994348423,353.04438940211236 314.84295994348423,404.489304882491" />
  <polygon fill="hsl(288.0,50.0%,46.24652422154656%)" points="339.8088748089621,397.28226604841655 339.8088748089621,345.8373505680379 347.75257499343235,343.5442018481051 347.75257499343235,394.98911732848376" />
  <polygon fill="hsl(288.0,50.0%,46.24652422154656%)" points="314.84295994348423,360.9880895865826 314.84295994348423,353.04438940211236 339.8088748089621,345.8373505680379 339.8088748089621,353.7810507525081" />
  <polygon fill="hsl(288.0,50.0%,46.24652422154656%)" points="315.9777742555514,404.1617122082149 315.9777742555514,352.71679672783625 338.6740604968949,346.16494324231405 338.6740604968949,397.6098587226927" />
  <polygon fill="hsl(288.0,50.0%,46.24652422154656%)" points="321.6518458158873,348.5065875824368 321.6518458158873,325.3563756162664 332.9999889365591,322.08044887350525 332.9999889365591,345.23066083967564" />
  <polygon fill="hsl(288.0,50.0%,46.24652422154656%)" points="323.92147444002165,350.42364800790347 323.92147444002165,324.70119026771414 330.7303603124247,322.7356342220575 330.7303603124247,348.4580919622468" />
</svg>
