<?xml version="1.0" encoding="UTF-8"?>
<svg
  xmlns="http://www.w3.org/2000/svg"
  width="848"
  height="600"
  style="background-color:white"
>
  <polygon fill="lightblue" points="347.8847029263456,525.7128703493107 206.7292985941913,403.46870431620107 500.1152970736544,318.77546171690847 641.2707014058087,441.0196277500181" />
  <polygon fill="steelblue" points="206.7292985941913,403.46870431620107 206.7292985941913,158.9803722499819 500.1152970736544,74.28712965068928 500.1152970736544,318.77546171690847" />
  <polygon fill="lightskyblue" points="641.2707014058087,441.0196277500181 641.2707014058087,196.5312956837989 500.1152970736544,74.28712965068928 500.1152970736544,318.77546171690847" />
  <polygon fill="white" points="579.1623234996608,387.23219469544983 579.1623234996608,289.4368618689622 562.2236749798024,274.76756194498904 562.2236749798024,372.56289477147675" />
  <polygon fill="white" points="253.182081686773,350.94080777405134 253.182081686773,311.82267464345625 277.6309148933949,304.76490442684855 277.6309148933949,343.88303755744363" />
  <polygon fill="white" points="311.8592813826656,334.00215925419286 311.8592813826656,294.8840261235978 336.30811458928747,287.82625590699 336.3081145892875,326.94438903758515" />
  <polygon fill="white" points="370.5364810785582,317.06351073433433 370.53648107855815,277.94537760373925 394.9853142851801,270.88760738713154 394.9853142851801,310.0057405177266" />
  <polygon fill="white" points="429.21368077445084,300.1248622144758 429.21368077445084,261.0067290838807 453.6625139810727,253.948958867273 453.6625139810727,293.0670919978681" />
  <polygon fill="antiquewhite" points="491.11368176772316,435.01087012469657 491.11368176772316,351.884837222182 510.6727483330207,346.2386210488959 510.6727483330207,429.3646539514104" />
  <polygon fill="beige" points="491.11368176772316,435.01087012469657 491.11368176772316,351.884837222182 479.8212494211508,342.10530393953326 479.8212494211508,425.23133684204777" />
  <polygon fill="bisque" points="491.11368176772316,351.884837222182 479.8212494211508,342.10530393953326 499.38031598644835,336.4590877662471 510.6727483330207,346.2386210488959" />
  <polygon fill="antiquewhite" points="363.004313400913,509.144193051874 363.004313400913,426.01816014935946 382.56337996621056,420.3719439760733 382.56337996621056,503.4979768785878" />
  <polygon fill="beige" points="363.004313400913,509.144193051874 363.004313400913,426.01816014935946 351.71188105434067,416.23862686671066 351.71188105434067,499.3646597692252" />
  <polygon fill="bisque" points="363.004313400913,426.01816014935946 351.71188105434067,416.23862686671066 371.2709476196382,410.59241069342454 382.56337996621056,420.3719439760733" />
</svg>
