<?xml version="1.0" encoding="UTF-8"?>
<svg
  xmlns="http://www.w3.org/2000/svg"
  width="848"
  height="600"
  style="background-color:white"
>
  <polygon fill="lightblue" points="342.00728177121835,516.8051117380371 189.95223188188334,385.12157576016284 505.99271822878165,293.88854582656177 658.0477681181167,425.5720818044361" />
  <polygon fill="steelblue" points="189.95223188188334,385.12157576016284 189.95223188188334,174.4279181955639 505.99271822878165,83.19488826196286 505.99271822878165,293.88854582656177" />
  <polygon fill="lightskyblue" points="658.0477681181167,425.5720818044361 658.0477681181167,214.8784242398372 505.99271822878165,83.19488826196286 505.99271822878165,293.88854582656177" />
  <polygon fill="white" points="591.1435461668093,367.6313259741714 591.1435461668093,262.28449719187194 572.8969401800891,246.48247287452702 572.8969401800891,351.8293016568265" />
  <polygon fill="white" points="239.99197555347558,328.5376145077562 239.99197555347558,286.3988829948364 266.3286827490505,278.79613050036966 266.3286827490505,320.93486201328943" />
  <polygon fill="white" points="303.20007282285525,310.29100852103596 303.20007282285525,268.1522770081162 329.5367800184301,260.54952451364943 329.5367800184301,302.6882560265692" />
  <polygon fill="white" points="366.40817009223485,292.0444025343158 366.40817009223485,249.90567102139602 392.74487728780974,242.30291852692926 392.74487728780974,284.44165003984904" />
  <polygon fill="white" points="429.6162673616146,273.79779654759557 429.6162673616146,231.6590650346758 455.9529745571894,224.05631254020903 455.9529745571894,266.1950440531288" />
  <polygon fill="antiquewhite" points="496.29602208807154,419.09934386844293 496.29602208807154,329.5545394034884 517.3653878445315,323.47233740791495 517.3653878445315,413.0171418728695" />
  <polygon fill="beige" points="496.29602208807154,419.09934386844293 496.29602208807154,329.5545394034884 484.13161809692474,319.01985652525843 484.13161809692474,408.56466099021293" />
  <polygon fill="bisque" points="496.29602208807154,329.5545394034884 484.13161809692474,319.01985652525843 505.2009838533846,312.937654529685 517.3653878445315,323.47233740791495" />
  <polygon fill="antiquewhite" points="358.29438842430704,498.9570451692664 358.29438842430704,409.4122407043119 379.36375418076693,403.33003870873847 379.363754180767,492.874843173693" />
  <polygon fill="beige" points="358.29438842430704,498.9570451692664 358.29438842430704,409.4122407043119 346.12998443316025,398.87755782608195 346.12998443316025,488.42236229103645" />
  <polygon fill="bisque" points="358.29438842430704,409.4122407043119 346.12998443316025,398.87755782608195 367.19935018962013,392.7953558305085 379.36375418076693,403.33003870873847" />
</svg>
