<?xml version="1.0" encoding="UTF-8"?>
<svg
  xmlns="http://www.w3.org/2000/svg"
  width="848"
  height="600"
  style="background-color:white"
>
  <polygon fill="lightblue" points="352.3727631047085,535.4111760923879 219.54044195688212,420.3750115347174 495.6272368952915,340.67561884602145 628.4595580431179,455.71178340369204" />
  <polygon fill="steelblue" points="219.54044195688212,420.3750115347174 219.54044195688212,144.28821659630796 495.6272368952915,64.5888239076121 495.6272368952915,340.67561884602145" />
  <polygon fill="lightskyblue" points="628.4595580431179,455.71178340369204 628.4595580431179,179.62498846528266 495.6272368952915,64.5888239076121 495.6272368952915,340.67561884602145" />
  <polygon fill="white" points="570.0133367380743,405.09587099831697 570.0133367380743,313.0669393521805 554.0734582003352,299.26259960526005 554.0734582003352,391.2915312513965" />
  <polygon fill="white" points="247.47779620660214,375.4986193780019 247.47779620660214,338.68704671954725 270.48502911813625,332.0454306621559 270.48502911813625,368.85700332061054" />
  <polygon fill="white" points="286.91876691208915,364.1129918510453 286.91876691208915,327.3014191925907 309.9259998236233,320.6598031351994 309.9259998236233,357.471375793654" />
  <polygon fill="white" points="326.35973761757623,352.72736432408874 326.35973761757623,315.9157916656342 349.36697052911035,309.27417560824284 349.36697052911035,346.08574826669746" />
  <polygon fill="white" points="365.80070832306325,341.34173679713217 365.80070832306325,304.5301641386776 388.80794123459737,297.8885480812863 388.80794123459737,334.7001207397409" />
  <polygon fill="white" points="405.2416790285503,329.95610927017566 405.2416790285503,293.14453661172104 428.24891194008444,286.5029205543297 428.24891194008444,323.3144932127843" />
  <polygon fill="white" points="444.68264973403734,318.5704817432191 444.68264973403734,281.7589090847645 467.68988264557146,275.1172930273732 467.68988264557146,311.92886568582776" />
  <polygon fill="antiquewhite" points="487.1563925742833,450.0573259894509 487.1563925742833,371.83273409023485 505.5621789035106,366.5194412443218 505.5621789035106,444.7440331435378" />
  <polygon fill="beige" points="487.1563925742833,450.0573259894509 487.1563925742833,371.83273409023485 476.5298068824572,362.62984092562124 476.5298068824572,440.8544328248372" />
  <polygon fill="bisque" points="487.1563925742833,371.83273409023485 476.5298068824572,362.62984092562124 494.9355932116845,357.3165480797081 505.5621789035106,366.5194412443218" />
  <polygon fill="antiquewhite" points="366.6008613039234,519.8194538045968 366.6008613039234,441.5948619053808 385.0066476331507,436.28156905946776 385.00664763315075,514.5061609586837" />
  <polygon fill="beige" points="366.6008613039234,519.8194538045968 366.6008613039234,441.5948619053808 355.9742756120973,432.39196874076714 355.9742756120973,510.61656063998316" />
  <polygon fill="bisque" points="366.6008613039234,441.5948619053808 355.9742756120973,432.39196874076714 374.3800619413246,427.0786758948541 385.0066476331507,436.28156905946776" />
  <polygon fill="antiquewhite" points="454.91014175567483,370.6084103983253 454.91014175567483,292.38381849910934 473.3159280849021,287.0705256531963 473.3159280849021,365.2951175524123" />
  <polygon fill="beige" points="454.91014175567483,370.6084103983253 454.91014175567483,292.38381849910934 444.28355606384866,283.18092533449567 444.2835560638487,361.40551723371163" />
  <polygon fill="bisque" points="454.91014175567483,292.38381849910934 444.28355606384866,283.18092533449567 462.689342393076,277.8676324885826 473.3159280849021,287.0705256531963" />
</svg>
