<?xml version="1.0" encoding="UTF-8"?>
<svg
  xmlns="http://www.w3.org/2000/svg"
  width="848"
  height="600"
  style="background-color:white"
>
  <polygon fill="lightblue" points="328.49701747294466,521.8526364770474 151.3872559425095,368.47108373348664 519.5029825270553,262.2052268152255 696.6127440574905,415.58677955878625" />
  <polygon fill="steelblue" points="151.3872559425095,368.47108373348664 151.3872559425095,184.41322044121372 519.5029825270553,78.14736352295259 519.5029825270553,262.2052268152255" />
  <polygon fill="lightskyblue" points="696.6127440574905,415.58677955878625 696.6127440574905,231.52891626651336 519.5029825270553,78.14736352295259 519.5029825270553,262.2052268152255" />
  <polygon fill="white" points="589.1661553956932,322.53530422769273 589.1661553956932,205.96532414258655 567.912984012041,187.55953781335927 567.912984012041,304.12951789846545" />
  <polygon fill="white" points="648.2027425725049,373.6624884755463 648.2027425725049,257.0925083904401 626.9495711888527,238.68672206121286 626.9495711888527,355.256702146319" />
  <polygon fill="grey" points="506.5376481313867,145.28784164202744 506.5376481313867,114.61153109331528 537.2139586800988,105.75604301679351 537.2139586800988,136.43235356550568" />
  <polygon fill="lightgrey" points="506.5376481313867,145.28784164202744 506.5376481313867,114.61153109331528 488.82667197834314,99.27337581895921 488.82667197834314,129.94968636767138" />
  <polygon fill="darkgrey" points="506.5376481313867,114.61153109331528 488.82667197834314,99.27337581895921 519.5029825270553,90.41788774243744 537.2139586800988,105.75604301679351" />
  <polygon fill="hsl(324.0,50.0%,51.426934746249444%)" points="472.87275299962596,406.1689601400267 472.87275299962596,364.03197997031566 480.2350675313169,361.9066628319504 480.2350675313169,404.04364300166145" />
  <polygon fill="hsl(324.0,50.0%,51.426934746249444%)" points="491.27853932885324,400.85566729411363 491.27853932885324,358.7186871244026 483.91622479716233,360.84400426276784 483.91622479716233,402.98098443247886" />
  <polygon fill="hsl(324.0,50.0%,51.426934746249444%)" points="465.51043846793505,366.57449493214335 465.51043846793505,324.85471258589484 471.9524636831646,322.9950600898253 471.9524636831646,364.7148424360738" />
  <polygon fill="hsl(324.0,50.0%,51.426934746249444%)" points="492.1988286453146,358.87022030556943 492.1988286453146,317.1504379593209 498.64085386054415,315.2907854632513 498.64085386054415,357.0105678094999" />
  <polygon fill="hsl(324.0,50.0%,51.426934746249444%)" points="471.9524636831646,329.43708530505484 471.9524636831646,322.9950600898253 492.1988286453146,317.1504379593209 492.1988286453146,323.59246317455046" />
  <polygon fill="hsl(324.0,50.0%,51.426934746249444%)" points="472.87275299962596,364.4491777937782 472.87275299962596,322.7293954475296 491.27853932885324,317.41610260161656 491.27853932885324,359.13588494786507" />
  <polygon fill="hsl(324.0,50.0%,51.426934746249444%)" points="477.47419958193274,319.3150831187389 477.47419958193274,300.54118106292714 486.6770927465464,297.8845346399706 486.6770927465464,316.6584366957824" />
  <polygon fill="hsl(324.0,50.0%,51.426934746249444%)" points="479.3147782148555,320.86974295146007 479.3147782148555,300.0098517783358 484.8365141136237,298.4158639245619 484.8365141136237,319.27575509768616" />
</svg>
