<?xml version="1.0" encoding="UTF-8"?>
<svg
  xmlns="http://www.w3.org/2000/svg"
  width="848"
  height="600"
  style="background-color:white"
>
  <polygon fill="lightblue" points="342.00728177121835,516.8051117380371 189.95223188188334,385.12157576016284 505.99271822878165,293.88854582656177 658.0477681181167,425.5720818044361" />
  <polygon fill="steelblue" points="189.95223188188334,385.12157576016284 189.95223188188334,174.4279181955639 505.99271822878165,83.19488826196286 505.99271822878165,293.88854582656177" />
  <polygon fill="lightskyblue" points="658.0477681181167,425.5720818044361 658.0477681181167,214.8784242398372 505.99271822878165,83.19488826196286 505.99271822878165,293.88854582656177" />
  <polygon fill="white" points="565.8010378519201,345.684069977859 565.8010378519201,240.33724119555956 547.5544318652,224.53521687821464 547.5544318652,329.8820456605141" />
  <polygon fill="white" points="616.4860544816985,389.57858197048375 616.4860544816985,284.2317531881843 598.2394484949782,268.4297288708394 598.2394484949782,373.77655765313887" />
  <polygon fill="grey" points="494.8615160221403,140.83738442802186 494.8615160221403,114.50067723244703 521.1982232177152,106.89792473798028 521.1982232177152,133.23463193355514" />
  <polygon fill="lightgrey" points="494.8615160221403,140.83738442802186 494.8615160221403,114.50067723244703 479.6560110332068,101.33232363465962 479.6560110332068,127.66903083023445" />
  <polygon fill="darkgrey" points="494.8615160221403,114.50067723244703 479.6560110332068,101.33232363465962 505.99271822878165,93.72957114019286 521.1982232177152,106.89792473798028" />
  <polygon fill="hsl(324.0,50.0%,51.426934746249444%)" points="465.9590023235972,417.48654778759897 465.9590023235972,381.31044678375736 472.27981205053516,379.4857861850853 472.27981205053516,415.661887188927" />
  <polygon fill="hsl(324.0,50.0%,51.426934746249444%)" points="481.7610266409421,412.9248962909189 481.7610266409421,376.7487952870773 475.4402169140041,378.57345588574935 475.4402169140041,414.74955688959096" />
  <polygon fill="hsl(324.0,50.0%,51.426934746249444%)" points="459.6381925966592,383.4932866002892 459.6381925966592,347.6753648143074 465.16890110772994,346.0787867904694 465.16890110772994,381.8967085764512" />
  <polygon fill="hsl(324.0,50.0%,51.426934746249444%)" points="482.55112785680933,376.8788919301031 482.55112785680933,341.0609701441213 488.08183636788004,339.4643921202833 488.08183636788004,375.28231390626513" />
  <polygon fill="hsl(324.0,50.0%,51.426934746249444%)" points="465.16890110772994,351.6094953015401 465.16890110772994,346.0787867904694 482.55112785680933,341.0609701441213 482.55112785680933,346.591678655192" />
  <polygon fill="hsl(324.0,50.0%,51.426934746249444%)" points="465.9590023235972,381.66862600161716 465.9590023235972,345.85070421563535 481.7610266409421,341.2890527189553 481.7610266409421,377.1069745049371" />
  <polygon fill="hsl(324.0,50.0%,51.426934746249444%)" points="469.9095084029334,342.9193952521663 469.9095084029334,326.80133044847446 477.81052056160587,324.52050470013444 477.81052056160587,340.63856950382626" />
  <polygon fill="hsl(324.0,50.0%,51.426934746249444%)" points="471.4897108346679,344.25412619179735 471.4897108346679,326.3451652988065 476.23031812987136,324.9766698498025 476.23031812987136,342.88563074279335" />
</svg>
