<?xml version="1.0" encoding="UTF-8"?>
<svg
  xmlns="http://www.w3.org/2000/svg"
  width="848"
  height="600"
  style="background-color:white"
>
  <polygon fill="lightblue" points="333.75533648981553,509.6376050040804 166.39709896927315,364.7011197787007 514.2446635101844,264.28617726637526 681.6029010307268,409.22266249175493" />
  <polygon fill="steelblue" points="166.39709896927315,364.7011197787007 166.39709896927315,190.77733750824507 514.2446635101844,90.3623949959196 514.2446635101844,264.28617726637526" />
  <polygon fill="lightskyblue" points="681.6029010307268,409.22266249175493 681.6029010307268,235.2988802212993 514.2446635101844,90.3623949959196 514.2446635101844,264.28617726637526" />
  <polygon fill="white" points="607.9652765216881,345.4506089925879 607.9652765216881,229.5014208122841 587.8822880192231,212.10904258523854 587.8822880192231,328.0582307655423" />
  <polygon fill="antiquewhite" points="503.57206843976377,402.09849256981835 503.57206843976377,303.54168261656014 526.7619060758245,296.84735311573843 526.7619060758245,395.4041630689966" />
  <polygon fill="beige" points="503.57206843976377,402.09849256981835 503.57206843976377,303.54168261656014 490.1834094381204,291.9467637985298 490.1834094381204,390.50357375178794" />
  <polygon fill="bisque" points="503.57206843976377,303.54168261656014 490.1834094381204,291.9467637985298 513.3732470741811,285.2524342977081 526.7619060758245,296.84735311573843" />
  <polygon fill="antiquewhite" points="351.68161691097777,489.99326588957734 351.68161691097777,391.43645593631913 374.8714545470385,384.7421264354974 374.8714545470385,483.2989363887556" />
  <polygon fill="beige" points="351.68161691097777,489.99326588957734 351.68161691097777,391.43645593631913 338.29295790933435,379.8415371182888 338.29295790933435,478.39834707154694" />
  <polygon fill="bisque" points="351.68161691097777,391.43645593631913 338.29295790933435,379.8415371182888 361.4827955453951,373.1472076174671 374.8714545470385,384.7421264354974" />
  <polygon fill="antiquewhite" points="462.94433825320914,301.9991314252383 462.94433825320914,203.4423214719801 486.13417588926995,196.7479919711584 486.13417588926995,295.3048019244166" />
  <polygon fill="beige" points="462.94433825320914,301.9991314252383 462.94433825320914,203.4423214719801 449.5556792515658,191.8474026539497 449.5556792515658,290.4042126072079" />
  <polygon fill="bisque" points="462.94433825320914,203.4423214719801 449.5556792515658,191.8474026539497 472.74551688762654,185.15307315312802 486.13417588926995,196.7479919711584" />
  <polygon fill="antiquewhite" points="424.65973334807416,344.9240461481048 424.65973334807416,246.3672361948466 447.84957098413497,239.67290669402493 447.84957098413497,338.2297166472831" />
  <polygon fill="beige" points="424.65973334807416,344.9240461481048 424.65973334807416,246.3672361948466 411.2710743464308,234.77231737681623 411.2710743464308,333.3291273300744" />
  <polygon fill="bisque" points="424.65973334807416,246.3672361948466 411.2710743464308,234.77231737681623 434.46091198249155,228.07798787599455 447.84957098413497,239.67290669402493" />
</svg>
