<?xml version="1.0" encoding="UTF-8"?>
<svg
  xmlns="http://www.w3.org/2000/svg"
  width="848"
  height="600"
  style="background-color:white"
>
  <polygon fill="lightblue" points="371.78923284010216,471.5967086621672 274.96464918491677,387.74415950592515 476.21076715989784,329.6494093128138 573.0353508150832,413.5019584690559" />
  <polygon fill="steelblue" points="274.96464918491677,387.74415950592515 274.96464918491677,186.49804153094405 476.21076715989784,128.40329133783277 476.21076715989784,329.6494093128138" />
  <polygon fill="lightskyblue" points="573.0353508150832,413.5019584690559 573.0353508150832,212.25584049407487 476.21076715989784,128.40329133783277 476.21076715989784,329.6494093128138" />
  <polygon fill="white" points="530.4325340068017,376.6068368403094 530.4325340068017,309.52479751531575 518.8135839681794,299.4624916165667 518.8135839681794,366.54453094156037" />
  <polygon fill="white" points="295.32883969428985,355.03270833971993 295.32883969428985,328.19989260972244 312.0993495255383,323.3586634269632 312.0993495255383,350.19147915696067" />
  <polygon fill="white" points="324.07828511928716,346.7334583121326 324.07828511928716,319.90064258213516 340.84879495053553,315.0594133993759 340.84879495053553,341.89222912937333" />
  <polygon fill="white" points="352.8277305442844,338.4342082845453 352.8277305442844,311.60139255454783 369.59824037553284,306.76016337178856 369.59824037553284,333.592979101786" />
  <polygon fill="white" points="381.5771759692817,330.134958256958 381.5771759692817,303.3021425269605 398.34768580053014,298.46091334420123 398.34768580053014,325.2937290741987" />
  <polygon fill="white" points="410.326621394279,321.83570822937065 410.326621394279,295.00289249937316 427.09713122552745,290.1616633166139 427.09713122552745,316.9944790466114" />
  <polygon fill="white" points="439.0760668192763,313.5364582017833 439.0760668192763,286.7036424717858 455.8465766505247,281.86241328902656 455.8465766505247,308.69522901902405" />
</svg>
