<?xml version="1.0" encoding="UTF-8"?>
<svg
  xmlns="http://www.w3.org/2000/svg"
  width="848"
  height="600"
  style="background-color:white"
>
  <polygon fill="lightblue" points="347.8847029263456,525.7128703493107 206.7292985941913,403.46870431620107 500.1152970736544,318.77546171690847 641.2707014058087,441.0196277500181" />
  <polygon fill="steelblue" points="206.7292985941913,403.46870431620107 206.7292985941913,158.9803722499819 500.1152970736544,74.28712965068928 500.1152970736544,318.77546171690847" />
  <polygon fill="lightskyblue" points="641.2707014058087,441.0196277500181 641.2707014058087,196.5312956837989 500.1152970736544,74.28712965068928 500.1152970736544,318.77546171690847" />
  <polygon fill="white" points="579.1623234996608,387.23219469544983 579.1623234996608,289.4368618689622 562.2236749798024,274.76756194498904 562.2236749798024,372.56289477147675" />
  <polygon fill="white" points="243.4025484041242,353.76391586069445 243.4025484041242,314.64578273009937 267.8513816107461,307.58801251349166 267.8513816107461,346.70614564408675" />
  <polygon fill="white" points="292.30021481736804,339.648375427479 292.30021481736804,300.53024229688396 316.74904802399,293.4724720802762 316.74904802399,332.5906052108713" />
  <polygon fill="white" points="341.19788123061187,325.53283499426357 341.19788123061187,286.4147018636685 365.6467144372338,279.3569316470608 365.6467144372338,318.47506477765586" />
  <polygon fill="white" points="390.09554764385575,311.41729456104815 390.09554764385575,272.29916143045307 414.54438085047764,265.24139121384536 414.54438085047764,304.35952434444044" />
  <polygon fill="white" points="438.9932140570996,297.30175412783274 438.9932140570996,258.18362099723765 463.4420472637215,251.12585078062992 463.4420472637215,290.243983911225" />
  <polygon fill="antiquewhite" points="491.11368176772316,435.01087012469657 491.11368176772316,351.884837222182 510.6727483330207,346.2386210488959 510.6727483330207,429.3646539514104" />
  <polygon fill="beige" points="491.11368176772316,435.01087012469657 491.11368176772316,351.884837222182 479.8212494211508,342.10530393953326 479.8212494211508,425.23133684204777" />
  <polygon fill="bisque" points="491.11368176772316,351.884837222182 479.8212494211508,342.10530393953326 499.38031598644835,336.4590877662471 510.6727483330207,346.2386210488959" />
</svg>
