<?xml version="1.0" encoding="UTF-8"?>
<svg
  xmlns="http://www.w3.org/2000/svg"
  width="848"
  height="600"
  style="background-color:white"
>
  <polygon fill="lightblue" points="352.3727631047085,535.4111760923879 219.54044195688212,420.3750115347174 495.6272368952915,340.67561884602145 628.4595580431179,455.71178340369204" />
  <polygon fill="steelblue" points="219.54044195688212,420.3750115347174 219.54044195688212,144.28821659630796 495.6272368952915,64.5888239076121 495.6272368952915,340.67561884602145" />
  <polygon fill="lightskyblue" points="628.4595580431179,455.71178340369204 628.4595580431179,179.62498846528266 495.6272368952915,64.5888239076121 495.6272368952915,340.67561884602145" />
  <polygon fill="white" points="570.0133367380743,405.09587099831697 570.0133367380743,313.0669393521805 554.0734582003352,299.26259960526005 554.0734582003352,391.2915312513965" />
  <polygon fill="white" points="277.0585242357174,366.95939873278445 277.0585242357174,330.1478260743298 300.06575714725153,323.50621001693855 300.06575714725153,360.3177826753931" />
  <polygon fill="white" points="346.08022297031977,347.03455056061046 346.08022297031977,310.2229779021559 369.0874558818539,303.58136184476456 369.0874558818539,340.3929345032192" />
  <polygon fill="white" points="415.1019217049221,327.1097023884365 415.10192170492206,290.2981297299819 438.1091546164562,283.65651367259056 438.10915461645624,320.4680863310452" />
  <polygon fill="antiquewhite" points="487.1563925742833,450.0573259894509 487.1563925742833,371.83273409023485 505.5621789035106,366.5194412443218 505.5621789035106,444.7440331435378" />
  <polygon fill="beige" points="487.1563925742833,450.0573259894509 487.1563925742833,371.83273409023485 476.5298068824572,362.62984092562124 476.5298068824572,440.8544328248372" />
  <polygon fill="bisque" points="487.1563925742833,371.83273409023485 476.5298068824572,362.62984092562124 494.9355932116845,357.3165480797081 505.5621789035106,366.5194412443218" />
</svg>
