<?xml version="1.0" encoding="UTF-8"?>
<svg
  xmlns="http://www.w3.org/2000/svg"
  width="848"
  height="600"
  style="background-color:white"
>
  <polygon fill="lightblue" points="289.1923788646684,656.4582562299427 39.1923788646684,439.95190528383296 558.8076211353316,289.95190528383284 808.8076211353316,506.45825622994255" />
  <polygon fill="steelblue" points="39.1923788646684,439.95190528383296 39.1923788646684,93.54174377005745 558.8076211353316,-56.458256229942606 558.8076211353316,289.95190528383284" />
  <polygon fill="lightskyblue" points="808.8076211353316,506.45825622994255 808.8076211353316,160.04809471616707 558.8076211353316,-56.458256229942606 558.8076211353316,289.95190528383284" />
  <polygon fill="white" points="698.8076211353316,411.1954618136542 698.8076211353316,237.99038105676655 668.8076211353316,212.0096189432334 668.8076211353316,385.2146997001211" />
  <polygon fill="white" points="91.77249266586648,355.49130155250634 91.77249266586648,286.2092692497513 135.07376285508843,273.7092692497513 135.07376285508843,342.99130155250634" />
  <polygon fill="white" points="166.0032415616755,334.06273012393495 166.0032415616755,264.78069782117984 209.30451175089743,252.28069782117984 209.30451175089743,321.56273012393495" />
  <polygon fill="white" points="240.2339904574845,312.6341586953635 240.2339904574845,243.35212639260843 283.53526064670643,230.8521263926084 283.53526064670643,300.1341586953635" />
  <polygon fill="white" points="314.46473935329357,291.20558726679207 314.46473935329357,221.92355496403698 357.76600954251546,209.42355496403695 357.76600954251546,278.70558726679207" />
  <polygon fill="white" points="388.6954882491026,269.7770158382206 388.69548824910254,200.49498353546554 431.9967584383245,187.99498353546554 431.9967584383245,257.2770158382206" />
  <polygon fill="white" points="462.92623714491157,248.3484444096492 462.92623714491157,179.06641210689412 506.22750733413346,166.56641210689412 506.22750733413346,235.8484444096492" />
</svg>
