<?xml version="1.0" encoding="UTF-8"?>
<svg
  xmlns="http://www.w3.org/2000/svg"
  width="848"
  height="600"
  style="background-color:white"
>
  <polygon fill="lightblue" points="352.3727631047085,535.4111760923879 219.54044195688212,420.3750115347174 495.6272368952915,340.67561884602145 628.4595580431179,455.71178340369204" />
  <polygon fill="steelblue" points="219.54044195688212,420.3750115347174 219.54044195688212,144.28821659630796 495.6272368952915,64.5888239076121 495.6272368952915,340.67561884602145" />
  <polygon fill="lightskyblue" points="628.4595580431179,455.71178340369204 628.4595580431179,179.62498846528266 495.6272368952915,64.5888239076121 495.6272368952915,340.67561884602145" />
  <polygon fill="white" points="570.0133367380743,405.09587099831697 570.0133367380743,313.0669393521805 554.0734582003352,299.26259960526005 554.0734582003352,391.2915312513965" />
  <polygon fill="white" points="300.06575714725153,360.3177826753931 300.06575714725153,323.50621001693855 323.07299005878565,316.8645939595472 323.07299005878565,353.6761666180018" />
  <polygon fill="white" points="392.094688793388,333.75131844582785 392.094688793388,296.9397457873732 415.10192170492206,290.2981297299819 415.1019217049221,327.1097023884365" />
  <polygon fill="antiquewhite" points="487.1563925742833,450.0573259894509 487.1563925742833,371.83273409023485 505.5621789035106,366.5194412443218 505.5621789035106,444.7440331435378" />
  <polygon fill="beige" points="487.1563925742833,450.0573259894509 487.1563925742833,371.83273409023485 476.5298068824572,362.62984092562124 476.5298068824572,440.8544328248372" />
  <polygon fill="bisque" points="487.1563925742833,371.83273409023485 476.5298068824572,362.62984092562124 494.9355932116845,357.3165480797081 505.5621789035106,366.5194412443218" />
  <polygon fill="antiquewhite" points="366.6008613039234,519.8194538045968 366.6008613039234,441.5948619053808 385.0066476331507,436.28156905946776 385.00664763315075,514.5061609586837" />
  <polygon fill="beige" points="366.6008613039234,519.8194538045968 366.6008613039234,441.5948619053808 355.9742756120973,432.39196874076714 355.9742756120973,510.61656063998316" />
  <polygon fill="bisque" points="366.6008613039234,441.5948619053808 355.9742756120973,432.39196874076714 374.3800619413246,427.0786758948541 385.0066476331507,436.28156905946776" />
  <polygon fill="antiquewhite" points="454.91014175567483,370.6084103983253 454.91014175567483,292.38381849910934 473.3159280849021,287.0705256531963 473.3159280849021,365.2951175524123" />
  <polygon fill="beige" points="454.91014175567483,370.6084103983253 454.91014175567483,292.38381849910934 444.28355606384866,283.18092533449567 444.2835560638487,361.40551723371163" />
  <polygon fill="bisque" points="454.91014175567483,292.38381849910934 444.28355606384866,283.18092533449567 462.689342393076,277.8676324885826 473.3159280849021,287.0705256531963" />
</svg>
