<?xml version="1.0" encoding="UTF-8"?>
<svg
  xmlns="http://www.w3.org/2000/svg"
  width="848"
  height="600"
  style="background-color:white"
>
  <polygon fill="lightblue" points="289.1923788646684,699.7595264191646 39.1923788646684,483.25317547305485 558.8076211353316,333.25317547305474 808.8076211353316,549.7595264191644" />
  <polygon fill="steelblue" points="39.1923788646684,483.25317547305485 39.1923788646684,50.240473580835584 558.8076211353316,-99.7595264191645 558.8076211353316,333.25317547305474" />
  <polygon fill="lightskyblue" points="808.8076211353316,549.7595264191644 808.8076211353316,116.74682452694515 558.8076211353316,-99.7595264191645 558.8076211353316,333.25317547305474" />
  <polygon fill="white" points="698.8076211353316,454.4967320028762 698.8076211353316,281.2916512459885 668.8076211353316,255.31088913245532 668.8076211353316,428.515969889343" />
  <polygon fill="white" points="121.46479222419009,390.22114317029974 121.46479222419009,320.9391108675446 164.76606241341204,308.4391108675446 164.76606241341204,377.72114317029974" />
  <polygon fill="white" points="225.3878406783227,360.22114317029974 225.3878406783227,290.9391108675446 268.6891108675446,278.4391108675446 268.6891108675446,347.72114317029974" />
  <polygon fill="white" points="329.3108891324553,330.22114317029974 329.3108891324553,260.9391108675446 372.61215932167727,248.43911086754463 372.61215932167727,317.72114317029974" />
  <polygon fill="white" points="433.23393758658796,300.2211431702997 433.23393758658796,230.93911086754463 476.5352077758099,218.4391108675446 476.5352077758099,287.7211431702997" />
</svg>
