<?xml version="1.0" encoding="UTF-8"?>
<svg
  xmlns="http://www.w3.org/2000/svg"
  width="848"
  height="600"
  style="background-color:white"
>
  <polygon fill="lightblue" points="347.8847029263456,525.7128703493107 206.7292985941913,403.46870431620107 500.1152970736544,318.77546171690847 641.2707014058087,441.0196277500181" />
  <polygon fill="steelblue" points="206.7292985941913,403.46870431620107 206.7292985941913,158.9803722499819 500.1152970736544,74.28712965068928 500.1152970736544,318.77546171690847" />
  <polygon fill="lightskyblue" points="641.2707014058087,441.0196277500181 641.2707014058087,196.5312956837989 500.1152970736544,74.28712965068928 500.1152970736544,318.77546171690847" />
  <polygon fill="white" points="267.8513816107461,346.70614564408675 267.8513816107461,307.58801251349166 292.30021481736804,300.53024229688396 292.30021481736804,339.648375427479" />
  <polygon fill="white" points="341.19788123061187,325.53283499426357 341.19788123061187,286.4147018636685 365.6467144372338,279.3569316470608 365.6467144372338,318.47506477765586" />
  <polygon fill="white" points="414.54438085047764,304.35952434444044 414.54438085047764,265.24139121384536 438.9932140570996,258.18362099723765 438.9932140570996,297.30175412783274" />
  <polygon fill="hsl(324.0,50.0%,51.426934746249444%)" points="462.9512873309483,433.5136828687487 462.9512873309483,399.9307655761328 468.8190073005375,398.23690072414695 468.8190073005375,431.81981801676284" />
  <polygon fill="hsl(324.0,50.0%,51.426934746249444%)" points="477.6205872549214,429.279020738784 477.6205872549214,395.6961034461682 471.7528672853322,397.38996829815403 471.7528672853322,430.9728855907699" />
  <polygon fill="hsl(324.0,50.0%,51.426934746249444%)" points="457.08356736135903,401.95713455972873 457.08356736135903,368.7067213987229 462.2178223347496,367.2245896532353 462.2178223347496,400.47500281424107" />
  <polygon fill="hsl(324.0,50.0%,51.426934746249444%)" points="478.3540522511201,395.81687447128 478.3540522511201,362.5664613102742 483.48830722451066,361.0843295647866 483.48830722451066,394.33474272579235" />
  <polygon fill="hsl(324.0,50.0%,51.426934746249444%)" points="462.2178223347496,372.35884462662585 462.2178223347496,367.2245896532353 478.3540522511201,362.5664613102742 478.3540522511201,367.70071628366475" />
  <polygon fill="hsl(324.0,50.0%,51.426934746249444%)" points="462.9512873309483,400.26326970774284 462.9512873309483,367.01285654673705 477.6205872549214,362.7781944167724 477.6205872549214,396.0286075777782" />
  <polygon fill="hsl(324.0,50.0%,51.426934746249444%)" points="466.61861231194155,364.2916703561956 466.61861231194155,349.32898443374296 473.95326227392815,347.21165336876066 473.95326227392815,362.17433929121324" />
  <polygon fill="hsl(324.0,50.0%,51.426934746249444%)" points="468.0855423043389,365.53072480124945 468.0855423043389,348.9055182207465 472.4863322815308,347.6351195817571 472.48633228153085,364.26032616226" />
</svg>
