<?xml version="1.0" encoding="UTF-8"?>
<svg
  xmlns="http://www.w3.org/2000/svg"
  width="848"
  height="600"
  style="background-color:white"
>
  <polygon fill="lightblue" points="289.1923788646684,613.1569860407207 39.1923788646684,396.650635094611 558.8076211353316,246.65063509461092 808.8076211353316,463.15698604072065" />
  <polygon fill="steelblue" points="39.1923788646684,396.650635094611 39.1923788646684,136.84301395927938 558.8076211353316,-13.156986040720653 558.8076211353316,246.65063509461092" />
  <polygon fill="lightskyblue" points="808.8076211353316,463.15698604072065 808.8076211353316,203.349364905389 558.8076211353316,-13.156986040720653 558.8076211353316,246.65063509461092" />
  <polygon fill="white" points="698.8076211353316,367.8941916244323 698.8076211353316,194.68911086754463 668.8076211353316,168.70834875401147 668.8076211353316,341.91342951089916" />
  <polygon fill="white" points="91.77249266586648,312.19003136328445 91.77249266586648,242.90799906052936 135.07376285508843,230.40799906052936 135.07376285508843,299.69003136328445" />
  <polygon fill="white" points="166.0032415616755,290.761459934713 166.0032415616755,221.47942763195795 209.30451175089743,208.97942763195792 209.30451175089743,278.261459934713" />
  <polygon fill="white" points="240.2339904574845,269.33288850614156 240.2339904574845,200.0508562033865 283.53526064670643,187.5508562033865 283.53526064670643,256.83288850614156" />
  <polygon fill="white" points="314.46473935329357,247.90431707757014 314.46473935329357,178.62228477481506 357.76600954251546,166.12228477481506 357.76600954251546,235.40431707757014" />
  <polygon fill="white" points="388.69548824910254,226.47574564899872 388.69548824910254,157.1937133462436 431.9967584383245,144.6937133462436 431.9967584383245,213.97574564899872" />
  <polygon fill="white" points="462.92623714491157,205.04717422042728 462.92623714491157,135.7651419176722 506.22750733413346,123.2651419176722 506.22750733413346,192.54717422042728" />
</svg>
