<?xml version="1.0" encoding="UTF-8"?>
<svg
  xmlns="http://www.w3.org/2000/svg"
  width="848"
  height="600"
  style="background-color:white"
>
  <polygon fill="lightblue" points="342.00728177121835,516.8051117380371 189.95223188188334,385.12157576016284 505.99271822878165,293.88854582656177 658.0477681181167,425.5720818044361" />
  <polygon fill="steelblue" points="189.95223188188334,385.12157576016284 189.95223188188334,174.4279181955639 505.99271822878165,83.19488826196286 505.99271822878165,293.88854582656177" />
  <polygon fill="lightskyblue" points="658.0477681181167,425.5720818044361 658.0477681181167,214.8784242398372 505.99271822878165,83.19488826196286 505.99271822878165,293.88854582656177" />
  <polygon fill="white" points="591.1435461668093,367.6313259741714 591.1435461668093,262.28449719187194 572.8969401800891,246.48247287452702 572.8969401800891,351.8293016568265" />
  <polygon fill="white" points="239.99197555347558,328.5376145077562 239.99197555347558,286.3988829948364 266.3286827490505,278.79613050036966 266.3286827490505,320.93486201328943" />
  <polygon fill="white" points="303.20007282285525,310.29100852103596 303.20007282285525,268.1522770081162 329.5367800184301,260.54952451364943 329.5367800184301,302.6882560265692" />
  <polygon fill="white" points="366.40817009223485,292.0444025343158 366.40817009223485,249.90567102139602 392.74487728780974,242.30291852692926 392.74487728780974,284.44165003984904" />
  <polygon fill="white" points="429.6162673616146,273.79779654759557 429.6162673616146,231.6590650346758 455.9529745571894,224.05631254020903 455.9529745571894,266.1950440531288" />
  <polygon fill="grey" points="494.8615160221403,140.83738442802186 494.8615160221403,114.50067723244703 521.1982232177152,106.89792473798028 521.1982232177152,133.23463193355514" />
  <polygon fill="lightgrey" points="494.8615160221403,140.83738442802186 494.8615160221403,114.50067723244703 479.6560110332068,101.33232363465962 479.6560110332068,127.66903083023445" />
  <polygon fill="darkgrey" points="494.8615160221403,114.50067723244703 479.6560110332068,101.33232363465962 505.99271822878165,93.72957114019286 521.1982232177152,106.89792473798028" />
  <polygon fill="hsl(324.0,50.0%,70.71600065166498%)" points="444.44609840753054,355.9620574441514 444.44609840753054,319.7859564403098 450.7669081344685,317.96129584163776 450.7669081344685,354.13739684547943" />
  <polygon fill="hsl(324.0,50.0%,70.71600065166498%)" points="460.24812272487554,351.40040594747137 460.24812272487554,315.22430494362976 453.9273129979375,317.04896554230174 453.9273129979376,353.2250665461434" />
  <polygon fill="hsl(324.0,50.0%,70.71600065166498%)" points="438.12528868059263,321.96879625684164 438.12528868059263,286.15087447085983 443.65599719166335,284.55429644702184 443.65599719166335,320.3722182330036" />
  <polygon fill="hsl(324.0,50.0%,70.71600065166498%)" points="461.03822394074274,315.35440158665557 461.03822394074274,279.53647980067376 466.56893245181345,277.9399017768357 466.56893245181345,313.7578235628175" />
  <polygon fill="hsl(324.0,50.0%,70.71600065166498%)" points="443.65599719166335,290.08500495809255 443.65599719166335,284.55429644702184 461.03822394074274,279.53647980067376 461.03822394074274,285.0671883117445" />
  <polygon fill="hsl(324.0,50.0%,70.71600065166498%)" points="444.44609840753054,320.1441356581696 444.44609840753054,284.3262138721878 460.24812272487554,279.76456237550775 460.24812272487554,315.58248416148956" />
  <polygon fill="hsl(324.0,50.0%,70.71600065166498%)" points="448.3966044868668,281.39490490871873 448.3966044868668,265.2768401050269 456.2976166455393,262.9960143566869 456.2976166455393,279.11407916037865" />
  <polygon fill="hsl(324.0,50.0%,70.71600065166498%)" points="449.9768069186013,282.7296358483498 449.9768069186013,264.82067495535887 454.7174142138048,263.45217950635487 454.7174142138048,281.3611403993458" />
  <polygon fill="hsl(324.0,50.0%,51.426934746249444%)" points="465.9590023235972,417.48654778759897 465.9590023235972,381.31044678375736 472.27981205053516,379.4857861850853 472.27981205053516,415.661887188927" />
  <polygon fill="hsl(324.0,50.0%,51.426934746249444%)" points="481.7610266409421,412.9248962909189 481.7610266409421,376.7487952870773 475.4402169140041,378.57345588574935 475.4402169140041,414.74955688959096" />
  <polygon fill="hsl(324.0,50.0%,51.426934746249444%)" points="459.6381925966592,383.4932866002892 459.6381925966592,347.6753648143074 465.16890110772994,346.0787867904694 465.16890110772994,381.8967085764512" />
  <polygon fill="hsl(324.0,50.0%,51.426934746249444%)" points="482.55112785680933,376.8788919301031 482.55112785680933,341.0609701441213 488.08183636788004,339.4643921202833 488.08183636788004,375.28231390626513" />
  <polygon fill="hsl(324.0,50.0%,51.426934746249444%)" points="465.16890110772994,351.6094953015401 465.16890110772994,346.0787867904694 482.55112785680933,341.0609701441213 482.55112785680933,346.591678655192" />
  <polygon fill="hsl(324.0,50.0%,51.426934746249444%)" points="465.9590023235972,381.66862600161716 465.9590023235972,345.85070421563535 481.7610266409421,341.2890527189553 481.7610266409421,377.1069745049371" />
  <polygon fill="hsl(324.0,50.0%,51.426934746249444%)" points="469.9095084029334,342.9193952521663 469.9095084029334,326.80133044847446 477.81052056160587,324.52050470013444 477.81052056160587,340.63856950382626" />
  <polygon fill="hsl(324.0,50.0%,51.426934746249444%)" points="471.4897108346679,344.25412619179735 471.4897108346679,326.3451652988065 476.23031812987136,324.9766698498025 476.23031812987136,342.88563074279335" />
  <polygon fill="hsl(324.0,50.0%,43.8291623991892%)" points="363.4936693803502,473.74578231871465 363.4936693803502,437.56968131487304 369.81447910728815,435.745020716201 369.81447910728815,471.9211217200426" />
  <polygon fill="hsl(324.0,50.0%,43.8291623991892%)" points="379.29569369769507,469.1841308220346 379.29569369769507,433.008029818193 372.9748839707571,434.832690416865 372.9748839707571,471.00879142070664" />
  <polygon fill="hsl(324.0,50.0%,43.8291623991892%)" points="357.17285965341216,439.7525211314048 357.17285965341216,403.934599345423 362.70356816448293,402.338021321585 362.70356816448293,438.1559431075668" />
  <polygon fill="hsl(324.0,50.0%,43.8291623991892%)" points="380.0857949135623,433.1381264612188 380.0857949135623,397.320204675237 385.61650342463304,395.72362665139894 385.61650342463304,431.54154843738075" />
  <polygon fill="hsl(324.0,50.0%,43.8291623991892%)" points="362.70356816448293,407.86872983265573 362.70356816448293,402.338021321585 380.0857949135623,397.320204675237 380.0857949135623,402.8509131863077" />
  <polygon fill="hsl(324.0,50.0%,43.8291623991892%)" points="363.4936693803502,437.9278605327328 363.4936693803502,402.109938746751 379.29569369769507,397.548287250071 379.29569369769507,433.36620903605274" />
  <polygon fill="hsl(324.0,50.0%,43.8291623991892%)" points="367.4441754596864,399.1786297832819 367.4441754596864,383.06056497959014 375.34518761835886,380.77973923125006 375.34518761835886,396.8978040349419" />
  <polygon fill="hsl(324.0,50.0%,43.8291623991892%)" points="369.0243778914209,400.513360722913 369.0243778914209,382.6043998299221 373.76498518662436,381.2359043809181 373.76498518662436,399.144865273909" />
</svg>
