<?xml version="1.0" encoding="UTF-8"?>
<svg
  xmlns="http://www.w3.org/2000/svg"
  width="848"
  height="600"
  style="background-color:white"
>
  <polygon fill="lightblue" points="289.1923788646684,743.0607966083865 39.1923788646684,526.5544456622769 558.8076211353316,376.55444566227675 808.8076211353316,593.0607966083865" />
  <polygon fill="steelblue" points="39.1923788646684,526.5544456622769 39.1923788646684,6.939203391613603 558.8076211353316,-143.06079660838645 558.8076211353316,376.55444566227675" />
  <polygon fill="lightskyblue" points="808.8076211353316,593.0607966083865 808.8076211353316,73.44555433772317 558.8076211353316,-143.06079660838645 558.8076211353316,376.55444566227675" />
  <polygon fill="white" points="698.8076211353316,497.7980021920981 698.8076211353316,324.5929214352104 668.8076211353316,298.61215932167727 668.8076211353316,471.81724007856496" />
  <polygon fill="white" points="121.46479222419015,433.5224133595217 121.46479222419009,364.2403810567666 164.76606241341204,351.7403810567666 164.76606241341204,421.0224133595217" />
  <polygon fill="white" points="225.3878406783227,403.5224133595217 225.3878406783227,334.2403810567666 268.6891108675446,321.7403810567666 268.6891108675446,391.0224133595217" />
  <polygon fill="white" points="329.3108891324553,373.5224133595217 329.3108891324553,304.2403810567666 372.61215932167727,291.7403810567665 372.61215932167727,361.0224133595217" />
  <polygon fill="white" points="433.233937586588,343.52241335952164 433.23393758658796,274.2403810567665 476.5352077758099,261.7403810567665 476.5352077758099,331.02241335952164" />
</svg>
