<?xml version="1.0" encoding="UTF-8"?>
<svg
  xmlns="http://www.w3.org/2000/svg"
  width="848"
  height="600"
  style="background-color:white"
>
  <polygon fill="lightblue" points="337.2297818865999,529.4377749633621 176.31488445232822,390.0813859379155 510.7702181134001,293.53244747735243 671.6851155476718,432.8888365027991" />
  <polygon fill="steelblue" points="176.31488445232822,390.0813859379155 176.31488445232822,167.1111634972009 510.7702181134001,70.56222503663784 510.7702181134001,293.53244747735243" />
  <polygon fill="lightskyblue" points="671.6851155476718,432.8888365027991 671.6851155476718,209.9186140620845 510.7702181134001,70.56222503663784 510.7702181134001,293.53244747735243" />
  <polygon fill="white" points="229.27031228199797,330.20042619351676 229.27031228199797,285.60638170537385 257.14159008708725,277.5606368336602 257.14159008708725,322.1546813218032" />
  <polygon fill="white" points="296.16137901421234,310.89063850140417 296.16137901421234,266.29659401326126 324.0326568193016,258.25084914154763 324.0326568193016,302.84489362969055" />
  <polygon fill="white" points="363.05244574642666,291.5808508092916 363.05244574642666,246.98680632114863 390.923723551516,238.94106144943504 390.923723551516,283.53510593757795" />
  <polygon fill="white" points="429.9435124786411,272.2710631171789 429.9435124786411,227.677018629036 457.8147902837304,219.63127375732245 457.8147902837304,264.22531824546536" />
  <polygon fill="hsl(324.0,50.0%,71.38550604696638%)" points="383.35991003931963,374.71279710481224 383.35991003931963,336.42880991174155 390.04901671254106,334.4978311425303 390.04901671254106,372.781818335601" />
  <polygon fill="hsl(324.0,50.0%,71.38550604696638%)" points="400.0826767223732,369.8853501817841 400.0826767223732,331.6013629887134 393.3935700491518,333.53234175792466 393.3935700491518,371.8163289509954" />
  <polygon fill="hsl(324.0,50.0%,71.38550604696638%)" points="376.6708033660982,338.738838059102 376.6708033660982,300.83390024418054 382.52377170516695,299.1442938211207 382.52377170516695,337.0492316360422" />
  <polygon fill="hsl(324.0,50.0%,71.38550604696638%)" points="400.9188150565259,331.7390400207112 400.9188150565259,293.83410220578975 406.77178339559464,292.14449578272985 406.77178339559464,330.04943359765133" />
  <polygon fill="hsl(324.0,50.0%,71.38550604696638%)" points="382.52377170516695,304.99726216018945 382.52377170516695,299.1442938211207 400.9188150565259,293.83410220578975 400.9188150565259,299.6870705448585" />
  <polygon fill="hsl(324.0,50.0%,71.38550604696638%)" points="383.35991003931963,336.80785928989076 383.35991003931963,298.9029214749693 400.0826767223732,294.0754745519411 400.0826767223732,331.9804123668626" />
  <polygon fill="hsl(324.0,50.0%,71.38550604696638%)" points="387.540601710083,295.8008128534662 387.540601710083,278.74359083675154 395.9019850516098,276.3298673752374 395.9019850516098,293.3870893919521" />
  <polygon fill="hsl(324.0,50.0%,71.38550604696638%)" points="389.2128783783884,297.21331505190943 389.2128783783884,278.2608461444487 394.22970838330446,276.8126120675403 394.22970838330446,295.765080975001" />
  <polygon fill="hsl(324.0,50.0%,70.71600065166498%)" points="445.6374387471729,359.22281923810056 445.6374387471729,320.93883204502987 452.3265454203943,319.0078532758186 452.3265454203943,357.2918404688893" />
  <polygon fill="hsl(324.0,50.0%,70.71600065166498%)" points="462.36020543022653,354.3953723150724 462.36020543022653,316.11138512200165 455.6710987570051,318.0423638912129 455.6710987570051,356.32635108428366" />
  <polygon fill="hsl(324.0,50.0%,70.71600065166498%)" points="438.94833207395146,323.2488601923903 438.94833207395146,285.34392237746886 444.8013004130202,283.65431595440896 444.8013004130202,321.55925376933044" />
  <polygon fill="hsl(324.0,50.0%,70.71600065166498%)" points="463.1963437643792,316.2490621539995 463.1963437643792,278.344124339078 469.04931210344796,276.65451791601816 469.04931210344796,314.55945573093965" />
  <polygon fill="hsl(324.0,50.0%,70.71600065166498%)" points="444.8013004130202,289.5072842934777 444.8013004130202,283.65431595440896 463.1963437643792,278.344124339078 463.1963437643792,284.19709267814676" />
  <polygon fill="hsl(324.0,50.0%,70.71600065166498%)" points="445.6374387471729,321.3178814231791 445.6374387471729,283.4129436082576 462.36020543022653,278.58549668522943 462.36020543022653,316.49043450015085" />
  <polygon fill="hsl(324.0,50.0%,70.71600065166498%)" points="449.8181304179363,280.31083498675446 449.8181304179363,263.2536129700398 458.17951375946313,260.83988950852574 458.17951375946313,277.89711152524035" />
  <polygon fill="hsl(324.0,50.0%,70.71600065166498%)" points="451.49040708624165,281.7233371851977 451.49040708624165,262.770868277737 456.5072370911577,261.32263420082853 456.5072370911577,280.2751031082893" />
  <polygon fill="hsl(324.0,50.0%,56.01394996926309%)" points="378.4447990621661,433.2549887261142 378.4447990621661,394.9710015330435 385.13390573538754,393.0400227638322 385.13390573538754,431.3240099569029" />
  <polygon fill="hsl(324.0,50.0%,56.01394996926309%)" points="395.1675657452197,428.427541803086 395.1675657452197,390.1435546100153 388.47845907199826,392.0745333792266 388.47845907199826,430.35852057229727" />
  <polygon fill="hsl(324.0,50.0%,56.01394996926309%)" points="371.7556923889446,397.28102968040395 371.7556923889446,359.37609186548246 377.6086607280134,357.6864854424226 377.60866072801343,395.5914232573441" />
  <polygon fill="hsl(324.0,50.0%,56.01394996926309%)" points="396.00370407937237,390.28123164201315 396.00370407937237,352.3762938270917 401.8566724184411,350.6866874040318 401.8566724184411,388.59162521895325" />
  <polygon fill="hsl(324.0,50.0%,56.01394996926309%)" points="377.6086607280134,363.5394537814914 377.6086607280134,357.6864854424226 396.00370407937237,352.3762938270917 396.00370407937237,358.2292621661604" />
  <polygon fill="hsl(324.0,50.0%,56.01394996926309%)" points="378.4447990621661,395.3500509111927 378.4447990621661,357.4451130962712 395.1675657452197,352.61766617324304 395.1675657452197,390.5226039881645" />
  <polygon fill="hsl(324.0,50.0%,56.01394996926309%)" points="382.62549073292945,354.3430044747681 382.62549073292945,337.28578245805346 390.9868740744563,334.87205899653935 390.9868740744563,351.929281013254" />
  <polygon fill="hsl(324.0,50.0%,56.01394996926309%)" points="384.29776740123486,355.75550667321136 384.29776740123486,336.8030377657506 389.31459740615094,335.3548036888422 389.31459740615094,354.30727259630294" />
  <polygon fill="hsl(324.0,50.0%,51.426934746249444%)" points="468.40384295200954,424.33217970009787 468.40384295200954,386.0481925070272 475.092949625231,384.1172137378159 475.092949625231,422.4012009308866" />
  <polygon fill="hsl(324.0,50.0%,51.426934746249444%)" points="485.1266096350631,419.5047327770697 485.1266096350631,381.220745583999 478.4375029618417,383.1517243532103 478.4375029618417,421.43571154628097" />
  <polygon fill="hsl(324.0,50.0%,51.426934746249444%)" points="461.7147362787881,388.35822065438765 461.7147362787881,350.45328283946617 467.56770461785686,348.7636764164063 467.56770461785686,386.6686142313278" />
  <polygon fill="hsl(324.0,50.0%,51.426934746249444%)" points="485.9627479692158,381.3584226159968 485.9627479692158,343.4534848010753 491.81571630828455,341.76387837801553 491.81571630828455,379.66881619293696" />
  <polygon fill="hsl(324.0,50.0%,51.426934746249444%)" points="467.56770461785686,354.6166447554751 467.56770461785686,348.7636764164063 485.9627479692158,343.4534848010753 485.9627479692158,349.30645314014413" />
  <polygon fill="hsl(324.0,50.0%,51.426934746249444%)" points="468.40384295200954,386.4272418851764 468.40384295200954,348.5223040702549 485.1266096350631,343.69485714722674 485.1266096350631,381.5997949621482" />
  <polygon fill="hsl(324.0,50.0%,51.426934746249444%)" points="472.58453462277294,345.4201954487518 472.58453462277294,328.36297343203717 480.9459179642997,325.94924997052306 480.9459179642997,343.0064719872377" />
  <polygon fill="hsl(324.0,50.0%,51.426934746249444%)" points="474.2568112910783,346.83269764719506 474.2568112910783,327.8802287397343 479.27364129599437,326.4319946628259 479.27364129599437,345.38446357028664" />
  <polygon fill="hsl(324.0,50.0%,43.8291623991892%)" points="359.96812474908813,483.8694917518436 359.96812474908813,445.585504558773 366.65723142230956,443.65452578956166 366.65723142230956,481.93851298263235" />
  <polygon fill="hsl(324.0,50.0%,43.8291623991892%)" points="376.6908914321417,479.0420448288155 376.6908914321417,440.75805763574476 370.0017847589203,442.689036404956 370.0017847589203,480.97302359802677" />
  <polygon fill="hsl(324.0,50.0%,43.8291623991892%)" points="353.27901807586665,447.8955327061334 353.27901807586665,409.9905948912119 359.13198641493545,408.30098846815207 359.13198641493545,446.20592628307355" />
  <polygon fill="hsl(324.0,50.0%,43.8291623991892%)" points="377.5270297662944,440.89573466774254 377.5270297662944,402.9907968528211 383.37999810536314,401.3011904297613 383.37999810536314,439.20612824468276" />
  <polygon fill="hsl(324.0,50.0%,43.8291623991892%)" points="359.13198641493545,414.1539568072208 359.13198641493545,408.30098846815207 377.5270297662944,402.9907968528211 377.5270297662944,408.8437651918899" />
  <polygon fill="hsl(324.0,50.0%,43.8291623991892%)" points="359.96812474908813,445.96455393692213 359.96812474908813,408.05961612200065 376.6908914321417,403.23216919897254 376.6908914321417,441.137107013894" />
  <polygon fill="hsl(324.0,50.0%,43.8291623991892%)" points="364.1488164198515,404.95750750049757 364.1488164198515,387.9002854837829 372.5101997613783,385.4865620222688 372.5101997613783,402.54378403898346" />
  <polygon fill="hsl(324.0,50.0%,43.8291623991892%)" points="365.8210930881569,406.3700096989408 365.8210930881569,387.41754079148006 370.83792309307296,385.96930671457164 370.83792309307296,404.9217756220324" />
</svg>
