<?xml version="1.0" encoding="UTF-8"?>
<svg
  xmlns="http://www.w3.org/2000/svg"
  width="848"
  height="600"
  style="background-color:white"
>
  <polygon fill="lightblue" points="371.78923284010216,471.5967086621672 274.96464918491677,387.74415950592515 476.21076715989784,329.6494093128138 573.0353508150832,413.5019584690559" />
  <polygon fill="steelblue" points="274.96464918491677,387.74415950592515 274.96464918491677,186.49804153094405 476.21076715989784,128.40329133783277 476.21076715989784,329.6494093128138" />
  <polygon fill="lightskyblue" points="573.0353508150832,413.5019584690559 573.0353508150832,212.25584049407487 476.21076715989784,128.40329133783277 476.21076715989784,329.6494093128138" />
  <polygon fill="white" points="530.4325340068017,376.6068368403094 530.4325340068017,309.52479751531575 518.8135839681794,299.4624916165667 518.8135839681794,366.54453094156037" />
  <polygon fill="white" points="300.1204139317894,353.64950000178874 300.12041393178936,326.81668427179125 316.8909237630378,321.975455089032 316.8909237630378,348.8082708190295" />
  <polygon fill="white" points="333.6614335942862,343.9670416362702 333.6614335942862,317.1342259062727 350.43194342553466,312.2929967235134 350.43194342553466,339.1258124535109" />
  <polygon fill="white" points="367.2024532567831,334.2845832707516 367.2024532567831,307.45176754075413 383.9729630880315,302.61053835799487 383.9729630880315,329.44335408799236" />
  <polygon fill="white" points="400.74347291927995,324.6021249052331 400.74347291927995,297.7693091752356 417.5139827505283,292.92807999247634 417.5139827505283,319.76089572247383" />
  <polygon fill="white" points="434.28449258177676,314.91966653971457 434.28449258177676,288.0868508097171 451.0550024130252,283.2456216269578 451.0550024130252,310.07843735695525" />
</svg>
