<?xml version="1.0" encoding="UTF-8"?>
<svg
  xmlns="http://www.w3.org/2000/svg"
  width="848"
  height="600"
  style="background-color:white"
>
  <polygon fill="lightblue" points="342.00728177121835,516.8051117380371 189.95223188188334,385.12157576016284 505.99271822878165,293.88854582656177 658.0477681181167,425.5720818044361" />
  <polygon fill="steelblue" points="189.95223188188334,385.12157576016284 189.95223188188334,174.4279181955639 505.99271822878165,83.19488826196286 505.99271822878165,293.88854582656177" />
  <polygon fill="lightskyblue" points="658.0477681181167,425.5720818044361 658.0477681181167,214.8784242398372 505.99271822878165,83.19488826196286 505.99271822878165,293.88854582656177" />
  <polygon fill="white" points="591.1435461668093,367.6313259741714 591.1435461668093,262.28449719187194 572.8969401800891,246.48247287452702 572.8969401800891,351.8293016568265" />
  <polygon fill="white" points="229.4572926752456,331.5787155055429 229.4572926752456,289.4399839926231 255.7939998708205,281.83723149815637 255.7939998708205,323.97596301107615" />
  <polygon fill="white" points="282.13070706639536,316.3732105166094 282.13070706639536,274.2344790036896 308.4674142619702,266.63172650922286 308.4674142619702,308.77045802214263" />
  <polygon fill="white" points="334.8041214575451,301.1677055276759 334.8041214575451,259.0289740147561 361.1408286531199,251.42622152028935 361.1408286531199,293.5649530332091" />
  <polygon fill="white" points="387.4775358486948,285.96220053874237 387.4775358486948,243.8234690258226 413.81424304426963,236.22071653135583 413.81424304426963,278.3594480442756" />
  <polygon fill="white" points="440.1509502398445,270.75669554980885 440.1509502398445,228.61796403688908 466.48765743541935,221.01521154242232 466.48765743541935,263.1539430553421" />
  <polygon fill="antiquewhite" points="496.29602208807154,419.09934386844293 496.29602208807154,329.5545394034884 517.3653878445315,323.47233740791495 517.3653878445315,413.0171418728695" />
  <polygon fill="beige" points="496.29602208807154,419.09934386844293 496.29602208807154,329.5545394034884 484.13161809692474,319.01985652525843 484.13161809692474,408.56466099021293" />
  <polygon fill="bisque" points="496.29602208807154,329.5545394034884 484.13161809692474,319.01985652525843 505.2009838533846,312.937654529685 517.3653878445315,323.47233740791495" />
</svg>
