<?xml version="1.0" encoding="UTF-8"?>
<svg
  xmlns="http://www.w3.org/2000/svg"
  width="848"
  height="600"
  style="background-color:white"
>
  <polygon fill="lightblue" points="289.1923788646684,656.4582562299427 39.1923788646684,439.95190528383296 558.8076211353316,289.95190528383284 808.8076211353316,506.45825622994255" />
  <polygon fill="steelblue" points="39.1923788646684,439.95190528383296 39.1923788646684,93.54174377005745 558.8076211353316,-56.458256229942606 558.8076211353316,289.95190528383284" />
  <polygon fill="lightskyblue" points="808.8076211353316,506.45825622994255 808.8076211353316,160.04809471616707 558.8076211353316,-56.458256229942606 558.8076211353316,289.95190528383284" />
  <polygon fill="white" points="698.8076211353316,411.1954618136542 698.8076211353316,237.99038105676655 668.8076211353316,212.0096189432334 668.8076211353316,385.2146997001211" />
  <polygon fill="white" points="121.46479222419009,346.9198729810778 121.46479222419009,277.63784067832273 164.76606241341204,265.13784067832273 164.76606241341204,334.4198729810778" />
  <polygon fill="white" points="225.3878406783227,316.9198729810778 225.3878406783227,247.6378406783227 268.6891108675446,235.1378406783227 268.6891108675446,304.4198729810778" />
  <polygon fill="white" points="329.3108891324553,286.9198729810778 329.3108891324553,217.6378406783227 372.61215932167727,205.13784067832268 372.61215932167727,274.4198729810778" />
  <polygon fill="white" points="433.23393758658796,256.9198729810778 433.23393758658796,187.63784067832268 476.5352077758099,175.13784067832268 476.5352077758099,244.41987298107776" />
</svg>
