<?xml version="1.0" encoding="UTF-8"?>
<svg
  xmlns="http://www.w3.org/2000/svg"
  width="848"
  height="600"
  style="background-color:white"
>
  <polygon fill="lightblue" points="342.00728177121835,516.8051117380371 189.95223188188334,385.12157576016284 505.99271822878165,293.88854582656177 658.0477681181167,425.5720818044361" />
  <polygon fill="steelblue" points="189.95223188188334,385.12157576016284 189.95223188188334,174.4279181955639 505.99271822878165,83.19488826196286 505.99271822878165,293.88854582656177" />
  <polygon fill="lightskyblue" points="658.0477681181167,425.5720818044361 658.0477681181167,214.8784242398372 505.99271822878165,83.19488826196286 505.99271822878165,293.88854582656177" />
  <polygon fill="white" points="591.1435461668093,367.6313259741714 591.1435461668093,262.28449719187194 572.8969401800891,246.48247287452702 572.8969401800891,351.8293016568265" />
  <polygon fill="antiquewhite" points="496.29602208807154,419.09934386844293 496.29602208807154,329.5545394034884 517.3653878445315,323.47233740791495 517.3653878445315,413.0171418728695" />
  <polygon fill="beige" points="496.29602208807154,419.09934386844293 496.29602208807154,329.5545394034884 484.13161809692474,319.01985652525843 484.13161809692474,408.56466099021293" />
  <polygon fill="bisque" points="496.29602208807154,329.5545394034884 484.13161809692474,319.01985652525843 505.2009838533846,312.937654529685 517.3653878445315,323.47233740791495" />
  <polygon fill="antiquewhite" points="358.29438842430704,498.9570451692664 358.29438842430704,409.4122407043119 379.36375418076693,403.33003870873847 379.363754180767,492.874843173693" />
  <polygon fill="beige" points="358.29438842430704,498.9570451692664 358.29438842430704,409.4122407043119 346.12998443316025,398.87755782608195 346.12998443316025,488.42236229103645" />
  <polygon fill="bisque" points="358.29438842430704,409.4122407043119 346.12998443316025,398.87755782608195 367.19935018962013,392.7953558305085 379.36375418076693,403.33003870873847" />
  <polygon fill="antiquewhite" points="459.38327950706343,328.15303863586405 459.38327950706343,238.6082341709095 480.4526452635233,232.52603217533613 480.4526452635233,322.0708366402906" />
  <polygon fill="beige" points="459.38327950706343,328.15303863586405 459.38327950706343,238.6082341709095 447.2188755159166,228.07355129267955 447.2188755159166,317.6183557576341" />
  <polygon fill="bisque" points="459.38327950706343,238.6082341709095 447.2188755159166,228.07355129267955 468.2882412723765,221.99134929710618 480.4526452635233,232.52603217533613" />
</svg>
