<?xml version="1.0" encoding="UTF-8"?>
<svg
  xmlns="http://www.w3.org/2000/svg"
  width="848"
  height="600"
  style="background-color:white"
>
  <polygon fill="lightblue" points="350.1628249805687,471.5231452948331 213.2321856042772,352.9377330385189 497.8371750194313,270.77934941274395 634.7678143957228,389.36476166905817" />
  <polygon fill="steelblue" points="213.2321856042772,352.9377330385189 213.2321856042772,210.63523833094183 497.8371750194313,128.4768547051669 497.8371750194313,270.77934941274395" />
  <polygon fill="lightskyblue" points="634.7678143957228,389.36476166905817 634.7678143957228,247.0622669614811 497.8371750194313,128.4768547051669 497.8371750194313,270.77934941274395" />
  <polygon fill="white" points="574.5183330701545,337.1871802762799 574.5183330701545,242.31885047122853 558.0866563449996,228.08860100047082 558.0866563449996,322.95693080552223" />
  <polygon fill="white" points="258.2946422616766,301.9819903757506 258.2946422616766,264.03465845373006 282.01172471293944,257.18812648491553 282.01172471293944,295.13545840693604" />
  <polygon fill="white" points="315.21564014470744,285.5503136505956 315.21564014470744,247.60298172857512 338.93272259597023,240.75644975976053 338.93272259597023,278.70378168178104" />
  <polygon fill="white" points="372.13663802773823,269.1186369254407 372.13663802773823,231.17130500342012 395.853720479001,224.32477303460553 395.853720479001,262.2721049566261" />
  <polygon fill="white" points="429.057635910769,252.68696020028568 429.057635910769,214.73962827826512 452.7747183620319,207.89309630945053 452.7747183620319,245.8404282314711" />
</svg>
