<?xml version="1.0" encoding="UTF-8"?>
<svg
  xmlns="http://www.w3.org/2000/svg"
  width="848"
  height="600"
  style="background-color:white"
>
  <polygon fill="lightblue" points="352.3727631047085,535.4111760923879 219.54044195688212,420.3750115347174 495.6272368952915,340.67561884602145 628.4595580431179,455.71178340369204" />
  <polygon fill="steelblue" points="219.54044195688212,420.3750115347174 219.54044195688212,144.28821659630796 495.6272368952915,64.5888239076121 495.6272368952915,340.67561884602145" />
  <polygon fill="lightskyblue" points="628.4595580431179,455.71178340369204 628.4595580431179,179.62498846528266 495.6272368952915,64.5888239076121 495.6272368952915,340.67561884602145" />
  <polygon fill="white" points="300.06575714725153,360.3177826753931 300.06575714725153,323.50621001693855 323.07299005878565,316.8645939595472 323.07299005878565,353.6761666180018" />
  <polygon fill="white" points="392.094688793388,333.75131844582785 392.094688793388,296.9397457873732 415.10192170492206,290.2981297299819 415.1019217049221,327.1097023884365" />
  <polygon fill="grey" points="485.90323609854,114.94418249691824 485.90323609854,91.93694958538413 508.91046901007417,85.29533352799282 508.91046901007417,108.30256643952691" />
  <polygon fill="lightgrey" points="485.90323609854,114.94418249691824 485.90323609854,91.93694958538413 472.6200039837574,80.43333312961704 472.6200039837574,103.44056604115119" />
  <polygon fill="darkgrey" points="485.90323609854,91.93694958538413 472.6200039837574,80.43333312961704 495.6272368952915,73.79171707222574 508.91046901007417,85.29533352799282" />
  <polygon fill="hsl(324.0,50.0%,70.71600065166498%)" points="441.8613121488946,394.9018259727295 441.8613121488946,363.29909084544624 447.38304804766284,361.70510299167233 447.38304804766284,393.3078381189556" />
  <polygon fill="hsl(324.0,50.0%,70.71600065166498%)" points="455.66565189581513,390.9168563382947 455.66565189581513,359.31412121101147 450.143915997047,360.9081090647854 450.143915997047,392.51084419206865" />
  <polygon fill="hsl(324.0,50.0%,70.71600065166498%)" points="436.33957625012647,365.205977066817 436.33957625012647,333.9161403071306 441.17109516154864,332.5214009350784 441.17109516154864,363.8112376947648" />
  <polygon fill="hsl(324.0,50.0%,70.71600065166498%)" points="456.3558688831612,359.42777109688654 456.3558688831612,328.13793433720014 461.18738779458334,326.74319496514795 461.18738779458334,358.03303172483436" />
  <polygon fill="hsl(324.0,50.0%,70.71600065166498%)" points="441.17109516154864,337.3529198465006 441.17109516154864,332.5214009350784 456.3558688831612,328.13793433720014 456.3558688831612,332.9694532486223" />
  <polygon fill="hsl(324.0,50.0%,70.71600065166498%)" points="441.8613121488946,363.6119892130431 441.8613121488946,332.3221524533567 455.66565189581513,328.3371828189219 455.66565189581513,359.62701957860827" />
  <polygon fill="hsl(324.0,50.0%,70.71600065166498%)" points="445.31239708562475,329.76141820676366 445.31239708562475,315.6809916649048 452.214566959085,313.6885068476874 452.214566959085,327.7689333895463" />
  <polygon fill="hsl(324.0,50.0%,70.71600065166498%)" points="446.69283106031685,330.9274130813045 446.69283106031685,315.2824947014613 450.83413298439297,314.0870038111309 450.83413298439297,329.73192219097405" />
  <polygon fill="hsl(324.0,50.0%,51.426934746249444%)" points="460.6545647497195,448.64841883962237 460.6545647497195,417.0456837123391 466.17630064848765,415.4516958585652 466.17630064848765,447.0544309858484" />
  <polygon fill="hsl(324.0,50.0%,51.426934746249444%)" points="474.45890449663995,444.6634492051876 474.45890449663995,413.0607140779043 468.93716859787173,414.65470193167823 468.93716859787173,446.2574370589615" />
  <polygon fill="hsl(324.0,50.0%,51.426934746249444%)" points="455.1328288509513,418.95256993370987 455.1328288509513,387.66273317402346 459.96434776237345,386.26799380197133 459.96434776237345,417.55783056165774" />
  <polygon fill="hsl(324.0,50.0%,51.426934746249444%)" points="475.14912148398594,413.17436396377946 475.14912148398594,381.88452720409305 479.98064039540816,380.48978783204086 479.98064039540816,411.77962459172727" />
  <polygon fill="hsl(324.0,50.0%,51.426934746249444%)" points="459.96434776237345,391.09951271339344 459.96434776237345,386.26799380197133 475.14912148398594,381.88452720409305 475.14912148398594,386.71604611551516" />
  <polygon fill="hsl(324.0,50.0%,51.426934746249444%)" points="460.6545647497195,417.35858207993596 460.6545647497195,386.06874532024955 474.45890449663995,382.08377568581477 474.45890449663995,413.3736124455012" />
  <polygon fill="hsl(324.0,50.0%,51.426934746249444%)" points="464.10564968644957,383.5080110736566 464.10564968644957,369.42758453179766 471.0078195599098,367.43509971458025 471.0078195599098,381.51552625643916" />
  <polygon fill="hsl(324.0,50.0%,51.426934746249444%)" points="465.4860836611416,384.67400594819736 465.4860836611416,369.02908756835416 469.6273855852178,367.83359667802375 469.6273855852178,383.47851505786696" />
  <polygon fill="hsl(324.0,50.0%,43.8291623991892%)" points="371.1428515777982,497.7953870870228 371.1428515777982,466.1926519597396 376.66458747656634,464.59866410596567 376.66458747656634,496.2013992332489" />
  <polygon fill="hsl(324.0,50.0%,43.8291623991892%)" points="384.94719132471863,493.810417452588 384.94719132471863,462.20768232530475 379.4254554259504,463.80167017907866 379.4254554259504,495.4044053063619" />
  <polygon fill="hsl(324.0,50.0%,43.8291623991892%)" points="365.62111567902997,468.09953818111035 365.6211156790299,436.80970142142394 370.45263459045213,435.41496204937175 370.45263459045213,466.70479880905816" />
  <polygon fill="hsl(324.0,50.0%,43.8291623991892%)" points="385.6374083120646,462.3213322111799 385.6374083120646,431.03149545149347 390.4689272234868,429.6367560794413 390.4689272234868,460.9265928391277" />
  <polygon fill="hsl(324.0,50.0%,43.8291623991892%)" points="370.45263459045213,440.24648096079386 370.45263459045213,435.41496204937175 385.6374083120646,431.03149545149347 385.6374083120646,435.8630143629156" />
  <polygon fill="hsl(324.0,50.0%,43.8291623991892%)" points="371.1428515777982,466.5055503273364 371.1428515777981,435.21571356765 384.9471913247186,431.2307439332152 384.94719132471863,462.5205806929016" />
  <polygon fill="hsl(324.0,50.0%,43.8291623991892%)" points="374.59393651452825,432.654979321057 374.59393651452825,418.5745527791981 381.4961063879885,416.5820679619807 381.4961063879885,430.6624945038396" />
  <polygon fill="hsl(324.0,50.0%,43.8291623991892%)" points="375.9743704892203,433.82097419559784 375.9743704892203,418.17605581575464 380.11567241329647,416.9805649254242 380.11567241329647,432.6254833052674" />
</svg>
