<?xml version="1.0" encoding="UTF-8"?>
<svg
  xmlns="http://www.w3.org/2000/svg"
  width="848"
  height="600"
  style="background-color:white"
>
  <polygon fill="lightblue" points="347.8847029263456,525.7128703493107 206.7292985941913,403.46870431620107 500.1152970736544,318.77546171690847 641.2707014058087,441.0196277500181" />
  <polygon fill="steelblue" points="206.7292985941913,403.46870431620107 206.7292985941913,158.9803722499819 500.1152970736544,74.28712965068928 500.1152970736544,318.77546171690847" />
  <polygon fill="lightskyblue" points="641.2707014058087,441.0196277500181 641.2707014058087,196.5312956837989 500.1152970736544,74.28712965068928 500.1152970736544,318.77546171690847" />
  <polygon fill="white" points="579.1623234996608,387.23219469544983 579.1623234996608,289.4368618689622 562.2236749798024,274.76756194498904 562.2236749798024,372.56289477147675" />
  <polygon fill="white" points="236.41716748794653,355.7804216368681 236.41716748794653,316.662288506273 260.86600069456847,309.6045182896653 260.86600069456847,348.7226514202604" />
  <polygon fill="white" points="278.32945298501267,343.6813869798263 278.32945298501267,304.5632538492312 302.7782861916346,297.5054836326235 302.7782861916346,336.6236167632186" />
  <polygon fill="white" points="320.2417384820788,331.58235232278446 320.2417384820788,292.46421919218943 344.69057168870074,285.40644897558167 344.69057168870074,324.52458210617675" />
  <polygon fill="white" points="362.15402397914494,319.4833176657427 362.15402397914494,280.3651845351476 386.6028571857669,273.3074143185399 386.6028571857669,312.42554744913497" />
  <polygon fill="white" points="404.06630947621113,307.3842830087009 404.06630947621113,268.2661498781058 428.515142682833,261.2083796614981 428.515142682833,300.3265127920932" />
  <polygon fill="white" points="445.97859497327727,295.2852483516591 445.97859497327727,256.167115221064 470.42742817989915,249.1093450044563 470.42742817989915,288.22747813505134" />
  <polygon fill="antiquewhite" points="491.11368176772316,435.01087012469657 491.11368176772316,351.884837222182 510.6727483330207,346.2386210488959 510.6727483330207,429.3646539514104" />
  <polygon fill="beige" points="491.11368176772316,435.01087012469657 491.11368176772316,351.884837222182 479.8212494211508,342.10530393953326 479.8212494211508,425.23133684204777" />
  <polygon fill="bisque" points="491.11368176772316,351.884837222182 479.8212494211508,342.10530393953326 499.38031598644835,336.4590877662471 510.6727483330207,346.2386210488959" />
  <polygon fill="antiquewhite" points="363.004313400913,509.144193051874 363.004313400913,426.01816014935946 382.56337996621056,420.3719439760733 382.56337996621056,503.4979768785878" />
  <polygon fill="beige" points="363.004313400913,509.144193051874 363.004313400913,426.01816014935946 351.71188105434067,416.23862686671066 351.71188105434067,499.3646597692252" />
  <polygon fill="bisque" points="363.004313400913,426.01816014935946 351.71188105434067,416.23862686671066 371.2709476196382,410.59241069342454 382.56337996621056,420.3719439760733" />
  <polygon fill="antiquewhite" points="456.8469270113171,350.58379915952105 456.84692701131706,267.45776625700654 476.4059935766146,261.81155008372036 476.40599357661466,344.9375829862349" />
  <polygon fill="beige" points="456.8469270113171,350.58379915952105 456.84692701131706,267.45776625700654 445.5544946647447,257.67823297435774 445.55449466474477,340.80426587687225" />
  <polygon fill="bisque" points="456.84692701131706,267.45776625700654 445.5544946647447,257.67823297435774 465.1135612300423,252.03201680107156 476.4059935766146,261.81155008372036" />
  <polygon fill="antiquewhite" points="424.5564406561547,386.78807439207867 424.5564406561546,303.66204148956416 444.1155072214522,298.015825316278 444.1155072214522,381.1418582187925" />
  <polygon fill="beige" points="424.5564406561547,386.78807439207867 424.5564406561546,303.66204148956416 413.26400830958227,293.88250820691536 413.2640083095823,377.00854110942987" />
  <polygon fill="bisque" points="424.5564406561546,303.66204148956416 413.26400830958227,293.88250820691536 432.82307487487986,288.2362920336292 444.1155072214522,298.015825316278" />
  <polygon fill="antiquewhite" points="381.4941693129239,369.0625414820636 381.4941693129239,285.93650857954907 401.0532358782214,280.2902924062629 401.0532358782214,363.41632530877746" />
  <polygon fill="beige" points="381.4941693129239,369.0625414820636 381.4941693129239,285.93650857954907 370.2017369663515,276.15697529690027 370.2017369663515,359.28300819941484" />
  <polygon fill="bisque" points="381.4941693129239,285.93650857954907 370.2017369663515,276.15697529690027 389.76080353164906,270.5107591236141 401.0532358782214,280.2902924062629" />
</svg>
