<?xml version="1.0" encoding="UTF-8"?>
<svg
  xmlns="http://www.w3.org/2000/svg"
  width="848"
  height="600"
  style="background-color:white"
>
  <polygon fill="lightblue" points="333.75533648981553,509.6376050040804 166.39709896927315,364.7011197787007 514.2446635101844,264.28617726637526 681.6029010307268,409.22266249175493" />
  <polygon fill="steelblue" points="166.39709896927315,364.7011197787007 166.39709896927315,190.77733750824507 514.2446635101844,90.3623949959196 514.2446635101844,264.28617726637526" />
  <polygon fill="lightskyblue" points="681.6029010307268,409.22266249175493 681.6029010307268,235.2988802212993 514.2446635101844,90.3623949959196 514.2446635101844,264.28617726637526" />
  <polygon fill="white" points="607.9652765216881,345.4506089925879 607.9652765216881,229.5014208122841 587.8822880192231,212.10904258523854 587.8822880192231,328.0582307655423" />
  <polygon fill="white" points="209.87804453688707,305.7695766925385 209.87804453688707,259.389901420417 238.86534158196304,251.0219895443899 238.86534158196304,297.4016648165114" />
  <polygon fill="white" points="267.85263862703897,289.03375294048425 267.85263862703897,242.65407766836276 296.8399356721149,234.28616579233562 296.8399356721149,280.66584106445714" />
  <polygon fill="white" points="325.82723271719084,272.29792918843003 325.82723271719084,225.91825391630852 354.8145297622668,217.55034204028138 354.8145297622668,263.9300173124029" />
  <polygon fill="white" points="383.8018268073427,255.56210543637576 383.8018268073427,209.18243016425427 412.78912385241864,200.81451828822713 412.78912385241864,247.19419356034865" />
  <polygon fill="white" points="441.7764208974946,238.82628168432151 441.7764208974946,192.44660641220003 470.7637179425705,184.07869453617292 470.7637179425705,230.45836980829438" />
</svg>
