<?xml version="1.0" encoding="UTF-8"?>
<svg
  xmlns="http://www.w3.org/2000/svg"
  width="848"
  height="600"
  style="background-color:white"
>
  <polygon fill="lightblue" points="314.67637569495776,518.8422631291832 111.93630917584449,343.2642151586841 533.3236243050422,221.62017524721605 736.0636908241555,397.1982232177151" />
  <polygon fill="steelblue" points="111.93630917584449,343.2642151586841 111.93630917584449,202.8017767822849 533.3236243050422,81.15773687081685 533.3236243050422,221.62017524721605" />
  <polygon fill="lightskyblue" points="736.0636908241555,397.1982232177151 736.0636908241555,256.7357848413159 533.3236243050422,81.15773687081685 533.3236243050422,221.62017524721605" />
  <polygon fill="white" points="646.8580615557457,319.94388211069554 646.8580615557457,186.50456565311626 622.529253573452,165.43519989665637 622.529253573452,298.87451635423565" />
  <polygon fill="white" points="305.07216194339344,231.32572151536823 305.07216194339344,175.14074616480852 340.18777153749323,165.00374283885284 340.18777153749323,221.18871818941255" />
  <polygon fill="hsl(324.0,50.0%,51.426934746249444%)" points="479.9453364314629,386.4175111952657 479.9453364314629,338.1827098568102 488.3730827340469,335.7498290585808 488.3730827340469,383.9846303970363" />
  <polygon fill="hsl(324.0,50.0%,51.426934746249444%)" points="501.0147021879228,380.3353091996923 501.0147021879228,332.1005078612368 492.5869558853388,334.53338865946614 492.58695588533885,382.7681899979217" />
  <polygon fill="hsl(324.0,50.0%,51.426934746249444%)" points="471.51759012887896,341.09316294551934 471.51759012887896,293.33593389754355 478.8918681436399,291.20716319909286 478.8918681436399,338.96439224706864" />
  <polygon fill="hsl(324.0,50.0%,51.426934746249444%)" points="502.0681704757458,332.2739700519379 502.0681704757458,284.5167410039621 509.44244849050676,282.38797030551143 509.44244849050676,330.1451993534872" />
  <polygon fill="hsl(324.0,50.0%,51.426934746249444%)" points="478.8918681436399,298.58144121385385 478.8918681436399,291.20716319909286 502.0681704757458,284.5167410039621 502.0681704757458,291.8910190187231" />
  <polygon fill="hsl(324.0,50.0%,51.426934746249444%)" points="479.9453364314629,338.66028214728993 479.9453364314629,290.9030530993142 501.0147021879228,284.82085110374084 501.0147021879228,332.57808015171656" />
  <polygon fill="hsl(324.0,50.0%,51.426934746249444%)" points="485.21267787057786,286.9946411480221 485.21267787057786,265.503888076433 495.7473607488078,262.4627870786463 495.7473607488078,283.95354015023537" />
  <polygon fill="hsl(324.0,50.0%,51.426934746249444%)" points="487.31961444622385,288.7742824008635 487.31961444622385,264.8956678768757 493.6404241731618,263.07100727820364 493.6404241731618,286.94962180219153" />
</svg>
