<?xml version="1.0" encoding="UTF-8"?>
<svg
  xmlns="http://www.w3.org/2000/svg"
  width="848"
  height="600"
  style="background-color:white"
>
  <polygon fill="lightblue" points="350.1628249805687,471.5231452948331 213.2321856042772,352.9377330385189 497.8371750194313,270.77934941274395 634.7678143957228,389.36476166905817" />
  <polygon fill="steelblue" points="213.2321856042772,352.9377330385189 213.2321856042772,210.63523833094183 497.8371750194313,128.4768547051669 497.8371750194313,270.77934941274395" />
  <polygon fill="lightskyblue" points="634.7678143957228,389.36476166905817 634.7678143957228,247.0622669614811 497.8371750194313,128.4768547051669 497.8371750194313,270.77934941274395" />
  <polygon fill="white" points="574.5183330701545,337.1871802762799 574.5183330701545,242.31885047122853 558.0866563449996,228.08860100047082 558.0866563449996,322.95693080552223" />
  <polygon fill="white" points="242.03150000938209,306.67675515436633 242.03150000938209,268.72942323234577 265.7485824606449,261.88289126353123 265.7485824606449,299.83022318555174" />
  <polygon fill="white" points="282.6893556401184,294.9398432078271 282.6893556401184,256.99251128580653 306.40643809138123,250.14597931699194 306.40643809138123,288.0933112390125" />
  <polygon fill="white" points="323.34721127085464,283.2029312612878 323.34721127085464,245.25559933926723 347.0642937221175,238.40906737045268 347.0642937221175,276.3563992924732" />
  <polygon fill="white" points="364.00506690159096,271.4660193147485 364.00506690159096,233.51868739272797 387.7221493528538,226.6721554239134 387.7221493528538,264.6194873459339" />
  <polygon fill="white" points="404.6629225323273,259.7291073682092 404.6629225323273,221.7817754461887 428.3800049835901,214.93524347737412 428.3800049835901,252.88257539939465" />
  <polygon fill="white" points="445.32077816306355,247.99219542166998 445.32077816306355,210.0448634996494 469.0378606143264,203.19833153083485 469.0378606143264,241.1456634528554" />
</svg>
