<?xml version="1.0" encoding="UTF-8"?>
<svg
  xmlns="http://www.w3.org/2000/svg"
  width="848"
  height="600"
  style="background-color:white"
>
  <polygon fill="lightblue" points="314.67637569495776,518.8422631291832 111.93630917584449,343.2642151586841 533.3236243050422,221.62017524721605 736.0636908241555,397.1982232177151" />
  <polygon fill="steelblue" points="111.93630917584449,343.2642151586841 111.93630917584449,202.8017767822849 533.3236243050422,81.15773687081685 533.3236243050422,221.62017524721605" />
  <polygon fill="lightskyblue" points="736.0636908241555,397.1982232177151 736.0636908241555,256.7357848413159 533.3236243050422,81.15773687081685 533.3236243050422,221.62017524721605" />
  <polygon fill="white" points="613.0680504692268,290.68087411561237 613.0680504692268,157.2415576580331 588.7392424869332,136.1721919015732 588.7392424869332,269.6115083591525" />
  <polygon fill="white" points="680.6480726422647,349.2068901057787 680.6480726422647,215.76757364819946 656.3192646599709,194.69820789173957 656.3192646599709,328.1375243493188" />
  <polygon fill="white" points="178.65596740463414,267.8189334888086 178.65596740463414,211.63395813824894 213.77157699873393,201.49695481229327 213.77157699873393,257.68193016285295" />
  <polygon fill="white" points="262.93343043047366,243.49012550651503 262.93343043047366,187.30515015595532 298.04904002457346,177.16814682999967 298.04904002457346,233.35312218055935" />
  <polygon fill="white" points="347.2108934563132,219.16131752422143 347.2108934563132,162.97634217366172 382.326503050413,152.83933884770605 382.326503050413,209.02431419826576" />
  <polygon fill="white" points="431.48835648215277,194.8325095419278 431.48835648215277,138.6475341913681 466.60396607625256,128.51053086541245 466.60396607625256,184.69550621597213" />
  <polygon fill="hsl(360.0,50.0%,51.426934746249444%)" points="479.9453364314629,386.4175111952657 479.9453364314629,338.1827098568102 488.3730827340469,335.7498290585808 488.3730827340469,383.9846303970363" />
  <polygon fill="hsl(360.0,50.0%,51.426934746249444%)" points="501.0147021879228,380.3353091996923 501.0147021879228,332.1005078612368 492.5869558853388,334.53338865946614 492.58695588533885,382.7681899979217" />
  <polygon fill="hsl(360.0,50.0%,51.426934746249444%)" points="471.51759012887896,341.09316294551934 471.51759012887896,293.33593389754355 478.8918681436399,291.20716319909286 478.8918681436399,338.96439224706864" />
  <polygon fill="hsl(360.0,50.0%,51.426934746249444%)" points="502.0681704757458,332.2739700519379 502.0681704757458,284.5167410039621 509.44244849050676,282.38797030551143 509.44244849050676,330.1451993534872" />
  <polygon fill="hsl(360.0,50.0%,51.426934746249444%)" points="478.8918681436399,298.58144121385385 478.8918681436399,291.20716319909286 502.0681704757458,284.5167410039621 502.0681704757458,291.8910190187231" />
  <polygon fill="hsl(360.0,50.0%,51.426934746249444%)" points="479.9453364314629,338.66028214728993 479.9453364314629,290.9030530993142 501.0147021879228,284.82085110374084 501.0147021879228,332.57808015171656" />
  <polygon fill="hsl(360.0,50.0%,51.426934746249444%)" points="485.21267787057786,286.9946411480221 485.21267787057786,265.503888076433 495.7473607488078,262.4627870786463 495.7473607488078,283.95354015023537" />
  <polygon fill="hsl(360.0,50.0%,51.426934746249444%)" points="487.31961444622385,288.7742824008635 487.31961444622385,264.8956678768757 493.6404241731618,263.07100727820364 493.6404241731618,286.94962180219153" />
  <polygon fill="hsl(360.0,50.0%,43.8291623991892%)" points="343.32489250713354,461.4298239034199 343.32489250713354,413.19502256496435 351.7526388097175,410.762141766735 351.7526388097175,458.99694310519055" />
  <polygon fill="hsl(360.0,50.0%,43.8291623991892%)" points="364.39425826359343,455.3476219078465 364.39425826359343,407.112820569391 355.9665119610095,409.5457013676203 355.9665119610095,457.7805027060758" />
  <polygon fill="hsl(360.0,50.0%,43.8291623991892%)" points="334.8971462045496,416.1054756536735 334.8971462045496,368.34824660569774 342.2714242193106,366.2194759072471 342.2714242193106,413.97670495522283" />
  <polygon fill="hsl(360.0,50.0%,43.8291623991892%)" points="365.44772655141645,407.2862827600921 365.44772655141645,359.5290537121163 372.8220045661774,357.4002830136656 372.8220045661774,405.1575120616414" />
  <polygon fill="hsl(360.0,50.0%,43.8291623991892%)" points="342.2714242193106,373.59375392200803 342.2714242193106,366.2194759072471 365.44772655141645,359.5290537121163 365.44772655141645,366.9033317268773" />
  <polygon fill="hsl(360.0,50.0%,43.8291623991892%)" points="343.32489250713354,413.6725948554441 343.32489250713354,365.9153658074684 364.39425826359343,359.833163811895 364.39425826359343,407.59039285987075" />
  <polygon fill="hsl(360.0,50.0%,43.8291623991892%)" points="348.59223394624854,362.00695385617627 348.59223394624854,340.51620078458717 359.1269168244785,337.47509978680046 359.1269168244785,358.96585285838955" />
  <polygon fill="hsl(360.0,50.0%,43.8291623991892%)" points="350.69917052189453,363.7865951090177 350.69917052189453,339.90798058502986 357.01998024883244,338.0833199863578 357.01998024883244,361.9619345103457" />
</svg>
