<?xml version="1.0" encoding="UTF-8"?>
<svg
  xmlns="http://www.w3.org/2000/svg"
  width="848"
  height="600"
  style="background-color:white"
>
  <polygon fill="lightblue" points="333.75533648981553,509.6376050040804 166.39709896927315,364.7011197787007 514.2446635101844,264.28617726637526 681.6029010307268,409.22266249175493" />
  <polygon fill="steelblue" points="166.39709896927315,364.7011197787007 166.39709896927315,190.77733750824507 514.2446635101844,90.3623949959196 514.2446635101844,264.28617726637526" />
  <polygon fill="lightskyblue" points="681.6029010307268,409.22266249175493 681.6029010307268,235.2988802212993 514.2446635101844,90.3623949959196 514.2446635101844,264.28617726637526" />
  <polygon fill="white" points="607.9652765216881,345.4506089925879 607.9652765216881,229.5014208122841 587.8822880192231,212.10904258523854 587.8822880192231,328.0582307655423" />
  <polygon fill="white" points="238.86534158196304,297.4016648165114 238.86534158196304,251.0219895443899 267.85263862703897,242.65407766836276 267.85263862703897,289.03375294048425" />
  <polygon fill="white" points="325.82723271719084,272.29792918843003 325.82723271719084,225.91825391630852 354.8145297622668,217.55034204028138 354.8145297622668,263.9300173124029" />
  <polygon fill="white" points="412.78912385241864,247.19419356034865 412.78912385241864,200.81451828822713 441.7764208974946,192.44660641220003 441.7764208974946,238.82628168432151" />
  <polygon fill="antiquewhite" points="503.57206843976377,402.09849256981835 503.57206843976377,303.54168261656014 526.7619060758245,296.84735311573843 526.7619060758245,395.4041630689966" />
  <polygon fill="beige" points="503.57206843976377,402.09849256981835 503.57206843976377,303.54168261656014 490.1834094381204,291.9467637985298 490.1834094381204,390.50357375178794" />
  <polygon fill="bisque" points="503.57206843976377,303.54168261656014 490.1834094381204,291.9467637985298 513.3732470741811,285.2524342977081 526.7619060758245,296.84735311573843" />
</svg>
