<?xml version="1.0" encoding="UTF-8"?>
<svg
  xmlns="http://www.w3.org/2000/svg"
  width="848"
  height="600"
  style="background-color:white"
>
  <polygon fill="lightblue" points="289.1923788646684,743.0607966083865 39.1923788646684,526.5544456622769 558.8076211353316,376.55444566227675 808.8076211353316,593.0607966083865" />
  <polygon fill="steelblue" points="39.1923788646684,526.5544456622769 39.1923788646684,6.939203391613603 558.8076211353316,-143.06079660838645 558.8076211353316,376.55444566227675" />
  <polygon fill="lightskyblue" points="808.8076211353316,593.0607966083865 808.8076211353316,73.44555433772317 558.8076211353316,-143.06079660838645 558.8076211353316,376.55444566227675" />
  <polygon fill="white" points="698.8076211353316,497.7980021920981 698.8076211353316,324.5929214352104 668.8076211353316,298.61215932167727 668.8076211353316,471.81724007856496" />
  <polygon fill="white" points="91.77249266586648,442.09384193095025 91.77249266586648,372.81180962819514 135.07376285508843,360.31180962819514 135.07376285508843,429.59384193095025" />
  <polygon fill="white" points="166.0032415616755,420.6652705023788 166.0032415616755,351.38323819962375 209.30451175089743,338.88323819962375 209.30451175089743,408.1652705023788" />
  <polygon fill="white" points="240.2339904574845,399.2366990738074 240.2339904574845,329.9546667710523 283.53526064670643,317.4546667710523 283.53526064670643,386.73669907380736" />
  <polygon fill="white" points="314.46473935329357,377.8081276452359 314.46473935329357,308.52609534248086 357.76600954251546,296.02609534248086 357.76600954251546,365.3081276452359" />
  <polygon fill="white" points="388.6954882491026,356.3795562166645 388.6954882491026,287.0975239139094 431.9967584383245,274.5975239139094 431.9967584383245,343.8795562166645" />
  <polygon fill="white" points="462.92623714491157,334.9509847880931 462.92623714491157,265.66895248533797 506.22750733413346,253.16895248533797 506.22750733413346,322.4509847880931" />
</svg>
