<?xml version="1.0" encoding="UTF-8"?>
<svg
  xmlns="http://www.w3.org/2000/svg"
  width="848"
  height="600"
  style="background-color:white"
>
  <polygon fill="lightblue" points="289.1923788646684,656.4582562299427 39.1923788646684,439.95190528383296 558.8076211353316,289.95190528383284 808.8076211353316,506.45825622994255" />
  <polygon fill="steelblue" points="39.1923788646684,439.95190528383296 39.1923788646684,93.54174377005745 558.8076211353316,-56.458256229942606 558.8076211353316,289.95190528383284" />
  <polygon fill="lightskyblue" points="808.8076211353316,506.45825622994255 808.8076211353316,160.04809471616707 558.8076211353316,-56.458256229942606 558.8076211353316,289.95190528383284" />
  <polygon fill="white" points="698.8076211353316,411.1954618136542 698.8076211353316,237.99038105676655 668.8076211353316,212.0096189432334 668.8076211353316,385.2146997001211" />
  <polygon fill="white" points="104.1442841485013,351.9198729810778 104.1442841485013,282.63784067832273 147.44555433772325,270.13784067832273 147.44555433772325,339.4198729810778" />
  <polygon fill="white" points="190.74682452694518,326.9198729810778 190.74682452694518,257.63784067832273 234.0480947161671,245.1378406783227 234.0480947161671,314.4198729810778" />
  <polygon fill="white" points="277.34936490538905,301.9198729810778 277.34936490538905,232.63784067832268 320.65063509461095,220.13784067832268 320.65063509461095,289.4198729810778" />
  <polygon fill="white" points="363.9519052838329,276.9198729810778 363.9519052838329,207.63784067832268 407.2531754730548,195.13784067832268 407.2531754730548,264.4198729810778" />
  <polygon fill="white" points="450.55444566227675,251.91987298107776 450.55444566227675,182.63784067832268 493.85571585149864,170.13784067832268 493.85571585149864,239.41987298107776" />
</svg>
