<?xml version="1.0" encoding="UTF-8"?>
<svg
  xmlns="http://www.w3.org/2000/svg"
  width="848"
  height="600"
  style="background-color:white"
>
  <polygon fill="lightblue" points="333.75533648981553,509.6376050040804 166.39709896927315,364.7011197787007 514.2446635101844,264.28617726637526 681.6029010307268,409.22266249175493" />
  <polygon fill="steelblue" points="166.39709896927315,364.7011197787007 166.39709896927315,190.77733750824507 514.2446635101844,90.3623949959196 514.2446635101844,264.28617726637526" />
  <polygon fill="lightskyblue" points="681.6029010307268,409.22266249175493 681.6029010307268,235.2988802212993 514.2446635101844,90.3623949959196 514.2446635101844,264.28617726637526" />
  <polygon fill="white" points="580.0722369349312,321.29452812169126 580.0722369349312,205.3453399413875 559.9892484324661,187.95296171434194 559.9892484324661,303.9021498946457" />
  <polygon fill="white" points="635.8583161084453,369.60668986348446 635.8583161084453,253.65750168318073 615.7753276059801,236.26512345613517 615.7753276059801,352.21431163643894" />
  <polygon fill="white" points="221.47296335491748,302.42241194212767 221.47296335491748,256.04273667000615 250.46026039999342,247.67482479397904 250.46026039999342,294.05450006610056" />
  <polygon fill="white" points="291.04247626309973,282.33942343966254 291.04247626309973,235.95974816754108 320.02977330817566,227.5918362915139 320.02977330817566,273.97151156363543" />
  <polygon fill="white" points="360.61198917128195,262.25643493719747 360.61198917128195,215.87675966507595 389.5992862163579,207.50884778904884 389.5992862163579,253.88852306117036" />
  <polygon fill="white" points="430.1815020794642,242.1734464347324 430.1815020794642,195.79377116261088 459.16879912454016,187.42585928658374 459.16879912454016,233.80553455870526" />
  <polygon fill="hsl(324.0,50.0%,51.426934746249444%)" points="470.18185770290614,400.323380794402 470.18185770290614,360.5064295732857 477.1388089937244,358.4981307230392 477.1388089937244,398.3150819441555" />
  <polygon fill="hsl(324.0,50.0%,51.426934746249444%)" points="487.5742359299517,395.30263366878575 487.5742359299517,355.48568244766943 480.61728463913346,357.4939812979159 480.61728463913346,397.31093251903224" />
  <polygon fill="hsl(324.0,50.0%,51.426934746249444%)" points="463.22490641208793,362.90895566334524 463.22490641208793,323.486231682042 469.31223879155385,321.7289701880763 469.3122387915539,361.15169416937954" />
  <polygon fill="hsl(324.0,50.0%,51.426934746249444%)" points="488.443854841304,355.62887233120165 488.443854841304,316.2061483498984 494.53118722076994,314.4488868559327 494.53118722076994,353.87161083723595" />
  <polygon fill="hsl(324.0,50.0%,51.426934746249444%)" points="469.31223879155385,327.8163025675422 469.31223879155385,321.7289701880763 488.443854841304,316.2061483498984 488.443854841304,322.2934807293643" />
  <polygon fill="hsl(324.0,50.0%,51.426934746249444%)" points="470.18185770290614,360.90065681309875 470.18185770290614,321.47793283179544 487.5742359299517,316.4571857061792 487.5742359299517,355.87990968748244" />
  <polygon fill="hsl(324.0,50.0%,51.426934746249444%)" points="474.52995225966754,318.25160985132624 474.52995225966754,300.5113840597398 483.22614137319033,298.0010104969316 483.22614137319033,315.7412362885181" />
  <polygon fill="hsl(324.0,50.0%,51.426934746249444%)" points="476.2691900823721,319.72067133782974 476.2691900823721,300.00930934717815 481.48690355048575,298.50308520949324 481.48690355048575,318.2144472001449" />
  <polygon fill="hsl(324.0,50.0%,43.8291623991892%)" points="357.40416606545034,462.24468062781676 357.40416606545034,422.42772940670045 364.36111735626855,420.4194305564539 364.36111735626855,460.2363817775703" />
  <polygon fill="hsl(324.0,50.0%,43.8291623991892%)" points="374.79654429249587,457.2239335022005 374.79654429249587,417.4069822810842 367.83959300167766,419.4152811313307 367.83959300167766,459.232232352447" />
  <polygon fill="hsl(324.0,50.0%,43.8291623991892%)" points="350.4472147746321,424.83025549676 350.4472147746321,385.4075315154567 356.53454715409805,383.650270021491 356.53454715409805,423.0729940027943" />
  <polygon fill="hsl(324.0,50.0%,43.8291623991892%)" points="375.66616320384816,417.5501721646164 375.66616320384816,378.1274481833131 381.7534955833141,376.3701866893474 381.7534955833141,415.7929106706507" />
  <polygon fill="hsl(324.0,50.0%,43.8291623991892%)" points="356.53454715409805,389.737602400957 356.53454715409805,383.650270021491 375.66616320384816,378.1274481833131 375.66616320384816,384.2147805627791" />
  <polygon fill="hsl(324.0,50.0%,43.8291623991892%)" points="357.40416606545034,422.82195664651346 357.40416606545034,383.3992326652102 374.79654429249587,378.37848553959395 374.79654429249587,417.8012095208972" />
  <polygon fill="hsl(324.0,50.0%,43.8291623991892%)" points="361.7522606222117,380.172909684741 361.7522606222117,362.4326838931545 370.44844973573447,359.92231033034636 370.44844973573447,377.6625361219328" />
  <polygon fill="hsl(324.0,50.0%,43.8291623991892%)" points="363.49149844491626,381.6419711712445 363.49149844491626,361.9306091805929 368.7092119130299,360.424385042908 368.7092119130299,380.13574703355965" />
</svg>
