<?xml version="1.0" encoding="UTF-8"?>
<svg
  xmlns="http://www.w3.org/2000/svg"
  width="848"
  height="600"
  style="background-color:white"
>
  <polygon fill="lightblue" points="347.8847029263456,525.7128703493107 206.7292985941913,403.46870431620107 500.1152970736544,318.77546171690847 641.2707014058087,441.0196277500181" />
  <polygon fill="steelblue" points="206.7292985941913,403.46870431620107 206.7292985941913,158.9803722499819 500.1152970736544,74.28712965068928 500.1152970736544,318.77546171690847" />
  <polygon fill="lightskyblue" points="641.2707014058087,441.0196277500181 641.2707014058087,196.5312956837989 500.1152970736544,74.28712965068928 500.1152970736544,318.77546171690847" />
  <polygon fill="white" points="341.19788123061187,325.53283499426357 341.19788123061187,286.4147018636685 365.6467144372338,279.3569316470608 365.6467144372338,318.47506477765586" />
  <polygon fill="hsl(288.0,50.0%,71.38550604696638%)" points="388.3502968217212,389.9872964084129 388.3502968217212,356.40437911579704 394.21801679131045,354.71051426381115 394.21801679131045,388.29343155642704" />
  <polygon fill="hsl(288.0,50.0%,71.38550604696638%)" points="403.01959674569434,385.7526342784482 403.01959674569434,352.1697169858324 397.15187677610504,353.86358183781823 397.15187677610504,387.4464991304341" />
  <polygon fill="hsl(288.0,50.0%,71.38550604696638%)" points="382.4825768521319,358.43074809939293 382.4825768521319,325.1803349383871 387.6168318255225,323.6982031928995 387.6168318255225,356.9486163539053" />
  <polygon fill="hsl(288.0,50.0%,71.38550604696638%)" points="403.75306174189296,352.2904880109442 403.75306174189296,319.0400748499384 408.8873167152836,317.55794310445077 408.8873167152836,350.8083562654566" />
  <polygon fill="hsl(288.0,50.0%,71.38550604696638%)" points="387.6168318255225,328.8324581662901 387.6168318255225,323.6982031928995 403.75306174189296,319.0400748499384 403.75306174189296,324.174329823329" />
  <polygon fill="hsl(288.0,50.0%,71.38550604696638%)" points="388.3502968217212,356.73688324740704 388.3502968217212,323.48647008640125 403.01959674569434,319.2518079564366 403.01959674569434,352.50222111744245" />
  <polygon fill="hsl(288.0,50.0%,71.38550604696638%)" points="392.0176218027145,320.7652838958598 392.0176218027145,305.8025979734072 399.3522717647011,303.68526690842486 399.3522717647011,318.6479528308775" />
  <polygon fill="hsl(288.0,50.0%,71.38550604696638%)" points="393.48455179511177,322.00433834091365 393.48455179511177,305.37913176041076 397.8853417723037,304.1087331214213 397.8853417723037,320.73393970192427" />
  <polygon fill="hsl(288.0,50.0%,70.71600065166498%)" points="442.9804764118684,376.39940539437595 442.9804764118684,342.8164881017601 448.8481963814576,341.1226232497743 448.8481963814577,374.7055405423901" />
  <polygon fill="hsl(288.0,50.0%,70.71600065166498%)" points="457.6497763358416,372.1647432644113 457.6497763358416,338.58182597179547 451.7820563662523,340.2756908237813 451.78205636625233,373.8586081163972" />
  <polygon fill="hsl(288.0,50.0%,70.71600065166498%)" points="437.11275644227914,344.842857085356 437.11275644227914,311.59244392435016 442.24701141566976,310.11031217886256 442.24701141566976,343.3607253398684" />
  <polygon fill="hsl(288.0,50.0%,70.71600065166498%)" points="458.3832413320402,338.7025969969073 458.3832413320402,305.45218383590145 463.5174963054308,303.97005209041384 463.5174963054308,337.2204652514197" />
  <polygon fill="hsl(288.0,50.0%,70.71600065166498%)" points="442.24701141566976,315.2445671522532 442.24701141566976,310.11031217886256 458.3832413320402,305.45218383590145 458.3832413320402,310.5864388092921" />
  <polygon fill="hsl(288.0,50.0%,70.71600065166498%)" points="442.9804764118684,343.14899223337017 442.9804764118684,309.8985790723643 457.6497763358416,305.6639169423997 457.6497763358416,338.9143301034055" />
  <polygon fill="hsl(288.0,50.0%,70.71600065166498%)" points="446.64780139286165,307.17739288182287 446.64780139286165,292.2147069593703 453.98245135484825,290.09737589438794 453.98245135484825,305.0600618168406" />
  <polygon fill="hsl(288.0,50.0%,70.71600065166498%)" points="448.114731385259,308.4164473268767 448.114731385259,291.79124074637383 452.51552136245095,290.5208421073844 452.51552136245095,307.14604868788734" />
  <polygon fill="hsl(288.0,50.0%,56.01394996926309%)" points="384.03873531697667,441.3408184287759 384.03873531697667,407.75790113616006 389.9064552865659,406.0640362841742 389.9064552865659,439.64695357679005" />
  <polygon fill="hsl(288.0,50.0%,56.01394996926309%)" points="398.7080352409498,437.1061562988113 398.7080352409498,403.52323900619547 392.84031527136057,405.2171038581813 392.84031527136057,438.80002115079714" />
  <polygon fill="hsl(288.0,50.0%,56.01394996926309%)" points="378.1710153473874,409.78427011975594 378.1710153473874,376.53385695875016 383.305270320778,375.05172521326256 383.305270320778,408.30213837426834" />
  <polygon fill="hsl(288.0,50.0%,56.01394996926309%)" points="399.4415002371485,403.64401003130723 399.4415002371485,370.39359687030145 404.5757552105391,368.91146512481384 404.5757552105391,402.1618782858196" />
  <polygon fill="hsl(288.0,50.0%,56.01394996926309%)" points="383.305270320778,380.1859801866531 383.305270320778,375.05172521326256 399.4415002371485,370.39359687030145 399.4415002371485,375.527851843692" />
  <polygon fill="hsl(288.0,50.0%,56.01394996926309%)" points="384.03873531697667,408.0904052677701 384.03873531697667,374.83999210676427 398.7080352409498,370.6053299767997 398.7080352409498,403.85574313780546" />
  <polygon fill="hsl(288.0,50.0%,56.01394996926309%)" points="387.70606029796994,372.11880591622287 387.70606029796994,357.15611999377023 395.04071025995654,355.03878892878794 395.04071025995654,370.0014748512405" />
  <polygon fill="hsl(288.0,50.0%,56.01394996926309%)" points="389.1729902903673,373.35786036127666 389.1729902903673,356.7326537807738 393.5737802675592,355.4622551417844 393.57378026755924,372.0874617222873" />
  <polygon fill="hsl(288.0,50.0%,51.426934746249444%)" points="462.9512873309483,433.5136828687487 462.9512873309483,399.9307655761328 468.8190073005375,398.23690072414695 468.8190073005375,431.81981801676284" />
  <polygon fill="hsl(288.0,50.0%,51.426934746249444%)" points="477.6205872549214,429.279020738784 477.6205872549214,395.6961034461682 471.7528672853322,397.38996829815403 471.7528672853322,430.9728855907699" />
  <polygon fill="hsl(288.0,50.0%,51.426934746249444%)" points="457.08356736135903,401.95713455972873 457.08356736135903,368.7067213987229 462.2178223347496,367.2245896532353 462.2178223347496,400.47500281424107" />
  <polygon fill="hsl(288.0,50.0%,51.426934746249444%)" points="478.3540522511201,395.81687447128 478.3540522511201,362.5664613102742 483.48830722451066,361.0843295647866 483.48830722451066,394.33474272579235" />
  <polygon fill="hsl(288.0,50.0%,51.426934746249444%)" points="462.2178223347496,372.35884462662585 462.2178223347496,367.2245896532353 478.3540522511201,362.5664613102742 478.3540522511201,367.70071628366475" />
  <polygon fill="hsl(288.0,50.0%,51.426934746249444%)" points="462.9512873309483,400.26326970774284 462.9512873309483,367.01285654673705 477.6205872549214,362.7781944167724 477.6205872549214,396.0286075777782" />
  <polygon fill="hsl(288.0,50.0%,51.426934746249444%)" points="466.61861231194155,364.2916703561956 466.61861231194155,349.32898443374296 473.95326227392815,347.21165336876066 473.95326227392815,362.17433929121324" />
  <polygon fill="hsl(288.0,50.0%,51.426934746249444%)" points="468.0855423043389,365.53072480124945 468.0855423043389,348.9055182207465 472.4863322815308,347.6351195817571 472.48633228153085,364.26032616226" />
  <polygon fill="hsl(288.0,50.0%,43.8291623991892%)" points="367.83089828659007,485.74012982619445 367.83089828659007,452.15721253357856 373.6986182561793,450.4633476815927 373.6986182561793,484.0462649742086" />
  <polygon fill="hsl(288.0,50.0%,43.8291623991892%)" points="382.5001982105632,481.5054676962298 382.5001982105632,447.92255040361397 376.63247824097397,449.6164152555998 376.63247824097397,483.1993325482157" />
  <polygon fill="hsl(288.0,50.0%,43.8291623991892%)" points="361.96317831700077,454.1835815171745 361.96317831700077,420.93316835616866 367.0974332903914,419.45103661068106 367.0974332903914,452.70144977168684" />
  <polygon fill="hsl(288.0,50.0%,43.8291623991892%)" points="383.2336632067619,448.0433214287258 383.2336632067619,414.79290826771995 388.36791818015246,413.31077652223235 388.36791818015246,446.5611896832381" />
  <polygon fill="hsl(288.0,50.0%,43.8291623991892%)" points="367.0974332903914,424.5852915840716 367.0974332903914,419.45103661068106 383.2336632067619,414.79290826771995 383.2336632067619,419.9271632411105" />
  <polygon fill="hsl(288.0,50.0%,43.8291623991892%)" points="367.83089828659007,452.4897166651886 367.83089828659007,419.23930350418277 382.5001982105632,415.0046413742182 382.5001982105632,448.25505453522396" />
  <polygon fill="hsl(288.0,50.0%,43.8291623991892%)" points="371.49822326758334,416.51811731364137 371.49822326758334,401.55543139118873 378.83287322956994,399.43810032620644 378.83287322956994,414.400786248659" />
  <polygon fill="hsl(288.0,50.0%,43.8291623991892%)" points="372.9651532599807,417.75717175869516 372.9651532599807,401.1319651781923 377.3659432371726,399.8615665392029 377.3659432371726,416.4867731197058" />
</svg>
