<?xml version="1.0" encoding="UTF-8"?>
<svg
  xmlns="http://www.w3.org/2000/svg"
  width="848"
  height="600"
  style="background-color:white"
>
  <polygon fill="lightblue" points="347.8847029263456,525.7128703493107 206.7292985941913,403.46870431620107 500.1152970736544,318.77546171690847 641.2707014058087,441.0196277500181" />
  <polygon fill="steelblue" points="206.7292985941913,403.46870431620107 206.7292985941913,158.9803722499819 500.1152970736544,74.28712965068928 500.1152970736544,318.77546171690847" />
  <polygon fill="lightskyblue" points="641.2707014058087,441.0196277500181 641.2707014058087,196.5312956837989 500.1152970736544,74.28712965068928 500.1152970736544,318.77546171690847" />
  <polygon fill="white" points="579.1623234996608,387.23219469544983 579.1623234996608,289.4368618689622 562.2236749798024,274.76756194498904 562.2236749798024,372.56289477147675" />
  <polygon fill="white" points="341.19788123061187,325.53283499426357 341.19788123061187,286.4147018636685 365.6467144372338,279.3569316470608 365.6467144372338,318.47506477765586" />
  <polygon fill="grey" points="489.7820043002479,127.79768295987864 489.7820043002479,103.34884975325673 514.2308375068699,96.291079536649 514.2308375068699,120.73991274327093" />
  <polygon fill="lightgrey" points="489.7820043002479,127.79768295987864 489.7820043002479,103.34884975325673 475.66646386703246,91.12443314994576 475.66646386703246,115.5732663565677" />
  <polygon fill="darkgrey" points="489.7820043002479,103.34884975325673 475.66646386703246,91.12443314994576 500.1152970736544,84.06666293333805 514.2308375068699,96.291079536649" />
  <polygon fill="hsl(324.0,50.0%,51.426934746249444%)" points="462.9512873309483,433.5136828687487 462.9512873309483,399.9307655761328 468.8190073005375,398.23690072414695 468.8190073005375,431.81981801676284" />
  <polygon fill="hsl(324.0,50.0%,51.426934746249444%)" points="477.6205872549214,429.279020738784 477.6205872549214,395.6961034461682 471.7528672853322,397.38996829815403 471.7528672853322,430.9728855907699" />
  <polygon fill="hsl(324.0,50.0%,51.426934746249444%)" points="457.08356736135903,401.95713455972873 457.08356736135903,368.7067213987229 462.2178223347496,367.2245896532353 462.2178223347496,400.47500281424107" />
  <polygon fill="hsl(324.0,50.0%,51.426934746249444%)" points="478.3540522511201,395.81687447128 478.3540522511201,362.5664613102742 483.48830722451066,361.0843295647866 483.48830722451066,394.33474272579235" />
  <polygon fill="hsl(324.0,50.0%,51.426934746249444%)" points="462.2178223347496,372.35884462662585 462.2178223347496,367.2245896532353 478.3540522511201,362.5664613102742 478.3540522511201,367.70071628366475" />
  <polygon fill="hsl(324.0,50.0%,51.426934746249444%)" points="462.9512873309483,400.26326970774284 462.9512873309483,367.01285654673705 477.6205872549214,362.7781944167724 477.6205872549214,396.0286075777782" />
  <polygon fill="hsl(324.0,50.0%,51.426934746249444%)" points="466.61861231194155,364.2916703561956 466.61861231194155,349.32898443374296 473.95326227392815,347.21165336876066 473.95326227392815,362.17433929121324" />
  <polygon fill="hsl(324.0,50.0%,51.426934746249444%)" points="468.0855423043389,365.53072480124945 468.0855423043389,348.9055182207465 472.4863322815308,347.6351195817571 472.48633228153085,364.26032616226" />
  <polygon fill="hsl(324.0,50.0%,43.8291623991892%)" points="367.83089828659007,485.74012982619445 367.83089828659007,452.15721253357856 373.6986182561793,450.4633476815927 373.6986182561793,484.0462649742086" />
  <polygon fill="hsl(324.0,50.0%,43.8291623991892%)" points="382.5001982105632,481.5054676962298 382.5001982105632,447.92255040361397 376.63247824097397,449.6164152555998 376.63247824097397,483.1993325482157" />
  <polygon fill="hsl(324.0,50.0%,43.8291623991892%)" points="361.96317831700077,454.1835815171745 361.96317831700077,420.93316835616866 367.0974332903914,419.45103661068106 367.0974332903914,452.70144977168684" />
  <polygon fill="hsl(324.0,50.0%,43.8291623991892%)" points="383.2336632067619,448.0433214287258 383.2336632067619,414.79290826771995 388.36791818015246,413.31077652223235 388.36791818015246,446.5611896832381" />
  <polygon fill="hsl(324.0,50.0%,43.8291623991892%)" points="367.0974332903914,424.5852915840716 367.0974332903914,419.45103661068106 383.2336632067619,414.79290826771995 383.2336632067619,419.9271632411105" />
  <polygon fill="hsl(324.0,50.0%,43.8291623991892%)" points="367.83089828659007,452.4897166651886 367.83089828659007,419.23930350418277 382.5001982105632,415.0046413742182 382.5001982105632,448.25505453522396" />
  <polygon fill="hsl(324.0,50.0%,43.8291623991892%)" points="371.49822326758334,416.51811731364137 371.49822326758334,401.55543139118873 378.83287322956994,399.43810032620644 378.83287322956994,414.400786248659" />
  <polygon fill="hsl(324.0,50.0%,43.8291623991892%)" points="372.9651532599807,417.75717175869516 372.9651532599807,401.1319651781923 377.3659432371726,399.8615665392029 377.3659432371726,416.4867731197058" />
</svg>
