<?xml version="1.0" encoding="UTF-8"?>
<svg
  xmlns="http://www.w3.org/2000/svg"
  width="848"
  height="600"
  style="background-color:white"
>
  <polygon fill="lightblue" points="352.3727631047085,535.4111760923879 219.54044195688212,420.3750115347174 495.6272368952915,340.67561884602145 628.4595580431179,455.71178340369204" />
  <polygon fill="steelblue" points="219.54044195688212,420.3750115347174 219.54044195688212,144.28821659630796 495.6272368952915,64.5888239076121 495.6272368952915,340.67561884602145" />
  <polygon fill="lightskyblue" points="628.4595580431179,455.71178340369204 628.4595580431179,179.62498846528266 495.6272368952915,64.5888239076121 495.6272368952915,340.67561884602145" />
  <polygon fill="white" points="254.05129132418332,373.6010147901758 254.0512913241833,336.78944213172116 277.0585242357174,330.1478260743298 277.0585242357174,366.95939873278445" />
  <polygon fill="white" points="300.06575714725153,360.3177826753931 300.06575714725153,323.50621001693855 323.07299005878565,316.8645939595472 323.07299005878565,353.6761666180018" />
  <polygon fill="white" points="346.08022297031977,347.03455056061046 346.08022297031977,310.2229779021559 369.0874558818539,303.58136184476456 369.0874558818539,340.3929345032192" />
  <polygon fill="white" points="392.094688793388,333.75131844582785 392.094688793388,296.9397457873732 415.10192170492206,290.2981297299819 415.1019217049221,327.1097023884365" />
  <polygon fill="white" points="438.10915461645624,320.4680863310452 438.1091546164562,283.65651367259056 461.1163875279903,277.0148976151993 461.11638752799036,313.82647027365385" />
  <polygon fill="hsl(288.0,50.0%,51.426934746249444%)" points="460.6545647497195,448.64841883962237 460.6545647497195,417.0456837123391 466.17630064848765,415.4516958585652 466.17630064848765,447.0544309858484" />
  <polygon fill="hsl(288.0,50.0%,51.426934746249444%)" points="474.45890449663995,444.6634492051876 474.45890449663995,413.0607140779043 468.93716859787173,414.65470193167823 468.93716859787173,446.2574370589615" />
  <polygon fill="hsl(288.0,50.0%,51.426934746249444%)" points="455.1328288509513,418.95256993370987 455.1328288509513,387.66273317402346 459.96434776237345,386.26799380197133 459.96434776237345,417.55783056165774" />
  <polygon fill="hsl(288.0,50.0%,51.426934746249444%)" points="475.14912148398594,413.17436396377946 475.14912148398594,381.88452720409305 479.98064039540816,380.48978783204086 479.98064039540816,411.77962459172727" />
  <polygon fill="hsl(288.0,50.0%,51.426934746249444%)" points="459.96434776237345,391.09951271339344 459.96434776237345,386.26799380197133 475.14912148398594,381.88452720409305 475.14912148398594,386.71604611551516" />
  <polygon fill="hsl(288.0,50.0%,51.426934746249444%)" points="460.6545647497195,417.35858207993596 460.6545647497195,386.06874532024955 474.45890449663995,382.08377568581477 474.45890449663995,413.3736124455012" />
  <polygon fill="hsl(288.0,50.0%,51.426934746249444%)" points="464.10564968644957,383.5080110736566 464.10564968644957,369.42758453179766 471.0078195599098,367.43509971458025 471.0078195599098,381.51552625643916" />
  <polygon fill="hsl(288.0,50.0%,51.426934746249444%)" points="465.4860836611416,384.67400594819736 465.4860836611416,369.02908756835416 469.6273855852178,367.83359667802375 469.6273855852178,383.47851505786696" />
</svg>
