<?xml version="1.0" encoding="UTF-8"?>
<svg
  xmlns="http://www.w3.org/2000/svg"
  width="848"
  height="600"
  style="background-color:white"
>
  <polygon fill="lightblue" points="360.0551306894947,469.08299706877847 241.46971843318056,366.3850175365599 487.9448693105053,295.2337701827713 606.5302815668194,397.93174971498996" />
  <polygon fill="steelblue" points="241.46971843318056,366.3850175365599 241.46971843318056,202.06825028501004 487.9448693105053,130.9170029312215 487.9448693105053,295.2337701827713" />
  <polygon fill="lightskyblue" points="606.5302815668194,397.93174971498996 606.5302815668194,233.61498246344013 487.9448693105053,130.9170029312215 487.9448693105053,295.2337701827713" />
  <polygon fill="white" points="554.3527001740412,352.7446387208137 554.3527001740412,270.58625509503884 540.1224507032834,258.2624975511726 540.1224507032834,340.4208811769475" />
  <polygon fill="white" points="280.4949506554236,322.25604992190006 280.4949506554236,289.39269647159006 301.0345465618674,283.4634258587744 301.0345465618674,316.3267793090843" />
  <polygon fill="white" points="329.78998083088857,308.02580045114235 329.78998083088857,275.16244700083234 350.3295767373323,269.23317638801666 350.3295767373323,302.0965298383266" />
  <polygon fill="white" points="379.0850110063535,293.79555098038463 379.0850110063535,260.9321975300747 399.6246069127972,255.00292691725895 399.6246069127972,287.8662803675689" />
  <polygon fill="white" points="428.38004118181846,279.5653015096269 428.38004118181846,246.70194805931695 448.91963708826216,240.77267744650123 448.91963708826216,273.6360308968112" />
</svg>
