<?xml version="1.0" encoding="UTF-8"?>
<svg
  xmlns="http://www.w3.org/2000/svg"
  width="848"
  height="600"
  style="background-color:white"
>
  <polygon fill="lightblue" points="352.3727631047085,535.4111760923879 219.54044195688212,420.3750115347174 495.6272368952915,340.67561884602145 628.4595580431179,455.71178340369204" />
  <polygon fill="steelblue" points="219.54044195688212,420.3750115347174 219.54044195688212,144.28821659630796 495.6272368952915,64.5888239076121 495.6272368952915,340.67561884602145" />
  <polygon fill="lightskyblue" points="628.4595580431179,455.71178340369204 628.4595580431179,179.62498846528266 495.6272368952915,64.5888239076121 495.6272368952915,340.67561884602145" />
  <polygon fill="white" points="570.0133367380743,405.09587099831697 570.0133367380743,313.0669393521805 554.0734582003352,299.26259960526005 554.0734582003352,391.2915312513965" />
  <polygon fill="white" points="263.25418448879697,370.9443683672192 263.25418448879697,334.13279570876466 286.2614174003311,327.49117965137333 286.2614174003311,364.30275230982795" />
  <polygon fill="white" points="318.4715434764788,355.00448982948006 318.4715434764788,318.19291717102544 341.47877638801293,311.55130111363417 341.47877638801293,348.36287377208873" />
  <polygon fill="white" points="373.68890246416066,339.0646112917409 373.68890246416066,302.2530386332863 396.6961353756948,295.61142257589495 396.6961353756948,332.42299523434957" />
  <polygon fill="white" points="428.90626145184257,323.12473275400174 428.90626145184257,286.3131600955471 451.9134943633767,279.6715440381558 451.9134943633767,316.4831166966104" />
  <polygon fill="hsl(360.0,50.0%,51.426934746249444%)" points="460.6545647497195,448.64841883962237 460.6545647497195,417.0456837123391 466.17630064848765,415.4516958585652 466.17630064848765,447.0544309858484" />
  <polygon fill="hsl(360.0,50.0%,51.426934746249444%)" points="474.45890449663995,444.6634492051876 474.45890449663995,413.0607140779043 468.93716859787173,414.65470193167823 468.93716859787173,446.2574370589615" />
  <polygon fill="hsl(360.0,50.0%,51.426934746249444%)" points="455.1328288509513,418.95256993370987 455.1328288509513,387.66273317402346 459.96434776237345,386.26799380197133 459.96434776237345,417.55783056165774" />
  <polygon fill="hsl(360.0,50.0%,51.426934746249444%)" points="475.14912148398594,413.17436396377946 475.14912148398594,381.88452720409305 479.98064039540816,380.48978783204086 479.98064039540816,411.77962459172727" />
  <polygon fill="hsl(360.0,50.0%,51.426934746249444%)" points="459.96434776237345,391.09951271339344 459.96434776237345,386.26799380197133 475.14912148398594,381.88452720409305 475.14912148398594,386.71604611551516" />
  <polygon fill="hsl(360.0,50.0%,51.426934746249444%)" points="460.6545647497195,417.35858207993596 460.6545647497195,386.06874532024955 474.45890449663995,382.08377568581477 474.45890449663995,413.3736124455012" />
  <polygon fill="hsl(360.0,50.0%,51.426934746249444%)" points="464.10564968644957,383.5080110736566 464.10564968644957,369.42758453179766 471.0078195599098,367.43509971458025 471.0078195599098,381.51552625643916" />
  <polygon fill="hsl(360.0,50.0%,51.426934746249444%)" points="465.4860836611416,384.67400594819736 465.4860836611416,369.02908756835416 469.6273855852178,367.83359667802375 469.6273855852178,383.47851505786696" />
  <polygon fill="hsl(360.0,50.0%,43.8291623991892%)" points="371.1428515777982,497.7953870870228 371.1428515777982,466.1926519597396 376.66458747656634,464.59866410596567 376.66458747656634,496.2013992332489" />
  <polygon fill="hsl(360.0,50.0%,43.8291623991892%)" points="384.94719132471863,493.810417452588 384.94719132471863,462.20768232530475 379.4254554259504,463.80167017907866 379.4254554259504,495.4044053063619" />
  <polygon fill="hsl(360.0,50.0%,43.8291623991892%)" points="365.62111567902997,468.09953818111035 365.6211156790299,436.80970142142394 370.45263459045213,435.41496204937175 370.45263459045213,466.70479880905816" />
  <polygon fill="hsl(360.0,50.0%,43.8291623991892%)" points="385.6374083120646,462.3213322111799 385.6374083120646,431.03149545149347 390.4689272234868,429.6367560794413 390.4689272234868,460.9265928391277" />
  <polygon fill="hsl(360.0,50.0%,43.8291623991892%)" points="370.45263459045213,440.24648096079386 370.45263459045213,435.41496204937175 385.6374083120646,431.03149545149347 385.6374083120646,435.8630143629156" />
  <polygon fill="hsl(360.0,50.0%,43.8291623991892%)" points="371.1428515777982,466.5055503273364 371.1428515777981,435.21571356765 384.9471913247186,431.2307439332152 384.94719132471863,462.5205806929016" />
  <polygon fill="hsl(360.0,50.0%,43.8291623991892%)" points="374.59393651452825,432.654979321057 374.59393651452825,418.5745527791981 381.4961063879885,416.5820679619807 381.4961063879885,430.6624945038396" />
  <polygon fill="hsl(360.0,50.0%,43.8291623991892%)" points="375.9743704892203,433.82097419559784 375.9743704892203,418.17605581575464 380.11567241329647,416.9805649254242 380.11567241329647,432.6254833052674" />
</svg>
