<?xml version="1.0" encoding="UTF-8"?>
<svg
  xmlns="http://www.w3.org/2000/svg"
  width="848"
  height="600"
  style="background-color:white"
>
  <polygon fill="lightblue" points="333.75533648981553,509.6376050040804 166.39709896927315,364.7011197787007 514.2446635101844,264.28617726637526 681.6029010307268,409.22266249175493" />
  <polygon fill="steelblue" points="166.39709896927315,364.7011197787007 166.39709896927315,190.77733750824507 514.2446635101844,90.3623949959196 514.2446635101844,264.28617726637526" />
  <polygon fill="lightskyblue" points="681.6029010307268,409.22266249175493 681.6029010307268,235.2988802212993 514.2446635101844,90.3623949959196 514.2446635101844,264.28617726637526" />
  <polygon fill="white" points="580.0722369349312,321.29452812169126 580.0722369349312,205.3453399413875 559.9892484324661,187.95296171434194 559.9892484324661,303.9021498946457" />
  <polygon fill="white" points="635.8583161084453,369.60668986348446 635.8583161084453,253.65750168318073 615.7753276059801,236.26512345613517 615.7753276059801,352.21431163643894" />
  <polygon fill="white" points="238.86534158196304,297.4016648165114 238.86534158196304,251.0219895443899 267.85263862703897,242.65407766836276 267.85263862703897,289.03375294048425" />
  <polygon fill="white" points="325.82723271719084,272.29792918843003 325.82723271719084,225.91825391630852 354.8145297622668,217.55034204028138 354.8145297622668,263.9300173124029" />
  <polygon fill="white" points="412.78912385241864,247.19419356034865 412.78912385241864,200.81451828822713 441.7764208974946,192.44660641220003 441.7764208974946,238.82628168432151" />
  <polygon fill="grey" points="501.99319021716275,153.80617125759102 501.99319021716275,124.81887421251506 530.9804872622387,116.45096233648795 530.9804872622387,145.43825938156388" />
  <polygon fill="lightgrey" points="501.99319021716275,153.80617125759102 501.99319021716275,124.81887421251506 485.2573664651085,110.32522568997709 485.2573664651085,139.31252273505305" />
  <polygon fill="darkgrey" points="501.99319021716275,124.81887421251506 485.2573664651085,110.32522568997709 514.2446635101844,101.95731381394995 530.9804872622387,116.45096233648795" />
  <polygon fill="hsl(324.0,50.0%,51.426934746249444%)" points="470.18185770290614,400.323380794402 470.18185770290614,360.5064295732857 477.1388089937244,358.4981307230392 477.1388089937244,398.3150819441555" />
  <polygon fill="hsl(324.0,50.0%,51.426934746249444%)" points="487.5742359299517,395.30263366878575 487.5742359299517,355.48568244766943 480.61728463913346,357.4939812979159 480.61728463913346,397.31093251903224" />
  <polygon fill="hsl(324.0,50.0%,51.426934746249444%)" points="463.22490641208793,362.90895566334524 463.22490641208793,323.486231682042 469.31223879155385,321.7289701880763 469.3122387915539,361.15169416937954" />
  <polygon fill="hsl(324.0,50.0%,51.426934746249444%)" points="488.443854841304,355.62887233120165 488.443854841304,316.2061483498984 494.53118722076994,314.4488868559327 494.53118722076994,353.87161083723595" />
  <polygon fill="hsl(324.0,50.0%,51.426934746249444%)" points="469.31223879155385,327.8163025675422 469.31223879155385,321.7289701880763 488.443854841304,316.2061483498984 488.443854841304,322.2934807293643" />
  <polygon fill="hsl(324.0,50.0%,51.426934746249444%)" points="470.18185770290614,360.90065681309875 470.18185770290614,321.47793283179544 487.5742359299517,316.4571857061792 487.5742359299517,355.87990968748244" />
  <polygon fill="hsl(324.0,50.0%,51.426934746249444%)" points="474.52995225966754,318.25160985132624 474.52995225966754,300.5113840597398 483.22614137319033,298.0010104969316 483.22614137319033,315.7412362885181" />
  <polygon fill="hsl(324.0,50.0%,51.426934746249444%)" points="476.2691900823721,319.72067133782974 476.2691900823721,300.00930934717815 481.48690355048575,298.50308520949324 481.48690355048575,318.2144472001449" />
</svg>
