<?xml version="1.0" encoding="UTF-8"?>
<svg
  xmlns="http://www.w3.org/2000/svg"
  width="848"
  height="600"
  style="background-color:white"
>
  <polygon fill="lightblue" points="289.1923788646684,613.1569860407207 39.1923788646684,396.650635094611 558.8076211353316,246.65063509461092 808.8076211353316,463.15698604072065" />
  <polygon fill="steelblue" points="39.1923788646684,396.650635094611 39.1923788646684,136.84301395927938 558.8076211353316,-13.156986040720653 558.8076211353316,246.65063509461092" />
  <polygon fill="lightskyblue" points="808.8076211353316,463.15698604072065 808.8076211353316,203.349364905389 558.8076211353316,-13.156986040720653 558.8076211353316,246.65063509461092" />
  <polygon fill="white" points="698.8076211353316,367.8941916244323 698.8076211353316,194.68911086754463 668.8076211353316,168.70834875401147 668.8076211353316,341.91342951089916" />
  <polygon fill="white" points="121.46479222419009,303.61860279185584 121.46479222419009,234.33657048910078 164.76606241341204,221.83657048910078 164.76606241341204,291.1186027918559" />
  <polygon fill="white" points="225.3878406783227,273.6186027918559 225.3878406783227,204.33657048910078 268.6891108675446,191.83657048910078 268.6891108675446,261.11860279185584" />
  <polygon fill="white" points="329.3108891324553,243.61860279185586 329.3108891324553,174.33657048910078 372.61215932167727,161.83657048910075 372.61215932167727,231.11860279185584" />
  <polygon fill="white" points="433.23393758658796,213.61860279185584 433.23393758658796,144.33657048910075 476.5352077758099,131.83657048910072 476.5352077758099,201.11860279185584" />
</svg>
