<?xml version="1.0" encoding="UTF-8"?>
<svg
  xmlns="http://www.w3.org/2000/svg"
  width="848"
  height="600"
  style="background-color:white"
>
  <polygon fill="lightblue" points="289.1923788646684,613.1569860407207 39.1923788646684,396.650635094611 558.8076211353316,246.65063509461092 808.8076211353316,463.15698604072065" />
  <polygon fill="steelblue" points="39.1923788646684,396.650635094611 39.1923788646684,136.84301395927938 558.8076211353316,-13.156986040720653 558.8076211353316,246.65063509461092" />
  <polygon fill="lightskyblue" points="808.8076211353316,463.15698604072065 808.8076211353316,203.349364905389 558.8076211353316,-13.156986040720653 558.8076211353316,246.65063509461092" />
  <polygon fill="white" points="698.8076211353316,367.8941916244323 698.8076211353316,194.68911086754463 668.8076211353316,168.70834875401147 668.8076211353316,341.91342951089916" />
  <polygon fill="white" points="104.1442841485013,308.6186027918559 104.1442841485013,239.33657048910078 147.44555433772325,226.83657048910078 147.44555433772325,296.1186027918559" />
  <polygon fill="white" points="190.74682452694518,283.6186027918559 190.74682452694518,214.33657048910078 234.0480947161671,201.83657048910078 234.0480947161671,271.1186027918559" />
  <polygon fill="white" points="277.34936490538905,258.61860279185584 277.34936490538905,189.33657048910078 320.65063509461095,176.83657048910075 320.65063509461095,246.11860279185586" />
  <polygon fill="white" points="363.9519052838329,233.61860279185584 363.9519052838329,164.33657048910075 407.2531754730548,151.83657048910075 407.2531754730548,221.11860279185584" />
  <polygon fill="white" points="450.55444566227675,208.61860279185584 450.55444566227675,139.33657048910075 493.85571585149864,126.83657048910075 493.85571585149864,196.11860279185584" />
</svg>
