<?xml version="1.0" encoding="UTF-8"?>
<svg
  xmlns="http://www.w3.org/2000/svg"
  width="848"
  height="600"
  style="background-color:white"
>
  <polygon fill="lightblue" points="360.0551306894947,469.08299706877847 241.46971843318056,366.3850175365599 487.9448693105053,295.2337701827713 606.5302815668194,397.93174971498996" />
  <polygon fill="steelblue" points="241.46971843318056,366.3850175365599 241.46971843318056,202.06825028501004 487.9448693105053,130.9170029312215 487.9448693105053,295.2337701827713" />
  <polygon fill="lightskyblue" points="606.5302815668194,397.93174971498996 606.5302815668194,233.61498246344013 487.9448693105053,130.9170029312215 487.9448693105053,295.2337701827713" />
  <polygon fill="white" points="554.3527001740412,352.7446387208137 554.3527001740412,270.58625509503884 540.1224507032834,258.2624975511726 540.1224507032834,340.4208811769475" />
  <polygon fill="white" points="266.4106563195765,326.3218354849737 266.4106563195765,293.4584820346637 286.9502522260202,287.529211421848 286.9502522260202,320.39256487215795" />
  <polygon fill="white" points="301.62139215919433,316.1573715772896 301.62139215919433,283.2940181269796 322.16098806563804,277.3647475141639 322.16098806563804,310.22810096447387" />
  <polygon fill="white" points="336.8321279988121,305.99290766960553 336.8321279988121,273.1295542192955 357.37172390525586,267.20028360647984 357.37172390525586,300.0636370567898" />
  <polygon fill="white" points="372.0428638384299,295.82844376192145 372.0428638384299,262.96509031161145 392.5824597448737,257.03581969879576 392.5824597448737,289.8991731491057" />
  <polygon fill="white" points="407.25359967804775,285.66397985423737 407.25359967804775,252.8006264039274 427.79319558449146,246.87135579111168 427.79319558449146,279.7347092414216" />
  <polygon fill="white" points="442.4643355176655,275.4995159465533 442.4643355176655,242.63616249624332 463.0039314241093,236.7068918834276 463.0039314241093,269.57024533373755" />
</svg>
