<?xml version="1.0" encoding="UTF-8"?>
<svg
  xmlns="http://www.w3.org/2000/svg"
  width="848"
  height="600"
  style="background-color:white"
>
  <polygon fill="lightblue" points="328.49701747294466,521.8526364770474 151.3872559425095,368.47108373348664 519.5029825270553,262.2052268152255 696.6127440574905,415.58677955878625" />
  <polygon fill="steelblue" points="151.3872559425095,368.47108373348664 151.3872559425095,184.41322044121372 519.5029825270553,78.14736352295259 519.5029825270553,262.2052268152255" />
  <polygon fill="lightskyblue" points="696.6127440574905,415.58677955878625 696.6127440574905,231.52891626651336 519.5029825270553,78.14736352295259 519.5029825270553,262.2052268152255" />
  <polygon fill="white" points="618.684448984099,348.09889635161954 618.684448984099,231.52891626651336 597.4312776004468,213.12312993728605 597.4312776004468,329.69311002239226" />
  <polygon fill="white" points="209.6722459850626,302.5635595101558 209.6722459850626,253.4814626322164 240.34855653377474,244.62597455569465 240.34855653377474,293.7080714336341" />
  <polygon fill="white" points="283.2953913019718,281.3103881265036 283.2953913019718,232.22829124856418 313.97170185068387,223.3728031720424 313.97170185068387,272.45490004998186" />
  <polygon fill="white" points="356.9185366188809,260.0572167428514 356.9185366188809,210.97511986491196 387.59484716759306,202.11963178839017 387.59484716759306,251.20172866632964" />
  <polygon fill="white" points="430.54168193579005,238.80404535919916 430.54168193579005,189.72194848125972 461.2179924845022,180.86646040473795 461.2179924845022,229.9485572826774" />
  <polygon fill="hsl(324.0,50.0%,51.426934746249444%)" points="472.87275299962596,406.1689601400267 472.87275299962596,364.03197997031566 480.2350675313169,361.9066628319504 480.2350675313169,404.04364300166145" />
  <polygon fill="hsl(324.0,50.0%,51.426934746249444%)" points="491.27853932885324,400.85566729411363 491.27853932885324,358.7186871244026 483.91622479716233,360.84400426276784 483.91622479716233,402.98098443247886" />
  <polygon fill="hsl(324.0,50.0%,51.426934746249444%)" points="465.51043846793505,366.57449493214335 465.51043846793505,324.85471258589484 471.9524636831646,322.9950600898253 471.9524636831646,364.7148424360738" />
  <polygon fill="hsl(324.0,50.0%,51.426934746249444%)" points="492.1988286453146,358.87022030556943 492.1988286453146,317.1504379593209 498.64085386054415,315.2907854632513 498.64085386054415,357.0105678094999" />
  <polygon fill="hsl(324.0,50.0%,51.426934746249444%)" points="471.9524636831646,329.43708530505484 471.9524636831646,322.9950600898253 492.1988286453146,317.1504379593209 492.1988286453146,323.59246317455046" />
  <polygon fill="hsl(324.0,50.0%,51.426934746249444%)" points="472.87275299962596,364.4491777937782 472.87275299962596,322.7293954475296 491.27853932885324,317.41610260161656 491.27853932885324,359.13588494786507" />
  <polygon fill="hsl(324.0,50.0%,51.426934746249444%)" points="477.47419958193274,319.3150831187389 477.47419958193274,300.54118106292714 486.6770927465464,297.8845346399706 486.6770927465464,316.6584366957824" />
  <polygon fill="hsl(324.0,50.0%,51.426934746249444%)" points="479.3147782148555,320.86974295146007 479.3147782148555,300.0098517783358 484.8365141136237,298.4158639245619 484.8365141136237,319.27575509768616" />
</svg>
