<?xml version="1.0" encoding="UTF-8"?>
<svg
  xmlns="http://www.w3.org/2000/svg"
  width="848"
  height="600"
  style="background-color:white"
>
  <polygon fill="lightblue" points="333.75533648981553,509.6376050040804 166.39709896927315,364.7011197787007 514.2446635101844,264.28617726637526 681.6029010307268,409.22266249175493" />
  <polygon fill="steelblue" points="166.39709896927315,364.7011197787007 166.39709896927315,190.77733750824507 514.2446635101844,90.3623949959196 514.2446635101844,264.28617726637526" />
  <polygon fill="lightskyblue" points="681.6029010307268,409.22266249175493 681.6029010307268,235.2988802212993 514.2446635101844,90.3623949959196 514.2446635101844,264.28617726637526" />
  <polygon fill="white" points="607.9652765216881,345.4506089925879 607.9652765216881,229.5014208122841 587.8822880192231,212.10904258523854 587.8822880192231,328.0582307655423" />
  <polygon fill="white" points="221.47296335491748,302.42241194212767 221.47296335491748,256.04273667000615 250.46026039999342,247.67482479397904 250.46026039999342,294.05450006610056" />
  <polygon fill="white" points="291.04247626309973,282.33942343966254 291.04247626309973,235.95974816754108 320.02977330817566,227.5918362915139 320.02977330817566,273.97151156363543" />
  <polygon fill="white" points="360.61198917128195,262.25643493719747 360.61198917128195,215.87675966507595 389.5992862163579,207.50884778904884 389.5992862163579,253.88852306117036" />
  <polygon fill="white" points="430.1815020794642,242.1734464347324 430.1815020794642,195.79377116261088 459.16879912454016,187.42585928658374 459.16879912454016,233.80553455870526" />
</svg>
