<?xml version="1.0" encoding="UTF-8"?>
<svg
  xmlns="http://www.w3.org/2000/svg"
  width="848"
  height="600"
  style="background-color:white"
>
  <polygon fill="lightblue" points="366.80597016374804,469.6036031849484 260.7399529857659,377.74773783057924 481.19402983625196,314.1081275237899 587.260047014234,405.9639928781591" />
  <polygon fill="steelblue" points="260.7399529857659,377.74773783057924 260.7399529857659,194.0360071218409 481.19402983625196,130.3963968150516 481.19402983625196,314.1081275237899" />
  <polygon fill="lightskyblue" points="587.260047014234,405.9639928781591 587.260047014234,222.25226216942076 481.19402983625196,130.3963968150516 481.19402983625196,314.1081275237899" />
  <polygon fill="white" points="540.590999455922,365.54741212223666 540.590999455922,292.0627198387413 527.8630773945641,281.04001599621705 527.8630773945641,354.52470827971234" />
  <polygon fill="white" points="283.04780600039845,341.91413844566074 283.04780600039845,312.5202615322626 301.41897907127225,307.2169606733635 301.41897907127225,336.61083758676165" />
  <polygon fill="white" points="314.54124555046786,332.82276554469087 314.54124555046786,303.4288886312927 332.9124186213417,298.1255877723936 332.9124186213417,327.5194646857917" />
  <polygon fill="white" points="346.0346851005373,323.73139264372094 346.0346851005373,294.3375157303228 364.4058581714111,289.0342148714237 364.4058581714111,318.42809178482185" />
  <polygon fill="white" points="377.52812465060674,314.64001974275106 377.52812465060674,285.2461428293529 395.89929772148054,279.9428419704538 395.8992977214806,309.3367188838519" />
  <polygon fill="white" points="409.02156420067615,305.54864684178114 409.02156420067615,276.154769928383 427.39273727155,270.8514690694839 427.39273727155,300.24534598288204" />
  <polygon fill="white" points="440.51500375074556,296.45727394081126 440.51500375074556,267.0633970274131 458.8861768216194,261.760096168514 458.8861768216194,291.15397308191217" />
</svg>
