<?xml version="1.0" encoding="UTF-8"?>
<svg
  xmlns="http://www.w3.org/2000/svg"
  width="848"
  height="600"
  style="background-color:white"
>
  <polygon fill="lightblue" points="350.1628249805687,471.5231452948331 213.2321856042772,352.9377330385189 497.8371750194313,270.77934941274395 634.7678143957228,389.36476166905817" />
  <polygon fill="steelblue" points="213.2321856042772,352.9377330385189 213.2321856042772,210.63523833094183 497.8371750194313,128.4768547051669 497.8371750194313,270.77934941274395" />
  <polygon fill="lightskyblue" points="634.7678143957228,389.36476166905817 634.7678143957228,247.0622669614811 497.8371750194313,128.4768547051669 497.8371750194313,270.77934941274395" />
  <polygon fill="white" points="574.5183330701545,337.1871802762799 574.5183330701545,242.31885047122853 558.0866563449996,228.08860100047082 558.0866563449996,322.95693080552223" />
  <polygon fill="white" points="248.80780928117144,304.72060316327645 248.80780928117144,266.77327124125594 272.5248917324343,259.92673927244135 272.5248917324343,297.8740711944619" />
  <polygon fill="white" points="296.24197418369715,291.02753922564733 296.24197418369715,253.08020730362676 319.95905663496,246.23367533481218 319.95905663496,284.18100725683274" />
  <polygon fill="white" points="343.6761390862228,277.33447528801815 343.6761390862228,239.38714336599762 367.39322153748566,232.540611397183 367.39322153748566,270.48794331920357" />
  <polygon fill="white" points="391.1103039887485,263.641411350389 391.1103039887485,225.69407942836844 414.82738644001137,218.84754745955388 414.82738644001137,256.79487938157445" />
  <polygon fill="white" points="438.54446889127416,249.94834741275983 438.54446889127416,212.0010154907393 462.261551342537,205.1544835219247 462.261551342537,243.10181544394527" />
</svg>
