<?xml version="1.0" encoding="UTF-8"?>
<svg
  xmlns="http://www.w3.org/2000/svg"
  width="848"
  height="600"
  style="background-color:white"
>
  <polygon fill="lightblue" points="333.75533648981553,509.6376050040804 166.39709896927315,364.7011197787007 514.2446635101844,264.28617726637526 681.6029010307268,409.22266249175493" />
  <polygon fill="steelblue" points="166.39709896927315,364.7011197787007 166.39709896927315,190.77733750824507 514.2446635101844,90.3623949959196 514.2446635101844,264.28617726637526" />
  <polygon fill="lightskyblue" points="681.6029010307268,409.22266249175493 681.6029010307268,235.2988802212993 514.2446635101844,90.3623949959196 514.2446635101844,264.28617726637526" />
  <polygon fill="white" points="607.9652765216881,345.4506089925879 607.9652765216881,229.5014208122841 587.8822880192231,212.10904258523854 587.8822880192231,328.0582307655423" />
  <polygon fill="white" points="267.85263862703897,289.03375294048425 267.85263862703897,242.65407766836276 296.8399356721149,234.28616579233562 296.8399356721149,280.66584106445714" />
  <polygon fill="white" points="383.8018268073427,255.56210543637576 383.8018268073427,209.18243016425427 412.78912385241864,200.81451828822713 412.78912385241864,247.19419356034865" />
  <polygon fill="hsl(288.0,50.0%,71.38550604696638%)" points="381.7326031527073,348.7171432712636 381.7326031527073,308.90019205014727 388.68955444352554,306.8918931999008 388.68955444352554,346.7088444210171" />
  <polygon fill="hsl(288.0,50.0%,71.38550604696638%)" points="399.12498137975285,343.6963961456473 399.12498137975285,303.879444924531 392.16803008893464,305.8877437747775 392.16803008893464,345.7046949958939" />
  <polygon fill="hsl(288.0,50.0%,71.38550604696638%)" points="374.7756518618891,311.3027181402068 374.77565186188906,271.87999415890357 380.86298424135504,270.12273266493787 380.86298424135504,309.5454566462411" />
  <polygon fill="hsl(288.0,50.0%,71.38550604696638%)" points="399.99460029110514,304.02263480806323 399.99460029110514,264.59991082676 406.0819326705711,262.8426493327943 406.0819326705711,302.26537331409753" />
  <polygon fill="hsl(288.0,50.0%,71.38550604696638%)" points="380.86298424135504,276.2100650444038 380.86298424135504,270.12273266493787 399.99460029110514,264.59991082676 399.99460029110514,270.6872432062259" />
  <polygon fill="hsl(288.0,50.0%,71.38550604696638%)" points="381.7326031527073,309.29441928996033 381.7326031527073,269.871695308657 399.12498137975285,264.85094818304077 399.12498137975285,304.273672164344" />
  <polygon fill="hsl(288.0,50.0%,71.38550604696638%)" points="386.0806977094687,266.6453723281878 386.08069770946867,248.90514653660136 394.7768868229915,246.3947729737932 394.7768868229915,264.1349987653797" />
  <polygon fill="hsl(288.0,50.0%,71.38550604696638%)" points="387.81993553217325,268.1144338146913 387.81993553217325,248.40307182403973 393.03764900028693,246.89684768635485 393.03764900028693,266.60820967700647" />
  <polygon fill="hsl(288.0,50.0%,70.71600065166498%)" points="446.50384315513537,332.60691708127405 446.50384315513537,292.78996586015774 453.46079444595364,290.78166700991125 453.46079444595364,330.59861823102756" />
  <polygon fill="hsl(288.0,50.0%,70.71600065166498%)" points="463.896221382181,327.5861699556578 463.896221382181,287.7692187345415 456.9392700913628,289.777517584788 456.9392700913628,329.5944688059043" />
  <polygon fill="hsl(288.0,50.0%,70.71600065166498%)" points="439.5468918643172,295.1924919502173 439.5468918643172,255.769767968914 445.63422424378314,254.01250647494834 445.63422424378314,293.4352304562516" />
  <polygon fill="hsl(288.0,50.0%,70.71600065166498%)" points="464.76584029353324,287.9124086180737 464.76584029353324,248.48968463677042 470.8531726729992,246.73242314280472 470.8531726729992,286.155147124108" />
  <polygon fill="hsl(288.0,50.0%,70.71600065166498%)" points="445.63422424378314,260.09983885441426 445.63422424378314,254.01250647494834 464.76584029353324,248.48968463677042 464.76584029353324,254.57701701623637" />
  <polygon fill="hsl(288.0,50.0%,70.71600065166498%)" points="446.50384315513537,293.1841930999708 446.50384315513537,253.76146911866752 463.896221382181,248.74072199305124 463.896221382181,288.1634459743545" />
  <polygon fill="hsl(288.0,50.0%,70.71600065166498%)" points="450.85193771189677,250.5351461381983 450.85193771189677,232.79492034661183 459.5481268254196,230.28454678380368 459.5481268254196,248.02477257539013" />
  <polygon fill="hsl(288.0,50.0%,70.71600065166498%)" points="452.59117553460135,252.00420762470182 452.59117553460135,232.2928456340502 457.80888900271503,230.78662149636529 457.80888900271503,250.49798348701694" />
  <polygon fill="hsl(288.0,50.0%,51.426934746249444%)" points="470.18185770290614,400.323380794402 470.18185770290614,360.5064295732857 477.1388089937244,358.4981307230392 477.1388089937244,398.3150819441555" />
  <polygon fill="hsl(288.0,50.0%,51.426934746249444%)" points="487.5742359299517,395.30263366878575 487.5742359299517,355.48568244766943 480.61728463913346,357.4939812979159 480.61728463913346,397.31093251903224" />
  <polygon fill="hsl(288.0,50.0%,51.426934746249444%)" points="463.22490641208793,362.90895566334524 463.22490641208793,323.486231682042 469.31223879155385,321.7289701880763 469.3122387915539,361.15169416937954" />
  <polygon fill="hsl(288.0,50.0%,51.426934746249444%)" points="488.443854841304,355.62887233120165 488.443854841304,316.2061483498984 494.53118722076994,314.4488868559327 494.53118722076994,353.87161083723595" />
  <polygon fill="hsl(288.0,50.0%,51.426934746249444%)" points="469.31223879155385,327.8163025675422 469.31223879155385,321.7289701880763 488.443854841304,316.2061483498984 488.443854841304,322.2934807293643" />
  <polygon fill="hsl(288.0,50.0%,51.426934746249444%)" points="470.18185770290614,360.90065681309875 470.18185770290614,321.47793283179544 487.5742359299517,316.4571857061792 487.5742359299517,355.87990968748244" />
  <polygon fill="hsl(288.0,50.0%,51.426934746249444%)" points="474.52995225966754,318.25160985132624 474.52995225966754,300.5113840597398 483.22614137319033,298.0010104969316 483.22614137319033,315.7412362885181" />
  <polygon fill="hsl(288.0,50.0%,51.426934746249444%)" points="476.2691900823721,319.72067133782974 476.2691900823721,300.00930934717815 481.48690355048575,298.50308520949324 481.48690355048575,318.2144472001449" />
  <polygon fill="hsl(288.0,50.0%,43.8291623991892%)" points="357.40416606545034,462.24468062781676 357.40416606545034,422.42772940670045 364.36111735626855,420.4194305564539 364.36111735626855,460.2363817775703" />
  <polygon fill="hsl(288.0,50.0%,43.8291623991892%)" points="374.79654429249587,457.2239335022005 374.79654429249587,417.4069822810842 367.83959300167766,419.4152811313307 367.83959300167766,459.232232352447" />
  <polygon fill="hsl(288.0,50.0%,43.8291623991892%)" points="350.4472147746321,424.83025549676 350.4472147746321,385.4075315154567 356.53454715409805,383.650270021491 356.53454715409805,423.0729940027943" />
  <polygon fill="hsl(288.0,50.0%,43.8291623991892%)" points="375.66616320384816,417.5501721646164 375.66616320384816,378.1274481833131 381.7534955833141,376.3701866893474 381.7534955833141,415.7929106706507" />
  <polygon fill="hsl(288.0,50.0%,43.8291623991892%)" points="356.53454715409805,389.737602400957 356.53454715409805,383.650270021491 375.66616320384816,378.1274481833131 375.66616320384816,384.2147805627791" />
  <polygon fill="hsl(288.0,50.0%,43.8291623991892%)" points="357.40416606545034,422.82195664651346 357.40416606545034,383.3992326652102 374.79654429249587,378.37848553959395 374.79654429249587,417.8012095208972" />
  <polygon fill="hsl(288.0,50.0%,43.8291623991892%)" points="361.7522606222117,380.172909684741 361.7522606222117,362.4326838931545 370.44844973573447,359.92231033034636 370.44844973573447,377.6625361219328" />
  <polygon fill="hsl(288.0,50.0%,43.8291623991892%)" points="363.49149844491626,381.6419711712445 363.49149844491626,361.9306091805929 368.7092119130299,360.424385042908 368.7092119130299,380.13574703355965" />
</svg>
