<?xml version="1.0" encoding="UTF-8"?>
<svg
  xmlns="http://www.w3.org/2000/svg"
  width="848"
  height="600"
  style="background-color:white"
>
  <polygon fill="lightblue" points="347.8847029263456,525.7128703493107 206.7292985941913,403.46870431620107 500.1152970736544,318.77546171690847 641.2707014058087,441.0196277500181" />
  <polygon fill="steelblue" points="206.7292985941913,403.46870431620107 206.7292985941913,158.9803722499819 500.1152970736544,74.28712965068928 500.1152970736544,318.77546171690847" />
  <polygon fill="lightskyblue" points="641.2707014058087,441.0196277500181 641.2707014058087,196.5312956837989 500.1152970736544,74.28712965068928 500.1152970736544,318.77546171690847" />
  <polygon fill="white" points="579.1623234996608,387.23219469544983 579.1623234996608,289.4368618689622 562.2236749798024,274.76756194498904 562.2236749798024,372.56289477147675" />
  <polygon fill="white" points="236.41716748794653,355.7804216368681 236.41716748794653,316.662288506273 260.86600069456847,309.6045182896653 260.86600069456847,348.7226514202604" />
  <polygon fill="white" points="278.32945298501267,343.6813869798263 278.32945298501267,304.5632538492312 302.7782861916346,297.5054836326235 302.7782861916346,336.6236167632186" />
  <polygon fill="white" points="320.2417384820788,331.58235232278446 320.2417384820788,292.46421919218943 344.69057168870074,285.40644897558167 344.69057168870074,324.52458210617675" />
  <polygon fill="white" points="362.15402397914494,319.4833176657427 362.15402397914494,280.3651845351476 386.6028571857669,273.3074143185399 386.6028571857669,312.42554744913497" />
  <polygon fill="white" points="404.06630947621113,307.3842830087009 404.06630947621113,268.2661498781058 428.515142682833,261.2083796614981 428.515142682833,300.3265127920932" />
  <polygon fill="white" points="445.97859497327727,295.2852483516591 445.97859497327727,256.167115221064 470.42742817989915,249.1093450044563 470.42742817989915,288.22747813505134" />
</svg>
