<?xml version="1.0" encoding="UTF-8"?>
<svg
  xmlns="http://www.w3.org/2000/svg"
  width="848"
  height="600"
  style="background-color:white"
>
  <polygon fill="lightblue" points="333.75533648981553,509.6376050040804 166.39709896927315,364.7011197787007 514.2446635101844,264.28617726637526 681.6029010307268,409.22266249175493" />
  <polygon fill="steelblue" points="166.39709896927315,364.7011197787007 166.39709896927315,190.77733750824507 514.2446635101844,90.3623949959196 514.2446635101844,264.28617726637526" />
  <polygon fill="lightskyblue" points="681.6029010307268,409.22266249175493 681.6029010307268,235.2988802212993 514.2446635101844,90.3623949959196 514.2446635101844,264.28617726637526" />
  <polygon fill="white" points="607.9652765216881,345.4506089925879 607.9652765216881,229.5014208122841 587.8822880192231,212.10904258523854 587.8822880192231,328.0582307655423" />
  <polygon fill="white" points="201.5959596668654,308.16040865711767 201.5959596668654,261.78073338499615 230.58325671194135,253.41282150896905 230.58325671194135,299.79249678109056" />
  <polygon fill="white" points="251.2884688869956,293.8154168696426 251.2884688869956,247.43574159752112 280.2757659320715,239.06782972149398 280.2757659320715,285.4475049936155" />
  <polygon fill="white" points="300.98097810712574,279.47042508216754 300.98097810712574,233.09074981004605 329.96827515220167,224.7228379340189 329.96827515220167,271.10251320614043" />
  <polygon fill="white" points="350.67348732725594,265.12543329469247 350.67348732725594,218.74575802257098 379.6607843723319,210.37784614654385 379.6607843723319,256.75752141866536" />
  <polygon fill="white" points="400.3659965473861,250.7804415072174 400.3659965473861,204.40076623509592 429.353293592462,196.03285435906878 429.353293592462,242.4125296311903" />
  <polygon fill="white" points="450.05850576751624,236.43544971974237 450.05850576751624,190.05577444762088 479.04580281259217,181.68786257159374 479.04580281259217,228.06753784371523" />
</svg>
