<?xml version="1.0" encoding="UTF-8"?>
<svg
  xmlns="http://www.w3.org/2000/svg"
  width="848"
  height="600"
  style="background-color:white"
>
  <polygon fill="lightblue" points="352.3727631047085,535.4111760923879 219.54044195688212,420.3750115347174 495.6272368952915,340.67561884602145 628.4595580431179,455.71178340369204" />
  <polygon fill="steelblue" points="219.54044195688212,420.3750115347174 219.54044195688212,144.28821659630796 495.6272368952915,64.5888239076121 495.6272368952915,340.67561884602145" />
  <polygon fill="lightskyblue" points="628.4595580431179,455.71178340369204 628.4595580431179,179.62498846528266 495.6272368952915,64.5888239076121 495.6272368952915,340.67561884602145" />
  <polygon fill="white" points="570.0133367380743,405.09587099831697 570.0133367380743,313.0669393521805 554.0734582003352,299.26259960526005 554.0734582003352,391.2915312513965" />
  <polygon fill="white" points="263.25418448879697,370.9443683672192 263.25418448879697,334.13279570876466 286.2614174003311,327.49117965137333 286.2614174003311,364.30275230982795" />
  <polygon fill="white" points="318.4715434764788,355.00448982948006 318.4715434764788,318.19291717102544 341.47877638801293,311.55130111363417 341.47877638801293,348.36287377208873" />
  <polygon fill="white" points="373.68890246416066,339.0646112917409 373.68890246416066,302.2530386332863 396.6961353756948,295.61142257589495 396.6961353756948,332.42299523434957" />
  <polygon fill="white" points="428.90626145184257,323.12473275400174 428.90626145184257,286.3131600955471 451.9134943633767,279.6715440381558 451.9134943633767,316.4831166966104" />
</svg>
