<?xml version="1.0" encoding="UTF-8"?>
<svg
  xmlns="http://www.w3.org/2000/svg"
  width="848"
  height="600"
  style="background-color:white"
>
  <polygon fill="lightblue" points="366.80597016374804,469.6036031849484 260.7399529857659,377.74773783057924 481.19402983625196,314.1081275237899 587.260047014234,405.9639928781591" />
  <polygon fill="steelblue" points="260.7399529857659,377.74773783057924 260.7399529857659,194.0360071218409 481.19402983625196,130.3963968150516 481.19402983625196,314.1081275237899" />
  <polygon fill="lightskyblue" points="587.260047014234,405.9639928781591 587.260047014234,222.25226216942076 481.19402983625196,130.3963968150516 481.19402983625196,314.1081275237899" />
  <polygon fill="white" points="540.590999455922,365.54741212223666 540.590999455922,292.0627198387413 527.8630773945641,281.04001599621705 527.8630773945641,354.52470827971234" />
  <polygon fill="white" points="295.6451818204262,338.27758928527277 295.6451818204262,308.88371237187465 314.01635489130007,303.58041151297556 314.01635489130007,332.9742884263737" />
  <polygon fill="white" points="339.7359971905234,325.5496672239149 339.7359971905234,296.1557903105168 358.10717026139724,290.85248945161766 358.10717026139724,320.24636636501583" />
  <polygon fill="white" points="383.8268125606206,312.8217451625571 383.8268125606206,283.4278682491589 402.1979856314944,278.1245673902598 402.1979856314945,307.518444303658" />
  <polygon fill="white" points="427.9176279307178,300.09382310119923 427.9176279307178,270.69994618780106 446.28880100159165,265.39664532890197 446.28880100159165,294.7905222423001" />
</svg>
