<?xml version="1.0" encoding="UTF-8"?>
<svg
  xmlns="http://www.w3.org/2000/svg"
  width="848"
  height="600"
  style="background-color:white"
>
  <polygon fill="lightblue" points="289.1923788646684,743.0607966083865 39.1923788646684,526.5544456622769 558.8076211353316,376.55444566227675 808.8076211353316,593.0607966083865" />
  <polygon fill="steelblue" points="39.1923788646684,526.5544456622769 39.1923788646684,6.939203391613603 558.8076211353316,-143.06079660838645 558.8076211353316,376.55444566227675" />
  <polygon fill="lightskyblue" points="808.8076211353316,593.0607966083865 808.8076211353316,73.44555433772317 558.8076211353316,-143.06079660838645 558.8076211353316,376.55444566227675" />
  <polygon fill="white" points="698.8076211353316,497.7980021920981 698.8076211353316,324.5929214352104 668.8076211353316,298.61215932167727 668.8076211353316,471.81724007856496" />
  <polygon fill="white" points="104.14428414850136,438.5224133595217 104.1442841485013,369.2403810567666 147.44555433772325,356.7403810567666 147.44555433772325,426.0224133595217" />
  <polygon fill="white" points="190.74682452694523,413.5224133595217 190.74682452694518,344.2403810567666 234.0480947161671,331.7403810567665 234.0480947161671,401.0224133595217" />
  <polygon fill="white" points="277.34936490538905,388.5224133595217 277.34936490538905,319.2403810567665 320.65063509461095,306.7403810567666 320.65063509461095,376.0224133595217" />
  <polygon fill="white" points="363.9519052838329,363.5224133595217 363.9519052838329,294.2403810567666 407.2531754730548,281.7403810567665 407.25317547305485,351.02241335952164" />
  <polygon fill="white" points="450.5544456622768,338.52241335952164 450.55444566227675,269.2403810567665 493.85571585149864,256.7403810567665 493.8557158514987,326.02241335952164" />
</svg>
