<?xml version="1.0" encoding="UTF-8"?>
<svg
  xmlns="http://www.w3.org/2000/svg"
  width="848"
  height="600"
  style="background-color:white"
>
  <polygon fill="lightblue" points="328.49701747294466,521.8526364770474 151.3872559425095,368.47108373348664 519.5029825270553,262.2052268152255 696.6127440574905,415.58677955878625" />
  <polygon fill="steelblue" points="151.3872559425095,368.47108373348664 151.3872559425095,184.41322044121372 519.5029825270553,78.14736352295259 519.5029825270553,262.2052268152255" />
  <polygon fill="lightskyblue" points="696.6127440574905,415.58677955878625 696.6127440574905,231.52891626651336 519.5029825270553,78.14736352295259 519.5029825270553,262.2052268152255" />
  <polygon fill="white" points="589.1661553956932,322.53530422769273 589.1661553956932,205.96532414258655 567.912984012041,187.55953781335927 567.912984012041,304.12951789846545" />
  <polygon fill="white" points="648.2027425725049,373.6624884755463 648.2027425725049,257.0925083904401 626.9495711888527,238.68672206121286 626.9495711888527,355.256702146319" />
  <polygon fill="white" points="197.40172176557772,306.10575474076455 197.40172176557772,257.0236578628251 228.07803231428989,248.16816978630334 228.07803231428989,297.2502666642428" />
  <polygon fill="white" points="258.754342863002,288.394778587721 258.754342863002,239.31268170978157 289.43065341171416,230.4571936332598 289.43065341171416,279.5392905111993" />
  <polygon fill="white" points="320.10696396042636,270.6838024346775 320.10696396042636,221.60170555673807 350.7832745091385,212.74621748021627 350.7832745091385,261.82831435815575" />
  <polygon fill="white" points="381.45958505785063,252.97282628163396 381.45958505785063,203.89072940369454 412.13589560656277,195.03524132717277 412.13589560656277,244.11733820511222" />
  <polygon fill="white" points="442.81220615527496,235.26185012859045 442.81220615527496,186.179753250651 473.4885167039871,177.32426517412927 473.4885167039871,226.4063620520687" />
  <polygon fill="grey" points="506.5376481313867,145.28784164202744 506.5376481313867,114.61153109331528 537.2139586800988,105.75604301679351 537.2139586800988,136.43235356550568" />
  <polygon fill="lightgrey" points="506.5376481313867,145.28784164202744 506.5376481313867,114.61153109331528 488.82667197834314,99.27337581895921 488.82667197834314,129.94968636767138" />
  <polygon fill="darkgrey" points="506.5376481313867,114.61153109331528 488.82667197834314,99.27337581895921 519.5029825270553,90.41788774243744 537.2139586800988,105.75604301679351" />
  <polygon fill="hsl(288.0,50.0%,70.71600065166498%)" points="447.81508286519284,334.50683631750286 447.81508286519284,292.36985614779184 455.1773973968838,290.24453900942666 455.1773973968838,332.3815191791377" />
  <polygon fill="hsl(288.0,50.0%,70.71600065166498%)" points="466.2208691944202,329.1935434715898 466.2208691944202,287.0565633018788 458.85855466272926,289.181880440244 458.85855466272926,331.31886060995504" />
  <polygon fill="hsl(288.0,50.0%,70.71600065166498%)" points="440.452768333502,294.9123711096196 440.452768333502,253.19258876337102 446.8947935487315,251.33293626730148 446.8947935487315,293.05271861355" />
  <polygon fill="hsl(288.0,50.0%,70.71600065166498%)" points="467.14115851088155,287.2080964830456 467.14115851088155,245.4883141367971 473.5831837261111,243.62866164072753 473.5831837261111,285.34844398697606" />
  <polygon fill="hsl(288.0,50.0%,70.71600065166498%)" points="446.8947935487315,257.774961482531 446.8947935487315,251.33293626730148 467.14115851088155,245.4883141367971 467.14115851088155,251.93033935202664" />
  <polygon fill="hsl(288.0,50.0%,70.71600065166498%)" points="447.81508286519284,292.78705397125435 447.81508286519284,251.06727162500582 466.2208691944202,245.75397877909276 466.2208691944202,287.4737611253413" />
  <polygon fill="hsl(288.0,50.0%,70.71600065166498%)" points="452.41652944749967,247.65295929621513 452.41652944749967,228.8790572404033 461.61942261211334,226.22241081744676 461.61942261211334,244.99631287325857" />
  <polygon fill="hsl(288.0,50.0%,70.71600065166498%)" points="454.2571080804224,249.20761912893624 454.2571080804224,228.347727955812 459.7788439791906,226.75374010203808 459.7788439791906,247.61363127516233" />
  <polygon fill="hsl(288.0,50.0%,51.426934746249444%)" points="472.87275299962596,406.1689601400267 472.87275299962596,364.03197997031566 480.2350675313169,361.9066628319504 480.2350675313169,404.04364300166145" />
  <polygon fill="hsl(288.0,50.0%,51.426934746249444%)" points="491.27853932885324,400.85566729411363 491.27853932885324,358.7186871244026 483.91622479716233,360.84400426276784 483.91622479716233,402.98098443247886" />
  <polygon fill="hsl(288.0,50.0%,51.426934746249444%)" points="465.51043846793505,366.57449493214335 465.51043846793505,324.85471258589484 471.9524636831646,322.9950600898253 471.9524636831646,364.7148424360738" />
  <polygon fill="hsl(288.0,50.0%,51.426934746249444%)" points="492.1988286453146,358.87022030556943 492.1988286453146,317.1504379593209 498.64085386054415,315.2907854632513 498.64085386054415,357.0105678094999" />
  <polygon fill="hsl(288.0,50.0%,51.426934746249444%)" points="471.9524636831646,329.43708530505484 471.9524636831646,322.9950600898253 492.1988286453146,317.1504379593209 492.1988286453146,323.59246317455046" />
  <polygon fill="hsl(288.0,50.0%,51.426934746249444%)" points="472.87275299962596,364.4491777937782 472.87275299962596,322.7293954475296 491.27853932885324,317.41610260161656 491.27853932885324,359.13588494786507" />
  <polygon fill="hsl(288.0,50.0%,51.426934746249444%)" points="477.47419958193274,319.3150831187389 477.47419958193274,300.54118106292714 486.6770927465464,297.8845346399706 486.6770927465464,316.6584366957824" />
  <polygon fill="hsl(288.0,50.0%,51.426934746249444%)" points="479.3147782148555,320.86974295146007 479.3147782148555,300.0098517783358 484.8365141136237,298.4158639245619 484.8365141136237,319.27575509768616" />
  <polygon fill="hsl(288.0,50.0%,43.8291623991892%)" points="353.5238021037309,471.6982511365606 353.5238021037309,429.5612709668496 360.8861166354218,427.43595382848434 360.8861166354218,469.57293399819537" />
  <polygon fill="hsl(288.0,50.0%,43.8291623991892%)" points="371.92958843295816,466.38495829064755 371.92958843295816,424.2479781209365 364.56727390126724,426.37329525930176 364.56727390126724,468.5102754290128" />
  <polygon fill="hsl(288.0,50.0%,43.8291623991892%)" points="346.1614875720399,432.1037859286773 346.1614875720399,390.38400358242876 352.6035127872695,388.5243510863592 352.6035127872695,430.2441334326077" />
  <polygon fill="hsl(288.0,50.0%,43.8291623991892%)" points="372.84987774941953,424.39951130210335 372.84987774941953,382.67972895585484 379.291902964649,380.82007645978524 379.291902964649,422.53985880603375" />
  <polygon fill="hsl(288.0,50.0%,43.8291623991892%)" points="352.6035127872695,394.96637630158875 352.6035127872695,388.5243510863592 372.84987774941953,382.67972895585484 372.84987774941953,389.1217541710844" />
  <polygon fill="hsl(288.0,50.0%,43.8291623991892%)" points="353.5238021037309,429.97846879031204 353.5238021037309,388.2586864440635 371.92958843295816,382.9453935981505 371.92958843295816,424.66517594439904" />
  <polygon fill="hsl(288.0,50.0%,43.8291623991892%)" points="358.1252486860377,384.84437411527284 358.1252486860377,366.07047205946105 367.3281418506513,363.4138256365045 367.3281418506513,382.18772769231634" />
  <polygon fill="hsl(288.0,50.0%,43.8291623991892%)" points="359.9658273189604,386.399033947994 359.9658273189604,365.53914277486973 365.48756321772856,363.9451549210958 365.48756321772856,384.8050460942201" />
</svg>
