<?xml version="1.0" encoding="UTF-8"?>
<svg
  xmlns="http://www.w3.org/2000/svg"
  width="848"
  height="600"
  style="background-color:white"
>
  <polygon fill="lightblue" points="337.2297818865999,529.4377749633621 176.31488445232822,390.0813859379155 510.7702181134001,293.53244747735243 671.6851155476718,432.8888365027991" />
  <polygon fill="steelblue" points="176.31488445232822,390.0813859379155 176.31488445232822,167.1111634972009 510.7702181134001,70.56222503663784 510.7702181134001,293.53244747735243" />
  <polygon fill="lightskyblue" points="671.6851155476718,432.8888365027991 671.6851155476718,209.9186140620845 510.7702181134001,70.56222503663784 510.7702181134001,293.53244747735243" />
  <polygon fill="white" points="574.0634111042136,348.34596049402813 574.0634111042136,242.43510483468873 554.7536234121011,225.71233815163515 554.7536234121011,331.62319381097456" />
  <polygon fill="white" points="627.7017102489708,394.79809016917704 627.7017102489708,288.8872345098376 608.3919225568583,272.164467826784 608.3919225568583,378.0753234861234" />
  <polygon fill="white" points="229.27031228199797,330.20042619351676 229.27031228199797,285.60638170537385 257.14159008708725,277.5606368336602 257.14159008708725,322.1546813218032" />
  <polygon fill="white" points="296.16137901421234,310.89063850140417 296.16137901421234,266.29659401326126 324.0326568193016,258.25084914154763 324.0326568193016,302.84489362969055" />
  <polygon fill="white" points="363.05244574642666,291.5808508092916 363.05244574642666,246.98680632114863 390.923723551516,238.94106144943504 390.923723551516,283.53510593757795" />
  <polygon fill="white" points="429.9435124786411,272.2710631171789 429.9435124786411,227.677018629036 457.8147902837304,219.63127375732245 457.8147902837304,264.22531824546536" />
  <polygon fill="grey" points="498.990430051738,131.56339773802117 498.990430051738,103.69211993293186 526.8617078568273,95.64637506121827 526.8617078568273,123.5176528663076" />
  <polygon fill="lightgrey" points="498.990430051738,131.56339773802117 498.990430051738,103.69211993293186 482.8989403083108,89.75648103038722 482.8989403083108,117.6277588354765" />
  <polygon fill="darkgrey" points="498.990430051738,103.69211993293186 482.8989403083108,89.75648103038722 510.7702181134001,81.71073615867363 526.8617078568273,95.64637506121827" />
  <polygon fill="hsl(360.0,50.0%,51.426934746249444%)" points="468.40384295200954,424.33217970009787 468.40384295200954,386.0481925070272 475.092949625231,384.1172137378159 475.092949625231,422.4012009308866" />
  <polygon fill="hsl(360.0,50.0%,51.426934746249444%)" points="485.1266096350631,419.5047327770697 485.1266096350631,381.220745583999 478.4375029618417,383.1517243532103 478.4375029618417,421.43571154628097" />
  <polygon fill="hsl(360.0,50.0%,51.426934746249444%)" points="461.7147362787881,388.35822065438765 461.7147362787881,350.45328283946617 467.56770461785686,348.7636764164063 467.56770461785686,386.6686142313278" />
  <polygon fill="hsl(360.0,50.0%,51.426934746249444%)" points="485.9627479692158,381.3584226159968 485.9627479692158,343.4534848010753 491.81571630828455,341.76387837801553 491.81571630828455,379.66881619293696" />
  <polygon fill="hsl(360.0,50.0%,51.426934746249444%)" points="467.56770461785686,354.6166447554751 467.56770461785686,348.7636764164063 485.9627479692158,343.4534848010753 485.9627479692158,349.30645314014413" />
  <polygon fill="hsl(360.0,50.0%,51.426934746249444%)" points="468.40384295200954,386.4272418851764 468.40384295200954,348.5223040702549 485.1266096350631,343.69485714722674 485.1266096350631,381.5997949621482" />
  <polygon fill="hsl(360.0,50.0%,51.426934746249444%)" points="472.58453462277294,345.4201954487518 472.58453462277294,328.36297343203717 480.9459179642997,325.94924997052306 480.9459179642997,343.0064719872377" />
  <polygon fill="hsl(360.0,50.0%,51.426934746249444%)" points="474.2568112910783,346.83269764719506 474.2568112910783,327.8802287397343 479.27364129599437,326.4319946628259 479.27364129599437,345.38446357028664" />
</svg>
