<?xml version="1.0" encoding="UTF-8"?>
<svg
  xmlns="http://www.w3.org/2000/svg"
  width="848"
  height="600"
  style="background-color:white"
>
  <polygon fill="lightblue" points="347.8847029263456,525.7128703493107 206.7292985941913,403.46870431620107 500.1152970736544,318.77546171690847 641.2707014058087,441.0196277500181" />
  <polygon fill="steelblue" points="206.7292985941913,403.46870431620107 206.7292985941913,158.9803722499819 500.1152970736544,74.28712965068928 500.1152970736544,318.77546171690847" />
  <polygon fill="lightskyblue" points="641.2707014058087,441.0196277500181 641.2707014058087,196.5312956837989 500.1152970736544,74.28712965068928 500.1152970736544,318.77546171690847" />
  <polygon fill="white" points="243.4025484041242,353.76391586069445 243.4025484041242,314.64578273009937 267.8513816107461,307.58801251349166 267.8513816107461,346.70614564408675" />
  <polygon fill="white" points="292.30021481736804,339.648375427479 292.30021481736804,300.53024229688396 316.74904802399,293.4724720802762 316.74904802399,332.5906052108713" />
  <polygon fill="white" points="341.19788123061187,325.53283499426357 341.19788123061187,286.4147018636685 365.6467144372338,279.3569316470608 365.6467144372338,318.47506477765586" />
  <polygon fill="white" points="390.09554764385575,311.41729456104815 390.09554764385575,272.29916143045307 414.54438085047764,265.24139121384536 414.54438085047764,304.35952434444044" />
  <polygon fill="white" points="438.9932140570996,297.30175412783274 438.9932140570996,258.18362099723765 463.4420472637215,251.12585078062992 463.4420472637215,290.243983911225" />
  <polygon fill="grey" points="489.7820043002479,127.79768295987864 489.7820043002479,103.34884975325673 514.2308375068699,96.291079536649 514.2308375068699,120.73991274327093" />
  <polygon fill="lightgrey" points="489.7820043002479,127.79768295987864 489.7820043002479,103.34884975325673 475.66646386703246,91.12443314994576 475.66646386703246,115.5732663565677" />
  <polygon fill="darkgrey" points="489.7820043002479,103.34884975325673 475.66646386703246,91.12443314994576 500.1152970736544,84.06666293333805 514.2308375068699,96.291079536649" />
  <polygon fill="hsl(360.0,50.0%,70.71600065166498%)" points="442.9804764118684,376.39940539437595 442.9804764118684,342.8164881017601 448.8481963814576,341.1226232497743 448.8481963814577,374.7055405423901" />
  <polygon fill="hsl(360.0,50.0%,70.71600065166498%)" points="457.6497763358416,372.1647432644113 457.6497763358416,338.58182597179547 451.7820563662523,340.2756908237813 451.78205636625233,373.8586081163972" />
  <polygon fill="hsl(360.0,50.0%,70.71600065166498%)" points="437.11275644227914,344.842857085356 437.11275644227914,311.59244392435016 442.24701141566976,310.11031217886256 442.24701141566976,343.3607253398684" />
  <polygon fill="hsl(360.0,50.0%,70.71600065166498%)" points="458.3832413320402,338.7025969969073 458.3832413320402,305.45218383590145 463.5174963054308,303.97005209041384 463.5174963054308,337.2204652514197" />
  <polygon fill="hsl(360.0,50.0%,70.71600065166498%)" points="442.24701141566976,315.2445671522532 442.24701141566976,310.11031217886256 458.3832413320402,305.45218383590145 458.3832413320402,310.5864388092921" />
  <polygon fill="hsl(360.0,50.0%,70.71600065166498%)" points="442.9804764118684,343.14899223337017 442.9804764118684,309.8985790723643 457.6497763358416,305.6639169423997 457.6497763358416,338.9143301034055" />
  <polygon fill="hsl(360.0,50.0%,70.71600065166498%)" points="446.64780139286165,307.17739288182287 446.64780139286165,292.2147069593703 453.98245135484825,290.09737589438794 453.98245135484825,305.0600618168406" />
  <polygon fill="hsl(360.0,50.0%,70.71600065166498%)" points="448.114731385259,308.4164473268767 448.114731385259,291.79124074637383 452.51552136245095,290.5208421073844 452.51552136245095,307.14604868788734" />
  <polygon fill="hsl(360.0,50.0%,51.426934746249444%)" points="462.9512873309483,433.5136828687487 462.9512873309483,399.9307655761328 468.8190073005375,398.23690072414695 468.8190073005375,431.81981801676284" />
  <polygon fill="hsl(360.0,50.0%,51.426934746249444%)" points="477.6205872549214,429.279020738784 477.6205872549214,395.6961034461682 471.7528672853322,397.38996829815403 471.7528672853322,430.9728855907699" />
  <polygon fill="hsl(360.0,50.0%,51.426934746249444%)" points="457.08356736135903,401.95713455972873 457.08356736135903,368.7067213987229 462.2178223347496,367.2245896532353 462.2178223347496,400.47500281424107" />
  <polygon fill="hsl(360.0,50.0%,51.426934746249444%)" points="478.3540522511201,395.81687447128 478.3540522511201,362.5664613102742 483.48830722451066,361.0843295647866 483.48830722451066,394.33474272579235" />
  <polygon fill="hsl(360.0,50.0%,51.426934746249444%)" points="462.2178223347496,372.35884462662585 462.2178223347496,367.2245896532353 478.3540522511201,362.5664613102742 478.3540522511201,367.70071628366475" />
  <polygon fill="hsl(360.0,50.0%,51.426934746249444%)" points="462.9512873309483,400.26326970774284 462.9512873309483,367.01285654673705 477.6205872549214,362.7781944167724 477.6205872549214,396.0286075777782" />
  <polygon fill="hsl(360.0,50.0%,51.426934746249444%)" points="466.61861231194155,364.2916703561956 466.61861231194155,349.32898443374296 473.95326227392815,347.21165336876066 473.95326227392815,362.17433929121324" />
  <polygon fill="hsl(360.0,50.0%,51.426934746249444%)" points="468.0855423043389,365.53072480124945 468.0855423043389,348.9055182207465 472.4863322815308,347.6351195817571 472.48633228153085,364.26032616226" />
  <polygon fill="hsl(360.0,50.0%,43.8291623991892%)" points="367.83089828659007,485.74012982619445 367.83089828659007,452.15721253357856 373.6986182561793,450.4633476815927 373.6986182561793,484.0462649742086" />
  <polygon fill="hsl(360.0,50.0%,43.8291623991892%)" points="382.5001982105632,481.5054676962298 382.5001982105632,447.92255040361397 376.63247824097397,449.6164152555998 376.63247824097397,483.1993325482157" />
  <polygon fill="hsl(360.0,50.0%,43.8291623991892%)" points="361.96317831700077,454.1835815171745 361.96317831700077,420.93316835616866 367.0974332903914,419.45103661068106 367.0974332903914,452.70144977168684" />
  <polygon fill="hsl(360.0,50.0%,43.8291623991892%)" points="383.2336632067619,448.0433214287258 383.2336632067619,414.79290826771995 388.36791818015246,413.31077652223235 388.36791818015246,446.5611896832381" />
  <polygon fill="hsl(360.0,50.0%,43.8291623991892%)" points="367.0974332903914,424.5852915840716 367.0974332903914,419.45103661068106 383.2336632067619,414.79290826771995 383.2336632067619,419.9271632411105" />
  <polygon fill="hsl(360.0,50.0%,43.8291623991892%)" points="367.83089828659007,452.4897166651886 367.83089828659007,419.23930350418277 382.5001982105632,415.0046413742182 382.5001982105632,448.25505453522396" />
  <polygon fill="hsl(360.0,50.0%,43.8291623991892%)" points="371.49822326758334,416.51811731364137 371.49822326758334,401.55543139118873 378.83287322956994,399.43810032620644 378.83287322956994,414.400786248659" />
  <polygon fill="hsl(360.0,50.0%,43.8291623991892%)" points="372.9651532599807,417.75717175869516 372.9651532599807,401.1319651781923 377.3659432371726,399.8615665392029 377.3659432371726,416.4867731197058" />
</svg>
