<?xml version="1.0" encoding="UTF-8"?>
<svg
  xmlns="http://www.w3.org/2000/svg"
  width="848"
  height="600"
  style="background-color:white"
>
  <polygon fill="lightblue" points="350.79491924311225,523.2050807568878 150.79491924311225,350.00000000000006 497.20508075688775,249.99999999999997 697.2050807568878,423.2050807568877" />
  <polygon fill="steelblue" points="150.79491924311225,350.00000000000006 150.79491924311225,176.7949192431123 497.20508075688775,76.79491924311222 497.20508075688775,249.99999999999997" />
  <polygon fill="lightskyblue" points="697.2050807568878,423.2050807568877 697.2050807568878,249.99999999999997 497.20508075688775,76.79491924311222 497.20508075688775,249.99999999999997" />
  <polygon fill="white" points="607.2050807568878,345.2627944162882 607.2050807568878,229.79274057836307 587.2050807568878,212.4722325026743 587.2050807568878,327.9422863405995" />
  <polygon fill="white" points="205.64319481612674,287.9786451314966 205.64319481612674,241.79062359632655 234.510708275608,233.4572902629932 234.510708275608,279.6453117981633" />
  <polygon fill="white" points="274.9252271188818,267.9786451314966 274.9252271188818,221.79062359632653 303.79274057836307,213.45729026299318 303.79274057836307,259.6453117981633" />
  <polygon fill="white" points="344.2072594216369,247.9786451314966 344.2072594216369,201.79062359632653 373.0747728811182,193.45729026299318 373.0747728811182,239.64531179816325" />
  <polygon fill="white" points="413.489291724392,227.9786451314966 413.489291724392,181.79062359632653 442.35680518387323,173.45729026299318 442.35680518387323,219.64531179816322" />
  <polygon fill="hsl(288.0,50.0%,72.09185257592405%)" points="432.652331764343,320.55694903492997 432.652331764343,280.90453254698645 439.5805349946185,278.90453254698645 439.5805349946185,318.55694903492997" />
  <polygon fill="hsl(288.0,50.0%,72.09185257592405%)" points="449.9728398400318,315.5569490349299 449.9728398400318,275.90453254698645 443.04463660975625,277.90453254698645 443.04463660975625,317.5569490349299" />
  <polygon fill="hsl(288.0,50.0%,72.09185257592405%)" points="425.72412853406746,283.2971307300354 425.72412853406746,244.03731242514084 431.78630636055857,242.28731242514084 431.78630636055857,281.5471307300354" />
  <polygon fill="hsl(288.0,50.0%,72.09185257592405%)" points="450.8388652438162,276.04713073003535 450.8388652438162,236.78731242514084 456.9010430703073,235.03731242514084 456.9010430703073,274.29713073003535" />
  <polygon fill="hsl(288.0,50.0%,72.09185257592405%)" points="431.78630636055857,248.3494902516319 431.78630636055857,242.28731242514084 450.8388652438162,236.78731242514084 450.8388652438162,242.8494902516319" />
  <polygon fill="hsl(288.0,50.0%,72.09185257592405%)" points="432.652331764343,281.2971307300354 432.652331764343,242.03731242514084 449.9728398400318,237.0373124251408 449.9728398400318,276.29713073003535" />
  <polygon fill="hsl(288.0,50.0%,72.09185257592405%)" points="436.9824587832652,238.8243215098961 436.9824587832652,221.15740327269356 445.64271282110957,218.65740327269356 445.64271282110957,236.3243215098961" />
  <polygon fill="hsl(288.0,50.0%,72.09185257592405%)" points="438.71450959083404,240.28731242514084 438.71450959083404,220.65740327269356 443.9106620135407,219.15740327269356 443.9106620135407,238.78731242514084" />
  <polygon fill="hsl(288.0,50.0%,50.65955712546234%)" points="477.66479761112237,406.5545017795718 477.66479761112237,366.9020852916283 484.5930008413979,364.9020852916283 484.5930008413979,404.5545017795718" />
  <polygon fill="hsl(288.0,50.0%,50.65955712546234%)" points="494.98530568681116,401.5545017795718 494.98530568681116,361.9020852916283 488.05710245653563,363.90208529162834 488.05710245653563,403.5545017795718" />
  <polygon fill="hsl(288.0,50.0%,50.65955712546234%)" points="470.73659438084684,369.29468347467724 470.73659438084684,330.03486516978273 476.79877220733795,328.28486516978273 476.79877220733795,367.54468347467724" />
  <polygon fill="hsl(288.0,50.0%,50.65955712546234%)" points="495.8513310905956,362.04468347467724 495.8513310905956,322.7848651697827 501.9135089170867,321.0348651697827 501.9135089170867,360.29468347467724" />
  <polygon fill="hsl(288.0,50.0%,50.65955712546234%)" points="476.79877220733795,334.3470429962738 476.79877220733795,328.28486516978273 495.8513310905956,322.7848651697827 495.8513310905956,328.8470429962738" />
  <polygon fill="hsl(288.0,50.0%,50.65955712546234%)" points="477.66479761112237,367.29468347467724 477.66479761112237,328.0348651697827 494.98530568681116,323.0348651697827 494.98530568681116,362.29468347467724" />
  <polygon fill="hsl(288.0,50.0%,50.65955712546234%)" points="481.9949246300446,324.821874254538 481.9949246300446,307.15495601733545 490.65517866788895,304.65495601733545 490.65517866788895,322.321874254538" />
  <polygon fill="hsl(288.0,50.0%,50.65955712546234%)" points="483.7269754376134,326.2848651697827 483.7269754376134,306.65495601733545 488.92312786032005,305.15495601733545 488.92312786032005,324.78486516978273" />
  <polygon fill="hsl(288.0,50.0%,42.21758785095096%)" points="373.7951040834438,475.53088540403394 373.7951040834438,435.87846891609047 380.72330731371926,433.87846891609047 380.72330731371926,473.53088540403394" />
  <polygon fill="hsl(288.0,50.0%,42.21758785095096%)" points="391.1156121591325,470.53088540403394 391.1156121591325,430.87846891609047 384.187408928857,432.87846891609047 384.187408928857,472.53088540403394" />
  <polygon fill="hsl(288.0,50.0%,42.21758785095096%)" points="366.8669008531682,438.2710670991394 366.8669008531682,399.01124879424486 372.9290786796593,397.26124879424486 372.9290786796593,436.5210670991394" />
  <polygon fill="hsl(288.0,50.0%,42.21758785095096%)" points="391.98163756291694,431.0210670991394 391.98163756291694,391.76124879424486 398.043815389408,390.01124879424486 398.043815389408,429.2710670991394" />
  <polygon fill="hsl(288.0,50.0%,42.21758785095096%)" points="372.9290786796593,403.3234266207359 372.9290786796593,397.26124879424486 391.98163756291694,391.76124879424486 391.98163756291694,397.8234266207359" />
  <polygon fill="hsl(288.0,50.0%,42.21758785095096%)" points="373.7951040834438,436.2710670991394 373.7951040834438,397.01124879424486 391.1156121591325,392.01124879424486 391.1156121591325,431.2710670991394" />
  <polygon fill="hsl(288.0,50.0%,42.21758785095096%)" points="378.12523110236594,393.7982578790001 378.12523110236594,376.1313396417976 386.7854851402103,373.6313396417976 386.7854851402103,391.2982578790001" />
  <polygon fill="hsl(288.0,50.0%,42.21758785095096%)" points="379.85728190993484,395.26124879424486 379.85728190993484,375.6313396417976 385.0534343326415,374.1313396417976 385.0534343326415,393.76124879424486" />
</svg>
