<?xml version="1.0" encoding="UTF-8"?>
<svg
  xmlns="http://www.w3.org/2000/svg"
  width="848"
  height="600"
  style="background-color:white"
>
  <polygon fill="lightblue" points="365.65599521949116,523.9075596366208 206.25720984209948,385.86416216741617 482.34400478050884,306.1647694787203 641.7427901579006,444.20816694792495" />
  <polygon fill="steelblue" points="206.25720984209948,385.86416216741617 206.25720984209948,155.79183305207502 482.34400478050884,76.09244036337913 482.34400478050884,306.1647694787203" />
  <polygon fill="lightskyblue" points="641.7427901579006,444.20816694792495 641.7427901579006,214.13583783258383 482.34400478050884,76.09244036337913 482.34400478050884,306.1647694787203" />
  <polygon fill="white" points="570.0133367380743,382.08863808678285 570.0133367380743,290.05970644064644 554.0734582003352,276.25536669372593 554.0734582003352,368.2842983398624" />
  <polygon fill="white" points="240.76805920940066,339.0901654228746 240.76805920940066,302.27859276442 263.77529212093475,295.6369767070287 263.77529212093475,332.44854936548325" />
  <polygon fill="white" points="286.7825250324689,325.80693330809197 286.7825250324689,288.99536064963735 309.789757944003,282.353744592246 309.789757944003,319.16531725070064" />
  <polygon fill="white" points="332.7969908555371,312.5237011933093 332.7969908555371,275.71212853485474 355.8042237670712,269.0705124774634 355.8042237670712,305.882085135918" />
  <polygon fill="white" points="378.81145667860534,299.24046907852664 378.81145667860534,262.4288964200721 401.81868959013946,255.78728036268075 401.81868959013946,292.59885302113537" />
  <polygon fill="white" points="424.8259225016736,285.95723696374404 424.8259225016736,249.14566430528942 447.8331554132077,242.5040482478981 447.8331554132077,279.3156209063527" />
</svg>
