<?xml version="1.0" encoding="UTF-8"?>
<svg
  xmlns="http://www.w3.org/2000/svg"
  width="848"
  height="600"
  style="background-color:white"
>
  <polygon fill="lightblue" points="365.65599521949116,523.9075596366208 206.25720984209948,385.86416216741617 482.34400478050884,306.1647694787203 641.7427901579006,444.20816694792495" />
  <polygon fill="steelblue" points="206.25720984209948,385.86416216741617 206.25720984209948,155.79183305207502 482.34400478050884,76.09244036337913 482.34400478050884,306.1647694787203" />
  <polygon fill="lightskyblue" points="641.7427901579006,444.20816694792495 641.7427901579006,214.13583783258383 482.34400478050884,76.09244036337913 482.34400478050884,306.1647694787203" />
  <polygon fill="white" points="543.4468725085089,359.08140517524873 543.4468725085089,267.05247352911226 527.5069939707698,253.24813378219184 527.5069939707698,345.2770654283283" />
  <polygon fill="white" points="596.5798009676396,405.09587099831697 596.5798009676396,313.06693935218055 580.6399224299004,299.26259960526005 580.6399224299004,391.2915312513965" />
  <polygon fill="white" points="286.7825250324689,325.80693330809197 286.7825250324689,288.99536064963735 309.789757944003,282.353744592246 309.789757944003,319.16531725070064" />
  <polygon fill="white" points="378.81145667860534,299.24046907852664 378.81145667860534,262.4288964200721 401.81868959013946,255.78728036268075 401.81868959013946,292.59885302113537" />
  <polygon fill="grey" points="472.6200039837574,126.4477989526853 472.6200039837574,103.44056604115119 495.6272368952915,96.79894998375985 495.6272368952915,119.806182895294" />
  <polygon fill="lightgrey" points="472.6200039837574,126.4477989526853 472.6200039837574,103.44056604115119 459.3367718689747,91.93694958538413 459.3367718689747,114.94418249691824" />
  <polygon fill="darkgrey" points="472.6200039837574,103.44056604115119 459.3367718689747,91.93694958538413 482.34400478050884,85.29533352799282 495.6272368952915,96.79894998375985" />
  <polygon fill="hsl(360.0,50.0%,50.65955712546234%)" points="466.7705177836823,430.9377566238526 466.7705177836823,399.3350214965693 472.29225368245045,397.7410336427954 472.29225368245045,429.3437687700786" />
  <polygon fill="hsl(360.0,50.0%,50.65955712546234%)" points="480.57485753060274,426.95278698941775 480.57485753060274,395.3500518621345 475.05312163183453,396.9440397159084 475.05312163183453,428.54677484319166" />
  <polygon fill="hsl(360.0,50.0%,50.65955712546234%)" points="461.2487818849141,401.2419077179401 461.2487818849141,369.95207095825367 466.08030079633625,368.5573315862015 466.08030079633625,399.8471683458879" />
  <polygon fill="hsl(360.0,50.0%,50.65955712546234%)" points="481.2650745179488,395.4637017480096 481.2650745179488,364.1738649883232 486.09659342937096,362.779125616271 486.09659342937096,394.0689623759574" />
  <polygon fill="hsl(360.0,50.0%,50.65955712546234%)" points="466.08030079633625,373.38885049762365 466.08030079633625,368.5573315862015 481.2650745179488,364.1738649883232 481.2650745179488,369.00538389974537" />
  <polygon fill="hsl(360.0,50.0%,50.65955712546234%)" points="466.7705177836823,399.64791986416617 466.7705177836823,368.35808310447976 480.57485753060274,364.373113470045 480.57485753060274,395.66295022973134" />
  <polygon fill="hsl(360.0,50.0%,50.65955712546234%)" points="470.2216027204124,365.79734885788673 470.2216027204124,351.7169223160279 477.1237725938726,349.72443749881046 477.1237725938726,363.8048640406693" />
  <polygon fill="hsl(360.0,50.0%,50.65955712546234%)" points="471.60203669510446,366.9633437324276 471.60203669510446,351.31842535258437 475.7433386191806,350.12293446225397 475.7433386191806,365.7678528420971" />
</svg>
