<?xml version="1.0" encoding="UTF-8"?>
<svg
  xmlns="http://www.w3.org/2000/svg"
  width="848"
  height="600"
  style="background-color:white"
>
  <polygon fill="lightblue" points="314.1923788646684,764.7114317029974 14.192378864668399,504.90381056766586 533.8076211353316,354.90381056766574 833.8076211353316,614.7114317029973" />
  <polygon fill="steelblue" points="14.192378864668399,504.90381056766586 14.192378864668399,-14.711431702997345 533.8076211353316,-164.7114317029974 533.8076211353316,354.90381056766574" />
  <polygon fill="lightskyblue" points="833.8076211353316,614.7114317029973 833.8076211353316,95.09618943233414 533.8076211353316,-164.7114317029974 533.8076211353316,354.90381056766574" />
  <polygon fill="white" points="698.8076211353316,497.7980021920981 698.8076211353316,324.5929214352104 668.8076211353316,298.61215932167727 668.8076211353316,471.81724007856496" />
  <polygon fill="white" points="66.77249266586648,420.4432068363393 66.77249266586648,351.1611745335842 110.07376285508843,338.6611745335842 110.07376285508843,407.9432068363393" />
  <polygon fill="white" points="141.0032415616755,399.01463540776786 141.0032415616755,329.73260310501274 184.30451175089743,317.23260310501274 184.30451175089743,386.51463540776786" />
  <polygon fill="white" points="215.2339904574845,377.58606397919647 215.2339904574845,308.3040316764413 258.53526064670643,295.8040316764413 258.53526064670643,365.0860639791964" />
  <polygon fill="white" points="289.46473935329357,356.15749255062497 289.46473935329357,286.87546024786985 332.76600954251546,274.37546024786985 332.76600954251546,343.65749255062497" />
  <polygon fill="white" points="363.6954882491026,334.7289211220536 363.6954882491026,265.44688881929847 406.9967584383245,252.94688881929844 406.9967584383245,322.2289211220535" />
  <polygon fill="white" points="437.92623714491157,313.30034969348213 437.92623714491157,244.01831739072702 481.22750733413346,231.51831739072702 481.22750733413346,300.80034969348213" />
</svg>
