<?xml version="1.0" encoding="UTF-8"?>
<svg
  xmlns="http://www.w3.org/2000/svg"
  width="848"
  height="600"
  style="background-color:white"
>
  <polygon fill="lightblue" points="314.1923788646684,634.8076211353316 14.192378864668399,375.00000000000006 533.8076211353316,224.99999999999997 833.8076211353316,484.80762113533154" />
  <polygon fill="steelblue" points="14.192378864668399,375.00000000000006 14.192378864668399,115.19237886466846 533.8076211353316,-34.80762113533166 533.8076211353316,224.99999999999997" />
  <polygon fill="lightskyblue" points="833.8076211353316,484.80762113533154 833.8076211353316,224.99999999999994 533.8076211353316,-34.80762113533166 533.8076211353316,224.99999999999997" />
  <polygon fill="white" points="698.8076211353316,367.8941916244323 698.8076211353316,194.68911086754463 668.8076211353316,168.70834875401147 668.8076211353316,341.91342951089916" />
  <polygon fill="white" points="96.46479222419009,281.9679676972449 96.46479222419009,212.68593539448983 139.76606241341204,200.18593539448983 139.76606241341204,269.46796769724494" />
  <polygon fill="white" points="200.3878406783227,251.96796769724492 200.3878406783227,182.6859353944898 243.68911086754463,170.1859353944898 243.68911086754463,239.4679676972449" />
  <polygon fill="white" points="304.3108891324553,221.9679676972449 304.3108891324553,152.6859353944898 347.61215932167727,140.1859353944898 347.61215932167727,209.4679676972449" />
  <polygon fill="white" points="408.23393758658796,191.9679676972449 408.23393758658796,122.6859353944898 451.5352077758099,110.1859353944898 451.5352077758099,179.4679676972449" />
</svg>
