<?xml version="1.0" encoding="UTF-8"?>
<svg
  xmlns="http://www.w3.org/2000/svg"
  width="848"
  height="600"
  style="background-color:white"
>
  <polygon fill="lightblue" points="385.1771432346219,464.3003023260493 279.1111260566398,372.44443697168015 462.8228567653781,319.41142838268905 568.8888739433602,411.2672937370582" />
  <polygon fill="steelblue" points="279.1111260566398,372.44443697168015 279.1111260566398,188.7327062629418 462.8228567653781,135.6996976739507 462.8228567653781,319.41142838268905" />
  <polygon fill="lightskyblue" points="568.8888739433602,411.2672937370582 568.8888739433602,227.55556302831985 462.8228567653781,135.6996976739507 462.8228567653781,319.41142838268905" />
  <polygon fill="white" points="521.1591662132682,369.93215432759206 521.1591662132682,308.6949107580126 510.55256449547005,299.50932422257574 510.55256449547005,360.7465677921552" />
  <polygon fill="white" points="308.19881675219006,339.5526465172581 308.19881675219006,315.0577490894263 323.5081276445849,310.63833170701037 323.5081276445849,335.13322913484217" />
  <polygon fill="white" points="344.9411628939377,328.94604479945986 344.9411628939377,304.4511473716281 360.2504737863325,300.0317299892122 360.2504737863326,324.526627417044" />
  <polygon fill="white" points="381.68350903568535,318.33944308166167 381.68350903568535,293.84454565382987 396.9928199280802,289.42512827141394 396.9928199280802,313.92002569924574" />
  <polygon fill="white" points="418.425855177433,307.73284136386343 418.425855177433,283.2379439360317 433.73516606982787,278.81852655361575 433.73516606982787,303.3134239814475" />
</svg>
