<?xml version="1.0" encoding="UTF-8"?>
<svg
  xmlns="http://www.w3.org/2000/svg"
  width="848"
  height="600"
  style="background-color:white"
>
  <polygon fill="lightblue" points="314.1923788646684,678.1088913245535 14.192378864668399,418.30127018922195 533.8076211353316,268.3012701892219 833.8076211353316,528.1088913245535" />
  <polygon fill="steelblue" points="14.192378864668399,418.30127018922195 14.192378864668399,71.89110867544653 533.8076211353316,-78.10889132455355 533.8076211353316,268.3012701892219" />
  <polygon fill="lightskyblue" points="833.8076211353316,528.1088913245535 833.8076211353316,181.69872981077805 533.8076211353316,-78.10889132455355 533.8076211353316,268.3012701892219" />
  <polygon fill="white" points="698.8076211353316,411.1954618136542 698.8076211353316,237.99038105676655 668.8076211353316,212.0096189432334 668.8076211353316,385.2146997001211" />
  <polygon fill="white" points="66.77249266586648,333.8406664578954 66.77249266586648,264.55863415514034 110.07376285508843,252.05863415514034 110.07376285508843,321.3406664578954" />
  <polygon fill="white" points="141.0032415616755,312.412095029324 141.0032415616755,243.1300627265689 184.30451175089743,230.6300627265689 184.30451175089743,299.912095029324" />
  <polygon fill="white" points="215.2339904574845,290.98352360075256 215.2339904574845,221.70149129799745 258.53526064670643,209.20149129799745 258.53526064670643,278.48352360075256" />
  <polygon fill="white" points="289.46473935329357,269.5549521721811 289.46473935329357,200.272919869426 332.76600954251546,187.772919869426 332.76600954251546,257.0549521721811" />
  <polygon fill="white" points="363.6954882491026,248.12638074360967 363.69548824910254,178.84434844085456 406.9967584383245,166.34434844085456 406.9967584383245,235.62638074360967" />
  <polygon fill="white" points="437.92623714491157,226.69780931503823 437.92623714491157,157.41577701228314 481.22750733413346,144.91577701228314 481.22750733413346,214.19780931503823" />
</svg>
