<?xml version="1.0" encoding="UTF-8"?>
<svg
  xmlns="http://www.w3.org/2000/svg"
  width="848"
  height="600"
  style="background-color:white"
>
  <polygon fill="lightblue" points="361.15082607274286,516.4133165676332 189.4436896897431,367.7105744488761 486.84917392725714,281.8570062573762 658.5563103102569,430.55974837613326" />
  <polygon fill="steelblue" points="189.4436896897431,367.7105744488761 189.4436896897431,169.44025162386677 486.84917392725714,83.58668343236684 486.84917392725714,281.8570062573762" />
  <polygon fill="lightskyblue" points="658.5563103102569,430.55974837613326 658.5563103102569,232.28942555112388 486.84917392725714,83.58668343236684 486.84917392725714,281.8570062573762" />
  <polygon fill="white" points="581.2880989379071,363.6435144226926 581.2880989379071,264.5083530101879 564.117385299607,249.6380787983122 564.117385299607,348.7732402108169" />
  <polygon fill="white" points="276.18695592568474,303.0158858280201 276.18695592568474,263.3618212630182 300.97074627881085,256.2073572470599 300.97074627881085,295.8614218120618" />
  <polygon fill="white" points="375.3221173381894,274.3980297641868 375.3221173381894,234.7439651991849 400.10590769131556,227.58950118322662 400.10590769131556,267.2435657482285" />
  <polygon fill="antiquewhite" points="498.62137221914156,417.782331418876 498.62137221914156,333.517444218247 518.4484045016425,327.79387300548035 518.4484045016426,412.05876020610935" />
  <polygon fill="beige" points="498.62137221914156,417.782331418876 498.62137221914156,333.517444218247 487.1742297936083,323.60392807699657 487.1742297936083,407.8688152776256" />
  <polygon fill="bisque" points="498.62137221914156,333.517444218247 487.1742297936083,323.60392807699657 507.0012620761092,317.8803568642299 518.4484045016425,327.79387300548035" />
  <polygon fill="antiquewhite" points="376.0045947448963,499.208025426581 376.0045947448963,414.943138225952 395.83162702739725,409.2195670131853 395.83162702739725,493.4844542138143" />
  <polygon fill="beige" points="376.0045947448963,499.208025426581 376.0045947448963,414.943138225952 364.557452319363,405.02962208470154 364.557452319363,489.2945092853305" />
  <polygon fill="bisque" points="376.0045947448963,414.943138225952 364.557452319363,405.02962208470154 384.3844846018639,399.3060508719349 395.83162702739725,409.2195670131853" />
</svg>
