<?xml version="1.0" encoding="UTF-8"?>
<svg
  xmlns="http://www.w3.org/2000/svg"
  width="848"
  height="600"
  style="background-color:white"
>
  <polygon fill="lightblue" points="381.4716912056207,463.21145374654304 265.28219081939824,362.58839475905245 466.5283087943793,304.49364456594117 582.7178091806018,405.11670355343176" />
  <polygon fill="steelblue" points="265.28219081939824,362.58839475905245 265.28219081939824,194.88329644656827 466.5283087943793,136.78854625345696 466.5283087943793,304.49364456594117" />
  <polygon fill="lightskyblue" points="582.7178091806018,405.11670355343176 582.7178091806018,237.41160524094752 466.5283087943793,136.78854625345696 466.5283087943793,304.49364456594117" />
  <polygon fill="white" points="530.4325340068017,359.836327009061 530.4325340068017,292.7542876840673 518.8135839681794,282.69198178531826 518.8135839681794,349.77402111031193" />
  <polygon fill="white" points="290.43795556627083,328.4937352549161 290.43795556627083,301.6609195249186 307.20846539751926,296.81969034215933 307.20846539751926,323.6525060721568" />
  <polygon fill="white" points="323.9789752287677,318.81127688939756 323.9789752287677,291.97846115940007 340.7494850600161,287.1372319766408 340.7494850600161,313.9700477066383" />
  <polygon fill="white" points="357.51999489126456,309.128818523879 357.51999489126456,282.29600279388154 374.290504722513,277.4547736111223 374.290504722513,304.2875893411197" />
  <polygon fill="white" points="391.06101455376137,299.44636015836045 391.06101455376137,272.61354442836296 407.8315243850098,267.7723152456037 407.8315243850098,294.6051309756012" />
  <polygon fill="white" points="424.60203421625823,289.7639017928419 424.60203421625823,262.93108606284443 441.37254404750666,258.08985688008516 441.37254404750666,284.92267261008266" />
</svg>
