<?xml version="1.0" encoding="UTF-8"?>
<svg
  xmlns="http://www.w3.org/2000/svg"
  width="848"
  height="600"
  style="background-color:white"
>
  <polygon fill="lightblue" points="385.1771432346219,464.3003023260493 279.1111260566398,372.44443697168015 462.8228567653781,319.41142838268905 568.8888739433602,411.2672937370582" />
  <polygon fill="steelblue" points="279.1111260566398,372.44443697168015 279.1111260566398,188.7327062629418 462.8228567653781,135.6996976739507 462.8228567653781,319.41142838268905" />
  <polygon fill="lightskyblue" points="568.8888739433602,411.2672937370582 568.8888739433602,227.55556302831985 462.8228567653781,135.6996976739507 462.8228567653781,319.41142838268905" />
  <polygon fill="white" points="521.1591662132682,369.93215432759206 521.1591662132682,308.6949107580126 510.55256449547005,299.50932422257574 510.55256449547005,360.7465677921552" />
  <polygon fill="white" points="302.0750923952321,341.3204134702245 302.0750923952321,316.8255160423927 317.3844032876269,312.40609865997675 317.3844032876269,336.90099608780855" />
  <polygon fill="white" points="332.6937141800218,332.4815787053926 332.6937141800218,307.9866812775608 348.0030250724167,303.5672638951449 348.0030250724167,328.0621613229767" />
  <polygon fill="white" points="363.3123359648115,323.64274394056076 363.3123359648115,299.14784651272896 378.6216468572064,294.7284291303131 378.6216468572064,319.22332655814483" />
  <polygon fill="white" points="393.93095774960125,314.8039091757289 393.93095774960125,290.30901174789716 409.24026864199607,285.88959436548123 409.2402686419961,310.384491793313" />
  <polygon fill="white" points="424.54957953439094,305.96507441089705 424.54957953439094,281.4701769830653 439.8588904267858,277.05075960064937 439.8588904267858,301.5456570284812" />
</svg>
