<?xml version="1.0" encoding="UTF-8"?>
<svg
  xmlns="http://www.w3.org/2000/svg"
  width="848"
  height="600"
  style="background-color:white"
>
  <polygon fill="lightblue" points="369.0961894323342,532.3557158514986 219.0961894323342,402.45190528383296 478.9038105676658,327.4519052838329 628.9038105676658,457.35571585149864" />
  <polygon fill="steelblue" points="219.0961894323342,402.45190528383296 219.0961894323342,142.64428414850133 478.9038105676658,67.6442841485013 478.9038105676658,327.4519052838329" />
  <polygon fill="lightskyblue" points="628.9038105676658,457.35571585149864 628.9038105676658,197.54809471616707 478.9038105676658,67.6442841485013 478.9038105676658,327.4519052838329" />
  <polygon fill="white" points="561.4038105676658,398.89900109604906 561.4038105676658,312.2964607176052 546.4038105676658,299.30607966083863 546.4038105676658,385.9086200392825" />
  <polygon fill="white" points="338.1746824526945,333.4358891324554 338.1746824526945,298.7948729810778 359.8253175473055,292.5448729810778 359.8253175473055,327.1858891324554" />
  <polygon fill="hsl(360.0,50.0%,50.65955712546234%)" points="464.2485982083418,444.8677816185118 464.2485982083418,415.12846925255417 469.4447506310484,413.62846925255417 469.4447506310484,443.3677816185118" />
  <polygon fill="hsl(360.0,50.0%,50.65955712546234%)" points="477.23897926510836,441.1177816185118 477.23897926510836,411.37846925255417 472.0428268424017,412.87846925255417 472.0428268424017,442.6177816185118" />
  <polygon fill="hsl(360.0,50.0%,50.65955712546234%)" points="459.05244578563514,416.92291788984085 459.05244578563514,387.4780541611699 463.59907915550343,386.1655541611699 463.59907915550343,415.61041788984085" />
  <polygon fill="hsl(360.0,50.0%,50.65955712546234%)" points="477.8884983179467,411.48541788984085 477.8884983179467,382.0405541611699 482.435131687815,380.7280541611699 482.435131687815,410.17291788984085" />
  <polygon fill="hsl(360.0,50.0%,50.65955712546234%)" points="463.59907915550343,390.71218753103824 463.59907915550343,386.1655541611699 477.8884983179467,382.0405541611699 477.8884983179467,386.58718753103824" />
  <polygon fill="hsl(360.0,50.0%,50.65955712546234%)" points="464.2485982083418,415.42291788984085 464.2485982083418,385.9780541611699 477.23897926510836,382.2280541611699 477.23897926510836,411.67291788984085" />
  <polygon fill="hsl(360.0,50.0%,50.65955712546234%)" points="467.49619347253343,383.5683109747364 467.49619347253343,370.3181222968345 473.9913840009167,368.4431222968345 473.9913840009167,381.6933109747364" />
  <polygon fill="hsl(360.0,50.0%,50.65955712546234%)" points="468.79523157821006,384.6655541611699 468.79523157821006,369.9431222968345 472.69234589524007,368.8181222968345 472.69234589524007,383.5405541611699" />
  <polygon fill="hsl(360.0,50.0%,42.21758785095096%)" points="386.3463280625828,496.6000693368584 386.3463280625828,466.86075697090075 391.54248048528945,465.36075697090075 391.54248048528945,495.1000693368584" />
  <polygon fill="hsl(360.0,50.0%,42.21758785095096%)" points="399.3367091193494,492.8500693368584 399.3367091193494,463.11075697090075 394.14055669664276,464.61075697090075 394.14055669664276,494.3500693368584" />
  <polygon fill="hsl(360.0,50.0%,42.21758785095096%)" points="381.1501756398762,468.65520560818743 381.1501756398762,439.21034187951653 385.69680900974447,437.89784187951653 385.69680900974447,467.34270560818743" />
  <polygon fill="hsl(360.0,50.0%,42.21758785095096%)" points="399.98622817218774,463.21770560818743 399.98622817218774,433.77284187951653 404.532861542056,432.4603418795165 404.532861542056,461.90520560818743" />
  <polygon fill="hsl(360.0,50.0%,42.21758785095096%)" points="385.69680900974447,442.4444752493848 385.69680900974447,437.89784187951653 399.98622817218774,433.77284187951653 399.98622817218774,438.3194752493848" />
  <polygon fill="hsl(360.0,50.0%,42.21758785095096%)" points="386.3463280625828,467.15520560818743 386.3463280625828,437.7103418795165 399.3367091193494,433.96034187951653 399.3367091193494,463.40520560818743" />
  <polygon fill="hsl(360.0,50.0%,42.21758785095096%)" points="389.5939233267745,435.300598693083 389.5939233267745,422.05041001518106 396.08911385515773,420.1754100151811 396.08911385515773,433.425598693083" />
  <polygon fill="hsl(360.0,50.0%,42.21758785095096%)" points="390.8929614324511,436.3978418795165 390.8929614324511,421.67541001518106 394.7900757494811,420.55041001518106 394.7900757494811,435.2728418795165" />
</svg>
