<?xml version="1.0" encoding="UTF-8"?>
<svg
  xmlns="http://www.w3.org/2000/svg"
  width="848"
  height="600"
  style="background-color:white"
>
  <polygon fill="lightblue" points="314.1923788646684,721.4101615137755 14.192378864668399,461.6025403784439 533.8076211353316,311.6025403784438 833.8076211353316,571.4101615137754" />
  <polygon fill="steelblue" points="14.192378864668399,461.6025403784439 14.192378864668399,28.589838486224608 533.8076211353316,-121.4101615137755 533.8076211353316,311.6025403784438" />
  <polygon fill="lightskyblue" points="833.8076211353316,571.4101615137754 833.8076211353316,138.39745962155612 533.8076211353316,-121.4101615137755 533.8076211353316,311.6025403784438" />
  <polygon fill="white" points="698.8076211353316,454.4967320028762 698.8076211353316,281.2916512459885 668.8076211353316,255.31088913245532 668.8076211353316,428.515969889343" />
  <polygon fill="white" points="66.77249266586648,377.1419366471174 66.77249266586648,307.85990434436223 110.07376285508843,295.35990434436223 110.07376285508843,364.6419366471174" />
  <polygon fill="white" points="141.0032415616755,355.71336521854596 141.0032415616755,286.4313329157908 184.30451175089743,273.9313329157908 184.30451175089743,343.21336521854596" />
  <polygon fill="white" points="215.2339904574845,334.2847937899745 215.2339904574845,265.0027614872194 258.53526064670643,252.5027614872194 258.53526064670643,321.7847937899745" />
  <polygon fill="white" points="289.46473935329357,312.85622236140307 289.46473935329357,243.57419005864796 332.76600954251546,231.07419005864796 332.76600954251546,300.35622236140307" />
  <polygon fill="white" points="363.6954882491026,291.4276509328316 363.69548824910254,222.1456186300765 406.9967584383245,209.6456186300765 406.9967584383245,278.9276509328316" />
  <polygon fill="white" points="437.92623714491157,269.9990795042602 437.92623714491157,200.71704720150507 481.22750733413346,188.2170472015051 481.22750733413346,257.4990795042602" />
</svg>
