<?xml version="1.0" encoding="UTF-8"?>
<svg
  xmlns="http://www.w3.org/2000/svg"
  width="848"
  height="600"
  style="background-color:white"
>
  <polygon fill="lightblue" points="361.15082607274286,516.4133165676332 189.4436896897431,367.7105744488761 486.84917392725714,281.8570062573762 658.5563103102569,430.55974837613326" />
  <polygon fill="steelblue" points="189.4436896897431,367.7105744488761 189.4436896897431,169.44025162386677 486.84917392725714,83.58668343236684 486.84917392725714,281.8570062573762" />
  <polygon fill="lightskyblue" points="658.5563103102569,430.55974837613326 658.5563103102569,232.28942555112388 486.84917392725714,83.58668343236684 486.84917392725714,281.8570062573762" />
  <polygon fill="white" points="581.2880989379071,363.6435144226926 581.2880989379071,264.5083530101879 564.117385299607,249.6380787983122 564.117385299607,348.7732402108169" />
  <polygon fill="white" points="219.53829226139632,319.36894643592484 219.53829226139632,279.71488187092297 244.3220826145225,272.56041785496467 244.3220826145225,312.21448241996654" />
  <polygon fill="white" points="262.0247900096126,307.1041509799963 262.0247900096126,267.4500864149944 286.8085803627388,260.2956223990361 286.8085803627388,299.949686964038" />
  <polygon fill="white" points="304.5112877578289,294.83935552406774 304.5112877578289,255.18529095906587 329.29507811095505,248.03082694310754 329.29507811095505,287.6848915081094" />
  <polygon fill="white" points="346.99778550604515,282.5745600681392 346.99778550604515,242.92049550313732 371.78157585917137,235.76603148717896 371.78157585917137,275.42009605218084" />
  <polygon fill="white" points="389.48428325426147,270.30976461221064 389.48428325426147,230.65570004720874 414.26807360738763,223.50123603125041 414.26807360738763,263.1553005962523" />
  <polygon fill="white" points="431.97078100247774,258.04496915628204 431.97078100247774,218.3909045912802 456.7545713556039,211.23644057532186 456.7545713556039,250.89050514032374" />
  <polygon fill="antiquewhite" points="498.62137221914156,417.782331418876 498.62137221914156,333.517444218247 518.4484045016425,327.79387300548035 518.4484045016426,412.05876020610935" />
  <polygon fill="beige" points="498.62137221914156,417.782331418876 498.62137221914156,333.517444218247 487.1742297936083,323.60392807699657 487.1742297936083,407.8688152776256" />
  <polygon fill="bisque" points="498.62137221914156,333.517444218247 487.1742297936083,323.60392807699657 507.0012620761092,317.8803568642299 518.4484045016425,327.79387300548035" />
  <polygon fill="antiquewhite" points="376.0045947448963,499.208025426581 376.0045947448963,414.943138225952 395.83162702739725,409.2195670131853 395.83162702739725,493.4844542138143" />
  <polygon fill="beige" points="376.0045947448963,499.208025426581 376.0045947448963,414.943138225952 364.557452319363,405.02962208470154 364.557452319363,489.2945092853305" />
  <polygon fill="bisque" points="376.0045947448963,414.943138225952 364.557452319363,405.02962208470154 384.3844846018639,399.3060508719349 395.83162702739725,409.2195670131853" />
  <polygon fill="antiquewhite" points="445.4847611360362,316.26337598449305 445.4847611360362,231.99848878386408 465.31179341853715,226.27491757109743 465.31179341853715,310.5398047717264" />
  <polygon fill="beige" points="445.4847611360362,316.26337598449305 445.4847611360362,231.99848878386408 434.03761871050284,222.0849726426136 434.03761871050284,306.34985984324254" />
  <polygon fill="bisque" points="445.4847611360362,231.99848878386408 434.03761871050284,222.0849726426136 453.8646509930038,216.36140142984692 465.31179341853715,226.27491757109743" />
</svg>
