<?xml version="1.0" encoding="UTF-8"?>
<svg
  xmlns="http://www.w3.org/2000/svg"
  width="848"
  height="600"
  style="background-color:white"
>
  <polygon fill="lightblue" points="361.15082607274286,516.4133165676332 189.4436896897431,367.7105744488761 486.84917392725714,281.8570062573762 658.5563103102569,430.55974837613326" />
  <polygon fill="steelblue" points="189.4436896897431,367.7105744488761 189.4436896897431,169.44025162386677 486.84917392725714,83.58668343236684 486.84917392725714,281.8570062573762" />
  <polygon fill="lightskyblue" points="658.5563103102569,430.55974837613326 658.5563103102569,232.28942555112388 486.84917392725714,83.58668343236684 486.84917392725714,281.8570062573762" />
  <polygon fill="white" points="581.2880989379071,363.6435144226926 581.2880989379071,264.5083530101879 564.117385299607,249.6380787983122 564.117385299607,348.7732402108169" />
  <polygon fill="white" points="236.53289136068284,314.46302825355343 236.53289136068284,274.80896368855156 261.316681713809,267.6544996725932 261.316681713809,307.3085642375951" />
  <polygon fill="white" points="296.01398820818565,297.2923146152534 296.01398820818565,257.6382500502516 320.7977785613118,250.48378603429325 320.7977785613118,290.1378505992951" />
  <polygon fill="white" points="355.49508505568843,280.12160097695346 355.49508505568843,240.46753641195158 380.2788754088146,233.3130723959933 380.2788754088146,272.96713696099516" />
  <polygon fill="white" points="414.9761819031913,262.9508873386535 414.9761819031913,223.2968227736516 439.7599722563174,216.14235875769327 439.7599722563174,255.79642332269515" />
  <polygon fill="antiquewhite" points="498.62137221914156,417.782331418876 498.62137221914156,333.517444218247 518.4484045016425,327.79387300548035 518.4484045016426,412.05876020610935" />
  <polygon fill="beige" points="498.62137221914156,417.782331418876 498.62137221914156,333.517444218247 487.1742297936083,323.60392807699657 487.1742297936083,407.8688152776256" />
  <polygon fill="bisque" points="498.62137221914156,333.517444218247 487.1742297936083,323.60392807699657 507.0012620761092,317.8803568642299 518.4484045016425,327.79387300548035" />
</svg>
