<?xml version="1.0" encoding="UTF-8"?>
<svg
  xmlns="http://www.w3.org/2000/svg"
  width="848"
  height="600"
  style="background-color:white"
>
  <polygon fill="lightblue" points="314.1923788646684,764.7114317029974 14.192378864668399,504.90381056766586 533.8076211353316,354.90381056766574 833.8076211353316,614.7114317029973" />
  <polygon fill="steelblue" points="14.192378864668399,504.90381056766586 14.192378864668399,-14.711431702997345 533.8076211353316,-164.7114317029974 533.8076211353316,354.90381056766574" />
  <polygon fill="lightskyblue" points="833.8076211353316,614.7114317029973 833.8076211353316,95.09618943233414 533.8076211353316,-164.7114317029974 533.8076211353316,354.90381056766574" />
  <polygon fill="white" points="698.8076211353316,497.7980021920981 698.8076211353316,324.5929214352104 668.8076211353316,298.61215932167727 668.8076211353316,471.81724007856496" />
  <polygon fill="white" points="96.46479222419015,411.87177826491074 96.46479222419009,342.58974596215563 139.76606241341204,330.08974596215563 139.76606241341204,399.37177826491074" />
  <polygon fill="white" points="200.3878406783227,381.87177826491074 200.3878406783227,312.58974596215563 243.68911086754463,300.08974596215563 243.68911086754466,369.37177826491074" />
  <polygon fill="white" points="304.3108891324553,351.87177826491074 304.3108891324553,282.5897459621556 347.61215932167727,270.0897459621556 347.61215932167727,339.37177826491074" />
  <polygon fill="white" points="408.233937586588,321.8717782649107 408.23393758658796,252.58974596215558 451.5352077758099,240.08974596215558 451.5352077758099,309.3717782649107" />
</svg>
