<?xml version="1.0" encoding="UTF-8"?>
<svg
  xmlns="http://www.w3.org/2000/svg"
  width="848"
  height="600"
  style="background-color:white"
>
  <polygon fill="lightblue" points="357.48877012835976,529.0231509195919 175.7767108451458,371.6558914063447 490.51122987164024,280.79986176473767 672.2232891548542,438.1671212779849" />
  <polygon fill="steelblue" points="175.7767108451458,371.6558914063447 175.7767108451458,161.8328787220151 490.51122987164024,70.97684908040807 490.51122987164024,280.79986176473767" />
  <polygon fill="lightskyblue" points="672.2232891548542,438.1671212779849 672.2232891548542,228.34410859365528 490.51122987164024,70.97684908040807 490.51122987164024,280.79986176473767" />
  <polygon fill="white" points="590.452862477408,367.3518544970236 590.452862477408,262.44034815485884 572.2816565490865,246.70362220353414 572.2816565490865,351.61512854569895" />
  <polygon fill="white" points="225.60967635767412,315.305750842891 225.60967635767412,273.34114830602505 251.83755294321531,265.76981250255784 251.83755294321531,307.73441503942377" />
  <polygon fill="white" points="288.556580162973,297.1345449145696 288.556580162973,255.16994237770368 314.7844567485142,247.59860657423644 314.7844567485142,289.56320911110237" />
  <polygon fill="white" points="351.50348396827184,278.96333898624823 351.50348396827184,236.99873644938228 377.73136055381303,229.42740064591504 377.73136055381303,271.39200318278097" />
  <polygon fill="white" points="414.45038777357075,260.7921330579268 414.45038777357075,218.82753052106085 440.67826435911195,211.25619471759362 440.67826435911195,253.22079725445954" />
  <polygon fill="hsl(288.0,50.0%,50.65955712546234%)" points="472.7577044246697,423.0390663068556 472.7577044246697,387.0124550289562 479.05239480519964,385.195334436124 479.05239480519964,421.22194571402343" />
  <polygon fill="hsl(288.0,50.0%,50.65955712546234%)" points="488.49443037599445,418.49626482477527 488.49443037599445,382.46965354687586 482.19973999546454,384.286774139708 482.19973999546454,420.3133854176074" />
  <polygon fill="hsl(288.0,50.0%,50.65955712546234%)" points="466.46301404413987,389.1862747433517 466.46301404413987,353.5163625870157 471.9708681271035,351.9263820682875 471.9708681271035,387.5962942246236" />
  <polygon fill="hsl(288.0,50.0%,50.65955712546234%)" points="489.2812666735607,382.5992125943352 489.2812666735607,346.92930043799913 494.7891207565243,345.339319919271 494.78912075652437,381.0092320756071" />
  <polygon fill="hsl(288.0,50.0%,50.65955712546234%)" points="471.9708681271035,357.4342361512512 471.9708681271035,351.9263820682875 489.2812666735607,346.92930043799913 489.2812666735607,352.4371545209628" />
  <polygon fill="hsl(288.0,50.0%,50.65955712546234%)" points="472.7577044246697,387.36915415051953 472.7577044246697,351.6992419941835 488.49443037599445,347.1564405121032 488.49443037599445,382.8263526684392" />
  <polygon fill="hsl(288.0,50.0%,50.65955712546234%)" points="476.6918859125009,348.78004601584666 476.6918859125009,332.72858554549543 484.5602488881633,330.45718480445527 484.5602488881633,346.50864527480644" />
  <polygon fill="hsl(288.0,50.0%,50.65955712546234%)" points="478.2655585076334,350.1092614754554 478.2655585076334,332.2743053972874 482.9865762930308,330.91146495266327 482.9865762930308,348.7464210308313" />
</svg>
