<?xml version="1.0" encoding="UTF-8"?>
<svg
  xmlns="http://www.w3.org/2000/svg"
  width="848"
  height="600"
  style="background-color:white"
>
  <polygon fill="lightblue" points="361.15082607274286,516.4133165676332 189.4436896897431,367.7105744488761 486.84917392725714,281.8570062573762 658.5563103102569,430.55974837613326" />
  <polygon fill="steelblue" points="189.4436896897431,367.7105744488761 189.4436896897431,169.44025162386677 486.84917392725714,83.58668343236684 486.84917392725714,281.8570062573762" />
  <polygon fill="lightskyblue" points="658.5563103102569,430.55974837613326 658.5563103102569,232.28942555112388 486.84917392725714,83.58668343236684 486.84917392725714,281.8570062573762" />
  <polygon fill="white" points="581.2880989379071,363.6435144226926 581.2880989379071,264.5083530101879 564.117385299607,249.6380787983122 564.117385299607,348.7732402108169" />
  <polygon fill="white" points="226.61937521943236,317.32481385993674 226.61937521943236,277.67074929493486 251.40316557255855,270.51628527897657 251.40316557255855,310.17034984397844" />
  <polygon fill="white" points="276.18695592568474,303.0158858280201 276.18695592568474,263.3618212630182 300.97074627881085,256.2073572470599 300.97074627881085,295.8614218120618" />
  <polygon fill="white" points="325.75453663193707,288.70695779610344 325.75453663193707,249.05289323110156 350.53832698506324,241.89842921514327 350.53832698506324,281.55249378014514" />
  <polygon fill="white" points="375.3221173381894,274.3980297641868 375.3221173381894,234.7439651991849 400.10590769131556,227.58950118322662 400.10590769131556,267.2435657482285" />
  <polygon fill="white" points="424.88969804444173,260.08910173227014 424.88969804444173,220.43503716726826 449.6734883975679,213.28057315130997 449.6734883975679,252.93463771631184" />
</svg>
