<?xml version="1.0" encoding="UTF-8"?>
<svg
  xmlns="http://www.w3.org/2000/svg"
  width="848"
  height="600"
  style="background-color:white"
>
  <polygon fill="lightblue" points="381.4716912056207,463.21145374654304 265.28219081939824,362.58839475905245 466.5283087943793,304.49364456594117 582.7178091806018,405.11670355343176" />
  <polygon fill="steelblue" points="265.28219081939824,362.58839475905245 265.28219081939824,194.88329644656827 466.5283087943793,136.78854625345696 466.5283087943793,304.49364456594117" />
  <polygon fill="lightskyblue" points="582.7178091806018,405.11670355343176 582.7178091806018,237.41160524094752 466.5283087943793,136.78854625345696 466.5283087943793,304.49364456594117" />
  <polygon fill="white" points="530.4325340068017,359.836327009061 530.4325340068017,292.7542876840673 518.8135839681794,282.69198178531826 518.8135839681794,349.77402111031193" />
  <polygon fill="white" points="297.1461594987702,326.5572435818124 297.1461594987702,299.7244278518149 313.91666933001864,294.8831986690556 313.91666933001864,321.7160143990531" />
  <polygon fill="white" points="337.39538309376644,314.9382935431901 337.39538309376644,288.10547781319264 354.1658929250149,283.26424863043337 354.1658929250149,310.09706436043086" />
  <polygon fill="white" points="377.6446066887626,303.3193435045679 377.6446066887626,276.4865277745704 394.41511652001105,271.6452985918111 394.41511652001105,298.4781143218086" />
  <polygon fill="white" points="417.89383028375886,291.70039346594564 417.89383028375886,264.86757773594815 434.6643401150073,260.0263485531889 434.6643401150073,286.8591642831864" />
</svg>
