<?xml version="1.0" encoding="UTF-8"?>
<svg
  xmlns="http://www.w3.org/2000/svg"
  width="848"
  height="600"
  style="background-color:white"
>
  <polygon fill="lightblue" points="369.0961894323342,467.4038105676658 219.0961894323342,337.5 478.9038105676658,262.5 628.9038105676658,392.4038105676658" />
  <polygon fill="steelblue" points="219.0961894323342,337.5 219.0961894323342,207.59618943233423 478.9038105676658,132.59618943233417 478.9038105676658,262.5" />
  <polygon fill="lightskyblue" points="628.9038105676658,392.4038105676658 628.9038105676658,262.5 478.9038105676658,132.59618943233417 478.9038105676658,262.5" />
  <polygon fill="white" points="561.4038105676658,333.94709581221616 561.4038105676658,247.3445554337723 546.4038105676658,234.35417437700573 546.4038105676658,320.9567147554496" />
  <polygon fill="white" points="260.23239611209505,290.9839838486225 260.23239611209505,256.3429676972449 281.88303120670605,250.09296769724492 281.88303120670605,284.7339838486225" />
  <polygon fill="white" points="312.19392033916137,275.9839838486225 312.19392033916137,241.3429676972449 333.8445554337723,235.0929676972449 333.8445554337723,269.7339838486225" />
  <polygon fill="white" points="364.15544456622763,260.9839838486225 364.15544456622763,226.3429676972449 385.80607966083863,220.0929676972449 385.80607966083863,254.73398384862244" />
  <polygon fill="white" points="416.116968793294,245.98398384862244 416.116968793294,211.3429676972449 437.76760388790495,205.0929676972449 437.76760388790495,239.73398384862244" />
</svg>
