<?xml version="1.0" encoding="UTF-8"?>
<svg
  xmlns="http://www.w3.org/2000/svg"
  width="848"
  height="600"
  style="background-color:white"
>
  <polygon fill="lightblue" points="381.4716912056207,463.21145374654304 265.28219081939824,362.58839475905245 466.5283087943793,304.49364456594117 582.7178091806018,405.11670355343176" />
  <polygon fill="steelblue" points="265.28219081939824,362.58839475905245 265.28219081939824,194.88329644656827 466.5283087943793,136.78854625345696 466.5283087943793,304.49364456594117" />
  <polygon fill="lightskyblue" points="582.7178091806018,405.11670355343176 582.7178091806018,237.41160524094752 466.5283087943793,136.78854625345696 466.5283087943793,304.49364456594117" />
  <polygon fill="white" points="530.4325340068017,359.836327009061 530.4325340068017,292.7542876840673 518.8135839681794,282.69198178531826 518.8135839681794,349.77402111031193" />
  <polygon fill="white" points="285.6463813287713,329.87694359284734 285.6463813287713,303.04412786284985 302.4168911600197,298.2028986800906 302.4168911600197,325.0357144100881" />
  <polygon fill="white" points="314.3958267537686,321.57769356526 314.3958267537686,294.7448778352625 331.166336585017,289.90364865250325 331.166336585017,316.73646438250074" />
  <polygon fill="white" points="343.1452721787659,313.2784435376727 343.1452721787659,286.4456278076752 359.9157820100143,281.6043986249159 359.9157820100143,308.4372143549134" />
  <polygon fill="white" points="371.8947176037632,304.97919351008534 371.8947176037632,278.14637778008785 388.6652274350116,273.3051485973286 388.6652274350116,300.1379643273261" />
  <polygon fill="white" points="400.6441630287605,296.679943482498 400.6441630287605,269.8471277525005 417.41467286000886,265.00589856974125 417.41467286000886,291.83871429973874" />
  <polygon fill="white" points="429.39360845375774,288.38069345491067 429.39360845375774,261.54787772491323 446.16411828500617,256.70664854215397 446.16411828500617,283.5394642721514" />
</svg>
