<?xml version="1.0" encoding="UTF-8"?>
<svg
  xmlns="http://www.w3.org/2000/svg"
  width="848"
  height="600"
  style="background-color:white"
>
  <polygon fill="lightblue" points="361.15082607274286,516.4133165676332 189.4436896897431,367.7105744488761 486.84917392725714,281.8570062573762 658.5563103102569,430.55974837613326" />
  <polygon fill="steelblue" points="189.4436896897431,367.7105744488761 189.4436896897431,169.44025162386677 486.84917392725714,83.58668343236684 486.84917392725714,281.8570062573762" />
  <polygon fill="lightskyblue" points="658.5563103102569,430.55974837613326 658.5563103102569,232.28942555112388 486.84917392725714,83.58668343236684 486.84917392725714,281.8570062573762" />
  <polygon fill="white" points="236.53289136068284,314.46302825355343 236.53289136068284,274.80896368855156 261.316681713809,267.6544996725932 261.316681713809,307.3085642375951" />
  <polygon fill="white" points="296.01398820818565,297.2923146152534 296.01398820818565,257.6382500502516 320.7977785613118,250.48378603429325 320.7977785613118,290.1378505992951" />
  <polygon fill="white" points="355.49508505568843,280.12160097695346 355.49508505568843,240.46753641195158 380.2788754088146,233.3130723959933 380.2788754088146,272.96713696099516" />
  <polygon fill="white" points="414.9761819031913,262.9508873386535 414.9761819031913,223.2968227736516 439.7599722563174,216.14235875769327 439.7599722563174,255.79642332269515" />
  <polygon fill="grey" points="476.3743116060476,137.8303491192649 476.3743116060476,113.04655876613876 501.1581019591738,105.89209475018043 501.1581019591738,130.67588510330657" />
  <polygon fill="lightgrey" points="476.3743116060476,137.8303491192649 476.3743116060476,113.04655876613876 462.065383574131,100.65466358957565 462.065383574131,125.43845394270181" />
  <polygon fill="darkgrey" points="476.3743116060476,113.04655876613876 462.065383574131,100.65466358957565 486.84917392725714,93.50019957361732 501.1581019591738,105.89209475018043" />
  <polygon fill="hsl(324.0,50.0%,50.65955712546234%)" points="470.0731436118954,416.2646321995638 470.0731436118954,382.2216177705097 476.0212532966456,380.50454640667965 476.0212532966456,414.5475608357338" />
  <polygon fill="hsl(324.0,50.0%,50.65955712546234%)" points="484.94341782377103,411.9719537899888 484.94341782377103,377.9289393609347 478.9953081390207,379.64601072476466 478.9953081390207,413.6890251538188" />
  <polygon fill="hsl(324.0,50.0%,50.65955712546234%)" points="464.12503392714507,384.2757486831422 464.12503392714507,350.5697938028906 469.32962990130153,349.06735635953936 469.32962990130153,382.7733112397909" />
  <polygon fill="hsl(324.0,50.0%,50.65955712546234%)" points="485.6869315343648,378.05136498925845 485.6869315343648,344.3454101090069 490.89152750852134,342.8429726656556 490.89152750852134,376.5489275459072" />
  <polygon fill="hsl(324.0,50.0%,50.65955712546234%)" points="469.32962990130153,354.2719523336958 469.32962990130153,349.06735635953936 485.6869315343648,344.3454101090069 485.6869315343648,349.55000608316334" />
  <polygon fill="hsl(324.0,50.0%,50.65955712546234%)" points="470.0731436118954,382.5586773193122 470.0731436118954,348.8527224390606 484.94341782377103,344.5600440294856 484.94341782377103,378.2659989097372" />
  <polygon fill="hsl(324.0,50.0%,50.65955712546234%)" points="473.79071216486426,346.0942550926543 473.79071216486426,330.92657539654107 481.22584927080214,328.7802361917536 481.22584927080214,343.94791588786677" />
  <polygon fill="hsl(324.0,50.0%,50.65955712546234%)" points="475.27773958605184,347.35028499570933 475.27773958605184,330.4973075555836 479.73882184961457,329.2095040327111 479.73882184961457,346.06248147283685" />
  <polygon fill="hsl(324.0,50.0%,42.21758785095096%)" points="380.89730544880786,475.48331875062195 380.89730544880786,441.44030432156785 386.8454151335581,439.7232329577378 386.84541513355816,473.766247386792" />
  <polygon fill="hsl(324.0,50.0%,42.21758785095096%)" points="395.76757966068357,471.1906403410469 395.76757966068357,437.1476259119928 389.81946997593326,438.8646972758229 389.81946997593326,472.907711704877" />
  <polygon fill="hsl(324.0,50.0%,42.21758785095096%)" points="374.94919576405755,443.49443523420035 374.94919576405755,409.7884803539488 380.15379173821407,408.28604291059753 380.15379173821407,441.9919977908491" />
  <polygon fill="hsl(324.0,50.0%,42.21758785095096%)" points="396.51109337127735,437.2700515403166 396.51109337127735,403.56409666006505 401.7156893454338,402.0616592167138 401.7156893454338,435.76761409696536" />
  <polygon fill="hsl(324.0,50.0%,42.21758785095096%)" points="380.15379173821407,413.490638884754 380.15379173821407,408.28604291059753 396.51109337127735,403.56409666006505 396.51109337127735,408.7686926342215" />
  <polygon fill="hsl(324.0,50.0%,42.21758785095096%)" points="380.89730544880786,441.7773638703703 380.89730544880786,408.07140899011875 395.76757966068357,403.77873058054377 395.76757966068357,437.4846854607954" />
  <polygon fill="hsl(324.0,50.0%,42.21758785095096%)" points="384.6148740017768,405.3129416437124 384.6148740017768,390.14526194759924 392.0500111077146,387.9989227428117 392.0500111077146,403.16660243892494" />
  <polygon fill="hsl(324.0,50.0%,42.21758785095096%)" points="386.1019014229644,406.5689715467675 386.1019014229644,389.71599410664174 390.56298368652705,388.42819058376926 390.56298368652705,405.281168023895" />
</svg>
