<?xml version="1.0" encoding="UTF-8"?>
<svg
  xmlns="http://www.w3.org/2000/svg"
  width="848"
  height="600"
  style="background-color:white"
>
  <polygon fill="lightblue" points="385.1771432346219,464.3003023260493 279.1111260566398,372.44443697168015 462.8228567653781,319.41142838268905 568.8888739433602,411.2672937370582" />
  <polygon fill="steelblue" points="279.1111260566398,372.44443697168015 279.1111260566398,188.7327062629418 462.8228567653781,135.6996976739507 462.8228567653781,319.41142838268905" />
  <polygon fill="lightskyblue" points="568.8888739433602,411.2672937370582 568.8888739433602,227.55556302831985 462.8228567653781,135.6996976739507 462.8228567653781,319.41142838268905" />
  <polygon fill="white" points="521.1591662132682,369.93215432759206 521.1591662132682,308.6949107580126 510.55256449547005,299.50932422257574 510.55256449547005,360.7465677921552" />
  <polygon fill="white" points="297.7010035688335,342.5831041509147 297.7010035688335,318.0882067230829 313.0103144612284,313.668789340667 313.0103144612284,338.1636867684988" />
  <polygon fill="white" points="323.9455365272247,335.0069600667731 323.9455365272247,310.51206263894136 339.2548474196196,306.09264525652543 339.2548474196196,330.58754268435723" />
  <polygon fill="white" points="350.19006948561594,327.43081598263154 350.19006948561594,302.9359185547998 365.49938037801076,298.51650117238387 365.49938037801076,323.0113986002156" />
  <polygon fill="white" points="376.4346024440071,319.85467189849 376.4346024440071,295.3597744706582 391.743913336402,290.94035708824225 391.743913336402,315.43525451607405" />
  <polygon fill="white" points="402.6791354023983,312.2785278143484 402.6791354023983,287.7836303865166 417.98844629479316,283.3642130041007 417.98844629479316,307.8591104319325" />
  <polygon fill="white" points="428.92366836078946,304.7023837302068 428.92366836078946,280.20748630237506 444.23297925318434,275.78806891995913 444.23297925318434,300.2829663477909" />
</svg>
