<?xml version="1.0" encoding="UTF-8"?>
<svg
  xmlns="http://www.w3.org/2000/svg"
  width="848"
  height="600"
  style="background-color:white"
>
  <polygon fill="lightblue" points="354.82553334635725,510.915584766816 165.8373758621263,347.2470393710578 493.17446665364275,252.75296062894222 682.1626241378738,416.4215060247004" />
  <polygon fill="steelblue" points="165.8373758621263,347.2470393710578 165.8373758621263,183.57849397529955 493.17446665364275,89.08441523318402 493.17446665364275,252.75296062894222" />
  <polygon fill="lightskyblue" points="682.1626241378738,416.4215060247004 682.1626241378738,252.75296062894222 493.17446665364275,89.08441523318402 493.17446665364275,252.75296062894222" />
  <polygon fill="white" points="597.1179532699698,342.7706605966093 597.1179532699698,233.6582969994371 578.2191375215467,217.2914424598613 578.2191375215467,326.4038060570334" />
  <polygon fill="white" points="206.75451221106584,291.79033408942445 206.75451221106584,248.14538865055562 234.0326031103589,240.27088208871265 234.0326031103589,283.9158275275815" />
  <polygon fill="white" points="261.3106940096519,276.0413209657385 261.3106940096519,232.3963755268697 288.58878490894494,224.52186896502673 288.58878490894494,268.16681440389556" />
  <polygon fill="white" points="315.866875808238,260.2923078420526 315.866875808238,216.64736240318376 343.144966707531,208.7728558413408 343.144966707531,252.41780128020966" />
  <polygon fill="white" points="370.42305760682405,244.5432947183667 370.42305760682405,200.89834927949784 397.7011485061171,193.02384271765487 397.7011485061171,236.66878815652373" />
  <polygon fill="white" points="424.9792394054101,228.7942815946808 424.9792394054101,185.1493361558119 452.25733030470315,177.27482959396895 452.25733030470315,220.91977503283783" />
  <polygon fill="antiquewhite" points="506.13144742676405,402.35813895081515 506.13144742676405,309.6126298932188 527.9539201461985,303.3130246437444 527.9539201461985,396.05853370134076" />
  <polygon fill="beige" points="506.13144742676405,402.35813895081515 506.13144742676405,309.6126298932188 493.5322369278153,298.70139353350163 493.5322369278153,391.4469025910979" />
  <polygon fill="bisque" points="506.13144742676405,309.6126298932188 493.5322369278153,298.70139353350163 515.3547096472497,292.40178828402725 527.9539201461985,303.3130246437444" />
</svg>
