<?xml version="1.0" encoding="UTF-8"?>
<svg
  xmlns="http://www.w3.org/2000/svg"
  width="848"
  height="600"
  style="background-color:white"
>
  <polygon fill="lightblue" points="365.65599521949116,523.9075596366208 206.25720984209948,385.86416216741617 482.34400478050884,306.1647694787203 641.7427901579006,444.20816694792495" />
  <polygon fill="steelblue" points="206.25720984209948,385.86416216741617 206.25720984209948,155.79183305207502 482.34400478050884,76.09244036337913 482.34400478050884,306.1647694787203" />
  <polygon fill="lightskyblue" points="641.7427901579006,444.20816694792495 641.7427901579006,214.13583783258383 482.34400478050884,76.09244036337913 482.34400478050884,306.1647694787203" />
  <polygon fill="white" points="570.0133367380743,382.08863808678285 570.0133367380743,290.05970644064644 554.0734582003352,276.25536669372593 554.0734582003352,368.2842983398624" />
  <polygon fill="white" points="249.97095237401433,336.4335189999181 249.97095237401433,299.62194634146346 272.9781852855484,292.9803302840721 272.9781852855484,329.79190294252675" />
  <polygon fill="white" points="305.18831136169615,320.4936404621789 305.18831136169615,283.6820678037243 328.19554427323027,277.04045174633296 328.1955442732303,313.8520244047876" />
  <polygon fill="white" points="360.40567034937806,304.5537619244397 360.40567034937806,267.74218926598513 383.4129032609121,261.1005732085938 383.4129032609122,297.9121458670484" />
  <polygon fill="white" points="415.6230293370599,288.61388338670054 415.6230293370599,251.80231072824597 438.630262248594,245.16069467085464 438.630262248594,281.9722673293092" />
  <polygon fill="antiquewhite" points="493.2723456082461,432.34666377368103 493.2723456082461,354.12207187446506 511.6781319374734,348.808779028552 511.6781319374734,427.033370927768" />
  <polygon fill="beige" points="493.2723456082461,432.34666377368103 493.2723456082461,354.12207187446506 482.64575991642,344.9191787098514 482.64575991642,423.14377060906736" />
  <polygon fill="bisque" points="493.2723456082461,354.12207187446506 482.64575991642,344.9191787098514 501.0515462456473,339.60588586393834 511.6781319374734,348.808779028552" />
  <polygon fill="antiquewhite" points="379.4450125806381,507.9355821887479 379.4450125806381,429.71099028953194 397.8507989098654,424.3976974436189 397.8507989098654,502.62228934283485" />
  <polygon fill="beige" points="379.4450125806381,507.9355821887479 379.4450125806381,429.71099028953194 368.818426888812,420.5080971249183 368.818426888812,498.7326890241343" />
  <polygon fill="bisque" points="379.4450125806381,429.71099028953194 368.818426888812,420.5080971249183 387.22421321803927,415.1948042790052 397.8507989098654,424.3976974436189" />
</svg>
