<?xml version="1.0" encoding="UTF-8"?>
<svg
  xmlns="http://www.w3.org/2000/svg"
  width="848"
  height="600"
  style="background-color:white"
>
  <polygon fill="lightblue" points="354.82553334635725,510.915584766816 165.8373758621263,347.2470393710578 493.17446665364275,252.75296062894222 682.1626241378738,416.4215060247004" />
  <polygon fill="steelblue" points="165.8373758621263,347.2470393710578 165.8373758621263,183.57849397529955 493.17446665364275,89.08441523318402 493.17446665364275,252.75296062894222" />
  <polygon fill="lightskyblue" points="682.1626241378738,416.4215060247004 682.1626241378738,252.75296062894222 493.17446665364275,89.08441523318402 493.17446665364275,252.75296062894222" />
  <polygon fill="white" points="597.1179532699698,342.7706605966093 597.1179532699698,233.6582969994371 578.2191375215467,217.2914424598613 578.2191375215467,326.4038060570334" />
  <polygon fill="antiquewhite" points="506.13144742676405,402.35813895081515 506.13144742676405,309.6126298932188 527.9539201461985,303.3130246437444 527.9539201461985,396.05853370134076" />
  <polygon fill="beige" points="506.13144742676405,402.35813895081515 506.13144742676405,309.6126298932188 493.5322369278153,298.70139353350163 493.5322369278153,391.4469025910979" />
  <polygon fill="bisque" points="506.13144742676405,309.6126298932188 493.5322369278153,298.70139353350163 515.3547096472497,292.40178828402725 527.9539201461985,303.3130246437444" />
  <polygon fill="antiquewhite" points="371.17422118881086,491.9787115522141 371.17422118881086,399.23320249461784 392.99669390824533,392.93359724514346 392.99669390824533,485.6791063027398" />
  <polygon fill="beige" points="371.17422118881086,491.9787115522141 371.17422118881086,399.23320249461784 358.57501068986215,388.3219661349006 358.57501068986215,481.0674751924969" />
  <polygon fill="bisque" points="371.17422118881086,399.23320249461784 358.57501068986215,388.3219661349006 380.39748340929657,382.0223608854262 392.99669390824533,392.93359724514346" />
  <polygon fill="antiquewhite" points="447.6470394103567,290.6220705414457 447.6470394103567,197.87656148384934 469.46951212979116,191.57695623437496 469.46951212979116,284.3224652919713" />
  <polygon fill="beige" points="447.6470394103567,290.6220705414457 447.6470394103567,197.87656148384934 435.047828911408,186.9653251241321 435.047828911408,279.71083418172844" />
  <polygon fill="bisque" points="447.6470394103567,197.87656148384934 435.047828911408,186.9653251241321 456.8703016308424,180.66571987465775 469.46951212979116,191.57695623437496" />
  <polygon fill="antiquewhite" points="417.39214414843656,336.014917936884 417.39214414843656,243.26940887928765 439.214616867871,236.96980362981327 439.21461686787103,329.7153126874096" />
  <polygon fill="beige" points="417.39214414843656,336.014917936884 417.39214414843656,243.26940887928765 404.7929336494878,232.35817251957042 404.7929336494878,325.10368157716675" />
  <polygon fill="bisque" points="417.39214414843656,243.26940887928765 404.7929336494878,232.35817251957042 426.61540636892227,226.05856727009603 439.214616867871,236.96980362981327" />
  <polygon fill="antiquewhite" points="362.87140465512084,310.6304412184055 362.87140465512084,217.8849321608092 384.6938773745553,211.58532691133485 384.6938773745553,304.3308359689311" />
  <polygon fill="beige" points="362.87140465512084,310.6304412184055 362.87140465512084,217.8849321608092 350.2721941561721,206.973695801092 350.27219415617213,299.7192048586883" />
  <polygon fill="bisque" points="362.87140465512084,217.8849321608092 350.2721941561721,206.973695801092 372.09466687560655,200.6740905516176 384.6938773745553,211.58532691133485" />
</svg>
