<?xml version="1.0" encoding="UTF-8"?>
<svg
  xmlns="http://www.w3.org/2000/svg"
  width="848"
  height="600"
  style="background-color:white"
>
  <polygon fill="lightblue" points="365.65599521949116,523.9075596366208 206.25720984209948,385.86416216741617 482.34400478050884,306.1647694787203 641.7427901579006,444.20816694792495" />
  <polygon fill="steelblue" points="206.25720984209948,385.86416216741617 206.25720984209948,155.79183305207502 482.34400478050884,76.09244036337913 482.34400478050884,306.1647694787203" />
  <polygon fill="lightskyblue" points="641.7427901579006,444.20816694792495 641.7427901579006,214.13583783258383 482.34400478050884,76.09244036337913 482.34400478050884,306.1647694787203" />
  <polygon fill="white" points="570.0133367380743,382.08863808678285 570.0133367380743,290.05970644064644 554.0734582003352,276.25536669372593 554.0734582003352,368.2842983398624" />
  <polygon fill="white" points="234.1945640918195,340.9877700107007 234.1945640918195,304.1761973522461 257.2017970033536,297.5345812948548 257.2017970033536,334.34615395330934" />
  <polygon fill="white" points="273.63553479730655,329.60214248374416 273.63553479730655,292.79056982528954 296.64276770884067,286.1489537678982 296.64276770884067,322.9605264263528" />
  <polygon fill="white" points="313.07650550279357,318.2165149567876 313.07650550279357,281.404942298333 336.0837384143277,274.7633262409417 336.0837384143277,311.57489889939626" />
  <polygon fill="white" points="352.51747620828064,306.830887429831 352.51747620828064,270.01931477137646 375.52470911981476,263.3776987139851 375.52470911981476,300.1892713724397" />
  <polygon fill="white" points="391.9584469137677,295.44525990287445 391.9584469137677,258.6336872444199 414.9656798253018,251.99207118702856 414.9656798253018,288.8036438454832" />
  <polygon fill="white" points="431.39941761925473,284.05963237591794 431.39941761925473,247.24805971746335 454.40665053078885,240.60644366007202 454.40665053078885,277.4180163185266" />
</svg>
