<?xml version="1.0" encoding="UTF-8"?>
<svg
  xmlns="http://www.w3.org/2000/svg"
  width="848"
  height="600"
  style="background-color:white"
>
  <polygon fill="lightblue" points="365.65599521949116,523.9075596366208 206.25720984209948,385.86416216741617 482.34400478050884,306.1647694787203 641.7427901579006,444.20816694792495" />
  <polygon fill="steelblue" points="206.25720984209948,385.86416216741617 206.25720984209948,155.79183305207502 482.34400478050884,76.09244036337913 482.34400478050884,306.1647694787203" />
  <polygon fill="lightskyblue" points="641.7427901579006,444.20816694792495 641.7427901579006,214.13583783258383 482.34400478050884,76.09244036337913 482.34400478050884,306.1647694787203" />
  <polygon fill="white" points="570.0133367380743,382.08863808678285 570.0133367380743,290.05970644064644 554.0734582003352,276.25536669372593 554.0734582003352,368.2842983398624" />
  <polygon fill="white" points="249.97095237401433,336.4335189999181 249.97095237401433,299.62194634146346 272.9781852855484,292.9803302840721 272.9781852855484,329.79190294252675" />
  <polygon fill="white" points="305.18831136169615,320.4936404621789 305.18831136169615,283.6820678037243 328.19554427323027,277.04045174633296 328.1955442732303,313.8520244047876" />
  <polygon fill="white" points="360.40567034937806,304.5537619244397 360.40567034937806,267.74218926598513 383.4129032609121,261.1005732085938 383.4129032609122,297.9121458670484" />
  <polygon fill="white" points="415.6230293370599,288.61388338670054 415.6230293370599,251.80231072824597 438.630262248594,245.16069467085464 438.630262248594,281.9722673293092" />
  <polygon fill="hsl(288.0,50.0%,72.09185257592405%)" points="430.8958558695925,362.3982293592321 430.8958558695925,330.79549423194885 436.41759176836064,329.20150637817494 436.4175917683607,360.8042415054582" />
  <polygon fill="hsl(288.0,50.0%,72.09185257592405%)" points="444.700195616513,358.4132597247973 444.700195616513,326.810524597514 439.1784597177448,328.404512451288 439.1784597177448,360.0072475785712" />
  <polygon fill="hsl(288.0,50.0%,72.09185257592405%)" points="425.3741199708243,332.7023804533196 425.3741199708243,301.4125436936332 430.2056388822465,300.017804321581 430.2056388822465,331.30764108126743" />
  <polygon fill="hsl(288.0,50.0%,72.09185257592405%)" points="445.390412603859,326.92417448338915 445.390412603859,295.6343377237028 450.22193151528114,294.2395983516506 450.22193151528114,325.52943511133697" />
  <polygon fill="hsl(288.0,50.0%,72.09185257592405%)" points="430.2056388822465,304.8493232330032 430.2056388822465,300.017804321581 445.390412603859,295.6343377237028 445.390412603859,300.46585663512496" />
  <polygon fill="hsl(288.0,50.0%,72.09185257592405%)" points="430.8958558695925,331.1083925995457 430.8958558695925,299.8185558398593 444.700195616513,295.8335862054245 444.700195616513,327.1234229651109" />
  <polygon fill="hsl(288.0,50.0%,72.09185257592405%)" points="434.3469408063226,297.25782159326627 434.3469408063226,283.1773950514074 441.24911067978286,281.18491023419 441.24911067978286,295.2653367760489" />
  <polygon fill="hsl(288.0,50.0%,72.09185257592405%)" points="435.72737478101465,298.4238164678071 435.72737478101465,282.77889808796397 439.86867670509076,281.5834071976335 439.86867670509076,297.2283255774767" />
  <polygon fill="hsl(288.0,50.0%,50.65955712546234%)" points="466.7705177836823,430.9377566238526 466.7705177836823,399.3350214965693 472.29225368245045,397.7410336427954 472.29225368245045,429.3437687700786" />
  <polygon fill="hsl(288.0,50.0%,50.65955712546234%)" points="480.57485753060274,426.95278698941775 480.57485753060274,395.3500518621345 475.05312163183453,396.9440397159084 475.05312163183453,428.54677484319166" />
  <polygon fill="hsl(288.0,50.0%,50.65955712546234%)" points="461.2487818849141,401.2419077179401 461.2487818849141,369.95207095825367 466.08030079633625,368.5573315862015 466.08030079633625,399.8471683458879" />
  <polygon fill="hsl(288.0,50.0%,50.65955712546234%)" points="481.2650745179488,395.4637017480096 481.2650745179488,364.1738649883232 486.09659342937096,362.779125616271 486.09659342937096,394.0689623759574" />
  <polygon fill="hsl(288.0,50.0%,50.65955712546234%)" points="466.08030079633625,373.38885049762365 466.08030079633625,368.5573315862015 481.2650745179488,364.1738649883232 481.2650745179488,369.00538389974537" />
  <polygon fill="hsl(288.0,50.0%,50.65955712546234%)" points="466.7705177836823,399.64791986416617 466.7705177836823,368.35808310447976 480.57485753060274,364.373113470045 480.57485753060274,395.66295022973134" />
  <polygon fill="hsl(288.0,50.0%,50.65955712546234%)" points="470.2216027204124,365.79734885788673 470.2216027204124,351.7169223160279 477.1237725938726,349.72443749881046 477.1237725938726,363.8048640406693" />
  <polygon fill="hsl(288.0,50.0%,50.65955712546234%)" points="471.60203669510446,366.9633437324276 471.60203669510446,351.31842535258437 475.7433386191806,350.12293446225397 475.7433386191806,365.7678528420971" />
  <polygon fill="hsl(288.0,50.0%,42.21758785095096%)" points="383.98700285451287,485.9115154711739 383.9870028545128,454.30878034389065 389.508738753281,452.71479249011674 389.508738753281,484.3175276174" />
  <polygon fill="hsl(288.0,50.0%,42.21758785095096%)" points="397.7913426014333,481.92654583673914 397.79134260143326,450.32381070945587 392.2696067026651,451.9177985632298 392.2696067026651,483.52053369051305" />
  <polygon fill="hsl(288.0,50.0%,42.21758785095096%)" points="378.4652669557446,456.2156665652615 378.4652669557446,424.92582980557506 383.2967858671668,423.5310904335229 383.2967858671668,454.8209271932093" />
  <polygon fill="hsl(288.0,50.0%,42.21758785095096%)" points="398.4815595887793,450.437460595331 398.4815595887793,419.1476238356446 403.31307850020147,417.7528844635924 403.31307850020147,449.0427212232788" />
  <polygon fill="hsl(288.0,50.0%,42.21758785095096%)" points="383.2967858671668,428.362609344945 383.2967858671668,423.5310904335229 398.4815595887793,419.1476238356446 398.4815595887793,423.97914274706676" />
  <polygon fill="hsl(288.0,50.0%,42.21758785095096%)" points="383.9870028545128,454.6216787114875 383.9870028545128,423.33184195180115 397.79134260143326,419.3468723173663 397.79134260143326,450.6367090770527" />
  <polygon fill="hsl(288.0,50.0%,42.21758785095096%)" points="387.43808779124294,420.7711077052081 387.43808779124294,406.6906811633492 394.3402576647032,404.69819634613185 394.3402576647032,418.7786228879907" />
  <polygon fill="hsl(288.0,50.0%,42.21758785095096%)" points="388.818521765935,421.93710257974897 388.818521765935,406.29218419990576 392.9598236900111,405.09669330957536 392.9598236900111,420.7416116894185" />
</svg>
