<?xml version="1.0" encoding="UTF-8"?>
<svg
  xmlns="http://www.w3.org/2000/svg"
  width="848"
  height="600"
  style="background-color:white"
>
  <polygon fill="lightblue" points="340.2011014303238,522.4609811485078 111.25825291965731,324.1906583234984 507.7988985696762,209.71923406816512 736.7417470803427,407.9895568931746" />
  <polygon fill="steelblue" points="111.25825291965731,324.1906583234984 111.25825291965731,192.0104431068254 507.7988985696762,77.53901885149216 507.7988985696762,209.71923406816512" />
  <polygon fill="lightskyblue" points="736.7417470803427,407.9895568931746 736.7417470803427,275.8093416765016 507.7988985696762,77.53901885149216 507.7988985696762,209.71923406816512" />
  <polygon fill="white" points="174.043855147577,253.19393006306808 174.043855147577,200.3218439763989 207.08890895174525,190.7825586217878 207.08890895174525,243.654644708457" />
  <polygon fill="white" points="253.35198427758078,230.29964521200145 253.35198427758078,177.42755912533227 286.397038081749,167.88827377072116 286.397038081749,220.76035985739034" />
  <polygon fill="white" points="332.6601134075845,207.4053603609348 332.6601134075845,154.5332742742656 365.7051672117528,144.9939889196545 365.7051672117528,197.86607500632368" />
  <polygon fill="white" points="411.9682425375883,184.51107550986814 411.9682425375883,131.63898942319895 445.0132963417566,122.09970406858787 445.0132963417566,174.97179015525705" />
  <polygon fill="grey" points="493.83241547473017,149.86390643402294 493.83241547473017,116.81885262985469 526.8774692788985,107.27956727524358 526.8774692788985,140.3246210794118" />
  <polygon fill="lightgrey" points="493.83241547473017,149.86390643402294 493.83241547473017,116.81885262985469 474.753844765508,100.29632572777055 474.753844765508,133.3413795319388" />
  <polygon fill="darkgrey" points="493.83241547473017,116.81885262985469 474.753844765508,100.29632572777055 507.7988985696762,90.75704037315947 526.8774692788985,107.27956727524358" />
  <polygon fill="hsl(324.0,50.0%,72.09185257592405%)" points="433.90444740194,290.48677853955905 433.90444740194,245.09609263415354 441.8352603149404,242.80666414904687 441.8352603149404,288.1973500544524" />
  <polygon fill="hsl(324.0,50.0%,72.09185257592405%)" points="453.731479684441,284.7632073267924 453.731479684441,239.37252142138686 445.8006667714406,241.66194990649353 445.8006667714406,287.052635811899" />
  <polygon fill="hsl(324.0,50.0%,72.09185257592405%)" points="425.97363448893964,247.8349338509969 425.97363448893964,202.89366067732806 432.913095787815,200.89041075285974 432.913095787815,245.83168392652857" />
  <polygon fill="hsl(324.0,50.0%,72.09185257592405%)" points="454.722831298566,239.53575559248523 454.722831298566,194.59448241881643 461.66229259744136,192.5912324943481 461.66229259744136,237.53250566801688" />
  <polygon fill="hsl(324.0,50.0%,72.09185257592405%)" points="432.913095787815,207.82987205173507 432.913095787815,200.89041075285974 454.722831298566,194.59448241881643 454.722831298566,201.53394371769173" />
  <polygon fill="hsl(324.0,50.0%,72.09185257592405%)" points="433.90444740194,245.54550536589022 433.90444740194,200.60423219222142 453.731479684441,194.88066097945472 453.731479684441,239.82193415312355" />
  <polygon fill="hsl(324.0,50.0%,72.09185257592405%)" points="438.86120547256525,196.9262757303463 438.86120547256525,176.70270280219535 448.77472161381576,173.840917195812 448.77472161381576,194.06449012396297" />
  <polygon fill="hsl(324.0,50.0%,72.09185257592405%)" points="440.84390870081535,198.60098226775307 440.84390870081535,176.1303456809187 446.79201838556565,174.41327431708868 446.79201838556565,196.8839109039231" />
  <polygon fill="hsl(324.0,50.0%,50.65955712546234%)" points="485.4308581491938,388.929401991082 485.4308581491938,343.53871608567647 493.3616710621942,341.2492876005698 493.3616710621942,386.6399735059753" />
  <polygon fill="hsl(324.0,50.0%,50.65955712546234%)" points="505.25789043169476,383.2058307783153 505.25789043169476,337.8151448729098 497.32707751869435,340.10457335801647 497.32707751869435,385.495259263422" />
  <polygon fill="hsl(324.0,50.0%,50.65955712546234%)" points="477.50004523619344,346.2775573025198 477.50004523619344,301.33628412885105 484.43950653506874,299.33303420438267 484.43950653506874,344.2743073780515" />
  <polygon fill="hsl(324.0,50.0%,50.65955712546234%)" points="506.2492420458198,337.9783790440082 506.2492420458198,293.03710587033936 513.1887033446951,291.03385594587104 513.1887033446951,335.9751291195398" />
  <polygon fill="hsl(324.0,50.0%,50.65955712546234%)" points="484.43950653506874,306.272495503258 484.43950653506874,299.33303420438267 506.2492420458198,293.03710587033936 506.2492420458198,299.97656716921466" />
  <polygon fill="hsl(324.0,50.0%,50.65955712546234%)" points="485.4308581491938,343.98812881741316 485.4308581491938,299.0468556437444 505.25789043169476,293.3232844309777 505.25789043169476,338.2645576046465" />
  <polygon fill="hsl(324.0,50.0%,50.65955712546234%)" points="490.38761621981905,295.36889918186927 490.38761621981905,275.1453262537183 500.3011323610695,272.283540647335 500.3011323610695,292.5071135754859" />
  <polygon fill="hsl(324.0,50.0%,50.65955712546234%)" points="492.37031944806915,297.043605719276 492.37031944806915,274.57296913244164 498.3184291328194,272.8558977686116 498.3184291328194,295.32653435544603" />
  <polygon fill="hsl(324.0,50.0%,42.21758785095096%)" points="366.52974059841046,467.88765072582623 366.52974059841046,422.4969648204207 374.4605535114108,420.20753633531405 374.4605535114108,465.59822224071956" />
  <polygon fill="hsl(324.0,50.0%,42.21758785095096%)" points="386.35677288091136,462.16407951305956 386.35677288091136,416.77339360765404 378.425959967911,419.0628220927607 378.425959967911,464.45350799816623" />
  <polygon fill="hsl(324.0,50.0%,42.21758785095096%)" points="358.59892768541005,425.23580603726407 358.59892768541005,380.29453286359524 365.5383889842854,378.2912829391269 365.5383889842854,423.23255611279575" />
  <polygon fill="hsl(324.0,50.0%,42.21758785095096%)" points="387.3481244950364,416.93662777875244 387.3481244950364,371.9953546050836 394.2875857939117,369.9921046806153 394.2875857939117,414.9333778542841" />
  <polygon fill="hsl(324.0,50.0%,42.21758785095096%)" points="365.5383889842854,385.2307442380023 365.5383889842854,378.2912829391269 387.3481244950364,371.9953546050836 387.3481244950364,378.9348159039589" />
  <polygon fill="hsl(324.0,50.0%,42.21758785095096%)" points="366.52974059841046,422.9463775521574 366.52974059841046,378.00510437848857 386.35677288091136,372.28153316572195 386.35677288091136,417.22280633939073" />
  <polygon fill="hsl(324.0,50.0%,42.21758785095096%)" points="371.48649866903565,374.3271479166135 371.48649866903565,354.1035749884625 381.40001481028617,351.2417893820792 381.40001481028617,371.46536231023015" />
  <polygon fill="hsl(324.0,50.0%,42.21758785095096%)" points="373.46920189728576,376.0018544540203 373.46920189728576,353.5312178671859 379.41731158203606,351.81414650335586 379.41731158203606,374.2847830901903" />
</svg>
