<?xml version="1.0" encoding="UTF-8"?>
<svg
  xmlns="http://www.w3.org/2000/svg"
  width="848"
  height="600"
  style="background-color:white"
>
  <polygon fill="lightblue" points="361.15082607274286,516.4133165676332 189.4436896897431,367.7105744488761 486.84917392725714,281.8570062573762 658.5563103102569,430.55974837613326" />
  <polygon fill="steelblue" points="189.4436896897431,367.7105744488761 189.4436896897431,169.44025162386677 486.84917392725714,83.58668343236684 486.84917392725714,281.8570062573762" />
  <polygon fill="lightskyblue" points="658.5563103102569,430.55974837613326 658.5563103102569,232.28942555112388 486.84917392725714,83.58668343236684 486.84917392725714,281.8570062573762" />
  <polygon fill="white" points="581.2880989379071,363.6435144226926 581.2880989379071,264.5083530101879 564.117385299607,249.6380787983122 564.117385299607,348.7732402108169" />
  <polygon fill="white" points="251.40316557255855,310.17034984397844 251.40316557255855,270.51628527897657 276.18695592568474,263.3618212630182 276.18695592568474,303.0158858280201" />
  <polygon fill="white" points="325.75453663193707,288.70695779610344 325.75453663193707,249.05289323110156 350.53832698506324,241.89842921514327 350.53832698506324,281.55249378014514" />
  <polygon fill="white" points="400.10590769131556,267.2435657482285 400.10590769131556,227.58950118322662 424.88969804444173,220.43503716726826 424.88969804444173,260.08910173227014" />
  <polygon fill="antiquewhite" points="498.62137221914156,417.782331418876 498.62137221914156,333.517444218247 518.4484045016425,327.79387300548035 518.4484045016426,412.05876020610935" />
  <polygon fill="beige" points="498.62137221914156,417.782331418876 498.62137221914156,333.517444218247 487.1742297936083,323.60392807699657 487.1742297936083,407.8688152776256" />
  <polygon fill="bisque" points="498.62137221914156,333.517444218247 487.1742297936083,323.60392807699657 507.0012620761092,317.8803568642299 518.4484045016425,327.79387300548035" />
  <polygon fill="antiquewhite" points="376.0045947448963,499.208025426581 376.0045947448963,414.943138225952 395.83162702739725,409.2195670131853 395.83162702739725,493.4844542138143" />
  <polygon fill="beige" points="376.0045947448963,499.208025426581 376.0045947448963,414.943138225952 364.557452319363,405.02962208470154 364.557452319363,489.2945092853305" />
  <polygon fill="bisque" points="376.0045947448963,414.943138225952 364.557452319363,405.02962208470154 384.3844846018639,399.3060508719349 395.83162702739725,409.2195670131853" />
  <polygon fill="antiquewhite" points="445.4847611360362,316.26337598449305 445.4847611360362,231.99848878386408 465.31179341853715,226.27491757109743 465.31179341853715,310.5398047717264" />
  <polygon fill="beige" points="445.4847611360362,316.26337598449305 445.4847611360362,231.99848878386408 434.03761871050284,222.0849726426136 434.03761871050284,306.34985984324254" />
  <polygon fill="bisque" points="445.4847611360362,231.99848878386408 434.03761871050284,222.0849726426136 453.8646509930038,216.36140142984692 465.31179341853715,226.27491757109743" />
</svg>
