<?xml version="1.0" encoding="UTF-8"?>
<svg
  xmlns="http://www.w3.org/2000/svg"
  width="848"
  height="600"
  style="background-color:white"
>
  <polygon fill="lightblue" points="350.79491924311225,523.2050807568878 150.79491924311225,350.00000000000006 497.20508075688775,249.99999999999997 697.2050807568878,423.2050807568877" />
  <polygon fill="steelblue" points="150.79491924311225,350.00000000000006 150.79491924311225,176.7949192431123 497.20508075688775,76.79491924311222 497.20508075688775,249.99999999999997" />
  <polygon fill="lightskyblue" points="697.2050807568878,423.2050807568877 697.2050807568878,249.99999999999997 497.20508075688775,76.79491924311222 497.20508075688775,249.99999999999997" />
  <polygon fill="white" points="607.2050807568878,345.2627944162882 607.2050807568878,235.56624327025932 587.2050807568878,218.24573519457056 587.2050807568878,327.9422863405995" />
  <polygon fill="hsl(324.0,50.0%,50.65955712546234%)" points="477.66479761112237,406.5545017795718 477.66479761112237,366.9020852916283 484.5930008413979,364.9020852916283 484.5930008413979,404.5545017795718" />
  <polygon fill="hsl(324.0,50.0%,50.65955712546234%)" points="494.98530568681116,401.5545017795718 494.98530568681116,361.9020852916283 488.05710245653563,363.90208529162834 488.05710245653563,403.5545017795718" />
  <polygon fill="hsl(324.0,50.0%,50.65955712546234%)" points="470.73659438084684,369.29468347467724 470.73659438084684,330.03486516978273 476.79877220733795,328.28486516978273 476.79877220733795,367.54468347467724" />
  <polygon fill="hsl(324.0,50.0%,50.65955712546234%)" points="495.8513310905956,362.04468347467724 495.8513310905956,322.7848651697827 501.9135089170867,321.0348651697827 501.9135089170867,360.29468347467724" />
  <polygon fill="hsl(324.0,50.0%,50.65955712546234%)" points="476.79877220733795,334.3470429962738 476.79877220733795,328.28486516978273 495.8513310905956,322.7848651697827 495.8513310905956,328.8470429962738" />
  <polygon fill="hsl(324.0,50.0%,50.65955712546234%)" points="477.66479761112237,367.29468347467724 477.66479761112237,328.0348651697827 494.98530568681116,323.0348651697827 494.98530568681116,362.29468347467724" />
  <polygon fill="hsl(324.0,50.0%,50.65955712546234%)" points="481.9949246300446,324.821874254538 481.9949246300446,307.15495601733545 490.65517866788895,304.65495601733545 490.65517866788895,322.321874254538" />
  <polygon fill="hsl(324.0,50.0%,50.65955712546234%)" points="483.7269754376134,326.2848651697827 483.7269754376134,306.65495601733545 488.92312786032005,305.15495601733545 488.92312786032005,324.78486516978273" />
</svg>
