<?xml version="1.0" encoding="UTF-8"?>
<svg
  xmlns="http://www.w3.org/2000/svg"
  width="848"
  height="600"
  style="background-color:white"
>
  <polygon fill="lightblue" points="354.82553334635725,510.915584766816 165.8373758621263,347.2470393710578 493.17446665364275,252.75296062894222 682.1626241378738,416.4215060247004" />
  <polygon fill="steelblue" points="165.8373758621263,347.2470393710578 165.8373758621263,183.57849397529955 493.17446665364275,89.08441523318402 493.17446665364275,252.75296062894222" />
  <polygon fill="lightskyblue" points="682.1626241378738,416.4215060247004 682.1626241378738,252.75296062894222 493.17446665364275,89.08441523318402 493.17446665364275,252.75296062894222" />
  <polygon fill="white" points="597.1179532699698,342.7706605966093 597.1179532699698,233.6582969994371 578.2191375215467,217.2914424598613 578.2191375215467,326.4038060570334" />
  <polygon fill="white" points="315.866875808238,260.2923078420526 315.866875808238,216.64736240318376 343.144966707531,208.7728558413408 343.144966707531,252.41780128020966" />
  <polygon fill="antiquewhite" points="506.13144742676405,402.35813895081515 506.13144742676405,309.6126298932188 527.9539201461985,303.3130246437444 527.9539201461985,396.05853370134076" />
  <polygon fill="beige" points="506.13144742676405,402.35813895081515 506.13144742676405,309.6126298932188 493.5322369278153,298.70139353350163 493.5322369278153,391.4469025910979" />
  <polygon fill="bisque" points="506.13144742676405,309.6126298932188 493.5322369278153,298.70139353350163 515.3547096472497,292.40178828402725 527.9539201461985,303.3130246437444" />
</svg>
