<?xml version="1.0" encoding="UTF-8"?>
<svg
  xmlns="http://www.w3.org/2000/svg"
  width="848"
  height="600"
  style="background-color:white"
>
  <polygon fill="lightblue" points="369.0961894323342,532.3557158514986 219.0961894323342,402.45190528383296 478.9038105676658,327.4519052838329 628.9038105676658,457.35571585149864" />
  <polygon fill="steelblue" points="219.0961894323342,402.45190528383296 219.0961894323342,142.64428414850133 478.9038105676658,67.6442841485013 478.9038105676658,327.4519052838329" />
  <polygon fill="lightskyblue" points="628.9038105676658,457.35571585149864 628.9038105676658,197.54809471616707 478.9038105676658,67.6442841485013 478.9038105676658,327.4519052838329" />
  <polygon fill="white" points="561.4038105676658,398.89900109604906 561.4038105676658,312.2964607176052 546.4038105676658,299.30607966083863 546.4038105676658,385.9086200392825" />
  <polygon fill="white" points="245.38624633293324,360.22160341816965 245.38624633293324,325.58058726679207 267.03688142754424,319.33058726679207 267.03688142754424,353.97160341816965" />
  <polygon fill="white" points="282.50162078083775,349.5073177038839 282.50162078083775,314.8663015525064 304.1522558754487,308.6163015525064 304.1522558754487,343.2573177038839" />
  <polygon fill="white" points="319.61699522874227,338.7930319895982 319.61699522874227,304.1520158382207 341.2676303233532,297.9020158382207 341.2676303233532,332.5430319895982" />
  <polygon fill="white" points="356.7323696766468,328.0787462753125 356.7323696766468,293.43773012393495 378.38300477125773,287.18773012393495 378.38300477125773,321.8287462753125" />
  <polygon fill="white" points="393.8477441245513,317.36446056102676 393.8477441245513,282.72344440964923 415.49837921916225,276.47344440964923 415.49837921916225,311.11446056102676" />
  <polygon fill="white" points="430.96311857245576,306.65017484674104 430.96311857245576,272.0091586953635 452.6137536670667,265.7591586953635 452.6137536670667,300.40017484674104" />
</svg>
