<?xml version="1.0" encoding="UTF-8"?>
<svg
  xmlns="http://www.w3.org/2000/svg"
  width="848"
  height="600"
  style="background-color:white"
>
  <polygon fill="lightblue" points="361.15082607274286,516.4133165676332 189.4436896897431,367.7105744488761 486.84917392725714,281.8570062573762 658.5563103102569,430.55974837613326" />
  <polygon fill="steelblue" points="189.4436896897431,367.7105744488761 189.4436896897431,169.44025162386677 486.84917392725714,83.58668343236684 486.84917392725714,281.8570062573762" />
  <polygon fill="lightskyblue" points="658.5563103102569,430.55974837613326 658.5563103102569,232.28942555112388 486.84917392725714,83.58668343236684 486.84917392725714,281.8570062573762" />
  <polygon fill="white" points="552.6702428740737,338.8597240695664 552.6702428740737,239.7245626570617 535.4995292357737,224.85428844518603 535.4995292357737,323.9894498576907" />
  <polygon fill="white" points="609.9059550017403,388.42730477581875 609.9059550017403,289.2921433633141 592.7352413634403,274.4218691514384 592.7352413634403,373.55703056394304" />
  <polygon fill="white" points="226.61937521943236,317.32481385993674 226.61937521943236,277.67074929493486 251.40316557255855,270.51628527897657 251.40316557255855,310.17034984397844" />
  <polygon fill="white" points="276.18695592568474,303.0158858280201 276.18695592568474,263.3618212630182 300.97074627881085,256.2073572470599 300.97074627881085,295.8614218120618" />
  <polygon fill="white" points="325.75453663193707,288.70695779610344 325.75453663193707,249.05289323110156 350.53832698506324,241.89842921514327 350.53832698506324,281.55249378014514" />
  <polygon fill="white" points="375.3221173381894,274.3980297641868 375.3221173381894,234.7439651991849 400.10590769131556,227.58950118322662 400.10590769131556,267.2435657482285" />
  <polygon fill="white" points="424.88969804444173,260.08910173227014 424.88969804444173,220.43503716726826 449.6734883975679,213.28057315130997 449.6734883975679,252.93463771631184" />
  <polygon fill="hsl(288.0,50.0%,72.83574745959227%)" points="375.4110440299441,355.65361820587526 375.4110440299441,321.61060377682116 381.3591537146944,319.89353241299114 381.3591537146944,353.93654684204523" />
  <polygon fill="hsl(288.0,50.0%,72.83574745959227%)" points="390.2813182418198,351.3609397963003 390.2813182418198,317.3179253672462 384.3332085570695,319.03499673107615 384.3332085570695,353.07801116013025" />
  <polygon fill="hsl(288.0,50.0%,72.83574745959227%)" points="369.4629343451938,323.66473468945367 369.4629343451938,289.9587798092021 374.6675303193503,288.45634236585084 374.6675303193503,322.1622972461024" />
  <polygon fill="hsl(288.0,50.0%,72.83574745959227%)" points="391.0248319524136,317.44035099556993 391.0248319524136,283.7343961153183 396.22942792657005,282.2319586719671 396.22942792657005,315.9379135522187" />
  <polygon fill="hsl(288.0,50.0%,72.83574745959227%)" points="374.6675303193503,293.6609383400073 374.6675303193503,288.45634236585084 391.0248319524136,283.7343961153183 391.0248319524136,288.9389920894748" />
  <polygon fill="hsl(288.0,50.0%,72.83574745959227%)" points="375.4110440299441,321.94766332562364 375.4110440299441,288.24170844537207 390.2813182418198,283.9490300357971 390.2813182418198,317.65498491604865" />
  <polygon fill="hsl(288.0,50.0%,72.83574745959227%)" points="379.128612582913,285.4832410989657 379.128612582913,270.31556140285255 386.56374968885086,268.16922219806503 386.56374968885086,283.33690189417825" />
  <polygon fill="hsl(288.0,50.0%,72.83574745959227%)" points="380.6156400041006,286.7392710020208 380.6156400041006,269.88629356189506 385.0767222676633,268.5984900390225 385.0767222676633,285.45146747914833" />
  <polygon fill="hsl(288.0,50.0%,72.09185257592405%)" points="431.428335551455,342.4326646109216 431.428335551455,308.3896501818675 437.3764452362053,306.6725788180375 437.3764452362053,340.71559324709165" />
  <polygon fill="hsl(288.0,50.0%,72.09185257592405%)" points="446.2986097633308,338.13998620134663 446.2986097633307,304.0969717722925 440.35050007858047,305.8140431361225 440.35050007858047,339.8570575651766" />
  <polygon fill="hsl(288.0,50.0%,72.09185257592405%)" points="425.48022586670476,310.4437810945 425.48022586670476,276.73782621424846 430.6848218408612,275.2353887708972 430.6848218408612,308.94134365114877" />
  <polygon fill="hsl(288.0,50.0%,72.09185257592405%)" points="447.0421234739245,304.2193974006163 447.0421234739245,270.51344252036466 452.246719448081,269.0110050770134 452.246719448081,302.71695995726503" />
  <polygon fill="hsl(288.0,50.0%,72.09185257592405%)" points="430.6848218408612,280.43998474505366 430.6848218408612,275.2353887708972 447.0421234739245,270.51344252036466 447.0421234739245,275.7180384945212" />
  <polygon fill="hsl(288.0,50.0%,72.09185257592405%)" points="431.428335551455,308.72670973067 431.428335551455,275.0207548504184 446.2986097633307,270.72807644084344 446.2986097633307,304.434031321095" />
  <polygon fill="hsl(288.0,50.0%,72.09185257592405%)" points="435.14590410442395,272.2622875040121 435.14590410442395,257.0946078078989 442.58104121036183,254.9482686031114 442.58104121036183,270.1159482992246" />
  <polygon fill="hsl(288.0,50.0%,72.09185257592405%)" points="436.6329315256115,273.5183174070672 436.6329315256115,256.6653399669414 441.0940137891742,255.37753644406888 441.0940137891742,272.2305138841947" />
  <polygon fill="hsl(288.0,50.0%,50.65955712546234%)" points="470.0731436118954,416.2646321995638 470.0731436118954,382.2216177705097 476.0212532966456,380.50454640667965 476.0212532966456,414.5475608357338" />
  <polygon fill="hsl(288.0,50.0%,50.65955712546234%)" points="484.94341782377103,411.9719537899888 484.94341782377103,377.9289393609347 478.9953081390207,379.64601072476466 478.9953081390207,413.6890251538188" />
  <polygon fill="hsl(288.0,50.0%,50.65955712546234%)" points="464.12503392714507,384.2757486831422 464.12503392714507,350.5697938028906 469.32962990130153,349.06735635953936 469.32962990130153,382.7733112397909" />
  <polygon fill="hsl(288.0,50.0%,50.65955712546234%)" points="485.6869315343648,378.05136498925845 485.6869315343648,344.3454101090069 490.89152750852134,342.8429726656556 490.89152750852134,376.5489275459072" />
  <polygon fill="hsl(288.0,50.0%,50.65955712546234%)" points="469.32962990130153,354.2719523336958 469.32962990130153,349.06735635953936 485.6869315343648,344.3454101090069 485.6869315343648,349.55000608316334" />
  <polygon fill="hsl(288.0,50.0%,50.65955712546234%)" points="470.0731436118954,382.5586773193122 470.0731436118954,348.8527224390606 484.94341782377103,344.5600440294856 484.94341782377103,378.2659989097372" />
  <polygon fill="hsl(288.0,50.0%,50.65955712546234%)" points="473.79071216486426,346.0942550926543 473.79071216486426,330.92657539654107 481.22584927080214,328.7802361917536 481.22584927080214,343.94791588786677" />
  <polygon fill="hsl(288.0,50.0%,50.65955712546234%)" points="475.27773958605184,347.35028499570933 475.27773958605184,330.4973075555836 479.73882184961457,329.2095040327111 479.73882184961457,346.06248147283685" />
  <polygon fill="hsl(288.0,50.0%,42.21758785095096%)" points="380.89730544880786,475.48331875062195 380.89730544880786,441.44030432156785 386.8454151335581,439.7232329577378 386.84541513355816,473.766247386792" />
  <polygon fill="hsl(288.0,50.0%,42.21758785095096%)" points="395.76757966068357,471.1906403410469 395.76757966068357,437.1476259119928 389.81946997593326,438.8646972758229 389.81946997593326,472.907711704877" />
  <polygon fill="hsl(288.0,50.0%,42.21758785095096%)" points="374.94919576405755,443.49443523420035 374.94919576405755,409.7884803539488 380.15379173821407,408.28604291059753 380.15379173821407,441.9919977908491" />
  <polygon fill="hsl(288.0,50.0%,42.21758785095096%)" points="396.51109337127735,437.2700515403166 396.51109337127735,403.56409666006505 401.7156893454338,402.0616592167138 401.7156893454338,435.76761409696536" />
  <polygon fill="hsl(288.0,50.0%,42.21758785095096%)" points="380.15379173821407,413.490638884754 380.15379173821407,408.28604291059753 396.51109337127735,403.56409666006505 396.51109337127735,408.7686926342215" />
  <polygon fill="hsl(288.0,50.0%,42.21758785095096%)" points="380.89730544880786,441.7773638703703 380.89730544880786,408.07140899011875 395.76757966068357,403.77873058054377 395.76757966068357,437.4846854607954" />
  <polygon fill="hsl(288.0,50.0%,42.21758785095096%)" points="384.6148740017768,405.3129416437124 384.6148740017768,390.14526194759924 392.0500111077146,387.9989227428117 392.0500111077146,403.16660243892494" />
  <polygon fill="hsl(288.0,50.0%,42.21758785095096%)" points="386.1019014229644,406.5689715467675 386.1019014229644,389.71599410664174 390.56298368652705,388.42819058376926 390.56298368652705,405.281168023895" />
  <polygon fill="hsl(288.0,50.0%,41.7579500056716%)" points="536.1114811480311,432.49949656894836 536.1114811480311,398.4564821398942 542.0595908327814,396.73941077606423 542.0595908327814,430.78242520511833" />
  <polygon fill="hsl(288.0,50.0%,41.7579500056716%)" points="550.9817553599069,428.20681815937337 550.9817553599069,394.1638037303192 545.0336456751565,395.88087509414925 545.0336456751565,429.92388952320334" />
  <polygon fill="hsl(288.0,50.0%,41.7579500056716%)" points="530.1633714632809,400.51061305252676 530.1633714632809,366.80465817227514 535.3679674374373,365.3022207289239 535.3679674374374,399.0081756091755" />
  <polygon fill="hsl(288.0,50.0%,41.7579500056716%)" points="551.7252690705006,394.28622935864297 551.7252690705006,360.5802744783914 556.9298650446572,359.07783703504015 556.9298650446572,392.7837919152917" />
  <polygon fill="hsl(288.0,50.0%,41.7579500056716%)" points="535.3679674374373,370.5068167030804 535.3679674374373,365.3022207289239 551.7252690705006,360.5802744783914 551.7252690705006,365.7848704525479" />
  <polygon fill="hsl(288.0,50.0%,41.7579500056716%)" points="536.1114811480311,398.79354168869673 536.1114811480311,365.08758680844517 550.9817553599069,360.7949083988702 550.9817553599069,394.50086327912175" />
  <polygon fill="hsl(288.0,50.0%,41.7579500056716%)" points="539.829049701,362.3291194620388 539.829049701,347.1614397659256 547.2641868069379,345.0151005611381 547.2641868069379,360.18278025725135" />
  <polygon fill="hsl(288.0,50.0%,41.7579500056716%)" points="541.3160771221876,363.5851493650939 541.3160771221876,346.7321719249681 545.7771593857503,345.4443684020956 545.7771593857503,362.29734584222143" />
</svg>
