<?xml version="1.0" encoding="UTF-8"?>
<svg
  xmlns="http://www.w3.org/2000/svg"
  width="848"
  height="600"
  style="background-color:white"
>
  <polygon fill="lightblue" points="369.0961894323342,532.3557158514986 219.0961894323342,402.45190528383296 478.9038105676658,327.4519052838329 628.9038105676658,457.35571585149864" />
  <polygon fill="steelblue" points="219.0961894323342,402.45190528383296 219.0961894323342,142.64428414850133 478.9038105676658,67.6442841485013 478.9038105676658,327.4519052838329" />
  <polygon fill="lightskyblue" points="628.9038105676658,457.35571585149864 628.9038105676658,197.54809471616707 478.9038105676658,67.6442841485013 478.9038105676658,327.4519052838329" />
  <polygon fill="white" points="561.4038105676658,398.89900109604906 561.4038105676658,312.2964607176052 546.4038105676658,299.30607966083863 546.4038105676658,385.9086200392825" />
  <polygon fill="antiquewhite" points="489.18777302245803,446.19361400784845 489.18777302245803,372.5814546861711 506.5082810981468,367.5814546861711 506.5082810981469,441.19361400784845" />
  <polygon fill="beige" points="489.18777302245803,446.19361400784845 489.18777302245803,372.5814546861711 479.18777302245803,363.92120064832676 479.18777302245803,437.5333599700041" />
  <polygon fill="bisque" points="489.18777302245803,372.5814546861711 479.18777302245803,363.92120064832676 496.5082810981468,358.92120064832676 506.5082810981468,367.5814546861711" />
  <polygon fill="antiquewhite" points="382.0721515720395,517.3255096205751 382.0721515720395,443.7133502988977 399.39265964772824,438.7133502988977 399.3926596477283,512.3255096205751" />
  <polygon fill="beige" points="382.0721515720395,517.3255096205751 382.0721515720395,443.7133502988977 372.0721515720395,435.0530962610534 372.0721515720395,508.66525558273065" />
  <polygon fill="bisque" points="382.0721515720395,443.7133502988977 372.0721515720395,435.0530962610534 389.39265964772824,430.0530962610534 399.39265964772824,438.7133502988977" />
  <polygon fill="antiquewhite" points="442.76866761796686,357.50863773993655 442.76866761796686,283.8964784182592 460.08917569365565,278.8964784182592 460.08917569365565,352.50863773993655" />
  <polygon fill="beige" points="442.76866761796686,357.50863773993655 442.76866761796686,283.8964784182592 432.76866761796686,275.23622438041485 432.76866761796686,348.8483837020921" />
  <polygon fill="bisque" points="442.76866761796686,283.8964784182592 432.76866761796686,275.23622438041485 450.08917569365565,270.23622438041485 460.08917569365565,278.8964784182592" />
  <polygon fill="antiquewhite" points="418.755341334987,393.5369645936119 418.755341334987,319.9248052719346 436.07584941067574,314.9248052719346 436.0758494106758,388.53696459361186" />
  <polygon fill="beige" points="418.755341334987,393.5369645936119 418.755341334987,319.9248052719346 408.75534133498695,311.2645512340902 408.75534133498695,384.8767105557675" />
  <polygon fill="bisque" points="418.755341334987,319.9248052719346 408.75534133498695,311.2645512340902 426.07584941067574,306.2645512340902 436.07584941067574,314.9248052719346" />
</svg>
