<?xml version="1.0" encoding="UTF-8"?>
<svg
  xmlns="http://www.w3.org/2000/svg"
  width="848"
  height="600"
  style="background-color:white"
>
  <polygon fill="lightblue" points="365.65599521949116,523.9075596366208 206.25720984209948,385.86416216741617 482.34400478050884,306.1647694787203 641.7427901579006,444.20816694792495" />
  <polygon fill="steelblue" points="206.25720984209948,385.86416216741617 206.25720984209948,155.79183305207502 482.34400478050884,76.09244036337913 482.34400478050884,306.1647694787203" />
  <polygon fill="lightskyblue" points="641.7427901579006,444.20816694792495 641.7427901579006,214.13583783258383 482.34400478050884,76.09244036337913 482.34400478050884,306.1647694787203" />
  <polygon fill="white" points="570.0133367380743,382.08863808678285 570.0133367380743,290.05970644064644 554.0734582003352,276.25536669372593 554.0734582003352,368.2842983398624" />
  <polygon fill="white" points="286.7825250324689,325.80693330809197 286.7825250324689,288.99536064963735 309.789757944003,282.353744592246 309.789757944003,319.16531725070064" />
  <polygon fill="white" points="378.81145667860534,299.24046907852664 378.81145667860534,262.4288964200721 401.81868959013946,255.78728036268075 401.81868959013946,292.59885302113537" />
  <polygon fill="antiquewhite" points="493.2723456082461,432.34666377368103 493.2723456082461,354.12207187446506 511.6781319374734,348.808779028552 511.6781319374734,427.033370927768" />
  <polygon fill="beige" points="493.2723456082461,432.34666377368103 493.2723456082461,354.12207187446506 482.64575991642,344.9191787098514 482.64575991642,423.14377060906736" />
  <polygon fill="bisque" points="493.2723456082461,354.12207187446506 482.64575991642,344.9191787098514 501.0515462456473,339.60588586393834 511.6781319374734,348.808779028552" />
</svg>
