<?xml version="1.0" encoding="UTF-8"?>
<svg
  xmlns="http://www.w3.org/2000/svg"
  width="848"
  height="600"
  style="background-color:white"
>
  <polygon fill="lightblue" points="314.1923788646684,634.8076211353316 14.192378864668399,375.00000000000006 533.8076211353316,224.99999999999997 833.8076211353316,484.80762113533154" />
  <polygon fill="steelblue" points="14.192378864668399,375.00000000000006 14.192378864668399,115.19237886466846 533.8076211353316,-34.80762113533166 533.8076211353316,224.99999999999997" />
  <polygon fill="lightskyblue" points="833.8076211353316,484.80762113533154 833.8076211353316,224.99999999999994 533.8076211353316,-34.80762113533166 533.8076211353316,224.99999999999997" />
  <polygon fill="white" points="698.8076211353316,367.8941916244323 698.8076211353316,194.68911086754463 668.8076211353316,168.70834875401147 668.8076211353316,341.91342951089916" />
  <polygon fill="white" points="79.1442841485013,286.96796769724494 79.1442841485013,217.68593539448983 122.44555433772325,205.18593539448983 122.44555433772325,274.46796769724494" />
  <polygon fill="white" points="165.7468245269452,261.9679676972449 165.7468245269452,192.68593539448983 209.0480947161671,180.18593539448983 209.0480947161671,249.46796769724492" />
  <polygon fill="white" points="252.34936490538905,236.9679676972449 252.34936490538905,167.6859353944898 295.65063509461095,155.1859353944898 295.65063509461095,224.4679676972449" />
  <polygon fill="white" points="338.9519052838329,211.9679676972449 338.9519052838329,142.6859353944898 382.2531754730548,130.1859353944898 382.2531754730548,199.4679676972449" />
  <polygon fill="white" points="425.55444566227675,186.9679676972449 425.55444566227675,117.68593539448977 468.8557158514987,105.18593539448977 468.8557158514987,174.4679676972449" />
</svg>
