<?xml version="1.0" encoding="UTF-8"?>
<svg
  xmlns="http://www.w3.org/2000/svg"
  width="848"
  height="600"
  style="background-color:white"
>
  <polygon fill="lightblue" points="354.82553334635725,510.915584766816 165.8373758621263,347.2470393710578 493.17446665364275,252.75296062894222 682.1626241378738,416.4215060247004" />
  <polygon fill="steelblue" points="165.8373758621263,347.2470393710578 165.8373758621263,183.57849397529955 493.17446665364275,89.08441523318402 493.17446665364275,252.75296062894222" />
  <polygon fill="lightskyblue" points="682.1626241378738,416.4215060247004 682.1626241378738,252.75296062894222 493.17446665364275,89.08441523318402 493.17446665364275,252.75296062894222" />
  <polygon fill="white" points="597.1179532699698,342.7706605966093 597.1179532699698,233.6582969994371 578.2191375215467,217.2914424598613 578.2191375215467,326.4038060570334" />
  <polygon fill="white" points="217.66574857078308,288.6405314646873 217.66574857078308,244.99558602581843 244.9438394700761,237.12107946397546 244.9438394700761,280.7660249028443" />
  <polygon fill="white" points="283.1331667290864,269.7417157162642 283.1331667290864,226.0967702773953 310.41125762837936,218.22226371555234 310.41125762837936,261.86720915442123" />
  <polygon fill="white" points="348.60058488738963,250.84289996784108 348.60058488738963,207.19795452897222 375.87867578668266,199.32344796712925 375.87867578668266,242.9683934059981" />
  <polygon fill="white" points="414.06800304569293,231.94408421941796 414.06800304569293,188.29913878054913 441.3460939449859,180.42463221870617 441.3460939449859,224.069577657575" />
</svg>
