<?xml version="1.0" encoding="UTF-8"?>
<svg
  xmlns="http://www.w3.org/2000/svg"
  width="848"
  height="600"
  style="background-color:white"
>
  <polygon fill="lightblue" points="354.82553334635725,510.915584766816 165.8373758621263,347.2470393710578 493.17446665364275,252.75296062894222 682.1626241378738,416.4215060247004" />
  <polygon fill="steelblue" points="165.8373758621263,347.2470393710578 165.8373758621263,183.57849397529955 493.17446665364275,89.08441523318402 493.17446665364275,252.75296062894222" />
  <polygon fill="lightskyblue" points="682.1626241378738,416.4215060247004 682.1626241378738,252.75296062894222 493.17446665364275,89.08441523318402 493.17446665364275,252.75296062894222" />
  <polygon fill="white" points="597.1179532699698,342.7706605966093 597.1179532699698,233.6582969994371 578.2191375215467,217.2914424598613 578.2191375215467,326.4038060570334" />
  <polygon fill="white" points="198.960771954125,294.0401931070939 198.960771954125,250.395247668225 226.23886285341803,242.52074110638205 226.23886285341803,286.16568654525094" />
  <polygon fill="white" points="245.7232134957702,280.54103900107737 245.7232134957702,236.89609356220853 273.00130439506324,229.02158700036557 273.00130439506324,272.6665324392344" />
  <polygon fill="white" points="292.48565503741537,267.0418848950609 292.48565503741537,223.396939456192 319.7637459367084,215.52243289434907 319.7637459367084,259.1673783332179" />
  <polygon fill="white" points="339.2480965790606,253.54273078904436 339.2480965790606,209.89778535017552 366.5261874783536,202.02327878833256 366.5261874783536,245.6682242272014" />
  <polygon fill="white" points="386.0105381207058,240.04357668302788 386.0105381207058,196.398631244159 413.28862901999884,188.52412468231603 413.28862901999884,232.16907012118492" />
  <polygon fill="white" points="432.77297966235096,226.54442257701137 432.77297966235096,182.89947713814252 460.051070561644,175.02497057629955 460.051070561644,218.6699160151684" />
  <polygon fill="antiquewhite" points="506.13144742676405,402.35813895081515 506.13144742676405,309.6126298932188 527.9539201461985,303.3130246437444 527.9539201461985,396.05853370134076" />
  <polygon fill="beige" points="506.13144742676405,402.35813895081515 506.13144742676405,309.6126298932188 493.5322369278153,298.70139353350163 493.5322369278153,391.4469025910979" />
  <polygon fill="bisque" points="506.13144742676405,309.6126298932188 493.5322369278153,298.70139353350163 515.3547096472497,292.40178828402725 527.9539201461985,303.3130246437444" />
  <polygon fill="antiquewhite" points="371.17422118881086,491.9787115522141 371.17422118881086,399.23320249461784 392.99669390824533,392.93359724514346 392.99669390824533,485.6791063027398" />
  <polygon fill="beige" points="371.17422118881086,491.9787115522141 371.17422118881086,399.23320249461784 358.57501068986215,388.3219661349006 358.57501068986215,481.0674751924969" />
  <polygon fill="bisque" points="371.17422118881086,399.23320249461784 358.57501068986215,388.3219661349006 380.39748340929657,382.0223608854262 392.99669390824533,392.93359724514346" />
</svg>
