<?xml version="1.0" encoding="UTF-8"?>
<svg
  xmlns="http://www.w3.org/2000/svg"
  width="848"
  height="600"
  style="background-color:white"
>
  <polygon fill="lightblue" points="314.1923788646684,764.7114317029974 14.192378864668399,504.90381056766586 533.8076211353316,354.90381056766574 833.8076211353316,614.7114317029973" />
  <polygon fill="steelblue" points="14.192378864668399,504.90381056766586 14.192378864668399,-14.711431702997345 533.8076211353316,-164.7114317029974 533.8076211353316,354.90381056766574" />
  <polygon fill="lightskyblue" points="833.8076211353316,614.7114317029973 833.8076211353316,95.09618943233414 533.8076211353316,-164.7114317029974 533.8076211353316,354.90381056766574" />
  <polygon fill="white" points="698.8076211353316,497.7980021920981 698.8076211353316,324.5929214352104 668.8076211353316,298.61215932167727 668.8076211353316,471.81724007856496" />
  <polygon fill="white" points="79.14428414850136,416.87177826491074 79.1442841485013,347.58974596215563 122.44555433772325,335.08974596215563 122.44555433772325,404.37177826491074" />
  <polygon fill="white" points="165.7468245269452,391.87177826491074 165.7468245269452,322.58974596215563 209.0480947161671,310.0897459621556 209.0480947161671,379.37177826491074" />
  <polygon fill="white" points="252.34936490538905,366.8717782649107 252.34936490538905,297.5897459621556 295.65063509461095,285.0897459621556 295.65063509461095,354.3717782649107" />
  <polygon fill="white" points="338.9519052838329,341.8717782649107 338.9519052838329,272.5897459621556 382.2531754730548,260.0897459621556 382.25317547305485,329.3717782649107" />
  <polygon fill="white" points="425.5544456622768,316.8717782649107 425.55444566227675,247.58974596215558 468.8557158514987,235.08974596215558 468.8557158514987,304.3717782649107" />
</svg>
