<?xml version="1.0" encoding="UTF-8"?>
<svg
  xmlns="http://www.w3.org/2000/svg"
  width="848"
  height="600"
  style="background-color:white"
>
  <polygon fill="lightblue" points="350.79491924311225,523.2050807568878 150.79491924311225,350.00000000000006 497.20508075688775,249.99999999999997 697.2050807568878,423.2050807568877" />
  <polygon fill="steelblue" points="150.79491924311225,350.00000000000006 150.79491924311225,176.7949192431123 497.20508075688775,76.79491924311222 497.20508075688775,249.99999999999997" />
  <polygon fill="lightskyblue" points="697.2050807568878,423.2050807568877 697.2050807568878,249.99999999999997 497.20508075688775,76.79491924311222 497.20508075688775,249.99999999999997" />
  <polygon fill="white" points="573.8717474235544,316.3952809568069 573.8717474235544,200.92522711888176 553.8717474235544,183.604719043193 553.8717474235544,299.0747728811182" />
  <polygon fill="white" points="640.5384140902211,374.1303078757695 640.5384140902211,258.66025403784437 620.5384140902211,241.3397459621556 620.5384140902211,356.8097998000808" />
  <polygon fill="hsl(324.0,50.0%,50.65955712546234%)" points="477.66479761112237,406.5545017795718 477.66479761112237,366.9020852916283 484.5930008413979,364.9020852916283 484.5930008413979,404.5545017795718" />
  <polygon fill="hsl(324.0,50.0%,50.65955712546234%)" points="494.98530568681116,401.5545017795718 494.98530568681116,361.9020852916283 488.05710245653563,363.90208529162834 488.05710245653563,403.5545017795718" />
  <polygon fill="hsl(324.0,50.0%,50.65955712546234%)" points="470.73659438084684,369.29468347467724 470.73659438084684,330.03486516978273 476.79877220733795,328.28486516978273 476.79877220733795,367.54468347467724" />
  <polygon fill="hsl(324.0,50.0%,50.65955712546234%)" points="495.8513310905956,362.04468347467724 495.8513310905956,322.7848651697827 501.9135089170867,321.0348651697827 501.9135089170867,360.29468347467724" />
  <polygon fill="hsl(324.0,50.0%,50.65955712546234%)" points="476.79877220733795,334.3470429962738 476.79877220733795,328.28486516978273 495.8513310905956,322.7848651697827 495.8513310905956,328.8470429962738" />
  <polygon fill="hsl(324.0,50.0%,50.65955712546234%)" points="477.66479761112237,367.29468347467724 477.66479761112237,328.0348651697827 494.98530568681116,323.0348651697827 494.98530568681116,362.29468347467724" />
  <polygon fill="hsl(324.0,50.0%,50.65955712546234%)" points="481.9949246300446,324.821874254538 481.9949246300446,307.15495601733545 490.65517866788895,304.65495601733545 490.65517866788895,322.321874254538" />
  <polygon fill="hsl(324.0,50.0%,50.65955712546234%)" points="483.7269754376134,326.2848651697827 483.7269754376134,306.65495601733545 488.92312786032005,305.15495601733545 488.92312786032005,324.78486516978273" />
  <polygon fill="hsl(324.0,50.0%,42.21758785095096%)" points="373.7951040834438,475.53088540403394 373.7951040834438,435.87846891609047 380.72330731371926,433.87846891609047 380.72330731371926,473.53088540403394" />
  <polygon fill="hsl(324.0,50.0%,42.21758785095096%)" points="391.1156121591325,470.53088540403394 391.1156121591325,430.87846891609047 384.187408928857,432.87846891609047 384.187408928857,472.53088540403394" />
  <polygon fill="hsl(324.0,50.0%,42.21758785095096%)" points="366.8669008531682,438.2710670991394 366.8669008531682,399.01124879424486 372.9290786796593,397.26124879424486 372.9290786796593,436.5210670991394" />
  <polygon fill="hsl(324.0,50.0%,42.21758785095096%)" points="391.98163756291694,431.0210670991394 391.98163756291694,391.76124879424486 398.043815389408,390.01124879424486 398.043815389408,429.2710670991394" />
  <polygon fill="hsl(324.0,50.0%,42.21758785095096%)" points="372.9290786796593,403.3234266207359 372.9290786796593,397.26124879424486 391.98163756291694,391.76124879424486 391.98163756291694,397.8234266207359" />
  <polygon fill="hsl(324.0,50.0%,42.21758785095096%)" points="373.7951040834438,436.2710670991394 373.7951040834438,397.01124879424486 391.1156121591325,392.01124879424486 391.1156121591325,431.2710670991394" />
  <polygon fill="hsl(324.0,50.0%,42.21758785095096%)" points="378.12523110236594,393.7982578790001 378.12523110236594,376.1313396417976 386.7854851402103,373.6313396417976 386.7854851402103,391.2982578790001" />
  <polygon fill="hsl(324.0,50.0%,42.21758785095096%)" points="379.85728190993484,395.26124879424486 379.85728190993484,375.6313396417976 385.0534343326415,374.1313396417976 385.0534343326415,393.76124879424486" />
</svg>
