<?xml version="1.0" encoding="UTF-8"?>
<svg
  xmlns="http://www.w3.org/2000/svg"
  width="848"
  height="600"
  style="background-color:white"
>
  <polygon fill="lightblue" points="314.1923788646684,678.1088913245535 14.192378864668399,418.30127018922195 533.8076211353316,268.3012701892219 833.8076211353316,528.1088913245535" />
  <polygon fill="steelblue" points="14.192378864668399,418.30127018922195 14.192378864668399,71.89110867544653 533.8076211353316,-78.10889132455355 533.8076211353316,268.3012701892219" />
  <polygon fill="lightskyblue" points="833.8076211353316,528.1088913245535 833.8076211353316,181.69872981077805 533.8076211353316,-78.10889132455355 533.8076211353316,268.3012701892219" />
  <polygon fill="white" points="698.8076211353316,411.1954618136542 698.8076211353316,237.99038105676655 668.8076211353316,212.0096189432334 668.8076211353316,385.2146997001211" />
  <polygon fill="white" points="96.46479222419009,325.26923788646684 96.46479222419009,255.98720558371176 139.76606241341204,243.48720558371176 139.76606241341204,312.76923788646684" />
  <polygon fill="white" points="200.3878406783227,295.26923788646684 200.3878406783227,225.98720558371173 243.68911086754463,213.48720558371173 243.68911086754463,282.76923788646684" />
  <polygon fill="white" points="304.3108891324553,265.26923788646684 304.3108891324553,195.98720558371173 347.61215932167727,183.48720558371173 347.61215932167727,252.76923788646684" />
  <polygon fill="white" points="408.23393758658796,235.2692378864668 408.23393758658796,165.98720558371173 451.5352077758099,153.48720558371173 451.5352077758099,222.7692378864668" />
</svg>
