<?xml version="1.0" encoding="UTF-8"?>
<svg
  xmlns="http://www.w3.org/2000/svg"
  width="848"
  height="600"
  style="background-color:white"
>
  <polygon fill="lightblue" points="354.82553334635725,510.915584766816 165.8373758621263,347.2470393710578 493.17446665364275,252.75296062894222 682.1626241378738,416.4215060247004" />
  <polygon fill="steelblue" points="165.8373758621263,347.2470393710578 165.8373758621263,183.57849397529955 493.17446665364275,89.08441523318402 493.17446665364275,252.75296062894222" />
  <polygon fill="lightskyblue" points="682.1626241378738,416.4215060247004 682.1626241378738,252.75296062894222 493.17446665364275,89.08441523318402 493.17446665364275,252.75296062894222" />
  <polygon fill="white" points="217.66574857078308,288.6405314646873 217.66574857078308,244.99558602581843 244.9438394700761,237.12107946397546 244.9438394700761,280.7660249028443" />
  <polygon fill="white" points="283.1331667290864,269.7417157162642 283.1331667290864,226.0967702773953 310.41125762837936,218.22226371555234 310.41125762837936,261.86720915442123" />
  <polygon fill="white" points="348.60058488738963,250.84289996784108 348.60058488738963,207.19795452897222 375.87867578668266,199.32344796712925 375.87867578668266,242.9683934059981" />
  <polygon fill="white" points="414.06800304569293,231.94408421941796 414.06800304569293,188.29913878054913 441.3460939449859,180.42463221870617 441.3460939449859,224.069577657575" />
  <polygon fill="grey" points="481.6453888780356,148.78729450368377 481.6453888780356,121.5092036043907 508.9234797773286,113.63469704254774 508.9234797773286,140.9127879418408" />
  <polygon fill="lightgrey" points="481.6453888780356,148.78729450368377 481.6453888780356,121.5092036043907 465.89637575434966,107.87015815474422 465.89637575434966,135.14824905403725" />
  <polygon fill="darkgrey" points="481.6453888780356,121.5092036043907 465.89637575434966,107.87015815474422 493.17446665364275,99.99565159290125 508.9234797773286,113.63469704254774" />
  <polygon fill="hsl(360.0,50.0%,50.65955712546234%)" points="474.7100561114509,400.6876948148574 474.7100561114509,363.21850915558855 481.25679792728124,361.32862758074623 481.25679792728124,398.7978132400151" />
  <polygon fill="hsl(360.0,50.0%,50.65955712546234%)" points="491.0769106510267,395.9629908777517 491.0769106510267,358.49380521848275 484.5301688351964,360.38368679332507 484.5301688351964,397.85287245259394" />
  <polygon fill="hsl(360.0,50.0%,50.65955712546234%)" points="468.1633142956206,365.4793727666612 468.1633142956206,328.3811691436227 473.8917133844721,326.7275227656357 473.8917133844721,363.8257263886742" />
  <polygon fill="hsl(360.0,50.0%,50.65955712546234%)" points="491.89525337800546,358.62855205785786 491.89525337800546,321.5303484348193 497.62365246685704,319.8767020568323 497.62365246685704,356.9749056798708" />
  <polygon fill="hsl(360.0,50.0%,50.65955712546234%)" points="473.8917133844721,332.4559218544872 473.8917133844721,326.7275227656357 491.89525337800546,321.5303484348193 491.89525337800546,327.2587475236708" />
  <polygon fill="hsl(360.0,50.0%,50.65955712546234%)" points="474.7100561114509,363.5894911918189 474.71005611145085,326.49128756878036 491.0769106510267,321.7665836316746 491.0769106510267,358.8647872547131" />
  <polygon fill="hsl(360.0,50.0%,50.65955712546234%)" points="478.8017697463448,323.455201403352 478.8017697463448,306.76100977298466 486.98519701613276,304.39865780443176 486.98519701613276,321.0928494347991" />
  <polygon fill="hsl(360.0,50.0%,50.65955712546234%)" points="480.4384552003024,324.83764119079336 480.4384552003024,306.2885393792741 485.3485115621752,304.87112819814234 485.3485115621752,323.4202300096616" />
  <polygon fill="hsl(360.0,50.0%,42.21758785095096%)" points="376.55934612021224,465.86629307042034 376.55934612021224,428.3971074111514 383.10608793604257,426.5072258363091 383.10608793604257,463.9764114955781" />
  <polygon fill="hsl(360.0,50.0%,42.21758785095096%)" points="392.92620065978804,461.1415891333146 392.92620065978804,423.67240347404567 386.3794588439577,425.56228504888793 386.3794588439577,463.0314707081569" />
  <polygon fill="hsl(360.0,50.0%,42.21758785095096%)" points="370.01260430438185,430.65797102222416 370.01260430438185,393.5597673991856 375.7410033932334,391.9061210211986 375.7410033932334,429.0043246442371" />
  <polygon fill="hsl(360.0,50.0%,42.21758785095096%)" points="393.74454338676685,423.8071503134207 393.74454338676685,386.7089466903822 399.47294247561837,385.0553003123952 399.47294247561837,422.1535039354337" />
  <polygon fill="hsl(360.0,50.0%,42.21758785095096%)" points="375.7410033932334,397.6345201100501 375.7410033932334,391.9061210211986 393.74454338676685,386.7089466903822 393.74454338676685,392.43734577923374" />
  <polygon fill="hsl(360.0,50.0%,42.21758785095096%)" points="376.55934612021224,428.76808944738184 376.55934612021224,391.6698858243433 392.92620065978804,386.9451818872375 392.92620065978804,424.04338551027604" />
  <polygon fill="hsl(360.0,50.0%,42.21758785095096%)" points="380.6510597551062,388.63379965891494 380.6510597551062,371.9396080285476 388.8344870248941,369.5772560599947 388.8344870248941,386.27144769036204" />
  <polygon fill="hsl(360.0,50.0%,42.21758785095096%)" points="382.28774520906376,390.0162394463563 382.28774520906376,371.467137634837 387.19780157093646,370.04972645370526 387.19780157093646,388.59882826522454" />
</svg>
