<?xml version="1.0" encoding="UTF-8"?>
<svg
  xmlns="http://www.w3.org/2000/svg"
  width="848"
  height="600"
  style="background-color:white"
>
  <polygon fill="lightblue" points="369.0961894323342,467.4038105676658 219.0961894323342,337.5 478.9038105676658,262.5 628.9038105676658,392.4038105676658" />
  <polygon fill="steelblue" points="219.0961894323342,337.5 219.0961894323342,207.59618943233423 478.9038105676658,132.59618943233417 478.9038105676658,262.5" />
  <polygon fill="lightskyblue" points="628.9038105676658,392.4038105676658 628.9038105676658,262.5 478.9038105676658,132.59618943233417 478.9038105676658,262.5" />
  <polygon fill="white" points="561.4038105676658,333.94709581221616 561.4038105676658,247.3445554337723 546.4038105676658,234.35417437700573 546.4038105676658,320.9567147554496" />
  <polygon fill="white" points="251.57214207425065,293.4839838486225 251.57214207425065,258.84296769724494 273.2227771688616,252.59296769724492 273.2227771688616,287.2339838486225" />
  <polygon fill="white" points="294.8734122634726,280.9839838486225 294.8734122634726,246.34296769724492 316.5240473580835,240.09296769724492 316.5240473580835,274.7339838486225" />
  <polygon fill="white" points="338.1746824526945,268.4839838486225 338.1746824526945,233.8429676972449 359.8253175473055,227.5929676972449 359.8253175473055,262.2339838486225" />
  <polygon fill="white" points="381.4759526419165,255.98398384862244 381.4759526419165,221.3429676972449 403.1265877365274,215.0929676972449 403.1265877365274,249.73398384862244" />
  <polygon fill="white" points="424.7772228311384,243.48398384862244 424.7772228311384,208.8429676972449 446.4278579257493,202.5929676972449 446.4278579257493,237.23398384862244" />
</svg>
