<?xml version="1.0" encoding="UTF-8"?>
<svg
  xmlns="http://www.w3.org/2000/svg"
  width="848"
  height="600"
  style="background-color:white"
>
  <polygon fill="lightblue" points="369.0961894323342,532.3557158514986 219.0961894323342,402.45190528383296 478.9038105676658,327.4519052838329 628.9038105676658,457.35571585149864" />
  <polygon fill="steelblue" points="219.0961894323342,402.45190528383296 219.0961894323342,142.64428414850133 478.9038105676658,67.6442841485013 478.9038105676658,327.4519052838329" />
  <polygon fill="lightskyblue" points="628.9038105676658,457.35571585149864 628.9038105676658,197.54809471616707 478.9038105676658,67.6442841485013 478.9038105676658,327.4519052838329" />
  <polygon fill="white" points="561.4038105676658,398.89900109604906 561.4038105676658,312.2964607176052 546.4038105676658,299.30607966083863 546.4038105676658,385.9086200392825" />
  <polygon fill="white" points="294.8734122634726,345.9358891324554 294.8734122634726,311.2948729810778 316.5240473580835,305.0448729810778 316.5240473580835,339.6858891324554" />
  <polygon fill="white" points="381.4759526419165,320.9358891324554 381.4759526419165,286.2948729810778 403.1265877365274,280.0448729810778 403.1265877365274,314.6858891324554" />
  <polygon fill="antiquewhite" points="489.18777302245803,446.19361400784845 489.18777302245803,372.5814546861711 506.5082810981468,367.5814546861711 506.5082810981469,441.19361400784845" />
  <polygon fill="beige" points="489.18777302245803,446.19361400784845 489.18777302245803,372.5814546861711 479.18777302245803,363.92120064832676 479.18777302245803,437.5333599700041" />
  <polygon fill="bisque" points="489.18777302245803,372.5814546861711 479.18777302245803,363.92120064832676 496.5082810981468,358.92120064832676 506.5082810981468,367.5814546861711" />
</svg>
