<?xml version="1.0" encoding="UTF-8"?>
<svg
  xmlns="http://www.w3.org/2000/svg"
  width="848"
  height="600"
  style="background-color:white"
>
  <polygon fill="lightblue" points="354.82553334635725,510.915584766816 165.8373758621263,347.2470393710578 493.17446665364275,252.75296062894222 682.1626241378738,416.4215060247004" />
  <polygon fill="steelblue" points="165.8373758621263,347.2470393710578 165.8373758621263,183.57849397529955 493.17446665364275,89.08441523318402 493.17446665364275,252.75296062894222" />
  <polygon fill="lightskyblue" points="682.1626241378738,416.4215060247004 682.1626241378738,252.75296062894222 493.17446665364275,89.08441523318402 493.17446665364275,252.75296062894222" />
  <polygon fill="white" points="565.619927022598,315.4925696973162 565.619927022598,206.38020610014405 546.7211112741749,190.01335156056825 546.7211112741749,299.1257151577404" />
  <polygon fill="white" points="628.6159795173417,370.04875149590225 628.6159795173417,260.9363878987302 609.7171637689185,244.56953335915432 609.7171637689185,353.68189695632645" />
  <polygon fill="white" points="234.0326031103589,283.9158275275815 234.0326031103589,240.27088208871265 261.3106940096519,232.3963755268697 261.3106940096519,276.0413209657385" />
  <polygon fill="white" points="315.866875808238,260.2923078420526 315.866875808238,216.64736240318376 343.144966707531,208.7728558413408 343.144966707531,252.41780128020966" />
  <polygon fill="white" points="397.7011485061171,236.66878815652373 397.7011485061171,193.02384271765487 424.9792394054101,185.1493361558119 424.9792394054101,228.7942815946808" />
  <polygon fill="hsl(360.0,50.0%,50.65955712546234%)" points="474.7100561114509,400.6876948148574 474.7100561114509,363.21850915558855 481.25679792728124,361.32862758074623 481.25679792728124,398.7978132400151" />
  <polygon fill="hsl(360.0,50.0%,50.65955712546234%)" points="491.0769106510267,395.9629908777517 491.0769106510267,358.49380521848275 484.5301688351964,360.38368679332507 484.5301688351964,397.85287245259394" />
  <polygon fill="hsl(360.0,50.0%,50.65955712546234%)" points="468.1633142956206,365.4793727666612 468.1633142956206,328.3811691436227 473.8917133844721,326.7275227656357 473.8917133844721,363.8257263886742" />
  <polygon fill="hsl(360.0,50.0%,50.65955712546234%)" points="491.89525337800546,358.62855205785786 491.89525337800546,321.5303484348193 497.62365246685704,319.8767020568323 497.62365246685704,356.9749056798708" />
  <polygon fill="hsl(360.0,50.0%,50.65955712546234%)" points="473.8917133844721,332.4559218544872 473.8917133844721,326.7275227656357 491.89525337800546,321.5303484348193 491.89525337800546,327.2587475236708" />
  <polygon fill="hsl(360.0,50.0%,50.65955712546234%)" points="474.7100561114509,363.5894911918189 474.71005611145085,326.49128756878036 491.0769106510267,321.7665836316746 491.0769106510267,358.8647872547131" />
  <polygon fill="hsl(360.0,50.0%,50.65955712546234%)" points="478.8017697463448,323.455201403352 478.8017697463448,306.76100977298466 486.98519701613276,304.39865780443176 486.98519701613276,321.0928494347991" />
  <polygon fill="hsl(360.0,50.0%,50.65955712546234%)" points="480.4384552003024,324.83764119079336 480.4384552003024,306.2885393792741 485.3485115621752,304.87112819814234 485.3485115621752,323.4202300096616" />
</svg>
