<?xml version="1.0" encoding="UTF-8"?>
<svg
  xmlns="http://www.w3.org/2000/svg"
  width="848"
  height="600"
  style="background-color:white"
>
  <polygon fill="lightblue" points="369.0961894323342,532.3557158514986 219.0961894323342,402.45190528383296 478.9038105676658,327.4519052838329 628.9038105676658,457.35571585149864" />
  <polygon fill="steelblue" points="219.0961894323342,402.45190528383296 219.0961894323342,142.64428414850133 478.9038105676658,67.6442841485013 478.9038105676658,327.4519052838329" />
  <polygon fill="lightskyblue" points="628.9038105676658,457.35571585149864 628.9038105676658,197.54809471616707 478.9038105676658,67.6442841485013 478.9038105676658,327.4519052838329" />
  <polygon fill="white" points="536.4038105676658,377.2483660014381 536.4038105676658,290.6458256229942 521.4038105676658,277.6554445662277 521.4038105676658,364.25798494467153" />
  <polygon fill="white" points="586.4038105676658,420.54963619066007 586.4038105676658,333.94709581221616 571.4038105676658,320.9567147554496 571.4038105676658,407.55925513389343" />
  <polygon fill="white" points="251.57214207425068,358.4358891324554 251.57214207425065,323.7948729810778 273.2227771688616,317.5448729810778 273.2227771688616,352.1858891324554" />
  <polygon fill="white" points="294.8734122634726,345.9358891324554 294.8734122634726,311.2948729810778 316.5240473580835,305.0448729810778 316.5240473580835,339.6858891324554" />
  <polygon fill="white" points="338.1746824526945,333.4358891324554 338.1746824526945,298.7948729810778 359.8253175473055,292.5448729810778 359.8253175473055,327.1858891324554" />
  <polygon fill="white" points="381.4759526419165,320.9358891324554 381.4759526419165,286.2948729810778 403.1265877365274,280.0448729810778 403.1265877365274,314.6858891324554" />
  <polygon fill="white" points="424.7772228311384,308.4358891324554 424.7772228311384,273.7948729810778 446.4278579257493,267.5448729810778 446.4278579257493,302.1858891324553" />
  <polygon fill="grey" points="469.7531754730548,115.03049082826215 469.7531754730548,93.37985573365114 491.4038105676658,87.12985573365114 491.4038105676658,108.78049082826215" />
  <polygon fill="lightgrey" points="469.7531754730548,115.03049082826215 469.7531754730548,93.37985573365114 457.2531754730548,82.5545381863457 457.2531754730548,104.20517328095667" />
  <polygon fill="darkgrey" points="469.7531754730548,93.37985573365114 457.2531754730548,82.5545381863457 478.9038105676658,76.3045381863457 491.4038105676658,87.12985573365114" />
  <polygon fill="hsl(324.0,50.0%,72.83574745959227%)" points="381.553637262627,391.919183845767 381.553637262627,362.1798714798094 386.7497896853336,360.6798714798094 386.7497896853336,390.419183845767" />
  <polygon fill="hsl(324.0,50.0%,72.83574745959227%)" points="394.54401831939356,388.169183845767 394.54401831939356,358.4298714798094 389.3478658966869,359.9298714798094 389.3478658966869,389.669183845767" />
  <polygon fill="hsl(324.0,50.0%,72.83574745959227%)" points="376.35748483992035,363.9743201170961 376.35748483992035,334.52945638842516 380.90411820978863,333.21695638842516 380.90411820978863,362.6618201170961" />
  <polygon fill="hsl(324.0,50.0%,72.83574745959227%)" points="395.1935373722319,358.53682011709606 395.1935373722319,329.09195638842516 399.7401707421002,327.77945638842516 399.7401707421002,357.2243201170961" />
  <polygon fill="hsl(324.0,50.0%,72.83574745959227%)" points="380.90411820978863,337.76358975829345 380.90411820978863,333.21695638842516 395.1935373722319,329.09195638842516 395.1935373722319,333.63858975829345" />
  <polygon fill="hsl(324.0,50.0%,72.83574745959227%)" points="381.553637262627,362.4743201170961 381.553637262627,333.02945638842516 394.54401831939356,329.27945638842516 394.54401831939356,358.7243201170961" />
  <polygon fill="hsl(324.0,50.0%,72.83574745959227%)" points="384.80123252681864,330.6197132019916 384.80123252681864,317.3695245240897 391.2964230552019,315.4945245240897 391.2964230552019,328.7447132019916" />
  <polygon fill="hsl(324.0,50.0%,72.83574745959227%)" points="386.10027063249527,331.71695638842516 386.10027063249527,316.9945245240897 389.99738494952527,315.8695245240897 389.99738494952527,330.59195638842516" />
  <polygon fill="hsl(324.0,50.0%,72.09185257592405%)" points="430.48924882325724,380.36961706003035 430.48924882325724,350.6303046940727 435.6854012459639,349.1303046940727 435.6854012459639,378.86961706003035" />
  <polygon fill="hsl(324.0,50.0%,72.09185257592405%)" points="443.4796298800238,376.61961706003035 443.4796298800238,346.8803046940727 438.2834774573172,348.3803046940727 438.2834774573172,378.11961706003035" />
  <polygon fill="hsl(324.0,50.0%,72.09185257592405%)" points="425.2930964005506,352.42475333135945 425.2930964005506,322.9798896026885 429.8397297704189,321.6673896026885 429.8397297704189,351.11225333135945" />
  <polygon fill="hsl(324.0,50.0%,72.09185257592405%)" points="444.12914893286217,346.98725333135945 444.12914893286217,317.5423896026885 448.67578230273045,316.2298896026885 448.6757823027305,345.6747533313594" />
  <polygon fill="hsl(324.0,50.0%,72.09185257592405%)" points="429.8397297704189,326.2140229725568 429.8397297704189,321.6673896026885 444.12914893286217,317.5423896026885 444.12914893286217,322.0890229725568" />
  <polygon fill="hsl(324.0,50.0%,72.09185257592405%)" points="430.48924882325724,350.92475333135945 430.48924882325724,321.4798896026885 443.4796298800238,317.7298896026885 443.4796298800238,347.1747533313594" />
  <polygon fill="hsl(324.0,50.0%,72.09185257592405%)" points="433.7368440874489,319.07014641625494 433.7368440874489,305.8199577383531 440.23203461583216,303.9449577383531 440.23203461583216,317.19514641625494" />
  <polygon fill="hsl(324.0,50.0%,72.09185257592405%)" points="435.03588219312553,320.1673896026885 435.03588219312553,305.4449577383531 438.93299651015553,304.3199577383531 438.93299651015553,319.0423896026885" />
  <polygon fill="hsl(324.0,50.0%,50.65955712546234%)" points="464.2485982083418,444.8677816185118 464.2485982083418,415.12846925255417 469.4447506310484,413.62846925255417 469.4447506310484,443.3677816185118" />
  <polygon fill="hsl(324.0,50.0%,50.65955712546234%)" points="477.23897926510836,441.1177816185118 477.23897926510836,411.37846925255417 472.0428268424017,412.87846925255417 472.0428268424017,442.6177816185118" />
  <polygon fill="hsl(324.0,50.0%,50.65955712546234%)" points="459.05244578563514,416.92291788984085 459.05244578563514,387.4780541611699 463.59907915550343,386.1655541611699 463.59907915550343,415.61041788984085" />
  <polygon fill="hsl(324.0,50.0%,50.65955712546234%)" points="477.8884983179467,411.48541788984085 477.8884983179467,382.0405541611699 482.435131687815,380.7280541611699 482.435131687815,410.17291788984085" />
  <polygon fill="hsl(324.0,50.0%,50.65955712546234%)" points="463.59907915550343,390.71218753103824 463.59907915550343,386.1655541611699 477.8884983179467,382.0405541611699 477.8884983179467,386.58718753103824" />
  <polygon fill="hsl(324.0,50.0%,50.65955712546234%)" points="464.2485982083418,415.42291788984085 464.2485982083418,385.9780541611699 477.23897926510836,382.2280541611699 477.23897926510836,411.67291788984085" />
  <polygon fill="hsl(324.0,50.0%,50.65955712546234%)" points="467.49619347253343,383.5683109747364 467.49619347253343,370.3181222968345 473.9913840009167,368.4431222968345 473.9913840009167,381.6933109747364" />
  <polygon fill="hsl(324.0,50.0%,50.65955712546234%)" points="468.79523157821006,384.6655541611699 468.79523157821006,369.9431222968345 472.69234589524007,368.8181222968345 472.69234589524007,383.5405541611699" />
  <polygon fill="hsl(324.0,50.0%,42.21758785095096%)" points="386.3463280625828,496.6000693368584 386.3463280625828,466.86075697090075 391.54248048528945,465.36075697090075 391.54248048528945,495.1000693368584" />
  <polygon fill="hsl(324.0,50.0%,42.21758785095096%)" points="399.3367091193494,492.8500693368584 399.3367091193494,463.11075697090075 394.14055669664276,464.61075697090075 394.14055669664276,494.3500693368584" />
  <polygon fill="hsl(324.0,50.0%,42.21758785095096%)" points="381.1501756398762,468.65520560818743 381.1501756398762,439.21034187951653 385.69680900974447,437.89784187951653 385.69680900974447,467.34270560818743" />
  <polygon fill="hsl(324.0,50.0%,42.21758785095096%)" points="399.98622817218774,463.21770560818743 399.98622817218774,433.77284187951653 404.532861542056,432.4603418795165 404.532861542056,461.90520560818743" />
  <polygon fill="hsl(324.0,50.0%,42.21758785095096%)" points="385.69680900974447,442.4444752493848 385.69680900974447,437.89784187951653 399.98622817218774,433.77284187951653 399.98622817218774,438.3194752493848" />
  <polygon fill="hsl(324.0,50.0%,42.21758785095096%)" points="386.3463280625828,467.15520560818743 386.3463280625828,437.7103418795165 399.3367091193494,433.96034187951653 399.3367091193494,463.40520560818743" />
  <polygon fill="hsl(324.0,50.0%,42.21758785095096%)" points="389.5939233267745,435.300598693083 389.5939233267745,422.05041001518106 396.08911385515773,420.1754100151811 396.08911385515773,433.425598693083" />
  <polygon fill="hsl(324.0,50.0%,42.21758785095096%)" points="390.8929614324511,436.3978418795165 390.8929614324511,421.67541001518106 394.7900757494811,420.55041001518106 394.7900757494811,435.2728418795165" />
  <polygon fill="hsl(324.0,50.0%,41.7579500056716%)" points="521.9383998035719,459.05024197924945 521.9383998035719,429.31092961329193 527.1345522262785,427.8109296132919 527.1345522262785,457.5502419792495" />
  <polygon fill="hsl(324.0,50.0%,41.7579500056716%)" points="534.9287808603385,455.30024197924945 534.9287808603385,425.5609296132919 529.7326284376319,427.0609296132919 529.7326284376319,456.80024197924945" />
  <polygon fill="hsl(324.0,50.0%,41.7579500056716%)" points="516.7422473808653,431.1053782505786 516.7422473808653,401.66051452190766 521.2888807507336,400.34801452190766 521.2888807507336,429.7928782505786" />
  <polygon fill="hsl(324.0,50.0%,41.7579500056716%)" points="535.5782999131768,425.66787825057855 535.5782999131768,396.22301452190766 540.1249332830452,394.91051452190766 540.1249332830452,424.35537825057855" />
  <polygon fill="hsl(324.0,50.0%,41.7579500056716%)" points="521.2888807507336,404.89464789177595 521.2888807507336,400.34801452190766 535.5782999131768,396.22301452190766 535.5782999131768,400.76964789177595" />
  <polygon fill="hsl(324.0,50.0%,41.7579500056716%)" points="521.9383998035719,429.60537825057855 521.9383998035719,400.16051452190766 534.9287808603385,396.41051452190766 534.9287808603385,425.85537825057855" />
  <polygon fill="hsl(324.0,50.0%,41.7579500056716%)" points="525.1859950677635,397.7507713354741 525.1859950677635,384.5005826575722 531.6811855961469,382.6255826575722 531.6811855961469,395.8757713354741" />
  <polygon fill="hsl(324.0,50.0%,41.7579500056716%)" points="526.4850331734402,398.84801452190766 526.4850331734402,384.1255826575722 530.3821474904702,383.0005826575722 530.3821474904702,397.72301452190766" />
</svg>
