<?xml version="1.0" encoding="UTF-8"?>
<svg
  xmlns="http://www.w3.org/2000/svg"
  width="848"
  height="600"
  style="background-color:white"
>
  <polygon fill="lightblue" points="361.15082607274286,516.4133165676332 189.4436896897431,367.7105744488761 486.84917392725714,281.8570062573762 658.5563103102569,430.55974837613326" />
  <polygon fill="steelblue" points="189.4436896897431,367.7105744488761 189.4436896897431,169.44025162386677 486.84917392725714,83.58668343236684 486.84917392725714,281.8570062573762" />
  <polygon fill="lightskyblue" points="658.5563103102569,430.55974837613326 658.5563103102569,232.28942555112388 486.84917392725714,83.58668343236684 486.84917392725714,281.8570062573762" />
  <polygon fill="white" points="226.61937521943236,317.32481385993674 226.61937521943236,277.67074929493486 251.40316557255855,270.51628527897657 251.40316557255855,310.17034984397844" />
  <polygon fill="white" points="276.18695592568474,303.0158858280201 276.18695592568474,263.3618212630182 300.97074627881085,256.2073572470599 300.97074627881085,295.8614218120618" />
  <polygon fill="white" points="325.75453663193707,288.70695779610344 325.75453663193707,249.05289323110156 350.53832698506324,241.89842921514327 350.53832698506324,281.55249378014514" />
  <polygon fill="white" points="375.3221173381894,274.3980297641868 375.3221173381894,234.7439651991849 400.10590769131556,227.58950118322662 400.10590769131556,267.2435657482285" />
  <polygon fill="white" points="424.88969804444173,260.08910173227014 424.88969804444173,220.43503716726826 449.6734883975679,213.28057315130997 449.6734883975679,252.93463771631184" />
  <polygon fill="hsl(360.0,50.0%,50.65955712546234%)" points="470.0731436118954,416.2646321995638 470.0731436118954,382.2216177705097 476.0212532966456,380.50454640667965 476.0212532966456,414.5475608357338" />
  <polygon fill="hsl(360.0,50.0%,50.65955712546234%)" points="484.94341782377103,411.9719537899888 484.94341782377103,377.9289393609347 478.9953081390207,379.64601072476466 478.9953081390207,413.6890251538188" />
  <polygon fill="hsl(360.0,50.0%,50.65955712546234%)" points="464.12503392714507,384.2757486831422 464.12503392714507,350.5697938028906 469.32962990130153,349.06735635953936 469.32962990130153,382.7733112397909" />
  <polygon fill="hsl(360.0,50.0%,50.65955712546234%)" points="485.6869315343648,378.05136498925845 485.6869315343648,344.3454101090069 490.89152750852134,342.8429726656556 490.89152750852134,376.5489275459072" />
  <polygon fill="hsl(360.0,50.0%,50.65955712546234%)" points="469.32962990130153,354.2719523336958 469.32962990130153,349.06735635953936 485.6869315343648,344.3454101090069 485.6869315343648,349.55000608316334" />
  <polygon fill="hsl(360.0,50.0%,50.65955712546234%)" points="470.0731436118954,382.5586773193122 470.0731436118954,348.8527224390606 484.94341782377103,344.5600440294856 484.94341782377103,378.2659989097372" />
  <polygon fill="hsl(360.0,50.0%,50.65955712546234%)" points="473.79071216486426,346.0942550926543 473.79071216486426,330.92657539654107 481.22584927080214,328.7802361917536 481.22584927080214,343.94791588786677" />
  <polygon fill="hsl(360.0,50.0%,50.65955712546234%)" points="475.27773958605184,347.35028499570933 475.27773958605184,330.4973075555836 479.73882184961457,329.2095040327111 479.73882184961457,346.06248147283685" />
</svg>
