<?xml version="1.0" encoding="UTF-8"?>
<svg
  xmlns="http://www.w3.org/2000/svg"
  width="848"
  height="600"
  style="background-color:white"
>
  <polygon fill="lightblue" points="354.82553334635725,510.915584766816 165.8373758621263,347.2470393710578 493.17446665364275,252.75296062894222 682.1626241378738,416.4215060247004" />
  <polygon fill="steelblue" points="165.8373758621263,347.2470393710578 165.8373758621263,183.57849397529955 493.17446665364275,89.08441523318402 493.17446665364275,252.75296062894222" />
  <polygon fill="lightskyblue" points="682.1626241378738,416.4215060247004 682.1626241378738,252.75296062894222 493.17446665364275,89.08441523318402 493.17446665364275,252.75296062894222" />
  <polygon fill="white" points="597.1179532699698,342.7706605966093 597.1179532699698,233.6582969994371 578.2191375215467,217.2914424598613 578.2191375215467,326.4038060570334" />
  <polygon fill="white" points="217.66574857078308,288.6405314646873 217.66574857078308,244.99558602581843 244.9438394700761,237.12107946397546 244.9438394700761,280.7660249028443" />
  <polygon fill="white" points="283.1331667290864,269.7417157162642 283.1331667290864,226.0967702773953 310.41125762837936,218.22226371555234 310.41125762837936,261.86720915442123" />
  <polygon fill="white" points="348.60058488738963,250.84289996784108 348.60058488738963,207.19795452897222 375.87867578668266,199.32344796712925 375.87867578668266,242.9683934059981" />
  <polygon fill="white" points="414.06800304569293,231.94408421941796 414.06800304569293,188.29913878054913 441.3460939449859,180.42463221870617 441.3460939449859,224.069577657575" />
  <polygon fill="hsl(288.0,50.0%,72.83574745959227%)" points="370.52093409571034,333.9766419185595 370.52093409571034,296.5074562592906 377.06767591154073,294.6175746844483 377.06767591154073,332.08676034371723" />
  <polygon fill="hsl(288.0,50.0%,72.83574745959227%)" points="386.8877886352862,329.25193798145375 386.8877886352862,291.7827523221848 380.34104681945587,293.67263389702714 380.34104681945587,331.14181955629607" />
  <polygon fill="hsl(288.0,50.0%,72.83574745959227%)" points="363.97419227988007,298.7683198703633 363.97419227988,261.67011624732476 369.7025913687316,260.01646986933775 369.7025913687316,297.11467349237626" />
  <polygon fill="hsl(288.0,50.0%,72.83574745959227%)" points="387.70613136226495,291.91749916155993 387.70613136226495,254.81929553852137 393.43453045111653,253.16564916053437 393.43453045111653,290.26385278357293" />
  <polygon fill="hsl(288.0,50.0%,72.83574745959227%)" points="369.7025913687316,265.7448689581893 369.7025913687316,260.01646986933775 387.70613136226495,254.81929553852137 387.70613136226495,260.54769462737295" />
  <polygon fill="hsl(288.0,50.0%,72.83574745959227%)" points="370.52093409571034,296.878438295521 370.52093409571034,259.78023467248244 386.8877886352862,255.0555307353767 386.8877886352862,292.1537343584152" />
  <polygon fill="hsl(288.0,50.0%,72.83574745959227%)" points="374.6126477306043,256.7441485070541 374.6126477306043,240.04995687668676 382.79607500039225,237.68760490813386 382.79607500039225,254.3817965385012" />
  <polygon fill="hsl(288.0,50.0%,72.83574745959227%)" points="376.2493331845619,258.12658829449543 376.2493331845619,239.57748648297618 381.1593895464346,238.16007530184444 381.1593895464346,256.7091771133637" />
  <polygon fill="hsl(288.0,50.0%,72.09185257592405%)" points="432.1759411904273,319.42509960804324 432.1759411904273,281.9559139487743 438.7226830062576,280.06603237393205 438.7226830062576,317.5352180332009" />
  <polygon fill="hsl(288.0,50.0%,72.09185257592405%)" points="448.5427957300032,314.70039567093744 448.5427957300032,277.23121001166857 441.9960539141729,279.12109158651083 441.9960539141729,316.59027724577976" />
  <polygon fill="hsl(288.0,50.0%,72.09185257592405%)" points="425.629199374597,284.216777559847 425.629199374597,247.1185739368085 431.35759846344854,245.46492755882147 431.35759846344854,282.56313118186" />
  <polygon fill="hsl(288.0,50.0%,72.09185257592405%)" points="449.36113845698196,277.3659568510436 449.36113845698196,240.26775322800512 455.08953754583354,238.6141068500181 455.08953754583354,275.7123104730566" />
  <polygon fill="hsl(288.0,50.0%,72.09185257592405%)" points="431.35759846344854,251.19332664767302 431.35759846344854,245.46492755882147 449.36113845698196,240.26775322800512 449.36113845698196,245.99615231685664" />
  <polygon fill="hsl(288.0,50.0%,72.09185257592405%)" points="432.1759411904273,282.32689598500474 432.1759411904273,245.22869236196618 448.5427957300032,240.5039884248604 448.5427957300032,277.60219204789894" />
  <polygon fill="hsl(288.0,50.0%,72.09185257592405%)" points="436.2676548253213,242.1926061965378 436.2676548253213,225.49841456617048 444.4510820951092,223.13606259761758 444.4510820951092,239.8302542279849" />
  <polygon fill="hsl(288.0,50.0%,72.09185257592405%)" points="437.90434027927887,243.57504598397918 437.90434027927887,225.0259441724599 442.81439664115163,223.60853299132816 442.81439664115163,242.15763480284744" />
  <polygon fill="hsl(288.0,50.0%,50.65955712546234%)" points="474.7100561114509,400.6876948148574 474.7100561114509,363.21850915558855 481.25679792728124,361.32862758074623 481.25679792728124,398.7978132400151" />
  <polygon fill="hsl(288.0,50.0%,50.65955712546234%)" points="491.0769106510267,395.9629908777517 491.0769106510267,358.49380521848275 484.5301688351964,360.38368679332507 484.5301688351964,397.85287245259394" />
  <polygon fill="hsl(288.0,50.0%,50.65955712546234%)" points="468.1633142956206,365.4793727666612 468.1633142956206,328.3811691436227 473.8917133844721,326.7275227656357 473.8917133844721,363.8257263886742" />
  <polygon fill="hsl(288.0,50.0%,50.65955712546234%)" points="491.89525337800546,358.62855205785786 491.89525337800546,321.5303484348193 497.62365246685704,319.8767020568323 497.62365246685704,356.9749056798708" />
  <polygon fill="hsl(288.0,50.0%,50.65955712546234%)" points="473.8917133844721,332.4559218544872 473.8917133844721,326.7275227656357 491.89525337800546,321.5303484348193 491.89525337800546,327.2587475236708" />
  <polygon fill="hsl(288.0,50.0%,50.65955712546234%)" points="474.7100561114509,363.5894911918189 474.71005611145085,326.49128756878036 491.0769106510267,321.7665836316746 491.0769106510267,358.8647872547131" />
  <polygon fill="hsl(288.0,50.0%,50.65955712546234%)" points="478.8017697463448,323.455201403352 478.8017697463448,306.76100977298466 486.98519701613276,304.39865780443176 486.98519701613276,321.0928494347991" />
  <polygon fill="hsl(288.0,50.0%,50.65955712546234%)" points="480.4384552003024,324.83764119079336 480.4384552003024,306.2885393792741 485.3485115621752,304.87112819814234 485.3485115621752,323.4202300096616" />
  <polygon fill="hsl(288.0,50.0%,42.21758785095096%)" points="376.55934612021224,465.86629307042034 376.55934612021224,428.3971074111514 383.10608793604257,426.5072258363091 383.10608793604257,463.9764114955781" />
  <polygon fill="hsl(288.0,50.0%,42.21758785095096%)" points="392.92620065978804,461.1415891333146 392.92620065978804,423.67240347404567 386.3794588439577,425.56228504888793 386.3794588439577,463.0314707081569" />
  <polygon fill="hsl(288.0,50.0%,42.21758785095096%)" points="370.01260430438185,430.65797102222416 370.01260430438185,393.5597673991856 375.7410033932334,391.9061210211986 375.7410033932334,429.0043246442371" />
  <polygon fill="hsl(288.0,50.0%,42.21758785095096%)" points="393.74454338676685,423.8071503134207 393.74454338676685,386.7089466903822 399.47294247561837,385.0553003123952 399.47294247561837,422.1535039354337" />
  <polygon fill="hsl(288.0,50.0%,42.21758785095096%)" points="375.7410033932334,397.6345201100501 375.7410033932334,391.9061210211986 393.74454338676685,386.7089466903822 393.74454338676685,392.43734577923374" />
  <polygon fill="hsl(288.0,50.0%,42.21758785095096%)" points="376.55934612021224,428.76808944738184 376.55934612021224,391.6698858243433 392.92620065978804,386.9451818872375 392.92620065978804,424.04338551027604" />
  <polygon fill="hsl(288.0,50.0%,42.21758785095096%)" points="380.6510597551062,388.63379965891494 380.6510597551062,371.9396080285476 388.8344870248941,369.5772560599947 388.8344870248941,386.27144769036204" />
  <polygon fill="hsl(288.0,50.0%,42.21758785095096%)" points="382.28774520906376,390.0162394463563 382.28774520906376,371.467137634837 387.19780157093646,370.04972645370526 387.19780157093646,388.59882826522454" />
  <polygon fill="hsl(288.0,50.0%,41.7579500056716%)" points="547.3946515055401,418.55647516265054 547.3946515055401,381.0872895033816 553.9413933213705,379.1974079285393 553.9413933213705,416.6665935878082" />
  <polygon fill="hsl(288.0,50.0%,41.7579500056716%)" points="563.761506045116,413.83177122554474 563.761506045116,376.3625855662758 557.2147642292856,378.25246714111813 557.2147642292856,415.72165280038706" />
  <polygon fill="hsl(288.0,50.0%,41.7579500056716%)" points="540.8479096897098,383.3481531144543 540.8479096897098,346.2499494914158 546.5763087785614,344.5963031134288 546.5763087785614,381.6945067364673" />
  <polygon fill="hsl(288.0,50.0%,41.7579500056716%)" points="564.5798487720947,376.4973324056509 564.5798487720947,339.3991287826124 570.3082478609463,337.74548240462536 570.3082478609463,374.8436860276639" />
  <polygon fill="hsl(288.0,50.0%,41.7579500056716%)" points="546.5763087785614,350.3247022022803 546.5763087785614,344.5963031134288 564.5798487720947,339.3991287826124 564.5798487720947,345.12752787146394" />
  <polygon fill="hsl(288.0,50.0%,41.7579500056716%)" points="547.3946515055401,381.45827153961204 547.3946515055401,344.3600679165735 563.761506045116,339.6353639794677 563.761506045116,376.73356760250624" />
  <polygon fill="hsl(288.0,50.0%,41.7579500056716%)" points="551.486365140434,341.32398175114514 551.486365140434,324.6297901207778 559.669792410222,322.2674381522249 559.669792410222,338.96162978259224" />
  <polygon fill="hsl(288.0,50.0%,41.7579500056716%)" points="553.1230505943917,342.7064215385865 553.1230505943917,324.1573197270672 558.0331069562644,322.73990854593546 558.0331069562644,341.28901035745474" />
</svg>
