<?xml version="1.0" encoding="UTF-8"?>
<svg
  xmlns="http://www.w3.org/2000/svg"
  width="848"
  height="600"
  style="background-color:white"
>
  <polygon fill="lightblue" points="357.48877012835976,529.0231509195919 175.7767108451458,371.6558914063447 490.51122987164024,280.79986176473767 672.2232891548542,438.1671212779849" />
  <polygon fill="steelblue" points="175.7767108451458,371.6558914063447 175.7767108451458,161.8328787220151 490.51122987164024,70.97684908040807 490.51122987164024,280.79986176473767" />
  <polygon fill="lightskyblue" points="672.2232891548542,438.1671212779849 672.2232891548542,228.34410859365528 490.51122987164024,70.97684908040807 490.51122987164024,280.79986176473767" />
  <polygon fill="white" points="560.1675192635389,341.1239779114825 560.1675192635389,236.21247156931764 541.9963133352176,220.4757456179929 541.9963133352176,325.38725196015776" />
  <polygon fill="white" points="620.7382056912769,393.5797310825649 620.7382056912769,288.66822474040003 602.5669997629554,272.93149878907536 602.5669997629554,377.84300513124015" />
  <polygon fill="white" points="267.57427889454004,303.19161355734343 267.57427889454004,261.22701102047745 293.8021554800812,253.65567521701024 293.8021554800812,295.62027775387617" />
  <polygon fill="white" points="372.4857852367048,272.9062703434744 372.4857852367048,230.94166780660848 398.713661822246,223.37033200314124 398.713661822246,265.33493454000717" />
  <polygon fill="hsl(324.0,50.0%,50.65955712546234%)" points="472.7577044246697,423.0390663068556 472.7577044246697,387.0124550289562 479.05239480519964,385.195334436124 479.05239480519964,421.22194571402343" />
  <polygon fill="hsl(324.0,50.0%,50.65955712546234%)" points="488.49443037599445,418.49626482477527 488.49443037599445,382.46965354687586 482.19973999546454,384.286774139708 482.19973999546454,420.3133854176074" />
  <polygon fill="hsl(324.0,50.0%,50.65955712546234%)" points="466.46301404413987,389.1862747433517 466.46301404413987,353.5163625870157 471.9708681271035,351.9263820682875 471.9708681271035,387.5962942246236" />
  <polygon fill="hsl(324.0,50.0%,50.65955712546234%)" points="489.2812666735607,382.5992125943352 489.2812666735607,346.92930043799913 494.7891207565243,345.339319919271 494.78912075652437,381.0092320756071" />
  <polygon fill="hsl(324.0,50.0%,50.65955712546234%)" points="471.9708681271035,357.4342361512512 471.9708681271035,351.9263820682875 489.2812666735607,346.92930043799913 489.2812666735607,352.4371545209628" />
  <polygon fill="hsl(324.0,50.0%,50.65955712546234%)" points="472.7577044246697,387.36915415051953 472.7577044246697,351.6992419941835 488.49443037599445,347.1564405121032 488.49443037599445,382.8263526684392" />
  <polygon fill="hsl(324.0,50.0%,50.65955712546234%)" points="476.6918859125009,348.78004601584666 476.6918859125009,332.72858554549543 484.5602488881633,330.45718480445527 484.5602488881633,346.50864527480644" />
  <polygon fill="hsl(324.0,50.0%,50.65955712546234%)" points="478.2655585076334,350.1092614754554 478.2655585076334,332.2743053972874 482.9865762930308,330.91146495266327 482.9865762930308,348.7464210308313" />
  <polygon fill="hsl(324.0,50.0%,42.21758785095096%)" points="378.3858248845157,485.70826985840546 378.3858248845157,449.68165858050605 384.68051526504564,447.8645379876739 384.68051526504564,483.8911492655733" />
  <polygon fill="hsl(324.0,50.0%,42.21758785095096%)" points="394.12255083584046,481.16546837632507 394.12255083584046,445.13885709842566 387.82786045531054,446.9559776912579 387.82786045531054,482.98258896915723" />
  <polygon fill="hsl(324.0,50.0%,42.21758785095096%)" points="372.0911345039858,451.85547829490156 372.0911345039858,416.1855661385655 377.5989885869495,414.5955856198374 377.5989885869495,450.26549777617345" />
  <polygon fill="hsl(324.0,50.0%,42.21758785095096%)" points="394.90938713340665,445.26841614588506 394.90938713340665,409.59850398954904 400.4172412163703,408.00852347082093 400.4172412163703,443.6784356271569" />
  <polygon fill="hsl(324.0,50.0%,42.21758785095096%)" points="377.5989885869495,420.10343970280104 377.5989885869495,414.5955856198374 394.90938713340665,409.59850398954904 394.90938713340665,415.10635807251265" />
  <polygon fill="hsl(324.0,50.0%,42.21758785095096%)" points="378.3858248845157,450.0383577020694 378.3858248845157,414.3684455457334 394.12255083584046,409.82564406365304 394.12255083584046,445.4955562199891" />
  <polygon fill="hsl(324.0,50.0%,42.21758785095096%)" points="382.32000637234694,411.44924956739646 382.32000637234694,395.3977890970453 390.18836934800925,393.1263883560051 390.18836934800925,409.17784882635635" />
  <polygon fill="hsl(324.0,50.0%,42.21758785095096%)" points="383.8936789674794,412.77846502700527 383.8936789674794,394.94350894883723 388.6146967528768,393.5806685042132 388.6146967528768,411.41562458238116" />
</svg>
