<?xml version="1.0" encoding="UTF-8"?>
<svg
  xmlns="http://www.w3.org/2000/svg"
  width="848"
  height="600"
  style="background-color:white"
>
  <polygon fill="lightblue" points="314.1923788646684,634.8076211353316 14.192378864668399,375.00000000000006 533.8076211353316,224.99999999999997 833.8076211353316,484.80762113533154" />
  <polygon fill="steelblue" points="14.192378864668399,375.00000000000006 14.192378864668399,115.19237886466846 533.8076211353316,-34.80762113533166 533.8076211353316,224.99999999999997" />
  <polygon fill="lightskyblue" points="833.8076211353316,484.80762113533154 833.8076211353316,224.99999999999994 533.8076211353316,-34.80762113533166 533.8076211353316,224.99999999999997" />
  <polygon fill="white" points="698.8076211353316,367.8941916244323 698.8076211353316,194.68911086754463 668.8076211353316,168.70834875401147 668.8076211353316,341.91342951089916" />
  <polygon fill="white" points="66.77249266586648,290.5393962686735 66.77249266586648,221.2573639659184 110.07376285508843,208.7573639659184 110.07376285508843,278.0393962686735" />
  <polygon fill="white" points="141.0032415616755,269.11082484010205 141.0032415616755,199.82879253734697 184.30451175089743,187.32879253734694 184.30451175089743,256.61082484010205" />
  <polygon fill="white" points="215.2339904574845,247.68225341153064 215.2339904574845,178.40022110877555 258.53526064670643,165.90022110877553 258.53526064670643,235.1822534115306" />
  <polygon fill="white" points="289.46473935329357,226.2536819829592 289.46473935329357,156.9716496802041 332.76600954251546,144.4716496802041 332.76600954251546,213.75368198295916" />
  <polygon fill="white" points="363.69548824910254,204.82511055438775 363.69548824910254,135.54307825163266 406.9967584383245,123.04307825163266 406.9967584383245,192.32511055438775" />
  <polygon fill="white" points="437.92623714491157,183.39653912581633 437.92623714491157,114.11450682306122 481.22750733413346,101.61450682306122 481.22750733413346,170.89653912581633" />
</svg>
