<?xml version="1.0" encoding="UTF-8"?>
<svg
  xmlns="http://www.w3.org/2000/svg"
  width="848"
  height="600"
  style="background-color:white"
>
  <polygon fill="lightblue" points="369.0961894323342,467.4038105676658 219.0961894323342,337.5 478.9038105676658,262.5 628.9038105676658,392.4038105676658" />
  <polygon fill="steelblue" points="219.0961894323342,337.5 219.0961894323342,207.59618943233423 478.9038105676658,132.59618943233417 478.9038105676658,262.5" />
  <polygon fill="lightskyblue" points="628.9038105676658,392.4038105676658 628.9038105676658,262.5 478.9038105676658,132.59618943233417 478.9038105676658,262.5" />
  <polygon fill="white" points="561.4038105676658,333.94709581221616 561.4038105676658,247.3445554337723 546.4038105676658,234.35417437700573 546.4038105676658,320.9567147554496" />
  <polygon fill="white" points="245.38624633293324,295.26969813433675 245.38624633293324,260.6286819829592 267.03688142754424,254.3786819829592 267.03688142754424,289.01969813433675" />
  <polygon fill="white" points="282.50162078083775,284.555412420051 282.50162078083775,249.9143962686735 304.1522558754487,243.66439626867347 304.1522558754487,278.305412420051" />
  <polygon fill="white" points="319.61699522874227,273.8411267057653 319.61699522874227,239.20011055438778 341.2676303233532,232.95011055438778 341.2676303233532,267.5911267057653" />
  <polygon fill="white" points="356.7323696766468,263.1268409914796 356.7323696766468,228.48582484010205 378.38300477125773,222.23582484010205 378.38300477125773,256.8768409914796" />
  <polygon fill="white" points="393.8477441245513,252.41255527719386 393.8477441245513,217.77153912581633 415.49837921916225,211.52153912581633 415.49837921916225,246.16255527719386" />
  <polygon fill="white" points="430.96311857245576,241.69826956290817 430.96311857245576,207.0572534115306 452.6137536670667,200.8072534115306 452.6137536670667,235.44826956290817" />
</svg>
