<?xml version="1.0" encoding="UTF-8"?>
<svg
  xmlns="http://www.w3.org/2000/svg"
  width="848"
  height="600"
  style="background-color:white"
>
  <polygon fill="lightblue" points="314.1923788646684,721.4101615137755 14.192378864668399,461.6025403784439 533.8076211353316,311.6025403784438 833.8076211353316,571.4101615137754" />
  <polygon fill="steelblue" points="14.192378864668399,461.6025403784439 14.192378864668399,28.589838486224608 533.8076211353316,-121.4101615137755 533.8076211353316,311.6025403784438" />
  <polygon fill="lightskyblue" points="833.8076211353316,571.4101615137754 833.8076211353316,138.39745962155612 533.8076211353316,-121.4101615137755 533.8076211353316,311.6025403784438" />
  <polygon fill="white" points="698.8076211353316,454.4967320028762 698.8076211353316,281.2916512459885 668.8076211353316,255.31088913245532 668.8076211353316,428.515969889343" />
  <polygon fill="white" points="79.1442841485013,373.57050807568874 79.1442841485013,304.2884757729337 122.44555433772325,291.7884757729337 122.44555433772325,361.0705080756888" />
  <polygon fill="white" points="165.7468245269452,348.57050807568874 165.7468245269452,279.2884757729337 209.0480947161671,266.7884757729337 209.0480947161671,336.07050807568874" />
  <polygon fill="white" points="252.34936490538905,323.5705080756888 252.34936490538905,254.28847577293368 295.65063509461095,241.78847577293368 295.65063509461095,311.0705080756888" />
  <polygon fill="white" points="338.9519052838329,298.5705080756888 338.9519052838329,229.28847577293365 382.2531754730548,216.78847577293365 382.2531754730548,286.0705080756888" />
  <polygon fill="white" points="425.55444566227675,273.57050807568874 425.55444566227675,204.28847577293362 468.8557158514987,191.78847577293365 468.8557158514987,261.07050807568874" />
</svg>
