<?xml version="1.0" encoding="UTF-8"?>
<svg
  xmlns="http://www.w3.org/2000/svg"
  width="848"
  height="600"
  style="background-color:white"
>
  <polygon fill="lightblue" points="369.0961894323342,532.3557158514986 219.0961894323342,402.45190528383296 478.9038105676658,327.4519052838329 628.9038105676658,457.35571585149864" />
  <polygon fill="steelblue" points="219.0961894323342,402.45190528383296 219.0961894323342,142.64428414850133 478.9038105676658,67.6442841485013 478.9038105676658,327.4519052838329" />
  <polygon fill="lightskyblue" points="628.9038105676658,457.35571585149864 628.9038105676658,197.54809471616707 478.9038105676658,67.6442841485013 478.9038105676658,327.4519052838329" />
  <polygon fill="white" points="561.4038105676658,398.89900109604906 561.4038105676658,312.2964607176052 546.4038105676658,299.30607966083863 546.4038105676658,385.9086200392825" />
  <polygon fill="white" points="273.2227771688616,352.1858891324554 273.2227771688616,317.5448729810778 294.8734122634726,311.2948729810778 294.8734122634726,345.9358891324554" />
  <polygon fill="white" points="338.1746824526945,333.4358891324554 338.1746824526945,298.7948729810778 359.8253175473055,292.5448729810778 359.8253175473055,327.1858891324554" />
  <polygon fill="white" points="403.1265877365274,314.6858891324554 403.1265877365274,280.0448729810778 424.7772228311384,273.7948729810778 424.7772228311384,308.4358891324554" />
  <polygon fill="antiquewhite" points="489.18777302245803,446.19361400784845 489.18777302245803,372.5814546861711 506.5082810981468,367.5814546861711 506.5082810981469,441.19361400784845" />
  <polygon fill="beige" points="489.18777302245803,446.19361400784845 489.18777302245803,372.5814546861711 479.18777302245803,363.92120064832676 479.18777302245803,437.5333599700041" />
  <polygon fill="bisque" points="489.18777302245803,372.5814546861711 479.18777302245803,363.92120064832676 496.5082810981468,358.92120064832676 506.5082810981468,367.5814546861711" />
  <polygon fill="antiquewhite" points="382.0721515720395,517.3255096205751 382.0721515720395,443.7133502988977 399.39265964772824,438.7133502988977 399.3926596477283,512.3255096205751" />
  <polygon fill="beige" points="382.0721515720395,517.3255096205751 382.0721515720395,443.7133502988977 372.0721515720395,435.0530962610534 372.0721515720395,508.66525558273065" />
  <polygon fill="bisque" points="382.0721515720395,443.7133502988977 372.0721515720395,435.0530962610534 389.39265964772824,430.0530962610534 399.39265964772824,438.7133502988977" />
  <polygon fill="antiquewhite" points="442.76866761796686,357.50863773993655 442.76866761796686,283.8964784182592 460.08917569365565,278.8964784182592 460.08917569365565,352.50863773993655" />
  <polygon fill="beige" points="442.76866761796686,357.50863773993655 442.76866761796686,283.8964784182592 432.76866761796686,275.23622438041485 432.76866761796686,348.8483837020921" />
  <polygon fill="bisque" points="442.76866761796686,283.8964784182592 432.76866761796686,275.23622438041485 450.08917569365565,270.23622438041485 460.08917569365565,278.8964784182592" />
</svg>
