<?xml version="1.0" encoding="UTF-8"?>
<svg
  xmlns="http://www.w3.org/2000/svg"
  width="848"
  height="600"
  style="background-color:white"
>
  <polygon fill="lightblue" points="365.65599521949116,523.9075596366208 206.25720984209948,385.86416216741617 482.34400478050884,306.1647694787203 641.7427901579006,444.20816694792495" />
  <polygon fill="steelblue" points="206.25720984209948,385.86416216741617 206.25720984209948,155.79183305207502 482.34400478050884,76.09244036337913 482.34400478050884,306.1647694787203" />
  <polygon fill="lightskyblue" points="641.7427901579006,444.20816694792495 641.7427901579006,214.13583783258383 482.34400478050884,76.09244036337913 482.34400478050884,306.1647694787203" />
  <polygon fill="white" points="570.0133367380743,382.08863808678285 570.0133367380743,290.05970644064644 554.0734582003352,276.25536669372593 554.0734582003352,368.2842983398624" />
  <polygon fill="white" points="263.77529212093475,332.44854936548325 263.77529212093475,295.6369767070287 286.7825250324689,288.99536064963735 286.7825250324689,325.80693330809197" />
  <polygon fill="white" points="332.7969908555371,312.5237011933093 332.7969908555371,275.71212853485474 355.8042237670712,269.0705124774634 355.8042237670712,305.882085135918" />
  <polygon fill="white" points="401.81868959013946,292.59885302113537 401.81868959013946,255.78728036268075 424.8259225016736,249.14566430528942 424.8259225016736,285.95723696374404" />
  <polygon fill="antiquewhite" points="493.2723456082461,432.34666377368103 493.2723456082461,354.12207187446506 511.6781319374734,348.808779028552 511.6781319374734,427.033370927768" />
  <polygon fill="beige" points="493.2723456082461,432.34666377368103 493.2723456082461,354.12207187446506 482.64575991642,344.9191787098514 482.64575991642,423.14377060906736" />
  <polygon fill="bisque" points="493.2723456082461,354.12207187446506 482.64575991642,344.9191787098514 501.0515462456473,339.60588586393834 511.6781319374734,348.808779028552" />
  <polygon fill="antiquewhite" points="379.4450125806381,507.9355821887479 379.4450125806381,429.71099028953194 397.8507989098654,424.3976974436189 397.8507989098654,502.62228934283485" />
  <polygon fill="beige" points="379.4450125806381,507.9355821887479 379.4450125806381,429.71099028953194 368.818426888812,420.5080971249183 368.818426888812,498.7326890241343" />
  <polygon fill="bisque" points="379.4450125806381,429.71099028953194 368.818426888812,420.5080971249183 387.22421321803927,415.1948042790052 397.8507989098654,424.3976974436189" />
  <polygon fill="antiquewhite" points="443.9446854763727,338.1048137848279 443.9446854763727,259.88022188561195 462.35047180559997,254.5669290396989 462.35047180559997,332.79152093891486" />
  <polygon fill="beige" points="443.9446854763727,338.1048137848279 443.9446854763727,259.88022188561195 433.3180997845465,250.6773287209983 433.3180997845466,328.9019206202143" />
  <polygon fill="bisque" points="443.9446854763727,259.88022188561195 433.3180997845465,250.6773287209983 451.72388611377386,245.36403587508525 462.35047180559997,254.5669290396989" />
  <polygon fill="antiquewhite" points="418.4267185271861,376.39062404919804 418.4267185271861,298.1660321499821 436.8325048564134,292.852739304069 436.8325048564134,371.077331203285" />
  <polygon fill="beige" points="418.4267185271861,376.39062404919804 418.4267185271861,298.1660321499821 407.80013283535993,288.9631389853684 407.80013283535993,367.18773088458437" />
  <polygon fill="bisque" points="418.4267185271861,298.1660321499821 407.80013283535993,288.9631389853684 426.20591916458727,283.64984613945535 436.8325048564134,292.852739304069" />
</svg>
