<?xml version="1.0" encoding="UTF-8"?>
<svg
  xmlns="http://www.w3.org/2000/svg"
  width="848"
  height="600"
  style="background-color:white"
>
  <polygon fill="lightblue" points="369.0961894323342,532.3557158514986 219.0961894323342,402.45190528383296 478.9038105676658,327.4519052838329 628.9038105676658,457.35571585149864" />
  <polygon fill="steelblue" points="219.0961894323342,402.45190528383296 219.0961894323342,142.64428414850133 478.9038105676658,67.6442841485013 478.9038105676658,327.4519052838329" />
  <polygon fill="lightskyblue" points="628.9038105676658,457.35571585149864 628.9038105676658,197.54809471616707 478.9038105676658,67.6442841485013 478.9038105676658,327.4519052838329" />
  <polygon fill="white" points="536.4038105676658,377.2483660014381 536.4038105676658,290.6458256229942 521.4038105676658,277.6554445662277 521.4038105676658,364.25798494467153" />
  <polygon fill="white" points="586.4038105676658,420.54963619066007 586.4038105676658,333.94709581221616 571.4038105676658,320.9567147554496 571.4038105676658,407.55925513389343" />
  <polygon fill="white" points="251.57214207425068,358.4358891324554 251.57214207425065,323.7948729810778 273.2227771688616,317.5448729810778 273.2227771688616,352.1858891324554" />
  <polygon fill="white" points="294.8734122634726,345.9358891324554 294.8734122634726,311.2948729810778 316.5240473580835,305.0448729810778 316.5240473580835,339.6858891324554" />
  <polygon fill="white" points="338.1746824526945,333.4358891324554 338.1746824526945,298.7948729810778 359.8253175473055,292.5448729810778 359.8253175473055,327.1858891324554" />
  <polygon fill="white" points="381.4759526419165,320.9358891324554 381.4759526419165,286.2948729810778 403.1265877365274,280.0448729810778 403.1265877365274,314.6858891324554" />
  <polygon fill="white" points="424.7772228311384,308.4358891324554 424.7772228311384,273.7948729810778 446.4278579257493,267.5448729810778 446.4278579257493,302.1858891324553" />
  <polygon fill="hsl(324.0,50.0%,50.65955712546234%)" points="464.2485982083418,444.8677816185118 464.2485982083418,415.12846925255417 469.4447506310484,413.62846925255417 469.4447506310484,443.3677816185118" />
  <polygon fill="hsl(324.0,50.0%,50.65955712546234%)" points="477.23897926510836,441.1177816185118 477.23897926510836,411.37846925255417 472.0428268424017,412.87846925255417 472.0428268424017,442.6177816185118" />
  <polygon fill="hsl(324.0,50.0%,50.65955712546234%)" points="459.05244578563514,416.92291788984085 459.05244578563514,387.4780541611699 463.59907915550343,386.1655541611699 463.59907915550343,415.61041788984085" />
  <polygon fill="hsl(324.0,50.0%,50.65955712546234%)" points="477.8884983179467,411.48541788984085 477.8884983179467,382.0405541611699 482.435131687815,380.7280541611699 482.435131687815,410.17291788984085" />
  <polygon fill="hsl(324.0,50.0%,50.65955712546234%)" points="463.59907915550343,390.71218753103824 463.59907915550343,386.1655541611699 477.8884983179467,382.0405541611699 477.8884983179467,386.58718753103824" />
  <polygon fill="hsl(324.0,50.0%,50.65955712546234%)" points="464.2485982083418,415.42291788984085 464.2485982083418,385.9780541611699 477.23897926510836,382.2280541611699 477.23897926510836,411.67291788984085" />
  <polygon fill="hsl(324.0,50.0%,50.65955712546234%)" points="467.49619347253343,383.5683109747364 467.49619347253343,370.3181222968345 473.9913840009167,368.4431222968345 473.9913840009167,381.6933109747364" />
  <polygon fill="hsl(324.0,50.0%,50.65955712546234%)" points="468.79523157821006,384.6655541611699 468.79523157821006,369.9431222968345 472.69234589524007,368.8181222968345 472.69234589524007,383.5405541611699" />
</svg>
