<?xml version="1.0" encoding="UTF-8"?>
<svg
  xmlns="http://www.w3.org/2000/svg"
  width="848"
  height="600"
  style="background-color:white"
>
  <polygon fill="lightblue" points="369.0961894323342,532.3557158514986 219.0961894323342,402.45190528383296 478.9038105676658,327.4519052838329 628.9038105676658,457.35571585149864" />
  <polygon fill="steelblue" points="219.0961894323342,402.45190528383296 219.0961894323342,142.64428414850133 478.9038105676658,67.6442841485013 478.9038105676658,327.4519052838329" />
  <polygon fill="lightskyblue" points="628.9038105676658,457.35571585149864 628.9038105676658,197.54809471616707 478.9038105676658,67.6442841485013 478.9038105676658,327.4519052838329" />
  <polygon fill="white" points="561.4038105676658,398.89900109604906 561.4038105676658,312.2964607176052 546.4038105676658,299.30607966083863 546.4038105676658,385.9086200392825" />
  <polygon fill="white" points="260.2323961120951,355.9358891324554 260.23239611209505,321.2948729810778 281.88303120670605,315.0448729810778 281.88303120670605,349.6858891324554" />
  <polygon fill="white" points="312.19392033916137,340.9358891324554 312.19392033916137,306.2948729810778 333.8445554337723,300.0448729810778 333.8445554337723,334.6858891324554" />
  <polygon fill="white" points="364.15544456622763,325.9358891324554 364.15544456622763,291.2948729810778 385.80607966083863,285.0448729810778 385.80607966083863,319.6858891324554" />
  <polygon fill="white" points="416.116968793294,310.9358891324554 416.116968793294,276.2948729810778 437.76760388790495,270.0448729810778 437.76760388790495,304.6858891324554" />
</svg>
