<?xml version="1.0" encoding="UTF-8"?>
<svg
  xmlns="http://www.w3.org/2000/svg"
  width="848"
  height="600"
  style="background-color:white"
>
  <polygon fill="lightblue" points="376.4519052838329,463.7259526419165 246.5480947161671,351.2259526419165 471.5480947161671,286.2740473580835 601.451905283833,398.7740473580835" />
  <polygon fill="steelblue" points="246.5480947161671,351.2259526419165 246.5480947161671,201.22595264191648 471.5480947161671,136.27404735808355 471.5480947161671,286.2740473580835" />
  <polygon fill="lightskyblue" points="601.451905283833,398.7740473580835 601.451905283833,248.77404735808352 471.5480947161671,136.27404735808355 471.5480947161671,286.2740473580835" />
  <polygon fill="white" points="542.9951905283833,348.1490473580835 542.9951905283833,273.1490473580835 530.0048094716167,261.8990473580835 530.0048094716167,336.8990473580835" />
  <polygon fill="white" points="282.17309471616716,310.9419009719762 282.17309471616716,280.9419009719762 300.9230947161671,275.5292421983235 300.9230947161671,305.5292421983235" />
  <polygon fill="white" points="327.1730947161671,297.95151991520964 327.1730947161671,267.95151991520964 345.9230947161671,262.53886114155694 345.9230947161671,292.53886114155694" />
  <polygon fill="white" points="372.1730947161671,284.96113885844306 372.1730947161671,254.96113885844306 390.9230947161671,249.54848008479036 390.9230947161671,279.54848008479036" />
  <polygon fill="white" points="417.1730947161671,271.9707578016765 417.1730947161671,241.97075780167648 435.9230947161671,236.55809902802375 435.9230947161671,266.5580990280238" />
</svg>
