<?xml version="1.0" encoding="UTF-8"?>
<svg
  xmlns="http://www.w3.org/2000/svg"
  width="848"
  height="600"
  style="background-color:white"
>
  <polygon fill="lightblue" points="314.1923788646684,721.4101615137755 14.192378864668399,461.6025403784439 533.8076211353316,311.6025403784438 833.8076211353316,571.4101615137754" />
  <polygon fill="steelblue" points="14.192378864668399,461.6025403784439 14.192378864668399,28.589838486224608 533.8076211353316,-121.4101615137755 533.8076211353316,311.6025403784438" />
  <polygon fill="lightskyblue" points="833.8076211353316,571.4101615137754 833.8076211353316,138.39745962155612 533.8076211353316,-121.4101615137755 533.8076211353316,311.6025403784438" />
  <polygon fill="white" points="698.8076211353316,454.4967320028762 698.8076211353316,281.2916512459885 668.8076211353316,255.31088913245532 668.8076211353316,428.515969889343" />
  <polygon fill="white" points="96.46479222419009,368.5705080756888 96.46479222419009,299.2884757729337 139.76606241341204,286.7884757729337 139.76606241341204,356.0705080756888" />
  <polygon fill="white" points="200.3878406783227,338.5705080756888 200.3878406783227,269.2884757729337 243.68911086754463,256.7884757729337 243.68911086754466,326.0705080756888" />
  <polygon fill="white" points="304.3108891324553,308.5705080756888 304.3108891324553,239.28847577293368 347.61215932167727,226.78847577293368 347.61215932167727,296.0705080756888" />
  <polygon fill="white" points="408.23393758658796,278.57050807568874 408.23393758658796,209.28847577293365 451.5352077758099,196.78847577293362 451.5352077758099,266.07050807568874" />
</svg>
