<?xml version="1.0" encoding="UTF-8"?>
<svg
  xmlns="http://www.w3.org/2000/svg"
  width="848"
  height="600"
  style="background-color:white"
>
  <polygon fill="lightblue" points="340.2011014303238,522.4609811485078 111.25825291965731,324.1906583234984 507.7988985696762,209.71923406816512 736.7417470803427,407.9895568931746" />
  <polygon fill="steelblue" points="111.25825291965731,324.1906583234984 111.25825291965731,192.0104431068254 507.7988985696762,77.53901885149216 507.7988985696762,209.71923406816512" />
  <polygon fill="lightskyblue" points="736.7417470803427,407.9895568931746 736.7417470803427,275.8093416765016 507.7988985696762,77.53901885149216 507.7988985696762,209.71923406816512" />
  <polygon fill="white" points="633.7174652505428,318.76791162192035 633.7174652505428,186.58769640524736 610.8231803994761,166.76066412274642 610.8231803994761,298.9408793394194" />
  <polygon fill="white" points="174.043855147577,253.19393006306808 174.043855147577,200.3218439763989 207.08890895174525,190.7825586217878 207.08890895174525,243.654644708457" />
  <polygon fill="white" points="253.35198427758078,230.29964521200145 253.35198427758078,177.42755912533227 286.397038081749,167.88827377072116 286.397038081749,220.76035985739034" />
  <polygon fill="white" points="332.6601134075845,207.4053603609348 332.6601134075845,154.5332742742656 365.7051672117528,144.9939889196545 365.7051672117528,197.86607500632368" />
  <polygon fill="white" points="411.9682425375883,184.51107550986814 411.9682425375883,131.63898942319895 445.0132963417566,122.09970406858787 445.0132963417566,174.97179015525705" />
  <polygon fill="grey" points="493.83241547473017,149.86390643402294 493.83241547473017,116.81885262985469 526.8774692788985,107.27956727524358 526.8774692788985,140.3246210794118" />
  <polygon fill="lightgrey" points="493.83241547473017,149.86390643402294 493.83241547473017,116.81885262985469 474.753844765508,100.29632572777055 474.753844765508,133.3413795319388" />
  <polygon fill="darkgrey" points="493.83241547473017,116.81885262985469 474.753844765508,100.29632572777055 507.7988985696762,90.75704037315947 526.8774692788985,107.27956727524358" />
  <polygon fill="hsl(288.0,50.0%,50.65955712546234%)" points="485.4308581491938,388.929401991082 485.4308581491938,343.53871608567647 493.3616710621942,341.2492876005698 493.3616710621942,386.6399735059753" />
  <polygon fill="hsl(288.0,50.0%,50.65955712546234%)" points="505.25789043169476,383.2058307783153 505.25789043169476,337.8151448729098 497.32707751869435,340.10457335801647 497.32707751869435,385.495259263422" />
  <polygon fill="hsl(288.0,50.0%,50.65955712546234%)" points="477.50004523619344,346.2775573025198 477.50004523619344,301.33628412885105 484.43950653506874,299.33303420438267 484.43950653506874,344.2743073780515" />
  <polygon fill="hsl(288.0,50.0%,50.65955712546234%)" points="506.2492420458198,337.9783790440082 506.2492420458198,293.03710587033936 513.1887033446951,291.03385594587104 513.1887033446951,335.9751291195398" />
  <polygon fill="hsl(288.0,50.0%,50.65955712546234%)" points="484.43950653506874,306.272495503258 484.43950653506874,299.33303420438267 506.2492420458198,293.03710587033936 506.2492420458198,299.97656716921466" />
  <polygon fill="hsl(288.0,50.0%,50.65955712546234%)" points="485.4308581491938,343.98812881741316 485.4308581491938,299.0468556437444 505.25789043169476,293.3232844309777 505.25789043169476,338.2645576046465" />
  <polygon fill="hsl(288.0,50.0%,50.65955712546234%)" points="490.38761621981905,295.36889918186927 490.38761621981905,275.1453262537183 500.3011323610695,272.283540647335 500.3011323610695,292.5071135754859" />
  <polygon fill="hsl(288.0,50.0%,50.65955712546234%)" points="492.37031944806915,297.043605719276 492.37031944806915,274.57296913244164 498.3184291328194,272.8558977686116 498.3184291328194,295.32653435544603" />
</svg>
