<?xml version="1.0" encoding="UTF-8"?>
<svg
  xmlns="http://www.w3.org/2000/svg"
  width="848"
  height="600"
  style="background-color:white"
>
  <polygon fill="lightblue" points="375.2042744205708,530.009471882068 173.82492048789496,355.609835578673 472.7957255794292,269.3043981789548 674.1750795121051,443.7040344823498" />
  <polygon fill="steelblue" points="173.82492048789496,355.609835578673 173.82492048789496,156.29596551765022 472.7957255794292,69.99052811793194 472.7957255794292,269.3043981789548" />
  <polygon fill="lightskyblue" points="674.1750795121051,443.7040344823498 674.1750795121051,244.39016442132697 472.7957255794292,69.99052811793194 472.7957255794292,269.3043981789548" />
  <polygon fill="white" points="582.1159462857389,363.9784864579406 582.1159462857389,269.3043981789548 564.8548588057953,254.35585792437809 564.8548588057953,349.0299462033639" />
  <polygon fill="grey" points="462.26573138842105,124.51969204073475 462.26573138842105,99.60545828310691 487.1799651460489,92.41333849979705 487.1799651460489,117.32757225742489" />
  <polygon fill="lightgrey" points="462.26573138842105,124.51969204073475 462.26573138842105,99.60545828310691 447.8814918218013,87.14834140429298 447.8814918218013,112.06257516192082" />
  <polygon fill="darkgrey" points="462.26573138842105,99.60545828310691 447.8814918218013,87.14834140429298 472.7957255794292,79.95622162098311 487.1799651460489,92.41333849979705" />
  <polygon fill="hsl(288.0,50.0%,50.11143025347155%)" points="476.9385244292313,422.61215021497645 476.9385244292313,388.38995872549884 482.91794053106196,386.66384997750447 482.91794053106196,420.8860414669821" />
  <polygon fill="hsl(288.0,50.0%,50.11143025347155%)" points="491.887064683808,418.29687834499055 491.887064683808,384.07468685551294 485.9076485819773,385.8007956035073 485.9076485819773,420.0229870929849" />
  <polygon fill="hsl(288.0,50.0%,50.11143025347155%)" points="470.9591083274006,390.45490105259694 470.9591083274006,356.57154314222305 476.19109741650243,355.061197987728 476.19109741650243,388.94455589810184" />
  <polygon fill="hsl(288.0,50.0%,50.11143025347155%)" points="492.6344916965368,384.1977568411174 492.6344916965368,350.3143989307435 497.86648078563866,348.80405377624845 497.8664807856387,382.6874116866223" />
  <polygon fill="hsl(288.0,50.0%,50.11143025347155%)" points="476.19109741650243,360.29318707682984 476.19109741650243,355.061197987728 492.6344916965368,350.3143989307435 492.6344916965368,355.5463880198453" />
  <polygon fill="hsl(288.0,50.0%,50.11143025347155%)" points="476.9385244292313,388.72879230460256 476.9385244292313,354.8454343942287 491.887064683808,350.53016252424277 491.887064683808,384.41352043461666" />
  <polygon fill="hsl(288.0,50.0%,50.11143025347155%)" points="480.6756594928754,352.0724485312135 480.6756594928754,336.8249374715453 488.1499296201638,334.6673015365523 488.1499296201638,349.91481259622054" />
  <polygon fill="hsl(288.0,50.0%,50.11143025347155%)" points="482.1705135183331,353.33508923973363 482.1705135183331,336.3934102845467 486.65507559470615,335.0988287235509 486.65507559470615,352.04050767873787" />
</svg>
