<?xml version="1.0" encoding="UTF-8"?>
<svg
  xmlns="http://www.w3.org/2000/svg"
  width="848"
  height="600"
  style="background-color:white"
>
  <polygon fill="lightblue" points="362.52123819758344,527.0138401929469 108.79915116357523,307.28406732028947 485.47876180241656,198.5460300200002 739.2008488364247,418.2758028926576" />
  <polygon fill="steelblue" points="108.79915116357523,307.28406732028947 108.79915116357523,181.72419710734238 485.47876180241656,72.9861598070531 485.47876180241656,198.5460300200002" />
  <polygon fill="lightskyblue" points="739.2008488364247,418.2758028926576 739.2008488364247,292.71593267971053 485.47876180241656,72.9861598070531 485.47876180241656,198.5460300200002" />
  <polygon fill="white" points="187.27407004666722,234.406361464217 187.27407004666722,184.18241337903817 218.664037599904,175.12091027068072 218.664037599904,225.34485835585957" />
  <polygon fill="white" points="281.4439727063775,207.2218521391447 281.4439727063775,156.99790405396587 312.8339402596143,147.9364009456084 312.8339402596143,198.16034903078724" />
  <polygon fill="white" points="375.6138753660878,180.0373428140724 375.6138753660878,129.81339472889354 407.0038429193246,120.7518916205361 407.0038429193246,170.97583970571495" />
  <polygon fill="grey" points="472.2118004658946,141.6886012665604 472.2118004658946,110.29863371332365 503.60176801913144,101.23713060496621 503.60176801913144,132.62709815820298" />
  <polygon fill="lightgrey" points="472.2118004658946,141.6886012665604 472.2118004658946,110.29863371332365 454.0887942491798,94.60364993670524 454.0887942491798,125.99361748994201" />
  <polygon fill="darkgrey" points="472.2118004658946,110.29863371332365 454.0887942491798,94.60364993670524 485.47876180241656,85.5421468283478 503.60176801913144,101.23713060496621" />
  <polygon fill="hsl(360.0,50.0%,73.87163418289649%)" points="346.6899038566385,294.0513757428222 346.6899038566385,250.93411631169616 354.2234960694154,248.75935556569036 354.2234960694154,291.8766149968164" />
  <polygon fill="hsl(360.0,50.0%,73.87163418289649%)" points="365.5238843885806,288.6144738778077 365.5238843885806,245.4972144466817 357.99029217580375,247.67197519268748 357.99029217580375,290.7892346238135" />
  <polygon fill="hsl(360.0,50.0%,73.87163418289649%)" points="339.1563116438617,253.53578061642597 339.1563116438617,210.84542474402394 345.7482048300414,208.9425090912689 345.7482048300414,251.6328649636709" />
  <polygon fill="hsl(360.0,50.0%,73.87163418289649%)" points="366.46558341517766,245.65227291215498 366.46558341517766,202.96191703975296 373.0574766013574,201.05900138699792 373.0574766013574,243.74935725939991" />
  <polygon fill="hsl(360.0,50.0%,73.87163418289649%)" points="345.7482048300414,215.5344022774486 345.7482048300414,208.9425090912689 366.46558341517766,202.96191703975296 366.46558341517766,209.5538102259327" />
  <polygon fill="hsl(360.0,50.0%,73.87163418289649%)" points="346.6899038566385,251.3610198704202 346.6899038566385,208.67066399801817 365.5238843885806,203.2337621330037 365.5238843885806,245.92411800540572" />
  <polygon fill="hsl(360.0,50.0%,73.87163418289649%)" points="351.398398989624,205.17692073814447 351.398398989624,185.96626059556354 360.81538925559505,183.24780966305633 360.81538925559505,202.4584698056372" />
  <polygon fill="hsl(360.0,50.0%,73.87163418289649%)" points="353.28179704281825,206.7677483452631 353.28179704281825,185.4225704090621 358.93199120240087,183.79149984955777 358.93199120240087,205.13667778575876" />
  <polygon fill="hsl(360.0,50.0%,73.07460395039482%)" points="418.44763195528026,278.00687117800163 418.44763195528026,234.88961174687557 425.9812241680571,232.71485100086977 425.9812241680571,275.83211043199583" />
  <polygon fill="hsl(360.0,50.0%,73.07460395039482%)" points="437.2816124872224,272.56996931298715 437.2816124872224,229.4527098818611 429.74802027444554,231.6274706278669 429.74802027444554,274.7447300589929" />
  <polygon fill="hsl(360.0,50.0%,73.07460395039482%)" points="410.91403974250346,237.49127605160538 410.91403974250346,194.80092017920336 417.5059329286832,192.8980045264483 417.5059329286832,235.5883603988503" />
  <polygon fill="hsl(360.0,50.0%,73.07460395039482%)" points="438.22331151381945,229.6077683473344 438.22331151381945,186.91741247493238 444.8152046999992,185.0144968221773 444.8152046999992,227.70485269457933" />
  <polygon fill="hsl(360.0,50.0%,73.07460395039482%)" points="417.5059329286832,199.48989771262802 417.5059329286832,192.8980045264483 438.22331151381945,186.91741247493238 438.22331151381945,193.5093056611121" />
  <polygon fill="hsl(360.0,50.0%,73.07460395039482%)" points="418.44763195528026,235.31651530559958 418.44763195528026,192.62615943319759 437.2816124872224,187.1892575681831 437.2816124872224,229.8796134405851" />
  <polygon fill="hsl(360.0,50.0%,73.07460395039482%)" points="423.1561270882658,189.13241617332386 423.1561270882658,169.92175603074298 432.57311735423684,167.20330509823575 432.57311735423684,186.4139652408166" />
  <polygon fill="hsl(360.0,50.0%,73.07460395039482%)" points="425.03952514146,190.72324378044252 425.03952514146,169.37806584424152 430.68971930104266,167.74699528473718 430.68971930104266,189.09217322093818" />
  <polygon fill="hsl(360.0,50.0%,50.11143025347155%)" points="490.6983612787625,391.7016939222475 490.69836127876243,348.58443449112144 498.2319534915393,346.40967374511564 498.2319534915393,389.5269331762417" />
  <polygon fill="hsl(360.0,50.0%,50.11143025347155%)" points="509.5323418107045,386.264792057233 509.5323418107045,343.147532626107 501.99874959792766,345.32229337211277 501.9987495979277,388.4395528032388" />
  <polygon fill="hsl(360.0,50.0%,50.11143025347155%)" points="483.16476906598564,351.18609879585125 483.16476906598564,308.49574292344926 489.75666225216537,306.59282727069416 489.75666225216537,349.2831831430962" />
  <polygon fill="hsl(360.0,50.0%,50.11143025347155%)" points="510.47404083730163,343.30259109158027 510.47404083730163,300.6122352191783 517.0659340234813,298.70931956642323 517.0659340234813,341.3996754388252" />
  <polygon fill="hsl(360.0,50.0%,50.11143025347155%)" points="489.75666225216537,313.1847204568739 489.75666225216537,306.59282727069416 510.47404083730163,300.6122352191783 510.47404083730163,307.204128405358" />
  <polygon fill="hsl(360.0,50.0%,50.11143025347155%)" points="490.69836127876243,349.01133804984545 490.69836127876243,306.32098217744345 509.5323418107045,300.884080312429 509.5323418107045,343.57443618483103" />
  <polygon fill="hsl(360.0,50.0%,50.11143025347155%)" points="495.406856411748,302.82723891756973 495.406856411748,283.61657877498885 504.823846677719,280.8981278424816 504.823846677719,300.1087879850625" />
  <polygon fill="hsl(360.0,50.0%,50.11143025347155%)" points="497.29025446494217,304.4180665246884 497.29025446494217,283.0728885884874 502.9404486245248,281.44181802898305 502.9404486245248,302.7869959651841" />
  <polygon fill="hsl(360.0,50.0%,41.06646317363794%)" points="386.9321268855363,474.6550539245757 386.9321268855363,431.5377944934497 394.4657190983131,429.3630337474439 394.4657190983131,472.4802931785699" />
  <polygon fill="hsl(360.0,50.0%,41.06646317363794%)" points="405.76610741747834,469.21815205956125 405.76610741747834,426.1008926284352 398.23251520470154,428.27565337444105 398.23251520470154,471.39291280556705" />
  <polygon fill="hsl(360.0,50.0%,41.06646317363794%)" points="379.39853467275947,434.1394587981795 379.39853467275947,391.4491029257775 385.9904278589392,389.5461872730224 385.9904278589392,432.23654314542443" />
  <polygon fill="hsl(360.0,50.0%,41.06646317363794%)" points="406.70780644407546,426.2559510939085 406.70780644407546,383.5655952215065 413.29969963025513,381.66267956875146 413.29969963025513,424.35303544115345" />
  <polygon fill="hsl(360.0,50.0%,41.06646317363794%)" points="385.9904278589392,396.1380804592021 385.9904278589392,389.5461872730224 406.70780644407546,383.5655952215065 406.70780644407546,390.15748840768623" />
  <polygon fill="hsl(360.0,50.0%,41.06646317363794%)" points="386.9321268855363,431.96469805217373 386.9321268855363,389.2743421797717 405.76610741747834,383.83744031475726 405.76610741747834,426.52779618715925" />
  <polygon fill="hsl(360.0,50.0%,41.06646317363794%)" points="391.6406220185218,385.78059891989795 391.6406220185218,366.5699387773171 401.05761228449285,363.85148784480987 401.05761228449285,383.06214798739074" />
  <polygon fill="hsl(360.0,50.0%,41.06646317363794%)" points="393.524020071716,387.37142652701664 393.524020071716,366.0262485908156 399.1742142312986,364.3951780313113 399.1742142312986,385.7403559675123" />
</svg>
