<?xml version="1.0" encoding="UTF-8"?>
<svg
  xmlns="http://www.w3.org/2000/svg"
  width="848"
  height="600"
  style="background-color:white"
>
  <polygon fill="lightblue" points="362.52123819758344,527.0138401929469 108.79915116357523,307.28406732028947 485.47876180241656,198.5460300200002 739.2008488364247,418.2758028926576" />
  <polygon fill="steelblue" points="108.79915116357523,307.28406732028947 108.79915116357523,181.72419710734238 485.47876180241656,72.9861598070531 485.47876180241656,198.5460300200002" />
  <polygon fill="lightskyblue" points="739.2008488364247,418.2758028926576 739.2008488364247,292.71593267971053 485.47876180241656,72.9861598070531 485.47876180241656,198.5460300200002" />
  <polygon fill="white" points="580.9265945437816,281.2062779101904 580.9265945437816,161.92440120789067 559.1789870837238,143.0904206759486 559.1789870837238,262.37229737824833" />
  <polygon fill="white" points="665.5006235551176,354.4495355344095 665.5006235551176,235.1676588321098 643.7530160950598,216.33367830016772 643.7530160950598,335.6155550024675" />
  <polygon fill="white" points="155.88410249343042,243.46786457257446 155.88410249343042,193.2439164873956 187.27407004666722,184.18241337903817 187.27407004666722,234.406361464217" />
  <polygon fill="white" points="218.664037599904,225.34485835585957 218.664037599904,175.12091027068072 250.05400515314074,166.0594071623233 250.05400515314074,216.28335524750213" />
  <polygon fill="white" points="281.4439727063775,207.2218521391447 281.4439727063775,156.99790405396587 312.8339402596143,147.9364009456084 312.8339402596143,198.16034903078724" />
  <polygon fill="white" points="344.22390781285105,189.09884592242983 344.22390781285105,138.87489783725098 375.6138753660878,129.81339472889354 375.6138753660878,180.0373428140724" />
  <polygon fill="white" points="407.0038429193246,170.97583970571495 407.0038429193246,120.7518916205361 438.39381047256137,111.69038851217866 438.39381047256137,161.9143365973575" />
  <polygon fill="grey" points="472.2118004658946,141.6886012665604 472.2118004658946,110.29863371332365 503.60176801913144,101.23713060496621 503.60176801913144,132.62709815820298" />
  <polygon fill="lightgrey" points="472.2118004658946,141.6886012665604 472.2118004658946,110.29863371332365 454.0887942491798,94.60364993670524 454.0887942491798,125.99361748994201" />
  <polygon fill="darkgrey" points="472.2118004658946,110.29863371332365 454.0887942491798,94.60364993670524 485.47876180241656,85.5421468283478 503.60176801913144,101.23713060496621" />
  <polygon fill="hsl(288.0,50.0%,50.11143025347155%)" points="490.6983612787625,391.7016939222475 490.69836127876243,348.58443449112144 498.2319534915393,346.40967374511564 498.2319534915393,389.5269331762417" />
  <polygon fill="hsl(288.0,50.0%,50.11143025347155%)" points="509.5323418107045,386.264792057233 509.5323418107045,343.147532626107 501.99874959792766,345.32229337211277 501.9987495979277,388.4395528032388" />
  <polygon fill="hsl(288.0,50.0%,50.11143025347155%)" points="483.16476906598564,351.18609879585125 483.16476906598564,308.49574292344926 489.75666225216537,306.59282727069416 489.75666225216537,349.2831831430962" />
  <polygon fill="hsl(288.0,50.0%,50.11143025347155%)" points="510.47404083730163,343.30259109158027 510.47404083730163,300.6122352191783 517.0659340234813,298.70931956642323 517.0659340234813,341.3996754388252" />
  <polygon fill="hsl(288.0,50.0%,50.11143025347155%)" points="489.75666225216537,313.1847204568739 489.75666225216537,306.59282727069416 510.47404083730163,300.6122352191783 510.47404083730163,307.204128405358" />
  <polygon fill="hsl(288.0,50.0%,50.11143025347155%)" points="490.69836127876243,349.01133804984545 490.69836127876243,306.32098217744345 509.5323418107045,300.884080312429 509.5323418107045,343.57443618483103" />
  <polygon fill="hsl(288.0,50.0%,50.11143025347155%)" points="495.406856411748,302.82723891756973 495.406856411748,283.61657877498885 504.823846677719,280.8981278424816 504.823846677719,300.1087879850625" />
  <polygon fill="hsl(288.0,50.0%,50.11143025347155%)" points="497.29025446494217,304.4180665246884 497.29025446494217,283.0728885884874 502.9404486245248,281.44181802898305 502.9404486245248,302.7869959651841" />
</svg>
