<?xml version="1.0" encoding="UTF-8"?>
<svg
  xmlns="http://www.w3.org/2000/svg"
  width="848"
  height="600"
  style="background-color:white"
>
  <polygon fill="lightblue" points="370.2933546932327,525.7365184605404 148.64669598820012,333.78488135804287 477.7066453067673,238.79345619874317 699.3533040117999,430.7450933012407" />
  <polygon fill="steelblue" points="148.64669598820012,333.78488135804287 148.64669598820012,169.25490669875933 477.7066453067673,74.26348153945958 477.7066453067673,238.79345619874317" />
  <polygon fill="lightskyblue" points="699.3533040117999,430.7450933012407 699.3533040117999,266.21511864195713 477.7066453067673,74.26348153945958 477.7066453067673,238.79345619874317" />
  <polygon fill="white" points="561.0880073910414,311.0038339658732 561.0880073910414,206.80151668166027 542.0897223591816,190.34851921573193 542.0897223591816,294.55083649994486" />
  <polygon fill="white" points="634.9702269593856,374.98771300003904 634.9702269593856,270.7853957158261 615.9719419275257,254.33239824989775 615.9719419275257,358.53471553411066" />
  <polygon fill="hsl(288.0,50.0%,50.11143025347155%)" points="482.26638544305086,407.5304708369167 482.26638544305086,369.86407530491806 488.8475844294222,367.9642468017321 488.8475844294222,405.63064233373075" />
  <polygon fill="hsl(288.0,50.0%,50.11143025347155%)" points="498.71938290897924,402.7808995789518 498.71938290897924,365.1145040469531 492.1381839226079,367.0143325501391 492.1381839226079,404.68072808213776" />
  <polygon fill="hsl(288.0,50.0%,50.11143025347155%)" points="475.6851864566795,372.1368384173318 475.6851864566795,334.84337749456085 481.44373556975444,333.1810275542731 481.44373556975444,370.474488477044" />
  <polygon fill="hsl(288.0,50.0%,50.11143025347155%)" points="499.54203278227567,365.24996009328254 499.54203278227567,327.9564991705116 505.30058189535055,326.29414923022387 505.30058189535055,363.5876101529948" />
  <polygon fill="hsl(288.0,50.0%,50.11143025347155%)" points="481.44373556975444,338.93957666734804 481.44373556975444,333.1810275542731 499.54203278227567,327.9564991705116 499.54203278227567,333.71504828358655" />
  <polygon fill="hsl(288.0,50.0%,50.11143025347155%)" points="482.26638544305086,370.2370099141458 482.26638544305086,332.9435489913748 498.71938290897924,328.19397773340984 498.71938290897924,365.4874386561808" />
  <polygon fill="hsl(288.0,50.0%,50.11143025347155%)" points="486.37963480953294,329.89148313074503 486.37963480953294,313.10942571549816 494.60613354249716,310.73464008651564 494.60613354249716,327.51669750176256" />
  <polygon fill="hsl(288.0,50.0%,50.11143025347155%)" points="488.0249345561258,331.2811990510871 488.0249345561258,312.6344685897016 492.9608337959043,311.20959721231213 492.9608337959043,329.8563276736976" />
</svg>
