<?xml version="1.0" encoding="UTF-8"?>
<svg
  xmlns="http://www.w3.org/2000/svg"
  width="848"
  height="600"
  style="background-color:white"
>
  <polygon fill="lightblue" points="375.2042744205708,530.009471882068 173.82492048789496,355.609835578673 472.7957255794292,269.3043981789548 674.1750795121051,443.7040344823498" />
  <polygon fill="steelblue" points="173.82492048789496,355.609835578673 173.82492048789496,156.29596551765022 472.7957255794292,69.99052811793194 472.7957255794292,269.3043981789548" />
  <polygon fill="lightskyblue" points="674.1750795121051,443.7040344823498 674.1750795121051,244.39016442132697 472.7957255794292,69.99052811793194 472.7957255794292,269.3043981789548" />
  <polygon fill="white" points="211.19627112433673,304.95888189150367 211.19627112433673,265.0961078792991 236.1105048819646,257.9039880959893 236.1105048819646,297.76676210819386" />
  <polygon fill="white" points="261.02473863959244,290.574642324884 261.02473863959244,250.71186831267943 285.93897239722025,243.51974852936956 285.93897239722025,283.38252254157413" />
  <polygon fill="white" points="310.8532061548482,276.19040275826427 310.8532061548482,236.3276287460597 335.767439912476,229.13550896274984 335.767439912476,268.9982829749544" />
  <polygon fill="white" points="360.68167367010386,261.80616319164454 360.68167367010386,221.94338917944 385.59590742773173,214.75126939613014 385.59590742773173,254.6140434083347" />
  <polygon fill="white" points="410.51014118535954,247.42192362502485 410.51014118535954,207.55914961282028 435.4243749429874,200.36702982951044 435.4243749429874,240.229803841715" />
  <polygon fill="hsl(324.0,50.0%,73.87163418289649%)" points="362.6389360271327,345.1070413134519 362.6389360271327,310.88484982397426 368.61835212896335,309.1587410759799 368.61835212896335,343.38093256545756" />
  <polygon fill="hsl(324.0,50.0%,73.87163418289649%)" points="377.58747628170937,340.791769443466 377.58747628170937,306.56957795398836 371.6080601798787,308.29568670198273 371.6080601798787,342.51787819146034" />
  <polygon fill="hsl(324.0,50.0%,73.87163418289649%)" points="356.659519925302,312.94979215107236 356.659519925302,279.0664342406985 361.8915090144038,277.55608908620343 361.8915090144038,311.4394469965773" />
  <polygon fill="hsl(324.0,50.0%,73.87163418289649%)" points="378.3349032944382,306.6926479395928 378.3349032944382,272.8092900292189 383.56689238354005,271.2989448747239 383.56689238354005,305.18230278509776" />
  <polygon fill="hsl(324.0,50.0%,73.87163418289649%)" points="361.8915090144038,282.78807817530526 361.8915090144038,277.55608908620343 378.3349032944382,272.8092900292189 378.3349032944382,278.0412791183208" />
  <polygon fill="hsl(324.0,50.0%,73.87163418289649%)" points="362.6389360271327,311.223683403078 362.6389360271327,277.34032549270415 377.58747628170937,273.02505362271825 377.58747628170937,306.9084115330921" />
  <polygon fill="hsl(324.0,50.0%,73.87163418289649%)" points="366.3760710907768,274.56733962968895 366.3760710907768,259.3198285700207 373.8503412180652,257.1621926350278 373.8503412180652,272.409703694696" />
  <polygon fill="hsl(324.0,50.0%,73.87163418289649%)" points="367.8709251162345,275.82998033820905 367.8709251162345,258.88830138302217 372.35548719260754,257.59371982202634 372.35548719260754,274.5353987772133" />
  <polygon fill="hsl(324.0,50.0%,73.07460395039482%)" points="419.59308256244867,332.3725096011995 419.59308256244867,298.1503181117219 425.57249866427935,296.4242093637275 425.57249866427935,330.64640085320514" />
  <polygon fill="hsl(324.0,50.0%,73.07460395039482%)" points="434.5416228170254,328.0572377312136 434.54162281702537,293.83504624173594 428.5622067151947,295.5611549897303 428.56220671519475,329.783346479208" />
  <polygon fill="hsl(324.0,50.0%,73.07460395039482%)" points="413.613666460618,300.21526043882 413.613666460618,266.3319025284461 418.8456555497198,264.82155737395107 418.8456555497198,298.7049152843249" />
  <polygon fill="hsl(324.0,50.0%,73.07460395039482%)" points="435.2890498297542,293.9581162273404 435.2890498297542,260.07475831696655 440.5210389188561,258.56441316247145 440.5210389188561,292.44777107284534" />
  <polygon fill="hsl(324.0,50.0%,73.07460395039482%)" points="418.8456555497198,270.0535464630529 418.8456555497198,264.82155737395107 435.2890498297542,260.07475831696655 435.2890498297542,265.3067474060684" />
  <polygon fill="hsl(324.0,50.0%,73.07460395039482%)" points="419.59308256244867,298.4891516908256 419.59308256244867,264.60579378045173 434.54162281702537,260.2905219104658 434.54162281702537,294.1738798208397" />
  <polygon fill="hsl(324.0,50.0%,73.07460395039482%)" points="423.33021762609286,261.8328079174366 423.33021762609286,246.58529685776836 430.80448775338124,244.42766092277537 430.80448775338124,259.6751719824436" />
  <polygon fill="hsl(324.0,50.0%,73.07460395039482%)" points="424.8250716515505,263.0954486259567 424.8250716515505,246.15376967076975 429.30963372792354,244.85918810977398 429.30963372792354,261.8008670649609" />
  <polygon fill="hsl(324.0,50.0%,50.11143025347155%)" points="476.9385244292313,422.61215021497645 476.9385244292313,388.38995872549884 482.91794053106196,386.66384997750447 482.91794053106196,420.8860414669821" />
  <polygon fill="hsl(324.0,50.0%,50.11143025347155%)" points="491.887064683808,418.29687834499055 491.887064683808,384.07468685551294 485.9076485819773,385.8007956035073 485.9076485819773,420.0229870929849" />
  <polygon fill="hsl(324.0,50.0%,50.11143025347155%)" points="470.9591083274006,390.45490105259694 470.9591083274006,356.57154314222305 476.19109741650243,355.061197987728 476.19109741650243,388.94455589810184" />
  <polygon fill="hsl(324.0,50.0%,50.11143025347155%)" points="492.6344916965368,384.1977568411174 492.6344916965368,350.3143989307435 497.86648078563866,348.80405377624845 497.8664807856387,382.6874116866223" />
  <polygon fill="hsl(324.0,50.0%,50.11143025347155%)" points="476.19109741650243,360.29318707682984 476.19109741650243,355.061197987728 492.6344916965368,350.3143989307435 492.6344916965368,355.5463880198453" />
  <polygon fill="hsl(324.0,50.0%,50.11143025347155%)" points="476.9385244292313,388.72879230460256 476.9385244292313,354.8454343942287 491.887064683808,350.53016252424277 491.887064683808,384.41352043461666" />
  <polygon fill="hsl(324.0,50.0%,50.11143025347155%)" points="480.6756594928754,352.0724485312135 480.6756594928754,336.8249374715453 488.1499296201638,334.6673015365523 488.1499296201638,349.91481259622054" />
  <polygon fill="hsl(324.0,50.0%,50.11143025347155%)" points="482.1705135183331,353.33508923973363 482.1705135183331,336.3934102845467 486.65507559470615,335.0988287235509 486.65507559470615,352.04050767873787" />
  <polygon fill="hsl(324.0,50.0%,41.06646317363794%)" points="394.57920961193827,488.4522756809728 394.57920961193827,454.23008419149517 400.55862571376895,452.5039754435008 400.558625713769,486.72616693297846" />
  <polygon fill="hsl(324.0,50.0%,41.06646317363794%)" points="409.527749866515,484.1370038109868 409.52774986651497,449.9148123215092 403.5483337646843,451.6409210695036 403.5483337646843,485.86311255898124" />
  <polygon fill="hsl(324.0,50.0%,41.06646317363794%)" points="388.5997935101076,456.29502651859326 388.5997935101076,422.4116686082194 393.8317825992094,420.9013234537243 393.8317825992094,454.7846813640982" />
  <polygon fill="hsl(324.0,50.0%,41.06646317363794%)" points="410.2751768792438,450.0378823071137 410.2751768792438,416.1545243967398 415.50716596834565,414.6441792422447 415.50716596834565,448.5275371526186" />
  <polygon fill="hsl(324.0,50.0%,41.06646317363794%)" points="393.8317825992094,426.13331254282616 393.8317825992094,420.9013234537243 410.2751768792438,416.1545243967398 410.2751768792438,421.38651348584165" />
  <polygon fill="hsl(324.0,50.0%,41.06646317363794%)" points="394.57920961193827,454.5689177705989 394.57920961193827,420.685559860225 409.52774986651497,416.3702879902391 409.52774986651497,450.2536459006129" />
  <polygon fill="hsl(324.0,50.0%,41.06646317363794%)" points="398.31634467558246,417.91257399720985 398.31634467558246,402.6650629375416 405.79061480287083,400.50742700254864 405.79061480287083,415.75493806221687" />
  <polygon fill="hsl(324.0,50.0%,41.06646317363794%)" points="399.81119870104015,419.17521470572996 399.81119870104015,402.233535750543 404.29576077741314,400.93895418954725 404.29576077741314,417.88063314473413" />
</svg>
