<?xml version="1.0" encoding="UTF-8"?>
<svg
  xmlns="http://www.w3.org/2000/svg"
  width="848"
  height="600"
  style="background-color:white"
>
  <polygon fill="lightblue" points="375.2042744205708,530.009471882068 173.82492048789496,355.609835578673 472.7957255794292,269.3043981789548 674.1750795121051,443.7040344823498" />
  <polygon fill="steelblue" points="173.82492048789496,355.609835578673 173.82492048789496,156.29596551765022 472.7957255794292,69.99052811793194 472.7957255794292,269.3043981789548" />
  <polygon fill="lightskyblue" points="674.1750795121051,443.7040344823498 674.1750795121051,244.39016442132697 472.7957255794292,69.99052811793194 472.7957255794292,269.3043981789548" />
  <polygon fill="white" points="582.1159462857389,363.9784864579406 582.1159462857389,264.3215514274292 564.8548588057953,249.3730111728525 564.8548588057953,349.0299462033639" />
  <polygon fill="white" points="221.1619646273879,302.08203397817977 221.1619646273879,262.2192599659752 246.07619838501574,255.02714018266533 246.07619838501574,294.8899141948699" />
  <polygon fill="white" points="280.9561256456947,284.8209464982361 280.9561256456947,244.95817248603151 305.8703594033226,237.76605270272168 305.8703594033226,277.6288267149263" />
  <polygon fill="white" points="340.7502866640016,267.55985901829246 340.7502866640016,227.6970850060879 365.6645204216294,220.50496522277803 365.6645204216294,260.3677392349826" />
  <polygon fill="white" points="400.54444768230843,250.2987715383488 400.54444768230843,210.4359975261442 425.45868143993624,203.24387774283437 425.45868143993624,243.10665175503894" />
  <polygon fill="grey" points="462.26573138842105,124.51969204073475 462.26573138842105,99.60545828310691 487.1799651460489,92.41333849979705 487.1799651460489,117.32757225742489" />
  <polygon fill="lightgrey" points="462.26573138842105,124.51969204073475 462.26573138842105,99.60545828310691 447.8814918218013,87.14834140429298 447.8814918218013,112.06257516192082" />
  <polygon fill="darkgrey" points="462.26573138842105,99.60545828310691 447.8814918218013,87.14834140429298 472.7957255794292,79.95622162098311 487.1799651460489,92.41333849979705" />
  <polygon fill="hsl(360.0,50.0%,50.11143025347155%)" points="476.9385244292313,422.61215021497645 476.9385244292313,388.38995872549884 482.91794053106196,386.66384997750447 482.91794053106196,420.8860414669821" />
  <polygon fill="hsl(360.0,50.0%,50.11143025347155%)" points="491.887064683808,418.29687834499055 491.887064683808,384.07468685551294 485.9076485819773,385.8007956035073 485.9076485819773,420.0229870929849" />
  <polygon fill="hsl(360.0,50.0%,50.11143025347155%)" points="470.9591083274006,390.45490105259694 470.9591083274006,356.57154314222305 476.19109741650243,355.061197987728 476.19109741650243,388.94455589810184" />
  <polygon fill="hsl(360.0,50.0%,50.11143025347155%)" points="492.6344916965368,384.1977568411174 492.6344916965368,350.3143989307435 497.86648078563866,348.80405377624845 497.8664807856387,382.6874116866223" />
  <polygon fill="hsl(360.0,50.0%,50.11143025347155%)" points="476.19109741650243,360.29318707682984 476.19109741650243,355.061197987728 492.6344916965368,350.3143989307435 492.6344916965368,355.5463880198453" />
  <polygon fill="hsl(360.0,50.0%,50.11143025347155%)" points="476.9385244292313,388.72879230460256 476.9385244292313,354.8454343942287 491.887064683808,350.53016252424277 491.887064683808,384.41352043461666" />
  <polygon fill="hsl(360.0,50.0%,50.11143025347155%)" points="480.6756594928754,352.0724485312135 480.6756594928754,336.8249374715453 488.1499296201638,334.6673015365523 488.1499296201638,349.91481259622054" />
  <polygon fill="hsl(360.0,50.0%,50.11143025347155%)" points="482.1705135183331,353.33508923973363 482.1705135183331,336.3934102845467 486.65507559470615,335.0988287235509 486.65507559470615,352.04050767873787" />
  <polygon fill="hsl(360.0,50.0%,41.06646317363794%)" points="394.57920961193827,488.4522756809728 394.57920961193827,454.23008419149517 400.55862571376895,452.5039754435008 400.558625713769,486.72616693297846" />
  <polygon fill="hsl(360.0,50.0%,41.06646317363794%)" points="409.527749866515,484.1370038109868 409.52774986651497,449.9148123215092 403.5483337646843,451.6409210695036 403.5483337646843,485.86311255898124" />
  <polygon fill="hsl(360.0,50.0%,41.06646317363794%)" points="388.5997935101076,456.29502651859326 388.5997935101076,422.4116686082194 393.8317825992094,420.9013234537243 393.8317825992094,454.7846813640982" />
  <polygon fill="hsl(360.0,50.0%,41.06646317363794%)" points="410.2751768792438,450.0378823071137 410.2751768792438,416.1545243967398 415.50716596834565,414.6441792422447 415.50716596834565,448.5275371526186" />
  <polygon fill="hsl(360.0,50.0%,41.06646317363794%)" points="393.8317825992094,426.13331254282616 393.8317825992094,420.9013234537243 410.2751768792438,416.1545243967398 410.2751768792438,421.38651348584165" />
  <polygon fill="hsl(360.0,50.0%,41.06646317363794%)" points="394.57920961193827,454.5689177705989 394.57920961193827,420.685559860225 409.52774986651497,416.3702879902391 409.52774986651497,450.2536459006129" />
  <polygon fill="hsl(360.0,50.0%,41.06646317363794%)" points="398.31634467558246,417.91257399720985 398.31634467558246,402.6650629375416 405.79061480287083,400.50742700254864 405.79061480287083,415.75493806221687" />
  <polygon fill="hsl(360.0,50.0%,41.06646317363794%)" points="399.81119870104015,419.17521470572996 399.81119870104015,402.233535750543 404.29576077741314,400.93895418954725 404.29576077741314,417.88063314473413" />
</svg>
