<?xml version="1.0" encoding="UTF-8"?>
<svg
  xmlns="http://www.w3.org/2000/svg"
  width="848"
  height="600"
  style="background-color:white"
>
  <polygon fill="lightblue" points="370.2933546932327,525.7365184605404 148.64669598820012,333.78488135804287 477.7066453067673,238.79345619874317 699.3533040117999,430.7450933012407" />
  <polygon fill="steelblue" points="148.64669598820012,333.78488135804287 148.64669598820012,169.25490669875933 477.7066453067673,74.26348153945958 477.7066453067673,238.79345619874317" />
  <polygon fill="lightskyblue" points="699.3533040117999,430.7450933012407 699.3533040117999,266.21511864195713 477.7066453067673,74.26348153945958 477.7066453067673,238.79345619874317" />
  <polygon fill="white" points="598.0291171752135,342.9957734829561 598.0291171752135,238.79345619874317 579.0308321433536,222.34045873281482 579.0308321433536,326.54277601702773" />
  <polygon fill="white" points="217.200852096235,270.12034120737985 217.200852096235,226.2456812982375 244.6225145394489,218.32972920162922 244.6225145394489,262.2043891107715" />
  <polygon fill="white" points="299.46583942587677,246.37248491755489 299.46583942587677,202.4978250084126 326.88750186909067,194.58187291180428 326.88750186909067,238.4565328209466" />
  <polygon fill="white" points="381.73082675551854,222.62462862772998 381.73082675551854,178.7499687185877 409.15248919873244,170.83401662197934 409.15248919873244,214.70867653112165" />
  <polygon fill="grey" points="466.11688705676994,134.28059227817442 466.11688705676994,106.85892983496046 493.5385494999839,98.94297773835217 493.5385494999839,126.36464018156607" />
  <polygon fill="lightgrey" points="466.11688705676994,134.28059227817442 466.11688705676994,106.85892983496046 450.28498286355335,93.14809861335348 450.28498286355335,120.56976105656742" />
  <polygon fill="darkgrey" points="466.11688705676994,106.85892983496046 450.28498286355335,93.14809861335348 477.7066453067673,85.23214651674519 493.5385494999839,98.94297773835217" />
  <polygon fill="hsl(288.0,50.0%,73.87163418289649%)" points="356.4634102822743,322.2250605000869 356.4634102822743,284.55866496808824 363.0446092686457,282.65883646490227 363.0446092686457,320.3252319969009" />
  <polygon fill="hsl(288.0,50.0%,73.87163418289649%)" points="372.9164077482027,317.47548924212197 372.9164077482027,279.8090937101233 366.3352087618313,281.7089222133093 366.3352087618313,319.37531774530794" />
  <polygon fill="hsl(288.0,50.0%,73.87163418289649%)" points="349.88221129590295,286.83142808050195 349.88221129590295,249.53796715773103 355.64076040897794,247.87561721744328 355.64076040897794,285.1690781402142" />
  <polygon fill="hsl(288.0,50.0%,73.87163418289649%)" points="373.7390576214991,279.9445497564527 373.7390576214991,242.6510888336818 379.497606734574,240.98873889339404 379.49760673457405,278.28219981616496" />
  <polygon fill="hsl(288.0,50.0%,73.87163418289649%)" points="355.64076040897794,253.6341663305182 355.64076040897794,247.87561721744328 373.7390576214991,242.6510888336818 373.7390576214991,248.4096379467567" />
  <polygon fill="hsl(288.0,50.0%,73.87163418289649%)" points="356.4634102822743,284.931599577316 356.4634102822743,247.63813865454503 372.9164077482027,242.88856739658004 372.9164077482027,280.182028319351" />
  <polygon fill="hsl(288.0,50.0%,73.87163418289649%)" points="360.5766596487564,244.58607279391524 360.5766596487564,227.8040153786683 368.8031583817206,225.42922974968582 368.8031583817206,242.21128716493274" />
  <polygon fill="hsl(288.0,50.0%,73.87163418289649%)" points="362.22195939534924,245.97578871425728 362.22195939534924,227.32905825287185 367.15785863512775,225.9041868754823 367.15785863512775,244.5509173368678" />
  <polygon fill="hsl(288.0,50.0%,73.07460395039482%)" points="419.14955974310675,308.2088947458873 419.14955974310675,270.5424992138886 425.7307587294781,268.64267071070265 425.7307587294781,306.3090662427013" />
  <polygon fill="hsl(288.0,50.0%,73.07460395039482%)" points="435.6025572090352,303.4593234879223 435.6025572090352,265.79292795592363 429.0213582226638,267.6927564591096 429.0213582226638,305.35915199110826" />
  <polygon fill="hsl(288.0,50.0%,73.07460395039482%)" points="412.56836075673544,272.81526232630233 412.56836075673544,235.52180140353136 418.3269098698104,233.85945146324366 418.3269098698104,271.1529123860146" />
  <polygon fill="hsl(288.0,50.0%,73.07460395039482%)" points="436.42520708233155,265.9283840022531 436.42520708233155,228.63492307948215 442.1837561954065,226.97257313919442 442.1837561954065,264.26603406196534" />
  <polygon fill="hsl(288.0,50.0%,73.07460395039482%)" points="418.3269098698104,239.61800057631856 418.3269098698104,233.85945146324366 436.42520708233155,228.63492307948215 436.42520708233155,234.39347219255708" />
  <polygon fill="hsl(288.0,50.0%,73.07460395039482%)" points="419.14955974310675,270.91543382311636 419.14955974310675,233.62197290034538 435.6025572090352,228.8724016423804 435.6025572090352,266.1658625651513" />
  <polygon fill="hsl(288.0,50.0%,73.07460395039482%)" points="423.2628091095889,230.5699070397156 423.2628091095889,213.78784962446866 431.48930784255305,211.4130639954862 431.48930784255305,228.1951214107331" />
  <polygon fill="hsl(288.0,50.0%,73.07460395039482%)" points="424.9081088561817,231.95962296005763 424.9081088561817,213.31289249867217 429.8440080959602,211.8880211212827 429.8440080959602,230.53475158266815" />
  <polygon fill="hsl(288.0,50.0%,50.11143025347155%)" points="482.26638544305086,407.5304708369167 482.26638544305086,369.86407530491806 488.8475844294222,367.9642468017321 488.8475844294222,405.63064233373075" />
  <polygon fill="hsl(288.0,50.0%,50.11143025347155%)" points="498.71938290897924,402.7808995789518 498.71938290897924,365.1145040469531 492.1381839226079,367.0143325501391 492.1381839226079,404.68072808213776" />
  <polygon fill="hsl(288.0,50.0%,50.11143025347155%)" points="475.6851864566795,372.1368384173318 475.6851864566795,334.84337749456085 481.44373556975444,333.1810275542731 481.44373556975444,370.474488477044" />
  <polygon fill="hsl(288.0,50.0%,50.11143025347155%)" points="499.54203278227567,365.24996009328254 499.54203278227567,327.9564991705116 505.30058189535055,326.29414923022387 505.30058189535055,363.5876101529948" />
  <polygon fill="hsl(288.0,50.0%,50.11143025347155%)" points="481.44373556975444,338.93957666734804 481.44373556975444,333.1810275542731 499.54203278227567,327.9564991705116 499.54203278227567,333.71504828358655" />
  <polygon fill="hsl(288.0,50.0%,50.11143025347155%)" points="482.26638544305086,370.2370099141458 482.26638544305086,332.9435489913748 498.71938290897924,328.19397773340984 498.71938290897924,365.4874386561808" />
  <polygon fill="hsl(288.0,50.0%,50.11143025347155%)" points="486.37963480953294,329.89148313074503 486.37963480953294,313.10942571549816 494.60613354249716,310.73464008651564 494.60613354249716,327.51669750176256" />
  <polygon fill="hsl(288.0,50.0%,50.11143025347155%)" points="488.0249345561258,331.2811990510871 488.0249345561258,312.6344685897016 492.9608337959043,311.20959721231213 492.9608337959043,329.8563276736976" />
  <polygon fill="hsl(288.0,50.0%,41.06646317363794%)" points="391.61823017788066,479.99690561918817 391.61823017788066,442.3305100871895 398.19942916425197,440.43068158400354 398.19942916425197,478.0970771160022" />
  <polygon fill="hsl(288.0,50.0%,41.06646317363794%)" points="408.071227643809,475.2473343612232 408.071227643809,437.5809388292245 401.4900286574376,439.4807673324105 401.4900286574376,477.14716286440915" />
  <polygon fill="hsl(288.0,50.0%,41.06646317363794%)" points="385.0370311915093,444.6032731996032 385.0370311915093,407.30981227683225 390.7955803045842,405.6474623365445 390.7955803045842,442.94092325931547" />
  <polygon fill="hsl(288.0,50.0%,41.06646317363794%)" points="408.8938775171054,437.716394875554 408.8938775171054,400.422933952783 414.6524266301803,398.7605840124953 414.6524266301803,436.05404493526623" />
  <polygon fill="hsl(288.0,50.0%,41.06646317363794%)" points="390.7955803045842,411.4060114496194 390.7955803045842,405.6474623365445 408.8938775171054,400.422933952783 408.8938775171054,406.18148306585795" />
  <polygon fill="hsl(288.0,50.0%,41.06646317363794%)" points="391.61823017788066,442.7034446964172 391.61823017788066,405.4099837736463 408.071227643809,400.6604125156813 408.071227643809,437.9538734384522" />
  <polygon fill="hsl(288.0,50.0%,41.06646317363794%)" points="395.73147954436274,402.3579179130165 395.73147954436274,385.57586049776955 403.9579782773269,383.20107486878703 403.9579782773269,399.98313228403396" />
  <polygon fill="hsl(288.0,50.0%,41.06646317363794%)" points="397.37677929095554,403.7476338333585 397.37677929095554,385.10090337197306 402.31267853073405,383.6760319945836 402.31267853073405,402.32276245596904" />
  <polygon fill="hsl(288.0,50.0%,40.57399405369576%)" points="563.7893018507305,432.81620509857044 563.7893018507305,395.1498095665718 570.3705008371018,393.2499810633858 570.3705008371018,430.91637659538446" />
  <polygon fill="hsl(288.0,50.0%,40.57399405369576%)" points="580.2422993166588,428.06663384060545 580.2422993166588,390.4002383086068 573.6611003302874,392.3000668117928 573.6611003302874,429.9664623437915" />
  <polygon fill="hsl(288.0,50.0%,40.57399405369576%)" points="557.208102864359,397.4225726789855 557.208102864359,360.12911175621457 562.9666519774339,358.4667618159268 562.9666519774339,395.76022273869773" />
  <polygon fill="hsl(288.0,50.0%,40.57399405369576%)" points="581.0649491899552,390.53569435493625 581.0649491899552,353.24223343216534 586.8234983030302,351.5798834918776 586.8234983030302,388.8733444146485" />
  <polygon fill="hsl(288.0,50.0%,40.57399405369576%)" points="562.9666519774339,364.22531092900175 562.9666519774339,358.4667618159268 581.0649491899552,353.24223343216534 581.0649491899552,359.00078254524027" />
  <polygon fill="hsl(288.0,50.0%,40.57399405369576%)" points="563.7893018507305,395.5227441757995 563.7893018507305,358.2292832530286 580.2422993166588,353.47971199506355 580.2422993166588,390.7731729178345" />
  <polygon fill="hsl(288.0,50.0%,40.57399405369576%)" points="567.9025512172125,355.1772173923988 567.9025512172125,338.3951599771519 576.1290499501766,336.02037434816936 576.1290499501766,352.8024317634163" />
  <polygon fill="hsl(288.0,50.0%,40.57399405369576%)" points="569.5478509638053,356.56693331274084 569.5478509638053,337.9202028513554 574.4837502035839,336.49533147396585 574.4837502035839,355.1420619353513" />
</svg>
