<?xml version="1.0" encoding="UTF-8"?>
<svg
  xmlns="http://www.w3.org/2000/svg"
  width="848"
  height="600"
  style="background-color:white"
>
  <polygon fill="lightblue" points="370.2933546932327,525.7365184605404 148.64669598820012,333.78488135804287 477.7066453067673,238.79345619874317 699.3533040117999,430.7450933012407" />
  <polygon fill="steelblue" points="148.64669598820012,333.78488135804287 148.64669598820012,169.25490669875933 477.7066453067673,74.26348153945958 477.7066453067673,238.79345619874317" />
  <polygon fill="lightskyblue" points="699.3533040117999,430.7450933012407 699.3533040117999,266.21511864195713 477.7066453067673,74.26348153945958 477.7066453067673,238.79345619874317" />
  <polygon fill="white" points="299.46583942587677,246.37248491755489 299.46583942587677,202.4978250084126 326.88750186909067,194.58187291180428 326.88750186909067,238.4565328209466" />
  <polygon fill="grey" points="466.11688705676994,134.28059227817442 466.11688705676994,106.85892983496046 493.5385494999839,98.94297773835217 493.5385494999839,126.36464018156607" />
  <polygon fill="lightgrey" points="466.11688705676994,134.28059227817442 466.11688705676994,106.85892983496046 450.28498286355335,93.14809861335348 450.28498286355335,120.56976105656742" />
  <polygon fill="darkgrey" points="466.11688705676994,106.85892983496046 450.28498286355335,93.14809861335348 477.7066453067673,85.23214651674519 493.5385494999839,98.94297773835217" />
  <polygon fill="hsl(360.0,50.0%,50.11143025347155%)" points="482.26638544305086,407.5304708369167 482.26638544305086,369.86407530491806 488.8475844294222,367.9642468017321 488.8475844294222,405.63064233373075" />
  <polygon fill="hsl(360.0,50.0%,50.11143025347155%)" points="498.71938290897924,402.7808995789518 498.71938290897924,365.1145040469531 492.1381839226079,367.0143325501391 492.1381839226079,404.68072808213776" />
  <polygon fill="hsl(360.0,50.0%,50.11143025347155%)" points="475.6851864566795,372.1368384173318 475.6851864566795,334.84337749456085 481.44373556975444,333.1810275542731 481.44373556975444,370.474488477044" />
  <polygon fill="hsl(360.0,50.0%,50.11143025347155%)" points="499.54203278227567,365.24996009328254 499.54203278227567,327.9564991705116 505.30058189535055,326.29414923022387 505.30058189535055,363.5876101529948" />
  <polygon fill="hsl(360.0,50.0%,50.11143025347155%)" points="481.44373556975444,338.93957666734804 481.44373556975444,333.1810275542731 499.54203278227567,327.9564991705116 499.54203278227567,333.71504828358655" />
  <polygon fill="hsl(360.0,50.0%,50.11143025347155%)" points="482.26638544305086,370.2370099141458 482.26638544305086,332.9435489913748 498.71938290897924,328.19397773340984 498.71938290897924,365.4874386561808" />
  <polygon fill="hsl(360.0,50.0%,50.11143025347155%)" points="486.37963480953294,329.89148313074503 486.37963480953294,313.10942571549816 494.60613354249716,310.73464008651564 494.60613354249716,327.51669750176256" />
  <polygon fill="hsl(360.0,50.0%,50.11143025347155%)" points="488.0249345561258,331.2811990510871 488.0249345561258,312.6344685897016 492.9608337959043,311.20959721231213 492.9608337959043,329.8563276736976" />
</svg>
