<?xml version="1.0" encoding="UTF-8"?>
<svg
  xmlns="http://www.w3.org/2000/svg"
  width="848"
  height="600"
  style="background-color:white"
>
  <polygon fill="lightblue" points="276.7622519942021,520.3803595246859 131.7782022604831,394.8204893117388 571.2377480057979,267.9594457947347 716.2217977395169,393.5193160076818" />
  <polygon fill="steelblue" points="131.7782022604831,394.8204893117388 131.7782022604831,206.48068399231818 571.2377480057979,79.61964047531404 571.2377480057979,267.9594457947347" />
  <polygon fill="lightskyblue" points="716.2217977395169,393.5193160076818 716.2217977395169,205.17951068826116 571.2377480057979,79.61964047531404 571.2377480057979,267.9594457947347" />
  <polygon fill="white" points="335.81299135652216,285.69677102223665 335.81299135652216,235.4728229370578 367.2029589097589,226.41131982870036 367.20295890975893,276.6352679138792" />
  <polygon fill="grey" points="557.9707866692761,148.32208193482137 557.9707866692761,116.9321143815846 589.3607542225128,107.87061127322718 589.3607542225128,139.26057882646393" />
  <polygon fill="lightgrey" points="557.9707866692761,148.32208193482137 557.9707866692761,116.9321143815846 539.8477804525612,101.23713060496621 539.8477804525612,132.62709815820298" />
  <polygon fill="darkgrey" points="557.9707866692761,116.9321143815846 539.8477804525612,101.23713060496621 571.2377480057979,92.17562749660877 589.3607542225128,107.87061127322718" />
  <polygon fill="hsl(360.0,50.0%,69.21014392802753%)" points="396.7375994360198,365.6214551025453 396.7375994360198,322.50419567141927 404.2711916487966,320.3294349254135 404.2711916487966,363.4466943565395" />
  <polygon fill="hsl(360.0,50.0%,69.21014392802753%)" points="415.57157996796184,360.18455323753085 415.57157996796184,317.06729380640485 408.03798775518504,319.2420545524106 408.03798775518504,362.35931398353665" />
  <polygon fill="hsl(360.0,50.0%,69.21014392802753%)" points="389.20400722324297,325.1058599761491 389.20400722324297,282.4155041037471 395.7959004094227,280.51258845099204 395.7959004094227,323.20294432339404" />
  <polygon fill="hsl(360.0,50.0%,69.21014392802753%)" points="416.51327899455896,317.22235227187815 416.51327899455896,274.5319963994761 423.1051721807387,272.62908074672106 423.1051721807387,315.31943661912305" />
  <polygon fill="hsl(360.0,50.0%,69.21014392802753%)" points="395.7959004094227,287.1044816371718 395.7959004094227,280.51258845099204 416.51327899455896,274.5319963994761 416.51327899455896,281.12388958565583" />
  <polygon fill="hsl(360.0,50.0%,69.21014392802753%)" points="396.7375994360198,322.93109923014333 396.7375994360198,280.2407433577413 415.57157996796184,274.80384149272686 415.57157996796184,317.49419736512885" />
  <polygon fill="hsl(360.0,50.0%,69.21014392802753%)" points="401.4460945690053,276.7470000978676 401.4460945690053,257.5363399552867 410.86308483497635,254.81788902277947 410.86308483497635,274.02854916536035" />
  <polygon fill="hsl(360.0,50.0%,69.21014392802753%)" points="403.3294926221995,278.33782770498624 403.3294926221995,256.9926497687852 408.9796867817821,255.3615792092809 408.9796867817821,276.7067571454819" />
  <polygon fill="hsl(360.0,50.0%,68.65222276527638%)" points="482.9969486009901,342.58859277319567 482.9969486009901,299.47133334206967 490.53054081376695,297.29657259606387 490.53054081376695,340.4138320271899" />
  <polygon fill="hsl(360.0,50.0%,68.65222276527638%)" points="501.8309291329322,337.1516909081812 501.8309291329322,294.0344314770552 494.2973369201554,296.20919222306094 494.2973369201554,339.326451654187" />
  <polygon fill="hsl(360.0,50.0%,68.65222276527638%)" points="475.4633563882133,302.0729976467995 475.4633563882133,259.3826417743974 482.05524957439303,257.4797261216424 482.05524957439303,300.1700819940444" />
  <polygon fill="hsl(360.0,50.0%,68.65222276527638%)" points="502.7726281595293,294.1894899425285 502.7726281595293,251.49913407012647 509.3645213457091,249.5962184173714 509.3645213457091,292.2865742897734" />
  <polygon fill="hsl(360.0,50.0%,68.65222276527638%)" points="482.05524957439303,264.0716193078221 482.05524957439303,257.4797261216424 502.7726281595293,251.49913407012647 502.7726281595293,258.0910272563062" />
  <polygon fill="hsl(360.0,50.0%,68.65222276527638%)" points="482.9969486009901,299.8982369007937 482.9969486009901,257.2078810283916 501.8309291329322,251.77097916337718 501.8309291329322,294.4613350357792" />
  <polygon fill="hsl(360.0,50.0%,68.65222276527638%)" points="487.70544373397564,253.71413776851793 487.70544373397564,234.50347762593702 497.1224339999467,231.7850266934298 497.1224339999467,250.9956868360107" />
  <polygon fill="hsl(360.0,50.0%,68.65222276527638%)" points="489.5888417871699,255.30496537563658 489.5888417871699,233.9597874394356 495.2390359467525,232.32871687993125 495.2390359467525,253.67389481613225" />
  <polygon fill="hsl(360.0,50.0%,52.57800117743009%)" points="474.26386621511,398.93034120887745 474.26386621511,355.8130817777514 481.79745842788685,353.6383210317456 481.79745842788685,396.75558046287165" />
  <polygon fill="hsl(360.0,50.0%,52.57800117743009%)" points="493.09784674705213,393.493439343863 493.09784674705213,350.3761799127369 485.5642545342753,352.5509406587427 485.5642545342753,395.6682000898687" />
  <polygon fill="hsl(360.0,50.0%,52.57800117743009%)" points="466.7302740023332,358.4147460824812 466.7302740023332,315.72439021007915 473.32216718851294,313.8214745573241 473.32216718851294,356.5118304297261" />
  <polygon fill="hsl(360.0,50.0%,52.57800117743009%)" points="494.0395457736492,350.5312383782102 494.0395457736492,307.8408825058082 500.6314389598289,305.9379668530531 500.6314389598289,348.6283227254551" />
  <polygon fill="hsl(360.0,50.0%,52.57800117743009%)" points="473.32216718851294,320.41336774350384 473.32216718851294,313.8214745573241 494.0395457736492,307.8408825058082 494.0395457736492,314.4327756919879" />
  <polygon fill="hsl(360.0,50.0%,52.57800117743009%)" points="474.26386621511,356.2399853364754 474.26386621511,313.5496294640734 493.09784674705213,308.1127275990589 493.09784674705213,350.8030834714609" />
  <polygon fill="hsl(360.0,50.0%,52.57800117743009%)" points="478.97236134809555,310.0558862041997 478.97236134809555,290.8452260616188 488.3893516140666,288.12677512911154 488.3893516140666,307.3374352716924" />
  <polygon fill="hsl(360.0,50.0%,52.57800117743009%)" points="480.85575940128973,311.6467138113183 480.85575940128973,290.30153587511734 486.5059535608724,288.670465315613 486.5059535608724,310.01564325181397" />
  <polygon fill="hsl(360.0,50.0%,46.67297271596994%)" points="560.5834222619658,393.78362127487867 560.5834222619658,350.66636184375267 568.1170144747426,348.49160109774687 568.1170144747426,391.6088605288729" />
  <polygon fill="hsl(360.0,50.0%,46.67297271596994%)" points="579.417402793908,388.34671940986425 579.417402793908,345.2294599787382 571.8838105811311,347.40422072474394 571.8838105811311,390.52148015587" />
  <polygon fill="hsl(360.0,50.0%,46.67297271596994%)" points="553.049830049189,353.2680261484825 553.049830049189,310.5776702760804 559.6417232353688,308.6747546233254 559.6417232353688,351.3651104957274" />
  <polygon fill="hsl(360.0,50.0%,46.67297271596994%)" points="580.359101820505,345.3845184442115 580.359101820505,302.69416257180944 586.9509950066847,300.7912469190544 586.9509950066847,343.4816027914564" />
  <polygon fill="hsl(360.0,50.0%,46.67297271596994%)" points="559.6417232353688,315.2666478095051 559.6417232353688,308.6747546233254 580.359101820505,302.69416257180944 580.359101820505,309.2860557579892" />
  <polygon fill="hsl(360.0,50.0%,46.67297271596994%)" points="560.5834222619658,351.0932654024767 560.5834222619658,308.4029095300747 579.417402793908,302.9660076650602 579.417402793908,345.6563635374622" />
  <polygon fill="hsl(360.0,50.0%,46.67297271596994%)" points="565.2919173949514,304.90916627020096 565.2919173949514,285.69850612762 574.7089076609225,282.9800551951128 574.7089076609225,302.1907153376937" />
  <polygon fill="hsl(360.0,50.0%,46.67297271596994%)" points="567.1753154481455,306.4999938773196 567.1753154481455,285.1548159411186 572.8255096077282,283.5237453816143 572.8255096077282,304.86892331781524" />
  <polygon fill="hsl(360.0,50.0%,46.24652422154656%)" points="305.5426385045395,468.83541565621516 305.5426385045395,425.7181562250891 313.0762307173163,423.5433954790833 313.0762307173163,466.66065491020936" />
  <polygon fill="hsl(360.0,50.0%,46.24652422154656%)" points="324.3766190364816,463.3985137912007 324.3766190364816,420.2812543600746 316.8430268237048,422.45601510608043 316.8430268237048,465.5732745372065" />
  <polygon fill="hsl(360.0,50.0%,46.24652422154656%)" points="298.00904629176273,428.3198205298189 298.00904629176273,385.6294646574169 304.60093947794246,383.7265490046618 304.60093947794246,426.41690487706387" />
  <polygon fill="hsl(360.0,50.0%,46.24652422154656%)" points="325.3183180630787,420.43631282554793 325.3183180630787,377.74595695314594 331.9102112492584,375.8430413003909 331.9102112492584,418.5333971727929" />
  <polygon fill="hsl(360.0,50.0%,46.24652422154656%)" points="304.60093947794246,390.31844219084155 304.60093947794246,383.7265490046618 325.3183180630787,377.74595695314594 325.3183180630787,384.33785013932567" />
  <polygon fill="hsl(360.0,50.0%,46.24652422154656%)" points="305.5426385045395,426.1450597838131 305.5426385045395,383.4547039114111 324.3766190364816,378.0178020463967 324.3766190364816,420.7081579187987" />
  <polygon fill="hsl(360.0,50.0%,46.24652422154656%)" points="310.2511336375251,379.96096065153745 310.2511336375251,360.7503005089565 319.6681239034961,358.0318495764493 319.6681239034961,377.2425097190302" />
  <polygon fill="hsl(360.0,50.0%,46.24652422154656%)" points="312.13453169071926,381.5517882586561 312.13453169071926,360.20661032245505 317.78472585030187,358.5755397629507 317.78472585030187,379.92071769915174" />
</svg>
