<?xml version="1.0" encoding="UTF-8"?>
<svg
  xmlns="http://www.w3.org/2000/svg"
  width="848"
  height="600"
  style="background-color:white"
>
  <polygon fill="lightblue" points="290.22562802821767,528.7485229986884 158.49887682654776,414.66981010004986 557.7743719717823,299.4089027985886 689.5011231734522,413.4876156972271" />
  <polygon fill="steelblue" points="158.49887682654776,414.66981010004986 158.49887682654776,186.5123843027729 557.7743719717823,71.25147700131166 557.7743719717823,299.4089027985886" />
  <polygon fill="lightskyblue" points="689.5011231734522,413.4876156972271 689.5011231734522,185.33018989995017 557.7743719717823,71.25147700131166 557.7743719717823,299.4089027985886" />
  <polygon fill="white" points="224.09413674326484,350.10260445535437 224.09413674326484,304.471119295899 252.61381496792444,296.2381973457946 252.61381496792444,341.86968250525" />
  <polygon fill="white" points="303.9492357723118,327.05042299506215 303.9492357723118,281.41893783560676 332.46891399697137,273.1860158855024 332.46891399697137,318.8175010449578" />
  <polygon fill="white" points="383.80433480135866,303.99824153476993 383.80433480135866,258.36675637531454 412.3240130260183,250.13383442521015 412.3240130260183,295.7653195846655" />
  <polygon fill="white" points="463.6594338304056,280.94606007447766 463.6594338304056,235.31457491502226 492.1791120550652,227.0816529649179 492.1791120550652,272.7131381243733" />
  <polygon fill="hsl(324.0,50.0%,52.57800117743009%)" points="469.66775318741804,418.40385835794024 469.66775318741804,379.22922834854774 476.51247596133635,377.2533270805227 476.51247596133635,416.42795708991514" />
  <polygon fill="hsl(324.0,50.0%,52.57800117743009%)" points="486.77956012221387,413.4641051878776 486.77956012221387,374.28947517848513 479.93483734829556,376.2653764465102 479.93483734829556,415.4400064559026" />
  <polygon fill="hsl(324.0,50.0%,52.57800117743009%)" points="462.82303041349974,381.5929972404282 462.82303041349974,342.8062348548911 468.8121628406783,341.07732124536915 468.8121628406783,379.86408363090624" />
  <polygon fill="hsl(324.0,50.0%,52.57800117743009%)" points="487.6351504689536,374.43035514383735 487.6351504689536,335.6435927583003 493.6242828961322,333.91467914877836 493.6242828961322,372.70144153431545" />
  <polygon fill="hsl(324.0,50.0%,52.57800117743009%)" points="468.8121628406783,347.0664536725477 468.8121628406783,341.07732124536915 487.6351504689536,335.6435927583003 487.6351504689536,341.6327251854788" />
  <polygon fill="hsl(324.0,50.0%,52.57800117743009%)" points="469.66775318741804,379.61709597240315 469.66775318741804,340.83033358686606 486.77956012221387,335.8905804168034 486.77956012221387,374.6773428023405" />
  <polygon fill="hsl(324.0,50.0%,52.57800117743009%)" points="473.945704921117,337.65605717507356 473.945704921117,320.2020141015819 482.5016083885149,317.73213751655055 482.5016083885149,335.1861805900422" />
  <polygon fill="hsl(324.0,50.0%,52.57800117743009%)" points="475.65688561459655,339.1014199773441 475.65688561459655,319.7080387845756 480.7904276950353,318.22611283355684 480.7904276950353,337.61949402632536" />
</svg>
