<?xml version="1.0" encoding="UTF-8"?>
<svg
  xmlns="http://www.w3.org/2000/svg"
  width="848"
  height="600"
  style="background-color:white"
>
  <polygon fill="lightblue" points="276.7622519942021,520.3803595246859 131.7782022604831,394.8204893117388 571.2377480057979,267.9594457947347 716.2217977395169,393.5193160076818" />
  <polygon fill="steelblue" points="131.7782022604831,394.8204893117388 131.7782022604831,206.48068399231818 571.2377480057979,79.61964047531404 571.2377480057979,267.9594457947347" />
  <polygon fill="lightskyblue" points="716.2217977395169,393.5193160076818 716.2217977395169,205.17951068826116 571.2377480057979,79.61964047531404 571.2377480057979,267.9594457947347" />
  <polygon fill="white" points="654.6035766026863,340.15637116717926 654.6035766026863,214.59650095423217 632.8559691426285,195.76252042229012 632.8559691426285,321.32239063523724" />
  <polygon fill="white" points="225.94810492019343,317.4120319014877 225.94810492019343,267.18808381630885 257.3380724734302,258.1265807079514 257.3380724734302,308.35052879313025" />
  <polygon fill="white" points="335.81299135652216,285.69677102223665 335.81299135652216,235.4728229370578 367.2029589097589,226.41131982870036 367.20295890975893,276.6352679138792" />
  <polygon fill="white" points="445.67787779285084,253.9815101429856 445.67787779285084,203.75756205780675 477.0678453460876,194.6960589494493 477.0678453460876,244.92000703462816" />
  <polygon fill="grey" points="557.9707866692761,148.32208193482137 557.9707866692761,116.9321143815846 589.3607542225128,107.87061127322718 589.3607542225128,139.26057882646393" />
  <polygon fill="lightgrey" points="557.9707866692761,148.32208193482137 557.9707866692761,116.9321143815846 539.8477804525612,101.23713060496621 539.8477804525612,132.62709815820298" />
  <polygon fill="darkgrey" points="557.9707866692761,116.9321143815846 539.8477804525612,101.23713060496621 571.2377480057979,92.17562749660877 589.3607542225128,107.87061127322718" />
  <polygon fill="hsl(288.0,50.0%,52.57800117743009%)" points="474.26386621511,398.93034120887745 474.26386621511,355.8130817777514 481.79745842788685,353.6383210317456 481.79745842788685,396.75558046287165" />
  <polygon fill="hsl(288.0,50.0%,52.57800117743009%)" points="493.09784674705213,393.493439343863 493.09784674705213,350.3761799127369 485.5642545342753,352.5509406587427 485.5642545342753,395.6682000898687" />
  <polygon fill="hsl(288.0,50.0%,52.57800117743009%)" points="466.7302740023332,358.4147460824812 466.7302740023332,315.72439021007915 473.32216718851294,313.8214745573241 473.32216718851294,356.5118304297261" />
  <polygon fill="hsl(288.0,50.0%,52.57800117743009%)" points="494.0395457736492,350.5312383782102 494.0395457736492,307.8408825058082 500.6314389598289,305.9379668530531 500.6314389598289,348.6283227254551" />
  <polygon fill="hsl(288.0,50.0%,52.57800117743009%)" points="473.32216718851294,320.41336774350384 473.32216718851294,313.8214745573241 494.0395457736492,307.8408825058082 494.0395457736492,314.4327756919879" />
  <polygon fill="hsl(288.0,50.0%,52.57800117743009%)" points="474.26386621511,356.2399853364754 474.26386621511,313.5496294640734 493.09784674705213,308.1127275990589 493.09784674705213,350.8030834714609" />
  <polygon fill="hsl(288.0,50.0%,52.57800117743009%)" points="478.97236134809555,310.0558862041997 478.97236134809555,290.8452260616188 488.3893516140666,288.12677512911154 488.3893516140666,307.3374352716924" />
  <polygon fill="hsl(288.0,50.0%,52.57800117743009%)" points="480.85575940128973,311.6467138113183 480.85575940128973,290.30153587511734 486.5059535608724,288.670465315613 486.5059535608724,310.01564325181397" />
</svg>
