<?xml version="1.0" encoding="UTF-8"?>
<svg
  xmlns="http://www.w3.org/2000/svg"
  width="848"
  height="600"
  style="background-color:white"
>
  <polygon fill="lightblue" points="255.4548528162847,516.3399933954547 89.48954614303602,372.6098216695463 592.5451471837152,227.39017833045367 758.510453856964,371.12035005636204" />
  <polygon fill="steelblue" points="89.48954614303602,372.6098216695463 89.48954614303602,228.87964994363796 592.5451471837152,83.66000660454529 592.5451471837152,227.39017833045367" />
  <polygon fill="lightskyblue" points="758.510453856964,371.12035005636204 758.510453856964,227.3901783304537 592.5451471837152,83.66000660454529 592.5451471837152,227.39017833045367" />
  <polygon fill="white" points="687.9751985208334,310.035027072851 687.9751985208334,166.30485534694262 663.0804025198461,144.74532958805636 663.0804025198461,288.47550131396474" />
  <polygon fill="white" points="172.13439488543332,291.26024014490343 172.13439488543332,233.7681714545401 208.0669378169104,223.39533978746206 208.0669378169104,280.88740847782543" />
  <polygon fill="white" points="272.7455150935692,262.21631147708496 272.7455150935692,204.7242427867216 308.67805802504625,194.35141111964356 308.67805802504625,251.8434798100069" />
  <polygon fill="white" points="373.356635301705,233.17238280926642 373.356635301705,175.68031411890308 409.2891782331821,165.30748245182502 409.2891782331821,222.79955114218836" />
  <polygon fill="white" points="473.96775550984086,204.1284541414479 473.96775550984086,146.63638545108452 509.900298441318,136.26355378400646 509.900298441318,193.75562247436983" />
  <polygon fill="grey" points="577.3582675863943,162.3046698414298 577.3582675863943,126.37212690995273 613.2908105178714,115.99929524287467 613.2908105178714,151.93183817435178" />
  <polygon fill="lightgrey" points="577.3582675863943,162.3046698414298 577.3582675863943,126.37212690995273 556.6126042522383,108.40585544421418 556.6126042522383,144.33839837569127" />
  <polygon fill="darkgrey" points="577.3582675863943,126.37212690995273 556.6126042522383,108.40585544421418 592.5451471837152,98.03302377713612 613.2908105178714,115.99929524287467" />
  <polygon fill="hsl(324.0,50.0%,69.21014392802753%)" points="392.79234178821787,339.18527134148053 392.79234178821787,289.8283303708036 401.4161520917724,287.3388507707049 401.4161520917724,336.6957917413818" />
  <polygon fill="hsl(324.0,50.0%,69.21014392802753%)" points="414.3518675471041,332.9615723412337 414.3518675471041,283.6046313705568 405.72805724354964,286.0941109706555 405.72805724354964,335.4510519413325" />
  <polygon fill="hsl(324.0,50.0%,69.21014392802753%)" points="384.1685314846634,292.80649255477044 384.1685314846634,243.93823416796158 391.7143655002736,241.75993951787518 391.7143655002736,290.62819790468404" />
  <polygon fill="hsl(324.0,50.0%,69.21014392802753%)" points="415.4298438350485,283.7821290044125 415.4298438350485,234.9138706176037 422.97567785065866,232.7355759675173 422.97567785065866,281.6038343543261" />
  <polygon fill="hsl(324.0,50.0%,69.21014392802753%)" points="391.7143655002736,249.3057735334854 391.7143655002736,241.75993951787518 415.4298438350485,234.9138706176037 415.4298438350485,242.45970463321387" />
  <polygon fill="hsl(324.0,50.0%,69.21014392802753%)" points="392.79234178821787,290.3170129546717 392.79234178821787,241.44875456786286 414.3518675471041,235.22505556761604 414.3518675471041,284.0933139544249" />
  <polygon fill="hsl(324.0,50.0%,69.21014392802753%)" points="398.1822232279394,237.4494168984607 398.1822232279394,215.45870062439673 408.9619861073826,212.34685112427331 408.9619861073826,234.33756739833728" />
  <polygon fill="hsl(324.0,50.0%,69.21014392802753%)" points="400.33817580382805,239.27045991777646 400.33817580382805,214.83633072437203 406.80603353149394,212.969221024298 406.80603353149394,237.4033502177024" />
  <polygon fill="hsl(324.0,50.0%,68.65222276527638%)" points="491.53464733074026,312.8192257863039 491.53464733074026,263.46228481562696 500.1584576342948,260.97280521552824 500.1584576342948,310.32974618620517" />
  <polygon fill="hsl(324.0,50.0%,68.65222276527638%)" points="513.0941730896266,306.59552678605706 513.0941730896266,257.23858581538013 504.47036278607203,259.72806541547885 504.47036278607203,309.0850063861558" />
  <polygon fill="hsl(324.0,50.0%,68.65222276527638%)" points="482.9108370271857,266.4404469995938 482.9108370271857,217.57218861278494 490.45667104279596,215.39389396269854 490.45667104279596,264.2621523495074" />
  <polygon fill="hsl(324.0,50.0%,68.65222276527638%)" points="514.1721493775708,257.4160834492359 514.1721493775708,208.54782506242702 521.717983393181,206.36953041234062 521.717983393181,255.23778879914948" />
  <polygon fill="hsl(324.0,50.0%,68.65222276527638%)" points="490.45667104279596,222.93972797830872 490.45667104279596,215.39389396269854 514.1721493775708,208.54782506242702 514.1721493775708,216.0936590780372" />
  <polygon fill="hsl(324.0,50.0%,68.65222276527638%)" points="491.53464733074026,263.9509673994951 491.53464733074026,215.08270901268622 513.0941730896266,208.85901001243937 513.0941730896266,257.7272683992482" />
  <polygon fill="hsl(324.0,50.0%,68.65222276527638%)" points="496.92452877046185,211.08337134328406 496.92452877046185,189.0926550692201 507.704291649905,185.98080556909667 507.704291649905,207.97152184316064" />
  <polygon fill="hsl(324.0,50.0%,68.65222276527638%)" points="499.08048134635044,212.90441436259982 499.08048134635044,188.4702851691954 505.5483390740163,186.60317546912137 505.5483390740163,211.03730466252577" />
  <polygon fill="hsl(324.0,50.0%,52.57800117743009%)" points="481.53776354223163,377.3144276709857 481.53776354223163,327.9574867003088 490.16157384578617,325.46800710021 490.16157384578617,374.82494807088693" />
  <polygon fill="hsl(324.0,50.0%,52.57800117743009%)" points="503.09728930111794,371.0907286707388 503.09728930111794,321.7337877000619 494.47347899756346,324.2232673001606 494.47347899756346,373.5802082708376" />
  <polygon fill="hsl(324.0,50.0%,52.57800117743009%)" points="472.91395323867715,330.93564888427557 472.91395323867715,282.0673904974667 480.45978725428733,279.8890958473803 480.45978725428733,328.75735423418917" />
  <polygon fill="hsl(324.0,50.0%,52.57800117743009%)" points="504.17526558906223,321.91128533391765 504.17526558906223,273.04302694710884 511.7210996046725,270.86473229702244 511.7210996046725,319.73299068383125" />
  <polygon fill="hsl(324.0,50.0%,52.57800117743009%)" points="480.45978725428733,287.4349298629905 480.45978725428733,279.8890958473803 504.17526558906223,273.04302694710884 504.17526558906223,280.588860962719" />
  <polygon fill="hsl(324.0,50.0%,52.57800117743009%)" points="481.53776354223163,328.44616928417685 481.53776354223163,279.577910897368 503.09728930111794,273.35421189712116 503.09728930111794,322.22247028392997" />
  <polygon fill="hsl(324.0,50.0%,52.57800117743009%)" points="486.9276449819532,275.5785732279658 486.9276449819532,253.58785695390185 497.7074078613964,250.47600745377844 497.7074078613964,272.4667237278424" />
  <polygon fill="hsl(324.0,50.0%,52.57800117743009%)" points="489.08359755784187,277.3996162472816 489.08359755784187,252.96548705387718 495.55145528550776,251.09837735380313 495.55145528550776,275.53250654720756" />
  <polygon fill="hsl(324.0,50.0%,46.67297271596994%)" points="580.348988759948,371.4229040601042 580.348988759948,322.06596308942727 588.9727990635026,319.5764834893285 588.9727990635026,368.9334244600054" />
  <polygon fill="hsl(324.0,50.0%,46.67297271596994%)" points="601.9085145188344,365.1992050598574 601.9085145188344,315.8422640891804 593.2847042152798,318.33174368927916 593.2847042152798,367.6886846599561" />
  <polygon fill="hsl(324.0,50.0%,46.67297271596994%)" points="571.7251784563936,325.04412527339406 571.7251784563936,276.17586688658525 579.2710124720038,273.99757223649885 579.2710124720038,322.86583062330766" />
  <polygon fill="hsl(324.0,50.0%,46.67297271596994%)" points="602.9864908067786,316.01976172303614 602.9864908067786,267.1515033362273 610.5323248223889,264.97320868614094 610.5323248223889,313.84146707294974" />
  <polygon fill="hsl(324.0,50.0%,46.67297271596994%)" points="579.2710124720038,281.543406252109 579.2710124720038,273.99757223649885 602.9864908067786,267.1515033362273 602.9864908067786,274.6973373518375" />
  <polygon fill="hsl(324.0,50.0%,46.67297271596994%)" points="580.348988759948,322.55464567329534 580.348988759948,273.6863872864865 601.9085145188344,267.46268828623965 601.9085145188344,316.3309466730485" />
  <polygon fill="hsl(324.0,50.0%,46.67297271596994%)" points="585.7388701996697,269.6870496170843 585.7388701996697,247.69633334302037 596.5186330791128,244.58448384289693 596.5186330791128,266.5752001169609" />
  <polygon fill="hsl(324.0,50.0%,46.67297271596994%)" points="587.8948227755583,271.5080926364001 587.8948227755583,247.0739634429957 594.3626805032242,245.20685374292165 594.3626805032242,269.64098293632605" />
  <polygon fill="hsl(324.0,50.0%,46.24652422154656%)" points="288.4001711608578,457.33576201760417 288.4001711608578,407.97882104692724 297.02398146441226,405.48934144682846 297.02398146441226,454.84628241750545" />
  <polygon fill="hsl(324.0,50.0%,46.24652422154656%)" points="309.95969691974403,451.1120630173573 309.95969691974403,401.7551220466804 301.33588661618955,404.24460164677913 301.33588661618955,453.60154261745606" />
  <polygon fill="hsl(324.0,50.0%,46.24652422154656%)" points="279.7763608573033,410.956983230894 279.7763608573033,362.0887248440852 287.3221948729134,359.9104301939988 287.3221948729134,408.7786885808076" />
  <polygon fill="hsl(324.0,50.0%,46.24652422154656%)" points="311.03767320768833,401.93261968053616 311.03767320768833,353.0643612937273 318.5835072232985,350.8860666436409 318.5835072232985,399.75432503044976" />
  <polygon fill="hsl(324.0,50.0%,46.24652422154656%)" points="287.3221948729134,367.456264209609 287.3221948729134,359.9104301939988 311.03767320768833,353.0643612937273 311.03767320768833,360.6101953093375" />
  <polygon fill="hsl(324.0,50.0%,46.24652422154656%)" points="288.4001711608578,408.4675036307953 288.4001711608578,359.59924524398645 309.95969691974403,353.3755462437396 309.95969691974403,402.2438046305485" />
  <polygon fill="hsl(324.0,50.0%,46.24652422154656%)" points="293.7900526005793,355.59990757458434 293.7900526005793,333.60919130052037 304.5698154800225,330.49734180039695 304.5698154800225,352.4880580744609" />
  <polygon fill="hsl(324.0,50.0%,46.24652422154656%)" points="295.94600517646796,357.4209505939001 295.94600517646796,332.98682140049567 302.4138629041338,331.11971170042165 302.4138629041338,355.553840893826" />
</svg>
