<?xml version="1.0" encoding="UTF-8"?>
<svg
  xmlns="http://www.w3.org/2000/svg"
  width="848"
  height="600"
  style="background-color:white"
>
  <polygon fill="lightblue" points="276.7622519942021,520.3803595246859 131.7782022604831,394.8204893117388 571.2377480057979,267.9594457947347 716.2217977395169,393.5193160076818" />
  <polygon fill="steelblue" points="131.7782022604831,394.8204893117388 131.7782022604831,206.48068399231818 571.2377480057979,79.61964047531404 571.2377480057979,267.9594457947347" />
  <polygon fill="lightskyblue" points="716.2217977395169,393.5193160076818 716.2217977395169,205.17951068826116 571.2377480057979,79.61964047531404 571.2377480057979,267.9594457947347" />
  <polygon fill="white" points="630.4395683137332,319.2297261316881 630.4395683137332,199.94784942938833 608.6919608536754,181.1138688974463 608.6919608536754,300.395745599746" />
  <polygon fill="white" points="678.7675848916394,361.0830162026705 678.7675848916394,241.8011395003707 657.0199774315817,222.96715896842866 657.0199774315817,342.2490356707284" />
  <polygon fill="white" points="262.569733732303,306.84027827507066 262.569733732303,256.6163301898918 293.9597012855398,247.5548270815344 293.9597012855398,297.7787751667132" />
  <polygon fill="white" points="409.0562489807413,264.55326376940263 409.0562489807413,214.3293156842238 440.4462165339781,205.26781257586634 440.4462165339781,255.49176066104516" />
  <polygon fill="hsl(360.0,50.0%,52.57800117743009%)" points="474.26386621511,398.93034120887745 474.26386621511,355.8130817777514 481.79745842788685,353.6383210317456 481.79745842788685,396.75558046287165" />
  <polygon fill="hsl(360.0,50.0%,52.57800117743009%)" points="493.09784674705213,393.493439343863 493.09784674705213,350.3761799127369 485.5642545342753,352.5509406587427 485.5642545342753,395.6682000898687" />
  <polygon fill="hsl(360.0,50.0%,52.57800117743009%)" points="466.7302740023332,358.4147460824812 466.7302740023332,315.72439021007915 473.32216718851294,313.8214745573241 473.32216718851294,356.5118304297261" />
  <polygon fill="hsl(360.0,50.0%,52.57800117743009%)" points="494.0395457736492,350.5312383782102 494.0395457736492,307.8408825058082 500.6314389598289,305.9379668530531 500.6314389598289,348.6283227254551" />
  <polygon fill="hsl(360.0,50.0%,52.57800117743009%)" points="473.32216718851294,320.41336774350384 473.32216718851294,313.8214745573241 494.0395457736492,307.8408825058082 494.0395457736492,314.4327756919879" />
  <polygon fill="hsl(360.0,50.0%,52.57800117743009%)" points="474.26386621511,356.2399853364754 474.26386621511,313.5496294640734 493.09784674705213,308.1127275990589 493.09784674705213,350.8030834714609" />
  <polygon fill="hsl(360.0,50.0%,52.57800117743009%)" points="478.97236134809555,310.0558862041997 478.97236134809555,290.8452260616188 488.3893516140666,288.12677512911154 488.3893516140666,307.3374352716924" />
  <polygon fill="hsl(360.0,50.0%,52.57800117743009%)" points="480.85575940128973,311.6467138113183 480.85575940128973,290.30153587511734 486.5059535608724,288.670465315613 486.5059535608724,310.01564325181397" />
</svg>
