<?xml version="1.0" encoding="UTF-8"?>
<svg
  xmlns="http://www.w3.org/2000/svg"
  width="848"
  height="600"
  style="background-color:white"
>
  <polygon fill="lightblue" points="290.22562802821767,528.7485229986884 158.49887682654776,414.66981010004986 557.7743719717823,299.4089027985886 689.5011231734522,413.4876156972271" />
  <polygon fill="steelblue" points="158.49887682654776,414.66981010004986 158.49887682654776,186.5123843027729 557.7743719717823,71.25147700131166 557.7743719717823,299.4089027985886" />
  <polygon fill="lightskyblue" points="689.5011231734522,413.4876156972271 689.5011231734522,185.33018989995017 557.7743719717823,71.25147700131166 557.7743719717823,299.4089027985886" />
  <polygon fill="white" points="611.5627953791309,345.991043898866 611.5627953791309,231.9123310002275 591.8037826988805,214.80052406543177 591.8037826988805,328.87923696407023" />
  <polygon fill="white" points="655.4717124463542,384.0172815317455 655.4717124463542,269.938568633107 635.7126997661037,252.82676169831123 635.7126997661037,366.9054745969497" />
  <polygon fill="grey" points="545.7205376473315,133.67178757826935 545.7205376473315,105.15210935360972 574.240215871991,96.91918740350533 574.240215871991,125.43886562816496" />
  <polygon fill="lightgrey" points="545.7205376473315,133.67178757826935 545.7205376473315,105.15210935360972 529.2546937471227,90.8922702412799 529.2546937471227,119.41194846593953" />
  <polygon fill="darkgrey" points="545.7205376473315,105.15210935360972 529.2546937471227,90.8922702412799 557.7743719717823,82.65934829117552 574.240215871991,96.91918740350533" />
  <polygon fill="hsl(324.0,50.0%,69.21014392802753%)" points="399.2304652625765,388.140726923882 399.2304652625765,348.9660969144896 406.07518803649486,346.9901956464645 406.07518803649486,386.164825655857" />
  <polygon fill="hsl(324.0,50.0%,69.21014392802753%)" points="416.34227219737227,383.2009737538194 416.34227219737227,344.0263437444269 409.49754942345396,346.002245012452 409.49754942345396,385.17687502184447" />
  <polygon fill="hsl(324.0,50.0%,69.21014392802753%)" points="392.3857424886582,351.32986580637 392.3857424886582,312.5431034208329 398.3748749158367,310.814189811311 398.37487491583676,349.6009521968481" />
  <polygon fill="hsl(324.0,50.0%,69.21014392802753%)" points="417.19786254411207,344.1672237097792 417.19786254411207,305.3804613242421 423.1869949712906,303.6515477147202 423.1869949712906,342.43831010025724" />
  <polygon fill="hsl(324.0,50.0%,69.21014392802753%)" points="398.3748749158367,316.8033222384895 398.3748749158367,310.814189811311 417.19786254411207,305.3804613242421 417.19786254411207,311.3695937514206" />
  <polygon fill="hsl(324.0,50.0%,69.21014392802753%)" points="399.2304652625765,349.35396453834494 399.2304652625765,310.56720215280785 416.34227219737227,305.62744898274525 416.34227219737227,344.4142113682823" />
  <polygon fill="hsl(324.0,50.0%,69.21014392802753%)" points="403.50841699627546,307.39292574101535 403.50841699627546,289.93888266752367 412.06432046367337,287.46900608249234 412.06432046367337,304.923049155984" />
  <polygon fill="hsl(324.0,50.0%,69.21014392802753%)" points="405.21959768975506,308.83828854328596 405.21959768975506,289.4449073505174 410.35313977019376,287.96298139949863 410.35313977019376,307.35636259226715" />
  <polygon fill="hsl(324.0,50.0%,68.65222276527638%)" points="477.6022851085592,367.21398269861754 477.6022851085592,328.0393526892251 484.4470078824775,326.06345142120006 484.4470078824775,365.2380814305925" />
  <polygon fill="hsl(324.0,50.0%,68.65222276527638%)" points="494.71409204335504,362.27422952855494 494.71409204335504,323.0995995191625 487.86936926943673,325.07550078718754 487.86936926943673,364.25013079658" />
  <polygon fill="hsl(324.0,50.0%,68.65222276527638%)" points="470.7575623346409,330.40312158110555 470.7575623346409,291.61635919556846 476.74669476181947,289.8874455860465 476.74669476181947,328.6742079715836" />
  <polygon fill="hsl(324.0,50.0%,68.65222276527638%)" points="495.5696823900948,323.2404794845147 495.5696823900948,284.4537170989777 501.55881481727334,282.7248034894557 501.55881481727334,321.5115658749928" />
  <polygon fill="hsl(324.0,50.0%,68.65222276527638%)" points="476.74669476181947,295.87657801322507 476.74669476181947,289.8874455860465 495.5696823900948,284.4537170989777 495.5696823900948,290.4428495261562" />
  <polygon fill="hsl(324.0,50.0%,68.65222276527638%)" points="477.6022851085592,328.42722031308045 477.6022851085592,289.6404579275434 494.71409204335504,284.70070475748076 494.71409204335504,323.48746714301785" />
  <polygon fill="hsl(324.0,50.0%,68.65222276527638%)" points="481.88023684225817,286.4661815157509 481.88023684225817,269.01213844225924 490.4361403096561,266.5422618572279 490.4361403096561,283.9963049307196" />
  <polygon fill="hsl(324.0,50.0%,68.65222276527638%)" points="483.5914175357378,287.91154431802147 483.5914175357378,268.51816312525295 488.7249596161765,267.0362371742342 488.7249596161765,286.4296183670027" />
  <polygon fill="hsl(324.0,50.0%,52.57800117743009%)" points="469.66775318741804,418.40385835794024 469.66775318741804,379.22922834854774 476.51247596133635,377.2533270805227 476.51247596133635,416.42795708991514" />
  <polygon fill="hsl(324.0,50.0%,52.57800117743009%)" points="486.77956012221387,413.4641051878776 486.77956012221387,374.28947517848513 479.93483734829556,376.2653764465102 479.93483734829556,415.4400064559026" />
  <polygon fill="hsl(324.0,50.0%,52.57800117743009%)" points="462.82303041349974,381.5929972404282 462.82303041349974,342.8062348548911 468.8121628406783,341.07732124536915 468.8121628406783,379.86408363090624" />
  <polygon fill="hsl(324.0,50.0%,52.57800117743009%)" points="487.6351504689536,374.43035514383735 487.6351504689536,335.6435927583003 493.6242828961322,333.91467914877836 493.6242828961322,372.70144153431545" />
  <polygon fill="hsl(324.0,50.0%,52.57800117743009%)" points="468.8121628406783,347.0664536725477 468.8121628406783,341.07732124536915 487.6351504689536,335.6435927583003 487.6351504689536,341.6327251854788" />
  <polygon fill="hsl(324.0,50.0%,52.57800117743009%)" points="469.66775318741804,379.61709597240315 469.66775318741804,340.83033358686606 486.77956012221387,335.8905804168034 486.77956012221387,374.6773428023405" />
  <polygon fill="hsl(324.0,50.0%,52.57800117743009%)" points="473.945704921117,337.65605717507356 473.945704921117,320.2020141015819 482.5016083885149,317.73213751655055 482.5016083885149,335.1861805900422" />
  <polygon fill="hsl(324.0,50.0%,52.57800117743009%)" points="475.65688561459655,339.1014199773441 475.65688561459655,319.7080387845756 480.7904276950353,318.22611283355684 480.7904276950353,337.61949402632536" />
  <polygon fill="hsl(324.0,50.0%,46.67297271596994%)" points="548.0942746158529,413.72775296913585 548.0942746158529,374.5531229597434 554.9389973897712,372.5772216917183 554.9389973897712,411.7518517011108" />
  <polygon fill="hsl(324.0,50.0%,46.67297271596994%)" points="565.2060815506487,408.7879997990732 565.2060815506487,369.61336978968075 558.3613587767304,371.5892710577058 558.3613587767304,410.76390106709823" />
  <polygon fill="hsl(324.0,50.0%,46.67297271596994%)" points="541.2495518419346,376.9168918516238 541.2495518419346,338.1301294660867 547.2386842691132,336.4012158565648 547.2386842691132,375.18797824210185" />
  <polygon fill="hsl(324.0,50.0%,46.67297271596994%)" points="566.0616718973885,369.75424975503296 566.0616718973885,330.96748736949587 572.050804324567,329.238573759974 572.050804324567,368.02533614551106" />
  <polygon fill="hsl(324.0,50.0%,46.67297271596994%)" points="547.2386842691132,342.3903482837433 547.2386842691132,336.4012158565648 566.0616718973885,330.96748736949587 566.0616718973885,336.95661979667443" />
  <polygon fill="hsl(324.0,50.0%,46.67297271596994%)" points="548.0942746158529,374.9409905835987 548.0942746158529,336.1542281980617 565.2060815506487,331.214475027999 565.2060815506487,370.0012374135361" />
  <polygon fill="hsl(324.0,50.0%,46.67297271596994%)" points="552.3722263495519,332.97995178626917 552.3722263495519,315.5259087127775 560.9281298169498,313.05603212774616 560.9281298169498,330.51007520123784" />
  <polygon fill="hsl(324.0,50.0%,46.67297271596994%)" points="554.0834070430315,334.4253145885397 554.0834070430315,315.0319333957712 559.2169491234702,313.5500074447524 559.2169491234702,332.94338863752097" />
  <polygon fill="hsl(324.0,50.0%,46.24652422154656%)" points="316.3743445270189,481.9168335188008 316.3743445270189,442.74220350940834 323.2190673009372,440.7663022413833 323.2190673009372,479.94093225077575" />
  <polygon fill="hsl(324.0,50.0%,46.24652422154656%)" points="333.48615146181464,476.97708034873824 333.48615146181464,437.80245033934574 326.6414286878964,439.77835160737084 326.6414286878964,478.9529816167633" />
  <polygon fill="hsl(324.0,50.0%,46.24652422154656%)" points="309.5296217531006,445.1059724012888 309.5296217531006,406.3192100157517 315.51875418027913,404.5902964062298 315.51875418027913,443.37705879176684" />
  <polygon fill="hsl(324.0,50.0%,46.24652422154656%)" points="334.34174180855445,437.94333030469795 334.34174180855445,399.1565679191609 340.33087423573295,397.42765430963897 340.33087423573295,436.21441669517606" />
  <polygon fill="hsl(324.0,50.0%,46.24652422154656%)" points="315.51875418027913,410.5794288334083 315.51875418027913,404.5902964062298 334.34174180855445,399.1565679191609 334.34174180855445,405.1457003463394" />
  <polygon fill="hsl(324.0,50.0%,46.24652422154656%)" points="316.3743445270189,443.13007113326375 316.3743445270189,404.34330874772667 333.48615146181464,399.40355557766406 333.48615146181464,438.1903179632011" />
  <polygon fill="hsl(324.0,50.0%,46.24652422154656%)" points="320.65229626071783,401.16903233593416 320.65229626071783,383.7149892624425 329.20819972811574,381.24511267741116 329.20819972811574,398.69915575090283" />
  <polygon fill="hsl(324.0,50.0%,46.24652422154656%)" points="322.36347695419744,402.6143951382047 322.36347695419744,383.2210139454362 327.49701903463614,381.73908799441745 327.49701903463614,401.13246918718596" />
</svg>
