<?xml version="1.0" encoding="UTF-8"?>
<svg
  xmlns="http://www.w3.org/2000/svg"
  width="848"
  height="600"
  style="background-color:white"
>
  <polygon fill="lightblue" points="290.22562802821767,528.7485229986884 158.49887682654776,414.66981010004986 557.7743719717823,299.4089027985886 689.5011231734522,413.4876156972271" />
  <polygon fill="steelblue" points="158.49887682654776,414.66981010004986 158.49887682654776,186.5123843027729 557.7743719717823,71.25147700131166 557.7743719717823,299.4089027985886" />
  <polygon fill="lightskyblue" points="689.5011231734522,413.4876156972271 689.5011231734522,185.33018989995017 557.7743719717823,71.25147700131166 557.7743719717823,299.4089027985886" />
  <polygon fill="white" points="244.0579115005266,344.33955909028134 244.0579115005266,298.70807393082595 272.57758972518616,290.4751519807216 272.57758972518616,336.106637140177" />
  <polygon fill="white" points="343.87678528683523,315.52433226491604 343.87678528683523,269.89284710546065 372.39646351149486,261.6599251553563 372.39646351149486,307.2914103148116" />
  <polygon fill="white" points="443.69565907314393,286.70910543955074 443.69565907314393,241.07762028009535 472.2153372978035,232.84469832999096 472.2153372978035,278.4761834894463" />
  <polygon fill="hsl(288.0,50.0%,52.57800117743009%)" points="469.66775318741804,418.40385835794024 469.66775318741804,379.22922834854774 476.51247596133635,377.2533270805227 476.51247596133635,416.42795708991514" />
  <polygon fill="hsl(288.0,50.0%,52.57800117743009%)" points="486.77956012221387,413.4641051878776 486.77956012221387,374.28947517848513 479.93483734829556,376.2653764465102 479.93483734829556,415.4400064559026" />
  <polygon fill="hsl(288.0,50.0%,52.57800117743009%)" points="462.82303041349974,381.5929972404282 462.82303041349974,342.8062348548911 468.8121628406783,341.07732124536915 468.8121628406783,379.86408363090624" />
  <polygon fill="hsl(288.0,50.0%,52.57800117743009%)" points="487.6351504689536,374.43035514383735 487.6351504689536,335.6435927583003 493.6242828961322,333.91467914877836 493.6242828961322,372.70144153431545" />
  <polygon fill="hsl(288.0,50.0%,52.57800117743009%)" points="468.8121628406783,347.0664536725477 468.8121628406783,341.07732124536915 487.6351504689536,335.6435927583003 487.6351504689536,341.6327251854788" />
  <polygon fill="hsl(288.0,50.0%,52.57800117743009%)" points="469.66775318741804,379.61709597240315 469.66775318741804,340.83033358686606 486.77956012221387,335.8905804168034 486.77956012221387,374.6773428023405" />
  <polygon fill="hsl(288.0,50.0%,52.57800117743009%)" points="473.945704921117,337.65605717507356 473.945704921117,320.2020141015819 482.5016083885149,317.73213751655055 482.5016083885149,335.1861805900422" />
  <polygon fill="hsl(288.0,50.0%,52.57800117743009%)" points="475.65688561459655,339.1014199773441 475.65688561459655,319.7080387845756 480.7904276950353,318.22611283355684 480.7904276950353,337.61949402632536" />
  <polygon fill="hsl(288.0,50.0%,46.24652422154656%)" points="316.3743445270189,481.9168335188008 316.3743445270189,442.74220350940834 323.2190673009372,440.7663022413833 323.2190673009372,479.94093225077575" />
  <polygon fill="hsl(288.0,50.0%,46.24652422154656%)" points="333.48615146181464,476.97708034873824 333.48615146181464,437.80245033934574 326.6414286878964,439.77835160737084 326.6414286878964,478.9529816167633" />
  <polygon fill="hsl(288.0,50.0%,46.24652422154656%)" points="309.5296217531006,445.1059724012888 309.5296217531006,406.3192100157517 315.51875418027913,404.5902964062298 315.51875418027913,443.37705879176684" />
  <polygon fill="hsl(288.0,50.0%,46.24652422154656%)" points="334.34174180855445,437.94333030469795 334.34174180855445,399.1565679191609 340.33087423573295,397.42765430963897 340.33087423573295,436.21441669517606" />
  <polygon fill="hsl(288.0,50.0%,46.24652422154656%)" points="315.51875418027913,410.5794288334083 315.51875418027913,404.5902964062298 334.34174180855445,399.1565679191609 334.34174180855445,405.1457003463394" />
  <polygon fill="hsl(288.0,50.0%,46.24652422154656%)" points="316.3743445270189,443.13007113326375 316.3743445270189,404.34330874772667 333.48615146181464,399.40355557766406 333.48615146181464,438.1903179632011" />
  <polygon fill="hsl(288.0,50.0%,46.24652422154656%)" points="320.65229626071783,401.16903233593416 320.65229626071783,383.7149892624425 329.20819972811574,381.24511267741116 329.20819972811574,398.69915575090283" />
  <polygon fill="hsl(288.0,50.0%,46.24652422154656%)" points="322.36347695419744,402.6143951382047 322.36347695419744,383.2210139454362 327.49701903463614,381.73908799441745 327.49701903463614,401.13246918718596" />
</svg>
