<?xml version="1.0" encoding="UTF-8"?>
<svg
  xmlns="http://www.w3.org/2000/svg"
  width="848"
  height="600"
  style="background-color:white"
>
  <polygon fill="lightblue" points="290.22562802821767,528.7485229986884 158.49887682654776,414.66981010004986 557.7743719717823,299.4089027985886 689.5011231734522,413.4876156972271" />
  <polygon fill="steelblue" points="158.49887682654776,414.66981010004986 158.49887682654776,186.5123843027729 557.7743719717823,71.25147700131166 557.7743719717823,299.4089027985886" />
  <polygon fill="lightskyblue" points="689.5011231734522,413.4876156972271 689.5011231734522,185.33018989995017 557.7743719717823,71.25147700131166 557.7743719717823,299.4089027985886" />
  <polygon fill="white" points="633.5172539127426,365.0041627153057 633.5172539127426,250.92544981666725 613.7582412324921,233.8136428818715 613.7582412324921,347.89235578050994" />
  <polygon fill="white" points="343.87678528683523,315.52433226491604 343.87678528683523,269.89284710546065 372.39646351149486,261.6599251553563 372.39646351149486,307.2914103148116" />
  <polygon fill="grey" points="545.7205376473315,133.67178757826935 545.7205376473315,105.15210935360972 574.240215871991,96.91918740350533 574.240215871991,125.43886562816496" />
  <polygon fill="lightgrey" points="545.7205376473315,133.67178757826935 545.7205376473315,105.15210935360972 529.2546937471227,90.8922702412799 529.2546937471227,119.41194846593953" />
  <polygon fill="darkgrey" points="545.7205376473315,105.15210935360972 529.2546937471227,90.8922702412799 557.7743719717823,82.65934829117552 574.240215871991,96.91918740350533" />
  <polygon fill="hsl(288.0,50.0%,52.57800117743009%)" points="469.66775318741804,418.40385835794024 469.66775318741804,379.22922834854774 476.51247596133635,377.2533270805227 476.51247596133635,416.42795708991514" />
  <polygon fill="hsl(288.0,50.0%,52.57800117743009%)" points="486.77956012221387,413.4641051878776 486.77956012221387,374.28947517848513 479.93483734829556,376.2653764465102 479.93483734829556,415.4400064559026" />
  <polygon fill="hsl(288.0,50.0%,52.57800117743009%)" points="462.82303041349974,381.5929972404282 462.82303041349974,342.8062348548911 468.8121628406783,341.07732124536915 468.8121628406783,379.86408363090624" />
  <polygon fill="hsl(288.0,50.0%,52.57800117743009%)" points="487.6351504689536,374.43035514383735 487.6351504689536,335.6435927583003 493.6242828961322,333.91467914877836 493.6242828961322,372.70144153431545" />
  <polygon fill="hsl(288.0,50.0%,52.57800117743009%)" points="468.8121628406783,347.0664536725477 468.8121628406783,341.07732124536915 487.6351504689536,335.6435927583003 487.6351504689536,341.6327251854788" />
  <polygon fill="hsl(288.0,50.0%,52.57800117743009%)" points="469.66775318741804,379.61709597240315 469.66775318741804,340.83033358686606 486.77956012221387,335.8905804168034 486.77956012221387,374.6773428023405" />
  <polygon fill="hsl(288.0,50.0%,52.57800117743009%)" points="473.945704921117,337.65605717507356 473.945704921117,320.2020141015819 482.5016083885149,317.73213751655055 482.5016083885149,335.1861805900422" />
  <polygon fill="hsl(288.0,50.0%,52.57800117743009%)" points="475.65688561459655,339.1014199773441 475.65688561459655,319.7080387845756 480.7904276950353,318.22611283355684 480.7904276950353,337.61949402632536" />
</svg>
