<?xml version="1.0" encoding="UTF-8"?>
<svg
  xmlns="http://www.w3.org/2000/svg"
  width="848"
  height="600"
  style="background-color:white"
>
  <polygon fill="lightblue" points="255.4548528162847,516.3399933954547 89.48954614303602,372.6098216695463 592.5451471837152,227.39017833045367 758.510453856964,371.12035005636204" />
  <polygon fill="steelblue" points="89.48954614303602,372.6098216695463 89.48954614303602,228.87964994363796 592.5451471837152,83.66000660454529 592.5451471837152,227.39017833045367" />
  <polygon fill="lightskyblue" points="758.510453856964,371.12035005636204 758.510453856964,227.3901783304537 592.5451471837152,83.66000660454529 592.5451471837152,227.39017833045367" />
  <polygon fill="white" points="687.9751985208334,310.035027072851 687.9751985208334,173.49136393323806 663.0804025198461,151.93183817435178 663.0804025198461,288.47550131396474" />
  <polygon fill="grey" points="577.3582675863943,162.3046698414298 577.3582675863943,126.37212690995273 613.2908105178714,115.99929524287467 613.2908105178714,151.93183817435178" />
  <polygon fill="lightgrey" points="577.3582675863943,162.3046698414298 577.3582675863943,126.37212690995273 556.6126042522383,108.40585544421418 556.6126042522383,144.33839837569127" />
  <polygon fill="darkgrey" points="577.3582675863943,126.37212690995273 556.6126042522383,108.40585544421418 592.5451471837152,98.03302377713612 613.2908105178714,115.99929524287467" />
  <polygon fill="hsl(324.0,50.0%,52.57800117743009%)" points="481.53776354223163,377.3144276709857 481.53776354223163,327.9574867003088 490.16157384578617,325.46800710021 490.16157384578617,374.82494807088693" />
  <polygon fill="hsl(324.0,50.0%,52.57800117743009%)" points="503.09728930111794,371.0907286707388 503.09728930111794,321.7337877000619 494.47347899756346,324.2232673001606 494.47347899756346,373.5802082708376" />
  <polygon fill="hsl(324.0,50.0%,52.57800117743009%)" points="472.91395323867715,330.93564888427557 472.91395323867715,282.0673904974667 480.45978725428733,279.8890958473803 480.45978725428733,328.75735423418917" />
  <polygon fill="hsl(324.0,50.0%,52.57800117743009%)" points="504.17526558906223,321.91128533391765 504.17526558906223,273.04302694710884 511.7210996046725,270.86473229702244 511.7210996046725,319.73299068383125" />
  <polygon fill="hsl(324.0,50.0%,52.57800117743009%)" points="480.45978725428733,287.4349298629905 480.45978725428733,279.8890958473803 504.17526558906223,273.04302694710884 504.17526558906223,280.588860962719" />
  <polygon fill="hsl(324.0,50.0%,52.57800117743009%)" points="481.53776354223163,328.44616928417685 481.53776354223163,279.577910897368 503.09728930111794,273.35421189712116 503.09728930111794,322.22247028392997" />
  <polygon fill="hsl(324.0,50.0%,52.57800117743009%)" points="486.9276449819532,275.5785732279658 486.9276449819532,253.58785695390185 497.7074078613964,250.47600745377844 497.7074078613964,272.4667237278424" />
  <polygon fill="hsl(324.0,50.0%,52.57800117743009%)" points="489.08359755784187,277.3996162472816 489.08359755784187,252.96548705387718 495.55145528550776,251.09837735380313 495.55145528550776,275.53250654720756" />
  <polygon fill="hsl(324.0,50.0%,46.24652422154656%)" points="288.4001711608578,457.33576201760417 288.4001711608578,407.97882104692724 297.02398146441226,405.48934144682846 297.02398146441226,454.84628241750545" />
  <polygon fill="hsl(324.0,50.0%,46.24652422154656%)" points="309.95969691974403,451.1120630173573 309.95969691974403,401.7551220466804 301.33588661618955,404.24460164677913 301.33588661618955,453.60154261745606" />
  <polygon fill="hsl(324.0,50.0%,46.24652422154656%)" points="279.7763608573033,410.956983230894 279.7763608573033,362.0887248440852 287.3221948729134,359.9104301939988 287.3221948729134,408.7786885808076" />
  <polygon fill="hsl(324.0,50.0%,46.24652422154656%)" points="311.03767320768833,401.93261968053616 311.03767320768833,353.0643612937273 318.5835072232985,350.8860666436409 318.5835072232985,399.75432503044976" />
  <polygon fill="hsl(324.0,50.0%,46.24652422154656%)" points="287.3221948729134,367.456264209609 287.3221948729134,359.9104301939988 311.03767320768833,353.0643612937273 311.03767320768833,360.6101953093375" />
  <polygon fill="hsl(324.0,50.0%,46.24652422154656%)" points="288.4001711608578,408.4675036307953 288.4001711608578,359.59924524398645 309.95969691974403,353.3755462437396 309.95969691974403,402.2438046305485" />
  <polygon fill="hsl(324.0,50.0%,46.24652422154656%)" points="293.7900526005793,355.59990757458434 293.7900526005793,333.60919130052037 304.5698154800225,330.49734180039695 304.5698154800225,352.4880580744609" />
  <polygon fill="hsl(324.0,50.0%,46.24652422154656%)" points="295.94600517646796,357.4209505939001 295.94600517646796,332.98682140049567 302.4138629041338,331.11971170042165 302.4138629041338,355.553840893826" />
</svg>
