<?xml version="1.0" encoding="UTF-8"?>
<svg
  xmlns="http://www.w3.org/2000/svg"
  width="848"
  height="600"
  style="background-color:white"
>
  <polygon fill="lightblue" points="255.4548528162847,516.3399933954547 89.48954614303602,372.6098216695463 592.5451471837152,227.39017833045367 758.510453856964,371.12035005636204" />
  <polygon fill="steelblue" points="89.48954614303602,372.6098216695463 89.48954614303602,228.87964994363796 592.5451471837152,83.66000660454529 592.5451471837152,227.39017833045367" />
  <polygon fill="lightskyblue" points="758.510453856964,371.12035005636204 758.510453856964,227.3901783304537 592.5451471837152,83.66000660454529 592.5451471837152,227.39017833045367" />
  <polygon fill="white" points="687.9751985208334,310.035027072851 687.9751985208334,166.30485534694262 663.0804025198461,144.74532958805636 663.0804025198461,288.47550131396474" />
  <polygon fill="white" points="239.2084750241906,271.89762103302445 239.2084750241906,214.4055523426611 275.1410179556677,204.03272067558305 275.1410179556677,261.5247893659464" />
  <polygon fill="white" points="406.8936753710837,223.49107325332687 406.8936753710837,165.99900456296353 442.8262183025608,155.62617289588547 442.8262183025608,213.11824158624884" />
  <polygon fill="hsl(288.0,50.0%,52.57800117743009%)" points="481.53776354223163,377.3144276709857 481.53776354223163,327.9574867003088 490.16157384578617,325.46800710021 490.16157384578617,374.82494807088693" />
  <polygon fill="hsl(288.0,50.0%,52.57800117743009%)" points="503.09728930111794,371.0907286707388 503.09728930111794,321.7337877000619 494.47347899756346,324.2232673001606 494.47347899756346,373.5802082708376" />
  <polygon fill="hsl(288.0,50.0%,52.57800117743009%)" points="472.91395323867715,330.93564888427557 472.91395323867715,282.0673904974667 480.45978725428733,279.8890958473803 480.45978725428733,328.75735423418917" />
  <polygon fill="hsl(288.0,50.0%,52.57800117743009%)" points="504.17526558906223,321.91128533391765 504.17526558906223,273.04302694710884 511.7210996046725,270.86473229702244 511.7210996046725,319.73299068383125" />
  <polygon fill="hsl(288.0,50.0%,52.57800117743009%)" points="480.45978725428733,287.4349298629905 480.45978725428733,279.8890958473803 504.17526558906223,273.04302694710884 504.17526558906223,280.588860962719" />
  <polygon fill="hsl(288.0,50.0%,52.57800117743009%)" points="481.53776354223163,328.44616928417685 481.53776354223163,279.577910897368 503.09728930111794,273.35421189712116 503.09728930111794,322.22247028392997" />
  <polygon fill="hsl(288.0,50.0%,52.57800117743009%)" points="486.9276449819532,275.5785732279658 486.9276449819532,253.58785695390185 497.7074078613964,250.47600745377844 497.7074078613964,272.4667237278424" />
  <polygon fill="hsl(288.0,50.0%,52.57800117743009%)" points="489.08359755784187,277.3996162472816 489.08359755784187,252.96548705387718 495.55145528550776,251.09837735380313 495.55145528550776,275.53250654720756" />
</svg>
