<?xml version="1.0" encoding="UTF-8"?>
<svg
  xmlns="http://www.w3.org/2000/svg"
  width="848"
  height="600"
  style="background-color:white"
>
  <polygon fill="lightblue" points="255.4548528162847,516.3399933954547 89.48954614303602,372.6098216695463 592.5451471837152,227.39017833045367 758.510453856964,371.12035005636204" />
  <polygon fill="steelblue" points="89.48954614303602,372.6098216695463 89.48954614303602,228.87964994363796 592.5451471837152,83.66000660454529 592.5451471837152,227.39017833045367" />
  <polygon fill="lightskyblue" points="758.510453856964,371.12035005636204 758.510453856964,227.3901783304537 592.5451471837152,83.66000660454529 592.5451471837152,227.39017833045367" />
  <polygon fill="white" points="660.3143140752918,286.07999845186623 660.3143140752918,149.5363353122533 635.4195180743045,127.97680955336708 635.4195180743045,264.52047269298" />
  <polygon fill="white" points="715.6360829663747,333.9900556938357 715.6360829663747,197.44639255422277 690.7412869653874,175.88686679533652 690.7412869653874,312.43052993494945" />
  <polygon fill="white" points="197.28717493746728,283.99925797794884 197.28717493746728,226.50718928758548 233.21971786894437,216.13435762050744 233.21971786894437,273.6264263108708" />
  <polygon fill="white" points="323.05107519763715,247.69434714317566 323.05107519763715,190.20227845281232 358.98361812911423,179.82944678573426 358.98361812911423,237.3215154760976" />
  <polygon fill="white" points="448.81497545780695,211.3894363084025 448.81497545780695,153.89736761803914 484.74751838928404,143.52453595096108 484.74751838928404,201.01660464132448" />
  <polygon fill="grey" points="577.3582675863943,162.3046698414298 577.3582675863943,126.37212690995273 613.2908105178714,115.99929524287467 613.2908105178714,151.93183817435178" />
  <polygon fill="lightgrey" points="577.3582675863943,162.3046698414298 577.3582675863943,126.37212690995273 556.6126042522383,108.40585544421418 556.6126042522383,144.33839837569127" />
  <polygon fill="darkgrey" points="577.3582675863943,126.37212690995273 556.6126042522383,108.40585544421418 592.5451471837152,98.03302377713612 613.2908105178714,115.99929524287467" />
  <polygon fill="hsl(288.0,50.0%,52.57800117743009%)" points="481.53776354223163,377.3144276709857 481.53776354223163,327.9574867003088 490.16157384578617,325.46800710021 490.16157384578617,374.82494807088693" />
  <polygon fill="hsl(288.0,50.0%,52.57800117743009%)" points="503.09728930111794,371.0907286707388 503.09728930111794,321.7337877000619 494.47347899756346,324.2232673001606 494.47347899756346,373.5802082708376" />
  <polygon fill="hsl(288.0,50.0%,52.57800117743009%)" points="472.91395323867715,330.93564888427557 472.91395323867715,282.0673904974667 480.45978725428733,279.8890958473803 480.45978725428733,328.75735423418917" />
  <polygon fill="hsl(288.0,50.0%,52.57800117743009%)" points="504.17526558906223,321.91128533391765 504.17526558906223,273.04302694710884 511.7210996046725,270.86473229702244 511.7210996046725,319.73299068383125" />
  <polygon fill="hsl(288.0,50.0%,52.57800117743009%)" points="480.45978725428733,287.4349298629905 480.45978725428733,279.8890958473803 504.17526558906223,273.04302694710884 504.17526558906223,280.588860962719" />
  <polygon fill="hsl(288.0,50.0%,52.57800117743009%)" points="481.53776354223163,328.44616928417685 481.53776354223163,279.577910897368 503.09728930111794,273.35421189712116 503.09728930111794,322.22247028392997" />
  <polygon fill="hsl(288.0,50.0%,52.57800117743009%)" points="486.9276449819532,275.5785732279658 486.9276449819532,253.58785695390185 497.7074078613964,250.47600745377844 497.7074078613964,272.4667237278424" />
  <polygon fill="hsl(288.0,50.0%,52.57800117743009%)" points="489.08359755784187,277.3996162472816 489.08359755784187,252.96548705387718 495.55145528550776,251.09837735380313 495.55145528550776,275.53250654720756" />
</svg>
