<?xml version="1.0" encoding="UTF-8"?>
<svg
  xmlns="http://www.w3.org/2000/svg"
  width="848"
  height="600"
  style="background-color:white"
>
  <polygon fill="lightblue" points="276.7622519942021,520.3803595246859 131.7782022604831,394.8204893117388 571.2377480057979,267.9594457947347 716.2217977395169,393.5193160076818" />
  <polygon fill="steelblue" points="131.7782022604831,394.8204893117388 131.7782022604831,206.48068399231818 571.2377480057979,79.61964047531404 571.2377480057979,267.9594457947347" />
  <polygon fill="lightskyblue" points="716.2217977395169,393.5193160076818 716.2217977395169,205.17951068826116 571.2377480057979,79.61964047531404 571.2377480057979,267.9594457947347" />
  <polygon fill="white" points="630.4395683137332,319.2297261316881 630.4395683137332,193.669855918741 608.6919608536754,174.83587538679893 608.6919608536754,300.395745599746" />
  <polygon fill="white" points="678.7675848916394,361.0830162026705 678.7675848916394,235.5231459897234 657.0199774315817,216.68916545778131 657.0199774315817,342.2490356707284" />
  <polygon fill="white" points="335.81299135652216,285.69677102223665 335.81299135652216,235.4728229370578 367.2029589097589,226.41131982870036 367.20295890975893,276.6352679138792" />
  <polygon fill="hsl(288.0,50.0%,52.57800117743009%)" points="474.26386621511,398.93034120887745 474.26386621511,355.8130817777514 481.79745842788685,353.6383210317456 481.79745842788685,396.75558046287165" />
  <polygon fill="hsl(288.0,50.0%,52.57800117743009%)" points="493.09784674705213,393.493439343863 493.09784674705213,350.3761799127369 485.5642545342753,352.5509406587427 485.5642545342753,395.6682000898687" />
  <polygon fill="hsl(288.0,50.0%,52.57800117743009%)" points="466.7302740023332,358.4147460824812 466.7302740023332,315.72439021007915 473.32216718851294,313.8214745573241 473.32216718851294,356.5118304297261" />
  <polygon fill="hsl(288.0,50.0%,52.57800117743009%)" points="494.0395457736492,350.5312383782102 494.0395457736492,307.8408825058082 500.6314389598289,305.9379668530531 500.6314389598289,348.6283227254551" />
  <polygon fill="hsl(288.0,50.0%,52.57800117743009%)" points="473.32216718851294,320.41336774350384 473.32216718851294,313.8214745573241 494.0395457736492,307.8408825058082 494.0395457736492,314.4327756919879" />
  <polygon fill="hsl(288.0,50.0%,52.57800117743009%)" points="474.26386621511,356.2399853364754 474.26386621511,313.5496294640734 493.09784674705213,308.1127275990589 493.09784674705213,350.8030834714609" />
  <polygon fill="hsl(288.0,50.0%,52.57800117743009%)" points="478.97236134809555,310.0558862041997 478.97236134809555,290.8452260616188 488.3893516140666,288.12677512911154 488.3893516140666,307.3374352716924" />
  <polygon fill="hsl(288.0,50.0%,52.57800117743009%)" points="480.85575940128973,311.6467138113183 480.85575940128973,290.30153587511734 486.5059535608724,288.670465315613 486.5059535608724,310.01564325181397" />
  <polygon fill="hsl(288.0,50.0%,46.24652422154656%)" points="305.5426385045395,468.83541565621516 305.5426385045395,425.7181562250891 313.0762307173163,423.5433954790833 313.0762307173163,466.66065491020936" />
  <polygon fill="hsl(288.0,50.0%,46.24652422154656%)" points="324.3766190364816,463.3985137912007 324.3766190364816,420.2812543600746 316.8430268237048,422.45601510608043 316.8430268237048,465.5732745372065" />
  <polygon fill="hsl(288.0,50.0%,46.24652422154656%)" points="298.00904629176273,428.3198205298189 298.00904629176273,385.6294646574169 304.60093947794246,383.7265490046618 304.60093947794246,426.41690487706387" />
  <polygon fill="hsl(288.0,50.0%,46.24652422154656%)" points="325.3183180630787,420.43631282554793 325.3183180630787,377.74595695314594 331.9102112492584,375.8430413003909 331.9102112492584,418.5333971727929" />
  <polygon fill="hsl(288.0,50.0%,46.24652422154656%)" points="304.60093947794246,390.31844219084155 304.60093947794246,383.7265490046618 325.3183180630787,377.74595695314594 325.3183180630787,384.33785013932567" />
  <polygon fill="hsl(288.0,50.0%,46.24652422154656%)" points="305.5426385045395,426.1450597838131 305.5426385045395,383.4547039114111 324.3766190364816,378.0178020463967 324.3766190364816,420.7081579187987" />
  <polygon fill="hsl(288.0,50.0%,46.24652422154656%)" points="310.2511336375251,379.96096065153745 310.2511336375251,360.7503005089565 319.6681239034961,358.0318495764493 319.6681239034961,377.2425097190302" />
  <polygon fill="hsl(288.0,50.0%,46.24652422154656%)" points="312.13453169071926,381.5517882586561 312.13453169071926,360.20661032245505 317.78472585030187,358.5755397629507 317.78472585030187,379.92071769915174" />
</svg>
