<?xml version="1.0" encoding="UTF-8"?>
<svg
  xmlns="http://www.w3.org/2000/svg"
  width="848"
  height="600"
  style="background-color:white"
>
  <polygon fill="lightblue" points="286.7951132300307,517.5106685250466 94.20943467461285,350.7265784909907 561.2048867699693,215.91660350219811 753.7905653253872,382.700693536254" />
  <polygon fill="steelblue" points="94.20943467461285,350.7265784909907 94.20943467461285,217.299306463746 561.2048867699693,82.48933147495342 561.2048867699693,215.91660350219811" />
  <polygon fill="lightskyblue" points="753.7905653253872,382.700693536254 753.7905653253872,249.27342150900932 561.2048867699693,82.48933147495342 561.2048867699693,215.91660350219811" />
  <polygon fill="white" points="636.9552536684337,281.5183455822601 636.9552536684337,148.0910735550154 613.8449722417836,128.07698275092872 613.8449722417836,261.5042547781734" />
  <polygon fill="white" points="701.150479853573,337.11304226027875 701.150479853573,203.68577023303405 678.0401984269228,183.67167942894733 678.0401984269228,317.098951456192" />
  <polygon fill="white" points="233.19617636965944,257.2336533143807 233.19617636965944,203.86274450348284 266.55299437647056,194.23346057571194 266.55299437647056,247.60436938660985" />
  <polygon fill="white" points="388.86132706811156,212.29699498478323 388.86132706811156,158.92608617388532 422.21814507492275,149.29680224611442 422.21814507492275,202.6677110570123" />
  <polygon fill="grey" points="547.1066366186999,155.49656961566555 547.1066366186999,122.13975160885437 580.4634546255111,112.51046768108347 580.4634546255111,145.86728568789465" />
  <polygon fill="lightgrey" points="547.1066366186999,155.49656961566555 547.1066366186999,122.13975160885437 527.8480687631582,105.4613426054488 527.8480687631582,138.81816061225993" />
  <polygon fill="darkgrey" points="547.1066366186999,122.13975160885437 527.8480687631582,105.4613426054488 561.2048867699693,95.83205867767788 580.4634546255111,112.51046768108347" />
  <polygon fill="hsl(288.0,50.0%,51.426934746249444%)" points="486.2804845421865,379.4515395226905 486.2804845421865,333.6326143085347 494.2861208638212,331.32158616586963 494.2861208638212,377.1405113800255" />
  <polygon fill="hsl(288.0,50.0%,51.426934746249444%)" points="506.2945753462733,373.673969166028 506.2945753462733,327.8550439518721 498.2889390246386,330.1660720945371 498.2889390246386,375.984997308693" />
  <polygon fill="hsl(288.0,50.0%,51.426934746249444%)" points="478.27484822055186,336.3972951760923 478.27484822055186,291.0320226868291 485.2797800019822,289.0098730619972 485.2797800019822,334.3751455512604" />
  <polygon fill="hsl(288.0,50.0%,51.426934746249444%)" points="507.2952798864776,328.0198181589316 507.2952798864776,282.65454566966844 514.3002116679079,280.6323960448365 514.3002116679079,325.9976685340997" />
  <polygon fill="hsl(288.0,50.0%,51.426934746249444%)" points="485.2797800019822,296.01480484342756 485.2797800019822,289.0098730619972 507.2952798864776,282.65454566966844 507.2952798864776,289.6594774510988" />
  <polygon fill="hsl(288.0,50.0%,51.426934746249444%)" points="486.2804845421865,334.0862670334273 486.2804845421865,288.7209945441641 506.2945753462733,282.94342418750153 506.2945753462733,328.3086966767648" />
  <polygon fill="hsl(288.0,50.0%,51.426934746249444%)" points="491.2840072432082,285.0083383305353 491.2840072432082,264.5939657103669 501.29105264525157,261.7051805320356 501.29105264525157,282.11955315220405" />
  <polygon fill="hsl(288.0,50.0%,51.426934746249444%)" points="493.2854163236169,286.6988449193322 493.2854163236169,264.01620867470064 499.2896435648429,262.2829375677019 499.2896435648429,284.96557381233345" />
  <polygon fill="hsl(288.0,50.0%,43.8291623991892%)" points="316.74224039899275,462.18468289477136 316.74224039899275,416.36575768061556 324.74787672062746,414.0547295379505 324.74787672062746,459.8736547521064" />
  <polygon fill="hsl(288.0,50.0%,43.8291623991892%)" points="336.75633120307947,456.4071125381088 336.75633120307947,410.588187323953 328.7506948814448,412.899215466618 328.7506948814448,458.71814068077384" />
  <polygon fill="hsl(288.0,50.0%,43.8291623991892%)" points="308.73660407735815,419.1304385481732 308.73660407735815,373.76516605891 315.74153585878844,371.7430164340781 315.74153585878844,417.1082889233413" />
  <polygon fill="hsl(288.0,50.0%,43.8291623991892%)" points="337.75703574328384,410.7529615310125 337.75703574328384,365.3876890417493 344.7619675247141,363.36553941691744 344.7619675247141,408.73081190618063" />
  <polygon fill="hsl(288.0,50.0%,43.8291623991892%)" points="315.74153585878844,378.7479482155085 315.74153585878844,371.7430164340781 337.75703574328384,365.3876890417493 337.75703574328384,372.39262082317964" />
  <polygon fill="hsl(288.0,50.0%,43.8291623991892%)" points="316.74224039899275,416.81941040550817 316.74224039899275,371.454137916245 336.75633120307947,365.67656755958245 336.75633120307947,411.04184004884564" />
  <polygon fill="hsl(288.0,50.0%,43.8291623991892%)" points="321.74576310001447,367.74148170261617 321.74576310001447,347.32710908244775 331.7528085020578,344.4383239041165 331.7528085020578,364.8526965242849" />
  <polygon fill="hsl(288.0,50.0%,43.8291623991892%)" points="323.74717218042315,369.43198829141306 323.74717218042315,346.7493520467815 329.7513994216491,345.01608093978274 329.7513994216491,367.6987171844143" />
</svg>
