<?xml version="1.0" encoding="UTF-8"?>
<svg
  xmlns="http://www.w3.org/2000/svg"
  width="848"
  height="600"
  style="background-color:white"
>
  <polygon fill="lightblue" points="304.14049125139894,519.1529354717275 135.90140467740156,373.45361258915625 543.859508748601,255.686251987358 712.0985953225984,401.38557486992926" />
  <polygon fill="steelblue" points="135.90140467740156,373.45361258915625 135.90140467740156,198.61442513007074 543.859508748601,80.84706452827248 543.859508748601,255.686251987358" />
  <polygon fill="lightskyblue" points="712.0985953225984,401.38557486992926 712.0985953225984,226.54638741084375 543.859508748601,80.84706452827248 543.859508748601,255.686251987358" />
  <polygon fill="white" points="610.0335494677067,312.9946523211694 610.0335494677067,202.2631669304152 589.8448590788271,184.77924818450666 589.8448590788271,295.5107335752608" />
  <polygon fill="white" points="666.1132449923725,361.56109328202643 666.1132449923725,250.8296078912723 645.9245546034929,233.34568914536374 645.9245546034929,344.0771745361179" />
  <polygon fill="white" points="325.31052442474413,272.15212613018423 325.31052442474413,225.52834280776145 354.4503890012584,217.11638847906156 354.4503890012584,263.7401718014844" />
  <polygon fill="grey" points="531.5435528294865,144.6247615523494 531.5435528294865,115.48489697583517 560.6834174060008,107.0729426471353 560.6834174060008,136.21280722364955" />
  <polygon fill="lightgrey" points="531.5435528294865,144.6247615523494 531.5435528294865,115.48489697583517 514.7196441720868,100.91496468757805 514.7196441720868,130.05482926409232" />
  <polygon fill="darkgrey" points="531.5435528294865,115.48489697583517 514.7196441720868,100.91496468757805 543.859508748601,92.50301035887816 560.6834174060008,107.0729426471353" />
  <polygon fill="hsl(288.0,50.0%,51.426934746249444%)" points="478.4070146303652,398.5471773967607 478.4070146303652,358.5206594144607 485.4005821287286,356.5017903755727 485.4005821287286,396.5283083578727" />
  <polygon fill="hsl(288.0,50.0%,51.426934746249444%)" points="495.8909333762738,393.50000479954076 495.8909333762738,353.4734868172407 488.8973658779104,355.4923558561287 488.8973658779104,395.5188738384287" />
  <polygon fill="hsl(288.0,50.0%,51.426934746249444%)" points="471.4134471320018,360.93583061158927 471.4134471320018,321.30561478752986 477.53281869306977,319.5391043785029 477.53281869306977,359.1693202025623" />
  <polygon fill="hsl(288.0,50.0%,51.426934746249444%)" points="496.7651293135692,353.61743034562033 496.7651293135692,313.98721452156093 502.8845008746372,312.22070411253395 502.8845008746372,351.85091993659336" />
  <polygon fill="hsl(288.0,50.0%,51.426934746249444%)" points="477.53281869306977,325.65847593957085 477.53281869306977,319.5391043785029 496.7651293135692,313.98721452156093 496.7651293135692,320.10658608262895" />
  <polygon fill="hsl(288.0,50.0%,51.426934746249444%)" points="478.4070146303652,358.91696157270127 478.4070146303652,319.28674574864186 495.8909333762738,314.23957315142195 495.8909333762738,353.86978897548136" />
  <polygon fill="hsl(288.0,50.0%,51.426934746249444%)" points="482.77799431684235,316.04344180813393 482.77799431684235,298.2098446873072 491.51995368979664,295.68625838869724 491.51995368979664,313.51985550952395" />
  <polygon fill="hsl(288.0,50.0%,51.426934746249444%)" points="484.5263861914332,317.5202353396149 484.5263861914332,297.70512742758524 489.77156181520576,296.1909756484192 489.77156181520576,316.00608356044893" />
</svg>
