<?xml version="1.0" encoding="UTF-8"?>
<svg
  xmlns="http://www.w3.org/2000/svg"
  width="848"
  height="600"
  style="background-color:white"
>
  <polygon fill="lightblue" points="286.7951132300307,517.5106685250466 94.20943467461285,350.7265784909907 561.2048867699693,215.91660350219811 753.7905653253872,382.700693536254" />
  <polygon fill="steelblue" points="94.20943467461285,350.7265784909907 94.20943467461285,217.299306463746 561.2048867699693,82.48933147495342 561.2048867699693,215.91660350219811" />
  <polygon fill="lightskyblue" points="753.7905653253872,382.700693536254 753.7905653253872,249.27342150900932 561.2048867699693,82.48933147495342 561.2048867699693,215.91660350219811" />
  <polygon fill="white" points="669.0528667610033,309.3156939212694 669.0528667610033,175.8884218940247 645.9425853343532,155.874331089938 645.9425853343532,289.3016031171827" />
  <polygon fill="white" points="194.27988869504637,268.4678178967801 194.27988869504637,215.09690908588223 227.63670670185752,205.46762515811133 227.63670670185752,258.83853396900923" />
  <polygon fill="white" points="311.0287517188855,234.76532414958197 311.0287517188855,181.3944153386841 344.38556972569666,171.7651314109132 344.38556972569666,225.13604022181107" />
  <polygon fill="white" points="427.7776147427246,201.06283040238384 427.7776147427246,147.69192159148594 461.13443274953573,138.06263766371507 461.13443274953573,191.4335464746129" />
  <polygon fill="hsl(288.0,50.0%,70.71600065166498%)" points="470.79545040095553,298.1321023805046 470.79545040095553,252.31317716634877 478.80108672259024,250.00214902368376 478.80108672259024,295.8210742378396" />
  <polygon fill="hsl(288.0,50.0%,70.71600065166498%)" points="490.8095412050423,292.35453202384207 490.8095412050423,246.53560680968621 482.8039048834076,248.84663495235122 482.8039048834076,294.6655601665071" />
  <polygon fill="hsl(288.0,50.0%,70.71600065166498%)" points="462.7898140793209,255.0778580339064 462.7898140793209,209.71258554464322 469.7947458607513,207.69043591981134 469.7947458607513,253.05570840907453" />
  <polygon fill="hsl(288.0,50.0%,70.71600065166498%)" points="491.8102457452466,246.70038101674572 491.8102457452466,201.33510852748253 498.815177526677,199.31295890265062 498.815177526677,244.6782313919138" />
  <polygon fill="hsl(288.0,50.0%,70.71600065166498%)" points="469.7947458607513,214.69536770124165 469.7947458607513,207.69043591981134 491.8102457452466,201.33510852748253 491.8102457452466,208.34004030891288" />
  <polygon fill="hsl(288.0,50.0%,70.71600065166498%)" points="470.79545040095553,252.7668298912414 470.79545040095553,207.4015574019782 490.8095412050423,201.62398704531563 490.8095412050423,246.98925953457885" />
  <polygon fill="hsl(288.0,50.0%,70.71600065166498%)" points="475.79897310197725,203.6889011883494 475.79897310197725,183.27452856818098 485.80601850402064,180.3857433898497 485.80601850402064,200.80011601001814" />
  <polygon fill="hsl(288.0,50.0%,70.71600065166498%)" points="477.80038218238593,205.3794077771463 477.80038218238593,182.69677153251473 483.80460942361196,180.96350042551597 483.80460942361196,203.64613667014754" />
  <polygon fill="hsl(288.0,50.0%,65.21823016285329%)" points="423.0446056968232,336.3683345209539 423.0446056968232,290.5494093067981 431.0502420184579,288.2383811641331 431.0502420184579,334.0573063782889" />
  <polygon fill="hsl(288.0,50.0%,65.21823016285329%)" points="443.05869650090995,330.5907641642914 443.05869650090995,284.77183895013553 435.05306017927523,287.08286709280054 435.05306017927523,332.9017923069564" />
  <polygon fill="hsl(288.0,50.0%,65.21823016285329%)" points="415.0389693751885,293.3140901743557 415.0389693751885,247.94881768509254 422.04390115661886,245.92666806026065 422.04390115661886,291.2919405495239" />
  <polygon fill="hsl(288.0,50.0%,65.21823016285329%)" points="444.05940104111426,284.93661315719504 444.05940104111426,239.57134066793185 451.0643328225446,237.54919104309994 451.0643328225446,282.91446353236313" />
  <polygon fill="hsl(288.0,50.0%,65.21823016285329%)" points="422.04390115661886,252.931599841691 422.04390115661886,245.92666806026065 444.05940104111426,239.57134066793185 444.05940104111426,246.5762724493622" />
  <polygon fill="hsl(288.0,50.0%,65.21823016285329%)" points="423.0446056968232,291.0030620316907 423.0446056968232,245.63778954242753 443.05869650090995,239.86021918576498 443.05869650090995,285.2254916750282" />
  <polygon fill="hsl(288.0,50.0%,65.21823016285329%)" points="428.0481283978449,241.92513332879872 428.0481283978449,221.5107607086303 438.0551737998882,218.621975530299 438.0551737998882,239.03634815046746" />
  <polygon fill="hsl(288.0,50.0%,65.21823016285329%)" points="430.04953747825357,243.61563991759562 430.04953747825357,220.93300367296405 436.05376471947955,219.1997325659653 436.05376471947955,241.88236881059686" />
  <polygon fill="hsl(288.0,50.0%,51.426934746249444%)" points="486.2804845421865,379.4515395226905 486.2804845421865,333.6326143085347 494.2861208638212,331.32158616586963 494.2861208638212,377.1405113800255" />
  <polygon fill="hsl(288.0,50.0%,51.426934746249444%)" points="506.2945753462733,373.673969166028 506.2945753462733,327.8550439518721 498.2889390246386,330.1660720945371 498.2889390246386,375.984997308693" />
  <polygon fill="hsl(288.0,50.0%,51.426934746249444%)" points="478.27484822055186,336.3972951760923 478.27484822055186,291.0320226868291 485.2797800019822,289.0098730619972 485.2797800019822,334.3751455512604" />
  <polygon fill="hsl(288.0,50.0%,51.426934746249444%)" points="507.2952798864776,328.0198181589316 507.2952798864776,282.65454566966844 514.3002116679079,280.6323960448365 514.3002116679079,325.9976685340997" />
  <polygon fill="hsl(288.0,50.0%,51.426934746249444%)" points="485.2797800019822,296.01480484342756 485.2797800019822,289.0098730619972 507.2952798864776,282.65454566966844 507.2952798864776,289.6594774510988" />
  <polygon fill="hsl(288.0,50.0%,51.426934746249444%)" points="486.2804845421865,334.0862670334273 486.2804845421865,288.7209945441641 506.2945753462733,282.94342418750153 506.2945753462733,328.3086966767648" />
  <polygon fill="hsl(288.0,50.0%,51.426934746249444%)" points="491.2840072432082,285.0083383305353 491.2840072432082,264.5939657103669 501.29105264525157,261.7051805320356 501.29105264525157,282.11955315220405" />
  <polygon fill="hsl(288.0,50.0%,51.426934746249444%)" points="493.2854163236169,286.6988449193322 493.2854163236169,264.01620867470064 499.2896435648429,262.2829375677019 499.2896435648429,284.96557381233345" />
  <polygon fill="hsl(288.0,50.0%,43.8291623991892%)" points="316.74224039899275,462.18468289477136 316.74224039899275,416.36575768061556 324.74787672062746,414.0547295379505 324.74787672062746,459.8736547521064" />
  <polygon fill="hsl(288.0,50.0%,43.8291623991892%)" points="336.75633120307947,456.4071125381088 336.75633120307947,410.588187323953 328.7506948814448,412.899215466618 328.7506948814448,458.71814068077384" />
  <polygon fill="hsl(288.0,50.0%,43.8291623991892%)" points="308.73660407735815,419.1304385481732 308.73660407735815,373.76516605891 315.74153585878844,371.7430164340781 315.74153585878844,417.1082889233413" />
  <polygon fill="hsl(288.0,50.0%,43.8291623991892%)" points="337.75703574328384,410.7529615310125 337.75703574328384,365.3876890417493 344.7619675247141,363.36553941691744 344.7619675247141,408.73081190618063" />
  <polygon fill="hsl(288.0,50.0%,43.8291623991892%)" points="315.74153585878844,378.7479482155085 315.74153585878844,371.7430164340781 337.75703574328384,365.3876890417493 337.75703574328384,372.39262082317964" />
  <polygon fill="hsl(288.0,50.0%,43.8291623991892%)" points="316.74224039899275,416.81941040550817 316.74224039899275,371.454137916245 336.75633120307947,365.67656755958245 336.75633120307947,411.04184004884564" />
  <polygon fill="hsl(288.0,50.0%,43.8291623991892%)" points="321.74576310001447,367.74148170261617 321.74576310001447,347.32710908244775 331.7528085020578,344.4383239041165 331.7528085020578,364.8526965242849" />
  <polygon fill="hsl(288.0,50.0%,43.8291623991892%)" points="323.74717218042315,369.43198829141306 323.74717218042315,346.7493520467815 329.7513994216491,345.01608093978274 329.7513994216491,367.6987171844143" />
</svg>
