<?xml version="1.0" encoding="UTF-8"?>
<svg
  xmlns="http://www.w3.org/2000/svg"
  width="848"
  height="600"
  style="background-color:white"
>
  <polygon fill="lightblue" points="315.10040920308654,525.5889800098065 162.2450548366466,393.2123600239969 532.8995907969135,286.2136119674889 685.7549451633533,418.5902319532985" />
  <polygon fill="steelblue" points="162.2450548366466,393.2123600239969 162.2450548366466,181.40976804670152 532.8995907969135,74.4110199901935 532.8995907969135,286.2136119674889" />
  <polygon fill="lightskyblue" points="685.7549451633533,418.5902319532985 685.7549451633533,206.78763997600313 532.8995907969135,74.4110199901935 532.8995907969135,286.2136119674889" />
  <polygon fill="white" points="618.4985892421198,360.34451915954224 618.4985892421198,254.44322317089456 600.1559467181471,238.55802877259742 600.1559467181471,344.4593247612451" />
  <polygon fill="white" points="334.3346608181991,301.1738514594448 334.3346608181991,258.81333306398574 360.80998481536096,251.17056534566373 360.809984815361,293.5310837411228" />
  <polygon fill="grey" points="521.7098022363955,132.35690330312318 521.7098022363955,105.88157930596125 548.1851262335574,98.23881158763925 548.1851262335574,124.71413558480117" />
  <polygon fill="lightgrey" points="521.7098022363955,132.35690330312318 521.7098022363955,105.88157930596125 506.42426679975154,92.64391730738032 506.42426679975154,119.11924130454221" />
  <polygon fill="darkgrey" points="521.7098022363955,105.88157930596125 506.42426679975154,92.64391730738032 532.8995907969135,85.00114958905826 548.1851262335574,98.23881158763925" />
  <polygon fill="hsl(324.0,50.0%,70.71600065166498%)" points="461.1415735969013,351.46809667124586 461.14157359690125,315.10159162874425 467.49565135622015,313.267327376347 467.49565135622015,349.6338324188486" />
  <polygon fill="hsl(324.0,50.0%,70.71600065166498%)" points="477.02676799519844,346.8824360402527 477.02676799519844,310.51593099775107 470.6726902358796,312.3501952501483 470.6726902358796,348.71670029264993" />
  <polygon fill="hsl(324.0,50.0%,70.71600065166498%)" points="454.7874958375824,317.29592028750295 454.7874958375824,281.28947965136274 460.34731387698645,279.68449843051513 460.34731387698645,315.69093906665535" />
  <polygon fill="hsl(324.0,50.0%,70.71600065166498%)" points="477.8210277151133,310.6467123725628 477.8210277151133,274.6402717364226 483.38084575451734,273.03529051557496 483.38084575451734,309.04173115171517" />
  <polygon fill="hsl(324.0,50.0%,70.71600065166498%)" points="460.34731387698645,285.2443164699191 460.34731387698645,279.68449843051513 477.8210277151133,274.6402717364226 477.8210277151133,280.2000897758266" />
  <polygon fill="hsl(324.0,50.0%,70.71600065166498%)" points="461.14157359690125,315.46165603510565 461.14157359690125,279.4552153989655 477.02676799519844,274.86955476797226 477.02676799519844,310.8759954041125" />
  <polygon fill="hsl(324.0,50.0%,70.71600065166498%)" points="465.11287219647556,276.50847820941016 465.11287219647556,260.3055799231471 473.0554693956242,258.01274960765045 473.0554693956242,274.21564789391357" />
  <polygon fill="hsl(324.0,50.0%,70.71600065166498%)" points="466.7013916363053,277.85023417811783 466.7013916363053,259.84701386004775 471.46694995579446,258.4713156707498 471.46694995579446,276.47453598881987" />
  <polygon fill="hsl(324.0,50.0%,65.21823016285329%)" points="423.2417030390464,381.8162142327707 423.24170303904634,345.449709190269 429.59578079836524,343.61544493787176 429.59578079836524,379.9819499803734" />
  <polygon fill="hsl(324.0,50.0%,65.21823016285329%)" points="439.12689743734353,377.23055360177744 439.12689743734353,340.86404855927583 432.7728196780247,342.69831281167313 432.7728196780247,379.06481785417475" />
  <polygon fill="hsl(324.0,50.0%,65.21823016285329%)" points="416.8876252797275,347.6440378490277 416.8876252797275,311.6375972128875 422.4474433191315,310.0326159920399 422.4474433191315,346.0390566281801" />
  <polygon fill="hsl(324.0,50.0%,65.21823016285329%)" points="439.9211571572584,340.9948299340876 439.9211571572584,304.9883892979474 445.4809751966624,303.3834080770997 445.4809751966624,339.3898487132399" />
  <polygon fill="hsl(324.0,50.0%,65.21823016285329%)" points="422.4474433191315,315.5924340314439 422.4474433191315,310.0326159920399 439.9211571572584,304.9883892979474 439.9211571572584,310.54820733735136" />
  <polygon fill="hsl(324.0,50.0%,65.21823016285329%)" points="423.24170303904634,345.8097735966304 423.24170303904634,309.80333296049025 439.12689743734353,305.217672329497 439.12689743734353,341.22411296563723" />
  <polygon fill="hsl(324.0,50.0%,65.21823016285329%)" points="427.21300163862065,306.8565957709349 427.21300163862065,290.65369748467185 435.1555988377692,288.3608671691752 435.1555988377692,304.56376545543833" />
  <polygon fill="hsl(324.0,50.0%,65.21823016285329%)" points="428.8015210784504,308.1983517396426 428.8015210784504,290.1951314215725 433.5670793979395,288.81943323227455 433.5670793979395,306.8226535503446" />
  <polygon fill="hsl(324.0,50.0%,51.426934746249444%)" points="473.432053339678,416.01137670372975 473.432053339678,379.6448716612282 479.7861310989969,377.8106074088309 479.7861310989969,414.1771124513325" />
  <polygon fill="hsl(324.0,50.0%,51.426934746249444%)" points="489.3172477379752,411.4257160727366 489.3172477379752,375.05921103023496 482.96316997865637,376.89347528263227 482.96316997865637,413.2599803251338" />
  <polygon fill="hsl(324.0,50.0%,51.426934746249444%)" points="467.0779755803592,381.83920031998684 467.0779755803592,345.83275968384663 472.6377936197632,344.227778462999 472.6377936197632,380.23421909913924" />
  <polygon fill="hsl(324.0,50.0%,51.426934746249444%)" points="490.11150745789007,375.1899924050467 490.11150745789007,339.1835517689065 495.6713254972941,337.57857054805885 495.6713254972941,373.58501118419906" />
  <polygon fill="hsl(324.0,50.0%,51.426934746249444%)" points="472.6377936197632,349.787596502403 472.6377936197632,344.227778462999 490.11150745789007,339.1835517689065 490.11150745789007,344.7433698083105" />
  <polygon fill="hsl(324.0,50.0%,51.426934746249444%)" points="473.432053339678,380.0049360675896 473.432053339678,343.9984954314494 489.3172477379752,339.41283480045615 489.3172477379752,375.41927543659637" />
  <polygon fill="hsl(324.0,50.0%,51.426934746249444%)" points="477.40335193925233,341.05175824189405 477.40335193925233,324.848859955631 485.3459491384009,322.55602964013434 485.3459491384009,338.75892792639746" />
  <polygon fill="hsl(324.0,50.0%,51.426934746249444%)" points="478.99187137908206,342.3935142106017 478.99187137908206,324.39029389253164 483.7574296985712,323.0145957032337 483.7574296985712,341.01781602130376" />
  <polygon fill="hsl(324.0,50.0%,44.34090059249726%)" points="553.4577083081047,417.92396666142037 553.4577083081047,381.55746161891875 559.8117860674234,379.7231973665215 559.8117860674234,416.0897024090231" />
  <polygon fill="hsl(324.0,50.0%,44.34090059249726%)" points="569.3429027064018,413.33830603042713 569.3429027064018,376.9718009879256 562.9888249470829,378.8060652403228 562.9888249470829,415.1725702828245" />
  <polygon fill="hsl(324.0,50.0%,44.34090059249726%)" points="547.1036305487858,383.75179027767746 547.1036305487858,347.74534964153725 552.6634485881898,346.1403684206896 552.6634485881898,382.14680905682985" />
  <polygon fill="hsl(324.0,50.0%,44.34090059249726%)" points="570.1371624263166,377.1025823627373 570.1371624263166,341.0961417265971 575.6969804657207,339.49116050574946 575.6969804657207,375.4976011418897" />
  <polygon fill="hsl(324.0,50.0%,44.34090059249726%)" points="552.6634485881898,351.7001864600936 552.6634485881898,346.1403684206896 570.1371624263166,341.0961417265971 570.1371624263166,346.6559597660011" />
  <polygon fill="hsl(324.0,50.0%,44.34090059249726%)" points="553.4577083081047,381.91752602528015 553.4577083081047,345.91108538913994 569.3429027064018,341.32542475814677 569.3429027064018,377.331865394287" />
  <polygon fill="hsl(324.0,50.0%,44.34090059249726%)" points="557.4290069076789,342.96434819958466 557.4290069076789,326.76144991332154 565.3716041068275,324.46861959782495 565.3716041068275,340.671517884088" />
  <polygon fill="hsl(324.0,50.0%,44.34090059249726%)" points="559.0175263475087,344.30610416829234 559.0175263475087,326.30288385022226 563.7830846669978,324.9271856609243 563.7830846669978,342.9304059789944" />
  <polygon fill="hsl(324.0,50.0%,43.8291623991892%)" points="338.8694597888044,481.67671611446826 338.8694597888044,445.3102110719667 345.2235375481233,443.4759468195694 345.2235375481233,479.842451862071" />
  <polygon fill="hsl(324.0,50.0%,43.8291623991892%)" points="354.75465418710155,477.0910554834751 354.75465418710155,440.7245504409735 348.40057642778277,442.5588146933708 348.40057642778277,478.92531973587234" />
  <polygon fill="hsl(324.0,50.0%,43.8291623991892%)" points="332.5153820294856,447.50453973072536 332.5153820294856,411.49809909458514 338.07520006888956,409.89311787373754 338.07520006888956,445.8995585098777" />
  <polygon fill="hsl(324.0,50.0%,43.8291623991892%)" points="355.54891390701647,440.85533181578523 355.54891390701647,404.848891179645 361.10873194642045,403.2439099587974 361.10873194642045,439.2503505949376" />
  <polygon fill="hsl(324.0,50.0%,43.8291623991892%)" points="338.07520006888956,415.4529359131415 338.07520006888956,409.89311787373754 355.54891390701647,404.848891179645 355.54891390701647,410.408709219049" />
  <polygon fill="hsl(324.0,50.0%,43.8291623991892%)" points="338.8694597888044,445.67027547832805 338.8694597888044,409.66383484218784 354.75465418710155,405.07817421119466 354.75465418710155,441.0846148473349" />
  <polygon fill="hsl(324.0,50.0%,43.8291623991892%)" points="342.84075838837873,406.71709765263256 342.84075838837873,390.5141993663695 350.7833555875273,388.2213690508729 350.7833555875273,404.424267337136" />
  <polygon fill="hsl(324.0,50.0%,43.8291623991892%)" points="344.42927782820846,408.05885362134023 344.42927782820846,390.05563330327016 349.1948361476976,388.6799351139722 349.1948361476976,406.68315543204227" />
</svg>
