<?xml version="1.0" encoding="UTF-8"?>
<svg
  xmlns="http://www.w3.org/2000/svg"
  width="848"
  height="600"
  style="background-color:white"
>
  <polygon fill="lightblue" points="315.10040920308654,525.5889800098065 162.2450548366466,393.2123600239969 532.8995907969135,286.2136119674889 685.7549451633533,418.5902319532985" />
  <polygon fill="steelblue" points="162.2450548366466,393.2123600239969 162.2450548366466,181.40976804670152 532.8995907969135,74.4110199901935 532.8995907969135,286.2136119674889" />
  <polygon fill="lightskyblue" points="685.7549451633533,418.5902319532985 685.7549451633533,206.78763997600313 532.8995907969135,74.4110199901935 532.8995907969135,286.2136119674889" />
  <polygon fill="white" points="618.4985892421198,360.34451915954224 618.4985892421198,254.44322317089456 600.1559467181471,238.55802877259742 600.1559467181471,344.4593247612451" />
  <polygon fill="white" points="241.67102682813237,327.9235384735718 241.67102682813237,285.56302007811274 268.14635082529423,277.9202523597907 268.14635082529423,320.2807707552498" />
  <polygon fill="white" points="334.3346608181991,301.1738514594448 334.3346608181991,258.81333306398574 360.80998481536096,251.17056534566373 360.809984815361,293.5310837411228" />
  <polygon fill="white" points="426.99829480826577,274.4241644453178 426.99829480826577,232.06364604985873 453.4736188054277,224.42087833153673 453.4736188054277,266.7813967269958" />
  <polygon fill="hsl(288.0,50.0%,51.426934746249444%)" points="473.432053339678,416.01137670372975 473.432053339678,379.6448716612282 479.7861310989969,377.8106074088309 479.7861310989969,414.1771124513325" />
  <polygon fill="hsl(288.0,50.0%,51.426934746249444%)" points="489.3172477379752,411.4257160727366 489.3172477379752,375.05921103023496 482.96316997865637,376.89347528263227 482.96316997865637,413.2599803251338" />
  <polygon fill="hsl(288.0,50.0%,51.426934746249444%)" points="467.0779755803592,381.83920031998684 467.0779755803592,345.83275968384663 472.6377936197632,344.227778462999 472.6377936197632,380.23421909913924" />
  <polygon fill="hsl(288.0,50.0%,51.426934746249444%)" points="490.11150745789007,375.1899924050467 490.11150745789007,339.1835517689065 495.6713254972941,337.57857054805885 495.6713254972941,373.58501118419906" />
  <polygon fill="hsl(288.0,50.0%,51.426934746249444%)" points="472.6377936197632,349.787596502403 472.6377936197632,344.227778462999 490.11150745789007,339.1835517689065 490.11150745789007,344.7433698083105" />
  <polygon fill="hsl(288.0,50.0%,51.426934746249444%)" points="473.432053339678,380.0049360675896 473.432053339678,343.9984954314494 489.3172477379752,339.41283480045615 489.3172477379752,375.41927543659637" />
  <polygon fill="hsl(288.0,50.0%,51.426934746249444%)" points="477.40335193925233,341.05175824189405 477.40335193925233,324.848859955631 485.3459491384009,322.55602964013434 485.3459491384009,338.75892792639746" />
  <polygon fill="hsl(288.0,50.0%,51.426934746249444%)" points="478.99187137908206,342.3935142106017 478.99187137908206,324.39029389253164 483.7574296985712,323.0145957032337 483.7574296985712,341.01781602130376" />
</svg>
