<?xml version="1.0" encoding="UTF-8"?>
<svg
  xmlns="http://www.w3.org/2000/svg"
  width="848"
  height="600"
  style="background-color:white"
>
  <polygon fill="lightblue" points="304.14049125139894,519.1529354717275 135.90140467740156,373.45361258915625 543.859508748601,255.686251987358 712.0985953225984,401.38557486992926" />
  <polygon fill="steelblue" points="135.90140467740156,373.45361258915625 135.90140467740156,198.61442513007074 543.859508748601,80.84706452827248 543.859508748601,255.686251987358" />
  <polygon fill="lightskyblue" points="712.0985953225984,401.38557486992926 712.0985953225984,226.54638741084375 543.859508748601,80.84706452827248 543.859508748601,255.686251987358" />
  <polygon fill="white" points="638.0733972300396,337.2778728015979 638.0733972300396,226.54638741084375 617.8847068411599,209.06246866493518 617.8847068411599,319.79395405568937" />
  <polygon fill="white" points="189.3244897343443,311.40791299745035 189.3244897343443,264.78412967502754 218.46435431085857,256.37217534632765 218.46435431085857,302.99595866875046" />
  <polygon fill="white" points="257.31750707954427,291.7800195638173 257.31750707954427,245.15623624139448 286.4573716560585,236.7442819126946 286.4573716560585,283.3680652351174" />
  <polygon fill="white" points="325.31052442474413,272.15212613018423 325.31052442474413,225.52834280776145 354.4503890012584,217.11638847906156 354.4503890012584,263.7401718014844" />
  <polygon fill="white" points="393.3035417699441,252.5242326965512 393.3035417699441,205.90044937412839 422.44340634645835,197.48849504542852 422.44340634645835,244.11227836785133" />
  <polygon fill="white" points="461.296559115144,232.89633926291816 461.296559115144,186.27255594049535 490.43642369165826,177.86060161179546 490.43642369165826,224.48438493421827" />
  <polygon fill="hsl(324.0,50.0%,51.426934746249444%)" points="478.4070146303652,398.5471773967607 478.4070146303652,358.5206594144607 485.4005821287286,356.5017903755727 485.4005821287286,396.5283083578727" />
  <polygon fill="hsl(324.0,50.0%,51.426934746249444%)" points="495.8909333762738,393.50000479954076 495.8909333762738,353.4734868172407 488.8973658779104,355.4923558561287 488.8973658779104,395.5188738384287" />
  <polygon fill="hsl(324.0,50.0%,51.426934746249444%)" points="471.4134471320018,360.93583061158927 471.4134471320018,321.30561478752986 477.53281869306977,319.5391043785029 477.53281869306977,359.1693202025623" />
  <polygon fill="hsl(324.0,50.0%,51.426934746249444%)" points="496.7651293135692,353.61743034562033 496.7651293135692,313.98721452156093 502.8845008746372,312.22070411253395 502.8845008746372,351.85091993659336" />
  <polygon fill="hsl(324.0,50.0%,51.426934746249444%)" points="477.53281869306977,325.65847593957085 477.53281869306977,319.5391043785029 496.7651293135692,313.98721452156093 496.7651293135692,320.10658608262895" />
  <polygon fill="hsl(324.0,50.0%,51.426934746249444%)" points="478.4070146303652,358.91696157270127 478.4070146303652,319.28674574864186 495.8909333762738,314.23957315142195 495.8909333762738,353.86978897548136" />
  <polygon fill="hsl(324.0,50.0%,51.426934746249444%)" points="482.77799431684235,316.04344180813393 482.77799431684235,298.2098446873072 491.51995368979664,295.68625838869724 491.51995368979664,313.51985550952395" />
  <polygon fill="hsl(324.0,50.0%,51.426934746249444%)" points="484.5263861914332,317.5202353396149 484.5263861914332,297.70512742758524 489.77156181520576,296.1909756484192 489.77156181520576,316.00608356044893" />
</svg>
