<?xml version="1.0" encoding="UTF-8"?>
<svg
  xmlns="http://www.w3.org/2000/svg"
  width="848"
  height="600"
  style="background-color:white"
>
  <polygon fill="lightblue" points="315.10040920308654,525.5889800098065 162.2450548366466,393.2123600239969 532.8995907969135,286.2136119674889 685.7549451633533,418.5902319532985" />
  <polygon fill="steelblue" points="162.2450548366466,393.2123600239969 162.2450548366466,181.40976804670152 532.8995907969135,74.4110199901935 532.8995907969135,286.2136119674889" />
  <polygon fill="lightskyblue" points="685.7549451633533,418.5902319532985 685.7549451633533,206.78763997600313 532.8995907969135,74.4110199901935 532.8995907969135,286.2136119674889" />
  <polygon fill="white" points="593.0226968477132,338.2817491619073 593.0226968477132,237.67551797269203 574.6800543237404,221.7903235743949 574.6800543237404,322.3965547636102" />
  <polygon fill="white" points="643.9744816365264,382.40728915717716 643.9744816365264,281.8010579679619 625.6318391125537,265.91586356966474 625.6318391125537,366.52209475888003" />
  <polygon fill="white" points="210.78314883144347,336.84010081161415 210.78314883144347,294.47958241615504 237.25847282860536,286.83681469783306 237.25847282860536,329.1973330932921" />
  <polygon fill="white" points="272.5589048248213,319.00697613552944 272.5589048248213,276.6464577400704 299.0342288219832,269.0036900217484 299.0342288219832,311.36420841720746" />
  <polygon fill="white" points="334.3346608181991,301.1738514594448 334.3346608181991,258.81333306398574 360.80998481536096,251.17056534566373 360.809984815361,293.5310837411228" />
  <polygon fill="white" points="396.1104168115769,283.34072678336014 396.1104168115769,240.98020838790106 422.5857408087388,233.33744066957905 422.5857408087388,275.6979590650381" />
  <polygon fill="white" points="457.88617280495475,265.50760210727543 457.88617280495475,223.14708371181638 484.3614968021166,215.5043159934944 484.3614968021166,257.86483438895345" />
  <polygon fill="grey" points="521.7098022363955,132.35690330312318 521.7098022363955,105.88157930596125 548.1851262335574,98.23881158763925 548.1851262335574,124.71413558480117" />
  <polygon fill="lightgrey" points="521.7098022363955,132.35690330312318 521.7098022363955,105.88157930596125 506.42426679975154,92.64391730738032 506.42426679975154,119.11924130454221" />
  <polygon fill="darkgrey" points="521.7098022363955,105.88157930596125 506.42426679975154,92.64391730738032 532.8995907969135,85.00114958905826 548.1851262335574,98.23881158763925" />
  <polygon fill="hsl(288.0,50.0%,51.426934746249444%)" points="473.432053339678,416.01137670372975 473.432053339678,379.6448716612282 479.7861310989969,377.8106074088309 479.7861310989969,414.1771124513325" />
  <polygon fill="hsl(288.0,50.0%,51.426934746249444%)" points="489.3172477379752,411.4257160727366 489.3172477379752,375.05921103023496 482.96316997865637,376.89347528263227 482.96316997865637,413.2599803251338" />
  <polygon fill="hsl(288.0,50.0%,51.426934746249444%)" points="467.0779755803592,381.83920031998684 467.0779755803592,345.83275968384663 472.6377936197632,344.227778462999 472.6377936197632,380.23421909913924" />
  <polygon fill="hsl(288.0,50.0%,51.426934746249444%)" points="490.11150745789007,375.1899924050467 490.11150745789007,339.1835517689065 495.6713254972941,337.57857054805885 495.6713254972941,373.58501118419906" />
  <polygon fill="hsl(288.0,50.0%,51.426934746249444%)" points="472.6377936197632,349.787596502403 472.6377936197632,344.227778462999 490.11150745789007,339.1835517689065 490.11150745789007,344.7433698083105" />
  <polygon fill="hsl(288.0,50.0%,51.426934746249444%)" points="473.432053339678,380.0049360675896 473.432053339678,343.9984954314494 489.3172477379752,339.41283480045615 489.3172477379752,375.41927543659637" />
  <polygon fill="hsl(288.0,50.0%,51.426934746249444%)" points="477.40335193925233,341.05175824189405 477.40335193925233,324.848859955631 485.3459491384009,322.55602964013434 485.3459491384009,338.75892792639746" />
  <polygon fill="hsl(288.0,50.0%,51.426934746249444%)" points="478.99187137908206,342.3935142106017 478.99187137908206,324.39029389253164 483.7574296985712,323.0145957032337 483.7574296985712,341.01781602130376" />
</svg>
