<?xml version="1.0" encoding="UTF-8"?>
<svg
  xmlns="http://www.w3.org/2000/svg"
  width="848"
  height="600"
  style="background-color:white"
>
  <polygon fill="lightblue" points="315.10040920308654,525.5889800098065 162.2450548366466,393.2123600239969 532.8995907969135,286.2136119674889 685.7549451633533,418.5902319532985" />
  <polygon fill="steelblue" points="162.2450548366466,393.2123600239969 162.2450548366466,181.40976804670152 532.8995907969135,74.4110199901935 532.8995907969135,286.2136119674889" />
  <polygon fill="lightskyblue" points="685.7549451633533,418.5902319532985 685.7549451633533,206.78763997600313 532.8995907969135,74.4110199901935 532.8995907969135,286.2136119674889" />
  <polygon fill="white" points="618.4985892421198,360.34451915954224 618.4985892421198,259.73828797032695 600.1559467181471,243.85309357202982 600.1559467181471,344.4593247612451" />
  <polygon fill="white" points="223.138300030119,333.2734758763972 223.138300030119,290.91295748093813 249.6136240272809,283.27018976261616 249.6136240272809,325.6307081580752" />
  <polygon fill="white" points="297.2692072221724,311.87372626509557 297.2692072221724,269.5132078696365 323.7445312193343,261.87044015131454 323.7445312193343,304.2309585467736" />
  <polygon fill="white" points="371.40011441422575,290.473976653794 371.40011441422575,248.11345825833493 397.8754384113876,240.47069054001292 397.8754384113876,282.831208935472" />
  <polygon fill="white" points="445.5310216062791,269.0742270424924 445.5310216062791,226.71370864703334 472.00634560344105,219.07094092871134 472.00634560344105,261.4314593241704" />
  <polygon fill="hsl(360.0,50.0%,51.426934746249444%)" points="473.432053339678,416.01137670372975 473.432053339678,379.6448716612282 479.7861310989969,377.8106074088309 479.7861310989969,414.1771124513325" />
  <polygon fill="hsl(360.0,50.0%,51.426934746249444%)" points="489.3172477379752,411.4257160727366 489.3172477379752,375.05921103023496 482.96316997865637,376.89347528263227 482.96316997865637,413.2599803251338" />
  <polygon fill="hsl(360.0,50.0%,51.426934746249444%)" points="467.0779755803592,381.83920031998684 467.0779755803592,345.83275968384663 472.6377936197632,344.227778462999 472.6377936197632,380.23421909913924" />
  <polygon fill="hsl(360.0,50.0%,51.426934746249444%)" points="490.11150745789007,375.1899924050467 490.11150745789007,339.1835517689065 495.6713254972941,337.57857054805885 495.6713254972941,373.58501118419906" />
  <polygon fill="hsl(360.0,50.0%,51.426934746249444%)" points="472.6377936197632,349.787596502403 472.6377936197632,344.227778462999 490.11150745789007,339.1835517689065 490.11150745789007,344.7433698083105" />
  <polygon fill="hsl(360.0,50.0%,51.426934746249444%)" points="473.432053339678,380.0049360675896 473.432053339678,343.9984954314494 489.3172477379752,339.41283480045615 489.3172477379752,375.41927543659637" />
  <polygon fill="hsl(360.0,50.0%,51.426934746249444%)" points="477.40335193925233,341.05175824189405 477.40335193925233,324.848859955631 485.3459491384009,322.55602964013434 485.3459491384009,338.75892792639746" />
  <polygon fill="hsl(360.0,50.0%,51.426934746249444%)" points="478.99187137908206,342.3935142106017 478.99187137908206,324.39029389253164 483.7574296985712,323.0145957032337 483.7574296985712,341.01781602130376" />
</svg>
