<?xml version="1.0" encoding="UTF-8"?>
<svg
  xmlns="http://www.w3.org/2000/svg"
  width="848"
  height="600"
  style="background-color:white"
>
  <polygon fill="lightblue" points="286.7951132300307,517.5106685250466 94.20943467461285,350.7265784909907 561.2048867699693,215.91660350219811 753.7905653253872,382.700693536254" />
  <polygon fill="steelblue" points="94.20943467461285,350.7265784909907 94.20943467461285,217.299306463746 561.2048867699693,82.48933147495342 561.2048867699693,215.91660350219811" />
  <polygon fill="lightskyblue" points="753.7905653253872,382.700693536254 753.7905653253872,249.27342150900932 561.2048867699693,82.48933147495342 561.2048867699693,215.91660350219811" />
  <polygon fill="white" points="669.0528667610033,309.3156939212694 669.0528667610033,182.55978549538696 645.9425853343532,162.54569469130027 645.9425853343532,289.3016031171827" />
  <polygon fill="white" points="155.36360102043335,279.7019824791795 155.36360102043335,226.33107366828162 188.7204190272445,216.70178974051072 188.7204190272445,270.07269855140856" />
  <polygon fill="white" points="233.19617636965944,257.2336533143807 233.19617636965944,203.86274450348284 266.55299437647056,194.23346057571194 266.55299437647056,247.60436938660985" />
  <polygon fill="white" points="311.0287517188855,234.76532414958197 311.0287517188855,181.3944153386841 344.38556972569666,171.7651314109132 344.38556972569666,225.13604022181107" />
  <polygon fill="white" points="388.86132706811156,212.29699498478323 388.86132706811156,158.92608617388532 422.21814507492275,149.29680224611442 422.21814507492275,202.6677110570123" />
  <polygon fill="white" points="466.69390241733765,189.82866581998445 466.69390241733765,136.45775700908655 500.05072042414884,126.82847308131565 500.05072042414884,180.19938189221352" />
  <polygon fill="hsl(324.0,50.0%,51.426934746249444%)" points="486.2804845421865,379.4515395226905 486.2804845421865,333.6326143085347 494.2861208638212,331.32158616586963 494.2861208638212,377.1405113800255" />
  <polygon fill="hsl(324.0,50.0%,51.426934746249444%)" points="506.2945753462733,373.673969166028 506.2945753462733,327.8550439518721 498.2889390246386,330.1660720945371 498.2889390246386,375.984997308693" />
  <polygon fill="hsl(324.0,50.0%,51.426934746249444%)" points="478.27484822055186,336.3972951760923 478.27484822055186,291.0320226868291 485.2797800019822,289.0098730619972 485.2797800019822,334.3751455512604" />
  <polygon fill="hsl(324.0,50.0%,51.426934746249444%)" points="507.2952798864776,328.0198181589316 507.2952798864776,282.65454566966844 514.3002116679079,280.6323960448365 514.3002116679079,325.9976685340997" />
  <polygon fill="hsl(324.0,50.0%,51.426934746249444%)" points="485.2797800019822,296.01480484342756 485.2797800019822,289.0098730619972 507.2952798864776,282.65454566966844 507.2952798864776,289.6594774510988" />
  <polygon fill="hsl(324.0,50.0%,51.426934746249444%)" points="486.2804845421865,334.0862670334273 486.2804845421865,288.7209945441641 506.2945753462733,282.94342418750153 506.2945753462733,328.3086966767648" />
  <polygon fill="hsl(324.0,50.0%,51.426934746249444%)" points="491.2840072432082,285.0083383305353 491.2840072432082,264.5939657103669 501.29105264525157,261.7051805320356 501.29105264525157,282.11955315220405" />
  <polygon fill="hsl(324.0,50.0%,51.426934746249444%)" points="493.2854163236169,286.6988449193322 493.2854163236169,264.01620867470064 499.2896435648429,262.2829375677019 499.2896435648429,284.96557381233345" />
</svg>
