<?xml version="1.0" encoding="UTF-8"?>
<svg
  xmlns="http://www.w3.org/2000/svg"
  width="848"
  height="600"
  style="background-color:white"
>
  <polygon fill="lightblue" points="327.0397880568022,519.9416393355417 137.05693773820286,355.41166467625817 520.9602119431978,244.58833532374183 710.9430622617972,409.11830998302537" />
  <polygon fill="steelblue" points="137.05693773820286,355.41166467625817 137.05693773820286,190.8816900169746 520.9602119431978,80.05836066445826 520.9602119431978,244.58833532374183" />
  <polygon fill="lightskyblue" points="710.9430622617972,409.11830998302537 710.9430622617972,244.58833532374183 520.9602119431978,80.05836066445826 520.9602119431978,244.58833532374183" />
  <polygon fill="white" points="593.7869712319942,307.65815894313386 593.7869712319942,197.97150917027815 574.7886862001343,181.5185117043498 574.7886862001343,291.20516147720554" />
  <polygon fill="white" points="657.1145880048607,362.5014838295617 657.1145880048607,252.81483405670602 638.1163029730008,236.36183659077767 638.1163029730008,346.0484863636334" />
  <polygon fill="white" points="187.3299855507617,297.024425923334 187.3299855507617,253.1497660141917 214.75164799397564,245.23381391758338 214.75164799397564,289.10847382672563" />
  <polygon fill="white" points="251.31386458492756,278.5538710312479 251.31386458492756,234.67921112210564 278.7355270281415,226.76325902549732 278.7355270281415,270.63791893463963" />
  <polygon fill="white" points="315.29774361909335,260.08331613916187 315.29774361909335,216.20865623001959 342.71940606230726,208.2927041334113 342.71940606230726,252.16736404255357" />
  <polygon fill="white" points="379.2816226532592,241.6127612470758 379.2816226532592,197.73810133793353 406.7032850964731,189.8221492413252 406.7032850964731,233.69680915046752" />
  <polygon fill="white" points="443.26550168742506,223.14220635498975 443.26550168742506,179.26754644584744 470.68716413063896,171.35159434923915 470.68716413063896,215.22625425838143" />
  <polygon fill="hsl(288.0,50.0%,50.65955712546234%)" points="482.4883903744228,399.04927549999206 482.4883903744228,361.3828799679934 489.0695893607941,359.4830514648074 489.06958936079417,397.1494469968061" />
  <polygon fill="hsl(288.0,50.0%,50.65955712546234%)" points="498.9413878403512,394.2997042420271 498.9413878403512,356.6333087100284 492.3601888539798,358.5331372132144 492.3601888539798,396.19953274521305" />
  <polygon fill="hsl(288.0,50.0%,50.65955712546234%)" points="475.9071913880515,363.65564308040706 475.90719138805144,326.36218215763614 481.6657405011264,324.6998322173484 481.6657405011264,361.99329314011936" />
  <polygon fill="hsl(288.0,50.0%,50.65955712546234%)" points="499.7640377136476,356.7687647563578 499.7640377136476,319.4753038335869 505.52258682672255,317.81295389329915 505.52258682672255,355.1064148160701" />
  <polygon fill="hsl(288.0,50.0%,50.65955712546234%)" points="481.6657405011264,330.4583813304233 481.6657405011264,324.6998322173484 499.7640377136476,319.4753038335869 499.7640377136476,325.23385294666184" />
  <polygon fill="hsl(288.0,50.0%,50.65955712546234%)" points="482.4883903744228,361.7558145772211 482.4883903744228,324.46235365445017 498.9413878403512,319.7127823964852 498.9413878403512,357.0062433192561" />
  <polygon fill="hsl(288.0,50.0%,50.65955712546234%)" points="486.6016397409049,321.4102877938204 486.6016397409049,304.62823037857345 494.8281384738691,302.2534447495909 494.8281384738691,319.03550216483785" />
  <polygon fill="hsl(288.0,50.0%,50.65955712546234%)" points="488.24693948749774,322.8000037141624 488.24693948749774,304.15327325277696 493.18283872727625,302.7284018753875 493.18283872727625,321.37513233677294" />
</svg>
