<?xml version="1.0" encoding="UTF-8"?>
<svg
  xmlns="http://www.w3.org/2000/svg"
  width="848"
  height="600"
  style="background-color:white"
>
  <polygon fill="lightblue" points="327.0397880568022,519.9416393355417 137.05693773820286,355.41166467625817 520.9602119431978,244.58833532374183 710.9430622617972,409.11830998302537" />
  <polygon fill="steelblue" points="137.05693773820286,355.41166467625817 137.05693773820286,190.8816900169746 520.9602119431978,80.05836066445826 520.9602119431978,244.58833532374183" />
  <polygon fill="lightskyblue" points="710.9430622617972,409.11830998302537 710.9430622617972,244.58833532374183 520.9602119431978,80.05836066445826 520.9602119431978,244.58833532374183" />
  <polygon fill="white" points="251.31386458492756,278.5538710312479 251.31386458492756,234.67921112210564 278.7355270281415,226.76325902549732 278.7355270281415,270.63791893463963" />
  <polygon fill="white" points="379.2816226532592,241.6127612470758 379.2816226532592,197.73810133793353 406.7032850964731,189.8221492413252 406.7032850964731,233.69680915046752" />
  <polygon fill="hsl(324.0,50.0%,72.09185257592405%)" points="449.39975475816965,314.5676744439461 449.39975475816965,276.90127891194743 455.980953744541,275.00145040876146 455.980953744541,312.6678459407601" />
  <polygon fill="hsl(324.0,50.0%,72.09185257592405%)" points="465.852752224098,309.8181031859811 465.852752224098,272.15170765398244 459.2715532377267,274.0515361571684 459.2715532377267,311.7179316891671" />
  <polygon fill="hsl(324.0,50.0%,72.09185257592405%)" points="442.8185557717983,279.17404202436114 442.8185557717983,241.8805811015902 448.5771048848733,240.21823116130247 448.5771048848733,277.5116920840734" />
  <polygon fill="hsl(324.0,50.0%,72.09185257592405%)" points="466.67540209739445,272.2871637003119 466.67540209739445,234.993702777541 472.4339512104694,233.3313528372532 472.4339512104694,270.62481376002415" />
  <polygon fill="hsl(324.0,50.0%,72.09185257592405%)" points="448.5771048848733,245.97678027437738 448.5771048848733,240.21823116130247 466.67540209739445,234.993702777541 466.67540209739445,240.7522518906159" />
  <polygon fill="hsl(324.0,50.0%,72.09185257592405%)" points="449.39975475816965,277.27421352117517 449.39975475816965,239.9807525984042 465.852752224098,235.2311813404392 465.852752224098,272.5246422632101" />
  <polygon fill="hsl(324.0,50.0%,72.09185257592405%)" points="453.5130041246518,236.9286867377744 453.5130041246518,220.1466293225275 461.73950285761595,217.771843693545 461.73950285761595,234.5539011087919" />
  <polygon fill="hsl(324.0,50.0%,72.09185257592405%)" points="455.1583038712446,238.31840265811644 455.1583038712446,219.67167219673098 460.0942031110231,218.2468008193415 460.0942031110231,236.89353128072696" />
  <polygon fill="hsl(324.0,50.0%,65.98321869946662%)" points="415.9478632122436,351.025827122321 415.9478632122436,313.35943159032234 422.5290621986149,311.4596030871364 422.5290621986149,349.12599861913503" />
  <polygon fill="hsl(324.0,50.0%,65.98321869946662%)" points="432.40086067817197,346.276255864356 432.4008606781719,308.60986033235736 425.8196616918006,310.50968883554333 425.8196616918006,348.176084367542" />
  <polygon fill="hsl(324.0,50.0%,65.98321869946662%)" points="409.3666642258722,315.63219470273606 409.3666642258722,278.3387337799651 415.12521333894716,276.6763838396774 415.12521333894716,313.9698447624483" />
  <polygon fill="hsl(324.0,50.0%,65.98321869946662%)" points="433.22351055146834,308.7453163786868 433.22351055146834,271.4518554559159 438.98205966454327,269.78950551562815 438.98205966454327,307.08296643839907" />
  <polygon fill="hsl(324.0,50.0%,65.98321869946662%)" points="415.12521333894716,282.4349329527523 415.12521333894716,276.6763838396774 433.22351055146834,271.4518554559159 433.22351055146834,277.2104045689908" />
  <polygon fill="hsl(324.0,50.0%,65.98321869946662%)" points="415.9478632122436,313.7323661995501 415.9478632122436,276.4389052767791 432.4008606781719,271.6893340188141 432.4008606781719,308.98279494158504" />
  <polygon fill="hsl(324.0,50.0%,65.98321869946662%)" points="420.06111257872567,273.3868394161493 420.06111257872567,256.6047820009024 428.28761131168983,254.22999637191992 428.28761131168983,271.01205378716685" />
  <polygon fill="hsl(324.0,50.0%,65.98321869946662%)" points="421.70641232531847,274.77655533649136 421.70641232531847,256.1298248751059 426.642311565097,254.70495349771642 426.642311565097,273.3516839591019" />
  <polygon fill="hsl(324.0,50.0%,50.65955712546234%)" points="482.4883903744228,399.04927549999206 482.4883903744228,361.3828799679934 489.0695893607941,359.4830514648074 489.06958936079417,397.1494469968061" />
  <polygon fill="hsl(324.0,50.0%,50.65955712546234%)" points="498.9413878403512,394.2997042420271 498.9413878403512,356.6333087100284 492.3601888539798,358.5331372132144 492.3601888539798,396.19953274521305" />
  <polygon fill="hsl(324.0,50.0%,50.65955712546234%)" points="475.9071913880515,363.65564308040706 475.90719138805144,326.36218215763614 481.6657405011264,324.6998322173484 481.6657405011264,361.99329314011936" />
  <polygon fill="hsl(324.0,50.0%,50.65955712546234%)" points="499.7640377136476,356.7687647563578 499.7640377136476,319.4753038335869 505.52258682672255,317.81295389329915 505.52258682672255,355.1064148160701" />
  <polygon fill="hsl(324.0,50.0%,50.65955712546234%)" points="481.6657405011264,330.4583813304233 481.6657405011264,324.6998322173484 499.7640377136476,319.4753038335869 499.7640377136476,325.23385294666184" />
  <polygon fill="hsl(324.0,50.0%,50.65955712546234%)" points="482.4883903744228,361.7558145772211 482.4883903744228,324.46235365445017 498.9413878403512,319.7127823964852 498.9413878403512,357.0062433192561" />
  <polygon fill="hsl(324.0,50.0%,50.65955712546234%)" points="486.6016397409049,321.4102877938204 486.6016397409049,304.62823037857345 494.8281384738691,302.2534447495909 494.8281384738691,319.03550216483785" />
  <polygon fill="hsl(324.0,50.0%,50.65955712546234%)" points="488.24693948749774,322.8000037141624 488.24693948749774,304.15327325277696 493.18283872727625,302.7284018753875 493.18283872727625,321.37513233677294" />
  <polygon fill="hsl(324.0,50.0%,42.21758785095096%)" points="351.13511571088077,474.006552831221 351.13511571088077,436.34015729922237 357.71631469725213,434.44032879603634 357.71631469725213,472.106724328035" />
  <polygon fill="hsl(324.0,50.0%,42.21758785095096%)" points="367.58811317680914,469.256981573256 367.58811317680914,431.5905860412573 361.00691419043784,433.4904145444433 361.00691419043784,471.15681007644196" />
  <polygon fill="hsl(324.0,50.0%,42.21758785095096%)" points="344.55391672450946,438.612920411636 344.55391672450946,401.3194594888651 350.3124658375844,399.65710954857735 350.3124658375844,436.9505704713483" />
  <polygon fill="hsl(324.0,50.0%,42.21758785095096%)" points="368.4107630501056,431.72604208758685 368.4107630501056,394.4325811648159 374.16931216318045,392.7702312245281 374.16931216318045,430.0636921472991" />
  <polygon fill="hsl(324.0,50.0%,42.21758785095096%)" points="350.3124658375844,405.4156586616523 350.3124658375844,399.65710954857735 368.4107630501056,394.4325811648159 368.4107630501056,400.1911302778908" />
  <polygon fill="hsl(324.0,50.0%,42.21758785095096%)" points="351.13511571088077,436.71309190845 351.13511571088077,399.4196309856791 367.58811317680914,394.67005972771415 367.58811317680914,431.96352065048507" />
  <polygon fill="hsl(324.0,50.0%,42.21758785095096%)" points="355.2483650773629,396.3675651250493 355.2483650773629,379.5855077098024 363.47486381032707,377.2107220808199 363.47486381032707,393.9927794960668" />
  <polygon fill="hsl(324.0,50.0%,42.21758785095096%)" points="356.89366482395576,397.7572810453913 356.89366482395576,379.1105505840059 361.8295640637342,377.68567920661644 361.8295640637342,396.33240966800184" />
</svg>
