<?xml version="1.0" encoding="UTF-8"?>
<svg
  xmlns="http://www.w3.org/2000/svg"
  width="848"
  height="600"
  style="background-color:white"
>
  <polygon fill="lightblue" points="327.0397880568022,519.9416393355417 137.05693773820286,355.41166467625817 520.9602119431978,244.58833532374183 710.9430622617972,409.11830998302537" />
  <polygon fill="steelblue" points="137.05693773820286,355.41166467625817 137.05693773820286,190.8816900169746 520.9602119431978,80.05836066445826 520.9602119431978,244.58833532374183" />
  <polygon fill="lightskyblue" points="710.9430622617972,409.11830998302537 710.9430622617972,244.58833532374183 520.9602119431978,80.05836066445826 520.9602119431978,244.58833532374183" />
  <polygon fill="white" points="625.4507796184274,335.0798213863478 625.4507796184274,230.87750410213488 606.4524945865676,214.4245066362065 606.4524945865676,318.62682392041944" />
  <polygon fill="white" points="200.12676135759486,293.3303149449168 200.12676135759486,249.45565503577447 227.5484238008088,241.53970293916618 227.5484238008088,285.41436284830843" />
  <polygon fill="white" points="276.90741619859386,271.1656490744135 276.90741619859386,227.2909891652712 304.32907864180777,219.3750370686629 304.32907864180777,263.2496969778052" />
  <polygon fill="white" points="353.68807103959284,249.00098320391024 353.68807103959284,205.12632329476796 381.10973348280675,197.21037119815963 381.10973348280675,241.08503110730192" />
  <polygon fill="white" points="430.4687258805918,226.83631733340695 430.4687258805918,182.96165742426467 457.8903883238058,175.04570532765638 457.8903883238058,218.92036523679866" />
  <polygon fill="hsl(288.0,50.0%,50.65955712546234%)" points="482.4883903744228,399.04927549999206 482.4883903744228,361.3828799679934 489.0695893607941,359.4830514648074 489.06958936079417,397.1494469968061" />
  <polygon fill="hsl(288.0,50.0%,50.65955712546234%)" points="498.9413878403512,394.2997042420271 498.9413878403512,356.6333087100284 492.3601888539798,358.5331372132144 492.3601888539798,396.19953274521305" />
  <polygon fill="hsl(288.0,50.0%,50.65955712546234%)" points="475.9071913880515,363.65564308040706 475.90719138805144,326.36218215763614 481.6657405011264,324.6998322173484 481.6657405011264,361.99329314011936" />
  <polygon fill="hsl(288.0,50.0%,50.65955712546234%)" points="499.7640377136476,356.7687647563578 499.7640377136476,319.4753038335869 505.52258682672255,317.81295389329915 505.52258682672255,355.1064148160701" />
  <polygon fill="hsl(288.0,50.0%,50.65955712546234%)" points="481.6657405011264,330.4583813304233 481.6657405011264,324.6998322173484 499.7640377136476,319.4753038335869 499.7640377136476,325.23385294666184" />
  <polygon fill="hsl(288.0,50.0%,50.65955712546234%)" points="482.4883903744228,361.7558145772211 482.4883903744228,324.46235365445017 498.9413878403512,319.7127823964852 498.9413878403512,357.0062433192561" />
  <polygon fill="hsl(288.0,50.0%,50.65955712546234%)" points="486.6016397409049,321.4102877938204 486.6016397409049,304.62823037857345 494.8281384738691,302.2534447495909 494.8281384738691,319.03550216483785" />
  <polygon fill="hsl(288.0,50.0%,50.65955712546234%)" points="488.24693948749774,322.8000037141624 488.24693948749774,304.15327325277696 493.18283872727625,302.7284018753875 493.18283872727625,321.37513233677294" />
</svg>
