<?xml version="1.0" encoding="UTF-8"?>
<svg
  xmlns="http://www.w3.org/2000/svg"
  width="848"
  height="600"
  style="background-color:white"
>
  <polygon fill="lightblue" points="313.0082644276318,520.3803595246859 95.5321898270534,332.04055420526527 534.9917355723682,205.17951068826113 752.4678101729467,393.5193160076818" />
  <polygon fill="steelblue" points="95.5321898270534,332.04055420526527 95.5321898270534,206.4806839923182 534.9917355723682,79.61964047531404 534.9917355723682,205.17951068826113" />
  <polygon fill="lightskyblue" points="752.4678101729467,393.5193160076818 752.4678101729467,267.95944579473473 534.9917355723682,79.61964047531404 534.9917355723682,205.17951068826113" />
  <polygon fill="white" points="654.6035766026863,308.7664036139425 654.6035766026863,189.48452691164277 632.8559691426285,170.65054637970073 632.8559691426285,289.93242308200047" />
  <polygon fill="hsl(324.0,50.0%,50.65955712546234%)" points="490.95249348562095,381.9931488261929 490.95249348562095,338.87588939506685 498.4860856983978,336.70112864906105 498.4860856983978,379.8183880801871" />
  <polygon fill="hsl(324.0,50.0%,50.65955712546234%)" points="509.7864740175631,376.55624696117843 509.7864740175631,333.4389875300524 502.2528818047862,335.6137482760582 502.2528818047862,378.7310077071842" />
  <polygon fill="hsl(324.0,50.0%,50.65955712546234%)" points="483.41890127284415,341.47755369979666 483.41890127284415,298.78719782739466 490.0107944590239,296.88428217463957 490.0107944590239,339.5746380470416" />
  <polygon fill="hsl(324.0,50.0%,50.65955712546234%)" points="510.72817304416014,333.5940459955257 510.72817304416014,290.9036901231237 517.3200662303399,289.0007744703686 517.3200662303399,331.69113034277063" />
  <polygon fill="hsl(324.0,50.0%,50.65955712546234%)" points="490.0107944590239,303.4761753608193 490.0107944590239,296.88428217463957 510.72817304416014,290.9036901231237 510.72817304416014,297.4955833093034" />
  <polygon fill="hsl(324.0,50.0%,50.65955712546234%)" points="490.95249348562095,339.30279295379086 490.95249348562095,296.61243708138886 509.7864740175631,291.1755352163744 509.7864740175631,333.8658910887764" />
  <polygon fill="hsl(324.0,50.0%,50.65955712546234%)" points="495.6609886186065,293.11869382151514 495.6609886186065,273.90803367893426 505.07797888457753,271.189582746427 505.07797888457753,290.4002428890079" />
  <polygon fill="hsl(324.0,50.0%,50.65955712546234%)" points="497.54438667180074,294.70952142863376 497.54438667180074,273.3643434924328 503.19458083138335,271.73327293292846 503.19458083138335,293.0784508691295" />
  <polygon fill="hsl(324.0,50.0%,42.21758785095096%)" points="340.5905291722447,467.79781177027064 340.5905291722447,424.68055233914464 348.12412138502157,422.50579159313884 348.12412138502157,465.6230510242649" />
  <polygon fill="hsl(324.0,50.0%,42.21758785095096%)" points="359.4245097041868,462.3609099052562 359.4245097041868,419.24365047413016 351.89091749141,421.4184112201359 351.89091749141,464.53567065126197" />
  <polygon fill="hsl(324.0,50.0%,42.21758785095096%)" points="333.056936959468,427.28221664387445 333.056936959468,384.5918607714724 339.64883014564765,382.68894511871736 339.64883014564765,425.37930099111935" />
  <polygon fill="hsl(324.0,50.0%,42.21758785095096%)" points="360.3662087307839,419.39870893960347 360.3662087307839,376.7083530672014 366.95810191696364,374.8054374144464 366.95810191696364,417.4957932868484" />
  <polygon fill="hsl(324.0,50.0%,42.21758785095096%)" points="339.64883014564765,389.2808383048971 339.64883014564765,382.68894511871736 360.3662087307839,376.7083530672014 360.3662087307839,383.30024625338115" />
  <polygon fill="hsl(324.0,50.0%,42.21758785095096%)" points="340.5905291722447,425.10745589786865 340.5905291722447,382.41710002546665 359.4245097041868,376.9801981604522 359.4245097041868,419.67055403285417" />
  <polygon fill="hsl(324.0,50.0%,42.21758785095096%)" points="345.29902430523026,378.9233567655929 345.29902430523026,359.712696623012 354.7160145712013,356.9942456905048 354.7160145712013,376.2049058330857" />
  <polygon fill="hsl(324.0,50.0%,42.21758785095096%)" points="347.1824223584245,380.51418437271155 347.1824223584245,359.1690064365106 352.83261651800706,357.53793587700625 352.83261651800706,378.8831138132072" />
</svg>
