<?xml version="1.0" encoding="UTF-8"?>
<svg
  xmlns="http://www.w3.org/2000/svg"
  width="848"
  height="600"
  style="background-color:white"
>
  <polygon fill="lightblue" points="313.0082644276318,520.3803595246859 95.5321898270534,332.04055420526527 534.9917355723682,205.17951068826113 752.4678101729467,393.5193160076818" />
  <polygon fill="steelblue" points="95.5321898270534,332.04055420526527 95.5321898270534,206.4806839923182 534.9917355723682,79.61964047531404 534.9917355723682,205.17951068826113" />
  <polygon fill="lightskyblue" points="752.4678101729467,393.5193160076818 752.4678101729467,267.95944579473473 534.9917355723682,79.61964047531404 534.9917355723682,205.17951068826113" />
  <polygon fill="white" points="654.6035766026863,308.7664036139425 654.6035766026863,189.48452691164277 632.8559691426285,170.65054637970073 632.8559691426285,289.93242308200047" />
  <polygon fill="white" points="226.3237212988733,244.06034316859711 226.3237212988733,193.83639508341827 257.71368885211007,184.77489197506083 257.71368885211007,234.99884006023967" />
  <polygon fill="white" points="372.81023654731155,201.77332866292906 372.81023654731155,151.54938057775024 404.2002041005483,142.4878774693928 404.2002041005483,192.71182555457165" />
  <polygon fill="grey" points="521.7247742358463,148.32208193482134 521.7247742358463,116.9321143815846 553.114741789083,107.87061127322713 553.114741789083,139.2605788264639" />
  <polygon fill="lightgrey" points="521.7247742358463,148.32208193482134 521.7247742358463,116.9321143815846 503.60176801913144,101.23713060496621 503.60176801913144,132.62709815820298" />
  <polygon fill="darkgrey" points="521.7247742358463,116.9321143815846 503.60176801913144,101.23713060496621 534.9917355723682,92.17562749660874 553.114741789083,107.87061127322713" />
  <polygon fill="hsl(288.0,50.0%,50.65955712546234%)" points="490.95249348562095,381.9931488261929 490.95249348562095,338.87588939506685 498.4860856983978,336.70112864906105 498.4860856983978,379.8183880801871" />
  <polygon fill="hsl(288.0,50.0%,50.65955712546234%)" points="509.7864740175631,376.55624696117843 509.7864740175631,333.4389875300524 502.2528818047862,335.6137482760582 502.2528818047862,378.7310077071842" />
  <polygon fill="hsl(288.0,50.0%,50.65955712546234%)" points="483.41890127284415,341.47755369979666 483.41890127284415,298.78719782739466 490.0107944590239,296.88428217463957 490.0107944590239,339.5746380470416" />
  <polygon fill="hsl(288.0,50.0%,50.65955712546234%)" points="510.72817304416014,333.5940459955257 510.72817304416014,290.9036901231237 517.3200662303399,289.0007744703686 517.3200662303399,331.69113034277063" />
  <polygon fill="hsl(288.0,50.0%,50.65955712546234%)" points="490.0107944590239,303.4761753608193 490.0107944590239,296.88428217463957 510.72817304416014,290.9036901231237 510.72817304416014,297.4955833093034" />
  <polygon fill="hsl(288.0,50.0%,50.65955712546234%)" points="490.95249348562095,339.30279295379086 490.95249348562095,296.61243708138886 509.7864740175631,291.1755352163744 509.7864740175631,333.8658910887764" />
  <polygon fill="hsl(288.0,50.0%,50.65955712546234%)" points="495.6609886186065,293.11869382151514 495.6609886186065,273.90803367893426 505.07797888457753,271.189582746427 505.07797888457753,290.4002428890079" />
  <polygon fill="hsl(288.0,50.0%,50.65955712546234%)" points="497.54438667180074,294.70952142863376 497.54438667180074,273.3643434924328 503.19458083138335,271.73327293292846 503.19458083138335,293.0784508691295" />
</svg>
