<?xml version="1.0" encoding="UTF-8"?>
<svg
  xmlns="http://www.w3.org/2000/svg"
  width="848"
  height="600"
  style="background-color:white"
>
  <polygon fill="lightblue" points="335.9058010963232,524.744474786564 163.29492629688684,375.25907224079685 512.0941989036768,274.5693952744589 684.7050737031132,424.054797820226" />
  <polygon fill="steelblue" points="163.29492629688684,375.25907224079685 163.29492629688684,175.94520217977401 512.0941989036768,75.25552521343604 512.0941989036768,274.5693952744589" />
  <polygon fill="lightskyblue" points="684.7050737031132,424.054797820226 684.7050737031132,224.74092775920315 512.0941989036768,75.25552521343604 512.0941989036768,274.5693952744589" />
  <polygon fill="white" points="325.23744572146785,288.6475196370782 325.23744572146785,248.78474562487364 350.1516794790957,241.5926258415638 350.1516794790957,281.45539985376837" />
  <polygon fill="hsl(324.0,50.0%,72.09185257592405%)" points="447.07720871197813,338.14984436851233 447.0772087119781,303.92765287903467 453.0566248138088,302.20154413104035 453.0566248138088,336.42373562051796" />
  <polygon fill="hsl(324.0,50.0%,72.09185257592405%)" points="462.02574896655483,333.83457249852637 462.02574896655483,299.61238100904876 456.04633286472415,301.33848975704313 456.04633286472415,335.56068124652074" />
  <polygon fill="hsl(324.0,50.0%,72.09185257592405%)" points="441.0977926101474,305.99259520613276 441.0977926101474,272.10923729575893 446.3297816992493,270.59889214126383 446.3297816992493,304.4822500516377" />
  <polygon fill="hsl(324.0,50.0%,72.09185257592405%)" points="462.7731759792837,299.7354509946532 462.7731759792837,265.8520930842793 468.00516506838557,264.3417479297843 468.00516506838557,298.2251058401581" />
  <polygon fill="hsl(324.0,50.0%,72.09185257592405%)" points="446.3297816992493,275.83088123036566 446.3297816992493,270.59889214126383 462.7731759792837,265.8520930842793 462.7731759792837,271.0840821733812" />
  <polygon fill="hsl(324.0,50.0%,72.09185257592405%)" points="447.0772087119781,304.26648645813844 447.0772087119781,270.38312854776456 462.02574896655483,266.06785667777865 462.02574896655483,299.9512145881525" />
  <polygon fill="hsl(324.0,50.0%,72.09185257592405%)" points="450.8143437756223,267.61014268474935 450.8143437756223,252.36263162508112 458.28861390291064,250.20499569008817 458.28861390291064,265.4525067497564" />
  <polygon fill="hsl(324.0,50.0%,72.09185257592405%)" points="452.30919780107996,268.87278339326946 452.30919780107996,251.93110443808254 456.793759877453,250.63652287708678 456.793759877453,267.5782018322737" />
  <polygon fill="hsl(324.0,50.0%,65.98321869946662%)" points="416.6841482133333,371.27427437275895 416.6841482133333,337.05208288328134 422.66356431516397,335.32597413528697 422.66356431516397,369.5481656247646" />
  <polygon fill="hsl(324.0,50.0%,65.98321869946662%)" points="431.63268846791,366.95900250277305 431.63268846791,332.73681101329544 425.6532723660793,334.46291976128975 425.6532723660793,368.6851112507674" />
  <polygon fill="hsl(324.0,50.0%,65.98321869946662%)" points="410.7047321115026,339.11702521037944 410.7047321115026,305.23366730000555 415.93672120060444,303.7233221455105 415.93672120060444,337.60668005588434" />
  <polygon fill="hsl(324.0,50.0%,65.98321869946662%)" points="432.38011548063884,332.8598809988998 432.38011548063884,298.976523088526 437.61210456974067,297.4661779340309 437.6121045697407,331.3495358444048" />
  <polygon fill="hsl(324.0,50.0%,65.98321869946662%)" points="415.93672120060444,308.95531123461234 415.93672120060444,303.7233221455105 432.38011548063884,298.976523088526 432.38011548063884,304.2085121776278" />
  <polygon fill="hsl(324.0,50.0%,65.98321869946662%)" points="416.6841482133333,337.39091646238506 416.6841482133333,303.5075585520112 431.63268846791,299.19228668202527 431.63268846791,333.07564459239916" />
  <polygon fill="hsl(324.0,50.0%,65.98321869946662%)" points="420.4212832769774,300.734572688996 420.4212832769774,285.4870616293278 427.8955534042658,283.3294256943348 427.8955534042658,298.57693675400304" />
  <polygon fill="hsl(324.0,50.0%,65.98321869946662%)" points="421.9161373024351,301.99721339751613 421.9161373024351,285.0555344423292 426.40069937880816,283.7609528813334 426.40069937880816,300.70263183652037" />
  <polygon fill="hsl(324.0,50.0%,50.65955712546234%)" points="477.1402292954844,414.9064728656976 477.14022929548435,380.68428137621993 483.1196453973151,378.9581726282256 483.1196453973151,413.1803641177032" />
  <polygon fill="hsl(324.0,50.0%,50.65955712546234%)" points="492.0887695500611,410.5912009957117 492.0887695500611,376.369009506234 486.1093534482304,378.0951182542284 486.1093534482304,412.317309743706" />
  <polygon fill="hsl(324.0,50.0%,50.65955712546234%)" points="471.1608131936537,382.7492237033181 471.1608131936537,348.8658657929442 476.39280228275555,347.3555206384491 476.39280228275555,381.238878548823" />
  <polygon fill="hsl(324.0,50.0%,50.65955712546234%)" points="492.83619656278995,376.49207949183847 492.83619656278995,342.6087215814646 498.0681856518918,341.09837642696954 498.0681856518918,374.98173433734337" />
  <polygon fill="hsl(324.0,50.0%,50.65955712546234%)" points="476.39280228275555,352.587509727551 476.39280228275555,347.3555206384491 492.83619656278995,342.6087215814646 492.83619656278995,347.84071067056647" />
  <polygon fill="hsl(324.0,50.0%,50.65955712546234%)" points="477.14022929548435,381.0231149553237 477.14022929548435,347.1397570449498 492.0887695500611,342.8244851749639 492.0887695500611,376.70784308533774" />
  <polygon fill="hsl(324.0,50.0%,50.65955712546234%)" points="480.87736435912853,344.3667711819346 480.87736435912853,329.1192601222664 488.35163448641697,326.96162418727346 488.35163448641697,342.2091352469417" />
  <polygon fill="hsl(324.0,50.0%,50.65955712546234%)" points="482.37221838458623,345.6294118904547 482.37221838458623,328.68773293526783 486.85678046095927,327.39315137427207 486.85678046095927,344.33483032945895" />
  <polygon fill="hsl(324.0,50.0%,42.21758785095096%)" points="357.7978591319552,483.0096789763005 357.7978591319552,448.7874874868229 363.77727523378593,447.0613787388285 363.77727523378593,481.28357022830613" />
  <polygon fill="hsl(324.0,50.0%,42.21758785095096%)" points="372.74639938653195,478.6944071063146 372.74639938653195,444.47221561683693 366.76698328470127,446.19832436483136 366.76698328470127,480.420515854309" />
  <polygon fill="hsl(324.0,50.0%,42.21758785095096%)" points="351.81844303012457,450.85242981392093 351.81844303012457,416.9690719035471 357.0504321192264,415.45872674905206 357.0504321192264,449.3420846594259" />
  <polygon fill="hsl(324.0,50.0%,42.21758785095096%)" points="373.4938263992608,444.59528560244144 373.4938263992608,410.71192769206755 378.7258154883626,409.20158253757245 378.7258154883626,443.08494044794634" />
  <polygon fill="hsl(324.0,50.0%,42.21758785095096%)" points="357.0504321192264,420.6907158381539 357.0504321192264,415.45872674905206 373.4938263992608,410.71192769206755 373.4938263992608,415.9439167811694" />
  <polygon fill="hsl(324.0,50.0%,42.21758785095096%)" points="357.7978591319552,449.1263210659266 357.7978591319552,415.24296315555273 372.74639938653195,410.9276912855668 372.74639938653195,444.8110491959407" />
  <polygon fill="hsl(324.0,50.0%,42.21758785095096%)" points="361.53499419559944,412.4699772925376 361.53499419559944,397.22246623286935 369.00926432288776,395.06483029787637 369.00926432288776,410.3123413575446" />
  <polygon fill="hsl(324.0,50.0%,42.21758785095096%)" points="363.0298482210571,413.73261800105763 363.0298482210571,396.79093904587074 367.51441029743006,395.496357484875 367.51441029743006,412.43803644006186" />
</svg>
