<?xml version="1.0" encoding="UTF-8"?>
<svg
  xmlns="http://www.w3.org/2000/svg"
  width="848"
  height="600"
  style="background-color:white"
>
  <polygon fill="lightblue" points="313.0082644276318,520.3803595246859 95.5321898270534,332.04055420526527 534.9917355723682,205.17951068826113 752.4678101729467,393.5193160076818" />
  <polygon fill="steelblue" points="95.5321898270534,332.04055420526527 95.5321898270534,206.4806839923182 534.9917355723682,79.61964047531404 534.9917355723682,205.17951068826113" />
  <polygon fill="lightskyblue" points="752.4678101729467,393.5193160076818 752.4678101729467,267.95944579473473 534.9917355723682,79.61964047531404 534.9917355723682,205.17951068826113" />
  <polygon fill="white" points="654.6035766026863,308.7664036139425 654.6035766026863,183.2065334009954 632.8559691426285,164.37255286905335 632.8559691426285,289.93242308200047" />
  <polygon fill="white" points="189.7020924867637,254.63209679501415 189.7020924867637,204.4081487098353 221.09206004000046,195.34664560147786 221.09206004000046,245.5705936866567" />
  <polygon fill="white" points="299.5669789230924,222.9168359157631 299.5669789230924,172.69288783058425 330.95694647632916,163.6313847222268 330.95694647632916,213.85533280740566" />
  <polygon fill="white" points="409.4318653594211,191.20157503651205 409.4318653594211,140.9776269513332 440.8218329126579,131.9161238429758 440.8218329126579,182.1400719281546" />
  <polygon fill="hsl(288.0,50.0%,50.65955712546234%)" points="490.95249348562095,381.9931488261929 490.95249348562095,338.87588939506685 498.4860856983978,336.70112864906105 498.4860856983978,379.8183880801871" />
  <polygon fill="hsl(288.0,50.0%,50.65955712546234%)" points="509.7864740175631,376.55624696117843 509.7864740175631,333.4389875300524 502.2528818047862,335.6137482760582 502.2528818047862,378.7310077071842" />
  <polygon fill="hsl(288.0,50.0%,50.65955712546234%)" points="483.41890127284415,341.47755369979666 483.41890127284415,298.78719782739466 490.0107944590239,296.88428217463957 490.0107944590239,339.5746380470416" />
  <polygon fill="hsl(288.0,50.0%,50.65955712546234%)" points="510.72817304416014,333.5940459955257 510.72817304416014,290.9036901231237 517.3200662303399,289.0007744703686 517.3200662303399,331.69113034277063" />
  <polygon fill="hsl(288.0,50.0%,50.65955712546234%)" points="490.0107944590239,303.4761753608193 490.0107944590239,296.88428217463957 510.72817304416014,290.9036901231237 510.72817304416014,297.4955833093034" />
  <polygon fill="hsl(288.0,50.0%,50.65955712546234%)" points="490.95249348562095,339.30279295379086 490.95249348562095,296.61243708138886 509.7864740175631,291.1755352163744 509.7864740175631,333.8658910887764" />
  <polygon fill="hsl(288.0,50.0%,50.65955712546234%)" points="495.6609886186065,293.11869382151514 495.6609886186065,273.90803367893426 505.07797888457753,271.189582746427 505.07797888457753,290.4002428890079" />
  <polygon fill="hsl(288.0,50.0%,50.65955712546234%)" points="497.54438667180074,294.70952142863376 497.54438667180074,273.3643434924328 503.19458083138335,271.73327293292846 503.19458083138335,293.0784508691295" />
</svg>
