<?xml version="1.0" encoding="UTF-8"?>
<svg
  xmlns="http://www.w3.org/2000/svg"
  width="848"
  height="600"
  style="background-color:white"
>
  <polygon fill="lightblue" points="335.9058010963232,524.744474786564 163.29492629688684,375.25907224079685 512.0941989036768,274.5693952744589 684.7050737031132,424.054797820226" />
  <polygon fill="steelblue" points="163.29492629688684,375.25907224079685 163.29492629688684,175.94520217977401 512.0941989036768,75.25552521343604 512.0941989036768,274.5693952744589" />
  <polygon fill="lightskyblue" points="684.7050737031132,424.054797820226 684.7050737031132,224.74092775920315 512.0941989036768,75.25552521343604 512.0941989036768,274.5693952744589" />
  <polygon fill="white" points="578.2617009101274,331.87213291700294 578.2617009101274,232.21519788649152 561.0006134301838,217.2666576319148 561.0006134301838,316.92359266242624" />
  <polygon fill="white" points="635.7986591766062,381.7006004322586 635.7986591766062,282.0436654017472 618.5375716966626,267.0951251471705 618.5375716966626,366.7520601776819" />
  <polygon fill="grey" points="501.5642047126686,129.7846891362388 501.5642047126686,104.87045537861098 526.4784384702965,97.67833559530109 526.4784384702965,122.59256935292896" />
  <polygon fill="lightgrey" points="501.5642047126686,129.7846891362388 501.5642047126686,104.87045537861098 487.1799651460489,92.41333849979705 487.1799651460489,117.32757225742489" />
  <polygon fill="darkgrey" points="501.5642047126686,104.87045537861098 487.1799651460489,92.41333849979705 512.0941989036768,85.22121871648719 526.4784384702965,97.67833559530109" />
  <polygon fill="hsl(288.0,50.0%,50.65955712546234%)" points="477.1402292954844,414.9064728656976 477.14022929548435,380.68428137621993 483.1196453973151,378.9581726282256 483.1196453973151,413.1803641177032" />
  <polygon fill="hsl(288.0,50.0%,50.65955712546234%)" points="492.0887695500611,410.5912009957117 492.0887695500611,376.369009506234 486.1093534482304,378.0951182542284 486.1093534482304,412.317309743706" />
  <polygon fill="hsl(288.0,50.0%,50.65955712546234%)" points="471.1608131936537,382.7492237033181 471.1608131936537,348.8658657929442 476.39280228275555,347.3555206384491 476.39280228275555,381.238878548823" />
  <polygon fill="hsl(288.0,50.0%,50.65955712546234%)" points="492.83619656278995,376.49207949183847 492.83619656278995,342.6087215814646 498.0681856518918,341.09837642696954 498.0681856518918,374.98173433734337" />
  <polygon fill="hsl(288.0,50.0%,50.65955712546234%)" points="476.39280228275555,352.587509727551 476.39280228275555,347.3555206384491 492.83619656278995,342.6087215814646 492.83619656278995,347.84071067056647" />
  <polygon fill="hsl(288.0,50.0%,50.65955712546234%)" points="477.14022929548435,381.0231149553237 477.14022929548435,347.1397570449498 492.0887695500611,342.8244851749639 492.0887695500611,376.70784308533774" />
  <polygon fill="hsl(288.0,50.0%,50.65955712546234%)" points="480.87736435912853,344.3667711819346 480.87736435912853,329.1192601222664 488.35163448641697,326.96162418727346 488.35163448641697,342.2091352469417" />
  <polygon fill="hsl(288.0,50.0%,50.65955712546234%)" points="482.37221838458623,345.6294118904547 482.37221838458623,328.68773293526783 486.85678046095927,327.39315137427207 486.85678046095927,344.33483032945895" />
</svg>
