<?xml version="1.0" encoding="UTF-8"?>
<svg
  xmlns="http://www.w3.org/2000/svg"
  width="848"
  height="600"
  style="background-color:white"
>
  <polygon fill="lightblue" points="313.0082644276318,520.3803595246859 95.5321898270534,332.04055420526527 534.9917355723682,205.17951068826113 752.4678101729467,393.5193160076818" />
  <polygon fill="steelblue" points="95.5321898270534,332.04055420526527 95.5321898270534,206.4806839923182 534.9917355723682,79.61964047531404 534.9917355723682,205.17951068826113" />
  <polygon fill="lightskyblue" points="752.4678101729467,393.5193160076818 752.4678101729467,267.95944579473473 534.9917355723682,79.61964047531404 534.9917355723682,205.17951068826113" />
  <polygon fill="white" points="618.3575641692566,277.3764360607057 618.3575641692566,151.81656584775865 596.6099567091987,132.98258531581658 596.6099567091987,258.54245552876364" />
  <polygon fill="white" points="690.8495890361161,340.15637116717926 690.8495890361161,214.59650095423217 669.1019815760583,195.76252042229012 669.1019815760583,321.32239063523724" />
  <polygon fill="white" points="189.7020924867637,254.63209679501415 189.7020924867637,204.4081487098353 221.09206004000046,195.34664560147786 221.09206004000046,245.5705936866567" />
  <polygon fill="white" points="299.5669789230924,222.9168359157631 299.5669789230924,172.69288783058425 330.95694647632916,163.6313847222268 330.95694647632916,213.85533280740566" />
  <polygon fill="white" points="409.4318653594211,191.20157503651205 409.4318653594211,140.9776269513332 440.8218329126579,131.9161238429758 440.8218329126579,182.1400719281546" />
  <polygon fill="grey" points="521.7247742358463,148.32208193482134 521.7247742358463,116.9321143815846 553.114741789083,107.87061127322713 553.114741789083,139.2605788264639" />
  <polygon fill="lightgrey" points="521.7247742358463,148.32208193482134 521.7247742358463,116.9321143815846 503.60176801913144,101.23713060496621 503.60176801913144,132.62709815820298" />
  <polygon fill="darkgrey" points="521.7247742358463,116.9321143815846 503.60176801913144,101.23713060496621 534.9917355723682,92.17562749660874 553.114741789083,107.87061127322713" />
  <polygon fill="hsl(360.0,50.0%,72.09185257592405%)" points="453.07546102903854,285.2858568636285 453.07546102903854,242.16859743250245 460.6090532418154,239.99383668649668 460.6090532418154,283.1110961176227" />
  <polygon fill="hsl(360.0,50.0%,72.09185257592405%)" points="471.90944156098067,279.84895499861403 471.90944156098067,236.731695567488 464.3758493482038,238.90645631349378 464.3758493482038,282.02371574461984" />
  <polygon fill="hsl(360.0,50.0%,72.09185257592405%)" points="445.54186881626174,244.77026173723226 445.54186881626174,202.07990586483027 452.1337620024415,200.17699021207517 452.1337620024415,242.86734608447722" />
  <polygon fill="hsl(360.0,50.0%,72.09185257592405%)" points="472.8511405875778,236.8867540329613 472.8511405875778,194.19639816055928 479.4430337737575,192.2934825078042 479.4430337737575,234.98383838020624" />
  <polygon fill="hsl(360.0,50.0%,72.09185257592405%)" points="452.1337620024415,206.7688833982549 452.1337620024415,200.17699021207517 472.8511405875778,194.19639816055928 472.8511405875778,200.78829134673902" />
  <polygon fill="hsl(360.0,50.0%,72.09185257592405%)" points="453.07546102903854,242.5955009912265 453.07546102903854,199.9051451188245 471.90944156098067,194.46824325381002 471.90944156098067,237.158599126212" />
  <polygon fill="hsl(360.0,50.0%,72.09185257592405%)" points="457.7839561620241,196.41140185895074 457.7839561620241,177.20074171636986 467.2009464279951,174.48229078386265 467.2009464279951,193.6929509264435" />
  <polygon fill="hsl(360.0,50.0%,72.09185257592405%)" points="459.6673542152183,198.00222946606942 459.6673542152183,176.6570515298684 465.31754837480094,175.02598097036406 465.31754837480094,196.37115890656509" />
  <polygon fill="hsl(360.0,50.0%,50.65955712546234%)" points="490.95249348562095,381.9931488261929 490.95249348562095,338.87588939506685 498.4860856983978,336.70112864906105 498.4860856983978,379.8183880801871" />
  <polygon fill="hsl(360.0,50.0%,50.65955712546234%)" points="509.7864740175631,376.55624696117843 509.7864740175631,333.4389875300524 502.2528818047862,335.6137482760582 502.2528818047862,378.7310077071842" />
  <polygon fill="hsl(360.0,50.0%,50.65955712546234%)" points="483.41890127284415,341.47755369979666 483.41890127284415,298.78719782739466 490.0107944590239,296.88428217463957 490.0107944590239,339.5746380470416" />
  <polygon fill="hsl(360.0,50.0%,50.65955712546234%)" points="510.72817304416014,333.5940459955257 510.72817304416014,290.9036901231237 517.3200662303399,289.0007744703686 517.3200662303399,331.69113034277063" />
  <polygon fill="hsl(360.0,50.0%,50.65955712546234%)" points="490.0107944590239,303.4761753608193 490.0107944590239,296.88428217463957 510.72817304416014,290.9036901231237 510.72817304416014,297.4955833093034" />
  <polygon fill="hsl(360.0,50.0%,50.65955712546234%)" points="490.95249348562095,339.30279295379086 490.95249348562095,296.61243708138886 509.7864740175631,291.1755352163744 509.7864740175631,333.8658910887764" />
  <polygon fill="hsl(360.0,50.0%,50.65955712546234%)" points="495.6609886186065,293.11869382151514 495.6609886186065,273.90803367893426 505.07797888457753,271.189582746427 505.07797888457753,290.4002428890079" />
  <polygon fill="hsl(360.0,50.0%,50.65955712546234%)" points="497.54438667180074,294.70952142863376 497.54438667180074,273.3643434924328 503.19458083138335,271.73327293292846 503.19458083138335,293.0784508691295" />
  <polygon fill="hsl(360.0,50.0%,42.21758785095096%)" points="340.5905291722447,467.79781177027064 340.5905291722447,424.68055233914464 348.12412138502157,422.50579159313884 348.12412138502157,465.6230510242649" />
  <polygon fill="hsl(360.0,50.0%,42.21758785095096%)" points="359.4245097041868,462.3609099052562 359.4245097041868,419.24365047413016 351.89091749141,421.4184112201359 351.89091749141,464.53567065126197" />
  <polygon fill="hsl(360.0,50.0%,42.21758785095096%)" points="333.056936959468,427.28221664387445 333.056936959468,384.5918607714724 339.64883014564765,382.68894511871736 339.64883014564765,425.37930099111935" />
  <polygon fill="hsl(360.0,50.0%,42.21758785095096%)" points="360.3662087307839,419.39870893960347 360.3662087307839,376.7083530672014 366.95810191696364,374.8054374144464 366.95810191696364,417.4957932868484" />
  <polygon fill="hsl(360.0,50.0%,42.21758785095096%)" points="339.64883014564765,389.2808383048971 339.64883014564765,382.68894511871736 360.3662087307839,376.7083530672014 360.3662087307839,383.30024625338115" />
  <polygon fill="hsl(360.0,50.0%,42.21758785095096%)" points="340.5905291722447,425.10745589786865 340.5905291722447,382.41710002546665 359.4245097041868,376.9801981604522 359.4245097041868,419.67055403285417" />
  <polygon fill="hsl(360.0,50.0%,42.21758785095096%)" points="345.29902430523026,378.9233567655929 345.29902430523026,359.712696623012 354.7160145712013,356.9942456905048 354.7160145712013,376.2049058330857" />
  <polygon fill="hsl(360.0,50.0%,42.21758785095096%)" points="347.1824223584245,380.51418437271155 347.1824223584245,359.1690064365106 352.83261651800706,357.53793587700625 352.83261651800706,378.8831138132072" />
</svg>
