<?xml version="1.0" encoding="UTF-8"?>
<svg
  xmlns="http://www.w3.org/2000/svg"
  width="848"
  height="600"
  style="background-color:white"
>
  <polygon fill="lightblue" points="327.0397880568022,519.9416393355417 137.05693773820286,355.41166467625817 520.9602119431978,244.58833532374183 710.9430622617972,409.11830998302537" />
  <polygon fill="steelblue" points="137.05693773820286,355.41166467625817 137.05693773820286,190.8816900169746 520.9602119431978,80.05836066445826 520.9602119431978,244.58833532374183" />
  <polygon fill="lightskyblue" points="710.9430622617972,409.11830998302537 710.9430622617972,244.58833532374183 520.9602119431978,80.05836066445826 520.9602119431978,244.58833532374183" />
  <polygon fill="white" points="593.7869712319942,307.65815894313386 593.7869712319942,203.45584165892092 574.7886862001343,187.0028441929926 574.7886862001343,291.20516147720554" />
  <polygon fill="white" points="657.1145880048607,362.5014838295617 657.1145880048607,258.2991665453488 638.1163029730008,241.84616907942046 638.1163029730008,346.0484863636334" />
  <polygon fill="white" points="200.12676135759486,293.3303149449168 200.12676135759486,249.45565503577447 227.5484238008088,241.53970293916618 227.5484238008088,285.41436284830843" />
  <polygon fill="white" points="276.90741619859386,271.1656490744135 276.90741619859386,227.2909891652712 304.32907864180777,219.3750370686629 304.32907864180777,263.2496969778052" />
  <polygon fill="white" points="353.68807103959284,249.00098320391024 353.68807103959284,205.12632329476796 381.10973348280675,197.21037119815963 381.10973348280675,241.08503110730192" />
  <polygon fill="white" points="430.4687258805918,226.83631733340695 430.4687258805918,182.96165742426467 457.8903883238058,175.04570532765638 457.8903883238058,218.92036523679866" />
  <polygon fill="grey" points="509.3704536932005,140.07547140317305 509.3704536932005,112.6538089599591 536.7921161364144,104.7378568633508 536.7921161364144,132.15951930656473" />
  <polygon fill="lightgrey" points="509.3704536932005,140.07547140317305 509.3704536932005,112.6538089599591 493.5385494999839,98.94297773835217 493.5385494999839,126.36464018156607" />
  <polygon fill="darkgrey" points="509.3704536932005,112.6538089599591 493.5385494999839,98.94297773835217 520.9602119431978,91.02702564174385 536.7921161364144,104.7378568633508" />
  <polygon fill="hsl(288.0,50.0%,50.65955712546234%)" points="482.4883903744228,399.04927549999206 482.4883903744228,361.3828799679934 489.0695893607941,359.4830514648074 489.06958936079417,397.1494469968061" />
  <polygon fill="hsl(288.0,50.0%,50.65955712546234%)" points="498.9413878403512,394.2997042420271 498.9413878403512,356.6333087100284 492.3601888539798,358.5331372132144 492.3601888539798,396.19953274521305" />
  <polygon fill="hsl(288.0,50.0%,50.65955712546234%)" points="475.9071913880515,363.65564308040706 475.90719138805144,326.36218215763614 481.6657405011264,324.6998322173484 481.6657405011264,361.99329314011936" />
  <polygon fill="hsl(288.0,50.0%,50.65955712546234%)" points="499.7640377136476,356.7687647563578 499.7640377136476,319.4753038335869 505.52258682672255,317.81295389329915 505.52258682672255,355.1064148160701" />
  <polygon fill="hsl(288.0,50.0%,50.65955712546234%)" points="481.6657405011264,330.4583813304233 481.6657405011264,324.6998322173484 499.7640377136476,319.4753038335869 499.7640377136476,325.23385294666184" />
  <polygon fill="hsl(288.0,50.0%,50.65955712546234%)" points="482.4883903744228,361.7558145772211 482.4883903744228,324.46235365445017 498.9413878403512,319.7127823964852 498.9413878403512,357.0062433192561" />
  <polygon fill="hsl(288.0,50.0%,50.65955712546234%)" points="486.6016397409049,321.4102877938204 486.6016397409049,304.62823037857345 494.8281384738691,302.2534447495909 494.8281384738691,319.03550216483785" />
  <polygon fill="hsl(288.0,50.0%,50.65955712546234%)" points="488.24693948749774,322.8000037141624 488.24693948749774,304.15327325277696 493.18283872727625,302.7284018753875 493.18283872727625,321.37513233677294" />
  <polygon fill="hsl(288.0,50.0%,42.21758785095096%)" points="351.13511571088077,474.006552831221 351.13511571088077,436.34015729922237 357.71631469725213,434.44032879603634 357.71631469725213,472.106724328035" />
  <polygon fill="hsl(288.0,50.0%,42.21758785095096%)" points="367.58811317680914,469.256981573256 367.58811317680914,431.5905860412573 361.00691419043784,433.4904145444433 361.00691419043784,471.15681007644196" />
  <polygon fill="hsl(288.0,50.0%,42.21758785095096%)" points="344.55391672450946,438.612920411636 344.55391672450946,401.3194594888651 350.3124658375844,399.65710954857735 350.3124658375844,436.9505704713483" />
  <polygon fill="hsl(288.0,50.0%,42.21758785095096%)" points="368.4107630501056,431.72604208758685 368.4107630501056,394.4325811648159 374.16931216318045,392.7702312245281 374.16931216318045,430.0636921472991" />
  <polygon fill="hsl(288.0,50.0%,42.21758785095096%)" points="350.3124658375844,405.4156586616523 350.3124658375844,399.65710954857735 368.4107630501056,394.4325811648159 368.4107630501056,400.1911302778908" />
  <polygon fill="hsl(288.0,50.0%,42.21758785095096%)" points="351.13511571088077,436.71309190845 351.13511571088077,399.4196309856791 367.58811317680914,394.67005972771415 367.58811317680914,431.96352065048507" />
  <polygon fill="hsl(288.0,50.0%,42.21758785095096%)" points="355.2483650773629,396.3675651250493 355.2483650773629,379.5855077098024 363.47486381032707,377.2107220808199 363.47486381032707,393.9927794960668" />
  <polygon fill="hsl(288.0,50.0%,42.21758785095096%)" points="356.89366482395576,397.7572810453913 356.89366482395576,379.1105505840059 361.8295640637342,377.68567920661644 361.8295640637342,396.33240966800184" />
</svg>
