<?xml version="1.0" encoding="UTF-8"?>
<svg
  xmlns="http://www.w3.org/2000/svg"
  width="848"
  height="600"
  style="background-color:white"
>
  <polygon fill="lightblue" points="335.782670457732,524.2513330516182 94.76844404020903,315.5268903005887 512.217329542268,195.01977709182717 753.231555959791,403.7442198428567" />
  <polygon fill="steelblue" points="94.76844404020903,315.5268903005887 94.76844404020903,196.2557801571433 512.217329542268,75.74866694838178 512.217329542268,195.01977709182717" />
  <polygon fill="lightskyblue" points="753.231555959791,403.7442198428567 753.231555959791,284.4731096994113 512.217329542268,75.74866694838178 512.217329542268,195.01977709182717" />
  <polygon fill="white" points="602.8845861469551,273.53992460292875 602.8845861469551,154.26881445948334 582.2262238825961,136.37814793796653 582.2262238825961,255.64925808141197" />
  <polygon fill="white" points="683.2226616194629,343.1147388532719 683.2226616194629,223.8436287098265 662.5642993551038,205.9529621883097 662.5642993551038,325.2240723317551" />
  <polygon fill="white" points="149.43436952262152,252.03775284682513 149.43436952262152,204.32930878944694 179.25214705848288,195.721657845964 179.25214705848288,243.43010190334215" />
  <polygon fill="white" points="219.0091837729647,231.9532339786982 219.0091837729647,184.24478992132003 248.82696130882604,175.63713897783705 248.82696130882604,223.3455830352152" />
  <polygon fill="white" points="288.5839980233078,211.86871511057126 288.5839980233078,164.1602710531931 318.40177555916915,155.55262010971012 318.40177555916915,203.2610641670883" />
  <polygon fill="white" points="358.158812273651,191.78419624244435 358.158812273651,144.0757521850662 387.97658980951235,135.46810124158318 387.97658980951235,183.17654529896137" />
  <polygon fill="white" points="427.7336265239942,171.69967737431742 427.7336265239942,123.99123331693926 457.5514040598555,115.38358237345628 457.5514040598555,163.09202643083444" />
  <polygon fill="hsl(360.0,50.0%,50.11143025347155%)" points="495.52551018356957,384.7509091577747 495.52551018356957,343.7932099345155 502.68177679217627,341.72737370807965 502.68177679217627,382.68507293133877" />
  <polygon fill="hsl(360.0,50.0%,50.11143025347155%)" points="513.4161767050864,379.5863185916849 513.4161767050864,338.62861936842575 506.2599100964797,340.69445559486167 506.2599100964797,381.65215481812083" />
  <polygon fill="hsl(360.0,50.0%,50.11143025347155%)" points="488.36924357496287,346.2645679354392 488.36924357496287,305.7123904866677 494.63097685749375,303.9047837885363 494.63097685749375,344.4569612373077" />
  <polygon fill="hsl(360.0,50.0%,50.11143025347155%)" points="514.3107100311622,338.77591161460896 514.3107100311622,298.2237341658375 520.5724433136932,296.4161274677061 520.5724433136932,336.96830491647756" />
  <polygon fill="hsl(360.0,50.0%,50.11143025347155%)" points="494.63097685749375,310.1665170710672 494.63097685749375,303.9047837885363 514.3107100311622,298.2237341658375 514.3107100311622,304.4854674483684" />
  <polygon fill="hsl(360.0,50.0%,50.11143025347155%)" points="495.52551018356957,344.19873170900325 495.52551018356957,303.6465542602318 513.4161767050864,298.481963694142 513.4161767050864,339.0341411429135" />
  <polygon fill="hsl(360.0,50.0%,50.11143025347155%)" points="499.99817681394876,300.3277977462708 499.99817681394876,282.07931789432365 508.9435100747072,279.49702261127874 508.9435100747072,297.7455024632259" />
  <polygon fill="hsl(360.0,50.0%,50.11143025347155%)" points="501.78724346610045,301.8389475621004 501.78724346610045,281.56285883771466 507.1544434225555,280.01348166788773 507.1544434225555,300.28957039227345" />
</svg>
