<?xml version="1.0" encoding="UTF-8"?>
<svg
  xmlns="http://www.w3.org/2000/svg"
  width="848"
  height="600"
  style="background-color:white"
>
  <polygon fill="lightblue" points="346.9350642606703,521.9498117021485 136.389744338791,339.6122160018792 501.0649357393297,234.33955604093944 711.6102556612091,416.67715174120883" />
  <polygon fill="steelblue" points="136.389744338791,339.6122160018792 136.389744338791,183.32284825879117 501.0649357393297,78.05018829785143 501.0649357393297,234.33955604093944" />
  <polygon fill="lightskyblue" points="711.6102556612091,416.67715174120883 711.6102556612091,260.3877839981208 501.0649357393297,78.05018829785143 501.0649357393297,234.33955604093944" />
  <polygon fill="white" points="580.2700799004176,302.9332229948503 580.2700799004176,203.94995675756127 562.223338192828,188.32101998325248 562.223338192828,287.30428622054154" />
  <polygon fill="white" points="650.4518532077108,363.7124215616068 650.4518532077108,264.72915532431773 632.4051115001212,249.10021855000892 632.4051115001212,348.083484787298" />
  <polygon fill="white" points="196.30066864030803,280.6402571339489 196.30066864030803,238.96309240245878 222.34889659748936,231.4436166909631 222.34889659748936,273.12078142245326" />
  <polygon fill="white" points="269.2357069204158,259.585725141761 269.2357069204158,217.90856041027087 295.2839348775971,210.38908469877515 295.2839348775971,252.06624943026532" />
  <polygon fill="white" points="342.17074520052347,238.53119314957306 342.17074520052347,196.85402841808292 368.21897315770485,189.3345527065872 368.21897315770485,231.01171743807737" />
  <polygon fill="white" points="415.10578348063126,217.4766611573851 415.10578348063126,175.79949642589497 441.1540114378126,168.28002071439926 441.1540114378126,209.95718544588942" />
  <polygon fill="hsl(324.0,50.0%,73.07460395039482%)" points="435.7127668792555,303.0864901993434 435.7127668792555,267.3066442773591 441.9643415889791,265.50197010660014 441.9643415889791,301.28181602858444" />
  <polygon fill="hsl(324.0,50.0%,73.07460395039482%)" points="451.34170365356437,298.574804772446 451.34170365356437,262.7949588504617 445.09012894384085,264.59963302122065 445.09012894384085,300.37947894320496" />
  <polygon fill="hsl(324.0,50.0%,73.07460395039482%)" points="429.461192169532,269.46557434833574 429.461192169532,234.03998432656914 434.93132004054013,232.46089442715504 434.93132004054013,267.88648444892164" />
  <polygon fill="hsl(324.0,50.0%,73.07460395039482%)" points="452.1231504922798,262.9236304793345 452.1231504922798,227.49804045756787 457.59327836328794,225.91895055815377 457.59327836328794,261.34454057992036" />
  <polygon fill="hsl(324.0,50.0%,73.07460395039482%)" points="434.93132004054013,237.9310222981631 434.93132004054013,232.46089442715504 452.1231504922798,227.49804045756787 452.1231504922798,232.96816832857596" />
  <polygon fill="hsl(324.0,50.0%,73.07460395039482%)" points="435.7127668792555,267.66090017757676 435.7127668792555,232.23531015581017 451.34170365356437,227.72362472891274 451.34170365356437,263.14921475067933" />
  <polygon fill="hsl(324.0,50.0%,73.07460395039482%)" points="439.6200010728328,229.3361092979975 439.6200010728328,213.39459378820249 447.43446945998716,211.13875107475377 447.43446945998716,227.08026658454878" />
  <polygon fill="hsl(324.0,50.0%,73.07460395039482%)" points="441.18289475026364,230.65622025639607 441.18289475026364,212.94342524551277 445.8715757825563,211.58991961744354 445.8715757825563,229.30271462832684" />
  <polygon fill="hsl(324.0,50.0%,50.11143025347155%)" points="486.4832884266636,400.08496656605405 486.4832884266636,364.30512064406975 492.7348631363871,362.5004464733107 492.7348631363871,398.2802923952951" />
  <polygon fill="hsl(324.0,50.0%,50.11143025347155%)" points="502.11222520097243,395.5732811391566 502.11222520097243,359.7934352171723 495.86065049124886,361.59810938793123 495.86065049124886,397.3779553099156" />
  <polygon fill="hsl(324.0,50.0%,50.11143025347155%)" points="480.2317137169401,366.46405071504637 480.2317137169401,331.0384606932797 485.70184158794814,329.4593707938656 485.70184158794814,364.88496081563227" />
  <polygon fill="hsl(324.0,50.0%,50.11143025347155%)" points="502.8936720396879,359.9221068460451 502.8936720396879,324.4965168242785 508.36379991069595,322.9174269248644 508.36379991069595,358.343016946631" />
  <polygon fill="hsl(324.0,50.0%,50.11143025347155%)" points="485.70184158794814,334.92949866487373 485.70184158794814,329.4593707938656 502.8936720396879,324.4965168242785 502.8936720396879,329.96664469528656" />
  <polygon fill="hsl(324.0,50.0%,50.11143025347155%)" points="486.4832884266636,364.6593765442874 486.4832884266636,329.23378652252075 502.11222520097243,324.7221010956233 502.11222520097243,360.14769111738997" />
  <polygon fill="hsl(324.0,50.0%,50.11143025347155%)" points="490.3905226202408,326.3345856647081 490.3905226202408,310.3930701549131 498.2049910073952,308.1372274414644 498.2049910073952,324.07874295125936" />
  <polygon fill="hsl(324.0,50.0%,50.11143025347155%)" points="491.9534162976717,327.65469662310664 491.9534162976717,309.9419016122234 496.6420973299643,308.58839598415415 496.6420973299643,326.3011909950375" />
  <polygon fill="hsl(324.0,50.0%,41.06646317363794%)" points="369.3264427803815,477.8849027656968 369.3264427803815,442.10505684371253 375.578017490105,440.30038267295356 375.578017490105,476.08022859493786" />
  <polygon fill="hsl(324.0,50.0%,41.06646317363794%)" points="384.9553795546903,473.37321733879946 384.9553795546903,437.5933714168151 378.7038048449668,439.3980455875741 378.7038048449668,475.1778915095584" />
  <polygon fill="hsl(324.0,50.0%,41.06646317363794%)" points="363.074868070658,444.2639869146892 363.074868070658,408.83839689292256 368.54499594166606,407.25930699350846 368.54499594166606,442.68489701527506" />
  <polygon fill="hsl(324.0,50.0%,41.06646317363794%)" points="385.73682639340575,437.7220430456879 385.73682639340575,402.2964530239213 391.2069542644138,400.7173631245072 391.2069542644138,436.14295314627384" />
  <polygon fill="hsl(324.0,50.0%,41.06646317363794%)" points="368.54499594166606,412.7294348645165 368.54499594166606,407.25930699350846 385.73682639340575,402.2964530239213 385.73682639340575,407.76658089492935" />
  <polygon fill="hsl(324.0,50.0%,41.06646317363794%)" points="369.3264427803815,442.4593127439302 369.3264427803815,407.0337227221636 384.9553795546903,402.52203729526616 384.9553795546903,437.9476273170328" />
  <polygon fill="hsl(324.0,50.0%,41.06646317363794%)" points="373.2336769739587,404.1345218643509 373.2336769739587,388.1930063545559 381.04814536111314,385.9371636411072 381.04814536111314,401.8786791509022" />
  <polygon fill="hsl(324.0,50.0%,41.06646317363794%)" points="374.7965706513896,405.4546328227495 374.7965706513896,387.74183781186616 379.48525168368224,386.38833218379693 379.48525168368224,404.10112719468026" />
</svg>
