<?xml version="1.0" encoding="UTF-8"?>
<svg
  xmlns="http://www.w3.org/2000/svg"
  width="848"
  height="600"
  style="background-color:white"
>
  <polygon fill="lightblue" points="335.782670457732,524.2513330516182 94.76844404020903,315.5268903005887 512.217329542268,195.01977709182717 753.231555959791,403.7442198428567" />
  <polygon fill="steelblue" points="94.76844404020903,315.5268903005887 94.76844404020903,196.2557801571433 512.217329542268,75.74866694838178 512.217329542268,195.01977709182717" />
  <polygon fill="lightskyblue" points="753.231555959791,403.7442198428567 753.231555959791,284.4731096994113 512.217329542268,75.74866694838178 512.217329542268,195.01977709182717" />
  <polygon fill="white" points="602.8845861469551,273.53992460292875 602.8845861469551,160.23236996665565 582.2262238825961,142.34170344513885 582.2262238825961,255.64925808141197" />
  <polygon fill="white" points="683.2226616194629,343.1147388532719 683.2226616194629,229.8071842169988 662.5642993551038,211.91651769548199 662.5642993551038,325.2240723317551" />
  <polygon fill="white" points="184.2217766477931,241.99549341276168 184.2217766477931,194.2870493553835 214.03955418365445,185.67939841190054 214.03955418365445,233.3878424692787" />
  <polygon fill="white" points="288.5839980233078,211.86871511057126 288.5839980233078,164.1602710531931 318.40177555916915,155.55262010971012 318.40177555916915,203.2610641670883" />
  <polygon fill="white" points="392.94621939882256,181.7419368083809 392.94621939882256,134.0334927510027 422.7639969346839,125.42584180751976 422.7639969346839,173.13428586489792" />
  <polygon fill="grey" points="499.6148538933726,141.0100952100013 499.6148538933726,111.19231767413996 529.4326314292339,102.58466673065698 529.4326314292339,132.40244426651836" />
  <polygon fill="lightgrey" points="499.6148538933726,141.0100952100013 499.6148538933726,111.19231767413996 482.3995520064066,96.28342890620928 482.3995520064066,126.10120644207063" />
  <polygon fill="darkgrey" points="499.6148538933726,111.19231767413996 482.3995520064066,96.28342890620928 512.217329542268,87.67577796272633 529.4326314292339,102.58466673065698" />
  <polygon fill="hsl(360.0,50.0%,50.11143025347155%)" points="495.52551018356957,384.7509091577747 495.52551018356957,343.7932099345155 502.68177679217627,341.72737370807965 502.68177679217627,382.68507293133877" />
  <polygon fill="hsl(360.0,50.0%,50.11143025347155%)" points="513.4161767050864,379.5863185916849 513.4161767050864,338.62861936842575 506.2599100964797,340.69445559486167 506.2599100964797,381.65215481812083" />
  <polygon fill="hsl(360.0,50.0%,50.11143025347155%)" points="488.36924357496287,346.2645679354392 488.36924357496287,305.7123904866677 494.63097685749375,303.9047837885363 494.63097685749375,344.4569612373077" />
  <polygon fill="hsl(360.0,50.0%,50.11143025347155%)" points="514.3107100311622,338.77591161460896 514.3107100311622,298.2237341658375 520.5724433136932,296.4161274677061 520.5724433136932,336.96830491647756" />
  <polygon fill="hsl(360.0,50.0%,50.11143025347155%)" points="494.63097685749375,310.1665170710672 494.63097685749375,303.9047837885363 514.3107100311622,298.2237341658375 514.3107100311622,304.4854674483684" />
  <polygon fill="hsl(360.0,50.0%,50.11143025347155%)" points="495.52551018356957,344.19873170900325 495.52551018356957,303.6465542602318 513.4161767050864,298.481963694142 513.4161767050864,339.0341411429135" />
  <polygon fill="hsl(360.0,50.0%,50.11143025347155%)" points="499.99817681394876,300.3277977462708 499.99817681394876,282.07931789432365 508.9435100747072,279.49702261127874 508.9435100747072,297.7455024632259" />
  <polygon fill="hsl(360.0,50.0%,50.11143025347155%)" points="501.78724346610045,301.8389475621004 501.78724346610045,281.56285883771466 507.1544434225555,280.01348166788773 507.1544434225555,300.28957039227345" />
</svg>
