<?xml version="1.0" encoding="UTF-8"?>
<svg
  xmlns="http://www.w3.org/2000/svg"
  width="848"
  height="600"
  style="background-color:white"
>
  <polygon fill="lightblue" points="335.782670457732,524.2513330516182 94.76844404020903,315.5268903005887 512.217329542268,195.01977709182717 753.231555959791,403.7442198428567" />
  <polygon fill="steelblue" points="94.76844404020903,315.5268903005887 94.76844404020903,196.2557801571433 512.217329542268,75.74866694838178 512.217329542268,195.01977709182717" />
  <polygon fill="lightskyblue" points="753.231555959791,403.7442198428567 753.231555959791,284.4731096994113 512.217329542268,75.74866694838178 512.217329542268,195.01977709182717" />
  <polygon fill="white" points="602.8845861469551,273.53992460292875 602.8845861469551,154.26881445948334 582.2262238825961,136.37814793796653 582.2262238825961,255.64925808141197" />
  <polygon fill="white" points="683.2226616194629,343.1147388532719 683.2226616194629,223.8436287098265 662.5642993551038,205.9529621883097 662.5642993551038,325.2240723317551" />
  <polygon fill="white" points="184.2217766477931,241.99549341276168 184.2217766477931,194.2870493553835 214.03955418365445,185.67939841190054 214.03955418365445,233.3878424692787" />
  <polygon fill="white" points="288.5839980233078,211.86871511057126 288.5839980233078,164.1602710531931 318.40177555916915,155.55262010971012 318.40177555916915,203.2610641670883" />
  <polygon fill="white" points="392.94621939882256,181.7419368083809 392.94621939882256,134.0334927510027 422.7639969346839,125.42584180751976 422.7639969346839,173.13428586489792" />
  <polygon fill="grey" points="499.6148538933726,141.0100952100013 499.6148538933726,111.19231767413996 529.4326314292339,102.58466673065698 529.4326314292339,132.40244426651836" />
  <polygon fill="lightgrey" points="499.6148538933726,141.0100952100013 499.6148538933726,111.19231767413996 482.3995520064066,96.28342890620928 482.3995520064066,126.10120644207063" />
  <polygon fill="darkgrey" points="499.6148538933726,111.19231767413996 482.3995520064066,96.28342890620928 512.217329542268,87.67577796272633 529.4326314292339,102.58466673065698" />
  <polygon fill="hsl(288.0,50.0%,73.07460395039482%)" points="437.40777106639075,273.7153717548283 437.40777106639075,232.75767253156917 444.5640376749975,230.69183630513325 444.5640376749975,271.6495355283924" />
  <polygon fill="hsl(288.0,50.0%,73.07460395039482%)" points="455.29843758790764,268.55078118873854 455.29843758790764,227.59308196547937 448.1421709793009,229.6589181919153 448.1421709793009,270.61661741517446" />
  <polygon fill="hsl(288.0,50.0%,73.07460395039482%)" points="430.25150445778405,235.2290305324928 430.25150445778405,194.67685308372137 436.51323774031493,192.86924638558992 436.51323774031493,233.42142383436135" />
  <polygon fill="hsl(288.0,50.0%,73.07460395039482%)" points="456.19297091398346,227.74037421166258 456.19297091398346,187.18819676289118 462.45470419651434,185.38059006475973 462.45470419651434,225.93276751353116" />
  <polygon fill="hsl(288.0,50.0%,73.07460395039482%)" points="436.51323774031493,199.1309796681208 436.51323774031493,192.86924638558992 456.19297091398346,187.18819676289118 456.19297091398346,193.44993004542204" />
  <polygon fill="hsl(288.0,50.0%,73.07460395039482%)" points="437.40777106639075,233.16319430605688 437.40777106639075,192.61101685728545 455.29843758790764,187.44642629119565 455.29843758790764,227.9986037399671" />
  <polygon fill="hsl(288.0,50.0%,73.07460395039482%)" points="441.88043769677,189.29226034332441 441.88043769677,171.04378049137728 450.8257709575284,168.4614852083324 450.8257709575284,186.70996506027953" />
  <polygon fill="hsl(288.0,50.0%,73.07460395039482%)" points="443.6695043489217,190.803410159154 443.6695043489217,170.5273214347683 449.0367043053767,168.97794426494139 449.0367043053767,189.25403298932707" />
  <polygon fill="hsl(288.0,50.0%,50.11143025347155%)" points="495.52551018356957,384.7509091577747 495.52551018356957,343.7932099345155 502.68177679217627,341.72737370807965 502.68177679217627,382.68507293133877" />
  <polygon fill="hsl(288.0,50.0%,50.11143025347155%)" points="513.4161767050864,379.5863185916849 513.4161767050864,338.62861936842575 506.2599100964797,340.69445559486167 506.2599100964797,381.65215481812083" />
  <polygon fill="hsl(288.0,50.0%,50.11143025347155%)" points="488.36924357496287,346.2645679354392 488.36924357496287,305.7123904866677 494.63097685749375,303.9047837885363 494.63097685749375,344.4569612373077" />
  <polygon fill="hsl(288.0,50.0%,50.11143025347155%)" points="514.3107100311622,338.77591161460896 514.3107100311622,298.2237341658375 520.5724433136932,296.4161274677061 520.5724433136932,336.96830491647756" />
  <polygon fill="hsl(288.0,50.0%,50.11143025347155%)" points="494.63097685749375,310.1665170710672 494.63097685749375,303.9047837885363 514.3107100311622,298.2237341658375 514.3107100311622,304.4854674483684" />
  <polygon fill="hsl(288.0,50.0%,50.11143025347155%)" points="495.52551018356957,344.19873170900325 495.52551018356957,303.6465542602318 513.4161767050864,298.481963694142 513.4161767050864,339.0341411429135" />
  <polygon fill="hsl(288.0,50.0%,50.11143025347155%)" points="499.99817681394876,300.3277977462708 499.99817681394876,282.07931789432365 508.9435100747072,279.49702261127874 508.9435100747072,297.7455024632259" />
  <polygon fill="hsl(288.0,50.0%,50.11143025347155%)" points="501.78724346610045,301.8389475621004 501.78724346610045,281.56285883771466 507.1544434225555,280.01348166788773 507.1544434225555,300.28957039227345" />
  <polygon fill="hsl(288.0,50.0%,41.06646317363794%)" points="361.4144003596482,473.8096041952464 361.4144003596482,432.8519049719872 368.5706669682549,430.78606874555123 368.5706669682549,471.7437679688104" />
  <polygon fill="hsl(288.0,50.0%,41.06646317363794%)" points="379.305066881165,468.64501362915655 379.305066881165,427.6873144058974 372.1488002725583,429.7531506323333 372.1488002725583,470.71084985559247" />
  <polygon fill="hsl(288.0,50.0%,41.06646317363794%)" points="354.25813375104144,435.3232629729108 354.25813375104144,394.7710855241394 360.5198670335723,392.96347882600793 360.5198670335723,433.5156562747794" />
  <polygon fill="hsl(288.0,50.0%,41.06646317363794%)" points="380.19960020724085,427.83460665208065 380.19960020724085,387.28242920330916 386.4613334897717,385.47482250517777 386.4613334897717,426.0269999539492" />
  <polygon fill="hsl(288.0,50.0%,41.06646317363794%)" points="360.5198670335723,399.2252121085388 360.5198670335723,392.96347882600793 380.19960020724085,387.28242920330916 380.19960020724085,393.54416248584005" />
  <polygon fill="hsl(288.0,50.0%,41.06646317363794%)" points="361.4144003596482,433.2574267464749 361.4144003596482,392.70524929770346 379.305066881165,387.5406587316137 379.305066881165,428.0928361803851" />
  <polygon fill="hsl(288.0,50.0%,41.06646317363794%)" points="365.8870669900274,389.3864927837424 365.8870669900274,371.1380129317953 374.8324002507858,368.5557176487504 374.8324002507858,386.80419750069757" />
  <polygon fill="hsl(288.0,50.0%,41.06646317363794%)" points="367.6761336421791,390.897642599572 367.6761336421791,370.6215538751863 373.0433335986341,369.07217670535937 373.0433335986341,389.3482654297451" />
</svg>
