<?xml version="1.0" encoding="UTF-8"?>
<svg
  xmlns="http://www.w3.org/2000/svg"
  width="848"
  height="600"
  style="background-color:white"
>
  <polygon fill="lightblue" points="346.9350642606703,521.9498117021485 136.389744338791,339.6122160018792 501.0649357393297,234.33955604093944 711.6102556612091,416.67715174120883" />
  <polygon fill="steelblue" points="136.389744338791,339.6122160018792 136.389744338791,183.32284825879117 501.0649357393297,78.05018829785143 501.0649357393297,234.33955604093944" />
  <polygon fill="lightskyblue" points="711.6102556612091,416.67715174120883 711.6102556612091,260.3877839981208 501.0649357393297,78.05018829785143 501.0649357393297,234.33955604093944" />
  <polygon fill="white" points="615.3609665540641,333.32282227822856 615.3609665540641,234.33955604093947 597.3142248464745,218.71061926663066 597.3142248464745,317.6938855039198" />
  <polygon fill="white" points="196.30066864030803,280.6402571339489 196.30066864030803,238.96309240245878 222.34889659748936,231.4436166909631 222.34889659748936,273.12078142245326" />
  <polygon fill="white" points="269.2357069204158,259.585725141761 269.2357069204158,217.90856041027087 295.2839348775971,210.38908469877515 295.2839348775971,252.06624943026532" />
  <polygon fill="white" points="342.17074520052347,238.53119314957306 342.17074520052347,196.85402841808292 368.21897315770485,189.3345527065872 368.21897315770485,231.01171743807737" />
  <polygon fill="white" points="415.10578348063126,217.4766611573851 415.10578348063126,175.79949642589497 441.1540114378126,168.28002071439926 441.1540114378126,209.95718544588942" />
  <polygon fill="grey" points="490.05565920513976,135.06129712799168 490.05565920513976,109.01306917081035 516.103887162321,101.49359345931467 516.103887162321,127.54182141649599" />
  <polygon fill="lightgrey" points="490.05565920513976,135.06129712799168 490.05565920513976,109.01306917081035 475.0167077821484,95.98895519221966 475.0167077821484,122.03718314940102" />
  <polygon fill="darkgrey" points="490.05565920513976,109.01306917081035 475.0167077821484,95.98895519221966 501.0649357393297,88.46947948072398 516.103887162321,101.49359345931467" />
  <polygon fill="hsl(324.0,50.0%,73.87163418289649%)" points="362.1187383677862,320.4558275840722 362.1187383677862,284.6759816620879 368.37031307750976,282.87130749132893 368.37031307750976,318.65115341331324" />
  <polygon fill="hsl(324.0,50.0%,73.87163418289649%)" points="377.747675142095,315.94414215717484 377.747675142095,280.16429623519053 371.49610043237146,281.9689704059495 371.49610043237146,317.7488163279338" />
  <polygon fill="hsl(324.0,50.0%,73.87163418289649%)" points="355.8671636580627,286.8349117330646 355.8671636580627,251.40932171129793 361.33729152907074,249.83023181188383 361.33729152907074,285.2558218336505" />
  <polygon fill="hsl(324.0,50.0%,73.87163418289649%)" points="378.52912198081043,280.2929678640633 378.52912198081043,244.8673778422967 383.99924985181855,243.2882879428826 383.99924985181855,278.7138779646492" />
  <polygon fill="hsl(324.0,50.0%,73.87163418289649%)" points="361.33729152907074,255.30035968289192 361.33729152907074,249.83023181188383 378.52912198081043,244.8673778422967 378.52912198081043,250.33750571330478" />
  <polygon fill="hsl(324.0,50.0%,73.87163418289649%)" points="362.1187383677862,285.0302375623056 362.1187383677862,249.60464754053896 377.747675142095,245.09296211364156 377.747675142095,280.5185521354082" />
  <polygon fill="hsl(324.0,50.0%,73.87163418289649%)" points="366.0259725613634,246.7054466827263 366.0259725613634,230.76393117293134 373.8404409485178,228.50808845948262 373.8404409485178,244.44960396927758" />
  <polygon fill="hsl(324.0,50.0%,73.87163418289649%)" points="367.5888662387943,248.0255576411249 367.5888662387943,230.3127626302416 372.2775472710869,228.95925700217236 372.2775472710869,246.67205201305566" />
  <polygon fill="hsl(324.0,50.0%,73.07460395039482%)" points="435.7127668792555,303.0864901993434 435.7127668792555,267.3066442773591 441.9643415889791,265.50197010660014 441.9643415889791,301.28181602858444" />
  <polygon fill="hsl(324.0,50.0%,73.07460395039482%)" points="451.34170365356437,298.574804772446 451.34170365356437,262.7949588504617 445.09012894384085,264.59963302122065 445.09012894384085,300.37947894320496" />
  <polygon fill="hsl(324.0,50.0%,73.07460395039482%)" points="429.461192169532,269.46557434833574 429.461192169532,234.03998432656914 434.93132004054013,232.46089442715504 434.93132004054013,267.88648444892164" />
  <polygon fill="hsl(324.0,50.0%,73.07460395039482%)" points="452.1231504922798,262.9236304793345 452.1231504922798,227.49804045756787 457.59327836328794,225.91895055815377 457.59327836328794,261.34454057992036" />
  <polygon fill="hsl(324.0,50.0%,73.07460395039482%)" points="434.93132004054013,237.9310222981631 434.93132004054013,232.46089442715504 452.1231504922798,227.49804045756787 452.1231504922798,232.96816832857596" />
  <polygon fill="hsl(324.0,50.0%,73.07460395039482%)" points="435.7127668792555,267.66090017757676 435.7127668792555,232.23531015581017 451.34170365356437,227.72362472891274 451.34170365356437,263.14921475067933" />
  <polygon fill="hsl(324.0,50.0%,73.07460395039482%)" points="439.6200010728328,229.3361092979975 439.6200010728328,213.39459378820249 447.43446945998716,211.13875107475377 447.43446945998716,227.08026658454878" />
  <polygon fill="hsl(324.0,50.0%,73.07460395039482%)" points="441.18289475026364,230.65622025639607 441.18289475026364,212.94342524551277 445.8715757825563,211.58991961744354 445.8715757825563,229.30271462832684" />
  <polygon fill="hsl(324.0,50.0%,66.52963908276185%)" points="409.44838524477007,342.4921816469128 409.44838524477007,306.71233572492855 415.6999599544936,304.9076615541696 415.6999599544936,340.6875074761539" />
  <polygon fill="hsl(324.0,50.0%,66.52963908276185%)" points="425.07732201907885,337.9804962200154 425.07732201907885,302.2006502980311 418.82574730935534,304.0053244687901 418.82574730935534,339.7851703907744" />
  <polygon fill="hsl(324.0,50.0%,66.52963908276185%)" points="403.19681053504655,308.8712657959052 403.1968105350465,273.4456757741385 408.6669384060546,271.8665858747244 408.6669384060546,307.2921758964911" />
  <polygon fill="hsl(324.0,50.0%,66.52963908276185%)" points="425.8587688577943,302.3293219269039 425.8587688577943,266.9037319051373 431.3288967288024,265.3246420057232 431.3288967288024,300.7502320274898" />
  <polygon fill="hsl(324.0,50.0%,66.52963908276185%)" points="408.6669384060546,277.33671374573254 408.6669384060546,271.8665858747244 425.8587688577943,266.9037319051373 425.8587688577943,272.37385977614537" />
  <polygon fill="hsl(324.0,50.0%,66.52963908276185%)" points="409.44838524477007,307.0665916251462 409.44838524477007,271.64100160337955 425.07732201907885,267.1293161764821 425.07732201907885,302.5549061982488" />
  <polygon fill="hsl(324.0,50.0%,66.52963908276185%)" points="413.3556194383472,268.7418007455669 413.3556194383472,252.80028523577192 421.17008782550164,250.5444425223232 421.17008782550164,266.48595803211816" />
  <polygon fill="hsl(324.0,50.0%,66.52963908276185%)" points="414.9185131157781,270.0619117039655 414.9185131157781,252.34911669308218 419.6071941480708,250.99561106501295 419.6071941480708,268.7084060758963" />
  <polygon fill="hsl(324.0,50.0%,50.11143025347155%)" points="486.4832884266636,400.08496656605405 486.4832884266636,364.30512064406975 492.7348631363871,362.5004464733107 492.7348631363871,398.2802923952951" />
  <polygon fill="hsl(324.0,50.0%,50.11143025347155%)" points="502.11222520097243,395.5732811391566 502.11222520097243,359.7934352171723 495.86065049124886,361.59810938793123 495.86065049124886,397.3779553099156" />
  <polygon fill="hsl(324.0,50.0%,50.11143025347155%)" points="480.2317137169401,366.46405071504637 480.2317137169401,331.0384606932797 485.70184158794814,329.4593707938656 485.70184158794814,364.88496081563227" />
  <polygon fill="hsl(324.0,50.0%,50.11143025347155%)" points="502.8936720396879,359.9221068460451 502.8936720396879,324.4965168242785 508.36379991069595,322.9174269248644 508.36379991069595,358.343016946631" />
  <polygon fill="hsl(324.0,50.0%,50.11143025347155%)" points="485.70184158794814,334.92949866487373 485.70184158794814,329.4593707938656 502.8936720396879,324.4965168242785 502.8936720396879,329.96664469528656" />
  <polygon fill="hsl(324.0,50.0%,50.11143025347155%)" points="486.4832884266636,364.6593765442874 486.4832884266636,329.23378652252075 502.11222520097243,324.7221010956233 502.11222520097243,360.14769111738997" />
  <polygon fill="hsl(324.0,50.0%,50.11143025347155%)" points="490.3905226202408,326.3345856647081 490.3905226202408,310.3930701549131 498.2049910073952,308.1372274414644 498.2049910073952,324.07874295125936" />
  <polygon fill="hsl(324.0,50.0%,50.11143025347155%)" points="491.9534162976717,327.65469662310664 491.9534162976717,309.9419016122234 496.6420973299643,308.58839598415415 496.6420973299643,326.3011909950375" />
  <polygon fill="hsl(324.0,50.0%,41.06646317363794%)" points="369.3264427803815,477.8849027656968 369.3264427803815,442.10505684371253 375.578017490105,440.30038267295356 375.578017490105,476.08022859493786" />
  <polygon fill="hsl(324.0,50.0%,41.06646317363794%)" points="384.9553795546903,473.37321733879946 384.9553795546903,437.5933714168151 378.7038048449668,439.3980455875741 378.7038048449668,475.1778915095584" />
  <polygon fill="hsl(324.0,50.0%,41.06646317363794%)" points="363.074868070658,444.2639869146892 363.074868070658,408.83839689292256 368.54499594166606,407.25930699350846 368.54499594166606,442.68489701527506" />
  <polygon fill="hsl(324.0,50.0%,41.06646317363794%)" points="385.73682639340575,437.7220430456879 385.73682639340575,402.2964530239213 391.2069542644138,400.7173631245072 391.2069542644138,436.14295314627384" />
  <polygon fill="hsl(324.0,50.0%,41.06646317363794%)" points="368.54499594166606,412.7294348645165 368.54499594166606,407.25930699350846 385.73682639340575,402.2964530239213 385.73682639340575,407.76658089492935" />
  <polygon fill="hsl(324.0,50.0%,41.06646317363794%)" points="369.3264427803815,442.4593127439302 369.3264427803815,407.0337227221636 384.9553795546903,402.52203729526616 384.9553795546903,437.9476273170328" />
  <polygon fill="hsl(324.0,50.0%,41.06646317363794%)" points="373.2336769739587,404.1345218643509 373.2336769739587,388.1930063545559 381.04814536111314,385.9371636411072 381.04814536111314,401.8786791509022" />
  <polygon fill="hsl(324.0,50.0%,41.06646317363794%)" points="374.7965706513896,405.4546328227495 374.7965706513896,387.74183781186616 379.48525168368224,386.38833218379693 379.48525168368224,404.10112719468026" />
</svg>
