<?xml version="1.0" encoding="UTF-8"?>
<svg
  xmlns="http://www.w3.org/2000/svg"
  width="848"
  height="600"
  style="background-color:white"
>
  <polygon fill="lightblue" points="353.98185914138924,525.321172423485 162.68874086415036,359.65647242625477 494.01814085861076,264.00991328763524 685.3112591358497,429.6746132848655" />
  <polygon fill="steelblue" points="162.68874086415036,359.65647242625477 162.68874086415036,170.32538671513453 494.01814085861076,74.67882757651503 494.01814085861076,264.00991328763524" />
  <polygon fill="lightskyblue" points="685.3112591358497,429.6746132848655 685.3112591358497,240.34352757374523 494.01814085861076,74.67882757651503 494.01814085861076,264.00991328763524" />
  <polygon fill="white" points="565.9807901152864,326.3313956675457 565.9807901152864,236.39912995476357 549.5842371200945,222.19929852642957 549.5842371200945,312.1315642392117" />
  <polygon fill="white" points="629.745162874366,381.5529623332891 629.745162874366,291.620696620507 613.3486098791741,277.420865192173 613.3486098791741,367.35313090495504" />
  <polygon fill="white" points="206.07711467294874,309.26511063492575 206.07711467294874,271.39889349270175 229.74350038683875,264.56699641137175 229.74350038683875,302.4332135535958" />
  <polygon fill="white" points="261.2986813386922,293.32401744515585 261.2986813386922,255.4578003029318 284.9650670525822,248.62590322160185 284.9650670525822,286.4921203638259" />
  <polygon fill="white" points="316.52024800443553,277.38292425538594 316.52024800443553,239.51670711316189 340.18663371832554,232.68481003183194 340.18663371832554,270.55102717405595" />
  <polygon fill="white" points="371.74181467017894,261.44183106561604 371.74181467017894,223.57561392339196 395.40820038406895,216.74371684206199 395.40820038406895,254.60993398428604" />
  <polygon fill="white" points="426.96338133592235,245.50073787584608 426.96338133592235,207.63452073362203 450.62976704981236,200.80262365229208 450.62976704981236,238.66884079451614" />
  <polygon fill="grey" points="484.01554930738064,126.47685751423606 484.01554930738064,102.81047180034605 507.68193502127065,95.97857471901605 507.68193502127065,119.64496043290609" />
  <polygon fill="lightgrey" points="484.01554930738064,126.47685751423606 484.01554930738064,102.81047180034605 470.35175514472076,90.97727894340102 470.35175514472076,114.64366465729103" />
  <polygon fill="darkgrey" points="484.01554930738064,102.81047180034605 470.35175514472076,90.97727894340102 494.01814085861076,84.14538186207102 507.68193502127065,95.97857471901605" />
  <polygon fill="hsl(288.0,50.0%,73.87163418289649%)" points="367.7771425888355,342.2517384871107 367.7771425888355,309.74359107051134 373.4570751601691,308.10393577099217 373.4570751601691,340.6120831875915" />
  <polygon fill="hsl(288.0,50.0%,73.87163418289649%)" points="381.9769740171695,338.15260023831274 381.9769740171695,305.6444528217134 376.2970414458359,307.2841081212326 376.2970414458359,339.7922555378319" />
  <polygon fill="hsl(288.0,50.0%,73.87163418289649%)" points="362.0972100175019,311.7051092157394 362.0972100175019,279.518824644849 367.0671510174188,278.0841262577697 367.0671510174188,310.27041082866015" />
  <polygon fill="hsl(288.0,50.0%,73.87163418289649%)" points="382.6869655885862,305.7613587549824 382.6869655885862,273.57507418409193 387.6569065885031,272.14037579701267 387.6569065885031,304.32666036790306" />
  <polygon fill="hsl(288.0,50.0%,73.87163418289649%)" points="367.0671510174188,283.0540672576866 367.0671510174188,278.0841262577697 382.6869655885862,273.57507418409193 382.6869655885862,278.54501518400883" />
  <polygon fill="hsl(288.0,50.0%,73.87163418289649%)" points="367.7771425888355,310.06545391622024 367.7771425888355,277.87916934532984 381.9769740171695,273.78003109653184 381.9769740171695,305.9663156674223" />
  <polygon fill="hsl(288.0,50.0%,73.87163418289649%)" points="371.327100445919,275.2450705545858 371.327100445919,260.7612424976851 378.427016160086,258.7116733732861 378.427016160086,273.1955014301868" />
  <polygon fill="hsl(288.0,50.0%,73.87163418289649%)" points="372.7470835887524,276.4444709582505 372.7470835887524,260.3513286728053 377.0070330172526,259.1215871981659 377.0070330172526,275.2147294836111" />
  <polygon fill="hsl(288.0,50.0%,73.07460395039482%)" points="434.64175494766874,326.47064816429076 434.64175494766874,293.9625007476914 440.32168751900235,292.32284544817225 440.32168751900235,324.8309928647716" />
  <polygon fill="hsl(288.0,50.0%,73.07460395039482%)" points="448.8415863760028,322.37150991549277 448.8415863760028,289.8633624988934 443.1616538046692,291.5030177984126 443.1616538046692,324.01116521501194" />
  <polygon fill="hsl(288.0,50.0%,73.07460395039482%)" points="428.96182237633514,295.9240188929195 428.96182237633514,263.7377343220291 433.93176337625204,262.3030359349498 433.93176337625204,294.4893205058402" />
  <polygon fill="hsl(288.0,50.0%,73.07460395039482%)" points="449.5515779474195,289.98026843216246 449.5515779474195,257.793983861272 454.5215189473364,256.3592854741927 454.5215189473364,288.54557004508314" />
  <polygon fill="hsl(288.0,50.0%,73.07460395039482%)" points="433.93176337625204,267.2729769348667 433.93176337625204,262.3030359349498 449.5515779474195,257.793983861272 449.5515779474195,262.7639248611889" />
  <polygon fill="hsl(288.0,50.0%,73.07460395039482%)" points="434.64175494766874,294.2843635934003 434.64175494766874,262.09807902250986 448.8415863760028,257.9989407737119 448.8415863760028,290.1852253446023" />
  <polygon fill="hsl(288.0,50.0%,73.07460395039482%)" points="438.1917128047523,259.46398023176585 438.1917128047523,244.98015217486517 445.2916285189193,242.93058305046617 445.2916285189193,257.4144111073669" />
  <polygon fill="hsl(288.0,50.0%,73.07460395039482%)" points="439.61169594758564,260.6633806354306 439.61169594758564,244.57023834998537 443.8716453760859,243.340496875346 443.8716453760859,259.4336391607912" />
  <polygon fill="hsl(288.0,50.0%,66.52963908276185%)" points="410.7789805846558,362.2730948663746 410.7789805846558,329.76494744977526 416.4589131559894,328.1252921502561 416.4589131559894,360.63343956685543" />
  <polygon fill="hsl(288.0,50.0%,66.52963908276185%)" points="424.97881201298986,358.1739566175766 424.97881201298986,325.66580920097726 419.29887944165625,327.3054645004965 419.29887944165625,359.81361191709584" />
  <polygon fill="hsl(288.0,50.0%,66.52963908276185%)" points="405.0990480133222,331.72646559500333 405.0990480133222,299.54018102411294 410.0689890132391,298.1054826370336 410.0689890132391,330.29176720792407" />
  <polygon fill="hsl(288.0,50.0%,66.52963908276185%)" points="425.6888035844065,325.7827151342463 425.6888035844065,293.59643056335585 430.6587445843235,292.16173217627653 430.6587445843235,324.348016747167" />
  <polygon fill="hsl(288.0,50.0%,66.52963908276185%)" points="410.0689890132391,303.0754236369505 410.0689890132391,298.1054826370336 425.6888035844065,293.59643056335585 425.6888035844065,298.56637156327275" />
  <polygon fill="hsl(288.0,50.0%,66.52963908276185%)" points="410.7789805846558,330.08681029548416 410.7789805846558,297.9005257245937 424.97881201298986,293.80138747579576 424.97881201298986,325.98767204668616" />
  <polygon fill="hsl(288.0,50.0%,66.52963908276185%)" points="414.3289384417393,295.2664269338497 414.3289384417393,280.782598876949 421.4288541559063,278.73302975255 421.4288541559063,293.21685780945074" />
  <polygon fill="hsl(288.0,50.0%,66.52963908276185%)" points="415.7489215845727,296.46582733751444 415.7489215845727,280.37268505206924 420.0088710130729,279.14294357742983 420.0088710130729,295.23608586287503" />
  <polygon fill="hsl(288.0,50.0%,50.11143025347155%)" points="480.7698350539803,414.5996126039365 480.7698350539802,382.0914651873371 486.4497676253139,380.45180988781794 486.4497676253139,412.9599573044173" />
  <polygon fill="hsl(288.0,50.0%,50.11143025347155%)" points="494.9696664823143,410.5004743551385 494.9696664823143,377.9923269385391 489.28973391098066,379.63198223805836 489.28973391098066,412.1401296546577" />
  <polygon fill="hsl(288.0,50.0%,50.11143025347155%)" points="475.08990248264666,384.0529833325652 475.08990248264666,351.8666987616748 480.05984348256356,350.43200037459553 480.05984348256356,382.6182849454859" />
  <polygon fill="hsl(288.0,50.0%,50.11143025347155%)" points="495.679658053731,378.10923287180816 495.679658053731,345.9229483009177 500.6495990536479,344.48824991383844 500.6495990536479,376.67453448472884" />
  <polygon fill="hsl(288.0,50.0%,50.11143025347155%)" points="480.05984348256356,355.4019413745124 480.05984348256356,350.43200037459553 495.679658053731,345.9229483009177 495.679658053731,350.8928893008346" />
  <polygon fill="hsl(288.0,50.0%,50.11143025347155%)" points="480.7698350539802,382.413328033046 480.7698350539802,350.2270434621556 494.9696664823143,346.1279052133576 494.9696664823143,378.314189784248" />
  <polygon fill="hsl(288.0,50.0%,50.11143025347155%)" points="484.31979291106376,347.5929446714116 484.31979291106376,333.10911661451087 491.4197086252308,331.0595474901119 491.4197086252308,345.5433755470126" />
  <polygon fill="hsl(288.0,50.0%,50.11143025347155%)" points="485.7397760538972,348.7923450750763 485.7397760538972,332.6992027896311 489.99972548239737,331.4694613149917 489.99972548239737,347.5626036004369" />
  <polygon fill="hsl(288.0,50.0%,41.06646317363794%)" points="374.32577664642247,485.28554569863525 374.32577664642247,452.77739828203596 380.0057092177561,451.1377429825167 380.0057092177561,483.64589039911607" />
  <polygon fill="hsl(288.0,50.0%,41.06646317363794%)" points="388.52560807475646,481.1864074498373 388.52560807475646,448.67826003323796 382.8456755034229,450.31791533275714 382.8456755034229,482.8260627493565" />
  <polygon fill="hsl(288.0,50.0%,41.06646317363794%)" points="368.64584407508886,454.73891642726403 368.64584407508886,422.5526318563736 373.61578507500576,421.11793346929426 373.61578507500576,453.3042180401847" />
  <polygon fill="hsl(288.0,50.0%,41.06646317363794%)" points="389.2355996461732,448.79516596650694 389.2355996461732,416.6088813956165 394.20554064609007,415.1741830085372 394.20554064609007,447.3604675794277" />
  <polygon fill="hsl(288.0,50.0%,41.06646317363794%)" points="373.61578507500576,426.0878744692112 373.61578507500576,421.11793346929426 389.2355996461732,416.6088813956165 389.2355996461732,421.5788223955334" />
  <polygon fill="hsl(288.0,50.0%,41.06646317363794%)" points="374.32577664642247,453.0992611277448 374.32577664642247,420.9129765568544 388.52560807475646,416.8138383080564 388.52560807475646,449.00012287894685" />
  <polygon fill="hsl(288.0,50.0%,41.06646317363794%)" points="377.875734503506,418.2788777661104 377.875734503506,403.7950497092097 384.975650217673,401.7454805848107 384.975650217673,416.2293086417114" />
  <polygon fill="hsl(288.0,50.0%,41.06646317363794%)" points="379.29571764633937,419.4782781697751 379.29571764633937,403.3851358843299 383.55566707483956,402.1553944096905 383.55566707483956,418.2485366951357" />
</svg>
