<?xml version="1.0" encoding="UTF-8"?>
<svg
  xmlns="http://www.w3.org/2000/svg"
  width="848"
  height="600"
  style="background-color:white"
>
  <polygon fill="lightblue" points="353.98185914138924,525.321172423485 162.68874086415036,359.65647242625477 494.01814085861076,264.00991328763524 685.3112591358497,429.6746132848655" />
  <polygon fill="steelblue" points="162.68874086415036,359.65647242625477 162.68874086415036,170.32538671513453 494.01814085861076,74.67882757651503 494.01814085861076,264.00991328763524" />
  <polygon fill="lightskyblue" points="685.3112591358497,429.6746132848655 685.3112591358497,240.34352757374523 494.01814085861076,74.67882757651503 494.01814085861076,264.00991328763524" />
  <polygon fill="white" points="217.1214280060974,306.07689199697177 217.1214280060974,268.2106748547477 240.7878137199874,261.37877777341777 240.7878137199874,299.2449949156418" />
  <polygon fill="white" points="283.38730800498945,286.9475801692479 283.38730800498945,249.08136302702383 307.0536937188795,242.24946594569388 307.0536937188795,280.11568308791794" />
  <polygon fill="white" points="349.65318800388155,267.818268341524 349.65318800388155,229.95205119929994 373.31957371777156,223.12015411797 373.31957371777156,260.986371260194" />
  <polygon fill="white" points="415.91906800277366,248.6889565138001 415.91906800277366,210.82273937157603 439.58545371666366,203.99084229024606 439.58545371666366,241.85705943247012" />
  <polygon fill="hsl(324.0,50.0%,73.07460395039482%)" points="434.64175494766874,326.47064816429076 434.64175494766874,293.9625007476914 440.32168751900235,292.32284544817225 440.32168751900235,324.8309928647716" />
  <polygon fill="hsl(324.0,50.0%,73.07460395039482%)" points="448.8415863760028,322.37150991549277 448.8415863760028,289.8633624988934 443.1616538046692,291.5030177984126 443.1616538046692,324.01116521501194" />
  <polygon fill="hsl(324.0,50.0%,73.07460395039482%)" points="428.96182237633514,295.9240188929195 428.96182237633514,263.7377343220291 433.93176337625204,262.3030359349498 433.93176337625204,294.4893205058402" />
  <polygon fill="hsl(324.0,50.0%,73.07460395039482%)" points="449.5515779474195,289.98026843216246 449.5515779474195,257.793983861272 454.5215189473364,256.3592854741927 454.5215189473364,288.54557004508314" />
  <polygon fill="hsl(324.0,50.0%,73.07460395039482%)" points="433.93176337625204,267.2729769348667 433.93176337625204,262.3030359349498 449.5515779474195,257.793983861272 449.5515779474195,262.7639248611889" />
  <polygon fill="hsl(324.0,50.0%,73.07460395039482%)" points="434.64175494766874,294.2843635934003 434.64175494766874,262.09807902250986 448.8415863760028,257.9989407737119 448.8415863760028,290.1852253446023" />
  <polygon fill="hsl(324.0,50.0%,73.07460395039482%)" points="438.1917128047523,259.46398023176585 438.1917128047523,244.98015217486517 445.2916285189193,242.93058305046617 445.2916285189193,257.4144111073669" />
  <polygon fill="hsl(324.0,50.0%,73.07460395039482%)" points="439.61169594758564,260.6633806354306 439.61169594758564,244.57023834998537 443.8716453760859,243.340496875346 443.8716453760859,259.4336391607912" />
  <polygon fill="hsl(324.0,50.0%,66.52963908276185%)" points="410.7789805846558,362.2730948663746 410.7789805846558,329.76494744977526 416.4589131559894,328.1252921502561 416.4589131559894,360.63343956685543" />
  <polygon fill="hsl(324.0,50.0%,66.52963908276185%)" points="424.97881201298986,358.1739566175766 424.97881201298986,325.66580920097726 419.29887944165625,327.3054645004965 419.29887944165625,359.81361191709584" />
  <polygon fill="hsl(324.0,50.0%,66.52963908276185%)" points="405.0990480133222,331.72646559500333 405.0990480133222,299.54018102411294 410.0689890132391,298.1054826370336 410.0689890132391,330.29176720792407" />
  <polygon fill="hsl(324.0,50.0%,66.52963908276185%)" points="425.6888035844065,325.7827151342463 425.6888035844065,293.59643056335585 430.6587445843235,292.16173217627653 430.6587445843235,324.348016747167" />
  <polygon fill="hsl(324.0,50.0%,66.52963908276185%)" points="410.0689890132391,303.0754236369505 410.0689890132391,298.1054826370336 425.6888035844065,293.59643056335585 425.6888035844065,298.56637156327275" />
  <polygon fill="hsl(324.0,50.0%,66.52963908276185%)" points="410.7789805846558,330.08681029548416 410.7789805846558,297.9005257245937 424.97881201298986,293.80138747579576 424.97881201298986,325.98767204668616" />
  <polygon fill="hsl(324.0,50.0%,66.52963908276185%)" points="414.3289384417393,295.2664269338497 414.3289384417393,280.782598876949 421.4288541559063,278.73302975255 421.4288541559063,293.21685780945074" />
  <polygon fill="hsl(324.0,50.0%,66.52963908276185%)" points="415.7489215845727,296.46582733751444 415.7489215845727,280.37268505206924 420.0088710130729,279.14294357742983 420.0088710130729,295.23608586287503" />
  <polygon fill="hsl(324.0,50.0%,50.11143025347155%)" points="480.7698350539803,414.5996126039365 480.7698350539802,382.0914651873371 486.4497676253139,380.45180988781794 486.4497676253139,412.9599573044173" />
  <polygon fill="hsl(324.0,50.0%,50.11143025347155%)" points="494.9696664823143,410.5004743551385 494.9696664823143,377.9923269385391 489.28973391098066,379.63198223805836 489.28973391098066,412.1401296546577" />
  <polygon fill="hsl(324.0,50.0%,50.11143025347155%)" points="475.08990248264666,384.0529833325652 475.08990248264666,351.8666987616748 480.05984348256356,350.43200037459553 480.05984348256356,382.6182849454859" />
  <polygon fill="hsl(324.0,50.0%,50.11143025347155%)" points="495.679658053731,378.10923287180816 495.679658053731,345.9229483009177 500.6495990536479,344.48824991383844 500.6495990536479,376.67453448472884" />
  <polygon fill="hsl(324.0,50.0%,50.11143025347155%)" points="480.05984348256356,355.4019413745124 480.05984348256356,350.43200037459553 495.679658053731,345.9229483009177 495.679658053731,350.8928893008346" />
  <polygon fill="hsl(324.0,50.0%,50.11143025347155%)" points="480.7698350539802,382.413328033046 480.7698350539802,350.2270434621556 494.9696664823143,346.1279052133576 494.9696664823143,378.314189784248" />
  <polygon fill="hsl(324.0,50.0%,50.11143025347155%)" points="484.31979291106376,347.5929446714116 484.31979291106376,333.10911661451087 491.4197086252308,331.0595474901119 491.4197086252308,345.5433755470126" />
  <polygon fill="hsl(324.0,50.0%,50.11143025347155%)" points="485.7397760538972,348.7923450750763 485.7397760538972,332.6992027896311 489.99972548239737,331.4694613149917 489.99972548239737,347.5626036004369" />
  <polygon fill="hsl(324.0,50.0%,41.06646317363794%)" points="374.32577664642247,485.28554569863525 374.32577664642247,452.77739828203596 380.0057092177561,451.1377429825167 380.0057092177561,483.64589039911607" />
  <polygon fill="hsl(324.0,50.0%,41.06646317363794%)" points="388.52560807475646,481.1864074498373 388.52560807475646,448.67826003323796 382.8456755034229,450.31791533275714 382.8456755034229,482.8260627493565" />
  <polygon fill="hsl(324.0,50.0%,41.06646317363794%)" points="368.64584407508886,454.73891642726403 368.64584407508886,422.5526318563736 373.61578507500576,421.11793346929426 373.61578507500576,453.3042180401847" />
  <polygon fill="hsl(324.0,50.0%,41.06646317363794%)" points="389.2355996461732,448.79516596650694 389.2355996461732,416.6088813956165 394.20554064609007,415.1741830085372 394.20554064609007,447.3604675794277" />
  <polygon fill="hsl(324.0,50.0%,41.06646317363794%)" points="373.61578507500576,426.0878744692112 373.61578507500576,421.11793346929426 389.2355996461732,416.6088813956165 389.2355996461732,421.5788223955334" />
  <polygon fill="hsl(324.0,50.0%,41.06646317363794%)" points="374.32577664642247,453.0992611277448 374.32577664642247,420.9129765568544 388.52560807475646,416.8138383080564 388.52560807475646,449.00012287894685" />
  <polygon fill="hsl(324.0,50.0%,41.06646317363794%)" points="377.875734503506,418.2788777661104 377.875734503506,403.7950497092097 384.975650217673,401.7454805848107 384.975650217673,416.2293086417114" />
  <polygon fill="hsl(324.0,50.0%,41.06646317363794%)" points="379.29571764633937,419.4782781697751 379.29571764633937,403.3851358843299 383.55566707483956,402.1553944096905 383.55566707483956,418.2485366951357" />
</svg>
