<?xml version="1.0" encoding="UTF-8"?>
<svg
  xmlns="http://www.w3.org/2000/svg"
  width="848"
  height="600"
  style="background-color:white"
>
  <polygon fill="lightblue" points="353.98185914138924,525.321172423485 162.68874086415036,359.65647242625477 494.01814085861076,264.00991328763524 685.3112591358497,429.6746132848655" />
  <polygon fill="steelblue" points="162.68874086415036,359.65647242625477 162.68874086415036,170.32538671513453 494.01814085861076,74.67882757651503 494.01814085861076,264.00991328763524" />
  <polygon fill="lightskyblue" points="685.3112591358497,429.6746132848655 685.3112591358497,240.34352757374523 494.01814085861076,74.67882757651503 494.01814085861076,264.00991328763524" />
  <polygon fill="white" points="565.9807901152864,326.3313956675457 565.9807901152864,231.6658528119856 549.5842371200945,217.46602138365154 549.5842371200945,312.1315642392117" />
  <polygon fill="white" points="629.745162874366,381.5529623332891 629.745162874366,286.88741947772894 613.3486098791741,272.68758804939495 613.3486098791741,367.35313090495504" />
  <polygon fill="white" points="217.1214280060974,306.07689199697177 217.1214280060974,268.2106748547477 240.7878137199874,261.37877777341777 240.7878137199874,299.2449949156418" />
  <polygon fill="white" points="283.38730800498945,286.9475801692479 283.38730800498945,249.08136302702383 307.0536937188795,242.24946594569388 307.0536937188795,280.11568308791794" />
  <polygon fill="white" points="349.65318800388155,267.818268341524 349.65318800388155,229.95205119929994 373.31957371777156,223.12015411797 373.31957371777156,260.986371260194" />
  <polygon fill="white" points="415.91906800277366,248.6889565138001 415.91906800277366,210.82273937157603 439.58545371666366,203.99084229024606 439.58545371666366,241.85705943247012" />
  <polygon fill="grey" points="484.01554930738064,126.47685751423606 484.01554930738064,102.81047180034605 507.68193502127065,95.97857471901605 507.68193502127065,119.64496043290609" />
  <polygon fill="lightgrey" points="484.01554930738064,126.47685751423606 484.01554930738064,102.81047180034605 470.35175514472076,90.97727894340102 470.35175514472076,114.64366465729103" />
  <polygon fill="darkgrey" points="484.01554930738064,102.81047180034605 470.35175514472076,90.97727894340102 494.01814085861076,84.14538186207102 507.68193502127065,95.97857471901605" />
  <polygon fill="hsl(360.0,50.0%,50.11143025347155%)" points="480.7698350539803,414.5996126039365 480.7698350539802,382.0914651873371 486.4497676253139,380.45180988781794 486.4497676253139,412.9599573044173" />
  <polygon fill="hsl(360.0,50.0%,50.11143025347155%)" points="494.9696664823143,410.5004743551385 494.9696664823143,377.9923269385391 489.28973391098066,379.63198223805836 489.28973391098066,412.1401296546577" />
  <polygon fill="hsl(360.0,50.0%,50.11143025347155%)" points="475.08990248264666,384.0529833325652 475.08990248264666,351.8666987616748 480.05984348256356,350.43200037459553 480.05984348256356,382.6182849454859" />
  <polygon fill="hsl(360.0,50.0%,50.11143025347155%)" points="495.679658053731,378.10923287180816 495.679658053731,345.9229483009177 500.6495990536479,344.48824991383844 500.6495990536479,376.67453448472884" />
  <polygon fill="hsl(360.0,50.0%,50.11143025347155%)" points="480.05984348256356,355.4019413745124 480.05984348256356,350.43200037459553 495.679658053731,345.9229483009177 495.679658053731,350.8928893008346" />
  <polygon fill="hsl(360.0,50.0%,50.11143025347155%)" points="480.7698350539802,382.413328033046 480.7698350539802,350.2270434621556 494.9696664823143,346.1279052133576 494.9696664823143,378.314189784248" />
  <polygon fill="hsl(360.0,50.0%,50.11143025347155%)" points="484.31979291106376,347.5929446714116 484.31979291106376,333.10911661451087 491.4197086252308,331.0595474901119 491.4197086252308,345.5433755470126" />
  <polygon fill="hsl(360.0,50.0%,50.11143025347155%)" points="485.7397760538972,348.7923450750763 485.7397760538972,332.6992027896311 489.99972548239737,331.4694613149917 489.99972548239737,347.5626036004369" />
</svg>
