<?xml version="1.0" encoding="UTF-8"?>
<svg
  xmlns="http://www.w3.org/2000/svg"
  width="848"
  height="600"
  style="background-color:white"
>
  <polygon fill="lightblue" points="346.9350642606703,521.9498117021485 136.389744338791,339.6122160018792 501.0649357393297,234.33955604093944 711.6102556612091,416.67715174120883" />
  <polygon fill="steelblue" points="136.389744338791,339.6122160018792 136.389744338791,183.32284825879117 501.0649357393297,78.05018829785143 501.0649357393297,234.33955604093944" />
  <polygon fill="lightskyblue" points="711.6102556612091,416.67715174120883 711.6102556612091,260.3877839981208 501.0649357393297,78.05018829785143 501.0649357393297,234.33955604093944" />
  <polygon fill="white" points="615.3609665540641,333.32282227822856 615.3609665540641,229.1299104495032 597.3142248464745,213.50097367519442 597.3142248464745,317.6938855039198" />
  <polygon fill="white" points="305.70322606046966,249.05845914566703 305.70322606046966,207.38129441417686 331.751454017651,199.8618187026812 331.751454017651,241.5389834341713" />
  <polygon fill="grey" points="490.05565920513976,135.06129712799168 490.05565920513976,109.01306917081035 516.103887162321,101.49359345931467 516.103887162321,127.54182141649599" />
  <polygon fill="lightgrey" points="490.05565920513976,135.06129712799168 490.05565920513976,109.01306917081035 475.0167077821484,95.98895519221966 475.0167077821484,122.03718314940102" />
  <polygon fill="darkgrey" points="490.05565920513976,109.01306917081035 475.0167077821484,95.98895519221966 501.0649357393297,88.46947948072398 516.103887162321,101.49359345931467" />
  <polygon fill="hsl(288.0,50.0%,50.11143025347155%)" points="486.4832884266636,400.08496656605405 486.4832884266636,364.30512064406975 492.7348631363871,362.5004464733107 492.7348631363871,398.2802923952951" />
  <polygon fill="hsl(288.0,50.0%,50.11143025347155%)" points="502.11222520097243,395.5732811391566 502.11222520097243,359.7934352171723 495.86065049124886,361.59810938793123 495.86065049124886,397.3779553099156" />
  <polygon fill="hsl(288.0,50.0%,50.11143025347155%)" points="480.2317137169401,366.46405071504637 480.2317137169401,331.0384606932797 485.70184158794814,329.4593707938656 485.70184158794814,364.88496081563227" />
  <polygon fill="hsl(288.0,50.0%,50.11143025347155%)" points="502.8936720396879,359.9221068460451 502.8936720396879,324.4965168242785 508.36379991069595,322.9174269248644 508.36379991069595,358.343016946631" />
  <polygon fill="hsl(288.0,50.0%,50.11143025347155%)" points="485.70184158794814,334.92949866487373 485.70184158794814,329.4593707938656 502.8936720396879,324.4965168242785 502.8936720396879,329.96664469528656" />
  <polygon fill="hsl(288.0,50.0%,50.11143025347155%)" points="486.4832884266636,364.6593765442874 486.4832884266636,329.23378652252075 502.11222520097243,324.7221010956233 502.11222520097243,360.14769111738997" />
  <polygon fill="hsl(288.0,50.0%,50.11143025347155%)" points="490.3905226202408,326.3345856647081 490.3905226202408,310.3930701549131 498.2049910073952,308.1372274414644 498.2049910073952,324.07874295125936" />
  <polygon fill="hsl(288.0,50.0%,50.11143025347155%)" points="491.9534162976717,327.65469662310664 491.9534162976717,309.9419016122234 496.6420973299643,308.58839598415415 496.6420973299643,326.3011909950375" />
  <polygon fill="hsl(288.0,50.0%,41.06646317363794%)" points="369.3264427803815,477.8849027656968 369.3264427803815,442.10505684371253 375.578017490105,440.30038267295356 375.578017490105,476.08022859493786" />
  <polygon fill="hsl(288.0,50.0%,41.06646317363794%)" points="384.9553795546903,473.37321733879946 384.9553795546903,437.5933714168151 378.7038048449668,439.3980455875741 378.7038048449668,475.1778915095584" />
  <polygon fill="hsl(288.0,50.0%,41.06646317363794%)" points="363.074868070658,444.2639869146892 363.074868070658,408.83839689292256 368.54499594166606,407.25930699350846 368.54499594166606,442.68489701527506" />
  <polygon fill="hsl(288.0,50.0%,41.06646317363794%)" points="385.73682639340575,437.7220430456879 385.73682639340575,402.2964530239213 391.2069542644138,400.7173631245072 391.2069542644138,436.14295314627384" />
  <polygon fill="hsl(288.0,50.0%,41.06646317363794%)" points="368.54499594166606,412.7294348645165 368.54499594166606,407.25930699350846 385.73682639340575,402.2964530239213 385.73682639340575,407.76658089492935" />
  <polygon fill="hsl(288.0,50.0%,41.06646317363794%)" points="369.3264427803815,442.4593127439302 369.3264427803815,407.0337227221636 384.9553795546903,402.52203729526616 384.9553795546903,437.9476273170328" />
  <polygon fill="hsl(288.0,50.0%,41.06646317363794%)" points="373.2336769739587,404.1345218643509 373.2336769739587,388.1930063545559 381.04814536111314,385.9371636411072 381.04814536111314,401.8786791509022" />
  <polygon fill="hsl(288.0,50.0%,41.06646317363794%)" points="374.7965706513896,405.4546328227495 374.7965706513896,387.74183781186616 379.48525168368224,386.38833218379693 379.48525168368224,404.10112719468026" />
</svg>
