<?xml version="1.0" encoding="UTF-8"?>
<svg
  xmlns="http://www.w3.org/2000/svg"
  width="848"
  height="600"
  style="background-color:white"
>
  <polygon fill="lightblue" points="353.98185914138924,525.321172423485 162.68874086415036,359.65647242625477 494.01814085861076,264.00991328763524 685.3112591358497,429.6746132848655" />
  <polygon fill="steelblue" points="162.68874086415036,359.65647242625477 162.68874086415036,170.32538671513453 494.01814085861076,74.67882757651503 494.01814085861076,264.00991328763524" />
  <polygon fill="lightskyblue" points="685.3112591358497,429.6746132848655 685.3112591358497,240.34352757374523 494.01814085861076,74.67882757651503 494.01814085861076,264.00991328763524" />
  <polygon fill="white" points="565.9807901152864,326.3313956675457 565.9807901152864,231.6658528119856 549.5842371200945,217.46602138365154 549.5842371200945,312.1315642392117" />
  <polygon fill="white" points="629.745162874366,381.5529623332891 629.745162874366,286.88741947772894 613.3486098791741,272.68758804939495 613.3486098791741,367.35313090495504" />
  <polygon fill="hsl(324.0,50.0%,50.11143025347155%)" points="480.7698350539803,414.5996126039365 480.7698350539802,382.0914651873371 486.4497676253139,380.45180988781794 486.4497676253139,412.9599573044173" />
  <polygon fill="hsl(324.0,50.0%,50.11143025347155%)" points="494.9696664823143,410.5004743551385 494.9696664823143,377.9923269385391 489.28973391098066,379.63198223805836 489.28973391098066,412.1401296546577" />
  <polygon fill="hsl(324.0,50.0%,50.11143025347155%)" points="475.08990248264666,384.0529833325652 475.08990248264666,351.8666987616748 480.05984348256356,350.43200037459553 480.05984348256356,382.6182849454859" />
  <polygon fill="hsl(324.0,50.0%,50.11143025347155%)" points="495.679658053731,378.10923287180816 495.679658053731,345.9229483009177 500.6495990536479,344.48824991383844 500.6495990536479,376.67453448472884" />
  <polygon fill="hsl(324.0,50.0%,50.11143025347155%)" points="480.05984348256356,355.4019413745124 480.05984348256356,350.43200037459553 495.679658053731,345.9229483009177 495.679658053731,350.8928893008346" />
  <polygon fill="hsl(324.0,50.0%,50.11143025347155%)" points="480.7698350539802,382.413328033046 480.7698350539802,350.2270434621556 494.9696664823143,346.1279052133576 494.9696664823143,378.314189784248" />
  <polygon fill="hsl(324.0,50.0%,50.11143025347155%)" points="484.31979291106376,347.5929446714116 484.31979291106376,333.10911661451087 491.4197086252308,331.0595474901119 491.4197086252308,345.5433755470126" />
  <polygon fill="hsl(324.0,50.0%,50.11143025347155%)" points="485.7397760538972,348.7923450750763 485.7397760538972,332.6992027896311 489.99972548239737,331.4694613149917 489.99972548239737,347.5626036004369" />
  <polygon fill="hsl(324.0,50.0%,41.06646317363794%)" points="374.32577664642247,485.28554569863525 374.32577664642247,452.77739828203596 380.0057092177561,451.1377429825167 380.0057092177561,483.64589039911607" />
  <polygon fill="hsl(324.0,50.0%,41.06646317363794%)" points="388.52560807475646,481.1864074498373 388.52560807475646,448.67826003323796 382.8456755034229,450.31791533275714 382.8456755034229,482.8260627493565" />
  <polygon fill="hsl(324.0,50.0%,41.06646317363794%)" points="368.64584407508886,454.73891642726403 368.64584407508886,422.5526318563736 373.61578507500576,421.11793346929426 373.61578507500576,453.3042180401847" />
  <polygon fill="hsl(324.0,50.0%,41.06646317363794%)" points="389.2355996461732,448.79516596650694 389.2355996461732,416.6088813956165 394.20554064609007,415.1741830085372 394.20554064609007,447.3604675794277" />
  <polygon fill="hsl(324.0,50.0%,41.06646317363794%)" points="373.61578507500576,426.0878744692112 373.61578507500576,421.11793346929426 389.2355996461732,416.6088813956165 389.2355996461732,421.5788223955334" />
  <polygon fill="hsl(324.0,50.0%,41.06646317363794%)" points="374.32577664642247,453.0992611277448 374.32577664642247,420.9129765568544 388.52560807475646,416.8138383080564 388.52560807475646,449.00012287894685" />
  <polygon fill="hsl(324.0,50.0%,41.06646317363794%)" points="377.875734503506,418.2788777661104 377.875734503506,403.7950497092097 384.975650217673,401.7454805848107 384.975650217673,416.2293086417114" />
  <polygon fill="hsl(324.0,50.0%,41.06646317363794%)" points="379.29571764633937,419.4782781697751 379.29571764633937,403.3851358843299 383.55566707483956,402.1553944096905 383.55566707483956,418.2485366951357" />
</svg>
