<?xml version="1.0" encoding="UTF-8"?>
<svg
  xmlns="http://www.w3.org/2000/svg"
  width="848"
  height="600"
  style="background-color:white"
>
  <polygon fill="lightblue" points="346.9350642606703,521.9498117021485 136.389744338791,339.6122160018792 501.0649357393297,234.33955604093944 711.6102556612091,416.67715174120883" />
  <polygon fill="steelblue" points="136.389744338791,339.6122160018792 136.389744338791,183.32284825879117 501.0649357393297,78.05018829785143 501.0649357393297,234.33955604093944" />
  <polygon fill="lightskyblue" points="711.6102556612091,416.67715174120883 711.6102556612091,260.3877839981208 501.0649357393297,78.05018829785143 501.0649357393297,234.33955604093944" />
  <polygon fill="white" points="580.2700799004176,302.9332229948503 580.2700799004176,203.94995675756127 562.223338192828,188.32101998325248 562.223338192828,287.30428622054154" />
  <polygon fill="white" points="650.4518532077108,363.7124215616068 650.4518532077108,264.72915532431773 632.4051115001212,249.10021855000892 632.4051115001212,348.083484787298" />
  <polygon fill="hsl(288.0,50.0%,50.11143025347155%)" points="486.4832884266636,400.08496656605405 486.4832884266636,364.30512064406975 492.7348631363871,362.5004464733107 492.7348631363871,398.2802923952951" />
  <polygon fill="hsl(288.0,50.0%,50.11143025347155%)" points="502.11222520097243,395.5732811391566 502.11222520097243,359.7934352171723 495.86065049124886,361.59810938793123 495.86065049124886,397.3779553099156" />
  <polygon fill="hsl(288.0,50.0%,50.11143025347155%)" points="480.2317137169401,366.46405071504637 480.2317137169401,331.0384606932797 485.70184158794814,329.4593707938656 485.70184158794814,364.88496081563227" />
  <polygon fill="hsl(288.0,50.0%,50.11143025347155%)" points="502.8936720396879,359.9221068460451 502.8936720396879,324.4965168242785 508.36379991069595,322.9174269248644 508.36379991069595,358.343016946631" />
  <polygon fill="hsl(288.0,50.0%,50.11143025347155%)" points="485.70184158794814,334.92949866487373 485.70184158794814,329.4593707938656 502.8936720396879,324.4965168242785 502.8936720396879,329.96664469528656" />
  <polygon fill="hsl(288.0,50.0%,50.11143025347155%)" points="486.4832884266636,364.6593765442874 486.4832884266636,329.23378652252075 502.11222520097243,324.7221010956233 502.11222520097243,360.14769111738997" />
  <polygon fill="hsl(288.0,50.0%,50.11143025347155%)" points="490.3905226202408,326.3345856647081 490.3905226202408,310.3930701549131 498.2049910073952,308.1372274414644 498.2049910073952,324.07874295125936" />
  <polygon fill="hsl(288.0,50.0%,50.11143025347155%)" points="491.9534162976717,327.65469662310664 491.9534162976717,309.9419016122234 496.6420973299643,308.58839598415415 496.6420973299643,326.3011909950375" />
</svg>
